<?xml version="1.0" encoding="utf-8"?>
<svg xmlns="http://www.w3.org/2000/svg" xmlns:xlink="http://www.w3.org/1999/xlink" width="600" height="400" viewBox="0 0 2400 1600">
<defs>
  <clipPath id="clip480">
    <rect x="0" y="0" width="2400" height="1600"/>
  </clipPath>
</defs>
<path clip-path="url(#clip480)" d="M0 1600 L2400 1600 L2400 0 L0 0  Z" fill="#ffffff" fill-rule="evenodd" fill-opacity="1"/>
<defs>
  <clipPath id="clip481">
    <rect x="480" y="0" width="1681" height="1600"/>
  </clipPath>
</defs>
<path clip-path="url(#clip480)" d="M172.691 1423.18 L2352.76 1423.18 L2352.76 207.176 L172.691 207.176  Z" fill="#ffffff" fill-rule="evenodd" fill-opacity="1"/>
<defs>
  <clipPath id="clip482">
    <rect x="172" y="207" width="2181" height="1217"/>
  </clipPath>
</defs>
<polyline clip-path="url(#clip482)" style="stroke:#000000; stroke-linecap:round; stroke-linejoin:round; stroke-width:2; stroke-opacity:0.1; fill:none" points="268.713,1423.18 268.713,207.176 "/>
<polyline clip-path="url(#clip482)" style="stroke:#000000; stroke-linecap:round; stroke-linejoin:round; stroke-width:2; stroke-opacity:0.1; fill:none" points="691.134,1423.18 691.134,207.176 "/>
<polyline clip-path="url(#clip482)" style="stroke:#000000; stroke-linecap:round; stroke-linejoin:round; stroke-width:2; stroke-opacity:0.1; fill:none" points="1113.56,1423.18 1113.56,207.176 "/>
<polyline clip-path="url(#clip482)" style="stroke:#000000; stroke-linecap:round; stroke-linejoin:round; stroke-width:2; stroke-opacity:0.1; fill:none" points="1535.98,1423.18 1535.98,207.176 "/>
<polyline clip-path="url(#clip482)" style="stroke:#000000; stroke-linecap:round; stroke-linejoin:round; stroke-width:2; stroke-opacity:0.1; fill:none" points="1958.4,1423.18 1958.4,207.176 "/>
<polyline clip-path="url(#clip480)" style="stroke:#000000; stroke-linecap:round; stroke-linejoin:round; stroke-width:4; stroke-opacity:1; fill:none" points="172.691,1423.18 2352.76,1423.18 "/>
<polyline clip-path="url(#clip480)" style="stroke:#000000; stroke-linecap:round; stroke-linejoin:round; stroke-width:4; stroke-opacity:1; fill:none" points="268.713,1423.18 268.713,1406.48 "/>
<polyline clip-path="url(#clip480)" style="stroke:#000000; stroke-linecap:round; stroke-linejoin:round; stroke-width:4; stroke-opacity:1; fill:none" points="691.134,1423.18 691.134,1406.48 "/>
<polyline clip-path="url(#clip480)" style="stroke:#000000; stroke-linecap:round; stroke-linejoin:round; stroke-width:4; stroke-opacity:1; fill:none" points="1113.56,1423.18 1113.56,1406.48 "/>
<polyline clip-path="url(#clip480)" style="stroke:#000000; stroke-linecap:round; stroke-linejoin:round; stroke-width:4; stroke-opacity:1; fill:none" points="1535.98,1423.18 1535.98,1406.48 "/>
<polyline clip-path="url(#clip480)" style="stroke:#000000; stroke-linecap:round; stroke-linejoin:round; stroke-width:4; stroke-opacity:1; fill:none" points="1958.4,1423.18 1958.4,1406.48 "/>
<path clip-path="url(#clip480)" d="M259.572 1472.22 Q259.869 1472.51 259.869 1472.93 Q259.869 1473.35 259.572 1473.65 Q259.276 1473.94 258.856 1473.94 L227.186 1473.94 Q226.766 1473.94 226.47 1473.65 Q226.173 1473.35 226.173 1472.93 Q226.173 1472.51 226.47 1472.22 Q226.766 1471.92 227.186 1471.92 L258.856 1471.92 Q259.276 1471.92 259.572 1472.22 Z" fill="#000000" fill-rule="nonzero" fill-opacity="1" /><path clip-path="url(#clip480)" d="M265.205 1485.58 Q265.205 1484.67 265.279 1484.39 Q265.378 1484.12 265.773 1483.7 L275.481 1472.88 Q280.792 1466.9 280.792 1461.69 Q280.792 1458.31 279.014 1455.89 Q277.26 1453.47 274.024 1453.47 Q271.8 1453.47 269.923 1454.82 Q268.046 1456.18 267.181 1458.6 Q267.329 1458.55 267.848 1458.55 Q269.108 1458.55 269.799 1459.34 Q270.516 1460.14 270.516 1461.2 Q270.516 1462.56 269.627 1463.22 Q268.762 1463.87 267.897 1463.87 Q267.551 1463.87 267.082 1463.79 Q266.637 1463.72 265.921 1463.03 Q265.205 1462.31 265.205 1461.05 Q265.205 1457.52 267.873 1454.7 Q270.565 1451.88 274.666 1451.88 Q279.31 1451.88 282.349 1454.65 Q285.412 1457.39 285.412 1461.69 Q285.412 1463.2 284.943 1464.58 Q284.498 1465.94 283.88 1467 Q283.288 1468.07 281.657 1469.77 Q280.027 1471.47 278.717 1472.68 Q277.408 1473.9 274.468 1476.46 L269.108 1481.68 L278.223 1481.68 Q282.67 1481.68 283.016 1481.28 Q283.51 1480.57 284.127 1476.79 L285.412 1476.79 L283.979 1485.58 L265.205 1485.58 Z" fill="#000000" fill-rule="nonzero" fill-opacity="1" /><path clip-path="url(#clip480)" d="M289.957 1469.4 Q289.957 1461.96 291.835 1457.91 Q294.453 1451.88 300.629 1451.88 Q301.939 1451.88 303.297 1452.26 Q304.681 1452.6 306.41 1453.96 Q308.164 1455.32 309.226 1457.54 Q311.252 1461.84 311.252 1469.4 Q311.252 1476.79 309.374 1480.81 Q306.632 1486.69 300.58 1486.69 Q298.307 1486.69 295.985 1485.53 Q293.688 1484.37 292.23 1481.58 Q289.957 1477.4 289.957 1469.4 M294.157 1468.78 Q294.157 1476.41 294.7 1479.45 Q295.318 1482.74 296.998 1484.17 Q298.702 1485.58 300.58 1485.58 Q302.606 1485.58 304.285 1484.07 Q305.99 1482.54 306.509 1479.26 Q307.077 1476.02 307.052 1468.78 Q307.052 1461.74 306.558 1458.92 Q305.891 1455.64 304.112 1454.33 Q302.358 1453 300.58 1453 Q299.913 1453 299.196 1453.19 Q298.505 1453.39 297.492 1453.96 Q296.479 1454.53 295.689 1455.94 Q294.923 1457.34 294.552 1459.47 Q294.157 1462.21 294.157 1468.78 Z" fill="#000000" fill-rule="nonzero" fill-opacity="1" /><path clip-path="url(#clip480)" d="M680.487 1469.4 Q680.487 1461.96 682.364 1457.91 Q684.983 1451.88 691.159 1451.88 Q692.468 1451.88 693.827 1452.26 Q695.21 1452.6 696.939 1453.96 Q698.693 1455.32 699.756 1457.54 Q701.781 1461.84 701.781 1469.4 Q701.781 1476.79 699.904 1480.81 Q697.162 1486.69 691.109 1486.69 Q688.837 1486.69 686.515 1485.53 Q684.217 1484.37 682.76 1481.58 Q680.487 1477.4 680.487 1469.4 M684.687 1468.78 Q684.687 1476.41 685.23 1479.45 Q685.848 1482.74 687.527 1484.17 Q689.232 1485.58 691.109 1485.58 Q693.135 1485.58 694.815 1484.07 Q696.519 1482.54 697.038 1479.26 Q697.606 1476.02 697.582 1468.78 Q697.582 1461.74 697.088 1458.92 Q696.421 1455.64 694.642 1454.33 Q692.888 1453 691.109 1453 Q690.442 1453 689.726 1453.19 Q689.034 1453.39 688.021 1453.96 Q687.009 1454.53 686.218 1455.94 Q685.452 1457.34 685.082 1459.47 Q684.687 1462.21 684.687 1468.78 Z" fill="#000000" fill-rule="nonzero" fill-opacity="1" /><path clip-path="url(#clip480)" d="M1090.53 1485.58 Q1090.53 1484.67 1090.61 1484.39 Q1090.71 1484.12 1091.1 1483.7 L1100.81 1472.88 Q1106.12 1466.9 1106.12 1461.69 Q1106.12 1458.31 1104.34 1455.89 Q1102.59 1453.47 1099.35 1453.47 Q1097.13 1453.47 1095.25 1454.82 Q1093.37 1456.18 1092.51 1458.6 Q1092.66 1458.55 1093.18 1458.55 Q1094.44 1458.55 1095.13 1459.34 Q1095.84 1460.14 1095.84 1461.2 Q1095.84 1462.56 1094.95 1463.22 Q1094.09 1463.87 1093.22 1463.87 Q1092.88 1463.87 1092.41 1463.79 Q1091.96 1463.72 1091.25 1463.03 Q1090.53 1462.31 1090.53 1461.05 Q1090.53 1457.52 1093.2 1454.7 Q1095.89 1451.88 1099.99 1451.88 Q1104.64 1451.88 1107.68 1454.65 Q1110.74 1457.39 1110.74 1461.69 Q1110.74 1463.2 1110.27 1464.58 Q1109.83 1465.94 1109.21 1467 Q1108.62 1468.07 1106.98 1469.77 Q1105.35 1471.47 1104.04 1472.68 Q1102.74 1473.9 1099.8 1476.46 L1094.44 1481.68 L1103.55 1481.68 Q1108 1481.68 1108.34 1481.28 Q1108.84 1480.57 1109.45 1476.79 L1110.74 1476.79 L1109.31 1485.58 L1090.53 1485.58 Z" fill="#000000" fill-rule="nonzero" fill-opacity="1" /><path clip-path="url(#clip480)" d="M1115.28 1469.4 Q1115.28 1461.96 1117.16 1457.91 Q1119.78 1451.88 1125.96 1451.88 Q1127.27 1451.88 1128.62 1452.26 Q1130.01 1452.6 1131.74 1453.96 Q1133.49 1455.32 1134.55 1457.54 Q1136.58 1461.84 1136.58 1469.4 Q1136.58 1476.79 1134.7 1480.81 Q1131.96 1486.69 1125.91 1486.69 Q1123.63 1486.69 1121.31 1485.53 Q1119.02 1484.37 1117.56 1481.58 Q1115.28 1477.4 1115.28 1469.4 M1119.48 1468.78 Q1119.48 1476.41 1120.03 1479.45 Q1120.65 1482.74 1122.33 1484.17 Q1124.03 1485.58 1125.91 1485.58 Q1127.93 1485.58 1129.61 1484.07 Q1131.32 1482.54 1131.84 1479.26 Q1132.4 1476.02 1132.38 1468.78 Q1132.38 1461.74 1131.89 1458.92 Q1131.22 1455.64 1129.44 1454.33 Q1127.69 1453 1125.91 1453 Q1125.24 1453 1124.52 1453.19 Q1123.83 1453.39 1122.82 1453.96 Q1121.81 1454.53 1121.02 1455.94 Q1120.25 1457.34 1119.88 1459.47 Q1119.48 1462.21 1119.48 1468.78 Z" fill="#000000" fill-rule="nonzero" fill-opacity="1" /><path clip-path="url(#clip480)" d="M1512.4 1477.23 L1512.4 1475.67 L1527.94 1451.93 Q1528.33 1451.32 1528.95 1451.34 Q1529.52 1451.34 1529.64 1451.56 Q1529.76 1451.79 1529.76 1452.65 L1529.76 1475.67 L1534.83 1475.67 L1534.83 1477.23 L1529.76 1477.23 L1529.76 1481.63 Q1529.76 1483.08 1530.36 1483.55 Q1530.97 1484.02 1533.59 1484.02 L1534.66 1484.02 L1534.66 1485.58 Q1532.58 1485.43 1527.79 1485.43 Q1523.02 1485.43 1520.95 1485.58 L1520.95 1484.02 L1522.01 1484.02 Q1524.63 1484.02 1525.24 1483.58 Q1525.86 1483.11 1525.86 1481.63 L1525.86 1477.23 L1512.4 1477.23 M1513.83 1475.67 L1526.16 1475.67 L1526.16 1456.8 L1513.83 1475.67 Z" fill="#000000" fill-rule="nonzero" fill-opacity="1" /><path clip-path="url(#clip480)" d="M1538.26 1469.4 Q1538.26 1461.96 1540.14 1457.91 Q1542.76 1451.88 1548.93 1451.88 Q1550.24 1451.88 1551.6 1452.26 Q1552.99 1452.6 1554.71 1453.96 Q1556.47 1455.32 1557.53 1457.54 Q1559.56 1461.84 1559.56 1469.4 Q1559.56 1476.79 1557.68 1480.81 Q1554.94 1486.69 1548.88 1486.69 Q1546.61 1486.69 1544.29 1485.53 Q1541.99 1484.37 1540.54 1481.58 Q1538.26 1477.4 1538.26 1469.4 M1542.46 1468.78 Q1542.46 1476.41 1543.01 1479.45 Q1543.62 1482.74 1545.3 1484.17 Q1547.01 1485.58 1548.88 1485.58 Q1550.91 1485.58 1552.59 1484.07 Q1554.29 1482.54 1554.81 1479.26 Q1555.38 1476.02 1555.36 1468.78 Q1555.36 1461.74 1554.86 1458.92 Q1554.2 1455.64 1552.42 1454.33 Q1550.66 1453 1548.88 1453 Q1548.22 1453 1547.5 1453.19 Q1546.81 1453.39 1545.8 1453.96 Q1544.78 1454.53 1543.99 1455.94 Q1543.23 1457.34 1542.86 1459.47 Q1542.46 1462.21 1542.46 1468.78 Z" fill="#000000" fill-rule="nonzero" fill-opacity="1" /><path clip-path="url(#clip480)" d="M1935.18 1469.6 Q1935.18 1461.64 1939.23 1456.78 Q1943.28 1451.88 1948.49 1451.88 Q1951.53 1451.88 1953.21 1453.44 Q1954.92 1454.97 1954.92 1457.34 Q1954.92 1458.65 1954.15 1459.22 Q1953.38 1459.79 1952.59 1459.79 Q1951.68 1459.79 1950.96 1459.17 Q1950.25 1458.55 1950.25 1457.44 Q1950.25 1455.17 1953.04 1455.17 Q1951.73 1453.14 1948.59 1453.14 Q1947.63 1453.14 1946.64 1453.44 Q1945.65 1453.71 1944.37 1454.65 Q1943.08 1455.59 1942.09 1457.07 Q1941.11 1458.55 1940.41 1461.35 Q1939.72 1464.14 1939.72 1467.77 L1939.72 1468.98 Q1941.8 1463.96 1946.05 1463.99 Q1950.3 1463.99 1953.24 1467.23 Q1956.18 1470.46 1956.18 1475.25 Q1956.18 1480.17 1953.11 1483.43 Q1950.05 1486.69 1945.75 1486.69 Q1943.82 1486.69 1942.07 1485.88 Q1940.34 1485.09 1938.71 1483.26 Q1937.1 1481.43 1936.14 1477.92 Q1935.18 1474.41 1935.18 1469.6 M1939.82 1474.14 Q1939.82 1479.11 1940.74 1481.48 Q1940.88 1481.87 1941.21 1482.42 Q1941.55 1482.96 1942.12 1483.68 Q1942.71 1484.37 1943.68 1484.84 Q1944.64 1485.28 1945.75 1485.28 Q1949.14 1485.28 1950.77 1482 Q1951.63 1480.17 1951.63 1475.2 Q1951.63 1470.14 1950.72 1468.29 Q1949.16 1465.15 1946 1465.15 Q1943.87 1465.15 1942.39 1466.61 Q1940.93 1468.07 1940.37 1470.02 Q1939.82 1471.97 1939.82 1474.14 Z" fill="#000000" fill-rule="nonzero" fill-opacity="1" /><path clip-path="url(#clip480)" d="M1960.33 1469.4 Q1960.33 1461.96 1962.2 1457.91 Q1964.82 1451.88 1971 1451.88 Q1972.31 1451.88 1973.67 1452.26 Q1975.05 1452.6 1976.78 1453.96 Q1978.53 1455.32 1979.59 1457.54 Q1981.62 1461.84 1981.62 1469.4 Q1981.62 1476.79 1979.74 1480.81 Q1977 1486.69 1970.95 1486.69 Q1968.68 1486.69 1966.35 1485.53 Q1964.06 1484.37 1962.6 1481.58 Q1960.33 1477.4 1960.33 1469.4 M1964.53 1468.78 Q1964.53 1476.41 1965.07 1479.45 Q1965.69 1482.74 1967.37 1484.17 Q1969.07 1485.58 1970.95 1485.58 Q1972.97 1485.58 1974.65 1484.07 Q1976.36 1482.54 1976.88 1479.26 Q1977.45 1476.02 1977.42 1468.78 Q1977.42 1461.74 1976.93 1458.92 Q1976.26 1455.64 1974.48 1454.33 Q1972.73 1453 1970.95 1453 Q1970.28 1453 1969.56 1453.19 Q1968.87 1453.39 1967.86 1453.96 Q1966.85 1454.53 1966.06 1455.94 Q1965.29 1457.34 1964.92 1459.47 Q1964.53 1462.21 1964.53 1468.78 Z" fill="#000000" fill-rule="nonzero" fill-opacity="1" /><path clip-path="url(#clip480)" d="M1232.58 1528.17 Q1232.58 1529.07 1232.16 1529.3 Q1231.74 1529.49 1230.58 1529.49 L1224.4 1529.49 L1219.51 1548.94 Q1219.12 1550.65 1219.12 1552.1 Q1219.12 1553.71 1219.6 1554.42 Q1220.12 1555.13 1221.18 1555.13 Q1223.27 1555.13 1225.53 1553.23 Q1227.81 1551.33 1229.75 1546.69 Q1230 1546.08 1230.13 1545.95 Q1230.29 1545.79 1230.71 1545.79 Q1231.52 1545.79 1231.52 1546.43 Q1231.52 1546.66 1231.07 1547.69 Q1230.65 1548.72 1229.72 1550.23 Q1228.81 1551.75 1227.62 1553.16 Q1226.46 1554.58 1224.69 1555.61 Q1222.92 1556.61 1221.02 1556.61 Q1218.35 1556.61 1216.64 1554.9 Q1214.96 1553.19 1214.96 1550.52 Q1214.96 1549.65 1215.64 1546.88 Q1216.32 1544.08 1219.99 1529.49 L1214.16 1529.49 Q1213.35 1529.49 1213.03 1529.46 Q1212.74 1529.43 1212.52 1529.27 Q1212.32 1529.07 1212.32 1528.69 Q1212.32 1528.07 1212.58 1527.82 Q1212.84 1527.53 1213.16 1527.49 Q1213.52 1527.43 1214.32 1527.43 L1220.5 1527.43 L1223.08 1516.96 Q1223.34 1515.93 1223.98 1515.35 Q1224.66 1514.74 1225.05 1514.68 Q1225.43 1514.58 1225.72 1514.58 Q1226.59 1514.58 1227.11 1515.06 Q1227.62 1515.51 1227.62 1516.35 Q1227.62 1516.8 1224.92 1527.43 L1230.71 1527.43 Q1231.45 1527.43 1231.74 1527.46 Q1232.07 1527.49 1232.32 1527.66 Q1232.58 1527.82 1232.58 1528.17 Z" fill="#000000" fill-rule="nonzero" fill-opacity="1" /><path clip-path="url(#clip480)" d="M1253.33 1572.36 L1253.33 1506.4 L1263.28 1506.4 L1263.28 1507.91 L1257.74 1507.91 L1257.74 1570.84 L1263.28 1570.84 L1263.28 1572.36 L1253.33 1572.36 Z" fill="#000000" fill-rule="nonzero" fill-opacity="1" /><path clip-path="url(#clip480)" d="M1290.22 1532.39 Q1290.22 1534.19 1289.32 1535.16 Q1288.41 1536.09 1287.19 1536.09 Q1286.19 1536.09 1285.64 1535.51 Q1285.13 1534.93 1285.13 1534.16 Q1285.13 1533.03 1286.03 1532.13 Q1286.96 1531.23 1288.32 1531.2 Q1287.87 1530.01 1286.67 1529.3 Q1285.48 1528.56 1284.42 1528.36 Q1283.39 1528.17 1282.36 1528.17 Q1280.33 1528.17 1278.78 1528.81 Q1277.24 1529.46 1276.47 1530.46 Q1275.69 1531.42 1275.34 1532.36 Q1274.98 1533.29 1274.98 1534.1 Q1274.98 1534.81 1275.14 1535.38 Q1275.34 1535.93 1275.79 1536.35 Q1276.24 1536.74 1276.56 1537 Q1276.92 1537.25 1277.69 1537.48 Q1278.46 1537.7 1278.78 1537.8 Q1279.11 1537.86 1280.01 1538.06 Q1281.88 1538.44 1282.71 1538.67 Q1283.55 1538.86 1284.65 1539.41 Q1285.77 1539.96 1286.61 1540.83 Q1288.64 1542.86 1288.64 1545.66 Q1288.64 1546.69 1288.28 1547.95 Q1287.96 1549.2 1287.03 1550.78 Q1286.09 1552.36 1284.68 1553.61 Q1283.26 1554.87 1280.81 1555.74 Q1278.4 1556.61 1275.37 1556.61 Q1271.15 1556.61 1268.54 1554.84 Q1265.93 1553.03 1265.93 1550.2 Q1265.93 1548.14 1267.06 1547.01 Q1268.19 1545.85 1269.64 1545.85 Q1270.73 1545.85 1271.41 1546.46 Q1272.09 1547.04 1272.09 1548.14 Q1272.09 1549.62 1270.89 1550.75 Q1269.7 1551.87 1267.93 1551.65 Q1269.44 1555.13 1275.43 1555.13 Q1277.69 1555.13 1279.43 1554.55 Q1281.2 1553.94 1282.17 1553.1 Q1283.16 1552.23 1283.81 1551.17 Q1284.45 1550.1 1284.65 1549.3 Q1284.87 1548.49 1284.87 1547.88 Q1284.87 1546.82 1284.45 1546.01 Q1284.03 1545.21 1283.45 1544.76 Q1282.91 1544.27 1281.84 1543.89 Q1280.81 1543.47 1280.07 1543.31 Q1279.33 1543.15 1278.01 1542.89 Q1277.4 1542.76 1277.01 1542.7 Q1276.63 1542.6 1275.82 1542.34 Q1275.05 1542.05 1274.5 1541.76 Q1273.99 1541.47 1273.31 1540.96 Q1272.63 1540.44 1272.21 1539.83 Q1271.8 1539.22 1271.51 1538.32 Q1271.22 1537.41 1271.22 1536.35 Q1271.22 1535.38 1271.51 1534.23 Q1271.83 1533.07 1272.63 1531.71 Q1273.47 1530.36 1274.66 1529.27 Q1275.85 1528.17 1277.85 1527.46 Q1279.88 1526.72 1282.36 1526.72 Q1285.97 1526.72 1288.09 1528.4 Q1290.22 1530.04 1290.22 1532.39 Z" fill="#000000" fill-rule="nonzero" fill-opacity="1" /><path clip-path="url(#clip480)" d="M1294.97 1570.84 L1300.51 1570.84 L1300.51 1507.91 L1294.97 1507.91 L1294.97 1506.4 L1304.92 1506.4 L1304.92 1572.36 L1294.97 1572.36 L1294.97 1570.84 Z" fill="#000000" fill-rule="nonzero" fill-opacity="1" /><polyline clip-path="url(#clip482)" style="stroke:#000000; stroke-linecap:round; stroke-linejoin:round; stroke-width:2; stroke-opacity:0.1; fill:none" points="172.691,1388.76 2352.76,1388.76 "/>
<polyline clip-path="url(#clip482)" style="stroke:#000000; stroke-linecap:round; stroke-linejoin:round; stroke-width:2; stroke-opacity:0.1; fill:none" points="172.691,1127.21 2352.76,1127.21 "/>
<polyline clip-path="url(#clip482)" style="stroke:#000000; stroke-linecap:round; stroke-linejoin:round; stroke-width:2; stroke-opacity:0.1; fill:none" points="172.691,865.661 2352.76,865.661 "/>
<polyline clip-path="url(#clip482)" style="stroke:#000000; stroke-linecap:round; stroke-linejoin:round; stroke-width:2; stroke-opacity:0.1; fill:none" points="172.691,604.109 2352.76,604.109 "/>
<polyline clip-path="url(#clip482)" style="stroke:#000000; stroke-linecap:round; stroke-linejoin:round; stroke-width:2; stroke-opacity:0.1; fill:none" points="172.691,342.557 2352.76,342.557 "/>
<polyline clip-path="url(#clip480)" style="stroke:#000000; stroke-linecap:round; stroke-linejoin:round; stroke-width:4; stroke-opacity:1; fill:none" points="172.691,1423.18 172.691,207.176 "/>
<polyline clip-path="url(#clip480)" style="stroke:#000000; stroke-linecap:round; stroke-linejoin:round; stroke-width:4; stroke-opacity:1; fill:none" points="172.691,1388.76 191.588,1388.76 "/>
<polyline clip-path="url(#clip480)" style="stroke:#000000; stroke-linecap:round; stroke-linejoin:round; stroke-width:4; stroke-opacity:1; fill:none" points="172.691,1127.21 191.588,1127.21 "/>
<polyline clip-path="url(#clip480)" style="stroke:#000000; stroke-linecap:round; stroke-linejoin:round; stroke-width:4; stroke-opacity:1; fill:none" points="172.691,865.661 191.588,865.661 "/>
<polyline clip-path="url(#clip480)" style="stroke:#000000; stroke-linecap:round; stroke-linejoin:round; stroke-width:4; stroke-opacity:1; fill:none" points="172.691,604.109 191.588,604.109 "/>
<polyline clip-path="url(#clip480)" style="stroke:#000000; stroke-linecap:round; stroke-linejoin:round; stroke-width:4; stroke-opacity:1; fill:none" points="172.691,342.557 191.588,342.557 "/>
<path clip-path="url(#clip480)" d="M115.397 1389.86 Q115.397 1382.43 117.274 1378.38 Q119.893 1372.35 126.068 1372.35 Q127.378 1372.35 128.736 1372.72 Q130.12 1373.07 131.849 1374.42 Q133.603 1375.78 134.665 1378.01 Q136.691 1382.3 136.691 1389.86 Q136.691 1397.25 134.813 1401.28 Q132.071 1407.16 126.019 1407.16 Q123.746 1407.16 121.424 1406 Q119.127 1404.83 117.669 1402.04 Q115.397 1397.87 115.397 1389.86 M119.596 1389.25 Q119.596 1396.88 120.14 1399.92 Q120.757 1403.2 122.437 1404.64 Q124.142 1406.04 126.019 1406.04 Q128.045 1406.04 129.724 1404.54 Q131.429 1403.01 131.948 1399.72 Q132.516 1396.48 132.491 1389.25 Q132.491 1382.21 131.997 1379.39 Q131.33 1376.1 129.552 1374.79 Q127.798 1373.46 126.019 1373.46 Q125.352 1373.46 124.636 1373.66 Q123.944 1373.86 122.931 1374.42 Q121.918 1374.99 121.128 1376.4 Q120.362 1377.81 119.991 1379.93 Q119.596 1382.68 119.596 1389.25 Z" fill="#000000" fill-rule="nonzero" fill-opacity="1" /><path clip-path="url(#clip480)" d="M119.991 1115.61 L119.991 1114.03 Q126.068 1114.03 129.206 1110.8 Q130.07 1110.8 130.219 1111 Q130.367 1111.19 130.367 1112.11 L130.367 1140.49 Q130.367 1142 131.108 1142.47 Q131.849 1142.94 135.085 1142.94 L136.691 1142.94 L136.691 1144.49 Q134.912 1144.34 128.489 1144.34 Q122.066 1144.34 120.312 1144.49 L120.312 1142.94 L121.918 1142.94 Q125.105 1142.94 125.871 1142.49 Q126.637 1142.02 126.637 1140.49 L126.637 1114.28 Q123.993 1115.61 119.991 1115.61 Z" fill="#000000" fill-rule="nonzero" fill-opacity="1" /><path clip-path="url(#clip480)" d="M116.483 882.941 Q116.483 882.027 116.558 881.755 Q116.656 881.484 117.052 881.064 L126.76 870.243 Q132.071 864.265 132.071 859.053 Q132.071 855.669 130.293 853.248 Q128.539 850.827 125.303 850.827 Q123.079 850.827 121.202 852.185 Q119.324 853.544 118.46 855.965 Q118.608 855.916 119.127 855.916 Q120.387 855.916 121.078 856.706 Q121.795 857.497 121.795 858.559 Q121.795 859.917 120.905 860.584 Q120.041 861.227 119.176 861.227 Q118.83 861.227 118.361 861.153 Q117.916 861.079 117.2 860.387 Q116.483 859.67 116.483 858.411 Q116.483 854.878 119.151 852.062 Q121.844 849.246 125.945 849.246 Q130.589 849.246 133.628 852.012 Q136.691 854.754 136.691 859.053 Q136.691 860.56 136.221 861.943 Q135.777 863.302 135.159 864.364 Q134.566 865.426 132.936 867.131 Q131.305 868.835 129.996 870.046 Q128.687 871.256 125.747 873.825 L120.387 879.038 L129.502 879.038 Q133.949 879.038 134.295 878.643 Q134.789 877.926 135.406 874.147 L136.691 874.147 L135.258 882.941 L116.483 882.941 Z" fill="#000000" fill-rule="nonzero" fill-opacity="1" /><path clip-path="url(#clip480)" d="M115.693 614.571 Q115.693 613.064 116.558 612.348 Q117.422 611.631 118.534 611.631 Q119.695 611.631 120.51 612.397 Q121.35 613.138 121.35 614.448 Q121.35 615.856 120.362 616.646 Q119.398 617.437 118.015 617.239 Q119.226 619.265 121.449 620.179 Q123.697 621.093 125.772 621.093 Q127.946 621.093 129.7 619.215 Q131.478 617.338 131.478 612.743 Q131.478 608.84 129.947 606.592 Q128.44 604.344 125.451 604.344 L123.227 604.344 Q122.462 604.344 122.239 604.27 Q122.017 604.196 122.017 603.776 Q122.017 603.282 122.783 603.183 Q123.549 603.183 124.759 603.035 Q127.699 602.936 129.255 600.391 Q130.663 598.02 130.663 594.635 Q130.663 591.548 129.181 590.263 Q127.723 588.954 125.821 588.954 Q124.043 588.954 122.091 589.695 Q120.14 590.436 119.077 592.091 Q122.215 592.091 122.215 594.635 Q122.215 595.747 121.498 596.488 Q120.807 597.205 119.645 597.205 Q118.534 597.205 117.793 596.513 Q117.052 595.797 117.052 594.586 Q117.052 591.696 119.621 589.695 Q122.215 587.694 126.019 587.694 Q129.774 587.694 132.541 589.67 Q135.332 591.646 135.332 594.685 Q135.332 597.674 133.356 600.12 Q131.38 602.565 128.242 603.578 Q132.096 604.344 134.393 606.962 Q136.691 609.556 136.691 612.743 Q136.691 616.696 133.578 619.611 Q130.466 622.501 125.92 622.501 Q121.721 622.501 118.707 620.228 Q115.693 617.955 115.693 614.571 Z" fill="#000000" fill-rule="nonzero" fill-opacity="1" /><path clip-path="url(#clip480)" d="M114.26 351.488 L114.26 349.931 L129.799 326.191 Q130.194 325.574 130.811 325.599 Q131.38 325.599 131.503 325.821 Q131.627 326.043 131.627 326.908 L131.627 349.931 L136.691 349.931 L136.691 351.488 L131.627 351.488 L131.627 355.885 Q131.627 357.342 132.219 357.812 Q132.837 358.281 135.456 358.281 L136.518 358.281 L136.518 359.837 Q134.443 359.689 129.65 359.689 Q124.883 359.689 122.808 359.837 L122.808 358.281 L123.87 358.281 Q126.488 358.281 127.106 357.836 Q127.723 357.367 127.723 355.885 L127.723 351.488 L114.26 351.488 M115.693 349.931 L128.02 349.931 L128.02 331.058 L115.693 349.931 Z" fill="#000000" fill-rule="nonzero" fill-opacity="1" /><path clip-path="url(#clip480)" d="M82.5735 858.441 L16.6159 858.441 L16.6159 848.489 L18.1296 848.489 L18.1296 854.029 L81.0598 854.029 L81.0598 848.489 L82.5735 848.489 L82.5735 858.441 Z" fill="#000000" fill-rule="nonzero" fill-opacity="1" /><path clip-path="url(#clip480)" d="M56.6478 793.113 Q56.9054 793.113 57.9038 793.403 Q58.9022 793.693 60.4481 794.402 Q61.994 795.078 63.411 796.044 Q64.7959 796.978 65.8264 798.524 Q66.8248 800.038 66.8248 801.777 Q66.8248 804.095 65.2789 805.641 Q63.7331 807.187 61.4142 807.187 Q60.1582 807.187 57.775 806.318 Q46.8894 802.228 42.9925 802.228 Q38.3871 802.228 38.3871 805.802 Q38.3871 807.831 39.2244 809.667 Q40.0618 811.503 41.2212 812.694 Q42.3806 813.886 43.701 814.82 Q45.0215 815.754 45.891 816.173 Q46.7606 816.559 47.147 816.656 L63.0567 820.617 Q64.4094 820.939 65.0535 821.165 Q65.6976 821.39 66.2451 822.002 Q66.8248 822.614 66.8248 823.58 Q66.8248 824.385 66.3417 824.965 Q65.8587 825.512 65.0213 825.512 Q64.8925 825.512 64.2162 825.351 Q63.5398 825.19 62.6059 824.965 Q61.6719 824.739 61.1244 824.643 Q56.7444 823.483 56.1325 823.322 L48.4675 821.487 Q44.6672 820.488 42.9925 820.488 Q38.3871 820.488 38.3871 824.063 Q38.3871 825.834 39.0634 827.509 Q39.7075 829.152 40.6093 830.279 Q41.511 831.406 42.7671 832.437 Q43.9909 833.435 44.8282 833.95 Q45.6334 834.433 46.4385 834.82 L49.7235 835.657 Q50.6253 835.85 54.1357 836.784 L60.0938 838.234 Q64.5382 839.264 64.9569 839.49 Q65.8587 839.812 66.3417 840.52 Q66.8248 841.229 66.8248 841.937 Q66.8248 842.743 66.3417 843.29 Q65.8587 843.838 65.0213 843.838 Q64.8925 843.838 64.4094 843.741 Q63.9263 843.644 63.25 843.483 Q62.5737 843.322 62.1872 843.258 L46.9538 839.425 Q44.1841 838.717 43.3146 838.556 Q42.4128 838.363 41.4144 838.363 Q38.3871 838.363 38.3871 840.424 Q38.3871 842.098 40.3838 843.193 Q42.3806 844.288 46.2453 845.222 Q47.3081 845.512 47.5335 845.705 Q47.759 845.866 47.759 846.35 Q47.7268 847.155 47.0826 847.155 Q46.9216 847.155 45.891 846.897 Q44.8604 846.639 43.3146 846.156 Q41.7365 845.641 40.7059 845.094 Q40.0296 844.771 39.5787 844.482 Q39.1278 844.192 38.4193 843.612 Q37.7107 843.032 37.3243 842.163 Q36.9378 841.293 36.9378 840.23 Q36.9378 837.879 38.4515 836.14 Q39.9651 834.369 42.6704 834.144 Q36.9378 829.86 36.9378 823.87 Q36.9378 820.488 38.6447 818.459 Q40.2872 816.559 43.3146 816.334 Q36.9378 811.889 36.9378 805.577 Q36.9378 801.938 38.8379 799.973 Q40.7059 798.009 43.9909 798.009 Q45.6978 798.009 48.9506 798.878 Q52.1712 799.748 53.7815 800.327 Q55.3917 800.907 58.4835 802.034 Q61.4465 803.226 63.1856 803.226 Q64.3128 803.226 64.8281 802.839 Q65.3434 802.453 65.3434 801.616 Q65.3434 800.327 64.6026 799.2 Q63.8297 798.073 62.5737 797.268 Q61.2854 796.431 59.9972 795.883 Q58.6767 795.336 57.1953 794.917 Q56.3901 794.659 56.1969 794.53 Q56.0037 794.369 56.0037 793.918 Q56.0037 793.113 56.6478 793.113 Z" fill="#000000" fill-rule="nonzero" fill-opacity="1" /><path clip-path="url(#clip480)" d="M81.0598 790.065 L81.0598 784.526 L18.1296 784.526 L18.1296 790.065 L16.6159 790.065 L16.6159 780.114 L82.5735 780.114 L82.5735 790.065 L81.0598 790.065 Z" fill="#000000" fill-rule="nonzero" fill-opacity="1" /><polyline clip-path="url(#clip482)" style="stroke:#4a7945; stroke-linecap:round; stroke-linejoin:round; stroke-width:8; stroke-opacity:1; fill:none" points="234.391,630.513 237.031,608.005 239.671,585.889 242.311,564.542 244.951,544.312 247.591,525.505 250.232,508.379 252.872,493.135 255.512,479.917 258.152,468.813 260.792,459.86 263.432,453.048 266.072,448.333 268.713,445.645 271.353,444.897 273.993,445.994 276.633,448.841 279.273,453.35 281.913,459.441 284.553,467.047 287.193,476.113 289.834,486.594 292.474,498.453 295.114,511.658 297.754,526.179 300.394,541.986 303.034,559.044 305.674,577.311 308.315,596.74 310.955,617.278 313.595,638.864 316.235,661.431 318.875,684.91 321.515,709.227 324.155,734.307 326.795,760.074 329.436,786.449 332.076,813.351 334.716,840.693 337.356,868.381 339.996,896.306 342.636,924.346 345.276,952.356 347.917,980.168 350.557,1007.59 353.197,1034.39 355.837,1060.32 358.477,1085.11 361.117,1108.47 363.757,1130.1 366.398,1149.68 369.038,1166.94 371.678,1181.61 374.318,1193.44 376.958,1202.27 379.598,1207.96 382.238,1210.45 384.878,1209.74 387.519,1205.89 390.159,1199.04 392.799,1189.38 395.439,1177.15 398.079,1162.61 400.719,1146.05 403.359,1127.8 406,1108.14 408.64,1087.39 411.28,1065.79 413.92,1043.62 416.56,1021.07 419.2,998.332 421.84,975.556 424.48,952.86 427.121,930.336 429.761,908.052 432.401,886.057 435.041,864.383 437.681,843.053 440.321,822.08 442.961,801.472 445.602,781.232 448.242,761.362 450.882,741.861 453.522,722.728 456.162,703.961 458.802,685.557 461.442,667.514 464.083,649.828 466.723,632.497 469.363,615.517 472.003,598.886 474.643,582.601 477.283,566.662 479.923,551.068 482.563,535.821 485.204,520.924 487.844,506.382 490.484,492.203 493.124,478.396 495.764,464.974 498.404,451.948 501.044,439.336 503.685,427.153 506.325,415.417 508.965,404.145 511.605,393.355 514.245,383.063 516.885,373.282 519.525,364.027 522.165,355.305 524.806,347.122 527.446,339.481 530.086,332.378 532.726,325.808 535.366,319.757 538.006,314.21 540.646,309.145 543.287,304.535 545.927,300.351 548.567,296.559 551.207,293.123 553.847,290.002 556.487,287.157 559.127,284.547 561.768,282.132 564.408,279.871 567.048,277.728 569.688,275.669 572.328,273.664 574.968,271.687 577.608,269.717 580.248,267.739 582.889,265.744 585.529,263.727 588.169,261.689 590.809,259.64 593.449,257.591 596.089,255.559 598.729,253.568 601.37,251.643 604.01,249.811 606.65,248.103 609.29,246.55 611.93,245.182 614.57,244.03 617.21,243.12 619.85,242.478 622.491,242.122 625.131,242.071 627.771,242.333 630.411,242.917 633.051,243.821 635.691,245.043 638.331,246.572 640.972,248.397 643.612,250.5 646.252,252.865 648.892,255.47 651.532,258.295 654.172,261.323 656.812,264.536 659.453,267.919 662.093,271.461 664.733,275.156 667.373,279 670.013,282.996 672.653,287.147 675.293,291.463 677.933,295.953 680.574,300.63 683.214,305.509 685.854,310.601 688.494,315.919 691.134,321.474 693.774,327.276 696.414,333.331 699.055,339.643 701.695,346.214 704.335,353.042 706.975,360.124 709.615,367.453 712.255,375.019 714.895,382.81 717.535,390.812 720.176,399.006 722.816,407.372 725.456,415.887 728.096,424.525 730.736,433.26 733.376,442.063 736.016,450.904 738.657,459.754 741.297,468.585 743.937,477.37 746.577,486.083 749.217,494.703 751.857,503.213 754.497,511.596 757.137,519.841 759.778,527.939 762.418,535.884 765.058,543.672 767.698,551.3 770.338,558.764 772.978,566.061 775.618,573.185 778.259,580.128 780.899,586.882 783.539,593.434 786.179,599.768 788.819,605.868 791.459,611.715 794.099,617.289 796.74,622.571 799.38,627.54 802.02,632.18 804.66,636.477 807.3,640.417 809.94,643.994 812.58,647.203 815.22,650.045 817.861,652.522 820.501,654.643 823.141,656.418 825.781,657.86 828.421,658.986 831.061,659.81 833.701,660.351 836.342,660.625 838.982,660.651 841.622,660.445 844.262,660.022 846.902,659.397 849.542,658.585 852.182,657.597 854.822,656.447 857.463,655.146 860.103,653.706 862.743,652.141 865.383,650.463 868.023,648.687 870.663,646.83 873.303,644.91 875.944,642.947 878.584,640.962 881.224,638.978 883.864,637.019 886.504,635.108 889.144,633.269 891.784,631.52 894.425,629.881 897.065,628.365 899.705,626.979 902.345,625.729 904.985,624.611 907.625,623.615 910.265,622.727 912.905,621.928 915.546,621.191 918.186,620.489 920.826,619.79 923.466,619.063 926.106,618.276 928.746,617.399 931.386,616.403 934.027,615.263 936.667,613.96 939.307,612.476 941.947,610.799 944.587,608.92 947.227,606.832 949.867,604.534 952.507,602.025 955.148,599.306 957.788,596.379 960.428,593.247 963.068,589.913 965.708,586.381 968.348,582.657 970.988,578.746 973.629,574.655 976.269,570.394 978.909,565.973 981.549,561.405 984.189,556.706 986.829,551.891 989.469,546.977 992.11,541.983 994.75,536.924 997.39,531.816 1000.03,526.67 1002.67,521.497 1005.31,516.3 1007.95,511.08 1010.59,505.833 1013.23,500.55 1015.87,495.218 1018.51,489.82 1021.15,484.337 1023.79,478.75 1026.43,473.035 1029.07,467.175 1031.71,461.15 1034.35,454.946 1036.99,448.553 1039.63,441.966 1042.27,435.188 1044.91,428.227 1047.55,421.099 1050.19,413.828 1052.83,406.445 1055.47,398.985 1058.11,391.493 1060.75,384.013 1063.39,376.595 1066.03,369.288 1068.67,362.141 1071.31,355.202 1073.95,348.514 1076.59,342.115 1079.23,336.04 1081.87,330.315 1084.51,324.964 1087.15,320.003 1089.79,315.445 1092.43,311.3 1095.07,307.573 1097.71,304.269 1100.36,301.392 1103,298.947 1105.64,296.937 1108.28,295.367 1110.92,294.245 1113.56,293.578 1116.2,293.375 1118.84,293.646 1121.48,294.403 1124.12,295.657 1126.76,297.421 1129.4,299.707 1132.04,302.529 1134.68,305.898 1137.32,309.827 1139.96,314.327 1142.6,319.407 1145.24,325.077 1147.88,331.343 1150.52,338.208 1153.16,345.673 1155.8,353.737 1158.44,362.391 1161.08,371.625 1163.72,381.423 1166.36,391.761 1169,402.614 1171.64,413.949 1174.28,425.726 1176.92,437.902 1179.56,450.431 1182.2,463.261 1184.84,476.339 1187.48,489.609 1190.12,503.017 1192.76,516.509 1195.4,530.033 1198.04,543.539 1200.68,556.98 1203.32,570.316 1205.96,583.506 1208.6,596.515 1211.24,609.309 1213.88,621.858 1216.52,634.131 1219.16,646.098 1221.8,657.729 1224.44,668.994 1227.08,679.859 1229.72,690.292 1232.36,700.256 1235,709.717 1237.64,718.638 1240.28,726.982 1242.92,734.714 1245.56,741.799 1248.2,748.204 1250.84,753.901 1253.48,758.861 1256.12,763.061 1258.76,766.482 1261.4,769.107 1264.04,770.925 1266.68,771.928 1269.32,772.113 1271.96,771.481 1274.6,770.038 1277.24,767.795 1279.88,764.769 1282.52,760.98 1285.16,756.455 1287.8,751.225 1290.44,745.326 1293.08,738.798 1295.73,731.687 1298.37,724.039 1301.01,715.906 1303.65,707.342 1306.29,698.402 1308.93,689.142 1311.57,679.621 1314.21,669.897 1316.85,660.03 1319.49,650.08 1322.13,640.107 1324.77,630.172 1327.41,620.337 1330.05,610.663 1332.69,601.211 1335.33,592.041 1337.97,583.212 1340.61,574.779 1343.25,566.794 1345.89,559.305 1348.53,552.354 1351.17,545.977 1353.81,540.204 1356.45,535.06 1359.09,530.562 1361.73,526.722 1364.37,523.549 1367.01,521.047 1369.65,519.219 1372.29,518.068 1374.93,517.595 1377.57,517.805 1380.21,518.703 1382.85,520.297 1385.49,522.596 1388.13,525.611 1390.77,529.352 1393.41,533.829 1396.05,539.048 1398.69,545.01 1401.33,551.712 1403.97,559.143 1406.61,567.285 1409.25,576.109 1411.89,585.579 1414.53,595.651 1417.17,606.273 1419.81,617.386 1422.45,628.926 1425.09,640.826 1427.73,653.016 1430.37,665.426 1433.01,677.989 1435.65,690.638 1438.29,703.309 1440.93,715.945 1443.57,728.492 1446.21,740.899 1448.85,753.123 1451.49,765.122 1454.13,776.861 1456.77,788.304 1459.41,799.421 1462.05,810.181 1464.69,820.559 1467.33,830.526 1469.97,840.057 1472.61,849.128 1475.25,857.716 1477.89,865.799 1480.53,873.359 1483.17,880.378 1485.81,886.843 1488.45,892.744 1491.1,898.073 1493.74,902.829 1496.38,907.01 1499.02,910.622 1501.66,913.671 1504.3,916.168 1506.94,918.126 1509.58,919.56 1512.22,920.485 1514.86,920.921 1517.5,920.887 1520.14,920.401 1522.78,919.483 1525.42,918.154 1528.06,916.432 1530.7,914.336 1533.34,911.884 1535.98,909.092 1538.62,905.976 1541.26,902.549 1543.9,898.824 1546.54,894.812 1549.18,890.524 1551.82,885.968 1554.46,881.154 1557.1,876.091 1559.74,870.788 1562.38,865.255 1565.02,859.503 1567.66,853.544 1570.3,847.391 1572.94,841.056 1575.58,834.556 1578.22,827.903 1580.86,821.115 1583.5,814.206 1586.14,807.192 1588.78,800.088 1591.42,792.909 1594.06,785.67 1596.7,778.386 1599.34,771.069 1601.98,763.735 1604.62,756.396 1607.26,749.065 1609.9,741.756 1612.54,734.479 1615.18,727.247 1617.82,720.07 1620.46,712.959 1623.1,705.922 1625.74,698.97 1628.38,692.108 1631.02,685.347 1633.66,678.691 1636.3,672.151 1638.94,665.732 1641.58,659.445 1644.22,653.298 1646.86,647.304 1649.5,641.476 1652.14,635.826 1654.78,630.372 1657.42,625.129 1660.06,620.117 1662.7,615.353 1665.34,610.856 1667.98,606.642 1670.62,602.729 1673.26,599.13 1675.9,595.857 1678.54,592.919 1681.18,590.322 1683.82,588.066 1686.47,586.149 1689.11,584.566 1691.75,583.305 1694.39,582.351 1697.03,581.685 1699.67,581.283 1702.31,581.12 1704.95,581.163 1707.59,581.381 1710.23,581.736 1712.87,582.19 1715.51,582.705 1718.15,583.242 1720.79,583.764 1723.43,584.236 1726.07,584.626 1728.71,584.91 1731.35,585.069 1733.99,585.09 1736.63,584.971 1739.27,584.716 1741.91,584.338 1744.55,583.858 1747.19,583.302 1749.83,582.704 1752.47,582.1 1755.11,581.527 1757.75,581.025 1760.39,580.631 1763.03,580.378 1765.67,580.297 1768.31,580.412 1770.95,580.745 1773.59,581.31 1776.23,582.118 1778.87,583.174 1781.51,584.483 1784.15,586.047 1786.79,587.867 1789.43,589.946 1792.07,592.291 1794.71,594.907 1797.35,597.807 1799.99,601.007 1802.63,604.529 1805.27,608.397 1807.91,612.641 1810.55,617.297 1813.19,622.404 1815.83,628.002 1818.47,634.136 1821.11,640.853 1823.75,648.2 1826.39,656.221 1829.03,664.963 1831.67,674.465 1834.31,684.764 1836.95,695.892 1839.59,707.869 1842.23,720.712 1844.87,734.424 1847.51,748.999 1850.15,764.419 1852.79,780.657 1855.43,797.672 1858.07,815.414 1860.71,833.822 1863.35,852.827 1865.99,872.352 1868.63,892.309 1871.27,912.606 1873.91,933.142 1876.55,953.812 1879.19,974.501 1881.84,995.088 1884.48,1015.44 1887.12,1035.43 1889.76,1054.91 1892.4,1073.72 1895.04,1091.7 1897.68,1108.7 1900.32,1124.54 1902.96,1139.07 1905.6,1152.13 1908.24,1163.57 1910.88,1173.26 1913.52,1181.1 1916.16,1187.01 1918.8,1190.93 1921.44,1192.84 1924.08,1192.77 1926.72,1190.76 1929.36,1186.9 1932,1181.3 1934.64,1174.12 1937.28,1165.51 1939.92,1155.65 1942.56,1144.75 1945.2,1133 1947.84,1120.59 1950.48,1107.72 1953.12,1094.55 1955.76,1081.25 1958.4,1067.96 1961.04,1054.81 1963.68,1041.89 1966.32,1029.31 1968.96,1017.11 1971.6,1005.36 1974.24,994.077 1976.88,983.297 1979.52,973.031 1982.16,963.282 1984.8,954.05 1987.44,945.33 1990.08,937.112 1992.72,929.385 1995.36,922.136 1998,915.348 2000.64,909.006 2003.28,903.089 2005.92,897.577 2008.56,892.449 2011.2,887.678 2013.84,883.239 2016.48,879.104 2019.12,875.244 2021.76,871.628 2024.4,868.227 2027.04,865.01 2029.68,861.949 2032.32,859.015 2034.96,856.182 2037.6,853.426 2040.24,850.724 2042.88,848.056 2045.52,845.402 2048.16,842.745 2050.8,840.071 2053.44,837.363 2056.08,834.609 2058.72,831.796 2061.36,828.913 2064,825.947 2066.64,822.891 2069.28,819.735 2071.92,816.472 2074.56,813.099 2077.21,809.613 2079.85,806.015 2082.49,802.308 2085.13,798.5 2087.77,794.601 2090.41,790.624 2093.05,786.588 2095.69,782.514 2098.33,778.426 2100.97,774.351 2103.61,770.319 2106.25,766.36 2108.89,762.509 2111.53,758.798 2114.17,755.262 2116.81,751.934 2119.45,748.846 2122.09,746.029 2124.73,743.511 2127.37,741.317 2130.01,739.468 2132.65,737.979 2135.29,736.863 2137.93,736.126 2140.57,735.767 2143.21,735.779 2145.85,736.152 2148.49,736.866 2151.13,737.898 2153.77,739.217 2156.41,740.792 2159.05,742.584 2161.69,744.556 2164.33,746.668 2166.97,748.88 2169.61,751.155 2172.25,753.457 2174.89,755.754 2177.53,758.018 2180.17,760.226 2182.81,762.359 2185.45,764.403 2188.09,766.348 2190.73,768.186 2193.37,769.914 2196.01,771.531 2198.65,773.035 2201.29,774.425 2203.93,775.701 2206.57,776.859 2209.21,777.894 2211.85,778.797 2214.49,779.557 2217.13,780.157 2219.77,780.576 2222.41,780.789 2225.05,780.767 2227.69,780.477 2230.33,779.882 2232.97,778.945 2235.61,777.627 2238.25,775.893 2240.89,773.71 2243.53,771.054 2246.17,767.909 2248.81,764.272 2251.45,760.154 2254.09,755.576 2256.73,750.579 2259.37,745.212 2262.01,739.538 2264.65,733.626 2267.29,727.547 2269.93,721.375 2272.58,715.172 2275.22,708.995 2277.86,702.883 2280.5,696.863 2283.14,690.941 2285.78,685.11 2288.42,679.348 2291.06,673.623 "/>
<polyline clip-path="url(#clip482)" style="stroke:#dfba53; stroke-linecap:round; stroke-linejoin:round; stroke-width:8; stroke-opacity:1; fill:none" points="234.391,685.376 237.031,641.022 239.671,597.41 242.311,555.024 244.951,514.355 247.591,475.893 250.232,440.113 252.872,407.468 255.512,378.372 258.152,353.2 260.792,332.269 263.432,315.836 266.072,304.088 268.713,297.139 271.353,295.027 273.993,297.711 276.633,305.077 279.273,316.933 281.913,333.021 284.553,353.021 287.193,376.559 289.834,403.215 292.474,432.536 295.114,464.044 297.754,497.247 300.394,531.653 303.034,566.775 305.674,602.144 308.315,637.317 310.955,671.883 313.595,705.469 316.235,737.746 318.875,768.431 321.515,797.287 324.155,824.128 326.795,848.812 329.436,871.244 332.076,891.371 334.716,909.177 337.356,924.682 339.996,937.935 342.636,949.012 345.276,958.006 347.917,965.03 350.557,970.206 353.197,973.664 355.837,975.538 358.477,975.965 361.117,975.076 363.757,973.001 366.398,969.864 369.038,965.78 371.678,960.859 374.318,955.199 376.958,948.892 379.598,942.019 382.238,934.653 384.878,926.86 387.519,918.696 390.159,910.212 392.799,901.45 395.439,892.449 398.079,883.24 400.719,873.852 403.359,864.307 406,854.626 408.64,844.826 411.28,834.922 413.92,824.927 416.56,814.851 419.2,804.704 421.84,794.495 424.48,784.231 427.121,773.919 429.761,763.566 432.401,753.177 435.041,742.757 437.681,732.314 440.321,721.85 442.961,711.373 445.602,700.886 448.242,690.394 450.882,679.904 453.522,669.419 456.162,658.945 458.802,648.486 461.442,638.049 464.083,627.637 466.723,617.257 469.363,606.913 472.003,596.61 474.643,586.355 477.283,576.152 479.923,566.006 482.563,555.923 485.204,545.909 487.844,535.968 490.484,526.106 493.124,516.329 495.764,506.642 498.404,497.05 501.044,487.559 503.685,478.175 506.325,468.902 508.965,459.746 511.605,450.712 514.245,441.806 516.885,433.034 519.525,424.399 522.165,415.907 524.806,407.565 527.446,399.375 530.086,391.345 532.726,383.478 535.366,375.779 538.006,368.253 540.646,360.906 543.287,353.74 545.927,346.762 548.567,339.975 551.207,333.384 553.847,326.993 556.487,320.807 559.127,314.828 561.768,309.061 564.408,303.509 567.048,298.177 569.688,293.067 572.328,288.184 574.968,283.529 577.608,279.107 580.248,274.92 582.889,270.97 585.529,267.261 588.169,263.794 590.809,260.573 593.449,257.598 596.089,254.872 598.729,252.397 601.37,250.174 604.01,248.205 606.65,246.49 609.29,245.03 611.93,243.828 614.57,242.882 617.21,242.194 619.85,241.764 622.491,241.591 625.131,241.677 627.771,242.019 630.411,242.619 633.051,243.474 635.691,244.585 638.331,245.95 640.972,247.567 643.612,249.436 646.252,251.554 648.892,253.921 651.532,256.532 654.172,259.387 656.812,262.483 659.453,265.817 662.093,269.387 664.733,273.189 667.373,277.22 670.013,281.476 672.653,285.955 675.293,290.652 677.933,295.563 680.574,300.685 683.214,306.012 685.854,311.541 688.494,317.266 691.134,323.184 693.774,329.288 696.414,335.575 699.055,342.037 701.695,348.671 704.335,355.47 706.975,362.429 709.615,369.542 712.255,376.802 714.895,384.204 717.535,391.74 720.176,399.406 722.816,407.193 725.456,415.096 728.096,423.107 730.736,431.219 733.376,439.426 736.016,447.72 738.657,456.094 741.297,464.541 743.937,473.052 746.577,481.621 749.217,490.239 751.857,498.9 754.497,507.594 757.137,516.315 759.778,525.053 762.418,533.802 765.058,542.552 767.698,551.297 770.338,560.027 772.978,568.734 775.618,577.41 778.259,586.046 780.899,594.635 783.539,603.168 786.179,611.636 788.819,620.031 791.459,628.345 794.099,636.569 796.74,644.695 799.38,652.714 802.02,660.618 804.66,668.399 807.3,676.048 809.94,683.557 812.58,690.919 815.22,698.124 817.861,705.165 820.501,712.033 823.141,718.722 825.781,725.223 828.421,731.528 831.061,737.63 833.701,743.521 836.342,749.195 838.982,754.643 841.622,759.86 844.262,764.837 846.902,769.569 849.542,774.048 852.182,778.269 854.822,782.226 857.463,785.911 860.103,789.321 862.743,792.449 865.383,795.291 868.023,797.84 870.663,800.094 873.303,802.046 875.944,803.694 878.584,805.033 881.224,806.06 883.864,806.771 886.504,807.165 889.144,807.237 891.784,806.987 894.425,806.413 897.065,805.512 899.705,804.284 902.345,802.729 904.985,800.846 907.625,798.635 910.265,796.097 912.905,793.233 915.546,790.044 918.186,786.532 920.826,782.7 923.466,778.55 926.106,774.085 928.746,769.309 931.386,764.226 934.027,758.842 936.667,753.159 939.307,747.185 941.947,740.926 944.587,734.387 947.227,727.575 949.867,720.498 952.507,713.164 955.148,705.581 957.788,697.757 960.428,689.702 963.068,681.425 965.708,672.937 968.348,664.247 970.988,655.367 973.629,646.307 976.269,637.08 978.909,627.697 981.549,618.17 984.189,608.513 986.829,598.738 989.469,588.859 992.11,578.889 994.75,568.842 997.39,558.732 1000.03,548.574 1002.67,538.382 1005.31,528.17 1007.95,517.955 1010.59,507.751 1013.23,497.573 1015.87,487.436 1018.51,477.356 1021.15,467.349 1023.79,457.429 1026.43,447.613 1029.07,437.915 1031.71,428.352 1034.35,418.937 1036.99,409.688 1039.63,400.618 1042.27,391.742 1044.91,383.075 1047.55,374.632 1050.19,366.427 1052.83,358.474 1055.47,350.786 1058.11,343.377 1060.75,336.259 1063.39,329.446 1066.03,322.949 1068.67,316.78 1071.31,310.951 1073.95,305.472 1076.59,300.354 1079.23,295.607 1081.87,291.239 1084.51,287.26 1087.15,283.678 1089.79,280.5 1092.43,277.733 1095.07,275.384 1097.71,273.459 1100.36,271.961 1103,270.897 1105.64,270.268 1108.28,270.08 1110.92,270.332 1113.56,271.028 1116.2,272.168 1118.84,273.752 1121.48,275.78 1124.12,278.249 1126.76,281.158 1129.4,284.504 1132.04,288.282 1134.68,292.489 1137.32,297.118 1139.96,302.164 1142.6,307.619 1145.24,313.475 1147.88,319.724 1150.52,326.355 1153.16,333.357 1155.8,340.721 1158.44,348.431 1161.08,356.476 1163.72,364.841 1166.36,373.51 1169,382.466 1171.64,391.693 1174.28,401.171 1176.92,410.88 1179.56,420.801 1182.2,430.911 1184.84,441.186 1187.48,451.604 1190.12,462.138 1192.76,472.762 1195.4,483.449 1198.04,494.169 1200.68,504.893 1203.32,515.59 1205.96,526.228 1208.6,536.774 1211.24,547.193 1213.88,557.451 1216.52,567.512 1219.16,577.339 1221.8,586.895 1224.44,596.143 1227.08,605.044 1229.72,613.56 1232.36,621.653 1235,629.284 1237.64,636.417 1240.28,643.012 1242.92,649.035 1245.56,654.449 1248.2,659.221 1250.84,663.318 1253.48,666.71 1256.12,669.368 1258.76,671.266 1261.4,672.383 1264.04,672.698 1266.68,672.195 1269.32,670.861 1271.96,668.689 1274.6,665.674 1277.24,661.817 1279.88,657.123 1282.52,651.603 1285.16,645.274 1287.8,638.156 1290.44,630.277 1293.08,621.669 1295.73,612.371 1298.37,602.425 1301.01,591.883 1303.65,580.798 1306.29,569.231 1308.93,557.247 1311.57,544.917 1314.21,532.314 1316.85,519.517 1319.49,506.608 1322.13,493.672 1324.77,480.796 1327.41,468.071 1330.05,455.586 1332.69,443.433 1335.33,431.703 1337.97,420.487 1340.61,409.875 1343.25,399.953 1345.89,390.805 1348.53,382.513 1351.17,375.152 1353.81,368.794 1356.45,363.504 1359.09,359.344 1361.73,356.366 1364.37,354.616 1367.01,354.133 1369.65,354.948 1372.29,357.084 1374.93,360.554 1377.57,365.366 1380.21,371.517 1382.85,378.995 1385.49,387.782 1388.13,397.85 1390.77,409.164 1393.41,421.68 1396.05,435.349 1398.69,450.114 1401.33,465.912 1403.97,482.674 1406.61,500.325 1409.25,518.789 1411.89,537.982 1414.53,557.821 1417.17,578.216 1419.81,599.08 1422.45,620.321 1425.09,641.85 1427.73,663.576 1430.37,685.409 1433.01,707.264 1435.65,729.053 1438.29,750.695 1440.93,772.11 1443.57,793.222 1446.21,813.96 1448.85,834.255 1451.49,854.046 1454.13,873.274 1456.77,891.888 1459.41,909.838 1462.05,927.083 1464.69,943.587 1467.33,959.316 1469.97,974.245 1472.61,988.351 1475.25,1001.62 1477.89,1014.04 1480.53,1025.6 1483.17,1036.29 1485.81,1046.13 1488.45,1055.12 1491.1,1063.25 1493.74,1070.55 1496.38,1077.03 1499.02,1082.7 1501.66,1087.58 1504.3,1091.7 1506.94,1095.08 1509.58,1097.74 1512.22,1099.7 1514.86,1101 1517.5,1101.66 1520.14,1101.7 1522.78,1101.15 1525.42,1100.05 1528.06,1098.41 1530.7,1096.27 1533.34,1093.64 1535.98,1090.57 1538.62,1087.07 1541.26,1083.16 1543.9,1078.88 1546.54,1074.24 1549.18,1069.26 1551.82,1063.98 1554.46,1058.4 1557.1,1052.55 1559.74,1046.44 1562.38,1040.1 1565.02,1033.54 1567.66,1026.78 1570.3,1019.83 1572.94,1012.7 1575.58,1005.42 1578.22,997.989 1580.86,990.424 1583.5,982.737 1586.14,974.939 1588.78,967.041 1591.42,959.052 1594.06,950.983 1596.7,942.843 1599.34,934.641 1601.98,926.386 1604.62,918.086 1607.26,909.749 1609.9,901.382 1612.54,892.995 1615.18,884.593 1617.82,876.184 1620.46,867.776 1623.1,859.375 1625.74,850.988 1628.38,842.622 1631.02,834.284 1633.66,825.98 1636.3,817.717 1638.94,809.501 1641.58,801.339 1644.22,793.237 1646.86,785.201 1649.5,777.238 1652.14,769.354 1654.78,761.555 1657.42,753.846 1660.06,746.235 1662.7,738.728 1665.34,731.329 1667.98,724.046 1670.62,716.883 1673.26,709.847 1675.9,702.944 1678.54,696.178 1681.18,689.557 1683.82,683.084 1686.47,676.765 1689.11,670.606 1691.75,664.612 1694.39,658.787 1697.03,653.137 1699.67,647.666 1702.31,642.379 1704.95,637.28 1707.59,632.375 1710.23,627.666 1712.87,623.157 1715.51,618.854 1718.15,614.758 1720.79,610.875 1723.43,607.207 1726.07,603.756 1728.71,600.527 1731.35,597.521 1733.99,594.742 1736.63,592.19 1739.27,589.87 1741.91,587.781 1744.55,585.926 1747.19,584.307 1749.83,582.923 1752.47,581.777 1755.11,580.869 1757.75,580.198 1760.39,579.766 1763.03,579.572 1765.67,579.616 1768.31,579.896 1770.95,580.413 1773.59,581.165 1776.23,582.151 1778.87,583.368 1781.51,584.815 1784.15,586.49 1786.79,588.391 1789.43,590.514 1792.07,592.856 1794.71,595.415 1797.35,598.187 1799.99,601.167 1802.63,604.352 1805.27,607.738 1807.91,611.32 1810.55,615.094 1813.19,619.053 1815.83,623.194 1818.47,627.509 1821.11,631.994 1823.75,636.643 1826.39,641.449 1829.03,646.405 1831.67,651.506 1834.31,656.743 1836.95,662.111 1839.59,667.601 1842.23,673.206 1844.87,678.918 1847.51,684.729 1850.15,690.631 1852.79,696.616 1855.43,702.675 1858.07,708.8 1860.71,714.982 1863.35,721.212 1865.99,727.48 1868.63,733.778 1871.27,740.096 1873.91,746.425 1876.55,752.756 1879.19,759.078 1881.84,765.382 1884.48,771.659 1887.12,777.899 1889.76,784.091 1892.4,790.227 1895.04,796.295 1897.68,802.288 1900.32,808.194 1902.96,814.004 1905.6,819.709 1908.24,825.298 1910.88,830.763 1913.52,836.094 1916.16,841.282 1918.8,846.317 1921.44,851.192 1924.08,855.896 1926.72,860.422 1929.36,864.762 1932,868.907 1934.64,872.85 1937.28,876.583 1939.92,880.099 1942.56,883.392 1945.2,886.454 1947.84,889.28 1950.48,891.863 1953.12,894.2 1955.76,896.284 1958.4,898.112 1961.04,899.679 1963.68,900.983 1966.32,902.019 1968.96,902.786 1971.6,903.282 1974.24,903.505 1976.88,903.455 1979.52,903.132 1982.16,902.535 1984.8,901.666 1987.44,900.527 1990.08,899.12 1992.72,897.448 1995.36,895.514 1998,893.322 2000.64,890.878 2003.28,888.186 2005.92,885.254 2008.56,882.086 2011.2,878.692 2013.84,875.079 2016.48,871.255 2019.12,867.231 2021.76,863.015 2024.4,858.618 2027.04,854.051 2029.68,849.326 2032.32,844.454 2034.96,839.449 2037.6,834.323 2040.24,829.09 2042.88,823.764 2045.52,818.358 2048.16,812.889 2050.8,807.37 2053.44,801.817 2056.08,796.245 2058.72,790.671 2061.36,785.11 2064,779.578 2066.64,774.092 2069.28,768.667 2071.92,763.32 2074.56,758.068 2077.21,752.926 2079.85,747.91 2082.49,743.036 2085.13,738.32 2087.77,733.777 2090.41,729.422 2093.05,725.27 2095.69,721.336 2098.33,717.632 2100.97,714.174 2103.61,710.973 2106.25,708.042 2108.89,705.393 2111.53,703.037 2114.17,700.984 2116.81,699.246 2119.45,697.83 2122.09,696.745 2124.73,695.999 2127.37,695.6 2130.01,695.552 2132.65,695.861 2135.29,696.533 2137.93,697.569 2140.57,698.974 2143.21,700.75 2145.85,702.896 2148.49,705.415 2151.13,708.304 2153.77,711.562 2156.41,715.188 2159.05,719.178 2161.69,723.528 2164.33,728.234 2166.97,733.29 2169.61,738.689 2172.25,744.425 2174.89,750.49 2177.53,756.876 2180.17,763.574 2182.81,770.573 2185.45,777.865 2188.09,785.437 2190.73,793.279 2193.37,801.38 2196.01,809.726 2198.65,818.306 2201.29,827.106 2203.93,836.113 2206.57,845.314 2209.21,854.695 2211.85,864.242 2214.49,873.942 2217.13,883.779 2219.77,893.739 2222.41,903.809 2225.05,913.974 2227.69,924.22 2230.33,934.533 2232.97,944.899 2235.61,955.304 2238.25,965.734 2240.89,976.177 2243.53,986.618 2246.17,997.045 2248.81,1007.45 2251.45,1017.81 2254.09,1028.12 2256.73,1038.37 2259.37,1048.55 2262.01,1058.64 2264.65,1068.64 2267.29,1078.54 2269.93,1088.33 2272.58,1097.99 2275.22,1107.53 2277.86,1116.92 2280.5,1126.18 2283.14,1135.28 2285.78,1144.23 2288.42,1153.01 2291.06,1161.62 "/>
<polyline clip-path="url(#clip482)" style="stroke:#ba3d3a; stroke-linecap:round; stroke-linejoin:round; stroke-width:4; stroke-opacity:1; fill:none" stroke-dasharray="16, 10" points="234.391,1388.76 237.031,1388.76 239.671,1388.76 242.311,1388.76 244.951,1388.76 247.591,1388.76 250.232,1388.76 252.872,1388.76 255.512,1388.76 258.152,1388.76 260.792,1388.76 263.432,1388.76 266.072,1388.76 268.713,1388.76 271.353,1388.76 273.993,1388.76 276.633,1388.76 279.273,1388.76 281.913,1388.76 284.553,1388.76 287.193,1388.76 289.834,1388.76 292.474,1388.76 295.114,1388.76 297.754,1388.76 300.394,1388.76 303.034,1388.76 305.674,1388.76 308.315,1388.76 310.955,1388.76 313.595,1388.76 316.235,1388.76 318.875,1388.76 321.515,1388.76 324.155,1388.76 326.795,1388.76 329.436,1388.76 332.076,1388.76 334.716,1388.76 337.356,1388.76 339.996,1388.76 342.636,1388.76 345.276,1388.76 347.917,1388.76 350.557,1388.76 353.197,1388.76 355.837,1388.76 358.477,1388.76 361.117,1388.76 363.757,1388.76 366.398,1388.76 369.038,1388.76 371.678,1388.76 374.318,1388.76 376.958,1388.76 379.598,1388.76 382.238,1388.76 384.878,1388.76 387.519,1388.76 390.159,1388.76 392.799,1388.76 395.439,1388.76 398.079,1388.76 400.719,1388.76 403.359,1388.76 406,1388.76 408.64,1388.76 411.28,1388.76 413.92,1388.76 416.56,1388.76 419.2,1388.76 421.84,1388.76 424.48,1388.76 427.121,1388.76 429.761,1388.76 432.401,1388.76 435.041,1388.76 437.681,1388.76 440.321,1388.76 442.961,1388.76 445.602,1388.76 448.242,1388.76 450.882,1388.76 453.522,1388.76 456.162,1388.76 458.802,1388.76 461.442,1388.76 464.083,1388.76 466.723,1388.76 469.363,1388.76 472.003,1388.76 474.643,1388.76 477.283,1388.76 479.923,1388.76 482.563,1388.76 485.204,1388.76 487.844,1388.76 490.484,1388.76 493.124,1388.76 495.764,1388.76 498.404,1388.76 501.044,1388.76 503.685,1388.76 506.325,1388.76 508.965,1388.76 511.605,1388.76 514.245,1388.76 516.885,1388.76 519.525,1388.76 522.165,1388.76 524.806,1388.76 527.446,1388.76 530.086,1388.76 532.726,1388.76 535.366,1388.76 538.006,1388.76 540.646,1388.76 543.287,1388.76 545.927,1388.76 548.567,1388.76 551.207,1388.76 553.847,1388.76 556.487,1388.76 559.127,1388.76 561.768,1388.76 564.408,1388.76 567.048,1388.76 569.688,1388.76 572.328,1388.76 574.968,1388.76 577.608,1388.76 580.248,1388.76 582.889,1388.76 585.529,1388.76 588.169,1388.76 590.809,1388.76 593.449,1388.76 596.089,1388.76 598.729,1388.76 601.37,1388.76 604.01,1388.76 606.65,1388.76 609.29,1388.76 611.93,1388.76 614.57,1388.76 617.21,1388.76 619.85,1388.76 622.491,1388.76 625.131,1388.76 627.771,1388.76 630.411,1388.76 633.051,1388.76 635.691,1388.76 638.331,1388.76 640.972,1388.76 643.612,1388.76 646.252,1388.76 648.892,1388.76 651.532,1388.76 654.172,1388.76 656.812,1388.76 659.453,1388.76 662.093,1388.76 664.733,1388.76 667.373,1388.76 670.013,1388.76 672.653,1388.76 675.293,1388.76 677.933,1388.76 680.574,1388.76 683.214,1388.76 685.854,1388.76 688.494,1388.76 691.134,1388.76 693.774,1388.76 696.414,1388.76 699.055,1388.76 701.695,1388.76 704.335,1388.76 706.975,1388.76 709.615,1388.76 712.255,1388.76 714.895,1388.76 717.535,1388.76 720.176,1388.76 722.816,1388.76 725.456,1388.76 728.096,1388.76 730.736,1388.76 733.376,1388.76 736.016,1388.76 738.657,1388.76 741.297,1388.76 743.937,1388.76 746.577,1388.76 749.217,1388.76 751.857,1388.76 754.497,1388.76 757.137,1388.76 759.778,1388.76 762.418,1388.76 765.058,1388.76 767.698,1388.76 770.338,1388.76 772.978,1388.76 775.618,1388.76 778.259,1388.76 780.899,1388.76 783.539,1388.76 786.179,1388.76 788.819,1388.76 791.459,1388.76 794.099,1388.76 796.74,1388.76 799.38,1388.76 802.02,1388.76 804.66,1388.76 807.3,1388.76 809.94,1388.76 812.58,1388.76 815.22,1388.76 817.861,1388.76 820.501,1388.76 823.141,1388.76 825.781,1388.76 828.421,1388.76 831.061,1388.76 833.701,1388.76 836.342,1388.76 838.982,1388.76 841.622,1388.76 844.262,1388.76 846.902,1388.76 849.542,1388.76 852.182,1388.76 854.822,1388.76 857.463,1388.76 860.103,1388.76 862.743,1388.76 865.383,1388.76 868.023,1388.76 870.663,1388.76 873.303,1388.76 875.944,1388.76 878.584,1388.76 881.224,1388.76 883.864,1388.76 886.504,1388.76 889.144,1388.76 891.784,1388.76 894.425,1388.76 897.065,1388.76 899.705,1388.76 902.345,1388.76 904.985,1388.76 907.625,1388.76 910.265,1388.76 912.905,1388.76 915.546,1388.76 918.186,1388.76 920.826,1388.76 923.466,1388.76 926.106,1388.76 928.746,1388.76 931.386,1388.76 934.027,1388.76 936.667,1388.76 939.307,1388.76 941.947,1388.76 944.587,1388.76 947.227,1388.76 949.867,1388.76 952.507,1388.76 955.148,1388.76 957.788,1388.76 960.428,1388.76 963.068,1388.76 965.708,1388.76 968.348,1388.76 970.988,1388.76 973.629,1388.76 976.269,1388.76 978.909,1388.76 981.549,1388.76 984.189,1388.76 986.829,1388.76 989.469,1388.76 992.11,1388.76 994.75,1388.76 997.39,1388.76 1000.03,1388.76 1002.67,1388.76 1005.31,1388.76 1007.95,1388.76 1010.59,1388.76 1013.23,1388.76 1015.87,1388.76 1018.51,1388.76 1021.15,1388.76 1023.79,1388.76 1026.43,1388.76 1029.07,1388.76 1031.71,1388.76 1034.35,1388.76 1036.99,1388.76 1039.63,1388.76 1042.27,1388.76 1044.91,1388.76 1047.55,1388.76 1050.19,1388.76 1052.83,1388.76 1055.47,1388.76 1058.11,1388.76 1060.75,1388.76 1063.39,1388.76 1066.03,1388.76 1068.67,1388.76 1071.31,1388.76 1073.95,1388.76 1076.59,1388.76 1079.23,1388.76 1081.87,1388.76 1084.51,1388.76 1087.15,1388.76 1089.79,1388.76 1092.43,1388.76 1095.07,1388.76 1097.71,1388.76 1100.36,1388.76 1103,1388.76 1105.64,1388.76 1108.28,1388.76 1110.92,1388.76 1113.56,1388.76 1116.2,1388.76 1118.84,1388.76 1121.48,1388.76 1124.12,1388.76 1126.76,1388.76 1129.4,1388.76 1132.04,1388.76 1134.68,1388.76 1137.32,1388.76 1139.96,1388.76 1142.6,1388.76 1145.24,1388.76 1147.88,1388.76 1150.52,1388.76 1153.16,1388.76 1155.8,1388.76 1158.44,1388.76 1161.08,1388.76 1163.72,1388.76 1166.36,1388.76 1169,1388.76 1171.64,1388.76 1174.28,1388.76 1176.92,1388.76 1179.56,1388.76 1182.2,1388.76 1184.84,1388.76 1187.48,1388.76 1190.12,1388.76 1192.76,1388.76 1195.4,1388.76 1198.04,1388.76 1200.68,1388.76 1203.32,1388.76 1205.96,1388.76 1208.6,1388.76 1211.24,1388.76 1213.88,1388.76 1216.52,1388.76 1219.16,1388.76 1221.8,1388.76 1224.44,1388.76 1227.08,1388.76 1229.72,1388.76 1232.36,1388.76 1235,1388.76 1237.64,1388.76 1240.28,1388.76 1242.92,1388.76 1245.56,1388.76 1248.2,1388.76 1250.84,1388.76 1253.48,1388.76 1256.12,1388.76 1258.76,1388.76 1261.4,1388.76 1264.04,1388.76 1266.68,1388.76 1269.32,1388.76 1271.96,1388.76 1274.6,1388.76 1277.24,1388.76 1279.88,1388.76 1282.52,1388.76 1285.16,1388.76 1287.8,1388.76 1290.44,1388.76 1293.08,1388.76 1295.73,1388.76 1298.37,1388.76 1301.01,1388.76 1303.65,1388.76 1306.29,1388.76 1308.93,1388.76 1311.57,1388.76 1314.21,1388.76 1316.85,1388.76 1319.49,1388.76 1322.13,1388.76 1324.77,1388.76 1327.41,1388.76 1330.05,1388.76 1332.69,1388.76 1335.33,1388.76 1337.97,1388.76 1340.61,1388.76 1343.25,1388.76 1345.89,1388.76 1348.53,1388.76 1351.17,1388.76 1353.81,1388.76 1356.45,1388.76 1359.09,1388.76 1361.73,1388.76 1364.37,1388.76 1367.01,1388.76 1369.65,1388.76 1372.29,1388.76 1374.93,1388.76 1377.57,1388.76 1380.21,1388.76 1382.85,1388.76 1385.49,1388.76 1388.13,1388.76 1390.77,1388.76 1393.41,1388.76 1396.05,1388.76 1398.69,1388.76 1401.33,1388.76 1403.97,1388.76 1406.61,1388.76 1409.25,1388.76 1411.89,1388.76 1414.53,1388.76 1417.17,1388.76 1419.81,1388.76 1422.45,1388.76 1425.09,1388.76 1427.73,1388.76 1430.37,1388.76 1433.01,1388.76 1435.65,1388.76 1438.29,1388.76 1440.93,1388.76 1443.57,1388.76 1446.21,1388.76 1448.85,1388.76 1451.49,1388.76 1454.13,1388.76 1456.77,1388.76 1459.41,1388.76 1462.05,1388.76 1464.69,1388.76 1467.33,1388.76 1469.97,1388.76 1472.61,1388.76 1475.25,1388.76 1477.89,1388.76 1480.53,1388.76 1483.17,1388.76 1485.81,1388.76 1488.45,1388.76 1491.1,1388.76 1493.74,1388.76 1496.38,1388.76 1499.02,1388.76 1501.66,1388.76 1504.3,1388.76 1506.94,1388.76 1509.58,1388.76 1512.22,1388.76 1514.86,1388.76 1517.5,1388.76 1520.14,1388.76 1522.78,1388.76 1525.42,1388.76 1528.06,1388.76 1530.7,1388.76 1533.34,1388.76 1535.98,1388.76 1538.62,1388.76 1541.26,1388.76 1543.9,1388.76 1546.54,1388.76 1549.18,1388.76 1551.82,1388.76 1554.46,1388.76 1557.1,1388.76 1559.74,1388.76 1562.38,1388.76 1565.02,1388.76 1567.66,1388.76 1570.3,1388.76 1572.94,1388.76 1575.58,1388.76 1578.22,1388.76 1580.86,1388.76 1583.5,1388.76 1586.14,1388.76 1588.78,1388.76 1591.42,1388.76 1594.06,1388.76 1596.7,1388.76 1599.34,1388.76 1601.98,1388.76 1604.62,1388.76 1607.26,1388.76 1609.9,1388.76 1612.54,1388.76 1615.18,1388.76 1617.82,1388.76 1620.46,1388.76 1623.1,1388.76 1625.74,1388.76 1628.38,1388.76 1631.02,1388.76 1633.66,1388.76 1636.3,1388.76 1638.94,1388.76 1641.58,1388.76 1644.22,1388.76 1646.86,1388.76 1649.5,1388.76 1652.14,1388.76 1654.78,1388.76 1657.42,1388.76 1660.06,1388.76 1662.7,1388.76 1665.34,1388.76 1667.98,1388.76 1670.62,1388.76 1673.26,1388.76 1675.9,1388.76 1678.54,1388.76 1681.18,1388.76 1683.82,1388.76 1686.47,1388.76 1689.11,1388.76 1691.75,1388.76 1694.39,1388.76 1697.03,1388.76 1699.67,1388.76 1702.31,1388.76 1704.95,1388.76 1707.59,1388.76 1710.23,1388.76 1712.87,1388.76 1715.51,1388.76 1718.15,1388.76 1720.79,1388.76 1723.43,1388.76 1726.07,1388.76 1728.71,1388.76 1731.35,1388.76 1733.99,1388.76 1736.63,1388.76 1739.27,1388.76 1741.91,1388.76 1744.55,1388.76 1747.19,1388.76 1749.83,1388.76 1752.47,1388.76 1755.11,1388.76 1757.75,1388.76 1760.39,1388.76 1763.03,1388.76 1765.67,1388.76 1768.31,1388.76 1770.95,1388.76 1773.59,1388.76 1776.23,1388.76 1778.87,1388.76 1781.51,1388.76 1784.15,1388.76 1786.79,1388.76 1789.43,1388.76 1792.07,1388.76 1794.71,1388.76 1797.35,1388.76 1799.99,1388.76 1802.63,1388.76 1805.27,1388.76 1807.91,1388.76 1810.55,1388.76 1813.19,1388.76 1815.83,1388.76 1818.47,1388.76 1821.11,1388.76 1823.75,1388.76 1826.39,1388.76 1829.03,1388.76 1831.67,1388.76 1834.31,1388.76 1836.95,1388.76 1839.59,1388.76 1842.23,1388.76 1844.87,1388.76 1847.51,1388.76 1850.15,1388.76 1852.79,1388.76 1855.43,1388.76 1858.07,1388.76 1860.71,1388.76 1863.35,1388.76 1865.99,1388.76 1868.63,1388.76 1871.27,1388.76 1873.91,1388.76 1876.55,1388.76 1879.19,1388.76 1881.84,1388.76 1884.48,1388.76 1887.12,1388.76 1889.76,1388.76 1892.4,1388.76 1895.04,1388.76 1897.68,1388.76 1900.32,1388.76 1902.96,1388.76 1905.6,1388.76 1908.24,1388.76 1910.88,1388.76 1913.52,1388.76 1916.16,1388.76 1918.8,1388.76 1921.44,1388.76 1924.08,1388.76 1926.72,1388.76 1929.36,1388.76 1932,1388.76 1934.64,1388.76 1937.28,1388.76 1939.92,1388.76 1942.56,1388.76 1945.2,1388.76 1947.84,1388.76 1950.48,1388.76 1953.12,1388.76 1955.76,1388.76 1958.4,1388.76 1961.04,1388.76 1963.68,1388.76 1966.32,1388.76 1968.96,1388.76 1971.6,1388.76 1974.24,1388.76 1976.88,1388.76 1979.52,1388.76 1982.16,1388.76 1984.8,1388.76 1987.44,1388.76 1990.08,1388.76 1992.72,1388.76 1995.36,1388.76 1998,1388.76 2000.64,1388.76 2003.28,1388.76 2005.92,1388.76 2008.56,1388.76 2011.2,1388.76 2013.84,1388.76 2016.48,1388.76 2019.12,1388.76 2021.76,1388.76 2024.4,1388.76 2027.04,1388.76 2029.68,1388.76 2032.32,1388.76 2034.96,1388.76 2037.6,1388.76 2040.24,1388.76 2042.88,1388.76 2045.52,1388.76 2048.16,1388.76 2050.8,1388.76 2053.44,1388.76 2056.08,1388.76 2058.72,1388.76 2061.36,1388.76 2064,1388.76 2066.64,1388.76 2069.28,1388.76 2071.92,1388.76 2074.56,1388.76 2077.21,1388.76 2079.85,1388.76 2082.49,1388.76 2085.13,1388.76 2087.77,1388.76 2090.41,1388.76 2093.05,1388.76 2095.69,1388.76 2098.33,1388.76 2100.97,1388.76 2103.61,1388.76 2106.25,1388.76 2108.89,1388.76 2111.53,1388.76 2114.17,1388.76 2116.81,1388.76 2119.45,1388.76 2122.09,1388.76 2124.73,1388.76 2127.37,1388.76 2130.01,1388.76 2132.65,1388.76 2135.29,1388.76 2137.93,1388.76 2140.57,1388.76 2143.21,1388.76 2145.85,1388.76 2148.49,1388.76 2151.13,1388.76 2153.77,1388.76 2156.41,1388.76 2159.05,1388.76 2161.69,1388.76 2164.33,1388.76 2166.97,1388.76 2169.61,1388.76 2172.25,1388.76 2174.89,1388.76 2177.53,1388.76 2180.17,1388.76 2182.81,1388.76 2185.45,1388.76 2188.09,1388.76 2190.73,1388.76 2193.37,1388.76 2196.01,1388.76 2198.65,1388.76 2201.29,1388.76 2203.93,1388.76 2206.57,1388.76 2209.21,1388.76 2211.85,1388.76 2214.49,1388.76 2217.13,1388.76 2219.77,1388.76 2222.41,1388.76 2225.05,1388.76 2227.69,1388.76 2230.33,1388.76 2232.97,1388.76 2235.61,1388.76 2238.25,1388.76 2240.89,1388.76 2243.53,1388.76 2246.17,1388.76 2248.81,1388.76 2251.45,1388.76 2254.09,1388.76 2256.73,1388.76 2259.37,1388.76 2262.01,1388.76 2264.65,1388.76 2267.29,1388.76 2269.93,1388.76 2272.58,1388.76 2275.22,1388.76 2277.86,1388.76 2280.5,1388.76 2283.14,1388.76 2285.78,1388.76 2288.42,1388.76 2291.06,1388.76 "/>
<circle clip-path="url(#clip482)" cx="622.491" cy="242.122" r="7.2" fill="#ff0000" fill-rule="evenodd" fill-opacity="1" stroke="#000000" stroke-opacity="1" stroke-width="3.2"/>
<circle clip-path="url(#clip482)" cx="1113.56" cy="293.578" r="7.2" fill="#ff0000" fill-rule="evenodd" fill-opacity="1" stroke="#000000" stroke-opacity="1" stroke-width="3.2"/>
<circle clip-path="url(#clip482)" cx="268.713" cy="445.645" r="7.2" fill="#ff0000" fill-rule="evenodd" fill-opacity="1" stroke="#000000" stroke-opacity="1" stroke-width="3.2"/>
<circle clip-path="url(#clip482)" cx="1374.93" cy="517.595" r="7.2" fill="#ff0000" fill-rule="evenodd" fill-opacity="1" stroke="#000000" stroke-opacity="1" stroke-width="3.2"/>
<circle clip-path="url(#clip482)" cx="1763.03" cy="580.378" r="7.2" fill="#ff0000" fill-rule="evenodd" fill-opacity="1" stroke="#000000" stroke-opacity="1" stroke-width="3.2"/>
<circle clip-path="url(#clip482)" cx="2140.57" cy="735.767" r="7.2" fill="#ff0000" fill-rule="evenodd" fill-opacity="1" stroke="#000000" stroke-opacity="1" stroke-width="3.2"/>
<path clip-path="url(#clip480)" d="M528.512 161.312 L1996.93 161.312 L1996.93 47.2441 L528.512 47.2441  Z" fill="#ffffff" fill-rule="evenodd" fill-opacity="1"/>
<polyline clip-path="url(#clip480)" style="stroke:#000000; stroke-linecap:round; stroke-linejoin:round; stroke-width:4; stroke-opacity:1; fill:none" points="528.512,161.312 1996.93,161.312 1996.93,47.2441 528.512,47.2441 528.512,161.312 "/>
<polyline clip-path="url(#clip480)" style="stroke:#4a7945; stroke-linecap:round; stroke-linejoin:round; stroke-width:8; stroke-opacity:1; fill:none" points="552.735,104.278 698.072,104.278 "/>
<path clip-path="url(#clip480)" d="M746.959 104.523 Q746.35 107.545 745.53 109.278 Q744.195 111.925 741.97 111.925 Q740.424 111.925 739.253 111.058 Q738.106 110.168 737.707 108.692 Q737.262 109.278 736.864 109.676 Q736.489 110.074 735.763 110.683 Q735.037 111.269 734.053 111.597 Q733.093 111.925 731.992 111.925 Q731.149 111.925 730.376 111.761 Q729.603 111.62 728.783 111.222 Q727.987 110.8 727.402 110.168 Q726.839 109.536 726.465 108.505 Q726.09 107.474 726.09 106.163 Q726.09 104.523 726.722 102.298 Q727.378 100.073 728.877 96.0911 Q729.697 93.9831 729.697 92.812 Q729.697 92.2733 729.58 91.9219 Q729.463 91.5706 729.228 91.4535 Q729.018 91.3129 728.877 91.2895 Q728.737 91.2427 728.502 91.2427 Q727.05 91.2427 725.785 92.7183 Q724.521 94.1939 723.654 97.192 Q723.467 97.7775 723.349 97.9181 Q723.232 98.0586 722.881 98.0586 Q722.295 98.0352 722.295 97.5667 Q722.295 97.3793 722.506 96.6533 Q722.717 95.9037 723.209 94.8029 Q723.724 93.6786 724.427 92.6714 Q725.13 91.6408 726.23 90.9148 Q727.355 90.1887 728.643 90.1887 Q730.4 90.1887 731.477 91.3364 Q732.578 92.4606 732.578 94.1236 Q732.578 95.1542 731.758 97.1451 Q729.158 104.055 729.158 106.936 Q729.158 110.847 732.133 110.847 Q733.117 110.847 734.03 110.449 Q734.967 110.051 735.576 109.489 Q736.185 108.927 736.653 108.318 Q737.145 107.709 737.356 107.31 Q737.59 106.912 737.614 106.819 L741.197 92.3904 Q741.338 91.8282 741.596 91.4535 Q741.877 91.0553 742.205 90.9148 Q742.532 90.7742 742.72 90.7508 Q742.907 90.704 743.071 90.704 Q743.657 90.704 744.055 91.0553 Q744.476 91.4066 744.476 92.0156 Q744.476 92.1327 744.336 92.6949 Q744.219 93.2336 744.031 94.0299 Q743.844 94.8029 743.75 95.2245 Q743.001 98.1757 742.931 98.4802 L741.596 103.657 Q741.525 103.961 741.291 104.945 Q741.08 105.929 740.963 106.444 Q740.846 106.936 740.729 107.615 Q740.635 108.271 740.635 108.646 Q740.635 109.817 740.987 110.332 Q741.338 110.847 742.111 110.847 Q742.837 110.847 743.399 110.355 Q743.985 109.84 744.43 108.856 Q744.875 107.849 745.132 107.029 Q745.39 106.21 745.718 104.921 Q745.835 104.359 745.929 104.219 Q746.046 104.055 746.374 104.055 Q746.959 104.055 746.959 104.523 Z" fill="#000000" fill-rule="nonzero" fill-opacity="1" /><path clip-path="url(#clip480)" d="M768.577 104.617 Q768.577 105.519 768.003 106.076 Q767.446 106.634 766.741 106.634 Q766.233 106.634 765.856 106.322 Q765.495 106.011 765.495 105.47 Q765.495 104.912 765.921 104.322 Q766.348 103.732 767.315 103.65 Q766.675 103.043 765.659 103.043 Q765.151 103.043 764.724 103.371 Q764.314 103.682 764.085 104.191 Q763.839 104.715 763.282 107.683 Q763.101 108.65 762.937 109.585 Q762.773 110.52 762.576 111.503 L765.364 111.503 Q765.724 111.503 765.872 111.52 Q766.02 111.536 766.134 111.618 Q766.266 111.7 766.266 111.88 Q766.266 112.339 766.052 112.454 Q765.856 112.553 765.265 112.553 L762.38 112.553 L760.363 123.193 Q760.314 123.505 760.101 124.489 Q759.904 125.456 759.429 127.046 Q758.953 128.653 758.478 129.604 Q758.215 130.145 757.871 130.653 Q757.543 131.178 757.068 131.703 Q756.592 132.227 755.969 132.539 Q755.346 132.867 754.69 132.867 Q753.575 132.867 752.706 132.244 Q751.837 131.621 751.837 130.555 Q751.837 129.653 752.395 129.096 Q752.969 128.538 753.674 128.538 Q754.182 128.538 754.543 128.85 Q754.92 129.161 754.92 129.702 Q754.92 129.932 754.838 130.194 Q754.756 130.457 754.575 130.752 Q754.395 131.063 754.002 131.276 Q753.608 131.49 753.067 131.522 Q753.706 132.129 754.69 132.129 Q755.002 132.129 755.28 131.998 Q755.559 131.883 755.789 131.588 Q756.035 131.293 756.215 130.998 Q756.395 130.719 756.576 130.178 Q756.756 129.653 756.871 129.26 Q756.986 128.866 757.133 128.161 Q757.297 127.456 757.379 127.03 Q757.461 126.62 757.609 125.817 L760.117 112.553 L757.904 112.553 Q757.51 112.553 757.346 112.536 Q757.199 112.52 757.084 112.438 Q756.969 112.339 756.969 112.143 Q756.969 111.831 757.1 111.7 Q757.248 111.552 757.412 111.536 Q757.576 111.503 757.969 111.503 L760.297 111.503 Q761.084 107.355 761.396 106.24 Q761.757 105.06 762.314 104.24 Q762.872 103.404 763.495 103.01 Q764.118 102.617 764.626 102.469 Q765.151 102.305 765.659 102.305 Q766.807 102.305 767.692 102.928 Q768.577 103.535 768.577 104.617 Z" fill="#000000" fill-rule="nonzero" fill-opacity="1" /><path clip-path="url(#clip480)" d="M778.366 103.043 L773.529 122.456 Q773.332 123.226 773.332 124.062 Q773.332 125.604 774.349 125.604 Q774.824 125.604 775.218 125.292 Q775.611 124.964 775.907 124.325 Q776.218 123.669 776.415 123.046 Q776.628 122.423 776.89 121.455 Q776.972 121.078 777.054 120.964 Q777.136 120.849 777.366 120.849 Q777.776 120.849 777.776 121.177 Q777.366 123.193 776.759 124.472 Q775.874 126.358 774.234 126.358 Q773.004 126.358 772.086 125.505 Q771.185 124.636 771.185 123.259 Q771.185 122.734 771.349 122.111 L775.579 105.322 L775.693 104.666 Q775.693 104.486 775.628 104.388 Q775.562 104.289 775.169 104.191 Q774.792 104.092 774.037 104.092 Q773.726 104.092 773.578 104.076 Q773.447 104.06 773.316 103.978 Q773.201 103.896 773.201 103.715 Q773.201 103.42 773.316 103.256 Q773.447 103.092 773.546 103.059 Q773.644 103.027 773.841 103.01 Q774.119 102.994 775.054 102.912 Q775.989 102.814 776.792 102.748 Q777.595 102.682 777.94 102.682 Q778.136 102.682 778.235 102.781 Q778.349 102.863 778.366 102.961 L778.366 103.043 Z" fill="#000000" fill-rule="nonzero" fill-opacity="1" /><path clip-path="url(#clip480)" d="M791.132 111.88 Q791.132 112.339 790.919 112.454 Q790.706 112.553 790.116 112.553 L786.968 112.553 L784.476 122.456 Q784.279 123.325 784.279 124.062 Q784.279 124.882 784.525 125.243 Q784.787 125.604 785.328 125.604 Q786.394 125.604 787.542 124.636 Q788.706 123.669 789.689 121.308 Q789.821 120.996 789.886 120.931 Q789.968 120.849 790.181 120.849 Q790.591 120.849 790.591 121.177 Q790.591 121.291 790.362 121.816 Q790.148 122.341 789.673 123.111 Q789.214 123.882 788.607 124.603 Q788.017 125.325 787.115 125.849 Q786.214 126.358 785.246 126.358 Q783.885 126.358 783.016 125.489 Q782.164 124.62 782.164 123.259 Q782.164 122.816 782.508 121.406 Q782.852 119.98 784.722 112.553 L781.754 112.553 Q781.344 112.553 781.18 112.536 Q781.032 112.52 780.918 112.438 Q780.819 112.339 780.819 112.143 Q780.819 111.831 780.95 111.7 Q781.082 111.552 781.246 111.536 Q781.426 111.503 781.836 111.503 L784.984 111.503 L786.295 106.175 Q786.427 105.65 786.755 105.355 Q787.099 105.043 787.296 105.011 Q787.492 104.961 787.64 104.961 Q788.083 104.961 788.345 105.207 Q788.607 105.437 788.607 105.863 Q788.607 106.093 787.23 111.503 L790.181 111.503 Q790.558 111.503 790.706 111.52 Q790.87 111.536 791.001 111.618 Q791.132 111.7 791.132 111.88 Z" fill="#000000" fill-rule="nonzero" fill-opacity="1" /><path clip-path="url(#clip480)" d="M797.937 99.3937 Q797.937 91.2895 800.959 84.7546 Q802.247 82.0142 804.051 79.7188 Q805.854 77.4234 807.049 76.4163 Q808.243 75.4091 808.571 75.4091 Q809.039 75.4091 809.063 75.8775 Q809.063 76.1118 808.431 76.6973 Q800.701 84.5673 800.725 99.3937 Q800.725 114.267 808.243 121.832 Q809.063 122.652 809.063 122.91 Q809.063 123.378 808.571 123.378 Q808.243 123.378 807.095 122.418 Q805.948 121.458 804.168 119.256 Q802.388 117.054 801.099 114.361 Q797.937 107.826 797.937 99.3937 Z" fill="#000000" fill-rule="nonzero" fill-opacity="1" /><path clip-path="url(#clip480)" d="M827.437 91.2427 Q827.437 91.8985 827.133 92.0625 Q826.829 92.203 825.985 92.203 L821.488 92.203 L817.928 106.35 Q817.647 107.592 817.647 108.646 Q817.647 109.817 817.998 110.332 Q818.373 110.847 819.146 110.847 Q820.668 110.847 822.308 109.465 Q823.971 108.083 825.376 104.711 Q825.564 104.266 825.657 104.172 Q825.774 104.055 826.079 104.055 Q826.665 104.055 826.665 104.523 Q826.665 104.687 826.337 105.437 Q826.032 106.186 825.353 107.287 Q824.697 108.388 823.83 109.418 Q822.987 110.449 821.699 111.199 Q820.411 111.925 819.029 111.925 Q817.085 111.925 815.843 110.683 Q814.625 109.442 814.625 107.498 Q814.625 106.865 815.117 104.851 Q815.609 102.813 818.279 92.203 L814.04 92.203 Q813.454 92.203 813.22 92.1796 Q813.009 92.1561 812.845 92.039 Q812.705 91.8985 812.705 91.6174 Q812.705 91.1724 812.892 90.985 Q813.08 90.7742 813.314 90.7508 Q813.571 90.704 814.157 90.704 L818.654 90.704 L820.528 83.0917 Q820.715 82.3421 821.184 81.9205 Q821.676 81.4755 821.957 81.4287 Q822.238 81.3584 822.449 81.3584 Q823.081 81.3584 823.456 81.7097 Q823.83 82.0376 823.83 82.6466 Q823.83 82.9745 821.863 90.704 L826.079 90.704 Q826.618 90.704 826.829 90.7274 Q827.063 90.7508 827.25 90.8679 Q827.437 90.985 827.437 91.2427 Z" fill="#000000" fill-rule="nonzero" fill-opacity="1" /><path clip-path="url(#clip480)" d="M831.189 122.91 Q831.189 122.676 831.798 122.09 Q839.527 114.22 839.527 99.3937 Q839.527 84.5204 832.102 77.0018 Q831.189 76.1352 831.189 75.8775 Q831.189 75.4091 831.657 75.4091 Q831.985 75.4091 833.133 76.3694 Q834.304 77.3297 836.061 79.5314 Q837.841 81.7332 839.152 84.4267 Q842.314 90.9616 842.314 99.3937 Q842.314 107.498 839.293 114.033 Q838.005 116.773 836.201 119.069 Q834.398 121.364 833.203 122.371 Q832.008 123.378 831.657 123.378 Q831.189 123.378 831.189 122.91 Z" fill="#000000" fill-rule="nonzero" fill-opacity="1" /><polyline clip-path="url(#clip480)" style="stroke:#dfba53; stroke-linecap:round; stroke-linejoin:round; stroke-width:8; stroke-opacity:1; fill:none" points="913.785,104.278 1059.12,104.278 "/>
<path clip-path="url(#clip480)" d="M1117.4 82.8227 L1114.38 95.0492 Q1114.17 95.8222 1114.03 95.9159 Q1113.91 96.0095 1113.54 96.0095 Q1112.81 96.0095 1112.81 95.5177 Q1112.81 95.4708 1112.88 94.8618 Q1112.95 94.2294 1112.95 93.0817 Q1112.95 88.8423 1110.89 86.3361 Q1108.85 83.8299 1105.22 83.8299 Q1101.83 83.8299 1098.57 85.61 Q1095.31 87.3901 1093.23 90.0134 Q1091.47 92.1683 1090.26 94.7916 Q1089.06 97.4149 1088.57 99.7103 Q1088.08 101.982 1087.89 103.364 Q1087.73 104.746 1087.73 105.636 Q1087.73 108.259 1088.57 110.297 Q1089.41 112.312 1090.82 113.459 Q1092.25 114.607 1093.89 115.169 Q1095.55 115.731 1097.35 115.731 Q1098.03 115.731 1098.85 115.638 Q1099.67 115.544 1100.94 115.193 Q1102.22 114.841 1103.28 114.256 Q1104.36 113.67 1105.29 112.546 Q1106.25 111.422 1106.63 109.922 Q1107.63 106.105 1107.63 105.542 Q1107.63 105.074 1107.35 104.91 Q1107.07 104.746 1106.14 104.629 L1103.61 104.535 Q1103.56 104.535 1103.49 104.535 Q1103.04 104.535 1102.86 104.535 Q1102.67 104.512 1102.46 104.465 Q1102.27 104.418 1102.2 104.325 Q1102.15 104.207 1102.15 104.02 Q1102.15 103.575 1102.34 103.364 Q1102.53 103.13 1102.69 103.107 Q1102.86 103.06 1103.16 103.06 L1109.88 103.2 Q1110.42 103.2 1112.39 103.13 Q1114.36 103.06 1114.92 103.06 Q1115.55 103.06 1115.55 103.575 Q1115.55 104.535 1114.78 104.535 Q1114.01 104.559 1113.61 104.582 Q1113.21 104.582 1112.81 104.699 Q1112.44 104.816 1112.3 104.91 Q1112.16 104.98 1111.97 105.332 Q1111.78 105.66 1111.71 105.941 Q1111.64 106.198 1111.48 106.854 Q1111.38 107.276 1111.15 108.072 Q1110.94 108.868 1110.84 109.29 L1109.93 112.991 Q1109.3 115.731 1109.11 115.919 Q1109.02 116.106 1108.78 116.106 Q1108.43 116.106 1107.68 115.075 Q1106.96 114.045 1106.63 113.131 Q1106.04 113.764 1105.67 114.139 Q1105.29 114.49 1104.43 115.052 Q1103.58 115.614 1102.46 116.059 Q1099.72 117.207 1096.46 117.207 Q1090.65 117.207 1087 113.53 Q1083.35 109.829 1083.35 104.067 Q1083.35 99.9914 1085.22 95.9861 Q1087.09 91.9809 1090.07 89.0062 Q1093.04 86.0316 1096.98 84.1812 Q1100.91 82.3308 1104.85 82.3308 Q1106.35 82.3308 1107.68 82.729 Q1109.02 83.1272 1109.81 83.6191 Q1110.63 84.1109 1111.36 84.837 Q1112.08 85.5397 1112.32 85.8676 Q1112.58 86.1955 1112.81 86.5937 L1116.16 82.9164 Q1116.75 82.3308 1116.89 82.3308 Q1117.17 82.3308 1117.28 82.4948 Q1117.4 82.6587 1117.4 82.8227 Z" fill="#000000" fill-rule="nonzero" fill-opacity="1" /><path clip-path="url(#clip480)" d="M1123.16 104.161 Q1123.16 96.0564 1126.18 89.5215 Q1127.47 86.7811 1129.27 84.4857 Q1131.08 82.1903 1132.27 81.1831 Q1133.47 80.176 1133.79 80.176 Q1134.26 80.176 1134.29 80.6444 Q1134.29 80.8786 1133.65 81.4642 Q1125.92 89.3341 1125.95 104.161 Q1125.95 119.034 1133.47 126.599 Q1134.29 127.419 1134.29 127.677 Q1134.29 128.145 1133.79 128.145 Q1133.47 128.145 1132.32 127.185 Q1131.17 126.224 1129.39 124.023 Q1127.61 121.821 1126.32 119.127 Q1123.16 112.593 1123.16 104.161 Z" fill="#000000" fill-rule="nonzero" fill-opacity="1" /><path clip-path="url(#clip480)" d="M1152.66 96.0095 Q1152.66 96.6654 1152.36 96.8293 Q1152.05 96.9699 1151.21 96.9699 L1146.71 96.9699 L1143.15 111.117 Q1142.87 112.358 1142.87 113.412 Q1142.87 114.584 1143.22 115.099 Q1143.6 115.614 1144.37 115.614 Q1145.89 115.614 1147.53 114.232 Q1149.19 112.85 1150.6 109.477 Q1150.79 109.032 1150.88 108.939 Q1151 108.822 1151.3 108.822 Q1151.89 108.822 1151.89 109.29 Q1151.89 109.454 1151.56 110.204 Q1151.25 110.953 1150.58 112.054 Q1149.92 113.155 1149.05 114.185 Q1148.21 115.216 1146.92 115.965 Q1145.63 116.692 1144.25 116.692 Q1142.31 116.692 1141.07 115.45 Q1139.85 114.209 1139.85 112.265 Q1139.85 111.632 1140.34 109.618 Q1140.83 107.58 1143.5 96.9699 L1139.26 96.9699 Q1138.68 96.9699 1138.44 96.9464 Q1138.23 96.923 1138.07 96.8059 Q1137.93 96.6654 1137.93 96.3843 Q1137.93 95.9393 1138.11 95.7519 Q1138.3 95.5411 1138.54 95.5177 Q1138.79 95.4708 1139.38 95.4708 L1143.88 95.4708 L1145.75 87.8585 Q1145.94 87.109 1146.41 86.6874 Q1146.9 86.2424 1147.18 86.1955 Q1147.46 86.1253 1147.67 86.1253 Q1148.3 86.1253 1148.68 86.4766 Q1149.05 86.8045 1149.05 87.4135 Q1149.05 87.7414 1147.09 95.4708 L1151.3 95.4708 Q1151.84 95.4708 1152.05 95.4942 Q1152.29 95.5177 1152.47 95.6348 Q1152.66 95.7519 1152.66 96.0095 Z" fill="#000000" fill-rule="nonzero" fill-opacity="1" /><path clip-path="url(#clip480)" d="M1156.41 127.677 Q1156.41 127.442 1157.02 126.857 Q1164.75 118.987 1164.75 104.161 Q1164.75 89.2873 1157.32 81.7687 Q1156.41 80.9021 1156.41 80.6444 Q1156.41 80.176 1156.88 80.176 Q1157.21 80.176 1158.36 81.1363 Q1159.53 82.0966 1161.28 84.2983 Q1163.06 86.5 1164.37 89.1936 Q1167.54 95.7285 1167.54 104.161 Q1167.54 112.265 1164.52 118.8 Q1163.23 121.54 1161.42 123.835 Q1159.62 126.131 1158.43 127.138 Q1157.23 128.145 1156.88 128.145 Q1156.41 128.145 1156.41 127.677 Z" fill="#000000" fill-rule="nonzero" fill-opacity="1" /><polyline clip-path="url(#clip480)" style="stroke:#ba3d3a; stroke-linecap:round; stroke-linejoin:round; stroke-width:4; stroke-opacity:1; fill:none" stroke-dasharray="16, 10" points="1274.83,104.278 1420.17,104.278 "/>
<path clip-path="url(#clip480)" d="M1444.4 105.377 Q1444.4 97.9414 1446.27 93.8901 Q1448.89 87.8625 1455.07 87.8625 Q1456.38 87.8625 1457.74 88.233 Q1459.12 88.5789 1460.85 89.9375 Q1462.6 91.2962 1463.66 93.5195 Q1465.69 97.8179 1465.69 105.377 Q1465.69 112.763 1463.81 116.79 Q1461.07 122.669 1455.02 122.669 Q1452.75 122.669 1450.42 121.508 Q1448.13 120.347 1446.67 117.556 Q1444.4 113.381 1444.4 105.377 M1448.6 104.76 Q1448.6 112.393 1449.14 115.431 Q1449.76 118.717 1451.44 120.15 Q1453.14 121.558 1455.02 121.558 Q1457.04 121.558 1458.72 120.051 Q1460.43 118.519 1460.95 115.234 Q1461.51 111.998 1461.49 104.76 Q1461.49 97.7191 1461 94.9029 Q1460.33 91.6174 1458.55 90.3081 Q1456.8 88.9741 1455.02 88.9741 Q1454.35 88.9741 1453.63 89.1717 Q1452.94 89.3694 1451.93 89.9375 Q1450.92 90.5057 1450.13 91.9138 Q1449.36 93.3219 1448.99 95.4464 Q1448.6 98.1885 1448.6 104.76 Z" fill="#000000" fill-rule="nonzero" fill-opacity="1" /><path clip-path="url(#clip480)" d="M1486.22 120.891 L1486.22 114.221 Q1486.22 113.653 1486.24 113.455 Q1486.27 113.258 1486.42 113.109 Q1486.56 112.961 1486.86 112.961 Q1487.21 112.961 1487.33 113.109 Q1487.48 113.258 1487.58 113.826 Q1488.34 117.309 1489.97 119.162 Q1491.63 120.99 1494.62 120.99 Q1497.46 120.99 1498.89 119.73 Q1500.32 118.47 1500.32 116.395 Q1500.32 112.689 1495.06 111.751 Q1492.02 111.133 1490.76 110.738 Q1489.5 110.318 1488.39 109.404 Q1486.22 107.625 1486.22 105.105 Q1486.22 102.586 1488.12 100.733 Q1490.05 98.8802 1494.3 98.8802 Q1497.14 98.8802 1499.06 100.313 Q1499.63 99.8683 1499.93 99.4977 Q1500.6 98.8802 1500.94 98.8802 Q1501.34 98.8802 1501.41 99.1519 Q1501.48 99.3989 1501.48 100.115 L1501.48 105.204 Q1501.48 105.772 1501.46 105.97 Q1501.44 106.168 1501.29 106.316 Q1501.14 106.439 1500.82 106.439 Q1500.25 106.439 1500.23 105.97 Q1499.83 99.8436 1494.3 99.8436 Q1491.31 99.8436 1489.97 101.005 Q1488.64 102.141 1488.64 103.697 Q1488.64 104.562 1489.03 105.229 Q1489.45 105.871 1489.97 106.266 Q1490.52 106.637 1491.5 107.008 Q1492.49 107.353 1493.09 107.477 Q1493.7 107.6 1494.86 107.847 Q1498.92 108.613 1500.62 110.268 Q1502.74 112.393 1502.74 115.086 Q1502.74 118.075 1500.72 120.1 Q1498.69 122.126 1494.62 122.126 Q1491.33 122.126 1489.03 119.927 Q1488.74 120.224 1488.52 120.496 Q1488.29 120.743 1488.19 120.841 Q1488.12 120.94 1488.1 121.014 Q1488.07 121.064 1488.02 121.113 Q1487.01 122.126 1486.76 122.126 Q1486.37 122.126 1486.29 121.854 Q1486.22 121.607 1486.22 120.891 Z" fill="#000000" fill-rule="nonzero" fill-opacity="1" /><path clip-path="url(#clip480)" d="M1505.41 101.326 L1505.41 100.214 Q1507.73 100.115 1509.27 98.4849 Q1510.82 96.8298 1511.34 94.8041 Q1511.89 92.7784 1511.93 90.4316 L1513.19 90.4316 L1513.19 99.7448 L1520.43 99.7448 L1520.43 101.326 L1513.19 101.326 L1513.19 115.382 Q1513.19 120.841 1516.6 120.841 Q1518.06 120.841 1519.02 119.359 Q1519.99 117.852 1519.99 115.184 L1519.99 112.393 L1521.25 112.393 L1521.25 115.283 Q1521.25 118.025 1519.99 120.076 Q1518.73 122.126 1516.23 122.126 Q1515.32 122.126 1514.4 121.879 Q1513.52 121.657 1512.33 121.064 Q1511.17 120.446 1510.43 118.964 Q1509.71 117.457 1509.71 115.283 L1509.71 101.326 L1505.41 101.326 Z" fill="#000000" fill-rule="nonzero" fill-opacity="1" /><path clip-path="url(#clip480)" d="M1525.79 110.688 Q1525.79 105.871 1529.15 102.536 Q1532.51 99.2013 1537.06 99.2013 Q1540.91 99.2013 1543.43 102.339 L1543.43 91.395 Q1543.43 89.5176 1542.76 89.0482 Q1542.12 88.5789 1539.5 88.5789 L1539.5 86.9978 L1546.79 86.4544 L1546.79 117.161 Q1546.79 119.038 1547.43 119.532 Q1548.1 120.002 1550.72 120.002 L1550.72 121.558 L1543.28 122.126 L1543.28 118.766 Q1540.66 122.101 1536.51 122.126 Q1532.17 122.126 1528.98 118.791 Q1525.79 115.456 1525.79 110.688 M1529.99 110.738 Q1529.99 115.431 1531.45 117.754 Q1533.48 120.99 1536.76 120.99 Q1540.52 120.99 1542.74 117.457 Q1543.31 116.592 1543.28 115.58 L1543.28 105.204 Q1543.28 104.191 1542.74 103.351 Q1540.66 100.313 1537.28 100.313 Q1533.75 100.313 1531.55 103.549 Q1529.99 105.97 1529.99 110.738 Z" fill="#000000" fill-rule="nonzero" fill-opacity="1" /><path clip-path="url(#clip480)" d="M1557.14 108.91 Q1557.14 100.362 1560.33 93.4701 Q1561.69 90.5798 1563.59 88.1589 Q1565.49 85.738 1566.75 84.6757 Q1568.01 83.6135 1568.36 83.6135 Q1568.85 83.6135 1568.88 84.1076 Q1568.88 84.3546 1568.21 84.9722 Q1560.06 93.2725 1560.08 108.91 Q1560.08 124.596 1568.01 132.576 Q1568.88 133.44 1568.88 133.712 Q1568.88 134.206 1568.36 134.206 Q1568.01 134.206 1566.8 133.193 Q1565.59 132.18 1563.71 129.858 Q1561.84 127.536 1560.48 124.695 Q1557.14 117.803 1557.14 108.91 Z" fill="#000000" fill-rule="nonzero" fill-opacity="1" /><path clip-path="url(#clip480)" d="M1573.57 101.375 Q1573.57 100.264 1574.43 99.473 Q1575.32 98.6825 1576.39 98.6825 Q1577.1 98.6825 1577.67 99.0037 Q1578.26 99.3001 1578.63 99.893 Q1579.03 100.461 1579.28 101.054 Q1579.52 101.622 1579.7 102.487 Q1579.89 103.351 1579.97 103.87 Q1580.04 104.364 1580.12 105.13 Q1580.19 105.871 1580.19 106.019 Q1580.49 104.957 1580.96 103.895 Q1581.45 102.833 1582.31 101.548 Q1583.18 100.264 1584.49 99.4483 Q1585.8 98.6331 1587.33 98.6331 Q1590.17 98.6331 1592.52 101.77 Q1594.86 104.908 1594.86 111.429 L1594.86 133.094 Q1594.86 134.008 1594.47 134.527 Q1594.1 135.071 1593.75 135.194 Q1593.41 135.318 1592.99 135.318 Q1592.27 135.318 1591.65 134.799 Q1591.06 134.305 1591.06 133.094 Q1591.06 129.512 1592.32 122.003 Q1593.6 114.517 1593.6 110.837 Q1593.6 105.525 1591.06 103.351 Q1589.8 102.24 1588.39 102.24 Q1587.13 102.24 1586.12 103.228 Q1585.11 104.216 1584.41 105.698 Q1583.72 107.18 1583.08 109.7 Q1582.46 112.195 1582.07 114.443 Q1581.7 116.691 1581.25 120.002 Q1581.01 122.62 1579.18 122.62 Q1578.51 122.62 1577.92 122.175 Q1577.35 121.755 1577.35 120.891 Q1577.35 119.631 1578.14 114.913 Q1578.93 110.17 1578.93 109.774 Q1578.93 105.525 1578.39 104.018 Q1577.87 102.487 1576.76 101.968 Q1576.19 103.03 1575.22 103.03 Q1574.51 103.03 1574.04 102.561 Q1573.57 102.092 1573.57 101.375 Z" fill="#000000" fill-rule="nonzero" fill-opacity="1" /><path clip-path="url(#clip480)" d="M1599.93 133.712 Q1599.93 133.465 1600.57 132.847 Q1608.72 124.547 1608.72 108.91 Q1608.72 93.2231 1600.89 85.2933 Q1599.93 84.3793 1599.93 84.1076 Q1599.93 83.6135 1600.42 83.6135 Q1600.77 83.6135 1601.98 84.6263 Q1603.21 85.6392 1605.07 87.9613 Q1606.94 90.2834 1608.33 93.1243 Q1611.66 100.017 1611.66 108.91 Q1611.66 117.457 1608.48 124.349 Q1607.12 127.24 1605.21 129.661 Q1603.31 132.081 1602.05 133.144 Q1600.79 134.206 1600.42 134.206 Q1599.93 134.206 1599.93 133.712 Z" fill="#000000" fill-rule="nonzero" fill-opacity="1" /><circle clip-path="url(#clip480)" cx="1708.55" cy="104.278" r="18.432" fill="#ff0000" fill-rule="evenodd" fill-opacity="1" stroke="#000000" stroke-opacity="1" stroke-width="8.192"/>
<path clip-path="url(#clip480)" d="M1805.45 121.558 L1805.45 120.002 L1806.66 120.002 Q1809.4 120.002 1810.02 119.557 Q1810.66 119.088 1810.66 117.605 L1810.66 90.9504 Q1810.66 89.4929 1810.02 89.0482 Q1809.37 88.5789 1806.66 88.5789 L1805.45 88.5789 L1805.45 86.9978 L1823.31 86.9978 Q1828.42 86.9978 1831.83 89.814 Q1835.24 92.6302 1835.24 96.4098 Q1835.24 100.165 1831.75 102.882 Q1828.3 105.575 1823.7 105.575 L1815.15 105.575 L1815.15 117.605 Q1815.15 119.063 1815.77 119.532 Q1816.41 120.002 1819.16 120.002 L1820.37 120.002 L1820.37 121.558 Q1818.59 121.41 1812.88 121.41 Q1807.22 121.41 1805.45 121.558 M1815.01 104.265 L1821.97 104.265 Q1824.24 104.265 1825.9 103.623 Q1827.55 102.981 1828.3 102.215 Q1829.06 101.425 1829.48 100.165 Q1829.93 98.8802 1829.98 98.1885 Q1830.03 97.4721 1830.03 96.4098 Q1830.03 95.2982 1829.98 94.6065 Q1829.93 93.8901 1829.48 92.6302 Q1829.06 91.3456 1828.3 90.5798 Q1827.55 89.7893 1825.9 89.1964 Q1824.27 88.5789 1821.97 88.5789 L1817.48 88.5789 Q1815.75 88.5789 1815.38 88.9247 Q1815.01 89.2706 1815.01 90.6045 L1815.01 104.265 Z" fill="#000000" fill-rule="nonzero" fill-opacity="1" /><path clip-path="url(#clip480)" d="M1838.05 110.417 Q1838.05 105.649 1841.12 102.265 Q1844.18 98.8802 1848.58 98.8802 Q1853.02 98.8802 1855.32 101.77 Q1857.64 104.661 1857.64 108.811 Q1857.64 109.577 1857.45 109.725 Q1857.25 109.873 1856.38 109.873 L1842.25 109.873 Q1842.25 115.036 1843.79 117.457 Q1845.91 120.841 1849.49 120.841 Q1849.99 120.841 1850.58 120.743 Q1851.17 120.644 1852.38 120.224 Q1853.59 119.779 1854.65 118.618 Q1855.72 117.457 1856.33 115.629 Q1856.48 114.913 1856.98 114.937 Q1857.64 114.937 1857.64 115.53 Q1857.64 115.975 1857.15 116.988 Q1856.68 117.976 1855.77 119.162 Q1854.85 120.347 1853.07 121.237 Q1851.32 122.126 1849.2 122.126 Q1844.75 122.126 1841.39 118.766 Q1838.05 115.382 1838.05 110.417 M1842.3 108.811 L1854.31 108.811 Q1854.31 107.749 1854.11 106.563 Q1853.94 105.377 1853.39 103.747 Q1852.88 102.092 1851.64 101.054 Q1850.41 100.017 1848.58 100.017 Q1847.76 100.017 1846.87 100.362 Q1846.01 100.708 1844.95 101.548 Q1843.88 102.388 1843.14 104.29 Q1842.4 106.192 1842.3 108.811 Z" fill="#000000" fill-rule="nonzero" fill-opacity="1" /><path clip-path="url(#clip480)" d="M1861.23 116.741 Q1861.23 112.442 1866.29 110.17 Q1869.33 108.712 1875.6 108.342 L1875.6 106.489 Q1875.6 103.351 1873.95 101.696 Q1872.32 100.017 1870.24 100.017 Q1866.54 100.017 1864.76 102.339 Q1866.27 102.388 1866.81 103.154 Q1867.35 103.895 1867.35 104.661 Q1867.35 105.674 1866.71 106.341 Q1866.09 106.983 1865.03 106.983 Q1864.02 106.983 1863.35 106.365 Q1862.68 105.723 1862.68 104.611 Q1862.68 102.141 1864.91 100.511 Q1867.15 98.8802 1870.34 98.8802 Q1874.49 98.8802 1877.26 101.672 Q1878.12 102.536 1878.54 103.648 Q1878.99 104.76 1879.04 105.501 Q1879.09 106.217 1879.09 107.65 L1879.09 117.754 Q1879.09 118.05 1879.18 118.544 Q1879.28 119.038 1879.73 119.68 Q1880.2 120.298 1880.96 120.298 Q1882.79 120.298 1882.77 117.062 L1882.77 114.221 L1884.05 114.221 L1884.05 117.062 Q1884.05 119.754 1882.62 120.817 Q1881.21 121.854 1879.9 121.854 Q1878.22 121.854 1877.16 120.619 Q1876.1 119.384 1875.95 117.704 Q1875.18 119.631 1873.43 120.891 Q1871.7 122.126 1869.33 122.126 Q1867.5 122.126 1865.77 121.657 Q1864.07 121.212 1862.63 119.952 Q1861.23 118.668 1861.23 116.741 M1865.13 116.691 Q1865.13 118.569 1866.46 119.779 Q1867.8 120.99 1869.67 120.99 Q1871.8 120.99 1873.7 119.359 Q1875.6 117.704 1875.6 114.468 L1875.6 109.404 Q1870 109.601 1867.55 111.849 Q1865.13 114.073 1865.13 116.691 Z" fill="#000000" fill-rule="nonzero" fill-opacity="1" /><path clip-path="url(#clip480)" d="M1885.81 121.558 L1885.81 120.002 Q1888.5 120.002 1889.12 119.68 Q1889.76 119.335 1889.76 117.704 L1889.76 91.395 Q1889.76 89.5176 1889.09 89.0482 Q1888.45 88.5789 1885.81 88.5789 L1885.81 86.9978 L1893.09 86.4544 L1893.09 110.738 L1900.23 104.562 Q1901.34 103.599 1901.34 102.586 Q1901.34 101.425 1899.89 101.326 L1899.89 99.7448 Q1902.01 99.893 1905.54 99.893 Q1907.62 99.893 1909.08 99.7448 L1909.08 101.326 Q1905.89 101.474 1902.7 104.043 Q1901.99 104.611 1900.28 106.094 Q1898.6 107.551 1898.6 107.699 Q1898.6 107.749 1898.65 107.872 Q1898.73 107.996 1898.82 108.095 Q1898.92 108.193 1898.92 108.243 L1905.35 117.309 Q1906.66 119.137 1907.62 119.582 Q1908.58 120.002 1910.26 120.002 L1910.26 121.558 Q1908.09 121.41 1905.84 121.41 Q1904.63 121.41 1900.38 121.558 L1900.38 120.002 Q1902.21 120.002 1902.21 118.816 Q1902.21 118.001 1898.11 112.343 Q1897.81 111.948 1897.14 111.084 Q1896.53 110.17 1896.18 109.725 L1892.94 112.492 L1892.94 117.704 Q1892.94 119.335 1893.56 119.68 Q1894.2 120.002 1896.9 120.002 L1896.9 121.558 Q1893.86 121.41 1891.34 121.41 Q1890.82 121.41 1885.81 121.558 Z" fill="#000000" fill-rule="nonzero" fill-opacity="1" /><path clip-path="url(#clip480)" d="M1912.73 120.891 L1912.73 114.221 Q1912.73 113.653 1912.76 113.455 Q1912.78 113.258 1912.93 113.109 Q1913.08 112.961 1913.37 112.961 Q1913.72 112.961 1913.84 113.109 Q1913.99 113.258 1914.09 113.826 Q1914.86 117.309 1916.49 119.162 Q1918.14 120.99 1921.13 120.99 Q1923.97 120.99 1925.4 119.73 Q1926.84 118.47 1926.84 116.395 Q1926.84 112.689 1921.58 111.751 Q1918.54 111.133 1917.28 110.738 Q1916.02 110.318 1914.91 109.404 Q1912.73 107.625 1912.73 105.105 Q1912.73 102.586 1914.63 100.733 Q1916.56 98.8802 1920.81 98.8802 Q1923.65 98.8802 1925.58 100.313 Q1926.15 99.8683 1926.44 99.4977 Q1927.11 98.8802 1927.46 98.8802 Q1927.85 98.8802 1927.92 99.1519 Q1928 99.3989 1928 100.115 L1928 105.204 Q1928 105.772 1927.97 105.97 Q1927.95 106.168 1927.8 106.316 Q1927.65 106.439 1927.33 106.439 Q1926.76 106.439 1926.74 105.97 Q1926.34 99.8436 1920.81 99.8436 Q1917.82 99.8436 1916.49 101.005 Q1915.15 102.141 1915.15 103.697 Q1915.15 104.562 1915.55 105.229 Q1915.97 105.871 1916.49 106.266 Q1917.03 106.637 1918.02 107.008 Q1919.01 107.353 1919.6 107.477 Q1920.22 107.6 1921.38 107.847 Q1925.43 108.613 1927.13 110.268 Q1929.26 112.393 1929.26 115.086 Q1929.26 118.075 1927.23 120.1 Q1925.21 122.126 1921.13 122.126 Q1917.85 122.126 1915.55 119.927 Q1915.25 120.224 1915.03 120.496 Q1914.81 120.743 1914.71 120.841 Q1914.63 120.94 1914.61 121.014 Q1914.58 121.064 1914.54 121.113 Q1913.52 122.126 1913.28 122.126 Q1912.88 122.126 1912.81 121.854 Q1912.73 121.607 1912.73 120.891 Z" fill="#000000" fill-rule="nonzero" fill-opacity="1" /></svg>
