<?xml version="1.0" encoding="utf-8"?>
<svg xmlns="http://www.w3.org/2000/svg" xmlns:xlink="http://www.w3.org/1999/xlink" width="600" height="400" viewBox="0 0 2400 1600">
<defs>
  <clipPath id="clip430">
    <rect x="0" y="0" width="2400" height="1600"/>
  </clipPath>
</defs>
<path clip-path="url(#clip430)" d="M0 1600 L2400 1600 L2400 0 L0 0  Z" fill="#ffffff" fill-rule="evenodd" fill-opacity="1"/>
<defs>
  <clipPath id="clip431">
    <rect x="480" y="0" width="1681" height="1600"/>
  </clipPath>
</defs>
<path clip-path="url(#clip430)" d="M210.61 1423.18 L2352.76 1423.18 L2352.76 47.2441 L210.61 47.2441  Z" fill="#ffffff" fill-rule="evenodd" fill-opacity="1"/>
<defs>
  <clipPath id="clip432">
    <rect x="210" y="47" width="2143" height="1377"/>
  </clipPath>
</defs>
<polyline clip-path="url(#clip432)" style="stroke:#000000; stroke-linecap:round; stroke-linejoin:round; stroke-width:2; stroke-opacity:0.1; fill:none" points="304.962,1423.18 304.962,47.2441 "/>
<polyline clip-path="url(#clip432)" style="stroke:#000000; stroke-linecap:round; stroke-linejoin:round; stroke-width:2; stroke-opacity:0.1; fill:none" points="720.036,1423.18 720.036,47.2441 "/>
<polyline clip-path="url(#clip432)" style="stroke:#000000; stroke-linecap:round; stroke-linejoin:round; stroke-width:2; stroke-opacity:0.1; fill:none" points="1135.11,1423.18 1135.11,47.2441 "/>
<polyline clip-path="url(#clip432)" style="stroke:#000000; stroke-linecap:round; stroke-linejoin:round; stroke-width:2; stroke-opacity:0.1; fill:none" points="1550.18,1423.18 1550.18,47.2441 "/>
<polyline clip-path="url(#clip432)" style="stroke:#000000; stroke-linecap:round; stroke-linejoin:round; stroke-width:2; stroke-opacity:0.1; fill:none" points="1965.26,1423.18 1965.26,47.2441 "/>
<polyline clip-path="url(#clip430)" style="stroke:#000000; stroke-linecap:round; stroke-linejoin:round; stroke-width:4; stroke-opacity:1; fill:none" points="210.61,1423.18 2352.76,1423.18 "/>
<polyline clip-path="url(#clip430)" style="stroke:#000000; stroke-linecap:round; stroke-linejoin:round; stroke-width:4; stroke-opacity:1; fill:none" points="304.962,1423.18 304.962,1404.28 "/>
<polyline clip-path="url(#clip430)" style="stroke:#000000; stroke-linecap:round; stroke-linejoin:round; stroke-width:4; stroke-opacity:1; fill:none" points="720.036,1423.18 720.036,1404.28 "/>
<polyline clip-path="url(#clip430)" style="stroke:#000000; stroke-linecap:round; stroke-linejoin:round; stroke-width:4; stroke-opacity:1; fill:none" points="1135.11,1423.18 1135.11,1404.28 "/>
<polyline clip-path="url(#clip430)" style="stroke:#000000; stroke-linecap:round; stroke-linejoin:round; stroke-width:4; stroke-opacity:1; fill:none" points="1550.18,1423.18 1550.18,1404.28 "/>
<polyline clip-path="url(#clip430)" style="stroke:#000000; stroke-linecap:round; stroke-linejoin:round; stroke-width:4; stroke-opacity:1; fill:none" points="1965.26,1423.18 1965.26,1404.28 "/>
<path clip-path="url(#clip430)" d="M295.822 1472.22 Q296.118 1472.51 296.118 1472.93 Q296.118 1473.35 295.822 1473.65 Q295.525 1473.94 295.105 1473.94 L263.436 1473.94 Q263.016 1473.94 262.719 1473.65 Q262.423 1473.35 262.423 1472.93 Q262.423 1472.51 262.719 1472.22 Q263.016 1471.92 263.436 1471.92 L295.105 1471.92 Q295.525 1471.92 295.822 1472.22 Z" fill="#000000" fill-rule="nonzero" fill-opacity="1" /><path clip-path="url(#clip430)" d="M301.454 1485.58 Q301.454 1484.67 301.528 1484.39 Q301.627 1484.12 302.022 1483.7 L311.731 1472.88 Q317.042 1466.9 317.042 1461.69 Q317.042 1458.31 315.263 1455.89 Q313.509 1453.47 310.273 1453.47 Q308.05 1453.47 306.172 1454.82 Q304.295 1456.18 303.43 1458.6 Q303.579 1458.55 304.097 1458.55 Q305.357 1458.55 306.049 1459.34 Q306.765 1460.14 306.765 1461.2 Q306.765 1462.56 305.876 1463.22 Q305.011 1463.87 304.147 1463.87 Q303.801 1463.87 303.332 1463.79 Q302.887 1463.72 302.171 1463.03 Q301.454 1462.31 301.454 1461.05 Q301.454 1457.52 304.122 1454.7 Q306.815 1451.88 310.916 1451.88 Q315.56 1451.88 318.598 1454.65 Q321.661 1457.39 321.661 1461.69 Q321.661 1463.2 321.192 1464.58 Q320.747 1465.94 320.13 1467 Q319.537 1468.07 317.907 1469.77 Q316.276 1471.47 314.967 1472.68 Q313.658 1473.9 310.718 1476.46 L305.357 1481.68 L314.473 1481.68 Q318.919 1481.68 319.265 1481.28 Q319.759 1480.57 320.377 1476.79 L321.661 1476.79 L320.229 1485.58 L301.454 1485.58 Z" fill="#000000" fill-rule="nonzero" fill-opacity="1" /><path clip-path="url(#clip430)" d="M326.207 1469.4 Q326.207 1461.96 328.084 1457.91 Q330.703 1451.88 336.879 1451.88 Q338.188 1451.88 339.547 1452.26 Q340.93 1452.6 342.659 1453.96 Q344.413 1455.32 345.476 1457.54 Q347.501 1461.84 347.501 1469.4 Q347.501 1476.79 345.624 1480.81 Q342.882 1486.69 336.829 1486.69 Q334.557 1486.69 332.235 1485.53 Q329.937 1484.37 328.48 1481.58 Q326.207 1477.4 326.207 1469.4 M330.406 1468.78 Q330.406 1476.41 330.95 1479.45 Q331.568 1482.74 333.247 1484.17 Q334.952 1485.58 336.829 1485.58 Q338.855 1485.58 340.535 1484.07 Q342.239 1482.54 342.758 1479.26 Q343.326 1476.02 343.302 1468.78 Q343.302 1461.74 342.808 1458.92 Q342.141 1455.64 340.362 1454.33 Q338.608 1453 336.829 1453 Q336.162 1453 335.446 1453.19 Q334.754 1453.39 333.741 1453.96 Q332.729 1454.53 331.938 1455.94 Q331.172 1457.34 330.802 1459.47 Q330.406 1462.21 330.406 1468.78 Z" fill="#000000" fill-rule="nonzero" fill-opacity="1" /><path clip-path="url(#clip430)" d="M709.389 1469.4 Q709.389 1461.96 711.266 1457.91 Q713.885 1451.88 720.061 1451.88 Q721.37 1451.88 722.729 1452.26 Q724.112 1452.6 725.841 1453.96 Q727.595 1455.32 728.658 1457.54 Q730.683 1461.84 730.683 1469.4 Q730.683 1476.79 728.806 1480.81 Q726.064 1486.69 720.011 1486.69 Q717.739 1486.69 715.417 1485.53 Q713.119 1484.37 711.662 1481.58 Q709.389 1477.4 709.389 1469.4 M713.588 1468.78 Q713.588 1476.41 714.132 1479.45 Q714.75 1482.74 716.429 1484.17 Q718.134 1485.58 720.011 1485.58 Q722.037 1485.58 723.717 1484.07 Q725.421 1482.54 725.94 1479.26 Q726.508 1476.02 726.484 1468.78 Q726.484 1461.74 725.99 1458.92 Q725.323 1455.64 723.544 1454.33 Q721.79 1453 720.011 1453 Q719.344 1453 718.628 1453.19 Q717.936 1453.39 716.923 1453.96 Q715.911 1454.53 715.12 1455.94 Q714.354 1457.34 713.984 1459.47 Q713.588 1462.21 713.588 1468.78 Z" fill="#000000" fill-rule="nonzero" fill-opacity="1" /><path clip-path="url(#clip430)" d="M1112.09 1485.58 Q1112.09 1484.67 1112.16 1484.39 Q1112.26 1484.12 1112.65 1483.7 L1122.36 1472.88 Q1127.67 1466.9 1127.67 1461.69 Q1127.67 1458.31 1125.9 1455.89 Q1124.14 1453.47 1120.91 1453.47 Q1118.68 1453.47 1116.8 1454.82 Q1114.93 1456.18 1114.06 1458.6 Q1114.21 1458.55 1114.73 1458.55 Q1115.99 1458.55 1116.68 1459.34 Q1117.4 1460.14 1117.4 1461.2 Q1117.4 1462.56 1116.51 1463.22 Q1115.64 1463.87 1114.78 1463.87 Q1114.43 1463.87 1113.96 1463.79 Q1113.52 1463.72 1112.8 1463.03 Q1112.09 1462.31 1112.09 1461.05 Q1112.09 1457.52 1114.75 1454.7 Q1117.45 1451.88 1121.55 1451.88 Q1126.19 1451.88 1129.23 1454.65 Q1132.29 1457.39 1132.29 1461.69 Q1132.29 1463.2 1131.82 1464.58 Q1131.38 1465.94 1130.76 1467 Q1130.17 1468.07 1128.54 1469.77 Q1126.91 1471.47 1125.6 1472.68 Q1124.29 1473.9 1121.35 1476.46 L1115.99 1481.68 L1125.11 1481.68 Q1129.55 1481.68 1129.9 1481.28 Q1130.39 1480.57 1131.01 1476.79 L1132.29 1476.79 L1130.86 1485.58 L1112.09 1485.58 Z" fill="#000000" fill-rule="nonzero" fill-opacity="1" /><path clip-path="url(#clip430)" d="M1136.84 1469.4 Q1136.84 1461.96 1138.72 1457.91 Q1141.34 1451.88 1147.51 1451.88 Q1148.82 1451.88 1150.18 1452.26 Q1151.56 1452.6 1153.29 1453.96 Q1155.05 1455.32 1156.11 1457.54 Q1158.13 1461.84 1158.13 1469.4 Q1158.13 1476.79 1156.26 1480.81 Q1153.51 1486.69 1147.46 1486.69 Q1145.19 1486.69 1142.87 1485.53 Q1140.57 1484.37 1139.11 1481.58 Q1136.84 1477.4 1136.84 1469.4 M1141.04 1468.78 Q1141.04 1476.41 1141.58 1479.45 Q1142.2 1482.74 1143.88 1484.17 Q1145.58 1485.58 1147.46 1485.58 Q1149.49 1485.58 1151.17 1484.07 Q1152.87 1482.54 1153.39 1479.26 Q1153.96 1476.02 1153.93 1468.78 Q1153.93 1461.74 1153.44 1458.92 Q1152.77 1455.64 1150.99 1454.33 Q1149.24 1453 1147.46 1453 Q1146.79 1453 1146.08 1453.19 Q1145.39 1453.39 1144.37 1453.96 Q1143.36 1454.53 1142.57 1455.94 Q1141.8 1457.34 1141.43 1459.47 Q1141.04 1462.21 1141.04 1468.78 Z" fill="#000000" fill-rule="nonzero" fill-opacity="1" /><path clip-path="url(#clip430)" d="M1526.6 1477.23 L1526.6 1475.67 L1542.14 1451.93 Q1542.54 1451.32 1543.16 1451.34 Q1543.72 1451.34 1543.85 1451.56 Q1543.97 1451.79 1543.97 1452.65 L1543.97 1475.67 L1549.04 1475.67 L1549.04 1477.23 L1543.97 1477.23 L1543.97 1481.63 Q1543.97 1483.08 1544.56 1483.55 Q1545.18 1484.02 1547.8 1484.02 L1548.86 1484.02 L1548.86 1485.58 Q1546.79 1485.43 1542 1485.43 Q1537.23 1485.43 1535.15 1485.58 L1535.15 1484.02 L1536.21 1484.02 Q1538.83 1484.02 1539.45 1483.58 Q1540.07 1483.11 1540.07 1481.63 L1540.07 1477.23 L1526.6 1477.23 M1528.04 1475.67 L1540.36 1475.67 L1540.36 1456.8 L1528.04 1475.67 Z" fill="#000000" fill-rule="nonzero" fill-opacity="1" /><path clip-path="url(#clip430)" d="M1552.47 1469.4 Q1552.47 1461.96 1554.35 1457.91 Q1556.97 1451.88 1563.14 1451.88 Q1564.45 1451.88 1565.81 1452.26 Q1567.19 1452.6 1568.92 1453.96 Q1570.68 1455.32 1571.74 1457.54 Q1573.76 1461.84 1573.76 1469.4 Q1573.76 1476.79 1571.89 1480.81 Q1569.14 1486.69 1563.09 1486.69 Q1560.82 1486.69 1558.5 1485.53 Q1556.2 1484.37 1554.74 1481.58 Q1552.47 1477.4 1552.47 1469.4 M1556.67 1468.78 Q1556.67 1476.41 1557.21 1479.45 Q1557.83 1482.74 1559.51 1484.17 Q1561.21 1485.58 1563.09 1485.58 Q1565.12 1485.58 1566.8 1484.07 Q1568.5 1482.54 1569.02 1479.26 Q1569.59 1476.02 1569.56 1468.78 Q1569.56 1461.74 1569.07 1458.92 Q1568.4 1455.64 1566.62 1454.33 Q1564.87 1453 1563.09 1453 Q1562.42 1453 1561.71 1453.19 Q1561.02 1453.39 1560 1453.96 Q1558.99 1454.53 1558.2 1455.94 Q1557.43 1457.34 1557.06 1459.47 Q1556.67 1462.21 1556.67 1468.78 Z" fill="#000000" fill-rule="nonzero" fill-opacity="1" /><path clip-path="url(#clip430)" d="M1942.04 1469.6 Q1942.04 1461.64 1946.09 1456.78 Q1950.14 1451.88 1955.35 1451.88 Q1958.39 1451.88 1960.07 1453.44 Q1961.78 1454.97 1961.78 1457.34 Q1961.78 1458.65 1961.01 1459.22 Q1960.24 1459.79 1959.45 1459.79 Q1958.54 1459.79 1957.82 1459.17 Q1957.11 1458.55 1957.11 1457.44 Q1957.11 1455.17 1959.9 1455.17 Q1958.59 1453.14 1955.45 1453.14 Q1954.49 1453.14 1953.5 1453.44 Q1952.51 1453.71 1951.23 1454.65 Q1949.94 1455.59 1948.95 1457.07 Q1947.97 1458.55 1947.27 1461.35 Q1946.58 1464.14 1946.58 1467.77 L1946.58 1468.98 Q1948.66 1463.96 1952.91 1463.99 Q1957.16 1463.99 1960.1 1467.23 Q1963.04 1470.46 1963.04 1475.25 Q1963.04 1480.17 1959.97 1483.43 Q1956.91 1486.69 1952.61 1486.69 Q1950.68 1486.69 1948.93 1485.88 Q1947.2 1485.09 1945.57 1483.26 Q1943.96 1481.43 1943 1477.92 Q1942.04 1474.41 1942.04 1469.6 M1946.68 1474.14 Q1946.68 1479.11 1947.6 1481.48 Q1947.74 1481.87 1948.06 1482.42 Q1948.41 1482.96 1948.98 1483.68 Q1949.57 1484.37 1950.54 1484.84 Q1951.5 1485.28 1952.61 1485.28 Q1955.99 1485.28 1957.62 1482 Q1958.49 1480.17 1958.49 1475.2 Q1958.49 1470.14 1957.58 1468.29 Q1956.02 1465.15 1952.86 1465.15 Q1950.73 1465.15 1949.25 1466.61 Q1947.79 1468.07 1947.22 1470.02 Q1946.68 1471.97 1946.68 1474.14 Z" fill="#000000" fill-rule="nonzero" fill-opacity="1" /><path clip-path="url(#clip430)" d="M1967.19 1469.4 Q1967.19 1461.96 1969.06 1457.91 Q1971.68 1451.88 1977.86 1451.88 Q1979.17 1451.88 1980.52 1452.26 Q1981.91 1452.6 1983.64 1453.96 Q1985.39 1455.32 1986.45 1457.54 Q1988.48 1461.84 1988.48 1469.4 Q1988.48 1476.79 1986.6 1480.81 Q1983.86 1486.69 1977.81 1486.69 Q1975.53 1486.69 1973.21 1485.53 Q1970.92 1484.37 1969.46 1481.58 Q1967.19 1477.4 1967.19 1469.4 M1971.38 1468.78 Q1971.38 1476.41 1971.93 1479.45 Q1972.55 1482.74 1974.23 1484.17 Q1975.93 1485.58 1977.81 1485.58 Q1979.83 1485.58 1981.51 1484.07 Q1983.22 1482.54 1983.74 1479.26 Q1984.3 1476.02 1984.28 1468.78 Q1984.28 1461.74 1983.79 1458.92 Q1983.12 1455.64 1981.34 1454.33 Q1979.59 1453 1977.81 1453 Q1977.14 1453 1976.42 1453.19 Q1975.73 1453.39 1974.72 1453.96 Q1973.71 1454.53 1972.92 1455.94 Q1972.15 1457.34 1971.78 1459.47 Q1971.38 1462.21 1971.38 1468.78 Z" fill="#000000" fill-rule="nonzero" fill-opacity="1" /><path clip-path="url(#clip430)" d="M1251.54 1528.17 Q1251.54 1529.07 1251.12 1529.3 Q1250.7 1529.49 1249.54 1529.49 L1243.36 1529.49 L1238.47 1548.94 Q1238.08 1550.65 1238.08 1552.1 Q1238.08 1553.71 1238.56 1554.42 Q1239.08 1555.13 1240.14 1555.13 Q1242.23 1555.13 1244.49 1553.23 Q1246.77 1551.33 1248.71 1546.69 Q1248.96 1546.08 1249.09 1545.95 Q1249.25 1545.79 1249.67 1545.79 Q1250.48 1545.79 1250.48 1546.43 Q1250.48 1546.66 1250.03 1547.69 Q1249.61 1548.72 1248.67 1550.23 Q1247.77 1551.75 1246.58 1553.16 Q1245.42 1554.58 1243.65 1555.61 Q1241.88 1556.61 1239.98 1556.61 Q1237.31 1556.61 1235.6 1554.9 Q1233.92 1553.19 1233.92 1550.52 Q1233.92 1549.65 1234.6 1546.88 Q1235.28 1544.08 1238.95 1529.49 L1233.12 1529.49 Q1232.31 1529.49 1231.99 1529.46 Q1231.7 1529.43 1231.48 1529.27 Q1231.28 1529.07 1231.28 1528.69 Q1231.28 1528.07 1231.54 1527.82 Q1231.8 1527.53 1232.12 1527.49 Q1232.48 1527.43 1233.28 1527.43 L1239.46 1527.43 L1242.04 1516.96 Q1242.3 1515.93 1242.94 1515.35 Q1243.62 1514.74 1244.01 1514.68 Q1244.39 1514.58 1244.68 1514.58 Q1245.55 1514.58 1246.07 1515.06 Q1246.58 1515.51 1246.58 1516.35 Q1246.58 1516.8 1243.88 1527.43 L1249.67 1527.43 Q1250.41 1527.43 1250.7 1527.46 Q1251.03 1527.49 1251.28 1527.66 Q1251.54 1527.82 1251.54 1528.17 Z" fill="#000000" fill-rule="nonzero" fill-opacity="1" /><path clip-path="url(#clip430)" d="M1272.29 1572.36 L1272.29 1506.4 L1282.24 1506.4 L1282.24 1507.91 L1276.7 1507.91 L1276.7 1570.84 L1282.24 1570.84 L1282.24 1572.36 L1272.29 1572.36 Z" fill="#000000" fill-rule="nonzero" fill-opacity="1" /><path clip-path="url(#clip430)" d="M1309.18 1532.39 Q1309.18 1534.19 1308.28 1535.16 Q1307.37 1536.09 1306.15 1536.09 Q1305.15 1536.09 1304.6 1535.51 Q1304.09 1534.93 1304.09 1534.16 Q1304.09 1533.03 1304.99 1532.13 Q1305.92 1531.23 1307.28 1531.2 Q1306.83 1530.01 1305.63 1529.3 Q1304.44 1528.56 1303.38 1528.36 Q1302.35 1528.17 1301.32 1528.17 Q1299.29 1528.17 1297.74 1528.81 Q1296.2 1529.46 1295.43 1530.46 Q1294.65 1531.42 1294.3 1532.36 Q1293.94 1533.29 1293.94 1534.1 Q1293.94 1534.81 1294.1 1535.38 Q1294.3 1535.93 1294.75 1536.35 Q1295.2 1536.74 1295.52 1537 Q1295.88 1537.25 1296.65 1537.48 Q1297.42 1537.7 1297.74 1537.8 Q1298.07 1537.86 1298.97 1538.06 Q1300.84 1538.44 1301.67 1538.67 Q1302.51 1538.86 1303.61 1539.41 Q1304.73 1539.96 1305.57 1540.83 Q1307.6 1542.86 1307.6 1545.66 Q1307.6 1546.69 1307.24 1547.95 Q1306.92 1549.2 1305.99 1550.78 Q1305.05 1552.36 1303.64 1553.61 Q1302.22 1554.87 1299.77 1555.74 Q1297.36 1556.61 1294.33 1556.61 Q1290.11 1556.61 1287.5 1554.84 Q1284.89 1553.03 1284.89 1550.2 Q1284.89 1548.14 1286.02 1547.01 Q1287.15 1545.85 1288.6 1545.85 Q1289.69 1545.85 1290.37 1546.46 Q1291.05 1547.04 1291.05 1548.14 Q1291.05 1549.62 1289.85 1550.75 Q1288.66 1551.87 1286.89 1551.65 Q1288.4 1555.13 1294.39 1555.13 Q1296.65 1555.13 1298.39 1554.55 Q1300.16 1553.94 1301.13 1553.1 Q1302.12 1552.23 1302.77 1551.17 Q1303.41 1550.1 1303.61 1549.3 Q1303.83 1548.49 1303.83 1547.88 Q1303.83 1546.82 1303.41 1546.01 Q1302.99 1545.21 1302.41 1544.76 Q1301.87 1544.27 1300.8 1543.89 Q1299.77 1543.47 1299.03 1543.31 Q1298.29 1543.15 1296.97 1542.89 Q1296.36 1542.76 1295.97 1542.7 Q1295.59 1542.6 1294.78 1542.34 Q1294.01 1542.05 1293.46 1541.76 Q1292.95 1541.47 1292.27 1540.96 Q1291.59 1540.44 1291.17 1539.83 Q1290.76 1539.22 1290.47 1538.32 Q1290.18 1537.41 1290.18 1536.35 Q1290.18 1535.38 1290.47 1534.23 Q1290.79 1533.07 1291.59 1531.71 Q1292.43 1530.36 1293.62 1529.27 Q1294.81 1528.17 1296.81 1527.46 Q1298.84 1526.72 1301.32 1526.72 Q1304.93 1526.72 1307.05 1528.4 Q1309.18 1530.04 1309.18 1532.39 Z" fill="#000000" fill-rule="nonzero" fill-opacity="1" /><path clip-path="url(#clip430)" d="M1313.93 1570.84 L1319.47 1570.84 L1319.47 1507.91 L1313.93 1507.91 L1313.93 1506.4 L1323.88 1506.4 L1323.88 1572.36 L1313.93 1572.36 L1313.93 1570.84 Z" fill="#000000" fill-rule="nonzero" fill-opacity="1" /><polyline clip-path="url(#clip432)" style="stroke:#000000; stroke-linecap:round; stroke-linejoin:round; stroke-width:2; stroke-opacity:0.1; fill:none" points="210.61,1329.52 2352.76,1329.52 "/>
<polyline clip-path="url(#clip432)" style="stroke:#000000; stroke-linecap:round; stroke-linejoin:round; stroke-width:2; stroke-opacity:0.1; fill:none" points="210.61,1034.19 2352.76,1034.19 "/>
<polyline clip-path="url(#clip432)" style="stroke:#000000; stroke-linecap:round; stroke-linejoin:round; stroke-width:2; stroke-opacity:0.1; fill:none" points="210.61,738.857 2352.76,738.857 "/>
<polyline clip-path="url(#clip432)" style="stroke:#000000; stroke-linecap:round; stroke-linejoin:round; stroke-width:2; stroke-opacity:0.1; fill:none" points="210.61,443.527 2352.76,443.527 "/>
<polyline clip-path="url(#clip432)" style="stroke:#000000; stroke-linecap:round; stroke-linejoin:round; stroke-width:2; stroke-opacity:0.1; fill:none" points="210.61,148.196 2352.76,148.196 "/>
<polyline clip-path="url(#clip430)" style="stroke:#000000; stroke-linecap:round; stroke-linejoin:round; stroke-width:4; stroke-opacity:1; fill:none" points="210.61,1423.18 210.61,47.2441 "/>
<polyline clip-path="url(#clip430)" style="stroke:#000000; stroke-linecap:round; stroke-linejoin:round; stroke-width:4; stroke-opacity:1; fill:none" points="210.61,1329.52 229.508,1329.52 "/>
<polyline clip-path="url(#clip430)" style="stroke:#000000; stroke-linecap:round; stroke-linejoin:round; stroke-width:4; stroke-opacity:1; fill:none" points="210.61,1034.19 229.508,1034.19 "/>
<polyline clip-path="url(#clip430)" style="stroke:#000000; stroke-linecap:round; stroke-linejoin:round; stroke-width:4; stroke-opacity:1; fill:none" points="210.61,738.857 229.508,738.857 "/>
<polyline clip-path="url(#clip430)" style="stroke:#000000; stroke-linecap:round; stroke-linejoin:round; stroke-width:4; stroke-opacity:1; fill:none" points="210.61,443.527 229.508,443.527 "/>
<polyline clip-path="url(#clip430)" style="stroke:#000000; stroke-linecap:round; stroke-linejoin:round; stroke-width:4; stroke-opacity:1; fill:none" points="210.61,148.196 229.508,148.196 "/>
<path clip-path="url(#clip430)" d="M147.659 1333.43 Q147.956 1333.73 147.956 1334.15 Q147.956 1334.57 147.659 1334.87 Q147.363 1335.16 146.943 1335.16 L115.273 1335.16 Q114.853 1335.16 114.557 1334.87 Q114.26 1334.57 114.26 1334.15 Q114.26 1333.73 114.557 1333.43 Q114.853 1333.14 115.273 1333.14 L146.943 1333.14 Q147.363 1333.14 147.659 1333.43 Z" fill="#000000" fill-rule="nonzero" fill-opacity="1" /><path clip-path="url(#clip430)" d="M152.18 1338.45 L152.18 1336.89 L167.718 1313.15 Q168.113 1312.53 168.731 1312.56 Q169.299 1312.56 169.423 1312.78 Q169.546 1313 169.546 1313.87 L169.546 1336.89 L174.61 1336.89 L174.61 1338.45 L169.546 1338.45 L169.546 1342.85 Q169.546 1344.3 170.139 1344.77 Q170.757 1345.24 173.375 1345.24 L174.438 1345.24 L174.438 1346.8 Q172.362 1346.65 167.57 1346.65 Q162.802 1346.65 160.727 1346.8 L160.727 1345.24 L161.789 1345.24 Q164.408 1345.24 165.026 1344.8 Q165.643 1344.33 165.643 1342.85 L165.643 1338.45 L152.18 1338.45 M153.613 1336.89 L165.94 1336.89 L165.94 1318.02 L153.613 1336.89 Z" fill="#000000" fill-rule="nonzero" fill-opacity="1" /><path clip-path="url(#clip430)" d="M148.771 1038.1 Q149.067 1038.4 149.067 1038.82 Q149.067 1039.24 148.771 1039.54 Q148.474 1039.83 148.054 1039.83 L116.385 1039.83 Q115.965 1039.83 115.668 1039.54 Q115.372 1039.24 115.372 1038.82 Q115.372 1038.4 115.668 1038.1 Q115.965 1037.81 116.385 1037.81 L148.054 1037.81 Q148.474 1037.81 148.771 1038.1 Z" fill="#000000" fill-rule="nonzero" fill-opacity="1" /><path clip-path="url(#clip430)" d="M154.403 1051.47 Q154.403 1050.55 154.477 1050.28 Q154.576 1050.01 154.971 1049.59 L164.68 1038.77 Q169.991 1032.79 169.991 1027.58 Q169.991 1024.2 168.212 1021.77 Q166.458 1019.35 163.222 1019.35 Q160.999 1019.35 159.121 1020.71 Q157.244 1022.07 156.379 1024.49 Q156.528 1024.44 157.046 1024.44 Q158.306 1024.44 158.998 1025.23 Q159.714 1026.02 159.714 1027.09 Q159.714 1028.44 158.825 1029.11 Q157.96 1029.75 157.096 1029.75 Q156.75 1029.75 156.281 1029.68 Q155.836 1029.61 155.12 1028.91 Q154.403 1028.2 154.403 1026.94 Q154.403 1023.4 157.071 1020.59 Q159.764 1017.77 163.865 1017.77 Q168.509 1017.77 171.547 1020.54 Q174.61 1023.28 174.61 1027.58 Q174.61 1029.09 174.141 1030.47 Q173.696 1031.83 173.079 1032.89 Q172.486 1033.95 170.856 1035.66 Q169.225 1037.36 167.916 1038.57 Q166.607 1039.78 163.667 1042.35 L158.306 1047.56 L167.422 1047.56 Q171.868 1047.56 172.214 1047.17 Q172.708 1046.45 173.326 1042.67 L174.61 1042.67 L173.178 1051.47 L154.403 1051.47 Z" fill="#000000" fill-rule="nonzero" fill-opacity="1" /><path clip-path="url(#clip430)" d="M153.316 739.957 Q153.316 732.521 155.194 728.47 Q157.812 722.442 163.988 722.442 Q165.297 722.442 166.656 722.812 Q168.039 723.158 169.769 724.517 Q171.523 725.876 172.585 728.099 Q174.61 732.397 174.61 739.957 Q174.61 747.343 172.733 751.37 Q169.991 757.249 163.939 757.249 Q161.666 757.249 159.344 756.088 Q157.046 754.927 155.589 752.135 Q153.316 747.96 153.316 739.957 M157.516 739.339 Q157.516 746.972 158.059 750.011 Q158.677 753.296 160.357 754.729 Q162.061 756.137 163.939 756.137 Q165.964 756.137 167.644 754.63 Q169.349 753.099 169.867 749.813 Q170.436 746.577 170.411 739.339 Q170.411 732.299 169.917 729.482 Q169.25 726.197 167.471 724.888 Q165.717 723.554 163.939 723.554 Q163.272 723.554 162.555 723.751 Q161.864 723.949 160.851 724.517 Q159.838 725.085 159.047 726.493 Q158.282 727.901 157.911 730.026 Q157.516 732.768 157.516 739.339 Z" fill="#000000" fill-rule="nonzero" fill-opacity="1" /><path clip-path="url(#clip430)" d="M154.403 460.807 Q154.403 459.893 154.477 459.621 Q154.576 459.349 154.971 458.929 L164.68 448.109 Q169.991 442.131 169.991 436.919 Q169.991 433.534 168.212 431.113 Q166.458 428.692 163.222 428.692 Q160.999 428.692 159.121 430.051 Q157.244 431.41 156.379 433.831 Q156.528 433.781 157.046 433.781 Q158.306 433.781 158.998 434.572 Q159.714 435.362 159.714 436.425 Q159.714 437.783 158.825 438.45 Q157.96 439.093 157.096 439.093 Q156.75 439.093 156.281 439.018 Q155.836 438.944 155.12 438.253 Q154.403 437.536 154.403 436.276 Q154.403 432.744 157.071 429.928 Q159.764 427.111 163.865 427.111 Q168.509 427.111 171.547 429.878 Q174.61 432.62 174.61 436.919 Q174.61 438.426 174.141 439.809 Q173.696 441.168 173.079 442.23 Q172.486 443.292 170.856 444.997 Q169.225 446.701 167.916 447.912 Q166.607 449.122 163.667 451.691 L158.306 456.904 L167.422 456.904 Q171.868 456.904 172.214 456.508 Q172.708 455.792 173.326 452.012 L174.61 452.012 L173.178 460.807 L154.403 460.807 Z" fill="#000000" fill-rule="nonzero" fill-opacity="1" /><path clip-path="url(#clip430)" d="M152.18 157.127 L152.18 155.57 L167.718 131.83 Q168.113 131.213 168.731 131.237 Q169.299 131.237 169.423 131.46 Q169.546 131.682 169.546 132.547 L169.546 155.57 L174.61 155.57 L174.61 157.127 L169.546 157.127 L169.546 161.524 Q169.546 162.981 170.139 163.451 Q170.757 163.92 173.375 163.92 L174.438 163.92 L174.438 165.476 Q172.362 165.328 167.57 165.328 Q162.802 165.328 160.727 165.476 L160.727 163.92 L161.789 163.92 Q164.408 163.92 165.026 163.475 Q165.643 163.006 165.643 161.524 L165.643 157.127 L152.18 157.127 M153.613 155.57 L165.94 155.57 L165.94 136.697 L153.613 155.57 Z" fill="#000000" fill-rule="nonzero" fill-opacity="1" /><path clip-path="url(#clip430)" d="M82.5735 778.475 L16.6159 778.475 L16.6159 768.523 L18.1296 768.523 L18.1296 774.063 L81.0598 774.063 L81.0598 768.523 L82.5735 768.523 L82.5735 778.475 Z" fill="#000000" fill-rule="nonzero" fill-opacity="1" /><path clip-path="url(#clip430)" d="M56.6478 713.147 Q56.9054 713.147 57.9038 713.437 Q58.9022 713.727 60.4481 714.436 Q61.994 715.112 63.411 716.078 Q64.7959 717.012 65.8264 718.558 Q66.8248 720.072 66.8248 721.811 Q66.8248 724.129 65.2789 725.675 Q63.7331 727.221 61.4142 727.221 Q60.1582 727.221 57.775 726.352 Q46.8894 722.262 42.9925 722.262 Q38.3871 722.262 38.3871 725.836 Q38.3871 727.865 39.2244 729.701 Q40.0618 731.537 41.2212 732.728 Q42.3806 733.92 43.701 734.854 Q45.0215 735.788 45.891 736.207 Q46.7606 736.593 47.147 736.69 L63.0567 740.651 Q64.4094 740.973 65.0535 741.199 Q65.6976 741.424 66.2451 742.036 Q66.8248 742.648 66.8248 743.614 Q66.8248 744.419 66.3417 744.999 Q65.8587 745.546 65.0213 745.546 Q64.8925 745.546 64.2162 745.385 Q63.5398 745.224 62.6059 744.999 Q61.6719 744.773 61.1244 744.677 Q56.7444 743.517 56.1325 743.356 L48.4675 741.521 Q44.6672 740.522 42.9925 740.522 Q38.3871 740.522 38.3871 744.097 Q38.3871 745.868 39.0634 747.543 Q39.7075 749.186 40.6093 750.313 Q41.511 751.44 42.7671 752.471 Q43.9909 753.469 44.8282 753.984 Q45.6334 754.467 46.4385 754.854 L49.7235 755.691 Q50.6253 755.884 54.1357 756.818 L60.0938 758.268 Q64.5382 759.298 64.9569 759.524 Q65.8587 759.846 66.3417 760.554 Q66.8248 761.263 66.8248 761.971 Q66.8248 762.777 66.3417 763.324 Q65.8587 763.872 65.0213 763.872 Q64.8925 763.872 64.4094 763.775 Q63.9263 763.678 63.25 763.517 Q62.5737 763.356 62.1872 763.292 L46.9538 759.459 Q44.1841 758.751 43.3146 758.59 Q42.4128 758.397 41.4144 758.397 Q38.3871 758.397 38.3871 760.458 Q38.3871 762.132 40.3838 763.227 Q42.3806 764.322 46.2453 765.256 Q47.3081 765.546 47.5335 765.739 Q47.759 765.9 47.759 766.384 Q47.7268 767.189 47.0826 767.189 Q46.9216 767.189 45.891 766.931 Q44.8604 766.673 43.3146 766.19 Q41.7365 765.675 40.7059 765.128 Q40.0296 764.805 39.5787 764.516 Q39.1278 764.226 38.4193 763.646 Q37.7107 763.066 37.3243 762.197 Q36.9378 761.327 36.9378 760.264 Q36.9378 757.913 38.4515 756.174 Q39.9651 754.403 42.6704 754.178 Q36.9378 749.894 36.9378 743.904 Q36.9378 740.522 38.6447 738.493 Q40.2872 736.593 43.3146 736.368 Q36.9378 731.923 36.9378 725.611 Q36.9378 721.972 38.8379 720.007 Q40.7059 718.043 43.9909 718.043 Q45.6978 718.043 48.9506 718.912 Q52.1712 719.782 53.7815 720.361 Q55.3917 720.941 58.4835 722.068 Q61.4465 723.26 63.1856 723.26 Q64.3128 723.26 64.8281 722.873 Q65.3434 722.487 65.3434 721.65 Q65.3434 720.361 64.6026 719.234 Q63.8297 718.107 62.5737 717.302 Q61.2854 716.464 59.9972 715.917 Q58.6767 715.369 57.1953 714.951 Q56.3901 714.693 56.1969 714.564 Q56.0037 714.403 56.0037 713.952 Q56.0037 713.147 56.6478 713.147 Z" fill="#000000" fill-rule="nonzero" fill-opacity="1" /><path clip-path="url(#clip430)" d="M81.0598 710.099 L81.0598 704.56 L18.1296 704.56 L18.1296 710.099 L16.6159 710.099 L16.6159 700.148 L82.5735 700.148 L82.5735 710.099 L81.0598 710.099 Z" fill="#000000" fill-rule="nonzero" fill-opacity="1" /><polyline clip-path="url(#clip432)" style="stroke:#ba3d3a; stroke-linecap:round; stroke-linejoin:round; stroke-width:8; stroke-opacity:1; fill:none" points="271.237,768.963 273.831,705.082 276.426,640.29 279.02,576.206 281.614,514.54 284.208,456.138 286.803,401.798 289.397,351.81 291.991,306.808 294.585,267.502 297.179,234.919 299.774,209.925 302.368,193.335 304.962,185.314 307.556,185.607 310.15,193.096 312.745,206.75 315.339,225.414 317.933,248.621 320.527,275.958 323.121,307.74 325.716,343.894 328.31,384.626 330.904,429.498 333.498,477.894 336.093,528.432 338.687,579.858 341.281,630.672 343.875,679.742 346.469,726 349.064,769.1 351.658,808.54 354.252,844.182 356.846,875.718 359.44,903.229 362.035,926.436 364.629,945.374 367.223,959.851 369.817,970.078 372.412,976.001 375.006,977.997 377.6,976.082 380.194,970.578 382.788,961.554 385.383,949.508 387.977,934.738 390.571,918.027 393.165,899.873 395.759,881.194 398.354,862.316 400.948,843.965 403.542,826.432 406.136,810.339 408.731,795.985 411.325,783.948 413.919,774.568 416.513,768.312 419.107,765.125 421.702,765.157 424.296,768.213 426.89,774.432 429.484,783.647 432.078,795.827 434.673,810.727 437.267,828.105 439.861,847.311 442.455,867.67 445.049,888.559 447.644,909.486 450.238,929.916 452.832,949.68 455.426,968.23 458.021,985.596 460.615,1001.12 463.209,1014.35 465.803,1024.7 468.397,1031.67 470.992,1034.87 473.586,1034.06 476.18,1029.07 478.774,1019.94 481.368,1006.65 483.963,989.365 486.557,968.07 489.151,942.91 491.745,914.032 494.34,881.652 496.934,845.958 499.528,807.349 502.122,766.155 504.716,722.976 507.311,678.249 509.905,632.714 512.499,586.798 515.093,541.129 517.687,496.036 520.282,452.013 522.876,409.347 525.47,368.574 528.064,330.032 530.659,294.346 533.253,261.869 535.847,233.245 538.441,208.757 541.035,188.985 543.63,174.11 546.224,164.46 548.818,160.054 551.412,161.085 554.006,167.391 556.601,179.07 559.195,195.934 561.789,218.102 564.383,245.243 566.978,277.42 569.572,314.043 572.166,354.736 574.76,398.852 577.354,445.972 579.949,495.548 582.543,547.266 585.137,600.798 587.731,655.319 590.325,710.013 592.92,765.076 595.514,820.061 598.108,874.424 600.702,927.721 603.296,979.574 605.891,1029.59 608.485,1077.94 611.079,1123.67 613.673,1166.8 616.268,1206.87 618.862,1243.92 621.456,1277.47 624.05,1306.99 626.644,1332.02 629.239,1352.43 631.833,1367.91 634.427,1378.51 637.021,1383.96 639.615,1384.24 642.21,1378.96 644.804,1367.8 647.398,1350.44 649.992,1326.86 652.587,1297.17 655.181,1262.05 657.775,1221.89 660.369,1177.21 662.963,1128.29 665.558,1075.7 668.152,1019.85 670.746,961.363 673.34,900.73 675.934,838.722 678.529,775.883 681.123,713.039 683.717,650.815 686.311,590.01 688.906,531.206 691.5,475.079 694.094,422.01 696.688,372.3 699.282,326.042 701.877,283.61 704.471,245.257 707.065,211.675 709.659,183.338 712.253,161.123 714.848,145.239 717.442,135.957 720.036,133.127 722.63,136.74 725.224,146.431 727.819,162.014 730.413,183.091 733.007,209.665 735.601,241.263 738.196,277.603 740.79,318.178 743.384,362.616 745.978,410.194 748.572,460.624 751.167,513.091 753.761,567.28 756.355,622.242 758.949,677.245 761.543,731.437 764.138,784.213 766.732,835.068 769.326,883.75 771.92,929.764 774.515,973.154 777.109,1013.42 779.703,1050.52 782.297,1084 784.891,1113.68 787.486,1139.16 790.08,1160.23 792.674,1176.78 795.268,1188.85 797.862,1196.3 800.457,1199.29 803.051,1197.62 805.645,1191.61 808.239,1181.09 810.834,1166.36 813.428,1147.39 816.022,1124.66 818.616,1098.47 821.21,1069.47 823.805,1037.95 826.399,1004.54 828.993,969.403 831.587,933.063 834.181,895.594 836.776,857.301 839.37,818.26 841.964,778.854 844.558,739.142 847.153,699.622 849.747,660.382 852.341,622.047 854.935,584.721 857.529,549.014 860.124,515.154 862.718,483.551 865.312,454.268 867.906,427.604 870.5,403.468 873.095,382.249 875.689,363.852 878.283,348.842 880.877,337.245 883.471,329.384 886.066,325.314 888.66,325.056 891.254,328.461 893.848,335.239 896.443,345.122 899.037,358.353 901.631,374.551 904.225,394.092 906.819,416.661 909.414,442.328 912.008,470.781 914.602,501.865 917.196,535.082 919.79,570.369 922.385,607.272 924.979,645.686 927.573,685.075 930.167,725.133 932.762,765.074 935.356,804.582 937.95,842.938 940.544,880.037 943.138,915.426 945.733,949.224 948.327,981.057 950.921,1010.98 953.515,1038.61 956.109,1064.07 958.704,1087.09 961.298,1107.98 963.892,1126.46 966.486,1142.67 969.081,1156.25 971.675,1167.17 974.269,1175.02 976.863,1179.98 979.457,1181.92 982.052,1181.09 984.646,1177.22 987.24,1170.45 989.834,1160.44 992.428,1147.36 995.023,1131.06 997.617,1112.06 1000.21,1090.38 1002.81,1066.57 1005.4,1040.58 1007.99,1012.73 1010.59,982.615 1013.18,950.278 1015.78,915.43 1018.37,878.317 1020.96,838.908 1023.56,798.051 1026.15,756.224 1028.75,714.351 1031.34,672.249 1033.94,630.688 1036.53,589.415 1039.12,549.032 1041.72,509.342 1044.31,471.08 1046.91,434.144 1049.5,399.058 1052.1,366.297 1054.69,335.588 1057.28,307.001 1059.88,280.748 1062.47,257.433 1065.07,236.869 1067.66,219.428 1070.25,205.294 1072.85,194.484 1075.44,187.298 1078.04,183.501 1080.63,183.461 1083.23,187.088 1085.82,194.841 1088.41,206.952 1091.01,223.903 1093.6,245.808 1096.2,272.896 1098.79,304.804 1101.39,341.372 1103.98,381.842 1106.57,425.892 1109.17,472.643 1111.76,521.422 1114.36,571.813 1116.95,623.7 1119.54,676.898 1122.14,731.298 1124.73,786.517 1127.33,842.218 1129.92,897.498 1132.52,951.727 1135.11,1003.93 1137.7,1053.7 1140.3,1100.51 1142.89,1144.11 1145.49,1184.15 1148.08,1220.44 1150.68,1252.77 1153.27,1280.87 1155.86,1304.28 1158.46,1322.95 1161.05,1336.3 1163.65,1344.4 1166.24,1346.96 1168.83,1343.89 1171.43,1335.42 1174.02,1321.66 1176.62,1303.33 1179.21,1280.38 1181.81,1253.4 1184.4,1222.99 1186.99,1189.39 1189.59,1152.55 1192.18,1112.8 1194.78,1071.13 1197.37,1027.47 1199.97,982.947 1202.56,937.928 1205.15,893.72 1207.75,850.277 1210.34,808.485 1212.94,768.275 1215.53,729.986 1218.12,693.317 1220.72,658.687 1223.31,625.81 1225.91,595.009 1228.5,565.92 1231.1,539.078 1233.69,514.225 1236.28,491.939 1238.88,472 1241.47,454.852 1244.07,440.137 1246.66,427.93 1249.26,417.688 1251.85,409.432 1254.44,402.621 1257.04,397.433 1259.63,393.484 1262.23,391.187 1264.82,390.142 1267.42,390.527 1270.01,391.779 1272.6,393.917 1275.2,396.488 1277.79,399.629 1280.39,403.018 1282.98,406.975 1285.57,411.379 1288.17,416.734 1290.76,422.743 1293.36,429.681 1295.95,437.233 1298.55,445.671 1301.14,454.659 1303.73,464.558 1306.33,475.244 1308.92,487.103 1311.52,499.987 1314.11,514.435 1316.71,530.391 1319.3,548.314 1321.89,568.272 1324.49,590.659 1327.08,615.139 1329.68,641.733 1332.27,669.931 1334.86,699.71 1337.46,730.56 1340.05,762.669 1342.65,796.037 1345.24,830.716 1347.84,866.442 1350.43,903.119 1353.02,940.048 1355.62,976.98 1358.21,1013.07 1360.81,1048.2 1363.4,1081.65 1366,1113.22 1368.59,1142.07 1371.18,1167.89 1373.78,1189.87 1376.37,1207.9 1378.97,1221.57 1381.56,1231.11 1384.15,1236.23 1386.75,1237.21 1389.34,1233.72 1391.94,1226.07 1394.53,1213.96 1397.13,1197.87 1399.72,1177.75 1402.31,1154.19 1404.91,1127.13 1407.5,1096.95 1410.1,1063.38 1412.69,1026.89 1415.29,987.5 1417.88,946.064 1420.47,903.006 1423.07,859.418 1425.66,815.771 1428.26,773.052 1430.85,731.573 1433.44,692.168 1436.04,654.846 1438.63,620.25 1441.23,588.188 1443.82,559.073 1446.42,532.565 1449.01,508.944 1451.6,487.99 1454.2,470.093 1456.79,455.08 1459.39,443.112 1461.98,433.646 1464.58,426.674 1467.17,421.571 1469.76,418.613 1472.36,417.324 1474.95,417.767 1477.55,419.61 1480.14,423.124 1482.73,427.922 1485.33,434.481 1487.92,442.229 1490.52,451.135 1493.11,460.636 1495.71,470.594 1498.3,480.489 1500.89,490.659 1503.49,500.726 1506.08,511.076 1508.68,521.413 1511.27,532.181 1513.87,543.148 1516.46,554.788 1519.05,566.863 1521.65,579.665 1524.24,592.638 1526.84,606.035 1529.43,619.346 1532.02,632.949 1534.62,646.599 1537.21,660.783 1539.81,675.348 1542.4,690.689 1545,706.53 1547.59,723.225 1550.18,740.341 1552.78,758.145 1555.37,776.044 1557.97,794.315 1560.56,812.445 1563.16,830.743 1565.75,848.793 1568.34,867.004 1570.94,885.001 1573.53,903.113 1576.13,920.963 1578.72,938.787 1581.31,956.113 1583.91,973.225 1586.5,989.561 1589.1,1005.37 1591.69,1020.01 1594.29,1033.73 1596.88,1045.89 1599.47,1056.6 1602.07,1065.6 1604.66,1073.02 1607.26,1078.47 1609.85,1082.19 1612.45,1083.83 1615.04,1083.56 1617.63,1080.8 1620.23,1075.78 1622.82,1068.31 1625.42,1058.43 1628.01,1045.92 1630.6,1030.97 1633.2,1013.4 1635.79,993.538 1638.39,971.137 1640.98,946.732 1643.58,920.039 1646.17,891.865 1648.76,861.778 1651.36,830.41 1653.95,797.37 1656.55,763.412 1659.14,728.408 1661.74,692.966 1664.33,656.982 1666.92,621.16 1669.52,585.276 1672.11,549.962 1674.71,515.13 1677.3,481.65 1679.89,449.513 1682.49,419.446 1685.08,391.4 1687.68,366.04 1690.27,343.207 1692.87,323.621 1695.46,307.18 1698.05,294.651 1700.65,285.783 1703.24,281.041 1705.84,279.891 1708.43,282.569 1711.03,288.484 1713.62,297.961 1716.21,310.553 1718.81,326.773 1721.4,346.105 1724,368.911 1726.59,394.446 1729.18,422.716 1731.78,452.793 1734.37,484.64 1736.97,517.518 1739.56,551.669 1742.16,586.491 1744.75,622.476 1747.34,659.013 1749.94,696.583 1752.53,734.499 1755.13,773.045 1757.72,811.548 1760.32,850.21 1762.91,888.424 1765.5,926.386 1768.1,963.341 1770.69,999.232 1773.29,1032.96 1775.88,1064.51 1778.47,1092.77 1781.07,1117.95 1783.66,1139.34 1786.26,1157.39 1788.85,1171.61 1791.45,1182.39 1794.04,1189.27 1796.63,1192.61 1799.23,1191.88 1801.82,1187.59 1804.42,1179.29 1807.01,1167.61 1809.61,1152.13 1812.2,1133.4 1814.79,1110.94 1817.39,1085.38 1819.98,1056.29 1822.58,1024.57 1825.17,990.044 1827.77,953.614 1830.36,915.069 1832.95,875.307 1835.55,834.244 1838.14,792.803 1840.74,750.862 1843.33,709.604 1845.92,669.035 1848.52,630.366 1851.11,593.632 1853.71,559.998 1856.3,529.53 1858.9,503.321 1861.49,481.379 1864.08,464.717 1866.68,452.988 1869.27,446.84 1871.87,445.459 1874.46,449.049 1877.06,456.464 1879.65,467.692 1882.24,481.771 1884.84,499.037 1887.43,518.534 1890.03,540.501 1892.62,563.757 1895.21,588.529 1897.81,613.74 1900.4,639.61 1903,665.114 1905.59,689.889 1908.19,713.155 1910.78,735.528 1913.37,755.54 1915.97,773.325 1918.56,788.111 1921.16,800.053 1923.75,808.45 1926.35,813.846 1928.94,815.048 1931.53,813.153 1934.13,807.555 1936.72,799.128 1939.32,787.447 1941.91,773.377 1944.5,756.519 1947.1,737.747 1949.69,716.687 1952.29,694.445 1954.88,670.842 1957.48,647.212 1960.07,623.572 1962.66,601.392 1965.26,580.558 1967.85,562.247 1970.45,545.969 1973.04,532.791 1975.64,522.22 1978.23,515.214 1980.82,511.059 1983.42,510.59 1986.01,512.971 1988.61,518.857 1991.2,527.329 1993.79,539.055 1996.39,553.036 1998.98,569.885 2001.58,588.645 2004.17,609.917 2006.77,632.647 2009.36,657.384 2011.95,683.046 2014.55,710.128 2017.14,737.317 2019.74,765.078 2022.33,792.088 2024.93,818.836 2027.52,844.129 2030.11,868.625 2032.71,891.49 2035.3,913.583 2037.9,934.09 2040.49,953.839 2043.08,971.74 2045.68,988.526 2048.27,1003.09 2050.87,1016.29 2053.46,1027.05 2056.06,1036.31 2058.65,1043.12 2061.24,1048.58 2063.84,1051.73 2066.43,1053.6 2069.03,1053.29 2071.62,1051.74 2074.22,1048.1 2076.81,1043.31 2079.4,1036.39 2082,1028.25 2084.59,1017.98 2087.19,1006.72 2089.78,993.431 2092.37,979.334 2094.97,963.467 2097.56,946.933 2100.16,928.653 2102.75,909.601 2105.35,888.64 2107.94,866.698 2110.53,842.733 2113.13,818.102 2115.72,791.905 2118.32,765.659 2120.91,738.391 2123.51,711.529 2126.1,683.872 2128.69,656.713 2131.29,628.83 2133.88,601.661 2136.48,574.282 2139.07,548.388 2141.66,523.105 2144.26,500.052 2146.85,478.06 2149.45,458.622 2152.04,440.42 2154.64,425.036 2157.23,411.16 2159.82,400.327 2162.42,391.17 2165.01,385.127 2167.61,380.696 2170.2,379.26 2172.8,379.234 2175.39,382.149 2177.98,386.358 2180.58,393.458 2183.17,401.788 2185.77,412.909 2188.36,425.105 2190.95,440.141 2193.55,456.437 2196.14,476.006 2198.74,497.176 2201.33,521.889 2203.93,548.079 2206.52,577.263 2209.11,607.233 2211.71,639.471 2214.3,671.877 2216.9,706.153 2219.49,740.285 2222.09,776.194 2224.68,811.303 2227.27,847.4 2229.87,881.724 2232.46,915.841 2235.06,946.81 2237.65,976.398 2240.24,1001.83 2242.84,1025.26 2245.43,1043.9 2248.03,1060.29 2250.62,1071.92 2253.22,1081.51 2255.81,1086.3 2258.4,1088.9 2261,1086.24 2263.59,1081.08 2266.19,1070.18 2268.78,1056.61 2271.38,1037.23 2273.97,1015.31 2276.56,987.567 2279.16,957.586 2281.75,922.195 2284.35,885.731 2286.94,845.341 2289.53,806.085 2292.13,764.838 "/>
<polyline clip-path="url(#clip432)" style="stroke:#4a7945; stroke-linecap:round; stroke-linejoin:round; stroke-width:8; stroke-opacity:1; fill:none" points="271.237,310.768 273.831,260.45 276.426,251.83 279.02,231.619 281.614,225.633 284.208,212.964 286.803,208.089 289.397,198.85 291.991,194.528 294.585,187.986 297.179,185.166 299.774,182.051 302.368,181.943 304.962,182.785 307.556,185.541 310.15,189.279 312.745,193.223 315.339,197.742 317.933,201.299 320.527,205.572 323.121,208.722 325.716,213.495 328.31,217.574 330.904,224.363 333.498,231.032 336.093,240.985 338.687,250.709 341.281,263.512 343.875,275.631 346.469,290.153 349.064,303.404 351.658,318.626 354.252,332.498 356.846,348.047 359.44,362.301 362.035,378.127 364.629,392.923 367.223,409.113 369.817,424.439 372.412,440.921 375.006,456.699 377.6,473.438 380.194,489.828 382.788,507.065 385.383,524.217 387.977,541.956 390.571,559.653 393.165,577.501 395.759,595.172 398.354,612.627 400.948,629.977 403.542,646.817 406.136,663.43 408.731,678.945 411.325,692.975 413.919,703.08 416.513,705.657 419.107,700.207 421.702,688.714 424.296,675.636 426.89,660.581 429.484,645.848 432.078,630.039 434.673,614.904 437.267,599.135 439.861,584.391 442.455,569.528 445.049,555.656 447.644,541.752 450.238,528.605 452.832,515.274 455.426,502.42 458.021,489.197 460.615,476.175 463.209,463.164 465.803,450.324 468.397,437.859 470.992,425.571 473.586,413.855 476.18,402.213 478.774,391.182 481.368,380.016 483.963,369.422 486.557,358.491 489.151,348.197 491.745,337.506 494.34,327.465 496.934,317.054 499.528,307.401 502.122,297.456 504.716,288.359 507.311,279.021 509.905,270.552 512.499,261.765 515.093,253.703 517.687,245.22 520.282,237.282 522.876,228.92 525.47,221.051 528.064,212.882 530.659,205.241 533.253,197.472 535.847,190.275 538.441,183.116 541.035,176.545 543.63,170.184 546.224,164.297 548.818,158.68 551.412,153.421 554.006,148.441 556.601,143.664 559.195,139.223 561.789,134.994 564.383,131.262 566.978,127.815 569.572,125.145 572.166,122.611 574.76,120.779 577.354,118.851 579.949,117.5 582.543,115.878 585.137,114.981 587.731,114.172 590.325,113.672 592.92,112.577 595.514,112.001 598.108,111.147 600.702,110.668 603.296,109.892 605.891,109.211 608.485,108.025 611.079,107.319 613.673,106.076 616.268,105.044 618.862,103.398 621.456,101.963 624.05,100.424 626.644,99.1992 629.239,97.8249 631.833,96.6045 634.427,95.1265 637.021,93.6147 639.615,91.8671 642.21,90.0763 644.804,88.4693 647.398,87.158 649.992,86.4342 652.587,86.1857 655.181,86.4553 657.775,86.7937 660.369,87.4532 662.963,88.0554 665.558,89.0338 668.152,89.9271 670.746,91.2273 673.34,92.4645 675.934,94.1765 678.529,95.8143 681.123,97.9784 683.717,100.064 686.311,102.634 688.906,105.063 691.5,107.821 694.094,110.227 696.688,112.592 699.282,114.412 701.877,116.159 704.471,117.541 707.065,119.156 709.659,120.832 712.253,123.174 714.848,125.813 717.442,128.969 720.036,132.334 722.63,136.004 725.224,139.76 727.819,143.576 730.413,147.362 733.007,151.23 735.601,155.258 738.196,159.31 740.79,163.569 743.384,167.901 745.978,172.412 748.572,176.963 751.167,181.806 753.761,186.709 756.355,192.195 758.949,197.745 761.543,203.723 764.138,209.552 766.732,215.451 769.326,221.042 771.92,226.579 774.515,231.625 777.109,236.679 779.703,241.281 782.297,245.969 784.891,250.364 787.486,254.922 790.08,259.334 792.674,263.765 795.268,267.973 797.862,272.162 800.457,276.112 803.051,280.093 805.645,283.855 808.239,287.64 810.834,291.38 813.428,295.218 816.022,299.139 818.616,303.073 821.21,306.953 823.805,310.636 826.399,314.115 828.993,317.216 831.587,320.029 834.181,322.302 836.776,324.279 839.37,325.793 841.964,327.078 844.558,327.978 847.153,328.774 849.747,329.266 852.341,329.804 854.935,330.055 857.529,330.464 860.124,330.649 862.718,330.875 865.312,330.797 867.906,330.635 870.5,330.071 873.095,329.449 875.689,328.455 878.283,327.602 880.877,326.615 883.471,325.789 886.066,325.029 888.66,324.372 891.254,323.734 893.848,322.93 896.443,321.763 899.037,320.507 901.631,318.91 904.225,317.256 906.819,315.567 909.414,313.864 912.008,312.286 914.602,310.794 917.196,309.376 919.79,307.967 922.385,306.689 924.979,305.496 927.573,304.607 930.167,304.006 932.762,303.83 935.356,303.893 937.95,304.284 940.544,304.669 943.138,305.156 945.733,305.424 948.327,305.736 950.921,305.833 953.515,305.968 956.109,305.824 958.704,305.592 961.298,304.904 963.892,304.063 966.486,302.815 969.081,301.509 971.675,300.017 974.269,298.646 976.863,297.133 979.457,295.582 982.052,293.725 984.646,291.807 987.24,289.666 989.834,287.595 992.428,285.515 995.023,283.66 997.617,281.773 1000.21,279.899 1002.81,277.764 1005.4,275.303 1007.99,272.319 1010.59,268.835 1013.18,265.009 1015.78,261.01 1018.37,257.043 1020.96,253.392 1023.56,250.268 1026.15,247.611 1028.75,245.166 1031.34,242.692 1033.94,240.352 1036.53,237.716 1039.12,235.173 1041.72,232.297 1044.31,229.695 1046.91,226.698 1049.5,224.053 1052.1,221.281 1054.69,218.22 1057.28,214.753 1059.88,211.165 1062.47,207.605 1065.07,203.741 1067.66,199.818 1070.25,195.774 1072.85,191.515 1075.44,187.177 1078.04,182.414 1080.63,177.456 1083.23,172.064 1085.82,166.471 1088.41,160.735 1091.01,155.164 1093.6,149.855 1096.2,145.132 1098.79,140.953 1101.39,137.496 1103.98,134.594 1106.57,132.262 1109.17,130.46 1111.76,128.783 1114.36,126.999 1116.95,125.007 1119.54,122.808 1122.14,120.552 1124.73,118.33 1127.33,116.448 1129.92,115.072 1132.52,114.277 1135.11,114.081 1137.7,114.238 1140.3,114.741 1142.89,115.405 1145.49,116.246 1148.08,117.167 1150.68,118.137 1153.27,119.278 1155.86,120.696 1158.46,122.307 1161.05,124.448 1163.65,126.88 1166.24,129.849 1168.83,133.426 1171.43,137.491 1174.02,142.144 1176.62,146.952 1179.21,152.175 1181.81,157.775 1184.4,163.332 1186.99,168.99 1189.59,174.803 1192.18,181.466 1194.78,188.171 1197.37,195.7 1199.97,203.576 1202.56,212.271 1205.15,221.05 1207.75,230.084 1210.34,239.041 1212.94,247.862 1215.53,256.263 1218.12,264.454 1220.72,272.295 1223.31,279.906 1225.91,287.163 1228.5,294.252 1231.1,301.265 1233.69,308.239 1236.28,315.348 1238.88,322.48 1241.47,329.762 1244.07,336.918 1246.66,343.925 1249.26,350.527 1251.85,356.78 1254.44,362.474 1257.04,367.845 1259.63,372.744 1262.23,377.585 1264.82,382.073 1267.42,386.446 1270.01,390.28 1272.6,393.71 1275.2,396.399 1277.79,398.559 1280.39,399.893 1282.98,400.731 1285.57,400.885 1288.17,400.864 1290.76,400.354 1293.36,399.649 1295.95,398.396 1298.55,396.873 1301.14,394.663 1303.73,392.021 1306.33,388.679 1308.92,384.932 1311.52,380.444 1314.11,375.546 1316.71,370.061 1319.3,364.256 1321.89,358.053 1324.49,351.941 1327.08,345.837 1329.68,340.019 1332.27,334.243 1334.86,328.645 1337.46,322.904 1340.05,316.911 1342.65,310.533 1345.24,304.076 1347.84,297.382 1350.43,290.891 1353.02,284.524 1355.62,278.544 1358.21,272.867 1360.81,267.496 1363.4,262.447 1366,257.768 1368.59,253.616 1371.18,250.022 1373.78,247.155 1376.37,244.876 1378.97,243.195 1381.56,241.812 1384.15,240.877 1386.75,240.09 1389.34,239.747 1391.94,239.546 1394.53,239.885 1397.13,240.383 1399.72,241.338 1402.31,242.28 1404.91,243.512 1407.5,244.664 1410.1,246.314 1412.69,248.224 1415.29,251.005 1417.88,254.383 1420.47,258.791 1423.07,263.814 1425.66,269.736 1428.26,276.098 1430.85,283.159 1433.44,290.442 1436.04,298.137 1438.63,305.905 1441.23,313.826 1443.82,321.674 1446.42,329.491 1449.01,337.212 1451.6,344.991 1454.2,352.845 1456.79,360.823 1459.39,368.757 1461.98,376.498 1464.58,383.958 1467.17,390.986 1469.76,397.854 1472.36,404.35 1474.95,410.594 1477.55,416.491 1480.14,422.346 1482.73,427.922 1485.33,433.785 1487.92,439.514 1490.52,445.291 1493.11,450.7 1495.71,455.851 1498.3,460.188 1500.89,464.202 1503.49,467.416 1506.08,470.331 1508.68,472.491 1511.27,474.436 1513.87,475.745 1516.46,477.023 1519.05,477.909 1521.65,479.031 1524.24,479.794 1526.84,480.651 1529.43,480.972 1532.02,481.111 1534.62,480.562 1537.21,479.776 1539.81,478.378 1542.4,476.918 1545,474.985 1547.59,473.15 1550.18,471.023 1552.78,469.119 1555.37,467.05 1557.97,465.125 1560.56,463.001 1563.16,460.895 1565.75,458.488 1568.34,455.931 1570.94,453.053 1573.53,449.996 1576.13,446.639 1578.72,443.154 1581.31,439.455 1583.91,435.596 1586.5,431.64 1589.1,427.539 1591.69,423.505 1594.29,419.327 1596.88,415.328 1599.47,411.317 1602.07,407.339 1604.66,403.22 1607.26,399.192 1609.85,394.934 1612.45,390.696 1615.04,386.166 1617.63,381.875 1620.23,377.44 1622.82,373.127 1625.42,368.654 1628.01,364.452 1630.6,360.063 1633.2,356.065 1635.79,351.805 1638.39,348.052 1640.98,343.998 1643.58,340.508 1646.17,336.658 1648.76,333.128 1651.36,329.258 1653.95,325.72 1656.55,322.049 1659.14,318.689 1661.74,315.139 1664.33,311.917 1666.92,308.511 1669.52,305.289 1672.11,301.925 1674.71,298.848 1677.3,295.883 1679.89,293.233 1682.49,290.717 1685.08,288.473 1687.68,286.38 1690.27,284.464 1692.87,282.827 1695.46,281.434 1698.05,280.564 1700.65,279.961 1703.24,279.872 1705.84,279.826 1708.43,280.092 1711.03,280.112 1713.62,280.352 1716.21,280.271 1718.81,280.619 1721.4,280.814 1724,281.65 1726.59,282.467 1729.18,283.915 1731.78,285.14 1734.37,286.699 1736.97,287.665 1739.56,288.742 1742.16,289.024 1744.75,289.328 1747.34,288.917 1749.94,288.546 1752.53,287.662 1755.13,286.871 1757.72,285.65 1760.32,284.529 1762.91,282.997 1765.5,281.623 1768.1,280.078 1770.69,278.984 1773.29,278.114 1775.88,277.782 1778.47,277.891 1781.07,278.391 1783.66,279.204 1786.26,280.093 1788.85,281.132 1791.45,282.121 1794.04,283.255 1796.63,284.286 1799.23,285.623 1801.82,286.797 1804.42,288.338 1807.01,289.586 1809.61,291.188 1812.2,292.46 1814.79,294.261 1817.39,295.809 1819.98,298.114 1822.58,300.286 1825.17,303.185 1827.77,305.877 1830.36,309.276 1832.95,312.532 1835.55,316.546 1838.14,320.435 1840.74,325.197 1843.33,330.078 1845.92,335.867 1848.52,341.929 1851.11,348.885 1853.71,356.257 1856.3,364.548 1858.9,373.401 1861.49,383.198 1864.08,393.721 1866.68,404.999 1869.27,416.972 1871.87,429.324 1874.46,442.134 1877.06,454.838 1879.65,467.692 1882.24,480.16 1884.84,492.974 1887.43,505.415 1890.03,518.348 1892.62,530.762 1895.21,543.589 1897.81,555.833 1900.4,568.463 1903,580.635 1905.59,593.066 1908.19,604.295 1910.78,615.657 1913.37,626.19 1915.97,636.266 1918.56,644.907 1921.16,652.453 1923.75,657.964 1926.35,661.279 1928.94,662.655 1931.53,661.187 1934.13,657.921 1936.72,652.277 1939.32,645.661 1941.91,637.357 1944.5,628.749 1947.1,618.999 1949.69,609.355 1952.29,599.106 1954.88,589.215 1957.48,579.214 1960.07,569.766 1962.66,560.648 1965.26,552.051 1967.85,543.922 1970.45,536.019 1973.04,528.702 1975.64,521.519 1978.23,515.098 1980.82,508.648 1983.42,503.044 1986.01,497.291 1988.61,492.39 1991.2,487.158 1993.79,482.804 1996.39,478.03 1998.98,474.096 2001.58,469.687 2004.17,466.171 2006.77,462.209 2009.36,459.154 2011.95,455.71 2014.55,453.271 2017.14,450.598 2019.74,448.857 2022.33,446.965 2024.93,445.838 2027.52,444.513 2030.11,443.624 2032.71,442.301 2035.3,441.12 2037.9,439.503 2040.49,437.95 2043.08,436.28 2045.68,434.702 2048.27,433.238 2050.87,431.759 2053.46,430.559 2056.06,429.204 2058.65,428.175 2061.24,426.721 2063.84,425.617 2066.43,423.98 2069.03,422.721 2071.62,420.841 2074.22,419.402 2076.81,417.201 2079.4,415.591 2082,413.254 2084.59,411.697 2087.19,409.257 2089.78,407.632 2092.37,405.078 2094.97,403.235 2097.56,400.302 2100.16,398.018 2102.75,394.62 2105.35,391.963 2107.94,388.35 2110.53,385.852 2113.13,382.677 2115.72,380.713 2118.32,378.123 2120.91,376.559 2123.51,374.263 2126.1,372.702 2128.69,370.414 2131.29,368.806 2133.88,366.796 2136.48,365.678 2139.07,364.539 2141.66,364.3 2144.26,364.141 2146.85,364.562 2149.45,365.079 2152.04,365.882 2154.64,366.969 2157.23,368.177 2159.82,369.829 2162.42,371.406 2165.01,373.521 2167.61,375.262 2170.2,377.577 2172.8,379.183 2175.39,381.505 2177.98,382.869 2180.58,385.075 2183.17,386.129 2185.77,388.083 2188.36,388.566 2190.95,389.999 2193.55,389.826 2196.14,390.908 2198.74,390.539 2201.33,391.81 2203.93,391.868 2206.52,393.613 2209.11,393.992 2211.71,395.845 2214.3,396.035 2216.9,397.463 2219.49,397.075 2222.09,397.92 2224.68,397.367 2227.27,397.915 2229.87,397.446 2232.46,397.988 2235.06,397.869 2237.65,398.336 2240.24,398.325 2242.84,398.288 2245.43,398.099 2248.03,397.138 2250.62,396.135 2253.22,393.582 2255.81,391.372 2258.4,387.091 2261,383.858 2263.59,378.075 2266.19,374.2 2268.78,367.252 2271.38,363.023 2273.97,354.967 2276.56,350.823 2279.16,341.978 2281.75,339.07 2284.35,329.754 2286.94,330.19 2289.53,319.123 2292.13,335.107 "/>
<polyline clip-path="url(#clip432)" style="stroke:#dfba53; stroke-linecap:round; stroke-linejoin:round; stroke-width:4; stroke-opacity:1; fill:none" stroke-dasharray="16, 10" points="271.237,738.857 273.831,738.857 276.426,738.857 279.02,738.857 281.614,738.857 284.208,738.857 286.803,738.857 289.397,738.857 291.991,738.857 294.585,738.857 297.179,738.857 299.774,738.857 302.368,738.857 304.962,738.857 307.556,738.857 310.15,738.857 312.745,738.857 315.339,738.857 317.933,738.857 320.527,738.857 323.121,738.857 325.716,738.857 328.31,738.857 330.904,738.857 333.498,738.857 336.093,738.857 338.687,738.857 341.281,738.857 343.875,738.857 346.469,738.857 349.064,738.857 351.658,738.857 354.252,738.857 356.846,738.857 359.44,738.857 362.035,738.857 364.629,738.857 367.223,738.857 369.817,738.857 372.412,738.857 375.006,738.857 377.6,738.857 380.194,738.857 382.788,738.857 385.383,738.857 387.977,738.857 390.571,738.857 393.165,738.857 395.759,738.857 398.354,738.857 400.948,738.857 403.542,738.857 406.136,738.857 408.731,738.857 411.325,738.857 413.919,738.857 416.513,738.857 419.107,738.857 421.702,738.857 424.296,738.857 426.89,738.857 429.484,738.857 432.078,738.857 434.673,738.857 437.267,738.857 439.861,738.857 442.455,738.857 445.049,738.857 447.644,738.857 450.238,738.857 452.832,738.857 455.426,738.857 458.021,738.857 460.615,738.857 463.209,738.857 465.803,738.857 468.397,738.857 470.992,738.857 473.586,738.857 476.18,738.857 478.774,738.857 481.368,738.857 483.963,738.857 486.557,738.857 489.151,738.857 491.745,738.857 494.34,738.857 496.934,738.857 499.528,738.857 502.122,738.857 504.716,738.857 507.311,738.857 509.905,738.857 512.499,738.857 515.093,738.857 517.687,738.857 520.282,738.857 522.876,738.857 525.47,738.857 528.064,738.857 530.659,738.857 533.253,738.857 535.847,738.857 538.441,738.857 541.035,738.857 543.63,738.857 546.224,738.857 548.818,738.857 551.412,738.857 554.006,738.857 556.601,738.857 559.195,738.857 561.789,738.857 564.383,738.857 566.978,738.857 569.572,738.857 572.166,738.857 574.76,738.857 577.354,738.857 579.949,738.857 582.543,738.857 585.137,738.857 587.731,738.857 590.325,738.857 592.92,738.857 595.514,738.857 598.108,738.857 600.702,738.857 603.296,738.857 605.891,738.857 608.485,738.857 611.079,738.857 613.673,738.857 616.268,738.857 618.862,738.857 621.456,738.857 624.05,738.857 626.644,738.857 629.239,738.857 631.833,738.857 634.427,738.857 637.021,738.857 639.615,738.857 642.21,738.857 644.804,738.857 647.398,738.857 649.992,738.857 652.587,738.857 655.181,738.857 657.775,738.857 660.369,738.857 662.963,738.857 665.558,738.857 668.152,738.857 670.746,738.857 673.34,738.857 675.934,738.857 678.529,738.857 681.123,738.857 683.717,738.857 686.311,738.857 688.906,738.857 691.5,738.857 694.094,738.857 696.688,738.857 699.282,738.857 701.877,738.857 704.471,738.857 707.065,738.857 709.659,738.857 712.253,738.857 714.848,738.857 717.442,738.857 720.036,738.857 722.63,738.857 725.224,738.857 727.819,738.857 730.413,738.857 733.007,738.857 735.601,738.857 738.196,738.857 740.79,738.857 743.384,738.857 745.978,738.857 748.572,738.857 751.167,738.857 753.761,738.857 756.355,738.857 758.949,738.857 761.543,738.857 764.138,738.857 766.732,738.857 769.326,738.857 771.92,738.857 774.515,738.857 777.109,738.857 779.703,738.857 782.297,738.857 784.891,738.857 787.486,738.857 790.08,738.857 792.674,738.857 795.268,738.857 797.862,738.857 800.457,738.857 803.051,738.857 805.645,738.857 808.239,738.857 810.834,738.857 813.428,738.857 816.022,738.857 818.616,738.857 821.21,738.857 823.805,738.857 826.399,738.857 828.993,738.857 831.587,738.857 834.181,738.857 836.776,738.857 839.37,738.857 841.964,738.857 844.558,738.857 847.153,738.857 849.747,738.857 852.341,738.857 854.935,738.857 857.529,738.857 860.124,738.857 862.718,738.857 865.312,738.857 867.906,738.857 870.5,738.857 873.095,738.857 875.689,738.857 878.283,738.857 880.877,738.857 883.471,738.857 886.066,738.857 888.66,738.857 891.254,738.857 893.848,738.857 896.443,738.857 899.037,738.857 901.631,738.857 904.225,738.857 906.819,738.857 909.414,738.857 912.008,738.857 914.602,738.857 917.196,738.857 919.79,738.857 922.385,738.857 924.979,738.857 927.573,738.857 930.167,738.857 932.762,738.857 935.356,738.857 937.95,738.857 940.544,738.857 943.138,738.857 945.733,738.857 948.327,738.857 950.921,738.857 953.515,738.857 956.109,738.857 958.704,738.857 961.298,738.857 963.892,738.857 966.486,738.857 969.081,738.857 971.675,738.857 974.269,738.857 976.863,738.857 979.457,738.857 982.052,738.857 984.646,738.857 987.24,738.857 989.834,738.857 992.428,738.857 995.023,738.857 997.617,738.857 1000.21,738.857 1002.81,738.857 1005.4,738.857 1007.99,738.857 1010.59,738.857 1013.18,738.857 1015.78,738.857 1018.37,738.857 1020.96,738.857 1023.56,738.857 1026.15,738.857 1028.75,738.857 1031.34,738.857 1033.94,738.857 1036.53,738.857 1039.12,738.857 1041.72,738.857 1044.31,738.857 1046.91,738.857 1049.5,738.857 1052.1,738.857 1054.69,738.857 1057.28,738.857 1059.88,738.857 1062.47,738.857 1065.07,738.857 1067.66,738.857 1070.25,738.857 1072.85,738.857 1075.44,738.857 1078.04,738.857 1080.63,738.857 1083.23,738.857 1085.82,738.857 1088.41,738.857 1091.01,738.857 1093.6,738.857 1096.2,738.857 1098.79,738.857 1101.39,738.857 1103.98,738.857 1106.57,738.857 1109.17,738.857 1111.76,738.857 1114.36,738.857 1116.95,738.857 1119.54,738.857 1122.14,738.857 1124.73,738.857 1127.33,738.857 1129.92,738.857 1132.52,738.857 1135.11,738.857 1137.7,738.857 1140.3,738.857 1142.89,738.857 1145.49,738.857 1148.08,738.857 1150.68,738.857 1153.27,738.857 1155.86,738.857 1158.46,738.857 1161.05,738.857 1163.65,738.857 1166.24,738.857 1168.83,738.857 1171.43,738.857 1174.02,738.857 1176.62,738.857 1179.21,738.857 1181.81,738.857 1184.4,738.857 1186.99,738.857 1189.59,738.857 1192.18,738.857 1194.78,738.857 1197.37,738.857 1199.97,738.857 1202.56,738.857 1205.15,738.857 1207.75,738.857 1210.34,738.857 1212.94,738.857 1215.53,738.857 1218.12,738.857 1220.72,738.857 1223.31,738.857 1225.91,738.857 1228.5,738.857 1231.1,738.857 1233.69,738.857 1236.28,738.857 1238.88,738.857 1241.47,738.857 1244.07,738.857 1246.66,738.857 1249.26,738.857 1251.85,738.857 1254.44,738.857 1257.04,738.857 1259.63,738.857 1262.23,738.857 1264.82,738.857 1267.42,738.857 1270.01,738.857 1272.6,738.857 1275.2,738.857 1277.79,738.857 1280.39,738.857 1282.98,738.857 1285.57,738.857 1288.17,738.857 1290.76,738.857 1293.36,738.857 1295.95,738.857 1298.55,738.857 1301.14,738.857 1303.73,738.857 1306.33,738.857 1308.92,738.857 1311.52,738.857 1314.11,738.857 1316.71,738.857 1319.3,738.857 1321.89,738.857 1324.49,738.857 1327.08,738.857 1329.68,738.857 1332.27,738.857 1334.86,738.857 1337.46,738.857 1340.05,738.857 1342.65,738.857 1345.24,738.857 1347.84,738.857 1350.43,738.857 1353.02,738.857 1355.62,738.857 1358.21,738.857 1360.81,738.857 1363.4,738.857 1366,738.857 1368.59,738.857 1371.18,738.857 1373.78,738.857 1376.37,738.857 1378.97,738.857 1381.56,738.857 1384.15,738.857 1386.75,738.857 1389.34,738.857 1391.94,738.857 1394.53,738.857 1397.13,738.857 1399.72,738.857 1402.31,738.857 1404.91,738.857 1407.5,738.857 1410.1,738.857 1412.69,738.857 1415.29,738.857 1417.88,738.857 1420.47,738.857 1423.07,738.857 1425.66,738.857 1428.26,738.857 1430.85,738.857 1433.44,738.857 1436.04,738.857 1438.63,738.857 1441.23,738.857 1443.82,738.857 1446.42,738.857 1449.01,738.857 1451.6,738.857 1454.2,738.857 1456.79,738.857 1459.39,738.857 1461.98,738.857 1464.58,738.857 1467.17,738.857 1469.76,738.857 1472.36,738.857 1474.95,738.857 1477.55,738.857 1480.14,738.857 1482.73,738.857 1485.33,738.857 1487.92,738.857 1490.52,738.857 1493.11,738.857 1495.71,738.857 1498.3,738.857 1500.89,738.857 1503.49,738.857 1506.08,738.857 1508.68,738.857 1511.27,738.857 1513.87,738.857 1516.46,738.857 1519.05,738.857 1521.65,738.857 1524.24,738.857 1526.84,738.857 1529.43,738.857 1532.02,738.857 1534.62,738.857 1537.21,738.857 1539.81,738.857 1542.4,738.857 1545,738.857 1547.59,738.857 1550.18,738.857 1552.78,738.857 1555.37,738.857 1557.97,738.857 1560.56,738.857 1563.16,738.857 1565.75,738.857 1568.34,738.857 1570.94,738.857 1573.53,738.857 1576.13,738.857 1578.72,738.857 1581.31,738.857 1583.91,738.857 1586.5,738.857 1589.1,738.857 1591.69,738.857 1594.29,738.857 1596.88,738.857 1599.47,738.857 1602.07,738.857 1604.66,738.857 1607.26,738.857 1609.85,738.857 1612.45,738.857 1615.04,738.857 1617.63,738.857 1620.23,738.857 1622.82,738.857 1625.42,738.857 1628.01,738.857 1630.6,738.857 1633.2,738.857 1635.79,738.857 1638.39,738.857 1640.98,738.857 1643.58,738.857 1646.17,738.857 1648.76,738.857 1651.36,738.857 1653.95,738.857 1656.55,738.857 1659.14,738.857 1661.74,738.857 1664.33,738.857 1666.92,738.857 1669.52,738.857 1672.11,738.857 1674.71,738.857 1677.3,738.857 1679.89,738.857 1682.49,738.857 1685.08,738.857 1687.68,738.857 1690.27,738.857 1692.87,738.857 1695.46,738.857 1698.05,738.857 1700.65,738.857 1703.24,738.857 1705.84,738.857 1708.43,738.857 1711.03,738.857 1713.62,738.857 1716.21,738.857 1718.81,738.857 1721.4,738.857 1724,738.857 1726.59,738.857 1729.18,738.857 1731.78,738.857 1734.37,738.857 1736.97,738.857 1739.56,738.857 1742.16,738.857 1744.75,738.857 1747.34,738.857 1749.94,738.857 1752.53,738.857 1755.13,738.857 1757.72,738.857 1760.32,738.857 1762.91,738.857 1765.5,738.857 1768.1,738.857 1770.69,738.857 1773.29,738.857 1775.88,738.857 1778.47,738.857 1781.07,738.857 1783.66,738.857 1786.26,738.857 1788.85,738.857 1791.45,738.857 1794.04,738.857 1796.63,738.857 1799.23,738.857 1801.82,738.857 1804.42,738.857 1807.01,738.857 1809.61,738.857 1812.2,738.857 1814.79,738.857 1817.39,738.857 1819.98,738.857 1822.58,738.857 1825.17,738.857 1827.77,738.857 1830.36,738.857 1832.95,738.857 1835.55,738.857 1838.14,738.857 1840.74,738.857 1843.33,738.857 1845.92,738.857 1848.52,738.857 1851.11,738.857 1853.71,738.857 1856.3,738.857 1858.9,738.857 1861.49,738.857 1864.08,738.857 1866.68,738.857 1869.27,738.857 1871.87,738.857 1874.46,738.857 1877.06,738.857 1879.65,738.857 1882.24,738.857 1884.84,738.857 1887.43,738.857 1890.03,738.857 1892.62,738.857 1895.21,738.857 1897.81,738.857 1900.4,738.857 1903,738.857 1905.59,738.857 1908.19,738.857 1910.78,738.857 1913.37,738.857 1915.97,738.857 1918.56,738.857 1921.16,738.857 1923.75,738.857 1926.35,738.857 1928.94,738.857 1931.53,738.857 1934.13,738.857 1936.72,738.857 1939.32,738.857 1941.91,738.857 1944.5,738.857 1947.1,738.857 1949.69,738.857 1952.29,738.857 1954.88,738.857 1957.48,738.857 1960.07,738.857 1962.66,738.857 1965.26,738.857 1967.85,738.857 1970.45,738.857 1973.04,738.857 1975.64,738.857 1978.23,738.857 1980.82,738.857 1983.42,738.857 1986.01,738.857 1988.61,738.857 1991.2,738.857 1993.79,738.857 1996.39,738.857 1998.98,738.857 2001.58,738.857 2004.17,738.857 2006.77,738.857 2009.36,738.857 2011.95,738.857 2014.55,738.857 2017.14,738.857 2019.74,738.857 2022.33,738.857 2024.93,738.857 2027.52,738.857 2030.11,738.857 2032.71,738.857 2035.3,738.857 2037.9,738.857 2040.49,738.857 2043.08,738.857 2045.68,738.857 2048.27,738.857 2050.87,738.857 2053.46,738.857 2056.06,738.857 2058.65,738.857 2061.24,738.857 2063.84,738.857 2066.43,738.857 2069.03,738.857 2071.62,738.857 2074.22,738.857 2076.81,738.857 2079.4,738.857 2082,738.857 2084.59,738.857 2087.19,738.857 2089.78,738.857 2092.37,738.857 2094.97,738.857 2097.56,738.857 2100.16,738.857 2102.75,738.857 2105.35,738.857 2107.94,738.857 2110.53,738.857 2113.13,738.857 2115.72,738.857 2118.32,738.857 2120.91,738.857 2123.51,738.857 2126.1,738.857 2128.69,738.857 2131.29,738.857 2133.88,738.857 2136.48,738.857 2139.07,738.857 2141.66,738.857 2144.26,738.857 2146.85,738.857 2149.45,738.857 2152.04,738.857 2154.64,738.857 2157.23,738.857 2159.82,738.857 2162.42,738.857 2165.01,738.857 2167.61,738.857 2170.2,738.857 2172.8,738.857 2175.39,738.857 2177.98,738.857 2180.58,738.857 2183.17,738.857 2185.77,738.857 2188.36,738.857 2190.95,738.857 2193.55,738.857 2196.14,738.857 2198.74,738.857 2201.33,738.857 2203.93,738.857 2206.52,738.857 2209.11,738.857 2211.71,738.857 2214.3,738.857 2216.9,738.857 2219.49,738.857 2222.09,738.857 2224.68,738.857 2227.27,738.857 2229.87,738.857 2232.46,738.857 2235.06,738.857 2237.65,738.857 2240.24,738.857 2242.84,738.857 2245.43,738.857 2248.03,738.857 2250.62,738.857 2253.22,738.857 2255.81,738.857 2258.4,738.857 2261,738.857 2263.59,738.857 2266.19,738.857 2268.78,738.857 2271.38,738.857 2273.97,738.857 2276.56,738.857 2279.16,738.857 2281.75,738.857 2284.35,738.857 2286.94,738.857 2289.53,738.857 2292.13,738.857 "/>
<path clip-path="url(#clip430)" d="M1899.87 1377.32 L2281.35 1377.32 L2281.35 1169.96 L1899.87 1169.96  Z" fill="#ffffff" fill-rule="evenodd" fill-opacity="1"/>
<polyline clip-path="url(#clip430)" style="stroke:#000000; stroke-linecap:round; stroke-linejoin:round; stroke-width:4; stroke-opacity:1; fill:none" points="1899.87,1377.32 2281.35,1377.32 2281.35,1169.96 1899.87,1169.96 1899.87,1377.32 "/>
<polyline clip-path="url(#clip430)" style="stroke:#ba3d3a; stroke-linecap:round; stroke-linejoin:round; stroke-width:8; stroke-opacity:1; fill:none" points="1923.67,1221.8 2066.48,1221.8 "/>
<path clip-path="url(#clip430)" d="M2112.7 1217.6 Q2112.7 1218.91 2112.3 1220.39 L2106.84 1242.1 Q2106.35 1244.02 2104.88 1244.02 Q2104.27 1244.02 2103.89 1243.65 Q2103.54 1243.3 2103.54 1242.73 Q2103.54 1242.55 2103.68 1241.96 L2109.14 1219.9 Q2109.63 1217.88 2109.63 1216.88 Q2109.63 1213.53 2107.03 1213.53 Q2104.73 1213.53 2102.44 1215.21 Q2101.39 1216.06 2100.35 1217.58 Q2099.35 1219.08 2099.16 1219.62 Q2098.95 1220.83 2098.64 1221.77 Q2098.5 1222.43 2097.83 1224.98 L2096.77 1229.31 Q2096.02 1232.55 2095.86 1232.85 Q2095.62 1233.51 2095.11 1233.86 Q2094.59 1234.21 2094.08 1234.21 Q2093.49 1234.21 2093.09 1233.86 Q2092.7 1233.51 2092.7 1232.9 Q2092.7 1232.8 2092.77 1232.45 Q2092.84 1232.1 2092.95 1231.61 Q2093.07 1231.12 2093.12 1230.84 L2095.9 1219.76 Q2096.42 1217.74 2096.54 1217.11 Q2096.68 1216.45 2096.68 1215.73 Q2096.68 1214.46 2096.28 1214 Q2095.88 1213.53 2095.18 1213.53 Q2093.96 1213.53 2093.16 1214.98 Q2092.37 1216.43 2091.69 1219.24 Q2091.48 1220.02 2091.34 1220.18 Q2091.22 1220.34 2090.87 1220.34 Q2090.28 1220.32 2090.28 1219.85 Q2090.28 1219.73 2090.47 1218.98 Q2090.66 1218.21 2091.01 1217.09 Q2091.38 1215.94 2091.78 1215.21 Q2092.02 1214.72 2092.23 1214.39 Q2092.44 1214.07 2092.86 1213.55 Q2093.28 1213.04 2093.91 1212.75 Q2094.55 1212.47 2095.32 1212.47 Q2097.03 1212.47 2098.29 1213.57 Q2099.58 1214.67 2099.75 1216.64 Q2100.24 1215.92 2100.87 1215.26 Q2101.53 1214.6 2102.44 1213.95 Q2103.35 1213.27 2104.59 1212.87 Q2105.84 1212.47 2107.17 1212.47 Q2109.84 1212.47 2111.27 1213.85 Q2112.7 1215.21 2112.7 1217.6 Z" fill="#000000" fill-rule="nonzero" fill-opacity="1" /><path clip-path="url(#clip430)" d="M2119.63 1221.68 Q2119.63 1213.57 2122.65 1207.04 Q2123.94 1204.3 2125.74 1202 Q2127.55 1199.71 2128.74 1198.7 Q2129.94 1197.69 2130.26 1197.69 Q2130.73 1197.69 2130.76 1198.16 Q2130.76 1198.4 2130.12 1198.98 Q2122.39 1206.85 2122.42 1221.68 Q2122.42 1236.55 2129.94 1244.12 Q2130.76 1244.94 2130.76 1245.19 Q2130.76 1245.66 2130.26 1245.66 Q2129.94 1245.66 2128.79 1244.7 Q2127.64 1243.74 2125.86 1241.54 Q2124.08 1239.34 2122.79 1236.64 Q2119.63 1230.11 2119.63 1221.68 Z" fill="#000000" fill-rule="nonzero" fill-opacity="1" /><path clip-path="url(#clip430)" d="M2149.13 1213.53 Q2149.13 1214.18 2148.83 1214.35 Q2148.52 1214.49 2147.68 1214.49 L2143.18 1214.49 L2139.62 1228.63 Q2139.34 1229.88 2139.34 1230.93 Q2139.34 1232.1 2139.69 1232.62 Q2140.07 1233.13 2140.84 1233.13 Q2142.36 1233.13 2144 1231.75 Q2145.66 1230.37 2147.07 1226.99 Q2147.26 1226.55 2147.35 1226.46 Q2147.47 1226.34 2147.77 1226.34 Q2148.36 1226.34 2148.36 1226.81 Q2148.36 1226.97 2148.03 1227.72 Q2147.73 1228.47 2147.05 1229.57 Q2146.39 1230.67 2145.52 1231.7 Q2144.68 1232.73 2143.39 1233.48 Q2142.1 1234.21 2140.72 1234.21 Q2138.78 1234.21 2137.54 1232.97 Q2136.32 1231.73 2136.32 1229.78 Q2136.32 1229.15 2136.81 1227.14 Q2137.3 1225.1 2139.97 1214.49 L2135.73 1214.49 Q2135.15 1214.49 2134.91 1214.46 Q2134.7 1214.44 2134.54 1214.32 Q2134.4 1214.18 2134.4 1213.9 Q2134.4 1213.46 2134.59 1213.27 Q2134.77 1213.06 2135.01 1213.04 Q2135.26 1212.99 2135.85 1212.99 L2140.35 1212.99 L2142.22 1205.38 Q2142.41 1204.63 2142.88 1204.2 Q2143.37 1203.76 2143.65 1203.71 Q2143.93 1203.64 2144.14 1203.64 Q2144.77 1203.64 2145.15 1203.99 Q2145.52 1204.32 2145.52 1204.93 Q2145.52 1205.26 2143.56 1212.99 L2147.77 1212.99 Q2148.31 1212.99 2148.52 1213.01 Q2148.76 1213.04 2148.94 1213.15 Q2149.13 1213.27 2149.13 1213.53 Z" fill="#000000" fill-rule="nonzero" fill-opacity="1" /><path clip-path="url(#clip430)" d="M2152.88 1245.19 Q2152.88 1244.96 2153.49 1244.37 Q2161.22 1236.5 2161.22 1221.68 Q2161.22 1206.8 2153.8 1199.29 Q2152.88 1198.42 2152.88 1198.16 Q2152.88 1197.69 2153.35 1197.69 Q2153.68 1197.69 2154.83 1198.65 Q2156 1199.61 2157.75 1201.82 Q2159.53 1204.02 2160.85 1206.71 Q2164.01 1213.25 2164.01 1221.68 Q2164.01 1229.78 2160.99 1236.32 Q2159.7 1239.06 2157.89 1241.35 Q2156.09 1243.65 2154.9 1244.66 Q2153.7 1245.66 2153.35 1245.66 Q2152.88 1245.66 2152.88 1245.19 Z" fill="#000000" fill-rule="nonzero" fill-opacity="1" /><polyline clip-path="url(#clip430)" style="stroke:#4a7945; stroke-linecap:round; stroke-linejoin:round; stroke-width:8; stroke-opacity:1; fill:none" points="1923.67,1273.64 2066.48,1273.64 "/>
<path clip-path="url(#clip430)" d="M2114.95 1278.65 Q2114.34 1281.67 2113.52 1283.4 Q2112.18 1286.05 2109.96 1286.05 Q2108.41 1286.05 2107.24 1285.18 Q2106.09 1284.29 2105.69 1282.82 Q2105.25 1283.4 2104.85 1283.8 Q2104.48 1284.2 2103.75 1284.81 Q2103.02 1285.39 2102.04 1285.72 Q2101.08 1286.05 2099.98 1286.05 Q2099.14 1286.05 2098.36 1285.89 Q2097.59 1285.74 2096.77 1285.35 Q2095.97 1284.92 2095.39 1284.29 Q2094.83 1283.66 2094.45 1282.63 Q2094.08 1281.6 2094.08 1280.29 Q2094.08 1278.65 2094.71 1276.42 Q2095.37 1274.2 2096.86 1270.22 Q2097.68 1268.11 2097.68 1266.94 Q2097.68 1266.4 2097.57 1266.05 Q2097.45 1265.69 2097.22 1265.58 Q2097.01 1265.44 2096.86 1265.41 Q2096.72 1265.37 2096.49 1265.37 Q2095.04 1265.37 2093.77 1266.84 Q2092.51 1268.32 2091.64 1271.32 Q2091.45 1271.9 2091.34 1272.04 Q2091.22 1272.18 2090.87 1272.18 Q2090.28 1272.16 2090.28 1271.69 Q2090.28 1271.5 2090.49 1270.78 Q2090.7 1270.03 2091.2 1268.93 Q2091.71 1267.8 2092.41 1266.8 Q2093.12 1265.77 2094.22 1265.04 Q2095.34 1264.31 2096.63 1264.31 Q2098.39 1264.31 2099.46 1265.46 Q2100.57 1266.58 2100.57 1268.25 Q2100.57 1269.28 2099.75 1271.27 Q2097.15 1278.18 2097.15 1281.06 Q2097.15 1284.97 2100.12 1284.97 Q2101.1 1284.97 2102.02 1284.57 Q2102.95 1284.18 2103.56 1283.61 Q2104.17 1283.05 2104.64 1282.44 Q2105.13 1281.83 2105.34 1281.43 Q2105.58 1281.04 2105.6 1280.94 L2109.18 1266.51 Q2109.33 1265.95 2109.58 1265.58 Q2109.86 1265.18 2110.19 1265.04 Q2110.52 1264.9 2110.71 1264.88 Q2110.89 1264.83 2111.06 1264.83 Q2111.64 1264.83 2112.04 1265.18 Q2112.46 1265.53 2112.46 1266.14 Q2112.46 1266.26 2112.32 1266.82 Q2112.21 1267.36 2112.02 1268.15 Q2111.83 1268.93 2111.74 1269.35 Q2110.99 1272.3 2110.92 1272.6 L2109.58 1277.78 Q2109.51 1278.09 2109.28 1279.07 Q2109.07 1280.05 2108.95 1280.57 Q2108.83 1281.06 2108.72 1281.74 Q2108.62 1282.4 2108.62 1282.77 Q2108.62 1283.94 2108.97 1284.46 Q2109.33 1284.97 2110.1 1284.97 Q2110.82 1284.97 2111.39 1284.48 Q2111.97 1283.96 2112.42 1282.98 Q2112.86 1281.97 2113.12 1281.15 Q2113.38 1280.33 2113.71 1279.05 Q2113.82 1278.48 2113.92 1278.34 Q2114.03 1278.18 2114.36 1278.18 Q2114.95 1278.18 2114.95 1278.65 Z" fill="#000000" fill-rule="nonzero" fill-opacity="1" /><path clip-path="url(#clip430)" d="M2120.51 1273.52 Q2120.51 1265.41 2123.54 1258.88 Q2124.82 1256.14 2126.63 1253.84 Q2128.43 1251.55 2129.63 1250.54 Q2130.82 1249.53 2131.15 1249.53 Q2131.62 1249.53 2131.64 1250 Q2131.64 1250.24 2131.01 1250.82 Q2123.28 1258.69 2123.3 1273.52 Q2123.3 1288.39 2130.82 1295.96 Q2131.64 1296.78 2131.64 1297.03 Q2131.64 1297.5 2131.15 1297.5 Q2130.82 1297.5 2129.67 1296.54 Q2128.52 1295.58 2126.74 1293.38 Q2124.96 1291.18 2123.68 1288.48 Q2120.51 1281.95 2120.51 1273.52 Z" fill="#000000" fill-rule="nonzero" fill-opacity="1" /><path clip-path="url(#clip430)" d="M2150.01 1265.37 Q2150.01 1266.02 2149.71 1266.19 Q2149.41 1266.33 2148.56 1266.33 L2144.07 1266.33 L2140.51 1280.47 Q2140.22 1281.72 2140.22 1282.77 Q2140.22 1283.94 2140.58 1284.46 Q2140.95 1284.97 2141.72 1284.97 Q2143.25 1284.97 2144.89 1283.59 Q2146.55 1282.21 2147.95 1278.83 Q2148.14 1278.39 2148.23 1278.3 Q2148.35 1278.18 2148.66 1278.18 Q2149.24 1278.18 2149.24 1278.65 Q2149.24 1278.81 2148.91 1279.56 Q2148.61 1280.31 2147.93 1281.41 Q2147.27 1282.51 2146.41 1283.54 Q2145.56 1284.57 2144.28 1285.32 Q2142.99 1286.05 2141.61 1286.05 Q2139.66 1286.05 2138.42 1284.81 Q2137.2 1283.57 2137.2 1281.62 Q2137.2 1280.99 2137.69 1278.98 Q2138.19 1276.94 2140.86 1266.33 L2136.62 1266.33 Q2136.03 1266.33 2135.8 1266.3 Q2135.59 1266.28 2135.42 1266.16 Q2135.28 1266.02 2135.28 1265.74 Q2135.28 1265.3 2135.47 1265.11 Q2135.66 1264.9 2135.89 1264.88 Q2136.15 1264.83 2136.73 1264.83 L2141.23 1264.83 L2143.11 1257.22 Q2143.29 1256.47 2143.76 1256.04 Q2144.25 1255.6 2144.53 1255.55 Q2144.81 1255.48 2145.03 1255.48 Q2145.66 1255.48 2146.03 1255.83 Q2146.41 1256.16 2146.41 1256.77 Q2146.41 1257.1 2144.44 1264.83 L2148.66 1264.83 Q2149.19 1264.83 2149.41 1264.85 Q2149.64 1264.88 2149.83 1264.99 Q2150.01 1265.11 2150.01 1265.37 Z" fill="#000000" fill-rule="nonzero" fill-opacity="1" /><path clip-path="url(#clip430)" d="M2153.77 1297.03 Q2153.77 1296.8 2154.37 1296.21 Q2162.1 1288.34 2162.1 1273.52 Q2162.1 1258.64 2154.68 1251.13 Q2153.77 1250.26 2153.77 1250 Q2153.77 1249.53 2154.23 1249.53 Q2154.56 1249.53 2155.71 1250.49 Q2156.88 1251.45 2158.64 1253.66 Q2160.42 1255.86 2161.73 1258.55 Q2164.89 1265.09 2164.89 1273.52 Q2164.89 1281.62 2161.87 1288.16 Q2160.58 1290.9 2158.78 1293.19 Q2156.97 1295.49 2155.78 1296.5 Q2154.59 1297.5 2154.23 1297.5 Q2153.77 1297.5 2153.77 1297.03 Z" fill="#000000" fill-rule="nonzero" fill-opacity="1" /><polyline clip-path="url(#clip430)" style="stroke:#dfba53; stroke-linecap:round; stroke-linejoin:round; stroke-width:4; stroke-opacity:1; fill:none" stroke-dasharray="16, 10" points="1923.67,1325.48 2066.48,1325.48 "/>
<path clip-path="url(#clip430)" d="M2090.28 1326.57 Q2090.28 1319.14 2092.16 1315.09 Q2094.78 1309.06 2100.95 1309.06 Q2102.26 1309.06 2103.62 1309.43 Q2105.01 1309.78 2106.74 1311.14 Q2108.49 1312.49 2109.55 1314.72 Q2111.58 1319.02 2111.58 1326.57 Q2111.58 1333.96 2109.7 1337.99 Q2106.96 1343.87 2100.91 1343.87 Q2098.63 1343.87 2096.31 1342.71 Q2094.01 1341.54 2092.56 1338.75 Q2090.28 1334.58 2090.28 1326.57 M2094.48 1325.96 Q2094.48 1333.59 2095.03 1336.63 Q2095.64 1339.91 2097.32 1341.35 Q2099.03 1342.76 2100.91 1342.76 Q2102.93 1342.76 2104.61 1341.25 Q2106.32 1339.72 2106.83 1336.43 Q2107.4 1333.2 2107.38 1325.96 Q2107.38 1318.92 2106.88 1316.1 Q2106.22 1312.81 2104.44 1311.51 Q2102.68 1310.17 2100.91 1310.17 Q2100.24 1310.17 2099.52 1310.37 Q2098.83 1310.57 2097.82 1311.14 Q2096.8 1311.7 2096.01 1313.11 Q2095.25 1314.52 2094.88 1316.64 Q2094.48 1319.39 2094.48 1325.96 Z" fill="#000000" fill-rule="nonzero" fill-opacity="1" /><path clip-path="url(#clip430)" d="M2132.11 1342.09 L2132.11 1335.42 Q2132.11 1334.85 2132.13 1334.65 Q2132.16 1334.45 2132.3 1334.31 Q2132.45 1334.16 2132.75 1334.16 Q2133.09 1334.16 2133.22 1334.31 Q2133.37 1334.45 2133.46 1335.02 Q2134.23 1338.51 2135.86 1340.36 Q2137.52 1342.19 2140.5 1342.19 Q2143.35 1342.19 2144.78 1340.93 Q2146.21 1339.67 2146.21 1337.59 Q2146.21 1333.89 2140.95 1332.95 Q2137.91 1332.33 2136.65 1331.94 Q2135.39 1331.52 2134.28 1330.6 Q2132.11 1328.82 2132.11 1326.3 Q2132.11 1323.78 2134.01 1321.93 Q2135.93 1320.08 2140.18 1320.08 Q2143.02 1320.08 2144.95 1321.51 Q2145.52 1321.07 2145.82 1320.7 Q2146.48 1320.08 2146.83 1320.08 Q2147.22 1320.08 2147.3 1320.35 Q2147.37 1320.6 2147.37 1321.31 L2147.37 1326.4 Q2147.37 1326.97 2147.35 1327.17 Q2147.32 1327.37 2147.17 1327.51 Q2147.03 1327.64 2146.71 1327.64 Q2146.14 1327.64 2146.11 1327.17 Q2145.72 1321.04 2140.18 1321.04 Q2137.19 1321.04 2135.86 1322.2 Q2134.53 1323.34 2134.53 1324.89 Q2134.53 1325.76 2134.92 1326.43 Q2135.34 1327.07 2135.86 1327.46 Q2136.4 1327.83 2137.39 1328.21 Q2138.38 1328.55 2138.97 1328.67 Q2139.59 1328.8 2140.75 1329.04 Q2144.8 1329.81 2146.51 1331.47 Q2148.63 1333.59 2148.63 1336.28 Q2148.63 1339.27 2146.61 1341.3 Q2144.58 1343.32 2140.5 1343.32 Q2137.22 1343.32 2134.92 1341.12 Q2134.63 1341.42 2134.4 1341.69 Q2134.18 1341.94 2134.08 1342.04 Q2134.01 1342.14 2133.98 1342.21 Q2133.96 1342.26 2133.91 1342.31 Q2132.9 1343.32 2132.65 1343.32 Q2132.25 1343.32 2132.18 1343.05 Q2132.11 1342.8 2132.11 1342.09 Z" fill="#000000" fill-rule="nonzero" fill-opacity="1" /><path clip-path="url(#clip430)" d="M2151.3 1322.52 L2151.3 1321.41 Q2153.62 1321.31 2155.15 1319.68 Q2156.71 1318.03 2157.23 1316 Q2157.77 1313.98 2157.82 1311.63 L2159.08 1311.63 L2159.08 1320.94 L2166.32 1320.94 L2166.32 1322.52 L2159.08 1322.52 L2159.08 1336.58 Q2159.08 1342.04 2162.49 1342.04 Q2163.95 1342.04 2164.91 1340.56 Q2165.88 1339.05 2165.88 1336.38 L2165.88 1333.59 L2167.14 1333.59 L2167.14 1336.48 Q2167.14 1339.22 2165.88 1341.27 Q2164.62 1343.32 2162.12 1343.32 Q2161.21 1343.32 2160.29 1343.08 Q2159.4 1342.85 2158.22 1342.26 Q2157.06 1341.64 2156.32 1340.16 Q2155.6 1338.65 2155.6 1336.48 L2155.6 1322.52 L2151.3 1322.52 Z" fill="#000000" fill-rule="nonzero" fill-opacity="1" /><path clip-path="url(#clip430)" d="M2171.68 1331.89 Q2171.68 1327.07 2175.04 1323.73 Q2178.4 1320.4 2182.95 1320.4 Q2186.8 1320.4 2189.32 1323.54 L2189.32 1312.59 Q2189.32 1310.72 2188.65 1310.25 Q2188.01 1309.78 2185.39 1309.78 L2185.39 1308.2 L2192.68 1307.65 L2192.68 1338.36 Q2192.68 1340.24 2193.32 1340.73 Q2193.99 1341.2 2196.61 1341.2 L2196.61 1342.76 L2189.17 1343.32 L2189.17 1339.96 Q2186.55 1343.3 2182.4 1343.32 Q2178.05 1343.32 2174.87 1339.99 Q2171.68 1336.65 2171.68 1331.89 M2175.88 1331.94 Q2175.88 1336.63 2177.34 1338.95 Q2179.36 1342.19 2182.65 1342.19 Q2186.4 1342.19 2188.63 1338.65 Q2189.2 1337.79 2189.17 1336.78 L2189.17 1326.4 Q2189.17 1325.39 2188.63 1324.55 Q2186.55 1321.51 2183.17 1321.51 Q2179.64 1321.51 2177.44 1324.75 Q2175.88 1327.17 2175.88 1331.94 Z" fill="#000000" fill-rule="nonzero" fill-opacity="1" /><path clip-path="url(#clip430)" d="M2203.03 1330.11 Q2203.03 1321.56 2206.22 1314.67 Q2207.57 1311.78 2209.48 1309.36 Q2211.38 1306.94 2212.64 1305.87 Q2213.9 1304.81 2214.24 1304.81 Q2214.74 1304.81 2214.76 1305.31 Q2214.76 1305.55 2214.1 1306.17 Q2205.94 1314.47 2205.97 1330.11 Q2205.97 1345.79 2213.9 1353.77 Q2214.76 1354.64 2214.76 1354.91 Q2214.76 1355.4 2214.24 1355.4 Q2213.9 1355.4 2212.69 1354.39 Q2211.48 1353.38 2209.6 1351.06 Q2207.72 1348.73 2206.36 1345.89 Q2203.03 1339 2203.03 1330.11 Z" fill="#000000" fill-rule="nonzero" fill-opacity="1" /><path clip-path="url(#clip430)" d="M2219.46 1322.57 Q2219.46 1321.46 2220.32 1320.67 Q2221.21 1319.88 2222.27 1319.88 Q2222.99 1319.88 2223.56 1320.2 Q2224.15 1320.5 2224.52 1321.09 Q2224.92 1321.66 2225.16 1322.25 Q2225.41 1322.82 2225.58 1323.68 Q2225.78 1324.55 2225.86 1325.07 Q2225.93 1325.56 2226 1326.33 Q2226.08 1327.07 2226.08 1327.22 Q2226.37 1326.15 2226.84 1325.09 Q2227.34 1324.03 2228.2 1322.75 Q2229.07 1321.46 2230.38 1320.65 Q2231.69 1319.83 2233.22 1319.83 Q2236.06 1319.83 2238.4 1322.97 Q2240.75 1326.11 2240.75 1332.63 L2240.75 1354.29 Q2240.75 1355.21 2240.36 1355.72 Q2239.99 1356.27 2239.64 1356.39 Q2239.29 1356.52 2238.87 1356.52 Q2238.16 1356.52 2237.54 1356 Q2236.95 1355.5 2236.95 1354.29 Q2236.95 1350.71 2238.21 1343.2 Q2239.49 1335.71 2239.49 1332.03 Q2239.49 1326.72 2236.95 1324.55 Q2235.69 1323.44 2234.28 1323.44 Q2233.02 1323.44 2232.01 1324.43 Q2230.99 1325.41 2230.3 1326.9 Q2229.61 1328.38 2228.97 1330.9 Q2228.35 1333.39 2227.95 1335.64 Q2227.58 1337.89 2227.14 1341.2 Q2226.89 1343.82 2225.06 1343.82 Q2224.4 1343.82 2223.8 1343.37 Q2223.24 1342.95 2223.24 1342.09 Q2223.24 1340.83 2224.03 1336.11 Q2224.82 1331.37 2224.82 1330.97 Q2224.82 1326.72 2224.27 1325.22 Q2223.76 1323.68 2222.64 1323.17 Q2222.08 1324.23 2221.11 1324.23 Q2220.4 1324.23 2219.93 1323.76 Q2219.46 1323.29 2219.46 1322.57 Z" fill="#000000" fill-rule="nonzero" fill-opacity="1" /><path clip-path="url(#clip430)" d="M2245.82 1354.91 Q2245.82 1354.66 2246.46 1354.04 Q2254.61 1345.74 2254.61 1330.11 Q2254.61 1314.42 2246.78 1306.49 Q2245.82 1305.58 2245.82 1305.31 Q2245.82 1304.81 2246.31 1304.81 Q2246.66 1304.81 2247.87 1305.82 Q2249.1 1306.84 2250.95 1309.16 Q2252.83 1311.48 2254.21 1314.32 Q2257.55 1321.21 2257.55 1330.11 Q2257.55 1338.65 2254.36 1345.55 Q2253 1348.44 2251.1 1350.86 Q2249.2 1353.28 2247.94 1354.34 Q2246.68 1355.4 2246.31 1355.4 Q2245.82 1355.4 2245.82 1354.91 Z" fill="#000000" fill-rule="nonzero" fill-opacity="1" /></svg>
