<?xml version="1.0" encoding="utf-8"?>
<svg xmlns="http://www.w3.org/2000/svg" xmlns:xlink="http://www.w3.org/1999/xlink" width="600" height="400" viewBox="0 0 2400 1600">
<defs>
  <clipPath id="clip630">
    <rect x="0" y="0" width="2400" height="1600"/>
  </clipPath>
</defs>
<path clip-path="url(#clip630)" d="M0 1600 L2400 1600 L2400 0 L0 0  Z" fill="#ffffff" fill-rule="evenodd" fill-opacity="1"/>
<defs>
  <clipPath id="clip631">
    <rect x="480" y="0" width="1681" height="1600"/>
  </clipPath>
</defs>
<path clip-path="url(#clip630)" d="M211.475 1423.18 L2352.76 1423.18 L2352.76 47.2441 L211.475 47.2441  Z" fill="#ffffff" fill-rule="evenodd" fill-opacity="1"/>
<defs>
  <clipPath id="clip632">
    <rect x="211" y="47" width="2142" height="1377"/>
  </clipPath>
</defs>
<polyline clip-path="url(#clip632)" style="stroke:#000000; stroke-linecap:round; stroke-linejoin:round; stroke-width:2; stroke-opacity:0.1; fill:none" points="611.688,1423.18 611.688,47.2441 "/>
<polyline clip-path="url(#clip632)" style="stroke:#000000; stroke-linecap:round; stroke-linejoin:round; stroke-width:2; stroke-opacity:0.1; fill:none" points="1047.27,1423.18 1047.27,47.2441 "/>
<polyline clip-path="url(#clip632)" style="stroke:#000000; stroke-linecap:round; stroke-linejoin:round; stroke-width:2; stroke-opacity:0.1; fill:none" points="1482.85,1423.18 1482.85,47.2441 "/>
<polyline clip-path="url(#clip632)" style="stroke:#000000; stroke-linecap:round; stroke-linejoin:round; stroke-width:2; stroke-opacity:0.1; fill:none" points="1918.43,1423.18 1918.43,47.2441 "/>
<polyline clip-path="url(#clip630)" style="stroke:#000000; stroke-linecap:round; stroke-linejoin:round; stroke-width:4; stroke-opacity:1; fill:none" points="211.475,1423.18 2352.76,1423.18 "/>
<polyline clip-path="url(#clip630)" style="stroke:#000000; stroke-linecap:round; stroke-linejoin:round; stroke-width:4; stroke-opacity:1; fill:none" points="611.688,1423.18 611.688,1404.28 "/>
<polyline clip-path="url(#clip630)" style="stroke:#000000; stroke-linecap:round; stroke-linejoin:round; stroke-width:4; stroke-opacity:1; fill:none" points="1047.27,1423.18 1047.27,1404.28 "/>
<polyline clip-path="url(#clip630)" style="stroke:#000000; stroke-linecap:round; stroke-linejoin:round; stroke-width:4; stroke-opacity:1; fill:none" points="1482.85,1423.18 1482.85,1404.28 "/>
<polyline clip-path="url(#clip630)" style="stroke:#000000; stroke-linecap:round; stroke-linejoin:round; stroke-width:4; stroke-opacity:1; fill:none" points="1918.43,1423.18 1918.43,1404.28 "/>
<path clip-path="url(#clip630)" d="M600.472 1477.23 L600.472 1475.67 L616.011 1451.93 Q616.406 1451.32 617.024 1451.34 Q617.592 1451.34 617.715 1451.56 Q617.839 1451.79 617.839 1452.65 L617.839 1475.67 L622.903 1475.67 L622.903 1477.23 L617.839 1477.23 L617.839 1481.63 Q617.839 1483.08 618.432 1483.55 Q619.049 1484.02 621.668 1484.02 L622.73 1484.02 L622.73 1485.58 Q620.655 1485.43 615.862 1485.43 Q611.095 1485.43 609.02 1485.58 L609.02 1484.02 L610.082 1484.02 Q612.7 1484.02 613.318 1483.58 Q613.936 1483.11 613.936 1481.63 L613.936 1477.23 L600.472 1477.23 M601.905 1475.67 L614.232 1475.67 L614.232 1456.8 L601.905 1475.67 Z" fill="#000000" fill-rule="nonzero" fill-opacity="1" /><path clip-path="url(#clip630)" d="M1036.77 1469.6 Q1036.77 1461.64 1040.82 1456.78 Q1044.87 1451.88 1050.09 1451.88 Q1053.12 1451.88 1054.8 1453.44 Q1056.51 1454.97 1056.51 1457.34 Q1056.51 1458.65 1055.74 1459.22 Q1054.98 1459.79 1054.19 1459.79 Q1053.27 1459.79 1052.56 1459.17 Q1051.84 1458.55 1051.84 1457.44 Q1051.84 1455.17 1054.63 1455.17 Q1053.32 1453.14 1050.18 1453.14 Q1049.22 1453.14 1048.23 1453.44 Q1047.24 1453.71 1045.96 1454.65 Q1044.68 1455.59 1043.69 1457.07 Q1042.7 1458.55 1042.01 1461.35 Q1041.32 1464.14 1041.32 1467.77 L1041.32 1468.98 Q1043.39 1463.96 1047.64 1463.99 Q1051.89 1463.99 1054.83 1467.23 Q1057.77 1470.46 1057.77 1475.25 Q1057.77 1480.17 1054.71 1483.43 Q1051.64 1486.69 1047.34 1486.69 Q1045.42 1486.69 1043.66 1485.88 Q1041.93 1485.09 1040.3 1483.26 Q1038.7 1481.43 1037.73 1477.92 Q1036.77 1474.41 1036.77 1469.6 M1041.41 1474.14 Q1041.41 1479.11 1042.33 1481.48 Q1042.48 1481.87 1042.8 1482.42 Q1043.14 1482.96 1043.71 1483.68 Q1044.31 1484.37 1045.27 1484.84 Q1046.23 1485.28 1047.34 1485.28 Q1050.73 1485.28 1052.36 1482 Q1053.22 1480.17 1053.22 1475.2 Q1053.22 1470.14 1052.31 1468.29 Q1050.75 1465.15 1047.59 1465.15 Q1045.47 1465.15 1043.98 1466.61 Q1042.53 1468.07 1041.96 1470.02 Q1041.41 1471.97 1041.41 1474.14 Z" fill="#000000" fill-rule="nonzero" fill-opacity="1" /><path clip-path="url(#clip630)" d="M1472.35 1477.95 Q1472.35 1472.29 1479.64 1468.63 Q1476.5 1466.51 1475.93 1465.89 Q1473.71 1463.42 1473.71 1460.33 Q1473.71 1456.8 1476.38 1454.35 Q1479.07 1451.88 1482.88 1451.88 Q1486.51 1451.88 1489.25 1453.98 Q1491.99 1456.08 1491.99 1459.42 Q1491.99 1464.11 1485.87 1467.27 Q1489.92 1469.79 1490.88 1470.86 Q1493.35 1473.6 1493.35 1477.08 Q1493.35 1481.13 1490.24 1483.92 Q1487.13 1486.69 1482.83 1486.69 Q1478.63 1486.69 1475.49 1484.25 Q1472.35 1481.8 1472.35 1477.95 M1474.87 1477.95 Q1474.87 1481.08 1477.22 1483.18 Q1479.59 1485.28 1482.88 1485.28 Q1486.06 1485.28 1488.43 1483.46 Q1490.83 1481.63 1490.83 1478.91 Q1490.83 1477.85 1490.46 1476.93 Q1490.11 1476.02 1489.4 1475.3 Q1488.71 1474.56 1488.26 1474.24 Q1487.84 1473.9 1487.03 1473.33 L1480.8 1469.4 Q1474.87 1472.68 1474.87 1477.95 M1475.93 1458.36 Q1475.93 1460.78 1478.48 1462.46 L1484.75 1466.51 Q1489.77 1463.57 1489.77 1459.42 Q1489.77 1456.73 1487.72 1454.95 Q1485.67 1453.14 1482.83 1453.14 Q1480.04 1453.14 1477.98 1454.63 Q1475.93 1456.08 1475.93 1458.36 Z" fill="#000000" fill-rule="nonzero" fill-opacity="1" /><path clip-path="url(#clip630)" d="M1896.4 1456.7 L1896.4 1455.12 Q1902.48 1455.12 1905.61 1451.88 Q1906.48 1451.88 1906.63 1452.08 Q1906.77 1452.28 1906.77 1453.19 L1906.77 1481.58 Q1906.77 1483.08 1907.51 1483.55 Q1908.26 1484.02 1911.49 1484.02 L1913.1 1484.02 L1913.1 1485.58 Q1911.32 1485.43 1904.9 1485.43 Q1898.47 1485.43 1896.72 1485.58 L1896.72 1484.02 L1898.32 1484.02 Q1901.51 1484.02 1902.28 1483.58 Q1903.04 1483.11 1903.04 1481.58 L1903.04 1455.37 Q1900.4 1456.7 1896.4 1456.7 Z" fill="#000000" fill-rule="nonzero" fill-opacity="1" /><path clip-path="url(#clip630)" d="M1919.17 1469.4 Q1919.17 1461.96 1921.05 1457.91 Q1923.67 1451.88 1929.85 1451.88 Q1931.16 1451.88 1932.51 1452.26 Q1933.9 1452.6 1935.63 1453.96 Q1937.38 1455.32 1938.44 1457.54 Q1940.47 1461.84 1940.47 1469.4 Q1940.47 1476.79 1938.59 1480.81 Q1935.85 1486.69 1929.8 1486.69 Q1927.52 1486.69 1925.2 1485.53 Q1922.9 1484.37 1921.45 1481.58 Q1919.17 1477.4 1919.17 1469.4 M1923.37 1468.78 Q1923.37 1476.41 1923.92 1479.45 Q1924.54 1482.74 1926.21 1484.17 Q1927.92 1485.58 1929.8 1485.58 Q1931.82 1485.58 1933.5 1484.07 Q1935.21 1482.54 1935.73 1479.26 Q1936.29 1476.02 1936.27 1468.78 Q1936.27 1461.74 1935.78 1458.92 Q1935.11 1455.64 1933.33 1454.33 Q1931.58 1453 1929.8 1453 Q1929.13 1453 1928.41 1453.19 Q1927.72 1453.39 1926.71 1453.96 Q1925.7 1454.53 1924.91 1455.94 Q1924.14 1457.34 1923.77 1459.47 Q1923.37 1462.21 1923.37 1468.78 Z" fill="#000000" fill-rule="nonzero" fill-opacity="1" /><path clip-path="url(#clip630)" d="M1249.33 1511.94 Q1249.33 1512.55 1249.2 1513.07 L1247.39 1524.53 Q1247.3 1525.4 1247.1 1525.72 Q1246.94 1526.05 1246.43 1526.05 Q1245.62 1526.05 1245.62 1525.21 Q1245.62 1524.72 1245.81 1523.95 Q1246.36 1520.31 1246.36 1518.67 Q1246.36 1517.58 1246.14 1516.77 Q1245.94 1515.93 1245.62 1515.35 Q1245.33 1514.77 1244.66 1514.39 Q1243.98 1514 1243.34 1513.77 Q1242.69 1513.55 1241.53 1513.45 Q1240.37 1513.32 1239.37 1513.29 Q1238.38 1513.26 1236.73 1513.26 Q1233.16 1513.26 1232.58 1513.39 Q1231.97 1513.55 1231.64 1514.03 Q1231.35 1514.48 1231.03 1515.84 L1222.27 1550.84 L1222.01 1552.23 Q1222.01 1553 1222.5 1553.26 Q1222.98 1553.52 1224.46 1553.68 Q1226.59 1553.84 1228.68 1553.84 Q1228.75 1553.84 1228.87 1553.84 Q1229.58 1553.84 1229.87 1553.87 Q1230.16 1553.87 1230.45 1553.94 Q1230.74 1554 1230.81 1554.16 Q1230.9 1554.29 1230.9 1554.55 Q1230.9 1555.16 1230.65 1555.48 Q1230.39 1555.77 1230.13 1555.84 Q1229.91 1555.87 1229.45 1555.87 Q1228.55 1555.87 1226.62 1555.8 Q1224.69 1555.74 1223.72 1555.74 L1218.25 1555.67 L1212.64 1555.74 Q1211.77 1555.74 1209.94 1555.8 Q1208.1 1555.87 1207.23 1555.87 Q1206.11 1555.87 1206.11 1555.06 Q1206.11 1554.16 1206.52 1554 Q1206.97 1553.84 1208.87 1553.84 Q1211.55 1553.84 1213 1553.71 Q1214.45 1553.58 1215.22 1553.13 Q1216.02 1552.68 1216.25 1552.23 Q1216.48 1551.75 1216.73 1550.65 L1225.59 1515.45 Q1225.85 1514.68 1225.85 1514.06 Q1225.85 1513.74 1225.75 1513.61 Q1225.69 1513.48 1225.27 1513.39 Q1224.85 1513.26 1223.98 1513.26 L1221.4 1513.26 Q1218.76 1513.26 1217.12 1513.39 Q1215.51 1513.48 1213.96 1513.97 Q1212.45 1514.45 1211.55 1515.13 Q1210.68 1515.8 1209.71 1517.19 Q1208.75 1518.57 1208.04 1520.25 Q1207.36 1521.92 1206.39 1524.66 Q1206.07 1525.56 1205.88 1525.82 Q1205.72 1526.05 1205.27 1526.05 Q1204.95 1526.05 1204.69 1525.85 Q1204.46 1525.63 1204.46 1525.34 Q1204.78 1524.27 1204.85 1524.15 L1208.81 1512.52 Q1209.13 1511.58 1209.42 1511.42 Q1209.74 1511.23 1210.94 1511.23 L1247.52 1511.23 Q1248.1 1511.23 1248.29 1511.23 Q1248.49 1511.23 1248.81 1511.29 Q1249.13 1511.36 1249.23 1511.52 Q1249.33 1511.68 1249.33 1511.94 Z" fill="#000000" fill-rule="nonzero" fill-opacity="1" /><path clip-path="url(#clip630)" d="M1275.7 1555.39 Q1275.7 1557.85 1274.61 1560.29 Q1273.53 1562.7 1271.8 1564.5 Q1270.08 1566.28 1267.83 1567.41 Q1265.57 1568.51 1263.32 1568.51 Q1260.1 1568.51 1258 1566.33 Q1255.92 1564.12 1255.92 1560.69 Q1255.92 1557.49 1257.71 1554.45 Q1259.51 1551.38 1262.39 1549.49 Q1265.28 1547.59 1268.3 1547.59 Q1271.48 1547.59 1273.58 1549.73 Q1275.7 1551.88 1275.7 1555.39 M1272.31 1553.59 Q1272.31 1551.4 1271.25 1550.01 Q1270.19 1548.61 1268.26 1548.61 Q1267.69 1548.61 1267.04 1548.79 Q1266.38 1548.95 1265.53 1549.37 Q1264.69 1549.8 1263.75 1550.7 Q1262.82 1551.58 1262.01 1552.85 Q1260.95 1554.51 1260.14 1557.58 Q1259.35 1560.62 1259.35 1562.45 Q1259.35 1564.97 1260.52 1566.24 Q1261.7 1567.48 1263.36 1567.48 Q1264.99 1567.48 1266.7 1566.35 Q1268.44 1565.2 1269.63 1563.24 Q1270.83 1561.21 1271.57 1558.23 Q1272.31 1555.24 1272.31 1553.59 Z" fill="#000000" fill-rule="nonzero" fill-opacity="1" /><path clip-path="url(#clip630)" d="M1299.97 1572.36 L1299.97 1506.4 L1309.93 1506.4 L1309.93 1507.91 L1304.39 1507.91 L1304.39 1570.84 L1309.93 1570.84 L1309.93 1572.36 L1299.97 1572.36 Z" fill="#000000" fill-rule="nonzero" fill-opacity="1" /><path clip-path="url(#clip630)" d="M1336.86 1532.39 Q1336.86 1534.19 1335.96 1535.16 Q1335.06 1536.09 1333.84 1536.09 Q1332.84 1536.09 1332.29 1535.51 Q1331.77 1534.93 1331.77 1534.16 Q1331.77 1533.03 1332.68 1532.13 Q1333.61 1531.23 1334.96 1531.2 Q1334.51 1530.01 1333.32 1529.3 Q1332.13 1528.56 1331.07 1528.36 Q1330.04 1528.17 1329 1528.17 Q1326.98 1528.17 1325.43 1528.81 Q1323.88 1529.46 1323.11 1530.46 Q1322.34 1531.42 1321.98 1532.36 Q1321.63 1533.29 1321.63 1534.1 Q1321.63 1534.81 1321.79 1535.38 Q1321.98 1535.93 1322.43 1536.35 Q1322.89 1536.74 1323.21 1537 Q1323.56 1537.25 1324.33 1537.48 Q1325.11 1537.7 1325.43 1537.8 Q1325.75 1537.86 1326.65 1538.06 Q1328.52 1538.44 1329.36 1538.67 Q1330.2 1538.86 1331.29 1539.41 Q1332.42 1539.96 1333.26 1540.83 Q1335.28 1542.86 1335.28 1545.66 Q1335.28 1546.69 1334.93 1547.95 Q1334.61 1549.2 1333.67 1550.78 Q1332.74 1552.36 1331.32 1553.61 Q1329.91 1554.87 1327.46 1555.74 Q1325.04 1556.61 1322.02 1556.61 Q1317.8 1556.61 1315.19 1554.84 Q1312.58 1553.03 1312.58 1550.2 Q1312.58 1548.14 1313.71 1547.01 Q1314.83 1545.85 1316.28 1545.85 Q1317.38 1545.85 1318.05 1546.46 Q1318.73 1547.04 1318.73 1548.14 Q1318.73 1549.62 1317.54 1550.75 Q1316.35 1551.87 1314.58 1551.65 Q1316.09 1555.13 1322.08 1555.13 Q1324.33 1555.13 1326.07 1554.55 Q1327.85 1553.94 1328.81 1553.1 Q1329.81 1552.23 1330.45 1551.17 Q1331.1 1550.1 1331.29 1549.3 Q1331.52 1548.49 1331.52 1547.88 Q1331.52 1546.82 1331.1 1546.01 Q1330.68 1545.21 1330.1 1544.76 Q1329.55 1544.27 1328.49 1543.89 Q1327.46 1543.47 1326.72 1543.31 Q1325.98 1543.15 1324.66 1542.89 Q1324.04 1542.76 1323.66 1542.7 Q1323.27 1542.6 1322.47 1542.34 Q1321.69 1542.05 1321.15 1541.76 Q1320.63 1541.47 1319.95 1540.96 Q1319.28 1540.44 1318.86 1539.83 Q1318.44 1539.22 1318.15 1538.32 Q1317.86 1537.41 1317.86 1536.35 Q1317.86 1535.38 1318.15 1534.23 Q1318.47 1533.07 1319.28 1531.71 Q1320.12 1530.36 1321.31 1529.27 Q1322.5 1528.17 1324.5 1527.46 Q1326.52 1526.72 1329 1526.72 Q1332.61 1526.72 1334.74 1528.4 Q1336.86 1530.04 1336.86 1532.39 Z" fill="#000000" fill-rule="nonzero" fill-opacity="1" /><path clip-path="url(#clip630)" d="M1341.62 1570.84 L1347.16 1570.84 L1347.16 1507.91 L1341.62 1507.91 L1341.62 1506.4 L1351.57 1506.4 L1351.57 1572.36 L1341.62 1572.36 L1341.62 1570.84 Z" fill="#000000" fill-rule="nonzero" fill-opacity="1" /><polyline clip-path="url(#clip632)" style="stroke:#000000; stroke-linecap:round; stroke-linejoin:round; stroke-width:2; stroke-opacity:0.1; fill:none" points="211.475,1381.92 2352.76,1381.92 "/>
<polyline clip-path="url(#clip632)" style="stroke:#000000; stroke-linecap:round; stroke-linejoin:round; stroke-width:2; stroke-opacity:0.1; fill:none" points="211.475,1038.04 2352.76,1038.04 "/>
<polyline clip-path="url(#clip632)" style="stroke:#000000; stroke-linecap:round; stroke-linejoin:round; stroke-width:2; stroke-opacity:0.1; fill:none" points="211.475,694.162 2352.76,694.162 "/>
<polyline clip-path="url(#clip632)" style="stroke:#000000; stroke-linecap:round; stroke-linejoin:round; stroke-width:2; stroke-opacity:0.1; fill:none" points="211.475,350.283 2352.76,350.283 "/>
<polyline clip-path="url(#clip630)" style="stroke:#000000; stroke-linecap:round; stroke-linejoin:round; stroke-width:4; stroke-opacity:1; fill:none" points="211.475,1423.18 211.475,47.2441 "/>
<polyline clip-path="url(#clip630)" style="stroke:#000000; stroke-linecap:round; stroke-linejoin:round; stroke-width:4; stroke-opacity:1; fill:none" points="211.475,1381.92 230.373,1381.92 "/>
<polyline clip-path="url(#clip630)" style="stroke:#000000; stroke-linecap:round; stroke-linejoin:round; stroke-width:4; stroke-opacity:1; fill:none" points="211.475,1038.04 230.373,1038.04 "/>
<polyline clip-path="url(#clip630)" style="stroke:#000000; stroke-linecap:round; stroke-linejoin:round; stroke-width:4; stroke-opacity:1; fill:none" points="211.475,694.162 230.373,694.162 "/>
<polyline clip-path="url(#clip630)" style="stroke:#000000; stroke-linecap:round; stroke-linejoin:round; stroke-width:4; stroke-opacity:1; fill:none" points="211.475,350.283 230.373,350.283 "/>
<path clip-path="url(#clip630)" d="M115.915 1399.2 Q115.915 1398.29 115.989 1398.01 Q116.088 1397.74 116.483 1397.32 L126.192 1386.5 Q131.503 1380.52 131.503 1375.31 Q131.503 1371.93 129.724 1369.51 Q127.971 1367.09 124.734 1367.09 Q122.511 1367.09 120.634 1368.44 Q118.756 1369.8 117.892 1372.22 Q118.04 1372.18 118.559 1372.18 Q119.818 1372.18 120.51 1372.97 Q121.227 1373.76 121.227 1374.82 Q121.227 1376.18 120.337 1376.84 Q119.473 1377.49 118.608 1377.49 Q118.262 1377.49 117.793 1377.41 Q117.348 1377.34 116.632 1376.65 Q115.915 1375.93 115.915 1374.67 Q115.915 1371.14 118.583 1368.32 Q121.276 1365.51 125.377 1365.51 Q130.021 1365.51 133.059 1368.27 Q136.123 1371.01 136.123 1375.31 Q136.123 1376.82 135.653 1378.2 Q135.209 1379.56 134.591 1380.62 Q133.998 1381.69 132.368 1383.39 Q130.737 1385.09 129.428 1386.31 Q128.119 1387.52 125.179 1390.09 L119.818 1395.3 L128.934 1395.3 Q133.381 1395.3 133.726 1394.9 Q134.22 1394.19 134.838 1390.41 L136.123 1390.41 L134.69 1399.2 L115.915 1399.2 Z" fill="#000000" fill-rule="nonzero" fill-opacity="1" /><path clip-path="url(#clip630)" d="M143.756 1398.39 Q142.99 1397.57 142.99 1396.51 Q142.99 1395.45 143.756 1394.68 Q144.522 1393.89 145.683 1393.89 Q146.794 1393.89 147.536 1394.63 Q148.301 1395.35 148.301 1396.53 Q148.301 1397.69 147.486 1398.46 Q146.696 1399.2 145.683 1399.2 Q144.522 1399.2 143.756 1398.39 Z" fill="#000000" fill-rule="nonzero" fill-opacity="1" /><path clip-path="url(#clip630)" d="M155.268 1391.05 Q155.268 1389.54 156.083 1388.97 Q156.898 1388.38 157.763 1388.38 Q158.924 1388.38 159.591 1389.12 Q160.283 1389.84 160.283 1390.85 Q160.283 1391.86 159.591 1392.6 Q158.924 1393.32 157.763 1393.32 Q157.195 1393.32 156.898 1393.22 Q157.565 1395.54 159.591 1397.22 Q161.641 1398.9 164.334 1398.9 Q167.718 1398.9 169.744 1395.62 Q170.954 1393.49 170.954 1388.68 Q170.954 1384.43 170.04 1382.3 Q168.632 1379.07 165.742 1379.07 Q161.641 1379.07 159.22 1382.6 Q158.924 1383.04 158.578 1383.07 Q158.084 1383.07 157.96 1382.8 Q157.862 1382.5 157.862 1381.74 L157.862 1366.77 Q157.862 1365.55 158.356 1365.55 Q158.553 1365.55 158.973 1365.7 Q162.16 1367.11 165.693 1367.14 Q169.324 1367.14 172.585 1365.65 Q172.832 1365.51 172.98 1365.51 Q173.474 1365.51 173.499 1366.07 Q173.499 1366.27 173.079 1366.86 Q172.684 1367.43 171.819 1368.2 Q170.954 1368.94 169.843 1369.66 Q168.731 1370.37 167.101 1370.87 Q165.495 1371.34 163.716 1371.34 Q161.592 1371.34 159.418 1370.67 L159.418 1380.52 Q162.036 1377.96 165.841 1377.96 Q169.892 1377.96 172.684 1381.22 Q175.475 1384.48 175.475 1389.02 Q175.475 1393.79 172.165 1397.05 Q168.879 1400.31 164.433 1400.31 Q160.381 1400.31 157.812 1397.42 Q155.268 1394.53 155.268 1391.05 Z" fill="#000000" fill-rule="nonzero" fill-opacity="1" /><path clip-path="url(#clip630)" d="M114.977 1048.5 Q114.977 1047 115.841 1046.28 Q116.706 1045.56 117.817 1045.56 Q118.978 1045.56 119.794 1046.33 Q120.634 1047.07 120.634 1048.38 Q120.634 1049.79 119.645 1050.58 Q118.682 1051.37 117.299 1051.17 Q118.509 1053.2 120.732 1054.11 Q122.98 1055.02 125.056 1055.02 Q127.229 1055.02 128.983 1053.15 Q130.762 1051.27 130.762 1046.68 Q130.762 1042.77 129.23 1040.52 Q127.723 1038.28 124.734 1038.28 L122.511 1038.28 Q121.745 1038.28 121.523 1038.2 Q121.301 1038.13 121.301 1037.71 Q121.301 1037.21 122.066 1037.11 Q122.832 1037.11 124.043 1036.97 Q126.982 1036.87 128.539 1034.32 Q129.947 1031.95 129.947 1028.57 Q129.947 1025.48 128.465 1024.19 Q127.007 1022.89 125.105 1022.89 Q123.326 1022.89 121.375 1023.63 Q119.423 1024.37 118.361 1026.02 Q121.498 1026.02 121.498 1028.57 Q121.498 1029.68 120.782 1030.42 Q120.09 1031.14 118.929 1031.14 Q117.817 1031.14 117.076 1030.44 Q116.335 1029.73 116.335 1028.52 Q116.335 1025.63 118.904 1023.63 Q121.498 1021.63 125.303 1021.63 Q129.057 1021.63 131.824 1023.6 Q134.616 1025.58 134.616 1028.62 Q134.616 1031.61 132.639 1034.05 Q130.663 1036.5 127.526 1037.51 Q131.38 1038.28 133.677 1040.89 Q135.974 1043.49 135.974 1046.68 Q135.974 1050.63 132.862 1053.54 Q129.749 1056.43 125.204 1056.43 Q121.004 1056.43 117.99 1054.16 Q114.977 1051.89 114.977 1048.5 Z" fill="#000000" fill-rule="nonzero" fill-opacity="1" /><path clip-path="url(#clip630)" d="M143.212 1054.51 Q142.447 1053.69 142.447 1052.63 Q142.447 1051.57 143.212 1050.8 Q143.978 1050.01 145.139 1050.01 Q146.251 1050.01 146.992 1050.75 Q147.758 1051.47 147.758 1052.65 Q147.758 1053.81 146.943 1054.58 Q146.152 1055.32 145.139 1055.32 Q143.978 1055.32 143.212 1054.51 Z" fill="#000000" fill-rule="nonzero" fill-opacity="1" /><path clip-path="url(#clip630)" d="M154.181 1039.14 Q154.181 1031.7 156.058 1027.65 Q158.677 1021.63 164.853 1021.63 Q166.162 1021.63 167.521 1022 Q168.904 1022.34 170.633 1023.7 Q172.387 1025.06 173.449 1027.28 Q175.475 1031.58 175.475 1039.14 Q175.475 1046.53 173.598 1050.55 Q170.856 1056.43 164.803 1056.43 Q162.531 1056.43 160.208 1055.27 Q157.911 1054.11 156.453 1051.32 Q154.181 1047.14 154.181 1039.14 M158.38 1038.52 Q158.38 1046.16 158.924 1049.19 Q159.541 1052.48 161.221 1053.91 Q162.926 1055.32 164.803 1055.32 Q166.829 1055.32 168.509 1053.81 Q170.213 1052.28 170.732 1049 Q171.3 1045.76 171.276 1038.52 Q171.276 1031.48 170.781 1028.67 Q170.114 1025.38 168.336 1024.07 Q166.582 1022.74 164.803 1022.74 Q164.136 1022.74 163.42 1022.94 Q162.728 1023.13 161.715 1023.7 Q160.702 1024.27 159.912 1025.68 Q159.146 1027.09 158.776 1029.21 Q158.38 1031.95 158.38 1038.52 Z" fill="#000000" fill-rule="nonzero" fill-opacity="1" /><path clip-path="url(#clip630)" d="M115.52 704.624 Q115.52 703.117 116.385 702.4 Q117.249 701.684 118.361 701.684 Q119.522 701.684 120.337 702.45 Q121.177 703.191 121.177 704.5 Q121.177 705.908 120.189 706.699 Q119.226 707.489 117.842 707.292 Q119.053 709.317 121.276 710.231 Q123.524 711.145 125.599 711.145 Q127.773 711.145 129.527 709.268 Q131.305 707.391 131.305 702.796 Q131.305 698.893 129.774 696.645 Q128.267 694.397 125.278 694.397 L123.055 694.397 Q122.289 694.397 122.066 694.322 Q121.844 694.248 121.844 693.828 Q121.844 693.334 122.61 693.236 Q123.376 693.236 124.586 693.087 Q127.526 692.988 129.082 690.444 Q130.49 688.073 130.49 684.688 Q130.49 681.6 129.008 680.316 Q127.551 679.006 125.648 679.006 Q123.87 679.006 121.918 679.747 Q119.967 680.489 118.904 682.144 Q122.042 682.144 122.042 684.688 Q122.042 685.8 121.325 686.541 Q120.634 687.257 119.473 687.257 Q118.361 687.257 117.62 686.566 Q116.879 685.849 116.879 684.639 Q116.879 681.748 119.448 679.747 Q122.042 677.747 125.846 677.747 Q129.601 677.747 132.368 679.723 Q135.159 681.699 135.159 684.738 Q135.159 687.727 133.183 690.172 Q131.207 692.618 128.069 693.631 Q131.923 694.397 134.22 697.015 Q136.518 699.609 136.518 702.796 Q136.518 706.748 133.405 709.663 Q130.293 712.554 125.747 712.554 Q121.548 712.554 118.534 710.281 Q115.52 708.008 115.52 704.624 Z" fill="#000000" fill-rule="nonzero" fill-opacity="1" /><path clip-path="url(#clip630)" d="M143.756 710.627 Q142.99 709.811 142.99 708.749 Q142.99 707.687 143.756 706.921 Q144.522 706.131 145.683 706.131 Q146.794 706.131 147.536 706.872 Q148.301 707.588 148.301 708.774 Q148.301 709.935 147.486 710.701 Q146.696 711.442 145.683 711.442 Q144.522 711.442 143.756 710.627 Z" fill="#000000" fill-rule="nonzero" fill-opacity="1" /><path clip-path="url(#clip630)" d="M155.268 703.29 Q155.268 701.783 156.083 701.215 Q156.898 700.622 157.763 700.622 Q158.924 700.622 159.591 701.363 Q160.283 702.079 160.283 703.092 Q160.283 704.105 159.591 704.846 Q158.924 705.562 157.763 705.562 Q157.195 705.562 156.898 705.464 Q157.565 707.786 159.591 709.466 Q161.641 711.145 164.334 711.145 Q167.718 711.145 169.744 707.86 Q170.954 705.735 170.954 700.918 Q170.954 696.669 170.04 694.545 Q168.632 691.309 165.742 691.309 Q161.641 691.309 159.22 694.841 Q158.924 695.286 158.578 695.311 Q158.084 695.311 157.96 695.039 Q157.862 694.742 157.862 693.977 L157.862 679.006 Q157.862 677.796 158.356 677.796 Q158.553 677.796 158.973 677.944 Q162.16 679.352 165.693 679.377 Q169.324 679.377 172.585 677.895 Q172.832 677.747 172.98 677.747 Q173.474 677.747 173.499 678.315 Q173.499 678.512 173.079 679.105 Q172.684 679.673 171.819 680.439 Q170.954 681.18 169.843 681.897 Q168.731 682.613 167.101 683.107 Q165.495 683.576 163.716 683.576 Q161.592 683.576 159.418 682.91 L159.418 692.766 Q162.036 690.197 165.841 690.197 Q169.892 690.197 172.684 693.458 Q175.475 696.719 175.475 701.264 Q175.475 706.032 172.165 709.293 Q168.879 712.554 164.433 712.554 Q160.381 712.554 157.812 709.663 Q155.268 706.773 155.268 703.29 Z" fill="#000000" fill-rule="nonzero" fill-opacity="1" /><path clip-path="url(#clip630)" d="M114.26 359.213 L114.26 357.657 L129.799 333.917 Q130.194 333.299 130.811 333.324 Q131.38 333.324 131.503 333.546 Q131.627 333.768 131.627 334.633 L131.627 357.657 L136.691 357.657 L136.691 359.213 L131.627 359.213 L131.627 363.61 Q131.627 365.068 132.219 365.537 Q132.837 366.006 135.456 366.006 L136.518 366.006 L136.518 367.563 Q134.443 367.414 129.65 367.414 Q124.883 367.414 122.808 367.563 L122.808 366.006 L123.87 366.006 Q126.488 366.006 127.106 365.562 Q127.723 365.092 127.723 363.61 L127.723 359.213 L114.26 359.213 M115.693 357.657 L128.02 357.657 L128.02 338.783 L115.693 357.657 Z" fill="#000000" fill-rule="nonzero" fill-opacity="1" /><path clip-path="url(#clip630)" d="M143.212 366.747 Q142.447 365.932 142.447 364.87 Q142.447 363.808 143.212 363.042 Q143.978 362.251 145.139 362.251 Q146.251 362.251 146.992 362.992 Q147.758 363.709 147.758 364.895 Q147.758 366.056 146.943 366.821 Q146.152 367.563 145.139 367.563 Q143.978 367.563 143.212 366.747 Z" fill="#000000" fill-rule="nonzero" fill-opacity="1" /><path clip-path="url(#clip630)" d="M154.181 351.382 Q154.181 343.946 156.058 339.895 Q158.677 333.867 164.853 333.867 Q166.162 333.867 167.521 334.238 Q168.904 334.584 170.633 335.942 Q172.387 337.301 173.449 339.524 Q175.475 343.823 175.475 351.382 Q175.475 358.768 173.598 362.795 Q170.856 368.674 164.803 368.674 Q162.531 368.674 160.208 367.513 Q157.911 366.352 156.453 363.561 Q154.181 359.386 154.181 351.382 M158.38 350.764 Q158.38 358.398 158.924 361.436 Q159.541 364.722 161.221 366.154 Q162.926 367.563 164.803 367.563 Q166.829 367.563 168.509 366.056 Q170.213 364.524 170.732 361.238 Q171.3 358.002 171.276 350.764 Q171.276 343.724 170.781 340.908 Q170.114 337.622 168.336 336.313 Q166.582 334.979 164.803 334.979 Q164.136 334.979 163.42 335.176 Q162.728 335.374 161.715 335.942 Q160.702 336.51 159.912 337.919 Q159.146 339.327 158.776 341.451 Q158.38 344.193 158.38 350.764 Z" fill="#000000" fill-rule="nonzero" fill-opacity="1" /><path clip-path="url(#clip630)" d="M64.7637 781.176 Q65.3756 781.176 65.6976 781.434 Q65.9875 781.66 66.0519 781.885 Q66.0841 782.078 66.0841 782.368 Q66.0841 783.205 65.9875 786.104 Q65.8909 789.003 65.8909 789.84 Q65.8909 791.192 65.9875 793.962 Q66.0841 796.732 66.0841 798.085 Q66.0841 798.986 65.3434 798.986 Q64.8603 798.986 64.6026 798.89 Q64.3128 798.793 64.2162 798.535 Q64.0873 798.246 64.0873 798.085 Q64.0551 797.891 64.0551 797.408 Q64.0551 796.764 63.9907 796.088 Q63.8941 795.411 63.7009 794.574 Q63.5076 793.737 63.0245 793.221 Q62.5415 792.674 61.8651 792.674 Q61.5753 792.674 59.192 792.899 Q56.8088 793.125 54.0391 793.415 Q51.2372 793.705 50.8507 793.737 L50.8507 810.291 Q53.4594 811.804 55.2629 812.867 Q57.0665 813.93 57.6784 814.316 Q58.2903 814.703 58.6767 814.928 Q59.0632 815.154 59.2887 815.282 Q60.9956 816.216 61.7363 816.216 Q63.7975 816.216 64.0551 813.125 Q64.0551 812.062 64.8281 812.062 Q65.4078 812.062 65.7298 812.32 Q66.0197 812.577 66.0519 812.803 Q66.0841 812.996 66.0841 813.318 Q66.0841 814.381 65.9875 816.603 Q65.8909 818.825 65.8909 819.92 Q65.8909 820.854 65.9875 822.786 Q66.0841 824.719 66.0841 825.588 Q66.0841 825.975 65.8587 826.2 Q65.6332 826.426 65.3434 826.426 Q64.8925 826.426 64.6348 826.361 Q64.3772 826.265 64.2484 826.007 Q64.1195 825.749 64.1195 825.621 Q64.0873 825.492 64.0551 825.041 Q63.8941 822.593 62.7347 820.693 Q61.5431 818.761 58.4835 816.925 L19.9653 793.994 Q19.5788 793.769 19.3856 793.608 Q19.1924 793.447 19.0313 793.125 Q18.8703 792.771 18.8703 792.255 Q18.8703 791.45 19.1279 791.289 Q19.3534 791.128 20.4484 791.031 L61.6719 787.006 Q62.5415 786.909 62.8957 786.845 Q63.2178 786.748 63.572 786.329 Q63.8941 785.879 63.9907 785.073 Q64.0551 784.236 64.0551 782.69 Q64.0551 782.11 64.0873 781.885 Q64.0873 781.66 64.2484 781.434 Q64.4094 781.176 64.7637 781.176 M48.7895 793.93 L27.0506 796.023 L48.7895 809.035 L48.7895 793.93 Z" fill="#000000" fill-rule="nonzero" fill-opacity="1" /><path clip-path="url(#clip630)" d="M65.6094 754.802 Q68.0667 754.802 70.5015 755.884 Q72.9137 756.966 74.7173 758.702 Q76.4982 760.416 77.6254 762.67 Q78.7301 764.924 78.7301 767.179 Q78.7301 770.403 76.5433 772.499 Q74.334 774.573 70.9073 774.573 Q67.706 774.573 64.6626 772.792 Q61.5966 770.989 59.7029 768.103 Q57.8092 765.217 57.8092 762.196 Q57.8092 759.018 59.9509 756.921 Q62.0926 754.802 65.6094 754.802 M63.8059 758.184 Q61.6191 758.184 60.2214 759.243 Q58.8237 760.303 58.8237 762.242 Q58.8237 762.805 59.004 763.459 Q59.1618 764.113 59.5902 764.969 Q60.0185 765.804 60.9203 766.75 Q61.7995 767.675 63.062 768.486 Q64.7302 769.546 67.7962 770.357 Q70.8397 771.147 72.6657 771.147 Q75.1907 771.147 76.4532 769.974 Q77.6931 768.802 77.6931 767.134 Q77.6931 765.51 76.5659 763.797 Q75.4161 762.061 73.4548 760.866 Q71.4258 759.672 68.45 758.928 Q65.4516 758.184 63.8059 758.184 Z" fill="#000000" fill-rule="nonzero" fill-opacity="1" /><path clip-path="url(#clip630)" d="M82.5735 730.524 L16.6159 730.524 L16.6159 720.573 L18.1296 720.573 L18.1296 726.112 L81.0598 726.112 L81.0598 720.573 L82.5735 720.573 L82.5735 730.524 Z" fill="#000000" fill-rule="nonzero" fill-opacity="1" /><path clip-path="url(#clip630)" d="M56.6478 665.197 Q56.9054 665.197 57.9038 665.486 Q58.9022 665.776 60.4481 666.485 Q61.994 667.161 63.411 668.127 Q64.7959 669.061 65.8264 670.607 Q66.8248 672.121 66.8248 673.86 Q66.8248 676.179 65.2789 677.725 Q63.7331 679.27 61.4142 679.27 Q60.1582 679.27 57.775 678.401 Q46.8894 674.311 42.9925 674.311 Q38.3871 674.311 38.3871 677.886 Q38.3871 679.915 39.2244 681.75 Q40.0618 683.586 41.2212 684.778 Q42.3806 685.969 43.701 686.903 Q45.0215 687.837 45.891 688.256 Q46.7606 688.642 47.147 688.739 L63.0567 692.7 Q64.4094 693.022 65.0535 693.248 Q65.6976 693.473 66.2451 694.085 Q66.8248 694.697 66.8248 695.663 Q66.8248 696.468 66.3417 697.048 Q65.8587 697.596 65.0213 697.596 Q64.8925 697.596 64.2162 697.435 Q63.5398 697.274 62.6059 697.048 Q61.6719 696.823 61.1244 696.726 Q56.7444 695.567 56.1325 695.406 L48.4675 693.57 Q44.6672 692.572 42.9925 692.572 Q38.3871 692.572 38.3871 696.146 Q38.3871 697.918 39.0634 699.592 Q39.7075 701.235 40.6093 702.362 Q41.511 703.489 42.7671 704.52 Q43.9909 705.518 44.8282 706.034 Q45.6334 706.517 46.4385 706.903 L49.7235 707.74 Q50.6253 707.934 54.1357 708.868 L60.0938 710.317 Q64.5382 711.348 64.9569 711.573 Q65.8587 711.895 66.3417 712.604 Q66.8248 713.312 66.8248 714.021 Q66.8248 714.826 66.3417 715.373 Q65.8587 715.921 65.0213 715.921 Q64.8925 715.921 64.4094 715.824 Q63.9263 715.728 63.25 715.566 Q62.5737 715.405 62.1872 715.341 L46.9538 711.509 Q44.1841 710.8 43.3146 710.639 Q42.4128 710.446 41.4144 710.446 Q38.3871 710.446 38.3871 712.507 Q38.3871 714.182 40.3838 715.277 Q42.3806 716.372 46.2453 717.306 Q47.3081 717.595 47.5335 717.789 Q47.759 717.95 47.759 718.433 Q47.7268 719.238 47.0826 719.238 Q46.9216 719.238 45.891 718.98 Q44.8604 718.723 43.3146 718.24 Q41.7365 717.724 40.7059 717.177 Q40.0296 716.855 39.5787 716.565 Q39.1278 716.275 38.4193 715.695 Q37.7107 715.116 37.3243 714.246 Q36.9378 713.376 36.9378 712.314 Q36.9378 709.963 38.4515 708.224 Q39.9651 706.452 42.6704 706.227 Q36.9378 701.943 36.9378 695.953 Q36.9378 692.572 38.6447 690.543 Q40.2872 688.642 43.3146 688.417 Q36.9378 683.973 36.9378 677.66 Q36.9378 674.021 38.8379 672.056 Q40.7059 670.092 43.9909 670.092 Q45.6978 670.092 48.9506 670.961 Q52.1712 671.831 53.7815 672.411 Q55.3917 672.99 58.4835 674.118 Q61.4465 675.309 63.1856 675.309 Q64.3128 675.309 64.8281 674.923 Q65.3434 674.536 65.3434 673.699 Q65.3434 672.411 64.6026 671.283 Q63.8297 670.156 62.5737 669.351 Q61.2854 668.514 59.9972 667.966 Q58.6767 667.419 57.1953 667 Q56.3901 666.742 56.1969 666.614 Q56.0037 666.453 56.0037 666.002 Q56.0037 665.197 56.6478 665.197 Z" fill="#000000" fill-rule="nonzero" fill-opacity="1" /><path clip-path="url(#clip630)" d="M81.0598 662.148 L81.0598 656.609 L18.1296 656.609 L18.1296 662.148 L16.6159 662.148 L16.6159 652.197 L82.5735 652.197 L82.5735 662.148 L81.0598 662.148 Z" fill="#000000" fill-rule="nonzero" fill-opacity="1" /><circle clip-path="url(#clip632)" cx="2292.15" cy="86.1857" r="7.2" fill="#ff0000" fill-rule="evenodd" fill-opacity="1" stroke="#000000" stroke-opacity="1" stroke-width="3.2"/>
<circle clip-path="url(#clip632)" cx="1573.51" cy="221.489" r="7.2" fill="#ff0000" fill-rule="evenodd" fill-opacity="1" stroke="#000000" stroke-opacity="1" stroke-width="3.2"/>
<circle clip-path="url(#clip632)" cx="272.077" cy="621.354" r="7.2" fill="#ff0000" fill-rule="evenodd" fill-opacity="1" stroke="#000000" stroke-opacity="1" stroke-width="3.2"/>
<circle clip-path="url(#clip632)" cx="644.921" cy="810.55" r="7.2" fill="#ff0000" fill-rule="evenodd" fill-opacity="1" stroke="#000000" stroke-opacity="1" stroke-width="3.2"/>
<circle clip-path="url(#clip632)" cx="1955.27" cy="975.639" r="7.2" fill="#ff0000" fill-rule="evenodd" fill-opacity="1" stroke="#000000" stroke-opacity="1" stroke-width="3.2"/>
<circle clip-path="url(#clip632)" cx="1244.56" cy="1384.24" r="7.2" fill="#ff0000" fill-rule="evenodd" fill-opacity="1" stroke="#000000" stroke-opacity="1" stroke-width="3.2"/>
<path clip-path="url(#clip630)" d="M282.851 196.789 L1082.7 196.789 L1082.7 93.1086 L282.851 93.1086  Z" fill="#ffffff" fill-rule="evenodd" fill-opacity="1"/>
<polyline clip-path="url(#clip630)" style="stroke:#000000; stroke-linecap:round; stroke-linejoin:round; stroke-width:4; stroke-opacity:1; fill:none" points="282.851,196.789 1082.7,196.789 1082.7,93.1086 282.851,93.1086 282.851,196.789 "/>
<circle clip-path="url(#clip630)" cx="378.019" cy="144.949" r="18.432" fill="#ff0000" fill-rule="evenodd" fill-opacity="1" stroke="#000000" stroke-opacity="1" stroke-width="8.192"/>
<path clip-path="url(#clip630)" d="M478.375 157.98 Q473.187 152.619 473.187 144.936 Q473.187 137.229 478.424 131.893 Q483.661 126.557 490.776 126.557 Q492.555 126.557 494.062 126.977 Q495.593 127.372 496.804 128.187 Q498.014 128.978 498.632 129.521 Q499.274 130.04 500.139 130.905 L502.683 127.175 Q503.078 126.557 503.474 126.557 Q503.893 126.557 503.968 126.804 Q504.042 127.026 504.042 127.767 L504.042 139.773 Q504.042 140.588 503.943 140.786 Q503.844 140.984 503.226 140.984 Q502.732 140.984 502.634 140.836 Q502.535 140.687 502.411 140.119 Q501.645 134.66 498.582 131.399 Q495.544 128.138 491.394 128.138 Q490.183 128.138 488.824 128.41 Q487.49 128.681 485.514 129.719 Q483.563 130.757 482.056 132.461 Q480.573 134.141 479.487 137.402 Q478.4 140.638 478.4 144.936 Q478.4 149.185 479.487 152.446 Q480.573 155.707 482.08 157.411 Q483.612 159.091 485.588 160.154 Q487.589 161.216 488.997 161.512 Q490.43 161.784 491.69 161.784 Q492.555 161.784 493.567 161.611 Q494.58 161.413 496.087 160.87 Q497.619 160.302 498.582 158.968 Q499.546 157.634 499.546 155.658 L499.546 152.421 Q499.546 150.914 498.805 150.445 Q498.063 149.976 494.827 149.976 L493.222 149.976 L493.222 148.419 Q495.05 148.568 501.349 148.568 Q501.917 148.568 507.525 148.419 L507.525 149.976 Q505.104 149.976 504.56 150.346 Q504.042 150.692 504.042 152.199 L504.042 161.018 Q504.042 162.179 503.597 162.179 Q503.202 162.179 502.016 161.043 Q500.855 159.907 500.336 159.042 Q499.126 161.166 496.482 162.253 Q493.864 163.34 490.875 163.34 Q483.587 163.34 478.375 157.98 Z" fill="#000000" fill-rule="nonzero" fill-opacity="1" /><path clip-path="url(#clip630)" d="M511.403 162.229 L511.403 160.672 Q514.096 160.672 514.714 160.351 Q515.356 160.005 515.356 158.375 L515.356 144.813 Q515.356 142.935 514.689 142.466 Q514.047 141.997 511.403 141.997 L511.403 140.416 L518.444 139.872 L518.444 145.43 Q519.16 143.256 520.667 141.577 Q522.199 139.872 524.669 139.872 Q526.299 139.872 527.337 140.786 Q528.399 141.7 528.399 142.96 Q528.399 144.072 527.707 144.64 Q527.041 145.183 526.225 145.183 Q525.311 145.183 524.669 144.615 Q524.051 144.022 524.051 143.009 Q524.051 142.392 524.323 141.922 Q524.62 141.428 524.842 141.255 Q525.064 141.083 525.212 141.033 Q525.114 140.984 524.669 140.984 Q521.878 140.984 520.272 143.775 Q518.691 146.542 518.691 150.495 L518.691 158.276 Q518.691 159.734 519.284 160.203 Q519.901 160.672 522.544 160.672 L523.607 160.672 L523.607 162.229 Q521.581 162.08 517.184 162.08 Q516.566 162.08 515.603 162.105 Q514.639 162.13 513.38 162.179 Q512.12 162.229 511.403 162.229 Z" fill="#000000" fill-rule="nonzero" fill-opacity="1" /><path clip-path="url(#clip630)" d="M534.501 159.511 Q531.166 156.201 531.166 151.409 Q531.166 146.591 534.427 143.084 Q537.712 139.551 542.406 139.551 Q547.001 139.551 550.286 143.059 Q553.597 146.542 553.597 151.409 Q553.597 156.176 550.262 159.487 Q546.951 162.797 542.357 162.797 Q537.861 162.797 534.501 159.511 M535.366 150.989 Q535.366 155.905 536.65 158.128 Q538.626 161.512 542.406 161.512 Q544.283 161.512 545.84 160.499 Q547.421 159.487 548.285 157.782 Q549.397 155.559 549.397 150.989 Q549.397 146.122 548.063 143.973 Q546.087 140.687 542.357 140.687 Q540.726 140.687 539.12 141.552 Q537.539 142.392 536.576 144.072 Q535.366 146.295 535.366 150.989 Z" fill="#000000" fill-rule="nonzero" fill-opacity="1" /><path clip-path="url(#clip630)" d="M556.685 141.997 L556.685 140.416 L564.12 139.872 L564.12 156.67 Q564.12 157.881 564.219 158.597 Q564.318 159.289 564.713 160.104 Q565.133 160.919 566.072 161.29 Q567.035 161.66 568.567 161.66 Q571.309 161.66 572.989 159.412 Q574.693 157.164 574.693 153.829 L574.693 144.813 Q574.693 142.935 574.026 142.466 Q573.359 141.997 570.741 141.997 L570.741 140.416 L578.176 139.872 L578.176 157.831 Q578.176 159.709 578.819 160.203 Q579.486 160.672 582.129 160.672 L582.129 162.229 L574.842 162.797 L574.842 158.227 Q572.717 162.772 568.32 162.797 Q566.097 162.797 564.565 162.229 Q563.058 161.66 562.292 160.969 Q561.526 160.252 561.106 158.894 Q560.711 157.535 560.662 156.695 Q560.612 155.855 560.612 154.225 L560.612 146.641 Q560.612 143.207 560.118 142.614 Q559.624 141.997 556.685 141.997 Z" fill="#000000" fill-rule="nonzero" fill-opacity="1" /><path clip-path="url(#clip630)" d="M584.525 170.48 Q587.218 170.48 587.835 170.134 Q588.478 169.813 588.478 168.207 L588.478 144.516 Q588.478 142.836 587.835 142.417 Q587.218 141.997 584.525 141.997 L584.525 140.416 L591.813 139.872 L591.813 143.207 Q594.851 139.872 598.903 139.872 Q603.201 139.872 606.338 143.207 Q609.476 146.542 609.476 151.31 Q609.476 156.127 606.141 159.462 Q602.806 162.797 598.186 162.797 Q595.666 162.797 593.962 161.512 Q592.282 160.203 591.961 159.24 L591.961 159.709 L591.961 168.207 Q591.961 169.837 592.603 170.158 Q593.246 170.48 595.913 170.48 L595.913 172.036 Q590.602 171.888 590.207 171.888 Q589.713 171.888 584.525 172.036 L584.525 170.48 M591.961 156.473 Q591.961 157.239 592.06 157.51 Q592.183 157.782 592.677 158.597 Q594.678 161.66 597.939 161.66 Q597.964 161.66 597.989 161.66 Q600.879 161.66 603.077 158.721 Q605.276 155.756 605.276 151.31 Q605.276 147.061 603.275 144.096 Q601.274 141.132 598.507 141.132 Q596.531 141.132 594.802 142.194 Q593.073 143.256 591.961 145.183 L591.961 156.473 Z" fill="#000000" fill-rule="nonzero" fill-opacity="1" /><path clip-path="url(#clip630)" d="M629.411 170.48 Q632.104 170.48 632.721 170.134 Q633.364 169.813 633.364 168.207 L633.364 144.516 Q633.364 142.836 632.721 142.417 Q632.104 141.997 629.411 141.997 L629.411 140.416 L636.699 139.872 L636.699 143.207 Q639.737 139.872 643.789 139.872 Q648.087 139.872 651.224 143.207 Q654.362 146.542 654.362 151.31 Q654.362 156.127 651.027 159.462 Q647.692 162.797 643.072 162.797 Q640.552 162.797 638.848 161.512 Q637.168 160.203 636.847 159.24 L636.847 159.709 L636.847 168.207 Q636.847 169.837 637.489 170.158 Q638.132 170.48 640.799 170.48 L640.799 172.036 Q635.488 171.888 635.093 171.888 Q634.599 171.888 629.411 172.036 L629.411 170.48 M636.847 156.473 Q636.847 157.239 636.946 157.51 Q637.069 157.782 637.563 158.597 Q639.564 161.66 642.825 161.66 Q642.85 161.66 642.875 161.66 Q645.765 161.66 647.963 158.721 Q650.162 155.756 650.162 151.31 Q650.162 147.061 648.161 144.096 Q646.16 141.132 643.393 141.132 Q641.417 141.132 639.688 142.194 Q637.959 143.256 636.847 145.183 L636.847 156.473 Z" fill="#000000" fill-rule="nonzero" fill-opacity="1" /><path clip-path="url(#clip630)" d="M658.191 157.411 Q658.191 153.113 663.255 150.84 Q666.293 149.383 672.568 149.012 L672.568 147.16 Q672.568 144.022 670.913 142.367 Q669.282 140.687 667.207 140.687 Q663.502 140.687 661.723 143.009 Q663.23 143.059 663.774 143.825 Q664.317 144.566 664.317 145.332 Q664.317 146.344 663.675 147.011 Q663.057 147.654 661.995 147.654 Q660.982 147.654 660.315 147.036 Q659.648 146.394 659.648 145.282 Q659.648 142.812 661.871 141.181 Q664.119 139.551 667.306 139.551 Q671.456 139.551 674.223 142.342 Q675.088 143.207 675.508 144.319 Q675.952 145.43 676.002 146.171 Q676.051 146.888 676.051 148.321 L676.051 158.424 Q676.051 158.721 676.15 159.215 Q676.249 159.709 676.693 160.351 Q677.163 160.969 677.929 160.969 Q679.757 160.969 679.732 157.733 L679.732 154.892 L681.017 154.892 L681.017 157.733 Q681.017 160.425 679.584 161.488 Q678.176 162.525 676.866 162.525 Q675.187 162.525 674.124 161.29 Q673.062 160.055 672.914 158.375 Q672.148 160.302 670.394 161.562 Q668.665 162.797 666.293 162.797 Q664.465 162.797 662.736 162.327 Q661.032 161.883 659.599 160.623 Q658.191 159.338 658.191 157.411 M662.094 157.362 Q662.094 159.24 663.428 160.45 Q664.762 161.66 666.639 161.66 Q668.764 161.66 670.666 160.03 Q672.568 158.375 672.568 155.139 L672.568 150.075 Q666.96 150.272 664.515 152.52 Q662.094 154.744 662.094 157.362 Z" fill="#000000" fill-rule="nonzero" fill-opacity="1" /><path clip-path="url(#clip630)" d="M682.77 162.229 L682.77 160.672 Q685.463 160.672 686.081 160.351 Q686.723 160.005 686.723 158.375 L686.723 144.813 Q686.723 142.935 686.056 142.466 Q685.414 141.997 682.77 141.997 L682.77 140.416 L689.811 139.872 L689.811 145.43 Q690.527 143.256 692.034 141.577 Q693.566 139.872 696.036 139.872 Q697.667 139.872 698.704 140.786 Q699.766 141.7 699.766 142.96 Q699.766 144.072 699.075 144.64 Q698.408 145.183 697.593 145.183 Q696.678 145.183 696.036 144.615 Q695.419 144.022 695.419 143.009 Q695.419 142.392 695.69 141.922 Q695.987 141.428 696.209 141.255 Q696.431 141.083 696.58 141.033 Q696.481 140.984 696.036 140.984 Q693.245 140.984 691.639 143.775 Q690.058 146.542 690.058 150.495 L690.058 158.276 Q690.058 159.734 690.651 160.203 Q691.268 160.672 693.912 160.672 L694.974 160.672 L694.974 162.229 Q692.948 162.08 688.551 162.08 Q687.933 162.08 686.97 162.105 Q686.007 162.13 684.747 162.179 Q683.487 162.229 682.77 162.229 Z" fill="#000000" fill-rule="nonzero" fill-opacity="1" /><path clip-path="url(#clip630)" d="M703.25 157.411 Q703.25 153.113 708.314 150.84 Q711.352 149.383 717.627 149.012 L717.627 147.16 Q717.627 144.022 715.972 142.367 Q714.341 140.687 712.266 140.687 Q708.561 140.687 706.782 143.009 Q708.289 143.059 708.833 143.825 Q709.376 144.566 709.376 145.332 Q709.376 146.344 708.734 147.011 Q708.116 147.654 707.054 147.654 Q706.041 147.654 705.374 147.036 Q704.707 146.394 704.707 145.282 Q704.707 142.812 706.93 141.181 Q709.178 139.551 712.365 139.551 Q716.515 139.551 719.282 142.342 Q720.147 143.207 720.567 144.319 Q721.011 145.43 721.061 146.171 Q721.11 146.888 721.11 148.321 L721.11 158.424 Q721.11 158.721 721.209 159.215 Q721.308 159.709 721.752 160.351 Q722.222 160.969 722.988 160.969 Q724.816 160.969 724.791 157.733 L724.791 154.892 L726.075 154.892 L726.075 157.733 Q726.075 160.425 724.643 161.488 Q723.235 162.525 721.925 162.525 Q720.245 162.525 719.183 161.29 Q718.121 160.055 717.973 158.375 Q717.207 160.302 715.453 161.562 Q713.724 162.797 711.352 162.797 Q709.524 162.797 707.795 162.327 Q706.09 161.883 704.658 160.623 Q703.25 159.338 703.25 157.411 M707.153 157.362 Q707.153 159.24 708.487 160.45 Q709.821 161.66 711.698 161.66 Q713.823 161.66 715.725 160.03 Q717.627 158.375 717.627 155.139 L717.627 150.075 Q712.019 150.272 709.574 152.52 Q707.153 154.744 707.153 157.362 Z" fill="#000000" fill-rule="nonzero" fill-opacity="1" /><path clip-path="url(#clip630)" d="M728.052 162.229 L728.052 160.672 Q730.744 160.672 731.362 160.351 Q731.98 160.005 731.98 158.375 L731.98 144.813 Q731.98 142.935 731.313 142.466 Q730.67 141.997 728.052 141.997 L728.052 140.416 L735.166 139.872 L735.166 145.183 Q737.538 139.872 742.651 139.872 Q748.58 139.872 749.395 144.813 Q750.26 142.886 752.063 141.379 Q753.891 139.872 756.732 139.872 Q760.537 139.872 762.044 141.75 Q763.155 143.009 763.378 144.417 Q763.6 145.826 763.6 149.482 L763.6 159.141 Q763.649 160.203 764.464 160.45 Q765.28 160.672 767.552 160.672 L767.552 162.229 Q762.389 162.08 761.895 162.08 Q761.5 162.08 756.164 162.229 L756.164 160.672 Q758.857 160.672 759.474 160.351 Q760.117 160.005 760.117 158.375 L760.117 146.591 Q760.117 144.022 759.326 142.515 Q758.536 140.984 756.362 140.984 Q753.743 140.984 751.643 143.182 Q749.544 145.381 749.544 149.086 L749.544 158.375 Q749.544 160.005 750.161 160.351 Q750.804 160.672 753.496 160.672 L753.496 162.229 Q748.333 162.08 747.814 162.08 Q747.419 162.08 742.108 162.229 L742.108 160.672 Q744.801 160.672 745.418 160.351 Q746.06 160.005 746.06 158.375 L746.06 146.591 Q746.06 144.022 745.27 142.515 Q744.479 140.984 742.306 140.984 Q739.687 140.984 737.587 143.182 Q735.487 145.381 735.487 149.086 L735.487 158.375 Q735.487 160.005 736.105 160.351 Q736.747 160.672 739.415 160.672 L739.415 162.229 Q734.252 162.08 733.758 162.08 Q733.363 162.08 728.052 162.229 Z" fill="#000000" fill-rule="nonzero" fill-opacity="1" /><path clip-path="url(#clip630)" d="M769.949 151.087 Q769.949 146.32 773.012 142.935 Q776.075 139.551 780.472 139.551 Q784.919 139.551 787.216 142.441 Q789.538 145.332 789.538 149.482 Q789.538 150.247 789.341 150.396 Q789.143 150.544 788.279 150.544 L774.148 150.544 Q774.148 155.707 775.68 158.128 Q777.804 161.512 781.386 161.512 Q781.88 161.512 782.473 161.413 Q783.066 161.315 784.277 160.895 Q785.487 160.45 786.549 159.289 Q787.612 158.128 788.229 156.3 Q788.377 155.583 788.871 155.608 Q789.538 155.608 789.538 156.201 Q789.538 156.646 789.044 157.658 Q788.575 158.647 787.661 159.832 Q786.747 161.018 784.968 161.907 Q783.214 162.797 781.09 162.797 Q776.643 162.797 773.284 159.437 Q769.949 156.053 769.949 151.087 M774.198 149.482 L786.203 149.482 Q786.203 148.419 786.006 147.234 Q785.833 146.048 785.289 144.417 Q784.771 142.762 783.535 141.725 Q782.3 140.687 780.472 140.687 Q779.657 140.687 778.768 141.033 Q777.903 141.379 776.841 142.219 Q775.779 143.059 775.038 144.961 Q774.296 146.863 774.198 149.482 Z" fill="#000000" fill-rule="nonzero" fill-opacity="1" /><path clip-path="url(#clip630)" d="M791.959 141.997 L791.959 140.885 Q794.281 140.786 795.813 139.156 Q797.369 137.501 797.888 135.475 Q798.432 133.449 798.481 131.102 L799.741 131.102 L799.741 140.416 L806.979 140.416 L806.979 141.997 L799.741 141.997 L799.741 156.053 Q799.741 161.512 803.15 161.512 Q804.607 161.512 805.571 160.03 Q806.534 158.523 806.534 155.855 L806.534 153.064 L807.794 153.064 L807.794 155.954 Q807.794 158.696 806.534 160.746 Q805.274 162.797 802.779 162.797 Q801.865 162.797 800.951 162.55 Q800.062 162.327 798.876 161.735 Q797.715 161.117 796.974 159.635 Q796.258 158.128 796.258 155.954 L796.258 141.997 L791.959 141.997 Z" fill="#000000" fill-rule="nonzero" fill-opacity="1" /><path clip-path="url(#clip630)" d="M812.018 151.087 Q812.018 146.32 815.082 142.935 Q818.145 139.551 822.542 139.551 Q826.989 139.551 829.286 142.441 Q831.608 145.332 831.608 149.482 Q831.608 150.247 831.411 150.396 Q831.213 150.544 830.348 150.544 L816.218 150.544 Q816.218 155.707 817.75 158.128 Q819.874 161.512 823.456 161.512 Q823.95 161.512 824.543 161.413 Q825.136 161.315 826.346 160.895 Q827.557 160.45 828.619 159.289 Q829.681 158.128 830.299 156.3 Q830.447 155.583 830.941 155.608 Q831.608 155.608 831.608 156.201 Q831.608 156.646 831.114 157.658 Q830.645 158.647 829.731 159.832 Q828.817 161.018 827.038 161.907 Q825.284 162.797 823.16 162.797 Q818.713 162.797 815.353 159.437 Q812.018 156.053 812.018 151.087 M816.267 149.482 L828.273 149.482 Q828.273 148.419 828.076 147.234 Q827.903 146.048 827.359 144.417 Q826.84 142.762 825.605 141.725 Q824.37 140.687 822.542 140.687 Q821.727 140.687 820.838 141.033 Q819.973 141.379 818.911 142.219 Q817.848 143.059 817.107 144.961 Q816.366 146.863 816.267 149.482 Z" fill="#000000" fill-rule="nonzero" fill-opacity="1" /><path clip-path="url(#clip630)" d="M834.474 162.229 L834.474 160.672 Q837.166 160.672 837.784 160.351 Q838.426 160.005 838.426 158.375 L838.426 144.813 Q838.426 142.935 837.759 142.466 Q837.117 141.997 834.474 141.997 L834.474 140.416 L841.514 139.872 L841.514 145.43 Q842.231 143.256 843.738 141.577 Q845.269 139.872 847.74 139.872 Q849.37 139.872 850.407 140.786 Q851.47 141.7 851.47 142.96 Q851.47 144.072 850.778 144.64 Q850.111 145.183 849.296 145.183 Q848.382 145.183 847.74 144.615 Q847.122 144.022 847.122 143.009 Q847.122 142.392 847.394 141.922 Q847.69 141.428 847.912 141.255 Q848.135 141.083 848.283 141.033 Q848.184 140.984 847.74 140.984 Q844.948 140.984 843.342 143.775 Q841.761 146.542 841.761 150.495 L841.761 158.276 Q841.761 159.734 842.354 160.203 Q842.972 160.672 845.615 160.672 L846.677 160.672 L846.677 162.229 Q844.652 162.08 840.254 162.08 Q839.637 162.08 838.673 162.105 Q837.71 162.13 836.45 162.179 Q835.19 162.229 834.474 162.229 Z" fill="#000000" fill-rule="nonzero" fill-opacity="1" /><path clip-path="url(#clip630)" d="M854.508 161.562 L854.508 154.892 Q854.508 154.324 854.533 154.126 Q854.558 153.928 854.706 153.78 Q854.854 153.632 855.151 153.632 Q855.496 153.632 855.62 153.78 Q855.768 153.928 855.867 154.496 Q856.633 157.98 858.263 159.832 Q859.918 161.66 862.907 161.66 Q865.748 161.66 867.181 160.401 Q868.614 159.141 868.614 157.066 Q868.614 153.36 863.352 152.421 Q860.314 151.804 859.054 151.409 Q857.794 150.989 856.682 150.075 Q854.508 148.296 854.508 145.776 Q854.508 143.256 856.41 141.404 Q858.337 139.551 862.586 139.551 Q865.427 139.551 867.354 140.984 Q867.922 140.539 868.219 140.169 Q868.886 139.551 869.231 139.551 Q869.627 139.551 869.701 139.823 Q869.775 140.07 869.775 140.786 L869.775 145.875 Q869.775 146.443 869.75 146.641 Q869.726 146.838 869.577 146.987 Q869.429 147.11 869.108 147.11 Q868.54 147.11 868.515 146.641 Q868.12 140.514 862.586 140.514 Q859.597 140.514 858.263 141.675 Q856.929 142.812 856.929 144.368 Q856.929 145.233 857.324 145.9 Q857.744 146.542 858.263 146.937 Q858.807 147.308 859.795 147.678 Q860.783 148.024 861.376 148.148 Q861.993 148.271 863.154 148.518 Q867.206 149.284 868.91 150.939 Q871.035 153.064 871.035 155.756 Q871.035 158.745 869.009 160.771 Q866.983 162.797 862.907 162.797 Q859.622 162.797 857.324 160.598 Q857.028 160.895 856.806 161.166 Q856.583 161.413 856.485 161.512 Q856.41 161.611 856.386 161.685 Q856.361 161.735 856.312 161.784 Q855.299 162.797 855.052 162.797 Q854.656 162.797 854.582 162.525 Q854.508 162.278 854.508 161.562 Z" fill="#000000" fill-rule="nonzero" fill-opacity="1" /><path clip-path="url(#clip630)" d="M894.577 149.58 Q894.577 141.033 897.764 134.141 Q899.123 131.251 901.025 128.83 Q902.927 126.409 904.187 125.347 Q905.447 124.284 905.792 124.284 Q906.286 124.284 906.311 124.778 Q906.311 125.025 905.644 125.643 Q897.492 133.943 897.517 149.58 Q897.517 165.267 905.447 173.246 Q906.311 174.111 906.311 174.383 Q906.311 174.877 905.792 174.877 Q905.447 174.877 904.236 173.864 Q903.026 172.851 901.148 170.529 Q899.271 168.207 897.912 165.366 Q894.577 158.474 894.577 149.58 Z" fill="#000000" fill-rule="nonzero" fill-opacity="1" /><path clip-path="url(#clip630)" d="M910.857 161.562 L910.857 154.892 Q910.857 154.324 910.881 154.126 Q910.906 153.928 911.054 153.78 Q911.202 153.632 911.499 153.632 Q911.845 153.632 911.968 153.78 Q912.116 153.928 912.215 154.496 Q912.981 157.98 914.612 159.832 Q916.267 161.66 919.256 161.66 Q922.097 161.66 923.529 160.401 Q924.962 159.141 924.962 157.066 Q924.962 153.36 919.7 152.421 Q916.662 151.804 915.402 151.409 Q914.142 150.989 913.03 150.075 Q910.857 148.296 910.857 145.776 Q910.857 143.256 912.759 141.404 Q914.686 139.551 918.935 139.551 Q921.775 139.551 923.702 140.984 Q924.271 140.539 924.567 140.169 Q925.234 139.551 925.58 139.551 Q925.975 139.551 926.049 139.823 Q926.123 140.07 926.123 140.786 L926.123 145.875 Q926.123 146.443 926.099 146.641 Q926.074 146.838 925.926 146.987 Q925.777 147.11 925.456 147.11 Q924.888 147.11 924.863 146.641 Q924.468 140.514 918.935 140.514 Q915.945 140.514 914.612 141.675 Q913.278 142.812 913.278 144.368 Q913.278 145.233 913.673 145.9 Q914.093 146.542 914.612 146.937 Q915.155 147.308 916.143 147.678 Q917.131 148.024 917.724 148.148 Q918.342 148.271 919.503 148.518 Q923.554 149.284 925.259 150.939 Q927.383 153.064 927.383 155.756 Q927.383 158.745 925.357 160.771 Q923.332 162.797 919.256 162.797 Q915.97 162.797 913.673 160.598 Q913.376 160.895 913.154 161.166 Q912.932 161.413 912.833 161.512 Q912.759 161.611 912.734 161.685 Q912.709 161.735 912.66 161.784 Q911.647 162.797 911.4 162.797 Q911.005 162.797 910.931 162.525 Q910.857 162.278 910.857 161.562 Z" fill="#000000" fill-rule="nonzero" fill-opacity="1" /><path clip-path="url(#clip630)" d="M933.831 159.511 Q930.496 156.201 930.496 151.409 Q930.496 146.591 933.757 143.084 Q937.042 139.551 941.736 139.551 Q946.331 139.551 949.616 143.059 Q952.926 146.542 952.926 151.409 Q952.926 156.176 949.591 159.487 Q946.281 162.797 941.686 162.797 Q937.19 162.797 933.831 159.511 M934.695 150.989 Q934.695 155.905 935.98 158.128 Q937.956 161.512 941.736 161.512 Q943.613 161.512 945.17 160.499 Q946.751 159.487 947.615 157.782 Q948.727 155.559 948.727 150.989 Q948.727 146.122 947.393 143.973 Q945.417 140.687 941.686 140.687 Q940.056 140.687 938.45 141.552 Q936.869 142.392 935.906 144.072 Q934.695 146.295 934.695 150.989 Z" fill="#000000" fill-rule="nonzero" fill-opacity="1" /><path clip-path="url(#clip630)" d="M955.792 162.229 L955.792 160.672 Q958.485 160.672 959.102 160.351 Q959.745 160.005 959.745 158.375 L959.745 144.813 Q959.745 142.935 959.078 142.466 Q958.435 141.997 955.792 141.997 L955.792 140.416 L962.832 139.872 L962.832 145.43 Q963.549 143.256 965.056 141.577 Q966.587 139.872 969.058 139.872 Q970.688 139.872 971.726 140.786 Q972.788 141.7 972.788 142.96 Q972.788 144.072 972.096 144.64 Q971.429 145.183 970.614 145.183 Q969.7 145.183 969.058 144.615 Q968.44 144.022 968.44 143.009 Q968.44 142.392 968.712 141.922 Q969.008 141.428 969.231 141.255 Q969.453 141.083 969.601 141.033 Q969.502 140.984 969.058 140.984 Q966.266 140.984 964.661 143.775 Q963.08 146.542 963.08 150.495 L963.08 158.276 Q963.08 159.734 963.672 160.203 Q964.29 160.672 966.933 160.672 L967.995 160.672 L967.995 162.229 Q965.97 162.08 961.573 162.08 Q960.955 162.08 959.992 162.105 Q959.028 162.13 957.768 162.179 Q956.508 162.229 955.792 162.229 Z" fill="#000000" fill-rule="nonzero" fill-opacity="1" /><path clip-path="url(#clip630)" d="M975.11 141.997 L975.11 140.885 Q977.432 140.786 978.964 139.156 Q980.52 137.501 981.039 135.475 Q981.582 133.449 981.632 131.102 L982.892 131.102 L982.892 140.416 L990.13 140.416 L990.13 141.997 L982.892 141.997 L982.892 156.053 Q982.892 161.512 986.301 161.512 Q987.758 161.512 988.722 160.03 Q989.685 158.523 989.685 155.855 L989.685 153.064 L990.945 153.064 L990.945 155.954 Q990.945 158.696 989.685 160.746 Q988.425 162.797 985.93 162.797 Q985.016 162.797 984.102 162.55 Q983.213 162.327 982.027 161.735 Q980.866 161.117 980.125 159.635 Q979.408 158.128 979.408 155.954 L979.408 141.997 L975.11 141.997 Z" fill="#000000" fill-rule="nonzero" fill-opacity="1" /><path clip-path="url(#clip630)" d="M995.169 151.087 Q995.169 146.32 998.232 142.935 Q1001.3 139.551 1005.69 139.551 Q1010.14 139.551 1012.44 142.441 Q1014.76 145.332 1014.76 149.482 Q1014.76 150.247 1014.56 150.396 Q1014.36 150.544 1013.5 150.544 L999.369 150.544 Q999.369 155.707 1000.9 158.128 Q1003.02 161.512 1006.61 161.512 Q1007.1 161.512 1007.69 161.413 Q1008.29 161.315 1009.5 160.895 Q1010.71 160.45 1011.77 159.289 Q1012.83 158.128 1013.45 156.3 Q1013.6 155.583 1014.09 155.608 Q1014.76 155.608 1014.76 156.201 Q1014.76 156.646 1014.26 157.658 Q1013.8 158.647 1012.88 159.832 Q1011.97 161.018 1010.19 161.907 Q1008.43 162.797 1006.31 162.797 Q1001.86 162.797 998.504 159.437 Q995.169 156.053 995.169 151.087 M999.418 149.482 L1011.42 149.482 Q1011.42 148.419 1011.23 147.234 Q1011.05 146.048 1010.51 144.417 Q1009.99 142.762 1008.76 141.725 Q1007.52 140.687 1005.69 140.687 Q1004.88 140.687 1003.99 141.033 Q1003.12 141.379 1002.06 142.219 Q1001 143.059 1000.26 144.961 Q999.517 146.863 999.418 149.482 Z" fill="#000000" fill-rule="nonzero" fill-opacity="1" /><path clip-path="url(#clip630)" d="M1017.95 151.359 Q1017.95 146.542 1021.31 143.207 Q1024.66 139.872 1029.21 139.872 Q1033.06 139.872 1035.58 143.009 L1035.58 132.066 Q1035.58 130.188 1034.92 129.719 Q1034.27 129.25 1031.66 129.25 L1031.66 127.669 L1038.94 127.125 L1038.94 157.831 Q1038.94 159.709 1039.59 160.203 Q1040.25 160.672 1042.87 160.672 L1042.87 162.229 L1035.44 162.797 L1035.44 159.437 Q1032.82 162.772 1028.67 162.797 Q1024.32 162.797 1021.13 159.462 Q1017.95 156.127 1017.95 151.359 M1022.15 151.409 Q1022.15 156.102 1023.6 158.424 Q1025.63 161.66 1028.91 161.66 Q1032.67 161.66 1034.89 158.128 Q1035.46 157.263 1035.44 156.25 L1035.44 145.875 Q1035.44 144.862 1034.89 144.022 Q1032.82 140.984 1029.43 140.984 Q1025.9 140.984 1023.7 144.22 Q1022.15 146.641 1022.15 151.409 Z" fill="#000000" fill-rule="nonzero" fill-opacity="1" /><path clip-path="url(#clip630)" d="M1047.17 174.383 Q1047.17 174.136 1047.81 173.518 Q1055.96 165.218 1055.96 149.58 Q1055.96 133.894 1048.13 125.964 Q1047.17 125.05 1047.17 124.778 Q1047.17 124.284 1047.66 124.284 Q1048.01 124.284 1049.22 125.297 Q1050.46 126.31 1052.31 128.632 Q1054.19 130.954 1055.57 133.795 Q1058.9 140.687 1058.9 149.58 Q1058.9 158.128 1055.72 165.02 Q1054.36 167.91 1052.46 170.331 Q1050.55 172.752 1049.29 173.814 Q1048.03 174.877 1047.66 174.877 Q1047.17 174.877 1047.17 174.383 Z" fill="#000000" fill-rule="nonzero" fill-opacity="1" /></svg>
