<?xml version="1.0" encoding="utf-8"?>
<svg xmlns="http://www.w3.org/2000/svg" xmlns:xlink="http://www.w3.org/1999/xlink" width="600" height="400" viewBox="0 0 2400 1600">
<defs>
  <clipPath id="clip580">
    <rect x="0" y="0" width="2400" height="1600"/>
  </clipPath>
</defs>
<path clip-path="url(#clip580)" d="M0 1600 L2400 1600 L2400 0 L0 0  Z" fill="#ffffff" fill-rule="evenodd" fill-opacity="1"/>
<defs>
  <clipPath id="clip581">
    <rect x="480" y="0" width="1681" height="1600"/>
  </clipPath>
</defs>
<path clip-path="url(#clip580)" d="M210.61 1423.18 L2352.76 1423.18 L2352.76 47.2441 L210.61 47.2441  Z" fill="#ffffff" fill-rule="evenodd" fill-opacity="1"/>
<defs>
  <clipPath id="clip582">
    <rect x="210" y="47" width="2143" height="1377"/>
  </clipPath>
</defs>
<polyline clip-path="url(#clip582)" style="stroke:#000000; stroke-linecap:round; stroke-linejoin:round; stroke-width:2; stroke-opacity:0.1; fill:none" points="304.962,1423.18 304.962,47.2441 "/>
<polyline clip-path="url(#clip582)" style="stroke:#000000; stroke-linecap:round; stroke-linejoin:round; stroke-width:2; stroke-opacity:0.1; fill:none" points="720.036,1423.18 720.036,47.2441 "/>
<polyline clip-path="url(#clip582)" style="stroke:#000000; stroke-linecap:round; stroke-linejoin:round; stroke-width:2; stroke-opacity:0.1; fill:none" points="1135.11,1423.18 1135.11,47.2441 "/>
<polyline clip-path="url(#clip582)" style="stroke:#000000; stroke-linecap:round; stroke-linejoin:round; stroke-width:2; stroke-opacity:0.1; fill:none" points="1550.18,1423.18 1550.18,47.2441 "/>
<polyline clip-path="url(#clip582)" style="stroke:#000000; stroke-linecap:round; stroke-linejoin:round; stroke-width:2; stroke-opacity:0.1; fill:none" points="1965.26,1423.18 1965.26,47.2441 "/>
<polyline clip-path="url(#clip580)" style="stroke:#000000; stroke-linecap:round; stroke-linejoin:round; stroke-width:4; stroke-opacity:1; fill:none" points="210.61,1423.18 2352.76,1423.18 "/>
<polyline clip-path="url(#clip580)" style="stroke:#000000; stroke-linecap:round; stroke-linejoin:round; stroke-width:4; stroke-opacity:1; fill:none" points="304.962,1423.18 304.962,1404.28 "/>
<polyline clip-path="url(#clip580)" style="stroke:#000000; stroke-linecap:round; stroke-linejoin:round; stroke-width:4; stroke-opacity:1; fill:none" points="720.036,1423.18 720.036,1404.28 "/>
<polyline clip-path="url(#clip580)" style="stroke:#000000; stroke-linecap:round; stroke-linejoin:round; stroke-width:4; stroke-opacity:1; fill:none" points="1135.11,1423.18 1135.11,1404.28 "/>
<polyline clip-path="url(#clip580)" style="stroke:#000000; stroke-linecap:round; stroke-linejoin:round; stroke-width:4; stroke-opacity:1; fill:none" points="1550.18,1423.18 1550.18,1404.28 "/>
<polyline clip-path="url(#clip580)" style="stroke:#000000; stroke-linecap:round; stroke-linejoin:round; stroke-width:4; stroke-opacity:1; fill:none" points="1965.26,1423.18 1965.26,1404.28 "/>
<path clip-path="url(#clip580)" d="M295.822 1472.22 Q296.118 1472.51 296.118 1472.93 Q296.118 1473.35 295.822 1473.65 Q295.525 1473.94 295.105 1473.94 L263.436 1473.94 Q263.016 1473.94 262.719 1473.65 Q262.423 1473.35 262.423 1472.93 Q262.423 1472.51 262.719 1472.22 Q263.016 1471.92 263.436 1471.92 L295.105 1471.92 Q295.525 1471.92 295.822 1472.22 Z" fill="#000000" fill-rule="nonzero" fill-opacity="1" /><path clip-path="url(#clip580)" d="M301.454 1485.58 Q301.454 1484.67 301.528 1484.39 Q301.627 1484.12 302.022 1483.7 L311.731 1472.88 Q317.042 1466.9 317.042 1461.69 Q317.042 1458.31 315.263 1455.89 Q313.509 1453.47 310.273 1453.47 Q308.05 1453.47 306.172 1454.82 Q304.295 1456.18 303.43 1458.6 Q303.579 1458.55 304.097 1458.55 Q305.357 1458.55 306.049 1459.34 Q306.765 1460.14 306.765 1461.2 Q306.765 1462.56 305.876 1463.22 Q305.011 1463.87 304.147 1463.87 Q303.801 1463.87 303.332 1463.79 Q302.887 1463.72 302.171 1463.03 Q301.454 1462.31 301.454 1461.05 Q301.454 1457.52 304.122 1454.7 Q306.815 1451.88 310.916 1451.88 Q315.56 1451.88 318.598 1454.65 Q321.661 1457.39 321.661 1461.69 Q321.661 1463.2 321.192 1464.58 Q320.747 1465.94 320.13 1467 Q319.537 1468.07 317.907 1469.77 Q316.276 1471.47 314.967 1472.68 Q313.658 1473.9 310.718 1476.46 L305.357 1481.68 L314.473 1481.68 Q318.919 1481.68 319.265 1481.28 Q319.759 1480.57 320.377 1476.79 L321.661 1476.79 L320.229 1485.58 L301.454 1485.58 Z" fill="#000000" fill-rule="nonzero" fill-opacity="1" /><path clip-path="url(#clip580)" d="M326.207 1469.4 Q326.207 1461.96 328.084 1457.91 Q330.703 1451.88 336.879 1451.88 Q338.188 1451.88 339.547 1452.26 Q340.93 1452.6 342.659 1453.96 Q344.413 1455.32 345.476 1457.54 Q347.501 1461.84 347.501 1469.4 Q347.501 1476.79 345.624 1480.81 Q342.882 1486.69 336.829 1486.69 Q334.557 1486.69 332.235 1485.53 Q329.937 1484.37 328.48 1481.58 Q326.207 1477.4 326.207 1469.4 M330.406 1468.78 Q330.406 1476.41 330.95 1479.45 Q331.568 1482.74 333.247 1484.17 Q334.952 1485.58 336.829 1485.58 Q338.855 1485.58 340.535 1484.07 Q342.239 1482.54 342.758 1479.26 Q343.326 1476.02 343.302 1468.78 Q343.302 1461.74 342.808 1458.92 Q342.141 1455.64 340.362 1454.33 Q338.608 1453 336.829 1453 Q336.162 1453 335.446 1453.19 Q334.754 1453.39 333.741 1453.96 Q332.729 1454.53 331.938 1455.94 Q331.172 1457.34 330.802 1459.47 Q330.406 1462.21 330.406 1468.78 Z" fill="#000000" fill-rule="nonzero" fill-opacity="1" /><path clip-path="url(#clip580)" d="M709.389 1469.4 Q709.389 1461.96 711.266 1457.91 Q713.885 1451.88 720.061 1451.88 Q721.37 1451.88 722.729 1452.26 Q724.112 1452.6 725.841 1453.96 Q727.595 1455.32 728.658 1457.54 Q730.683 1461.84 730.683 1469.4 Q730.683 1476.79 728.806 1480.81 Q726.064 1486.69 720.011 1486.69 Q717.739 1486.69 715.417 1485.53 Q713.119 1484.37 711.662 1481.58 Q709.389 1477.4 709.389 1469.4 M713.588 1468.78 Q713.588 1476.41 714.132 1479.45 Q714.75 1482.74 716.429 1484.17 Q718.134 1485.58 720.011 1485.58 Q722.037 1485.58 723.717 1484.07 Q725.421 1482.54 725.94 1479.26 Q726.508 1476.02 726.484 1468.78 Q726.484 1461.74 725.99 1458.92 Q725.323 1455.64 723.544 1454.33 Q721.79 1453 720.011 1453 Q719.344 1453 718.628 1453.19 Q717.936 1453.39 716.923 1453.96 Q715.911 1454.53 715.12 1455.94 Q714.354 1457.34 713.984 1459.47 Q713.588 1462.21 713.588 1468.78 Z" fill="#000000" fill-rule="nonzero" fill-opacity="1" /><path clip-path="url(#clip580)" d="M1112.09 1485.58 Q1112.09 1484.67 1112.16 1484.39 Q1112.26 1484.12 1112.65 1483.7 L1122.36 1472.88 Q1127.67 1466.9 1127.67 1461.69 Q1127.67 1458.31 1125.9 1455.89 Q1124.14 1453.47 1120.91 1453.47 Q1118.68 1453.47 1116.8 1454.82 Q1114.93 1456.18 1114.06 1458.6 Q1114.21 1458.55 1114.73 1458.55 Q1115.99 1458.55 1116.68 1459.34 Q1117.4 1460.14 1117.4 1461.2 Q1117.4 1462.56 1116.51 1463.22 Q1115.64 1463.87 1114.78 1463.87 Q1114.43 1463.87 1113.96 1463.79 Q1113.52 1463.72 1112.8 1463.03 Q1112.09 1462.31 1112.09 1461.05 Q1112.09 1457.52 1114.75 1454.7 Q1117.45 1451.88 1121.55 1451.88 Q1126.19 1451.88 1129.23 1454.65 Q1132.29 1457.39 1132.29 1461.69 Q1132.29 1463.2 1131.82 1464.58 Q1131.38 1465.94 1130.76 1467 Q1130.17 1468.07 1128.54 1469.77 Q1126.91 1471.47 1125.6 1472.68 Q1124.29 1473.9 1121.35 1476.46 L1115.99 1481.68 L1125.11 1481.68 Q1129.55 1481.68 1129.9 1481.28 Q1130.39 1480.57 1131.01 1476.79 L1132.29 1476.79 L1130.86 1485.58 L1112.09 1485.58 Z" fill="#000000" fill-rule="nonzero" fill-opacity="1" /><path clip-path="url(#clip580)" d="M1136.84 1469.4 Q1136.84 1461.96 1138.72 1457.91 Q1141.34 1451.88 1147.51 1451.88 Q1148.82 1451.88 1150.18 1452.26 Q1151.56 1452.6 1153.29 1453.96 Q1155.05 1455.32 1156.11 1457.54 Q1158.13 1461.84 1158.13 1469.4 Q1158.13 1476.79 1156.26 1480.81 Q1153.51 1486.69 1147.46 1486.69 Q1145.19 1486.69 1142.87 1485.53 Q1140.57 1484.37 1139.11 1481.58 Q1136.84 1477.4 1136.84 1469.4 M1141.04 1468.78 Q1141.04 1476.41 1141.58 1479.45 Q1142.2 1482.74 1143.88 1484.17 Q1145.58 1485.58 1147.46 1485.58 Q1149.49 1485.58 1151.17 1484.07 Q1152.87 1482.54 1153.39 1479.26 Q1153.96 1476.02 1153.93 1468.78 Q1153.93 1461.74 1153.44 1458.92 Q1152.77 1455.64 1150.99 1454.33 Q1149.24 1453 1147.46 1453 Q1146.79 1453 1146.08 1453.19 Q1145.39 1453.39 1144.37 1453.96 Q1143.36 1454.53 1142.57 1455.94 Q1141.8 1457.34 1141.43 1459.47 Q1141.04 1462.21 1141.04 1468.78 Z" fill="#000000" fill-rule="nonzero" fill-opacity="1" /><path clip-path="url(#clip580)" d="M1526.6 1477.23 L1526.6 1475.67 L1542.14 1451.93 Q1542.54 1451.32 1543.16 1451.34 Q1543.72 1451.34 1543.85 1451.56 Q1543.97 1451.79 1543.97 1452.65 L1543.97 1475.67 L1549.04 1475.67 L1549.04 1477.23 L1543.97 1477.23 L1543.97 1481.63 Q1543.97 1483.08 1544.56 1483.55 Q1545.18 1484.02 1547.8 1484.02 L1548.86 1484.02 L1548.86 1485.58 Q1546.79 1485.43 1542 1485.43 Q1537.23 1485.43 1535.15 1485.58 L1535.15 1484.02 L1536.21 1484.02 Q1538.83 1484.02 1539.45 1483.58 Q1540.07 1483.11 1540.07 1481.63 L1540.07 1477.23 L1526.6 1477.23 M1528.04 1475.67 L1540.36 1475.67 L1540.36 1456.8 L1528.04 1475.67 Z" fill="#000000" fill-rule="nonzero" fill-opacity="1" /><path clip-path="url(#clip580)" d="M1552.47 1469.4 Q1552.47 1461.96 1554.35 1457.91 Q1556.97 1451.88 1563.14 1451.88 Q1564.45 1451.88 1565.81 1452.26 Q1567.19 1452.6 1568.92 1453.96 Q1570.68 1455.32 1571.74 1457.54 Q1573.76 1461.84 1573.76 1469.4 Q1573.76 1476.79 1571.89 1480.81 Q1569.14 1486.69 1563.09 1486.69 Q1560.82 1486.69 1558.5 1485.53 Q1556.2 1484.37 1554.74 1481.58 Q1552.47 1477.4 1552.47 1469.4 M1556.67 1468.78 Q1556.67 1476.41 1557.21 1479.45 Q1557.83 1482.74 1559.51 1484.17 Q1561.21 1485.58 1563.09 1485.58 Q1565.12 1485.58 1566.8 1484.07 Q1568.5 1482.54 1569.02 1479.26 Q1569.59 1476.02 1569.56 1468.78 Q1569.56 1461.74 1569.07 1458.92 Q1568.4 1455.64 1566.62 1454.33 Q1564.87 1453 1563.09 1453 Q1562.42 1453 1561.71 1453.19 Q1561.02 1453.39 1560 1453.96 Q1558.99 1454.53 1558.2 1455.94 Q1557.43 1457.34 1557.06 1459.47 Q1556.67 1462.21 1556.67 1468.78 Z" fill="#000000" fill-rule="nonzero" fill-opacity="1" /><path clip-path="url(#clip580)" d="M1942.04 1469.6 Q1942.04 1461.64 1946.09 1456.78 Q1950.14 1451.88 1955.35 1451.88 Q1958.39 1451.88 1960.07 1453.44 Q1961.78 1454.97 1961.78 1457.34 Q1961.78 1458.65 1961.01 1459.22 Q1960.24 1459.79 1959.45 1459.79 Q1958.54 1459.79 1957.82 1459.17 Q1957.11 1458.55 1957.11 1457.44 Q1957.11 1455.17 1959.9 1455.17 Q1958.59 1453.14 1955.45 1453.14 Q1954.49 1453.14 1953.5 1453.44 Q1952.51 1453.71 1951.23 1454.65 Q1949.94 1455.59 1948.95 1457.07 Q1947.97 1458.55 1947.27 1461.35 Q1946.58 1464.14 1946.58 1467.77 L1946.58 1468.98 Q1948.66 1463.96 1952.91 1463.99 Q1957.16 1463.99 1960.1 1467.23 Q1963.04 1470.46 1963.04 1475.25 Q1963.04 1480.17 1959.97 1483.43 Q1956.91 1486.69 1952.61 1486.69 Q1950.68 1486.69 1948.93 1485.88 Q1947.2 1485.09 1945.57 1483.26 Q1943.96 1481.43 1943 1477.92 Q1942.04 1474.41 1942.04 1469.6 M1946.68 1474.14 Q1946.68 1479.11 1947.6 1481.48 Q1947.74 1481.87 1948.06 1482.42 Q1948.41 1482.96 1948.98 1483.68 Q1949.57 1484.37 1950.54 1484.84 Q1951.5 1485.28 1952.61 1485.28 Q1955.99 1485.28 1957.62 1482 Q1958.49 1480.17 1958.49 1475.2 Q1958.49 1470.14 1957.58 1468.29 Q1956.02 1465.15 1952.86 1465.15 Q1950.73 1465.15 1949.25 1466.61 Q1947.79 1468.07 1947.22 1470.02 Q1946.68 1471.97 1946.68 1474.14 Z" fill="#000000" fill-rule="nonzero" fill-opacity="1" /><path clip-path="url(#clip580)" d="M1967.19 1469.4 Q1967.19 1461.96 1969.06 1457.91 Q1971.68 1451.88 1977.86 1451.88 Q1979.17 1451.88 1980.52 1452.26 Q1981.91 1452.6 1983.64 1453.96 Q1985.39 1455.32 1986.45 1457.54 Q1988.48 1461.84 1988.48 1469.4 Q1988.48 1476.79 1986.6 1480.81 Q1983.86 1486.69 1977.81 1486.69 Q1975.53 1486.69 1973.21 1485.53 Q1970.92 1484.37 1969.46 1481.58 Q1967.19 1477.4 1967.19 1469.4 M1971.38 1468.78 Q1971.38 1476.41 1971.93 1479.45 Q1972.55 1482.74 1974.23 1484.17 Q1975.93 1485.58 1977.81 1485.58 Q1979.83 1485.58 1981.51 1484.07 Q1983.22 1482.54 1983.74 1479.26 Q1984.3 1476.02 1984.28 1468.78 Q1984.28 1461.74 1983.79 1458.92 Q1983.12 1455.64 1981.34 1454.33 Q1979.59 1453 1977.81 1453 Q1977.14 1453 1976.42 1453.19 Q1975.73 1453.39 1974.72 1453.96 Q1973.71 1454.53 1972.92 1455.94 Q1972.15 1457.34 1971.78 1459.47 Q1971.38 1462.21 1971.38 1468.78 Z" fill="#000000" fill-rule="nonzero" fill-opacity="1" /><path clip-path="url(#clip580)" d="M1251.54 1528.17 Q1251.54 1529.07 1251.12 1529.3 Q1250.7 1529.49 1249.54 1529.49 L1243.36 1529.49 L1238.47 1548.94 Q1238.08 1550.65 1238.08 1552.1 Q1238.08 1553.71 1238.56 1554.42 Q1239.08 1555.13 1240.14 1555.13 Q1242.23 1555.13 1244.49 1553.23 Q1246.77 1551.33 1248.71 1546.69 Q1248.96 1546.08 1249.09 1545.95 Q1249.25 1545.79 1249.67 1545.79 Q1250.48 1545.79 1250.48 1546.43 Q1250.48 1546.66 1250.03 1547.69 Q1249.61 1548.72 1248.67 1550.23 Q1247.77 1551.75 1246.58 1553.16 Q1245.42 1554.58 1243.65 1555.61 Q1241.88 1556.61 1239.98 1556.61 Q1237.31 1556.61 1235.6 1554.9 Q1233.92 1553.19 1233.92 1550.52 Q1233.92 1549.65 1234.6 1546.88 Q1235.28 1544.08 1238.95 1529.49 L1233.12 1529.49 Q1232.31 1529.49 1231.99 1529.46 Q1231.7 1529.43 1231.48 1529.27 Q1231.28 1529.07 1231.28 1528.69 Q1231.28 1528.07 1231.54 1527.82 Q1231.8 1527.53 1232.12 1527.49 Q1232.48 1527.43 1233.28 1527.43 L1239.46 1527.43 L1242.04 1516.96 Q1242.3 1515.93 1242.94 1515.35 Q1243.62 1514.74 1244.01 1514.68 Q1244.39 1514.58 1244.68 1514.58 Q1245.55 1514.58 1246.07 1515.06 Q1246.58 1515.51 1246.58 1516.35 Q1246.58 1516.8 1243.88 1527.43 L1249.67 1527.43 Q1250.41 1527.43 1250.7 1527.46 Q1251.03 1527.49 1251.28 1527.66 Q1251.54 1527.82 1251.54 1528.17 Z" fill="#000000" fill-rule="nonzero" fill-opacity="1" /><path clip-path="url(#clip580)" d="M1272.29 1572.36 L1272.29 1506.4 L1282.24 1506.4 L1282.24 1507.91 L1276.7 1507.91 L1276.7 1570.84 L1282.24 1570.84 L1282.24 1572.36 L1272.29 1572.36 Z" fill="#000000" fill-rule="nonzero" fill-opacity="1" /><path clip-path="url(#clip580)" d="M1309.18 1532.39 Q1309.18 1534.19 1308.28 1535.16 Q1307.37 1536.09 1306.15 1536.09 Q1305.15 1536.09 1304.6 1535.51 Q1304.09 1534.93 1304.09 1534.16 Q1304.09 1533.03 1304.99 1532.13 Q1305.92 1531.23 1307.28 1531.2 Q1306.83 1530.01 1305.63 1529.3 Q1304.44 1528.56 1303.38 1528.36 Q1302.35 1528.17 1301.32 1528.17 Q1299.29 1528.17 1297.74 1528.81 Q1296.2 1529.46 1295.43 1530.46 Q1294.65 1531.42 1294.3 1532.36 Q1293.94 1533.29 1293.94 1534.1 Q1293.94 1534.81 1294.1 1535.38 Q1294.3 1535.93 1294.75 1536.35 Q1295.2 1536.74 1295.52 1537 Q1295.88 1537.25 1296.65 1537.48 Q1297.42 1537.7 1297.74 1537.8 Q1298.07 1537.86 1298.97 1538.06 Q1300.84 1538.44 1301.67 1538.67 Q1302.51 1538.86 1303.61 1539.41 Q1304.73 1539.96 1305.57 1540.83 Q1307.6 1542.86 1307.6 1545.66 Q1307.6 1546.69 1307.24 1547.95 Q1306.92 1549.2 1305.99 1550.78 Q1305.05 1552.36 1303.64 1553.61 Q1302.22 1554.87 1299.77 1555.74 Q1297.36 1556.61 1294.33 1556.61 Q1290.11 1556.61 1287.5 1554.84 Q1284.89 1553.03 1284.89 1550.2 Q1284.89 1548.14 1286.02 1547.01 Q1287.15 1545.85 1288.6 1545.85 Q1289.69 1545.85 1290.37 1546.46 Q1291.05 1547.04 1291.05 1548.14 Q1291.05 1549.62 1289.85 1550.75 Q1288.66 1551.87 1286.89 1551.65 Q1288.4 1555.13 1294.39 1555.13 Q1296.65 1555.13 1298.39 1554.55 Q1300.16 1553.94 1301.13 1553.1 Q1302.12 1552.23 1302.77 1551.17 Q1303.41 1550.1 1303.61 1549.3 Q1303.83 1548.49 1303.83 1547.88 Q1303.83 1546.82 1303.41 1546.01 Q1302.99 1545.21 1302.41 1544.76 Q1301.87 1544.27 1300.8 1543.89 Q1299.77 1543.47 1299.03 1543.31 Q1298.29 1543.15 1296.97 1542.89 Q1296.36 1542.76 1295.97 1542.7 Q1295.59 1542.6 1294.78 1542.34 Q1294.01 1542.05 1293.46 1541.76 Q1292.95 1541.47 1292.27 1540.96 Q1291.59 1540.44 1291.17 1539.83 Q1290.76 1539.22 1290.47 1538.32 Q1290.18 1537.41 1290.18 1536.35 Q1290.18 1535.38 1290.47 1534.23 Q1290.79 1533.07 1291.59 1531.71 Q1292.43 1530.36 1293.62 1529.27 Q1294.81 1528.17 1296.81 1527.46 Q1298.84 1526.72 1301.32 1526.72 Q1304.93 1526.72 1307.05 1528.4 Q1309.18 1530.04 1309.18 1532.39 Z" fill="#000000" fill-rule="nonzero" fill-opacity="1" /><path clip-path="url(#clip580)" d="M1313.93 1570.84 L1319.47 1570.84 L1319.47 1507.91 L1313.93 1507.91 L1313.93 1506.4 L1323.88 1506.4 L1323.88 1572.36 L1313.93 1572.36 L1313.93 1570.84 Z" fill="#000000" fill-rule="nonzero" fill-opacity="1" /><polyline clip-path="url(#clip582)" style="stroke:#000000; stroke-linecap:round; stroke-linejoin:round; stroke-width:2; stroke-opacity:0.1; fill:none" points="210.61,1328.34 2352.76,1328.34 "/>
<polyline clip-path="url(#clip582)" style="stroke:#000000; stroke-linecap:round; stroke-linejoin:round; stroke-width:2; stroke-opacity:0.1; fill:none" points="210.61,1026.65 2352.76,1026.65 "/>
<polyline clip-path="url(#clip582)" style="stroke:#000000; stroke-linecap:round; stroke-linejoin:round; stroke-width:2; stroke-opacity:0.1; fill:none" points="210.61,724.958 2352.76,724.958 "/>
<polyline clip-path="url(#clip582)" style="stroke:#000000; stroke-linecap:round; stroke-linejoin:round; stroke-width:2; stroke-opacity:0.1; fill:none" points="210.61,423.268 2352.76,423.268 "/>
<polyline clip-path="url(#clip582)" style="stroke:#000000; stroke-linecap:round; stroke-linejoin:round; stroke-width:2; stroke-opacity:0.1; fill:none" points="210.61,121.577 2352.76,121.577 "/>
<polyline clip-path="url(#clip580)" style="stroke:#000000; stroke-linecap:round; stroke-linejoin:round; stroke-width:4; stroke-opacity:1; fill:none" points="210.61,1423.18 210.61,47.2441 "/>
<polyline clip-path="url(#clip580)" style="stroke:#000000; stroke-linecap:round; stroke-linejoin:round; stroke-width:4; stroke-opacity:1; fill:none" points="210.61,1328.34 229.508,1328.34 "/>
<polyline clip-path="url(#clip580)" style="stroke:#000000; stroke-linecap:round; stroke-linejoin:round; stroke-width:4; stroke-opacity:1; fill:none" points="210.61,1026.65 229.508,1026.65 "/>
<polyline clip-path="url(#clip580)" style="stroke:#000000; stroke-linecap:round; stroke-linejoin:round; stroke-width:4; stroke-opacity:1; fill:none" points="210.61,724.958 229.508,724.958 "/>
<polyline clip-path="url(#clip580)" style="stroke:#000000; stroke-linecap:round; stroke-linejoin:round; stroke-width:4; stroke-opacity:1; fill:none" points="210.61,423.268 229.508,423.268 "/>
<polyline clip-path="url(#clip580)" style="stroke:#000000; stroke-linecap:round; stroke-linejoin:round; stroke-width:4; stroke-opacity:1; fill:none" points="210.61,121.577 229.508,121.577 "/>
<path clip-path="url(#clip580)" d="M147.659 1332.26 Q147.956 1332.55 147.956 1332.97 Q147.956 1333.39 147.659 1333.69 Q147.363 1333.98 146.943 1333.98 L115.273 1333.98 Q114.853 1333.98 114.557 1333.69 Q114.26 1333.39 114.26 1332.97 Q114.26 1332.55 114.557 1332.26 Q114.853 1331.96 115.273 1331.96 L146.943 1331.96 Q147.363 1331.96 147.659 1332.26 Z" fill="#000000" fill-rule="nonzero" fill-opacity="1" /><path clip-path="url(#clip580)" d="M152.18 1337.27 L152.18 1335.71 L167.718 1311.97 Q168.113 1311.36 168.731 1311.38 Q169.299 1311.38 169.423 1311.6 Q169.546 1311.83 169.546 1312.69 L169.546 1335.71 L174.61 1335.71 L174.61 1337.27 L169.546 1337.27 L169.546 1341.67 Q169.546 1343.12 170.139 1343.59 Q170.757 1344.06 173.375 1344.06 L174.438 1344.06 L174.438 1345.62 Q172.362 1345.47 167.57 1345.47 Q162.802 1345.47 160.727 1345.62 L160.727 1344.06 L161.789 1344.06 Q164.408 1344.06 165.026 1343.62 Q165.643 1343.15 165.643 1341.67 L165.643 1337.27 L152.18 1337.27 M153.613 1335.71 L165.94 1335.71 L165.94 1316.84 L153.613 1335.71 Z" fill="#000000" fill-rule="nonzero" fill-opacity="1" /><path clip-path="url(#clip580)" d="M148.771 1030.56 Q149.067 1030.86 149.067 1031.28 Q149.067 1031.7 148.771 1032 Q148.474 1032.29 148.054 1032.29 L116.385 1032.29 Q115.965 1032.29 115.668 1032 Q115.372 1031.7 115.372 1031.28 Q115.372 1030.86 115.668 1030.56 Q115.965 1030.27 116.385 1030.27 L148.054 1030.27 Q148.474 1030.27 148.771 1030.56 Z" fill="#000000" fill-rule="nonzero" fill-opacity="1" /><path clip-path="url(#clip580)" d="M154.403 1043.93 Q154.403 1043.02 154.477 1042.74 Q154.576 1042.47 154.971 1042.05 L164.68 1031.23 Q169.991 1025.25 169.991 1020.04 Q169.991 1016.66 168.212 1014.24 Q166.458 1011.81 163.222 1011.81 Q160.999 1011.81 159.121 1013.17 Q157.244 1014.53 156.379 1016.95 Q156.528 1016.9 157.046 1016.9 Q158.306 1016.9 158.998 1017.69 Q159.714 1018.48 159.714 1019.55 Q159.714 1020.91 158.825 1021.57 Q157.96 1022.21 157.096 1022.21 Q156.75 1022.21 156.281 1022.14 Q155.836 1022.07 155.12 1021.37 Q154.403 1020.66 154.403 1019.4 Q154.403 1015.87 157.071 1013.05 Q159.764 1010.23 163.865 1010.23 Q168.509 1010.23 171.547 1013 Q174.61 1015.74 174.61 1020.04 Q174.61 1021.55 174.141 1022.93 Q173.696 1024.29 173.079 1025.35 Q172.486 1026.41 170.856 1028.12 Q169.225 1029.82 167.916 1031.03 Q166.607 1032.24 163.667 1034.81 L158.306 1040.03 L167.422 1040.03 Q171.868 1040.03 172.214 1039.63 Q172.708 1038.91 173.326 1035.13 L174.61 1035.13 L173.178 1043.93 L154.403 1043.93 Z" fill="#000000" fill-rule="nonzero" fill-opacity="1" /><path clip-path="url(#clip580)" d="M153.316 726.058 Q153.316 718.622 155.194 714.571 Q157.812 708.543 163.988 708.543 Q165.297 708.543 166.656 708.914 Q168.039 709.259 169.769 710.618 Q171.523 711.977 172.585 714.2 Q174.61 718.499 174.61 726.058 Q174.61 733.444 172.733 737.471 Q169.991 743.35 163.939 743.35 Q161.666 743.35 159.344 742.189 Q157.046 741.028 155.589 738.237 Q153.316 734.062 153.316 726.058 M157.516 725.44 Q157.516 733.074 158.059 736.112 Q158.677 739.398 160.357 740.83 Q162.061 742.238 163.939 742.238 Q165.964 742.238 167.644 740.732 Q169.349 739.2 169.867 735.914 Q170.436 732.678 170.411 725.44 Q170.411 718.4 169.917 715.584 Q169.25 712.298 167.471 710.989 Q165.717 709.655 163.939 709.655 Q163.272 709.655 162.555 709.852 Q161.864 710.05 160.851 710.618 Q159.838 711.186 159.047 712.594 Q158.282 714.003 157.911 716.127 Q157.516 718.869 157.516 725.44 Z" fill="#000000" fill-rule="nonzero" fill-opacity="1" /><path clip-path="url(#clip580)" d="M154.403 440.548 Q154.403 439.634 154.477 439.362 Q154.576 439.09 154.971 438.67 L164.68 427.85 Q169.991 421.872 169.991 416.66 Q169.991 413.275 168.212 410.854 Q166.458 408.433 163.222 408.433 Q160.999 408.433 159.121 409.792 Q157.244 411.151 156.379 413.572 Q156.528 413.522 157.046 413.522 Q158.306 413.522 158.998 414.313 Q159.714 415.103 159.714 416.166 Q159.714 417.524 158.825 418.191 Q157.96 418.834 157.096 418.834 Q156.75 418.834 156.281 418.759 Q155.836 418.685 155.12 417.994 Q154.403 417.277 154.403 416.017 Q154.403 412.485 157.071 409.669 Q159.764 406.852 163.865 406.852 Q168.509 406.852 171.547 409.619 Q174.61 412.361 174.61 416.66 Q174.61 418.167 174.141 419.55 Q173.696 420.909 173.079 421.971 Q172.486 423.033 170.856 424.738 Q169.225 426.442 167.916 427.653 Q166.607 428.863 163.667 431.432 L158.306 436.645 L167.422 436.645 Q171.868 436.645 172.214 436.249 Q172.708 435.533 173.326 431.753 L174.61 431.753 L173.178 440.548 L154.403 440.548 Z" fill="#000000" fill-rule="nonzero" fill-opacity="1" /><path clip-path="url(#clip580)" d="M152.18 130.507 L152.18 128.951 L167.718 105.211 Q168.113 104.594 168.731 104.618 Q169.299 104.618 169.423 104.841 Q169.546 105.063 169.546 105.928 L169.546 128.951 L174.61 128.951 L174.61 130.507 L169.546 130.507 L169.546 134.905 Q169.546 136.362 170.139 136.831 Q170.757 137.301 173.375 137.301 L174.438 137.301 L174.438 138.857 Q172.362 138.709 167.57 138.709 Q162.802 138.709 160.727 138.857 L160.727 137.301 L161.789 137.301 Q164.408 137.301 165.026 136.856 Q165.643 136.387 165.643 134.905 L165.643 130.507 L152.18 130.507 M153.613 128.951 L165.94 128.951 L165.94 110.078 L153.613 128.951 Z" fill="#000000" fill-rule="nonzero" fill-opacity="1" /><path clip-path="url(#clip580)" d="M43.9909 772.59 Q45.7944 772.59 47.8234 773.137 L77.6782 780.641 Q80.3191 781.318 80.3191 783.347 Q80.3191 784.184 79.8038 784.699 Q79.3207 785.182 78.5478 785.182 Q78.2901 785.182 77.485 784.989 L47.147 777.485 Q44.3773 776.809 42.9925 776.809 Q38.3871 776.809 38.3871 780.384 Q38.3871 783.54 40.7059 786.696 Q41.8653 788.145 43.9587 789.562 Q46.0198 790.947 46.7606 791.205 Q48.4353 791.495 49.7235 791.913 Q50.6253 792.107 54.1357 793.04 L60.0938 794.49 Q64.5382 795.52 64.9569 795.746 Q65.8587 796.068 66.3417 796.776 Q66.8248 797.485 66.8248 798.193 Q66.8248 798.999 66.3417 799.546 Q65.8587 800.094 65.0213 800.094 Q64.8925 800.094 64.4094 799.997 Q63.9263 799.9 63.25 799.739 Q62.5737 799.578 62.1872 799.514 L46.9538 795.681 Q44.1841 794.973 43.3146 794.812 Q42.4128 794.619 41.4144 794.619 Q39.6753 794.619 39.0312 795.166 Q38.3871 795.714 38.3871 796.68 Q38.3871 798.354 40.3838 799.449 Q42.3806 800.544 46.2453 801.478 Q47.3081 801.768 47.5335 801.962 Q47.759 802.123 47.759 802.606 Q47.7268 803.411 47.0826 803.411 Q46.9216 803.411 45.891 803.153 Q44.8282 802.895 43.2823 802.412 Q41.7043 801.897 40.7059 801.35 Q40.0296 801.028 39.5787 800.738 Q39.1278 800.448 38.4193 799.868 Q37.7107 799.288 37.3243 798.419 Q36.9378 797.549 36.9378 796.487 Q36.9378 794.135 38.4515 792.396 Q39.9651 790.625 42.6704 790.4 Q41.6721 789.723 40.7703 788.854 Q39.8685 787.952 38.9668 786.696 Q38.0328 785.44 37.4853 783.733 Q36.9378 782.026 36.9378 780.19 Q36.9378 776.519 38.8379 774.554 Q40.7059 772.59 43.9909 772.59 Z" fill="#000000" fill-rule="nonzero" fill-opacity="1" /><path clip-path="url(#clip580)" d="M82.5735 753.539 L16.6159 753.539 L16.6159 743.588 L18.1296 743.588 L18.1296 749.127 L81.0598 749.127 L81.0598 743.588 L82.5735 743.588 L82.5735 753.539 Z" fill="#000000" fill-rule="nonzero" fill-opacity="1" /><path clip-path="url(#clip580)" d="M56.6478 688.211 Q56.9054 688.211 57.9038 688.501 Q58.9022 688.791 60.4481 689.5 Q61.994 690.176 63.411 691.142 Q64.7959 692.076 65.8264 693.622 Q66.8248 695.136 66.8248 696.875 Q66.8248 699.194 65.2789 700.74 Q63.7331 702.285 61.4142 702.285 Q60.1582 702.285 57.775 701.416 Q46.8894 697.326 42.9925 697.326 Q38.3871 697.326 38.3871 700.901 Q38.3871 702.93 39.2244 704.765 Q40.0618 706.601 41.2212 707.793 Q42.3806 708.984 43.701 709.918 Q45.0215 710.852 45.891 711.271 Q46.7606 711.657 47.147 711.754 L63.0567 715.715 Q64.4094 716.037 65.0535 716.263 Q65.6976 716.488 66.2451 717.1 Q66.8248 717.712 66.8248 718.678 Q66.8248 719.483 66.3417 720.063 Q65.8587 720.611 65.0213 720.611 Q64.8925 720.611 64.2162 720.45 Q63.5398 720.288 62.6059 720.063 Q61.6719 719.838 61.1244 719.741 Q56.7444 718.582 56.1325 718.421 L48.4675 716.585 Q44.6672 715.586 42.9925 715.586 Q38.3871 715.586 38.3871 719.161 Q38.3871 720.933 39.0634 722.607 Q39.7075 724.25 40.6093 725.377 Q41.511 726.504 42.7671 727.535 Q43.9909 728.533 44.8282 729.048 Q45.6334 729.532 46.4385 729.918 L49.7235 730.755 Q50.6253 730.949 54.1357 731.883 L60.0938 733.332 Q64.5382 734.362 64.9569 734.588 Q65.8587 734.91 66.3417 735.618 Q66.8248 736.327 66.8248 737.036 Q66.8248 737.841 66.3417 738.388 Q65.8587 738.936 65.0213 738.936 Q64.8925 738.936 64.4094 738.839 Q63.9263 738.742 63.25 738.581 Q62.5737 738.42 62.1872 738.356 L46.9538 734.523 Q44.1841 733.815 43.3146 733.654 Q42.4128 733.461 41.4144 733.461 Q38.3871 733.461 38.3871 735.522 Q38.3871 737.197 40.3838 738.292 Q42.3806 739.387 46.2453 740.321 Q47.3081 740.61 47.5335 740.804 Q47.759 740.965 47.759 741.448 Q47.7268 742.253 47.0826 742.253 Q46.9216 742.253 45.891 741.995 Q44.8604 741.738 43.3146 741.255 Q41.7365 740.739 40.7059 740.192 Q40.0296 739.87 39.5787 739.58 Q39.1278 739.29 38.4193 738.71 Q37.7107 738.131 37.3243 737.261 Q36.9378 736.391 36.9378 735.329 Q36.9378 732.978 38.4515 731.238 Q39.9651 729.467 42.6704 729.242 Q36.9378 724.958 36.9378 718.968 Q36.9378 715.586 38.6447 713.557 Q40.2872 711.657 43.3146 711.432 Q36.9378 706.987 36.9378 700.675 Q36.9378 697.036 38.8379 695.071 Q40.7059 693.107 43.9909 693.107 Q45.6978 693.107 48.9506 693.976 Q52.1712 694.846 53.7815 695.426 Q55.3917 696.005 58.4835 697.132 Q61.4465 698.324 63.1856 698.324 Q64.3128 698.324 64.8281 697.938 Q65.3434 697.551 65.3434 696.714 Q65.3434 695.426 64.6026 694.298 Q63.8297 693.171 62.5737 692.366 Q61.2854 691.529 59.9972 690.981 Q58.6767 690.434 57.1953 690.015 Q56.3901 689.757 56.1969 689.629 Q56.0037 689.467 56.0037 689.017 Q56.0037 688.211 56.6478 688.211 Z" fill="#000000" fill-rule="nonzero" fill-opacity="1" /><path clip-path="url(#clip580)" d="M81.0598 685.163 L81.0598 679.624 L18.1296 679.624 L18.1296 685.163 L16.6159 685.163 L16.6159 675.212 L82.5735 675.212 L82.5735 685.163 L81.0598 685.163 Z" fill="#000000" fill-rule="nonzero" fill-opacity="1" /><polyline clip-path="url(#clip582)" style="stroke:#ba3d3a; stroke-linecap:round; stroke-linejoin:round; stroke-width:8; stroke-opacity:1; fill:none" points="271.237,755.713 273.831,690.456 276.426,624.268 279.02,558.804 281.614,495.81 284.208,436.151 286.803,380.641 289.397,329.575 291.991,283.605 294.585,243.452 297.179,210.168 299.774,184.636 302.368,167.688 304.962,159.495 307.556,159.794 310.15,167.444 312.745,181.392 315.339,200.458 317.933,224.165 320.527,252.09 323.121,284.557 325.716,321.489 328.31,363.098 330.904,408.937 333.498,458.375 336.093,510.002 338.687,562.535 341.281,614.443 343.875,664.57 346.469,711.824 349.064,755.852 351.658,796.142 354.252,832.551 356.846,864.766 359.44,892.87 362.035,916.577 364.629,935.923 367.223,950.711 369.817,961.159 372.412,967.209 375.006,969.248 377.6,967.292 380.194,961.669 382.788,952.451 385.383,940.146 387.977,925.058 390.571,907.987 393.165,889.442 395.759,870.361 398.354,851.076 400.948,832.329 403.542,814.419 406.136,797.979 408.731,783.316 411.325,771.021 413.919,761.438 416.513,755.047 419.107,751.792 421.702,751.825 424.296,754.946 426.89,761.299 429.484,770.713 432.078,783.155 434.673,798.376 437.267,816.128 439.861,835.748 442.455,856.546 445.049,877.884 447.644,899.262 450.238,920.132 452.832,940.322 455.426,959.271 458.021,977.011 460.615,992.868 463.209,1006.39 465.803,1016.96 468.397,1024.08 470.992,1027.35 473.586,1026.52 476.18,1021.42 478.774,1012.09 481.368,998.523 483.963,980.861 486.557,959.107 489.151,933.406 491.745,903.906 494.34,870.829 496.934,834.366 499.528,794.926 502.122,752.844 504.716,708.735 507.311,663.045 509.905,616.53 512.499,569.625 515.093,522.972 517.687,476.908 520.282,431.937 522.876,388.352 525.47,346.7 528.064,307.329 530.659,270.874 533.253,237.698 535.847,208.457 538.441,183.442 541.035,163.244 543.63,148.049 546.224,138.191 548.818,133.69 551.412,134.744 554.006,141.185 556.601,153.116 559.195,170.343 561.789,192.988 564.383,220.714 566.978,253.584 569.572,290.996 572.166,332.565 574.76,377.631 577.354,425.766 579.949,476.409 582.543,529.241 585.137,583.926 587.731,639.621 590.325,695.493 592.92,751.742 595.514,807.911 598.108,863.444 600.702,917.89 603.296,970.859 605.891,1021.95 608.485,1071.34 611.079,1118.06 613.673,1162.12 616.268,1203.05 618.862,1240.89 621.456,1275.17 624.05,1305.33 626.644,1330.89 629.239,1351.74 631.833,1367.56 634.427,1378.39 637.021,1383.95 639.615,1384.24 642.21,1378.84 644.804,1367.45 647.398,1349.71 649.992,1325.62 652.587,1295.3 655.181,1259.42 657.775,1218.39 660.369,1172.75 662.963,1122.78 665.558,1069.05 668.152,1012 670.746,952.256 673.34,890.317 675.934,826.973 678.529,762.781 681.123,698.584 683.717,635.02 686.311,572.905 688.906,512.835 691.5,455.5 694.094,401.287 696.688,350.507 699.282,303.253 701.877,259.907 704.471,220.728 707.065,186.422 709.659,157.476 712.253,134.783 714.848,118.556 717.442,109.074 720.036,106.184 722.63,109.874 725.224,119.773 727.819,135.692 730.413,157.224 733.007,184.369 735.601,216.648 738.196,253.771 740.79,295.22 743.384,340.614 745.978,389.217 748.572,440.733 751.167,494.33 753.761,549.686 756.355,605.832 758.949,662.019 761.543,717.378 764.138,771.291 766.732,823.241 769.326,872.971 771.92,919.977 774.515,964.301 777.109,1005.43 779.703,1043.34 782.297,1077.53 784.891,1107.86 787.486,1133.88 790.08,1155.41 792.674,1172.31 795.268,1184.64 797.862,1192.25 800.457,1195.31 803.051,1193.6 805.645,1187.46 808.239,1176.72 810.834,1161.67 813.428,1142.29 816.022,1119.07 818.616,1092.32 821.21,1062.69 823.805,1030.5 826.399,996.361 828.993,960.47 831.587,923.346 834.181,885.07 836.776,845.953 839.37,806.071 841.964,765.816 844.558,725.249 847.153,684.878 849.747,644.794 852.341,605.632 854.935,567.503 857.529,531.027 860.124,496.437 862.718,464.154 865.312,434.24 867.906,407.002 870.5,382.347 873.095,360.67 875.689,341.877 878.283,326.544 880.877,314.697 883.471,306.667 886.066,302.51 888.66,302.245 891.254,305.724 893.848,312.648 896.443,322.743 899.037,336.26 901.631,352.807 904.225,372.769 906.819,395.823 909.414,422.043 912.008,451.109 914.602,482.862 917.196,516.795 919.79,552.842 922.385,590.54 924.979,629.781 927.573,670.018 930.167,710.939 932.762,751.74 935.356,792.099 937.95,831.281 940.544,869.178 943.138,905.329 945.733,939.855 948.327,972.374 950.921,1002.94 953.515,1031.17 956.109,1057.17 958.704,1080.69 961.298,1102.03 963.892,1120.9 966.486,1137.47 969.081,1151.34 971.675,1162.49 974.269,1170.52 976.863,1175.58 979.457,1177.56 982.052,1176.72 984.646,1172.76 987.24,1165.84 989.834,1155.62 992.428,1142.26 995.023,1125.61 997.617,1106.2 1000.21,1084.05 1002.81,1059.73 1005.4,1033.18 1007.99,1004.72 1010.59,973.965 1013.18,940.932 1015.78,905.334 1018.37,867.421 1020.96,827.164 1023.56,785.427 1026.15,742.699 1028.75,699.924 1031.34,656.916 1033.94,614.459 1036.53,572.298 1039.12,531.045 1041.72,490.501 1044.31,451.415 1046.91,413.683 1049.5,377.841 1052.1,344.375 1054.69,313.004 1057.28,283.801 1059.88,256.984 1062.47,233.166 1065.07,212.159 1067.66,194.343 1070.25,179.904 1072.85,168.862 1075.44,161.521 1078.04,157.642 1080.63,157.601 1083.23,161.307 1085.82,169.226 1088.41,181.598 1091.01,198.915 1093.6,221.29 1096.2,248.962 1098.79,281.557 1101.39,318.913 1103.98,360.255 1106.57,405.254 1109.17,453.011 1111.76,502.84 1114.36,554.316 1116.95,607.321 1119.54,661.665 1122.14,717.236 1124.73,773.644 1127.33,830.545 1129.92,887.016 1132.52,942.413 1135.11,995.736 1137.7,1046.59 1140.3,1094.4 1142.89,1138.94 1145.49,1179.84 1148.08,1216.92 1150.68,1249.94 1153.27,1278.65 1155.86,1302.56 1158.46,1321.63 1161.05,1335.26 1163.65,1343.54 1166.24,1346.16 1168.83,1343.03 1171.43,1334.37 1174.02,1320.31 1176.62,1301.59 1179.21,1278.14 1181.81,1250.58 1184.4,1219.51 1186.99,1185.19 1189.59,1147.56 1192.18,1106.96 1194.78,1064.38 1197.37,1019.79 1199.97,974.305 1202.56,928.316 1205.15,883.156 1207.75,838.778 1210.34,796.086 1212.94,755.01 1215.53,715.896 1218.12,678.438 1220.72,643.062 1223.31,609.477 1225.91,578.012 1228.5,548.297 1231.1,520.877 1233.69,495.488 1236.28,472.723 1238.88,452.354 1241.47,434.837 1244.07,419.805 1246.66,407.335 1249.26,396.873 1251.85,388.439 1254.44,381.481 1257.04,376.181 1259.63,372.147 1262.23,369.801 1264.82,368.733 1267.42,369.126 1270.01,370.406 1272.6,372.59 1275.2,375.216 1277.79,378.425 1280.39,381.886 1282.98,385.929 1285.57,390.427 1288.17,395.898 1290.76,402.036 1293.36,409.124 1295.95,416.839 1298.55,425.459 1301.14,434.639 1303.73,444.752 1306.33,455.668 1308.92,467.782 1311.52,480.943 1314.11,495.703 1316.71,512.003 1319.3,530.312 1321.89,550.7 1324.49,573.569 1327.08,598.576 1329.68,625.743 1332.27,654.547 1334.86,684.968 1337.46,716.482 1340.05,749.283 1342.65,783.37 1345.24,818.795 1347.84,855.291 1350.43,892.758 1353.02,930.482 1355.62,968.209 1358.21,1005.08 1360.81,1040.97 1363.4,1075.14 1366,1107.38 1368.59,1136.85 1371.18,1163.23 1373.78,1185.69 1376.37,1204.1 1378.97,1218.07 1381.56,1227.82 1384.15,1233.05 1386.75,1234.04 1389.34,1230.48 1391.94,1222.66 1394.53,1210.29 1397.13,1193.85 1399.72,1173.31 1402.31,1149.24 1404.91,1121.6 1407.5,1090.76 1410.1,1056.47 1412.69,1019.2 1415.29,978.956 1417.88,936.628 1420.47,892.643 1423.07,848.116 1425.66,803.528 1428.26,759.889 1430.85,717.517 1433.44,677.264 1436.04,639.137 1438.63,603.797 1441.23,571.045 1443.82,541.302 1446.42,514.223 1449.01,490.094 1451.6,468.688 1454.2,450.406 1456.79,435.07 1459.39,422.844 1461.98,413.175 1464.58,406.052 1467.17,400.839 1469.76,397.817 1472.36,396.5 1474.95,396.954 1477.55,398.836 1480.14,402.426 1482.73,407.327 1485.33,414.028 1487.92,421.942 1490.52,431.04 1493.11,440.746 1495.71,450.918 1498.3,461.026 1500.89,471.415 1503.49,481.699 1506.08,492.272 1508.68,502.831 1511.27,513.831 1513.87,525.035 1516.46,536.925 1519.05,549.26 1521.65,562.337 1524.24,575.59 1526.84,589.275 1529.43,602.874 1532.02,616.769 1534.62,630.713 1537.21,645.203 1539.81,660.081 1542.4,675.753 1545,691.935 1547.59,708.99 1550.18,726.474 1552.78,744.662 1555.37,762.946 1557.97,781.61 1560.56,800.131 1563.16,818.823 1565.75,837.261 1568.34,855.865 1570.94,874.249 1573.53,892.751 1576.13,910.986 1578.72,929.194 1581.31,946.893 1583.91,964.373 1586.5,981.062 1589.1,997.216 1591.69,1012.16 1594.29,1026.18 1596.88,1038.6 1599.47,1049.55 1602.07,1058.73 1604.66,1066.32 1607.26,1071.88 1609.85,1075.68 1612.45,1077.37 1615.04,1077.09 1617.63,1074.26 1620.23,1069.14 1622.82,1061.51 1625.42,1051.41 1628.01,1038.63 1630.6,1023.36 1633.2,1005.42 1635.79,985.124 1638.39,962.24 1640.98,937.31 1643.58,910.042 1646.17,881.262 1648.76,850.526 1651.36,818.483 1653.95,784.731 1656.55,750.042 1659.14,714.284 1661.74,678.079 1664.33,641.32 1666.92,604.727 1669.52,568.069 1672.11,531.995 1674.71,496.413 1677.3,462.212 1679.89,429.383 1682.49,398.668 1685.08,370.019 1687.68,344.112 1690.27,320.787 1692.87,300.779 1695.46,283.984 1698.05,271.186 1700.65,262.127 1703.24,257.283 1705.84,256.108 1708.43,258.844 1711.03,264.886 1713.62,274.567 1716.21,287.43 1718.81,303.999 1721.4,323.748 1724,347.045 1726.59,373.13 1729.18,402.009 1731.78,432.734 1734.37,465.267 1736.97,498.852 1739.56,533.739 1742.16,569.311 1744.75,606.071 1747.34,643.395 1749.94,681.774 1752.53,720.507 1755.13,759.882 1757.72,799.214 1760.32,838.709 1762.91,877.747 1765.5,916.525 1768.1,954.277 1770.69,990.94 1773.29,1025.4 1775.88,1057.62 1778.47,1086.5 1781.07,1112.22 1783.66,1134.07 1786.26,1152.51 1788.85,1167.03 1791.45,1178.04 1794.04,1185.07 1796.63,1188.48 1799.23,1187.74 1801.82,1183.35 1804.42,1174.88 1807.01,1162.94 1809.61,1147.14 1812.2,1128 1814.79,1105.06 1817.39,1078.94 1819.98,1049.22 1822.58,1016.82 1825.17,981.555 1827.77,944.34 1830.36,904.965 1832.95,864.347 1835.55,822.399 1838.14,780.066 1840.74,737.222 1843.33,695.075 1845.92,653.632 1848.52,614.131 1851.11,576.606 1853.71,542.247 1856.3,511.123 1858.9,484.349 1861.49,461.935 1864.08,444.915 1866.68,432.933 1869.27,426.652 1871.87,425.242 1874.46,428.909 1877.06,436.484 1879.65,447.953 1882.24,462.335 1884.84,479.973 1887.43,499.891 1890.03,522.33 1892.62,546.087 1895.21,571.393 1897.81,597.146 1900.4,623.573 1903,649.627 1905.59,674.935 1908.19,698.703 1910.78,721.558 1913.37,742 1915.97,760.168 1918.56,775.273 1921.16,787.472 1923.75,796.05 1926.35,801.562 1928.94,802.79 1931.53,800.854 1934.13,795.136 1936.72,786.527 1939.32,774.595 1941.91,760.222 1944.5,743 1947.1,723.825 1949.69,702.311 1952.29,679.59 1954.88,655.479 1957.48,631.34 1960.07,607.19 1962.66,584.532 1965.26,563.25 1967.85,544.545 1970.45,527.916 1973.04,514.455 1975.64,503.655 1978.23,496.498 1980.82,492.254 1983.42,491.775 1986.01,494.207 1988.61,500.22 1991.2,508.875 1993.79,520.854 1996.39,535.135 1998.98,552.348 2001.58,571.511 2004.17,593.241 2006.77,616.461 2009.36,641.731 2011.95,667.945 2014.55,695.611 2017.14,723.385 2019.74,751.743 2022.33,779.336 2024.93,806.659 2027.52,832.498 2030.11,857.521 2032.71,880.878 2035.3,903.447 2037.9,924.395 2040.49,944.57 2043.08,962.856 2045.68,980.004 2048.27,994.887 2050.87,1008.37 2053.46,1019.36 2056.06,1028.82 2058.65,1035.77 2061.24,1041.35 2063.84,1044.57 2066.43,1046.48 2069.03,1046.16 2071.62,1044.58 2074.22,1040.86 2076.81,1035.97 2079.4,1028.9 2082,1020.58 2084.59,1010.09 2087.19,998.585 2089.78,985.015 2092.37,970.614 2094.97,954.406 2097.56,937.515 2100.16,918.842 2102.75,899.38 2105.35,877.967 2107.94,855.552 2110.53,831.071 2113.13,805.91 2115.72,779.149 2118.32,752.337 2120.91,724.482 2123.51,697.041 2126.1,668.789 2128.69,641.045 2131.29,612.562 2133.88,584.807 2136.48,556.839 2139.07,530.387 2141.66,504.56 2144.26,481.01 2146.85,458.545 2149.45,438.688 2152.04,420.094 2154.64,404.378 2157.23,390.204 2159.82,379.138 2162.42,369.783 2165.01,363.611 2167.61,359.084 2170.2,357.617 2172.8,357.591 2175.39,360.568 2177.98,364.867 2180.58,372.121 2183.17,380.63 2185.77,391.991 2188.36,404.449 2190.95,419.809 2193.55,436.456 2196.14,456.446 2198.74,478.072 2201.33,503.318 2203.93,530.072 2206.52,559.884 2209.11,590.5 2211.71,623.431 2214.3,656.536 2216.9,691.55 2219.49,726.417 2222.09,763.099 2224.68,798.964 2227.27,835.838 2229.87,870.902 2232.46,905.754 2235.06,937.389 2237.65,967.614 2240.24,993.599 2242.84,1017.53 2245.43,1036.57 2248.03,1053.31 2250.62,1065.2 2253.22,1074.99 2255.81,1079.88 2258.4,1082.53 2261,1079.83 2263.59,1074.55 2266.19,1063.41 2268.78,1049.56 2271.38,1029.76 2273.97,1007.37 2276.56,979.025 2279.16,948.398 2281.75,912.245 2284.35,874.996 2286.94,833.735 2289.53,793.634 2292.13,751.499 "/>
<polyline clip-path="url(#clip582)" style="stroke:#4a7945; stroke-linecap:round; stroke-linejoin:round; stroke-width:8; stroke-opacity:1; fill:none" stroke-dasharray="4, 8" points="271.237,848.134 273.831,891.271 276.426,937.06 279.02,984.736 281.614,1033.41 284.208,1082.11 286.803,1129.79 289.397,1175.35 291.991,1217.74 294.585,1255.92 297.179,1288.94 299.774,1315.97 302.368,1336.34 304.962,1349.55 307.556,1355.28 310.15,1353.45 312.745,1344.16 315.339,1327.72 317.933,1304.62 320.527,1275.5 323.121,1241.16 325.716,1202.48 328.31,1160.39 330.904,1115.86 333.498,1069.85 336.093,1023.27 338.687,976.953 341.281,931.643 343.875,887.968 346.469,846.433 349.064,807.416 351.658,771.169 354.252,737.828 356.846,707.422 359.44,679.892 362.035,655.103 364.629,632.868 367.223,612.967 369.817,595.158 372.412,579.201 375.006,564.867 377.6,551.951 380.194,540.278 382.788,529.713 385.383,520.161 387.977,511.564 390.571,503.908 393.165,497.212 395.759,491.524 398.354,486.922 400.948,483.5 403.542,481.365 406.136,480.635 408.731,481.425 411.325,483.849 413.919,488.012 416.513,494.005 419.107,501.905 421.702,511.768 424.296,523.633 426.89,537.513 429.484,553.398 432.078,571.256 434.673,591.029 437.267,612.634 439.861,635.967 442.455,660.899 445.049,687.279 447.644,714.935 450.238,743.676 452.832,773.293 455.426,803.561 458.021,834.239 460.615,865.075 463.209,895.806 465.803,926.162 468.397,955.867 470.992,984.642 473.586,1012.21 476.18,1038.29 478.774,1062.61 481.368,1084.91 483.963,1104.94 486.557,1122.45 489.151,1137.22 491.745,1149.05 494.34,1157.75 496.934,1163.16 499.528,1165.14 502.122,1163.59 504.716,1158.43 507.311,1149.6 509.905,1137.1 512.499,1120.93 515.093,1101.14 517.687,1077.83 520.282,1051.1 522.876,1021.1 525.47,988.013 528.064,952.058 530.659,913.477 533.253,872.541 535.847,829.549 538.441,784.826 541.035,738.715 543.63,691.583 546.224,643.808 548.818,595.785 551.412,547.914 554.006,500.603 556.601,454.263 559.195,409.302 561.789,366.12 564.383,325.112 566.978,286.655 569.572,251.114 572.166,218.828 574.76,190.116 577.354,165.268 579.949,144.544 582.543,128.17 585.137,116.337 587.731,109.197 590.325,106.865 592.92,109.411 595.514,116.866 598.108,129.217 600.702,146.406 603.296,168.334 605.891,194.858 608.485,225.795 611.079,260.919 613.673,299.969 616.268,342.645 618.862,388.614 621.456,437.512 624.05,488.947 626.644,542.503 629.239,597.745 631.833,654.218 634.427,711.456 637.021,768.986 639.615,826.33 642.21,883.009 644.804,938.552 647.398,992.493 649.992,1044.38 652.587,1093.79 655.181,1140.3 657.775,1183.53 660.369,1223.12 662.963,1258.75 665.558,1290.13 668.152,1317 670.746,1339.16 673.34,1356.42 675.934,1368.68 678.529,1375.83 681.123,1377.85 683.717,1374.74 686.311,1366.55 688.906,1353.37 691.5,1335.35 694.094,1312.67 696.688,1285.53 699.282,1254.21 701.877,1218.98 704.471,1180.18 707.065,1138.15 709.659,1093.27 712.253,1045.93 714.848,996.545 717.442,945.55 720.036,893.379 722.63,840.475 725.224,787.282 727.819,734.241 730.413,681.787 733.007,630.344 735.601,580.321 738.196,532.112 740.79,486.087 743.384,442.592 745.978,401.948 748.572,364.445 751.167,330.342 753.761,299.865 756.355,273.204 758.949,250.515 761.543,231.915 764.138,217.487 766.732,207.273 769.326,201.283 771.92,199.487 774.515,201.822 777.109,208.192 779.703,218.466 782.297,232.486 784.891,250.064 787.486,270.988 790.08,295.021 792.674,321.906 795.268,351.369 797.862,383.121 800.457,416.86 803.051,452.276 805.645,489.052 808.239,526.869 810.834,565.408 813.428,604.351 816.022,643.386 818.616,682.208 821.21,720.522 823.805,758.047 826.399,794.514 828.993,829.669 831.587,863.278 834.181,895.123 836.776,925.008 839.37,952.755 841.964,978.209 844.558,1001.24 847.153,1021.72 849.747,1039.58 852.341,1054.73 854.935,1067.14 857.529,1076.77 860.124,1083.62 862.718,1087.7 865.312,1089.03 867.906,1087.66 870.5,1083.65 873.095,1077.09 875.689,1068.06 878.283,1056.66 880.877,1043.01 883.471,1027.24 886.066,1009.47 888.66,989.845 891.254,968.519 893.848,945.643 896.443,921.377 899.037,895.884 901.631,869.331 904.225,841.887 906.819,813.724 909.414,785.016 912.008,755.936 914.602,726.661 917.196,697.364 919.79,668.221 922.385,639.407 924.979,611.095 927.573,583.456 930.167,556.662 932.762,530.881 935.356,506.278 937.95,483.015 940.544,461.253 943.138,441.144 945.733,422.839 948.327,406.481 950.921,392.206 953.515,380.144 956.109,370.415 958.704,363.129 961.298,358.386 963.892,356.272 966.486,356.863 969.081,360.216 971.675,366.375 974.269,375.368 976.863,387.201 979.457,401.863 982.052,419.323 984.646,439.528 987.24,462.402 989.834,487.85 992.428,515.749 995.023,545.957 997.617,578.306 1000.21,612.607 1002.81,648.648 1005.4,686.194 1007.99,724.993 1010.59,764.769 1013.18,805.232 1015.78,846.076 1018.37,886.979 1020.96,927.612 1023.56,967.633 1026.15,1006.7 1028.75,1044.46 1031.34,1080.57 1033.94,1114.68 1036.53,1146.47 1039.12,1175.61 1041.72,1201.78 1044.31,1224.7 1046.91,1244.09 1049.5,1259.73 1052.1,1271.38 1054.69,1278.86 1057.28,1282.02 1059.88,1280.75 1062.47,1274.98 1065.07,1264.66 1067.66,1249.8 1070.25,1230.45 1072.85,1206.7 1075.44,1178.69 1078.04,1146.59 1080.63,1110.61 1083.23,1071.02 1085.82,1028.12 1088.41,982.222 1091.01,933.705 1093.6,882.961 1096.2,830.407 1098.79,776.488 1101.39,721.663 1103.98,666.406 1106.57,611.197 1109.17,556.524 1111.76,502.869 1114.36,450.712 1116.95,400.519 1119.54,352.741 1122.14,307.806 1124.73,266.119 1127.33,228.055 1129.92,193.952 1132.52,164.115 1135.11,138.805 1137.7,118.242 1140.3,102.597 1142.89,91.9963 1145.49,86.5169 1148.08,86.1857 1150.68,90.9803 1153.27,100.829 1155.86,115.612 1158.46,135.164 1161.05,159.272 1163.65,187.685 1166.24,220.109 1168.83,256.218 1171.43,295.652 1174.02,338.024 1176.62,382.923 1179.21,429.921 1181.81,478.576 1184.4,528.436 1186.99,579.046 1189.59,629.952 1192.18,680.706 1194.78,730.869 1197.37,780.02 1199.97,827.756 1202.56,873.695 1205.15,917.484 1207.75,958.799 1210.34,997.349 1212.94,1032.88 1215.53,1065.16 1218.12,1094.02 1220.72,1119.3 1223.31,1140.9 1225.91,1158.74 1228.5,1172.8 1231.1,1183.07 1233.69,1189.58 1236.28,1192.41 1238.88,1191.64 1241.47,1187.38 1244.07,1179.79 1246.66,1169.01 1249.26,1155.22 1251.85,1138.61 1254.44,1119.37 1257.04,1097.7 1259.63,1073.8 1262.23,1047.87 1264.82,1020.13 1267.42,990.748 1270.01,959.932 1272.6,927.862 1275.2,894.713 1277.79,860.657 1280.39,825.854 1282.98,790.464 1285.57,754.639 1288.17,718.529 1290.76,682.285 1293.36,646.056 1295.95,609.999 1298.55,574.274 1301.14,539.05 1303.73,504.505 1306.33,470.83 1308.92,438.227 1311.52,406.912 1314.11,377.114 1316.71,349.073 1319.3,323.041 1321.89,299.277 1324.49,278.046 1327.08,259.615 1329.68,244.248 1332.27,232.202 1334.86,223.718 1337.46,219.02 1340.05,218.307 1342.65,221.746 1345.24,229.466 1347.84,241.555 1350.43,258.052 1353.02,278.943 1355.62,304.159 1358.21,333.572 1360.81,366.993 1363.4,404.174 1366,444.808 1368.59,488.529 1371.18,534.92 1373.78,583.515 1376.37,633.808 1378.97,685.256 1381.56,737.291 1384.15,789.33 1386.75,840.78 1389.34,891.053 1391.94,939.573 1394.53,985.786 1397.13,1029.17 1399.72,1069.25 1402.31,1105.6 1404.91,1137.84 1407.5,1165.67 1410.1,1188.84 1412.69,1207.19 1415.29,1220.62 1417.88,1229.1 1420.47,1232.68 1423.07,1231.48 1425.66,1225.67 1428.26,1215.5 1430.85,1201.26 1433.44,1183.29 1436.04,1161.96 1438.63,1137.69 1441.23,1110.89 1443.82,1082.02 1446.42,1051.5 1449.01,1019.79 1451.6,987.313 1454.2,954.471 1456.79,921.652 1459.39,889.212 1461.98,857.471 1464.58,826.713 1467.17,797.184 1469.76,769.089 1472.36,742.594 1474.95,717.825 1477.55,694.871 1480.14,673.787 1482.73,654.596 1485.33,637.291 1487.92,621.842 1490.52,608.199 1493.11,596.294 1495.71,586.047 1498.3,577.373 1500.89,570.177 1503.49,564.367 1506.08,559.852 1508.68,556.545 1511.27,554.366 1513.87,553.244 1516.46,553.116 1519.05,553.932 1521.65,555.65 1524.24,558.239 1526.84,561.678 1529.43,565.955 1532.02,571.066 1534.62,577.01 1537.21,583.794 1539.81,591.426 1542.4,599.915 1545,609.268 1547.59,619.491 1550.18,630.583 1552.78,642.537 1555.37,655.34 1557.97,668.967 1560.56,683.384 1563.16,698.545 1565.75,714.394 1568.34,730.86 1570.94,747.862 1573.53,765.303 1576.13,783.077 1578.72,801.066 1581.31,819.14 1583.91,837.16 1586.5,854.977 1589.1,872.438 1591.69,889.38 1594.29,905.639 1596.88,921.049 1599.47,935.441 1602.07,948.649 1604.66,960.51 1607.26,970.868 1609.85,979.574 1612.45,986.486 1615.04,991.477 1617.63,994.43 1620.23,995.246 1622.82,993.841 1625.42,990.148 1628.01,984.122 1630.6,975.737 1633.2,964.988 1635.79,951.894 1638.39,936.496 1640.98,918.858 1643.58,899.067 1646.17,877.232 1648.76,853.488 1651.36,827.987 1653.95,800.906 1656.55,772.439 1659.14,742.8 1661.74,712.218 1664.33,680.937 1666.92,649.215 1669.52,617.319 1672.11,585.524 1674.71,554.111 1677.3,523.362 1679.89,493.562 1682.49,464.991 1685.08,437.924 1687.68,412.627 1690.27,389.355 1692.87,368.349 1695.46,349.834 1698.05,334.016 1700.65,321.077 1703.24,311.179 1705.84,304.456 1708.43,301.016 1711.03,300.938 1713.62,304.27 1716.21,311.031 1718.81,321.207 1721.4,334.755 1724,351.597 1726.59,371.626 1729.18,394.704 1731.78,420.664 1734.37,449.311 1736.97,480.423 1739.56,513.754 1742.16,549.035 1744.75,585.978 1747.34,624.278 1749.94,663.615 1752.53,703.658 1755.13,744.068 1757.72,784.502 1760.32,824.613 1762.91,864.059 1765.5,902.5 1768.1,939.607 1770.69,975.062 1773.29,1008.56 1775.88,1039.82 1778.47,1068.56 1781.07,1094.56 1783.66,1117.59 1786.26,1137.46 1788.85,1154.01 1791.45,1167.11 1794.04,1176.67 1796.63,1182.61 1799.23,1184.9 1801.82,1183.54 1804.42,1178.57 1807.01,1170.05 1809.61,1158.08 1812.2,1142.78 1814.79,1124.31 1817.39,1102.85 1819.98,1078.62 1822.58,1051.84 1825.17,1022.76 1827.77,991.652 1830.36,958.802 1832.95,924.505 1835.55,889.065 1838.14,852.793 1840.74,816.004 1843.33,779.011 1845.92,742.126 1848.52,705.653 1851.11,669.888 1853.71,635.117 1856.3,601.61 1858.9,569.623 1861.49,539.392 1864.08,511.135 1866.68,485.047 1869.27,461.301 1871.87,440.046 1874.46,421.406 1877.06,405.481 1879.65,392.344 1882.24,382.043 1884.84,374.603 1887.43,370.022 1890.03,368.275 1892.62,369.316 1895.21,373.076 1897.81,379.464 1900.4,388.373 1903,399.679 1905.59,413.241 1908.19,428.905 1910.78,446.504 1913.37,465.865 1915.97,486.803 1918.56,509.128 1921.16,532.646 1923.75,557.16 1926.35,582.474 1928.94,608.389 1931.53,634.71 1934.13,661.246 1936.72,687.81 1939.32,714.22 1941.91,740.3 1944.5,765.884 1947.1,790.811 1949.69,814.93 1952.29,838.099 1954.88,860.183 1957.48,881.061 1960.07,900.615 1962.66,918.743 1965.26,935.347 1967.85,950.342 1970.45,963.65 1973.04,975.203 1975.64,984.943 1978.23,992.818 1980.82,998.787 1983.42,1002.82 1986.01,1004.88 1988.61,1004.97 1991.2,1003.07 1993.79,999.191 1996.39,993.336 1998.98,985.528 2001.58,975.797 2004.17,964.184 2006.77,950.737 2009.36,935.519 2011.95,918.601 2014.55,900.064 2017.14,880.005 2019.74,858.528 2022.33,835.751 2024.93,811.805 2027.52,786.83 2030.11,760.979 2032.71,734.416 2035.3,707.317 2037.9,679.865 2040.49,652.254 2043.08,624.686 2045.68,597.369 2048.27,570.516 2050.87,544.346 2053.46,519.077 2056.06,494.928 2058.65,472.116 2061.24,450.855 2063.84,431.35 2066.43,413.8 2069.03,398.39 2071.62,385.293 2074.22,374.666 2076.81,366.648 2079.4,361.359 2082,358.895 2084.59,359.328 2087.19,362.707 2089.78,369.052 2092.37,378.356 2094.97,390.584 2097.56,405.671 2100.16,423.525 2102.75,444.024 2105.35,467.019 2107.94,492.331 2110.53,519.761 2113.13,549.081 2115.72,580.045 2118.32,612.386 2120.91,645.821 2123.51,680.052 2126.1,714.773 2128.69,749.669 2131.29,784.421 2133.88,818.712 2136.48,852.225 2139.07,884.654 2141.66,915.701 2144.26,945.082 2146.85,972.531 2149.45,997.803 2152.04,1020.67 2154.64,1040.95 2157.23,1058.45 2159.82,1073.05 2162.42,1084.63 2165.01,1093.13 2167.61,1098.48 2170.2,1100.69 2172.8,1099.78 2175.39,1095.8 2177.98,1088.83 2180.58,1079.01 2183.17,1066.46 2185.77,1051.35 2188.36,1033.9 2190.95,1014.3 2193.55,992.796 2196.14,969.632 2198.74,945.072 2201.33,919.383 2203.93,892.841 2206.52,865.722 2209.11,838.301 2211.71,810.85 2214.3,783.631 2216.9,756.899 2219.49,730.891 2222.09,705.834 2224.68,681.933 2227.27,659.375 2229.87,638.328 2232.46,618.933 2235.06,601.313 2237.65,585.563 2240.24,571.756 2242.84,559.942 2245.43,550.145 2248.03,542.366 2250.62,536.588 2253.22,532.768 2255.81,530.847 2258.4,530.747 2261,532.374 2263.59,535.62 2266.19,540.364 2268.78,546.477 2271.38,553.819 2273.97,562.245 2276.56,571.609 2279.16,581.758 2281.75,592.542 2284.35,603.813 2286.94,615.426 2289.53,627.24 2292.13,639.122 "/>
<path clip-path="url(#clip580)" d="M1959.44 1377.32 L2281.35 1377.32 L2281.35 1195.3 L1959.44 1195.3  Z" fill="#ffffff" fill-rule="evenodd" fill-opacity="1"/>
<polyline clip-path="url(#clip580)" style="stroke:#000000; stroke-linecap:round; stroke-linejoin:round; stroke-width:4; stroke-opacity:1; fill:none" points="1959.44,1377.32 2281.35,1377.32 2281.35,1195.3 1959.44,1195.3 1959.44,1377.32 "/>
<polyline clip-path="url(#clip580)" style="stroke:#ba3d3a; stroke-linecap:round; stroke-linejoin:round; stroke-width:8; stroke-opacity:1; fill:none" points="1983.24,1255.97 2126.05,1255.97 "/>
<path clip-path="url(#clip580)" d="M2172.27 1251.78 Q2172.27 1253.09 2171.87 1254.57 L2166.41 1276.28 Q2165.92 1278.2 2164.44 1278.2 Q2163.84 1278.2 2163.46 1277.83 Q2163.11 1277.47 2163.11 1276.91 Q2163.11 1276.72 2163.25 1276.14 L2168.71 1254.08 Q2169.2 1252.06 2169.2 1251.05 Q2169.2 1247.7 2166.6 1247.7 Q2164.3 1247.7 2162.01 1249.39 Q2160.95 1250.23 2159.92 1251.76 Q2158.92 1253.26 2158.73 1253.79 Q2158.52 1255.01 2158.21 1255.95 Q2158.07 1256.61 2157.39 1259.16 L2156.34 1263.49 Q2155.59 1266.72 2155.43 1267.03 Q2155.19 1267.68 2154.68 1268.04 Q2154.16 1268.39 2153.65 1268.39 Q2153.06 1268.39 2152.66 1268.04 Q2152.26 1267.68 2152.26 1267.07 Q2152.26 1266.98 2152.33 1266.63 Q2152.4 1266.28 2152.52 1265.79 Q2152.64 1265.29 2152.69 1265.01 L2155.47 1253.93 Q2155.99 1251.92 2156.11 1251.29 Q2156.25 1250.63 2156.25 1249.91 Q2156.25 1248.64 2155.85 1248.17 Q2155.45 1247.7 2154.75 1247.7 Q2153.53 1247.7 2152.73 1249.16 Q2151.94 1250.61 2151.26 1253.42 Q2151.05 1254.19 2150.91 1254.36 Q2150.79 1254.52 2150.44 1254.52 Q2149.85 1254.5 2149.85 1254.03 Q2149.85 1253.91 2150.04 1253.16 Q2150.23 1252.39 2150.58 1251.26 Q2150.95 1250.12 2151.35 1249.39 Q2151.59 1248.9 2151.8 1248.57 Q2152.01 1248.24 2152.43 1247.73 Q2152.85 1247.21 2153.48 1246.93 Q2154.11 1246.65 2154.89 1246.65 Q2156.6 1246.65 2157.86 1247.75 Q2159.15 1248.85 2159.31 1250.82 Q2159.81 1250.09 2160.44 1249.44 Q2161.09 1248.78 2162.01 1248.13 Q2162.92 1247.45 2164.16 1247.05 Q2165.4 1246.65 2166.74 1246.65 Q2169.41 1246.65 2170.84 1248.03 Q2172.27 1249.39 2172.27 1251.78 Z" fill="#000000" fill-rule="nonzero" fill-opacity="1" /><path clip-path="url(#clip580)" d="M2179.2 1255.86 Q2179.2 1247.75 2182.22 1241.22 Q2183.51 1238.48 2185.31 1236.18 Q2187.12 1233.89 2188.31 1232.88 Q2189.51 1231.87 2189.83 1231.87 Q2190.3 1231.87 2190.33 1232.34 Q2190.33 1232.57 2189.69 1233.16 Q2181.96 1241.03 2181.99 1255.86 Q2181.99 1270.73 2189.51 1278.29 Q2190.33 1279.11 2190.33 1279.37 Q2190.33 1279.84 2189.83 1279.84 Q2189.51 1279.84 2188.36 1278.88 Q2187.21 1277.92 2185.43 1275.72 Q2183.65 1273.52 2182.36 1270.82 Q2179.2 1264.29 2179.2 1255.86 Z" fill="#000000" fill-rule="nonzero" fill-opacity="1" /><path clip-path="url(#clip580)" d="M2208.7 1247.7 Q2208.7 1248.36 2208.4 1248.52 Q2208.09 1248.66 2207.25 1248.66 L2202.75 1248.66 L2199.19 1262.81 Q2198.91 1264.05 2198.91 1265.11 Q2198.91 1266.28 2199.26 1266.79 Q2199.64 1267.31 2200.41 1267.31 Q2201.93 1267.31 2203.57 1265.93 Q2205.23 1264.55 2206.64 1261.17 Q2206.83 1260.73 2206.92 1260.63 Q2207.04 1260.52 2207.34 1260.52 Q2207.93 1260.52 2207.93 1260.99 Q2207.93 1261.15 2207.6 1261.9 Q2207.29 1262.65 2206.62 1263.75 Q2205.96 1264.85 2205.09 1265.88 Q2204.25 1266.91 2202.96 1267.66 Q2201.67 1268.39 2200.29 1268.39 Q2198.35 1268.39 2197.11 1267.15 Q2195.89 1265.9 2195.89 1263.96 Q2195.89 1263.33 2196.38 1261.31 Q2196.87 1259.28 2199.54 1248.66 L2195.3 1248.66 Q2194.72 1248.66 2194.48 1248.64 Q2194.27 1248.62 2194.11 1248.5 Q2193.97 1248.36 2193.97 1248.08 Q2193.97 1247.63 2194.15 1247.45 Q2194.34 1247.24 2194.58 1247.21 Q2194.83 1247.17 2195.42 1247.17 L2199.92 1247.17 L2201.79 1239.55 Q2201.98 1238.8 2202.45 1238.38 Q2202.94 1237.94 2203.22 1237.89 Q2203.5 1237.82 2203.71 1237.82 Q2204.34 1237.82 2204.72 1238.17 Q2205.09 1238.5 2205.09 1239.11 Q2205.09 1239.44 2203.13 1247.17 L2207.34 1247.17 Q2207.88 1247.17 2208.09 1247.19 Q2208.33 1247.21 2208.51 1247.33 Q2208.7 1247.45 2208.7 1247.7 Z" fill="#000000" fill-rule="nonzero" fill-opacity="1" /><path clip-path="url(#clip580)" d="M2212.45 1279.37 Q2212.45 1279.14 2213.06 1278.55 Q2220.79 1270.68 2220.79 1255.86 Q2220.79 1240.98 2213.36 1233.46 Q2212.45 1232.6 2212.45 1232.34 Q2212.45 1231.87 2212.92 1231.87 Q2213.25 1231.87 2214.39 1232.83 Q2215.57 1233.79 2217.32 1235.99 Q2219.1 1238.2 2220.41 1240.89 Q2223.58 1247.42 2223.58 1255.86 Q2223.58 1263.96 2220.56 1270.49 Q2219.27 1273.23 2217.46 1275.53 Q2215.66 1277.83 2214.47 1278.83 Q2213.27 1279.84 2212.92 1279.84 Q2212.45 1279.84 2212.45 1279.37 Z" fill="#000000" fill-rule="nonzero" fill-opacity="1" /><polyline clip-path="url(#clip580)" style="stroke:#4a7945; stroke-linecap:round; stroke-linejoin:round; stroke-width:8; stroke-opacity:1; fill:none" stroke-dasharray="4, 8" points="1983.24,1316.64 2126.05,1316.64 "/>
<path clip-path="url(#clip580)" d="M2172.27 1305.87 Q2172.27 1307.18 2171.87 1308.65 L2166.41 1330.37 Q2165.92 1332.29 2164.44 1332.29 Q2163.84 1332.29 2163.46 1331.91 Q2163.11 1331.56 2163.11 1331 Q2163.11 1330.81 2163.25 1330.22 L2168.71 1308.16 Q2169.2 1306.15 2169.2 1305.14 Q2169.2 1301.79 2166.6 1301.79 Q2164.3 1301.79 2162.01 1303.48 Q2160.95 1304.32 2159.92 1305.84 Q2158.92 1307.34 2158.73 1307.88 Q2158.52 1309.1 2158.21 1310.03 Q2158.07 1310.69 2157.39 1313.24 L2156.34 1317.58 Q2155.59 1320.81 2155.43 1321.11 Q2155.19 1321.77 2154.68 1322.12 Q2154.16 1322.47 2153.65 1322.47 Q2153.06 1322.47 2152.66 1322.12 Q2152.26 1321.77 2152.26 1321.16 Q2152.26 1321.07 2152.33 1320.72 Q2152.4 1320.36 2152.52 1319.87 Q2152.64 1319.38 2152.69 1319.1 L2155.47 1308.02 Q2155.99 1306.01 2156.11 1305.37 Q2156.25 1304.72 2156.25 1303.99 Q2156.25 1302.73 2155.85 1302.26 Q2155.45 1301.79 2154.75 1301.79 Q2153.53 1301.79 2152.73 1303.24 Q2151.94 1304.69 2151.26 1307.51 Q2151.05 1308.28 2150.91 1308.44 Q2150.79 1308.61 2150.44 1308.61 Q2149.85 1308.58 2149.85 1308.11 Q2149.85 1308 2150.04 1307.25 Q2150.23 1306.47 2150.58 1305.35 Q2150.95 1304.2 2151.35 1303.48 Q2151.59 1302.98 2151.8 1302.66 Q2152.01 1302.33 2152.43 1301.81 Q2152.85 1301.3 2153.48 1301.02 Q2154.11 1300.74 2154.89 1300.74 Q2156.6 1300.74 2157.86 1301.84 Q2159.15 1302.94 2159.31 1304.91 Q2159.81 1304.18 2160.44 1303.52 Q2161.09 1302.87 2162.01 1302.21 Q2162.92 1301.53 2164.16 1301.13 Q2165.4 1300.74 2166.74 1300.74 Q2169.41 1300.74 2170.84 1302.12 Q2172.27 1303.48 2172.27 1305.87 Z" fill="#000000" fill-rule="nonzero" fill-opacity="1" /><path clip-path="url(#clip580)" d="M2201 1322.92 L2198.88 1331.47 Q2198.74 1332.02 2198.64 1332.08 Q2198.56 1332.15 2198.29 1332.15 Q2197.79 1332.15 2197.79 1331.8 Q2197.79 1331.77 2197.83 1331.34 Q2197.88 1330.9 2197.88 1330.1 Q2197.88 1327.13 2196.44 1325.38 Q2195.01 1323.62 2192.47 1323.62 Q2190.1 1323.62 2187.82 1324.87 Q2185.54 1326.11 2184.08 1327.95 Q2182.85 1329.46 2182 1331.29 Q2181.16 1333.13 2180.82 1334.74 Q2180.47 1336.33 2180.34 1337.29 Q2180.23 1338.26 2180.23 1338.89 Q2180.23 1340.72 2180.82 1342.15 Q2181.41 1343.56 2182.39 1344.36 Q2183.39 1345.16 2184.54 1345.56 Q2185.7 1345.95 2186.96 1345.95 Q2187.44 1345.95 2188.01 1345.89 Q2188.59 1345.82 2189.47 1345.57 Q2190.37 1345.33 2191.11 1344.92 Q2191.87 1344.51 2192.52 1343.72 Q2193.19 1342.93 2193.46 1341.89 Q2194.16 1339.21 2194.16 1338.82 Q2194.16 1338.49 2193.96 1338.38 Q2193.77 1338.26 2193.11 1338.18 L2191.34 1338.11 Q2191.31 1338.11 2191.26 1338.11 Q2190.95 1338.11 2190.82 1338.11 Q2190.69 1338.1 2190.54 1338.07 Q2190.41 1338.03 2190.36 1337.97 Q2190.33 1337.89 2190.33 1337.75 Q2190.33 1337.44 2190.46 1337.29 Q2190.59 1337.13 2190.7 1337.11 Q2190.82 1337.08 2191.03 1337.08 L2195.74 1337.18 Q2196.11 1337.18 2197.49 1337.13 Q2198.87 1337.08 2199.26 1337.08 Q2199.7 1337.08 2199.7 1337.44 Q2199.7 1338.11 2199.16 1338.11 Q2198.62 1338.13 2198.34 1338.15 Q2198.06 1338.15 2197.79 1338.23 Q2197.52 1338.31 2197.42 1338.38 Q2197.33 1338.43 2197.19 1338.67 Q2197.06 1338.9 2197.01 1339.1 Q2196.97 1339.28 2196.85 1339.74 Q2196.79 1340.03 2196.62 1340.59 Q2196.47 1341.15 2196.41 1341.44 L2195.77 1344.03 Q2195.33 1345.95 2195.19 1346.08 Q2195.13 1346.21 2194.97 1346.21 Q2194.72 1346.21 2194.19 1345.49 Q2193.69 1344.77 2193.46 1344.13 Q2193.05 1344.57 2192.78 1344.84 Q2192.52 1345.08 2191.92 1345.48 Q2191.33 1345.87 2190.54 1346.18 Q2188.62 1346.98 2186.34 1346.98 Q2182.27 1346.98 2179.72 1344.41 Q2177.16 1341.82 2177.16 1337.79 Q2177.16 1334.93 2178.47 1332.13 Q2179.78 1329.33 2181.86 1327.24 Q2183.95 1325.16 2186.7 1323.87 Q2189.46 1322.57 2192.21 1322.57 Q2193.26 1322.57 2194.19 1322.85 Q2195.13 1323.13 2195.69 1323.47 Q2196.26 1323.82 2196.77 1324.33 Q2197.28 1324.82 2197.44 1325.05 Q2197.62 1325.28 2197.79 1325.56 L2200.13 1322.98 Q2200.54 1322.57 2200.64 1322.57 Q2200.83 1322.57 2200.92 1322.69 Q2201 1322.8 2201 1322.92 Z" fill="#000000" fill-rule="nonzero" fill-opacity="1" /><path clip-path="url(#clip580)" d="M2205.88 1309.94 Q2205.88 1301.84 2208.9 1295.3 Q2210.19 1292.56 2212 1290.27 Q2213.8 1287.97 2214.99 1286.96 Q2216.19 1285.96 2216.52 1285.96 Q2216.98 1285.96 2217.01 1286.43 Q2217.01 1286.66 2216.38 1287.24 Q2208.65 1295.11 2208.67 1309.94 Q2208.67 1324.81 2216.19 1332.38 Q2217.01 1333.2 2217.01 1333.46 Q2217.01 1333.93 2216.52 1333.93 Q2216.19 1333.93 2215.04 1332.97 Q2213.89 1332.01 2212.11 1329.8 Q2210.33 1327.6 2209.04 1324.91 Q2205.88 1318.37 2205.88 1309.94 Z" fill="#000000" fill-rule="nonzero" fill-opacity="1" /><path clip-path="url(#clip580)" d="M2235.38 1301.79 Q2235.38 1302.45 2235.08 1302.61 Q2234.77 1302.75 2233.93 1302.75 L2229.43 1302.75 L2225.87 1316.9 Q2225.59 1318.14 2225.59 1319.19 Q2225.59 1320.36 2225.94 1320.88 Q2226.32 1321.39 2227.09 1321.39 Q2228.61 1321.39 2230.25 1320.01 Q2231.92 1318.63 2233.32 1315.26 Q2233.51 1314.81 2233.6 1314.72 Q2233.72 1314.6 2234.02 1314.6 Q2234.61 1314.6 2234.61 1315.07 Q2234.61 1315.23 2234.28 1315.98 Q2233.98 1316.73 2233.3 1317.83 Q2232.64 1318.94 2231.78 1319.97 Q2230.93 1321 2229.64 1321.75 Q2228.36 1322.47 2226.97 1322.47 Q2225.03 1322.47 2223.79 1321.23 Q2222.57 1319.99 2222.57 1318.05 Q2222.57 1317.41 2223.06 1315.4 Q2223.55 1313.36 2226.22 1302.75 L2221.99 1302.75 Q2221.4 1302.75 2221.17 1302.73 Q2220.95 1302.7 2220.79 1302.59 Q2220.65 1302.45 2220.65 1302.16 Q2220.65 1301.72 2220.84 1301.53 Q2221.02 1301.32 2221.26 1301.3 Q2221.52 1301.25 2222.1 1301.25 L2226.6 1301.25 L2228.47 1293.64 Q2228.66 1292.89 2229.13 1292.47 Q2229.62 1292.02 2229.9 1291.98 Q2230.18 1291.91 2230.39 1291.91 Q2231.03 1291.91 2231.4 1292.26 Q2231.78 1292.59 2231.78 1293.19 Q2231.78 1293.52 2229.81 1301.25 L2234.02 1301.25 Q2234.56 1301.25 2234.77 1301.27 Q2235.01 1301.3 2235.2 1301.42 Q2235.38 1301.53 2235.38 1301.79 Z" fill="#000000" fill-rule="nonzero" fill-opacity="1" /><path clip-path="url(#clip580)" d="M2239.13 1333.46 Q2239.13 1333.22 2239.74 1332.64 Q2247.47 1324.77 2247.47 1309.94 Q2247.47 1295.07 2240.05 1287.55 Q2239.13 1286.68 2239.13 1286.43 Q2239.13 1285.96 2239.6 1285.96 Q2239.93 1285.96 2241.08 1286.92 Q2242.25 1287.88 2244.01 1290.08 Q2245.79 1292.28 2247.1 1294.97 Q2250.26 1301.51 2250.26 1309.94 Q2250.26 1318.05 2247.24 1324.58 Q2245.95 1327.32 2244.15 1329.62 Q2242.34 1331.91 2241.15 1332.92 Q2239.95 1333.93 2239.6 1333.93 Q2239.13 1333.93 2239.13 1333.46 Z" fill="#000000" fill-rule="nonzero" fill-opacity="1" /></svg>
