<?xml version="1.0" encoding="utf-8"?>
<svg xmlns="http://www.w3.org/2000/svg" xmlns:xlink="http://www.w3.org/1999/xlink" width="600" height="400" viewBox="0 0 2400 1600">
<defs>
  <clipPath id="clip470">
    <rect x="0" y="0" width="2400" height="1600"/>
  </clipPath>
</defs>
<path clip-path="url(#clip470)" d="M0 1600 L2400 1600 L2400 0 L0 0  Z" fill="#ffffff" fill-rule="evenodd" fill-opacity="1"/>
<defs>
  <clipPath id="clip471">
    <rect x="480" y="0" width="1681" height="1600"/>
  </clipPath>
</defs>
<path clip-path="url(#clip470)" d="M172.691 1423.18 L2352.76 1423.18 L2352.76 47.2441 L172.691 47.2441  Z" fill="#ffffff" fill-rule="evenodd" fill-opacity="1"/>
<defs>
  <clipPath id="clip472">
    <rect x="172" y="47" width="2181" height="1377"/>
  </clipPath>
</defs>
<polyline clip-path="url(#clip472)" style="stroke:#000000; stroke-linecap:round; stroke-linejoin:round; stroke-width:2; stroke-opacity:0.1; fill:none" points="448.358,1423.18 448.358,47.2441 "/>
<polyline clip-path="url(#clip472)" style="stroke:#000000; stroke-linecap:round; stroke-linejoin:round; stroke-width:2; stroke-opacity:0.1; fill:none" points="861.48,1423.18 861.48,47.2441 "/>
<polyline clip-path="url(#clip472)" style="stroke:#000000; stroke-linecap:round; stroke-linejoin:round; stroke-width:2; stroke-opacity:0.1; fill:none" points="1274.6,1423.18 1274.6,47.2441 "/>
<polyline clip-path="url(#clip472)" style="stroke:#000000; stroke-linecap:round; stroke-linejoin:round; stroke-width:2; stroke-opacity:0.1; fill:none" points="1687.72,1423.18 1687.72,47.2441 "/>
<polyline clip-path="url(#clip472)" style="stroke:#000000; stroke-linecap:round; stroke-linejoin:round; stroke-width:2; stroke-opacity:0.1; fill:none" points="2100.85,1423.18 2100.85,47.2441 "/>
<polyline clip-path="url(#clip470)" style="stroke:#000000; stroke-linecap:round; stroke-linejoin:round; stroke-width:4; stroke-opacity:1; fill:none" points="172.691,1423.18 2352.76,1423.18 "/>
<polyline clip-path="url(#clip470)" style="stroke:#000000; stroke-linecap:round; stroke-linejoin:round; stroke-width:4; stroke-opacity:1; fill:none" points="448.358,1423.18 448.358,1404.28 "/>
<polyline clip-path="url(#clip470)" style="stroke:#000000; stroke-linecap:round; stroke-linejoin:round; stroke-width:4; stroke-opacity:1; fill:none" points="861.48,1423.18 861.48,1404.28 "/>
<polyline clip-path="url(#clip470)" style="stroke:#000000; stroke-linecap:round; stroke-linejoin:round; stroke-width:4; stroke-opacity:1; fill:none" points="1274.6,1423.18 1274.6,1404.28 "/>
<polyline clip-path="url(#clip470)" style="stroke:#000000; stroke-linecap:round; stroke-linejoin:round; stroke-width:4; stroke-opacity:1; fill:none" points="1687.72,1423.18 1687.72,1404.28 "/>
<polyline clip-path="url(#clip470)" style="stroke:#000000; stroke-linecap:round; stroke-linejoin:round; stroke-width:4; stroke-opacity:1; fill:none" points="2100.85,1423.18 2100.85,1404.28 "/>
<path clip-path="url(#clip470)" d="M418.306 1477.43 Q418.306 1475.92 419.121 1475.35 Q419.936 1474.76 420.801 1474.76 Q421.962 1474.76 422.629 1475.5 Q423.321 1476.22 423.321 1477.23 Q423.321 1478.24 422.629 1478.98 Q421.962 1479.7 420.801 1479.7 Q420.233 1479.7 419.936 1479.6 Q420.603 1481.92 422.629 1483.6 Q424.679 1485.28 427.372 1485.28 Q430.756 1485.28 432.782 1482 Q433.993 1479.87 433.993 1475.06 Q433.993 1470.81 433.079 1468.68 Q431.67 1465.45 428.78 1465.45 Q424.679 1465.45 422.258 1468.98 Q421.962 1469.42 421.616 1469.45 Q421.122 1469.45 420.999 1469.18 Q420.9 1468.88 420.9 1468.11 L420.9 1453.14 Q420.9 1451.93 421.394 1451.93 Q421.591 1451.93 422.011 1452.08 Q425.198 1453.49 428.731 1453.51 Q432.362 1453.51 435.623 1452.03 Q435.87 1451.88 436.018 1451.88 Q436.512 1451.88 436.537 1452.45 Q436.537 1452.65 436.117 1453.24 Q435.722 1453.81 434.857 1454.58 Q433.993 1455.32 432.881 1456.03 Q431.769 1456.75 430.139 1457.25 Q428.533 1457.71 426.754 1457.71 Q424.63 1457.71 422.456 1457.05 L422.456 1466.9 Q425.075 1464.33 428.879 1464.33 Q432.93 1464.33 435.722 1467.6 Q438.513 1470.86 438.513 1475.4 Q438.513 1480.17 435.203 1483.43 Q431.917 1486.69 427.471 1486.69 Q423.42 1486.69 420.85 1483.8 Q418.306 1480.91 418.306 1477.43 Z" fill="#000000" fill-rule="nonzero" fill-opacity="1" /><path clip-path="url(#clip470)" d="M446.147 1484.76 Q445.381 1483.95 445.381 1482.89 Q445.381 1481.82 446.147 1481.06 Q446.912 1480.27 448.073 1480.27 Q449.185 1480.27 449.926 1481.01 Q450.692 1481.73 450.692 1482.91 Q450.692 1484.07 449.877 1484.84 Q449.086 1485.58 448.073 1485.58 Q446.912 1485.58 446.147 1484.76 Z" fill="#000000" fill-rule="nonzero" fill-opacity="1" /><path clip-path="url(#clip470)" d="M457.115 1469.4 Q457.115 1461.96 458.992 1457.91 Q461.611 1451.88 467.787 1451.88 Q469.096 1451.88 470.455 1452.26 Q471.838 1452.6 473.567 1453.96 Q475.321 1455.32 476.384 1457.54 Q478.409 1461.84 478.409 1469.4 Q478.409 1476.79 476.532 1480.81 Q473.79 1486.69 467.737 1486.69 Q465.465 1486.69 463.143 1485.53 Q460.845 1484.37 459.388 1481.58 Q457.115 1477.4 457.115 1469.4 M461.314 1468.78 Q461.314 1476.41 461.858 1479.45 Q462.476 1482.74 464.155 1484.17 Q465.86 1485.58 467.737 1485.58 Q469.763 1485.58 471.443 1484.07 Q473.147 1482.54 473.666 1479.26 Q474.234 1476.02 474.21 1468.78 Q474.21 1461.74 473.716 1458.92 Q473.049 1455.64 471.27 1454.33 Q469.516 1453 467.737 1453 Q467.07 1453 466.354 1453.19 Q465.662 1453.39 464.649 1453.96 Q463.637 1454.53 462.846 1455.94 Q462.08 1457.34 461.71 1459.47 Q461.314 1462.21 461.314 1468.78 Z" fill="#000000" fill-rule="nonzero" fill-opacity="1" /><path clip-path="url(#clip470)" d="M831.861 1461.79 L833.516 1451.39 L834.776 1451.39 Q834.924 1452.01 835.171 1452.28 Q835.443 1452.55 836.875 1452.77 Q838.333 1453 841.273 1453 L853.55 1453 Q853.55 1454.16 853.106 1454.77 L846.263 1464.38 Q844.089 1467.42 843.125 1473.03 Q842.557 1476.79 842.582 1481.33 L842.582 1483.9 Q842.582 1486.69 840.235 1486.69 Q837.913 1486.69 837.913 1483.9 Q837.913 1474.24 844.138 1464.88 Q844.805 1463.91 847.251 1460.48 Q849.721 1457.05 849.82 1456.9 L839.346 1456.9 Q834.751 1456.9 834.38 1457.2 Q833.886 1457.64 833.121 1461.79 L831.861 1461.79 Z" fill="#000000" fill-rule="nonzero" fill-opacity="1" /><path clip-path="url(#clip470)" d="M859.38 1484.76 Q858.614 1483.95 858.614 1482.89 Q858.614 1481.82 859.38 1481.06 Q860.146 1480.27 861.307 1480.27 Q862.419 1480.27 863.16 1481.01 Q863.926 1481.73 863.926 1482.91 Q863.926 1484.07 863.11 1484.84 Q862.32 1485.58 861.307 1485.58 Q860.146 1485.58 859.38 1484.76 Z" fill="#000000" fill-rule="nonzero" fill-opacity="1" /><path clip-path="url(#clip470)" d="M870.892 1477.43 Q870.892 1475.92 871.707 1475.35 Q872.522 1474.76 873.387 1474.76 Q874.548 1474.76 875.215 1475.5 Q875.907 1476.22 875.907 1477.23 Q875.907 1478.24 875.215 1478.98 Q874.548 1479.7 873.387 1479.7 Q872.819 1479.7 872.522 1479.6 Q873.189 1481.92 875.215 1483.6 Q877.265 1485.28 879.958 1485.28 Q883.342 1485.28 885.368 1482 Q886.579 1479.87 886.579 1475.06 Q886.579 1470.81 885.665 1468.68 Q884.256 1465.45 881.366 1465.45 Q877.265 1465.45 874.844 1468.98 Q874.548 1469.42 874.202 1469.45 Q873.708 1469.45 873.585 1469.18 Q873.486 1468.88 873.486 1468.11 L873.486 1453.14 Q873.486 1451.93 873.98 1451.93 Q874.177 1451.93 874.597 1452.08 Q877.784 1453.49 881.317 1453.51 Q884.948 1453.51 888.209 1452.03 Q888.456 1451.88 888.604 1451.88 Q889.098 1451.88 889.123 1452.45 Q889.123 1452.65 888.703 1453.24 Q888.308 1453.81 887.443 1454.58 Q886.579 1455.32 885.467 1456.03 Q884.355 1456.75 882.725 1457.25 Q881.119 1457.71 879.341 1457.71 Q877.216 1457.71 875.042 1457.05 L875.042 1466.9 Q877.661 1464.33 881.465 1464.33 Q885.516 1464.33 888.308 1467.6 Q891.099 1470.86 891.099 1475.4 Q891.099 1480.17 887.789 1483.43 Q884.504 1486.69 880.057 1486.69 Q876.006 1486.69 873.436 1483.8 Q870.892 1480.91 870.892 1477.43 Z" fill="#000000" fill-rule="nonzero" fill-opacity="1" /><path clip-path="url(#clip470)" d="M1232.89 1456.7 L1232.89 1455.12 Q1238.97 1455.12 1242.11 1451.88 Q1242.97 1451.88 1243.12 1452.08 Q1243.27 1452.28 1243.27 1453.19 L1243.27 1481.58 Q1243.27 1483.08 1244.01 1483.55 Q1244.75 1484.02 1247.98 1484.02 L1249.59 1484.02 L1249.59 1485.58 Q1247.81 1485.43 1241.39 1485.43 Q1234.97 1485.43 1233.21 1485.58 L1233.21 1484.02 L1234.82 1484.02 Q1238 1484.02 1238.77 1483.58 Q1239.54 1483.11 1239.54 1481.58 L1239.54 1455.37 Q1236.89 1456.7 1232.89 1456.7 Z" fill="#000000" fill-rule="nonzero" fill-opacity="1" /><path clip-path="url(#clip470)" d="M1255.67 1469.4 Q1255.67 1461.96 1257.54 1457.91 Q1260.16 1451.88 1266.34 1451.88 Q1267.65 1451.88 1269.01 1452.26 Q1270.39 1452.6 1272.12 1453.96 Q1273.87 1455.32 1274.94 1457.54 Q1276.96 1461.84 1276.96 1469.4 Q1276.96 1476.79 1275.08 1480.81 Q1272.34 1486.69 1266.29 1486.69 Q1264.02 1486.69 1261.69 1485.53 Q1259.4 1484.37 1257.94 1481.58 Q1255.67 1477.4 1255.67 1469.4 M1259.87 1468.78 Q1259.87 1476.41 1260.41 1479.45 Q1261.03 1482.74 1262.71 1484.17 Q1264.41 1485.58 1266.29 1485.58 Q1268.32 1485.58 1270 1484.07 Q1271.7 1482.54 1272.22 1479.26 Q1272.79 1476.02 1272.76 1468.78 Q1272.76 1461.74 1272.27 1458.92 Q1271.6 1455.64 1269.82 1454.33 Q1268.07 1453 1266.29 1453 Q1265.62 1453 1264.91 1453.19 Q1264.21 1453.39 1263.2 1453.96 Q1262.19 1454.53 1261.4 1455.94 Q1260.63 1457.34 1260.26 1459.47 Q1259.87 1462.21 1259.87 1468.78 Z" fill="#000000" fill-rule="nonzero" fill-opacity="1" /><path clip-path="url(#clip470)" d="M1284.05 1484.76 Q1283.29 1483.95 1283.29 1482.89 Q1283.29 1481.82 1284.05 1481.06 Q1284.82 1480.27 1285.98 1480.27 Q1287.09 1480.27 1287.83 1481.01 Q1288.6 1481.73 1288.6 1482.91 Q1288.6 1484.07 1287.78 1484.84 Q1286.99 1485.58 1285.98 1485.58 Q1284.82 1485.58 1284.05 1484.76 Z" fill="#000000" fill-rule="nonzero" fill-opacity="1" /><path clip-path="url(#clip470)" d="M1295.02 1469.4 Q1295.02 1461.96 1296.9 1457.91 Q1299.52 1451.88 1305.69 1451.88 Q1307 1451.88 1308.36 1452.26 Q1309.74 1452.6 1311.47 1453.96 Q1313.23 1455.32 1314.29 1457.54 Q1316.31 1461.84 1316.31 1469.4 Q1316.31 1476.79 1314.44 1480.81 Q1311.69 1486.69 1305.64 1486.69 Q1303.37 1486.69 1301.05 1485.53 Q1298.75 1484.37 1297.29 1481.58 Q1295.02 1477.4 1295.02 1469.4 M1299.22 1468.78 Q1299.22 1476.41 1299.76 1479.45 Q1300.38 1482.74 1302.06 1484.17 Q1303.76 1485.58 1305.64 1485.58 Q1307.67 1485.58 1309.35 1484.07 Q1311.05 1482.54 1311.57 1479.26 Q1312.14 1476.02 1312.11 1468.78 Q1312.11 1461.74 1311.62 1458.92 Q1310.95 1455.64 1309.17 1454.33 Q1307.42 1453 1305.64 1453 Q1304.98 1453 1304.26 1453.19 Q1303.57 1453.39 1302.55 1453.96 Q1301.54 1454.53 1300.75 1455.94 Q1299.99 1457.34 1299.61 1459.47 Q1299.22 1462.21 1299.22 1468.78 Z" fill="#000000" fill-rule="nonzero" fill-opacity="1" /><path clip-path="url(#clip470)" d="M1646.28 1456.7 L1646.28 1455.12 Q1652.36 1455.12 1655.5 1451.88 Q1656.36 1451.88 1656.51 1452.08 Q1656.66 1452.28 1656.66 1453.19 L1656.66 1481.58 Q1656.66 1483.08 1657.4 1483.55 Q1658.14 1484.02 1661.38 1484.02 L1662.98 1484.02 L1662.98 1485.58 Q1661.21 1485.43 1654.78 1485.43 Q1648.36 1485.43 1646.61 1485.58 L1646.61 1484.02 L1648.21 1484.02 Q1651.4 1484.02 1652.16 1483.58 Q1652.93 1483.11 1652.93 1481.58 L1652.93 1455.37 Q1650.29 1456.7 1646.28 1456.7 Z" fill="#000000" fill-rule="nonzero" fill-opacity="1" /><path clip-path="url(#clip470)" d="M1669.6 1485.58 Q1669.6 1484.67 1669.68 1484.39 Q1669.78 1484.12 1670.17 1483.7 L1679.88 1472.88 Q1685.19 1466.9 1685.19 1461.69 Q1685.19 1458.31 1683.41 1455.89 Q1681.66 1453.47 1678.42 1453.47 Q1676.2 1453.47 1674.32 1454.82 Q1672.45 1456.18 1671.58 1458.6 Q1671.73 1458.55 1672.25 1458.55 Q1673.51 1458.55 1674.2 1459.34 Q1674.92 1460.14 1674.92 1461.2 Q1674.92 1462.56 1674.03 1463.22 Q1673.16 1463.87 1672.3 1463.87 Q1671.95 1463.87 1671.48 1463.79 Q1671.04 1463.72 1670.32 1463.03 Q1669.6 1462.31 1669.6 1461.05 Q1669.6 1457.52 1672.27 1454.7 Q1674.97 1451.88 1679.07 1451.88 Q1683.71 1451.88 1686.75 1454.65 Q1689.81 1457.39 1689.81 1461.69 Q1689.81 1463.2 1689.34 1464.58 Q1688.9 1465.94 1688.28 1467 Q1687.69 1468.07 1686.06 1469.77 Q1684.43 1471.47 1683.12 1472.68 Q1681.81 1473.9 1678.87 1476.46 L1673.51 1481.68 L1682.62 1481.68 Q1687.07 1481.68 1687.42 1481.28 Q1687.91 1480.57 1688.53 1476.79 L1689.81 1476.79 L1688.38 1485.58 L1669.6 1485.58 Z" fill="#000000" fill-rule="nonzero" fill-opacity="1" /><path clip-path="url(#clip470)" d="M1697.45 1484.76 Q1696.68 1483.95 1696.68 1482.89 Q1696.68 1481.82 1697.45 1481.06 Q1698.21 1480.27 1699.37 1480.27 Q1700.48 1480.27 1701.23 1481.01 Q1701.99 1481.73 1701.99 1482.91 Q1701.99 1484.07 1701.18 1484.84 Q1700.39 1485.58 1699.37 1485.58 Q1698.21 1485.58 1697.45 1484.76 Z" fill="#000000" fill-rule="nonzero" fill-opacity="1" /><path clip-path="url(#clip470)" d="M1708.96 1477.43 Q1708.96 1475.92 1709.77 1475.35 Q1710.59 1474.76 1711.45 1474.76 Q1712.61 1474.76 1713.28 1475.5 Q1713.97 1476.22 1713.97 1477.23 Q1713.97 1478.24 1713.28 1478.98 Q1712.61 1479.7 1711.45 1479.7 Q1710.88 1479.7 1710.59 1479.6 Q1711.25 1481.92 1713.28 1483.6 Q1715.33 1485.28 1718.02 1485.28 Q1721.41 1485.28 1723.43 1482 Q1724.64 1479.87 1724.64 1475.06 Q1724.64 1470.81 1723.73 1468.68 Q1722.32 1465.45 1719.43 1465.45 Q1715.33 1465.45 1712.91 1468.98 Q1712.61 1469.42 1712.27 1469.45 Q1711.77 1469.45 1711.65 1469.18 Q1711.55 1468.88 1711.55 1468.11 L1711.55 1453.14 Q1711.55 1451.93 1712.05 1451.93 Q1712.24 1451.93 1712.66 1452.08 Q1715.85 1453.49 1719.38 1453.51 Q1723.01 1453.51 1726.27 1452.03 Q1726.52 1451.88 1726.67 1451.88 Q1727.16 1451.88 1727.19 1452.45 Q1727.19 1452.65 1726.77 1453.24 Q1726.37 1453.81 1725.51 1454.58 Q1724.64 1455.32 1723.53 1456.03 Q1722.42 1456.75 1720.79 1457.25 Q1719.18 1457.71 1717.41 1457.71 Q1715.28 1457.71 1713.11 1457.05 L1713.11 1466.9 Q1715.73 1464.33 1719.53 1464.33 Q1723.58 1464.33 1726.37 1467.6 Q1729.16 1470.86 1729.16 1475.4 Q1729.16 1480.17 1725.85 1483.43 Q1722.57 1486.69 1718.12 1486.69 Q1714.07 1486.69 1711.5 1483.8 Q1708.96 1480.91 1708.96 1477.43 Z" fill="#000000" fill-rule="nonzero" fill-opacity="1" /><path clip-path="url(#clip470)" d="M2059.14 1456.7 L2059.14 1455.12 Q2065.21 1455.12 2068.35 1451.88 Q2069.21 1451.88 2069.36 1452.08 Q2069.51 1452.28 2069.51 1453.19 L2069.51 1481.58 Q2069.51 1483.08 2070.25 1483.55 Q2070.99 1484.02 2074.23 1484.02 L2075.83 1484.02 L2075.83 1485.58 Q2074.06 1485.43 2067.63 1485.43 Q2061.21 1485.43 2059.46 1485.58 L2059.46 1484.02 L2061.06 1484.02 Q2064.25 1484.02 2065.01 1483.58 Q2065.78 1483.11 2065.78 1481.58 L2065.78 1455.37 Q2063.14 1456.7 2059.14 1456.7 Z" fill="#000000" fill-rule="nonzero" fill-opacity="1" /><path clip-path="url(#clip470)" d="M2082.46 1477.43 Q2082.46 1475.92 2083.27 1475.35 Q2084.09 1474.76 2084.95 1474.76 Q2086.11 1474.76 2086.78 1475.5 Q2087.47 1476.22 2087.47 1477.23 Q2087.47 1478.24 2086.78 1478.98 Q2086.11 1479.7 2084.95 1479.7 Q2084.38 1479.7 2084.09 1479.6 Q2084.75 1481.92 2086.78 1483.6 Q2088.83 1485.28 2091.52 1485.28 Q2094.91 1485.28 2096.93 1482 Q2098.14 1479.87 2098.14 1475.06 Q2098.14 1470.81 2097.23 1468.68 Q2095.82 1465.45 2092.93 1465.45 Q2088.83 1465.45 2086.41 1468.98 Q2086.11 1469.42 2085.77 1469.45 Q2085.27 1469.45 2085.15 1469.18 Q2085.05 1468.88 2085.05 1468.11 L2085.05 1453.14 Q2085.05 1451.93 2085.54 1451.93 Q2085.74 1451.93 2086.16 1452.08 Q2089.35 1453.49 2092.88 1453.51 Q2096.51 1453.51 2099.77 1452.03 Q2100.02 1451.88 2100.17 1451.88 Q2100.66 1451.88 2100.69 1452.45 Q2100.69 1452.65 2100.27 1453.24 Q2099.87 1453.81 2099.01 1454.58 Q2098.14 1455.32 2097.03 1456.03 Q2095.92 1456.75 2094.29 1457.25 Q2092.68 1457.71 2090.9 1457.71 Q2088.78 1457.71 2086.61 1457.05 L2086.61 1466.9 Q2089.22 1464.33 2093.03 1464.33 Q2097.08 1464.33 2099.87 1467.6 Q2102.66 1470.86 2102.66 1475.4 Q2102.66 1480.17 2099.35 1483.43 Q2096.07 1486.69 2091.62 1486.69 Q2087.57 1486.69 2085 1483.8 Q2082.46 1480.91 2082.46 1477.43 Z" fill="#000000" fill-rule="nonzero" fill-opacity="1" /><path clip-path="url(#clip470)" d="M2110.3 1484.76 Q2109.53 1483.95 2109.53 1482.89 Q2109.53 1481.82 2110.3 1481.06 Q2111.06 1480.27 2112.22 1480.27 Q2113.33 1480.27 2114.08 1481.01 Q2114.84 1481.73 2114.84 1482.91 Q2114.84 1484.07 2114.03 1484.84 Q2113.24 1485.58 2112.22 1485.58 Q2111.06 1485.58 2110.3 1484.76 Z" fill="#000000" fill-rule="nonzero" fill-opacity="1" /><path clip-path="url(#clip470)" d="M2121.26 1469.4 Q2121.26 1461.96 2123.14 1457.91 Q2125.76 1451.88 2131.94 1451.88 Q2133.25 1451.88 2134.6 1452.26 Q2135.99 1452.6 2137.72 1453.96 Q2139.47 1455.32 2140.53 1457.54 Q2142.56 1461.84 2142.56 1469.4 Q2142.56 1476.79 2140.68 1480.81 Q2137.94 1486.69 2131.89 1486.69 Q2129.61 1486.69 2127.29 1485.53 Q2124.99 1484.37 2123.54 1481.58 Q2121.26 1477.4 2121.26 1469.4 M2125.46 1468.78 Q2125.46 1476.41 2126.01 1479.45 Q2126.63 1482.74 2128.3 1484.17 Q2130.01 1485.58 2131.89 1485.58 Q2133.91 1485.58 2135.59 1484.07 Q2137.3 1482.54 2137.82 1479.26 Q2138.38 1476.02 2138.36 1468.78 Q2138.36 1461.74 2137.87 1458.92 Q2137.2 1455.64 2135.42 1454.33 Q2133.67 1453 2131.89 1453 Q2131.22 1453 2130.5 1453.19 Q2129.81 1453.39 2128.8 1453.96 Q2127.79 1454.53 2127 1455.94 Q2126.23 1457.34 2125.86 1459.47 Q2125.46 1462.21 2125.46 1468.78 Z" fill="#000000" fill-rule="nonzero" fill-opacity="1" /><path clip-path="url(#clip470)" d="M1229.93 1511.94 Q1229.93 1512.55 1229.8 1513.07 L1228 1524.53 Q1227.9 1525.4 1227.71 1525.72 Q1227.55 1526.05 1227.03 1526.05 Q1226.23 1526.05 1226.23 1525.21 Q1226.23 1524.72 1226.42 1523.95 Q1226.97 1520.31 1226.97 1518.67 Q1226.97 1517.58 1226.74 1516.77 Q1226.55 1515.93 1226.23 1515.35 Q1225.94 1514.77 1225.26 1514.39 Q1224.59 1514 1223.94 1513.77 Q1223.3 1513.55 1222.14 1513.45 Q1220.98 1513.32 1219.98 1513.29 Q1218.98 1513.26 1217.34 1513.26 Q1213.77 1513.26 1213.19 1513.39 Q1212.57 1513.55 1212.25 1514.03 Q1211.96 1514.48 1211.64 1515.84 L1202.88 1550.84 L1202.62 1552.23 Q1202.62 1553 1203.11 1553.26 Q1203.59 1553.52 1205.07 1553.68 Q1207.2 1553.84 1209.29 1553.84 Q1209.35 1553.84 1209.48 1553.84 Q1210.19 1553.84 1210.48 1553.87 Q1210.77 1553.87 1211.06 1553.94 Q1211.35 1554 1211.41 1554.16 Q1211.51 1554.29 1211.51 1554.55 Q1211.51 1555.16 1211.25 1555.48 Q1211 1555.77 1210.74 1555.84 Q1210.51 1555.87 1210.06 1555.87 Q1209.16 1555.87 1207.23 1555.8 Q1205.3 1555.74 1204.33 1555.74 L1198.85 1555.67 L1193.25 1555.74 Q1192.38 1555.74 1190.55 1555.8 Q1188.71 1555.87 1187.84 1555.87 Q1186.71 1555.87 1186.71 1555.06 Q1186.71 1554.16 1187.13 1554 Q1187.58 1553.84 1189.48 1553.84 Q1192.16 1553.84 1193.6 1553.71 Q1195.05 1553.58 1195.83 1553.13 Q1196.63 1552.68 1196.86 1552.23 Q1197.08 1551.75 1197.34 1550.65 L1206.2 1515.45 Q1206.46 1514.68 1206.46 1514.06 Q1206.46 1513.74 1206.36 1513.61 Q1206.29 1513.48 1205.88 1513.39 Q1205.46 1513.26 1204.59 1513.26 L1202.01 1513.26 Q1199.37 1513.26 1197.73 1513.39 Q1196.12 1513.48 1194.57 1513.97 Q1193.06 1514.45 1192.16 1515.13 Q1191.29 1515.8 1190.32 1517.19 Q1189.35 1518.57 1188.65 1520.25 Q1187.97 1521.92 1187 1524.66 Q1186.68 1525.56 1186.49 1525.82 Q1186.33 1526.05 1185.88 1526.05 Q1185.55 1526.05 1185.3 1525.85 Q1185.07 1525.63 1185.07 1525.34 Q1185.39 1524.27 1185.46 1524.15 L1189.42 1512.52 Q1189.74 1511.58 1190.03 1511.42 Q1190.35 1511.23 1191.54 1511.23 L1228.13 1511.23 Q1228.71 1511.23 1228.9 1511.23 Q1229.1 1511.23 1229.42 1511.29 Q1229.74 1511.36 1229.84 1511.52 Q1229.93 1511.68 1229.93 1511.94 Z" fill="#000000" fill-rule="nonzero" fill-opacity="1" /><path clip-path="url(#clip470)" d="M1256.3 1555.39 Q1256.3 1557.85 1255.22 1560.29 Q1254.14 1562.7 1252.4 1564.5 Q1250.69 1566.28 1248.44 1567.41 Q1246.18 1568.51 1243.93 1568.51 Q1240.7 1568.51 1238.61 1566.33 Q1236.53 1564.12 1236.53 1560.69 Q1236.53 1557.49 1238.31 1554.45 Q1240.12 1551.38 1243 1549.49 Q1245.89 1547.59 1248.91 1547.59 Q1252.09 1547.59 1254.18 1549.73 Q1256.3 1551.88 1256.3 1555.39 M1252.92 1553.59 Q1252.92 1551.4 1251.86 1550.01 Q1250.8 1548.61 1248.86 1548.61 Q1248.3 1548.61 1247.65 1548.79 Q1246.99 1548.95 1246.14 1549.37 Q1245.3 1549.8 1244.36 1550.7 Q1243.43 1551.58 1242.62 1552.85 Q1241.56 1554.51 1240.75 1557.58 Q1239.96 1560.62 1239.96 1562.45 Q1239.96 1564.97 1241.13 1566.24 Q1242.3 1567.48 1243.97 1567.48 Q1245.6 1567.48 1247.31 1566.35 Q1249.04 1565.2 1250.24 1563.24 Q1251.43 1561.21 1252.18 1558.23 Q1252.92 1555.24 1252.92 1553.59 Z" fill="#000000" fill-rule="nonzero" fill-opacity="1" /><path clip-path="url(#clip470)" d="M1280.58 1572.36 L1280.58 1506.4 L1290.53 1506.4 L1290.53 1507.91 L1284.99 1507.91 L1284.99 1570.84 L1290.53 1570.84 L1290.53 1572.36 L1280.58 1572.36 Z" fill="#000000" fill-rule="nonzero" fill-opacity="1" /><path clip-path="url(#clip470)" d="M1317.47 1532.39 Q1317.47 1534.19 1316.57 1535.16 Q1315.67 1536.09 1314.44 1536.09 Q1313.45 1536.09 1312.9 1535.51 Q1312.38 1534.93 1312.38 1534.16 Q1312.38 1533.03 1313.28 1532.13 Q1314.22 1531.23 1315.57 1531.2 Q1315.12 1530.01 1313.93 1529.3 Q1312.74 1528.56 1311.67 1528.36 Q1310.64 1528.17 1309.61 1528.17 Q1307.58 1528.17 1306.04 1528.81 Q1304.49 1529.46 1303.72 1530.46 Q1302.95 1531.42 1302.59 1532.36 Q1302.24 1533.29 1302.24 1534.1 Q1302.24 1534.81 1302.4 1535.38 Q1302.59 1535.93 1303.04 1536.35 Q1303.49 1536.74 1303.82 1537 Q1304.17 1537.25 1304.94 1537.48 Q1305.72 1537.7 1306.04 1537.8 Q1306.36 1537.86 1307.26 1538.06 Q1309.13 1538.44 1309.97 1538.67 Q1310.8 1538.86 1311.9 1539.41 Q1313.03 1539.96 1313.86 1540.83 Q1315.89 1542.86 1315.89 1545.66 Q1315.89 1546.69 1315.54 1547.95 Q1315.22 1549.2 1314.28 1550.78 Q1313.35 1552.36 1311.93 1553.61 Q1310.51 1554.87 1308.07 1555.74 Q1305.65 1556.61 1302.62 1556.61 Q1298.4 1556.61 1295.8 1554.84 Q1293.19 1553.03 1293.19 1550.2 Q1293.19 1548.14 1294.31 1547.01 Q1295.44 1545.85 1296.89 1545.85 Q1297.99 1545.85 1298.66 1546.46 Q1299.34 1547.04 1299.34 1548.14 Q1299.34 1549.62 1298.15 1550.75 Q1296.96 1551.87 1295.18 1551.65 Q1296.7 1555.13 1302.69 1555.13 Q1304.94 1555.13 1306.68 1554.55 Q1308.45 1553.94 1309.42 1553.1 Q1310.42 1552.23 1311.06 1551.17 Q1311.71 1550.1 1311.9 1549.3 Q1312.12 1548.49 1312.12 1547.88 Q1312.12 1546.82 1311.71 1546.01 Q1311.29 1545.21 1310.71 1544.76 Q1310.16 1544.27 1309.1 1543.89 Q1308.07 1543.47 1307.33 1543.31 Q1306.59 1543.15 1305.26 1542.89 Q1304.65 1542.76 1304.27 1542.7 Q1303.88 1542.6 1303.07 1542.34 Q1302.3 1542.05 1301.75 1541.76 Q1301.24 1541.47 1300.56 1540.96 Q1299.89 1540.44 1299.47 1539.83 Q1299.05 1539.22 1298.76 1538.32 Q1298.47 1537.41 1298.47 1536.35 Q1298.47 1535.38 1298.76 1534.23 Q1299.08 1533.07 1299.89 1531.71 Q1300.72 1530.36 1301.92 1529.27 Q1303.11 1528.17 1305.1 1527.46 Q1307.13 1526.72 1309.61 1526.72 Q1313.22 1526.72 1315.35 1528.4 Q1317.47 1530.04 1317.47 1532.39 Z" fill="#000000" fill-rule="nonzero" fill-opacity="1" /><path clip-path="url(#clip470)" d="M1322.23 1570.84 L1327.77 1570.84 L1327.77 1507.91 L1322.23 1507.91 L1322.23 1506.4 L1332.18 1506.4 L1332.18 1572.36 L1322.23 1572.36 L1322.23 1570.84 Z" fill="#000000" fill-rule="nonzero" fill-opacity="1" /><polyline clip-path="url(#clip472)" style="stroke:#000000; stroke-linecap:round; stroke-linejoin:round; stroke-width:2; stroke-opacity:0.1; fill:none" points="172.691,1203.68 2352.76,1203.68 "/>
<polyline clip-path="url(#clip472)" style="stroke:#000000; stroke-linecap:round; stroke-linejoin:round; stroke-width:2; stroke-opacity:0.1; fill:none" points="172.691,907.248 2352.76,907.248 "/>
<polyline clip-path="url(#clip472)" style="stroke:#000000; stroke-linecap:round; stroke-linejoin:round; stroke-width:2; stroke-opacity:0.1; fill:none" points="172.691,610.82 2352.76,610.82 "/>
<polyline clip-path="url(#clip472)" style="stroke:#000000; stroke-linecap:round; stroke-linejoin:round; stroke-width:2; stroke-opacity:0.1; fill:none" points="172.691,314.392 2352.76,314.392 "/>
<polyline clip-path="url(#clip470)" style="stroke:#000000; stroke-linecap:round; stroke-linejoin:round; stroke-width:4; stroke-opacity:1; fill:none" points="172.691,1423.18 172.691,47.2441 "/>
<polyline clip-path="url(#clip470)" style="stroke:#000000; stroke-linecap:round; stroke-linejoin:round; stroke-width:4; stroke-opacity:1; fill:none" points="172.691,1203.68 191.588,1203.68 "/>
<polyline clip-path="url(#clip470)" style="stroke:#000000; stroke-linecap:round; stroke-linejoin:round; stroke-width:4; stroke-opacity:1; fill:none" points="172.691,907.248 191.588,907.248 "/>
<polyline clip-path="url(#clip470)" style="stroke:#000000; stroke-linecap:round; stroke-linejoin:round; stroke-width:4; stroke-opacity:1; fill:none" points="172.691,610.82 191.588,610.82 "/>
<polyline clip-path="url(#clip470)" style="stroke:#000000; stroke-linecap:round; stroke-linejoin:round; stroke-width:4; stroke-opacity:1; fill:none" points="172.691,314.392 191.588,314.392 "/>
<path clip-path="url(#clip470)" d="M116.483 1220.96 Q116.483 1220.04 116.558 1219.77 Q116.656 1219.5 117.052 1219.08 L126.76 1208.26 Q132.071 1202.28 132.071 1197.07 Q132.071 1193.68 130.293 1191.26 Q128.539 1188.84 125.303 1188.84 Q123.079 1188.84 121.202 1190.2 Q119.324 1191.56 118.46 1193.98 Q118.608 1193.93 119.127 1193.93 Q120.387 1193.93 121.078 1194.72 Q121.795 1195.51 121.795 1196.57 Q121.795 1197.93 120.905 1198.6 Q120.041 1199.24 119.176 1199.24 Q118.83 1199.24 118.361 1199.17 Q117.916 1199.09 117.2 1198.4 Q116.483 1197.69 116.483 1196.43 Q116.483 1192.89 119.151 1190.08 Q121.844 1187.26 125.945 1187.26 Q130.589 1187.26 133.628 1190.03 Q136.691 1192.77 136.691 1197.07 Q136.691 1198.57 136.221 1199.96 Q135.777 1201.32 135.159 1202.38 Q134.566 1203.44 132.936 1205.15 Q131.305 1206.85 129.996 1208.06 Q128.687 1209.27 125.747 1211.84 L120.387 1217.05 L129.502 1217.05 Q133.949 1217.05 134.295 1216.66 Q134.789 1215.94 135.406 1212.16 L136.691 1212.16 L135.258 1220.96 L116.483 1220.96 Z" fill="#000000" fill-rule="nonzero" fill-opacity="1" /><path clip-path="url(#clip470)" d="M115.693 917.71 Q115.693 916.203 116.558 915.487 Q117.422 914.77 118.534 914.77 Q119.695 914.77 120.51 915.536 Q121.35 916.277 121.35 917.586 Q121.35 918.994 120.362 919.785 Q119.398 920.575 118.015 920.378 Q119.226 922.404 121.449 923.318 Q123.697 924.232 125.772 924.232 Q127.946 924.232 129.7 922.354 Q131.478 920.477 131.478 915.882 Q131.478 911.979 129.947 909.731 Q128.44 907.483 125.451 907.483 L123.227 907.483 Q122.462 907.483 122.239 907.409 Q122.017 907.334 122.017 906.915 Q122.017 906.42 122.783 906.322 Q123.549 906.322 124.759 906.173 Q127.699 906.075 129.255 903.53 Q130.663 901.159 130.663 897.774 Q130.663 894.686 129.181 893.402 Q127.723 892.093 125.821 892.093 Q124.043 892.093 122.091 892.834 Q120.14 893.575 119.077 895.23 Q122.215 895.23 122.215 897.774 Q122.215 898.886 121.498 899.627 Q120.807 900.343 119.645 900.343 Q118.534 900.343 117.793 899.652 Q117.052 898.935 117.052 897.725 Q117.052 894.835 119.621 892.834 Q122.215 890.833 126.019 890.833 Q129.774 890.833 132.541 892.809 Q135.332 894.785 135.332 897.824 Q135.332 900.813 133.356 903.258 Q131.38 905.704 128.242 906.717 Q132.096 907.483 134.393 910.101 Q136.691 912.695 136.691 915.882 Q136.691 919.834 133.578 922.749 Q130.466 925.64 125.92 925.64 Q121.721 925.64 118.707 923.367 Q115.693 921.094 115.693 917.71 Z" fill="#000000" fill-rule="nonzero" fill-opacity="1" /><path clip-path="url(#clip470)" d="M114.26 619.75 L114.26 618.194 L129.799 594.454 Q130.194 593.836 130.811 593.861 Q131.38 593.861 131.503 594.084 Q131.627 594.306 131.627 595.17 L131.627 618.194 L136.691 618.194 L136.691 619.75 L131.627 619.75 L131.627 624.147 Q131.627 625.605 132.219 626.074 Q132.837 626.544 135.456 626.544 L136.518 626.544 L136.518 628.1 Q134.443 627.952 129.65 627.952 Q124.883 627.952 122.808 628.1 L122.808 626.544 L123.87 626.544 Q126.488 626.544 127.106 626.099 Q127.723 625.63 127.723 624.147 L127.723 619.75 L114.26 619.75 M115.693 618.194 L128.02 618.194 L128.02 599.321 L115.693 618.194 Z" fill="#000000" fill-rule="nonzero" fill-opacity="1" /><path clip-path="url(#clip470)" d="M116.483 323.52 Q116.483 322.013 117.299 321.445 Q118.114 320.852 118.978 320.852 Q120.14 320.852 120.807 321.593 Q121.498 322.309 121.498 323.322 Q121.498 324.335 120.807 325.076 Q120.14 325.793 118.978 325.793 Q118.41 325.793 118.114 325.694 Q118.781 328.016 120.807 329.696 Q122.857 331.376 125.55 331.376 Q128.934 331.376 130.96 328.09 Q132.17 325.966 132.17 321.148 Q132.17 316.899 131.256 314.775 Q129.848 311.539 126.958 311.539 Q122.857 311.539 120.436 315.071 Q120.14 315.516 119.794 315.541 Q119.3 315.541 119.176 315.269 Q119.077 314.973 119.077 314.207 L119.077 299.237 Q119.077 298.026 119.571 298.026 Q119.769 298.026 120.189 298.174 Q123.376 299.582 126.908 299.607 Q130.54 299.607 133.801 298.125 Q134.048 297.977 134.196 297.977 Q134.69 297.977 134.715 298.545 Q134.715 298.742 134.295 299.335 Q133.899 299.904 133.035 300.669 Q132.17 301.41 131.058 302.127 Q129.947 302.843 128.316 303.337 Q126.711 303.807 124.932 303.807 Q122.808 303.807 120.634 303.14 L120.634 312.996 Q123.252 310.427 127.056 310.427 Q131.108 310.427 133.899 313.688 Q136.691 316.949 136.691 321.494 Q136.691 326.262 133.381 329.523 Q130.095 332.784 125.648 332.784 Q121.597 332.784 119.028 329.893 Q116.483 327.003 116.483 323.52 Z" fill="#000000" fill-rule="nonzero" fill-opacity="1" /><path clip-path="url(#clip470)" d="M64.7637 781.176 Q65.3756 781.176 65.6976 781.434 Q65.9875 781.66 66.0519 781.885 Q66.0841 782.078 66.0841 782.368 Q66.0841 783.205 65.9875 786.104 Q65.8909 789.003 65.8909 789.84 Q65.8909 791.192 65.9875 793.962 Q66.0841 796.732 66.0841 798.085 Q66.0841 798.986 65.3434 798.986 Q64.8603 798.986 64.6026 798.89 Q64.3128 798.793 64.2162 798.535 Q64.0873 798.246 64.0873 798.085 Q64.0551 797.891 64.0551 797.408 Q64.0551 796.764 63.9907 796.088 Q63.8941 795.411 63.7009 794.574 Q63.5076 793.737 63.0245 793.221 Q62.5415 792.674 61.8651 792.674 Q61.5753 792.674 59.192 792.899 Q56.8088 793.125 54.0391 793.415 Q51.2372 793.705 50.8507 793.737 L50.8507 810.291 Q53.4594 811.804 55.2629 812.867 Q57.0665 813.93 57.6784 814.316 Q58.2903 814.703 58.6767 814.928 Q59.0632 815.154 59.2887 815.282 Q60.9956 816.216 61.7363 816.216 Q63.7975 816.216 64.0551 813.125 Q64.0551 812.062 64.8281 812.062 Q65.4078 812.062 65.7298 812.32 Q66.0197 812.577 66.0519 812.803 Q66.0841 812.996 66.0841 813.318 Q66.0841 814.381 65.9875 816.603 Q65.8909 818.825 65.8909 819.92 Q65.8909 820.854 65.9875 822.786 Q66.0841 824.719 66.0841 825.588 Q66.0841 825.975 65.8587 826.2 Q65.6332 826.426 65.3434 826.426 Q64.8925 826.426 64.6348 826.361 Q64.3772 826.265 64.2484 826.007 Q64.1195 825.749 64.1195 825.621 Q64.0873 825.492 64.0551 825.041 Q63.8941 822.593 62.7347 820.693 Q61.5431 818.761 58.4835 816.925 L19.9653 793.994 Q19.5788 793.769 19.3856 793.608 Q19.1924 793.447 19.0313 793.125 Q18.8703 792.771 18.8703 792.255 Q18.8703 791.45 19.1279 791.289 Q19.3534 791.128 20.4484 791.031 L61.6719 787.006 Q62.5415 786.909 62.8957 786.845 Q63.2178 786.748 63.572 786.329 Q63.8941 785.879 63.9907 785.073 Q64.0551 784.236 64.0551 782.69 Q64.0551 782.11 64.0873 781.885 Q64.0873 781.66 64.2484 781.434 Q64.4094 781.176 64.7637 781.176 M48.7895 793.93 L27.0506 796.023 L48.7895 809.035 L48.7895 793.93 Z" fill="#000000" fill-rule="nonzero" fill-opacity="1" /><path clip-path="url(#clip470)" d="M65.6094 754.802 Q68.0667 754.802 70.5015 755.884 Q72.9137 756.966 74.7173 758.702 Q76.4982 760.416 77.6254 762.67 Q78.7301 764.924 78.7301 767.179 Q78.7301 770.403 76.5433 772.499 Q74.334 774.573 70.9073 774.573 Q67.706 774.573 64.6626 772.792 Q61.5966 770.989 59.7029 768.103 Q57.8092 765.217 57.8092 762.196 Q57.8092 759.018 59.9509 756.921 Q62.0926 754.802 65.6094 754.802 M63.8059 758.184 Q61.6191 758.184 60.2214 759.243 Q58.8237 760.303 58.8237 762.242 Q58.8237 762.805 59.004 763.459 Q59.1618 764.113 59.5902 764.969 Q60.0185 765.804 60.9203 766.75 Q61.7995 767.675 63.062 768.486 Q64.7302 769.546 67.7962 770.357 Q70.8397 771.147 72.6657 771.147 Q75.1907 771.147 76.4532 769.974 Q77.6931 768.802 77.6931 767.134 Q77.6931 765.51 76.5659 763.797 Q75.4161 762.061 73.4548 760.866 Q71.4258 759.672 68.45 758.928 Q65.4516 758.184 63.8059 758.184 Z" fill="#000000" fill-rule="nonzero" fill-opacity="1" /><path clip-path="url(#clip470)" d="M82.5735 730.524 L16.6159 730.524 L16.6159 720.573 L18.1296 720.573 L18.1296 726.112 L81.0598 726.112 L81.0598 720.573 L82.5735 720.573 L82.5735 730.524 Z" fill="#000000" fill-rule="nonzero" fill-opacity="1" /><path clip-path="url(#clip470)" d="M56.6478 665.197 Q56.9054 665.197 57.9038 665.486 Q58.9022 665.776 60.4481 666.485 Q61.994 667.161 63.411 668.127 Q64.7959 669.061 65.8264 670.607 Q66.8248 672.121 66.8248 673.86 Q66.8248 676.179 65.2789 677.725 Q63.7331 679.27 61.4142 679.27 Q60.1582 679.27 57.775 678.401 Q46.8894 674.311 42.9925 674.311 Q38.3871 674.311 38.3871 677.886 Q38.3871 679.915 39.2244 681.75 Q40.0618 683.586 41.2212 684.778 Q42.3806 685.969 43.701 686.903 Q45.0215 687.837 45.891 688.256 Q46.7606 688.642 47.147 688.739 L63.0567 692.7 Q64.4094 693.022 65.0535 693.248 Q65.6976 693.473 66.2451 694.085 Q66.8248 694.697 66.8248 695.663 Q66.8248 696.468 66.3417 697.048 Q65.8587 697.596 65.0213 697.596 Q64.8925 697.596 64.2162 697.435 Q63.5398 697.274 62.6059 697.048 Q61.6719 696.823 61.1244 696.726 Q56.7444 695.567 56.1325 695.406 L48.4675 693.57 Q44.6672 692.572 42.9925 692.572 Q38.3871 692.572 38.3871 696.146 Q38.3871 697.918 39.0634 699.592 Q39.7075 701.235 40.6093 702.362 Q41.511 703.489 42.7671 704.52 Q43.9909 705.518 44.8282 706.034 Q45.6334 706.517 46.4385 706.903 L49.7235 707.74 Q50.6253 707.934 54.1357 708.868 L60.0938 710.317 Q64.5382 711.348 64.9569 711.573 Q65.8587 711.895 66.3417 712.604 Q66.8248 713.312 66.8248 714.021 Q66.8248 714.826 66.3417 715.373 Q65.8587 715.921 65.0213 715.921 Q64.8925 715.921 64.4094 715.824 Q63.9263 715.728 63.25 715.566 Q62.5737 715.405 62.1872 715.341 L46.9538 711.509 Q44.1841 710.8 43.3146 710.639 Q42.4128 710.446 41.4144 710.446 Q38.3871 710.446 38.3871 712.507 Q38.3871 714.182 40.3838 715.277 Q42.3806 716.372 46.2453 717.306 Q47.3081 717.595 47.5335 717.789 Q47.759 717.95 47.759 718.433 Q47.7268 719.238 47.0826 719.238 Q46.9216 719.238 45.891 718.98 Q44.8604 718.723 43.3146 718.24 Q41.7365 717.724 40.7059 717.177 Q40.0296 716.855 39.5787 716.565 Q39.1278 716.275 38.4193 715.695 Q37.7107 715.116 37.3243 714.246 Q36.9378 713.376 36.9378 712.314 Q36.9378 709.963 38.4515 708.224 Q39.9651 706.452 42.6704 706.227 Q36.9378 701.943 36.9378 695.953 Q36.9378 692.572 38.6447 690.543 Q40.2872 688.642 43.3146 688.417 Q36.9378 683.973 36.9378 677.66 Q36.9378 674.021 38.8379 672.056 Q40.7059 670.092 43.9909 670.092 Q45.6978 670.092 48.9506 670.961 Q52.1712 671.831 53.7815 672.411 Q55.3917 672.99 58.4835 674.118 Q61.4465 675.309 63.1856 675.309 Q64.3128 675.309 64.8281 674.923 Q65.3434 674.536 65.3434 673.699 Q65.3434 672.411 64.6026 671.283 Q63.8297 670.156 62.5737 669.351 Q61.2854 668.514 59.9972 667.966 Q58.6767 667.419 57.1953 667 Q56.3901 666.742 56.1969 666.614 Q56.0037 666.453 56.0037 666.002 Q56.0037 665.197 56.6478 665.197 Z" fill="#000000" fill-rule="nonzero" fill-opacity="1" /><path clip-path="url(#clip470)" d="M81.0598 662.148 L81.0598 656.609 L18.1296 656.609 L18.1296 662.148 L16.6159 662.148 L16.6159 652.197 L82.5735 652.197 L82.5735 662.148 L81.0598 662.148 Z" fill="#000000" fill-rule="nonzero" fill-opacity="1" /><circle clip-path="url(#clip472)" cx="2291.06" cy="86.1857" r="7.2" fill="#ff0000" fill-rule="evenodd" fill-opacity="1" stroke="#000000" stroke-opacity="1" stroke-width="3.2"/>
<circle clip-path="url(#clip472)" cx="1001.81" cy="95.3695" r="7.2" fill="#ff0000" fill-rule="evenodd" fill-opacity="1" stroke="#000000" stroke-opacity="1" stroke-width="3.2"/>
<circle clip-path="url(#clip472)" cx="469.296" cy="259.592" r="7.2" fill="#ff0000" fill-rule="evenodd" fill-opacity="1" stroke="#000000" stroke-opacity="1" stroke-width="3.2"/>
<circle clip-path="url(#clip472)" cx="1319.08" cy="324.77" r="7.2" fill="#ff0000" fill-rule="evenodd" fill-opacity="1" stroke="#000000" stroke-opacity="1" stroke-width="3.2"/>
<circle clip-path="url(#clip472)" cx="494.728" cy="329.329" r="7.2" fill="#ff0000" fill-rule="evenodd" fill-opacity="1" stroke="#000000" stroke-opacity="1" stroke-width="3.2"/>
<circle clip-path="url(#clip472)" cx="1377.67" cy="611.119" r="7.2" fill="#ff0000" fill-rule="evenodd" fill-opacity="1" stroke="#000000" stroke-opacity="1" stroke-width="3.2"/>
<circle clip-path="url(#clip472)" cx="692.452" cy="684.925" r="7.2" fill="#ff0000" fill-rule="evenodd" fill-opacity="1" stroke="#000000" stroke-opacity="1" stroke-width="3.2"/>
<circle clip-path="url(#clip472)" cx="926.514" cy="880.577" r="7.2" fill="#ff0000" fill-rule="evenodd" fill-opacity="1" stroke="#000000" stroke-opacity="1" stroke-width="3.2"/>
<circle clip-path="url(#clip472)" cx="234.391" cy="1233.82" r="7.2" fill="#ff0000" fill-rule="evenodd" fill-opacity="1" stroke="#000000" stroke-opacity="1" stroke-width="3.2"/>
<circle clip-path="url(#clip472)" cx="1286.47" cy="1326.96" r="7.2" fill="#ff0000" fill-rule="evenodd" fill-opacity="1" stroke="#000000" stroke-opacity="1" stroke-width="3.2"/>
<circle clip-path="url(#clip472)" cx="319.578" cy="1384.24" r="7.2" fill="#ff0000" fill-rule="evenodd" fill-opacity="1" stroke="#000000" stroke-opacity="1" stroke-width="3.2"/>
<path clip-path="url(#clip470)" d="M1476.36 1377.32 L2280.09 1377.32 L2280.09 1273.64 L1476.36 1273.64  Z" fill="#ffffff" fill-rule="evenodd" fill-opacity="1"/>
<polyline clip-path="url(#clip470)" style="stroke:#000000; stroke-linecap:round; stroke-linejoin:round; stroke-width:4; stroke-opacity:1; fill:none" points="1476.36,1377.32 2280.09,1377.32 2280.09,1273.64 1476.36,1273.64 1476.36,1377.32 "/>
<circle clip-path="url(#clip470)" cx="1573.26" cy="1325.48" r="18.432" fill="#ff0000" fill-rule="evenodd" fill-opacity="1" stroke="#000000" stroke-opacity="1" stroke-width="8.192"/>
<path clip-path="url(#clip470)" d="M1675.34 1338.51 Q1670.15 1333.15 1670.15 1325.46 Q1670.15 1317.76 1675.38 1312.42 Q1680.62 1307.08 1687.74 1307.08 Q1689.51 1307.08 1691.02 1307.5 Q1692.55 1307.9 1693.76 1308.71 Q1694.97 1309.5 1695.59 1310.05 Q1696.23 1310.57 1697.1 1311.43 L1699.64 1307.7 Q1700.04 1307.08 1700.43 1307.08 Q1700.85 1307.08 1700.93 1307.33 Q1701 1307.55 1701 1308.29 L1701 1320.3 Q1701 1321.12 1700.9 1321.31 Q1700.8 1321.51 1700.19 1321.51 Q1699.69 1321.51 1699.59 1321.36 Q1699.5 1321.21 1699.37 1320.65 Q1698.61 1315.19 1695.54 1311.93 Q1692.5 1308.66 1688.35 1308.66 Q1687.14 1308.66 1685.78 1308.94 Q1684.45 1309.21 1682.47 1310.25 Q1680.52 1311.28 1679.02 1312.99 Q1677.53 1314.67 1676.45 1317.93 Q1675.36 1321.16 1675.36 1325.46 Q1675.36 1329.71 1676.45 1332.97 Q1677.53 1336.23 1679.04 1337.94 Q1680.57 1339.62 1682.55 1340.68 Q1684.55 1341.74 1685.96 1342.04 Q1687.39 1342.31 1688.65 1342.31 Q1689.51 1342.31 1690.53 1342.14 Q1691.54 1341.94 1693.05 1341.4 Q1694.58 1340.83 1695.54 1339.49 Q1696.51 1338.16 1696.51 1336.18 L1696.51 1332.95 Q1696.51 1331.44 1695.76 1330.97 Q1695.02 1330.5 1691.79 1330.5 L1690.18 1330.5 L1690.18 1328.95 Q1692.01 1329.09 1698.31 1329.09 Q1698.88 1329.09 1704.49 1328.95 L1704.49 1330.5 Q1702.06 1330.5 1701.52 1330.87 Q1701 1331.22 1701 1332.73 L1701 1341.54 Q1701 1342.71 1700.56 1342.71 Q1700.16 1342.71 1698.98 1341.57 Q1697.82 1340.43 1697.3 1339.57 Q1696.09 1341.69 1693.44 1342.78 Q1690.82 1343.87 1687.84 1343.87 Q1680.55 1343.87 1675.34 1338.51 Z" fill="#000000" fill-rule="nonzero" fill-opacity="1" /><path clip-path="url(#clip470)" d="M1708.36 1342.76 L1708.36 1341.2 Q1711.06 1341.2 1711.67 1340.88 Q1712.32 1340.53 1712.32 1338.9 L1712.32 1325.34 Q1712.32 1323.46 1711.65 1322.99 Q1711.01 1322.52 1708.36 1322.52 L1708.36 1320.94 L1715.4 1320.4 L1715.4 1325.96 Q1716.12 1323.78 1717.63 1322.1 Q1719.16 1320.4 1721.63 1320.4 Q1723.26 1320.4 1724.3 1321.31 Q1725.36 1322.23 1725.36 1323.49 Q1725.36 1324.6 1724.67 1325.17 Q1724 1325.71 1723.19 1325.71 Q1722.27 1325.71 1721.63 1325.14 Q1721.01 1324.55 1721.01 1323.54 Q1721.01 1322.92 1721.28 1322.45 Q1721.58 1321.96 1721.8 1321.78 Q1722.02 1321.61 1722.17 1321.56 Q1722.07 1321.51 1721.63 1321.51 Q1718.84 1321.51 1717.23 1324.3 Q1715.65 1327.07 1715.65 1331.02 L1715.65 1338.8 Q1715.65 1340.26 1716.24 1340.73 Q1716.86 1341.2 1719.5 1341.2 L1720.57 1341.2 L1720.57 1342.76 Q1718.54 1342.61 1714.14 1342.61 Q1713.53 1342.61 1712.56 1342.63 Q1711.6 1342.66 1710.34 1342.71 Q1709.08 1342.76 1708.36 1342.76 Z" fill="#000000" fill-rule="nonzero" fill-opacity="1" /><path clip-path="url(#clip470)" d="M1731.46 1340.04 Q1728.13 1336.73 1728.13 1331.94 Q1728.13 1327.12 1731.39 1323.61 Q1734.67 1320.08 1739.37 1320.08 Q1743.96 1320.08 1747.25 1323.59 Q1750.56 1327.07 1750.56 1331.94 Q1750.56 1336.7 1747.22 1340.01 Q1743.91 1343.32 1739.32 1343.32 Q1734.82 1343.32 1731.46 1340.04 M1732.33 1331.52 Q1732.33 1336.43 1733.61 1338.65 Q1735.59 1342.04 1739.37 1342.04 Q1741.24 1342.04 1742.8 1341.03 Q1744.38 1340.01 1745.25 1338.31 Q1746.36 1336.09 1746.36 1331.52 Q1746.36 1326.65 1745.02 1324.5 Q1743.05 1321.21 1739.32 1321.21 Q1737.69 1321.21 1736.08 1322.08 Q1734.5 1322.92 1733.54 1324.6 Q1732.33 1326.82 1732.33 1331.52 Z" fill="#000000" fill-rule="nonzero" fill-opacity="1" /><path clip-path="url(#clip470)" d="M1753.64 1322.52 L1753.64 1320.94 L1761.08 1320.4 L1761.08 1337.2 Q1761.08 1338.41 1761.18 1339.12 Q1761.28 1339.82 1761.67 1340.63 Q1762.09 1341.45 1763.03 1341.82 Q1764 1342.19 1765.53 1342.19 Q1768.27 1342.19 1769.95 1339.94 Q1771.65 1337.69 1771.65 1334.36 L1771.65 1325.34 Q1771.65 1323.46 1770.99 1322.99 Q1770.32 1322.52 1767.7 1322.52 L1767.7 1320.94 L1775.14 1320.4 L1775.14 1338.36 Q1775.14 1340.24 1775.78 1340.73 Q1776.45 1341.2 1779.09 1341.2 L1779.09 1342.76 L1771.8 1343.32 L1771.8 1338.75 Q1769.68 1343.3 1765.28 1343.32 Q1763.06 1343.32 1761.53 1342.76 Q1760.02 1342.19 1759.25 1341.5 Q1758.49 1340.78 1758.07 1339.42 Q1757.67 1338.06 1757.62 1337.22 Q1757.57 1336.38 1757.57 1334.75 L1757.57 1327.17 Q1757.57 1323.73 1757.08 1323.14 Q1756.58 1322.52 1753.64 1322.52 Z" fill="#000000" fill-rule="nonzero" fill-opacity="1" /><path clip-path="url(#clip470)" d="M1781.49 1351.01 Q1784.18 1351.01 1784.8 1350.66 Q1785.44 1350.34 1785.44 1348.73 L1785.44 1325.04 Q1785.44 1323.36 1784.8 1322.94 Q1784.18 1322.52 1781.49 1322.52 L1781.49 1320.94 L1788.77 1320.4 L1788.77 1323.73 Q1791.81 1320.4 1795.86 1320.4 Q1800.16 1320.4 1803.3 1323.73 Q1806.44 1327.07 1806.44 1331.84 Q1806.44 1336.65 1803.1 1339.99 Q1799.77 1343.32 1795.15 1343.32 Q1792.63 1343.32 1790.92 1342.04 Q1789.24 1340.73 1788.92 1339.77 L1788.92 1340.24 L1788.92 1348.73 Q1788.92 1350.36 1789.56 1350.69 Q1790.21 1351.01 1792.87 1351.01 L1792.87 1352.56 Q1787.56 1352.41 1787.17 1352.41 Q1786.67 1352.41 1781.49 1352.56 L1781.49 1351.01 M1788.92 1337 Q1788.92 1337.77 1789.02 1338.04 Q1789.14 1338.31 1789.64 1339.12 Q1791.64 1342.19 1794.9 1342.19 Q1794.92 1342.19 1794.95 1342.19 Q1797.84 1342.19 1800.04 1339.25 Q1802.24 1336.28 1802.24 1331.84 Q1802.24 1327.59 1800.24 1324.62 Q1798.23 1321.66 1795.47 1321.66 Q1793.49 1321.66 1791.76 1322.72 Q1790.03 1323.78 1788.92 1325.71 L1788.92 1337 Z" fill="#000000" fill-rule="nonzero" fill-opacity="1" /><path clip-path="url(#clip470)" d="M1826.37 1351.01 Q1829.06 1351.01 1829.68 1350.66 Q1830.32 1350.34 1830.32 1348.73 L1830.32 1325.04 Q1830.32 1323.36 1829.68 1322.94 Q1829.06 1322.52 1826.37 1322.52 L1826.37 1320.94 L1833.66 1320.4 L1833.66 1323.73 Q1836.7 1320.4 1840.75 1320.4 Q1845.05 1320.4 1848.18 1323.73 Q1851.32 1327.07 1851.32 1331.84 Q1851.32 1336.65 1847.99 1339.99 Q1844.65 1343.32 1840.03 1343.32 Q1837.51 1343.32 1835.81 1342.04 Q1834.13 1340.73 1833.81 1339.77 L1833.81 1340.24 L1833.81 1348.73 Q1833.81 1350.36 1834.45 1350.69 Q1835.09 1351.01 1837.76 1351.01 L1837.76 1352.56 Q1832.45 1352.41 1832.05 1352.41 Q1831.56 1352.41 1826.37 1352.56 L1826.37 1351.01 M1833.81 1337 Q1833.81 1337.77 1833.91 1338.04 Q1834.03 1338.31 1834.52 1339.12 Q1836.52 1342.19 1839.79 1342.19 Q1839.81 1342.19 1839.83 1342.19 Q1842.73 1342.19 1844.92 1339.25 Q1847.12 1336.28 1847.12 1331.84 Q1847.12 1327.59 1845.12 1324.62 Q1843.12 1321.66 1840.35 1321.66 Q1838.38 1321.66 1836.65 1322.72 Q1834.92 1323.78 1833.81 1325.71 L1833.81 1337 Z" fill="#000000" fill-rule="nonzero" fill-opacity="1" /><path clip-path="url(#clip470)" d="M1855.15 1337.94 Q1855.15 1333.64 1860.22 1331.37 Q1863.25 1329.91 1869.53 1329.54 L1869.53 1327.69 Q1869.53 1324.55 1867.87 1322.89 Q1866.24 1321.21 1864.17 1321.21 Q1860.46 1321.21 1858.68 1323.54 Q1860.19 1323.59 1860.73 1324.35 Q1861.28 1325.09 1861.28 1325.86 Q1861.28 1326.87 1860.64 1327.54 Q1860.02 1328.18 1858.96 1328.18 Q1857.94 1328.18 1857.28 1327.56 Q1856.61 1326.92 1856.61 1325.81 Q1856.61 1323.34 1858.83 1321.71 Q1861.08 1320.08 1864.27 1320.08 Q1868.42 1320.08 1871.18 1322.87 Q1872.05 1323.73 1872.47 1324.85 Q1872.91 1325.96 1872.96 1326.7 Q1873.01 1327.41 1873.01 1328.85 L1873.01 1338.95 Q1873.01 1339.25 1873.11 1339.74 Q1873.21 1340.24 1873.65 1340.88 Q1874.12 1341.5 1874.89 1341.5 Q1876.72 1341.5 1876.69 1338.26 L1876.69 1335.42 L1877.98 1335.42 L1877.98 1338.26 Q1877.98 1340.95 1876.54 1342.01 Q1875.14 1343.05 1873.83 1343.05 Q1872.15 1343.05 1871.08 1341.82 Q1870.02 1340.58 1869.87 1338.9 Q1869.11 1340.83 1867.35 1342.09 Q1865.63 1343.32 1863.25 1343.32 Q1861.43 1343.32 1859.7 1342.85 Q1857.99 1342.41 1856.56 1341.15 Q1855.15 1339.87 1855.15 1337.94 M1859.05 1337.89 Q1859.05 1339.77 1860.39 1340.98 Q1861.72 1342.19 1863.6 1342.19 Q1865.72 1342.19 1867.63 1340.56 Q1869.53 1338.9 1869.53 1335.67 L1869.53 1330.6 Q1863.92 1330.8 1861.47 1333.05 Q1859.05 1335.27 1859.05 1337.89 Z" fill="#000000" fill-rule="nonzero" fill-opacity="1" /><path clip-path="url(#clip470)" d="M1879.73 1342.76 L1879.73 1341.2 Q1882.42 1341.2 1883.04 1340.88 Q1883.68 1340.53 1883.68 1338.9 L1883.68 1325.34 Q1883.68 1323.46 1883.02 1322.99 Q1882.37 1322.52 1879.73 1322.52 L1879.73 1320.94 L1886.77 1320.4 L1886.77 1325.96 Q1887.49 1323.78 1888.99 1322.1 Q1890.53 1320.4 1893 1320.4 Q1894.63 1320.4 1895.66 1321.31 Q1896.73 1322.23 1896.73 1323.49 Q1896.73 1324.6 1896.03 1325.17 Q1895.37 1325.71 1894.55 1325.71 Q1893.64 1325.71 1893 1325.14 Q1892.38 1324.55 1892.38 1323.54 Q1892.38 1322.92 1892.65 1322.45 Q1892.95 1321.96 1893.17 1321.78 Q1893.39 1321.61 1893.54 1321.56 Q1893.44 1321.51 1893 1321.51 Q1890.2 1321.51 1888.6 1324.3 Q1887.02 1327.07 1887.02 1331.02 L1887.02 1338.8 Q1887.02 1340.26 1887.61 1340.73 Q1888.23 1341.2 1890.87 1341.2 L1891.93 1341.2 L1891.93 1342.76 Q1889.91 1342.61 1885.51 1342.61 Q1884.89 1342.61 1883.93 1342.63 Q1882.97 1342.66 1881.71 1342.71 Q1880.45 1342.76 1879.73 1342.76 Z" fill="#000000" fill-rule="nonzero" fill-opacity="1" /><path clip-path="url(#clip470)" d="M1900.21 1337.94 Q1900.21 1333.64 1905.27 1331.37 Q1908.31 1329.91 1914.59 1329.54 L1914.59 1327.69 Q1914.59 1324.55 1912.93 1322.89 Q1911.3 1321.21 1909.23 1321.21 Q1905.52 1321.21 1903.74 1323.54 Q1905.25 1323.59 1905.79 1324.35 Q1906.34 1325.09 1906.34 1325.86 Q1906.34 1326.87 1905.69 1327.54 Q1905.08 1328.18 1904.01 1328.18 Q1903 1328.18 1902.33 1327.56 Q1901.67 1326.92 1901.67 1325.81 Q1901.67 1323.34 1903.89 1321.71 Q1906.14 1320.08 1909.33 1320.08 Q1913.48 1320.08 1916.24 1322.87 Q1917.11 1323.73 1917.53 1324.85 Q1917.97 1325.96 1918.02 1326.7 Q1918.07 1327.41 1918.07 1328.85 L1918.07 1338.95 Q1918.07 1339.25 1918.17 1339.74 Q1918.27 1340.24 1918.71 1340.88 Q1919.18 1341.5 1919.95 1341.5 Q1921.78 1341.5 1921.75 1338.26 L1921.75 1335.42 L1923.04 1335.42 L1923.04 1338.26 Q1923.04 1340.95 1921.6 1342.01 Q1920.19 1343.05 1918.89 1343.05 Q1917.21 1343.05 1916.14 1341.82 Q1915.08 1340.58 1914.93 1338.9 Q1914.17 1340.83 1912.41 1342.09 Q1910.68 1343.32 1908.31 1343.32 Q1906.48 1343.32 1904.76 1342.85 Q1903.05 1342.41 1901.62 1341.15 Q1900.21 1339.87 1900.21 1337.94 M1904.11 1337.89 Q1904.11 1339.77 1905.45 1340.98 Q1906.78 1342.19 1908.66 1342.19 Q1910.78 1342.19 1912.69 1340.56 Q1914.59 1338.9 1914.59 1335.67 L1914.59 1330.6 Q1908.98 1330.8 1906.53 1333.05 Q1904.11 1335.27 1904.11 1337.89 Z" fill="#000000" fill-rule="nonzero" fill-opacity="1" /><path clip-path="url(#clip470)" d="M1925.01 1342.76 L1925.01 1341.2 Q1927.7 1341.2 1928.32 1340.88 Q1928.94 1340.53 1928.94 1338.9 L1928.94 1325.34 Q1928.94 1323.46 1928.27 1322.99 Q1927.63 1322.52 1925.01 1322.52 L1925.01 1320.94 L1932.13 1320.4 L1932.13 1325.71 Q1934.5 1320.4 1939.61 1320.4 Q1945.54 1320.4 1946.36 1325.34 Q1947.22 1323.41 1949.02 1321.91 Q1950.85 1320.4 1953.69 1320.4 Q1957.5 1320.4 1959 1322.28 Q1960.12 1323.54 1960.34 1324.94 Q1960.56 1326.35 1960.56 1330.01 L1960.56 1339.67 Q1960.61 1340.73 1961.42 1340.98 Q1962.24 1341.2 1964.51 1341.2 L1964.51 1342.76 Q1959.35 1342.61 1958.86 1342.61 Q1958.46 1342.61 1953.12 1342.76 L1953.12 1341.2 Q1955.82 1341.2 1956.43 1340.88 Q1957.08 1340.53 1957.08 1338.9 L1957.08 1327.12 Q1957.08 1324.55 1956.29 1323.04 Q1955.5 1321.51 1953.32 1321.51 Q1950.7 1321.51 1948.6 1323.71 Q1946.5 1325.91 1946.5 1329.61 L1946.5 1338.9 Q1946.5 1340.53 1947.12 1340.88 Q1947.76 1341.2 1950.46 1341.2 L1950.46 1342.76 Q1945.29 1342.61 1944.77 1342.61 Q1944.38 1342.61 1939.07 1342.76 L1939.07 1341.2 Q1941.76 1341.2 1942.38 1340.88 Q1943.02 1340.53 1943.02 1338.9 L1943.02 1327.12 Q1943.02 1324.55 1942.23 1323.04 Q1941.44 1321.51 1939.27 1321.51 Q1936.65 1321.51 1934.55 1323.71 Q1932.45 1325.91 1932.45 1329.61 L1932.45 1338.9 Q1932.45 1340.53 1933.07 1340.88 Q1933.71 1341.2 1936.38 1341.2 L1936.38 1342.76 Q1931.21 1342.61 1930.72 1342.61 Q1930.32 1342.61 1925.01 1342.76 Z" fill="#000000" fill-rule="nonzero" fill-opacity="1" /><path clip-path="url(#clip470)" d="M1966.91 1331.61 Q1966.91 1326.85 1969.97 1323.46 Q1973.04 1320.08 1977.43 1320.08 Q1981.88 1320.08 1984.18 1322.97 Q1986.5 1325.86 1986.5 1330.01 Q1986.5 1330.77 1986.3 1330.92 Q1986.1 1331.07 1985.24 1331.07 L1971.11 1331.07 Q1971.11 1336.23 1972.64 1338.65 Q1974.76 1342.04 1978.35 1342.04 Q1978.84 1342.04 1979.43 1341.94 Q1980.03 1341.84 1981.24 1341.42 Q1982.45 1340.98 1983.51 1339.82 Q1984.57 1338.65 1985.19 1336.83 Q1985.34 1336.11 1985.83 1336.13 Q1986.5 1336.13 1986.5 1336.73 Q1986.5 1337.17 1986 1338.19 Q1985.54 1339.17 1984.62 1340.36 Q1983.71 1341.54 1981.93 1342.43 Q1980.17 1343.32 1978.05 1343.32 Q1973.6 1343.32 1970.24 1339.96 Q1966.91 1336.58 1966.91 1331.61 M1971.16 1330.01 L1983.16 1330.01 Q1983.16 1328.95 1982.97 1327.76 Q1982.79 1326.57 1982.25 1324.94 Q1981.73 1323.29 1980.5 1322.25 Q1979.26 1321.21 1977.43 1321.21 Q1976.62 1321.21 1975.73 1321.56 Q1974.86 1321.91 1973.8 1322.75 Q1972.74 1323.59 1972 1325.49 Q1971.26 1327.39 1971.16 1330.01 Z" fill="#000000" fill-rule="nonzero" fill-opacity="1" /><path clip-path="url(#clip470)" d="M1988.92 1322.52 L1988.92 1321.41 Q1991.24 1321.31 1992.77 1319.68 Q1994.33 1318.03 1994.85 1316 Q1995.39 1313.98 1995.44 1311.63 L1996.7 1311.63 L1996.7 1320.94 L2003.94 1320.94 L2003.94 1322.52 L1996.7 1322.52 L1996.7 1336.58 Q1996.7 1342.04 2000.11 1342.04 Q2001.57 1342.04 2002.53 1340.56 Q2003.49 1339.05 2003.49 1336.38 L2003.49 1333.59 L2004.75 1333.59 L2004.75 1336.48 Q2004.75 1339.22 2003.49 1341.27 Q2002.23 1343.32 1999.74 1343.32 Q1998.83 1343.32 1997.91 1343.08 Q1997.02 1342.85 1995.84 1342.26 Q1994.68 1341.64 1993.93 1340.16 Q1993.22 1338.65 1993.22 1336.48 L1993.22 1322.52 L1988.92 1322.52 Z" fill="#000000" fill-rule="nonzero" fill-opacity="1" /><path clip-path="url(#clip470)" d="M2008.98 1331.61 Q2008.98 1326.85 2012.04 1323.46 Q2015.11 1320.08 2019.5 1320.08 Q2023.95 1320.08 2026.25 1322.97 Q2028.57 1325.86 2028.57 1330.01 Q2028.57 1330.77 2028.37 1330.92 Q2028.17 1331.07 2027.31 1331.07 L2013.18 1331.07 Q2013.18 1336.23 2014.71 1338.65 Q2016.83 1342.04 2020.42 1342.04 Q2020.91 1342.04 2021.5 1341.94 Q2022.1 1341.84 2023.31 1341.42 Q2024.52 1340.98 2025.58 1339.82 Q2026.64 1338.65 2027.26 1336.83 Q2027.41 1336.11 2027.9 1336.13 Q2028.57 1336.13 2028.57 1336.73 Q2028.57 1337.17 2028.07 1338.19 Q2027.61 1339.17 2026.69 1340.36 Q2025.78 1341.54 2024 1342.43 Q2022.24 1343.32 2020.12 1343.32 Q2015.67 1343.32 2012.31 1339.96 Q2008.98 1336.58 2008.98 1331.61 M2013.23 1330.01 L2025.23 1330.01 Q2025.23 1328.95 2025.04 1327.76 Q2024.86 1326.57 2024.32 1324.94 Q2023.8 1323.29 2022.57 1322.25 Q2021.33 1321.21 2019.5 1321.21 Q2018.69 1321.21 2017.8 1321.56 Q2016.93 1321.91 2015.87 1322.75 Q2014.81 1323.59 2014.07 1325.49 Q2013.33 1327.39 2013.23 1330.01 Z" fill="#000000" fill-rule="nonzero" fill-opacity="1" /><path clip-path="url(#clip470)" d="M2031.43 1342.76 L2031.43 1341.2 Q2034.13 1341.2 2034.74 1340.88 Q2035.39 1340.53 2035.39 1338.9 L2035.39 1325.34 Q2035.39 1323.46 2034.72 1322.99 Q2034.08 1322.52 2031.43 1322.52 L2031.43 1320.94 L2038.47 1320.4 L2038.47 1325.96 Q2039.19 1323.78 2040.7 1322.1 Q2042.23 1320.4 2044.7 1320.4 Q2046.33 1320.4 2047.37 1321.31 Q2048.43 1322.23 2048.43 1323.49 Q2048.43 1324.6 2047.74 1325.17 Q2047.07 1325.71 2046.26 1325.71 Q2045.34 1325.71 2044.7 1325.14 Q2044.08 1324.55 2044.08 1323.54 Q2044.08 1322.92 2044.35 1322.45 Q2044.65 1321.96 2044.87 1321.78 Q2045.1 1321.61 2045.24 1321.56 Q2045.14 1321.51 2044.7 1321.51 Q2041.91 1321.51 2040.3 1324.3 Q2038.72 1327.07 2038.72 1331.02 L2038.72 1338.8 Q2038.72 1340.26 2039.31 1340.73 Q2039.93 1341.2 2042.58 1341.2 L2043.64 1341.2 L2043.64 1342.76 Q2041.61 1342.61 2037.21 1342.61 Q2036.6 1342.61 2035.63 1342.63 Q2034.67 1342.66 2033.41 1342.71 Q2032.15 1342.76 2031.43 1342.76 Z" fill="#000000" fill-rule="nonzero" fill-opacity="1" /><path clip-path="url(#clip470)" d="M2051.47 1342.09 L2051.47 1335.42 Q2051.47 1334.85 2051.49 1334.65 Q2051.52 1334.45 2051.67 1334.31 Q2051.81 1334.16 2052.11 1334.16 Q2052.46 1334.16 2052.58 1334.31 Q2052.73 1334.45 2052.83 1335.02 Q2053.59 1338.51 2055.22 1340.36 Q2056.88 1342.19 2059.87 1342.19 Q2062.71 1342.19 2064.14 1340.93 Q2065.57 1339.67 2065.57 1337.59 Q2065.57 1333.89 2060.31 1332.95 Q2057.27 1332.33 2056.01 1331.94 Q2054.75 1331.52 2053.64 1330.6 Q2051.47 1328.82 2051.47 1326.3 Q2051.47 1323.78 2053.37 1321.93 Q2055.3 1320.08 2059.55 1320.08 Q2062.39 1320.08 2064.31 1321.51 Q2064.88 1321.07 2065.18 1320.7 Q2065.85 1320.08 2066.19 1320.08 Q2066.59 1320.08 2066.66 1320.35 Q2066.74 1320.6 2066.74 1321.31 L2066.74 1326.4 Q2066.74 1326.97 2066.71 1327.17 Q2066.69 1327.37 2066.54 1327.51 Q2066.39 1327.64 2066.07 1327.64 Q2065.5 1327.64 2065.48 1327.17 Q2065.08 1321.04 2059.55 1321.04 Q2056.56 1321.04 2055.22 1322.2 Q2053.89 1323.34 2053.89 1324.89 Q2053.89 1325.76 2054.28 1326.43 Q2054.7 1327.07 2055.22 1327.46 Q2055.77 1327.83 2056.76 1328.21 Q2057.74 1328.55 2058.34 1328.67 Q2058.95 1328.8 2060.11 1329.04 Q2064.17 1329.81 2065.87 1331.47 Q2068 1333.59 2068 1336.28 Q2068 1339.27 2065.97 1341.3 Q2063.94 1343.32 2059.87 1343.32 Q2056.58 1343.32 2054.28 1341.12 Q2053.99 1341.42 2053.77 1341.69 Q2053.54 1341.94 2053.44 1342.04 Q2053.37 1342.14 2053.35 1342.21 Q2053.32 1342.26 2053.27 1342.31 Q2052.26 1343.32 2052.01 1343.32 Q2051.62 1343.32 2051.54 1343.05 Q2051.47 1342.8 2051.47 1342.09 Z" fill="#000000" fill-rule="nonzero" fill-opacity="1" /><path clip-path="url(#clip470)" d="M2091.54 1330.11 Q2091.54 1321.56 2094.72 1314.67 Q2096.08 1311.78 2097.98 1309.36 Q2099.89 1306.94 2101.15 1305.87 Q2102.41 1304.81 2102.75 1304.81 Q2103.25 1304.81 2103.27 1305.31 Q2103.27 1305.55 2102.6 1306.17 Q2094.45 1314.47 2094.48 1330.11 Q2094.48 1345.79 2102.41 1353.77 Q2103.27 1354.64 2103.27 1354.91 Q2103.27 1355.4 2102.75 1355.4 Q2102.41 1355.4 2101.2 1354.39 Q2099.99 1353.38 2098.11 1351.06 Q2096.23 1348.73 2094.87 1345.89 Q2091.54 1339 2091.54 1330.11 Z" fill="#000000" fill-rule="nonzero" fill-opacity="1" /><path clip-path="url(#clip470)" d="M2107.82 1342.09 L2107.82 1335.42 Q2107.82 1334.85 2107.84 1334.65 Q2107.87 1334.45 2108.01 1334.31 Q2108.16 1334.16 2108.46 1334.16 Q2108.81 1334.16 2108.93 1334.31 Q2109.08 1334.45 2109.18 1335.02 Q2109.94 1338.51 2111.57 1340.36 Q2113.23 1342.19 2116.22 1342.19 Q2119.06 1342.19 2120.49 1340.93 Q2121.92 1339.67 2121.92 1337.59 Q2121.92 1333.89 2116.66 1332.95 Q2113.62 1332.33 2112.36 1331.94 Q2111.1 1331.52 2109.99 1330.6 Q2107.82 1328.82 2107.82 1326.3 Q2107.82 1323.78 2109.72 1321.93 Q2111.65 1320.08 2115.89 1320.08 Q2118.74 1320.08 2120.66 1321.51 Q2121.23 1321.07 2121.53 1320.7 Q2122.19 1320.08 2122.54 1320.08 Q2122.94 1320.08 2123.01 1320.35 Q2123.08 1320.6 2123.08 1321.31 L2123.08 1326.4 Q2123.08 1326.97 2123.06 1327.17 Q2123.03 1327.37 2122.89 1327.51 Q2122.74 1327.64 2122.42 1327.64 Q2121.85 1327.64 2121.82 1327.17 Q2121.43 1321.04 2115.89 1321.04 Q2112.91 1321.04 2111.57 1322.2 Q2110.24 1323.34 2110.24 1324.89 Q2110.24 1325.76 2110.63 1326.43 Q2111.05 1327.07 2111.57 1327.46 Q2112.12 1327.83 2113.1 1328.21 Q2114.09 1328.55 2114.68 1328.67 Q2115.3 1328.8 2116.46 1329.04 Q2120.51 1329.81 2122.22 1331.47 Q2124.34 1333.59 2124.34 1336.28 Q2124.34 1339.27 2122.32 1341.3 Q2120.29 1343.32 2116.22 1343.32 Q2112.93 1343.32 2110.63 1341.12 Q2110.34 1341.42 2110.11 1341.69 Q2109.89 1341.94 2109.79 1342.04 Q2109.72 1342.14 2109.69 1342.21 Q2109.67 1342.26 2109.62 1342.31 Q2108.61 1343.32 2108.36 1343.32 Q2107.97 1343.32 2107.89 1343.05 Q2107.82 1342.8 2107.82 1342.09 Z" fill="#000000" fill-rule="nonzero" fill-opacity="1" /><path clip-path="url(#clip470)" d="M2130.79 1340.04 Q2127.46 1336.73 2127.46 1331.94 Q2127.46 1327.12 2130.72 1323.61 Q2134 1320.08 2138.7 1320.08 Q2143.29 1320.08 2146.58 1323.59 Q2149.89 1327.07 2149.89 1331.94 Q2149.89 1336.7 2146.55 1340.01 Q2143.24 1343.32 2138.65 1343.32 Q2134.15 1343.32 2130.79 1340.04 M2131.66 1331.52 Q2131.66 1336.43 2132.94 1338.65 Q2134.92 1342.04 2138.7 1342.04 Q2140.57 1342.04 2142.13 1341.03 Q2143.71 1340.01 2144.58 1338.31 Q2145.69 1336.09 2145.69 1331.52 Q2145.69 1326.65 2144.35 1324.5 Q2142.38 1321.21 2138.65 1321.21 Q2137.02 1321.21 2135.41 1322.08 Q2133.83 1322.92 2132.87 1324.6 Q2131.66 1326.82 2131.66 1331.52 Z" fill="#000000" fill-rule="nonzero" fill-opacity="1" /><path clip-path="url(#clip470)" d="M2152.75 1342.76 L2152.75 1341.2 Q2155.44 1341.2 2156.06 1340.88 Q2156.7 1340.53 2156.7 1338.9 L2156.7 1325.34 Q2156.7 1323.46 2156.04 1322.99 Q2155.4 1322.52 2152.75 1322.52 L2152.75 1320.94 L2159.79 1320.4 L2159.79 1325.96 Q2160.51 1323.78 2162.02 1322.1 Q2163.55 1320.4 2166.02 1320.4 Q2167.65 1320.4 2168.69 1321.31 Q2169.75 1322.23 2169.75 1323.49 Q2169.75 1324.6 2169.06 1325.17 Q2168.39 1325.71 2167.57 1325.71 Q2166.66 1325.71 2166.02 1325.14 Q2165.4 1324.55 2165.4 1323.54 Q2165.4 1322.92 2165.67 1322.45 Q2165.97 1321.96 2166.19 1321.78 Q2166.41 1321.61 2166.56 1321.56 Q2166.46 1321.51 2166.02 1321.51 Q2163.23 1321.51 2161.62 1324.3 Q2160.04 1327.07 2160.04 1331.02 L2160.04 1338.8 Q2160.04 1340.26 2160.63 1340.73 Q2161.25 1341.2 2163.89 1341.2 L2164.96 1341.2 L2164.96 1342.76 Q2162.93 1342.61 2158.53 1342.61 Q2157.92 1342.61 2156.95 1342.63 Q2155.99 1342.66 2154.73 1342.71 Q2153.47 1342.76 2152.75 1342.76 Z" fill="#000000" fill-rule="nonzero" fill-opacity="1" /><path clip-path="url(#clip470)" d="M2172.07 1322.52 L2172.07 1321.41 Q2174.39 1321.31 2175.92 1319.68 Q2177.48 1318.03 2178 1316 Q2178.54 1313.98 2178.59 1311.63 L2179.85 1311.63 L2179.85 1320.94 L2187.09 1320.94 L2187.09 1322.52 L2179.85 1322.52 L2179.85 1336.58 Q2179.85 1342.04 2183.26 1342.04 Q2184.72 1342.04 2185.68 1340.56 Q2186.65 1339.05 2186.65 1336.38 L2186.65 1333.59 L2187.91 1333.59 L2187.91 1336.48 Q2187.91 1339.22 2186.65 1341.27 Q2185.39 1343.32 2182.89 1343.32 Q2181.98 1343.32 2181.06 1343.08 Q2180.17 1342.85 2178.99 1342.26 Q2177.83 1341.64 2177.09 1340.16 Q2176.37 1338.65 2176.37 1336.48 L2176.37 1322.52 L2172.07 1322.52 Z" fill="#000000" fill-rule="nonzero" fill-opacity="1" /><path clip-path="url(#clip470)" d="M2192.13 1331.61 Q2192.13 1326.85 2195.19 1323.46 Q2198.26 1320.08 2202.65 1320.08 Q2207.1 1320.08 2209.4 1322.97 Q2211.72 1325.86 2211.72 1330.01 Q2211.72 1330.77 2211.52 1330.92 Q2211.32 1331.07 2210.46 1331.07 L2196.33 1331.07 Q2196.33 1336.23 2197.86 1338.65 Q2199.99 1342.04 2203.57 1342.04 Q2204.06 1342.04 2204.65 1341.94 Q2205.25 1341.84 2206.46 1341.42 Q2207.67 1340.98 2208.73 1339.82 Q2209.79 1338.65 2210.41 1336.83 Q2210.56 1336.11 2211.05 1336.13 Q2211.72 1336.13 2211.72 1336.73 Q2211.72 1337.17 2211.23 1338.19 Q2210.76 1339.17 2209.84 1340.36 Q2208.93 1341.54 2207.15 1342.43 Q2205.4 1343.32 2203.27 1343.32 Q2198.82 1343.32 2195.46 1339.96 Q2192.13 1336.58 2192.13 1331.61 M2196.38 1330.01 L2208.38 1330.01 Q2208.38 1328.95 2208.19 1327.76 Q2208.01 1326.57 2207.47 1324.94 Q2206.95 1323.29 2205.72 1322.25 Q2204.48 1321.21 2202.65 1321.21 Q2201.84 1321.21 2200.95 1321.56 Q2200.08 1321.91 2199.02 1322.75 Q2197.96 1323.59 2197.22 1325.49 Q2196.48 1327.39 2196.38 1330.01 Z" fill="#000000" fill-rule="nonzero" fill-opacity="1" /><path clip-path="url(#clip470)" d="M2214.91 1331.89 Q2214.91 1327.07 2218.27 1323.73 Q2221.63 1320.4 2226.17 1320.4 Q2230.02 1320.4 2232.54 1323.54 L2232.54 1312.59 Q2232.54 1310.72 2231.88 1310.25 Q2231.23 1309.78 2228.62 1309.78 L2228.62 1308.2 L2235.9 1307.65 L2235.9 1338.36 Q2235.9 1340.24 2236.55 1340.73 Q2237.21 1341.2 2239.83 1341.2 L2239.83 1342.76 L2232.4 1343.32 L2232.4 1339.96 Q2229.78 1343.3 2225.63 1343.32 Q2221.28 1343.32 2218.09 1339.99 Q2214.91 1336.65 2214.91 1331.89 M2219.11 1331.94 Q2219.11 1336.63 2220.56 1338.95 Q2222.59 1342.19 2225.87 1342.19 Q2229.63 1342.19 2231.85 1338.65 Q2232.42 1337.79 2232.4 1336.78 L2232.4 1326.4 Q2232.4 1325.39 2231.85 1324.55 Q2229.78 1321.51 2226.39 1321.51 Q2222.86 1321.51 2220.66 1324.75 Q2219.11 1327.17 2219.11 1331.94 Z" fill="#000000" fill-rule="nonzero" fill-opacity="1" /><path clip-path="url(#clip470)" d="M2244.13 1354.91 Q2244.13 1354.66 2244.77 1354.04 Q2252.92 1345.74 2252.92 1330.11 Q2252.92 1314.42 2245.09 1306.49 Q2244.13 1305.58 2244.13 1305.31 Q2244.13 1304.81 2244.62 1304.81 Q2244.97 1304.81 2246.18 1305.82 Q2247.42 1306.84 2249.27 1309.16 Q2251.15 1311.48 2252.53 1314.32 Q2255.86 1321.21 2255.86 1330.11 Q2255.86 1338.65 2252.68 1345.55 Q2251.32 1348.44 2249.42 1350.86 Q2247.51 1353.28 2246.25 1354.34 Q2244.99 1355.4 2244.62 1355.4 Q2244.13 1355.4 2244.13 1354.91 Z" fill="#000000" fill-rule="nonzero" fill-opacity="1" /></svg>
