<?xml version="1.0" encoding="utf-8"?>
<svg xmlns="http://www.w3.org/2000/svg" xmlns:xlink="http://www.w3.org/1999/xlink" width="600" height="400" viewBox="0 0 2400 1600">
<defs>
  <clipPath id="clip440">
    <rect x="0" y="0" width="2400" height="1600"/>
  </clipPath>
</defs>
<path clip-path="url(#clip440)" d="M0 1600 L2400 1600 L2400 0 L0 0  Z" fill="#ffffff" fill-rule="evenodd" fill-opacity="1"/>
<defs>
  <clipPath id="clip441">
    <rect x="480" y="0" width="1681" height="1600"/>
  </clipPath>
</defs>
<path clip-path="url(#clip440)" d="M172.691 1423.18 L2352.76 1423.18 L2352.76 207.176 L172.691 207.176  Z" fill="#ffffff" fill-rule="evenodd" fill-opacity="1"/>
<defs>
  <clipPath id="clip442">
    <rect x="172" y="207" width="2181" height="1217"/>
  </clipPath>
</defs>
<polyline clip-path="url(#clip442)" style="stroke:#000000; stroke-linecap:round; stroke-linejoin:round; stroke-width:2; stroke-opacity:0.1; fill:none" points="269.804,1423.18 269.804,207.176 "/>
<polyline clip-path="url(#clip442)" style="stroke:#000000; stroke-linecap:round; stroke-linejoin:round; stroke-width:2; stroke-opacity:0.1; fill:none" points="705.653,1423.18 705.653,207.176 "/>
<polyline clip-path="url(#clip442)" style="stroke:#000000; stroke-linecap:round; stroke-linejoin:round; stroke-width:2; stroke-opacity:0.1; fill:none" points="1141.5,1423.18 1141.5,207.176 "/>
<polyline clip-path="url(#clip442)" style="stroke:#000000; stroke-linecap:round; stroke-linejoin:round; stroke-width:2; stroke-opacity:0.1; fill:none" points="1577.35,1423.18 1577.35,207.176 "/>
<polyline clip-path="url(#clip442)" style="stroke:#000000; stroke-linecap:round; stroke-linejoin:round; stroke-width:2; stroke-opacity:0.1; fill:none" points="2013.2,1423.18 2013.2,207.176 "/>
<polyline clip-path="url(#clip440)" style="stroke:#000000; stroke-linecap:round; stroke-linejoin:round; stroke-width:4; stroke-opacity:1; fill:none" points="172.691,1423.18 2352.76,1423.18 "/>
<polyline clip-path="url(#clip440)" style="stroke:#000000; stroke-linecap:round; stroke-linejoin:round; stroke-width:4; stroke-opacity:1; fill:none" points="269.804,1423.18 269.804,1406.48 "/>
<polyline clip-path="url(#clip440)" style="stroke:#000000; stroke-linecap:round; stroke-linejoin:round; stroke-width:4; stroke-opacity:1; fill:none" points="705.653,1423.18 705.653,1406.48 "/>
<polyline clip-path="url(#clip440)" style="stroke:#000000; stroke-linecap:round; stroke-linejoin:round; stroke-width:4; stroke-opacity:1; fill:none" points="1141.5,1423.18 1141.5,1406.48 "/>
<polyline clip-path="url(#clip440)" style="stroke:#000000; stroke-linecap:round; stroke-linejoin:round; stroke-width:4; stroke-opacity:1; fill:none" points="1577.35,1423.18 1577.35,1406.48 "/>
<polyline clip-path="url(#clip440)" style="stroke:#000000; stroke-linecap:round; stroke-linejoin:round; stroke-width:4; stroke-opacity:1; fill:none" points="2013.2,1423.18 2013.2,1406.48 "/>
<path clip-path="url(#clip440)" d="M260.663 1472.22 Q260.96 1472.51 260.96 1472.93 Q260.96 1473.35 260.663 1473.65 Q260.367 1473.94 259.947 1473.94 L228.277 1473.94 Q227.857 1473.94 227.561 1473.65 Q227.264 1473.35 227.264 1472.93 Q227.264 1472.51 227.561 1472.22 Q227.857 1471.92 228.277 1471.92 L259.947 1471.92 Q260.367 1471.92 260.663 1472.22 Z" fill="#000000" fill-rule="nonzero" fill-opacity="1" /><path clip-path="url(#clip440)" d="M266.296 1485.58 Q266.296 1484.67 266.37 1484.39 Q266.469 1484.12 266.864 1483.7 L276.572 1472.88 Q281.883 1466.9 281.883 1461.69 Q281.883 1458.31 280.105 1455.89 Q278.351 1453.47 275.115 1453.47 Q272.891 1453.47 271.014 1454.82 Q269.137 1456.18 268.272 1458.6 Q268.42 1458.55 268.939 1458.55 Q270.199 1458.55 270.89 1459.34 Q271.607 1460.14 271.607 1461.2 Q271.607 1462.56 270.718 1463.22 Q269.853 1463.87 268.988 1463.87 Q268.642 1463.87 268.173 1463.79 Q267.728 1463.72 267.012 1463.03 Q266.296 1462.31 266.296 1461.05 Q266.296 1457.52 268.964 1454.7 Q271.656 1451.88 275.757 1451.88 Q280.401 1451.88 283.44 1454.65 Q286.503 1457.39 286.503 1461.69 Q286.503 1463.2 286.034 1464.58 Q285.589 1465.94 284.971 1467 Q284.379 1468.07 282.748 1469.77 Q281.118 1471.47 279.808 1472.68 Q278.499 1473.9 275.559 1476.46 L270.199 1481.68 L279.314 1481.68 Q283.761 1481.68 284.107 1481.28 Q284.601 1480.57 285.218 1476.79 L286.503 1476.79 L285.07 1485.58 L266.296 1485.58 Z" fill="#000000" fill-rule="nonzero" fill-opacity="1" /><path clip-path="url(#clip440)" d="M291.048 1469.4 Q291.048 1461.96 292.926 1457.91 Q295.544 1451.88 301.72 1451.88 Q303.03 1451.88 304.388 1452.26 Q305.772 1452.6 307.501 1453.96 Q309.255 1455.32 310.317 1457.54 Q312.343 1461.84 312.343 1469.4 Q312.343 1476.79 310.465 1480.81 Q307.723 1486.69 301.671 1486.69 Q299.398 1486.69 297.076 1485.53 Q294.779 1484.37 293.321 1481.58 Q291.048 1477.4 291.048 1469.4 M295.248 1468.78 Q295.248 1476.41 295.791 1479.45 Q296.409 1482.74 298.089 1484.17 Q299.793 1485.58 301.671 1485.58 Q303.697 1485.58 305.376 1484.07 Q307.081 1482.54 307.6 1479.26 Q308.168 1476.02 308.143 1468.78 Q308.143 1461.74 307.649 1458.92 Q306.982 1455.64 305.203 1454.33 Q303.45 1453 301.671 1453 Q301.004 1453 300.287 1453.19 Q299.596 1453.39 298.583 1453.96 Q297.57 1454.53 296.78 1455.94 Q296.014 1457.34 295.643 1459.47 Q295.248 1462.21 295.248 1468.78 Z" fill="#000000" fill-rule="nonzero" fill-opacity="1" /><path clip-path="url(#clip440)" d="M695.006 1469.4 Q695.006 1461.96 696.883 1457.91 Q699.502 1451.88 705.678 1451.88 Q706.987 1451.88 708.346 1452.26 Q709.729 1452.6 711.458 1453.96 Q713.212 1455.32 714.275 1457.54 Q716.3 1461.84 716.3 1469.4 Q716.3 1476.79 714.423 1480.81 Q711.681 1486.69 705.628 1486.69 Q703.356 1486.69 701.034 1485.53 Q698.736 1484.37 697.279 1481.58 Q695.006 1477.4 695.006 1469.4 M699.206 1468.78 Q699.206 1476.41 699.749 1479.45 Q700.367 1482.74 702.046 1484.17 Q703.751 1485.58 705.628 1485.58 Q707.654 1485.58 709.334 1484.07 Q711.038 1482.54 711.557 1479.26 Q712.125 1476.02 712.101 1468.78 Q712.101 1461.74 711.607 1458.92 Q710.94 1455.64 709.161 1454.33 Q707.407 1453 705.628 1453 Q704.961 1453 704.245 1453.19 Q703.553 1453.39 702.54 1453.96 Q701.528 1454.53 700.737 1455.94 Q699.971 1457.34 699.601 1459.47 Q699.206 1462.21 699.206 1468.78 Z" fill="#000000" fill-rule="nonzero" fill-opacity="1" /><path clip-path="url(#clip440)" d="M1118.48 1485.58 Q1118.48 1484.67 1118.55 1484.39 Q1118.65 1484.12 1119.05 1483.7 L1128.76 1472.88 Q1134.07 1466.9 1134.07 1461.69 Q1134.07 1458.31 1132.29 1455.89 Q1130.53 1453.47 1127.3 1453.47 Q1125.07 1453.47 1123.2 1454.82 Q1121.32 1456.18 1120.46 1458.6 Q1120.6 1458.55 1121.12 1458.55 Q1122.38 1458.55 1123.07 1459.34 Q1123.79 1460.14 1123.79 1461.2 Q1123.79 1462.56 1122.9 1463.22 Q1122.04 1463.87 1121.17 1463.87 Q1120.83 1463.87 1120.36 1463.79 Q1119.91 1463.72 1119.2 1463.03 Q1118.48 1462.31 1118.48 1461.05 Q1118.48 1457.52 1121.15 1454.7 Q1123.84 1451.88 1127.94 1451.88 Q1132.58 1451.88 1135.62 1454.65 Q1138.69 1457.39 1138.69 1461.69 Q1138.69 1463.2 1138.22 1464.58 Q1137.77 1465.94 1137.15 1467 Q1136.56 1468.07 1134.93 1469.77 Q1133.3 1471.47 1131.99 1472.68 Q1130.68 1473.9 1127.74 1476.46 L1122.38 1481.68 L1131.5 1481.68 Q1135.94 1481.68 1136.29 1481.28 Q1136.78 1480.57 1137.4 1476.79 L1138.69 1476.79 L1137.25 1485.58 L1118.48 1485.58 Z" fill="#000000" fill-rule="nonzero" fill-opacity="1" /><path clip-path="url(#clip440)" d="M1143.23 1469.4 Q1143.23 1461.96 1145.11 1457.91 Q1147.73 1451.88 1153.9 1451.88 Q1155.21 1451.88 1156.57 1452.26 Q1157.96 1452.6 1159.68 1453.96 Q1161.44 1455.32 1162.5 1457.54 Q1164.53 1461.84 1164.53 1469.4 Q1164.53 1476.79 1162.65 1480.81 Q1159.91 1486.69 1153.85 1486.69 Q1151.58 1486.69 1149.26 1485.53 Q1146.96 1484.37 1145.5 1481.58 Q1143.23 1477.4 1143.23 1469.4 M1147.43 1468.78 Q1147.43 1476.41 1147.97 1479.45 Q1148.59 1482.74 1150.27 1484.17 Q1151.98 1485.58 1153.85 1485.58 Q1155.88 1485.58 1157.56 1484.07 Q1159.26 1482.54 1159.78 1479.26 Q1160.35 1476.02 1160.33 1468.78 Q1160.33 1461.74 1159.83 1458.92 Q1159.17 1455.64 1157.39 1454.33 Q1155.63 1453 1153.85 1453 Q1153.19 1453 1152.47 1453.19 Q1151.78 1453.39 1150.77 1453.96 Q1149.75 1454.53 1148.96 1455.94 Q1148.2 1457.34 1147.83 1459.47 Q1147.43 1462.21 1147.43 1468.78 Z" fill="#000000" fill-rule="nonzero" fill-opacity="1" /><path clip-path="url(#clip440)" d="M1553.77 1477.23 L1553.77 1475.67 L1569.31 1451.93 Q1569.71 1451.32 1570.32 1451.34 Q1570.89 1451.34 1571.02 1451.56 Q1571.14 1451.79 1571.14 1452.65 L1571.14 1475.67 L1576.2 1475.67 L1576.2 1477.23 L1571.14 1477.23 L1571.14 1481.63 Q1571.14 1483.08 1571.73 1483.55 Q1572.35 1484.02 1574.97 1484.02 L1576.03 1484.02 L1576.03 1485.58 Q1573.96 1485.43 1569.16 1485.43 Q1564.4 1485.43 1562.32 1485.58 L1562.32 1484.02 L1563.38 1484.02 Q1566 1484.02 1566.62 1483.58 Q1567.24 1483.11 1567.24 1481.63 L1567.24 1477.23 L1553.77 1477.23 M1555.21 1475.67 L1567.53 1475.67 L1567.53 1456.8 L1555.21 1475.67 Z" fill="#000000" fill-rule="nonzero" fill-opacity="1" /><path clip-path="url(#clip440)" d="M1579.64 1469.4 Q1579.64 1461.96 1581.51 1457.91 Q1584.13 1451.88 1590.31 1451.88 Q1591.62 1451.88 1592.98 1452.26 Q1594.36 1452.6 1596.09 1453.96 Q1597.84 1455.32 1598.91 1457.54 Q1600.93 1461.84 1600.93 1469.4 Q1600.93 1476.79 1599.05 1480.81 Q1596.31 1486.69 1590.26 1486.69 Q1587.99 1486.69 1585.66 1485.53 Q1583.37 1484.37 1581.91 1481.58 Q1579.64 1477.4 1579.64 1469.4 M1583.84 1468.78 Q1583.84 1476.41 1584.38 1479.45 Q1585 1482.74 1586.68 1484.17 Q1588.38 1485.58 1590.26 1485.58 Q1592.29 1485.58 1593.97 1484.07 Q1595.67 1482.54 1596.19 1479.26 Q1596.76 1476.02 1596.73 1468.78 Q1596.73 1461.74 1596.24 1458.92 Q1595.57 1455.64 1593.79 1454.33 Q1592.04 1453 1590.26 1453 Q1589.59 1453 1588.88 1453.19 Q1588.18 1453.39 1587.17 1453.96 Q1586.16 1454.53 1585.37 1455.94 Q1584.6 1457.34 1584.23 1459.47 Q1583.84 1462.21 1583.84 1468.78 Z" fill="#000000" fill-rule="nonzero" fill-opacity="1" /><path clip-path="url(#clip440)" d="M1989.98 1469.6 Q1989.98 1461.64 1994.03 1456.78 Q1998.08 1451.88 2003.3 1451.88 Q2006.33 1451.88 2008.01 1453.44 Q2009.72 1454.97 2009.72 1457.34 Q2009.72 1458.65 2008.95 1459.22 Q2008.19 1459.79 2007.4 1459.79 Q2006.48 1459.79 2005.77 1459.17 Q2005.05 1458.55 2005.05 1457.44 Q2005.05 1455.17 2007.84 1455.17 Q2006.53 1453.14 2003.39 1453.14 Q2002.43 1453.14 2001.44 1453.44 Q2000.45 1453.71 1999.17 1454.65 Q1997.89 1455.59 1996.9 1457.07 Q1995.91 1458.55 1995.22 1461.35 Q1994.53 1464.14 1994.53 1467.77 L1994.53 1468.98 Q1996.6 1463.96 2000.85 1463.99 Q2005.1 1463.99 2008.04 1467.23 Q2010.98 1470.46 2010.98 1475.25 Q2010.98 1480.17 2007.92 1483.43 Q2004.85 1486.69 2000.55 1486.69 Q1998.63 1486.69 1996.87 1485.88 Q1995.14 1485.09 1993.51 1483.26 Q1991.91 1481.43 1990.94 1477.92 Q1989.98 1474.41 1989.98 1469.6 M1994.62 1474.14 Q1994.62 1479.11 1995.54 1481.48 Q1995.69 1481.87 1996.01 1482.42 Q1996.35 1482.96 1996.92 1483.68 Q1997.52 1484.37 1998.48 1484.84 Q1999.44 1485.28 2000.55 1485.28 Q2003.94 1485.28 2005.57 1482 Q2006.43 1480.17 2006.43 1475.2 Q2006.43 1470.14 2005.52 1468.29 Q2003.96 1465.15 2000.8 1465.15 Q1998.68 1465.15 1997.19 1466.61 Q1995.74 1468.07 1995.17 1470.02 Q1994.62 1471.97 1994.62 1474.14 Z" fill="#000000" fill-rule="nonzero" fill-opacity="1" /><path clip-path="url(#clip440)" d="M2015.13 1469.4 Q2015.13 1461.96 2017.01 1457.91 Q2019.62 1451.88 2025.8 1451.88 Q2027.11 1451.88 2028.47 1452.26 Q2029.85 1452.6 2031.58 1453.96 Q2033.34 1455.32 2034.4 1457.54 Q2036.42 1461.84 2036.42 1469.4 Q2036.42 1476.79 2034.55 1480.81 Q2031.8 1486.69 2025.75 1486.69 Q2023.48 1486.69 2021.16 1485.53 Q2018.86 1484.37 2017.4 1481.58 Q2015.13 1477.4 2015.13 1469.4 M2019.33 1468.78 Q2019.33 1476.41 2019.87 1479.45 Q2020.49 1482.74 2022.17 1484.17 Q2023.87 1485.58 2025.75 1485.58 Q2027.78 1485.58 2029.46 1484.07 Q2031.16 1482.54 2031.68 1479.26 Q2032.25 1476.02 2032.22 1468.78 Q2032.22 1461.74 2031.73 1458.92 Q2031.06 1455.64 2029.28 1454.33 Q2027.53 1453 2025.75 1453 Q2025.08 1453 2024.37 1453.19 Q2023.68 1453.39 2022.66 1453.96 Q2021.65 1454.53 2020.86 1455.94 Q2020.09 1457.34 2019.72 1459.47 Q2019.33 1462.21 2019.33 1468.78 Z" fill="#000000" fill-rule="nonzero" fill-opacity="1" /><path clip-path="url(#clip440)" d="M1232.58 1528.17 Q1232.58 1529.07 1232.16 1529.3 Q1231.74 1529.49 1230.58 1529.49 L1224.4 1529.49 L1219.51 1548.94 Q1219.12 1550.65 1219.12 1552.1 Q1219.12 1553.71 1219.6 1554.42 Q1220.12 1555.13 1221.18 1555.13 Q1223.27 1555.13 1225.53 1553.23 Q1227.81 1551.33 1229.75 1546.69 Q1230 1546.08 1230.13 1545.95 Q1230.29 1545.79 1230.71 1545.79 Q1231.52 1545.79 1231.52 1546.43 Q1231.52 1546.66 1231.07 1547.69 Q1230.65 1548.72 1229.72 1550.23 Q1228.81 1551.75 1227.62 1553.16 Q1226.46 1554.58 1224.69 1555.61 Q1222.92 1556.61 1221.02 1556.61 Q1218.35 1556.61 1216.64 1554.9 Q1214.96 1553.19 1214.96 1550.52 Q1214.96 1549.65 1215.64 1546.88 Q1216.32 1544.08 1219.99 1529.49 L1214.16 1529.49 Q1213.35 1529.49 1213.03 1529.46 Q1212.74 1529.43 1212.52 1529.27 Q1212.32 1529.07 1212.32 1528.69 Q1212.32 1528.07 1212.58 1527.82 Q1212.84 1527.53 1213.16 1527.49 Q1213.52 1527.43 1214.32 1527.43 L1220.5 1527.43 L1223.08 1516.96 Q1223.34 1515.93 1223.98 1515.35 Q1224.66 1514.74 1225.05 1514.68 Q1225.43 1514.58 1225.72 1514.58 Q1226.59 1514.58 1227.11 1515.06 Q1227.62 1515.51 1227.62 1516.35 Q1227.62 1516.8 1224.92 1527.43 L1230.71 1527.43 Q1231.45 1527.43 1231.74 1527.46 Q1232.07 1527.49 1232.32 1527.66 Q1232.58 1527.82 1232.58 1528.17 Z" fill="#000000" fill-rule="nonzero" fill-opacity="1" /><path clip-path="url(#clip440)" d="M1253.33 1572.36 L1253.33 1506.4 L1263.28 1506.4 L1263.28 1507.91 L1257.74 1507.91 L1257.74 1570.84 L1263.28 1570.84 L1263.28 1572.36 L1253.33 1572.36 Z" fill="#000000" fill-rule="nonzero" fill-opacity="1" /><path clip-path="url(#clip440)" d="M1290.22 1532.39 Q1290.22 1534.19 1289.32 1535.16 Q1288.41 1536.09 1287.19 1536.09 Q1286.19 1536.09 1285.64 1535.51 Q1285.13 1534.93 1285.13 1534.16 Q1285.13 1533.03 1286.03 1532.13 Q1286.96 1531.23 1288.32 1531.2 Q1287.87 1530.01 1286.67 1529.3 Q1285.48 1528.56 1284.42 1528.36 Q1283.39 1528.17 1282.36 1528.17 Q1280.33 1528.17 1278.78 1528.81 Q1277.24 1529.46 1276.47 1530.46 Q1275.69 1531.42 1275.34 1532.36 Q1274.98 1533.29 1274.98 1534.1 Q1274.98 1534.81 1275.14 1535.38 Q1275.34 1535.93 1275.79 1536.35 Q1276.24 1536.74 1276.56 1537 Q1276.92 1537.25 1277.69 1537.48 Q1278.46 1537.7 1278.78 1537.8 Q1279.11 1537.86 1280.01 1538.06 Q1281.88 1538.44 1282.71 1538.67 Q1283.55 1538.86 1284.65 1539.41 Q1285.77 1539.96 1286.61 1540.83 Q1288.64 1542.86 1288.64 1545.66 Q1288.64 1546.69 1288.28 1547.95 Q1287.96 1549.2 1287.03 1550.78 Q1286.09 1552.36 1284.68 1553.61 Q1283.26 1554.87 1280.81 1555.74 Q1278.4 1556.61 1275.37 1556.61 Q1271.15 1556.61 1268.54 1554.84 Q1265.93 1553.03 1265.93 1550.2 Q1265.93 1548.14 1267.06 1547.01 Q1268.19 1545.85 1269.64 1545.85 Q1270.73 1545.85 1271.41 1546.46 Q1272.09 1547.04 1272.09 1548.14 Q1272.09 1549.62 1270.89 1550.75 Q1269.7 1551.87 1267.93 1551.65 Q1269.44 1555.13 1275.43 1555.13 Q1277.69 1555.13 1279.43 1554.55 Q1281.2 1553.94 1282.17 1553.1 Q1283.16 1552.23 1283.81 1551.17 Q1284.45 1550.1 1284.65 1549.3 Q1284.87 1548.49 1284.87 1547.88 Q1284.87 1546.82 1284.45 1546.01 Q1284.03 1545.21 1283.45 1544.76 Q1282.91 1544.27 1281.84 1543.89 Q1280.81 1543.47 1280.07 1543.31 Q1279.33 1543.15 1278.01 1542.89 Q1277.4 1542.76 1277.01 1542.7 Q1276.63 1542.6 1275.82 1542.34 Q1275.05 1542.05 1274.5 1541.76 Q1273.99 1541.47 1273.31 1540.96 Q1272.63 1540.44 1272.21 1539.83 Q1271.8 1539.22 1271.51 1538.32 Q1271.22 1537.41 1271.22 1536.35 Q1271.22 1535.38 1271.51 1534.23 Q1271.83 1533.07 1272.63 1531.71 Q1273.47 1530.36 1274.66 1529.27 Q1275.85 1528.17 1277.85 1527.46 Q1279.88 1526.72 1282.36 1526.72 Q1285.97 1526.72 1288.09 1528.4 Q1290.22 1530.04 1290.22 1532.39 Z" fill="#000000" fill-rule="nonzero" fill-opacity="1" /><path clip-path="url(#clip440)" d="M1294.97 1570.84 L1300.51 1570.84 L1300.51 1507.91 L1294.97 1507.91 L1294.97 1506.4 L1304.92 1506.4 L1304.92 1572.36 L1294.97 1572.36 L1294.97 1570.84 Z" fill="#000000" fill-rule="nonzero" fill-opacity="1" /><polyline clip-path="url(#clip442)" style="stroke:#000000; stroke-linecap:round; stroke-linejoin:round; stroke-width:2; stroke-opacity:0.1; fill:none" points="172.691,1388.76 2352.76,1388.76 "/>
<polyline clip-path="url(#clip442)" style="stroke:#000000; stroke-linecap:round; stroke-linejoin:round; stroke-width:2; stroke-opacity:0.1; fill:none" points="172.691,1201.61 2352.76,1201.61 "/>
<polyline clip-path="url(#clip442)" style="stroke:#000000; stroke-linecap:round; stroke-linejoin:round; stroke-width:2; stroke-opacity:0.1; fill:none" points="172.691,1014.46 2352.76,1014.46 "/>
<polyline clip-path="url(#clip442)" style="stroke:#000000; stroke-linecap:round; stroke-linejoin:round; stroke-width:2; stroke-opacity:0.1; fill:none" points="172.691,827.301 2352.76,827.301 "/>
<polyline clip-path="url(#clip442)" style="stroke:#000000; stroke-linecap:round; stroke-linejoin:round; stroke-width:2; stroke-opacity:0.1; fill:none" points="172.691,640.147 2352.76,640.147 "/>
<polyline clip-path="url(#clip442)" style="stroke:#000000; stroke-linecap:round; stroke-linejoin:round; stroke-width:2; stroke-opacity:0.1; fill:none" points="172.691,452.992 2352.76,452.992 "/>
<polyline clip-path="url(#clip442)" style="stroke:#000000; stroke-linecap:round; stroke-linejoin:round; stroke-width:2; stroke-opacity:0.1; fill:none" points="172.691,265.838 2352.76,265.838 "/>
<polyline clip-path="url(#clip440)" style="stroke:#000000; stroke-linecap:round; stroke-linejoin:round; stroke-width:4; stroke-opacity:1; fill:none" points="172.691,1423.18 172.691,207.176 "/>
<polyline clip-path="url(#clip440)" style="stroke:#000000; stroke-linecap:round; stroke-linejoin:round; stroke-width:4; stroke-opacity:1; fill:none" points="172.691,1388.76 191.588,1388.76 "/>
<polyline clip-path="url(#clip440)" style="stroke:#000000; stroke-linecap:round; stroke-linejoin:round; stroke-width:4; stroke-opacity:1; fill:none" points="172.691,1201.61 191.588,1201.61 "/>
<polyline clip-path="url(#clip440)" style="stroke:#000000; stroke-linecap:round; stroke-linejoin:round; stroke-width:4; stroke-opacity:1; fill:none" points="172.691,1014.46 191.588,1014.46 "/>
<polyline clip-path="url(#clip440)" style="stroke:#000000; stroke-linecap:round; stroke-linejoin:round; stroke-width:4; stroke-opacity:1; fill:none" points="172.691,827.301 191.588,827.301 "/>
<polyline clip-path="url(#clip440)" style="stroke:#000000; stroke-linecap:round; stroke-linejoin:round; stroke-width:4; stroke-opacity:1; fill:none" points="172.691,640.147 191.588,640.147 "/>
<polyline clip-path="url(#clip440)" style="stroke:#000000; stroke-linecap:round; stroke-linejoin:round; stroke-width:4; stroke-opacity:1; fill:none" points="172.691,452.992 191.588,452.992 "/>
<polyline clip-path="url(#clip440)" style="stroke:#000000; stroke-linecap:round; stroke-linejoin:round; stroke-width:4; stroke-opacity:1; fill:none" points="172.691,265.838 191.588,265.838 "/>
<path clip-path="url(#clip440)" d="M115.397 1389.86 Q115.397 1382.43 117.274 1378.38 Q119.893 1372.35 126.068 1372.35 Q127.378 1372.35 128.736 1372.72 Q130.12 1373.07 131.849 1374.42 Q133.603 1375.78 134.665 1378.01 Q136.691 1382.3 136.691 1389.86 Q136.691 1397.25 134.813 1401.28 Q132.071 1407.16 126.019 1407.16 Q123.746 1407.16 121.424 1406 Q119.127 1404.83 117.669 1402.04 Q115.397 1397.87 115.397 1389.86 M119.596 1389.25 Q119.596 1396.88 120.14 1399.92 Q120.757 1403.2 122.437 1404.64 Q124.142 1406.04 126.019 1406.04 Q128.045 1406.04 129.724 1404.54 Q131.429 1403.01 131.948 1399.72 Q132.516 1396.48 132.491 1389.25 Q132.491 1382.21 131.997 1379.39 Q131.33 1376.1 129.552 1374.79 Q127.798 1373.46 126.019 1373.46 Q125.352 1373.46 124.636 1373.66 Q123.944 1373.86 122.931 1374.42 Q121.918 1374.99 121.128 1376.4 Q120.362 1377.81 119.991 1379.93 Q119.596 1382.68 119.596 1389.25 Z" fill="#000000" fill-rule="nonzero" fill-opacity="1" /><path clip-path="url(#clip440)" d="M119.991 1190.01 L119.991 1188.43 Q126.068 1188.43 129.206 1185.19 Q130.07 1185.19 130.219 1185.39 Q130.367 1185.59 130.367 1186.5 L130.367 1214.89 Q130.367 1216.4 131.108 1216.86 Q131.849 1217.33 135.085 1217.33 L136.691 1217.33 L136.691 1218.89 Q134.912 1218.74 128.489 1218.74 Q122.066 1218.74 120.312 1218.89 L120.312 1217.33 L121.918 1217.33 Q125.105 1217.33 125.871 1216.89 Q126.637 1216.42 126.637 1214.89 L126.637 1188.68 Q123.993 1190.01 119.991 1190.01 Z" fill="#000000" fill-rule="nonzero" fill-opacity="1" /><path clip-path="url(#clip440)" d="M116.483 1031.74 Q116.483 1030.82 116.558 1030.55 Q116.656 1030.28 117.052 1029.86 L126.76 1019.04 Q132.071 1013.06 132.071 1007.85 Q132.071 1004.46 130.293 1002.04 Q128.539 999.621 125.303 999.621 Q123.079 999.621 121.202 1000.98 Q119.324 1002.34 118.46 1004.76 Q118.608 1004.71 119.127 1004.71 Q120.387 1004.71 121.078 1005.5 Q121.795 1006.29 121.795 1007.35 Q121.795 1008.71 120.905 1009.38 Q120.041 1010.02 119.176 1010.02 Q118.83 1010.02 118.361 1009.95 Q117.916 1009.87 117.2 1009.18 Q116.483 1008.47 116.483 1007.21 Q116.483 1003.67 119.151 1000.86 Q121.844 998.04 125.945 998.04 Q130.589 998.04 133.628 1000.81 Q136.691 1003.55 136.691 1007.85 Q136.691 1009.35 136.221 1010.74 Q135.777 1012.1 135.159 1013.16 Q134.566 1014.22 132.936 1015.93 Q131.305 1017.63 129.996 1018.84 Q128.687 1020.05 125.747 1022.62 L120.387 1027.83 L129.502 1027.83 Q133.949 1027.83 134.295 1027.44 Q134.789 1026.72 135.406 1022.94 L136.691 1022.94 L135.258 1031.74 L116.483 1031.74 Z" fill="#000000" fill-rule="nonzero" fill-opacity="1" /><path clip-path="url(#clip440)" d="M115.693 837.763 Q115.693 836.256 116.558 835.54 Q117.422 834.823 118.534 834.823 Q119.695 834.823 120.51 835.589 Q121.35 836.33 121.35 837.64 Q121.35 839.048 120.362 839.838 Q119.398 840.629 118.015 840.431 Q119.226 842.457 121.449 843.371 Q123.697 844.285 125.772 844.285 Q127.946 844.285 129.7 842.407 Q131.478 840.53 131.478 835.935 Q131.478 832.032 129.947 829.784 Q128.44 827.536 125.451 827.536 L123.227 827.536 Q122.462 827.536 122.239 827.462 Q122.017 827.388 122.017 826.968 Q122.017 826.474 122.783 826.375 Q123.549 826.375 124.759 826.227 Q127.699 826.128 129.255 823.583 Q130.663 821.212 130.663 817.828 Q130.663 814.74 129.181 813.455 Q127.723 812.146 125.821 812.146 Q124.043 812.146 122.091 812.887 Q120.14 813.628 119.077 815.283 Q122.215 815.283 122.215 817.828 Q122.215 818.939 121.498 819.68 Q120.807 820.397 119.645 820.397 Q118.534 820.397 117.793 819.705 Q117.052 818.989 117.052 817.778 Q117.052 814.888 119.621 812.887 Q122.215 810.886 126.019 810.886 Q129.774 810.886 132.541 812.862 Q135.332 814.838 135.332 817.877 Q135.332 820.866 133.356 823.312 Q131.38 825.757 128.242 826.77 Q132.096 827.536 134.393 830.154 Q136.691 832.748 136.691 835.935 Q136.691 839.888 133.578 842.803 Q130.466 845.693 125.92 845.693 Q121.721 845.693 118.707 843.42 Q115.693 841.147 115.693 837.763 Z" fill="#000000" fill-rule="nonzero" fill-opacity="1" /><path clip-path="url(#clip440)" d="M114.26 649.077 L114.26 647.521 L129.799 623.781 Q130.194 623.163 130.811 623.188 Q131.38 623.188 131.503 623.41 Q131.627 623.633 131.627 624.497 L131.627 647.521 L136.691 647.521 L136.691 649.077 L131.627 649.077 L131.627 653.474 Q131.627 654.932 132.219 655.401 Q132.837 655.87 135.456 655.87 L136.518 655.87 L136.518 657.427 Q134.443 657.279 129.65 657.279 Q124.883 657.279 122.808 657.427 L122.808 655.87 L123.87 655.87 Q126.488 655.87 127.106 655.426 Q127.723 654.956 127.723 653.474 L127.723 649.077 L114.26 649.077 M115.693 647.521 L128.02 647.521 L128.02 628.647 L115.693 647.521 Z" fill="#000000" fill-rule="nonzero" fill-opacity="1" /><path clip-path="url(#clip440)" d="M116.483 462.12 Q116.483 460.613 117.299 460.045 Q118.114 459.452 118.978 459.452 Q120.14 459.452 120.807 460.193 Q121.498 460.91 121.498 461.923 Q121.498 462.935 120.807 463.677 Q120.14 464.393 118.978 464.393 Q118.41 464.393 118.114 464.294 Q118.781 466.616 120.807 468.296 Q122.857 469.976 125.55 469.976 Q128.934 469.976 130.96 466.69 Q132.17 464.566 132.17 459.749 Q132.17 455.5 131.256 453.375 Q129.848 450.139 126.958 450.139 Q122.857 450.139 120.436 453.672 Q120.14 454.116 119.794 454.141 Q119.3 454.141 119.176 453.869 Q119.077 453.573 119.077 452.807 L119.077 437.837 Q119.077 436.626 119.571 436.626 Q119.769 436.626 120.189 436.775 Q123.376 438.183 126.908 438.207 Q130.54 438.207 133.801 436.725 Q134.048 436.577 134.196 436.577 Q134.69 436.577 134.715 437.145 Q134.715 437.343 134.295 437.936 Q133.899 438.504 133.035 439.27 Q132.17 440.011 131.058 440.727 Q129.947 441.444 128.316 441.938 Q126.711 442.407 124.932 442.407 Q122.808 442.407 120.634 441.74 L120.634 451.597 Q123.252 449.027 127.056 449.027 Q131.108 449.027 133.899 452.288 Q136.691 455.549 136.691 460.095 Q136.691 464.862 133.381 468.123 Q130.095 471.384 125.648 471.384 Q121.597 471.384 119.028 468.494 Q116.483 465.603 116.483 462.12 Z" fill="#000000" fill-rule="nonzero" fill-opacity="1" /><path clip-path="url(#clip440)" d="M115.693 267.135 Q115.693 259.18 119.744 254.314 Q123.796 249.422 129.008 249.422 Q132.047 249.422 133.726 250.979 Q135.431 252.51 135.431 254.882 Q135.431 256.191 134.665 256.759 Q133.899 257.328 133.109 257.328 Q132.195 257.328 131.478 256.71 Q130.762 256.092 130.762 254.981 Q130.762 252.708 133.553 252.708 Q132.244 250.682 129.107 250.682 Q128.143 250.682 127.155 250.979 Q126.167 251.251 124.883 252.189 Q123.598 253.128 122.61 254.61 Q121.622 256.092 120.93 258.884 Q120.238 261.675 120.238 265.307 L120.238 266.517 Q122.313 261.502 126.562 261.527 Q130.811 261.527 133.751 264.763 Q136.691 267.999 136.691 272.792 Q136.691 277.708 133.628 280.969 Q130.564 284.23 126.266 284.23 Q124.339 284.23 122.585 283.414 Q120.856 282.624 119.226 280.796 Q117.62 278.968 116.656 275.46 Q115.693 271.952 115.693 267.135 M120.337 271.68 Q120.337 276.646 121.251 279.017 Q121.399 279.412 121.721 279.956 Q122.066 280.499 122.635 281.216 Q123.227 281.907 124.191 282.377 Q125.154 282.821 126.266 282.821 Q129.65 282.821 131.281 279.536 Q132.145 277.708 132.145 272.742 Q132.145 267.678 131.231 265.826 Q129.675 262.688 126.513 262.688 Q124.389 262.688 122.906 264.146 Q121.449 265.603 120.881 267.555 Q120.337 269.506 120.337 271.68 Z" fill="#000000" fill-rule="nonzero" fill-opacity="1" /><path clip-path="url(#clip440)" d="M82.5735 858.441 L16.6159 858.441 L16.6159 848.489 L18.1296 848.489 L18.1296 854.029 L81.0598 854.029 L81.0598 848.489 L82.5735 848.489 L82.5735 858.441 Z" fill="#000000" fill-rule="nonzero" fill-opacity="1" /><path clip-path="url(#clip440)" d="M56.6478 793.113 Q56.9054 793.113 57.9038 793.403 Q58.9022 793.693 60.4481 794.402 Q61.994 795.078 63.411 796.044 Q64.7959 796.978 65.8264 798.524 Q66.8248 800.038 66.8248 801.777 Q66.8248 804.095 65.2789 805.641 Q63.7331 807.187 61.4142 807.187 Q60.1582 807.187 57.775 806.318 Q46.8894 802.228 42.9925 802.228 Q38.3871 802.228 38.3871 805.802 Q38.3871 807.831 39.2244 809.667 Q40.0618 811.503 41.2212 812.694 Q42.3806 813.886 43.701 814.82 Q45.0215 815.754 45.891 816.173 Q46.7606 816.559 47.147 816.656 L63.0567 820.617 Q64.4094 820.939 65.0535 821.165 Q65.6976 821.39 66.2451 822.002 Q66.8248 822.614 66.8248 823.58 Q66.8248 824.385 66.3417 824.965 Q65.8587 825.512 65.0213 825.512 Q64.8925 825.512 64.2162 825.351 Q63.5398 825.19 62.6059 824.965 Q61.6719 824.739 61.1244 824.643 Q56.7444 823.483 56.1325 823.322 L48.4675 821.487 Q44.6672 820.488 42.9925 820.488 Q38.3871 820.488 38.3871 824.063 Q38.3871 825.834 39.0634 827.509 Q39.7075 829.152 40.6093 830.279 Q41.511 831.406 42.7671 832.437 Q43.9909 833.435 44.8282 833.95 Q45.6334 834.433 46.4385 834.82 L49.7235 835.657 Q50.6253 835.85 54.1357 836.784 L60.0938 838.234 Q64.5382 839.264 64.9569 839.49 Q65.8587 839.812 66.3417 840.52 Q66.8248 841.229 66.8248 841.937 Q66.8248 842.743 66.3417 843.29 Q65.8587 843.838 65.0213 843.838 Q64.8925 843.838 64.4094 843.741 Q63.9263 843.644 63.25 843.483 Q62.5737 843.322 62.1872 843.258 L46.9538 839.425 Q44.1841 838.717 43.3146 838.556 Q42.4128 838.363 41.4144 838.363 Q38.3871 838.363 38.3871 840.424 Q38.3871 842.098 40.3838 843.193 Q42.3806 844.288 46.2453 845.222 Q47.3081 845.512 47.5335 845.705 Q47.759 845.866 47.759 846.35 Q47.7268 847.155 47.0826 847.155 Q46.9216 847.155 45.891 846.897 Q44.8604 846.639 43.3146 846.156 Q41.7365 845.641 40.7059 845.094 Q40.0296 844.771 39.5787 844.482 Q39.1278 844.192 38.4193 843.612 Q37.7107 843.032 37.3243 842.163 Q36.9378 841.293 36.9378 840.23 Q36.9378 837.879 38.4515 836.14 Q39.9651 834.369 42.6704 834.144 Q36.9378 829.86 36.9378 823.87 Q36.9378 820.488 38.6447 818.459 Q40.2872 816.559 43.3146 816.334 Q36.9378 811.889 36.9378 805.577 Q36.9378 801.938 38.8379 799.973 Q40.7059 798.009 43.9909 798.009 Q45.6978 798.009 48.9506 798.878 Q52.1712 799.748 53.7815 800.327 Q55.3917 800.907 58.4835 802.034 Q61.4465 803.226 63.1856 803.226 Q64.3128 803.226 64.8281 802.839 Q65.3434 802.453 65.3434 801.616 Q65.3434 800.327 64.6026 799.2 Q63.8297 798.073 62.5737 797.268 Q61.2854 796.431 59.9972 795.883 Q58.6767 795.336 57.1953 794.917 Q56.3901 794.659 56.1969 794.53 Q56.0037 794.369 56.0037 793.918 Q56.0037 793.113 56.6478 793.113 Z" fill="#000000" fill-rule="nonzero" fill-opacity="1" /><path clip-path="url(#clip440)" d="M81.0598 790.065 L81.0598 784.526 L18.1296 784.526 L18.1296 790.065 L16.6159 790.065 L16.6159 780.114 L82.5735 780.114 L82.5735 790.065 L81.0598 790.065 Z" fill="#000000" fill-rule="nonzero" fill-opacity="1" /><polyline clip-path="url(#clip442)" style="stroke:#4a7945; stroke-linecap:round; stroke-linejoin:round; stroke-width:8; stroke-opacity:1; fill:none" points="234.391,1140.48 237.115,1147.24 239.839,1153.92 242.563,1160.45 245.287,1166.76 248.011,1172.78 250.735,1178.48 253.459,1183.83 256.183,1188.8 258.907,1193.4 261.631,1197.63 264.355,1201.53 267.079,1205.1 269.804,1208.41 272.528,1211.47 275.252,1214.33 277.976,1217.03 280.7,1219.6 283.424,1222.08 286.148,1224.48 288.872,1226.84 291.596,1229.16 294.32,1231.46 297.044,1233.74 299.768,1236.02 302.492,1238.3 305.216,1240.57 307.94,1242.85 310.664,1245.12 313.388,1247.41 316.113,1249.69 318.837,1251.98 321.561,1254.26 324.285,1256.53 327.009,1258.78 329.733,1260.98 332.457,1263.12 335.181,1265.16 337.905,1267.06 340.629,1268.78 343.353,1270.25 346.077,1271.41 348.801,1272.19 351.525,1272.52 354.249,1272.32 356.973,1271.5 359.698,1269.98 362.422,1267.71 365.146,1264.6 367.87,1260.59 370.594,1255.66 373.318,1249.75 376.042,1242.85 378.766,1234.95 381.49,1226.07 384.214,1216.22 386.938,1205.44 389.662,1193.78 392.386,1181.28 395.11,1168.02 397.834,1154.05 400.558,1139.45 403.282,1124.29 406.007,1108.64 408.731,1092.57 411.455,1076.15 414.179,1059.46 416.903,1042.55 419.627,1025.49 422.351,1008.33 425.075,991.127 427.799,973.93 430.523,956.783 433.247,939.726 435.971,922.791 438.695,906.008 441.419,889.401 444.143,872.985 446.867,856.772 449.591,840.766 452.316,824.966 455.04,809.364 457.764,793.944 460.488,778.687 463.212,763.564 465.936,748.542 468.66,733.582 471.384,718.643 474.108,703.679 476.832,688.644 479.556,673.494 482.28,658.191 485.004,642.702 487.728,627.007 490.452,611.101 493.176,594.99 495.901,578.701 498.625,562.276 501.349,545.773 504.073,529.264 506.797,512.831 509.521,496.564 512.245,480.554 514.969,464.89 517.693,449.658 520.417,434.932 523.141,420.78 525.865,407.255 528.589,394.403 531.313,382.257 534.037,370.844 536.761,360.183 539.485,350.287 542.21,341.166 544.934,332.823 547.658,325.256 550.382,318.458 553.106,312.412 555.83,307.091 558.554,302.46 561.278,298.469 564.002,295.059 566.726,292.163 569.45,289.705 572.174,287.608 574.898,285.794 577.622,284.187 580.346,282.722 583.07,281.34 585.794,279.995 588.519,278.654 591.243,277.294 593.967,275.902 596.691,274.478 599.415,273.023 602.139,271.546 604.863,270.057 607.587,268.565 610.311,267.081 613.035,265.611 615.759,264.16 618.483,262.731 621.207,261.324 623.931,259.939 626.655,258.574 629.379,257.227 632.104,255.897 634.828,254.584 637.552,253.291 640.276,252.021 643,250.781 645.724,249.582 648.448,248.436 651.172,247.359 653.896,246.37 656.62,245.489 659.344,244.742 662.068,244.152 664.792,243.745 667.516,243.548 670.24,243.586 672.964,243.884 675.688,244.466 678.413,245.354 681.137,246.569 683.861,248.13 686.585,250.056 689.309,252.362 692.033,255.063 694.757,258.174 697.481,261.707 700.205,265.675 702.929,270.086 705.653,274.951 708.377,280.277 711.101,286.07 713.825,292.335 716.549,299.075 719.273,306.29 721.997,313.976 724.722,322.129 727.446,330.736 730.17,339.781 732.894,349.244 735.618,359.093 738.342,369.294 741.066,379.803 743.79,390.569 746.514,401.535 749.238,412.636 751.962,423.805 754.686,434.972 757.41,446.064 760.134,457.012 762.858,467.749 765.582,478.212 768.306,488.344 771.031,498.099 773.755,507.434 776.479,516.319 779.203,524.73 781.927,532.65 784.651,540.072 787.375,546.99 790.099,553.407 792.823,559.327 795.547,564.757 798.271,569.705 800.995,574.181 803.719,578.195 806.443,581.759 809.167,584.885 811.891,587.586 814.616,589.877 817.34,591.775 820.064,593.303 822.788,594.484 825.512,595.347 828.236,595.924 830.96,596.253 833.684,596.374 836.408,596.333 839.132,596.176 841.856,595.955 844.58,595.721 847.304,595.526 850.028,595.423 852.752,595.461 855.476,595.69 858.2,596.154 860.925,596.894 863.649,597.949 866.373,599.349 869.097,601.122 871.821,603.292 874.545,605.876 877.269,608.888 879.993,612.337 882.717,616.231 885.441,620.57 888.165,625.357 890.889,630.586 893.613,636.254 896.337,642.351 899.061,648.867 901.785,655.789 904.509,663.1 907.234,670.78 909.958,678.806 912.682,687.153 915.406,695.789 918.13,704.682 920.854,713.796 923.578,723.09 926.302,732.522 929.026,742.049 931.75,751.625 934.474,761.204 937.198,770.738 939.922,780.182 942.646,789.49 945.37,798.62 948.094,807.529 950.819,816.179 953.543,824.535 956.267,832.565 958.991,840.239 961.715,847.534 964.439,854.426 967.163,860.897 969.887,866.933 972.611,872.52 975.335,877.649 978.059,882.312 980.783,886.506 983.507,890.229 986.231,893.482 988.955,896.27 991.679,898.601 994.403,900.49 997.128,901.954 999.852,903.016 1002.58,903.705 1005.3,904.054 1008.02,904.1 1010.75,903.887 1013.47,903.459 1016.2,902.862 1018.92,902.144 1021.64,901.35 1024.37,900.522 1027.09,899.699 1029.82,898.911 1032.54,898.184 1035.26,897.537 1037.99,896.98 1040.71,896.516 1043.44,896.141 1046.16,895.846 1048.88,895.618 1051.61,895.441 1054.33,895.296 1057.06,895.166 1059.78,895.035 1062.5,894.889 1065.23,894.72 1067.95,894.522 1070.68,894.295 1073.4,894.045 1076.13,893.782 1078.85,893.521 1081.57,893.28 1084.3,893.083 1087.02,892.953 1089.75,892.915 1092.47,892.996 1095.19,893.22 1097.92,893.611 1100.64,894.188 1103.37,894.968 1106.09,895.966 1108.81,897.19 1111.54,898.647 1114.26,900.338 1116.99,902.262 1119.71,904.417 1122.43,906.796 1125.16,909.396 1127.88,912.209 1130.61,915.232 1133.33,918.462 1136.05,921.897 1138.78,925.538 1141.5,929.389 1144.23,933.453 1146.95,937.737 1149.67,942.248 1152.4,946.989 1155.12,951.968 1157.85,957.185 1160.57,962.641 1163.3,968.332 1166.02,974.252 1168.74,980.39 1171.47,986.733 1174.19,993.261 1176.92,999.955 1179.64,1006.79 1182.36,1013.75 1185.09,1020.79 1187.81,1027.91 1190.54,1035.06 1193.26,1042.23 1195.98,1049.4 1198.71,1056.54 1201.43,1063.64 1204.16,1070.69 1206.88,1077.66 1209.6,1084.57 1212.33,1091.39 1215.05,1098.13 1217.78,1104.79 1220.5,1111.38 1223.22,1117.9 1225.95,1124.36 1228.67,1130.76 1231.4,1137.12 1234.12,1143.43 1236.84,1149.71 1239.57,1155.96 1242.29,1162.17 1245.02,1168.35 1247.74,1174.48 1250.47,1180.57 1253.19,1186.6 1255.91,1192.55 1258.64,1198.41 1261.36,1204.17 1264.09,1209.8 1266.81,1215.28 1269.53,1220.6 1272.26,1225.74 1274.98,1230.68 1277.71,1235.41 1280.43,1239.92 1283.15,1244.19 1285.88,1248.24 1288.6,1252.05 1291.33,1255.63 1294.05,1259 1296.77,1262.15 1299.5,1265.11 1302.22,1267.9 1304.95,1270.53 1307.67,1273.01 1310.39,1275.37 1313.12,1277.63 1315.84,1279.79 1318.57,1281.88 1321.29,1283.9 1324.01,1285.87 1326.74,1287.79 1329.46,1289.66 1332.19,1291.49 1334.91,1293.28 1337.64,1295.02 1340.36,1296.71 1343.08,1298.35 1345.81,1299.93 1348.53,1301.45 1351.26,1302.9 1353.98,1304.27 1356.7,1305.56 1359.43,1306.76 1362.15,1307.86 1364.88,1308.86 1367.6,1309.76 1370.32,1310.55 1373.05,1311.23 1375.77,1311.79 1378.5,1312.25 1381.22,1312.59 1383.94,1312.83 1386.67,1312.97 1389.39,1313 1392.12,1312.94 1394.84,1312.77 1397.56,1312.51 1400.29,1312.13 1403.01,1311.65 1405.74,1311.05 1408.46,1310.32 1411.18,1309.45 1413.91,1308.43 1416.63,1307.24 1419.36,1305.87 1422.08,1304.31 1424.8,1302.55 1427.53,1300.59 1430.25,1298.41 1432.98,1296.03 1435.7,1293.45 1438.43,1290.68 1441.15,1287.73 1443.87,1284.62 1446.6,1281.38 1449.32,1278.01 1452.05,1274.56 1454.77,1271.05 1457.49,1267.5 1460.22,1263.95 1462.94,1260.42 1465.67,1256.94 1468.39,1253.53 1471.11,1250.23 1473.84,1247.03 1476.56,1243.97 1479.29,1241.05 1482.01,1238.27 1484.73,1235.64 1487.46,1233.16 1490.18,1230.81 1492.91,1228.59 1495.63,1226.48 1498.35,1224.47 1501.08,1222.55 1503.8,1220.7 1506.53,1218.91 1509.25,1217.17 1511.97,1215.48 1514.7,1213.84 1517.42,1212.25 1520.15,1210.71 1522.87,1209.24 1525.6,1207.84 1528.32,1206.52 1531.04,1205.29 1533.77,1204.17 1536.49,1203.15 1539.22,1202.25 1541.94,1201.45 1544.66,1200.75 1547.39,1200.15 1550.11,1199.63 1552.84,1199.18 1555.56,1198.78 1558.28,1198.41 1561.01,1198.07 1563.73,1197.72 1566.46,1197.35 1569.18,1196.96 1571.9,1196.53 1574.63,1196.05 1577.35,1195.52 1580.08,1194.94 1582.8,1194.31 1585.52,1193.63 1588.25,1192.92 1590.97,1192.18 1593.7,1191.43 1596.42,1190.68 1599.14,1189.94 1601.87,1189.23 1604.59,1188.56 1607.32,1187.94 1610.04,1187.37 1612.77,1186.86 1615.49,1186.41 1618.21,1186.01 1620.94,1185.66 1623.66,1185.34 1626.39,1185.05 1629.11,1184.76 1631.83,1184.47 1634.56,1184.16 1637.28,1183.82 1640.01,1183.45 1642.73,1183.05 1645.45,1182.62 1648.18,1182.19 1650.9,1181.75 1653.63,1181.36 1656.35,1181.02 1659.07,1180.78 1661.8,1180.66 1664.52,1180.71 1667.25,1180.96 1669.97,1181.44 1672.69,1182.18 1675.42,1183.19 1678.14,1184.48 1680.87,1186.07 1683.59,1187.95 1686.31,1190.12 1689.04,1192.54 1691.76,1195.21 1694.49,1198.08 1697.21,1201.14 1699.93,1204.35 1702.66,1207.67 1705.38,1211.08 1708.11,1214.53 1710.83,1218 1713.56,1221.48 1716.28,1224.93 1719,1228.35 1721.73,1231.72 1724.45,1235.04 1727.18,1238.32 1729.9,1241.56 1732.62,1244.76 1735.35,1247.93 1738.07,1251.08 1740.8,1254.23 1743.52,1257.38 1746.24,1260.54 1748.97,1263.71 1751.69,1266.9 1754.42,1270.11 1757.14,1273.34 1759.86,1276.58 1762.59,1279.84 1765.31,1283.1 1768.04,1286.37 1770.76,1289.63 1773.48,1292.89 1776.21,1296.13 1778.93,1299.35 1781.66,1302.54 1784.38,1305.7 1787.1,1308.81 1789.83,1311.87 1792.55,1314.85 1795.28,1317.75 1798,1320.55 1800.73,1323.21 1803.45,1325.73 1806.17,1328.05 1808.9,1330.17 1811.62,1332.04 1814.35,1333.63 1817.07,1334.9 1819.79,1335.84 1822.52,1336.4 1825.24,1336.56 1827.97,1336.32 1830.69,1335.64 1833.41,1334.53 1836.14,1332.99 1838.86,1331.03 1841.59,1328.67 1844.31,1325.93 1847.03,1322.85 1849.76,1319.47 1852.48,1315.84 1855.21,1311.99 1857.93,1307.99 1860.65,1303.89 1863.38,1299.75 1866.1,1295.6 1868.83,1291.51 1871.55,1287.51 1874.27,1283.64 1877,1279.94 1879.72,1276.41 1882.45,1273.09 1885.17,1269.97 1887.9,1267.06 1890.62,1264.34 1893.34,1261.81 1896.07,1259.43 1898.79,1257.17 1901.52,1255.01 1904.24,1252.9 1906.96,1250.81 1909.69,1248.69 1912.41,1246.5 1915.14,1244.2 1917.86,1241.73 1920.58,1239.07 1923.31,1236.17 1926.03,1232.98 1928.76,1229.49 1931.48,1225.64 1934.2,1221.41 1936.93,1216.77 1939.65,1211.7 1942.38,1206.18 1945.1,1200.19 1947.82,1193.72 1950.55,1186.77 1953.27,1179.34 1956,1171.43 1958.72,1163.07 1961.44,1154.27 1964.17,1145.06 1966.89,1135.48 1969.62,1125.57 1972.34,1115.38 1975.07,1104.95 1977.79,1094.33 1980.51,1083.58 1983.24,1072.74 1985.96,1061.87 1988.69,1051.01 1991.41,1040.21 1994.13,1029.51 1996.86,1018.95 1999.58,1008.56 2002.31,998.377 2005.03,988.431 2007.75,978.749 2010.48,969.355 2013.2,960.274 2015.93,951.527 2018.65,943.136 2021.37,935.122 2024.1,927.504 2026.82,920.3 2029.55,913.527 2032.27,907.2 2034.99,901.333 2037.72,895.936 2040.44,891.018 2043.17,886.584 2045.89,882.636 2048.61,879.172 2051.34,876.187 2054.06,873.673 2056.79,871.618 2059.51,870.008 2062.23,868.825 2064.96,868.049 2067.68,867.661 2070.41,867.637 2073.13,867.957 2075.86,868.598 2078.58,869.538 2081.3,870.758 2084.03,872.238 2086.75,873.96 2089.48,875.907 2092.2,878.063 2094.92,880.412 2097.65,882.94 2100.37,885.633 2103.1,888.476 2105.82,891.458 2108.54,894.565 2111.27,897.789 2113.99,901.121 2116.72,904.557 2119.44,908.097 2122.16,911.745 2124.89,915.509 2127.61,919.405 2130.34,923.453 2133.06,927.677 2135.78,932.108 2138.51,936.78 2141.23,941.73 2143.96,946.996 2146.68,952.617 2149.4,958.633 2152.13,965.081 2154.85,971.997 2157.58,979.412 2160.3,987.354 2163.03,995.849 2165.75,1004.91 2168.47,1014.56 2171.2,1024.8 2173.92,1035.62 2176.65,1047.03 2179.37,1058.98 2182.09,1071.46 2184.82,1084.4 2187.54,1097.74 2190.27,1111.39 2192.99,1125.25 2195.71,1139.18 2198.44,1153.02 2201.16,1166.61 2203.89,1179.75 2206.61,1192.23 2209.33,1203.85 2212.06,1214.38 2214.78,1223.62 2217.51,1231.36 2220.23,1237.45 2222.95,1241.74 2225.68,1244.13 2228.4,1244.57 2231.13,1243.06 2233.85,1239.65 2236.57,1234.44 2239.3,1227.6 2242.02,1219.32 2244.75,1209.86 2247.47,1199.5 2250.2,1188.53 2252.92,1177.27 2255.64,1166.05 2258.37,1155.15 2261.09,1144.87 2263.82,1135.43 2266.54,1127.06 2269.26,1119.89 2271.99,1114.01 2274.71,1109.45 2277.44,1106.16 2280.16,1104.05 2282.88,1102.97 2285.61,1102.69 2288.33,1102.98 2291.06,1103.56 "/>
<polyline clip-path="url(#clip442)" style="stroke:#dfba53; stroke-linecap:round; stroke-linejoin:round; stroke-width:8; stroke-opacity:1; fill:none" points="234.391,1338 237.115,1335.98 239.839,1333.89 242.563,1331.73 245.287,1329.51 248.011,1327.2 250.735,1324.83 253.459,1322.38 256.183,1319.85 258.907,1317.25 261.631,1314.57 264.355,1311.8 267.079,1308.95 269.804,1306.01 272.528,1302.99 275.252,1299.88 277.976,1296.68 280.7,1293.39 283.424,1290 286.148,1286.52 288.872,1282.94 291.596,1279.27 294.32,1275.49 297.044,1271.62 299.768,1267.64 302.492,1263.55 305.216,1259.36 307.94,1255.07 310.664,1250.66 313.388,1246.14 316.113,1241.52 318.837,1236.78 321.561,1231.93 324.285,1226.96 327.009,1221.87 329.733,1216.67 332.457,1211.35 335.181,1205.91 337.905,1200.35 340.629,1194.67 343.353,1188.87 346.077,1182.94 348.801,1176.89 351.525,1170.72 354.249,1164.42 356.973,1158 359.698,1151.45 362.422,1144.78 365.146,1137.98 367.87,1131.05 370.594,1124 373.318,1116.82 376.042,1109.52 378.766,1102.09 381.49,1094.54 384.214,1086.86 386.938,1079.05 389.662,1071.13 392.386,1063.08 395.11,1054.91 397.834,1046.62 400.558,1038.21 403.282,1029.68 406.007,1021.04 408.731,1012.28 411.455,1003.4 414.179,994.415 416.903,985.319 419.627,976.115 422.351,966.805 425.075,957.391 427.799,947.876 430.523,938.262 433.247,928.552 435.971,918.749 438.695,908.855 441.419,898.873 444.143,888.808 446.867,878.661 449.591,868.436 452.316,858.138 455.04,847.768 457.764,837.333 460.488,826.834 463.212,816.277 465.936,805.665 468.66,795.003 471.384,784.294 474.108,773.545 476.832,762.758 479.556,751.94 482.28,741.094 485.004,730.225 487.728,719.34 490.452,708.442 493.176,697.537 495.901,686.63 498.625,675.727 501.349,664.833 504.073,653.954 506.797,643.095 509.521,632.262 512.245,621.46 514.969,610.697 517.693,599.976 520.417,589.305 523.141,578.689 525.865,568.134 528.589,557.647 531.313,547.233 534.037,536.898 536.761,526.648 539.485,516.49 542.21,506.43 544.934,496.473 547.658,486.626 550.382,476.895 553.106,467.286 555.83,457.805 558.554,448.457 561.278,439.249 564.002,430.187 566.726,421.277 569.45,412.523 572.174,403.933 574.898,395.511 577.622,387.263 580.346,379.195 583.07,371.312 585.794,363.619 588.519,356.121 591.243,348.824 593.967,341.732 596.691,334.85 599.415,328.183 602.139,321.735 604.863,315.511 607.587,309.515 610.311,303.75 613.035,298.222 615.759,292.933 618.483,287.888 621.207,283.089 623.931,278.539 626.655,274.243 629.379,270.203 632.104,266.421 634.828,262.899 637.552,259.641 640.276,256.648 643,253.922 645.724,251.465 648.448,249.277 651.172,247.361 653.896,245.716 656.62,244.345 659.344,243.247 662.068,242.423 664.792,241.872 667.516,241.595 670.24,241.591 672.964,241.86 675.688,242.4 678.413,243.211 681.137,244.29 683.861,245.638 686.585,247.251 689.309,249.127 692.033,251.266 694.757,253.662 697.481,256.315 700.205,259.222 702.929,262.378 705.653,265.78 708.377,269.426 711.101,273.31 713.825,277.429 716.549,281.779 719.273,286.355 721.997,291.152 724.722,296.165 727.446,301.39 730.17,306.821 732.894,312.452 735.618,318.278 738.342,324.292 741.066,330.49 743.79,336.864 746.514,343.409 749.238,350.118 751.962,356.983 754.686,363.999 757.41,371.158 760.134,378.454 762.858,385.878 765.582,393.425 768.306,401.086 771.031,408.854 773.755,416.721 776.479,424.679 779.203,432.722 781.927,440.841 784.651,449.028 787.375,457.275 790.099,465.575 792.823,473.919 795.547,482.299 798.271,490.709 800.995,499.138 803.719,507.58 806.443,516.027 809.167,524.47 811.891,532.902 814.616,541.315 817.34,549.701 820.064,558.052 822.788,566.361 825.512,574.621 828.236,582.823 830.96,590.961 833.684,599.028 836.408,607.016 839.132,614.918 841.856,622.728 844.58,630.44 847.304,638.046 850.028,645.54 852.752,652.917 855.476,660.171 858.2,667.295 860.925,674.285 863.649,681.136 866.373,687.842 869.097,694.399 871.821,700.803 874.545,707.048 877.269,713.132 879.993,719.051 882.717,724.801 885.441,730.379 888.165,735.783 890.889,741.01 893.613,746.058 896.337,750.925 899.061,755.609 901.785,760.11 904.509,764.426 907.234,768.557 909.958,772.503 912.682,776.263 915.406,779.839 918.13,783.23 920.854,786.439 923.578,789.465 926.302,792.312 929.026,794.981 931.75,797.474 934.474,799.794 937.198,801.945 939.922,803.929 942.646,805.75 945.37,807.412 948.094,808.919 950.819,810.276 953.543,811.487 956.267,812.557 958.991,813.492 961.715,814.297 964.439,814.979 967.163,815.542 969.887,815.993 972.611,816.339 975.335,816.587 978.059,816.742 980.783,816.812 983.507,816.804 986.231,816.725 988.955,816.583 991.679,816.385 994.403,816.139 997.128,815.852 999.852,815.532 1002.58,815.187 1005.3,814.825 1008.02,814.453 1010.75,814.079 1013.47,813.711 1016.2,813.357 1018.92,813.024 1021.64,812.72 1024.37,812.453 1027.09,812.23 1029.82,812.058 1032.54,811.945 1035.26,811.897 1037.99,811.922 1040.71,812.027 1043.44,812.217 1046.16,812.499 1048.88,812.88 1051.61,813.365 1054.33,813.96 1057.06,814.671 1059.78,815.502 1062.5,816.458 1065.23,817.545 1067.95,818.765 1070.68,820.125 1073.4,821.626 1076.13,823.273 1078.85,825.068 1081.57,827.015 1084.3,829.116 1087.02,831.373 1089.75,833.787 1092.47,836.361 1095.19,839.095 1097.92,841.991 1100.64,845.048 1103.37,848.266 1106.09,851.647 1108.81,855.188 1111.54,858.89 1114.26,862.75 1116.99,866.768 1119.71,870.942 1122.43,875.27 1125.16,879.749 1127.88,884.376 1130.61,889.149 1133.33,894.065 1136.05,899.119 1138.78,904.309 1141.5,909.631 1144.23,915.079 1146.95,920.65 1149.67,926.339 1152.4,932.142 1155.12,938.053 1157.85,944.067 1160.57,950.179 1163.3,956.384 1166.02,962.676 1168.74,969.049 1171.47,975.498 1174.19,982.017 1176.92,988.6 1179.64,995.24 1182.36,1001.93 1185.09,1008.67 1187.81,1015.45 1190.54,1022.26 1193.26,1029.1 1195.98,1035.96 1198.71,1042.84 1201.43,1049.72 1204.16,1056.61 1206.88,1063.5 1209.6,1070.38 1212.33,1077.24 1215.05,1084.09 1217.78,1090.91 1220.5,1097.7 1223.22,1104.45 1225.95,1111.16 1228.67,1117.83 1231.4,1124.45 1234.12,1131.01 1236.84,1137.51 1239.57,1143.94 1242.29,1150.31 1245.02,1156.6 1247.74,1162.82 1250.47,1168.95 1253.19,1175 1255.91,1180.96 1258.64,1186.83 1261.36,1192.61 1264.09,1198.29 1266.81,1203.87 1269.53,1209.34 1272.26,1214.71 1274.98,1219.97 1277.71,1225.12 1280.43,1230.16 1283.15,1235.09 1285.88,1239.9 1288.6,1244.6 1291.33,1249.17 1294.05,1253.63 1296.77,1257.97 1299.5,1262.19 1302.22,1266.29 1304.95,1270.26 1307.67,1274.11 1310.39,1277.84 1313.12,1281.45 1315.84,1284.93 1318.57,1288.29 1321.29,1291.53 1324.01,1294.64 1326.74,1297.63 1329.46,1300.51 1332.19,1303.25 1334.91,1305.88 1337.64,1308.39 1340.36,1310.78 1343.08,1313.05 1345.81,1315.21 1348.53,1317.24 1351.26,1319.16 1353.98,1320.97 1356.7,1322.66 1359.43,1324.24 1362.15,1325.71 1364.88,1327.07 1367.6,1328.32 1370.32,1329.46 1373.05,1330.5 1375.77,1331.43 1378.5,1332.26 1381.22,1332.98 1383.94,1333.61 1386.67,1334.13 1389.39,1334.56 1392.12,1334.89 1394.84,1335.12 1397.56,1335.26 1400.29,1335.3 1403.01,1335.26 1405.74,1335.12 1408.46,1334.9 1411.18,1334.59 1413.91,1334.19 1416.63,1333.71 1419.36,1333.15 1422.08,1332.51 1424.8,1331.78 1427.53,1330.98 1430.25,1330.1 1432.98,1329.15 1435.7,1328.12 1438.43,1327.02 1441.15,1325.85 1443.87,1324.6 1446.6,1323.3 1449.32,1321.92 1452.05,1320.48 1454.77,1318.98 1457.49,1317.42 1460.22,1315.79 1462.94,1314.11 1465.67,1312.37 1468.39,1310.58 1471.11,1308.74 1473.84,1306.84 1476.56,1304.9 1479.29,1302.91 1482.01,1300.87 1484.73,1298.79 1487.46,1296.66 1490.18,1294.5 1492.91,1292.3 1495.63,1290.07 1498.35,1287.8 1501.08,1285.5 1503.8,1283.17 1506.53,1280.82 1509.25,1278.44 1511.97,1276.03 1514.7,1273.61 1517.42,1271.17 1520.15,1268.72 1522.87,1266.25 1525.6,1263.77 1528.32,1261.28 1531.04,1258.79 1533.77,1256.29 1536.49,1253.8 1539.22,1251.3 1541.94,1248.81 1544.66,1246.33 1547.39,1243.86 1550.11,1241.4 1552.84,1238.95 1555.56,1236.53 1558.28,1234.12 1561.01,1231.73 1563.73,1229.38 1566.46,1227.04 1569.18,1224.74 1571.9,1222.48 1574.63,1220.25 1577.35,1218.05 1580.08,1215.9 1582.8,1213.79 1585.52,1211.73 1588.25,1209.71 1590.97,1207.75 1593.7,1205.84 1596.42,1203.98 1599.14,1202.18 1601.87,1200.44 1604.59,1198.76 1607.32,1197.15 1610.04,1195.6 1612.77,1194.12 1615.49,1192.71 1618.21,1191.36 1620.94,1190.09 1623.66,1188.9 1626.39,1187.78 1629.11,1186.74 1631.83,1185.78 1634.56,1184.89 1637.28,1184.09 1640.01,1183.37 1642.73,1182.73 1645.45,1182.17 1648.18,1181.7 1650.9,1181.31 1653.63,1181.01 1656.35,1180.79 1659.07,1180.66 1661.8,1180.62 1664.52,1180.66 1667.25,1180.79 1669.97,1181 1672.69,1181.29 1675.42,1181.68 1678.14,1182.14 1680.87,1182.69 1683.59,1183.32 1686.31,1184.04 1689.04,1184.83 1691.76,1185.71 1694.49,1186.66 1697.21,1187.69 1699.93,1188.8 1702.66,1189.98 1705.38,1191.23 1708.11,1192.55 1710.83,1193.94 1713.56,1195.4 1716.28,1196.92 1719,1198.51 1721.73,1200.15 1724.45,1201.85 1727.18,1203.61 1729.9,1205.42 1732.62,1207.28 1735.35,1209.19 1738.07,1211.14 1740.8,1213.13 1743.52,1215.16 1746.24,1217.22 1748.97,1219.32 1751.69,1221.44 1754.42,1223.59 1757.14,1225.76 1759.86,1227.95 1762.59,1230.15 1765.31,1232.36 1768.04,1234.58 1770.76,1236.8 1773.48,1239.02 1776.21,1241.23 1778.93,1243.43 1781.66,1245.62 1784.38,1247.79 1787.1,1249.93 1789.83,1252.05 1792.55,1254.13 1795.28,1256.17 1798,1258.17 1800.73,1260.13 1803.45,1262.03 1806.17,1263.87 1808.9,1265.64 1811.62,1267.35 1814.35,1268.98 1817.07,1270.54 1819.79,1272 1822.52,1273.38 1825.24,1274.66 1827.97,1275.83 1830.69,1276.9 1833.41,1277.85 1836.14,1278.68 1838.86,1279.38 1841.59,1279.94 1844.31,1280.37 1847.03,1280.65 1849.76,1280.78 1852.48,1280.76 1855.21,1280.56 1857.93,1280.2 1860.65,1279.66 1863.38,1278.95 1866.1,1278.04 1868.83,1276.94 1871.55,1275.64 1874.27,1274.14 1877,1272.43 1879.72,1270.5 1882.45,1268.36 1885.17,1265.99 1887.9,1263.4 1890.62,1260.58 1893.34,1257.52 1896.07,1254.23 1898.79,1250.7 1901.52,1246.93 1904.24,1242.91 1906.96,1238.65 1909.69,1234.15 1912.41,1229.41 1915.14,1224.42 1917.86,1219.19 1920.58,1213.72 1923.31,1208.01 1926.03,1202.07 1928.76,1195.89 1931.48,1189.5 1934.2,1182.88 1936.93,1176.05 1939.65,1169.01 1942.38,1161.77 1945.1,1154.34 1947.82,1146.73 1950.55,1138.95 1953.27,1131.01 1956,1122.92 1958.72,1114.69 1961.44,1106.34 1964.17,1097.87 1966.89,1089.31 1969.62,1080.68 1972.34,1071.97 1975.07,1063.22 1977.79,1054.44 1980.51,1045.64 1983.24,1036.84 1985.96,1028.07 1988.69,1019.34 1991.41,1010.67 1994.13,1002.07 1996.86,993.575 1999.58,985.196 2002.31,976.954 2005.03,968.869 2007.75,960.959 2010.48,953.246 2013.2,945.747 2015.93,938.481 2018.65,931.468 2021.37,924.725 2024.1,918.27 2026.82,912.119 2029.55,906.29 2032.27,900.797 2034.99,895.656 2037.72,890.882 2040.44,886.487 2043.17,882.483 2045.89,878.883 2048.61,875.695 2051.34,872.931 2054.06,870.597 2056.79,868.7 2059.51,867.248 2062.23,866.243 2064.96,865.69 2067.68,865.591 2070.41,865.946 2073.13,866.756 2075.86,868.019 2078.58,869.732 2081.3,871.891 2084.03,874.492 2086.75,877.527 2089.48,880.989 2092.2,884.87 2094.92,889.159 2097.65,893.847 2100.37,898.922 2103.1,904.371 2105.82,910.181 2108.54,916.336 2111.27,922.824 2113.99,929.626 2116.72,936.728 2119.44,944.113 2122.16,951.762 2124.89,959.659 2127.61,967.784 2130.34,976.12 2133.06,984.648 2135.78,993.35 2138.51,1002.21 2141.23,1011.2 2143.96,1020.3 2146.68,1029.51 2149.4,1038.8 2152.13,1048.14 2154.85,1057.53 2157.58,1066.95 2160.3,1076.37 2163.03,1085.79 2165.75,1095.18 2168.47,1104.54 2171.2,1113.83 2173.92,1123.06 2176.65,1132.21 2179.37,1141.26 2182.09,1150.21 2184.82,1159.03 2187.54,1167.72 2190.27,1176.28 2192.99,1184.68 2195.71,1192.92 2198.44,1201 2201.16,1208.9 2203.89,1216.63 2206.61,1224.16 2209.33,1231.51 2212.06,1238.66 2214.78,1245.62 2217.51,1252.37 2220.23,1258.92 2222.95,1265.26 2225.68,1271.4 2228.4,1277.33 2231.13,1283.05 2233.85,1288.58 2236.57,1293.89 2239.3,1299 2242.02,1303.92 2244.75,1308.63 2247.47,1313.15 2250.2,1317.48 2252.92,1321.62 2255.64,1325.58 2258.37,1329.35 2261.09,1332.95 2263.82,1336.38 2266.54,1339.64 2269.26,1342.74 2271.99,1345.68 2274.71,1348.47 2277.44,1351.11 2280.16,1353.61 2282.88,1355.97 2285.61,1358.21 2288.33,1360.31 2291.06,1362.29 "/>
<polyline clip-path="url(#clip442)" style="stroke:#ba3d3a; stroke-linecap:round; stroke-linejoin:round; stroke-width:4; stroke-opacity:1; fill:none" stroke-dasharray="16, 10" points="234.391,1388.76 237.115,1388.76 239.839,1388.76 242.563,1388.76 245.287,1388.76 248.011,1388.76 250.735,1388.76 253.459,1388.76 256.183,1388.76 258.907,1388.76 261.631,1388.76 264.355,1388.76 267.079,1388.76 269.804,1388.76 272.528,1388.76 275.252,1388.76 277.976,1388.76 280.7,1388.76 283.424,1388.76 286.148,1388.76 288.872,1388.76 291.596,1388.76 294.32,1388.76 297.044,1388.76 299.768,1388.76 302.492,1388.76 305.216,1388.76 307.94,1388.76 310.664,1388.76 313.388,1388.76 316.113,1388.76 318.837,1388.76 321.561,1388.76 324.285,1388.76 327.009,1388.76 329.733,1388.76 332.457,1388.76 335.181,1388.76 337.905,1388.76 340.629,1388.76 343.353,1388.76 346.077,1388.76 348.801,1388.76 351.525,1388.76 354.249,1388.76 356.973,1388.76 359.698,1388.76 362.422,1388.76 365.146,1388.76 367.87,1388.76 370.594,1388.76 373.318,1388.76 376.042,1388.76 378.766,1388.76 381.49,1388.76 384.214,1388.76 386.938,1388.76 389.662,1388.76 392.386,1388.76 395.11,1388.76 397.834,1388.76 400.558,1388.76 403.282,1388.76 406.007,1388.76 408.731,1388.76 411.455,1388.76 414.179,1388.76 416.903,1388.76 419.627,1388.76 422.351,1388.76 425.075,1388.76 427.799,1388.76 430.523,1388.76 433.247,1388.76 435.971,1388.76 438.695,1388.76 441.419,1388.76 444.143,1388.76 446.867,1388.76 449.591,1388.76 452.316,1388.76 455.04,1388.76 457.764,1388.76 460.488,1388.76 463.212,1388.76 465.936,1388.76 468.66,1388.76 471.384,1388.76 474.108,1388.76 476.832,1388.76 479.556,1388.76 482.28,1388.76 485.004,1388.76 487.728,1388.76 490.452,1388.76 493.176,1388.76 495.901,1388.76 498.625,1388.76 501.349,1388.76 504.073,1388.76 506.797,1388.76 509.521,1388.76 512.245,1388.76 514.969,1388.76 517.693,1388.76 520.417,1388.76 523.141,1388.76 525.865,1388.76 528.589,1388.76 531.313,1388.76 534.037,1388.76 536.761,1388.76 539.485,1388.76 542.21,1388.76 544.934,1388.76 547.658,1388.76 550.382,1388.76 553.106,1388.76 555.83,1388.76 558.554,1388.76 561.278,1388.76 564.002,1388.76 566.726,1388.76 569.45,1388.76 572.174,1388.76 574.898,1388.76 577.622,1388.76 580.346,1388.76 583.07,1388.76 585.794,1388.76 588.519,1388.76 591.243,1388.76 593.967,1388.76 596.691,1388.76 599.415,1388.76 602.139,1388.76 604.863,1388.76 607.587,1388.76 610.311,1388.76 613.035,1388.76 615.759,1388.76 618.483,1388.76 621.207,1388.76 623.931,1388.76 626.655,1388.76 629.379,1388.76 632.104,1388.76 634.828,1388.76 637.552,1388.76 640.276,1388.76 643,1388.76 645.724,1388.76 648.448,1388.76 651.172,1388.76 653.896,1388.76 656.62,1388.76 659.344,1388.76 662.068,1388.76 664.792,1388.76 667.516,1388.76 670.24,1388.76 672.964,1388.76 675.688,1388.76 678.413,1388.76 681.137,1388.76 683.861,1388.76 686.585,1388.76 689.309,1388.76 692.033,1388.76 694.757,1388.76 697.481,1388.76 700.205,1388.76 702.929,1388.76 705.653,1388.76 708.377,1388.76 711.101,1388.76 713.825,1388.76 716.549,1388.76 719.273,1388.76 721.997,1388.76 724.722,1388.76 727.446,1388.76 730.17,1388.76 732.894,1388.76 735.618,1388.76 738.342,1388.76 741.066,1388.76 743.79,1388.76 746.514,1388.76 749.238,1388.76 751.962,1388.76 754.686,1388.76 757.41,1388.76 760.134,1388.76 762.858,1388.76 765.582,1388.76 768.306,1388.76 771.031,1388.76 773.755,1388.76 776.479,1388.76 779.203,1388.76 781.927,1388.76 784.651,1388.76 787.375,1388.76 790.099,1388.76 792.823,1388.76 795.547,1388.76 798.271,1388.76 800.995,1388.76 803.719,1388.76 806.443,1388.76 809.167,1388.76 811.891,1388.76 814.616,1388.76 817.34,1388.76 820.064,1388.76 822.788,1388.76 825.512,1388.76 828.236,1388.76 830.96,1388.76 833.684,1388.76 836.408,1388.76 839.132,1388.76 841.856,1388.76 844.58,1388.76 847.304,1388.76 850.028,1388.76 852.752,1388.76 855.476,1388.76 858.2,1388.76 860.925,1388.76 863.649,1388.76 866.373,1388.76 869.097,1388.76 871.821,1388.76 874.545,1388.76 877.269,1388.76 879.993,1388.76 882.717,1388.76 885.441,1388.76 888.165,1388.76 890.889,1388.76 893.613,1388.76 896.337,1388.76 899.061,1388.76 901.785,1388.76 904.509,1388.76 907.234,1388.76 909.958,1388.76 912.682,1388.76 915.406,1388.76 918.13,1388.76 920.854,1388.76 923.578,1388.76 926.302,1388.76 929.026,1388.76 931.75,1388.76 934.474,1388.76 937.198,1388.76 939.922,1388.76 942.646,1388.76 945.37,1388.76 948.094,1388.76 950.819,1388.76 953.543,1388.76 956.267,1388.76 958.991,1388.76 961.715,1388.76 964.439,1388.76 967.163,1388.76 969.887,1388.76 972.611,1388.76 975.335,1388.76 978.059,1388.76 980.783,1388.76 983.507,1388.76 986.231,1388.76 988.955,1388.76 991.679,1388.76 994.403,1388.76 997.128,1388.76 999.852,1388.76 1002.58,1388.76 1005.3,1388.76 1008.02,1388.76 1010.75,1388.76 1013.47,1388.76 1016.2,1388.76 1018.92,1388.76 1021.64,1388.76 1024.37,1388.76 1027.09,1388.76 1029.82,1388.76 1032.54,1388.76 1035.26,1388.76 1037.99,1388.76 1040.71,1388.76 1043.44,1388.76 1046.16,1388.76 1048.88,1388.76 1051.61,1388.76 1054.33,1388.76 1057.06,1388.76 1059.78,1388.76 1062.5,1388.76 1065.23,1388.76 1067.95,1388.76 1070.68,1388.76 1073.4,1388.76 1076.13,1388.76 1078.85,1388.76 1081.57,1388.76 1084.3,1388.76 1087.02,1388.76 1089.75,1388.76 1092.47,1388.76 1095.19,1388.76 1097.92,1388.76 1100.64,1388.76 1103.37,1388.76 1106.09,1388.76 1108.81,1388.76 1111.54,1388.76 1114.26,1388.76 1116.99,1388.76 1119.71,1388.76 1122.43,1388.76 1125.16,1388.76 1127.88,1388.76 1130.61,1388.76 1133.33,1388.76 1136.05,1388.76 1138.78,1388.76 1141.5,1388.76 1144.23,1388.76 1146.95,1388.76 1149.67,1388.76 1152.4,1388.76 1155.12,1388.76 1157.85,1388.76 1160.57,1388.76 1163.3,1388.76 1166.02,1388.76 1168.74,1388.76 1171.47,1388.76 1174.19,1388.76 1176.92,1388.76 1179.64,1388.76 1182.36,1388.76 1185.09,1388.76 1187.81,1388.76 1190.54,1388.76 1193.26,1388.76 1195.98,1388.76 1198.71,1388.76 1201.43,1388.76 1204.16,1388.76 1206.88,1388.76 1209.6,1388.76 1212.33,1388.76 1215.05,1388.76 1217.78,1388.76 1220.5,1388.76 1223.22,1388.76 1225.95,1388.76 1228.67,1388.76 1231.4,1388.76 1234.12,1388.76 1236.84,1388.76 1239.57,1388.76 1242.29,1388.76 1245.02,1388.76 1247.74,1388.76 1250.47,1388.76 1253.19,1388.76 1255.91,1388.76 1258.64,1388.76 1261.36,1388.76 1264.09,1388.76 1266.81,1388.76 1269.53,1388.76 1272.26,1388.76 1274.98,1388.76 1277.71,1388.76 1280.43,1388.76 1283.15,1388.76 1285.88,1388.76 1288.6,1388.76 1291.33,1388.76 1294.05,1388.76 1296.77,1388.76 1299.5,1388.76 1302.22,1388.76 1304.95,1388.76 1307.67,1388.76 1310.39,1388.76 1313.12,1388.76 1315.84,1388.76 1318.57,1388.76 1321.29,1388.76 1324.01,1388.76 1326.74,1388.76 1329.46,1388.76 1332.19,1388.76 1334.91,1388.76 1337.64,1388.76 1340.36,1388.76 1343.08,1388.76 1345.81,1388.76 1348.53,1388.76 1351.26,1388.76 1353.98,1388.76 1356.7,1388.76 1359.43,1388.76 1362.15,1388.76 1364.88,1388.76 1367.6,1388.76 1370.32,1388.76 1373.05,1388.76 1375.77,1388.76 1378.5,1388.76 1381.22,1388.76 1383.94,1388.76 1386.67,1388.76 1389.39,1388.76 1392.12,1388.76 1394.84,1388.76 1397.56,1388.76 1400.29,1388.76 1403.01,1388.76 1405.74,1388.76 1408.46,1388.76 1411.18,1388.76 1413.91,1388.76 1416.63,1388.76 1419.36,1388.76 1422.08,1388.76 1424.8,1388.76 1427.53,1388.76 1430.25,1388.76 1432.98,1388.76 1435.7,1388.76 1438.43,1388.76 1441.15,1388.76 1443.87,1388.76 1446.6,1388.76 1449.32,1388.76 1452.05,1388.76 1454.77,1388.76 1457.49,1388.76 1460.22,1388.76 1462.94,1388.76 1465.67,1388.76 1468.39,1388.76 1471.11,1388.76 1473.84,1388.76 1476.56,1388.76 1479.29,1388.76 1482.01,1388.76 1484.73,1388.76 1487.46,1388.76 1490.18,1388.76 1492.91,1388.76 1495.63,1388.76 1498.35,1388.76 1501.08,1388.76 1503.8,1388.76 1506.53,1388.76 1509.25,1388.76 1511.97,1388.76 1514.7,1388.76 1517.42,1388.76 1520.15,1388.76 1522.87,1388.76 1525.6,1388.76 1528.32,1388.76 1531.04,1388.76 1533.77,1388.76 1536.49,1388.76 1539.22,1388.76 1541.94,1388.76 1544.66,1388.76 1547.39,1388.76 1550.11,1388.76 1552.84,1388.76 1555.56,1388.76 1558.28,1388.76 1561.01,1388.76 1563.73,1388.76 1566.46,1388.76 1569.18,1388.76 1571.9,1388.76 1574.63,1388.76 1577.35,1388.76 1580.08,1388.76 1582.8,1388.76 1585.52,1388.76 1588.25,1388.76 1590.97,1388.76 1593.7,1388.76 1596.42,1388.76 1599.14,1388.76 1601.87,1388.76 1604.59,1388.76 1607.32,1388.76 1610.04,1388.76 1612.77,1388.76 1615.49,1388.76 1618.21,1388.76 1620.94,1388.76 1623.66,1388.76 1626.39,1388.76 1629.11,1388.76 1631.83,1388.76 1634.56,1388.76 1637.28,1388.76 1640.01,1388.76 1642.73,1388.76 1645.45,1388.76 1648.18,1388.76 1650.9,1388.76 1653.63,1388.76 1656.35,1388.76 1659.07,1388.76 1661.8,1388.76 1664.52,1388.76 1667.25,1388.76 1669.97,1388.76 1672.69,1388.76 1675.42,1388.76 1678.14,1388.76 1680.87,1388.76 1683.59,1388.76 1686.31,1388.76 1689.04,1388.76 1691.76,1388.76 1694.49,1388.76 1697.21,1388.76 1699.93,1388.76 1702.66,1388.76 1705.38,1388.76 1708.11,1388.76 1710.83,1388.76 1713.56,1388.76 1716.28,1388.76 1719,1388.76 1721.73,1388.76 1724.45,1388.76 1727.18,1388.76 1729.9,1388.76 1732.62,1388.76 1735.35,1388.76 1738.07,1388.76 1740.8,1388.76 1743.52,1388.76 1746.24,1388.76 1748.97,1388.76 1751.69,1388.76 1754.42,1388.76 1757.14,1388.76 1759.86,1388.76 1762.59,1388.76 1765.31,1388.76 1768.04,1388.76 1770.76,1388.76 1773.48,1388.76 1776.21,1388.76 1778.93,1388.76 1781.66,1388.76 1784.38,1388.76 1787.1,1388.76 1789.83,1388.76 1792.55,1388.76 1795.28,1388.76 1798,1388.76 1800.73,1388.76 1803.45,1388.76 1806.17,1388.76 1808.9,1388.76 1811.62,1388.76 1814.35,1388.76 1817.07,1388.76 1819.79,1388.76 1822.52,1388.76 1825.24,1388.76 1827.97,1388.76 1830.69,1388.76 1833.41,1388.76 1836.14,1388.76 1838.86,1388.76 1841.59,1388.76 1844.31,1388.76 1847.03,1388.76 1849.76,1388.76 1852.48,1388.76 1855.21,1388.76 1857.93,1388.76 1860.65,1388.76 1863.38,1388.76 1866.1,1388.76 1868.83,1388.76 1871.55,1388.76 1874.27,1388.76 1877,1388.76 1879.72,1388.76 1882.45,1388.76 1885.17,1388.76 1887.9,1388.76 1890.62,1388.76 1893.34,1388.76 1896.07,1388.76 1898.79,1388.76 1901.52,1388.76 1904.24,1388.76 1906.96,1388.76 1909.69,1388.76 1912.41,1388.76 1915.14,1388.76 1917.86,1388.76 1920.58,1388.76 1923.31,1388.76 1926.03,1388.76 1928.76,1388.76 1931.48,1388.76 1934.2,1388.76 1936.93,1388.76 1939.65,1388.76 1942.38,1388.76 1945.1,1388.76 1947.82,1388.76 1950.55,1388.76 1953.27,1388.76 1956,1388.76 1958.72,1388.76 1961.44,1388.76 1964.17,1388.76 1966.89,1388.76 1969.62,1388.76 1972.34,1388.76 1975.07,1388.76 1977.79,1388.76 1980.51,1388.76 1983.24,1388.76 1985.96,1388.76 1988.69,1388.76 1991.41,1388.76 1994.13,1388.76 1996.86,1388.76 1999.58,1388.76 2002.31,1388.76 2005.03,1388.76 2007.75,1388.76 2010.48,1388.76 2013.2,1388.76 2015.93,1388.76 2018.65,1388.76 2021.37,1388.76 2024.1,1388.76 2026.82,1388.76 2029.55,1388.76 2032.27,1388.76 2034.99,1388.76 2037.72,1388.76 2040.44,1388.76 2043.17,1388.76 2045.89,1388.76 2048.61,1388.76 2051.34,1388.76 2054.06,1388.76 2056.79,1388.76 2059.51,1388.76 2062.23,1388.76 2064.96,1388.76 2067.68,1388.76 2070.41,1388.76 2073.13,1388.76 2075.86,1388.76 2078.58,1388.76 2081.3,1388.76 2084.03,1388.76 2086.75,1388.76 2089.48,1388.76 2092.2,1388.76 2094.92,1388.76 2097.65,1388.76 2100.37,1388.76 2103.1,1388.76 2105.82,1388.76 2108.54,1388.76 2111.27,1388.76 2113.99,1388.76 2116.72,1388.76 2119.44,1388.76 2122.16,1388.76 2124.89,1388.76 2127.61,1388.76 2130.34,1388.76 2133.06,1388.76 2135.78,1388.76 2138.51,1388.76 2141.23,1388.76 2143.96,1388.76 2146.68,1388.76 2149.4,1388.76 2152.13,1388.76 2154.85,1388.76 2157.58,1388.76 2160.3,1388.76 2163.03,1388.76 2165.75,1388.76 2168.47,1388.76 2171.2,1388.76 2173.92,1388.76 2176.65,1388.76 2179.37,1388.76 2182.09,1388.76 2184.82,1388.76 2187.54,1388.76 2190.27,1388.76 2192.99,1388.76 2195.71,1388.76 2198.44,1388.76 2201.16,1388.76 2203.89,1388.76 2206.61,1388.76 2209.33,1388.76 2212.06,1388.76 2214.78,1388.76 2217.51,1388.76 2220.23,1388.76 2222.95,1388.76 2225.68,1388.76 2228.4,1388.76 2231.13,1388.76 2233.85,1388.76 2236.57,1388.76 2239.3,1388.76 2242.02,1388.76 2244.75,1388.76 2247.47,1388.76 2250.2,1388.76 2252.92,1388.76 2255.64,1388.76 2258.37,1388.76 2261.09,1388.76 2263.82,1388.76 2266.54,1388.76 2269.26,1388.76 2271.99,1388.76 2274.71,1388.76 2277.44,1388.76 2280.16,1388.76 2282.88,1388.76 2285.61,1388.76 2288.33,1388.76 2291.06,1388.76 "/>
<circle clip-path="url(#clip442)" cx="667.516" cy="243.548" r="7.2" fill="#ff0000" fill-rule="evenodd" fill-opacity="1" stroke="#000000" stroke-opacity="1" stroke-width="3.2"/>
<circle clip-path="url(#clip442)" cx="850.028" cy="595.423" r="7.2" fill="#ff0000" fill-rule="evenodd" fill-opacity="1" stroke="#000000" stroke-opacity="1" stroke-width="3.2"/>
<circle clip-path="url(#clip442)" cx="2067.68" cy="867.661" r="7.2" fill="#ff0000" fill-rule="evenodd" fill-opacity="1" stroke="#000000" stroke-opacity="1" stroke-width="3.2"/>
<circle clip-path="url(#clip442)" cx="1087.02" cy="892.953" r="7.2" fill="#ff0000" fill-rule="evenodd" fill-opacity="1" stroke="#000000" stroke-opacity="1" stroke-width="3.2"/>
<circle clip-path="url(#clip442)" cx="2282.88" cy="1102.97" r="7.2" fill="#ff0000" fill-rule="evenodd" fill-opacity="1" stroke="#000000" stroke-opacity="1" stroke-width="3.2"/>
<circle clip-path="url(#clip442)" cx="1661.8" cy="1180.66" r="7.2" fill="#ff0000" fill-rule="evenodd" fill-opacity="1" stroke="#000000" stroke-opacity="1" stroke-width="3.2"/>
<path clip-path="url(#clip440)" d="M528.512 161.312 L1996.93 161.312 L1996.93 47.2441 L528.512 47.2441  Z" fill="#ffffff" fill-rule="evenodd" fill-opacity="1"/>
<polyline clip-path="url(#clip440)" style="stroke:#000000; stroke-linecap:round; stroke-linejoin:round; stroke-width:4; stroke-opacity:1; fill:none" points="528.512,161.312 1996.93,161.312 1996.93,47.2441 528.512,47.2441 528.512,161.312 "/>
<polyline clip-path="url(#clip440)" style="stroke:#4a7945; stroke-linecap:round; stroke-linejoin:round; stroke-width:8; stroke-opacity:1; fill:none" points="552.735,104.278 698.072,104.278 "/>
<path clip-path="url(#clip440)" d="M746.959 104.523 Q746.35 107.545 745.53 109.278 Q744.195 111.925 741.97 111.925 Q740.424 111.925 739.253 111.058 Q738.106 110.168 737.707 108.692 Q737.262 109.278 736.864 109.676 Q736.489 110.074 735.763 110.683 Q735.037 111.269 734.053 111.597 Q733.093 111.925 731.992 111.925 Q731.149 111.925 730.376 111.761 Q729.603 111.62 728.783 111.222 Q727.987 110.8 727.402 110.168 Q726.839 109.536 726.465 108.505 Q726.09 107.474 726.09 106.163 Q726.09 104.523 726.722 102.298 Q727.378 100.073 728.877 96.0911 Q729.697 93.9831 729.697 92.812 Q729.697 92.2733 729.58 91.9219 Q729.463 91.5706 729.228 91.4535 Q729.018 91.3129 728.877 91.2895 Q728.737 91.2427 728.502 91.2427 Q727.05 91.2427 725.785 92.7183 Q724.521 94.1939 723.654 97.192 Q723.467 97.7775 723.349 97.9181 Q723.232 98.0586 722.881 98.0586 Q722.295 98.0352 722.295 97.5667 Q722.295 97.3793 722.506 96.6533 Q722.717 95.9037 723.209 94.8029 Q723.724 93.6786 724.427 92.6714 Q725.13 91.6408 726.23 90.9148 Q727.355 90.1887 728.643 90.1887 Q730.4 90.1887 731.477 91.3364 Q732.578 92.4606 732.578 94.1236 Q732.578 95.1542 731.758 97.1451 Q729.158 104.055 729.158 106.936 Q729.158 110.847 732.133 110.847 Q733.117 110.847 734.03 110.449 Q734.967 110.051 735.576 109.489 Q736.185 108.927 736.653 108.318 Q737.145 107.709 737.356 107.31 Q737.59 106.912 737.614 106.819 L741.197 92.3904 Q741.338 91.8282 741.596 91.4535 Q741.877 91.0553 742.205 90.9148 Q742.532 90.7742 742.72 90.7508 Q742.907 90.704 743.071 90.704 Q743.657 90.704 744.055 91.0553 Q744.476 91.4066 744.476 92.0156 Q744.476 92.1327 744.336 92.6949 Q744.219 93.2336 744.031 94.0299 Q743.844 94.8029 743.75 95.2245 Q743.001 98.1757 742.931 98.4802 L741.596 103.657 Q741.525 103.961 741.291 104.945 Q741.08 105.929 740.963 106.444 Q740.846 106.936 740.729 107.615 Q740.635 108.271 740.635 108.646 Q740.635 109.817 740.987 110.332 Q741.338 110.847 742.111 110.847 Q742.837 110.847 743.399 110.355 Q743.985 109.84 744.43 108.856 Q744.875 107.849 745.132 107.029 Q745.39 106.21 745.718 104.921 Q745.835 104.359 745.929 104.219 Q746.046 104.055 746.374 104.055 Q746.959 104.055 746.959 104.523 Z" fill="#000000" fill-rule="nonzero" fill-opacity="1" /><path clip-path="url(#clip440)" d="M768.577 104.617 Q768.577 105.519 768.003 106.076 Q767.446 106.634 766.741 106.634 Q766.233 106.634 765.856 106.322 Q765.495 106.011 765.495 105.47 Q765.495 104.912 765.921 104.322 Q766.348 103.732 767.315 103.65 Q766.675 103.043 765.659 103.043 Q765.151 103.043 764.724 103.371 Q764.314 103.682 764.085 104.191 Q763.839 104.715 763.282 107.683 Q763.101 108.65 762.937 109.585 Q762.773 110.52 762.576 111.503 L765.364 111.503 Q765.724 111.503 765.872 111.52 Q766.02 111.536 766.134 111.618 Q766.266 111.7 766.266 111.88 Q766.266 112.339 766.052 112.454 Q765.856 112.553 765.265 112.553 L762.38 112.553 L760.363 123.193 Q760.314 123.505 760.101 124.489 Q759.904 125.456 759.429 127.046 Q758.953 128.653 758.478 129.604 Q758.215 130.145 757.871 130.653 Q757.543 131.178 757.068 131.703 Q756.592 132.227 755.969 132.539 Q755.346 132.867 754.69 132.867 Q753.575 132.867 752.706 132.244 Q751.837 131.621 751.837 130.555 Q751.837 129.653 752.395 129.096 Q752.969 128.538 753.674 128.538 Q754.182 128.538 754.543 128.85 Q754.92 129.161 754.92 129.702 Q754.92 129.932 754.838 130.194 Q754.756 130.457 754.575 130.752 Q754.395 131.063 754.002 131.276 Q753.608 131.49 753.067 131.522 Q753.706 132.129 754.69 132.129 Q755.002 132.129 755.28 131.998 Q755.559 131.883 755.789 131.588 Q756.035 131.293 756.215 130.998 Q756.395 130.719 756.576 130.178 Q756.756 129.653 756.871 129.26 Q756.986 128.866 757.133 128.161 Q757.297 127.456 757.379 127.03 Q757.461 126.62 757.609 125.817 L760.117 112.553 L757.904 112.553 Q757.51 112.553 757.346 112.536 Q757.199 112.52 757.084 112.438 Q756.969 112.339 756.969 112.143 Q756.969 111.831 757.1 111.7 Q757.248 111.552 757.412 111.536 Q757.576 111.503 757.969 111.503 L760.297 111.503 Q761.084 107.355 761.396 106.24 Q761.757 105.06 762.314 104.24 Q762.872 103.404 763.495 103.01 Q764.118 102.617 764.626 102.469 Q765.151 102.305 765.659 102.305 Q766.807 102.305 767.692 102.928 Q768.577 103.535 768.577 104.617 Z" fill="#000000" fill-rule="nonzero" fill-opacity="1" /><path clip-path="url(#clip440)" d="M778.366 103.043 L773.529 122.456 Q773.332 123.226 773.332 124.062 Q773.332 125.604 774.349 125.604 Q774.824 125.604 775.218 125.292 Q775.611 124.964 775.907 124.325 Q776.218 123.669 776.415 123.046 Q776.628 122.423 776.89 121.455 Q776.972 121.078 777.054 120.964 Q777.136 120.849 777.366 120.849 Q777.776 120.849 777.776 121.177 Q777.366 123.193 776.759 124.472 Q775.874 126.358 774.234 126.358 Q773.004 126.358 772.086 125.505 Q771.185 124.636 771.185 123.259 Q771.185 122.734 771.349 122.111 L775.579 105.322 L775.693 104.666 Q775.693 104.486 775.628 104.388 Q775.562 104.289 775.169 104.191 Q774.792 104.092 774.037 104.092 Q773.726 104.092 773.578 104.076 Q773.447 104.06 773.316 103.978 Q773.201 103.896 773.201 103.715 Q773.201 103.42 773.316 103.256 Q773.447 103.092 773.546 103.059 Q773.644 103.027 773.841 103.01 Q774.119 102.994 775.054 102.912 Q775.989 102.814 776.792 102.748 Q777.595 102.682 777.94 102.682 Q778.136 102.682 778.235 102.781 Q778.349 102.863 778.366 102.961 L778.366 103.043 Z" fill="#000000" fill-rule="nonzero" fill-opacity="1" /><path clip-path="url(#clip440)" d="M791.132 111.88 Q791.132 112.339 790.919 112.454 Q790.706 112.553 790.116 112.553 L786.968 112.553 L784.476 122.456 Q784.279 123.325 784.279 124.062 Q784.279 124.882 784.525 125.243 Q784.787 125.604 785.328 125.604 Q786.394 125.604 787.542 124.636 Q788.706 123.669 789.689 121.308 Q789.821 120.996 789.886 120.931 Q789.968 120.849 790.181 120.849 Q790.591 120.849 790.591 121.177 Q790.591 121.291 790.362 121.816 Q790.148 122.341 789.673 123.111 Q789.214 123.882 788.607 124.603 Q788.017 125.325 787.115 125.849 Q786.214 126.358 785.246 126.358 Q783.885 126.358 783.016 125.489 Q782.164 124.62 782.164 123.259 Q782.164 122.816 782.508 121.406 Q782.852 119.98 784.722 112.553 L781.754 112.553 Q781.344 112.553 781.18 112.536 Q781.032 112.52 780.918 112.438 Q780.819 112.339 780.819 112.143 Q780.819 111.831 780.95 111.7 Q781.082 111.552 781.246 111.536 Q781.426 111.503 781.836 111.503 L784.984 111.503 L786.295 106.175 Q786.427 105.65 786.755 105.355 Q787.099 105.043 787.296 105.011 Q787.492 104.961 787.64 104.961 Q788.083 104.961 788.345 105.207 Q788.607 105.437 788.607 105.863 Q788.607 106.093 787.23 111.503 L790.181 111.503 Q790.558 111.503 790.706 111.52 Q790.87 111.536 791.001 111.618 Q791.132 111.7 791.132 111.88 Z" fill="#000000" fill-rule="nonzero" fill-opacity="1" /><path clip-path="url(#clip440)" d="M797.937 99.3937 Q797.937 91.2895 800.959 84.7546 Q802.247 82.0142 804.051 79.7188 Q805.854 77.4234 807.049 76.4163 Q808.243 75.4091 808.571 75.4091 Q809.039 75.4091 809.063 75.8775 Q809.063 76.1118 808.431 76.6973 Q800.701 84.5673 800.725 99.3937 Q800.725 114.267 808.243 121.832 Q809.063 122.652 809.063 122.91 Q809.063 123.378 808.571 123.378 Q808.243 123.378 807.095 122.418 Q805.948 121.458 804.168 119.256 Q802.388 117.054 801.099 114.361 Q797.937 107.826 797.937 99.3937 Z" fill="#000000" fill-rule="nonzero" fill-opacity="1" /><path clip-path="url(#clip440)" d="M827.437 91.2427 Q827.437 91.8985 827.133 92.0625 Q826.829 92.203 825.985 92.203 L821.488 92.203 L817.928 106.35 Q817.647 107.592 817.647 108.646 Q817.647 109.817 817.998 110.332 Q818.373 110.847 819.146 110.847 Q820.668 110.847 822.308 109.465 Q823.971 108.083 825.376 104.711 Q825.564 104.266 825.657 104.172 Q825.774 104.055 826.079 104.055 Q826.665 104.055 826.665 104.523 Q826.665 104.687 826.337 105.437 Q826.032 106.186 825.353 107.287 Q824.697 108.388 823.83 109.418 Q822.987 110.449 821.699 111.199 Q820.411 111.925 819.029 111.925 Q817.085 111.925 815.843 110.683 Q814.625 109.442 814.625 107.498 Q814.625 106.865 815.117 104.851 Q815.609 102.813 818.279 92.203 L814.04 92.203 Q813.454 92.203 813.22 92.1796 Q813.009 92.1561 812.845 92.039 Q812.705 91.8985 812.705 91.6174 Q812.705 91.1724 812.892 90.985 Q813.08 90.7742 813.314 90.7508 Q813.571 90.704 814.157 90.704 L818.654 90.704 L820.528 83.0917 Q820.715 82.3421 821.184 81.9205 Q821.676 81.4755 821.957 81.4287 Q822.238 81.3584 822.449 81.3584 Q823.081 81.3584 823.456 81.7097 Q823.83 82.0376 823.83 82.6466 Q823.83 82.9745 821.863 90.704 L826.079 90.704 Q826.618 90.704 826.829 90.7274 Q827.063 90.7508 827.25 90.8679 Q827.437 90.985 827.437 91.2427 Z" fill="#000000" fill-rule="nonzero" fill-opacity="1" /><path clip-path="url(#clip440)" d="M831.189 122.91 Q831.189 122.676 831.798 122.09 Q839.527 114.22 839.527 99.3937 Q839.527 84.5204 832.102 77.0018 Q831.189 76.1352 831.189 75.8775 Q831.189 75.4091 831.657 75.4091 Q831.985 75.4091 833.133 76.3694 Q834.304 77.3297 836.061 79.5314 Q837.841 81.7332 839.152 84.4267 Q842.314 90.9616 842.314 99.3937 Q842.314 107.498 839.293 114.033 Q838.005 116.773 836.201 119.069 Q834.398 121.364 833.203 122.371 Q832.008 123.378 831.657 123.378 Q831.189 123.378 831.189 122.91 Z" fill="#000000" fill-rule="nonzero" fill-opacity="1" /><polyline clip-path="url(#clip440)" style="stroke:#dfba53; stroke-linecap:round; stroke-linejoin:round; stroke-width:8; stroke-opacity:1; fill:none" points="913.785,104.278 1059.12,104.278 "/>
<path clip-path="url(#clip440)" d="M1117.4 82.8227 L1114.38 95.0492 Q1114.17 95.8222 1114.03 95.9159 Q1113.91 96.0095 1113.54 96.0095 Q1112.81 96.0095 1112.81 95.5177 Q1112.81 95.4708 1112.88 94.8618 Q1112.95 94.2294 1112.95 93.0817 Q1112.95 88.8423 1110.89 86.3361 Q1108.85 83.8299 1105.22 83.8299 Q1101.83 83.8299 1098.57 85.61 Q1095.31 87.3901 1093.23 90.0134 Q1091.47 92.1683 1090.26 94.7916 Q1089.06 97.4149 1088.57 99.7103 Q1088.08 101.982 1087.89 103.364 Q1087.73 104.746 1087.73 105.636 Q1087.73 108.259 1088.57 110.297 Q1089.41 112.312 1090.82 113.459 Q1092.25 114.607 1093.89 115.169 Q1095.55 115.731 1097.35 115.731 Q1098.03 115.731 1098.85 115.638 Q1099.67 115.544 1100.94 115.193 Q1102.22 114.841 1103.28 114.256 Q1104.36 113.67 1105.29 112.546 Q1106.25 111.422 1106.63 109.922 Q1107.63 106.105 1107.63 105.542 Q1107.63 105.074 1107.35 104.91 Q1107.07 104.746 1106.14 104.629 L1103.61 104.535 Q1103.56 104.535 1103.49 104.535 Q1103.04 104.535 1102.86 104.535 Q1102.67 104.512 1102.46 104.465 Q1102.27 104.418 1102.2 104.325 Q1102.15 104.207 1102.15 104.02 Q1102.15 103.575 1102.34 103.364 Q1102.53 103.13 1102.69 103.107 Q1102.86 103.06 1103.16 103.06 L1109.88 103.2 Q1110.42 103.2 1112.39 103.13 Q1114.36 103.06 1114.92 103.06 Q1115.55 103.06 1115.55 103.575 Q1115.55 104.535 1114.78 104.535 Q1114.01 104.559 1113.61 104.582 Q1113.21 104.582 1112.81 104.699 Q1112.44 104.816 1112.3 104.91 Q1112.16 104.98 1111.97 105.332 Q1111.78 105.66 1111.71 105.941 Q1111.64 106.198 1111.48 106.854 Q1111.38 107.276 1111.15 108.072 Q1110.94 108.868 1110.84 109.29 L1109.93 112.991 Q1109.3 115.731 1109.11 115.919 Q1109.02 116.106 1108.78 116.106 Q1108.43 116.106 1107.68 115.075 Q1106.96 114.045 1106.63 113.131 Q1106.04 113.764 1105.67 114.139 Q1105.29 114.49 1104.43 115.052 Q1103.58 115.614 1102.46 116.059 Q1099.72 117.207 1096.46 117.207 Q1090.65 117.207 1087 113.53 Q1083.35 109.829 1083.35 104.067 Q1083.35 99.9914 1085.22 95.9861 Q1087.09 91.9809 1090.07 89.0062 Q1093.04 86.0316 1096.98 84.1812 Q1100.91 82.3308 1104.85 82.3308 Q1106.35 82.3308 1107.68 82.729 Q1109.02 83.1272 1109.81 83.6191 Q1110.63 84.1109 1111.36 84.837 Q1112.08 85.5397 1112.32 85.8676 Q1112.58 86.1955 1112.81 86.5937 L1116.16 82.9164 Q1116.75 82.3308 1116.89 82.3308 Q1117.17 82.3308 1117.28 82.4948 Q1117.4 82.6587 1117.4 82.8227 Z" fill="#000000" fill-rule="nonzero" fill-opacity="1" /><path clip-path="url(#clip440)" d="M1123.16 104.161 Q1123.16 96.0564 1126.18 89.5215 Q1127.47 86.7811 1129.27 84.4857 Q1131.08 82.1903 1132.27 81.1831 Q1133.47 80.176 1133.79 80.176 Q1134.26 80.176 1134.29 80.6444 Q1134.29 80.8786 1133.65 81.4642 Q1125.92 89.3341 1125.95 104.161 Q1125.95 119.034 1133.47 126.599 Q1134.29 127.419 1134.29 127.677 Q1134.29 128.145 1133.79 128.145 Q1133.47 128.145 1132.32 127.185 Q1131.17 126.224 1129.39 124.023 Q1127.61 121.821 1126.32 119.127 Q1123.16 112.593 1123.16 104.161 Z" fill="#000000" fill-rule="nonzero" fill-opacity="1" /><path clip-path="url(#clip440)" d="M1152.66 96.0095 Q1152.66 96.6654 1152.36 96.8293 Q1152.05 96.9699 1151.21 96.9699 L1146.71 96.9699 L1143.15 111.117 Q1142.87 112.358 1142.87 113.412 Q1142.87 114.584 1143.22 115.099 Q1143.6 115.614 1144.37 115.614 Q1145.89 115.614 1147.53 114.232 Q1149.19 112.85 1150.6 109.477 Q1150.79 109.032 1150.88 108.939 Q1151 108.822 1151.3 108.822 Q1151.89 108.822 1151.89 109.29 Q1151.89 109.454 1151.56 110.204 Q1151.25 110.953 1150.58 112.054 Q1149.92 113.155 1149.05 114.185 Q1148.21 115.216 1146.92 115.965 Q1145.63 116.692 1144.25 116.692 Q1142.31 116.692 1141.07 115.45 Q1139.85 114.209 1139.85 112.265 Q1139.85 111.632 1140.34 109.618 Q1140.83 107.58 1143.5 96.9699 L1139.26 96.9699 Q1138.68 96.9699 1138.44 96.9464 Q1138.23 96.923 1138.07 96.8059 Q1137.93 96.6654 1137.93 96.3843 Q1137.93 95.9393 1138.11 95.7519 Q1138.3 95.5411 1138.54 95.5177 Q1138.79 95.4708 1139.38 95.4708 L1143.88 95.4708 L1145.75 87.8585 Q1145.94 87.109 1146.41 86.6874 Q1146.9 86.2424 1147.18 86.1955 Q1147.46 86.1253 1147.67 86.1253 Q1148.3 86.1253 1148.68 86.4766 Q1149.05 86.8045 1149.05 87.4135 Q1149.05 87.7414 1147.09 95.4708 L1151.3 95.4708 Q1151.84 95.4708 1152.05 95.4942 Q1152.29 95.5177 1152.47 95.6348 Q1152.66 95.7519 1152.66 96.0095 Z" fill="#000000" fill-rule="nonzero" fill-opacity="1" /><path clip-path="url(#clip440)" d="M1156.41 127.677 Q1156.41 127.442 1157.02 126.857 Q1164.75 118.987 1164.75 104.161 Q1164.75 89.2873 1157.32 81.7687 Q1156.41 80.9021 1156.41 80.6444 Q1156.41 80.176 1156.88 80.176 Q1157.21 80.176 1158.36 81.1363 Q1159.53 82.0966 1161.28 84.2983 Q1163.06 86.5 1164.37 89.1936 Q1167.54 95.7285 1167.54 104.161 Q1167.54 112.265 1164.52 118.8 Q1163.23 121.54 1161.42 123.835 Q1159.62 126.131 1158.43 127.138 Q1157.23 128.145 1156.88 128.145 Q1156.41 128.145 1156.41 127.677 Z" fill="#000000" fill-rule="nonzero" fill-opacity="1" /><polyline clip-path="url(#clip440)" style="stroke:#ba3d3a; stroke-linecap:round; stroke-linejoin:round; stroke-width:4; stroke-opacity:1; fill:none" stroke-dasharray="16, 10" points="1274.83,104.278 1420.17,104.278 "/>
<path clip-path="url(#clip440)" d="M1444.4 105.377 Q1444.4 97.9414 1446.27 93.8901 Q1448.89 87.8625 1455.07 87.8625 Q1456.38 87.8625 1457.74 88.233 Q1459.12 88.5789 1460.85 89.9375 Q1462.6 91.2962 1463.66 93.5195 Q1465.69 97.8179 1465.69 105.377 Q1465.69 112.763 1463.81 116.79 Q1461.07 122.669 1455.02 122.669 Q1452.75 122.669 1450.42 121.508 Q1448.13 120.347 1446.67 117.556 Q1444.4 113.381 1444.4 105.377 M1448.6 104.76 Q1448.6 112.393 1449.14 115.431 Q1449.76 118.717 1451.44 120.15 Q1453.14 121.558 1455.02 121.558 Q1457.04 121.558 1458.72 120.051 Q1460.43 118.519 1460.95 115.234 Q1461.51 111.998 1461.49 104.76 Q1461.49 97.7191 1461 94.9029 Q1460.33 91.6174 1458.55 90.3081 Q1456.8 88.9741 1455.02 88.9741 Q1454.35 88.9741 1453.63 89.1717 Q1452.94 89.3694 1451.93 89.9375 Q1450.92 90.5057 1450.13 91.9138 Q1449.36 93.3219 1448.99 95.4464 Q1448.6 98.1885 1448.6 104.76 Z" fill="#000000" fill-rule="nonzero" fill-opacity="1" /><path clip-path="url(#clip440)" d="M1486.22 120.891 L1486.22 114.221 Q1486.22 113.653 1486.24 113.455 Q1486.27 113.258 1486.42 113.109 Q1486.56 112.961 1486.86 112.961 Q1487.21 112.961 1487.33 113.109 Q1487.48 113.258 1487.58 113.826 Q1488.34 117.309 1489.97 119.162 Q1491.63 120.99 1494.62 120.99 Q1497.46 120.99 1498.89 119.73 Q1500.32 118.47 1500.32 116.395 Q1500.32 112.689 1495.06 111.751 Q1492.02 111.133 1490.76 110.738 Q1489.5 110.318 1488.39 109.404 Q1486.22 107.625 1486.22 105.105 Q1486.22 102.586 1488.12 100.733 Q1490.05 98.8802 1494.3 98.8802 Q1497.14 98.8802 1499.06 100.313 Q1499.63 99.8683 1499.93 99.4977 Q1500.6 98.8802 1500.94 98.8802 Q1501.34 98.8802 1501.41 99.1519 Q1501.48 99.3989 1501.48 100.115 L1501.48 105.204 Q1501.48 105.772 1501.46 105.97 Q1501.44 106.168 1501.29 106.316 Q1501.14 106.439 1500.82 106.439 Q1500.25 106.439 1500.23 105.97 Q1499.83 99.8436 1494.3 99.8436 Q1491.31 99.8436 1489.97 101.005 Q1488.64 102.141 1488.64 103.697 Q1488.64 104.562 1489.03 105.229 Q1489.45 105.871 1489.97 106.266 Q1490.52 106.637 1491.5 107.008 Q1492.49 107.353 1493.09 107.477 Q1493.7 107.6 1494.86 107.847 Q1498.92 108.613 1500.62 110.268 Q1502.74 112.393 1502.74 115.086 Q1502.74 118.075 1500.72 120.1 Q1498.69 122.126 1494.62 122.126 Q1491.33 122.126 1489.03 119.927 Q1488.74 120.224 1488.52 120.496 Q1488.29 120.743 1488.19 120.841 Q1488.12 120.94 1488.1 121.014 Q1488.07 121.064 1488.02 121.113 Q1487.01 122.126 1486.76 122.126 Q1486.37 122.126 1486.29 121.854 Q1486.22 121.607 1486.22 120.891 Z" fill="#000000" fill-rule="nonzero" fill-opacity="1" /><path clip-path="url(#clip440)" d="M1505.41 101.326 L1505.41 100.214 Q1507.73 100.115 1509.27 98.4849 Q1510.82 96.8298 1511.34 94.8041 Q1511.89 92.7784 1511.93 90.4316 L1513.19 90.4316 L1513.19 99.7448 L1520.43 99.7448 L1520.43 101.326 L1513.19 101.326 L1513.19 115.382 Q1513.19 120.841 1516.6 120.841 Q1518.06 120.841 1519.02 119.359 Q1519.99 117.852 1519.99 115.184 L1519.99 112.393 L1521.25 112.393 L1521.25 115.283 Q1521.25 118.025 1519.99 120.076 Q1518.73 122.126 1516.23 122.126 Q1515.32 122.126 1514.4 121.879 Q1513.52 121.657 1512.33 121.064 Q1511.17 120.446 1510.43 118.964 Q1509.71 117.457 1509.71 115.283 L1509.71 101.326 L1505.41 101.326 Z" fill="#000000" fill-rule="nonzero" fill-opacity="1" /><path clip-path="url(#clip440)" d="M1525.79 110.688 Q1525.79 105.871 1529.15 102.536 Q1532.51 99.2013 1537.06 99.2013 Q1540.91 99.2013 1543.43 102.339 L1543.43 91.395 Q1543.43 89.5176 1542.76 89.0482 Q1542.12 88.5789 1539.5 88.5789 L1539.5 86.9978 L1546.79 86.4544 L1546.79 117.161 Q1546.79 119.038 1547.43 119.532 Q1548.1 120.002 1550.72 120.002 L1550.72 121.558 L1543.28 122.126 L1543.28 118.766 Q1540.66 122.101 1536.51 122.126 Q1532.17 122.126 1528.98 118.791 Q1525.79 115.456 1525.79 110.688 M1529.99 110.738 Q1529.99 115.431 1531.45 117.754 Q1533.48 120.99 1536.76 120.99 Q1540.52 120.99 1542.74 117.457 Q1543.31 116.592 1543.28 115.58 L1543.28 105.204 Q1543.28 104.191 1542.74 103.351 Q1540.66 100.313 1537.28 100.313 Q1533.75 100.313 1531.55 103.549 Q1529.99 105.97 1529.99 110.738 Z" fill="#000000" fill-rule="nonzero" fill-opacity="1" /><path clip-path="url(#clip440)" d="M1557.14 108.91 Q1557.14 100.362 1560.33 93.4701 Q1561.69 90.5798 1563.59 88.1589 Q1565.49 85.738 1566.75 84.6757 Q1568.01 83.6135 1568.36 83.6135 Q1568.85 83.6135 1568.88 84.1076 Q1568.88 84.3546 1568.21 84.9722 Q1560.06 93.2725 1560.08 108.91 Q1560.08 124.596 1568.01 132.576 Q1568.88 133.44 1568.88 133.712 Q1568.88 134.206 1568.36 134.206 Q1568.01 134.206 1566.8 133.193 Q1565.59 132.18 1563.71 129.858 Q1561.84 127.536 1560.48 124.695 Q1557.14 117.803 1557.14 108.91 Z" fill="#000000" fill-rule="nonzero" fill-opacity="1" /><path clip-path="url(#clip440)" d="M1573.57 101.375 Q1573.57 100.264 1574.43 99.473 Q1575.32 98.6825 1576.39 98.6825 Q1577.1 98.6825 1577.67 99.0037 Q1578.26 99.3001 1578.63 99.893 Q1579.03 100.461 1579.28 101.054 Q1579.52 101.622 1579.7 102.487 Q1579.89 103.351 1579.97 103.87 Q1580.04 104.364 1580.12 105.13 Q1580.19 105.871 1580.19 106.019 Q1580.49 104.957 1580.96 103.895 Q1581.45 102.833 1582.31 101.548 Q1583.18 100.264 1584.49 99.4483 Q1585.8 98.6331 1587.33 98.6331 Q1590.17 98.6331 1592.52 101.77 Q1594.86 104.908 1594.86 111.429 L1594.86 133.094 Q1594.86 134.008 1594.47 134.527 Q1594.1 135.071 1593.75 135.194 Q1593.41 135.318 1592.99 135.318 Q1592.27 135.318 1591.65 134.799 Q1591.06 134.305 1591.06 133.094 Q1591.06 129.512 1592.32 122.003 Q1593.6 114.517 1593.6 110.837 Q1593.6 105.525 1591.06 103.351 Q1589.8 102.24 1588.39 102.24 Q1587.13 102.24 1586.12 103.228 Q1585.11 104.216 1584.41 105.698 Q1583.72 107.18 1583.08 109.7 Q1582.46 112.195 1582.07 114.443 Q1581.7 116.691 1581.25 120.002 Q1581.01 122.62 1579.18 122.62 Q1578.51 122.62 1577.92 122.175 Q1577.35 121.755 1577.35 120.891 Q1577.35 119.631 1578.14 114.913 Q1578.93 110.17 1578.93 109.774 Q1578.93 105.525 1578.39 104.018 Q1577.87 102.487 1576.76 101.968 Q1576.19 103.03 1575.22 103.03 Q1574.51 103.03 1574.04 102.561 Q1573.57 102.092 1573.57 101.375 Z" fill="#000000" fill-rule="nonzero" fill-opacity="1" /><path clip-path="url(#clip440)" d="M1599.93 133.712 Q1599.93 133.465 1600.57 132.847 Q1608.72 124.547 1608.72 108.91 Q1608.72 93.2231 1600.89 85.2933 Q1599.93 84.3793 1599.93 84.1076 Q1599.93 83.6135 1600.42 83.6135 Q1600.77 83.6135 1601.98 84.6263 Q1603.21 85.6392 1605.07 87.9613 Q1606.94 90.2834 1608.33 93.1243 Q1611.66 100.017 1611.66 108.91 Q1611.66 117.457 1608.48 124.349 Q1607.12 127.24 1605.21 129.661 Q1603.31 132.081 1602.05 133.144 Q1600.79 134.206 1600.42 134.206 Q1599.93 134.206 1599.93 133.712 Z" fill="#000000" fill-rule="nonzero" fill-opacity="1" /><circle clip-path="url(#clip440)" cx="1708.55" cy="104.278" r="18.432" fill="#ff0000" fill-rule="evenodd" fill-opacity="1" stroke="#000000" stroke-opacity="1" stroke-width="8.192"/>
<path clip-path="url(#clip440)" d="M1805.45 121.558 L1805.45 120.002 L1806.66 120.002 Q1809.4 120.002 1810.02 119.557 Q1810.66 119.088 1810.66 117.605 L1810.66 90.9504 Q1810.66 89.4929 1810.02 89.0482 Q1809.37 88.5789 1806.66 88.5789 L1805.45 88.5789 L1805.45 86.9978 L1823.31 86.9978 Q1828.42 86.9978 1831.83 89.814 Q1835.24 92.6302 1835.24 96.4098 Q1835.24 100.165 1831.75 102.882 Q1828.3 105.575 1823.7 105.575 L1815.15 105.575 L1815.15 117.605 Q1815.15 119.063 1815.77 119.532 Q1816.41 120.002 1819.16 120.002 L1820.37 120.002 L1820.37 121.558 Q1818.59 121.41 1812.88 121.41 Q1807.22 121.41 1805.45 121.558 M1815.01 104.265 L1821.97 104.265 Q1824.24 104.265 1825.9 103.623 Q1827.55 102.981 1828.3 102.215 Q1829.06 101.425 1829.48 100.165 Q1829.93 98.8802 1829.98 98.1885 Q1830.03 97.4721 1830.03 96.4098 Q1830.03 95.2982 1829.98 94.6065 Q1829.93 93.8901 1829.48 92.6302 Q1829.06 91.3456 1828.3 90.5798 Q1827.55 89.7893 1825.9 89.1964 Q1824.27 88.5789 1821.97 88.5789 L1817.48 88.5789 Q1815.75 88.5789 1815.38 88.9247 Q1815.01 89.2706 1815.01 90.6045 L1815.01 104.265 Z" fill="#000000" fill-rule="nonzero" fill-opacity="1" /><path clip-path="url(#clip440)" d="M1838.05 110.417 Q1838.05 105.649 1841.12 102.265 Q1844.18 98.8802 1848.58 98.8802 Q1853.02 98.8802 1855.32 101.77 Q1857.64 104.661 1857.64 108.811 Q1857.64 109.577 1857.45 109.725 Q1857.25 109.873 1856.38 109.873 L1842.25 109.873 Q1842.25 115.036 1843.79 117.457 Q1845.91 120.841 1849.49 120.841 Q1849.99 120.841 1850.58 120.743 Q1851.17 120.644 1852.38 120.224 Q1853.59 119.779 1854.65 118.618 Q1855.72 117.457 1856.33 115.629 Q1856.48 114.913 1856.98 114.937 Q1857.64 114.937 1857.64 115.53 Q1857.64 115.975 1857.15 116.988 Q1856.68 117.976 1855.77 119.162 Q1854.85 120.347 1853.07 121.237 Q1851.32 122.126 1849.2 122.126 Q1844.75 122.126 1841.39 118.766 Q1838.05 115.382 1838.05 110.417 M1842.3 108.811 L1854.31 108.811 Q1854.31 107.749 1854.11 106.563 Q1853.94 105.377 1853.39 103.747 Q1852.88 102.092 1851.64 101.054 Q1850.41 100.017 1848.58 100.017 Q1847.76 100.017 1846.87 100.362 Q1846.01 100.708 1844.95 101.548 Q1843.88 102.388 1843.14 104.29 Q1842.4 106.192 1842.3 108.811 Z" fill="#000000" fill-rule="nonzero" fill-opacity="1" /><path clip-path="url(#clip440)" d="M1861.23 116.741 Q1861.23 112.442 1866.29 110.17 Q1869.33 108.712 1875.6 108.342 L1875.6 106.489 Q1875.6 103.351 1873.95 101.696 Q1872.32 100.017 1870.24 100.017 Q1866.54 100.017 1864.76 102.339 Q1866.27 102.388 1866.81 103.154 Q1867.35 103.895 1867.35 104.661 Q1867.35 105.674 1866.71 106.341 Q1866.09 106.983 1865.03 106.983 Q1864.02 106.983 1863.35 106.365 Q1862.68 105.723 1862.68 104.611 Q1862.68 102.141 1864.91 100.511 Q1867.15 98.8802 1870.34 98.8802 Q1874.49 98.8802 1877.26 101.672 Q1878.12 102.536 1878.54 103.648 Q1878.99 104.76 1879.04 105.501 Q1879.09 106.217 1879.09 107.65 L1879.09 117.754 Q1879.09 118.05 1879.18 118.544 Q1879.28 119.038 1879.73 119.68 Q1880.2 120.298 1880.96 120.298 Q1882.79 120.298 1882.77 117.062 L1882.77 114.221 L1884.05 114.221 L1884.05 117.062 Q1884.05 119.754 1882.62 120.817 Q1881.21 121.854 1879.9 121.854 Q1878.22 121.854 1877.16 120.619 Q1876.1 119.384 1875.95 117.704 Q1875.18 119.631 1873.43 120.891 Q1871.7 122.126 1869.33 122.126 Q1867.5 122.126 1865.77 121.657 Q1864.07 121.212 1862.63 119.952 Q1861.23 118.668 1861.23 116.741 M1865.13 116.691 Q1865.13 118.569 1866.46 119.779 Q1867.8 120.99 1869.67 120.99 Q1871.8 120.99 1873.7 119.359 Q1875.6 117.704 1875.6 114.468 L1875.6 109.404 Q1870 109.601 1867.55 111.849 Q1865.13 114.073 1865.13 116.691 Z" fill="#000000" fill-rule="nonzero" fill-opacity="1" /><path clip-path="url(#clip440)" d="M1885.81 121.558 L1885.81 120.002 Q1888.5 120.002 1889.12 119.68 Q1889.76 119.335 1889.76 117.704 L1889.76 91.395 Q1889.76 89.5176 1889.09 89.0482 Q1888.45 88.5789 1885.81 88.5789 L1885.81 86.9978 L1893.09 86.4544 L1893.09 110.738 L1900.23 104.562 Q1901.34 103.599 1901.34 102.586 Q1901.34 101.425 1899.89 101.326 L1899.89 99.7448 Q1902.01 99.893 1905.54 99.893 Q1907.62 99.893 1909.08 99.7448 L1909.08 101.326 Q1905.89 101.474 1902.7 104.043 Q1901.99 104.611 1900.28 106.094 Q1898.6 107.551 1898.6 107.699 Q1898.6 107.749 1898.65 107.872 Q1898.73 107.996 1898.82 108.095 Q1898.92 108.193 1898.92 108.243 L1905.35 117.309 Q1906.66 119.137 1907.62 119.582 Q1908.58 120.002 1910.26 120.002 L1910.26 121.558 Q1908.09 121.41 1905.84 121.41 Q1904.63 121.41 1900.38 121.558 L1900.38 120.002 Q1902.21 120.002 1902.21 118.816 Q1902.21 118.001 1898.11 112.343 Q1897.81 111.948 1897.14 111.084 Q1896.53 110.17 1896.18 109.725 L1892.94 112.492 L1892.94 117.704 Q1892.94 119.335 1893.56 119.68 Q1894.2 120.002 1896.9 120.002 L1896.9 121.558 Q1893.86 121.41 1891.34 121.41 Q1890.82 121.41 1885.81 121.558 Z" fill="#000000" fill-rule="nonzero" fill-opacity="1" /><path clip-path="url(#clip440)" d="M1912.73 120.891 L1912.73 114.221 Q1912.73 113.653 1912.76 113.455 Q1912.78 113.258 1912.93 113.109 Q1913.08 112.961 1913.37 112.961 Q1913.72 112.961 1913.84 113.109 Q1913.99 113.258 1914.09 113.826 Q1914.86 117.309 1916.49 119.162 Q1918.14 120.99 1921.13 120.99 Q1923.97 120.99 1925.4 119.73 Q1926.84 118.47 1926.84 116.395 Q1926.84 112.689 1921.58 111.751 Q1918.54 111.133 1917.28 110.738 Q1916.02 110.318 1914.91 109.404 Q1912.73 107.625 1912.73 105.105 Q1912.73 102.586 1914.63 100.733 Q1916.56 98.8802 1920.81 98.8802 Q1923.65 98.8802 1925.58 100.313 Q1926.15 99.8683 1926.44 99.4977 Q1927.11 98.8802 1927.46 98.8802 Q1927.85 98.8802 1927.92 99.1519 Q1928 99.3989 1928 100.115 L1928 105.204 Q1928 105.772 1927.97 105.97 Q1927.95 106.168 1927.8 106.316 Q1927.65 106.439 1927.33 106.439 Q1926.76 106.439 1926.74 105.97 Q1926.34 99.8436 1920.81 99.8436 Q1917.82 99.8436 1916.49 101.005 Q1915.15 102.141 1915.15 103.697 Q1915.15 104.562 1915.55 105.229 Q1915.97 105.871 1916.49 106.266 Q1917.03 106.637 1918.02 107.008 Q1919.01 107.353 1919.6 107.477 Q1920.22 107.6 1921.38 107.847 Q1925.43 108.613 1927.13 110.268 Q1929.26 112.393 1929.26 115.086 Q1929.26 118.075 1927.23 120.1 Q1925.21 122.126 1921.13 122.126 Q1917.85 122.126 1915.55 119.927 Q1915.25 120.224 1915.03 120.496 Q1914.81 120.743 1914.71 120.841 Q1914.63 120.94 1914.61 121.014 Q1914.58 121.064 1914.54 121.113 Q1913.52 122.126 1913.28 122.126 Q1912.88 122.126 1912.81 121.854 Q1912.73 121.607 1912.73 120.891 Z" fill="#000000" fill-rule="nonzero" fill-opacity="1" /></svg>
