<?xml version="1.0" encoding="utf-8"?>
<svg xmlns="http://www.w3.org/2000/svg" xmlns:xlink="http://www.w3.org/1999/xlink" width="600" height="400" viewBox="0 0 2400 1600">
<defs>
  <clipPath id="clip390">
    <rect x="0" y="0" width="2400" height="1600"/>
  </clipPath>
</defs>
<path clip-path="url(#clip390)" d="M0 1600 L2400 1600 L2400 0 L0 0  Z" fill="#ffffff" fill-rule="evenodd" fill-opacity="1"/>
<defs>
  <clipPath id="clip391">
    <rect x="480" y="0" width="1681" height="1600"/>
  </clipPath>
</defs>
<path clip-path="url(#clip390)" d="M249.395 1423.18 L2352.76 1423.18 L2352.76 47.2441 L249.395 47.2441  Z" fill="#ffffff" fill-rule="evenodd" fill-opacity="1"/>
<defs>
  <clipPath id="clip392">
    <rect x="249" y="47" width="2104" height="1377"/>
  </clipPath>
</defs>
<polyline clip-path="url(#clip392)" style="stroke:#000000; stroke-linecap:round; stroke-linejoin:round; stroke-width:2; stroke-opacity:0.1; fill:none" points="343.091,1423.18 343.091,47.2441 "/>
<polyline clip-path="url(#clip392)" style="stroke:#000000; stroke-linecap:round; stroke-linejoin:round; stroke-width:2; stroke-opacity:0.1; fill:none" points="763.605,1423.18 763.605,47.2441 "/>
<polyline clip-path="url(#clip392)" style="stroke:#000000; stroke-linecap:round; stroke-linejoin:round; stroke-width:2; stroke-opacity:0.1; fill:none" points="1184.12,1423.18 1184.12,47.2441 "/>
<polyline clip-path="url(#clip392)" style="stroke:#000000; stroke-linecap:round; stroke-linejoin:round; stroke-width:2; stroke-opacity:0.1; fill:none" points="1604.63,1423.18 1604.63,47.2441 "/>
<polyline clip-path="url(#clip392)" style="stroke:#000000; stroke-linecap:round; stroke-linejoin:round; stroke-width:2; stroke-opacity:0.1; fill:none" points="2025.15,1423.18 2025.15,47.2441 "/>
<polyline clip-path="url(#clip390)" style="stroke:#000000; stroke-linecap:round; stroke-linejoin:round; stroke-width:4; stroke-opacity:1; fill:none" points="249.395,1423.18 2352.76,1423.18 "/>
<polyline clip-path="url(#clip390)" style="stroke:#000000; stroke-linecap:round; stroke-linejoin:round; stroke-width:4; stroke-opacity:1; fill:none" points="343.091,1423.18 343.091,1404.28 "/>
<polyline clip-path="url(#clip390)" style="stroke:#000000; stroke-linecap:round; stroke-linejoin:round; stroke-width:4; stroke-opacity:1; fill:none" points="763.605,1423.18 763.605,1404.28 "/>
<polyline clip-path="url(#clip390)" style="stroke:#000000; stroke-linecap:round; stroke-linejoin:round; stroke-width:4; stroke-opacity:1; fill:none" points="1184.12,1423.18 1184.12,1404.28 "/>
<polyline clip-path="url(#clip390)" style="stroke:#000000; stroke-linecap:round; stroke-linejoin:round; stroke-width:4; stroke-opacity:1; fill:none" points="1604.63,1423.18 1604.63,1404.28 "/>
<polyline clip-path="url(#clip390)" style="stroke:#000000; stroke-linecap:round; stroke-linejoin:round; stroke-width:4; stroke-opacity:1; fill:none" points="2025.15,1423.18 2025.15,1404.28 "/>
<path clip-path="url(#clip390)" d="M333.95 1472.22 Q334.247 1472.51 334.247 1472.93 Q334.247 1473.35 333.95 1473.65 Q333.654 1473.94 333.234 1473.94 L301.564 1473.94 Q301.144 1473.94 300.848 1473.65 Q300.551 1473.35 300.551 1472.93 Q300.551 1472.51 300.848 1472.22 Q301.144 1471.92 301.564 1471.92 L333.234 1471.92 Q333.654 1471.92 333.95 1472.22 Z" fill="#000000" fill-rule="nonzero" fill-opacity="1" /><path clip-path="url(#clip390)" d="M339.583 1485.58 Q339.583 1484.67 339.657 1484.39 Q339.756 1484.12 340.151 1483.7 L349.859 1472.88 Q355.171 1466.9 355.171 1461.69 Q355.171 1458.31 353.392 1455.89 Q351.638 1453.47 348.402 1453.47 Q346.179 1453.47 344.301 1454.82 Q342.424 1456.18 341.559 1458.6 Q341.707 1458.55 342.226 1458.55 Q343.486 1458.55 344.178 1459.34 Q344.894 1460.14 344.894 1461.2 Q344.894 1462.56 344.005 1463.22 Q343.14 1463.87 342.275 1463.87 Q341.93 1463.87 341.46 1463.79 Q341.016 1463.72 340.299 1463.03 Q339.583 1462.31 339.583 1461.05 Q339.583 1457.52 342.251 1454.7 Q344.943 1451.88 349.044 1451.88 Q353.688 1451.88 356.727 1454.65 Q359.79 1457.39 359.79 1461.69 Q359.79 1463.2 359.321 1464.58 Q358.876 1465.94 358.258 1467 Q357.666 1468.07 356.035 1469.77 Q354.405 1471.47 353.095 1472.68 Q351.786 1473.9 348.847 1476.46 L343.486 1481.68 L352.601 1481.68 Q357.048 1481.68 357.394 1481.28 Q357.888 1480.57 358.506 1476.79 L359.79 1476.79 L358.357 1485.58 L339.583 1485.58 Z" fill="#000000" fill-rule="nonzero" fill-opacity="1" /><path clip-path="url(#clip390)" d="M364.336 1469.4 Q364.336 1461.96 366.213 1457.91 Q368.832 1451.88 375.007 1451.88 Q376.317 1451.88 377.675 1452.26 Q379.059 1452.6 380.788 1453.96 Q382.542 1455.32 383.604 1457.54 Q385.63 1461.84 385.63 1469.4 Q385.63 1476.79 383.752 1480.81 Q381.01 1486.69 374.958 1486.69 Q372.685 1486.69 370.363 1485.53 Q368.066 1484.37 366.608 1481.58 Q364.336 1477.4 364.336 1469.4 M368.535 1468.78 Q368.535 1476.41 369.079 1479.45 Q369.696 1482.74 371.376 1484.17 Q373.081 1485.58 374.958 1485.58 Q376.984 1485.58 378.663 1484.07 Q380.368 1482.54 380.887 1479.26 Q381.455 1476.02 381.43 1468.78 Q381.43 1461.74 380.936 1458.92 Q380.269 1455.64 378.491 1454.33 Q376.737 1453 374.958 1453 Q374.291 1453 373.575 1453.19 Q372.883 1453.39 371.87 1453.96 Q370.857 1454.53 370.067 1455.94 Q369.301 1457.34 368.93 1459.47 Q368.535 1462.21 368.535 1468.78 Z" fill="#000000" fill-rule="nonzero" fill-opacity="1" /><path clip-path="url(#clip390)" d="M752.958 1469.4 Q752.958 1461.96 754.835 1457.91 Q757.454 1451.88 763.63 1451.88 Q764.939 1451.88 766.298 1452.26 Q767.681 1452.6 769.41 1453.96 Q771.164 1455.32 772.227 1457.54 Q774.252 1461.84 774.252 1469.4 Q774.252 1476.79 772.375 1480.81 Q769.633 1486.69 763.58 1486.69 Q761.308 1486.69 758.986 1485.53 Q756.688 1484.37 755.231 1481.58 Q752.958 1477.4 752.958 1469.4 M757.158 1468.78 Q757.158 1476.41 757.701 1479.45 Q758.319 1482.74 759.998 1484.17 Q761.703 1485.58 763.58 1485.58 Q765.606 1485.58 767.286 1484.07 Q768.991 1482.54 769.509 1479.26 Q770.077 1476.02 770.053 1468.78 Q770.053 1461.74 769.559 1458.92 Q768.892 1455.64 767.113 1454.33 Q765.359 1453 763.58 1453 Q762.913 1453 762.197 1453.19 Q761.505 1453.39 760.493 1453.96 Q759.48 1454.53 758.689 1455.94 Q757.923 1457.34 757.553 1459.47 Q757.158 1462.21 757.158 1468.78 Z" fill="#000000" fill-rule="nonzero" fill-opacity="1" /><path clip-path="url(#clip390)" d="M1161.1 1485.58 Q1161.1 1484.67 1161.17 1484.39 Q1161.27 1484.12 1161.66 1483.7 L1171.37 1472.88 Q1176.68 1466.9 1176.68 1461.69 Q1176.68 1458.31 1174.91 1455.89 Q1173.15 1453.47 1169.92 1453.47 Q1167.69 1453.47 1165.81 1454.82 Q1163.94 1456.18 1163.07 1458.6 Q1163.22 1458.55 1163.74 1458.55 Q1165 1458.55 1165.69 1459.34 Q1166.41 1460.14 1166.41 1461.2 Q1166.41 1462.56 1165.52 1463.22 Q1164.65 1463.87 1163.79 1463.87 Q1163.44 1463.87 1162.97 1463.79 Q1162.53 1463.72 1161.81 1463.03 Q1161.1 1462.31 1161.1 1461.05 Q1161.1 1457.52 1163.76 1454.7 Q1166.46 1451.88 1170.56 1451.88 Q1175.2 1451.88 1178.24 1454.65 Q1181.3 1457.39 1181.3 1461.69 Q1181.3 1463.2 1180.83 1464.58 Q1180.39 1465.94 1179.77 1467 Q1179.18 1468.07 1177.55 1469.77 Q1175.92 1471.47 1174.61 1472.68 Q1173.3 1473.9 1170.36 1476.46 L1165 1481.68 L1174.11 1481.68 Q1178.56 1481.68 1178.91 1481.28 Q1179.4 1480.57 1180.02 1476.79 L1181.3 1476.79 L1179.87 1485.58 L1161.1 1485.58 Z" fill="#000000" fill-rule="nonzero" fill-opacity="1" /><path clip-path="url(#clip390)" d="M1185.85 1469.4 Q1185.85 1461.96 1187.73 1457.91 Q1190.34 1451.88 1196.52 1451.88 Q1197.83 1451.88 1199.19 1452.26 Q1200.57 1452.6 1202.3 1453.96 Q1204.06 1455.32 1205.12 1457.54 Q1207.14 1461.84 1207.14 1469.4 Q1207.14 1476.79 1205.27 1480.81 Q1202.52 1486.69 1196.47 1486.69 Q1194.2 1486.69 1191.88 1485.53 Q1189.58 1484.37 1188.12 1481.58 Q1185.85 1477.4 1185.85 1469.4 M1190.05 1468.78 Q1190.05 1476.41 1190.59 1479.45 Q1191.21 1482.74 1192.89 1484.17 Q1194.59 1485.58 1196.47 1485.58 Q1198.5 1485.58 1200.18 1484.07 Q1201.88 1482.54 1202.4 1479.26 Q1202.97 1476.02 1202.94 1468.78 Q1202.94 1461.74 1202.45 1458.92 Q1201.78 1455.64 1200 1454.33 Q1198.25 1453 1196.47 1453 Q1195.8 1453 1195.09 1453.19 Q1194.4 1453.39 1193.38 1453.96 Q1192.37 1454.53 1191.58 1455.94 Q1190.81 1457.34 1190.44 1459.47 Q1190.05 1462.21 1190.05 1468.78 Z" fill="#000000" fill-rule="nonzero" fill-opacity="1" /><path clip-path="url(#clip390)" d="M1581.05 1477.23 L1581.05 1475.67 L1596.59 1451.93 Q1596.99 1451.32 1597.61 1451.34 Q1598.17 1451.34 1598.3 1451.56 Q1598.42 1451.79 1598.42 1452.65 L1598.42 1475.67 L1603.49 1475.67 L1603.49 1477.23 L1598.42 1477.23 L1598.42 1481.63 Q1598.42 1483.08 1599.01 1483.55 Q1599.63 1484.02 1602.25 1484.02 L1603.31 1484.02 L1603.31 1485.58 Q1601.24 1485.43 1596.45 1485.43 Q1591.68 1485.43 1589.6 1485.58 L1589.6 1484.02 L1590.66 1484.02 Q1593.28 1484.02 1593.9 1483.58 Q1594.52 1483.11 1594.52 1481.63 L1594.52 1477.23 L1581.05 1477.23 M1582.49 1475.67 L1594.81 1475.67 L1594.81 1456.8 L1582.49 1475.67 Z" fill="#000000" fill-rule="nonzero" fill-opacity="1" /><path clip-path="url(#clip390)" d="M1606.92 1469.4 Q1606.92 1461.96 1608.8 1457.91 Q1611.42 1451.88 1617.59 1451.88 Q1618.9 1451.88 1620.26 1452.26 Q1621.64 1452.6 1623.37 1453.96 Q1625.13 1455.32 1626.19 1457.54 Q1628.21 1461.84 1628.21 1469.4 Q1628.21 1476.79 1626.34 1480.81 Q1623.59 1486.69 1617.54 1486.69 Q1615.27 1486.69 1612.95 1485.53 Q1610.65 1484.37 1609.19 1481.58 Q1606.92 1477.4 1606.92 1469.4 M1611.12 1468.78 Q1611.12 1476.41 1611.66 1479.45 Q1612.28 1482.74 1613.96 1484.17 Q1615.66 1485.58 1617.54 1485.58 Q1619.57 1485.58 1621.25 1484.07 Q1622.95 1482.54 1623.47 1479.26 Q1624.04 1476.02 1624.01 1468.78 Q1624.01 1461.74 1623.52 1458.92 Q1622.85 1455.64 1621.07 1454.33 Q1619.32 1453 1617.54 1453 Q1616.87 1453 1616.16 1453.19 Q1615.47 1453.39 1614.45 1453.96 Q1613.44 1454.53 1612.65 1455.94 Q1611.88 1457.34 1611.51 1459.47 Q1611.12 1462.21 1611.12 1468.78 Z" fill="#000000" fill-rule="nonzero" fill-opacity="1" /><path clip-path="url(#clip390)" d="M2001.93 1469.6 Q2001.93 1461.64 2005.98 1456.78 Q2010.03 1451.88 2015.24 1451.88 Q2018.28 1451.88 2019.96 1453.44 Q2021.67 1454.97 2021.67 1457.34 Q2021.67 1458.65 2020.9 1459.22 Q2020.13 1459.79 2019.34 1459.79 Q2018.43 1459.79 2017.71 1459.17 Q2017 1458.55 2017 1457.44 Q2017 1455.17 2019.79 1455.17 Q2018.48 1453.14 2015.34 1453.14 Q2014.38 1453.14 2013.39 1453.44 Q2012.4 1453.71 2011.12 1454.65 Q2009.83 1455.59 2008.84 1457.07 Q2007.86 1458.55 2007.16 1461.35 Q2006.47 1464.14 2006.47 1467.77 L2006.47 1468.98 Q2008.55 1463.96 2012.8 1463.99 Q2017.05 1463.99 2019.99 1467.23 Q2022.93 1470.46 2022.93 1475.25 Q2022.93 1480.17 2019.86 1483.43 Q2016.8 1486.69 2012.5 1486.69 Q2010.57 1486.69 2008.82 1485.88 Q2007.09 1485.09 2005.46 1483.26 Q2003.85 1481.43 2002.89 1477.92 Q2001.93 1474.41 2001.93 1469.6 M2006.57 1474.14 Q2006.57 1479.11 2007.49 1481.48 Q2007.63 1481.87 2007.96 1482.42 Q2008.3 1482.96 2008.87 1483.68 Q2009.46 1484.37 2010.43 1484.84 Q2011.39 1485.28 2012.5 1485.28 Q2015.89 1485.28 2017.52 1482 Q2018.38 1480.17 2018.38 1475.2 Q2018.38 1470.14 2017.47 1468.29 Q2015.91 1465.15 2012.75 1465.15 Q2010.62 1465.15 2009.14 1466.61 Q2007.68 1468.07 2007.12 1470.02 Q2006.57 1471.97 2006.57 1474.14 Z" fill="#000000" fill-rule="nonzero" fill-opacity="1" /><path clip-path="url(#clip390)" d="M2027.08 1469.4 Q2027.08 1461.96 2028.95 1457.91 Q2031.57 1451.88 2037.75 1451.88 Q2039.06 1451.88 2040.42 1452.26 Q2041.8 1452.6 2043.53 1453.96 Q2045.28 1455.32 2046.34 1457.54 Q2048.37 1461.84 2048.37 1469.4 Q2048.37 1476.79 2046.49 1480.81 Q2043.75 1486.69 2037.7 1486.69 Q2035.43 1486.69 2033.1 1485.53 Q2030.81 1484.37 2029.35 1481.58 Q2027.08 1477.4 2027.08 1469.4 M2031.28 1468.78 Q2031.28 1476.41 2031.82 1479.45 Q2032.44 1482.74 2034.12 1484.17 Q2035.82 1485.58 2037.7 1485.58 Q2039.72 1485.58 2041.4 1484.07 Q2043.11 1482.54 2043.63 1479.26 Q2044.2 1476.02 2044.17 1468.78 Q2044.17 1461.74 2043.68 1458.92 Q2043.01 1455.64 2041.23 1454.33 Q2039.48 1453 2037.7 1453 Q2037.03 1453 2036.31 1453.19 Q2035.62 1453.39 2034.61 1453.96 Q2033.6 1454.53 2032.81 1455.94 Q2032.04 1457.34 2031.67 1459.47 Q2031.28 1462.21 2031.28 1468.78 Z" fill="#000000" fill-rule="nonzero" fill-opacity="1" /><path clip-path="url(#clip390)" d="M1270.93 1528.17 Q1270.93 1529.07 1270.51 1529.3 Q1270.1 1529.49 1268.94 1529.49 L1262.75 1529.49 L1257.86 1548.94 Q1257.47 1550.65 1257.47 1552.1 Q1257.47 1553.71 1257.95 1554.42 Q1258.47 1555.13 1259.53 1555.13 Q1261.63 1555.13 1263.88 1553.23 Q1266.17 1551.33 1268.1 1546.69 Q1268.36 1546.08 1268.49 1545.95 Q1268.65 1545.79 1269.07 1545.79 Q1269.87 1545.79 1269.87 1546.43 Q1269.87 1546.66 1269.42 1547.69 Q1269 1548.72 1268.07 1550.23 Q1267.17 1551.75 1265.97 1553.16 Q1264.81 1554.58 1263.04 1555.61 Q1261.27 1556.61 1259.37 1556.61 Q1256.7 1556.61 1254.99 1554.9 Q1253.32 1553.19 1253.32 1550.52 Q1253.32 1549.65 1253.99 1546.88 Q1254.67 1544.08 1258.34 1529.49 L1252.51 1529.49 Q1251.71 1529.49 1251.38 1529.46 Q1251.09 1529.43 1250.87 1529.27 Q1250.68 1529.07 1250.68 1528.69 Q1250.68 1528.07 1250.93 1527.82 Q1251.19 1527.53 1251.51 1527.49 Q1251.87 1527.43 1252.67 1527.43 L1258.86 1527.43 L1261.43 1516.96 Q1261.69 1515.93 1262.33 1515.35 Q1263.01 1514.74 1263.4 1514.68 Q1263.78 1514.58 1264.07 1514.58 Q1264.94 1514.58 1265.46 1515.06 Q1265.97 1515.51 1265.97 1516.35 Q1265.97 1516.8 1263.27 1527.43 L1269.07 1527.43 Q1269.81 1527.43 1270.1 1527.46 Q1270.42 1527.49 1270.68 1527.66 Q1270.93 1527.82 1270.93 1528.17 Z" fill="#000000" fill-rule="nonzero" fill-opacity="1" /><path clip-path="url(#clip390)" d="M1291.68 1572.36 L1291.68 1506.4 L1301.63 1506.4 L1301.63 1507.91 L1296.09 1507.91 L1296.09 1570.84 L1301.63 1570.84 L1301.63 1572.36 L1291.68 1572.36 Z" fill="#000000" fill-rule="nonzero" fill-opacity="1" /><path clip-path="url(#clip390)" d="M1328.57 1532.39 Q1328.57 1534.19 1327.67 1535.16 Q1326.77 1536.09 1325.54 1536.09 Q1324.54 1536.09 1324 1535.51 Q1323.48 1534.93 1323.48 1534.16 Q1323.48 1533.03 1324.38 1532.13 Q1325.32 1531.23 1326.67 1531.2 Q1326.22 1530.01 1325.03 1529.3 Q1323.83 1528.56 1322.77 1528.36 Q1321.74 1528.17 1320.71 1528.17 Q1318.68 1528.17 1317.14 1528.81 Q1315.59 1529.46 1314.82 1530.46 Q1314.04 1531.42 1313.69 1532.36 Q1313.34 1533.29 1313.34 1534.1 Q1313.34 1534.81 1313.5 1535.38 Q1313.69 1535.93 1314.14 1536.35 Q1314.59 1536.74 1314.91 1537 Q1315.27 1537.25 1316.04 1537.48 Q1316.81 1537.7 1317.14 1537.8 Q1317.46 1537.86 1318.36 1538.06 Q1320.23 1538.44 1321.07 1538.67 Q1321.9 1538.86 1323 1539.41 Q1324.12 1539.96 1324.96 1540.83 Q1326.99 1542.86 1326.99 1545.66 Q1326.99 1546.69 1326.64 1547.95 Q1326.31 1549.2 1325.38 1550.78 Q1324.45 1552.36 1323.03 1553.61 Q1321.61 1554.87 1319.17 1555.74 Q1316.75 1556.61 1313.72 1556.61 Q1309.5 1556.61 1306.89 1554.84 Q1304.29 1553.03 1304.29 1550.2 Q1304.29 1548.14 1305.41 1547.01 Q1306.54 1545.85 1307.99 1545.85 Q1309.08 1545.85 1309.76 1546.46 Q1310.44 1547.04 1310.44 1548.14 Q1310.44 1549.62 1309.25 1550.75 Q1308.05 1551.87 1306.28 1551.65 Q1307.8 1555.13 1313.79 1555.13 Q1316.04 1555.13 1317.78 1554.55 Q1319.55 1553.94 1320.52 1553.1 Q1321.52 1552.23 1322.16 1551.17 Q1322.8 1550.1 1323 1549.3 Q1323.22 1548.49 1323.22 1547.88 Q1323.22 1546.82 1322.8 1546.01 Q1322.39 1545.21 1321.81 1544.76 Q1321.26 1544.27 1320.2 1543.89 Q1319.17 1543.47 1318.42 1543.31 Q1317.68 1543.15 1316.36 1542.89 Q1315.75 1542.76 1315.36 1542.7 Q1314.98 1542.6 1314.17 1542.34 Q1313.4 1542.05 1312.85 1541.76 Q1312.34 1541.47 1311.66 1540.96 Q1310.98 1540.44 1310.57 1539.83 Q1310.15 1539.22 1309.86 1538.32 Q1309.57 1537.41 1309.57 1536.35 Q1309.57 1535.38 1309.86 1534.23 Q1310.18 1533.07 1310.98 1531.71 Q1311.82 1530.36 1313.01 1529.27 Q1314.21 1528.17 1316.2 1527.46 Q1318.23 1526.72 1320.71 1526.72 Q1324.32 1526.72 1326.44 1528.4 Q1328.57 1530.04 1328.57 1532.39 Z" fill="#000000" fill-rule="nonzero" fill-opacity="1" /><path clip-path="url(#clip390)" d="M1333.32 1570.84 L1338.86 1570.84 L1338.86 1507.91 L1333.32 1507.91 L1333.32 1506.4 L1343.28 1506.4 L1343.28 1572.36 L1333.32 1572.36 L1333.32 1570.84 Z" fill="#000000" fill-rule="nonzero" fill-opacity="1" /><polyline clip-path="url(#clip392)" style="stroke:#000000; stroke-linecap:round; stroke-linejoin:round; stroke-width:2; stroke-opacity:0.1; fill:none" points="249.395,1281.63 2352.76,1281.63 "/>
<polyline clip-path="url(#clip392)" style="stroke:#000000; stroke-linecap:round; stroke-linejoin:round; stroke-width:2; stroke-opacity:0.1; fill:none" points="249.395,1014.17 2352.76,1014.17 "/>
<polyline clip-path="url(#clip392)" style="stroke:#000000; stroke-linecap:round; stroke-linejoin:round; stroke-width:2; stroke-opacity:0.1; fill:none" points="249.395,746.702 2352.76,746.702 "/>
<polyline clip-path="url(#clip392)" style="stroke:#000000; stroke-linecap:round; stroke-linejoin:round; stroke-width:2; stroke-opacity:0.1; fill:none" points="249.395,479.238 2352.76,479.238 "/>
<polyline clip-path="url(#clip392)" style="stroke:#000000; stroke-linecap:round; stroke-linejoin:round; stroke-width:2; stroke-opacity:0.1; fill:none" points="249.395,211.773 2352.76,211.773 "/>
<polyline clip-path="url(#clip390)" style="stroke:#000000; stroke-linecap:round; stroke-linejoin:round; stroke-width:4; stroke-opacity:1; fill:none" points="249.395,1423.18 249.395,47.2441 "/>
<polyline clip-path="url(#clip390)" style="stroke:#000000; stroke-linecap:round; stroke-linejoin:round; stroke-width:4; stroke-opacity:1; fill:none" points="249.395,1281.63 268.292,1281.63 "/>
<polyline clip-path="url(#clip390)" style="stroke:#000000; stroke-linecap:round; stroke-linejoin:round; stroke-width:4; stroke-opacity:1; fill:none" points="249.395,1014.17 268.292,1014.17 "/>
<polyline clip-path="url(#clip390)" style="stroke:#000000; stroke-linecap:round; stroke-linejoin:round; stroke-width:4; stroke-opacity:1; fill:none" points="249.395,746.702 268.292,746.702 "/>
<polyline clip-path="url(#clip390)" style="stroke:#000000; stroke-linecap:round; stroke-linejoin:round; stroke-width:4; stroke-opacity:1; fill:none" points="249.395,479.238 268.292,479.238 "/>
<polyline clip-path="url(#clip390)" style="stroke:#000000; stroke-linecap:round; stroke-linejoin:round; stroke-width:4; stroke-opacity:1; fill:none" points="249.395,211.773 268.292,211.773 "/>
<path clip-path="url(#clip390)" d="M147.659 1285.55 Q147.956 1285.84 147.956 1286.26 Q147.956 1286.68 147.659 1286.98 Q147.363 1287.28 146.943 1287.28 L115.273 1287.28 Q114.853 1287.28 114.557 1286.98 Q114.26 1286.68 114.26 1286.26 Q114.26 1285.84 114.557 1285.55 Q114.853 1285.25 115.273 1285.25 L146.943 1285.25 Q147.363 1285.25 147.659 1285.55 Z" fill="#000000" fill-rule="nonzero" fill-opacity="1" /><path clip-path="url(#clip390)" d="M153.291 1290.76 Q153.291 1289.25 154.107 1288.68 Q154.922 1288.09 155.787 1288.09 Q156.948 1288.09 157.615 1288.83 Q158.306 1289.55 158.306 1290.56 Q158.306 1291.57 157.615 1292.31 Q156.948 1293.03 155.787 1293.03 Q155.218 1293.03 154.922 1292.93 Q155.589 1295.25 157.615 1296.93 Q159.665 1298.61 162.358 1298.61 Q165.742 1298.61 167.768 1295.33 Q168.978 1293.2 168.978 1288.39 Q168.978 1284.14 168.064 1282.01 Q166.656 1278.78 163.766 1278.78 Q159.665 1278.78 157.244 1282.31 Q156.948 1282.75 156.602 1282.78 Q156.108 1282.78 155.984 1282.51 Q155.885 1282.21 155.885 1281.45 L155.885 1266.47 Q155.885 1265.26 156.379 1265.26 Q156.577 1265.26 156.997 1265.41 Q160.184 1266.82 163.716 1266.85 Q167.348 1266.85 170.609 1265.36 Q170.856 1265.22 171.004 1265.22 Q171.498 1265.22 171.523 1265.78 Q171.523 1265.98 171.103 1266.57 Q170.707 1267.14 169.843 1267.91 Q168.978 1268.65 167.866 1269.37 Q166.755 1270.08 165.124 1270.58 Q163.519 1271.05 161.74 1271.05 Q159.616 1271.05 157.442 1270.38 L157.442 1280.23 Q160.06 1277.67 163.865 1277.67 Q167.916 1277.67 170.707 1280.93 Q173.499 1284.19 173.499 1288.73 Q173.499 1293.5 170.189 1296.76 Q166.903 1300.02 162.456 1300.02 Q158.405 1300.02 155.836 1297.13 Q153.291 1294.24 153.291 1290.76 Z" fill="#000000" fill-rule="nonzero" fill-opacity="1" /><path clip-path="url(#clip390)" d="M181.132 1298.1 Q180.366 1297.28 180.366 1296.22 Q180.366 1295.16 181.132 1294.39 Q181.898 1293.6 183.059 1293.6 Q184.171 1293.6 184.912 1294.34 Q185.678 1295.06 185.678 1296.24 Q185.678 1297.4 184.862 1298.17 Q184.072 1298.91 183.059 1298.91 Q181.898 1298.91 181.132 1298.1 Z" fill="#000000" fill-rule="nonzero" fill-opacity="1" /><path clip-path="url(#clip390)" d="M192.1 1282.73 Q192.1 1275.29 193.978 1271.24 Q196.596 1265.22 202.772 1265.22 Q204.082 1265.22 205.44 1265.59 Q206.824 1265.93 208.553 1267.29 Q210.307 1268.65 211.369 1270.87 Q213.395 1275.17 213.395 1282.73 Q213.395 1290.12 211.517 1294.14 Q208.775 1300.02 202.723 1300.02 Q200.45 1300.02 198.128 1298.86 Q195.831 1297.7 194.373 1294.91 Q192.1 1290.73 192.1 1282.73 M196.3 1282.11 Q196.3 1289.75 196.843 1292.78 Q197.461 1296.07 199.141 1297.5 Q200.845 1298.91 202.723 1298.91 Q204.749 1298.91 206.428 1297.4 Q208.133 1295.87 208.652 1292.59 Q209.22 1289.35 209.195 1282.11 Q209.195 1275.07 208.701 1272.26 Q208.034 1268.97 206.255 1267.66 Q204.502 1266.33 202.723 1266.33 Q202.056 1266.33 201.339 1266.52 Q200.648 1266.72 199.635 1267.29 Q198.622 1267.86 197.832 1269.27 Q197.066 1270.67 196.695 1272.8 Q196.3 1275.54 196.3 1282.11 Z" fill="#000000" fill-rule="nonzero" fill-opacity="1" /><path clip-path="url(#clip390)" d="M148.203 1018.08 Q148.499 1018.38 148.499 1018.8 Q148.499 1019.22 148.203 1019.51 Q147.906 1019.81 147.486 1019.81 L115.816 1019.81 Q115.397 1019.81 115.1 1019.51 Q114.804 1019.22 114.804 1018.8 Q114.804 1018.38 115.1 1018.08 Q115.397 1017.79 115.816 1017.79 L147.486 1017.79 Q147.906 1017.79 148.203 1018.08 Z" fill="#000000" fill-rule="nonzero" fill-opacity="1" /><path clip-path="url(#clip390)" d="M153.835 1031.45 Q153.835 1030.53 153.909 1030.26 Q154.008 1029.99 154.403 1029.57 L164.112 1018.75 Q169.423 1012.77 169.423 1007.56 Q169.423 1004.17 167.644 1001.75 Q165.89 999.332 162.654 999.332 Q160.431 999.332 158.553 1000.69 Q156.676 1002.05 155.811 1004.47 Q155.959 1004.42 156.478 1004.42 Q157.738 1004.42 158.43 1005.21 Q159.146 1006 159.146 1007.06 Q159.146 1008.42 158.257 1009.09 Q157.392 1009.73 156.528 1009.73 Q156.182 1009.73 155.712 1009.66 Q155.268 1009.58 154.551 1008.89 Q153.835 1008.18 153.835 1006.92 Q153.835 1003.38 156.503 1000.57 Q159.196 997.751 163.296 997.751 Q167.941 997.751 170.979 1000.52 Q174.042 1003.26 174.042 1007.56 Q174.042 1009.06 173.573 1010.45 Q173.128 1011.81 172.511 1012.87 Q171.918 1013.93 170.287 1015.64 Q168.657 1017.34 167.348 1018.55 Q166.038 1019.76 163.099 1022.33 L157.738 1027.54 L166.854 1027.54 Q171.3 1027.54 171.646 1027.15 Q172.14 1026.43 172.758 1022.65 L174.042 1022.65 L172.609 1031.45 L153.835 1031.45 Z" fill="#000000" fill-rule="nonzero" fill-opacity="1" /><path clip-path="url(#clip390)" d="M181.676 1030.63 Q180.91 1029.82 180.91 1028.75 Q180.91 1027.69 181.676 1026.93 Q182.441 1026.13 183.602 1026.13 Q184.714 1026.13 185.455 1026.88 Q186.221 1027.59 186.221 1028.78 Q186.221 1029.94 185.406 1030.71 Q184.615 1031.45 183.602 1031.45 Q182.441 1031.45 181.676 1030.63 Z" fill="#000000" fill-rule="nonzero" fill-opacity="1" /><path clip-path="url(#clip390)" d="M193.187 1023.29 Q193.187 1021.79 194.003 1021.22 Q194.818 1020.63 195.682 1020.63 Q196.843 1020.63 197.51 1021.37 Q198.202 1022.08 198.202 1023.1 Q198.202 1024.11 197.51 1024.85 Q196.843 1025.57 195.682 1025.57 Q195.114 1025.57 194.818 1025.47 Q195.485 1027.79 197.51 1029.47 Q199.561 1031.15 202.254 1031.15 Q205.638 1031.15 207.664 1027.86 Q208.874 1025.74 208.874 1020.92 Q208.874 1016.67 207.96 1014.55 Q206.552 1011.31 203.662 1011.31 Q199.561 1011.31 197.14 1014.85 Q196.843 1015.29 196.498 1015.31 Q196.004 1015.31 195.88 1015.04 Q195.781 1014.75 195.781 1013.98 L195.781 999.011 Q195.781 997.8 196.275 997.8 Q196.473 997.8 196.893 997.948 Q200.08 999.357 203.612 999.381 Q207.244 999.381 210.504 997.899 Q210.751 997.751 210.9 997.751 Q211.394 997.751 211.418 998.319 Q211.418 998.517 210.999 999.109 Q210.603 999.678 209.739 1000.44 Q208.874 1001.18 207.762 1001.9 Q206.651 1002.62 205.02 1003.11 Q203.415 1003.58 201.636 1003.58 Q199.511 1003.58 197.338 1002.91 L197.338 1012.77 Q199.956 1010.2 203.76 1010.2 Q207.812 1010.2 210.603 1013.46 Q213.395 1016.72 213.395 1021.27 Q213.395 1026.04 210.084 1029.3 Q206.799 1032.56 202.352 1032.56 Q198.301 1032.56 195.732 1029.67 Q193.187 1026.78 193.187 1023.29 Z" fill="#000000" fill-rule="nonzero" fill-opacity="1" /><path clip-path="url(#clip390)" d="M152.748 747.801 Q152.748 740.366 154.625 736.314 Q157.244 730.287 163.42 730.287 Q164.729 730.287 166.088 730.657 Q167.471 731.003 169.2 732.362 Q170.954 733.72 172.017 735.944 Q174.042 740.242 174.042 747.801 Q174.042 755.188 172.165 759.214 Q169.423 765.094 163.37 765.094 Q161.098 765.094 158.776 763.933 Q156.478 762.771 155.021 759.98 Q152.748 755.805 152.748 747.801 M156.948 747.184 Q156.948 754.817 157.491 757.856 Q158.109 761.141 159.788 762.574 Q161.493 763.982 163.37 763.982 Q165.396 763.982 167.076 762.475 Q168.78 760.943 169.299 757.658 Q169.867 754.422 169.843 747.184 Q169.843 740.143 169.349 737.327 Q168.682 734.041 166.903 732.732 Q165.149 731.398 163.37 731.398 Q162.703 731.398 161.987 731.596 Q161.295 731.793 160.283 732.362 Q159.27 732.93 158.479 734.338 Q157.713 735.746 157.343 737.87 Q156.948 740.613 156.948 747.184 Z" fill="#000000" fill-rule="nonzero" fill-opacity="1" /><path clip-path="url(#clip390)" d="M181.132 763.167 Q180.366 762.352 180.366 761.289 Q180.366 760.227 181.132 759.461 Q181.898 758.671 183.059 758.671 Q184.171 758.671 184.912 759.412 Q185.678 760.128 185.678 761.314 Q185.678 762.475 184.862 763.241 Q184.072 763.982 183.059 763.982 Q181.898 763.982 181.132 763.167 Z" fill="#000000" fill-rule="nonzero" fill-opacity="1" /><path clip-path="url(#clip390)" d="M192.1 747.801 Q192.1 740.366 193.978 736.314 Q196.596 730.287 202.772 730.287 Q204.082 730.287 205.44 730.657 Q206.824 731.003 208.553 732.362 Q210.307 733.72 211.369 735.944 Q213.395 740.242 213.395 747.801 Q213.395 755.188 211.517 759.214 Q208.775 765.094 202.723 765.094 Q200.45 765.094 198.128 763.933 Q195.831 762.771 194.373 759.98 Q192.1 755.805 192.1 747.801 M196.3 747.184 Q196.3 754.817 196.843 757.856 Q197.461 761.141 199.141 762.574 Q200.845 763.982 202.723 763.982 Q204.749 763.982 206.428 762.475 Q208.133 760.943 208.652 757.658 Q209.22 754.422 209.195 747.184 Q209.195 740.143 208.701 737.327 Q208.034 734.041 206.255 732.732 Q204.502 731.398 202.723 731.398 Q202.056 731.398 201.339 731.596 Q200.648 731.793 199.635 732.362 Q198.622 732.93 197.832 734.338 Q197.066 735.746 196.695 737.87 Q196.3 740.613 196.3 747.184 Z" fill="#000000" fill-rule="nonzero" fill-opacity="1" /><path clip-path="url(#clip390)" d="M153.835 496.518 Q153.835 495.604 153.909 495.332 Q154.008 495.06 154.403 494.64 L164.112 483.82 Q169.423 477.842 169.423 472.63 Q169.423 469.245 167.644 466.824 Q165.89 464.403 162.654 464.403 Q160.431 464.403 158.553 465.762 Q156.676 467.121 155.811 469.542 Q155.959 469.492 156.478 469.492 Q157.738 469.492 158.43 470.283 Q159.146 471.073 159.146 472.135 Q159.146 473.494 158.257 474.161 Q157.392 474.803 156.528 474.803 Q156.182 474.803 155.712 474.729 Q155.268 474.655 154.551 473.964 Q153.835 473.247 153.835 471.987 Q153.835 468.455 156.503 465.638 Q159.196 462.822 163.296 462.822 Q167.941 462.822 170.979 465.589 Q174.042 468.331 174.042 472.63 Q174.042 474.136 173.573 475.52 Q173.128 476.879 172.511 477.941 Q171.918 479.003 170.287 480.708 Q168.657 482.412 167.348 483.623 Q166.038 484.833 163.099 487.402 L157.738 492.615 L166.854 492.615 Q171.3 492.615 171.646 492.219 Q172.14 491.503 172.758 487.723 L174.042 487.723 L172.609 496.518 L153.835 496.518 Z" fill="#000000" fill-rule="nonzero" fill-opacity="1" /><path clip-path="url(#clip390)" d="M181.676 495.702 Q180.91 494.887 180.91 493.825 Q180.91 492.763 181.676 491.997 Q182.441 491.206 183.602 491.206 Q184.714 491.206 185.455 491.948 Q186.221 492.664 186.221 493.85 Q186.221 495.011 185.406 495.777 Q184.615 496.518 183.602 496.518 Q182.441 496.518 181.676 495.702 Z" fill="#000000" fill-rule="nonzero" fill-opacity="1" /><path clip-path="url(#clip390)" d="M193.187 488.366 Q193.187 486.859 194.003 486.29 Q194.818 485.698 195.682 485.698 Q196.843 485.698 197.51 486.439 Q198.202 487.155 198.202 488.168 Q198.202 489.181 197.51 489.922 Q196.843 490.638 195.682 490.638 Q195.114 490.638 194.818 490.539 Q195.485 492.862 197.51 494.541 Q199.561 496.221 202.254 496.221 Q205.638 496.221 207.664 492.936 Q208.874 490.811 208.874 485.994 Q208.874 481.745 207.96 479.621 Q206.552 476.384 203.662 476.384 Q199.561 476.384 197.14 479.917 Q196.843 480.362 196.498 480.386 Q196.004 480.386 195.88 480.115 Q195.781 479.818 195.781 479.052 L195.781 464.082 Q195.781 462.872 196.275 462.872 Q196.473 462.872 196.893 463.02 Q200.08 464.428 203.612 464.453 Q207.244 464.453 210.504 462.971 Q210.751 462.822 210.9 462.822 Q211.394 462.822 211.418 463.39 Q211.418 463.588 210.999 464.181 Q210.603 464.749 209.739 465.515 Q208.874 466.256 207.762 466.972 Q206.651 467.689 205.02 468.183 Q203.415 468.652 201.636 468.652 Q199.511 468.652 197.338 467.985 L197.338 477.842 Q199.956 475.273 203.76 475.273 Q207.812 475.273 210.603 478.534 Q213.395 481.794 213.395 486.34 Q213.395 491.108 210.084 494.368 Q206.799 497.629 202.352 497.629 Q198.301 497.629 195.732 494.739 Q193.187 491.849 193.187 488.366 Z" fill="#000000" fill-rule="nonzero" fill-opacity="1" /><path clip-path="url(#clip390)" d="M153.291 220.901 Q153.291 219.394 154.107 218.826 Q154.922 218.233 155.787 218.233 Q156.948 218.233 157.615 218.974 Q158.306 219.691 158.306 220.704 Q158.306 221.717 157.615 222.458 Q156.948 223.174 155.787 223.174 Q155.218 223.174 154.922 223.075 Q155.589 225.397 157.615 227.077 Q159.665 228.757 162.358 228.757 Q165.742 228.757 167.768 225.471 Q168.978 223.347 168.978 218.53 Q168.978 214.281 168.064 212.156 Q166.656 208.92 163.766 208.92 Q159.665 208.92 157.244 212.453 Q156.948 212.897 156.602 212.922 Q156.108 212.922 155.984 212.65 Q155.885 212.354 155.885 211.588 L155.885 196.618 Q155.885 195.407 156.379 195.407 Q156.577 195.407 156.997 195.556 Q160.184 196.964 163.716 196.988 Q167.348 196.988 170.609 195.506 Q170.856 195.358 171.004 195.358 Q171.498 195.358 171.523 195.926 Q171.523 196.124 171.103 196.717 Q170.707 197.285 169.843 198.051 Q168.978 198.792 167.866 199.508 Q166.755 200.225 165.124 200.719 Q163.519 201.188 161.74 201.188 Q159.616 201.188 157.442 200.521 L157.442 210.378 Q160.06 207.809 163.865 207.809 Q167.916 207.809 170.707 211.069 Q173.499 214.33 173.499 218.876 Q173.499 223.643 170.189 226.904 Q166.903 230.165 162.456 230.165 Q158.405 230.165 155.836 227.275 Q153.291 224.384 153.291 220.901 Z" fill="#000000" fill-rule="nonzero" fill-opacity="1" /><path clip-path="url(#clip390)" d="M181.132 228.238 Q180.366 227.423 180.366 226.361 Q180.366 225.299 181.132 224.533 Q181.898 223.742 183.059 223.742 Q184.171 223.742 184.912 224.483 Q185.678 225.2 185.678 226.385 Q185.678 227.547 184.862 228.312 Q184.072 229.053 183.059 229.053 Q181.898 229.053 181.132 228.238 Z" fill="#000000" fill-rule="nonzero" fill-opacity="1" /><path clip-path="url(#clip390)" d="M192.1 212.873 Q192.1 205.437 193.978 201.386 Q196.596 195.358 202.772 195.358 Q204.082 195.358 205.44 195.729 Q206.824 196.074 208.553 197.433 Q210.307 198.792 211.369 201.015 Q213.395 205.314 213.395 212.873 Q213.395 220.259 211.517 224.286 Q208.775 230.165 202.723 230.165 Q200.45 230.165 198.128 229.004 Q195.831 227.843 194.373 225.051 Q192.1 220.877 192.1 212.873 M196.3 212.255 Q196.3 219.888 196.843 222.927 Q197.461 226.213 199.141 227.645 Q200.845 229.053 202.723 229.053 Q204.749 229.053 206.428 227.547 Q208.133 226.015 208.652 222.729 Q209.22 219.493 209.195 212.255 Q209.195 205.215 208.701 202.399 Q208.034 199.113 206.255 197.804 Q204.502 196.47 202.723 196.47 Q202.056 196.47 201.339 196.667 Q200.648 196.865 199.635 197.433 Q198.622 198.001 197.832 199.409 Q197.066 200.817 196.695 202.942 Q196.3 205.684 196.3 212.255 Z" fill="#000000" fill-rule="nonzero" fill-opacity="1" /><path clip-path="url(#clip390)" d="M82.5735 778.475 L16.6159 778.475 L16.6159 768.523 L18.1296 768.523 L18.1296 774.063 L81.0598 774.063 L81.0598 768.523 L82.5735 768.523 L82.5735 778.475 Z" fill="#000000" fill-rule="nonzero" fill-opacity="1" /><path clip-path="url(#clip390)" d="M56.6478 713.147 Q56.9054 713.147 57.9038 713.437 Q58.9022 713.727 60.4481 714.436 Q61.994 715.112 63.411 716.078 Q64.7959 717.012 65.8264 718.558 Q66.8248 720.072 66.8248 721.811 Q66.8248 724.129 65.2789 725.675 Q63.7331 727.221 61.4142 727.221 Q60.1582 727.221 57.775 726.352 Q46.8894 722.262 42.9925 722.262 Q38.3871 722.262 38.3871 725.836 Q38.3871 727.865 39.2244 729.701 Q40.0618 731.537 41.2212 732.728 Q42.3806 733.92 43.701 734.854 Q45.0215 735.788 45.891 736.207 Q46.7606 736.593 47.147 736.69 L63.0567 740.651 Q64.4094 740.973 65.0535 741.199 Q65.6976 741.424 66.2451 742.036 Q66.8248 742.648 66.8248 743.614 Q66.8248 744.419 66.3417 744.999 Q65.8587 745.546 65.0213 745.546 Q64.8925 745.546 64.2162 745.385 Q63.5398 745.224 62.6059 744.999 Q61.6719 744.773 61.1244 744.677 Q56.7444 743.517 56.1325 743.356 L48.4675 741.521 Q44.6672 740.522 42.9925 740.522 Q38.3871 740.522 38.3871 744.097 Q38.3871 745.868 39.0634 747.543 Q39.7075 749.186 40.6093 750.313 Q41.511 751.44 42.7671 752.471 Q43.9909 753.469 44.8282 753.984 Q45.6334 754.467 46.4385 754.854 L49.7235 755.691 Q50.6253 755.884 54.1357 756.818 L60.0938 758.268 Q64.5382 759.298 64.9569 759.524 Q65.8587 759.846 66.3417 760.554 Q66.8248 761.263 66.8248 761.971 Q66.8248 762.777 66.3417 763.324 Q65.8587 763.872 65.0213 763.872 Q64.8925 763.872 64.4094 763.775 Q63.9263 763.678 63.25 763.517 Q62.5737 763.356 62.1872 763.292 L46.9538 759.459 Q44.1841 758.751 43.3146 758.59 Q42.4128 758.397 41.4144 758.397 Q38.3871 758.397 38.3871 760.458 Q38.3871 762.132 40.3838 763.227 Q42.3806 764.322 46.2453 765.256 Q47.3081 765.546 47.5335 765.739 Q47.759 765.9 47.759 766.384 Q47.7268 767.189 47.0826 767.189 Q46.9216 767.189 45.891 766.931 Q44.8604 766.673 43.3146 766.19 Q41.7365 765.675 40.7059 765.128 Q40.0296 764.805 39.5787 764.516 Q39.1278 764.226 38.4193 763.646 Q37.7107 763.066 37.3243 762.197 Q36.9378 761.327 36.9378 760.264 Q36.9378 757.913 38.4515 756.174 Q39.9651 754.403 42.6704 754.178 Q36.9378 749.894 36.9378 743.904 Q36.9378 740.522 38.6447 738.493 Q40.2872 736.593 43.3146 736.368 Q36.9378 731.923 36.9378 725.611 Q36.9378 721.972 38.8379 720.007 Q40.7059 718.043 43.9909 718.043 Q45.6978 718.043 48.9506 718.912 Q52.1712 719.782 53.7815 720.361 Q55.3917 720.941 58.4835 722.068 Q61.4465 723.26 63.1856 723.26 Q64.3128 723.26 64.8281 722.873 Q65.3434 722.487 65.3434 721.65 Q65.3434 720.361 64.6026 719.234 Q63.8297 718.107 62.5737 717.302 Q61.2854 716.464 59.9972 715.917 Q58.6767 715.369 57.1953 714.951 Q56.3901 714.693 56.1969 714.564 Q56.0037 714.403 56.0037 713.952 Q56.0037 713.147 56.6478 713.147 Z" fill="#000000" fill-rule="nonzero" fill-opacity="1" /><path clip-path="url(#clip390)" d="M81.0598 710.099 L81.0598 704.56 L18.1296 704.56 L18.1296 710.099 L16.6159 710.099 L16.6159 700.148 L82.5735 700.148 L82.5735 710.099 L81.0598 710.099 Z" fill="#000000" fill-rule="nonzero" fill-opacity="1" /><polyline clip-path="url(#clip392)" style="stroke:#ba3d3a; stroke-linecap:round; stroke-linejoin:round; stroke-width:8; stroke-opacity:1; fill:none" points="308.924,748.671 311.552,743.678 314.18,738.228 316.808,732.432 319.437,726.564 322.065,720.578 324.693,714.569 327.321,708.455 329.95,702.302 332.578,696.188 335.206,690.089 337.834,684.004 340.462,677.942 343.091,671.958 345.719,666.357 348.347,661.325 350.975,657.133 353.603,654.167 356.232,652.548 358.86,652.569 361.488,654.122 364.116,657.164 366.745,661.471 369.373,666.912 372.001,673.497 374.629,681.126 377.257,689.777 379.886,699.184 382.514,709.011 385.142,718.897 387.77,728.566 390.399,737.887 393.027,746.749 395.655,755.117 398.283,762.886 400.911,769.914 403.54,776.028 406.168,781.154 408.796,785.267 411.424,788.453 414.052,790.816 416.681,792.477 419.309,793.531 421.937,794.019 424.565,794.052 427.194,793.748 429.822,793.278 432.45,792.856 435.078,792.668 437.706,792.883 440.335,793.651 442.963,795.202 445.591,797.823 448.219,801.658 450.847,806.87 453.476,813.466 456.104,821.342 458.732,830.251 461.36,840.04 463.989,850.529 466.617,861.637 469.245,873.203 471.873,885.21 474.501,897.364 477.13,909.455 479.758,921.268 482.386,932.417 485.014,942.703 487.643,951.817 490.271,959.447 492.899,965.218 495.527,968.868 498.155,970.145 500.784,968.817 503.412,964.867 506.04,958.069 508.668,948.483 511.296,935.971 513.925,920.67 516.553,902.734 519.181,882.237 521.809,859.344 524.438,834.159 527.066,806.778 529.694,777.353 532.322,746.164 534.95,713.634 537.579,680.182 540.207,646.216 542.835,612.132 545.463,577.991 548.091,543.724 550.72,509.105 553.348,474.221 555.976,439.565 558.604,406.214 561.233,375.296 563.861,347.327 566.489,321.816 569.117,297.563 571.745,273.33 574.374,248.824 577.002,225.303 579.63,205.562 582.258,192.897 584.886,189.988 587.515,197.957 590.143,216.189 592.771,242.621 595.399,274.46 598.028,308.917 600.656,344.024 603.284,379.264 605.912,415.596 608.54,455.637 611.169,502.409 613.797,557.769 616.425,621.278 619.053,690.541 621.682,761.442 624.31,829.538 626.938,891.661 629.566,947.288 632.194,996.988 634.823,1042.3 637.451,1085.91 640.079,1128.79 642.707,1171.27 645.335,1212.76 647.964,1252.09 650.592,1287.65 653.22,1318.27 655.848,1342.8 658.477,1361.05 661.105,1373.61 663.733,1381.06 666.361,1384.24 668.989,1383.49 671.618,1379.08 674.246,1370.87 676.874,1358.44 679.502,1341.47 682.13,1319.71 684.759,1293.17 687.387,1262.12 690.015,1226.96 692.643,1188.35 695.272,1146.82 697.9,1102.73 700.528,1056.43 703.156,1008.24 705.784,958.491 708.413,907.453 711.041,855.34 713.669,802.273 716.297,748.253 718.926,693.287 721.554,637.661 724.182,581.898 726.81,526.946 729.438,473.734 732.067,423.225 734.695,375.998 737.323,332.32 739.951,292.038 742.579,254.964 745.208,220.918 747.836,190.087 750.464,162.856 753.092,140.013 755.721,122.296 758.349,110.2 760.977,103.81 763.605,103.169 766.233,107.92 768.862,117.728 771.49,131.918 774.118,150.261 776.746,172.562 779.374,198.508 782.003,228.137 784.631,261.524 787.259,298.482 789.887,338.854 792.516,381.969 795.144,427.309 797.772,473.841 800.4,520.721 803.028,567.38 805.657,613.325 808.285,658.357 810.913,702.162 813.541,744.443 816.169,784.904 818.798,823.281 821.426,859.568 824.054,893.775 826.682,926.173 829.311,956.875 831.939,985.861 834.567,1013.04 837.195,1038.32 839.823,1061.72 842.452,1083.31 845.08,1103.2 847.708,1121.44 850.336,1137.96 852.965,1152.54 855.593,1164.92 858.221,1174.99 860.849,1182.83 863.477,1188.69 866.106,1192.79 868.734,1195.31 871.362,1196.24 873.99,1195.49 876.618,1192.93 879.247,1188.47 881.875,1182.08 884.503,1173.68 887.131,1163.22 889.76,1150.68 892.388,1135.93 895.016,1119.01 897.644,1099.87 900.272,1078.59 902.901,1055.12 905.529,1029.52 908.157,1001.91 910.785,972.321 913.413,940.939 916.042,908.006 918.67,873.762 921.298,838.569 923.926,802.712 926.555,766.643 929.183,730.677 931.811,695.137 934.439,660.454 937.067,626.766 939.696,594.4 942.324,563.535 944.952,534.157 947.58,506.619 950.209,481.072 952.837,457.768 955.465,436.954 958.093,418.921 960.721,403.814 963.35,391.694 965.978,382.542 968.606,376.27 971.234,372.753 973.862,371.84 976.491,373.335 979.119,377.047 981.747,382.766 984.375,390.32 987.004,399.524 989.632,410.274 992.26,422.461 994.888,435.902 997.516,450.34 1000.14,465.492 1002.77,481.106 1005.4,496.958 1008.03,512.89 1010.66,528.841 1013.29,544.838 1015.91,560.948 1018.54,577.266 1021.17,593.809 1023.8,610.548 1026.43,627.431 1029.05,644.32 1031.68,661.104 1034.31,677.658 1036.94,693.991 1039.57,710.12 1042.2,726.081 1044.82,741.996 1047.45,757.963 1050.08,774.052 1052.71,790.338 1055.34,806.851 1057.97,823.657 1060.59,840.601 1063.22,857.646 1065.85,874.865 1068.48,892.011 1071.11,909.041 1073.73,925.48 1076.36,941.394 1078.99,956.524 1081.62,970.532 1084.25,983.206 1086.88,993.617 1089.5,1002.37 1092.13,1009.87 1094.76,1016.02 1097.39,1020.71 1100.02,1024.24 1102.65,1026.45 1105.27,1027.44 1107.9,1027.25 1110.53,1025.77 1113.16,1022.97 1115.79,1018.76 1118.41,1013.11 1121.04,1006.01 1123.67,997.475 1126.3,987.598 1128.93,976.39 1131.56,963.76 1134.18,949.617 1136.81,933.841 1139.44,916.545 1142.07,897.872 1144.7,877.972 1147.32,857.018 1149.95,835.022 1152.58,812.216 1155.21,788.987 1157.84,765.569 1160.47,742.113 1163.09,718.837 1165.72,696.177 1168.35,674.38 1170.98,653.581 1173.61,633.767 1176.24,614.861 1178.86,596.848 1181.49,579.805 1184.12,564.058 1186.75,549.754 1189.38,537.168 1192,526.556 1194.63,517.878 1197.26,511.206 1199.89,506.498 1202.52,503.989 1205.15,503.76 1207.77,505.801 1210.4,510.192 1213.03,516.796 1215.66,525.312 1218.29,535.454 1220.91,546.748 1223.54,559.265 1226.17,572.808 1228.8,587.177 1231.43,602.186 1234.06,617.625 1236.68,633.719 1239.31,649.831 1241.94,665.98 1244.57,681.867 1247.2,697.743 1249.83,713.136 1252.45,727.973 1255.08,742.115 1257.71,755.738 1260.34,768.699 1262.97,781.081 1265.59,792.831 1268.22,803.954 1270.85,814.297 1273.48,823.694 1276.11,831.984 1278.74,838.955 1281.36,844.533 1283.99,848.773 1286.62,851.741 1289.25,853.555 1291.88,854.301 1294.5,854.021 1297.13,852.734 1299.76,850.465 1302.39,847.375 1305.02,843.512 1307.65,838.984 1310.27,833.913 1312.9,828.5 1315.53,822.91 1318.16,817.235 1320.79,811.505 1323.42,805.818 1326.04,800.096 1328.67,794.336 1331.3,788.425 1333.93,782.389 1336.56,776.138 1339.18,769.671 1341.81,763.034 1344.44,756.234 1347.07,749.253 1349.7,742.146 1352.33,735.009 1354.95,728.068 1357.58,721.514 1360.21,715.622 1362.84,710.476 1365.47,706.184 1368.09,702.681 1370.72,699.943 1373.35,697.915 1375.98,696.707 1378.61,696.276 1381.24,696.639 1383.86,697.816 1386.49,699.77 1389.12,702.297 1391.75,705.289 1394.38,708.661 1397.01,712.395 1399.63,716.384 1402.26,720.435 1404.89,724.521 1407.52,728.511 1410.15,732.299 1412.77,735.822 1415.4,739.177 1418.03,742.461 1420.66,745.79 1423.29,749.266 1425.92,752.907 1428.54,756.612 1431.17,760.296 1433.8,763.853 1436.43,767.188 1439.06,770.174 1441.68,772.822 1444.31,775.15 1446.94,777.199 1449.57,779.014 1452.2,780.736 1454.83,782.527 1457.45,784.497 1460.08,786.692 1462.71,789.137 1465.34,791.776 1467.97,794.575 1470.6,797.471 1473.22,800.443 1475.85,803.433 1478.48,806.306 1481.11,808.952 1483.74,811.235 1486.36,813.067 1488.99,814.401 1491.62,815.181 1494.25,815.431 1496.88,815.055 1499.51,813.96 1502.13,812.063 1504.76,809.177 1507.39,805.272 1510.02,800.314 1512.65,794.409 1515.27,787.645 1517.9,780.171 1520.53,772.108 1523.16,763.82 1525.79,755.575 1528.42,747.484 1531.04,739.69 1533.67,731.969 1536.3,724.384 1538.93,716.833 1541.56,709.229 1544.19,701.603 1546.81,693.929 1549.44,686.241 1552.07,678.701 1554.7,671.412 1557.33,664.472 1559.95,657.969 1562.58,652.083 1565.21,647.013 1567.84,642.924 1570.47,639.98 1573.1,638.228 1575.72,637.556 1578.35,637.787 1580.98,638.666 1583.61,640.015 1586.24,641.734 1588.86,643.835 1591.49,646.421 1594.12,649.582 1596.75,653.404 1599.38,657.839 1602.01,662.762 1604.63,668 1607.26,673.452 1609.89,679.071 1612.52,684.957 1615.15,691.268 1617.78,698.099 1620.4,705.505 1623.03,713.384 1625.66,721.622 1628.29,730.107 1630.92,738.742 1633.54,747.629 1636.17,756.688 1638.8,765.937 1641.43,775.277 1644.06,784.571 1646.69,793.639 1649.31,802.228 1651.94,810.173 1654.57,817.379 1657.2,823.793 1659.83,829.566 1662.46,834.764 1665.08,839.619 1667.71,844.267 1670.34,848.805 1672.97,853.202 1675.6,857.34 1678.22,861.153 1680.85,864.455 1683.48,866.953 1686.11,868.467 1688.74,868.755 1691.37,867.633 1693.99,865.049 1696.62,860.854 1699.25,855.238 1701.88,848.114 1704.51,839.817 1707.13,830.526 1709.76,820.402 1712.39,809.719 1715.02,798.598 1717.65,787.356 1720.28,776.174 1722.9,765.333 1725.53,755.07 1728.16,745.396 1730.79,736.398 1733.42,728.082 1736.05,720.384 1738.67,713.262 1741.3,706.697 1743.93,700.741 1746.56,695.355 1749.19,690.495 1751.81,686.156 1754.44,682.264 1757.07,678.839 1759.7,676.026 1762.33,674.045 1764.96,673.097 1767.58,673.199 1770.21,674.341 1772.84,676.351 1775.47,679.027 1778.1,682.212 1780.72,685.846 1783.35,689.928 1785.98,694.381 1788.61,699.07 1791.24,703.927 1793.87,708.817 1796.49,713.74 1799.12,718.66 1801.75,723.684 1804.38,728.798 1807.01,733.967 1809.64,739.034 1812.26,743.878 1814.89,748.345 1817.52,752.418 1820.15,755.993 1822.78,759.14 1825.4,761.94 1828.03,764.356 1830.66,766.391 1833.29,767.946 1835.92,769.063 1838.55,769.721 1841.17,769.919 1843.8,769.846 1846.43,769.512 1849.06,769.003 1851.69,768.15 1854.31,766.746 1856.94,764.481 1859.57,761.155 1862.2,756.654 1864.83,751.099 1867.46,744.727 1870.08,737.837 1872.71,730.598 1875.34,723.093 1877.97,715.464 1880.6,707.86 1883.23,700.533 1885.85,693.842 1888.48,688.092 1891.11,683.596 1893.74,680.455 1896.37,678.652 1898.99,678 1901.62,678.282 1904.25,679.402 1906.88,681.278 1909.51,683.842 1912.14,687.078 1914.76,690.836 1917.39,695.003 1920.02,699.374 1922.65,703.849 1925.28,708.244 1927.9,712.395 1930.53,716.259 1933.16,719.916 1935.79,723.399 1938.42,726.837 1941.05,730.333 1943.67,734.249 1946.3,738.681 1948.93,743.319 1951.56,748.004 1954.19,752.878 1956.82,758.018 1959.44,763.336 1962.07,768.768 1964.7,775.405 1967.33,782.131 1969.96,789.062 1972.58,797.316 1975.21,806.422 1977.84,817.34 1980.47,828.827 1983.1,841.01 1985.73,854.145 1988.35,867.851 1990.98,882.329 1993.61,896.497 1996.24,909.961 1998.87,922.81 2001.49,934.621 2004.12,945.267 2006.75,954.139 2009.38,960.848 2012.01,965.269 2014.64,967.167 2017.26,966.501 2019.89,963.076 2022.52,956.785 2025.15,947.515 2027.78,935.142 2030.41,919.631 2033.03,901.134 2035.66,879.846 2038.29,856.055 2040.92,830.008 2043.55,802.073 2046.17,772.627 2048.8,742.078 2051.43,710.933 2054.06,679.748 2056.69,649.011 2059.32,619.21 2061.94,590.74 2064.57,564.098 2067.2,539.564 2069.83,517.52 2072.46,498.274 2075.08,482.087 2077.71,469.005 2080.34,459.025 2082.97,452.131 2085.6,448.22 2088.23,447.145 2090.85,448.753 2093.48,452.944 2096.11,459.517 2098.74,468.297 2101.37,479.186 2104,491.972 2106.62,506.539 2109.25,522.705 2111.88,540.4 2114.51,559.4 2117.14,579.329 2119.76,599.98 2122.39,620.938 2125.02,641.938 2127.65,662.745 2130.28,683.206 2132.91,703.345 2135.53,723.157 2138.16,742.826 2140.79,762.336 2143.42,781.714 2146.05,800.965 2148.67,819.894 2151.3,838.3 2153.93,855.89 2156.56,872.429 2159.19,887.489 2161.82,900.749 2164.44,912.095 2167.07,921.452 2169.7,928.976 2172.33,934.904 2174.96,939.449 2177.59,942.51 2180.21,943.782 2182.84,942.992 2185.47,940.036 2188.1,935.113 2190.73,928.474 2193.35,920.317 2195.98,910.73 2198.61,899.862 2201.24,888.098 2203.87,875.9 2206.5,863.839 2209.12,852.163 2211.75,840.94 2214.38,830.074 2217.01,819.561 2219.64,809.697 2222.26,801.047 2224.89,794.273 2227.52,789.788 2230.15,787.643 2232.78,787.726 2235.41,789.762 2238.03,793.611 2240.66,799.244 2243.29,806.781 2245.92,816.287 2248.55,827.651 2251.18,840.485 2253.8,854.196 2256.43,867.962 2259.06,881.063 2261.69,892.796 2264.32,902.631 2266.94,909.841 2269.57,913.841 2272.2,913.849 2274.83,909.324 2277.46,899.909 2280.09,885.687 2282.71,867.192 2285.34,844.979 2287.97,819.471 2290.6,790.911 2293.23,759.049 "/>
<polyline clip-path="url(#clip392)" style="stroke:#4a7945; stroke-linecap:round; stroke-linejoin:round; stroke-width:8; stroke-opacity:1; fill:none" points="308.924,604.771 311.552,613.537 314.18,620.645 316.808,624.708 319.437,629.108 322.065,631.833 324.693,634.953 327.321,636.908 329.95,639.254 332.578,640.79 335.206,642.55 337.834,643.632 340.462,644.846 343.091,645.578 345.719,646.596 348.347,647.363 350.975,648.416 353.603,649.519 356.232,650.843 358.86,652.357 361.488,653.958 364.116,655.62 366.745,657.139 369.373,658.544 372.001,659.75 374.629,660.967 377.257,662.067 379.886,663.402 382.514,664.631 385.142,666.062 387.77,667.246 390.399,668.529 393.027,669.551 395.655,670.702 398.283,671.737 400.911,673.054 403.54,674.383 406.168,675.985 408.796,677.561 411.424,679.286 414.052,680.905 416.681,682.588 419.309,684.153 421.937,685.775 424.565,687.213 427.194,688.537 429.822,689.448 432.45,689.912 435.078,689.656 437.706,688.689 440.335,686.768 442.963,683.849 445.591,679.708 448.219,674.541 450.847,668.288 453.476,661.284 456.104,653.633 458.732,645.668 461.36,637.333 463.989,628.789 466.617,619.902 469.245,610.779 471.873,601.239 474.501,591.499 477.13,581.487 479.758,571.261 482.386,560.927 485.014,550.442 487.643,539.857 490.271,529.196 492.899,518.597 495.527,508.059 498.155,497.661 500.784,487.448 503.412,477.379 506.04,467.487 508.668,457.812 511.296,448.305 513.925,439.146 516.553,430.066 519.181,421.228 521.809,412.426 524.438,403.782 527.066,395.15 529.694,386.769 532.322,378.568 534.95,370.756 537.579,363.107 540.207,355.753 542.835,348.332 545.463,340.711 548.091,332.52 550.72,323.785 553.348,314.604 555.976,305.498 558.604,296.933 561.233,289.209 563.861,281.889 566.489,274.12 569.117,264.722 571.745,252.854 574.374,238.346 577.002,222.037 579.63,205.517 582.258,190.539 584.886,178.533 587.515,170.196 590.143,165.547 592.771,163.853 595.399,163.963 598.028,164.281 600.656,163.192 603.284,159.323 605.912,151.903 608.54,141.12 611.169,128.604 613.797,116.515 616.425,107.003 619.053,101.453 621.682,100.7 624.31,104.1 626.938,110.107 629.566,116.544 632.194,122.36 634.823,125.776 637.451,126.257 640.079,124.411 642.707,120.876 645.335,116.54 647.964,112.347 650.592,108.997 653.22,106.825 655.848,106.156 658.477,106.582 661.105,107.493 663.733,108.478 666.361,108.959 668.989,108.824 671.618,107.924 674.246,106.339 676.874,104.432 679.502,102.435 682.13,100.675 684.759,99.3068 687.387,98.4178 690.015,97.9862 692.643,97.8911 695.272,97.8428 697.9,97.8324 700.528,97.7031 703.156,97.5238 705.784,97.1211 708.413,96.5093 711.041,95.5176 713.669,94.173 716.297,92.3588 718.926,90.3847 721.554,88.426 724.182,86.962 726.81,86.1857 729.438,86.2956 732.067,87.1744 734.695,88.6223 737.323,90.2121 739.951,91.6173 742.579,92.5591 745.208,93.0142 747.836,93.1214 750.464,93.1858 753.092,93.6353 755.721,94.8009 758.349,96.7752 760.977,99.4807 763.605,102.911 766.233,106.824 768.862,111.104 771.49,115.336 774.118,119.488 776.746,123.583 779.374,127.494 782.003,131.307 784.631,135.358 787.259,139.727 789.887,144.775 792.516,150.474 795.144,156.981 797.772,164.211 800.4,171.808 803.028,179.619 805.657,187.433 808.285,195.175 810.913,202.918 813.541,210.582 816.169,218.205 818.798,225.58 821.426,232.606 824.054,239.11 826.682,245.002 829.311,250.39 831.939,255.393 834.567,260.088 837.195,264.512 839.823,268.563 842.452,272.229 845.08,275.438 847.708,278.257 850.336,280.795 852.965,283.249 855.593,285.764 858.221,288.339 860.849,290.83 863.477,293.053 866.106,294.873 868.734,296.181 871.362,297.023 873.99,297.487 876.618,297.672 879.247,297.618 881.875,297.343 884.503,296.879 887.131,296.278 889.76,295.5 892.388,294.689 895.016,293.799 897.644,292.913 900.272,292.005 902.901,291.135 905.529,290.367 908.157,289.697 910.785,289.204 913.413,288.998 916.042,289.056 918.67,289.483 921.298,290.246 923.926,291.405 926.555,292.953 929.183,294.808 931.811,297.028 934.439,299.536 937.067,302.212 939.696,305.165 942.324,308.156 944.952,311.263 947.58,314.598 950.209,318.133 952.837,321.959 955.465,326.138 958.093,330.738 960.721,335.717 963.35,341.03 965.978,346.619 968.606,352.413 971.234,358.364 973.862,364.417 976.491,370.513 979.119,376.609 981.747,382.657 984.375,388.644 987.004,394.542 989.632,400.392 992.26,406.251 994.888,412.129 997.516,417.973 1000.14,423.699 1002.77,429.213 1005.4,434.426 1008.03,439.234 1010.66,443.593 1013.29,447.493 1015.91,450.989 1018.54,454.159 1021.17,457.116 1023.8,459.887 1026.43,462.56 1029.05,465.111 1031.68,467.531 1034.31,469.712 1036.94,471.589 1039.57,473.122 1042.2,474.259 1044.82,474.955 1047.45,475.26 1050.08,475.168 1052.71,474.737 1055.34,473.975 1057.97,472.974 1060.59,471.857 1063.22,470.512 1065.85,469.034 1068.48,467.552 1071.11,466.099 1073.73,464.916 1076.36,463.683 1078.99,462.774 1081.62,462.113 1084.25,461.986 1086.88,462.721 1089.5,463.452 1092.13,464.007 1094.76,464.542 1097.39,465.118 1100.02,465.46 1102.65,465.755 1105.27,465.894 1107.9,465.831 1110.53,465.661 1113.16,465.395 1115.79,465.078 1118.41,464.744 1121.04,464.396 1123.67,464.035 1126.3,463.6 1128.93,463.023 1131.56,462.36 1134.18,461.658 1136.81,461.088 1139.44,460.717 1142.07,460.521 1144.7,460.516 1147.32,460.631 1149.95,460.937 1152.58,461.593 1155.21,462.539 1157.84,463.684 1160.47,465.011 1163.09,466.639 1165.72,468.582 1168.35,470.668 1170.98,472.79 1173.61,474.778 1176.24,476.606 1178.86,478.274 1181.49,479.932 1184.12,481.73 1186.75,483.638 1189.38,485.809 1192,488.227 1194.63,490.756 1197.26,493.406 1199.89,496.11 1202.52,499.066 1205.15,502.28 1207.77,505.754 1210.4,509.598 1213.03,513.786 1215.66,518.191 1218.29,522.742 1220.91,527.147 1223.54,531.529 1226.17,535.973 1228.8,540.341 1231.43,544.754 1234.06,548.907 1236.68,553.307 1239.31,557.662 1241.94,561.994 1244.57,566.135 1247.2,570.262 1249.83,574.471 1252.45,578.539 1255.08,582.447 1257.71,586.107 1260.34,589.682 1262.97,593.013 1265.59,596.286 1268.22,599.429 1270.85,602.675 1273.48,605.969 1276.11,609.453 1278.74,613.1 1281.36,616.89 1283.99,620.687 1286.62,624.491 1289.25,628.199 1291.88,631.842 1294.5,635.413 1297.13,638.973 1299.76,642.534 1302.39,646.029 1305.02,649.495 1307.65,652.922 1310.27,656.305 1312.9,659.556 1315.53,662.62 1318.16,665.434 1320.79,668.049 1323.42,670.354 1326.04,672.421 1328.67,674.211 1331.3,675.827 1333.93,677.246 1336.56,678.516 1339.18,679.689 1341.81,680.778 1344.44,681.739 1347.07,682.646 1349.7,683.51 1352.33,684.445 1354.95,685.462 1357.58,686.617 1360.21,687.881 1362.84,689.194 1365.47,690.515 1368.09,691.749 1370.72,692.874 1373.35,693.878 1375.98,694.858 1378.61,695.762 1381.24,696.633 1383.86,697.515 1386.49,698.442 1389.12,699.32 1391.75,700.124 1394.38,700.857 1397.01,701.564 1399.63,702.309 1402.26,702.994 1404.89,703.647 1407.52,704.272 1410.15,704.813 1412.77,705.175 1415.4,705.3 1418.03,705.207 1420.66,704.902 1423.29,704.459 1425.92,703.989 1428.54,703.572 1431.17,703.23 1433.8,702.997 1436.43,702.888 1439.06,702.906 1441.68,702.953 1444.31,703.015 1446.94,703.031 1449.57,702.966 1452.2,702.685 1454.83,702.128 1457.45,701.263 1460.08,700.119 1462.71,698.707 1465.34,697.105 1467.97,695.319 1470.6,693.394 1473.22,691.301 1475.85,689.072 1478.48,686.768 1481.11,684.424 1483.74,682.093 1486.36,679.788 1488.99,677.496 1491.62,675.216 1494.25,672.88 1496.88,670.487 1499.51,668.081 1502.13,665.635 1504.76,663.291 1507.39,661.076 1510.02,659.084 1512.65,657.313 1515.27,655.795 1517.9,654.525 1520.53,653.583 1523.16,652.989 1525.79,652.547 1528.42,652.219 1531.04,651.803 1533.67,651.212 1536.3,650.538 1538.93,649.62 1541.56,648.564 1544.19,647.361 1546.81,646.038 1549.44,644.65 1552.07,643.307 1554.7,641.979 1557.33,640.71 1559.95,639.493 1562.58,638.446 1565.21,637.614 1567.84,637.067 1570.47,636.855 1573.1,636.971 1575.72,637.312 1578.35,637.775 1580.98,638.195 1583.61,638.47 1586.24,638.542 1588.86,638.412 1591.49,638.173 1594.12,637.887 1596.75,637.684 1599.38,637.578 1602.01,637.563 1604.63,637.515 1607.26,637.367 1609.89,636.99 1612.52,636.383 1615.15,635.592 1617.78,634.738 1620.4,633.9 1623.03,633.19 1625.66,632.535 1628.29,631.987 1630.92,631.372 1633.54,630.748 1636.17,630.123 1638.8,629.533 1641.43,629.053 1644.06,628.755 1646.69,628.689 1649.31,628.923 1651.94,629.362 1654.57,630.001 1657.2,630.691 1659.83,631.313 1662.46,631.786 1665.08,631.957 1667.71,631.797 1670.34,631.293 1672.97,630.517 1675.6,629.55 1678.22,628.396 1680.85,627.163 1683.48,625.998 1686.11,624.936 1688.74,624.084 1691.37,623.521 1693.99,623.224 1696.62,623.339 1699.25,623.732 1701.88,624.539 1704.51,625.696 1707.13,627.059 1709.76,628.739 1712.39,630.575 1715.02,632.682 1717.65,634.971 1720.28,637.454 1722.9,640.093 1725.53,642.771 1728.16,645.38 1730.79,647.966 1733.42,650.382 1736.05,652.669 1738.67,654.772 1741.3,656.788 1743.93,658.683 1746.56,660.454 1749.19,662.063 1751.81,663.552 1754.44,664.845 1757.07,666.062 1759.7,667.282 1762.33,668.677 1764.96,670.3 1767.58,672.138 1770.21,674.176 1772.84,676.315 1775.47,678.455 1778.1,680.528 1780.72,682.547 1783.35,684.557 1785.98,686.606 1788.61,688.606 1791.24,690.607 1793.87,692.49 1796.49,694.307 1799.12,695.974 1801.75,697.607 1804.38,699.23 1807.01,700.965 1809.64,702.776 1812.26,704.712 1814.89,706.664 1817.52,708.647 1820.15,710.595 1822.78,712.429 1825.4,714.145 1828.03,715.804 1830.66,717.368 1833.29,718.913 1835.92,720.298 1838.55,721.589 1841.17,722.684 1843.8,723.445 1846.43,723.84 1849.06,723.723 1851.69,723.115 1854.31,721.979 1856.94,720.403 1859.57,718.41 1862.2,716.136 1864.83,713.628 1867.46,710.985 1870.08,708.169 1872.71,705.172 1875.34,701.958 1877.97,698.624 1880.6,695.161 1883.23,691.739 1885.85,688.448 1888.48,685.41 1891.11,682.725 1893.74,680.405 1896.37,678.434 1898.99,676.714 1901.62,675.14 1904.25,673.682 1906.88,672.366 1909.51,671.155 1912.14,670.169 1914.76,669.352 1917.39,668.768 1920.02,668.305 1922.65,667.994 1925.28,667.74 1927.9,667.466 1930.53,666.963 1933.16,666.256 1935.79,665.21 1938.42,663.86 1941.05,662.059 1943.67,659.938 1946.3,657.787 1948.93,655.775 1951.56,653.588 1954.19,651.208 1956.82,648.558 1959.44,645.839 1962.07,642.416 1964.7,638.476 1967.33,634.975 1969.96,630.484 1972.58,625.298 1975.21,619.524 1977.84,613.047 1980.47,607.038 1983.1,600.466 1985.73,593.674 1988.35,586.573 1990.98,579.21 1993.61,572.292 1996.24,565.58 1998.87,558.783 2001.49,552.079 2004.12,545.289 2006.75,538.744 2009.38,532.476 2012.01,526.371 2014.64,520.472 2017.26,514.631 2019.89,508.906 2022.52,503.249 2025.15,497.711 2027.78,492.292 2030.41,487.168 2033.03,482.261 2035.66,477.677 2038.29,473.275 2040.92,469.18 2043.55,465.3 2046.17,461.742 2048.8,458.428 2051.43,455.539 2054.06,452.933 2056.69,450.724 2059.32,448.756 2061.94,447.161 2064.57,445.846 2067.2,444.844 2069.83,444.149 2072.46,443.841 2075.08,443.859 2077.71,444.153 2080.34,444.635 2082.97,445.326 2085.6,446.145 2088.23,447.063 2090.85,448.037 2093.48,449.097 2096.11,450.216 2098.74,451.332 2101.37,452.553 2104,453.786 2106.62,455.139 2109.25,456.538 2111.88,458.161 2114.51,460.034 2117.14,462.16 2119.76,464.469 2122.39,467.035 2125.02,469.581 2127.65,472.21 2130.28,474.582 2132.91,476.84 2135.53,478.727 2138.16,480.454 2140.79,481.965 2143.42,483.442 2146.05,484.873 2148.67,486.583 2151.3,488.495 2153.93,490.891 2156.56,493.658 2159.19,497.153 2161.82,501.113 2164.44,505.63 2167.07,510.428 2169.7,515.464 2172.33,520.432 2174.96,525.436 2177.59,530.565 2180.21,536.2 2182.84,542.428 2185.47,549.374 2188.1,556.828 2190.73,564.728 2193.35,573.016 2195.98,581.781 2198.61,591.11 2201.24,600.855 2203.87,610.931 2206.5,620.929 2209.12,630.849 2211.75,640.579 2214.38,650.47 2217.01,660.585 2219.64,671.15 2222.26,681.642 2224.89,691.527 2227.52,699.482 2230.15,704.544 2232.78,705.662 2235.41,702.98 2238.03,697.309 2240.66,689.375 2243.29,679.915 2245.92,669.105 2248.55,657.612 2251.18,645.57 2253.8,633.638 2256.43,621.944 2259.06,610.872 2261.69,600.397 2264.32,590.587 2266.94,581.622 2269.57,573.437 2272.2,566.582 2274.83,560.841 2277.46,557.153 2280.09,554.736 2282.71,554.982 2285.34,555.892 2287.97,560.707 2290.6,565.564 2293.23,583.665 "/>
<polyline clip-path="url(#clip392)" style="stroke:#dfba53; stroke-linecap:round; stroke-linejoin:round; stroke-width:4; stroke-opacity:1; fill:none" stroke-dasharray="16, 10" points="308.924,746.702 311.552,746.702 314.18,746.702 316.808,746.702 319.437,746.702 322.065,746.702 324.693,746.702 327.321,746.702 329.95,746.702 332.578,746.702 335.206,746.702 337.834,746.702 340.462,746.702 343.091,746.702 345.719,746.702 348.347,746.702 350.975,746.702 353.603,746.702 356.232,746.702 358.86,746.702 361.488,746.702 364.116,746.702 366.745,746.702 369.373,746.702 372.001,746.702 374.629,746.702 377.257,746.702 379.886,746.702 382.514,746.702 385.142,746.702 387.77,746.702 390.399,746.702 393.027,746.702 395.655,746.702 398.283,746.702 400.911,746.702 403.54,746.702 406.168,746.702 408.796,746.702 411.424,746.702 414.052,746.702 416.681,746.702 419.309,746.702 421.937,746.702 424.565,746.702 427.194,746.702 429.822,746.702 432.45,746.702 435.078,746.702 437.706,746.702 440.335,746.702 442.963,746.702 445.591,746.702 448.219,746.702 450.847,746.702 453.476,746.702 456.104,746.702 458.732,746.702 461.36,746.702 463.989,746.702 466.617,746.702 469.245,746.702 471.873,746.702 474.501,746.702 477.13,746.702 479.758,746.702 482.386,746.702 485.014,746.702 487.643,746.702 490.271,746.702 492.899,746.702 495.527,746.702 498.155,746.702 500.784,746.702 503.412,746.702 506.04,746.702 508.668,746.702 511.296,746.702 513.925,746.702 516.553,746.702 519.181,746.702 521.809,746.702 524.438,746.702 527.066,746.702 529.694,746.702 532.322,746.702 534.95,746.702 537.579,746.702 540.207,746.702 542.835,746.702 545.463,746.702 548.091,746.702 550.72,746.702 553.348,746.702 555.976,746.702 558.604,746.702 561.233,746.702 563.861,746.702 566.489,746.702 569.117,746.702 571.745,746.702 574.374,746.702 577.002,746.702 579.63,746.702 582.258,746.702 584.886,746.702 587.515,746.702 590.143,746.702 592.771,746.702 595.399,746.702 598.028,746.702 600.656,746.702 603.284,746.702 605.912,746.702 608.54,746.702 611.169,746.702 613.797,746.702 616.425,746.702 619.053,746.702 621.682,746.702 624.31,746.702 626.938,746.702 629.566,746.702 632.194,746.702 634.823,746.702 637.451,746.702 640.079,746.702 642.707,746.702 645.335,746.702 647.964,746.702 650.592,746.702 653.22,746.702 655.848,746.702 658.477,746.702 661.105,746.702 663.733,746.702 666.361,746.702 668.989,746.702 671.618,746.702 674.246,746.702 676.874,746.702 679.502,746.702 682.13,746.702 684.759,746.702 687.387,746.702 690.015,746.702 692.643,746.702 695.272,746.702 697.9,746.702 700.528,746.702 703.156,746.702 705.784,746.702 708.413,746.702 711.041,746.702 713.669,746.702 716.297,746.702 718.926,746.702 721.554,746.702 724.182,746.702 726.81,746.702 729.438,746.702 732.067,746.702 734.695,746.702 737.323,746.702 739.951,746.702 742.579,746.702 745.208,746.702 747.836,746.702 750.464,746.702 753.092,746.702 755.721,746.702 758.349,746.702 760.977,746.702 763.605,746.702 766.233,746.702 768.862,746.702 771.49,746.702 774.118,746.702 776.746,746.702 779.374,746.702 782.003,746.702 784.631,746.702 787.259,746.702 789.887,746.702 792.516,746.702 795.144,746.702 797.772,746.702 800.4,746.702 803.028,746.702 805.657,746.702 808.285,746.702 810.913,746.702 813.541,746.702 816.169,746.702 818.798,746.702 821.426,746.702 824.054,746.702 826.682,746.702 829.311,746.702 831.939,746.702 834.567,746.702 837.195,746.702 839.823,746.702 842.452,746.702 845.08,746.702 847.708,746.702 850.336,746.702 852.965,746.702 855.593,746.702 858.221,746.702 860.849,746.702 863.477,746.702 866.106,746.702 868.734,746.702 871.362,746.702 873.99,746.702 876.618,746.702 879.247,746.702 881.875,746.702 884.503,746.702 887.131,746.702 889.76,746.702 892.388,746.702 895.016,746.702 897.644,746.702 900.272,746.702 902.901,746.702 905.529,746.702 908.157,746.702 910.785,746.702 913.413,746.702 916.042,746.702 918.67,746.702 921.298,746.702 923.926,746.702 926.555,746.702 929.183,746.702 931.811,746.702 934.439,746.702 937.067,746.702 939.696,746.702 942.324,746.702 944.952,746.702 947.58,746.702 950.209,746.702 952.837,746.702 955.465,746.702 958.093,746.702 960.721,746.702 963.35,746.702 965.978,746.702 968.606,746.702 971.234,746.702 973.862,746.702 976.491,746.702 979.119,746.702 981.747,746.702 984.375,746.702 987.004,746.702 989.632,746.702 992.26,746.702 994.888,746.702 997.516,746.702 1000.14,746.702 1002.77,746.702 1005.4,746.702 1008.03,746.702 1010.66,746.702 1013.29,746.702 1015.91,746.702 1018.54,746.702 1021.17,746.702 1023.8,746.702 1026.43,746.702 1029.05,746.702 1031.68,746.702 1034.31,746.702 1036.94,746.702 1039.57,746.702 1042.2,746.702 1044.82,746.702 1047.45,746.702 1050.08,746.702 1052.71,746.702 1055.34,746.702 1057.97,746.702 1060.59,746.702 1063.22,746.702 1065.85,746.702 1068.48,746.702 1071.11,746.702 1073.73,746.702 1076.36,746.702 1078.99,746.702 1081.62,746.702 1084.25,746.702 1086.88,746.702 1089.5,746.702 1092.13,746.702 1094.76,746.702 1097.39,746.702 1100.02,746.702 1102.65,746.702 1105.27,746.702 1107.9,746.702 1110.53,746.702 1113.16,746.702 1115.79,746.702 1118.41,746.702 1121.04,746.702 1123.67,746.702 1126.3,746.702 1128.93,746.702 1131.56,746.702 1134.18,746.702 1136.81,746.702 1139.44,746.702 1142.07,746.702 1144.7,746.702 1147.32,746.702 1149.95,746.702 1152.58,746.702 1155.21,746.702 1157.84,746.702 1160.47,746.702 1163.09,746.702 1165.72,746.702 1168.35,746.702 1170.98,746.702 1173.61,746.702 1176.24,746.702 1178.86,746.702 1181.49,746.702 1184.12,746.702 1186.75,746.702 1189.38,746.702 1192,746.702 1194.63,746.702 1197.26,746.702 1199.89,746.702 1202.52,746.702 1205.15,746.702 1207.77,746.702 1210.4,746.702 1213.03,746.702 1215.66,746.702 1218.29,746.702 1220.91,746.702 1223.54,746.702 1226.17,746.702 1228.8,746.702 1231.43,746.702 1234.06,746.702 1236.68,746.702 1239.31,746.702 1241.94,746.702 1244.57,746.702 1247.2,746.702 1249.83,746.702 1252.45,746.702 1255.08,746.702 1257.71,746.702 1260.34,746.702 1262.97,746.702 1265.59,746.702 1268.22,746.702 1270.85,746.702 1273.48,746.702 1276.11,746.702 1278.74,746.702 1281.36,746.702 1283.99,746.702 1286.62,746.702 1289.25,746.702 1291.88,746.702 1294.5,746.702 1297.13,746.702 1299.76,746.702 1302.39,746.702 1305.02,746.702 1307.65,746.702 1310.27,746.702 1312.9,746.702 1315.53,746.702 1318.16,746.702 1320.79,746.702 1323.42,746.702 1326.04,746.702 1328.67,746.702 1331.3,746.702 1333.93,746.702 1336.56,746.702 1339.18,746.702 1341.81,746.702 1344.44,746.702 1347.07,746.702 1349.7,746.702 1352.33,746.702 1354.95,746.702 1357.58,746.702 1360.21,746.702 1362.84,746.702 1365.47,746.702 1368.09,746.702 1370.72,746.702 1373.35,746.702 1375.98,746.702 1378.61,746.702 1381.24,746.702 1383.86,746.702 1386.49,746.702 1389.12,746.702 1391.75,746.702 1394.38,746.702 1397.01,746.702 1399.63,746.702 1402.26,746.702 1404.89,746.702 1407.52,746.702 1410.15,746.702 1412.77,746.702 1415.4,746.702 1418.03,746.702 1420.66,746.702 1423.29,746.702 1425.92,746.702 1428.54,746.702 1431.17,746.702 1433.8,746.702 1436.43,746.702 1439.06,746.702 1441.68,746.702 1444.31,746.702 1446.94,746.702 1449.57,746.702 1452.2,746.702 1454.83,746.702 1457.45,746.702 1460.08,746.702 1462.71,746.702 1465.34,746.702 1467.97,746.702 1470.6,746.702 1473.22,746.702 1475.85,746.702 1478.48,746.702 1481.11,746.702 1483.74,746.702 1486.36,746.702 1488.99,746.702 1491.62,746.702 1494.25,746.702 1496.88,746.702 1499.51,746.702 1502.13,746.702 1504.76,746.702 1507.39,746.702 1510.02,746.702 1512.65,746.702 1515.27,746.702 1517.9,746.702 1520.53,746.702 1523.16,746.702 1525.79,746.702 1528.42,746.702 1531.04,746.702 1533.67,746.702 1536.3,746.702 1538.93,746.702 1541.56,746.702 1544.19,746.702 1546.81,746.702 1549.44,746.702 1552.07,746.702 1554.7,746.702 1557.33,746.702 1559.95,746.702 1562.58,746.702 1565.21,746.702 1567.84,746.702 1570.47,746.702 1573.1,746.702 1575.72,746.702 1578.35,746.702 1580.98,746.702 1583.61,746.702 1586.24,746.702 1588.86,746.702 1591.49,746.702 1594.12,746.702 1596.75,746.702 1599.38,746.702 1602.01,746.702 1604.63,746.702 1607.26,746.702 1609.89,746.702 1612.52,746.702 1615.15,746.702 1617.78,746.702 1620.4,746.702 1623.03,746.702 1625.66,746.702 1628.29,746.702 1630.92,746.702 1633.54,746.702 1636.17,746.702 1638.8,746.702 1641.43,746.702 1644.06,746.702 1646.69,746.702 1649.31,746.702 1651.94,746.702 1654.57,746.702 1657.2,746.702 1659.83,746.702 1662.46,746.702 1665.08,746.702 1667.71,746.702 1670.34,746.702 1672.97,746.702 1675.6,746.702 1678.22,746.702 1680.85,746.702 1683.48,746.702 1686.11,746.702 1688.74,746.702 1691.37,746.702 1693.99,746.702 1696.62,746.702 1699.25,746.702 1701.88,746.702 1704.51,746.702 1707.13,746.702 1709.76,746.702 1712.39,746.702 1715.02,746.702 1717.65,746.702 1720.28,746.702 1722.9,746.702 1725.53,746.702 1728.16,746.702 1730.79,746.702 1733.42,746.702 1736.05,746.702 1738.67,746.702 1741.3,746.702 1743.93,746.702 1746.56,746.702 1749.19,746.702 1751.81,746.702 1754.44,746.702 1757.07,746.702 1759.7,746.702 1762.33,746.702 1764.96,746.702 1767.58,746.702 1770.21,746.702 1772.84,746.702 1775.47,746.702 1778.1,746.702 1780.72,746.702 1783.35,746.702 1785.98,746.702 1788.61,746.702 1791.24,746.702 1793.87,746.702 1796.49,746.702 1799.12,746.702 1801.75,746.702 1804.38,746.702 1807.01,746.702 1809.64,746.702 1812.26,746.702 1814.89,746.702 1817.52,746.702 1820.15,746.702 1822.78,746.702 1825.4,746.702 1828.03,746.702 1830.66,746.702 1833.29,746.702 1835.92,746.702 1838.55,746.702 1841.17,746.702 1843.8,746.702 1846.43,746.702 1849.06,746.702 1851.69,746.702 1854.31,746.702 1856.94,746.702 1859.57,746.702 1862.2,746.702 1864.83,746.702 1867.46,746.702 1870.08,746.702 1872.71,746.702 1875.34,746.702 1877.97,746.702 1880.6,746.702 1883.23,746.702 1885.85,746.702 1888.48,746.702 1891.11,746.702 1893.74,746.702 1896.37,746.702 1898.99,746.702 1901.62,746.702 1904.25,746.702 1906.88,746.702 1909.51,746.702 1912.14,746.702 1914.76,746.702 1917.39,746.702 1920.02,746.702 1922.65,746.702 1925.28,746.702 1927.9,746.702 1930.53,746.702 1933.16,746.702 1935.79,746.702 1938.42,746.702 1941.05,746.702 1943.67,746.702 1946.3,746.702 1948.93,746.702 1951.56,746.702 1954.19,746.702 1956.82,746.702 1959.44,746.702 1962.07,746.702 1964.7,746.702 1967.33,746.702 1969.96,746.702 1972.58,746.702 1975.21,746.702 1977.84,746.702 1980.47,746.702 1983.1,746.702 1985.73,746.702 1988.35,746.702 1990.98,746.702 1993.61,746.702 1996.24,746.702 1998.87,746.702 2001.49,746.702 2004.12,746.702 2006.75,746.702 2009.38,746.702 2012.01,746.702 2014.64,746.702 2017.26,746.702 2019.89,746.702 2022.52,746.702 2025.15,746.702 2027.78,746.702 2030.41,746.702 2033.03,746.702 2035.66,746.702 2038.29,746.702 2040.92,746.702 2043.55,746.702 2046.17,746.702 2048.8,746.702 2051.43,746.702 2054.06,746.702 2056.69,746.702 2059.32,746.702 2061.94,746.702 2064.57,746.702 2067.2,746.702 2069.83,746.702 2072.46,746.702 2075.08,746.702 2077.71,746.702 2080.34,746.702 2082.97,746.702 2085.6,746.702 2088.23,746.702 2090.85,746.702 2093.48,746.702 2096.11,746.702 2098.74,746.702 2101.37,746.702 2104,746.702 2106.62,746.702 2109.25,746.702 2111.88,746.702 2114.51,746.702 2117.14,746.702 2119.76,746.702 2122.39,746.702 2125.02,746.702 2127.65,746.702 2130.28,746.702 2132.91,746.702 2135.53,746.702 2138.16,746.702 2140.79,746.702 2143.42,746.702 2146.05,746.702 2148.67,746.702 2151.3,746.702 2153.93,746.702 2156.56,746.702 2159.19,746.702 2161.82,746.702 2164.44,746.702 2167.07,746.702 2169.7,746.702 2172.33,746.702 2174.96,746.702 2177.59,746.702 2180.21,746.702 2182.84,746.702 2185.47,746.702 2188.1,746.702 2190.73,746.702 2193.35,746.702 2195.98,746.702 2198.61,746.702 2201.24,746.702 2203.87,746.702 2206.5,746.702 2209.12,746.702 2211.75,746.702 2214.38,746.702 2217.01,746.702 2219.64,746.702 2222.26,746.702 2224.89,746.702 2227.52,746.702 2230.15,746.702 2232.78,746.702 2235.41,746.702 2238.03,746.702 2240.66,746.702 2243.29,746.702 2245.92,746.702 2248.55,746.702 2251.18,746.702 2253.8,746.702 2256.43,746.702 2259.06,746.702 2261.69,746.702 2264.32,746.702 2266.94,746.702 2269.57,746.702 2272.2,746.702 2274.83,746.702 2277.46,746.702 2280.09,746.702 2282.71,746.702 2285.34,746.702 2287.97,746.702 2290.6,746.702 2293.23,746.702 "/>
<path clip-path="url(#clip390)" d="M1905.04 300.469 L2282.64 300.469 L2282.64 93.1086 L1905.04 93.1086  Z" fill="#ffffff" fill-rule="evenodd" fill-opacity="1"/>
<polyline clip-path="url(#clip390)" style="stroke:#000000; stroke-linecap:round; stroke-linejoin:round; stroke-width:4; stroke-opacity:1; fill:none" points="1905.04,300.469 2282.64,300.469 2282.64,93.1086 1905.04,93.1086 1905.04,300.469 "/>
<polyline clip-path="url(#clip390)" style="stroke:#ba3d3a; stroke-linecap:round; stroke-linejoin:round; stroke-width:8; stroke-opacity:1; fill:none" points="1928.41,144.949 2068.64,144.949 "/>
<path clip-path="url(#clip390)" d="M2114.42 140.756 Q2114.42 142.067 2114.02 143.543 L2108.57 165.256 Q2108.07 167.176 2106.6 167.176 Q2105.99 167.176 2105.62 166.802 Q2105.26 166.45 2105.26 165.888 Q2105.26 165.701 2105.4 165.115 L2110.86 143.051 Q2111.35 141.037 2111.35 140.03 Q2111.35 136.68 2108.75 136.68 Q2106.46 136.68 2104.16 138.367 Q2103.11 139.21 2102.08 140.732 Q2101.07 142.231 2100.88 142.77 Q2100.67 143.988 2100.37 144.925 Q2100.23 145.581 2099.55 148.134 L2098.49 152.467 Q2097.75 155.699 2097.58 156.004 Q2097.35 156.66 2096.83 157.011 Q2096.32 157.362 2095.8 157.362 Q2095.22 157.362 2094.82 157.011 Q2094.42 156.66 2094.42 156.051 Q2094.42 155.957 2094.49 155.606 Q2094.56 155.254 2094.68 154.762 Q2094.79 154.271 2094.84 153.99 L2097.63 142.911 Q2098.14 140.896 2098.26 140.264 Q2098.4 139.608 2098.4 138.882 Q2098.4 137.617 2098 137.149 Q2097.6 136.68 2096.9 136.68 Q2095.68 136.68 2094.89 138.133 Q2094.09 139.585 2093.41 142.395 Q2093.2 143.168 2093.06 143.332 Q2092.94 143.496 2092.59 143.496 Q2092.01 143.473 2092.01 143.004 Q2092.01 142.887 2092.19 142.138 Q2092.38 141.365 2092.73 140.241 Q2093.11 139.093 2093.51 138.367 Q2093.74 137.875 2093.95 137.547 Q2094.16 137.219 2094.58 136.704 Q2095 136.188 2095.64 135.907 Q2096.27 135.626 2097.04 135.626 Q2098.75 135.626 2100.02 136.727 Q2101.31 137.828 2101.47 139.796 Q2101.96 139.069 2102.59 138.414 Q2103.25 137.758 2104.16 137.102 Q2105.08 136.423 2106.32 136.024 Q2107.56 135.626 2108.89 135.626 Q2111.56 135.626 2112.99 137.008 Q2114.42 138.367 2114.42 140.756 Z" fill="#000000" fill-rule="nonzero" fill-opacity="1" /><path clip-path="url(#clip390)" d="M2121.35 144.831 Q2121.35 136.727 2124.38 130.192 Q2125.66 127.452 2127.47 125.156 Q2129.27 122.861 2130.47 121.854 Q2131.66 120.847 2131.99 120.847 Q2132.46 120.847 2132.48 121.315 Q2132.48 121.549 2131.85 122.135 Q2124.12 130.005 2124.14 144.831 Q2124.14 159.705 2131.66 167.27 Q2132.48 168.09 2132.48 168.347 Q2132.48 168.816 2131.99 168.816 Q2131.66 168.816 2130.51 167.856 Q2129.36 166.895 2127.58 164.694 Q2125.8 162.492 2124.52 159.798 Q2121.35 153.263 2121.35 144.831 Z" fill="#000000" fill-rule="nonzero" fill-opacity="1" /><path clip-path="url(#clip390)" d="M2150.85 136.68 Q2150.85 137.336 2150.55 137.5 Q2150.25 137.641 2149.4 137.641 L2144.91 137.641 L2141.35 151.788 Q2141.06 153.029 2141.06 154.083 Q2141.06 155.254 2141.42 155.77 Q2141.79 156.285 2142.56 156.285 Q2144.09 156.285 2145.73 154.903 Q2147.39 153.521 2148.79 150.148 Q2148.98 149.703 2149.07 149.61 Q2149.19 149.492 2149.5 149.492 Q2150.08 149.492 2150.08 149.961 Q2150.08 150.125 2149.75 150.874 Q2149.45 151.624 2148.77 152.725 Q2148.11 153.826 2147.25 154.856 Q2146.4 155.887 2145.12 156.636 Q2143.83 157.362 2142.45 157.362 Q2140.5 157.362 2139.26 156.121 Q2138.04 154.88 2138.04 152.935 Q2138.04 152.303 2138.53 150.289 Q2139.03 148.251 2141.7 137.641 L2137.46 137.641 Q2136.87 137.641 2136.64 137.617 Q2136.43 137.594 2136.26 137.477 Q2136.12 137.336 2136.12 137.055 Q2136.12 136.61 2136.31 136.423 Q2136.5 136.212 2136.73 136.188 Q2136.99 136.142 2137.57 136.142 L2142.07 136.142 L2143.95 128.529 Q2144.13 127.78 2144.6 127.358 Q2145.09 126.913 2145.37 126.866 Q2145.65 126.796 2145.87 126.796 Q2146.5 126.796 2146.87 127.147 Q2147.25 127.475 2147.25 128.084 Q2147.25 128.412 2145.28 136.142 L2149.5 136.142 Q2150.03 136.142 2150.25 136.165 Q2150.48 136.188 2150.67 136.306 Q2150.85 136.423 2150.85 136.68 Z" fill="#000000" fill-rule="nonzero" fill-opacity="1" /><path clip-path="url(#clip390)" d="M2154.61 168.347 Q2154.61 168.113 2155.21 167.528 Q2162.94 159.658 2162.94 144.831 Q2162.94 129.958 2155.52 122.439 Q2154.61 121.573 2154.61 121.315 Q2154.61 120.847 2155.07 120.847 Q2155.4 120.847 2156.55 121.807 Q2157.72 122.767 2159.48 124.969 Q2161.26 127.171 2162.57 129.864 Q2165.73 136.399 2165.73 144.831 Q2165.73 152.935 2162.71 159.47 Q2161.42 162.211 2159.62 164.506 Q2157.81 166.802 2156.62 167.809 Q2155.43 168.816 2155.07 168.816 Q2154.61 168.816 2154.61 168.347 Z" fill="#000000" fill-rule="nonzero" fill-opacity="1" /><polyline clip-path="url(#clip390)" style="stroke:#4a7945; stroke-linecap:round; stroke-linejoin:round; stroke-width:8; stroke-opacity:1; fill:none" points="1928.41,196.789 2068.64,196.789 "/>
<path clip-path="url(#clip390)" d="M2116.67 201.801 Q2116.06 204.822 2115.24 206.556 Q2113.91 209.202 2111.68 209.202 Q2110.14 209.202 2108.96 208.336 Q2107.82 207.446 2107.42 205.97 Q2106.97 206.556 2106.58 206.954 Q2106.2 207.352 2105.47 207.961 Q2104.75 208.547 2103.76 208.874 Q2102.8 209.202 2101.7 209.202 Q2100.86 209.202 2100.09 209.038 Q2099.31 208.898 2098.49 208.5 Q2097.7 208.078 2097.11 207.446 Q2096.55 206.813 2096.18 205.783 Q2095.8 204.752 2095.8 203.44 Q2095.8 201.801 2096.43 199.576 Q2097.09 197.351 2098.59 193.369 Q2099.41 191.261 2099.41 190.09 Q2099.41 189.551 2099.29 189.2 Q2099.17 188.848 2098.94 188.731 Q2098.73 188.591 2098.59 188.567 Q2098.45 188.52 2098.21 188.52 Q2096.76 188.52 2095.5 189.996 Q2094.23 191.472 2093.37 194.47 Q2093.18 195.055 2093.06 195.196 Q2092.94 195.336 2092.59 195.336 Q2092.01 195.313 2092.01 194.844 Q2092.01 194.657 2092.22 193.931 Q2092.43 193.181 2092.92 192.081 Q2093.44 190.956 2094.14 189.949 Q2094.84 188.918 2095.94 188.192 Q2097.07 187.466 2098.35 187.466 Q2100.11 187.466 2101.19 188.614 Q2102.29 189.738 2102.29 191.401 Q2102.29 192.432 2101.47 194.423 Q2098.87 201.332 2098.87 204.213 Q2098.87 208.125 2101.84 208.125 Q2102.83 208.125 2103.74 207.727 Q2104.68 207.329 2105.29 206.766 Q2105.9 206.204 2106.36 205.595 Q2106.86 204.986 2107.07 204.588 Q2107.3 204.19 2107.33 204.096 L2110.91 189.668 Q2111.05 189.106 2111.31 188.731 Q2111.59 188.333 2111.92 188.192 Q2112.24 188.052 2112.43 188.028 Q2112.62 187.982 2112.78 187.982 Q2113.37 187.982 2113.77 188.333 Q2114.19 188.684 2114.19 189.293 Q2114.19 189.41 2114.05 189.973 Q2113.93 190.511 2113.74 191.308 Q2113.56 192.081 2113.46 192.502 Q2112.71 195.453 2112.64 195.758 L2111.31 200.934 Q2111.24 201.239 2111 202.222 Q2110.79 203.206 2110.67 203.721 Q2110.56 204.213 2110.44 204.893 Q2110.35 205.548 2110.35 205.923 Q2110.35 207.094 2110.7 207.61 Q2111.05 208.125 2111.82 208.125 Q2112.55 208.125 2113.11 207.633 Q2113.7 207.118 2114.14 206.134 Q2114.59 205.127 2114.84 204.307 Q2115.1 203.487 2115.43 202.199 Q2115.55 201.637 2115.64 201.496 Q2115.76 201.332 2116.09 201.332 Q2116.67 201.332 2116.67 201.801 Z" fill="#000000" fill-rule="nonzero" fill-opacity="1" /><path clip-path="url(#clip390)" d="M2122.24 196.671 Q2122.24 188.567 2125.26 182.032 Q2126.55 179.292 2128.35 176.996 Q2130.15 174.701 2131.35 173.694 Q2132.54 172.687 2132.87 172.687 Q2133.34 172.687 2133.36 173.155 Q2133.36 173.389 2132.73 173.975 Q2125 181.845 2125.03 196.671 Q2125.03 211.545 2132.54 219.11 Q2133.36 219.93 2133.36 220.187 Q2133.36 220.656 2132.87 220.656 Q2132.54 220.656 2131.4 219.696 Q2130.25 218.735 2128.47 216.534 Q2126.69 214.332 2125.4 211.638 Q2122.24 205.103 2122.24 196.671 Z" fill="#000000" fill-rule="nonzero" fill-opacity="1" /><path clip-path="url(#clip390)" d="M2151.74 188.52 Q2151.74 189.176 2151.43 189.34 Q2151.13 189.481 2150.29 189.481 L2145.79 189.481 L2142.23 203.628 Q2141.95 204.869 2141.95 205.923 Q2141.95 207.094 2142.3 207.61 Q2142.67 208.125 2143.45 208.125 Q2144.97 208.125 2146.61 206.743 Q2148.27 205.361 2149.68 201.988 Q2149.86 201.543 2149.96 201.45 Q2150.08 201.332 2150.38 201.332 Q2150.97 201.332 2150.97 201.801 Q2150.97 201.965 2150.64 202.714 Q2150.33 203.464 2149.65 204.565 Q2149 205.666 2148.13 206.696 Q2147.29 207.727 2146 208.476 Q2144.71 209.202 2143.33 209.202 Q2141.39 209.202 2140.14 207.961 Q2138.93 206.72 2138.93 204.775 Q2138.93 204.143 2139.42 202.129 Q2139.91 200.091 2142.58 189.481 L2138.34 189.481 Q2137.76 189.481 2137.52 189.457 Q2137.31 189.434 2137.15 189.317 Q2137.01 189.176 2137.01 188.895 Q2137.01 188.45 2137.19 188.263 Q2137.38 188.052 2137.61 188.028 Q2137.87 187.982 2138.46 187.982 L2142.95 187.982 L2144.83 180.369 Q2145.02 179.62 2145.48 179.198 Q2145.98 178.753 2146.26 178.706 Q2146.54 178.636 2146.75 178.636 Q2147.38 178.636 2147.76 178.987 Q2148.13 179.315 2148.13 179.924 Q2148.13 180.252 2146.16 187.982 L2150.38 187.982 Q2150.92 187.982 2151.13 188.005 Q2151.36 188.028 2151.55 188.146 Q2151.74 188.263 2151.74 188.52 Z" fill="#000000" fill-rule="nonzero" fill-opacity="1" /><path clip-path="url(#clip390)" d="M2155.49 220.187 Q2155.49 219.953 2156.1 219.368 Q2163.83 211.498 2163.83 196.671 Q2163.83 181.798 2156.4 174.279 Q2155.49 173.413 2155.49 173.155 Q2155.49 172.687 2155.96 172.687 Q2156.29 172.687 2157.43 173.647 Q2158.6 174.607 2160.36 176.809 Q2162.14 179.011 2163.45 181.704 Q2166.62 188.239 2166.62 196.671 Q2166.62 204.775 2163.59 211.31 Q2162.31 214.051 2160.5 216.346 Q2158.7 218.642 2157.5 219.649 Q2156.31 220.656 2155.96 220.656 Q2155.49 220.656 2155.49 220.187 Z" fill="#000000" fill-rule="nonzero" fill-opacity="1" /><polyline clip-path="url(#clip390)" style="stroke:#dfba53; stroke-linecap:round; stroke-linejoin:round; stroke-width:4; stroke-opacity:1; fill:none" stroke-dasharray="16, 10" points="1928.41,248.629 2068.64,248.629 "/>
<path clip-path="url(#clip390)" d="M2092.01 249.728 Q2092.01 242.292 2093.88 238.241 Q2096.5 232.213 2102.68 232.213 Q2103.99 232.213 2105.35 232.584 Q2106.73 232.93 2108.46 234.288 Q2110.21 235.647 2111.28 237.87 Q2113.3 242.169 2113.3 249.728 Q2113.3 257.114 2111.42 261.141 Q2108.68 267.02 2102.63 267.02 Q2100.36 267.02 2098.03 265.859 Q2095.74 264.698 2094.28 261.907 Q2092.01 257.732 2092.01 249.728 M2096.21 249.11 Q2096.21 256.744 2096.75 259.782 Q2097.37 263.068 2099.05 264.501 Q2100.75 265.909 2102.63 265.909 Q2104.65 265.909 2106.33 264.402 Q2108.04 262.87 2108.56 259.585 Q2109.13 256.348 2109.1 249.11 Q2109.1 242.07 2108.61 239.254 Q2107.94 235.968 2106.16 234.659 Q2104.41 233.325 2102.63 233.325 Q2101.96 233.325 2101.25 233.523 Q2100.55 233.72 2099.54 234.288 Q2098.53 234.856 2097.74 236.265 Q2096.97 237.673 2096.6 239.797 Q2096.21 242.539 2096.21 249.11 Z" fill="#000000" fill-rule="nonzero" fill-opacity="1" /><path clip-path="url(#clip390)" d="M2133.83 265.242 L2133.83 258.572 Q2133.83 258.004 2133.85 257.806 Q2133.88 257.608 2134.03 257.46 Q2134.18 257.312 2134.47 257.312 Q2134.82 257.312 2134.94 257.46 Q2135.09 257.608 2135.19 258.176 Q2135.95 261.66 2137.58 263.512 Q2139.24 265.34 2142.23 265.34 Q2145.07 265.34 2146.5 264.081 Q2147.94 262.821 2147.94 260.746 Q2147.94 257.04 2142.67 256.101 Q2139.63 255.484 2138.37 255.089 Q2137.12 254.669 2136 253.755 Q2133.83 251.976 2133.83 249.456 Q2133.83 246.936 2135.73 245.084 Q2137.66 243.231 2141.91 243.231 Q2144.75 243.231 2146.68 244.664 Q2147.24 244.219 2147.54 243.849 Q2148.21 243.231 2148.55 243.231 Q2148.95 243.231 2149.02 243.503 Q2149.1 243.75 2149.1 244.466 L2149.1 249.555 Q2149.1 250.123 2149.07 250.321 Q2149.05 250.518 2148.9 250.667 Q2148.75 250.79 2148.43 250.79 Q2147.86 250.79 2147.84 250.321 Q2147.44 244.194 2141.91 244.194 Q2138.92 244.194 2137.58 245.355 Q2136.25 246.492 2136.25 248.048 Q2136.25 248.913 2136.65 249.58 Q2137.07 250.222 2137.58 250.617 Q2138.13 250.988 2139.12 251.358 Q2140.1 251.704 2140.7 251.828 Q2141.31 251.951 2142.48 252.198 Q2146.53 252.964 2148.23 254.619 Q2150.36 256.744 2150.36 259.436 Q2150.36 262.425 2148.33 264.451 Q2146.3 266.477 2142.23 266.477 Q2138.94 266.477 2136.65 264.278 Q2136.35 264.575 2136.13 264.846 Q2135.9 265.093 2135.81 265.192 Q2135.73 265.291 2135.71 265.365 Q2135.68 265.415 2135.63 265.464 Q2134.62 266.477 2134.37 266.477 Q2133.98 266.477 2133.9 266.205 Q2133.83 265.958 2133.83 265.242 Z" fill="#000000" fill-rule="nonzero" fill-opacity="1" /><path clip-path="url(#clip390)" d="M2153.02 245.677 L2153.02 244.565 Q2155.35 244.466 2156.88 242.836 Q2158.43 241.181 2158.95 239.155 Q2159.5 237.129 2159.55 234.782 L2160.81 234.782 L2160.81 244.096 L2168.04 244.096 L2168.04 245.677 L2160.81 245.677 L2160.81 259.733 Q2160.81 265.192 2164.21 265.192 Q2165.67 265.192 2166.64 263.71 Q2167.6 262.203 2167.6 259.535 L2167.6 256.744 L2168.86 256.744 L2168.86 259.634 Q2168.86 262.376 2167.6 264.426 Q2166.34 266.477 2163.84 266.477 Q2162.93 266.477 2162.02 266.23 Q2161.13 266.007 2159.94 265.415 Q2158.78 264.797 2158.04 263.315 Q2157.32 261.808 2157.32 259.634 L2157.32 245.677 L2153.02 245.677 Z" fill="#000000" fill-rule="nonzero" fill-opacity="1" /><path clip-path="url(#clip390)" d="M2173.4 255.039 Q2173.4 250.222 2176.76 246.887 Q2180.12 243.552 2184.67 243.552 Q2188.52 243.552 2191.04 246.689 L2191.04 235.746 Q2191.04 233.868 2190.38 233.399 Q2189.73 232.93 2187.11 232.93 L2187.11 231.349 L2194.4 230.805 L2194.4 261.511 Q2194.4 263.389 2195.04 263.883 Q2195.71 264.352 2198.33 264.352 L2198.33 265.909 L2190.89 266.477 L2190.89 263.117 Q2188.28 266.452 2184.13 266.477 Q2179.78 266.477 2176.59 263.142 Q2173.4 259.807 2173.4 255.039 M2177.6 255.089 Q2177.6 259.782 2179.06 262.104 Q2181.09 265.34 2184.37 265.34 Q2188.13 265.34 2190.35 261.808 Q2190.92 260.943 2190.89 259.93 L2190.89 249.555 Q2190.89 248.542 2190.35 247.702 Q2188.28 244.664 2184.89 244.664 Q2181.36 244.664 2179.16 247.9 Q2177.6 250.321 2177.6 255.089 Z" fill="#000000" fill-rule="nonzero" fill-opacity="1" /><path clip-path="url(#clip390)" d="M2204.75 253.26 Q2204.75 244.713 2207.94 237.821 Q2209.3 234.931 2211.2 232.51 Q2213.1 230.089 2214.36 229.027 Q2215.62 227.964 2215.97 227.964 Q2216.46 227.964 2216.49 228.458 Q2216.49 228.705 2215.82 229.323 Q2207.67 237.623 2207.69 253.26 Q2207.69 268.947 2215.62 276.926 Q2216.49 277.791 2216.49 278.063 Q2216.49 278.557 2215.97 278.557 Q2215.62 278.557 2214.41 277.544 Q2213.2 276.531 2211.32 274.209 Q2209.45 271.887 2208.09 269.046 Q2204.75 262.154 2204.75 253.26 Z" fill="#000000" fill-rule="nonzero" fill-opacity="1" /><path clip-path="url(#clip390)" d="M2221.18 245.726 Q2221.18 244.614 2222.05 243.824 Q2222.93 243.033 2224 243.033 Q2224.71 243.033 2225.28 243.354 Q2225.87 243.651 2226.24 244.244 Q2226.64 244.812 2226.89 245.405 Q2227.13 245.973 2227.31 246.838 Q2227.5 247.702 2227.58 248.221 Q2227.65 248.715 2227.73 249.481 Q2227.8 250.222 2227.8 250.37 Q2228.1 249.308 2228.57 248.246 Q2229.06 247.183 2229.93 245.899 Q2230.79 244.614 2232.1 243.799 Q2233.41 242.984 2234.94 242.984 Q2237.78 242.984 2240.13 246.121 Q2242.47 249.259 2242.47 255.78 L2242.47 277.445 Q2242.47 278.359 2242.08 278.878 Q2241.71 279.421 2241.36 279.545 Q2241.02 279.668 2240.6 279.668 Q2239.88 279.668 2239.26 279.15 Q2238.67 278.656 2238.67 277.445 Q2238.67 273.863 2239.93 266.353 Q2241.22 258.868 2241.22 255.187 Q2241.22 249.876 2238.67 247.702 Q2237.41 246.591 2236 246.591 Q2234.74 246.591 2233.73 247.579 Q2232.72 248.567 2232.03 250.049 Q2231.33 251.531 2230.69 254.051 Q2230.07 256.546 2229.68 258.794 Q2229.31 261.042 2228.86 264.352 Q2228.62 266.971 2226.79 266.971 Q2226.12 266.971 2225.53 266.526 Q2224.96 266.106 2224.96 265.242 Q2224.96 263.982 2225.75 259.263 Q2226.54 254.52 2226.54 254.125 Q2226.54 249.876 2226 248.369 Q2225.48 246.838 2224.37 246.319 Q2223.8 247.381 2222.84 247.381 Q2222.12 247.381 2221.65 246.912 Q2221.18 246.442 2221.18 245.726 Z" fill="#000000" fill-rule="nonzero" fill-opacity="1" /><path clip-path="url(#clip390)" d="M2247.54 278.063 Q2247.54 277.816 2248.18 277.198 Q2256.33 268.898 2256.33 253.26 Q2256.33 237.574 2248.5 229.644 Q2247.54 228.73 2247.54 228.458 Q2247.54 227.964 2248.03 227.964 Q2248.38 227.964 2249.59 228.977 Q2250.82 229.99 2252.68 232.312 Q2254.55 234.634 2255.94 237.475 Q2259.27 244.367 2259.27 253.26 Q2259.27 261.808 2256.09 268.7 Q2254.73 271.59 2252.83 274.011 Q2250.92 276.432 2249.66 277.494 Q2248.4 278.557 2248.03 278.557 Q2247.54 278.557 2247.54 278.063 Z" fill="#000000" fill-rule="nonzero" fill-opacity="1" /></svg>
