<?xml version="1.0" encoding="utf-8"?>
<svg xmlns="http://www.w3.org/2000/svg" xmlns:xlink="http://www.w3.org/1999/xlink" width="600" height="400" viewBox="0 0 2400 1600">
<defs>
  <clipPath id="clip590">
    <rect x="0" y="0" width="2400" height="1600"/>
  </clipPath>
</defs>
<path clip-path="url(#clip590)" d="M0 1600 L2400 1600 L2400 0 L0 0  Z" fill="#ffffff" fill-rule="evenodd" fill-opacity="1"/>
<defs>
  <clipPath id="clip591">
    <rect x="480" y="0" width="1681" height="1600"/>
  </clipPath>
</defs>
<path clip-path="url(#clip590)" d="M172.691 1423.18 L2352.76 1423.18 L2352.76 47.2441 L172.691 47.2441  Z" fill="#ffffff" fill-rule="evenodd" fill-opacity="1"/>
<defs>
  <clipPath id="clip592">
    <rect x="172" y="47" width="2181" height="1377"/>
  </clipPath>
</defs>
<polyline clip-path="url(#clip592)" style="stroke:#000000; stroke-linecap:round; stroke-linejoin:round; stroke-width:2; stroke-opacity:0.1; fill:none" points="258.484,1423.18 258.484,47.2441 "/>
<polyline clip-path="url(#clip592)" style="stroke:#000000; stroke-linecap:round; stroke-linejoin:round; stroke-width:2; stroke-opacity:0.1; fill:none" points="644.994,1423.18 644.994,47.2441 "/>
<polyline clip-path="url(#clip592)" style="stroke:#000000; stroke-linecap:round; stroke-linejoin:round; stroke-width:2; stroke-opacity:0.1; fill:none" points="1031.5,1423.18 1031.5,47.2441 "/>
<polyline clip-path="url(#clip592)" style="stroke:#000000; stroke-linecap:round; stroke-linejoin:round; stroke-width:2; stroke-opacity:0.1; fill:none" points="1418.01,1423.18 1418.01,47.2441 "/>
<polyline clip-path="url(#clip592)" style="stroke:#000000; stroke-linecap:round; stroke-linejoin:round; stroke-width:2; stroke-opacity:0.1; fill:none" points="1804.53,1423.18 1804.53,47.2441 "/>
<polyline clip-path="url(#clip592)" style="stroke:#000000; stroke-linecap:round; stroke-linejoin:round; stroke-width:2; stroke-opacity:0.1; fill:none" points="2191.04,1423.18 2191.04,47.2441 "/>
<polyline clip-path="url(#clip590)" style="stroke:#000000; stroke-linecap:round; stroke-linejoin:round; stroke-width:4; stroke-opacity:1; fill:none" points="172.691,1423.18 2352.76,1423.18 "/>
<polyline clip-path="url(#clip590)" style="stroke:#000000; stroke-linecap:round; stroke-linejoin:round; stroke-width:4; stroke-opacity:1; fill:none" points="258.484,1423.18 258.484,1404.28 "/>
<polyline clip-path="url(#clip590)" style="stroke:#000000; stroke-linecap:round; stroke-linejoin:round; stroke-width:4; stroke-opacity:1; fill:none" points="644.994,1423.18 644.994,1404.28 "/>
<polyline clip-path="url(#clip590)" style="stroke:#000000; stroke-linecap:round; stroke-linejoin:round; stroke-width:4; stroke-opacity:1; fill:none" points="1031.5,1423.18 1031.5,1404.28 "/>
<polyline clip-path="url(#clip590)" style="stroke:#000000; stroke-linecap:round; stroke-linejoin:round; stroke-width:4; stroke-opacity:1; fill:none" points="1418.01,1423.18 1418.01,1404.28 "/>
<polyline clip-path="url(#clip590)" style="stroke:#000000; stroke-linecap:round; stroke-linejoin:round; stroke-width:4; stroke-opacity:1; fill:none" points="1804.53,1423.18 1804.53,1404.28 "/>
<polyline clip-path="url(#clip590)" style="stroke:#000000; stroke-linecap:round; stroke-linejoin:round; stroke-width:4; stroke-opacity:1; fill:none" points="2191.04,1423.18 2191.04,1404.28 "/>
<path clip-path="url(#clip590)" d="M247.985 1469.6 Q247.985 1461.64 252.036 1456.78 Q256.088 1451.88 261.3 1451.88 Q264.338 1451.88 266.018 1453.44 Q267.723 1454.97 267.723 1457.34 Q267.723 1458.65 266.957 1459.22 Q266.191 1459.79 265.401 1459.79 Q264.487 1459.79 263.77 1459.17 Q263.054 1458.55 263.054 1457.44 Q263.054 1455.17 265.845 1455.17 Q264.536 1453.14 261.399 1453.14 Q260.435 1453.14 259.447 1453.44 Q258.459 1453.71 257.175 1454.65 Q255.89 1455.59 254.902 1457.07 Q253.914 1458.55 253.222 1461.35 Q252.53 1464.14 252.53 1467.77 L252.53 1468.98 Q254.605 1463.96 258.854 1463.99 Q263.103 1463.99 266.043 1467.23 Q268.983 1470.46 268.983 1475.25 Q268.983 1480.17 265.919 1483.43 Q262.856 1486.69 258.558 1486.69 Q256.631 1486.69 254.877 1485.88 Q253.148 1485.09 251.517 1483.26 Q249.912 1481.43 248.948 1477.92 Q247.985 1474.41 247.985 1469.6 M252.629 1474.14 Q252.629 1479.11 253.543 1481.48 Q253.691 1481.87 254.012 1482.42 Q254.358 1482.96 254.926 1483.68 Q255.519 1484.37 256.483 1484.84 Q257.446 1485.28 258.558 1485.28 Q261.942 1485.28 263.573 1482 Q264.437 1480.17 264.437 1475.2 Q264.437 1470.14 263.523 1468.29 Q261.967 1465.15 258.805 1465.15 Q256.68 1465.15 255.198 1466.61 Q253.741 1468.07 253.173 1470.02 Q252.629 1471.97 252.629 1474.14 Z" fill="#000000" fill-rule="nonzero" fill-opacity="1" /><path clip-path="url(#clip590)" d="M634.149 1461.79 L635.804 1451.39 L637.064 1451.39 Q637.213 1452.01 637.46 1452.28 Q637.731 1452.55 639.164 1452.77 Q640.622 1453 643.561 1453 L655.839 1453 Q655.839 1454.16 655.394 1454.77 L648.551 1464.38 Q646.377 1467.42 645.414 1473.03 Q644.846 1476.79 644.871 1481.33 L644.871 1483.9 Q644.871 1486.69 642.524 1486.69 Q640.202 1486.69 640.202 1483.9 Q640.202 1474.24 646.427 1464.88 Q647.094 1463.91 649.54 1460.48 Q652.01 1457.05 652.109 1456.9 L641.634 1456.9 Q637.04 1456.9 636.669 1457.2 Q636.175 1457.64 635.409 1461.79 L634.149 1461.79 Z" fill="#000000" fill-rule="nonzero" fill-opacity="1" /><path clip-path="url(#clip590)" d="M1021.01 1477.95 Q1021.01 1472.29 1028.29 1468.63 Q1025.16 1466.51 1024.59 1465.89 Q1022.36 1463.42 1022.36 1460.33 Q1022.36 1456.8 1025.03 1454.35 Q1027.72 1451.88 1031.53 1451.88 Q1035.16 1451.88 1037.9 1453.98 Q1040.64 1456.08 1040.64 1459.42 Q1040.64 1464.11 1034.52 1467.27 Q1038.57 1469.79 1039.53 1470.86 Q1042 1473.6 1042 1477.08 Q1042 1481.13 1038.89 1483.92 Q1035.78 1486.69 1031.48 1486.69 Q1027.28 1486.69 1024.14 1484.25 Q1021.01 1481.8 1021.01 1477.95 M1023.53 1477.95 Q1023.53 1481.08 1025.87 1483.18 Q1028.24 1485.28 1031.53 1485.28 Q1034.72 1485.28 1037.09 1483.46 Q1039.48 1481.63 1039.48 1478.91 Q1039.48 1477.85 1039.11 1476.93 Q1038.77 1476.02 1038.05 1475.3 Q1037.36 1474.56 1036.91 1474.24 Q1036.49 1473.9 1035.68 1473.33 L1029.45 1469.4 Q1023.53 1472.68 1023.53 1477.95 M1024.59 1458.36 Q1024.59 1460.78 1027.13 1462.46 L1033.41 1466.51 Q1038.42 1463.57 1038.42 1459.42 Q1038.42 1456.73 1036.37 1454.95 Q1034.32 1453.14 1031.48 1453.14 Q1028.69 1453.14 1026.64 1454.63 Q1024.59 1456.08 1024.59 1458.36 Z" fill="#000000" fill-rule="nonzero" fill-opacity="1" /><path clip-path="url(#clip590)" d="M1407.52 1463.27 Q1407.52 1460.58 1408.31 1458.75 Q1409.1 1456.9 1410.75 1455.07 Q1413.79 1451.88 1418.19 1451.88 Q1420.07 1451.88 1421.72 1452.67 Q1423.4 1453.47 1424.98 1455.27 Q1426.59 1457.05 1427.55 1460.58 Q1428.51 1464.09 1428.51 1468.93 Q1428.51 1476.76 1424.71 1481.73 Q1420.93 1486.69 1415.82 1486.69 Q1412.58 1486.69 1410.68 1485.23 Q1408.78 1483.75 1408.78 1481.23 Q1408.78 1479.92 1409.52 1479.38 Q1410.26 1478.81 1411.1 1478.81 Q1412.01 1478.81 1412.73 1479.43 Q1413.44 1480.02 1413.44 1481.13 Q1413.44 1482.05 1412.85 1482.76 Q1412.28 1483.46 1410.8 1483.46 Q1412.26 1485.28 1415.77 1485.28 Q1417.03 1485.28 1418.29 1484.72 Q1419.55 1484.12 1420.91 1482.71 Q1422.29 1481.28 1423.13 1478.29 Q1423.97 1475.3 1423.97 1471.1 L1423.97 1469.5 Q1421.94 1474.56 1417.64 1474.56 Q1413.4 1474.56 1410.46 1471.3 Q1407.52 1468.04 1407.52 1463.27 M1412.06 1463.32 Q1412.06 1468.34 1412.98 1470.19 Q1414.53 1473.38 1417.69 1473.38 Q1420.78 1473.38 1422.31 1470.63 Q1423.87 1467.87 1423.87 1464.29 Q1423.87 1459.32 1423.05 1457.15 Q1421.55 1453.14 1418.19 1453.14 Q1414.85 1453.14 1413.12 1456.33 Q1412.06 1458.21 1412.06 1463.32 Z" fill="#000000" fill-rule="nonzero" fill-opacity="1" /><path clip-path="url(#clip590)" d="M1782.49 1456.7 L1782.49 1455.12 Q1788.57 1455.12 1791.7 1451.88 Q1792.57 1451.88 1792.72 1452.08 Q1792.87 1452.28 1792.87 1453.19 L1792.87 1481.58 Q1792.87 1483.08 1793.61 1483.55 Q1794.35 1484.02 1797.58 1484.02 L1799.19 1484.02 L1799.19 1485.58 Q1797.41 1485.43 1790.99 1485.43 Q1784.56 1485.43 1782.81 1485.58 L1782.81 1484.02 L1784.42 1484.02 Q1787.6 1484.02 1788.37 1483.58 Q1789.13 1483.11 1789.13 1481.58 L1789.13 1455.37 Q1786.49 1456.7 1782.49 1456.7 Z" fill="#000000" fill-rule="nonzero" fill-opacity="1" /><path clip-path="url(#clip590)" d="M1805.27 1469.4 Q1805.27 1461.96 1807.14 1457.91 Q1809.76 1451.88 1815.94 1451.88 Q1817.25 1451.88 1818.61 1452.26 Q1819.99 1452.6 1821.72 1453.96 Q1823.47 1455.32 1824.53 1457.54 Q1826.56 1461.84 1826.56 1469.4 Q1826.56 1476.79 1824.68 1480.81 Q1821.94 1486.69 1815.89 1486.69 Q1813.62 1486.69 1811.29 1485.53 Q1809 1484.37 1807.54 1481.58 Q1805.27 1477.4 1805.27 1469.4 M1809.47 1468.78 Q1809.47 1476.41 1810.01 1479.45 Q1810.63 1482.74 1812.31 1484.17 Q1814.01 1485.58 1815.89 1485.58 Q1817.91 1485.58 1819.59 1484.07 Q1821.3 1482.54 1821.82 1479.26 Q1822.39 1476.02 1822.36 1468.78 Q1822.36 1461.74 1821.87 1458.92 Q1821.2 1455.64 1819.42 1454.33 Q1817.67 1453 1815.89 1453 Q1815.22 1453 1814.51 1453.19 Q1813.81 1453.39 1812.8 1453.96 Q1811.79 1454.53 1811 1455.94 Q1810.23 1457.34 1809.86 1459.47 Q1809.47 1462.21 1809.47 1468.78 Z" fill="#000000" fill-rule="nonzero" fill-opacity="1" /><path clip-path="url(#clip590)" d="M2170.04 1456.7 L2170.04 1455.12 Q2176.11 1455.12 2179.25 1451.88 Q2180.12 1451.88 2180.26 1452.08 Q2180.41 1452.28 2180.41 1453.19 L2180.41 1481.58 Q2180.41 1483.08 2181.15 1483.55 Q2181.9 1484.02 2185.13 1484.02 L2186.74 1484.02 L2186.74 1485.58 Q2184.96 1485.43 2178.54 1485.43 Q2172.11 1485.43 2170.36 1485.58 L2170.36 1484.02 L2171.96 1484.02 Q2175.15 1484.02 2175.92 1483.58 Q2176.68 1483.11 2176.68 1481.58 L2176.68 1455.37 Q2174.04 1456.7 2170.04 1456.7 Z" fill="#000000" fill-rule="nonzero" fill-opacity="1" /><path clip-path="url(#clip590)" d="M2195.33 1456.7 L2195.33 1455.12 Q2201.41 1455.12 2204.55 1451.88 Q2205.41 1451.88 2205.56 1452.08 Q2205.71 1452.28 2205.71 1453.19 L2205.71 1481.58 Q2205.71 1483.08 2206.45 1483.55 Q2207.19 1484.02 2210.43 1484.02 L2212.03 1484.02 L2212.03 1485.58 Q2210.25 1485.43 2203.83 1485.43 Q2197.41 1485.43 2195.65 1485.58 L2195.65 1484.02 L2197.26 1484.02 Q2200.45 1484.02 2201.21 1483.58 Q2201.98 1483.11 2201.98 1481.58 L2201.98 1455.37 Q2199.34 1456.7 2195.33 1456.7 Z" fill="#000000" fill-rule="nonzero" fill-opacity="1" /><path clip-path="url(#clip590)" d="M1229.93 1511.94 Q1229.93 1512.55 1229.8 1513.07 L1228 1524.53 Q1227.9 1525.4 1227.71 1525.72 Q1227.55 1526.05 1227.03 1526.05 Q1226.23 1526.05 1226.23 1525.21 Q1226.23 1524.72 1226.42 1523.95 Q1226.97 1520.31 1226.97 1518.67 Q1226.97 1517.58 1226.74 1516.77 Q1226.55 1515.93 1226.23 1515.35 Q1225.94 1514.77 1225.26 1514.39 Q1224.59 1514 1223.94 1513.77 Q1223.3 1513.55 1222.14 1513.45 Q1220.98 1513.32 1219.98 1513.29 Q1218.98 1513.26 1217.34 1513.26 Q1213.77 1513.26 1213.19 1513.39 Q1212.57 1513.55 1212.25 1514.03 Q1211.96 1514.48 1211.64 1515.84 L1202.88 1550.84 L1202.62 1552.23 Q1202.62 1553 1203.11 1553.26 Q1203.59 1553.52 1205.07 1553.68 Q1207.2 1553.84 1209.29 1553.84 Q1209.35 1553.84 1209.48 1553.84 Q1210.19 1553.84 1210.48 1553.87 Q1210.77 1553.87 1211.06 1553.94 Q1211.35 1554 1211.41 1554.16 Q1211.51 1554.29 1211.51 1554.55 Q1211.51 1555.16 1211.25 1555.48 Q1211 1555.77 1210.74 1555.84 Q1210.51 1555.87 1210.06 1555.87 Q1209.16 1555.87 1207.23 1555.8 Q1205.3 1555.74 1204.33 1555.74 L1198.85 1555.67 L1193.25 1555.74 Q1192.38 1555.74 1190.55 1555.8 Q1188.71 1555.87 1187.84 1555.87 Q1186.71 1555.87 1186.71 1555.06 Q1186.71 1554.16 1187.13 1554 Q1187.58 1553.84 1189.48 1553.84 Q1192.16 1553.84 1193.6 1553.71 Q1195.05 1553.58 1195.83 1553.13 Q1196.63 1552.68 1196.86 1552.23 Q1197.08 1551.75 1197.34 1550.65 L1206.2 1515.45 Q1206.46 1514.68 1206.46 1514.06 Q1206.46 1513.74 1206.36 1513.61 Q1206.29 1513.48 1205.88 1513.39 Q1205.46 1513.26 1204.59 1513.26 L1202.01 1513.26 Q1199.37 1513.26 1197.73 1513.39 Q1196.12 1513.48 1194.57 1513.97 Q1193.06 1514.45 1192.16 1515.13 Q1191.29 1515.8 1190.32 1517.19 Q1189.35 1518.57 1188.65 1520.25 Q1187.97 1521.92 1187 1524.66 Q1186.68 1525.56 1186.49 1525.82 Q1186.33 1526.05 1185.88 1526.05 Q1185.55 1526.05 1185.3 1525.85 Q1185.07 1525.63 1185.07 1525.34 Q1185.39 1524.27 1185.46 1524.15 L1189.42 1512.52 Q1189.74 1511.58 1190.03 1511.42 Q1190.35 1511.23 1191.54 1511.23 L1228.13 1511.23 Q1228.71 1511.23 1228.9 1511.23 Q1229.1 1511.23 1229.42 1511.29 Q1229.74 1511.36 1229.84 1511.52 Q1229.93 1511.68 1229.93 1511.94 Z" fill="#000000" fill-rule="nonzero" fill-opacity="1" /><path clip-path="url(#clip590)" d="M1256.3 1555.39 Q1256.3 1557.85 1255.22 1560.29 Q1254.14 1562.7 1252.4 1564.5 Q1250.69 1566.28 1248.44 1567.41 Q1246.18 1568.51 1243.93 1568.51 Q1240.7 1568.51 1238.61 1566.33 Q1236.53 1564.12 1236.53 1560.69 Q1236.53 1557.49 1238.31 1554.45 Q1240.12 1551.38 1243 1549.49 Q1245.89 1547.59 1248.91 1547.59 Q1252.09 1547.59 1254.18 1549.73 Q1256.3 1551.88 1256.3 1555.39 M1252.92 1553.59 Q1252.92 1551.4 1251.86 1550.01 Q1250.8 1548.61 1248.86 1548.61 Q1248.3 1548.61 1247.65 1548.79 Q1246.99 1548.95 1246.14 1549.37 Q1245.3 1549.8 1244.36 1550.7 Q1243.43 1551.58 1242.62 1552.85 Q1241.56 1554.51 1240.75 1557.58 Q1239.96 1560.62 1239.96 1562.45 Q1239.96 1564.97 1241.13 1566.24 Q1242.3 1567.48 1243.97 1567.48 Q1245.6 1567.48 1247.31 1566.35 Q1249.04 1565.2 1250.24 1563.24 Q1251.43 1561.21 1252.18 1558.23 Q1252.92 1555.24 1252.92 1553.59 Z" fill="#000000" fill-rule="nonzero" fill-opacity="1" /><path clip-path="url(#clip590)" d="M1280.58 1572.36 L1280.58 1506.4 L1290.53 1506.4 L1290.53 1507.91 L1284.99 1507.91 L1284.99 1570.84 L1290.53 1570.84 L1290.53 1572.36 L1280.58 1572.36 Z" fill="#000000" fill-rule="nonzero" fill-opacity="1" /><path clip-path="url(#clip590)" d="M1317.47 1532.39 Q1317.47 1534.19 1316.57 1535.16 Q1315.67 1536.09 1314.44 1536.09 Q1313.45 1536.09 1312.9 1535.51 Q1312.38 1534.93 1312.38 1534.16 Q1312.38 1533.03 1313.28 1532.13 Q1314.22 1531.23 1315.57 1531.2 Q1315.12 1530.01 1313.93 1529.3 Q1312.74 1528.56 1311.67 1528.36 Q1310.64 1528.17 1309.61 1528.17 Q1307.58 1528.17 1306.04 1528.81 Q1304.49 1529.46 1303.72 1530.46 Q1302.95 1531.42 1302.59 1532.36 Q1302.24 1533.29 1302.24 1534.1 Q1302.24 1534.81 1302.4 1535.38 Q1302.59 1535.93 1303.04 1536.35 Q1303.49 1536.74 1303.82 1537 Q1304.17 1537.25 1304.94 1537.48 Q1305.72 1537.7 1306.04 1537.8 Q1306.36 1537.86 1307.26 1538.06 Q1309.13 1538.44 1309.97 1538.67 Q1310.8 1538.86 1311.9 1539.41 Q1313.03 1539.96 1313.86 1540.83 Q1315.89 1542.86 1315.89 1545.66 Q1315.89 1546.69 1315.54 1547.95 Q1315.22 1549.2 1314.28 1550.78 Q1313.35 1552.36 1311.93 1553.61 Q1310.51 1554.87 1308.07 1555.74 Q1305.65 1556.61 1302.62 1556.61 Q1298.4 1556.61 1295.8 1554.84 Q1293.19 1553.03 1293.19 1550.2 Q1293.19 1548.14 1294.31 1547.01 Q1295.44 1545.85 1296.89 1545.85 Q1297.99 1545.85 1298.66 1546.46 Q1299.34 1547.04 1299.34 1548.14 Q1299.34 1549.62 1298.15 1550.75 Q1296.96 1551.87 1295.18 1551.65 Q1296.7 1555.13 1302.69 1555.13 Q1304.94 1555.13 1306.68 1554.55 Q1308.45 1553.94 1309.42 1553.1 Q1310.42 1552.23 1311.06 1551.17 Q1311.71 1550.1 1311.9 1549.3 Q1312.12 1548.49 1312.12 1547.88 Q1312.12 1546.82 1311.71 1546.01 Q1311.29 1545.21 1310.71 1544.76 Q1310.16 1544.27 1309.1 1543.89 Q1308.07 1543.47 1307.33 1543.31 Q1306.59 1543.15 1305.26 1542.89 Q1304.65 1542.76 1304.27 1542.7 Q1303.88 1542.6 1303.07 1542.34 Q1302.3 1542.05 1301.75 1541.76 Q1301.24 1541.47 1300.56 1540.96 Q1299.89 1540.44 1299.47 1539.83 Q1299.05 1539.22 1298.76 1538.32 Q1298.47 1537.41 1298.47 1536.35 Q1298.47 1535.38 1298.76 1534.23 Q1299.08 1533.07 1299.89 1531.71 Q1300.72 1530.36 1301.92 1529.27 Q1303.11 1528.17 1305.1 1527.46 Q1307.13 1526.72 1309.61 1526.72 Q1313.22 1526.72 1315.35 1528.4 Q1317.47 1530.04 1317.47 1532.39 Z" fill="#000000" fill-rule="nonzero" fill-opacity="1" /><path clip-path="url(#clip590)" d="M1322.23 1570.84 L1327.77 1570.84 L1327.77 1507.91 L1322.23 1507.91 L1322.23 1506.4 L1332.18 1506.4 L1332.18 1572.36 L1322.23 1572.36 L1322.23 1570.84 Z" fill="#000000" fill-rule="nonzero" fill-opacity="1" /><polyline clip-path="url(#clip592)" style="stroke:#000000; stroke-linecap:round; stroke-linejoin:round; stroke-width:2; stroke-opacity:0.1; fill:none" points="172.691,1413.26 2352.76,1413.26 "/>
<polyline clip-path="url(#clip592)" style="stroke:#000000; stroke-linecap:round; stroke-linejoin:round; stroke-width:2; stroke-opacity:0.1; fill:none" points="172.691,1154.02 2352.76,1154.02 "/>
<polyline clip-path="url(#clip592)" style="stroke:#000000; stroke-linecap:round; stroke-linejoin:round; stroke-width:2; stroke-opacity:0.1; fill:none" points="172.691,894.778 2352.76,894.778 "/>
<polyline clip-path="url(#clip592)" style="stroke:#000000; stroke-linecap:round; stroke-linejoin:round; stroke-width:2; stroke-opacity:0.1; fill:none" points="172.691,635.539 2352.76,635.539 "/>
<polyline clip-path="url(#clip592)" style="stroke:#000000; stroke-linecap:round; stroke-linejoin:round; stroke-width:2; stroke-opacity:0.1; fill:none" points="172.691,376.3 2352.76,376.3 "/>
<polyline clip-path="url(#clip592)" style="stroke:#000000; stroke-linecap:round; stroke-linejoin:round; stroke-width:2; stroke-opacity:0.1; fill:none" points="172.691,117.061 2352.76,117.061 "/>
<polyline clip-path="url(#clip590)" style="stroke:#000000; stroke-linecap:round; stroke-linejoin:round; stroke-width:4; stroke-opacity:1; fill:none" points="172.691,1423.18 172.691,47.2441 "/>
<polyline clip-path="url(#clip590)" style="stroke:#000000; stroke-linecap:round; stroke-linejoin:round; stroke-width:4; stroke-opacity:1; fill:none" points="172.691,1413.26 191.588,1413.26 "/>
<polyline clip-path="url(#clip590)" style="stroke:#000000; stroke-linecap:round; stroke-linejoin:round; stroke-width:4; stroke-opacity:1; fill:none" points="172.691,1154.02 191.588,1154.02 "/>
<polyline clip-path="url(#clip590)" style="stroke:#000000; stroke-linecap:round; stroke-linejoin:round; stroke-width:4; stroke-opacity:1; fill:none" points="172.691,894.778 191.588,894.778 "/>
<polyline clip-path="url(#clip590)" style="stroke:#000000; stroke-linecap:round; stroke-linejoin:round; stroke-width:4; stroke-opacity:1; fill:none" points="172.691,635.539 191.588,635.539 "/>
<polyline clip-path="url(#clip590)" style="stroke:#000000; stroke-linecap:round; stroke-linejoin:round; stroke-width:4; stroke-opacity:1; fill:none" points="172.691,376.3 191.588,376.3 "/>
<polyline clip-path="url(#clip590)" style="stroke:#000000; stroke-linecap:round; stroke-linejoin:round; stroke-width:4; stroke-opacity:1; fill:none" points="172.691,117.061 191.588,117.061 "/>
<path clip-path="url(#clip590)" d="M119.991 1401.66 L119.991 1400.08 Q126.068 1400.08 129.206 1396.84 Q130.07 1396.84 130.219 1397.04 Q130.367 1397.24 130.367 1398.15 L130.367 1426.53 Q130.367 1428.04 131.108 1428.51 Q131.849 1428.98 135.085 1428.98 L136.691 1428.98 L136.691 1430.54 Q134.912 1430.39 128.489 1430.39 Q122.066 1430.39 120.312 1430.54 L120.312 1428.98 L121.918 1428.98 Q125.105 1428.98 125.871 1428.53 Q126.637 1428.07 126.637 1426.53 L126.637 1400.32 Q123.993 1401.66 119.991 1401.66 Z" fill="#000000" fill-rule="nonzero" fill-opacity="1" /><path clip-path="url(#clip590)" d="M116.483 1171.3 Q116.483 1170.38 116.558 1170.11 Q116.656 1169.84 117.052 1169.42 L126.76 1158.6 Q132.071 1152.62 132.071 1147.41 Q132.071 1144.02 130.293 1141.6 Q128.539 1139.18 125.303 1139.18 Q123.079 1139.18 121.202 1140.54 Q119.324 1141.9 118.46 1144.32 Q118.608 1144.27 119.127 1144.27 Q120.387 1144.27 121.078 1145.06 Q121.795 1145.85 121.795 1146.91 Q121.795 1148.27 120.905 1148.94 Q120.041 1149.58 119.176 1149.58 Q118.83 1149.58 118.361 1149.51 Q117.916 1149.43 117.2 1148.74 Q116.483 1148.03 116.483 1146.77 Q116.483 1143.23 119.151 1140.42 Q121.844 1137.6 125.945 1137.6 Q130.589 1137.6 133.628 1140.37 Q136.691 1143.11 136.691 1147.41 Q136.691 1148.92 136.221 1150.3 Q135.777 1151.66 135.159 1152.72 Q134.566 1153.78 132.936 1155.49 Q131.305 1157.19 129.996 1158.4 Q128.687 1159.61 125.747 1162.18 L120.387 1167.39 L129.502 1167.39 Q133.949 1167.39 134.295 1167 Q134.789 1166.28 135.406 1162.5 L136.691 1162.5 L135.258 1171.3 L116.483 1171.3 Z" fill="#000000" fill-rule="nonzero" fill-opacity="1" /><path clip-path="url(#clip590)" d="M115.693 905.24 Q115.693 903.733 116.558 903.016 Q117.422 902.3 118.534 902.3 Q119.695 902.3 120.51 903.066 Q121.35 903.807 121.35 905.116 Q121.35 906.524 120.362 907.315 Q119.398 908.105 118.015 907.908 Q119.226 909.933 121.449 910.847 Q123.697 911.761 125.772 911.761 Q127.946 911.761 129.7 909.884 Q131.478 908.006 131.478 903.412 Q131.478 899.508 129.947 897.26 Q128.44 895.012 125.451 895.012 L123.227 895.012 Q122.462 895.012 122.239 894.938 Q122.017 894.864 122.017 894.444 Q122.017 893.95 122.783 893.851 Q123.549 893.851 124.759 893.703 Q127.699 893.604 129.255 891.06 Q130.663 888.688 130.663 885.304 Q130.663 882.216 129.181 880.932 Q127.723 879.622 125.821 879.622 Q124.043 879.622 122.091 880.363 Q120.14 881.104 119.077 882.76 Q122.215 882.76 122.215 885.304 Q122.215 886.416 121.498 887.157 Q120.807 887.873 119.645 887.873 Q118.534 887.873 117.793 887.181 Q117.052 886.465 117.052 885.255 Q117.052 882.364 119.621 880.363 Q122.215 878.362 126.019 878.362 Q129.774 878.362 132.541 880.339 Q135.332 882.315 135.332 885.353 Q135.332 888.343 133.356 890.788 Q131.38 893.234 128.242 894.247 Q132.096 895.012 134.393 897.631 Q136.691 900.225 136.691 903.412 Q136.691 907.364 133.578 910.279 Q130.466 913.169 125.92 913.169 Q121.721 913.169 118.707 910.897 Q115.693 908.624 115.693 905.24 Z" fill="#000000" fill-rule="nonzero" fill-opacity="1" /><path clip-path="url(#clip590)" d="M114.26 644.469 L114.26 642.913 L129.799 619.173 Q130.194 618.555 130.811 618.58 Q131.38 618.58 131.503 618.802 Q131.627 619.025 131.627 619.889 L131.627 642.913 L136.691 642.913 L136.691 644.469 L131.627 644.469 L131.627 648.866 Q131.627 650.324 132.219 650.793 Q132.837 651.263 135.456 651.263 L136.518 651.263 L136.518 652.819 Q134.443 652.671 129.65 652.671 Q124.883 652.671 122.808 652.819 L122.808 651.263 L123.87 651.263 Q126.488 651.263 127.106 650.818 Q127.723 650.349 127.723 648.866 L127.723 644.469 L114.26 644.469 M115.693 642.913 L128.02 642.913 L128.02 624.04 L115.693 642.913 Z" fill="#000000" fill-rule="nonzero" fill-opacity="1" /><path clip-path="url(#clip590)" d="M116.483 385.428 Q116.483 383.921 117.299 383.353 Q118.114 382.76 118.978 382.76 Q120.14 382.76 120.807 383.501 Q121.498 384.217 121.498 385.23 Q121.498 386.243 120.807 386.984 Q120.14 387.701 118.978 387.701 Q118.41 387.701 118.114 387.602 Q118.781 389.924 120.807 391.604 Q122.857 393.284 125.55 393.284 Q128.934 393.284 130.96 389.998 Q132.17 387.874 132.17 383.056 Q132.17 378.807 131.256 376.683 Q129.848 373.447 126.958 373.447 Q122.857 373.447 120.436 376.979 Q120.14 377.424 119.794 377.449 Q119.3 377.449 119.176 377.177 Q119.077 376.881 119.077 376.115 L119.077 361.145 Q119.077 359.934 119.571 359.934 Q119.769 359.934 120.189 360.082 Q123.376 361.49 126.908 361.515 Q130.54 361.515 133.801 360.033 Q134.048 359.885 134.196 359.885 Q134.69 359.885 134.715 360.453 Q134.715 360.65 134.295 361.243 Q133.899 361.812 133.035 362.577 Q132.17 363.318 131.058 364.035 Q129.947 364.751 128.316 365.245 Q126.711 365.715 124.932 365.715 Q122.808 365.715 120.634 365.048 L120.634 374.904 Q123.252 372.335 127.056 372.335 Q131.108 372.335 133.899 375.596 Q136.691 378.857 136.691 383.402 Q136.691 388.17 133.381 391.431 Q130.095 394.692 125.648 394.692 Q121.597 394.692 119.028 391.801 Q116.483 388.911 116.483 385.428 Z" fill="#000000" fill-rule="nonzero" fill-opacity="1" /><path clip-path="url(#clip590)" d="M115.693 118.358 Q115.693 110.404 119.744 105.537 Q123.796 100.646 129.008 100.646 Q132.047 100.646 133.726 102.202 Q135.431 103.734 135.431 106.105 Q135.431 107.415 134.665 107.983 Q133.899 108.551 133.109 108.551 Q132.195 108.551 131.478 107.933 Q130.762 107.316 130.762 106.204 Q130.762 103.931 133.553 103.931 Q132.244 101.906 129.107 101.906 Q128.143 101.906 127.155 102.202 Q126.167 102.474 124.883 103.413 Q123.598 104.351 122.61 105.834 Q121.622 107.316 120.93 110.107 Q120.238 112.899 120.238 116.53 L120.238 117.741 Q122.313 112.726 126.562 112.75 Q130.811 112.75 133.751 115.987 Q136.691 119.223 136.691 124.015 Q136.691 128.931 133.628 132.192 Q130.564 135.453 126.266 135.453 Q124.339 135.453 122.585 134.638 Q120.856 133.847 119.226 132.019 Q117.62 130.191 116.656 126.683 Q115.693 123.175 115.693 118.358 M120.337 122.904 Q120.337 127.869 121.251 130.24 Q121.399 130.636 121.721 131.179 Q122.066 131.723 122.635 132.439 Q123.227 133.131 124.191 133.6 Q125.154 134.045 126.266 134.045 Q129.65 134.045 131.281 130.759 Q132.145 128.931 132.145 123.966 Q132.145 118.902 131.231 117.049 Q129.675 113.912 126.513 113.912 Q124.389 113.912 122.906 115.369 Q121.449 116.827 120.881 118.778 Q120.337 120.73 120.337 122.904 Z" fill="#000000" fill-rule="nonzero" fill-opacity="1" /><path clip-path="url(#clip590)" d="M64.7637 781.176 Q65.3756 781.176 65.6976 781.434 Q65.9875 781.66 66.0519 781.885 Q66.0841 782.078 66.0841 782.368 Q66.0841 783.205 65.9875 786.104 Q65.8909 789.003 65.8909 789.84 Q65.8909 791.192 65.9875 793.962 Q66.0841 796.732 66.0841 798.085 Q66.0841 798.986 65.3434 798.986 Q64.8603 798.986 64.6026 798.89 Q64.3128 798.793 64.2162 798.535 Q64.0873 798.246 64.0873 798.085 Q64.0551 797.891 64.0551 797.408 Q64.0551 796.764 63.9907 796.088 Q63.8941 795.411 63.7009 794.574 Q63.5076 793.737 63.0245 793.221 Q62.5415 792.674 61.8651 792.674 Q61.5753 792.674 59.192 792.899 Q56.8088 793.125 54.0391 793.415 Q51.2372 793.705 50.8507 793.737 L50.8507 810.291 Q53.4594 811.804 55.2629 812.867 Q57.0665 813.93 57.6784 814.316 Q58.2903 814.703 58.6767 814.928 Q59.0632 815.154 59.2887 815.282 Q60.9956 816.216 61.7363 816.216 Q63.7975 816.216 64.0551 813.125 Q64.0551 812.062 64.8281 812.062 Q65.4078 812.062 65.7298 812.32 Q66.0197 812.577 66.0519 812.803 Q66.0841 812.996 66.0841 813.318 Q66.0841 814.381 65.9875 816.603 Q65.8909 818.825 65.8909 819.92 Q65.8909 820.854 65.9875 822.786 Q66.0841 824.719 66.0841 825.588 Q66.0841 825.975 65.8587 826.2 Q65.6332 826.426 65.3434 826.426 Q64.8925 826.426 64.6348 826.361 Q64.3772 826.265 64.2484 826.007 Q64.1195 825.749 64.1195 825.621 Q64.0873 825.492 64.0551 825.041 Q63.8941 822.593 62.7347 820.693 Q61.5431 818.761 58.4835 816.925 L19.9653 793.994 Q19.5788 793.769 19.3856 793.608 Q19.1924 793.447 19.0313 793.125 Q18.8703 792.771 18.8703 792.255 Q18.8703 791.45 19.1279 791.289 Q19.3534 791.128 20.4484 791.031 L61.6719 787.006 Q62.5415 786.909 62.8957 786.845 Q63.2178 786.748 63.572 786.329 Q63.8941 785.879 63.9907 785.073 Q64.0551 784.236 64.0551 782.69 Q64.0551 782.11 64.0873 781.885 Q64.0873 781.66 64.2484 781.434 Q64.4094 781.176 64.7637 781.176 M48.7895 793.93 L27.0506 796.023 L48.7895 809.035 L48.7895 793.93 Z" fill="#000000" fill-rule="nonzero" fill-opacity="1" /><path clip-path="url(#clip590)" d="M65.6094 754.802 Q68.0667 754.802 70.5015 755.884 Q72.9137 756.966 74.7173 758.702 Q76.4982 760.416 77.6254 762.67 Q78.7301 764.924 78.7301 767.179 Q78.7301 770.403 76.5433 772.499 Q74.334 774.573 70.9073 774.573 Q67.706 774.573 64.6626 772.792 Q61.5966 770.989 59.7029 768.103 Q57.8092 765.217 57.8092 762.196 Q57.8092 759.018 59.9509 756.921 Q62.0926 754.802 65.6094 754.802 M63.8059 758.184 Q61.6191 758.184 60.2214 759.243 Q58.8237 760.303 58.8237 762.242 Q58.8237 762.805 59.004 763.459 Q59.1618 764.113 59.5902 764.969 Q60.0185 765.804 60.9203 766.75 Q61.7995 767.675 63.062 768.486 Q64.7302 769.546 67.7962 770.357 Q70.8397 771.147 72.6657 771.147 Q75.1907 771.147 76.4532 769.974 Q77.6931 768.802 77.6931 767.134 Q77.6931 765.51 76.5659 763.797 Q75.4161 762.061 73.4548 760.866 Q71.4258 759.672 68.45 758.928 Q65.4516 758.184 63.8059 758.184 Z" fill="#000000" fill-rule="nonzero" fill-opacity="1" /><path clip-path="url(#clip590)" d="M82.5735 730.524 L16.6159 730.524 L16.6159 720.573 L18.1296 720.573 L18.1296 726.112 L81.0598 726.112 L81.0598 720.573 L82.5735 720.573 L82.5735 730.524 Z" fill="#000000" fill-rule="nonzero" fill-opacity="1" /><path clip-path="url(#clip590)" d="M56.6478 665.197 Q56.9054 665.197 57.9038 665.486 Q58.9022 665.776 60.4481 666.485 Q61.994 667.161 63.411 668.127 Q64.7959 669.061 65.8264 670.607 Q66.8248 672.121 66.8248 673.86 Q66.8248 676.179 65.2789 677.725 Q63.7331 679.27 61.4142 679.27 Q60.1582 679.27 57.775 678.401 Q46.8894 674.311 42.9925 674.311 Q38.3871 674.311 38.3871 677.886 Q38.3871 679.915 39.2244 681.75 Q40.0618 683.586 41.2212 684.778 Q42.3806 685.969 43.701 686.903 Q45.0215 687.837 45.891 688.256 Q46.7606 688.642 47.147 688.739 L63.0567 692.7 Q64.4094 693.022 65.0535 693.248 Q65.6976 693.473 66.2451 694.085 Q66.8248 694.697 66.8248 695.663 Q66.8248 696.468 66.3417 697.048 Q65.8587 697.596 65.0213 697.596 Q64.8925 697.596 64.2162 697.435 Q63.5398 697.274 62.6059 697.048 Q61.6719 696.823 61.1244 696.726 Q56.7444 695.567 56.1325 695.406 L48.4675 693.57 Q44.6672 692.572 42.9925 692.572 Q38.3871 692.572 38.3871 696.146 Q38.3871 697.918 39.0634 699.592 Q39.7075 701.235 40.6093 702.362 Q41.511 703.489 42.7671 704.52 Q43.9909 705.518 44.8282 706.034 Q45.6334 706.517 46.4385 706.903 L49.7235 707.74 Q50.6253 707.934 54.1357 708.868 L60.0938 710.317 Q64.5382 711.348 64.9569 711.573 Q65.8587 711.895 66.3417 712.604 Q66.8248 713.312 66.8248 714.021 Q66.8248 714.826 66.3417 715.373 Q65.8587 715.921 65.0213 715.921 Q64.8925 715.921 64.4094 715.824 Q63.9263 715.728 63.25 715.566 Q62.5737 715.405 62.1872 715.341 L46.9538 711.509 Q44.1841 710.8 43.3146 710.639 Q42.4128 710.446 41.4144 710.446 Q38.3871 710.446 38.3871 712.507 Q38.3871 714.182 40.3838 715.277 Q42.3806 716.372 46.2453 717.306 Q47.3081 717.595 47.5335 717.789 Q47.759 717.95 47.759 718.433 Q47.7268 719.238 47.0826 719.238 Q46.9216 719.238 45.891 718.98 Q44.8604 718.723 43.3146 718.24 Q41.7365 717.724 40.7059 717.177 Q40.0296 716.855 39.5787 716.565 Q39.1278 716.275 38.4193 715.695 Q37.7107 715.116 37.3243 714.246 Q36.9378 713.376 36.9378 712.314 Q36.9378 709.963 38.4515 708.224 Q39.9651 706.452 42.6704 706.227 Q36.9378 701.943 36.9378 695.953 Q36.9378 692.572 38.6447 690.543 Q40.2872 688.642 43.3146 688.417 Q36.9378 683.973 36.9378 677.66 Q36.9378 674.021 38.8379 672.056 Q40.7059 670.092 43.9909 670.092 Q45.6978 670.092 48.9506 670.961 Q52.1712 671.831 53.7815 672.411 Q55.3917 672.99 58.4835 674.118 Q61.4465 675.309 63.1856 675.309 Q64.3128 675.309 64.8281 674.923 Q65.3434 674.536 65.3434 673.699 Q65.3434 672.411 64.6026 671.283 Q63.8297 670.156 62.5737 669.351 Q61.2854 668.514 59.9972 667.966 Q58.6767 667.419 57.1953 667 Q56.3901 666.742 56.1969 666.614 Q56.0037 666.453 56.0037 666.002 Q56.0037 665.197 56.6478 665.197 Z" fill="#000000" fill-rule="nonzero" fill-opacity="1" /><path clip-path="url(#clip590)" d="M81.0598 662.148 L81.0598 656.609 L18.1296 656.609 L18.1296 662.148 L16.6159 662.148 L16.6159 652.197 L82.5735 652.197 L82.5735 662.148 L81.0598 662.148 Z" fill="#000000" fill-rule="nonzero" fill-opacity="1" /><circle clip-path="url(#clip592)" cx="2291.06" cy="86.1857" r="7.2" fill="#ff0000" fill-rule="evenodd" fill-opacity="1" stroke="#000000" stroke-opacity="1" stroke-width="3.2"/>
<circle clip-path="url(#clip592)" cx="234.391" cy="950.682" r="7.2" fill="#ff0000" fill-rule="evenodd" fill-opacity="1" stroke="#000000" stroke-opacity="1" stroke-width="3.2"/>
<circle clip-path="url(#clip592)" cx="1101.33" cy="985.716" r="7.2" fill="#ff0000" fill-rule="evenodd" fill-opacity="1" stroke="#000000" stroke-opacity="1" stroke-width="3.2"/>
<circle clip-path="url(#clip592)" cx="1292.03" cy="1384.24" r="7.2" fill="#ff0000" fill-rule="evenodd" fill-opacity="1" stroke="#000000" stroke-opacity="1" stroke-width="3.2"/>
<path clip-path="url(#clip590)" d="M245.36 196.789 L1049.08 196.789 L1049.08 93.1086 L245.36 93.1086  Z" fill="#ffffff" fill-rule="evenodd" fill-opacity="1"/>
<polyline clip-path="url(#clip590)" style="stroke:#000000; stroke-linecap:round; stroke-linejoin:round; stroke-width:4; stroke-opacity:1; fill:none" points="245.36,196.789 1049.08,196.789 1049.08,93.1086 245.36,93.1086 245.36,196.789 "/>
<circle clip-path="url(#clip590)" cx="342.251" cy="144.949" r="18.432" fill="#ff0000" fill-rule="evenodd" fill-opacity="1" stroke="#000000" stroke-opacity="1" stroke-width="8.192"/>
<path clip-path="url(#clip590)" d="M444.331 157.98 Q439.143 152.619 439.143 144.936 Q439.143 137.229 444.38 131.893 Q449.617 126.557 456.732 126.557 Q458.511 126.557 460.018 126.977 Q461.549 127.372 462.76 128.187 Q463.97 128.978 464.588 129.521 Q465.23 130.04 466.095 130.905 L468.639 127.175 Q469.034 126.557 469.43 126.557 Q469.849 126.557 469.924 126.804 Q469.998 127.026 469.998 127.767 L469.998 139.773 Q469.998 140.588 469.899 140.786 Q469.8 140.984 469.182 140.984 Q468.688 140.984 468.59 140.836 Q468.491 140.687 468.367 140.119 Q467.601 134.66 464.538 131.399 Q461.5 128.138 457.35 128.138 Q456.139 128.138 454.78 128.41 Q453.446 128.681 451.47 129.719 Q449.519 130.757 448.012 132.461 Q446.53 134.141 445.443 137.402 Q444.356 140.638 444.356 144.936 Q444.356 149.185 445.443 152.446 Q446.53 155.707 448.036 157.411 Q449.568 159.091 451.544 160.154 Q453.545 161.216 454.953 161.512 Q456.386 161.784 457.646 161.784 Q458.511 161.784 459.523 161.611 Q460.536 161.413 462.043 160.87 Q463.575 160.302 464.538 158.968 Q465.502 157.634 465.502 155.658 L465.502 152.421 Q465.502 150.914 464.761 150.445 Q464.019 149.976 460.783 149.976 L459.178 149.976 L459.178 148.419 Q461.006 148.568 467.305 148.568 Q467.873 148.568 473.481 148.419 L473.481 149.976 Q471.06 149.976 470.516 150.346 Q469.998 150.692 469.998 152.199 L469.998 161.018 Q469.998 162.179 469.553 162.179 Q469.158 162.179 467.972 161.043 Q466.811 159.907 466.292 159.042 Q465.082 161.166 462.438 162.253 Q459.82 163.34 456.831 163.34 Q449.543 163.34 444.331 157.98 Z" fill="#000000" fill-rule="nonzero" fill-opacity="1" /><path clip-path="url(#clip590)" d="M477.359 162.229 L477.359 160.672 Q480.052 160.672 480.67 160.351 Q481.312 160.005 481.312 158.375 L481.312 144.813 Q481.312 142.935 480.645 142.466 Q480.003 141.997 477.359 141.997 L477.359 140.416 L484.4 139.872 L484.4 145.43 Q485.116 143.256 486.623 141.577 Q488.155 139.872 490.625 139.872 Q492.255 139.872 493.293 140.786 Q494.355 141.7 494.355 142.96 Q494.355 144.072 493.664 144.64 Q492.997 145.183 492.181 145.183 Q491.267 145.183 490.625 144.615 Q490.007 144.022 490.007 143.009 Q490.007 142.392 490.279 141.922 Q490.576 141.428 490.798 141.255 Q491.02 141.083 491.168 141.033 Q491.07 140.984 490.625 140.984 Q487.834 140.984 486.228 143.775 Q484.647 146.542 484.647 150.495 L484.647 158.276 Q484.647 159.734 485.24 160.203 Q485.857 160.672 488.501 160.672 L489.563 160.672 L489.563 162.229 Q487.537 162.08 483.14 162.08 Q482.522 162.08 481.559 162.105 Q480.595 162.13 479.336 162.179 Q478.076 162.229 477.359 162.229 Z" fill="#000000" fill-rule="nonzero" fill-opacity="1" /><path clip-path="url(#clip590)" d="M500.457 159.511 Q497.122 156.201 497.122 151.409 Q497.122 146.591 500.383 143.084 Q503.668 139.551 508.362 139.551 Q512.957 139.551 516.242 143.059 Q519.553 146.542 519.553 151.409 Q519.553 156.176 516.218 159.487 Q512.907 162.797 508.313 162.797 Q503.817 162.797 500.457 159.511 M501.322 150.989 Q501.322 155.905 502.606 158.128 Q504.582 161.512 508.362 161.512 Q510.239 161.512 511.796 160.499 Q513.377 159.487 514.241 157.782 Q515.353 155.559 515.353 150.989 Q515.353 146.122 514.019 143.973 Q512.043 140.687 508.313 140.687 Q506.682 140.687 505.076 141.552 Q503.495 142.392 502.532 144.072 Q501.322 146.295 501.322 150.989 Z" fill="#000000" fill-rule="nonzero" fill-opacity="1" /><path clip-path="url(#clip590)" d="M522.641 141.997 L522.641 140.416 L530.076 139.872 L530.076 156.67 Q530.076 157.881 530.175 158.597 Q530.274 159.289 530.669 160.104 Q531.089 160.919 532.028 161.29 Q532.991 161.66 534.523 161.66 Q537.265 161.66 538.945 159.412 Q540.649 157.164 540.649 153.829 L540.649 144.813 Q540.649 142.935 539.982 142.466 Q539.315 141.997 536.697 141.997 L536.697 140.416 L544.132 139.872 L544.132 157.831 Q544.132 159.709 544.775 160.203 Q545.442 160.672 548.085 160.672 L548.085 162.229 L540.798 162.797 L540.798 158.227 Q538.673 162.772 534.276 162.797 Q532.053 162.797 530.521 162.229 Q529.014 161.66 528.248 160.969 Q527.482 160.252 527.062 158.894 Q526.667 157.535 526.618 156.695 Q526.568 155.855 526.568 154.225 L526.568 146.641 Q526.568 143.207 526.074 142.614 Q525.58 141.997 522.641 141.997 Z" fill="#000000" fill-rule="nonzero" fill-opacity="1" /><path clip-path="url(#clip590)" d="M550.481 170.48 Q553.174 170.48 553.792 170.134 Q554.434 169.813 554.434 168.207 L554.434 144.516 Q554.434 142.836 553.792 142.417 Q553.174 141.997 550.481 141.997 L550.481 140.416 L557.769 139.872 L557.769 143.207 Q560.807 139.872 564.859 139.872 Q569.157 139.872 572.294 143.207 Q575.432 146.542 575.432 151.31 Q575.432 156.127 572.097 159.462 Q568.762 162.797 564.142 162.797 Q561.622 162.797 559.918 161.512 Q558.238 160.203 557.917 159.24 L557.917 159.709 L557.917 168.207 Q557.917 169.837 558.559 170.158 Q559.202 170.48 561.869 170.48 L561.869 172.036 Q556.558 171.888 556.163 171.888 Q555.669 171.888 550.481 172.036 L550.481 170.48 M557.917 156.473 Q557.917 157.239 558.016 157.51 Q558.139 157.782 558.633 158.597 Q560.634 161.66 563.895 161.66 Q563.92 161.66 563.945 161.66 Q566.835 161.66 569.033 158.721 Q571.232 155.756 571.232 151.31 Q571.232 147.061 569.231 144.096 Q567.23 141.132 564.463 141.132 Q562.487 141.132 560.758 142.194 Q559.029 143.256 557.917 145.183 L557.917 156.473 Z" fill="#000000" fill-rule="nonzero" fill-opacity="1" /><path clip-path="url(#clip590)" d="M595.367 170.48 Q598.06 170.48 598.678 170.134 Q599.32 169.813 599.32 168.207 L599.32 144.516 Q599.32 142.836 598.678 142.417 Q598.06 141.997 595.367 141.997 L595.367 140.416 L602.655 139.872 L602.655 143.207 Q605.693 139.872 609.745 139.872 Q614.043 139.872 617.18 143.207 Q620.318 146.542 620.318 151.31 Q620.318 156.127 616.983 159.462 Q613.648 162.797 609.028 162.797 Q606.508 162.797 604.804 161.512 Q603.124 160.203 602.803 159.24 L602.803 159.709 L602.803 168.207 Q602.803 169.837 603.445 170.158 Q604.088 170.48 606.756 170.48 L606.756 172.036 Q601.444 171.888 601.049 171.888 Q600.555 171.888 595.367 172.036 L595.367 170.48 M602.803 156.473 Q602.803 157.239 602.902 157.51 Q603.025 157.782 603.519 158.597 Q605.52 161.66 608.781 161.66 Q608.806 161.66 608.831 161.66 Q611.721 161.66 613.919 158.721 Q616.118 155.756 616.118 151.31 Q616.118 147.061 614.117 144.096 Q612.116 141.132 609.349 141.132 Q607.373 141.132 605.644 142.194 Q603.915 143.256 602.803 145.183 L602.803 156.473 Z" fill="#000000" fill-rule="nonzero" fill-opacity="1" /><path clip-path="url(#clip590)" d="M624.147 157.411 Q624.147 153.113 629.211 150.84 Q632.249 149.383 638.524 149.012 L638.524 147.16 Q638.524 144.022 636.869 142.367 Q635.238 140.687 633.163 140.687 Q629.458 140.687 627.679 143.009 Q629.186 143.059 629.73 143.825 Q630.273 144.566 630.273 145.332 Q630.273 146.344 629.631 147.011 Q629.013 147.654 627.951 147.654 Q626.938 147.654 626.271 147.036 Q625.604 146.394 625.604 145.282 Q625.604 142.812 627.827 141.181 Q630.075 139.551 633.262 139.551 Q637.412 139.551 640.179 142.342 Q641.044 143.207 641.464 144.319 Q641.908 145.43 641.958 146.171 Q642.007 146.888 642.007 148.321 L642.007 158.424 Q642.007 158.721 642.106 159.215 Q642.205 159.709 642.649 160.351 Q643.119 160.969 643.885 160.969 Q645.713 160.969 645.688 157.733 L645.688 154.892 L646.973 154.892 L646.973 157.733 Q646.973 160.425 645.54 161.488 Q644.132 162.525 642.822 162.525 Q641.143 162.525 640.08 161.29 Q639.018 160.055 638.87 158.375 Q638.104 160.302 636.35 161.562 Q634.621 162.797 632.249 162.797 Q630.421 162.797 628.692 162.327 Q626.988 161.883 625.555 160.623 Q624.147 159.338 624.147 157.411 M628.05 157.362 Q628.05 159.24 629.384 160.45 Q630.718 161.66 632.595 161.66 Q634.72 161.66 636.622 160.03 Q638.524 158.375 638.524 155.139 L638.524 150.075 Q632.916 150.272 630.471 152.52 Q628.05 154.744 628.05 157.362 Z" fill="#000000" fill-rule="nonzero" fill-opacity="1" /><path clip-path="url(#clip590)" d="M648.727 162.229 L648.727 160.672 Q651.419 160.672 652.037 160.351 Q652.679 160.005 652.679 158.375 L652.679 144.813 Q652.679 142.935 652.012 142.466 Q651.37 141.997 648.727 141.997 L648.727 140.416 L655.767 139.872 L655.767 145.43 Q656.483 143.256 657.99 141.577 Q659.522 139.872 661.992 139.872 Q663.623 139.872 664.66 140.786 Q665.722 141.7 665.722 142.96 Q665.722 144.072 665.031 144.64 Q664.364 145.183 663.549 145.183 Q662.635 145.183 661.992 144.615 Q661.375 144.022 661.375 143.009 Q661.375 142.392 661.646 141.922 Q661.943 141.428 662.165 141.255 Q662.387 141.083 662.536 141.033 Q662.437 140.984 661.992 140.984 Q659.201 140.984 657.595 143.775 Q656.014 146.542 656.014 150.495 L656.014 158.276 Q656.014 159.734 656.607 160.203 Q657.224 160.672 659.868 160.672 L660.93 160.672 L660.93 162.229 Q658.904 162.08 654.507 162.08 Q653.89 162.08 652.926 162.105 Q651.963 162.13 650.703 162.179 Q649.443 162.229 648.727 162.229 Z" fill="#000000" fill-rule="nonzero" fill-opacity="1" /><path clip-path="url(#clip590)" d="M669.206 157.411 Q669.206 153.113 674.27 150.84 Q677.308 149.383 683.583 149.012 L683.583 147.16 Q683.583 144.022 681.928 142.367 Q680.297 140.687 678.222 140.687 Q674.517 140.687 672.738 143.009 Q674.245 143.059 674.789 143.825 Q675.332 144.566 675.332 145.332 Q675.332 146.344 674.69 147.011 Q674.072 147.654 673.01 147.654 Q671.997 147.654 671.33 147.036 Q670.663 146.394 670.663 145.282 Q670.663 142.812 672.886 141.181 Q675.134 139.551 678.321 139.551 Q682.471 139.551 685.238 142.342 Q686.103 143.207 686.523 144.319 Q686.967 145.43 687.017 146.171 Q687.066 146.888 687.066 148.321 L687.066 158.424 Q687.066 158.721 687.165 159.215 Q687.264 159.709 687.708 160.351 Q688.178 160.969 688.944 160.969 Q690.772 160.969 690.747 157.733 L690.747 154.892 L692.032 154.892 L692.032 157.733 Q692.032 160.425 690.599 161.488 Q689.191 162.525 687.881 162.525 Q686.202 162.525 685.139 161.29 Q684.077 160.055 683.929 158.375 Q683.163 160.302 681.409 161.562 Q679.68 162.797 677.308 162.797 Q675.48 162.797 673.751 162.327 Q672.046 161.883 670.614 160.623 Q669.206 159.338 669.206 157.411 M673.109 157.362 Q673.109 159.24 674.443 160.45 Q675.777 161.66 677.654 161.66 Q679.779 161.66 681.681 160.03 Q683.583 158.375 683.583 155.139 L683.583 150.075 Q677.975 150.272 675.53 152.52 Q673.109 154.744 673.109 157.362 Z" fill="#000000" fill-rule="nonzero" fill-opacity="1" /><path clip-path="url(#clip590)" d="M694.008 162.229 L694.008 160.672 Q696.7 160.672 697.318 160.351 Q697.936 160.005 697.936 158.375 L697.936 144.813 Q697.936 142.935 697.269 142.466 Q696.626 141.997 694.008 141.997 L694.008 140.416 L701.122 139.872 L701.122 145.183 Q703.494 139.872 708.607 139.872 Q714.536 139.872 715.351 144.813 Q716.216 142.886 718.019 141.379 Q719.847 139.872 722.688 139.872 Q726.493 139.872 728 141.75 Q729.111 143.009 729.334 144.417 Q729.556 145.826 729.556 149.482 L729.556 159.141 Q729.605 160.203 730.421 160.45 Q731.236 160.672 733.508 160.672 L733.508 162.229 Q728.345 162.08 727.851 162.08 Q727.456 162.08 722.12 162.229 L722.12 160.672 Q724.813 160.672 725.43 160.351 Q726.073 160.005 726.073 158.375 L726.073 146.591 Q726.073 144.022 725.282 142.515 Q724.492 140.984 722.318 140.984 Q719.699 140.984 717.599 143.182 Q715.5 145.381 715.5 149.086 L715.5 158.375 Q715.5 160.005 716.117 160.351 Q716.76 160.672 719.452 160.672 L719.452 162.229 Q714.289 162.08 713.77 162.08 Q713.375 162.08 708.064 162.229 L708.064 160.672 Q710.757 160.672 711.374 160.351 Q712.017 160.005 712.017 158.375 L712.017 146.591 Q712.017 144.022 711.226 142.515 Q710.436 140.984 708.262 140.984 Q705.643 140.984 703.543 143.182 Q701.443 145.381 701.443 149.086 L701.443 158.375 Q701.443 160.005 702.061 160.351 Q702.703 160.672 705.371 160.672 L705.371 162.229 Q700.208 162.08 699.714 162.08 Q699.319 162.08 694.008 162.229 Z" fill="#000000" fill-rule="nonzero" fill-opacity="1" /><path clip-path="url(#clip590)" d="M735.905 151.087 Q735.905 146.32 738.968 142.935 Q742.031 139.551 746.428 139.551 Q750.875 139.551 753.172 142.441 Q755.494 145.332 755.494 149.482 Q755.494 150.247 755.297 150.396 Q755.099 150.544 754.235 150.544 L740.104 150.544 Q740.104 155.707 741.636 158.128 Q743.76 161.512 747.342 161.512 Q747.836 161.512 748.429 161.413 Q749.022 161.315 750.233 160.895 Q751.443 160.45 752.505 159.289 Q753.568 158.128 754.185 156.3 Q754.333 155.583 754.827 155.608 Q755.494 155.608 755.494 156.201 Q755.494 156.646 755 157.658 Q754.531 158.647 753.617 159.832 Q752.703 161.018 750.924 161.907 Q749.17 162.797 747.046 162.797 Q742.599 162.797 739.24 159.437 Q735.905 156.053 735.905 151.087 M740.154 149.482 L752.159 149.482 Q752.159 148.419 751.962 147.234 Q751.789 146.048 751.245 144.417 Q750.727 142.762 749.492 141.725 Q748.256 140.687 746.428 140.687 Q745.613 140.687 744.724 141.033 Q743.859 141.379 742.797 142.219 Q741.735 143.059 740.994 144.961 Q740.252 146.863 740.154 149.482 Z" fill="#000000" fill-rule="nonzero" fill-opacity="1" /><path clip-path="url(#clip590)" d="M757.915 141.997 L757.915 140.885 Q760.237 140.786 761.769 139.156 Q763.325 137.501 763.844 135.475 Q764.388 133.449 764.437 131.102 L765.697 131.102 L765.697 140.416 L772.935 140.416 L772.935 141.997 L765.697 141.997 L765.697 156.053 Q765.697 161.512 769.106 161.512 Q770.563 161.512 771.527 160.03 Q772.49 158.523 772.49 155.855 L772.49 153.064 L773.75 153.064 L773.75 155.954 Q773.75 158.696 772.49 160.746 Q771.23 162.797 768.735 162.797 Q767.821 162.797 766.907 162.55 Q766.018 162.327 764.832 161.735 Q763.671 161.117 762.93 159.635 Q762.214 158.128 762.214 155.954 L762.214 141.997 L757.915 141.997 Z" fill="#000000" fill-rule="nonzero" fill-opacity="1" /><path clip-path="url(#clip590)" d="M777.974 151.087 Q777.974 146.32 781.038 142.935 Q784.101 139.551 788.498 139.551 Q792.945 139.551 795.242 142.441 Q797.564 145.332 797.564 149.482 Q797.564 150.247 797.367 150.396 Q797.169 150.544 796.304 150.544 L782.174 150.544 Q782.174 155.707 783.706 158.128 Q785.83 161.512 789.412 161.512 Q789.906 161.512 790.499 161.413 Q791.092 161.315 792.302 160.895 Q793.513 160.45 794.575 159.289 Q795.637 158.128 796.255 156.3 Q796.403 155.583 796.897 155.608 Q797.564 155.608 797.564 156.201 Q797.564 156.646 797.07 157.658 Q796.601 158.647 795.687 159.832 Q794.773 161.018 792.994 161.907 Q791.24 162.797 789.116 162.797 Q784.669 162.797 781.309 159.437 Q777.974 156.053 777.974 151.087 M782.223 149.482 L794.229 149.482 Q794.229 148.419 794.032 147.234 Q793.859 146.048 793.315 144.417 Q792.797 142.762 791.561 141.725 Q790.326 140.687 788.498 140.687 Q787.683 140.687 786.794 141.033 Q785.929 141.379 784.867 142.219 Q783.804 143.059 783.063 144.961 Q782.322 146.863 782.223 149.482 Z" fill="#000000" fill-rule="nonzero" fill-opacity="1" /><path clip-path="url(#clip590)" d="M800.43 162.229 L800.43 160.672 Q803.123 160.672 803.74 160.351 Q804.382 160.005 804.382 158.375 L804.382 144.813 Q804.382 142.935 803.715 142.466 Q803.073 141.997 800.43 141.997 L800.43 140.416 L807.47 139.872 L807.47 145.43 Q808.187 143.256 809.694 141.577 Q811.225 139.872 813.696 139.872 Q815.326 139.872 816.364 140.786 Q817.426 141.7 817.426 142.96 Q817.426 144.072 816.734 144.64 Q816.067 145.183 815.252 145.183 Q814.338 145.183 813.696 144.615 Q813.078 144.022 813.078 143.009 Q813.078 142.392 813.35 141.922 Q813.646 141.428 813.868 141.255 Q814.091 141.083 814.239 141.033 Q814.14 140.984 813.696 140.984 Q810.904 140.984 809.298 143.775 Q807.717 146.542 807.717 150.495 L807.717 158.276 Q807.717 159.734 808.31 160.203 Q808.928 160.672 811.571 160.672 L812.633 160.672 L812.633 162.229 Q810.608 162.08 806.21 162.08 Q805.593 162.08 804.629 162.105 Q803.666 162.13 802.406 162.179 Q801.146 162.229 800.43 162.229 Z" fill="#000000" fill-rule="nonzero" fill-opacity="1" /><path clip-path="url(#clip590)" d="M820.464 161.562 L820.464 154.892 Q820.464 154.324 820.489 154.126 Q820.514 153.928 820.662 153.78 Q820.81 153.632 821.107 153.632 Q821.452 153.632 821.576 153.78 Q821.724 153.928 821.823 154.496 Q822.589 157.98 824.219 159.832 Q825.874 161.66 828.863 161.66 Q831.704 161.66 833.137 160.401 Q834.57 159.141 834.57 157.066 Q834.57 153.36 829.308 152.421 Q826.27 151.804 825.01 151.409 Q823.75 150.989 822.638 150.075 Q820.464 148.296 820.464 145.776 Q820.464 143.256 822.366 141.404 Q824.293 139.551 828.542 139.551 Q831.383 139.551 833.31 140.984 Q833.878 140.539 834.175 140.169 Q834.842 139.551 835.187 139.551 Q835.583 139.551 835.657 139.823 Q835.731 140.07 835.731 140.786 L835.731 145.875 Q835.731 146.443 835.706 146.641 Q835.682 146.838 835.533 146.987 Q835.385 147.11 835.064 147.11 Q834.496 147.11 834.471 146.641 Q834.076 140.514 828.542 140.514 Q825.553 140.514 824.219 141.675 Q822.885 142.812 822.885 144.368 Q822.885 145.233 823.28 145.9 Q823.7 146.542 824.219 146.937 Q824.763 147.308 825.751 147.678 Q826.739 148.024 827.332 148.148 Q827.949 148.271 829.11 148.518 Q833.162 149.284 834.866 150.939 Q836.991 153.064 836.991 155.756 Q836.991 158.745 834.965 160.771 Q832.939 162.797 828.863 162.797 Q825.578 162.797 823.28 160.598 Q822.984 160.895 822.762 161.166 Q822.539 161.413 822.441 161.512 Q822.366 161.611 822.342 161.685 Q822.317 161.735 822.268 161.784 Q821.255 162.797 821.008 162.797 Q820.612 162.797 820.538 162.525 Q820.464 162.278 820.464 161.562 Z" fill="#000000" fill-rule="nonzero" fill-opacity="1" /><path clip-path="url(#clip590)" d="M860.533 149.58 Q860.533 141.033 863.72 134.141 Q865.079 131.251 866.981 128.83 Q868.883 126.409 870.143 125.347 Q871.403 124.284 871.748 124.284 Q872.243 124.284 872.267 124.778 Q872.267 125.025 871.6 125.643 Q863.448 133.943 863.473 149.58 Q863.473 165.267 871.403 173.246 Q872.267 174.111 872.267 174.383 Q872.267 174.877 871.748 174.877 Q871.403 174.877 870.192 173.864 Q868.982 172.851 867.104 170.529 Q865.227 168.207 863.868 165.366 Q860.533 158.474 860.533 149.58 Z" fill="#000000" fill-rule="nonzero" fill-opacity="1" /><path clip-path="url(#clip590)" d="M876.813 161.562 L876.813 154.892 Q876.813 154.324 876.837 154.126 Q876.862 153.928 877.01 153.78 Q877.158 153.632 877.455 153.632 Q877.801 153.632 877.924 153.78 Q878.073 153.928 878.171 154.496 Q878.937 157.98 880.568 159.832 Q882.223 161.66 885.212 161.66 Q888.053 161.66 889.485 160.401 Q890.918 159.141 890.918 157.066 Q890.918 153.36 885.656 152.421 Q882.618 151.804 881.358 151.409 Q880.098 150.989 878.987 150.075 Q876.813 148.296 876.813 145.776 Q876.813 143.256 878.715 141.404 Q880.642 139.551 884.891 139.551 Q887.732 139.551 889.658 140.984 Q890.227 140.539 890.523 140.169 Q891.19 139.551 891.536 139.551 Q891.931 139.551 892.005 139.823 Q892.079 140.07 892.079 140.786 L892.079 145.875 Q892.079 146.443 892.055 146.641 Q892.03 146.838 891.882 146.987 Q891.733 147.11 891.412 147.11 Q890.844 147.11 890.819 146.641 Q890.424 140.514 884.891 140.514 Q881.902 140.514 880.568 141.675 Q879.234 142.812 879.234 144.368 Q879.234 145.233 879.629 145.9 Q880.049 146.542 880.568 146.937 Q881.111 147.308 882.099 147.678 Q883.087 148.024 883.68 148.148 Q884.298 148.271 885.459 148.518 Q889.51 149.284 891.215 150.939 Q893.339 153.064 893.339 155.756 Q893.339 158.745 891.314 160.771 Q889.288 162.797 885.212 162.797 Q881.926 162.797 879.629 160.598 Q879.332 160.895 879.11 161.166 Q878.888 161.413 878.789 161.512 Q878.715 161.611 878.69 161.685 Q878.665 161.735 878.616 161.784 Q877.603 162.797 877.356 162.797 Q876.961 162.797 876.887 162.525 Q876.813 162.278 876.813 161.562 Z" fill="#000000" fill-rule="nonzero" fill-opacity="1" /><path clip-path="url(#clip590)" d="M899.787 159.511 Q896.452 156.201 896.452 151.409 Q896.452 146.591 899.713 143.084 Q902.998 139.551 907.692 139.551 Q912.287 139.551 915.572 143.059 Q918.882 146.542 918.882 151.409 Q918.882 156.176 915.547 159.487 Q912.237 162.797 907.642 162.797 Q903.146 162.797 899.787 159.511 M900.651 150.989 Q900.651 155.905 901.936 158.128 Q903.912 161.512 907.692 161.512 Q909.569 161.512 911.126 160.499 Q912.707 159.487 913.571 157.782 Q914.683 155.559 914.683 150.989 Q914.683 146.122 913.349 143.973 Q911.373 140.687 907.642 140.687 Q906.012 140.687 904.406 141.552 Q902.825 142.392 901.862 144.072 Q900.651 146.295 900.651 150.989 Z" fill="#000000" fill-rule="nonzero" fill-opacity="1" /><path clip-path="url(#clip590)" d="M921.748 162.229 L921.748 160.672 Q924.441 160.672 925.058 160.351 Q925.701 160.005 925.701 158.375 L925.701 144.813 Q925.701 142.935 925.034 142.466 Q924.391 141.997 921.748 141.997 L921.748 140.416 L928.788 139.872 L928.788 145.43 Q929.505 143.256 931.012 141.577 Q932.543 139.872 935.014 139.872 Q936.644 139.872 937.682 140.786 Q938.744 141.7 938.744 142.96 Q938.744 144.072 938.052 144.64 Q937.385 145.183 936.57 145.183 Q935.656 145.183 935.014 144.615 Q934.396 144.022 934.396 143.009 Q934.396 142.392 934.668 141.922 Q934.964 141.428 935.187 141.255 Q935.409 141.083 935.557 141.033 Q935.458 140.984 935.014 140.984 Q932.222 140.984 930.617 143.775 Q929.036 146.542 929.036 150.495 L929.036 158.276 Q929.036 159.734 929.628 160.203 Q930.246 160.672 932.889 160.672 L933.952 160.672 L933.952 162.229 Q931.926 162.08 927.529 162.08 Q926.911 162.08 925.948 162.105 Q924.984 162.13 923.724 162.179 Q922.464 162.229 921.748 162.229 Z" fill="#000000" fill-rule="nonzero" fill-opacity="1" /><path clip-path="url(#clip590)" d="M941.066 141.997 L941.066 140.885 Q943.388 140.786 944.92 139.156 Q946.476 137.501 946.995 135.475 Q947.538 133.449 947.588 131.102 L948.848 131.102 L948.848 140.416 L956.086 140.416 L956.086 141.997 L948.848 141.997 L948.848 156.053 Q948.848 161.512 952.257 161.512 Q953.714 161.512 954.678 160.03 Q955.641 158.523 955.641 155.855 L955.641 153.064 L956.901 153.064 L956.901 155.954 Q956.901 158.696 955.641 160.746 Q954.381 162.797 951.886 162.797 Q950.972 162.797 950.058 162.55 Q949.169 162.327 947.983 161.735 Q946.822 161.117 946.081 159.635 Q945.364 158.128 945.364 155.954 L945.364 141.997 L941.066 141.997 Z" fill="#000000" fill-rule="nonzero" fill-opacity="1" /><path clip-path="url(#clip590)" d="M961.125 151.087 Q961.125 146.32 964.188 142.935 Q967.252 139.551 971.649 139.551 Q976.095 139.551 978.393 142.441 Q980.715 145.332 980.715 149.482 Q980.715 150.247 980.517 150.396 Q980.32 150.544 979.455 150.544 L965.325 150.544 Q965.325 155.707 966.856 158.128 Q968.981 161.512 972.563 161.512 Q973.057 161.512 973.65 161.413 Q974.243 161.315 975.453 160.895 Q976.664 160.45 977.726 159.289 Q978.788 158.128 979.406 156.3 Q979.554 155.583 980.048 155.608 Q980.715 155.608 980.715 156.201 Q980.715 156.646 980.221 157.658 Q979.752 158.647 978.838 159.832 Q977.923 161.018 976.145 161.907 Q974.391 162.797 972.266 162.797 Q967.82 162.797 964.46 159.437 Q961.125 156.053 961.125 151.087 M965.374 149.482 L977.38 149.482 Q977.38 148.419 977.182 147.234 Q977.009 146.048 976.466 144.417 Q975.947 142.762 974.712 141.725 Q973.477 140.687 971.649 140.687 Q970.834 140.687 969.944 141.033 Q969.08 141.379 968.017 142.219 Q966.955 143.059 966.214 144.961 Q965.473 146.863 965.374 149.482 Z" fill="#000000" fill-rule="nonzero" fill-opacity="1" /><path clip-path="url(#clip590)" d="M983.902 151.359 Q983.902 146.542 987.261 143.207 Q990.621 139.872 995.166 139.872 Q999.02 139.872 1001.54 143.009 L1001.54 132.066 Q1001.54 130.188 1000.87 129.719 Q1000.23 129.25 997.612 129.25 L997.612 127.669 L1004.9 127.125 L1004.9 157.831 Q1004.9 159.709 1005.54 160.203 Q1006.21 160.672 1008.83 160.672 L1008.83 162.229 L1001.39 162.797 L1001.39 159.437 Q998.773 162.772 994.623 162.797 Q990.275 162.797 987.088 159.462 Q983.902 156.127 983.902 151.359 M988.101 151.409 Q988.101 156.102 989.559 158.424 Q991.584 161.66 994.87 161.66 Q998.625 161.66 1000.85 158.128 Q1001.42 157.263 1001.39 156.25 L1001.39 145.875 Q1001.39 144.862 1000.85 144.022 Q998.773 140.984 995.389 140.984 Q991.856 140.984 989.658 144.22 Q988.101 146.641 988.101 151.409 Z" fill="#000000" fill-rule="nonzero" fill-opacity="1" /><path clip-path="url(#clip590)" d="M1013.13 174.383 Q1013.13 174.136 1013.77 173.518 Q1021.92 165.218 1021.92 149.58 Q1021.92 133.894 1014.09 125.964 Q1013.13 125.05 1013.13 124.778 Q1013.13 124.284 1013.62 124.284 Q1013.97 124.284 1015.18 125.297 Q1016.41 126.31 1018.26 128.632 Q1020.14 130.954 1021.52 133.795 Q1024.86 140.687 1024.86 149.58 Q1024.86 158.128 1021.67 165.02 Q1020.31 167.91 1018.41 170.331 Q1016.51 172.752 1015.25 173.814 Q1013.99 174.877 1013.62 174.877 Q1013.13 174.877 1013.13 174.383 Z" fill="#000000" fill-rule="nonzero" fill-opacity="1" /></svg>
