<?xml version="1.0" encoding="utf-8"?>
<svg xmlns="http://www.w3.org/2000/svg" xmlns:xlink="http://www.w3.org/1999/xlink" width="600" height="400" viewBox="0 0 2400 1600">
<defs>
  <clipPath id="clip490">
    <rect x="0" y="0" width="2400" height="1600"/>
  </clipPath>
</defs>
<path clip-path="url(#clip490)" d="M0 1600 L2400 1600 L2400 0 L0 0  Z" fill="#ffffff" fill-rule="evenodd" fill-opacity="1"/>
<defs>
  <clipPath id="clip491">
    <rect x="480" y="0" width="1681" height="1600"/>
  </clipPath>
</defs>
<path clip-path="url(#clip490)" d="M249.395 1150.52 L2352.76 1150.52 L2352.76 47.2441 L249.395 47.2441  Z" fill="#ffffff" fill-rule="evenodd" fill-opacity="1"/>
<defs>
  <clipPath id="clip492">
    <rect x="249" y="47" width="2104" height="1104"/>
  </clipPath>
</defs>
<polyline clip-path="url(#clip492)" style="stroke:#000000; stroke-linecap:round; stroke-linejoin:round; stroke-width:2; stroke-opacity:0.1; fill:none" points="343.091,1150.52 343.091,47.2441 "/>
<polyline clip-path="url(#clip492)" style="stroke:#000000; stroke-linecap:round; stroke-linejoin:round; stroke-width:2; stroke-opacity:0.1; fill:none" points="763.605,1150.52 763.605,47.2441 "/>
<polyline clip-path="url(#clip492)" style="stroke:#000000; stroke-linecap:round; stroke-linejoin:round; stroke-width:2; stroke-opacity:0.1; fill:none" points="1184.12,1150.52 1184.12,47.2441 "/>
<polyline clip-path="url(#clip492)" style="stroke:#000000; stroke-linecap:round; stroke-linejoin:round; stroke-width:2; stroke-opacity:0.1; fill:none" points="1604.63,1150.52 1604.63,47.2441 "/>
<polyline clip-path="url(#clip492)" style="stroke:#000000; stroke-linecap:round; stroke-linejoin:round; stroke-width:2; stroke-opacity:0.1; fill:none" points="2025.15,1150.52 2025.15,47.2441 "/>
<polyline clip-path="url(#clip490)" style="stroke:#000000; stroke-linecap:round; stroke-linejoin:round; stroke-width:4; stroke-opacity:1; fill:none" points="249.395,1150.52 2352.76,1150.52 "/>
<polyline clip-path="url(#clip490)" style="stroke:#000000; stroke-linecap:round; stroke-linejoin:round; stroke-width:4; stroke-opacity:1; fill:none" points="343.091,1150.52 343.091,1135.36 "/>
<polyline clip-path="url(#clip490)" style="stroke:#000000; stroke-linecap:round; stroke-linejoin:round; stroke-width:4; stroke-opacity:1; fill:none" points="763.605,1150.52 763.605,1135.36 "/>
<polyline clip-path="url(#clip490)" style="stroke:#000000; stroke-linecap:round; stroke-linejoin:round; stroke-width:4; stroke-opacity:1; fill:none" points="1184.12,1150.52 1184.12,1135.36 "/>
<polyline clip-path="url(#clip490)" style="stroke:#000000; stroke-linecap:round; stroke-linejoin:round; stroke-width:4; stroke-opacity:1; fill:none" points="1604.63,1150.52 1604.63,1135.36 "/>
<polyline clip-path="url(#clip490)" style="stroke:#000000; stroke-linecap:round; stroke-linejoin:round; stroke-width:4; stroke-opacity:1; fill:none" points="2025.15,1150.52 2025.15,1135.36 "/>
<path clip-path="url(#clip490)" d="M333.95 1199.55 Q334.247 1199.85 334.247 1200.27 Q334.247 1200.69 333.95 1200.98 Q333.654 1201.28 333.234 1201.28 L301.564 1201.28 Q301.144 1201.28 300.848 1200.98 Q300.551 1200.69 300.551 1200.27 Q300.551 1199.85 300.848 1199.55 Q301.144 1199.25 301.564 1199.25 L333.234 1199.25 Q333.654 1199.25 333.95 1199.55 Z" fill="#000000" fill-rule="nonzero" fill-opacity="1" /><path clip-path="url(#clip490)" d="M339.583 1212.92 Q339.583 1212 339.657 1211.73 Q339.756 1211.46 340.151 1211.04 L349.859 1200.22 Q355.171 1194.24 355.171 1189.03 Q355.171 1185.64 353.392 1183.22 Q351.638 1180.8 348.402 1180.8 Q346.179 1180.8 344.301 1182.16 Q342.424 1183.52 341.559 1185.94 Q341.707 1185.89 342.226 1185.89 Q343.486 1185.89 344.178 1186.68 Q344.894 1187.47 344.894 1188.53 Q344.894 1189.89 344.005 1190.56 Q343.14 1191.2 342.275 1191.2 Q341.93 1191.2 341.46 1191.13 Q341.016 1191.05 340.299 1190.36 Q339.583 1189.64 339.583 1188.38 Q339.583 1184.85 342.251 1182.04 Q344.943 1179.22 349.044 1179.22 Q353.688 1179.22 356.727 1181.99 Q359.79 1184.73 359.79 1189.03 Q359.79 1190.53 359.321 1191.92 Q358.876 1193.28 358.258 1194.34 Q357.666 1195.4 356.035 1197.11 Q354.405 1198.81 353.095 1200.02 Q351.786 1201.23 348.847 1203.8 L343.486 1209.01 L352.601 1209.01 Q357.048 1209.01 357.394 1208.62 Q357.888 1207.9 358.506 1204.12 L359.79 1204.12 L358.357 1212.92 L339.583 1212.92 Z" fill="#000000" fill-rule="nonzero" fill-opacity="1" /><path clip-path="url(#clip490)" d="M364.336 1196.73 Q364.336 1189.3 366.213 1185.25 Q368.832 1179.22 375.007 1179.22 Q376.317 1179.22 377.675 1179.59 Q379.059 1179.94 380.788 1181.3 Q382.542 1182.65 383.604 1184.88 Q385.63 1189.18 385.63 1196.73 Q385.63 1204.12 383.752 1208.15 Q381.01 1214.03 374.958 1214.03 Q372.685 1214.03 370.363 1212.87 Q368.066 1211.7 366.608 1208.91 Q364.336 1204.74 364.336 1196.73 M368.535 1196.12 Q368.535 1203.75 369.079 1206.79 Q369.696 1210.07 371.376 1211.51 Q373.081 1212.92 374.958 1212.92 Q376.984 1212.92 378.663 1211.41 Q380.368 1209.88 380.887 1206.59 Q381.455 1203.36 381.43 1196.12 Q381.43 1189.08 380.936 1186.26 Q380.269 1182.97 378.491 1181.67 Q376.737 1180.33 374.958 1180.33 Q374.291 1180.33 373.575 1180.53 Q372.883 1180.73 371.87 1181.3 Q370.857 1181.86 370.067 1183.27 Q369.301 1184.68 368.93 1186.8 Q368.535 1189.55 368.535 1196.12 Z" fill="#000000" fill-rule="nonzero" fill-opacity="1" /><path clip-path="url(#clip490)" d="M752.958 1196.73 Q752.958 1189.3 754.835 1185.25 Q757.454 1179.22 763.63 1179.22 Q764.939 1179.22 766.298 1179.59 Q767.681 1179.94 769.41 1181.3 Q771.164 1182.65 772.227 1184.88 Q774.252 1189.18 774.252 1196.73 Q774.252 1204.12 772.375 1208.15 Q769.633 1214.03 763.58 1214.03 Q761.308 1214.03 758.986 1212.87 Q756.688 1211.7 755.231 1208.91 Q752.958 1204.74 752.958 1196.73 M757.158 1196.12 Q757.158 1203.75 757.701 1206.79 Q758.319 1210.07 759.998 1211.51 Q761.703 1212.92 763.58 1212.92 Q765.606 1212.92 767.286 1211.41 Q768.991 1209.88 769.509 1206.59 Q770.077 1203.36 770.053 1196.12 Q770.053 1189.08 769.559 1186.26 Q768.892 1182.97 767.113 1181.67 Q765.359 1180.33 763.58 1180.33 Q762.913 1180.33 762.197 1180.53 Q761.505 1180.73 760.493 1181.3 Q759.48 1181.86 758.689 1183.27 Q757.923 1184.68 757.553 1186.8 Q757.158 1189.55 757.158 1196.12 Z" fill="#000000" fill-rule="nonzero" fill-opacity="1" /><path clip-path="url(#clip490)" d="M1161.1 1212.92 Q1161.1 1212 1161.17 1211.73 Q1161.27 1211.46 1161.66 1211.04 L1171.37 1200.22 Q1176.68 1194.24 1176.68 1189.03 Q1176.68 1185.64 1174.91 1183.22 Q1173.15 1180.8 1169.92 1180.8 Q1167.69 1180.8 1165.81 1182.16 Q1163.94 1183.52 1163.07 1185.94 Q1163.22 1185.89 1163.74 1185.89 Q1165 1185.89 1165.69 1186.68 Q1166.41 1187.47 1166.41 1188.53 Q1166.41 1189.89 1165.52 1190.56 Q1164.65 1191.2 1163.79 1191.2 Q1163.44 1191.2 1162.97 1191.13 Q1162.53 1191.05 1161.81 1190.36 Q1161.1 1189.64 1161.1 1188.38 Q1161.1 1184.85 1163.76 1182.04 Q1166.46 1179.22 1170.56 1179.22 Q1175.2 1179.22 1178.24 1181.99 Q1181.3 1184.73 1181.3 1189.03 Q1181.3 1190.53 1180.83 1191.92 Q1180.39 1193.28 1179.77 1194.34 Q1179.18 1195.4 1177.55 1197.11 Q1175.92 1198.81 1174.61 1200.02 Q1173.3 1201.23 1170.36 1203.8 L1165 1209.01 L1174.11 1209.01 Q1178.56 1209.01 1178.91 1208.62 Q1179.4 1207.9 1180.02 1204.12 L1181.3 1204.12 L1179.87 1212.92 L1161.1 1212.92 Z" fill="#000000" fill-rule="nonzero" fill-opacity="1" /><path clip-path="url(#clip490)" d="M1185.85 1196.73 Q1185.85 1189.3 1187.73 1185.25 Q1190.34 1179.22 1196.52 1179.22 Q1197.83 1179.22 1199.19 1179.59 Q1200.57 1179.94 1202.3 1181.3 Q1204.06 1182.65 1205.12 1184.88 Q1207.14 1189.18 1207.14 1196.73 Q1207.14 1204.12 1205.27 1208.15 Q1202.52 1214.03 1196.47 1214.03 Q1194.2 1214.03 1191.88 1212.87 Q1189.58 1211.7 1188.12 1208.91 Q1185.85 1204.74 1185.85 1196.73 M1190.05 1196.12 Q1190.05 1203.75 1190.59 1206.79 Q1191.21 1210.07 1192.89 1211.51 Q1194.59 1212.92 1196.47 1212.92 Q1198.5 1212.92 1200.18 1211.41 Q1201.88 1209.88 1202.4 1206.59 Q1202.97 1203.36 1202.94 1196.12 Q1202.94 1189.08 1202.45 1186.26 Q1201.78 1182.97 1200 1181.67 Q1198.25 1180.33 1196.47 1180.33 Q1195.8 1180.33 1195.09 1180.53 Q1194.4 1180.73 1193.38 1181.3 Q1192.37 1181.86 1191.58 1183.27 Q1190.81 1184.68 1190.44 1186.8 Q1190.05 1189.55 1190.05 1196.12 Z" fill="#000000" fill-rule="nonzero" fill-opacity="1" /><path clip-path="url(#clip490)" d="M1581.05 1204.57 L1581.05 1203.01 L1596.59 1179.27 Q1596.99 1178.65 1597.61 1178.68 Q1598.17 1178.68 1598.3 1178.9 Q1598.42 1179.12 1598.42 1179.99 L1598.42 1203.01 L1603.49 1203.01 L1603.49 1204.57 L1598.42 1204.57 L1598.42 1208.96 Q1598.42 1210.42 1599.01 1210.89 Q1599.63 1211.36 1602.25 1211.36 L1603.31 1211.36 L1603.31 1212.92 Q1601.24 1212.77 1596.45 1212.77 Q1591.68 1212.77 1589.6 1212.92 L1589.6 1211.36 L1590.66 1211.36 Q1593.28 1211.36 1593.9 1210.91 Q1594.52 1210.44 1594.52 1208.96 L1594.52 1204.57 L1581.05 1204.57 M1582.49 1203.01 L1594.81 1203.01 L1594.81 1184.14 L1582.49 1203.01 Z" fill="#000000" fill-rule="nonzero" fill-opacity="1" /><path clip-path="url(#clip490)" d="M1606.92 1196.73 Q1606.92 1189.3 1608.8 1185.25 Q1611.42 1179.22 1617.59 1179.22 Q1618.9 1179.22 1620.26 1179.59 Q1621.64 1179.94 1623.37 1181.3 Q1625.13 1182.65 1626.19 1184.88 Q1628.21 1189.18 1628.21 1196.73 Q1628.21 1204.12 1626.34 1208.15 Q1623.59 1214.03 1617.54 1214.03 Q1615.27 1214.03 1612.95 1212.87 Q1610.65 1211.7 1609.19 1208.91 Q1606.92 1204.74 1606.92 1196.73 M1611.12 1196.12 Q1611.12 1203.75 1611.66 1206.79 Q1612.28 1210.07 1613.96 1211.51 Q1615.66 1212.92 1617.54 1212.92 Q1619.57 1212.92 1621.25 1211.41 Q1622.95 1209.88 1623.47 1206.59 Q1624.04 1203.36 1624.01 1196.12 Q1624.01 1189.08 1623.52 1186.26 Q1622.85 1182.97 1621.07 1181.67 Q1619.32 1180.33 1617.54 1180.33 Q1616.87 1180.33 1616.16 1180.53 Q1615.47 1180.73 1614.45 1181.3 Q1613.44 1181.86 1612.65 1183.27 Q1611.88 1184.68 1611.51 1186.8 Q1611.12 1189.55 1611.12 1196.12 Z" fill="#000000" fill-rule="nonzero" fill-opacity="1" /><path clip-path="url(#clip490)" d="M2001.93 1196.93 Q2001.93 1188.98 2005.98 1184.11 Q2010.03 1179.22 2015.24 1179.22 Q2018.28 1179.22 2019.96 1180.78 Q2021.67 1182.31 2021.67 1184.68 Q2021.67 1185.99 2020.9 1186.56 Q2020.13 1187.13 2019.34 1187.13 Q2018.43 1187.13 2017.71 1186.51 Q2017 1185.89 2017 1184.78 Q2017 1182.51 2019.79 1182.51 Q2018.48 1180.48 2015.34 1180.48 Q2014.38 1180.48 2013.39 1180.78 Q2012.4 1181.05 2011.12 1181.99 Q2009.83 1182.93 2008.84 1184.41 Q2007.86 1185.89 2007.16 1188.68 Q2006.47 1191.47 2006.47 1195.1 L2006.47 1196.31 Q2008.55 1191.3 2012.8 1191.32 Q2017.05 1191.32 2019.99 1194.56 Q2022.93 1197.8 2022.93 1202.59 Q2022.93 1207.51 2019.86 1210.77 Q2016.8 1214.03 2012.5 1214.03 Q2010.57 1214.03 2008.82 1213.21 Q2007.09 1212.42 2005.46 1210.59 Q2003.85 1208.77 2002.89 1205.26 Q2001.93 1201.75 2001.93 1196.93 M2006.57 1201.48 Q2006.57 1206.44 2007.49 1208.81 Q2007.63 1209.21 2007.96 1209.75 Q2008.3 1210.3 2008.87 1211.01 Q2009.46 1211.7 2010.43 1212.17 Q2011.39 1212.62 2012.5 1212.62 Q2015.89 1212.62 2017.52 1209.33 Q2018.38 1207.51 2018.38 1202.54 Q2018.38 1197.48 2017.47 1195.62 Q2015.91 1192.49 2012.75 1192.49 Q2010.62 1192.49 2009.14 1193.94 Q2007.68 1195.4 2007.12 1197.35 Q2006.57 1199.3 2006.57 1201.48 Z" fill="#000000" fill-rule="nonzero" fill-opacity="1" /><path clip-path="url(#clip490)" d="M2027.08 1196.73 Q2027.08 1189.3 2028.95 1185.25 Q2031.57 1179.22 2037.75 1179.22 Q2039.06 1179.22 2040.42 1179.59 Q2041.8 1179.94 2043.53 1181.3 Q2045.28 1182.65 2046.34 1184.88 Q2048.37 1189.18 2048.37 1196.73 Q2048.37 1204.12 2046.49 1208.15 Q2043.75 1214.03 2037.7 1214.03 Q2035.43 1214.03 2033.1 1212.87 Q2030.81 1211.7 2029.35 1208.91 Q2027.08 1204.74 2027.08 1196.73 M2031.28 1196.12 Q2031.28 1203.75 2031.82 1206.79 Q2032.44 1210.07 2034.12 1211.51 Q2035.82 1212.92 2037.7 1212.92 Q2039.72 1212.92 2041.4 1211.41 Q2043.11 1209.88 2043.63 1206.59 Q2044.2 1203.36 2044.17 1196.12 Q2044.17 1189.08 2043.68 1186.26 Q2043.01 1182.97 2041.23 1181.67 Q2039.48 1180.33 2037.7 1180.33 Q2037.03 1180.33 2036.31 1180.53 Q2035.62 1180.73 2034.61 1181.3 Q2033.6 1181.86 2032.81 1183.27 Q2032.04 1184.68 2031.67 1186.8 Q2031.28 1189.55 2031.28 1196.12 Z" fill="#000000" fill-rule="nonzero" fill-opacity="1" /><path clip-path="url(#clip490)" d="M1247.36 1267.56 L1247.36 1266.03 Q1250.55 1265.9 1252.66 1263.65 Q1254.8 1261.38 1255.51 1258.59 Q1256.26 1255.81 1256.32 1252.58 L1258.06 1252.58 L1258.06 1265.39 L1268.01 1265.39 L1268.01 1267.56 L1258.06 1267.56 L1258.06 1286.89 Q1258.06 1294.39 1262.74 1294.39 Q1264.75 1294.39 1266.07 1292.36 Q1267.4 1290.28 1267.4 1286.62 L1267.4 1282.78 L1269.13 1282.78 L1269.13 1286.75 Q1269.13 1290.52 1267.4 1293.34 Q1265.66 1296.16 1262.23 1296.16 Q1260.98 1296.16 1259.72 1295.82 Q1258.5 1295.52 1256.87 1294.7 Q1255.27 1293.85 1254.25 1291.81 Q1253.27 1289.74 1253.27 1286.75 L1253.27 1267.56 L1247.36 1267.56 Z" fill="#000000" fill-rule="nonzero" fill-opacity="1" /><path clip-path="url(#clip490)" d="M1303.37 1312.77 L1303.37 1243.21 L1313.86 1243.21 L1313.86 1244.8 L1308.02 1244.8 L1308.02 1311.17 L1313.86 1311.17 L1313.86 1312.77 L1303.37 1312.77 Z" fill="#000000" fill-rule="nonzero" fill-opacity="1" /><path clip-path="url(#clip490)" d="M1317.77 1294.46 L1317.77 1285.29 Q1317.77 1284.51 1317.8 1284.24 Q1317.84 1283.97 1318.04 1283.76 Q1318.25 1283.56 1318.65 1283.56 Q1319.13 1283.56 1319.3 1283.76 Q1319.5 1283.97 1319.64 1284.75 Q1320.69 1289.54 1322.93 1292.08 Q1325.21 1294.6 1329.32 1294.6 Q1333.23 1294.6 1335.2 1292.87 Q1337.17 1291.13 1337.17 1288.28 Q1337.17 1283.19 1329.93 1281.89 Q1325.75 1281.05 1324.02 1280.5 Q1322.29 1279.92 1320.76 1278.67 Q1317.77 1276.22 1317.77 1272.76 Q1317.77 1269.29 1320.39 1266.75 Q1323.04 1264.2 1328.88 1264.2 Q1332.78 1264.2 1335.43 1266.17 Q1336.21 1265.56 1336.62 1265.05 Q1337.54 1264.2 1338.01 1264.2 Q1338.56 1264.2 1338.66 1264.57 Q1338.76 1264.91 1338.76 1265.9 L1338.76 1272.89 Q1338.76 1273.67 1338.73 1273.95 Q1338.69 1274.22 1338.49 1274.42 Q1338.29 1274.59 1337.84 1274.59 Q1337.06 1274.59 1337.03 1273.95 Q1336.49 1265.52 1328.88 1265.52 Q1324.77 1265.52 1322.93 1267.12 Q1321.1 1268.68 1321.1 1270.82 Q1321.1 1272.01 1321.64 1272.93 Q1322.22 1273.81 1322.93 1274.35 Q1323.68 1274.86 1325.04 1275.37 Q1326.4 1275.85 1327.21 1276.02 Q1328.06 1276.19 1329.66 1276.53 Q1335.23 1277.58 1337.57 1279.86 Q1340.49 1282.78 1340.49 1286.48 Q1340.49 1290.59 1337.71 1293.38 Q1334.92 1296.16 1329.32 1296.16 Q1324.8 1296.16 1321.64 1293.14 Q1321.23 1293.55 1320.93 1293.92 Q1320.62 1294.26 1320.49 1294.39 Q1320.39 1294.53 1320.35 1294.63 Q1320.32 1294.7 1320.25 1294.77 Q1318.86 1296.16 1318.52 1296.16 Q1317.97 1296.16 1317.87 1295.79 Q1317.77 1295.45 1317.77 1294.46 Z" fill="#000000" fill-rule="nonzero" fill-opacity="1" /><path clip-path="url(#clip490)" d="M1344.3 1311.17 L1350.14 1311.17 L1350.14 1244.8 L1344.3 1244.8 L1344.3 1243.21 L1354.79 1243.21 L1354.79 1312.77 L1344.3 1312.77 L1344.3 1311.17 Z" fill="#000000" fill-rule="nonzero" fill-opacity="1" /><polyline clip-path="url(#clip492)" style="stroke:#000000; stroke-linecap:round; stroke-linejoin:round; stroke-width:2; stroke-opacity:0.1; fill:none" points="249.395,1031.73 2352.76,1031.73 "/>
<polyline clip-path="url(#clip492)" style="stroke:#000000; stroke-linecap:round; stroke-linejoin:round; stroke-width:2; stroke-opacity:0.1; fill:none" points="249.395,814.604 2352.76,814.604 "/>
<polyline clip-path="url(#clip492)" style="stroke:#000000; stroke-linecap:round; stroke-linejoin:round; stroke-width:2; stroke-opacity:0.1; fill:none" points="249.395,597.473 2352.76,597.473 "/>
<polyline clip-path="url(#clip492)" style="stroke:#000000; stroke-linecap:round; stroke-linejoin:round; stroke-width:2; stroke-opacity:0.1; fill:none" points="249.395,380.343 2352.76,380.343 "/>
<polyline clip-path="url(#clip492)" style="stroke:#000000; stroke-linecap:round; stroke-linejoin:round; stroke-width:2; stroke-opacity:0.1; fill:none" points="249.395,163.212 2352.76,163.212 "/>
<polyline clip-path="url(#clip490)" style="stroke:#000000; stroke-linecap:round; stroke-linejoin:round; stroke-width:4; stroke-opacity:1; fill:none" points="249.395,1150.52 249.395,47.2441 "/>
<polyline clip-path="url(#clip490)" style="stroke:#000000; stroke-linecap:round; stroke-linejoin:round; stroke-width:4; stroke-opacity:1; fill:none" points="249.395,1031.73 268.292,1031.73 "/>
<polyline clip-path="url(#clip490)" style="stroke:#000000; stroke-linecap:round; stroke-linejoin:round; stroke-width:4; stroke-opacity:1; fill:none" points="249.395,814.604 268.292,814.604 "/>
<polyline clip-path="url(#clip490)" style="stroke:#000000; stroke-linecap:round; stroke-linejoin:round; stroke-width:4; stroke-opacity:1; fill:none" points="249.395,597.473 268.292,597.473 "/>
<polyline clip-path="url(#clip490)" style="stroke:#000000; stroke-linecap:round; stroke-linejoin:round; stroke-width:4; stroke-opacity:1; fill:none" points="249.395,380.343 268.292,380.343 "/>
<polyline clip-path="url(#clip490)" style="stroke:#000000; stroke-linecap:round; stroke-linejoin:round; stroke-width:4; stroke-opacity:1; fill:none" points="249.395,163.212 268.292,163.212 "/>
<path clip-path="url(#clip490)" d="M147.659 1035.65 Q147.956 1035.95 147.956 1036.37 Q147.956 1036.79 147.659 1037.08 Q147.363 1037.38 146.943 1037.38 L115.273 1037.38 Q114.853 1037.38 114.557 1037.08 Q114.26 1036.79 114.26 1036.37 Q114.26 1035.95 114.557 1035.65 Q114.853 1035.35 115.273 1035.35 L146.943 1035.35 Q147.363 1035.35 147.659 1035.65 Z" fill="#000000" fill-rule="nonzero" fill-opacity="1" /><path clip-path="url(#clip490)" d="M153.291 1040.86 Q153.291 1039.36 154.107 1038.79 Q154.922 1038.19 155.787 1038.19 Q156.948 1038.19 157.615 1038.94 Q158.306 1039.65 158.306 1040.67 Q158.306 1041.68 157.615 1042.42 Q156.948 1043.14 155.787 1043.14 Q155.218 1043.14 154.922 1043.04 Q155.589 1045.36 157.615 1047.04 Q159.665 1048.72 162.358 1048.72 Q165.742 1048.72 167.768 1045.43 Q168.978 1043.31 168.978 1038.49 Q168.978 1034.24 168.064 1032.12 Q166.656 1028.88 163.766 1028.88 Q159.665 1028.88 157.244 1032.41 Q156.948 1032.86 156.602 1032.88 Q156.108 1032.88 155.984 1032.61 Q155.885 1032.32 155.885 1031.55 L155.885 1016.58 Q155.885 1015.37 156.379 1015.37 Q156.577 1015.37 156.997 1015.52 Q160.184 1016.93 163.716 1016.95 Q167.348 1016.95 170.609 1015.47 Q170.856 1015.32 171.004 1015.32 Q171.498 1015.32 171.523 1015.89 Q171.523 1016.09 171.103 1016.68 Q170.707 1017.25 169.843 1018.01 Q168.978 1018.75 167.866 1019.47 Q166.755 1020.19 165.124 1020.68 Q163.519 1021.15 161.74 1021.15 Q159.616 1021.15 157.442 1020.48 L157.442 1030.34 Q160.06 1027.77 163.865 1027.77 Q167.916 1027.77 170.707 1031.03 Q173.499 1034.29 173.499 1038.84 Q173.499 1043.6 170.189 1046.87 Q166.903 1050.13 162.456 1050.13 Q158.405 1050.13 155.836 1047.24 Q153.291 1044.35 153.291 1040.86 Z" fill="#000000" fill-rule="nonzero" fill-opacity="1" /><path clip-path="url(#clip490)" d="M181.132 1048.2 Q180.366 1047.38 180.366 1046.32 Q180.366 1045.26 181.132 1044.49 Q181.898 1043.7 183.059 1043.7 Q184.171 1043.7 184.912 1044.44 Q185.678 1045.16 185.678 1046.35 Q185.678 1047.51 184.862 1048.27 Q184.072 1049.01 183.059 1049.01 Q181.898 1049.01 181.132 1048.2 Z" fill="#000000" fill-rule="nonzero" fill-opacity="1" /><path clip-path="url(#clip490)" d="M192.1 1032.83 Q192.1 1025.4 193.978 1021.35 Q196.596 1015.32 202.772 1015.32 Q204.082 1015.32 205.44 1015.69 Q206.824 1016.04 208.553 1017.39 Q210.307 1018.75 211.369 1020.98 Q213.395 1025.27 213.395 1032.83 Q213.395 1040.22 211.517 1044.25 Q208.775 1050.13 202.723 1050.13 Q200.45 1050.13 198.128 1048.97 Q195.831 1047.8 194.373 1045.01 Q192.1 1040.84 192.1 1032.83 M196.3 1032.22 Q196.3 1039.85 196.843 1042.89 Q197.461 1046.17 199.141 1047.61 Q200.845 1049.01 202.723 1049.01 Q204.749 1049.01 206.428 1047.51 Q208.133 1045.98 208.652 1042.69 Q209.22 1039.45 209.195 1032.22 Q209.195 1025.18 208.701 1022.36 Q208.034 1019.07 206.255 1017.77 Q204.502 1016.43 202.723 1016.43 Q202.056 1016.43 201.339 1016.63 Q200.648 1016.83 199.635 1017.39 Q198.622 1017.96 197.832 1019.37 Q197.066 1020.78 196.695 1022.9 Q196.3 1025.65 196.3 1032.22 Z" fill="#000000" fill-rule="nonzero" fill-opacity="1" /><path clip-path="url(#clip490)" d="M148.203 818.52 Q148.499 818.816 148.499 819.236 Q148.499 819.656 148.203 819.952 Q147.906 820.249 147.486 820.249 L115.816 820.249 Q115.397 820.249 115.1 819.952 Q114.804 819.656 114.804 819.236 Q114.804 818.816 115.1 818.52 Q115.397 818.223 115.816 818.223 L147.486 818.223 Q147.906 818.223 148.203 818.52 Z" fill="#000000" fill-rule="nonzero" fill-opacity="1" /><path clip-path="url(#clip490)" d="M153.835 831.884 Q153.835 830.97 153.909 830.698 Q154.008 830.427 154.403 830.007 L164.112 819.187 Q169.423 813.208 169.423 807.996 Q169.423 804.612 167.644 802.191 Q165.89 799.77 162.654 799.77 Q160.431 799.77 158.553 801.128 Q156.676 802.487 155.811 804.908 Q155.959 804.859 156.478 804.859 Q157.738 804.859 158.43 805.649 Q159.146 806.44 159.146 807.502 Q159.146 808.861 158.257 809.528 Q157.392 810.17 156.528 810.17 Q156.182 810.17 155.712 810.096 Q155.268 810.022 154.551 809.33 Q153.835 808.614 153.835 807.354 Q153.835 803.821 156.503 801.005 Q159.196 798.189 163.296 798.189 Q167.941 798.189 170.979 800.955 Q174.042 803.698 174.042 807.996 Q174.042 809.503 173.573 810.886 Q173.128 812.245 172.511 813.307 Q171.918 814.369 170.287 816.074 Q168.657 817.778 167.348 818.989 Q166.038 820.199 163.099 822.769 L157.738 827.981 L166.854 827.981 Q171.3 827.981 171.646 827.586 Q172.14 826.869 172.758 823.09 L174.042 823.09 L172.609 831.884 L153.835 831.884 Z" fill="#000000" fill-rule="nonzero" fill-opacity="1" /><path clip-path="url(#clip490)" d="M181.676 831.069 Q180.91 830.254 180.91 829.191 Q180.91 828.129 181.676 827.363 Q182.441 826.573 183.602 826.573 Q184.714 826.573 185.455 827.314 Q186.221 828.03 186.221 829.216 Q186.221 830.377 185.406 831.143 Q184.615 831.884 183.602 831.884 Q182.441 831.884 181.676 831.069 Z" fill="#000000" fill-rule="nonzero" fill-opacity="1" /><path clip-path="url(#clip490)" d="M193.187 823.732 Q193.187 822.225 194.003 821.657 Q194.818 821.064 195.682 821.064 Q196.843 821.064 197.51 821.805 Q198.202 822.522 198.202 823.534 Q198.202 824.547 197.51 825.288 Q196.843 826.005 195.682 826.005 Q195.114 826.005 194.818 825.906 Q195.485 828.228 197.51 829.908 Q199.561 831.588 202.254 831.588 Q205.638 831.588 207.664 828.302 Q208.874 826.178 208.874 821.36 Q208.874 817.111 207.96 814.987 Q206.552 811.751 203.662 811.751 Q199.561 811.751 197.14 815.283 Q196.843 815.728 196.498 815.753 Q196.004 815.753 195.88 815.481 Q195.781 815.185 195.781 814.419 L195.781 799.449 Q195.781 798.238 196.275 798.238 Q196.473 798.238 196.893 798.386 Q200.08 799.794 203.612 799.819 Q207.244 799.819 210.504 798.337 Q210.751 798.189 210.9 798.189 Q211.394 798.189 211.418 798.757 Q211.418 798.955 210.999 799.547 Q210.603 800.116 209.739 800.881 Q208.874 801.622 207.762 802.339 Q206.651 803.055 205.02 803.549 Q203.415 804.019 201.636 804.019 Q199.511 804.019 197.338 803.352 L197.338 813.208 Q199.956 810.639 203.76 810.639 Q207.812 810.639 210.603 813.9 Q213.395 817.161 213.395 821.706 Q213.395 826.474 210.084 829.735 Q206.799 832.996 202.352 832.996 Q198.301 832.996 195.732 830.105 Q193.187 827.215 193.187 823.732 Z" fill="#000000" fill-rule="nonzero" fill-opacity="1" /><path clip-path="url(#clip490)" d="M152.748 598.573 Q152.748 591.137 154.625 587.086 Q157.244 581.058 163.42 581.058 Q164.729 581.058 166.088 581.428 Q167.471 581.774 169.2 583.133 Q170.954 584.492 172.017 586.715 Q174.042 591.013 174.042 598.573 Q174.042 605.959 172.165 609.986 Q169.423 615.865 163.37 615.865 Q161.098 615.865 158.776 614.704 Q156.478 613.543 155.021 610.751 Q152.748 606.577 152.748 598.573 M156.948 597.955 Q156.948 605.588 157.491 608.627 Q158.109 611.912 159.788 613.345 Q161.493 614.753 163.37 614.753 Q165.396 614.753 167.076 613.246 Q168.78 611.715 169.299 608.429 Q169.867 605.193 169.843 597.955 Q169.843 590.915 169.349 588.098 Q168.682 584.813 166.903 583.504 Q165.149 582.17 163.37 582.17 Q162.703 582.17 161.987 582.367 Q161.295 582.565 160.283 583.133 Q159.27 583.701 158.479 585.109 Q157.713 586.517 157.343 588.642 Q156.948 591.384 156.948 597.955 Z" fill="#000000" fill-rule="nonzero" fill-opacity="1" /><path clip-path="url(#clip490)" d="M181.132 613.938 Q180.366 613.123 180.366 612.061 Q180.366 610.998 181.132 610.233 Q181.898 609.442 183.059 609.442 Q184.171 609.442 184.912 610.183 Q185.678 610.9 185.678 612.085 Q185.678 613.246 184.862 614.012 Q184.072 614.753 183.059 614.753 Q181.898 614.753 181.132 613.938 Z" fill="#000000" fill-rule="nonzero" fill-opacity="1" /><path clip-path="url(#clip490)" d="M192.1 598.573 Q192.1 591.137 193.978 587.086 Q196.596 581.058 202.772 581.058 Q204.082 581.058 205.44 581.428 Q206.824 581.774 208.553 583.133 Q210.307 584.492 211.369 586.715 Q213.395 591.013 213.395 598.573 Q213.395 605.959 211.517 609.986 Q208.775 615.865 202.723 615.865 Q200.45 615.865 198.128 614.704 Q195.831 613.543 194.373 610.751 Q192.1 606.577 192.1 598.573 M196.3 597.955 Q196.3 605.588 196.843 608.627 Q197.461 611.912 199.141 613.345 Q200.845 614.753 202.723 614.753 Q204.749 614.753 206.428 613.246 Q208.133 611.715 208.652 608.429 Q209.22 605.193 209.195 597.955 Q209.195 590.915 208.701 588.098 Q208.034 584.813 206.255 583.504 Q204.502 582.17 202.723 582.17 Q202.056 582.17 201.339 582.367 Q200.648 582.565 199.635 583.133 Q198.622 583.701 197.832 585.109 Q197.066 586.517 196.695 588.642 Q196.3 591.384 196.3 597.955 Z" fill="#000000" fill-rule="nonzero" fill-opacity="1" /><path clip-path="url(#clip490)" d="M153.835 397.623 Q153.835 396.709 153.909 396.437 Q154.008 396.165 154.403 395.745 L164.112 384.925 Q169.423 378.947 169.423 373.734 Q169.423 370.35 167.644 367.929 Q165.89 365.508 162.654 365.508 Q160.431 365.508 158.553 366.867 Q156.676 368.226 155.811 370.646 Q155.959 370.597 156.478 370.597 Q157.738 370.597 158.43 371.388 Q159.146 372.178 159.146 373.24 Q159.146 374.599 158.257 375.266 Q157.392 375.908 156.528 375.908 Q156.182 375.908 155.712 375.834 Q155.268 375.76 154.551 375.068 Q153.835 374.352 153.835 373.092 Q153.835 369.56 156.503 366.743 Q159.196 363.927 163.296 363.927 Q167.941 363.927 170.979 366.694 Q174.042 369.436 174.042 373.734 Q174.042 375.241 173.573 376.625 Q173.128 377.983 172.511 379.046 Q171.918 380.108 170.287 381.812 Q168.657 383.517 167.348 384.727 Q166.038 385.938 163.099 388.507 L157.738 393.719 L166.854 393.719 Q171.3 393.719 171.646 393.324 Q172.14 392.608 172.758 388.828 L174.042 388.828 L172.609 397.623 L153.835 397.623 Z" fill="#000000" fill-rule="nonzero" fill-opacity="1" /><path clip-path="url(#clip490)" d="M181.676 396.807 Q180.91 395.992 180.91 394.93 Q180.91 393.868 181.676 393.102 Q182.441 392.311 183.602 392.311 Q184.714 392.311 185.455 393.052 Q186.221 393.769 186.221 394.955 Q186.221 396.116 185.406 396.881 Q184.615 397.623 183.602 397.623 Q182.441 397.623 181.676 396.807 Z" fill="#000000" fill-rule="nonzero" fill-opacity="1" /><path clip-path="url(#clip490)" d="M193.187 389.47 Q193.187 387.964 194.003 387.395 Q194.818 386.802 195.682 386.802 Q196.843 386.802 197.51 387.544 Q198.202 388.26 198.202 389.273 Q198.202 390.286 197.51 391.027 Q196.843 391.743 195.682 391.743 Q195.114 391.743 194.818 391.644 Q195.485 393.966 197.51 395.646 Q199.561 397.326 202.254 397.326 Q205.638 397.326 207.664 394.041 Q208.874 391.916 208.874 387.099 Q208.874 382.85 207.96 380.725 Q206.552 377.489 203.662 377.489 Q199.561 377.489 197.14 381.022 Q196.843 381.467 196.498 381.491 Q196.004 381.491 195.88 381.22 Q195.781 380.923 195.781 380.157 L195.781 365.187 Q195.781 363.977 196.275 363.977 Q196.473 363.977 196.893 364.125 Q200.08 365.533 203.612 365.558 Q207.244 365.558 210.504 364.075 Q210.751 363.927 210.9 363.927 Q211.394 363.927 211.418 364.495 Q211.418 364.693 210.999 365.286 Q210.603 365.854 209.739 366.62 Q208.874 367.361 207.762 368.077 Q206.651 368.794 205.02 369.288 Q203.415 369.757 201.636 369.757 Q199.511 369.757 197.338 369.09 L197.338 378.947 Q199.956 376.378 203.76 376.378 Q207.812 376.378 210.603 379.638 Q213.395 382.899 213.395 387.445 Q213.395 392.213 210.084 395.473 Q206.799 398.734 202.352 398.734 Q198.301 398.734 195.732 395.844 Q193.187 392.954 193.187 389.47 Z" fill="#000000" fill-rule="nonzero" fill-opacity="1" /><path clip-path="url(#clip490)" d="M153.291 172.34 Q153.291 170.833 154.107 170.265 Q154.922 169.672 155.787 169.672 Q156.948 169.672 157.615 170.413 Q158.306 171.129 158.306 172.142 Q158.306 173.155 157.615 173.896 Q156.948 174.612 155.787 174.612 Q155.218 174.612 154.922 174.514 Q155.589 176.836 157.615 178.515 Q159.665 180.195 162.358 180.195 Q165.742 180.195 167.768 176.91 Q168.978 174.785 168.978 169.968 Q168.978 165.719 168.064 163.595 Q166.656 160.359 163.766 160.359 Q159.665 160.359 157.244 163.891 Q156.948 164.336 156.602 164.36 Q156.108 164.36 155.984 164.089 Q155.885 163.792 155.885 163.026 L155.885 148.056 Q155.885 146.846 156.379 146.846 Q156.577 146.846 156.997 146.994 Q160.184 148.402 163.716 148.427 Q167.348 148.427 170.609 146.945 Q170.856 146.796 171.004 146.796 Q171.498 146.796 171.523 147.365 Q171.523 147.562 171.103 148.155 Q170.707 148.723 169.843 149.489 Q168.978 150.23 167.866 150.947 Q166.755 151.663 165.124 152.157 Q163.519 152.626 161.74 152.626 Q159.616 152.626 157.442 151.959 L157.442 161.816 Q160.06 159.247 163.865 159.247 Q167.916 159.247 170.707 162.508 Q173.499 165.769 173.499 170.314 Q173.499 175.082 170.189 178.343 Q166.903 181.603 162.456 181.603 Q158.405 181.603 155.836 178.713 Q153.291 175.823 153.291 172.34 Z" fill="#000000" fill-rule="nonzero" fill-opacity="1" /><path clip-path="url(#clip490)" d="M181.132 179.677 Q180.366 178.861 180.366 177.799 Q180.366 176.737 181.132 175.971 Q181.898 175.181 183.059 175.181 Q184.171 175.181 184.912 175.922 Q185.678 176.638 185.678 177.824 Q185.678 178.985 184.862 179.751 Q184.072 180.492 183.059 180.492 Q181.898 180.492 181.132 179.677 Z" fill="#000000" fill-rule="nonzero" fill-opacity="1" /><path clip-path="url(#clip490)" d="M192.1 164.311 Q192.1 156.875 193.978 152.824 Q196.596 146.796 202.772 146.796 Q204.082 146.796 205.44 147.167 Q206.824 147.513 208.553 148.871 Q210.307 150.23 211.369 152.453 Q213.395 156.752 213.395 164.311 Q213.395 171.697 211.517 175.724 Q208.775 181.603 202.723 181.603 Q200.45 181.603 198.128 180.442 Q195.831 179.281 194.373 176.49 Q192.1 172.315 192.1 164.311 M196.3 163.693 Q196.3 171.327 196.843 174.365 Q197.461 177.651 199.141 179.084 Q200.845 180.492 202.723 180.492 Q204.749 180.492 206.428 178.985 Q208.133 177.453 208.652 174.168 Q209.22 170.932 209.195 163.693 Q209.195 156.653 208.701 153.837 Q208.034 150.551 206.255 149.242 Q204.502 147.908 202.723 147.908 Q202.056 147.908 201.339 148.106 Q200.648 148.303 199.635 148.871 Q198.622 149.44 197.832 150.848 Q197.066 152.256 196.695 154.38 Q196.3 157.122 196.3 163.693 Z" fill="#000000" fill-rule="nonzero" fill-opacity="1" /><path clip-path="url(#clip490)" d="M36.253 671.179 Q34.7245 671.179 33.6376 669.99 Q32.5506 668.767 32.5506 667.306 Q32.5506 666.321 32.9922 665.54 Q33.3998 664.725 34.215 664.215 Q34.9962 663.672 35.8114 663.332 Q36.5927 662.993 37.7815 662.755 Q38.9704 662.483 39.6837 662.381 Q40.363 662.279 41.416 662.177 Q42.435 662.076 42.6388 662.076 Q41.1783 661.668 39.7177 661.023 Q38.2571 660.343 36.4908 659.154 Q34.7245 657.966 33.6036 656.165 Q32.4827 654.365 32.4827 652.259 Q32.4827 648.353 36.7965 645.126 Q41.1103 641.899 50.0776 641.899 L79.8668 641.899 Q81.1236 641.899 81.8369 642.443 Q82.5842 642.952 82.754 643.428 Q82.9238 643.903 82.9238 644.481 Q82.9238 645.466 82.2105 646.315 Q81.5312 647.13 79.8668 647.13 Q74.9416 647.13 64.6156 645.398 Q54.3235 643.631 49.2624 643.631 Q41.9595 643.631 38.9704 647.13 Q37.4419 648.862 37.4419 650.798 Q37.4419 652.531 38.8006 653.923 Q40.1592 655.316 42.1973 656.267 Q44.2353 657.218 47.6999 658.101 Q51.1306 658.951 54.2216 659.494 Q57.3126 660.004 61.8642 660.615 Q65.4647 660.955 65.4647 663.468 Q65.4647 664.385 64.8533 665.201 Q64.2759 665.982 63.087 665.982 Q61.3547 665.982 54.867 664.895 Q48.3453 663.808 47.8018 663.808 Q41.9595 663.808 39.8875 664.555 Q37.7815 665.268 37.0682 666.797 Q38.5288 667.578 38.5288 668.903 Q38.5288 669.888 37.8834 670.533 Q37.2381 671.179 36.253 671.179 Z" fill="#000000" fill-rule="nonzero" fill-opacity="1" /><path clip-path="url(#clip490)" d="M81.3953 608.543 L11.8307 608.543 L11.8307 598.048 L13.4271 598.048 L13.4271 603.89 L79.7989 603.89 L79.7989 598.048 L81.3953 598.048 L81.3953 608.543 Z" fill="#000000" fill-rule="nonzero" fill-opacity="1" /><path clip-path="url(#clip490)" d="M64.0042 594.209 L61.8642 594.209 Q61.8642 590.507 61.4227 589.658 Q60.9471 588.808 58.7053 588.808 L40.0573 588.808 Q37.4758 588.808 36.8305 589.726 Q36.1851 590.609 36.1851 594.209 L34.0112 594.209 L33.2639 584.427 L40.5668 584.427 Q33.2639 581.166 33.2639 574.135 Q33.2639 565.983 40.0573 564.862 Q37.4079 563.673 35.3359 561.193 Q33.2639 558.68 33.2639 554.773 Q33.2639 549.542 35.8454 547.47 Q37.5777 545.942 39.5139 545.636 Q41.45 545.331 46.4771 545.331 L59.7583 545.331 Q61.2189 545.263 61.5585 544.142 Q61.8642 543.021 61.8642 539.896 L64.0042 539.896 Q63.8004 546.995 63.8004 547.674 Q63.8004 548.218 64.0042 555.555 L61.8642 555.555 Q61.8642 551.852 61.4227 551.003 Q60.9471 550.12 58.7053 550.12 L42.503 550.12 Q38.9704 550.12 36.8984 551.207 Q34.7924 552.294 34.7924 555.283 Q34.7924 558.883 37.8155 561.771 Q40.8386 564.658 45.9336 564.658 L58.7053 564.658 Q60.9471 564.658 61.4227 563.809 Q61.8642 562.926 61.8642 559.223 L64.0042 559.223 Q63.8004 566.322 63.8004 567.036 Q63.8004 567.579 64.0042 574.882 L61.8642 574.882 Q61.8642 571.18 61.4227 570.33 Q60.9471 569.447 58.7053 569.447 L42.503 569.447 Q38.9704 569.447 36.8984 570.534 Q34.7924 571.621 34.7924 574.61 Q34.7924 578.211 37.8155 581.098 Q40.8386 583.985 45.9336 583.985 L58.7053 583.985 Q60.9471 583.985 61.4227 583.136 Q61.8642 582.253 61.8642 578.584 L64.0042 578.584 Q63.8004 585.683 63.8004 586.363 Q63.8004 586.906 64.0042 594.209 Z" fill="#000000" fill-rule="nonzero" fill-opacity="1" /><path clip-path="url(#clip490)" d="M79.7989 537.077 L79.7989 531.234 L13.4271 531.234 L13.4271 537.077 L11.8307 537.077 L11.8307 526.581 L81.3953 526.581 L81.3953 537.077 L79.7989 537.077 Z" fill="#000000" fill-rule="nonzero" fill-opacity="1" /><polyline clip-path="url(#clip492)" style="stroke:#660066; stroke-linecap:round; stroke-linejoin:round; stroke-width:8; stroke-opacity:1; fill:none" points="308.924,692.532 311.552,690.169 314.18,686.963 316.808,682.904 319.437,677.99 322.065,672.229 324.693,665.632 327.321,658.221 329.95,650.025 332.578,641.079 335.206,631.429 337.834,621.126 340.462,610.229 343.091,598.806 345.719,586.929 348.347,574.679 350.975,562.143 353.603,549.412 356.232,536.583 358.86,523.757 361.488,511.04 364.116,498.539 366.745,486.364 369.373,474.625 372.001,463.434 374.629,452.9 377.257,443.132 379.886,434.236 382.514,426.313 385.142,419.462 387.77,413.773 390.399,409.33 393.027,406.213 395.655,404.488 398.283,404.215 400.911,405.442 403.54,408.209 406.168,412.541 408.796,418.453 411.424,425.945 414.052,435.007 416.681,445.614 419.309,457.726 421.937,471.293 424.565,486.247 427.194,502.511 429.822,519.992 432.45,538.586 435.078,558.175 437.706,578.631 440.335,599.815 442.963,621.578 445.591,643.762 448.219,666.202 450.847,688.726 453.476,711.156 456.104,733.312 458.732,755.011 461.36,776.067 463.989,796.297 466.617,815.519 469.245,833.555 471.873,850.234 474.501,865.388 477.13,878.861 479.758,890.506 482.386,900.187 485.014,907.781 487.643,913.18 490.271,916.289 492.899,917.034 495.527,915.353 498.155,911.208 500.784,904.576 503.412,895.455 506.04,883.865 508.668,869.843 511.296,853.45 513.925,834.765 516.553,813.889 519.181,790.941 521.809,766.06 524.438,739.404 527.066,711.147 529.694,681.481 532.322,650.612 534.95,618.758 537.579,586.153 540.207,553.036 542.835,519.659 545.463,486.278 548.091,453.155 550.72,420.551 553.348,388.731 555.976,357.957 558.604,328.485 561.233,300.567 563.861,274.445 566.489,250.351 569.117,228.504 571.745,209.107 574.374,192.348 577.002,178.395 579.63,167.399 582.258,159.485 584.886,154.758 587.515,153.297 590.143,155.157 592.771,160.368 595.399,168.931 598.028,180.822 600.656,195.99 603.284,214.356 605.912,235.815 608.54,260.236 611.169,287.465 613.797,317.32 616.425,349.599 619.053,384.076 621.682,420.509 624.31,458.634 626.938,498.173 629.566,538.833 632.194,580.31 634.823,622.292 637.451,664.458 640.079,706.483 642.707,748.042 645.335,788.811 647.964,828.468 650.592,866.698 653.22,903.197 655.848,937.671 658.477,969.839 661.105,999.439 663.733,1026.23 666.361,1049.98 668.989,1070.49 671.618,1087.59 674.246,1101.13 676.874,1110.98 679.502,1117.06 682.13,1119.29 684.759,1117.65 687.387,1112.12 690.015,1102.75 692.643,1089.58 695.272,1072.7 697.9,1052.24 700.528,1028.34 703.156,1001.18 705.784,970.948 708.413,937.882 711.041,902.226 713.669,864.252 716.297,824.247 718.926,782.516 721.554,739.378 724.182,695.164 726.81,650.208 729.438,604.861 732.067,559.474 734.695,514.392 737.323,469.963 739.951,426.525 742.579,384.41 745.208,343.941 747.836,305.424 750.464,269.152 753.092,235.397 755.721,204.414 758.349,176.432 760.977,151.656 763.605,130.269 766.233,112.421 768.862,98.2376 771.49,87.8129 774.118,81.212 776.746,78.4688 779.374,79.5868 782.003,84.539 784.631,93.2682 787.259,105.687 789.887,121.681 792.516,141.107 795.144,163.794 797.772,189.549 800.4,218.154 803.028,249.372 805.657,282.944 808.285,318.596 810.913,356.04 813.541,394.975 816.169,435.091 818.798,476.07 821.426,517.592 824.054,559.334 826.682,600.973 829.311,642.191 831.939,682.678 834.567,722.128 837.195,760.252 839.823,796.769 842.452,831.416 845.08,863.949 847.708,894.14 850.336,921.785 852.965,946.7 855.593,968.726 858.221,987.729 860.849,1003.6 863.477,1016.25 866.106,1025.64 868.734,1031.72 871.362,1034.49 873.99,1033.99 876.618,1030.25 879.247,1023.35 881.875,1013.38 884.503,1000.48 887.131,984.771 889.76,966.426 892.388,945.624 895.016,922.561 897.644,897.45 900.272,870.516 902.901,841.995 905.529,812.133 908.157,781.181 910.785,749.395 913.413,717.034 916.042,684.356 918.67,651.619 921.298,619.076 923.926,586.972 926.555,555.548 929.183,525.032 931.811,495.643 934.439,467.584 937.067,441.047 939.696,416.207 942.324,393.22 944.952,372.228 947.58,353.351 950.209,336.692 952.837,322.333 955.465,310.336 958.093,300.744 960.721,293.579 963.35,288.844 965.978,286.522 968.606,286.577 971.234,288.954 973.862,293.584 976.491,300.377 979.119,309.232 981.747,320.031 984.375,332.645 987.004,346.932 989.632,362.742 992.26,379.913 994.888,398.281 997.516,417.672 1000.14,437.91 1002.77,458.817 1005.4,480.214 1008.03,501.92 1010.66,523.761 1013.29,545.563 1015.91,567.157 1018.54,588.382 1021.17,609.082 1023.8,629.111 1026.43,648.332 1029.05,666.618 1031.68,683.853 1034.31,699.933 1036.94,714.766 1039.57,728.273 1042.2,740.387 1044.82,751.055 1047.45,760.238 1050.08,767.907 1052.71,774.05 1055.34,778.665 1057.97,781.763 1060.59,783.368 1063.22,783.513 1065.85,782.245 1068.48,779.617 1071.11,775.695 1073.73,770.55 1076.36,764.265 1078.99,756.925 1081.62,748.624 1084.25,739.458 1086.88,729.529 1089.5,718.941 1092.13,707.801 1094.76,696.214 1097.39,684.288 1100.02,672.128 1102.65,659.839 1105.27,647.522 1107.9,635.276 1110.53,623.194 1113.16,611.366 1115.79,599.877 1118.41,588.804 1121.04,578.219 1123.67,568.189 1126.3,558.771 1128.93,550.017 1131.56,541.971 1134.18,534.67 1136.81,528.141 1139.44,522.408 1142.07,517.484 1144.7,513.377 1147.32,510.085 1149.95,507.604 1152.58,505.918 1155.21,505.01 1157.84,504.855 1160.47,505.423 1163.09,506.678 1165.72,508.583 1168.35,511.094 1170.98,514.166 1173.61,517.75 1176.24,521.795 1178.86,526.248 1181.49,531.057 1184.12,536.166 1186.75,541.521 1189.38,547.069 1192,552.756 1194.63,558.529 1197.26,564.338 1199.89,570.136 1202.52,575.874 1205.15,581.51 1207.77,587.003 1210.4,592.315 1213.03,597.412 1215.66,602.261 1218.29,606.836 1220.91,611.113 1223.54,615.071 1226.17,618.694 1228.8,621.968 1231.43,624.884 1234.06,627.435 1236.68,629.62 1239.31,631.438 1241.94,632.893 1244.57,633.991 1247.2,634.742 1249.83,635.158 1252.45,635.252 1255.08,635.04 1257.71,634.54 1260.34,633.771 1262.97,632.753 1265.59,631.509 1268.22,630.06 1270.85,628.43 1273.48,626.642 1276.11,624.719 1278.74,622.684 1281.36,620.561 1283.99,618.372 1286.62,616.139 1289.25,613.883 1291.88,611.624 1294.5,609.381 1297.13,607.173 1299.76,605.014 1302.39,602.921 1305.02,600.908 1307.65,598.986 1310.27,597.167 1312.9,595.459 1315.53,593.871 1318.16,592.409 1320.79,591.077 1323.42,589.88 1326.04,588.818 1328.67,587.893 1331.3,587.105 1333.93,586.451 1336.56,585.929 1339.18,585.536 1341.81,585.266 1344.44,585.114 1347.07,585.074 1349.7,585.139 1352.33,585.303 1354.95,585.557 1357.58,585.893 1360.21,586.304 1362.84,586.78 1365.47,587.314 1368.09,587.897 1370.72,588.521 1373.35,589.178 1375.98,589.86 1378.61,590.559 1381.24,591.268 1383.86,591.98 1386.49,592.69 1389.12,593.39 1391.75,594.076 1394.38,594.742 1397.01,595.384 1399.63,595.999 1402.26,596.582 1404.89,597.13 1407.52,597.642 1410.15,598.116 1412.77,598.549 1415.4,598.941 1418.03,599.292 1420.66,599.602 1423.29,599.87 1425.92,600.097 1428.54,600.285 1431.17,600.434 1433.8,600.546 1436.43,600.623 1439.06,600.667 1441.68,600.679 1444.31,600.663 1446.94,600.62 1449.57,600.553 1452.2,600.464 1454.83,600.356 1457.45,600.231 1460.08,600.092 1462.71,599.94 1465.34,599.779 1467.97,599.611 1470.6,599.437 1473.22,599.26 1475.85,599.081 1478.48,598.903 1481.11,598.726 1483.74,598.553 1486.36,598.385 1488.99,598.222 1491.62,598.066 1494.25,597.918 1496.88,597.779 1499.51,597.648 1502.13,597.527 1504.76,597.416 1507.39,597.315 1510.02,597.224 1512.65,597.143 1515.27,597.072 1517.9,597.011 1520.53,596.96 1523.16,596.917 1525.79,596.884 1528.42,596.859 1531.04,596.842 1533.67,596.832 1536.3,596.829 1538.93,596.832 1541.56,596.841 1544.19,596.855 1546.81,596.874 1549.44,596.896 1552.07,596.922 1554.7,596.95 1557.33,596.981 1559.95,597.013 1562.58,597.047 1565.21,597.081 1567.84,597.116 1570.47,597.152 1573.1,597.186 1575.72,597.221 1578.35,597.254 1580.98,597.286 1583.61,597.317 1586.24,597.346 1588.86,597.374 1591.49,597.4 1594.12,597.424 1596.75,597.446 1599.38,597.466 1602.01,597.485 1604.63,597.501 1607.26,597.515 1609.89,597.528 1612.52,597.539 1615.15,597.548 1617.78,597.555 1620.4,597.561 1623.03,597.565 1625.66,597.568 1628.29,597.57 1630.92,597.57 1633.54,597.57 1636.17,597.568 1638.8,597.566 1641.43,597.563 1644.06,597.56 1646.69,597.556 1649.31,597.551 1651.94,597.546 1654.57,597.541 1657.2,597.536 1659.83,597.531 1662.46,597.526 1665.08,597.52 1667.71,597.515 1670.34,597.51 1672.97,597.505 1675.6,597.501 1678.22,597.496 1680.85,597.492 1683.48,597.488 1686.11,597.484 1688.74,597.481 1691.37,597.478 1693.99,597.475 1696.62,597.472 1699.25,597.47 1701.88,597.468 1704.51,597.467 1707.13,597.465 1709.76,597.464 1712.39,597.463 1715.02,597.462 1717.65,597.462 1720.28,597.461 1722.9,597.461 1725.53,597.461 1728.16,597.461 1730.79,597.461 1733.42,597.462 1736.05,597.462 1738.67,597.462 1741.3,597.463 1743.93,597.463 1746.56,597.464 1749.19,597.465 1751.81,597.465 1754.44,597.466 1757.07,597.466 1759.7,597.467 1762.33,597.468 1764.96,597.468 1767.58,597.469 1770.21,597.469 1772.84,597.47 1775.47,597.47 1778.1,597.471 1780.72,597.471 1783.35,597.471 1785.98,597.472 1788.61,597.472 1791.24,597.472 1793.87,597.473 1796.49,597.473 1799.12,597.473 1801.75,597.473 1804.38,597.473 1807.01,597.473 1809.64,597.473 1812.26,597.474 1814.89,597.474 1817.52,597.474 1820.15,597.474 1822.78,597.474 1825.4,597.474 1828.03,597.474 1830.66,597.474 1833.29,597.474 1835.92,597.473 1838.55,597.473 1841.17,597.473 1843.8,597.473 1846.43,597.473 1849.06,597.473 1851.69,597.473 1854.31,597.473 1856.94,597.473 1859.57,597.473 1862.2,597.473 1864.83,597.473 1867.46,597.473 1870.08,597.473 1872.71,597.473 1875.34,597.473 1877.97,597.473 1880.6,597.473 1883.23,597.473 1885.85,597.473 1888.48,597.473 1891.11,597.473 1893.74,597.473 1896.37,597.473 1898.99,597.473 1901.62,597.473 1904.25,597.473 1906.88,597.473 1909.51,597.473 1912.14,597.473 1914.76,597.473 1917.39,597.473 1920.02,597.473 1922.65,597.473 1925.28,597.473 1927.9,597.473 1930.53,597.473 1933.16,597.473 1935.79,597.473 1938.42,597.473 1941.05,597.473 1943.67,597.473 1946.3,597.473 1948.93,597.473 1951.56,597.473 1954.19,597.473 1956.82,597.473 1959.44,597.473 1962.07,597.473 1964.7,597.473 1967.33,597.473 1969.96,597.473 1972.58,597.473 1975.21,597.473 1977.84,597.473 1980.47,597.473 1983.1,597.473 1985.73,597.473 1988.35,597.473 1990.98,597.473 1993.61,597.473 1996.24,597.473 1998.87,597.473 2001.49,597.473 2004.12,597.473 2006.75,597.473 2009.38,597.473 2012.01,597.473 2014.64,597.473 2017.26,597.473 2019.89,597.473 2022.52,597.473 2025.15,597.473 2027.78,597.473 2030.41,597.473 2033.03,597.473 2035.66,597.473 2038.29,597.473 2040.92,597.473 2043.55,597.473 2046.17,597.473 2048.8,597.473 2051.43,597.473 2054.06,597.473 2056.69,597.473 2059.32,597.473 2061.94,597.473 2064.57,597.473 2067.2,597.473 2069.83,597.473 2072.46,597.473 2075.08,597.473 2077.71,597.473 2080.34,597.473 2082.97,597.473 2085.6,597.473 2088.23,597.473 2090.85,597.473 2093.48,597.473 2096.11,597.473 2098.74,597.473 2101.37,597.473 2104,597.473 2106.62,597.473 2109.25,597.473 2111.88,597.473 2114.51,597.473 2117.14,597.473 2119.76,597.473 2122.39,597.473 2125.02,597.473 2127.65,597.473 2130.28,597.473 2132.91,597.473 2135.53,597.473 2138.16,597.473 2140.79,597.473 2143.42,597.473 2146.05,597.473 2148.67,597.473 2151.3,597.473 2153.93,597.473 2156.56,597.473 2159.19,597.473 2161.82,597.473 2164.44,597.473 2167.07,597.473 2169.7,597.473 2172.33,597.473 2174.96,597.473 2177.59,597.473 2180.21,597.473 2182.84,597.473 2185.47,597.474 2188.1,597.474 2190.73,597.474 2193.35,597.474 2195.98,597.474 2198.61,597.474 2201.24,597.474 2203.87,597.474 2206.5,597.474 2209.12,597.474 2211.75,597.474 2214.38,597.474 2217.01,597.474 2219.64,597.474 2222.26,597.474 2224.89,597.474 2227.52,597.474 2230.15,597.474 2232.78,597.474 2235.41,597.474 2238.03,597.474 2240.66,597.474 2243.29,597.474 2245.92,597.474 2248.55,597.474 2251.18,597.474 2253.8,597.474 2256.43,597.474 2259.06,597.474 2261.69,597.474 2264.32,597.474 2266.94,597.474 2269.57,597.474 2272.2,597.474 2274.83,597.473 2277.46,597.473 2280.09,597.473 2282.71,597.473 2285.34,597.473 2287.97,597.473 2290.6,597.473 2293.23,597.473 "/>
<polyline clip-path="url(#clip492)" style="stroke:#0000e5; stroke-linecap:round; stroke-linejoin:round; stroke-width:8; stroke-opacity:1; fill:none" points="308.924,597.473 311.552,597.473 314.18,597.473 316.808,597.473 319.437,597.473 322.065,597.473 324.693,597.473 327.321,597.473 329.95,597.473 332.578,597.473 335.206,597.473 337.834,597.473 340.462,597.473 343.091,597.473 345.719,597.473 348.347,597.473 350.975,597.473 353.603,597.473 356.232,597.473 358.86,597.473 361.488,597.473 364.116,597.473 366.745,597.473 369.373,597.473 372.001,597.473 374.629,597.473 377.257,597.473 379.886,597.473 382.514,597.473 385.142,597.473 387.77,597.473 390.399,597.473 393.027,597.473 395.655,597.473 398.283,597.473 400.911,597.473 403.54,597.473 406.168,597.473 408.796,597.473 411.424,597.473 414.052,597.473 416.681,597.473 419.309,597.473 421.937,597.473 424.565,597.473 427.194,597.473 429.822,597.473 432.45,597.473 435.078,597.473 437.706,597.473 440.335,597.473 442.963,597.473 445.591,597.473 448.219,597.473 450.847,597.473 453.476,597.473 456.104,597.473 458.732,597.473 461.36,597.473 463.989,597.473 466.617,597.473 469.245,597.473 471.873,597.473 474.501,597.473 477.13,597.473 479.758,597.473 482.386,597.473 485.014,597.473 487.643,597.473 490.271,597.473 492.899,597.473 495.527,597.473 498.155,597.473 500.784,597.473 503.412,597.473 506.04,597.473 508.668,597.473 511.296,597.473 513.925,597.473 516.553,597.473 519.181,597.473 521.809,597.473 524.438,597.473 527.066,597.473 529.694,597.473 532.322,597.473 534.95,597.473 537.579,597.473 540.207,597.473 542.835,597.473 545.463,597.473 548.091,597.473 550.72,597.473 553.348,597.473 555.976,597.473 558.604,597.473 561.233,597.473 563.861,597.473 566.489,597.473 569.117,597.473 571.745,597.473 574.374,597.473 577.002,597.473 579.63,597.473 582.258,597.473 584.886,597.473 587.515,597.473 590.143,597.473 592.771,597.473 595.399,597.473 598.028,597.473 600.656,597.473 603.284,597.473 605.912,597.473 608.54,597.473 611.169,597.473 613.797,597.473 616.425,597.473 619.053,597.473 621.682,597.473 624.31,597.473 626.938,597.473 629.566,597.473 632.194,597.473 634.823,597.473 637.451,597.473 640.079,597.473 642.707,597.473 645.335,597.473 647.964,597.473 650.592,597.473 653.22,597.473 655.848,597.473 658.477,597.473 661.105,597.473 663.733,597.473 666.361,597.473 668.989,597.473 671.618,597.473 674.246,597.473 676.874,597.473 679.502,597.473 682.13,597.473 684.759,597.473 687.387,597.473 690.015,597.473 692.643,597.473 695.272,597.473 697.9,597.473 700.528,597.473 703.156,597.473 705.784,597.473 708.413,597.473 711.041,597.473 713.669,597.473 716.297,597.473 718.926,597.473 721.554,597.473 724.182,597.473 726.81,597.473 729.438,597.473 732.067,597.473 734.695,597.473 737.323,597.473 739.951,597.473 742.579,597.473 745.208,597.473 747.836,597.473 750.464,597.473 753.092,597.473 755.721,597.473 758.349,597.473 760.977,597.473 763.605,597.473 766.233,597.473 768.862,597.473 771.49,597.473 774.118,597.473 776.746,597.473 779.374,597.473 782.003,597.473 784.631,597.473 787.259,597.473 789.887,597.473 792.516,597.473 795.144,597.473 797.772,597.473 800.4,597.473 803.028,597.473 805.657,597.473 808.285,597.473 810.913,597.473 813.541,597.473 816.169,597.473 818.798,597.473 821.426,597.473 824.054,597.473 826.682,597.473 829.311,597.473 831.939,597.473 834.567,597.473 837.195,597.473 839.823,597.473 842.452,597.473 845.08,597.473 847.708,597.473 850.336,597.473 852.965,597.473 855.593,597.473 858.221,597.473 860.849,597.473 863.477,597.473 866.106,597.473 868.734,597.473 871.362,597.473 873.99,597.473 876.618,597.473 879.247,597.473 881.875,597.473 884.503,597.473 887.131,597.473 889.76,597.473 892.388,597.473 895.016,597.473 897.644,597.473 900.272,597.473 902.901,597.473 905.529,597.473 908.157,597.473 910.785,597.473 913.413,597.473 916.042,597.473 918.67,597.473 921.298,597.473 923.926,597.473 926.555,597.473 929.183,597.473 931.811,597.473 934.439,597.473 937.067,597.473 939.696,597.473 942.324,597.473 944.952,597.473 947.58,597.473 950.209,597.473 952.837,597.473 955.465,597.473 958.093,597.473 960.721,597.473 963.35,597.473 965.978,597.473 968.606,597.473 971.234,597.473 973.862,597.473 976.491,597.473 979.119,597.473 981.747,597.473 984.375,597.473 987.004,597.473 989.632,597.473 992.26,597.473 994.888,597.473 997.516,597.473 1000.14,597.473 1002.77,597.473 1005.4,597.473 1008.03,597.473 1010.66,597.473 1013.29,597.473 1015.91,597.473 1018.54,597.473 1021.17,597.473 1023.8,597.473 1026.43,597.473 1029.05,597.473 1031.68,597.473 1034.31,597.473 1036.94,597.473 1039.57,597.473 1042.2,597.473 1044.82,597.473 1047.45,597.473 1050.08,597.473 1052.71,597.473 1055.34,597.473 1057.97,597.473 1060.59,597.473 1063.22,597.473 1065.85,597.473 1068.48,597.473 1071.11,597.473 1073.73,597.473 1076.36,597.473 1078.99,597.473 1081.62,597.473 1084.25,597.473 1086.88,597.473 1089.5,597.473 1092.13,597.473 1094.76,597.473 1097.39,597.473 1100.02,597.473 1102.65,597.473 1105.27,597.473 1107.9,597.473 1110.53,597.473 1113.16,597.473 1115.79,597.473 1118.41,597.473 1121.04,597.473 1123.67,597.473 1126.3,597.473 1128.93,597.473 1131.56,597.473 1134.18,597.473 1136.81,597.473 1139.44,597.473 1142.07,597.473 1144.7,597.473 1147.32,597.473 1149.95,597.473 1152.58,597.473 1155.21,597.473 1157.84,597.473 1160.47,597.473 1163.09,597.473 1165.72,597.473 1168.35,597.473 1170.98,597.473 1173.61,597.473 1176.24,597.473 1178.86,597.473 1181.49,597.473 1184.12,597.473 1186.75,597.473 1189.38,597.473 1192,597.473 1194.63,597.473 1197.26,597.473 1199.89,597.473 1202.52,597.473 1205.15,597.473 1207.77,597.473 1210.4,597.473 1213.03,597.473 1215.66,597.473 1218.29,597.473 1220.91,597.473 1223.54,597.473 1226.17,597.473 1228.8,597.473 1231.43,597.473 1234.06,597.473 1236.68,597.473 1239.31,597.473 1241.94,597.473 1244.57,597.473 1247.2,597.473 1249.83,597.473 1252.45,597.473 1255.08,597.473 1257.71,597.473 1260.34,597.473 1262.97,597.473 1265.59,597.473 1268.22,597.473 1270.85,597.473 1273.48,597.473 1276.11,597.473 1278.74,597.473 1281.36,597.473 1283.99,597.473 1286.62,597.473 1289.25,597.473 1291.88,597.473 1294.5,597.473 1297.13,597.473 1299.76,597.473 1302.39,597.473 1305.02,597.473 1307.65,597.473 1310.27,597.473 1312.9,597.473 1315.53,597.473 1318.16,597.473 1320.79,597.473 1323.42,597.473 1326.04,597.473 1328.67,597.473 1331.3,597.473 1333.93,597.473 1336.56,597.473 1339.18,597.473 1341.81,597.473 1344.44,597.473 1347.07,597.473 1349.7,597.473 1352.33,597.473 1354.95,597.473 1357.58,597.473 1360.21,597.473 1362.84,597.473 1365.47,597.473 1368.09,597.473 1370.72,597.473 1373.35,597.473 1375.98,597.473 1378.61,597.473 1381.24,597.473 1383.86,597.473 1386.49,597.473 1389.12,597.473 1391.75,597.473 1394.38,597.473 1397.01,597.473 1399.63,597.473 1402.26,597.473 1404.89,597.473 1407.52,597.473 1410.15,597.473 1412.77,597.473 1415.4,597.473 1418.03,597.473 1420.66,597.473 1423.29,597.473 1425.92,597.473 1428.54,597.473 1431.17,597.473 1433.8,597.473 1436.43,597.473 1439.06,597.473 1441.68,597.473 1444.31,597.473 1446.94,597.473 1449.57,597.473 1452.2,597.473 1454.83,597.473 1457.45,597.473 1460.08,597.473 1462.71,597.473 1465.34,597.473 1467.97,597.473 1470.6,597.473 1473.22,597.473 1475.85,597.473 1478.48,597.473 1481.11,597.473 1483.74,597.473 1486.36,597.473 1488.99,597.473 1491.62,597.473 1494.25,597.473 1496.88,597.473 1499.51,597.473 1502.13,597.474 1504.76,597.474 1507.39,597.474 1510.02,597.474 1512.65,597.474 1515.27,597.474 1517.9,597.474 1520.53,597.474 1523.16,597.474 1525.79,597.474 1528.42,597.474 1531.04,597.474 1533.67,597.474 1536.3,597.474 1538.93,597.474 1541.56,597.473 1544.19,597.473 1546.81,597.473 1549.44,597.472 1552.07,597.472 1554.7,597.471 1557.33,597.47 1559.95,597.469 1562.58,597.468 1565.21,597.467 1567.84,597.465 1570.47,597.464 1573.1,597.462 1575.72,597.46 1578.35,597.458 1580.98,597.455 1583.61,597.452 1586.24,597.45 1588.86,597.447 1591.49,597.443 1594.12,597.44 1596.75,597.437 1599.38,597.434 1602.01,597.431 1604.63,597.428 1607.26,597.426 1609.89,597.424 1612.52,597.422 1615.15,597.421 1617.78,597.422 1620.4,597.423 1623.03,597.426 1625.66,597.43 1628.29,597.436 1630.92,597.444 1633.54,597.455 1636.17,597.468 1638.8,597.483 1641.43,597.502 1644.06,597.525 1646.69,597.551 1649.31,597.58 1651.94,597.614 1654.57,597.652 1657.2,597.694 1659.83,597.741 1662.46,597.791 1665.08,597.846 1667.71,597.905 1670.34,597.967 1672.97,598.032 1675.6,598.1 1678.22,598.17 1680.85,598.241 1683.48,598.312 1686.11,598.382 1688.74,598.45 1691.37,598.513 1693.99,598.571 1696.62,598.621 1699.25,598.661 1701.88,598.69 1704.51,598.705 1707.13,598.703 1709.76,598.682 1712.39,598.64 1715.02,598.573 1717.65,598.479 1720.28,598.355 1722.9,598.199 1725.53,598.008 1728.16,597.78 1730.79,597.512 1733.42,597.204 1736.05,596.854 1738.67,596.46 1741.3,596.023 1743.93,595.542 1746.56,595.018 1749.19,594.453 1751.81,593.849 1754.44,593.209 1757.07,592.537 1759.7,591.837 1762.33,591.116 1764.96,590.38 1767.58,589.637 1770.21,588.896 1772.84,588.167 1775.47,587.459 1778.1,586.785 1780.72,586.157 1783.35,585.589 1785.98,585.093 1788.61,584.685 1791.24,584.379 1793.87,584.189 1796.49,584.132 1799.12,584.221 1801.75,584.471 1804.38,584.896 1807.01,585.51 1809.64,586.323 1812.26,587.347 1814.89,588.591 1817.52,590.061 1820.15,591.764 1822.78,593.701 1825.4,595.873 1828.03,598.278 1830.66,600.91 1833.29,603.76 1835.92,606.816 1838.55,610.062 1841.17,613.481 1843.8,617.048 1846.43,620.738 1849.06,624.522 1851.69,628.366 1854.31,632.234 1856.94,636.087 1859.57,639.882 1862.2,643.576 1864.83,647.122 1867.46,650.471 1870.08,653.573 1872.71,656.379 1875.34,658.838 1877.97,660.9 1880.6,662.515 1883.23,663.636 1885.85,664.218 1888.48,664.218 1891.11,663.599 1893.74,662.325 1896.37,660.369 1898.99,657.704 1901.62,654.315 1904.25,650.19 1906.88,645.326 1909.51,639.726 1912.14,633.402 1914.76,626.375 1917.39,618.673 1920.02,610.333 1922.65,601.401 1925.28,591.931 1927.9,581.986 1930.53,571.637 1933.16,560.961 1935.79,550.043 1938.42,538.975 1941.05,527.855 1943.67,516.783 1946.3,505.867 1948.93,495.215 1951.56,484.939 1954.19,475.148 1956.82,465.956 1959.44,457.471 1962.07,449.799 1964.7,443.043 1967.33,437.3 1969.96,432.661 1972.58,429.206 1975.21,427.011 1977.84,426.138 1980.47,426.639 1983.1,428.556 1985.73,431.914 1988.35,436.729 1990.98,443.001 1993.61,450.715 1996.24,459.843 1998.87,470.342 2001.49,482.155 2004.12,495.208 2006.75,509.417 2009.38,524.682 2012.01,540.893 2014.64,557.925 2017.26,575.647 2019.89,593.914 2022.52,612.577 2025.15,631.477 2027.78,650.454 2030.41,669.341 2033.03,687.971 2035.66,706.178 2038.29,723.794 2040.92,740.66 2043.55,756.617 2046.17,771.516 2048.8,785.216 2051.43,797.585 2054.06,808.505 2056.69,817.868 2059.32,825.581 2061.94,831.568 2064.57,835.765 2067.2,838.13 2069.83,838.634 2072.46,837.266 2075.08,834.035 2077.71,828.965 2080.34,822.088 2082.97,813.479 2085.6,803.214 2088.23,791.384 2090.85,778.096 2093.48,763.471 2096.11,747.64 2098.74,730.748 2101.37,712.947 2104,694.396 2106.62,675.263 2109.25,655.717 2111.88,635.93 2114.51,616.077 2117.14,596.33 2119.76,576.857 2122.39,557.822 2125.02,539.386 2127.65,521.697 2130.28,504.897 2132.91,489.117 2135.53,474.476 2138.16,461.079 2140.79,449.019 2143.42,438.375 2146.05,429.208 2148.67,421.567 2151.3,415.485 2153.93,410.977 2156.56,408.046 2159.19,406.678 2161.82,406.844 2164.44,408.502 2167.07,411.597 2169.7,416.062 2172.33,421.817 2174.96,428.774 2177.59,436.835 2180.21,445.894 2182.84,455.839 2185.47,466.553 2188.1,477.916 2190.73,489.806 2193.35,502.097 2195.98,514.666 2198.61,527.392 2201.24,540.157 2203.87,552.844 2206.5,565.344 2209.12,577.554 2211.75,589.376 2214.38,600.721 2217.01,611.509 2219.64,621.667 2222.26,631.132 2224.89,639.851 2227.52,647.781 2230.15,654.886 2232.78,661.144 2235.41,666.539 2238.03,671.065 2240.66,674.727 2243.29,677.535 2245.92,679.509 2248.55,680.676 2251.18,681.071 2253.8,680.731 2256.43,679.703 2259.06,678.035 2261.69,675.78 2264.32,672.995 2266.94,669.737 2269.57,666.067 2272.2,662.044 2274.83,657.729 2277.46,653.182 2280.09,648.46 2282.71,643.621 2285.34,638.719 2287.97,633.806 2290.6,628.928 2293.23,624.132 "/>
<polyline clip-path="url(#clip492)" style="stroke:#006600; stroke-linecap:round; stroke-linejoin:round; stroke-width:8; stroke-opacity:1; fill:none" points="308.924,597.475 311.552,597.475 314.18,597.475 316.808,597.475 319.437,597.475 322.065,597.475 324.693,597.475 327.321,597.475 329.95,597.475 332.578,597.475 335.206,597.474 337.834,597.474 340.462,597.474 343.091,597.473 345.719,597.473 348.347,597.472 350.975,597.471 353.603,597.47 356.232,597.47 358.86,597.469 361.488,597.468 364.116,597.467 366.745,597.465 369.373,597.464 372.001,597.463 374.629,597.462 377.257,597.46 379.886,597.459 382.514,597.457 385.142,597.456 387.77,597.454 390.399,597.453 393.027,597.452 395.655,597.451 398.283,597.449 400.911,597.448 403.54,597.448 406.168,597.447 408.796,597.447 411.424,597.447 414.052,597.447 416.681,597.448 419.309,597.449 421.937,597.45 424.565,597.452 427.194,597.455 429.822,597.458 432.45,597.462 435.078,597.466 437.706,597.471 440.335,597.477 442.963,597.483 445.591,597.49 448.219,597.498 450.847,597.507 453.476,597.516 456.104,597.526 458.732,597.537 461.36,597.548 463.989,597.56 466.617,597.572 469.245,597.585 471.873,597.598 474.501,597.611 477.13,597.624 479.758,597.637 482.386,597.649 485.014,597.662 487.643,597.673 490.271,597.684 492.899,597.693 495.527,597.702 498.155,597.708 500.784,597.713 503.412,597.715 506.04,597.715 508.668,597.713 511.296,597.707 513.925,597.698 516.553,597.686 519.181,597.67 521.809,597.649 524.438,597.625 527.066,597.596 529.694,597.562 532.322,597.523 534.95,597.48 537.579,597.431 540.207,597.378 542.835,597.319 545.463,597.256 548.091,597.188 550.72,597.116 553.348,597.04 555.976,596.96 558.604,596.877 561.233,596.791 563.861,596.704 566.489,596.615 569.117,596.526 571.745,596.438 574.374,596.351 577.002,596.267 579.63,596.187 582.258,596.112 584.886,596.044 587.515,595.983 590.143,595.932 592.771,595.892 595.399,595.863 598.028,595.849 600.656,595.85 603.284,595.867 605.912,595.903 608.54,595.959 611.169,596.035 613.797,596.133 616.425,596.254 619.053,596.4 621.682,596.57 624.31,596.765 626.938,596.987 629.566,597.234 632.194,597.506 634.823,597.804 637.451,598.125 640.079,598.471 642.707,598.838 645.335,599.225 647.964,599.629 650.592,600.05 653.22,600.483 655.848,600.924 658.477,601.372 661.105,601.821 663.733,602.267 666.361,602.706 668.989,603.133 671.618,603.541 674.246,603.926 676.874,604.282 679.502,604.603 682.13,604.883 684.759,605.116 687.387,605.296 690.015,605.416 692.643,605.471 695.272,605.455 697.9,605.363 700.528,605.188 703.156,604.928 705.784,604.577 708.413,604.132 711.041,603.591 713.669,602.95 716.297,602.208 718.926,601.366 721.554,600.423 724.182,599.382 726.81,598.244 729.438,597.014 732.067,595.696 734.695,594.297 737.323,592.824 739.951,591.286 742.579,589.693 745.208,588.055 747.836,586.386 750.464,584.698 753.092,583.005 755.721,581.325 758.349,579.672 760.977,578.065 763.605,576.52 766.233,575.058 768.862,573.695 771.49,572.453 774.118,571.349 776.746,570.404 779.374,569.635 782.003,569.062 784.631,568.701 787.259,568.569 789.887,568.681 792.516,569.052 795.144,569.694 797.772,570.618 800.4,571.831 803.028,573.34 805.657,575.15 808.285,577.26 810.913,579.671 813.541,582.377 816.169,585.37 818.798,588.641 821.426,592.175 824.054,595.956 826.682,599.964 829.311,604.175 831.939,608.563 834.567,613.098 837.195,617.747 839.823,622.477 842.452,627.249 845.08,632.024 847.708,636.758 850.336,641.41 852.965,645.933 855.593,650.282 858.221,654.41 860.849,658.27 863.477,661.815 866.106,665 868.734,667.78 871.362,670.111 873.99,671.952 876.618,673.265 879.247,674.015 881.875,674.169 884.503,673.701 887.131,672.586 889.76,670.805 892.388,668.347 895.016,665.202 897.644,661.369 900.272,656.852 902.901,651.662 905.529,645.816 908.157,639.336 910.785,632.254 913.413,624.605 916.042,616.433 918.67,607.788 921.298,598.724 923.926,589.304 926.555,579.592 929.183,569.662 931.811,559.588 934.439,549.452 937.067,539.335 939.696,529.325 942.324,519.508 944.952,509.974 947.58,500.812 950.209,492.111 952.837,483.959 955.465,476.44 958.093,469.639 960.721,463.633 963.35,458.497 965.978,454.3 968.606,451.103 971.234,448.963 973.862,447.927 976.491,448.035 979.119,449.317 981.747,451.794 984.375,455.478 987.004,460.369 989.632,466.459 992.26,473.726 994.888,482.14 997.516,491.66 1000.14,502.233 1002.77,513.796 1005.4,526.279 1008.03,539.597 1010.66,553.662 1013.29,568.372 1015.91,583.622 1018.54,599.297 1021.17,615.277 1023.8,631.439 1026.43,647.654 1029.05,663.789 1031.68,679.713 1034.31,695.292 1036.94,710.392 1039.57,724.884 1042.2,738.639 1044.82,751.534 1047.45,763.45 1050.08,774.277 1052.71,783.912 1055.34,792.258 1057.97,799.231 1060.59,804.758 1063.22,808.774 1065.85,811.229 1068.48,812.085 1071.11,811.317 1073.73,808.915 1076.36,804.879 1078.99,799.228 1081.62,791.99 1084.25,783.212 1086.88,772.949 1089.5,761.274 1092.13,748.269 1094.76,734.029 1097.39,718.661 1100.02,702.282 1102.65,685.018 1105.27,667.001 1107.9,648.375 1110.53,629.284 1113.16,609.882 1115.79,590.321 1118.41,570.76 1121.04,551.354 1123.67,532.26 1126.3,513.631 1128.93,495.616 1131.56,478.361 1134.18,462.004 1136.81,446.675 1139.44,432.497 1142.07,419.581 1144.7,408.029 1147.32,397.931 1149.95,389.364 1152.58,382.391 1155.21,377.064 1157.84,373.417 1160.47,371.474 1163.09,371.241 1165.72,372.712 1168.35,375.865 1170.98,380.664 1173.61,387.061 1176.24,394.993 1178.86,404.385 1181.49,415.151 1184.12,427.192 1186.75,440.403 1189.38,454.665 1192,469.856 1194.63,485.843 1197.26,502.492 1199.89,519.662 1202.52,537.208 1205.15,554.988 1207.77,572.855 1210.4,590.665 1213.03,608.278 1215.66,625.555 1218.29,642.363 1220.91,658.573 1223.54,674.066 1226.17,688.729 1228.8,702.457 1231.43,715.156 1234.06,726.743 1236.68,737.143 1239.31,746.294 1241.94,754.146 1244.57,760.66 1247.2,765.81 1249.83,769.581 1252.45,771.971 1255.08,772.988 1257.71,772.653 1260.34,770.999 1262.97,768.066 1265.59,763.907 1268.22,758.584 1270.85,752.166 1273.48,744.73 1276.11,736.361 1278.74,727.15 1281.36,717.19 1283.99,706.583 1286.62,695.429 1289.25,683.833 1291.88,671.901 1294.5,659.738 1297.13,647.448 1299.76,635.135 1302.39,622.898 1305.02,610.835 1307.65,599.038 1310.27,587.594 1312.9,576.585 1315.53,566.089 1318.16,556.172 1320.79,546.898 1323.42,538.322 1326.04,530.49 1328.67,523.442 1331.3,517.208 1333.93,511.813 1336.56,507.271 1339.18,503.589 1341.81,500.768 1344.44,498.8 1347.07,497.67 1349.7,497.357 1352.33,497.833 1354.95,499.065 1357.58,501.014 1360.21,503.638 1362.84,506.887 1365.47,510.712 1368.09,515.058 1370.72,519.868 1373.35,525.084 1375.98,530.647 1378.61,536.495 1381.24,542.57 1383.86,548.811 1386.49,555.16 1389.12,561.559 1391.75,567.954 1394.38,574.29 1397.01,580.52 1399.63,586.595 1402.26,592.471 1404.89,598.11 1407.52,603.475 1410.15,608.534 1412.77,613.26 1415.4,617.628 1418.03,621.619 1420.66,625.218 1423.29,628.414 1425.92,631.2 1428.54,633.573 1431.17,635.534 1433.8,637.086 1436.43,638.238 1439.06,639.001 1441.68,639.388 1444.31,639.415 1446.94,639.102 1449.57,638.468 1452.2,637.537 1454.83,636.333 1457.45,634.88 1460.08,633.204 1462.71,631.333 1465.34,629.292 1467.97,627.11 1470.6,624.812 1473.22,622.425 1475.85,619.975 1478.48,617.485 1481.11,614.98 1483.74,612.483 1486.36,610.014 1488.99,607.593 1491.62,605.237 1494.25,602.964 1496.88,600.788 1499.51,598.722 1502.13,596.777 1504.76,594.963 1507.39,593.287 1510.02,591.754 1512.65,590.37 1515.27,589.137 1517.9,588.055 1520.53,587.125 1523.16,586.345 1525.79,585.712 1528.42,585.222 1531.04,584.869 1533.67,584.648 1536.3,584.551 1538.93,584.571 1541.56,584.7 1544.19,584.929 1546.81,585.25 1549.44,585.653 1552.07,586.128 1554.7,586.667 1557.33,587.26 1559.95,587.897 1562.58,588.571 1565.21,589.272 1567.84,589.992 1570.47,590.723 1573.1,591.458 1575.72,592.19 1578.35,592.912 1580.98,593.619 1583.61,594.305 1586.24,594.966 1588.86,595.597 1591.49,596.196 1594.12,596.758 1596.75,597.282 1599.38,597.766 1602.01,598.209 1604.63,598.609 1607.26,598.967 1609.89,599.282 1612.52,599.556 1615.15,599.787 1617.78,599.979 1620.4,600.133 1623.03,600.249 1625.66,600.331 1628.29,600.379 1630.92,600.397 1633.54,600.387 1636.17,600.351 1638.8,600.292 1641.43,600.213 1644.06,600.115 1646.69,600.001 1649.31,599.874 1651.94,599.736 1654.57,599.589 1657.2,599.436 1659.83,599.278 1662.46,599.118 1665.08,598.957 1667.71,598.796 1670.34,598.638 1672.97,598.484 1675.6,598.334 1678.22,598.19 1680.85,598.052 1683.48,597.922 1686.11,597.8 1688.74,597.686 1691.37,597.582 1693.99,597.486 1696.62,597.399 1699.25,597.321 1701.88,597.252 1704.51,597.192 1707.13,597.14 1709.76,597.097 1712.39,597.062 1715.02,597.034 1717.65,597.013 1720.28,596.999 1722.9,596.991 1725.53,596.988 1728.16,596.99 1730.79,596.997 1733.42,597.008 1736.05,597.022 1738.67,597.04 1741.3,597.06 1743.93,597.082 1746.56,597.105 1749.19,597.13 1751.81,597.156 1754.44,597.182 1757.07,597.208 1759.7,597.234 1762.33,597.26 1764.96,597.285 1767.58,597.31 1770.21,597.333 1772.84,597.356 1775.47,597.377 1778.1,597.397 1780.72,597.415 1783.35,597.432 1785.98,597.448 1788.61,597.462 1791.24,597.475 1793.87,597.486 1796.49,597.496 1799.12,597.504 1801.75,597.512 1804.38,597.518 1807.01,597.523 1809.64,597.526 1812.26,597.529 1814.89,597.531 1817.52,597.532 1820.15,597.532 1822.78,597.532 1825.4,597.531 1828.03,597.53 1830.66,597.528 1833.29,597.526 1835.92,597.523 1838.55,597.52 1841.17,597.517 1843.8,597.514 1846.43,597.511 1849.06,597.508 1851.69,597.505 1854.31,597.502 1856.94,597.498 1859.57,597.496 1862.2,597.493 1864.83,597.49 1867.46,597.487 1870.08,597.485 1872.71,597.483 1875.34,597.481 1877.97,597.479 1880.6,597.477 1883.23,597.475 1885.85,597.474 1888.48,597.473 1891.11,597.472 1893.74,597.471 1896.37,597.47 1898.99,597.47 1901.62,597.469 1904.25,597.469 1906.88,597.468 1909.51,597.468 1912.14,597.468 1914.76,597.468 1917.39,597.468 1920.02,597.468 1922.65,597.468 1925.28,597.468 1927.9,597.469 1930.53,597.469 1933.16,597.469 1935.79,597.469 1938.42,597.47 1941.05,597.47 1943.67,597.47 1946.3,597.471 1948.93,597.471 1951.56,597.471 1954.19,597.471 1956.82,597.472 1959.44,597.472 1962.07,597.472 1964.7,597.472 1967.33,597.472 1969.96,597.473 1972.58,597.473 1975.21,597.473 1977.84,597.473 1980.47,597.473 1983.1,597.473 1985.73,597.473 1988.35,597.473 1990.98,597.473 1993.61,597.474 1996.24,597.474 1998.87,597.474 2001.49,597.474 2004.12,597.474 2006.75,597.474 2009.38,597.474 2012.01,597.474 2014.64,597.474 2017.26,597.474 2019.89,597.474 2022.52,597.474 2025.15,597.474 2027.78,597.474 2030.41,597.474 2033.03,597.474 2035.66,597.474 2038.29,597.474 2040.92,597.473 2043.55,597.473 2046.17,597.473 2048.8,597.473 2051.43,597.473 2054.06,597.473 2056.69,597.473 2059.32,597.473 2061.94,597.473 2064.57,597.473 2067.2,597.473 2069.83,597.473 2072.46,597.473 2075.08,597.473 2077.71,597.473 2080.34,597.473 2082.97,597.473 2085.6,597.473 2088.23,597.473 2090.85,597.473 2093.48,597.473 2096.11,597.473 2098.74,597.473 2101.37,597.473 2104,597.473 2106.62,597.473 2109.25,597.473 2111.88,597.473 2114.51,597.473 2117.14,597.473 2119.76,597.473 2122.39,597.473 2125.02,597.473 2127.65,597.473 2130.28,597.473 2132.91,597.473 2135.53,597.473 2138.16,597.473 2140.79,597.473 2143.42,597.473 2146.05,597.473 2148.67,597.473 2151.3,597.473 2153.93,597.473 2156.56,597.473 2159.19,597.473 2161.82,597.473 2164.44,597.473 2167.07,597.473 2169.7,597.473 2172.33,597.473 2174.96,597.473 2177.59,597.473 2180.21,597.473 2182.84,597.473 2185.47,597.473 2188.1,597.473 2190.73,597.473 2193.35,597.473 2195.98,597.473 2198.61,597.473 2201.24,597.473 2203.87,597.473 2206.5,597.473 2209.12,597.473 2211.75,597.473 2214.38,597.473 2217.01,597.473 2219.64,597.473 2222.26,597.473 2224.89,597.473 2227.52,597.473 2230.15,597.473 2232.78,597.473 2235.41,597.473 2238.03,597.473 2240.66,597.473 2243.29,597.473 2245.92,597.473 2248.55,597.473 2251.18,597.473 2253.8,597.473 2256.43,597.473 2259.06,597.473 2261.69,597.473 2264.32,597.473 2266.94,597.473 2269.57,597.473 2272.2,597.473 2274.83,597.473 2277.46,597.473 2280.09,597.473 2282.71,597.473 2285.34,597.473 2287.97,597.473 2290.6,597.473 2293.23,597.473 "/>
<polyline clip-path="url(#clip492)" style="stroke:#e58b00; stroke-linecap:round; stroke-linejoin:round; stroke-width:8; stroke-opacity:1; fill:none" points="308.924,597.473 311.552,597.473 314.18,597.473 316.808,597.473 319.437,597.473 322.065,597.473 324.693,597.473 327.321,597.473 329.95,597.473 332.578,597.473 335.206,597.473 337.834,597.473 340.462,597.473 343.091,597.473 345.719,597.473 348.347,597.473 350.975,597.473 353.603,597.473 356.232,597.473 358.86,597.473 361.488,597.473 364.116,597.473 366.745,597.473 369.373,597.473 372.001,597.473 374.629,597.473 377.257,597.473 379.886,597.473 382.514,597.473 385.142,597.473 387.77,597.473 390.399,597.473 393.027,597.473 395.655,597.473 398.283,597.473 400.911,597.473 403.54,597.473 406.168,597.473 408.796,597.473 411.424,597.473 414.052,597.473 416.681,597.473 419.309,597.473 421.937,597.473 424.565,597.473 427.194,597.473 429.822,597.473 432.45,597.473 435.078,597.473 437.706,597.473 440.335,597.473 442.963,597.473 445.591,597.473 448.219,597.473 450.847,597.473 453.476,597.473 456.104,597.473 458.732,597.473 461.36,597.473 463.989,597.473 466.617,597.473 469.245,597.473 471.873,597.473 474.501,597.473 477.13,597.473 479.758,597.473 482.386,597.473 485.014,597.473 487.643,597.473 490.271,597.473 492.899,597.473 495.527,597.473 498.155,597.473 500.784,597.473 503.412,597.473 506.04,597.473 508.668,597.473 511.296,597.473 513.925,597.473 516.553,597.473 519.181,597.473 521.809,597.473 524.438,597.473 527.066,597.473 529.694,597.473 532.322,597.473 534.95,597.473 537.579,597.473 540.207,597.473 542.835,597.473 545.463,597.473 548.091,597.473 550.72,597.473 553.348,597.473 555.976,597.473 558.604,597.473 561.233,597.473 563.861,597.473 566.489,597.473 569.117,597.473 571.745,597.473 574.374,597.473 577.002,597.473 579.63,597.473 582.258,597.473 584.886,597.473 587.515,597.473 590.143,597.473 592.771,597.473 595.399,597.473 598.028,597.473 600.656,597.473 603.284,597.473 605.912,597.473 608.54,597.473 611.169,597.473 613.797,597.473 616.425,597.473 619.053,597.473 621.682,597.473 624.31,597.473 626.938,597.473 629.566,597.473 632.194,597.473 634.823,597.473 637.451,597.473 640.079,597.473 642.707,597.473 645.335,597.473 647.964,597.473 650.592,597.473 653.22,597.473 655.848,597.473 658.477,597.473 661.105,597.473 663.733,597.473 666.361,597.473 668.989,597.473 671.618,597.473 674.246,597.473 676.874,597.473 679.502,597.473 682.13,597.473 684.759,597.473 687.387,597.473 690.015,597.473 692.643,597.473 695.272,597.473 697.9,597.473 700.528,597.473 703.156,597.473 705.784,597.473 708.413,597.473 711.041,597.473 713.669,597.473 716.297,597.473 718.926,597.473 721.554,597.473 724.182,597.473 726.81,597.473 729.438,597.473 732.067,597.473 734.695,597.473 737.323,597.473 739.951,597.473 742.579,597.473 745.208,597.473 747.836,597.473 750.464,597.473 753.092,597.473 755.721,597.473 758.349,597.473 760.977,597.473 763.605,597.473 766.233,597.473 768.862,597.473 771.49,597.473 774.118,597.473 776.746,597.473 779.374,597.473 782.003,597.473 784.631,597.473 787.259,597.473 789.887,597.473 792.516,597.473 795.144,597.473 797.772,597.473 800.4,597.473 803.028,597.473 805.657,597.473 808.285,597.473 810.913,597.473 813.541,597.473 816.169,597.473 818.798,597.473 821.426,597.473 824.054,597.473 826.682,597.473 829.311,597.473 831.939,597.473 834.567,597.473 837.195,597.473 839.823,597.473 842.452,597.474 845.08,597.474 847.708,597.474 850.336,597.474 852.965,597.475 855.593,597.475 858.221,597.475 860.849,597.476 863.477,597.476 866.106,597.476 868.734,597.477 871.362,597.477 873.99,597.477 876.618,597.478 879.247,597.478 881.875,597.479 884.503,597.479 887.131,597.479 889.76,597.48 892.388,597.48 895.016,597.48 897.644,597.481 900.272,597.481 902.901,597.481 905.529,597.481 908.157,597.481 910.785,597.481 913.413,597.48 916.042,597.48 918.67,597.479 921.298,597.479 923.926,597.478 926.555,597.477 929.183,597.476 931.811,597.474 934.439,597.473 937.067,597.471 939.696,597.469 942.324,597.467 944.952,597.465 947.58,597.462 950.209,597.46 952.837,597.457 955.465,597.454 958.093,597.451 960.721,597.447 963.35,597.444 965.978,597.441 968.606,597.437 971.234,597.434 973.862,597.43 976.491,597.427 979.119,597.423 981.747,597.42 984.375,597.417 987.004,597.415 989.632,597.412 992.26,597.411 994.888,597.409 997.516,597.408 1000.14,597.408 1002.77,597.409 1005.4,597.41 1008.03,597.412 1010.66,597.415 1013.29,597.419 1015.91,597.424 1018.54,597.43 1021.17,597.438 1023.8,597.446 1026.43,597.456 1029.05,597.467 1031.68,597.479 1034.31,597.493 1036.94,597.508 1039.57,597.524 1042.2,597.542 1044.82,597.56 1047.45,597.58 1050.08,597.6 1052.71,597.622 1055.34,597.644 1057.97,597.667 1060.59,597.69 1063.22,597.713 1065.85,597.736 1068.48,597.758 1071.11,597.78 1073.73,597.802 1076.36,597.822 1078.99,597.84 1081.62,597.856 1084.25,597.87 1086.88,597.882 1089.5,597.89 1092.13,597.895 1094.76,597.896 1097.39,597.893 1100.02,597.885 1102.65,597.873 1105.27,597.855 1107.9,597.832 1110.53,597.802 1113.16,597.767 1115.79,597.725 1118.41,597.677 1121.04,597.622 1123.67,597.561 1126.3,597.493 1128.93,597.418 1131.56,597.337 1134.18,597.25 1136.81,597.157 1139.44,597.059 1142.07,596.956 1144.7,596.849 1147.32,596.738 1149.95,596.624 1152.58,596.509 1155.21,596.393 1157.84,596.276 1160.47,596.162 1163.09,596.05 1165.72,595.942 1168.35,595.839 1170.98,595.744 1173.61,595.656 1176.24,595.579 1178.86,595.513 1181.49,595.461 1184.12,595.423 1186.75,595.401 1189.38,595.397 1192,595.412 1194.63,595.448 1197.26,595.506 1199.89,595.587 1202.52,595.693 1205.15,595.823 1207.77,595.979 1210.4,596.162 1213.03,596.37 1215.66,596.606 1218.29,596.867 1220.91,597.155 1223.54,597.467 1226.17,597.804 1228.8,598.162 1231.43,598.542 1234.06,598.94 1236.68,599.355 1239.31,599.783 1241.94,600.222 1244.57,600.667 1247.2,601.117 1249.83,601.565 1252.45,602.01 1255.08,602.444 1257.71,602.866 1260.34,603.268 1262.97,603.647 1265.59,603.997 1268.22,604.313 1270.85,604.589 1273.48,604.822 1276.11,605.004 1278.74,605.133 1281.36,605.202 1283.99,605.208 1286.62,605.146 1289.25,605.012 1291.88,604.804 1294.5,604.518 1297.13,604.151 1299.76,603.703 1302.39,603.173 1305.02,602.559 1307.65,601.863 1310.27,601.086 1312.9,600.229 1315.53,599.297 1318.16,598.292 1320.79,597.219 1323.42,596.085 1326.04,594.895 1328.67,593.657 1331.3,592.38 1333.93,591.072 1336.56,589.743 1339.18,588.404 1341.81,587.066 1344.44,585.741 1347.07,584.442 1349.7,583.181 1352.33,581.972 1354.95,580.827 1357.58,579.761 1360.21,578.787 1362.84,577.918 1365.47,577.167 1368.09,576.546 1370.72,576.069 1373.35,575.745 1375.98,575.586 1378.61,575.602 1381.24,575.799 1383.86,576.187 1386.49,576.77 1389.12,577.552 1391.75,578.537 1394.38,579.725 1397.01,581.116 1399.63,582.707 1402.26,584.494 1404.89,586.469 1407.52,588.625 1410.15,590.95 1412.77,593.434 1415.4,596.06 1418.03,598.814 1420.66,601.676 1423.29,604.628 1425.92,607.647 1428.54,610.712 1431.17,613.798 1433.8,616.879 1436.43,619.93 1439.06,622.923 1441.68,625.831 1444.31,628.626 1446.94,631.28 1449.57,633.766 1452.2,636.056 1454.83,638.125 1457.45,639.945 1460.08,641.494 1462.71,642.749 1465.34,643.688 1467.97,644.293 1470.6,644.547 1473.22,644.436 1475.85,643.949 1478.48,643.077 1481.11,641.815 1483.74,640.161 1486.36,638.116 1488.99,635.684 1491.62,632.873 1494.25,629.696 1496.88,626.167 1499.51,622.305 1502.13,618.131 1504.76,613.672 1507.39,608.956 1510.02,604.014 1512.65,598.88 1515.27,593.592 1517.9,588.189 1520.53,582.711 1523.16,577.203 1525.79,571.707 1528.42,566.27 1531.04,560.937 1533.67,555.755 1536.3,550.769 1538.93,546.024 1541.56,541.566 1544.19,537.436 1546.81,533.675 1549.44,530.323 1552.07,527.415 1554.7,524.984 1557.33,523.06 1559.95,521.669 1562.58,520.833 1565.21,520.569 1567.84,520.89 1570.47,521.805 1573.1,523.317 1575.72,525.424 1578.35,528.12 1580.98,531.394 1583.61,535.227 1586.24,539.6 1588.86,544.484 1591.49,549.848 1594.12,555.657 1596.75,561.87 1599.38,568.443 1602.01,575.329 1604.63,582.475 1607.26,589.829 1609.89,597.333 1612.52,604.93 1615.15,612.56 1617.78,620.162 1620.4,627.675 1623.03,635.038 1625.66,642.19 1628.29,649.073 1630.92,655.629 1633.54,661.803 1636.17,667.543 1638.8,672.799 1641.43,677.525 1644.06,681.681 1646.69,685.229 1649.31,688.137 1651.94,690.378 1654.57,691.931 1657.2,692.78 1659.83,692.915 1662.46,692.332 1665.08,691.032 1667.71,689.024 1670.34,686.321 1672.97,682.943 1675.6,678.915 1678.22,674.268 1680.85,669.038 1683.48,663.265 1686.11,656.996 1688.74,650.28 1691.37,643.17 1693.99,635.723 1696.62,627.999 1699.25,620.058 1701.88,611.964 1704.51,603.781 1707.13,595.575 1709.76,587.411 1712.39,579.353 1715.02,571.464 1717.65,563.807 1720.28,556.44 1722.9,549.421 1725.53,542.803 1728.16,536.636 1730.79,530.967 1733.42,525.836 1736.05,521.281 1738.67,517.333 1741.3,514.019 1743.93,511.36 1746.56,509.37 1749.19,508.06 1751.81,507.434 1754.44,507.49 1757.07,508.219 1759.7,509.611 1762.33,511.645 1764.96,514.298 1767.58,517.543 1770.21,521.345 1772.84,525.669 1775.47,530.472 1778.1,535.711 1780.72,541.337 1783.35,547.301 1785.98,553.551 1788.61,560.032 1791.24,566.69 1793.87,573.469 1796.49,580.313 1799.12,587.168 1801.75,593.978 1804.38,600.69 1807.01,607.253 1809.64,613.617 1812.26,619.736 1814.89,625.566 1817.52,631.066 1820.15,636.198 1822.78,640.931 1825.4,645.234 1828.03,649.082 1830.66,652.454 1833.29,655.334 1835.92,657.71 1838.55,659.575 1841.17,660.926 1843.8,661.763 1846.43,662.092 1849.06,661.924 1851.69,661.271 1854.31,660.152 1856.94,658.586 1859.57,656.598 1862.2,654.216 1864.83,651.468 1867.46,648.386 1870.08,645.004 1872.71,641.358 1875.34,637.485 1877.97,633.421 1880.6,629.205 1883.23,624.875 1885.85,620.469 1888.48,616.026 1891.11,611.581 1893.74,607.171 1896.37,602.83 1898.99,598.59 1901.62,594.483 1904.25,590.537 1906.88,586.779 1909.51,583.233 1912.14,579.92 1914.76,576.859 1917.39,574.066 1920.02,571.554 1922.65,569.334 1925.28,567.412 1927.9,565.795 1930.53,564.484 1933.16,563.478 1935.79,562.773 1938.42,562.366 1941.05,562.246 1943.67,562.405 1946.3,562.83 1948.93,563.507 1951.56,564.42 1954.19,565.554 1956.82,566.889 1959.44,568.406 1962.07,570.086 1964.7,571.909 1967.33,573.852 1969.96,575.895 1972.58,578.018 1975.21,580.198 1977.84,582.417 1980.47,584.653 1983.1,586.888 1985.73,589.103 1988.35,591.282 1990.98,593.407 1993.61,595.463 1996.24,597.438 1998.87,599.318 2001.49,601.092 2004.12,602.75 2006.75,604.285 2009.38,605.689 2012.01,606.958 2014.64,608.087 2017.26,609.073 2019.89,609.917 2022.52,610.617 2025.15,611.176 2027.78,611.595 2030.41,611.879 2033.03,612.032 2035.66,612.06 2038.29,611.968 2040.92,611.765 2043.55,611.457 2046.17,611.053 2048.8,610.562 2051.43,609.993 2054.06,609.353 2056.69,608.654 2059.32,607.904 2061.94,607.111 2064.57,606.287 2067.2,605.438 2069.83,604.574 2072.46,603.703 2075.08,602.833 2077.71,601.971 2080.34,601.124 2082.97,600.299 2085.6,599.501 2088.23,598.735 2090.85,598.006 2093.48,597.318 2096.11,596.674 2098.74,596.078 2101.37,595.531 2104,595.036 2106.62,594.592 2109.25,594.201 2111.88,593.863 2114.51,593.578 2117.14,593.343 2119.76,593.159 2122.39,593.024 2125.02,592.935 2127.65,592.89 2130.28,592.887 2132.91,592.923 2135.53,592.995 2138.16,593.1 2140.79,593.235 2143.42,593.396 2146.05,593.581 2148.67,593.786 2151.3,594.008 2153.93,594.244 2156.56,594.491 2159.19,594.745 2161.82,595.005 2164.44,595.267 2167.07,595.528 2169.7,595.787 2172.33,596.042 2174.96,596.29 2177.59,596.53 2180.21,596.76 2182.84,596.979 2185.47,597.185 2188.1,597.379 2190.73,597.558 2193.35,597.723 2195.98,597.872 2198.61,598.007 2201.24,598.126 2203.87,598.231 2206.5,598.32 2209.12,598.395 2211.75,598.455 2214.38,598.502 2217.01,598.536 2219.64,598.558 2222.26,598.568 2224.89,598.568 2227.52,598.558 2230.15,598.539 2232.78,598.512 2235.41,598.478 2238.03,598.438 2240.66,598.392 2243.29,598.342 2245.92,598.289 2248.55,598.232 2251.18,598.173 2253.8,598.114 2256.43,598.053 2259.06,597.992 2261.69,597.932 2264.32,597.873 2266.94,597.816 2269.57,597.76 2272.2,597.707 2274.83,597.656 2277.46,597.608 2280.09,597.563 2282.71,597.521 2285.34,597.483 2287.97,597.448 2290.6,597.417 2293.23,597.389 "/>
<path clip-path="url(#clip490)" d="M820.845 1423.18 L1781.31 1423.18 L1781.31 1319.5 L820.845 1319.5  Z" fill="#ffffff" fill-rule="evenodd" fill-opacity="1"/>
<polyline clip-path="url(#clip490)" style="stroke:#000000; stroke-linecap:round; stroke-linejoin:round; stroke-width:4; stroke-opacity:1; fill:none" points="820.845,1423.18 1781.31,1423.18 1781.31,1319.5 820.845,1319.5 820.845,1423.18 "/>
<polyline clip-path="url(#clip490)" style="stroke:#660066; stroke-linecap:round; stroke-linejoin:round; stroke-width:8; stroke-opacity:1; fill:none" points="844.216,1371.34 984.44,1371.34 "/>
<path clip-path="url(#clip490)" d="M1007.81 1368.44 Q1007.81 1367.33 1008.68 1366.54 Q1009.56 1365.74 1010.63 1365.74 Q1011.34 1365.74 1011.91 1366.07 Q1012.5 1366.36 1012.87 1366.95 Q1013.27 1367.52 1013.52 1368.12 Q1013.76 1368.68 1013.94 1369.55 Q1014.13 1370.41 1014.21 1370.93 Q1014.28 1371.43 1014.36 1372.19 Q1014.43 1372.93 1014.43 1373.08 Q1014.73 1372.02 1015.2 1370.96 Q1015.69 1369.89 1016.56 1368.61 Q1017.42 1367.33 1018.73 1366.51 Q1020.04 1365.7 1021.57 1365.7 Q1024.41 1365.7 1026.76 1368.83 Q1029.1 1371.97 1029.1 1378.49 L1029.1 1400.16 Q1029.1 1401.07 1028.71 1401.59 Q1028.34 1402.13 1027.99 1402.26 Q1027.65 1402.38 1027.23 1402.38 Q1026.51 1402.38 1025.89 1401.86 Q1025.3 1401.37 1025.3 1400.16 Q1025.3 1396.57 1026.56 1389.06 Q1027.85 1381.58 1027.85 1377.9 Q1027.85 1372.59 1025.3 1370.41 Q1024.04 1369.3 1022.63 1369.3 Q1021.37 1369.3 1020.36 1370.29 Q1019.35 1371.28 1018.66 1372.76 Q1017.96 1374.24 1017.32 1376.76 Q1016.7 1379.26 1016.31 1381.51 Q1015.94 1383.75 1015.49 1387.06 Q1015.25 1389.68 1013.42 1389.68 Q1012.75 1389.68 1012.16 1389.24 Q1011.59 1388.82 1011.59 1387.95 Q1011.59 1386.69 1012.38 1381.97 Q1013.17 1377.23 1013.17 1376.84 Q1013.17 1372.59 1012.63 1371.08 Q1012.11 1369.55 1011 1369.03 Q1010.43 1370.09 1009.47 1370.09 Q1008.75 1370.09 1008.28 1369.62 Q1007.81 1369.15 1007.81 1368.44 Z" fill="#000000" fill-rule="nonzero" fill-opacity="1" /><path clip-path="url(#clip490)" d="M1035.77 1359.74 L1035.77 1358.16 Q1041.85 1358.16 1044.99 1354.92 Q1045.85 1354.92 1046 1355.12 Q1046.15 1355.32 1046.15 1356.23 L1046.15 1384.62 Q1046.15 1386.12 1046.89 1386.59 Q1047.63 1387.06 1050.87 1387.06 L1052.47 1387.06 L1052.47 1388.62 Q1050.7 1388.47 1044.27 1388.47 Q1037.85 1388.47 1036.1 1388.62 L1036.1 1387.06 L1037.7 1387.06 Q1040.89 1387.06 1041.65 1386.62 Q1042.42 1386.15 1042.42 1384.62 L1042.42 1358.41 Q1039.78 1359.74 1035.77 1359.74 Z" fill="#000000" fill-rule="nonzero" fill-opacity="1" /><polyline clip-path="url(#clip490)" style="stroke:#0000e5; stroke-linecap:round; stroke-linejoin:round; stroke-width:8; stroke-opacity:1; fill:none" points="1078.49,1371.34 1218.71,1371.34 "/>
<path clip-path="url(#clip490)" d="M1242.08 1368.44 Q1242.08 1367.33 1242.95 1366.54 Q1243.84 1365.74 1244.9 1365.74 Q1245.62 1365.74 1246.18 1366.07 Q1246.78 1366.36 1247.15 1366.95 Q1247.54 1367.52 1247.79 1368.12 Q1248.04 1368.68 1248.21 1369.55 Q1248.41 1370.41 1248.48 1370.93 Q1248.56 1371.43 1248.63 1372.19 Q1248.7 1372.93 1248.7 1373.08 Q1249 1372.02 1249.47 1370.96 Q1249.96 1369.89 1250.83 1368.61 Q1251.69 1367.33 1253 1366.51 Q1254.31 1365.7 1255.84 1365.7 Q1258.68 1365.7 1261.03 1368.83 Q1263.38 1371.97 1263.38 1378.49 L1263.38 1400.16 Q1263.38 1401.07 1262.98 1401.59 Q1262.61 1402.13 1262.27 1402.26 Q1261.92 1402.38 1261.5 1402.38 Q1260.78 1402.38 1260.17 1401.86 Q1259.57 1401.37 1259.57 1400.16 Q1259.57 1396.57 1260.83 1389.06 Q1262.12 1381.58 1262.12 1377.9 Q1262.12 1372.59 1259.57 1370.41 Q1258.31 1369.3 1256.91 1369.3 Q1255.65 1369.3 1254.63 1370.29 Q1253.62 1371.28 1252.93 1372.76 Q1252.24 1374.24 1251.59 1376.76 Q1250.98 1379.26 1250.58 1381.51 Q1250.21 1383.75 1249.77 1387.06 Q1249.52 1389.68 1247.69 1389.68 Q1247.02 1389.68 1246.43 1389.24 Q1245.86 1388.82 1245.86 1387.95 Q1245.86 1386.69 1246.65 1381.97 Q1247.44 1377.23 1247.44 1376.84 Q1247.44 1372.59 1246.9 1371.08 Q1246.38 1369.55 1245.27 1369.03 Q1244.7 1370.09 1243.74 1370.09 Q1243.02 1370.09 1242.55 1369.62 Q1242.08 1369.15 1242.08 1368.44 Z" fill="#000000" fill-rule="nonzero" fill-opacity="1" /><path clip-path="url(#clip490)" d="M1268.07 1388.62 Q1268.07 1387.71 1268.15 1387.43 Q1268.24 1387.16 1268.64 1386.74 L1278.35 1375.92 Q1283.66 1369.94 1283.66 1364.73 Q1283.66 1361.35 1281.88 1358.93 Q1280.13 1356.51 1276.89 1356.51 Q1274.67 1356.51 1272.79 1357.86 Q1270.91 1359.22 1270.05 1361.64 Q1270.2 1361.59 1270.71 1361.59 Q1271.97 1361.59 1272.67 1362.38 Q1273.38 1363.18 1273.38 1364.24 Q1273.38 1365.6 1272.49 1366.26 Q1271.63 1366.91 1270.76 1366.91 Q1270.42 1366.91 1269.95 1366.83 Q1269.5 1366.76 1268.79 1366.07 Q1268.07 1365.35 1268.07 1364.09 Q1268.07 1360.56 1270.74 1357.74 Q1273.43 1354.92 1277.53 1354.92 Q1282.18 1354.92 1285.22 1357.69 Q1288.28 1360.43 1288.28 1364.73 Q1288.28 1366.24 1287.81 1367.62 Q1287.36 1368.98 1286.75 1370.04 Q1286.15 1371.11 1284.52 1372.81 Q1282.89 1374.51 1281.58 1375.72 Q1280.27 1376.94 1277.33 1379.5 L1271.97 1384.72 L1281.09 1384.72 Q1285.54 1384.72 1285.88 1384.32 Q1286.38 1383.61 1286.99 1379.83 L1288.28 1379.83 L1286.85 1388.62 L1268.07 1388.62 Z" fill="#000000" fill-rule="nonzero" fill-opacity="1" /><polyline clip-path="url(#clip490)" style="stroke:#006600; stroke-linecap:round; stroke-linejoin:round; stroke-width:8; stroke-opacity:1; fill:none" points="1312.76,1371.34 1452.98,1371.34 "/>
<path clip-path="url(#clip490)" d="M1476.36 1368.44 Q1476.36 1367.33 1477.22 1366.54 Q1478.11 1365.74 1479.17 1365.74 Q1479.89 1365.74 1480.46 1366.07 Q1481.05 1366.36 1481.42 1366.95 Q1481.81 1367.52 1482.06 1368.12 Q1482.31 1368.68 1482.48 1369.55 Q1482.68 1370.41 1482.75 1370.93 Q1482.83 1371.43 1482.9 1372.19 Q1482.98 1372.93 1482.98 1373.08 Q1483.27 1372.02 1483.74 1370.96 Q1484.24 1369.89 1485.1 1368.61 Q1485.97 1367.33 1487.27 1366.51 Q1488.58 1365.7 1490.12 1365.7 Q1492.96 1365.7 1495.3 1368.83 Q1497.65 1371.97 1497.65 1378.49 L1497.65 1400.16 Q1497.65 1401.07 1497.25 1401.59 Q1496.88 1402.13 1496.54 1402.26 Q1496.19 1402.38 1495.77 1402.38 Q1495.06 1402.38 1494.44 1401.86 Q1493.85 1401.37 1493.85 1400.16 Q1493.85 1396.57 1495.11 1389.06 Q1496.39 1381.58 1496.39 1377.9 Q1496.39 1372.59 1493.85 1370.41 Q1492.59 1369.3 1491.18 1369.3 Q1489.92 1369.3 1488.9 1370.29 Q1487.89 1371.28 1487.2 1372.76 Q1486.51 1374.24 1485.87 1376.76 Q1485.25 1379.26 1484.85 1381.51 Q1484.48 1383.75 1484.04 1387.06 Q1483.79 1389.68 1481.96 1389.68 Q1481.3 1389.68 1480.7 1389.24 Q1480.14 1388.82 1480.14 1387.95 Q1480.14 1386.69 1480.93 1381.97 Q1481.72 1377.23 1481.72 1376.84 Q1481.72 1372.59 1481.17 1371.08 Q1480.65 1369.55 1479.54 1369.03 Q1478.97 1370.09 1478.01 1370.09 Q1477.29 1370.09 1476.82 1369.62 Q1476.36 1369.15 1476.36 1368.44 Z" fill="#000000" fill-rule="nonzero" fill-opacity="1" /><path clip-path="url(#clip490)" d="M1501.95 1381.8 Q1501.95 1380.29 1502.81 1379.58 Q1503.68 1378.86 1504.79 1378.86 Q1505.95 1378.86 1506.77 1379.63 Q1507.61 1380.37 1507.61 1381.68 Q1507.61 1383.09 1506.62 1383.88 Q1505.65 1384.67 1504.27 1384.47 Q1505.48 1386.5 1507.7 1387.41 Q1509.95 1388.32 1512.03 1388.32 Q1514.2 1388.32 1515.95 1386.45 Q1517.73 1384.57 1517.73 1379.97 Q1517.73 1376.07 1516.2 1373.82 Q1514.7 1371.57 1511.71 1371.57 L1509.48 1371.57 Q1508.72 1371.57 1508.49 1371.5 Q1508.27 1371.43 1508.27 1371.01 Q1508.27 1370.51 1509.04 1370.41 Q1509.8 1370.41 1511.01 1370.27 Q1513.95 1370.17 1515.51 1367.62 Q1516.92 1365.25 1516.92 1361.87 Q1516.92 1358.78 1515.44 1357.49 Q1513.98 1356.18 1512.08 1356.18 Q1510.3 1356.18 1508.35 1356.93 Q1506.39 1357.67 1505.33 1359.32 Q1508.47 1359.32 1508.47 1361.87 Q1508.47 1362.98 1507.75 1363.72 Q1507.06 1364.44 1505.9 1364.44 Q1504.79 1364.44 1504.05 1363.74 Q1503.31 1363.03 1503.31 1361.82 Q1503.31 1358.93 1505.88 1356.93 Q1508.47 1354.92 1512.27 1354.92 Q1516.03 1354.92 1518.8 1356.9 Q1521.59 1358.88 1521.59 1361.92 Q1521.59 1364.9 1519.61 1367.35 Q1517.63 1369.8 1514.5 1370.81 Q1518.35 1371.57 1520.65 1374.19 Q1522.95 1376.79 1522.95 1379.97 Q1522.95 1383.93 1519.83 1386.84 Q1516.72 1389.73 1512.18 1389.73 Q1507.98 1389.73 1504.96 1387.46 Q1501.95 1385.19 1501.95 1381.8 Z" fill="#000000" fill-rule="nonzero" fill-opacity="1" /><polyline clip-path="url(#clip490)" style="stroke:#e58b00; stroke-linecap:round; stroke-linejoin:round; stroke-width:8; stroke-opacity:1; fill:none" points="1547.03,1371.34 1687.26,1371.34 "/>
<path clip-path="url(#clip490)" d="M1710.63 1368.44 Q1710.63 1367.33 1711.49 1366.54 Q1712.38 1365.74 1713.44 1365.74 Q1714.16 1365.74 1714.73 1366.07 Q1715.32 1366.36 1715.69 1366.95 Q1716.09 1367.52 1716.33 1368.12 Q1716.58 1368.68 1716.75 1369.55 Q1716.95 1370.41 1717.03 1370.93 Q1717.1 1371.43 1717.17 1372.19 Q1717.25 1372.93 1717.25 1373.08 Q1717.54 1372.02 1718.01 1370.96 Q1718.51 1369.89 1719.37 1368.61 Q1720.24 1367.33 1721.55 1366.51 Q1722.86 1365.7 1724.39 1365.7 Q1727.23 1365.7 1729.58 1368.83 Q1731.92 1371.97 1731.92 1378.49 L1731.92 1400.16 Q1731.92 1401.07 1731.53 1401.59 Q1731.16 1402.13 1730.81 1402.26 Q1730.46 1402.38 1730.04 1402.38 Q1729.33 1402.38 1728.71 1401.86 Q1728.12 1401.37 1728.12 1400.16 Q1728.12 1396.57 1729.38 1389.06 Q1730.66 1381.58 1730.66 1377.9 Q1730.66 1372.59 1728.12 1370.41 Q1726.86 1369.3 1725.45 1369.3 Q1724.19 1369.3 1723.18 1370.29 Q1722.16 1371.28 1721.47 1372.76 Q1720.78 1374.24 1720.14 1376.76 Q1719.52 1379.26 1719.13 1381.51 Q1718.76 1383.75 1718.31 1387.06 Q1718.06 1389.68 1716.24 1389.68 Q1715.57 1389.68 1714.98 1389.24 Q1714.41 1388.82 1714.41 1387.95 Q1714.41 1386.69 1715.2 1381.97 Q1715.99 1377.23 1715.99 1376.84 Q1715.99 1372.59 1715.44 1371.08 Q1714.93 1369.55 1713.81 1369.03 Q1713.25 1370.09 1712.28 1370.09 Q1711.57 1370.09 1711.1 1369.62 Q1710.63 1369.15 1710.63 1368.44 Z" fill="#000000" fill-rule="nonzero" fill-opacity="1" /><path clip-path="url(#clip490)" d="M1735.5 1380.27 L1735.5 1378.71 L1751.04 1354.97 Q1751.44 1354.36 1752.06 1354.38 Q1752.62 1354.38 1752.75 1354.6 Q1752.87 1354.83 1752.87 1355.69 L1752.87 1378.71 L1757.93 1378.71 L1757.93 1380.27 L1752.87 1380.27 L1752.87 1384.67 Q1752.87 1386.12 1753.46 1386.59 Q1754.08 1387.06 1756.7 1387.06 L1757.76 1387.06 L1757.76 1388.62 Q1755.69 1388.47 1750.89 1388.47 Q1746.13 1388.47 1744.05 1388.62 L1744.05 1387.06 L1745.11 1387.06 Q1747.73 1387.06 1748.35 1386.62 Q1748.97 1386.15 1748.97 1384.67 L1748.97 1380.27 L1735.5 1380.27 M1736.94 1378.71 L1749.26 1378.71 L1749.26 1359.84 L1736.94 1378.71 Z" fill="#000000" fill-rule="nonzero" fill-opacity="1" /></svg>
