<?xml version="1.0" encoding="utf-8"?>
<svg xmlns="http://www.w3.org/2000/svg" xmlns:xlink="http://www.w3.org/1999/xlink" width="600" height="400" viewBox="0 0 2400 1600">
<defs>
  <clipPath id="clip540">
    <rect x="0" y="0" width="2400" height="1600"/>
  </clipPath>
</defs>
<path clip-path="url(#clip540)" d="M0 1600 L2400 1600 L2400 0 L0 0  Z" fill="#ffffff" fill-rule="evenodd" fill-opacity="1"/>
<defs>
  <clipPath id="clip541">
    <rect x="480" y="0" width="1681" height="1600"/>
  </clipPath>
</defs>
<path clip-path="url(#clip540)" d="M249.395 1423.18 L2352.76 1423.18 L2352.76 47.2441 L249.395 47.2441  Z" fill="#ffffff" fill-rule="evenodd" fill-opacity="1"/>
<defs>
  <clipPath id="clip542">
    <rect x="249" y="47" width="2104" height="1377"/>
  </clipPath>
</defs>
<polyline clip-path="url(#clip542)" style="stroke:#000000; stroke-linecap:round; stroke-linejoin:round; stroke-width:2; stroke-opacity:0.1; fill:none" points="343.091,1423.18 343.091,47.2441 "/>
<polyline clip-path="url(#clip542)" style="stroke:#000000; stroke-linecap:round; stroke-linejoin:round; stroke-width:2; stroke-opacity:0.1; fill:none" points="763.605,1423.18 763.605,47.2441 "/>
<polyline clip-path="url(#clip542)" style="stroke:#000000; stroke-linecap:round; stroke-linejoin:round; stroke-width:2; stroke-opacity:0.1; fill:none" points="1184.12,1423.18 1184.12,47.2441 "/>
<polyline clip-path="url(#clip542)" style="stroke:#000000; stroke-linecap:round; stroke-linejoin:round; stroke-width:2; stroke-opacity:0.1; fill:none" points="1604.63,1423.18 1604.63,47.2441 "/>
<polyline clip-path="url(#clip542)" style="stroke:#000000; stroke-linecap:round; stroke-linejoin:round; stroke-width:2; stroke-opacity:0.1; fill:none" points="2025.15,1423.18 2025.15,47.2441 "/>
<polyline clip-path="url(#clip540)" style="stroke:#000000; stroke-linecap:round; stroke-linejoin:round; stroke-width:4; stroke-opacity:1; fill:none" points="249.395,1423.18 2352.76,1423.18 "/>
<polyline clip-path="url(#clip540)" style="stroke:#000000; stroke-linecap:round; stroke-linejoin:round; stroke-width:4; stroke-opacity:1; fill:none" points="343.091,1423.18 343.091,1404.28 "/>
<polyline clip-path="url(#clip540)" style="stroke:#000000; stroke-linecap:round; stroke-linejoin:round; stroke-width:4; stroke-opacity:1; fill:none" points="763.605,1423.18 763.605,1404.28 "/>
<polyline clip-path="url(#clip540)" style="stroke:#000000; stroke-linecap:round; stroke-linejoin:round; stroke-width:4; stroke-opacity:1; fill:none" points="1184.12,1423.18 1184.12,1404.28 "/>
<polyline clip-path="url(#clip540)" style="stroke:#000000; stroke-linecap:round; stroke-linejoin:round; stroke-width:4; stroke-opacity:1; fill:none" points="1604.63,1423.18 1604.63,1404.28 "/>
<polyline clip-path="url(#clip540)" style="stroke:#000000; stroke-linecap:round; stroke-linejoin:round; stroke-width:4; stroke-opacity:1; fill:none" points="2025.15,1423.18 2025.15,1404.28 "/>
<path clip-path="url(#clip540)" d="M333.95 1472.22 Q334.247 1472.51 334.247 1472.93 Q334.247 1473.35 333.95 1473.65 Q333.654 1473.94 333.234 1473.94 L301.564 1473.94 Q301.144 1473.94 300.848 1473.65 Q300.551 1473.35 300.551 1472.93 Q300.551 1472.51 300.848 1472.22 Q301.144 1471.92 301.564 1471.92 L333.234 1471.92 Q333.654 1471.92 333.95 1472.22 Z" fill="#000000" fill-rule="nonzero" fill-opacity="1" /><path clip-path="url(#clip540)" d="M339.583 1485.58 Q339.583 1484.67 339.657 1484.39 Q339.756 1484.12 340.151 1483.7 L349.859 1472.88 Q355.171 1466.9 355.171 1461.69 Q355.171 1458.31 353.392 1455.89 Q351.638 1453.47 348.402 1453.47 Q346.179 1453.47 344.301 1454.82 Q342.424 1456.18 341.559 1458.6 Q341.707 1458.55 342.226 1458.55 Q343.486 1458.55 344.178 1459.34 Q344.894 1460.14 344.894 1461.2 Q344.894 1462.56 344.005 1463.22 Q343.14 1463.87 342.275 1463.87 Q341.93 1463.87 341.46 1463.79 Q341.016 1463.72 340.299 1463.03 Q339.583 1462.31 339.583 1461.05 Q339.583 1457.52 342.251 1454.7 Q344.943 1451.88 349.044 1451.88 Q353.688 1451.88 356.727 1454.65 Q359.79 1457.39 359.79 1461.69 Q359.79 1463.2 359.321 1464.58 Q358.876 1465.94 358.258 1467 Q357.666 1468.07 356.035 1469.77 Q354.405 1471.47 353.095 1472.68 Q351.786 1473.9 348.847 1476.46 L343.486 1481.68 L352.601 1481.68 Q357.048 1481.68 357.394 1481.28 Q357.888 1480.57 358.506 1476.79 L359.79 1476.79 L358.357 1485.58 L339.583 1485.58 Z" fill="#000000" fill-rule="nonzero" fill-opacity="1" /><path clip-path="url(#clip540)" d="M364.336 1469.4 Q364.336 1461.96 366.213 1457.91 Q368.832 1451.88 375.007 1451.88 Q376.317 1451.88 377.675 1452.26 Q379.059 1452.6 380.788 1453.96 Q382.542 1455.32 383.604 1457.54 Q385.63 1461.84 385.63 1469.4 Q385.63 1476.79 383.752 1480.81 Q381.01 1486.69 374.958 1486.69 Q372.685 1486.69 370.363 1485.53 Q368.066 1484.37 366.608 1481.58 Q364.336 1477.4 364.336 1469.4 M368.535 1468.78 Q368.535 1476.41 369.079 1479.45 Q369.696 1482.74 371.376 1484.17 Q373.081 1485.58 374.958 1485.58 Q376.984 1485.58 378.663 1484.07 Q380.368 1482.54 380.887 1479.26 Q381.455 1476.02 381.43 1468.78 Q381.43 1461.74 380.936 1458.92 Q380.269 1455.64 378.491 1454.33 Q376.737 1453 374.958 1453 Q374.291 1453 373.575 1453.19 Q372.883 1453.39 371.87 1453.96 Q370.857 1454.53 370.067 1455.94 Q369.301 1457.34 368.93 1459.47 Q368.535 1462.21 368.535 1468.78 Z" fill="#000000" fill-rule="nonzero" fill-opacity="1" /><path clip-path="url(#clip540)" d="M752.958 1469.4 Q752.958 1461.96 754.835 1457.91 Q757.454 1451.88 763.63 1451.88 Q764.939 1451.88 766.298 1452.26 Q767.681 1452.6 769.41 1453.96 Q771.164 1455.32 772.227 1457.54 Q774.252 1461.84 774.252 1469.4 Q774.252 1476.79 772.375 1480.81 Q769.633 1486.69 763.58 1486.69 Q761.308 1486.69 758.986 1485.53 Q756.688 1484.37 755.231 1481.58 Q752.958 1477.4 752.958 1469.4 M757.158 1468.78 Q757.158 1476.41 757.701 1479.45 Q758.319 1482.74 759.998 1484.17 Q761.703 1485.58 763.58 1485.58 Q765.606 1485.58 767.286 1484.07 Q768.991 1482.54 769.509 1479.26 Q770.077 1476.02 770.053 1468.78 Q770.053 1461.74 769.559 1458.92 Q768.892 1455.64 767.113 1454.33 Q765.359 1453 763.58 1453 Q762.913 1453 762.197 1453.19 Q761.505 1453.39 760.493 1453.96 Q759.48 1454.53 758.689 1455.94 Q757.923 1457.34 757.553 1459.47 Q757.158 1462.21 757.158 1468.78 Z" fill="#000000" fill-rule="nonzero" fill-opacity="1" /><path clip-path="url(#clip540)" d="M1161.1 1485.58 Q1161.1 1484.67 1161.17 1484.39 Q1161.27 1484.12 1161.66 1483.7 L1171.37 1472.88 Q1176.68 1466.9 1176.68 1461.69 Q1176.68 1458.31 1174.91 1455.89 Q1173.15 1453.47 1169.92 1453.47 Q1167.69 1453.47 1165.81 1454.82 Q1163.94 1456.18 1163.07 1458.6 Q1163.22 1458.55 1163.74 1458.55 Q1165 1458.55 1165.69 1459.34 Q1166.41 1460.14 1166.41 1461.2 Q1166.41 1462.56 1165.52 1463.22 Q1164.65 1463.87 1163.79 1463.87 Q1163.44 1463.87 1162.97 1463.79 Q1162.53 1463.72 1161.81 1463.03 Q1161.1 1462.31 1161.1 1461.05 Q1161.1 1457.52 1163.76 1454.7 Q1166.46 1451.88 1170.56 1451.88 Q1175.2 1451.88 1178.24 1454.65 Q1181.3 1457.39 1181.3 1461.69 Q1181.3 1463.2 1180.83 1464.58 Q1180.39 1465.94 1179.77 1467 Q1179.18 1468.07 1177.55 1469.77 Q1175.92 1471.47 1174.61 1472.68 Q1173.3 1473.9 1170.36 1476.46 L1165 1481.68 L1174.11 1481.68 Q1178.56 1481.68 1178.91 1481.28 Q1179.4 1480.57 1180.02 1476.79 L1181.3 1476.79 L1179.87 1485.58 L1161.1 1485.58 Z" fill="#000000" fill-rule="nonzero" fill-opacity="1" /><path clip-path="url(#clip540)" d="M1185.85 1469.4 Q1185.85 1461.96 1187.73 1457.91 Q1190.34 1451.88 1196.52 1451.88 Q1197.83 1451.88 1199.19 1452.26 Q1200.57 1452.6 1202.3 1453.96 Q1204.06 1455.32 1205.12 1457.54 Q1207.14 1461.84 1207.14 1469.4 Q1207.14 1476.79 1205.27 1480.81 Q1202.52 1486.69 1196.47 1486.69 Q1194.2 1486.69 1191.88 1485.53 Q1189.58 1484.37 1188.12 1481.58 Q1185.85 1477.4 1185.85 1469.4 M1190.05 1468.78 Q1190.05 1476.41 1190.59 1479.45 Q1191.21 1482.74 1192.89 1484.17 Q1194.59 1485.58 1196.47 1485.58 Q1198.5 1485.58 1200.18 1484.07 Q1201.88 1482.54 1202.4 1479.26 Q1202.97 1476.02 1202.94 1468.78 Q1202.94 1461.74 1202.45 1458.92 Q1201.78 1455.64 1200 1454.33 Q1198.25 1453 1196.47 1453 Q1195.8 1453 1195.09 1453.19 Q1194.4 1453.39 1193.38 1453.96 Q1192.37 1454.53 1191.58 1455.94 Q1190.81 1457.34 1190.44 1459.47 Q1190.05 1462.21 1190.05 1468.78 Z" fill="#000000" fill-rule="nonzero" fill-opacity="1" /><path clip-path="url(#clip540)" d="M1581.05 1477.23 L1581.05 1475.67 L1596.59 1451.93 Q1596.99 1451.32 1597.61 1451.34 Q1598.17 1451.34 1598.3 1451.56 Q1598.42 1451.79 1598.42 1452.65 L1598.42 1475.67 L1603.49 1475.67 L1603.49 1477.23 L1598.42 1477.23 L1598.42 1481.63 Q1598.42 1483.08 1599.01 1483.55 Q1599.63 1484.02 1602.25 1484.02 L1603.31 1484.02 L1603.31 1485.58 Q1601.24 1485.43 1596.45 1485.43 Q1591.68 1485.43 1589.6 1485.58 L1589.6 1484.02 L1590.66 1484.02 Q1593.28 1484.02 1593.9 1483.58 Q1594.52 1483.11 1594.52 1481.63 L1594.52 1477.23 L1581.05 1477.23 M1582.49 1475.67 L1594.81 1475.67 L1594.81 1456.8 L1582.49 1475.67 Z" fill="#000000" fill-rule="nonzero" fill-opacity="1" /><path clip-path="url(#clip540)" d="M1606.92 1469.4 Q1606.92 1461.96 1608.8 1457.91 Q1611.42 1451.88 1617.59 1451.88 Q1618.9 1451.88 1620.26 1452.26 Q1621.64 1452.6 1623.37 1453.96 Q1625.13 1455.32 1626.19 1457.54 Q1628.21 1461.84 1628.21 1469.4 Q1628.21 1476.79 1626.34 1480.81 Q1623.59 1486.69 1617.54 1486.69 Q1615.27 1486.69 1612.95 1485.53 Q1610.65 1484.37 1609.19 1481.58 Q1606.92 1477.4 1606.92 1469.4 M1611.12 1468.78 Q1611.12 1476.41 1611.66 1479.45 Q1612.28 1482.74 1613.96 1484.17 Q1615.66 1485.58 1617.54 1485.58 Q1619.57 1485.58 1621.25 1484.07 Q1622.95 1482.54 1623.47 1479.26 Q1624.04 1476.02 1624.01 1468.78 Q1624.01 1461.74 1623.52 1458.92 Q1622.85 1455.64 1621.07 1454.33 Q1619.32 1453 1617.54 1453 Q1616.87 1453 1616.16 1453.19 Q1615.47 1453.39 1614.45 1453.96 Q1613.44 1454.53 1612.65 1455.94 Q1611.88 1457.34 1611.51 1459.47 Q1611.12 1462.21 1611.12 1468.78 Z" fill="#000000" fill-rule="nonzero" fill-opacity="1" /><path clip-path="url(#clip540)" d="M2001.93 1469.6 Q2001.93 1461.64 2005.98 1456.78 Q2010.03 1451.88 2015.24 1451.88 Q2018.28 1451.88 2019.96 1453.44 Q2021.67 1454.97 2021.67 1457.34 Q2021.67 1458.65 2020.9 1459.22 Q2020.13 1459.79 2019.34 1459.79 Q2018.43 1459.79 2017.71 1459.17 Q2017 1458.55 2017 1457.44 Q2017 1455.17 2019.79 1455.17 Q2018.48 1453.14 2015.34 1453.14 Q2014.38 1453.14 2013.39 1453.44 Q2012.4 1453.71 2011.12 1454.65 Q2009.83 1455.59 2008.84 1457.07 Q2007.86 1458.55 2007.16 1461.35 Q2006.47 1464.14 2006.47 1467.77 L2006.47 1468.98 Q2008.55 1463.96 2012.8 1463.99 Q2017.05 1463.99 2019.99 1467.23 Q2022.93 1470.46 2022.93 1475.25 Q2022.93 1480.17 2019.86 1483.43 Q2016.8 1486.69 2012.5 1486.69 Q2010.57 1486.69 2008.82 1485.88 Q2007.09 1485.09 2005.46 1483.26 Q2003.85 1481.43 2002.89 1477.92 Q2001.93 1474.41 2001.93 1469.6 M2006.57 1474.14 Q2006.57 1479.11 2007.49 1481.48 Q2007.63 1481.87 2007.96 1482.42 Q2008.3 1482.96 2008.87 1483.68 Q2009.46 1484.37 2010.43 1484.84 Q2011.39 1485.28 2012.5 1485.28 Q2015.89 1485.28 2017.52 1482 Q2018.38 1480.17 2018.38 1475.2 Q2018.38 1470.14 2017.47 1468.29 Q2015.91 1465.15 2012.75 1465.15 Q2010.62 1465.15 2009.14 1466.61 Q2007.68 1468.07 2007.12 1470.02 Q2006.57 1471.97 2006.57 1474.14 Z" fill="#000000" fill-rule="nonzero" fill-opacity="1" /><path clip-path="url(#clip540)" d="M2027.08 1469.4 Q2027.08 1461.96 2028.95 1457.91 Q2031.57 1451.88 2037.75 1451.88 Q2039.06 1451.88 2040.42 1452.26 Q2041.8 1452.6 2043.53 1453.96 Q2045.28 1455.32 2046.34 1457.54 Q2048.37 1461.84 2048.37 1469.4 Q2048.37 1476.79 2046.49 1480.81 Q2043.75 1486.69 2037.7 1486.69 Q2035.43 1486.69 2033.1 1485.53 Q2030.81 1484.37 2029.35 1481.58 Q2027.08 1477.4 2027.08 1469.4 M2031.28 1468.78 Q2031.28 1476.41 2031.82 1479.45 Q2032.44 1482.74 2034.12 1484.17 Q2035.82 1485.58 2037.7 1485.58 Q2039.72 1485.58 2041.4 1484.07 Q2043.11 1482.54 2043.63 1479.26 Q2044.2 1476.02 2044.17 1468.78 Q2044.17 1461.74 2043.68 1458.92 Q2043.01 1455.64 2041.23 1454.33 Q2039.48 1453 2037.7 1453 Q2037.03 1453 2036.31 1453.19 Q2035.62 1453.39 2034.61 1453.96 Q2033.6 1454.53 2032.81 1455.94 Q2032.04 1457.34 2031.67 1459.47 Q2031.28 1462.21 2031.28 1468.78 Z" fill="#000000" fill-rule="nonzero" fill-opacity="1" /><path clip-path="url(#clip540)" d="M1270.93 1528.17 Q1270.93 1529.07 1270.51 1529.3 Q1270.1 1529.49 1268.94 1529.49 L1262.75 1529.49 L1257.86 1548.94 Q1257.47 1550.65 1257.47 1552.1 Q1257.47 1553.71 1257.95 1554.42 Q1258.47 1555.13 1259.53 1555.13 Q1261.63 1555.13 1263.88 1553.23 Q1266.17 1551.33 1268.1 1546.69 Q1268.36 1546.08 1268.49 1545.95 Q1268.65 1545.79 1269.07 1545.79 Q1269.87 1545.79 1269.87 1546.43 Q1269.87 1546.66 1269.42 1547.69 Q1269 1548.72 1268.07 1550.23 Q1267.17 1551.75 1265.97 1553.16 Q1264.81 1554.58 1263.04 1555.61 Q1261.27 1556.61 1259.37 1556.61 Q1256.7 1556.61 1254.99 1554.9 Q1253.32 1553.19 1253.32 1550.52 Q1253.32 1549.65 1253.99 1546.88 Q1254.67 1544.08 1258.34 1529.49 L1252.51 1529.49 Q1251.71 1529.49 1251.38 1529.46 Q1251.09 1529.43 1250.87 1529.27 Q1250.68 1529.07 1250.68 1528.69 Q1250.68 1528.07 1250.93 1527.82 Q1251.19 1527.53 1251.51 1527.49 Q1251.87 1527.43 1252.67 1527.43 L1258.86 1527.43 L1261.43 1516.96 Q1261.69 1515.93 1262.33 1515.35 Q1263.01 1514.74 1263.4 1514.68 Q1263.78 1514.58 1264.07 1514.58 Q1264.94 1514.58 1265.46 1515.06 Q1265.97 1515.51 1265.97 1516.35 Q1265.97 1516.8 1263.27 1527.43 L1269.07 1527.43 Q1269.81 1527.43 1270.1 1527.46 Q1270.42 1527.49 1270.68 1527.66 Q1270.93 1527.82 1270.93 1528.17 Z" fill="#000000" fill-rule="nonzero" fill-opacity="1" /><path clip-path="url(#clip540)" d="M1291.68 1572.36 L1291.68 1506.4 L1301.63 1506.4 L1301.63 1507.91 L1296.09 1507.91 L1296.09 1570.84 L1301.63 1570.84 L1301.63 1572.36 L1291.68 1572.36 Z" fill="#000000" fill-rule="nonzero" fill-opacity="1" /><path clip-path="url(#clip540)" d="M1328.57 1532.39 Q1328.57 1534.19 1327.67 1535.16 Q1326.77 1536.09 1325.54 1536.09 Q1324.54 1536.09 1324 1535.51 Q1323.48 1534.93 1323.48 1534.16 Q1323.48 1533.03 1324.38 1532.13 Q1325.32 1531.23 1326.67 1531.2 Q1326.22 1530.01 1325.03 1529.3 Q1323.83 1528.56 1322.77 1528.36 Q1321.74 1528.17 1320.71 1528.17 Q1318.68 1528.17 1317.14 1528.81 Q1315.59 1529.46 1314.82 1530.46 Q1314.04 1531.42 1313.69 1532.36 Q1313.34 1533.29 1313.34 1534.1 Q1313.34 1534.81 1313.5 1535.38 Q1313.69 1535.93 1314.14 1536.35 Q1314.59 1536.74 1314.91 1537 Q1315.27 1537.25 1316.04 1537.48 Q1316.81 1537.7 1317.14 1537.8 Q1317.46 1537.86 1318.36 1538.06 Q1320.23 1538.44 1321.07 1538.67 Q1321.9 1538.86 1323 1539.41 Q1324.12 1539.96 1324.96 1540.83 Q1326.99 1542.86 1326.99 1545.66 Q1326.99 1546.69 1326.64 1547.95 Q1326.31 1549.2 1325.38 1550.78 Q1324.45 1552.36 1323.03 1553.61 Q1321.61 1554.87 1319.17 1555.74 Q1316.75 1556.61 1313.72 1556.61 Q1309.5 1556.61 1306.89 1554.84 Q1304.29 1553.03 1304.29 1550.2 Q1304.29 1548.14 1305.41 1547.01 Q1306.54 1545.85 1307.99 1545.85 Q1309.08 1545.85 1309.76 1546.46 Q1310.44 1547.04 1310.44 1548.14 Q1310.44 1549.62 1309.25 1550.75 Q1308.05 1551.87 1306.28 1551.65 Q1307.8 1555.13 1313.79 1555.13 Q1316.04 1555.13 1317.78 1554.55 Q1319.55 1553.94 1320.52 1553.1 Q1321.52 1552.23 1322.16 1551.17 Q1322.8 1550.1 1323 1549.3 Q1323.22 1548.49 1323.22 1547.88 Q1323.22 1546.82 1322.8 1546.01 Q1322.39 1545.21 1321.81 1544.76 Q1321.26 1544.27 1320.2 1543.89 Q1319.17 1543.47 1318.42 1543.31 Q1317.68 1543.15 1316.36 1542.89 Q1315.75 1542.76 1315.36 1542.7 Q1314.98 1542.6 1314.17 1542.34 Q1313.4 1542.05 1312.85 1541.76 Q1312.34 1541.47 1311.66 1540.96 Q1310.98 1540.44 1310.57 1539.83 Q1310.15 1539.22 1309.86 1538.32 Q1309.57 1537.41 1309.57 1536.35 Q1309.57 1535.38 1309.86 1534.23 Q1310.18 1533.07 1310.98 1531.71 Q1311.82 1530.36 1313.01 1529.27 Q1314.21 1528.17 1316.2 1527.46 Q1318.23 1526.72 1320.71 1526.72 Q1324.32 1526.72 1326.44 1528.4 Q1328.57 1530.04 1328.57 1532.39 Z" fill="#000000" fill-rule="nonzero" fill-opacity="1" /><path clip-path="url(#clip540)" d="M1333.32 1570.84 L1338.86 1570.84 L1338.86 1507.91 L1333.32 1507.91 L1333.32 1506.4 L1343.28 1506.4 L1343.28 1572.36 L1333.32 1572.36 L1333.32 1570.84 Z" fill="#000000" fill-rule="nonzero" fill-opacity="1" /><polyline clip-path="url(#clip542)" style="stroke:#000000; stroke-linecap:round; stroke-linejoin:round; stroke-width:2; stroke-opacity:0.1; fill:none" points="249.395,1281 2352.76,1281 "/>
<polyline clip-path="url(#clip542)" style="stroke:#000000; stroke-linecap:round; stroke-linejoin:round; stroke-width:2; stroke-opacity:0.1; fill:none" points="249.395,1011.89 2352.76,1011.89 "/>
<polyline clip-path="url(#clip542)" style="stroke:#000000; stroke-linecap:round; stroke-linejoin:round; stroke-width:2; stroke-opacity:0.1; fill:none" points="249.395,742.778 2352.76,742.778 "/>
<polyline clip-path="url(#clip542)" style="stroke:#000000; stroke-linecap:round; stroke-linejoin:round; stroke-width:2; stroke-opacity:0.1; fill:none" points="249.395,473.668 2352.76,473.668 "/>
<polyline clip-path="url(#clip542)" style="stroke:#000000; stroke-linecap:round; stroke-linejoin:round; stroke-width:2; stroke-opacity:0.1; fill:none" points="249.395,204.558 2352.76,204.558 "/>
<polyline clip-path="url(#clip540)" style="stroke:#000000; stroke-linecap:round; stroke-linejoin:round; stroke-width:4; stroke-opacity:1; fill:none" points="249.395,1423.18 249.395,47.2441 "/>
<polyline clip-path="url(#clip540)" style="stroke:#000000; stroke-linecap:round; stroke-linejoin:round; stroke-width:4; stroke-opacity:1; fill:none" points="249.395,1281 268.292,1281 "/>
<polyline clip-path="url(#clip540)" style="stroke:#000000; stroke-linecap:round; stroke-linejoin:round; stroke-width:4; stroke-opacity:1; fill:none" points="249.395,1011.89 268.292,1011.89 "/>
<polyline clip-path="url(#clip540)" style="stroke:#000000; stroke-linecap:round; stroke-linejoin:round; stroke-width:4; stroke-opacity:1; fill:none" points="249.395,742.778 268.292,742.778 "/>
<polyline clip-path="url(#clip540)" style="stroke:#000000; stroke-linecap:round; stroke-linejoin:round; stroke-width:4; stroke-opacity:1; fill:none" points="249.395,473.668 268.292,473.668 "/>
<polyline clip-path="url(#clip540)" style="stroke:#000000; stroke-linecap:round; stroke-linejoin:round; stroke-width:4; stroke-opacity:1; fill:none" points="249.395,204.558 268.292,204.558 "/>
<path clip-path="url(#clip540)" d="M147.659 1284.91 Q147.956 1285.21 147.956 1285.63 Q147.956 1286.05 147.659 1286.35 Q147.363 1286.64 146.943 1286.64 L115.273 1286.64 Q114.853 1286.64 114.557 1286.35 Q114.26 1286.05 114.26 1285.63 Q114.26 1285.21 114.557 1284.91 Q114.853 1284.62 115.273 1284.62 L146.943 1284.62 Q147.363 1284.62 147.659 1284.91 Z" fill="#000000" fill-rule="nonzero" fill-opacity="1" /><path clip-path="url(#clip540)" d="M153.291 1290.13 Q153.291 1288.62 154.107 1288.05 Q154.922 1287.46 155.787 1287.46 Q156.948 1287.46 157.615 1288.2 Q158.306 1288.92 158.306 1289.93 Q158.306 1290.94 157.615 1291.68 Q156.948 1292.4 155.787 1292.4 Q155.218 1292.4 154.922 1292.3 Q155.589 1294.62 157.615 1296.3 Q159.665 1297.98 162.358 1297.98 Q165.742 1297.98 167.768 1294.7 Q168.978 1292.57 168.978 1287.76 Q168.978 1283.51 168.064 1281.38 Q166.656 1278.15 163.766 1278.15 Q159.665 1278.15 157.244 1281.68 Q156.948 1282.12 156.602 1282.15 Q156.108 1282.15 155.984 1281.88 Q155.885 1281.58 155.885 1280.81 L155.885 1265.84 Q155.885 1264.63 156.379 1264.63 Q156.577 1264.63 156.997 1264.78 Q160.184 1266.19 163.716 1266.21 Q167.348 1266.21 170.609 1264.73 Q170.856 1264.58 171.004 1264.58 Q171.498 1264.58 171.523 1265.15 Q171.523 1265.35 171.103 1265.94 Q170.707 1266.51 169.843 1267.28 Q168.978 1268.02 167.866 1268.73 Q166.755 1269.45 165.124 1269.94 Q163.519 1270.41 161.74 1270.41 Q159.616 1270.41 157.442 1269.75 L157.442 1279.6 Q160.06 1277.03 163.865 1277.03 Q167.916 1277.03 170.707 1280.29 Q173.499 1283.56 173.499 1288.1 Q173.499 1292.87 170.189 1296.13 Q166.903 1299.39 162.456 1299.39 Q158.405 1299.39 155.836 1296.5 Q153.291 1293.61 153.291 1290.13 Z" fill="#000000" fill-rule="nonzero" fill-opacity="1" /><path clip-path="url(#clip540)" d="M181.132 1297.46 Q180.366 1296.65 180.366 1295.59 Q180.366 1294.52 181.132 1293.76 Q181.898 1292.97 183.059 1292.97 Q184.171 1292.97 184.912 1293.71 Q185.678 1294.43 185.678 1295.61 Q185.678 1296.77 184.862 1297.54 Q184.072 1298.28 183.059 1298.28 Q181.898 1298.28 181.132 1297.46 Z" fill="#000000" fill-rule="nonzero" fill-opacity="1" /><path clip-path="url(#clip540)" d="M192.1 1282.1 Q192.1 1274.66 193.978 1270.61 Q196.596 1264.58 202.772 1264.58 Q204.082 1264.58 205.44 1264.95 Q206.824 1265.3 208.553 1266.66 Q210.307 1268.02 211.369 1270.24 Q213.395 1274.54 213.395 1282.1 Q213.395 1289.48 211.517 1293.51 Q208.775 1299.39 202.723 1299.39 Q200.45 1299.39 198.128 1298.23 Q195.831 1297.07 194.373 1294.28 Q192.1 1290.1 192.1 1282.1 M196.3 1281.48 Q196.3 1289.11 196.843 1292.15 Q197.461 1295.44 199.141 1296.87 Q200.845 1298.28 202.723 1298.28 Q204.749 1298.28 206.428 1296.77 Q208.133 1295.24 208.652 1291.95 Q209.22 1288.72 209.195 1281.48 Q209.195 1274.44 208.701 1271.62 Q208.034 1268.34 206.255 1267.03 Q204.502 1265.7 202.723 1265.7 Q202.056 1265.7 201.339 1265.89 Q200.648 1266.09 199.635 1266.66 Q198.622 1267.23 197.832 1268.63 Q197.066 1270.04 196.695 1272.17 Q196.3 1274.91 196.3 1281.48 Z" fill="#000000" fill-rule="nonzero" fill-opacity="1" /><path clip-path="url(#clip540)" d="M148.203 1015.8 Q148.499 1016.1 148.499 1016.52 Q148.499 1016.94 148.203 1017.24 Q147.906 1017.53 147.486 1017.53 L115.816 1017.53 Q115.397 1017.53 115.1 1017.24 Q114.804 1016.94 114.804 1016.52 Q114.804 1016.1 115.1 1015.8 Q115.397 1015.51 115.816 1015.51 L147.486 1015.51 Q147.906 1015.51 148.203 1015.8 Z" fill="#000000" fill-rule="nonzero" fill-opacity="1" /><path clip-path="url(#clip540)" d="M153.835 1029.17 Q153.835 1028.25 153.909 1027.98 Q154.008 1027.71 154.403 1027.29 L164.112 1016.47 Q169.423 1010.49 169.423 1005.28 Q169.423 1001.9 167.644 999.475 Q165.89 997.054 162.654 997.054 Q160.431 997.054 158.553 998.413 Q156.676 999.772 155.811 1002.19 Q155.959 1002.14 156.478 1002.14 Q157.738 1002.14 158.43 1002.93 Q159.146 1003.72 159.146 1004.79 Q159.146 1006.15 158.257 1006.81 Q157.392 1007.45 156.528 1007.45 Q156.182 1007.45 155.712 1007.38 Q155.268 1007.31 154.551 1006.61 Q153.835 1005.9 153.835 1004.64 Q153.835 1001.11 156.503 998.289 Q159.196 995.473 163.296 995.473 Q167.941 995.473 170.979 998.24 Q174.042 1000.98 174.042 1005.28 Q174.042 1006.79 173.573 1008.17 Q173.128 1009.53 172.511 1010.59 Q171.918 1011.65 170.287 1013.36 Q168.657 1015.06 167.348 1016.27 Q166.038 1017.48 163.099 1020.05 L157.738 1025.27 L166.854 1025.27 Q171.3 1025.27 171.646 1024.87 Q172.14 1024.15 172.758 1020.37 L174.042 1020.37 L172.609 1029.17 L153.835 1029.17 Z" fill="#000000" fill-rule="nonzero" fill-opacity="1" /><path clip-path="url(#clip540)" d="M181.676 1028.35 Q180.91 1027.54 180.91 1026.48 Q180.91 1025.41 181.676 1024.65 Q182.441 1023.86 183.602 1023.86 Q184.714 1023.86 185.455 1024.6 Q186.221 1025.31 186.221 1026.5 Q186.221 1027.66 185.406 1028.43 Q184.615 1029.17 183.602 1029.17 Q182.441 1029.17 181.676 1028.35 Z" fill="#000000" fill-rule="nonzero" fill-opacity="1" /><path clip-path="url(#clip540)" d="M193.187 1021.02 Q193.187 1019.51 194.003 1018.94 Q194.818 1018.35 195.682 1018.35 Q196.843 1018.35 197.51 1019.09 Q198.202 1019.81 198.202 1020.82 Q198.202 1021.83 197.51 1022.57 Q196.843 1023.29 195.682 1023.29 Q195.114 1023.29 194.818 1023.19 Q195.485 1025.51 197.51 1027.19 Q199.561 1028.87 202.254 1028.87 Q205.638 1028.87 207.664 1025.59 Q208.874 1023.46 208.874 1018.64 Q208.874 1014.4 207.96 1012.27 Q206.552 1009.04 203.662 1009.04 Q199.561 1009.04 197.14 1012.57 Q196.843 1013.01 196.498 1013.04 Q196.004 1013.04 195.88 1012.77 Q195.781 1012.47 195.781 1011.7 L195.781 996.733 Q195.781 995.523 196.275 995.523 Q196.473 995.523 196.893 995.671 Q200.08 997.079 203.612 997.104 Q207.244 997.104 210.504 995.621 Q210.751 995.473 210.9 995.473 Q211.394 995.473 211.418 996.041 Q211.418 996.239 210.999 996.832 Q210.603 997.4 209.739 998.166 Q208.874 998.907 207.762 999.623 Q206.651 1000.34 205.02 1000.83 Q203.415 1001.3 201.636 1001.3 Q199.511 1001.3 197.338 1000.64 L197.338 1010.49 Q199.956 1007.92 203.76 1007.92 Q207.812 1007.92 210.603 1011.18 Q213.395 1014.45 213.395 1018.99 Q213.395 1023.76 210.084 1027.02 Q206.799 1030.28 202.352 1030.28 Q198.301 1030.28 195.732 1027.39 Q193.187 1024.5 193.187 1021.02 Z" fill="#000000" fill-rule="nonzero" fill-opacity="1" /><path clip-path="url(#clip540)" d="M152.748 743.878 Q152.748 736.442 154.625 732.391 Q157.244 726.363 163.42 726.363 Q164.729 726.363 166.088 726.733 Q167.471 727.079 169.2 728.438 Q170.954 729.797 172.017 732.02 Q174.042 736.318 174.042 743.878 Q174.042 751.264 172.165 755.291 Q169.423 761.17 163.37 761.17 Q161.098 761.17 158.776 760.009 Q156.478 758.848 155.021 756.056 Q152.748 751.881 152.748 743.878 M156.948 743.26 Q156.948 750.893 157.491 753.932 Q158.109 757.217 159.788 758.65 Q161.493 760.058 163.37 760.058 Q165.396 760.058 167.076 758.551 Q168.78 757.02 169.299 753.734 Q169.867 750.498 169.843 743.26 Q169.843 736.22 169.349 733.403 Q168.682 730.118 166.903 728.809 Q165.149 727.475 163.37 727.475 Q162.703 727.475 161.987 727.672 Q161.295 727.87 160.283 728.438 Q159.27 729.006 158.479 730.414 Q157.713 731.822 157.343 733.947 Q156.948 736.689 156.948 743.26 Z" fill="#000000" fill-rule="nonzero" fill-opacity="1" /><path clip-path="url(#clip540)" d="M181.132 759.243 Q180.366 758.428 180.366 757.366 Q180.366 756.303 181.132 755.538 Q181.898 754.747 183.059 754.747 Q184.171 754.747 184.912 755.488 Q185.678 756.205 185.678 757.39 Q185.678 758.551 184.862 759.317 Q184.072 760.058 183.059 760.058 Q181.898 760.058 181.132 759.243 Z" fill="#000000" fill-rule="nonzero" fill-opacity="1" /><path clip-path="url(#clip540)" d="M192.1 743.878 Q192.1 736.442 193.978 732.391 Q196.596 726.363 202.772 726.363 Q204.082 726.363 205.44 726.733 Q206.824 727.079 208.553 728.438 Q210.307 729.797 211.369 732.02 Q213.395 736.318 213.395 743.878 Q213.395 751.264 211.517 755.291 Q208.775 761.17 202.723 761.17 Q200.45 761.17 198.128 760.009 Q195.831 758.848 194.373 756.056 Q192.1 751.881 192.1 743.878 M196.3 743.26 Q196.3 750.893 196.843 753.932 Q197.461 757.217 199.141 758.65 Q200.845 760.058 202.723 760.058 Q204.749 760.058 206.428 758.551 Q208.133 757.02 208.652 753.734 Q209.22 750.498 209.195 743.26 Q209.195 736.22 208.701 733.403 Q208.034 730.118 206.255 728.809 Q204.502 727.475 202.723 727.475 Q202.056 727.475 201.339 727.672 Q200.648 727.87 199.635 728.438 Q198.622 729.006 197.832 730.414 Q197.066 731.822 196.695 733.947 Q196.3 736.689 196.3 743.26 Z" fill="#000000" fill-rule="nonzero" fill-opacity="1" /><path clip-path="url(#clip540)" d="M153.835 490.948 Q153.835 490.034 153.909 489.762 Q154.008 489.49 154.403 489.07 L164.112 478.25 Q169.423 472.272 169.423 467.06 Q169.423 463.675 167.644 461.254 Q165.89 458.834 162.654 458.834 Q160.431 458.834 158.553 460.192 Q156.676 461.551 155.811 463.972 Q155.959 463.922 156.478 463.922 Q157.738 463.922 158.43 464.713 Q159.146 465.503 159.146 466.566 Q159.146 467.924 158.257 468.591 Q157.392 469.234 156.528 469.234 Q156.182 469.234 155.712 469.16 Q155.268 469.085 154.551 468.394 Q153.835 467.677 153.835 466.417 Q153.835 462.885 156.503 460.069 Q159.196 457.253 163.296 457.253 Q167.941 457.253 170.979 460.019 Q174.042 462.761 174.042 467.06 Q174.042 468.567 173.573 469.95 Q173.128 471.309 172.511 472.371 Q171.918 473.433 170.287 475.138 Q168.657 476.842 167.348 478.053 Q166.038 479.263 163.099 481.832 L157.738 487.045 L166.854 487.045 Q171.3 487.045 171.646 486.65 Q172.14 485.933 172.758 482.154 L174.042 482.154 L172.609 490.948 L153.835 490.948 Z" fill="#000000" fill-rule="nonzero" fill-opacity="1" /><path clip-path="url(#clip540)" d="M181.676 490.133 Q180.91 489.318 180.91 488.255 Q180.91 487.193 181.676 486.427 Q182.441 485.637 183.602 485.637 Q184.714 485.637 185.455 486.378 Q186.221 487.094 186.221 488.28 Q186.221 489.441 185.406 490.207 Q184.615 490.948 183.602 490.948 Q182.441 490.948 181.676 490.133 Z" fill="#000000" fill-rule="nonzero" fill-opacity="1" /><path clip-path="url(#clip540)" d="M193.187 482.796 Q193.187 481.289 194.003 480.721 Q194.818 480.128 195.682 480.128 Q196.843 480.128 197.51 480.869 Q198.202 481.585 198.202 482.598 Q198.202 483.611 197.51 484.352 Q196.843 485.069 195.682 485.069 Q195.114 485.069 194.818 484.97 Q195.485 487.292 197.51 488.972 Q199.561 490.651 202.254 490.651 Q205.638 490.651 207.664 487.366 Q208.874 485.241 208.874 480.424 Q208.874 476.175 207.96 474.051 Q206.552 470.815 203.662 470.815 Q199.561 470.815 197.14 474.347 Q196.843 474.792 196.498 474.817 Q196.004 474.817 195.88 474.545 Q195.781 474.248 195.781 473.483 L195.781 458.512 Q195.781 457.302 196.275 457.302 Q196.473 457.302 196.893 457.45 Q200.08 458.858 203.612 458.883 Q207.244 458.883 210.504 457.401 Q210.751 457.253 210.9 457.253 Q211.394 457.253 211.418 457.821 Q211.418 458.018 210.999 458.611 Q210.603 459.179 209.739 459.945 Q208.874 460.686 207.762 461.403 Q206.651 462.119 205.02 462.613 Q203.415 463.083 201.636 463.083 Q199.511 463.083 197.338 462.416 L197.338 472.272 Q199.956 469.703 203.76 469.703 Q207.812 469.703 210.603 472.964 Q213.395 476.225 213.395 480.77 Q213.395 485.538 210.084 488.799 Q206.799 492.06 202.352 492.06 Q198.301 492.06 195.732 489.169 Q193.187 486.279 193.187 482.796 Z" fill="#000000" fill-rule="nonzero" fill-opacity="1" /><path clip-path="url(#clip540)" d="M153.291 213.685 Q153.291 212.179 154.107 211.61 Q154.922 211.018 155.787 211.018 Q156.948 211.018 157.615 211.759 Q158.306 212.475 158.306 213.488 Q158.306 214.501 157.615 215.242 Q156.948 215.958 155.787 215.958 Q155.218 215.958 154.922 215.859 Q155.589 218.181 157.615 219.861 Q159.665 221.541 162.358 221.541 Q165.742 221.541 167.768 218.256 Q168.978 216.131 168.978 211.314 Q168.978 207.065 168.064 204.94 Q166.656 201.704 163.766 201.704 Q159.665 201.704 157.244 205.237 Q156.948 205.682 156.602 205.706 Q156.108 205.706 155.984 205.435 Q155.885 205.138 155.885 204.372 L155.885 189.402 Q155.885 188.192 156.379 188.192 Q156.577 188.192 156.997 188.34 Q160.184 189.748 163.716 189.773 Q167.348 189.773 170.609 188.29 Q170.856 188.142 171.004 188.142 Q171.498 188.142 171.523 188.71 Q171.523 188.908 171.103 189.501 Q170.707 190.069 169.843 190.835 Q168.978 191.576 167.866 192.292 Q166.755 193.009 165.124 193.503 Q163.519 193.972 161.74 193.972 Q159.616 193.972 157.442 193.305 L157.442 203.162 Q160.06 200.593 163.865 200.593 Q167.916 200.593 170.707 203.854 Q173.499 207.114 173.499 211.66 Q173.499 216.428 170.189 219.688 Q166.903 222.949 162.456 222.949 Q158.405 222.949 155.836 220.059 Q153.291 217.169 153.291 213.685 Z" fill="#000000" fill-rule="nonzero" fill-opacity="1" /><path clip-path="url(#clip540)" d="M181.132 221.022 Q180.366 220.207 180.366 219.145 Q180.366 218.083 181.132 217.317 Q181.898 216.526 183.059 216.526 Q184.171 216.526 184.912 217.267 Q185.678 217.984 185.678 219.17 Q185.678 220.331 184.862 221.096 Q184.072 221.838 183.059 221.838 Q181.898 221.838 181.132 221.022 Z" fill="#000000" fill-rule="nonzero" fill-opacity="1" /><path clip-path="url(#clip540)" d="M192.1 205.657 Q192.1 198.221 193.978 194.17 Q196.596 188.142 202.772 188.142 Q204.082 188.142 205.44 188.513 Q206.824 188.859 208.553 190.217 Q210.307 191.576 211.369 193.799 Q213.395 198.098 213.395 205.657 Q213.395 213.043 211.517 217.07 Q208.775 222.949 202.723 222.949 Q200.45 222.949 198.128 221.788 Q195.831 220.627 194.373 217.836 Q192.1 213.661 192.1 205.657 M196.3 205.039 Q196.3 212.673 196.843 215.711 Q197.461 218.997 199.141 220.429 Q200.845 221.838 202.723 221.838 Q204.749 221.838 206.428 220.331 Q208.133 218.799 208.652 215.514 Q209.22 212.277 209.195 205.039 Q209.195 197.999 208.701 195.183 Q208.034 191.897 206.255 190.588 Q204.502 189.254 202.723 189.254 Q202.056 189.254 201.339 189.451 Q200.648 189.649 199.635 190.217 Q198.622 190.785 197.832 192.194 Q197.066 193.602 196.695 195.726 Q196.3 198.468 196.3 205.039 Z" fill="#000000" fill-rule="nonzero" fill-opacity="1" /><path clip-path="url(#clip540)" d="M43.9909 772.59 Q45.7944 772.59 47.8234 773.137 L77.6782 780.641 Q80.3191 781.318 80.3191 783.347 Q80.3191 784.184 79.8038 784.699 Q79.3207 785.182 78.5478 785.182 Q78.2901 785.182 77.485 784.989 L47.147 777.485 Q44.3773 776.809 42.9925 776.809 Q38.3871 776.809 38.3871 780.384 Q38.3871 783.54 40.7059 786.696 Q41.8653 788.145 43.9587 789.562 Q46.0198 790.947 46.7606 791.205 Q48.4353 791.495 49.7235 791.913 Q50.6253 792.107 54.1357 793.04 L60.0938 794.49 Q64.5382 795.52 64.9569 795.746 Q65.8587 796.068 66.3417 796.776 Q66.8248 797.485 66.8248 798.193 Q66.8248 798.999 66.3417 799.546 Q65.8587 800.094 65.0213 800.094 Q64.8925 800.094 64.4094 799.997 Q63.9263 799.9 63.25 799.739 Q62.5737 799.578 62.1872 799.514 L46.9538 795.681 Q44.1841 794.973 43.3146 794.812 Q42.4128 794.619 41.4144 794.619 Q39.6753 794.619 39.0312 795.166 Q38.3871 795.714 38.3871 796.68 Q38.3871 798.354 40.3838 799.449 Q42.3806 800.544 46.2453 801.478 Q47.3081 801.768 47.5335 801.962 Q47.759 802.123 47.759 802.606 Q47.7268 803.411 47.0826 803.411 Q46.9216 803.411 45.891 803.153 Q44.8282 802.895 43.2823 802.412 Q41.7043 801.897 40.7059 801.35 Q40.0296 801.028 39.5787 800.738 Q39.1278 800.448 38.4193 799.868 Q37.7107 799.288 37.3243 798.419 Q36.9378 797.549 36.9378 796.487 Q36.9378 794.135 38.4515 792.396 Q39.9651 790.625 42.6704 790.4 Q41.6721 789.723 40.7703 788.854 Q39.8685 787.952 38.9668 786.696 Q38.0328 785.44 37.4853 783.733 Q36.9378 782.026 36.9378 780.19 Q36.9378 776.519 38.8379 774.554 Q40.7059 772.59 43.9909 772.59 Z" fill="#000000" fill-rule="nonzero" fill-opacity="1" /><path clip-path="url(#clip540)" d="M82.5735 753.539 L16.6159 753.539 L16.6159 743.588 L18.1296 743.588 L18.1296 749.127 L81.0598 749.127 L81.0598 743.588 L82.5735 743.588 L82.5735 753.539 Z" fill="#000000" fill-rule="nonzero" fill-opacity="1" /><path clip-path="url(#clip540)" d="M56.6478 688.211 Q56.9054 688.211 57.9038 688.501 Q58.9022 688.791 60.4481 689.5 Q61.994 690.176 63.411 691.142 Q64.7959 692.076 65.8264 693.622 Q66.8248 695.136 66.8248 696.875 Q66.8248 699.194 65.2789 700.74 Q63.7331 702.285 61.4142 702.285 Q60.1582 702.285 57.775 701.416 Q46.8894 697.326 42.9925 697.326 Q38.3871 697.326 38.3871 700.901 Q38.3871 702.93 39.2244 704.765 Q40.0618 706.601 41.2212 707.793 Q42.3806 708.984 43.701 709.918 Q45.0215 710.852 45.891 711.271 Q46.7606 711.657 47.147 711.754 L63.0567 715.715 Q64.4094 716.037 65.0535 716.263 Q65.6976 716.488 66.2451 717.1 Q66.8248 717.712 66.8248 718.678 Q66.8248 719.483 66.3417 720.063 Q65.8587 720.611 65.0213 720.611 Q64.8925 720.611 64.2162 720.45 Q63.5398 720.288 62.6059 720.063 Q61.6719 719.838 61.1244 719.741 Q56.7444 718.582 56.1325 718.421 L48.4675 716.585 Q44.6672 715.586 42.9925 715.586 Q38.3871 715.586 38.3871 719.161 Q38.3871 720.933 39.0634 722.607 Q39.7075 724.25 40.6093 725.377 Q41.511 726.504 42.7671 727.535 Q43.9909 728.533 44.8282 729.048 Q45.6334 729.532 46.4385 729.918 L49.7235 730.755 Q50.6253 730.949 54.1357 731.883 L60.0938 733.332 Q64.5382 734.362 64.9569 734.588 Q65.8587 734.91 66.3417 735.618 Q66.8248 736.327 66.8248 737.036 Q66.8248 737.841 66.3417 738.388 Q65.8587 738.936 65.0213 738.936 Q64.8925 738.936 64.4094 738.839 Q63.9263 738.742 63.25 738.581 Q62.5737 738.42 62.1872 738.356 L46.9538 734.523 Q44.1841 733.815 43.3146 733.654 Q42.4128 733.461 41.4144 733.461 Q38.3871 733.461 38.3871 735.522 Q38.3871 737.197 40.3838 738.292 Q42.3806 739.387 46.2453 740.321 Q47.3081 740.61 47.5335 740.804 Q47.759 740.965 47.759 741.448 Q47.7268 742.253 47.0826 742.253 Q46.9216 742.253 45.891 741.995 Q44.8604 741.738 43.3146 741.255 Q41.7365 740.739 40.7059 740.192 Q40.0296 739.87 39.5787 739.58 Q39.1278 739.29 38.4193 738.71 Q37.7107 738.131 37.3243 737.261 Q36.9378 736.391 36.9378 735.329 Q36.9378 732.978 38.4515 731.238 Q39.9651 729.467 42.6704 729.242 Q36.9378 724.958 36.9378 718.968 Q36.9378 715.586 38.6447 713.557 Q40.2872 711.657 43.3146 711.432 Q36.9378 706.987 36.9378 700.675 Q36.9378 697.036 38.8379 695.071 Q40.7059 693.107 43.9909 693.107 Q45.6978 693.107 48.9506 693.976 Q52.1712 694.846 53.7815 695.426 Q55.3917 696.005 58.4835 697.132 Q61.4465 698.324 63.1856 698.324 Q64.3128 698.324 64.8281 697.938 Q65.3434 697.551 65.3434 696.714 Q65.3434 695.426 64.6026 694.298 Q63.8297 693.171 62.5737 692.366 Q61.2854 691.529 59.9972 690.981 Q58.6767 690.434 57.1953 690.015 Q56.3901 689.757 56.1969 689.629 Q56.0037 689.467 56.0037 689.017 Q56.0037 688.211 56.6478 688.211 Z" fill="#000000" fill-rule="nonzero" fill-opacity="1" /><path clip-path="url(#clip540)" d="M81.0598 685.163 L81.0598 679.624 L18.1296 679.624 L18.1296 685.163 L16.6159 685.163 L16.6159 675.212 L82.5735 675.212 L82.5735 685.163 L81.0598 685.163 Z" fill="#000000" fill-rule="nonzero" fill-opacity="1" /><polyline clip-path="url(#clip542)" style="stroke:#ba3d3a; stroke-linecap:round; stroke-linejoin:round; stroke-width:8; stroke-opacity:1; fill:none" points="308.924,744.759 311.552,739.735 314.18,734.252 316.808,728.42 319.437,722.516 322.065,716.493 324.693,710.448 327.321,704.296 329.95,698.105 332.578,691.953 335.206,685.817 337.834,679.695 340.462,673.595 343.091,667.574 345.719,661.939 348.347,656.876 350.975,652.659 353.603,649.674 356.232,648.045 358.86,648.066 361.488,649.628 364.116,652.689 366.745,657.023 369.373,662.497 372.001,669.123 374.629,676.799 377.257,685.503 379.886,694.968 382.514,704.855 385.142,714.803 387.77,724.531 390.399,733.909 393.027,742.825 395.655,751.245 398.283,759.062 400.911,766.133 403.54,772.285 406.168,777.442 408.796,781.581 411.424,784.786 414.052,787.164 416.681,788.835 419.309,789.895 421.937,790.386 424.565,790.42 427.194,790.114 429.822,789.641 432.45,789.216 435.078,789.027 437.706,789.243 440.335,790.016 442.963,791.577 445.591,794.214 448.219,798.072 450.847,803.316 453.476,809.953 456.104,817.878 458.732,826.841 461.36,836.69 463.989,847.244 466.617,858.421 469.245,870.058 471.873,882.139 474.501,894.367 477.13,906.533 479.758,918.419 482.386,929.636 485.014,939.986 487.643,949.155 490.271,956.833 492.899,962.639 495.527,966.312 498.155,967.596 500.784,966.26 503.412,962.286 506.04,955.447 508.668,945.801 511.296,933.212 513.925,917.817 516.553,899.77 519.181,879.148 521.809,856.114 524.438,830.773 527.066,803.224 529.694,773.618 532.322,742.237 534.95,709.507 537.579,675.849 540.207,641.674 542.835,607.38 545.463,573.029 548.091,538.552 550.72,503.719 553.348,468.621 555.976,433.751 558.604,400.194 561.233,369.087 563.861,340.945 566.489,315.277 569.117,290.876 571.745,266.493 574.374,241.837 577.002,218.17 579.63,198.308 582.258,185.565 584.886,182.639 587.515,190.656 590.143,209.001 592.771,235.595 595.399,267.63 598.028,302.299 600.656,337.622 603.284,373.079 605.912,409.634 608.54,449.922 611.169,496.982 613.797,552.683 616.425,616.583 619.053,686.272 621.682,757.609 624.31,826.125 626.938,888.63 629.566,944.599 632.194,994.604 634.823,1040.2 637.451,1084.07 640.079,1127.21 642.707,1169.95 645.335,1211.71 647.964,1251.27 650.592,1287.05 653.22,1317.87 655.848,1342.54 658.477,1360.91 661.105,1373.54 663.733,1381.04 666.361,1384.24 668.989,1383.49 671.618,1379.04 674.246,1370.79 676.874,1358.28 679.502,1341.21 682.13,1319.31 684.759,1292.61 687.387,1261.37 690.015,1225.99 692.643,1187.14 695.272,1145.35 697.9,1101 700.528,1054.42 703.156,1005.92 705.784,955.871 708.413,904.519 711.041,852.085 713.669,798.692 716.297,744.339 718.926,689.034 721.554,633.066 724.182,576.96 726.81,521.669 729.438,468.13 732.067,417.311 734.695,369.793 737.323,325.846 739.951,285.316 742.579,248.014 745.208,213.759 747.836,182.738 750.464,155.339 753.092,132.356 755.721,114.529 758.349,102.359 760.977,95.9293 763.605,95.2846 766.233,100.065 768.862,109.933 771.49,124.211 774.118,142.666 776.746,165.105 779.374,191.21 782.003,221.021 784.631,254.614 787.259,291.8 789.887,332.42 792.516,375.801 795.144,421.419 797.772,468.238 800.4,515.407 803.028,562.352 805.657,608.58 808.285,653.89 810.913,697.964 813.541,740.505 816.169,781.215 818.798,819.829 821.426,856.339 824.054,890.756 826.682,923.354 829.311,954.245 831.939,983.409 834.567,1010.76 837.195,1036.19 839.823,1059.73 842.452,1081.46 845.08,1101.47 847.708,1119.82 850.336,1136.44 852.965,1151.12 855.593,1163.57 858.221,1173.7 860.849,1181.59 863.477,1187.49 866.106,1191.61 868.734,1194.15 871.362,1195.09 873.99,1194.33 876.618,1191.75 879.247,1187.27 881.875,1180.84 884.503,1172.39 887.131,1161.86 889.76,1149.25 892.388,1134.4 895.016,1117.38 897.644,1098.12 900.272,1076.71 902.901,1053.09 905.529,1027.34 908.157,999.559 910.785,969.786 913.413,938.21 916.042,905.075 918.67,870.62 921.298,835.21 923.926,799.133 926.555,762.842 929.183,726.655 931.811,690.896 934.439,655.999 937.067,622.104 939.696,589.539 942.324,558.484 944.952,528.925 947.58,501.218 950.209,475.513 952.837,452.066 955.465,431.124 958.093,412.98 960.721,397.78 963.35,385.586 965.978,376.377 968.606,370.067 971.234,366.528 973.862,365.609 976.491,367.114 979.119,370.848 981.747,376.602 984.375,384.203 987.004,393.464 989.632,404.28 992.26,416.542 994.888,430.065 997.516,444.593 1000.14,459.838 1002.77,475.548 1005.4,491.497 1008.03,507.527 1010.66,523.576 1013.29,539.672 1015.91,555.881 1018.54,572.3 1021.17,588.944 1023.8,605.786 1026.43,622.773 1029.05,639.766 1031.68,656.654 1034.31,673.309 1036.94,689.743 1039.57,705.971 1042.2,722.03 1044.82,738.043 1047.45,754.109 1050.08,770.297 1052.71,786.683 1055.34,803.297 1057.97,820.207 1060.59,837.256 1063.22,854.405 1065.85,871.73 1068.48,888.981 1071.11,906.116 1073.73,922.657 1076.36,938.669 1078.99,953.892 1081.62,967.986 1084.25,980.738 1086.88,991.213 1089.5,1000.02 1092.13,1007.56 1094.76,1013.76 1097.39,1018.47 1100.02,1022.03 1102.65,1024.25 1105.27,1025.24 1107.9,1025.06 1110.53,1023.57 1113.16,1020.74 1115.79,1016.51 1118.41,1010.82 1121.04,1003.68 1123.67,995.095 1126.3,985.157 1128.93,973.88 1131.56,961.172 1134.18,946.942 1136.81,931.069 1139.44,913.666 1142.07,894.878 1144.7,874.857 1147.32,853.773 1149.95,831.642 1152.58,808.696 1155.21,785.324 1157.84,761.762 1160.47,738.161 1163.09,714.742 1165.72,691.942 1168.35,670.012 1170.98,649.084 1173.61,629.148 1176.24,610.126 1178.86,592.003 1181.49,574.854 1184.12,559.01 1186.75,544.618 1189.38,531.954 1192,521.277 1194.63,512.546 1197.26,505.833 1199.89,501.096 1202.52,498.571 1205.15,498.341 1207.77,500.395 1210.4,504.813 1213.03,511.457 1215.66,520.026 1218.29,530.23 1220.91,541.593 1223.54,554.188 1226.17,567.814 1228.8,582.271 1231.43,597.373 1234.06,612.907 1236.68,629.1 1239.31,645.311 1241.94,661.559 1244.57,677.545 1247.2,693.518 1249.83,709.006 1252.45,723.934 1255.08,738.163 1257.71,751.87 1260.34,764.91 1262.97,777.369 1265.59,789.191 1268.22,800.383 1270.85,810.789 1273.48,820.244 1276.11,828.586 1278.74,835.599 1281.36,841.211 1283.99,845.477 1286.62,848.464 1289.25,850.289 1291.88,851.04 1294.5,850.757 1297.13,849.463 1299.76,847.18 1302.39,844.071 1305.02,840.184 1307.65,835.628 1310.27,830.527 1312.9,825.08 1315.53,819.455 1318.16,813.745 1320.79,807.98 1323.42,802.258 1326.04,796.501 1328.67,790.706 1331.3,784.758 1333.93,778.685 1336.56,772.396 1339.18,765.888 1341.81,759.211 1344.44,752.369 1347.07,745.345 1349.7,738.195 1352.33,731.013 1354.95,724.029 1357.58,717.435 1360.21,711.507 1362.84,706.329 1365.47,702.011 1368.09,698.487 1370.72,695.732 1373.35,693.691 1375.98,692.476 1378.61,692.042 1381.24,692.407 1383.86,693.591 1386.49,695.557 1389.12,698.101 1391.75,701.11 1394.38,704.503 1397.01,708.26 1399.63,712.274 1402.26,716.35 1404.89,720.46 1407.52,724.475 1410.15,728.287 1412.77,731.831 1415.4,735.207 1418.03,738.512 1420.66,741.861 1423.29,745.358 1425.92,749.022 1428.54,752.75 1431.17,756.456 1433.8,760.035 1436.43,763.391 1439.06,766.394 1441.68,769.059 1444.31,771.401 1446.94,773.463 1449.57,775.289 1452.2,777.022 1454.83,778.824 1457.45,780.806 1460.08,783.014 1462.71,785.475 1465.34,788.13 1467.97,790.946 1470.6,793.859 1473.22,796.85 1475.85,799.858 1478.48,802.749 1481.11,805.412 1483.74,807.709 1486.36,809.552 1488.99,810.894 1491.62,811.679 1494.25,811.931 1496.88,811.552 1499.51,810.45 1502.13,808.541 1504.76,805.637 1507.39,801.709 1510.02,796.72 1512.65,790.779 1515.27,783.973 1517.9,776.453 1520.53,768.341 1523.16,760.002 1525.79,751.706 1528.42,743.565 1531.04,735.723 1533.67,727.954 1536.3,720.323 1538.93,712.725 1541.56,705.075 1544.19,697.402 1546.81,689.68 1549.44,681.945 1552.07,674.359 1554.7,667.025 1557.33,660.042 1559.95,653.5 1562.58,647.577 1565.21,642.476 1567.84,638.361 1570.47,635.4 1573.1,633.637 1575.72,632.96 1578.35,633.193 1580.98,634.078 1583.61,635.435 1586.24,637.164 1588.86,639.279 1591.49,641.88 1594.12,645.061 1596.75,648.906 1599.38,653.369 1602.01,658.322 1604.63,663.592 1607.26,669.078 1609.89,674.731 1612.52,680.654 1615.15,687.003 1617.78,693.876 1620.4,701.327 1623.03,709.255 1625.66,717.544 1628.29,726.081 1630.92,734.769 1633.54,743.711 1636.17,752.826 1638.8,762.131 1641.43,771.529 1644.06,780.88 1646.69,790.005 1649.31,798.646 1651.94,806.64 1654.57,813.89 1657.2,820.344 1659.83,826.152 1662.46,831.382 1665.08,836.267 1667.71,840.944 1670.34,845.51 1672.97,849.933 1675.6,854.098 1678.22,857.934 1680.85,861.256 1683.48,863.769 1686.11,865.293 1688.74,865.583 1691.37,864.454 1693.99,861.854 1696.62,857.633 1699.25,851.982 1701.88,844.814 1704.51,836.466 1707.13,827.118 1709.76,816.932 1712.39,806.183 1715.02,794.994 1717.65,783.682 1720.28,772.432 1722.9,761.524 1725.53,751.198 1728.16,741.464 1730.79,732.411 1733.42,724.044 1736.05,716.298 1738.67,709.132 1741.3,702.527 1743.93,696.534 1746.56,691.115 1749.19,686.225 1751.81,681.86 1754.44,677.944 1757.07,674.497 1759.7,671.668 1762.33,669.674 1764.96,668.72 1767.58,668.823 1770.21,669.972 1772.84,671.995 1775.47,674.687 1778.1,677.891 1780.72,681.547 1783.35,685.655 1785.98,690.136 1788.61,694.854 1791.24,699.74 1793.87,704.66 1796.49,709.613 1799.12,714.564 1801.75,719.619 1804.38,724.764 1807.01,729.965 1809.64,735.063 1812.26,739.937 1814.89,744.431 1817.52,748.53 1820.15,752.126 1822.78,755.293 1825.4,758.111 1828.03,760.541 1830.66,762.589 1833.29,764.153 1835.92,765.277 1838.55,765.939 1841.17,766.138 1843.8,766.065 1846.43,765.729 1849.06,765.217 1851.69,764.358 1854.31,762.946 1856.94,760.667 1859.57,757.32 1862.2,752.792 1864.83,747.202 1867.46,740.791 1870.08,733.859 1872.71,726.575 1875.34,719.024 1877.97,711.348 1880.6,703.697 1883.23,696.325 1885.85,689.593 1888.48,683.807 1891.11,679.284 1893.74,676.124 1896.37,674.309 1898.99,673.654 1901.62,673.937 1904.25,675.065 1906.88,676.952 1909.51,679.532 1912.14,682.787 1914.76,686.569 1917.39,690.761 1920.02,695.159 1922.65,699.662 1925.28,704.084 1927.9,708.26 1930.53,712.148 1933.16,715.827 1935.79,719.332 1938.42,722.791 1941.05,726.309 1943.67,730.248 1946.3,734.708 1948.93,739.375 1951.56,744.088 1954.19,748.992 1956.82,754.164 1959.44,759.514 1962.07,764.98 1964.7,771.658 1967.33,778.426 1969.96,785.399 1972.58,793.704 1975.21,802.866 1977.84,813.851 1980.47,825.408 1983.1,837.667 1985.73,850.882 1988.35,864.673 1990.98,879.24 1993.61,893.495 1996.24,907.042 1998.87,919.97 2001.49,931.854 2004.12,942.566 2006.75,951.492 2009.38,958.242 2012.01,962.691 2014.64,964.6 2017.26,963.93 2019.89,960.484 2022.52,954.154 2025.15,944.827 2027.78,932.378 2030.41,916.772 2033.03,898.161 2035.66,876.742 2038.29,852.804 2040.92,826.597 2043.55,798.49 2046.17,768.863 2048.8,738.126 2051.43,706.789 2054.06,675.412 2056.69,644.487 2059.32,614.502 2061.94,585.856 2064.57,559.05 2067.2,534.365 2069.83,512.186 2072.46,492.821 2075.08,476.534 2077.71,463.372 2080.34,453.331 2082.97,446.395 2085.6,442.459 2088.23,441.378 2090.85,442.995 2093.48,447.212 2096.11,453.826 2098.74,462.66 2101.37,473.616 2104,486.48 2106.62,501.137 2109.25,517.403 2111.88,535.207 2114.51,554.324 2117.14,574.375 2119.76,595.154 2122.39,616.24 2125.02,637.37 2127.65,658.305 2130.28,678.891 2132.91,699.154 2135.53,719.089 2138.16,738.878 2140.79,758.509 2143.42,778.006 2146.05,797.375 2148.67,816.421 2151.3,834.94 2153.93,852.639 2156.56,869.279 2159.19,884.432 2161.82,897.773 2164.44,909.189 2167.07,918.604 2169.7,926.174 2172.33,932.138 2174.96,936.711 2177.59,939.791 2180.21,941.072 2182.84,940.276 2185.47,937.303 2188.1,932.349 2190.73,925.669 2193.35,917.462 2195.98,907.816 2198.61,896.881 2201.24,885.044 2203.87,872.771 2206.5,860.636 2209.12,848.888 2211.75,837.596 2214.38,826.664 2217.01,816.085 2219.64,806.161 2222.26,797.458 2224.89,790.643 2227.52,786.129 2230.15,783.972 2232.78,784.055 2235.41,786.104 2238.03,789.976 2240.66,795.644 2243.29,803.227 2245.92,812.792 2248.55,824.226 2251.18,837.139 2253.8,850.934 2256.43,864.784 2259.06,877.966 2261.69,889.771 2264.32,899.666 2266.94,906.922 2269.57,910.946 2272.2,910.954 2274.83,906.401 2277.46,896.928 2280.09,882.618 2282.71,864.01 2285.34,841.66 2287.97,815.995 2290.6,787.259 2293.23,755.201 "/>
<polyline clip-path="url(#clip542)" style="stroke:#4a7945; stroke-linecap:round; stroke-linejoin:round; stroke-width:8; stroke-opacity:1; fill:none" stroke-dasharray="4, 8" points="308.924,717.287 311.552,715.107 314.18,713.011 316.808,711.024 319.437,709.176 322.065,707.493 324.693,706.006 327.321,704.743 329.95,703.734 332.578,703.007 335.206,702.59 337.834,702.511 340.462,702.795 343.091,703.466 345.719,704.546 348.347,706.054 350.975,708.006 353.603,710.417 356.232,713.294 358.86,716.645 361.488,720.471 364.116,724.768 366.745,729.53 369.373,734.742 372.001,740.388 374.629,746.444 377.257,752.881 379.886,759.665 382.514,766.755 385.142,774.106 387.77,781.669 390.399,789.386 393.027,797.196 395.655,805.035 398.283,812.832 400.911,820.514 403.54,828.004 406.168,835.222 408.796,842.086 411.424,848.513 414.052,854.419 416.681,859.72 419.309,864.333 421.937,868.177 424.565,871.173 427.194,873.246 429.822,874.325 432.45,874.346 435.078,873.25 437.706,870.985 440.335,867.509 442.963,862.786 445.591,856.792 448.219,849.513 450.847,840.947 453.476,831.102 456.104,819.999 458.732,807.672 461.36,794.168 463.989,779.545 466.617,763.879 469.245,747.253 471.873,729.767 474.501,711.532 477.13,692.671 479.758,673.319 482.386,653.621 485.014,633.731 487.643,613.813 490.271,594.037 492.899,574.581 495.527,555.625 498.155,537.354 500.784,519.954 503.412,503.611 506.04,488.509 508.668,474.828 511.296,462.744 513.925,452.422 516.553,444.021 519.181,437.689 521.809,433.558 524.438,431.747 527.066,432.36 529.694,435.482 532.322,441.178 534.95,449.494 537.579,460.452 540.207,474.054 542.835,490.278 545.463,509.076 548.091,530.377 550.72,554.087 553.348,580.086 555.976,608.229 558.604,638.351 561.233,670.261 563.861,703.748 566.489,738.582 569.117,774.513 571.745,811.273 574.374,848.583 577.002,886.147 579.63,923.662 582.258,960.816 584.886,997.291 587.515,1032.77 590.143,1066.93 592.771,1099.46 595.399,1130.05 598.028,1158.41 600.656,1184.23 603.284,1207.26 605.912,1227.24 608.54,1243.94 611.169,1257.15 613.797,1266.68 616.425,1272.38 619.053,1274.13 621.682,1271.83 624.31,1265.42 626.938,1254.88 629.566,1240.21 632.194,1221.47 634.823,1198.72 637.451,1172.09 640.079,1141.73 642.707,1107.83 645.335,1070.6 647.964,1030.3 650.592,987.204 653.22,941.629 655.848,893.907 658.477,844.395 661.105,793.47 663.733,741.527 666.361,688.973 668.989,636.224 671.618,583.705 674.246,531.841 676.874,481.055 679.502,431.768 682.13,384.388 684.759,339.312 687.387,296.922 690.015,257.578 692.643,221.617 695.272,189.35 697.9,161.057 700.528,136.988 703.156,117.357 705.784,102.342 708.413,92.0823 711.041,86.6772 713.669,86.1857 716.297,90.6251 718.926,99.9712 721.554,114.158 724.182,133.079 726.81,156.587 729.438,184.497 732.067,216.586 734.695,252.595 737.323,292.234 739.951,335.183 742.579,381.092 745.208,429.59 747.836,480.285 750.464,532.765 753.092,586.607 755.721,641.378 758.349,696.639 760.977,751.949 763.605,806.869 766.233,860.967 768.862,913.819 771.49,965.015 774.118,1014.16 776.746,1060.89 779.374,1104.85 782.003,1145.71 784.631,1183.19 787.259,1217.01 789.887,1246.95 792.516,1272.82 795.144,1294.45 797.772,1311.72 800.4,1324.54 803.028,1332.88 805.657,1336.71 808.285,1336.07 810.913,1331.02 813.541,1321.66 816.169,1308.13 818.798,1290.58 821.426,1269.22 824.054,1244.27 826.682,1215.99 829.311,1184.63 831.939,1150.5 834.567,1113.9 837.195,1075.16 839.823,1034.62 842.452,992.619 845.08,949.507 847.708,905.634 850.336,861.35 852.965,817.003 855.593,772.931 858.221,729.465 860.849,686.921 863.477,645.605 866.106,605.804 868.734,567.786 871.362,531.801 873.99,498.077 876.618,466.817 879.247,438.203 881.875,412.392 884.503,389.514 887.131,369.677 889.76,352.959 892.388,339.417 895.016,329.081 897.644,321.957 900.272,318.028 902.901,317.252 905.529,319.569 908.157,324.895 910.785,333.129 913.413,344.151 916.042,357.824 918.67,373.999 921.298,392.511 923.926,413.185 926.555,435.833 929.183,460.261 931.811,486.269 934.439,513.648 937.067,542.188 939.696,571.676 942.324,601.896 944.952,632.635 947.58,663.679 950.209,694.818 952.837,725.846 955.465,756.56 958.093,786.765 960.721,816.271 963.35,844.897 965.978,872.468 968.606,898.82 971.234,923.797 973.862,947.253 976.491,969.055 979.119,989.078 981.747,1007.21 984.375,1023.35 987.004,1037.41 989.632,1049.32 992.26,1059.01 994.888,1066.43 997.516,1071.55 1000.14,1074.35 1002.77,1074.81 1005.4,1072.94 1008.03,1068.75 1010.66,1062.29 1013.29,1053.6 1015.91,1042.73 1018.54,1029.77 1021.17,1014.79 1023.8,997.904 1026.43,979.216 1029.05,958.854 1031.68,936.955 1034.31,913.667 1036.94,889.148 1039.57,863.565 1042.2,837.095 1044.82,809.922 1047.45,782.236 1050.08,754.234 1052.71,726.113 1055.34,698.078 1057.97,670.331 1060.59,643.075 1063.22,616.511 1065.85,590.838 1068.48,566.248 1071.11,542.928 1073.73,521.054 1076.36,500.796 1078.99,482.309 1081.62,465.739 1084.25,451.214 1086.88,438.849 1089.5,428.741 1092.13,420.972 1094.76,415.601 1097.39,412.671 1100.02,412.205 1102.65,414.204 1105.27,418.65 1107.9,425.504 1110.53,434.707 1113.16,446.18 1115.79,459.824 1118.41,475.523 1121.04,493.142 1123.67,512.531 1126.3,533.524 1128.93,555.943 1131.56,579.597 1134.18,604.284 1136.81,629.797 1139.44,655.919 1142.07,682.433 1144.7,709.116 1147.32,735.749 1149.95,762.111 1152.58,787.989 1155.21,813.175 1157.84,837.468 1160.47,860.679 1163.09,882.63 1165.72,903.156 1168.35,922.109 1170.98,939.356 1173.61,954.78 1176.24,968.284 1178.86,979.79 1181.49,989.239 1184.12,996.592 1186.75,1001.83 1189.38,1004.95 1192,1005.98 1194.63,1004.95 1197.26,1001.92 1199.89,996.969 1202.52,990.18 1205.15,981.66 1207.77,971.528 1210.4,959.914 1213.03,946.959 1215.66,932.813 1218.29,917.631 1220.91,901.575 1223.54,884.81 1226.17,867.504 1228.8,849.823 1231.43,831.931 1234.06,813.992 1236.68,796.161 1239.31,778.588 1241.94,761.418 1244.57,744.784 1247.2,728.809 1249.83,713.608 1252.45,699.282 1255.08,685.92 1257.71,673.599 1260.34,662.383 1262.97,652.322 1265.59,643.455 1268.22,635.805 1270.85,629.385 1273.48,624.195 1276.11,620.221 1278.74,617.441 1281.36,615.822 1283.99,615.321 1286.62,615.885 1289.25,617.455 1291.88,619.966 1294.5,623.346 1297.13,627.519 1299.76,632.404 1302.39,637.92 1305.02,643.983 1307.65,650.508 1310.27,657.411 1312.9,664.609 1315.53,672.022 1318.16,679.571 1320.79,687.182 1323.42,694.785 1326.04,702.314 1328.67,709.706 1331.3,716.908 1333.93,723.869 1336.56,730.544 1339.18,736.895 1341.81,742.889 1344.44,748.499 1347.07,753.703 1349.7,758.487 1352.33,762.839 1354.95,766.753 1357.58,770.228 1360.21,773.268 1362.84,775.879 1365.47,778.07 1368.09,779.856 1370.72,781.252 1373.35,782.276 1375.98,782.946 1378.61,783.285 1381.24,783.312 1383.86,783.05 1386.49,782.521 1389.12,781.747 1391.75,780.749 1394.38,779.548 1397.01,778.164 1399.63,776.614 1402.26,774.916 1404.89,773.087 1407.52,771.141 1410.15,769.091 1412.77,766.95 1415.4,764.727 1418.03,762.433 1420.66,760.076 1423.29,757.662 1425.92,755.2 1428.54,752.695 1431.17,750.153 1433.8,747.578 1436.43,744.977 1439.06,742.355 1441.68,739.717 1444.31,737.071 1446.94,734.423 1449.57,731.782 1452.2,729.156 1454.83,726.556 1457.45,723.993 1460.08,721.479 1462.71,719.028 1465.34,716.656 1467.97,714.378 1470.6,712.212 1473.22,710.177 1475.85,708.291 1478.48,706.574 1481.11,705.048 1483.74,703.734 1486.36,702.651 1488.99,701.821 1491.62,701.264 1494.25,701 1496.88,701.046 1499.51,701.419 1502.13,702.135 1504.76,703.206 1507.39,704.643 1510.02,706.454 1512.65,708.642 1515.27,711.211 1517.9,714.157 1520.53,717.475 1523.16,721.156 1525.79,725.186 1528.42,729.548 1531.04,734.219 1533.67,739.174 1536.3,744.383 1538.93,749.813 1541.56,755.426 1544.19,761.181 1546.81,767.034 1549.44,772.938 1552.07,778.842 1554.7,784.697 1557.33,790.447 1559.95,796.038 1562.58,801.415 1565.21,806.523 1567.84,811.307 1570.47,815.712 1573.1,819.687 1575.72,823.182 1578.35,826.15 1580.98,828.547 1583.61,830.335 1586.24,831.478 1588.86,831.946 1591.49,831.715 1594.12,830.768 1596.75,829.091 1599.38,826.68 1602.01,823.536 1604.63,819.668 1607.26,815.09 1609.89,809.827 1612.52,803.907 1615.15,797.366 1617.78,790.249 1620.4,782.605 1623.03,774.488 1625.66,765.961 1628.29,757.088 1630.92,747.942 1633.54,738.595 1636.17,729.125 1638.8,719.611 1641.43,710.136 1644.06,700.78 1646.69,691.626 1649.31,682.754 1651.94,674.244 1654.57,666.173 1657.2,658.613 1659.83,651.635 1662.46,645.303 1665.08,639.675 1667.71,634.805 1670.34,630.738 1672.97,627.513 1675.6,625.161 1678.22,623.706 1680.85,623.162 1683.48,623.535 1686.11,624.825 1688.74,627.019 1691.37,630.099 1693.99,634.037 1696.62,638.8 1699.25,644.343 1701.88,650.617 1704.51,657.567 1707.13,665.128 1709.76,673.235 1712.39,681.815 1715.02,690.791 1717.65,700.084 1720.28,709.613 1722.9,719.295 1725.53,729.047 1728.16,738.785 1730.79,748.428 1733.42,757.895 1736.05,767.109 1738.67,775.996 1741.3,784.486 1743.93,792.514 1746.56,800.02 1749.19,806.95 1751.81,813.256 1754.44,818.898 1757.07,823.842 1759.7,828.06 1762.33,831.533 1764.96,834.249 1767.58,836.202 1770.21,837.393 1772.84,837.833 1775.47,837.535 1778.1,836.523 1780.72,834.822 1783.35,832.466 1785.98,829.494 1788.61,825.945 1791.24,821.868 1793.87,817.309 1796.49,812.321 1799.12,806.957 1801.75,801.271 1804.38,795.319 1807.01,789.154 1809.64,782.832 1812.26,776.406 1814.89,769.927 1817.52,763.445 1820.15,757.006 1822.78,750.655 1825.4,744.433 1828.03,738.376 1830.66,732.52 1833.29,726.893 1835.92,721.523 1838.55,716.432 1841.17,711.64 1843.8,707.163 1846.43,703.013 1849.06,699.2 1851.69,695.731 1854.31,692.611 1856.94,689.844 1859.57,687.429 1862.2,685.369 1864.83,683.662 1867.46,682.308 1870.08,681.306 1872.71,680.656 1875.34,680.358 1877.97,680.414 1880.6,680.825 1883.23,681.597 1885.85,682.733 1888.48,684.242 1891.11,686.13 1893.74,688.408 1896.37,691.084 1898.99,694.17 1901.62,697.677 1904.25,701.615 1906.88,705.995 1909.51,710.824 1912.14,716.11 1914.76,721.855 1917.39,728.062 1920.02,734.724 1922.65,741.836 1925.28,749.381 1927.9,757.34 1930.53,765.687 1933.16,774.386 1935.79,783.396 1938.42,792.666 1941.05,802.14 1943.67,811.749 1946.3,821.42 1948.93,831.07 1951.56,840.61 1954.19,849.942 1956.82,858.963 1959.44,867.565 1962.07,875.637 1964.7,883.063 1967.33,889.727 1969.96,895.512 1972.58,900.305 1975.21,903.994 1977.84,906.474 1980.47,907.647 1983.1,907.424 1985.73,905.726 1988.35,902.487 1990.98,897.656 1993.61,891.196 1996.24,883.09 1998.87,873.336 2001.49,861.954 2004.12,848.982 2006.75,834.479 2009.38,818.524 2012.01,801.218 2014.64,782.68 2017.26,763.05 2019.89,742.483 2022.52,721.154 2025.15,699.25 2027.78,676.973 2030.41,654.534 2033.03,632.153 2035.66,610.056 2038.29,588.47 2040.92,567.623 2043.55,547.74 2046.17,529.039 2048.8,511.728 2051.43,496.005 2054.06,482.052 2056.69,470.033 2059.32,460.093 2061.94,452.353 2064.57,446.912 2067.2,443.844 2069.83,443.194 2072.46,444.983 2075.08,449.2 2077.71,455.809 2080.34,464.747 2082.97,475.922 2085.6,489.219 2088.23,504.498 2090.85,521.597 2093.48,540.335 2096.11,560.511 2098.74,581.913 2101.37,604.315 2104,627.483 2106.62,651.177 2109.25,675.154 2111.88,699.174 2114.51,722.998 2117.14,746.396 2119.76,769.146 2122.39,791.04 2125.02,811.882 2127.65,831.495 2130.28,849.722 2132.91,866.422 2135.53,881.48 2138.16,894.802 2140.79,906.315 2143.42,915.971 2146.05,923.745 2148.67,929.635 2151.3,933.658 2153.93,935.856 2156.56,936.287 2159.19,935.027 2161.82,932.171 2164.44,927.825 2167.07,922.109 2169.7,915.153 2172.33,907.094 2174.96,898.075 2177.59,888.244 2180.21,877.748 2182.84,866.737 2185.47,855.355 2188.1,843.744 2190.73,832.039 2193.35,820.37 2195.98,808.855 2198.61,797.605 2201.24,786.72 2203.87,776.289 2206.5,766.39 2209.12,757.088 2211.75,748.437 2214.38,740.478 2217.01,733.243 2219.64,726.752 2222.26,721.012 2224.89,716.024 2227.52,711.777 2230.15,708.254 2232.78,705.429 2235.41,703.271 2238.03,701.741 2240.66,700.798 2243.29,700.397 2245.92,700.49 2248.55,701.027 2251.18,701.957 2253.8,703.23 2256.43,704.795 2259.06,706.604 2261.69,708.609 2264.32,710.765 2266.94,713.03 2269.57,715.365 2272.2,717.733 2274.83,720.102 2277.46,722.442 2280.09,724.729 2282.71,726.94 2285.34,729.056 2287.97,731.063 2290.6,732.948 2293.23,734.702 "/>
<path clip-path="url(#clip540)" d="M1964.61 275.122 L2282.64 275.122 L2282.64 93.1086 L1964.61 93.1086  Z" fill="#ffffff" fill-rule="evenodd" fill-opacity="1"/>
<polyline clip-path="url(#clip540)" style="stroke:#000000; stroke-linecap:round; stroke-linejoin:round; stroke-width:4; stroke-opacity:1; fill:none" points="1964.61,275.122 2282.64,275.122 2282.64,93.1086 1964.61,93.1086 1964.61,275.122 "/>
<polyline clip-path="url(#clip540)" style="stroke:#ba3d3a; stroke-linecap:round; stroke-linejoin:round; stroke-width:8; stroke-opacity:1; fill:none" points="1987.98,153.78 2128.2,153.78 "/>
<path clip-path="url(#clip540)" d="M2173.99 149.587 Q2173.99 150.899 2173.59 152.374 L2168.14 174.087 Q2167.64 176.008 2166.17 176.008 Q2165.56 176.008 2165.18 175.633 Q2164.83 175.281 2164.83 174.719 Q2164.83 174.532 2164.97 173.946 L2170.43 151.882 Q2170.92 149.868 2170.92 148.861 Q2170.92 145.512 2168.32 145.512 Q2166.03 145.512 2163.73 147.198 Q2162.68 148.041 2161.65 149.564 Q2160.64 151.063 2160.45 151.601 Q2160.24 152.819 2159.94 153.756 Q2159.8 154.412 2159.12 156.965 L2158.06 161.298 Q2157.31 164.531 2157.15 164.835 Q2156.92 165.491 2156.4 165.842 Q2155.89 166.194 2155.37 166.194 Q2154.78 166.194 2154.39 165.842 Q2153.99 165.491 2153.99 164.882 Q2153.99 164.788 2154.06 164.437 Q2154.13 164.086 2154.25 163.594 Q2154.36 163.102 2154.41 162.821 L2157.2 151.742 Q2157.71 149.728 2157.83 149.095 Q2157.97 148.439 2157.97 147.713 Q2157.97 146.448 2157.57 145.98 Q2157.17 145.512 2156.47 145.512 Q2155.25 145.512 2154.46 146.964 Q2153.66 148.416 2152.98 151.227 Q2152.77 152 2152.63 152.164 Q2152.51 152.327 2152.16 152.327 Q2151.58 152.304 2151.58 151.836 Q2151.58 151.719 2151.76 150.969 Q2151.95 150.196 2152.3 149.072 Q2152.68 147.924 2153.07 147.198 Q2153.31 146.706 2153.52 146.378 Q2153.73 146.05 2154.15 145.535 Q2154.57 145.02 2155.21 144.739 Q2155.84 144.458 2156.61 144.458 Q2158.32 144.458 2159.59 145.558 Q2160.87 146.659 2161.04 148.627 Q2161.53 147.901 2162.16 147.245 Q2162.82 146.589 2163.73 145.933 Q2164.65 145.254 2165.89 144.856 Q2167.13 144.458 2168.46 144.458 Q2171.13 144.458 2172.56 145.839 Q2173.99 147.198 2173.99 149.587 Z" fill="#000000" fill-rule="nonzero" fill-opacity="1" /><path clip-path="url(#clip540)" d="M2180.92 153.663 Q2180.92 145.558 2183.94 139.024 Q2185.23 136.283 2187.04 133.988 Q2188.84 131.692 2190.03 130.685 Q2191.23 129.678 2191.56 129.678 Q2192.03 129.678 2192.05 130.146 Q2192.05 130.381 2191.42 130.966 Q2183.69 138.836 2183.71 153.663 Q2183.71 168.536 2191.23 176.101 Q2192.05 176.921 2192.05 177.179 Q2192.05 177.647 2191.56 177.647 Q2191.23 177.647 2190.08 176.687 Q2188.93 175.727 2187.15 173.525 Q2185.37 171.323 2184.09 168.63 Q2180.92 162.095 2180.92 153.663 Z" fill="#000000" fill-rule="nonzero" fill-opacity="1" /><path clip-path="url(#clip540)" d="M2210.42 145.512 Q2210.42 146.167 2210.12 146.331 Q2209.81 146.472 2208.97 146.472 L2204.47 146.472 L2200.91 160.619 Q2200.63 161.86 2200.63 162.914 Q2200.63 164.086 2200.98 164.601 Q2201.36 165.116 2202.13 165.116 Q2203.65 165.116 2205.29 163.734 Q2206.96 162.352 2208.36 158.979 Q2208.55 158.534 2208.64 158.441 Q2208.76 158.324 2209.07 158.324 Q2209.65 158.324 2209.65 158.792 Q2209.65 158.956 2209.32 159.706 Q2209.02 160.455 2208.34 161.556 Q2207.68 162.657 2206.82 163.687 Q2205.97 164.718 2204.69 165.467 Q2203.4 166.194 2202.01 166.194 Q2200.07 166.194 2198.83 164.952 Q2197.61 163.711 2197.61 161.767 Q2197.61 161.134 2198.1 159.12 Q2198.6 157.082 2201.27 146.472 L2197.03 146.472 Q2196.44 146.472 2196.21 146.448 Q2196 146.425 2195.83 146.308 Q2195.69 146.167 2195.69 145.886 Q2195.69 145.441 2195.88 145.254 Q2196.07 145.043 2196.3 145.02 Q2196.56 144.973 2197.14 144.973 L2201.64 144.973 L2203.51 137.361 Q2203.7 136.611 2204.17 136.189 Q2204.66 135.744 2204.94 135.698 Q2205.22 135.627 2205.43 135.627 Q2206.07 135.627 2206.44 135.979 Q2206.82 136.307 2206.82 136.916 Q2206.82 137.243 2204.85 144.973 L2209.07 144.973 Q2209.6 144.973 2209.81 144.996 Q2210.05 145.02 2210.24 145.137 Q2210.42 145.254 2210.42 145.512 Z" fill="#000000" fill-rule="nonzero" fill-opacity="1" /><path clip-path="url(#clip540)" d="M2214.17 177.179 Q2214.17 176.944 2214.78 176.359 Q2222.51 168.489 2222.51 153.663 Q2222.51 138.789 2215.09 131.271 Q2214.17 130.404 2214.17 130.146 Q2214.17 129.678 2214.64 129.678 Q2214.97 129.678 2216.12 130.638 Q2217.29 131.599 2219.05 133.8 Q2220.83 136.002 2222.14 138.696 Q2225.3 145.23 2225.3 153.663 Q2225.3 161.767 2222.28 168.302 Q2220.99 171.042 2219.19 173.337 Q2217.38 175.633 2216.19 176.64 Q2214.99 177.647 2214.64 177.647 Q2214.17 177.647 2214.17 177.179 Z" fill="#000000" fill-rule="nonzero" fill-opacity="1" /><polyline clip-path="url(#clip540)" style="stroke:#4a7945; stroke-linecap:round; stroke-linejoin:round; stroke-width:8; stroke-opacity:1; fill:none" stroke-dasharray="4, 8" points="1987.98,214.451 2128.2,214.451 "/>
<path clip-path="url(#clip540)" d="M2173.99 203.673 Q2173.99 204.984 2173.59 206.46 L2168.14 228.173 Q2167.64 230.093 2166.17 230.093 Q2165.56 230.093 2165.18 229.718 Q2164.83 229.367 2164.83 228.805 Q2164.83 228.618 2164.97 228.032 L2170.43 205.968 Q2170.92 203.954 2170.92 202.947 Q2170.92 199.597 2168.32 199.597 Q2166.03 199.597 2163.73 201.284 Q2162.68 202.127 2161.65 203.649 Q2160.64 205.148 2160.45 205.687 Q2160.24 206.905 2159.94 207.842 Q2159.8 208.498 2159.12 211.051 L2158.06 215.384 Q2157.31 218.616 2157.15 218.921 Q2156.92 219.577 2156.4 219.928 Q2155.89 220.279 2155.37 220.279 Q2154.78 220.279 2154.39 219.928 Q2153.99 219.577 2153.99 218.968 Q2153.99 218.874 2154.06 218.523 Q2154.13 218.171 2154.25 217.679 Q2154.36 217.187 2154.41 216.906 L2157.2 205.828 Q2157.71 203.813 2157.83 203.181 Q2157.97 202.525 2157.97 201.799 Q2157.97 200.534 2157.57 200.066 Q2157.17 199.597 2156.47 199.597 Q2155.25 199.597 2154.46 201.049 Q2153.66 202.502 2152.98 205.312 Q2152.77 206.085 2152.63 206.249 Q2152.51 206.413 2152.16 206.413 Q2151.58 206.39 2151.58 205.921 Q2151.58 205.804 2151.76 205.055 Q2151.95 204.282 2152.3 203.157 Q2152.68 202.01 2153.07 201.284 Q2153.31 200.792 2153.52 200.464 Q2153.73 200.136 2154.15 199.621 Q2154.57 199.105 2155.21 198.824 Q2155.84 198.543 2156.61 198.543 Q2158.32 198.543 2159.59 199.644 Q2160.87 200.745 2161.04 202.712 Q2161.53 201.986 2162.16 201.33 Q2162.82 200.675 2163.73 200.019 Q2164.65 199.34 2165.89 198.941 Q2167.13 198.543 2168.46 198.543 Q2171.13 198.543 2172.56 199.925 Q2173.99 201.284 2173.99 203.673 Z" fill="#000000" fill-rule="nonzero" fill-opacity="1" /><path clip-path="url(#clip540)" d="M2202.72 220.723 L2200.61 229.281 Q2200.46 229.822 2200.36 229.888 Q2200.28 229.954 2200.02 229.954 Q2199.51 229.954 2199.51 229.609 Q2199.51 229.577 2199.56 229.15 Q2199.61 228.708 2199.61 227.904 Q2199.61 224.937 2198.16 223.182 Q2196.74 221.428 2194.2 221.428 Q2191.82 221.428 2189.54 222.674 Q2187.26 223.92 2185.8 225.756 Q2184.57 227.265 2183.72 229.101 Q2182.88 230.937 2182.54 232.544 Q2182.2 234.135 2182.06 235.102 Q2181.95 236.069 2181.95 236.692 Q2181.95 238.529 2182.54 239.955 Q2183.13 241.365 2184.11 242.168 Q2185.11 242.972 2186.26 243.365 Q2187.43 243.759 2188.69 243.759 Q2189.16 243.759 2189.74 243.693 Q2190.31 243.628 2191.2 243.382 Q2192.1 243.136 2192.84 242.726 Q2193.59 242.316 2194.25 241.529 Q2194.92 240.742 2195.18 239.693 Q2195.89 237.02 2195.89 236.627 Q2195.89 236.299 2195.69 236.184 Q2195.49 236.069 2194.84 235.987 L2193.07 235.922 Q2193.03 235.922 2192.98 235.922 Q2192.67 235.922 2192.54 235.922 Q2192.41 235.905 2192.26 235.872 Q2192.13 235.84 2192.08 235.774 Q2192.05 235.692 2192.05 235.561 Q2192.05 235.249 2192.18 235.102 Q2192.31 234.938 2192.43 234.922 Q2192.54 234.889 2192.75 234.889 L2197.46 234.987 Q2197.84 234.987 2199.21 234.938 Q2200.59 234.889 2200.98 234.889 Q2201.43 234.889 2201.43 235.249 Q2201.43 235.922 2200.89 235.922 Q2200.35 235.938 2200.07 235.954 Q2199.79 235.954 2199.51 236.036 Q2199.25 236.118 2199.15 236.184 Q2199.05 236.233 2198.92 236.479 Q2198.79 236.709 2198.74 236.905 Q2198.69 237.086 2198.57 237.545 Q2198.51 237.84 2198.34 238.397 Q2198.2 238.955 2198.13 239.25 L2197.49 241.841 Q2197.05 243.759 2196.92 243.89 Q2196.85 244.021 2196.69 244.021 Q2196.44 244.021 2195.92 243.3 Q2195.41 242.578 2195.18 241.939 Q2194.77 242.382 2194.51 242.644 Q2194.25 242.89 2193.64 243.283 Q2193.05 243.677 2192.26 243.988 Q2190.34 244.792 2188.06 244.792 Q2184 244.792 2181.44 242.218 Q2178.88 239.627 2178.88 235.594 Q2178.88 232.741 2180.19 229.937 Q2181.51 227.134 2183.59 225.051 Q2185.67 222.969 2188.43 221.674 Q2191.18 220.379 2193.93 220.379 Q2194.98 220.379 2195.92 220.657 Q2196.85 220.936 2197.41 221.28 Q2197.98 221.625 2198.49 222.133 Q2199 222.625 2199.16 222.854 Q2199.34 223.084 2199.51 223.363 L2201.85 220.788 Q2202.26 220.379 2202.36 220.379 Q2202.56 220.379 2202.64 220.493 Q2202.72 220.608 2202.72 220.723 Z" fill="#000000" fill-rule="nonzero" fill-opacity="1" /><path clip-path="url(#clip540)" d="M2207.61 207.748 Q2207.61 199.644 2210.63 193.109 Q2211.92 190.369 2213.72 188.073 Q2215.52 185.778 2216.72 184.771 Q2217.91 183.764 2218.24 183.764 Q2218.71 183.764 2218.73 184.232 Q2218.73 184.466 2218.1 185.052 Q2210.37 192.922 2210.39 207.748 Q2210.39 222.621 2217.91 230.187 Q2218.73 231.007 2218.73 231.264 Q2218.73 231.733 2218.24 231.733 Q2217.91 231.733 2216.76 230.772 Q2215.62 229.812 2213.84 227.61 Q2212.06 225.409 2210.77 222.715 Q2207.61 216.18 2207.61 207.748 Z" fill="#000000" fill-rule="nonzero" fill-opacity="1" /><path clip-path="url(#clip540)" d="M2237.11 199.597 Q2237.11 200.253 2236.8 200.417 Q2236.5 200.558 2235.65 200.558 L2231.16 200.558 L2227.6 214.705 Q2227.32 215.946 2227.32 217 Q2227.32 218.171 2227.67 218.686 Q2228.04 219.202 2228.81 219.202 Q2230.34 219.202 2231.98 217.82 Q2233.64 216.438 2235.05 213.065 Q2235.23 212.62 2235.33 212.526 Q2235.44 212.409 2235.75 212.409 Q2236.33 212.409 2236.33 212.878 Q2236.33 213.042 2236.01 213.791 Q2235.7 214.541 2235.02 215.642 Q2234.37 216.742 2233.5 217.773 Q2232.66 218.804 2231.37 219.553 Q2230.08 220.279 2228.7 220.279 Q2226.75 220.279 2225.51 219.038 Q2224.29 217.796 2224.29 215.852 Q2224.29 215.22 2224.79 213.206 Q2225.28 211.168 2227.95 200.558 L2223.71 200.558 Q2223.12 200.558 2222.89 200.534 Q2222.68 200.511 2222.51 200.394 Q2222.37 200.253 2222.37 199.972 Q2222.37 199.527 2222.56 199.34 Q2222.75 199.129 2222.98 199.105 Q2223.24 199.058 2223.83 199.058 L2228.32 199.058 L2230.2 191.446 Q2230.38 190.697 2230.85 190.275 Q2231.34 189.83 2231.63 189.783 Q2231.91 189.713 2232.12 189.713 Q2232.75 189.713 2233.12 190.064 Q2233.5 190.392 2233.5 191.001 Q2233.5 191.329 2231.53 199.058 L2235.75 199.058 Q2236.29 199.058 2236.5 199.082 Q2236.73 199.105 2236.92 199.222 Q2237.11 199.34 2237.11 199.597 Z" fill="#000000" fill-rule="nonzero" fill-opacity="1" /><path clip-path="url(#clip540)" d="M2240.86 231.264 Q2240.86 231.03 2241.47 230.445 Q2249.2 222.575 2249.2 207.748 Q2249.2 192.875 2241.77 185.356 Q2240.86 184.49 2240.86 184.232 Q2240.86 183.764 2241.33 183.764 Q2241.65 183.764 2242.8 184.724 Q2243.97 185.684 2245.73 187.886 Q2247.51 190.088 2248.82 192.781 Q2251.98 199.316 2251.98 207.748 Q2251.98 215.852 2248.96 222.387 Q2247.67 225.128 2245.87 227.423 Q2244.07 229.718 2242.87 230.726 Q2241.68 231.733 2241.33 231.733 Q2240.86 231.733 2240.86 231.264 Z" fill="#000000" fill-rule="nonzero" fill-opacity="1" /></svg>
