<?xml version="1.0" encoding="utf-8"?>
<svg xmlns="http://www.w3.org/2000/svg" xmlns:xlink="http://www.w3.org/1999/xlink" width="600" height="400" viewBox="0 0 2400 1600">
<defs>
  <clipPath id="clip620">
    <rect x="0" y="0" width="2400" height="1600"/>
  </clipPath>
</defs>
<path clip-path="url(#clip620)" d="M0 1600 L2400 1600 L2400 0 L0 0  Z" fill="#ffffff" fill-rule="evenodd" fill-opacity="1"/>
<defs>
  <clipPath id="clip621">
    <rect x="480" y="0" width="1681" height="1600"/>
  </clipPath>
</defs>
<path clip-path="url(#clip620)" d="M248.851 1423.18 L2352.76 1423.18 L2352.76 108.933 L248.851 108.933  Z" fill="#ffffff" fill-rule="evenodd" fill-opacity="1"/>
<defs>
  <clipPath id="clip622">
    <rect x="248" y="108" width="2105" height="1315"/>
  </clipPath>
</defs>
<polyline clip-path="url(#clip622)" style="stroke:#000000; stroke-linecap:round; stroke-linejoin:round; stroke-width:2; stroke-opacity:0.1; fill:none" points="290.97,1423.18 290.97,108.933 "/>
<polyline clip-path="url(#clip622)" style="stroke:#000000; stroke-linecap:round; stroke-linejoin:round; stroke-width:2; stroke-opacity:0.1; fill:none" points="709.193,1423.18 709.193,108.933 "/>
<polyline clip-path="url(#clip622)" style="stroke:#000000; stroke-linecap:round; stroke-linejoin:round; stroke-width:2; stroke-opacity:0.1; fill:none" points="1127.42,1423.18 1127.42,108.933 "/>
<polyline clip-path="url(#clip622)" style="stroke:#000000; stroke-linecap:round; stroke-linejoin:round; stroke-width:2; stroke-opacity:0.1; fill:none" points="1545.64,1423.18 1545.64,108.933 "/>
<polyline clip-path="url(#clip622)" style="stroke:#000000; stroke-linecap:round; stroke-linejoin:round; stroke-width:2; stroke-opacity:0.1; fill:none" points="1963.86,1423.18 1963.86,108.933 "/>
<polyline clip-path="url(#clip620)" style="stroke:#000000; stroke-linecap:round; stroke-linejoin:round; stroke-width:4; stroke-opacity:1; fill:none" points="248.851,1423.18 2352.76,1423.18 "/>
<polyline clip-path="url(#clip620)" style="stroke:#000000; stroke-linecap:round; stroke-linejoin:round; stroke-width:4; stroke-opacity:1; fill:none" points="290.97,1423.18 290.97,1404.28 "/>
<polyline clip-path="url(#clip620)" style="stroke:#000000; stroke-linecap:round; stroke-linejoin:round; stroke-width:4; stroke-opacity:1; fill:none" points="709.193,1423.18 709.193,1404.28 "/>
<polyline clip-path="url(#clip620)" style="stroke:#000000; stroke-linecap:round; stroke-linejoin:round; stroke-width:4; stroke-opacity:1; fill:none" points="1127.42,1423.18 1127.42,1404.28 "/>
<polyline clip-path="url(#clip620)" style="stroke:#000000; stroke-linecap:round; stroke-linejoin:round; stroke-width:4; stroke-opacity:1; fill:none" points="1545.64,1423.18 1545.64,1404.28 "/>
<polyline clip-path="url(#clip620)" style="stroke:#000000; stroke-linecap:round; stroke-linejoin:round; stroke-width:4; stroke-opacity:1; fill:none" points="1963.86,1423.18 1963.86,1404.28 "/>
<path clip-path="url(#clip620)" d="M242.65 1477.43 Q242.65 1475.92 243.465 1475.35 Q244.28 1474.76 245.145 1474.76 Q246.306 1474.76 246.973 1475.5 Q247.665 1476.22 247.665 1477.23 Q247.665 1478.24 246.973 1478.98 Q246.306 1479.7 245.145 1479.7 Q244.577 1479.7 244.28 1479.6 Q244.947 1481.92 246.973 1483.6 Q249.023 1485.28 251.716 1485.28 Q255.101 1485.28 257.126 1482 Q258.337 1479.87 258.337 1475.06 Q258.337 1470.81 257.423 1468.68 Q256.015 1465.45 253.124 1465.45 Q249.023 1465.45 246.603 1468.98 Q246.306 1469.42 245.96 1469.45 Q245.466 1469.45 245.343 1469.18 Q245.244 1468.88 245.244 1468.11 L245.244 1453.14 Q245.244 1451.93 245.738 1451.93 Q245.936 1451.93 246.356 1452.08 Q249.542 1453.49 253.075 1453.51 Q256.706 1453.51 259.967 1452.03 Q260.214 1451.88 260.362 1451.88 Q260.856 1451.88 260.881 1452.45 Q260.881 1452.65 260.461 1453.24 Q260.066 1453.81 259.201 1454.58 Q258.337 1455.32 257.225 1456.03 Q256.113 1456.75 254.483 1457.25 Q252.877 1457.71 251.099 1457.71 Q248.974 1457.71 246.8 1457.05 L246.8 1466.9 Q249.419 1464.33 253.223 1464.33 Q257.274 1464.33 260.066 1467.6 Q262.857 1470.86 262.857 1475.4 Q262.857 1480.17 259.547 1483.43 Q256.262 1486.69 251.815 1486.69 Q247.764 1486.69 245.194 1483.8 Q242.65 1480.91 242.65 1477.43 Z" fill="#000000" fill-rule="nonzero" fill-opacity="1" /><path clip-path="url(#clip620)" d="M267.551 1463.27 Q267.551 1460.58 268.342 1458.75 Q269.132 1456.9 270.787 1455.07 Q273.826 1451.88 278.223 1451.88 Q280.1 1451.88 281.755 1452.67 Q283.435 1453.47 285.016 1455.27 Q286.622 1457.05 287.585 1460.58 Q288.549 1464.09 288.549 1468.93 Q288.549 1476.76 284.745 1481.73 Q280.965 1486.69 275.851 1486.69 Q272.615 1486.69 270.713 1485.23 Q268.811 1483.75 268.811 1481.23 Q268.811 1479.92 269.552 1479.38 Q270.293 1478.81 271.133 1478.81 Q272.047 1478.81 272.763 1479.43 Q273.48 1480.02 273.48 1481.13 Q273.48 1482.05 272.887 1482.76 Q272.319 1483.46 270.837 1483.46 Q272.294 1485.28 275.802 1485.28 Q277.062 1485.28 278.322 1484.72 Q279.582 1484.12 280.94 1482.71 Q282.324 1481.28 283.164 1478.29 Q284.003 1475.3 284.003 1471.1 L284.003 1469.5 Q281.978 1474.56 277.679 1474.56 Q273.43 1474.56 270.491 1471.3 Q267.551 1468.04 267.551 1463.27 M272.096 1463.32 Q272.096 1468.34 273.01 1470.19 Q274.567 1473.38 277.729 1473.38 Q280.817 1473.38 282.348 1470.63 Q283.905 1467.87 283.905 1464.29 Q283.905 1459.32 283.089 1457.15 Q281.583 1453.14 278.223 1453.14 Q274.888 1453.14 273.159 1456.33 Q272.096 1458.21 272.096 1463.32 Z" fill="#000000" fill-rule="nonzero" fill-opacity="1" /><path clip-path="url(#clip620)" d="M292.131 1477.23 L292.131 1475.67 L307.669 1451.93 Q308.065 1451.32 308.682 1451.34 Q309.25 1451.34 309.374 1451.56 Q309.497 1451.79 309.497 1452.65 L309.497 1475.67 L314.561 1475.67 L314.561 1477.23 L309.497 1477.23 L309.497 1481.63 Q309.497 1483.08 310.09 1483.55 Q310.708 1484.02 313.326 1484.02 L314.389 1484.02 L314.389 1485.58 Q312.313 1485.43 307.521 1485.43 Q302.753 1485.43 300.678 1485.58 L300.678 1484.02 L301.74 1484.02 Q304.359 1484.02 304.977 1483.58 Q305.594 1483.11 305.594 1481.63 L305.594 1477.23 L292.131 1477.23 M293.564 1475.67 L305.891 1475.67 L305.891 1456.8 L293.564 1475.67 Z" fill="#000000" fill-rule="nonzero" fill-opacity="1" /><path clip-path="url(#clip620)" d="M317.995 1469.4 Q317.995 1461.96 319.873 1457.91 Q322.491 1451.88 328.667 1451.88 Q329.976 1451.88 331.335 1452.26 Q332.718 1452.6 334.448 1453.96 Q336.202 1455.32 337.264 1457.54 Q339.29 1461.84 339.29 1469.4 Q339.29 1476.79 337.412 1480.81 Q334.67 1486.69 328.618 1486.69 Q326.345 1486.69 324.023 1485.53 Q321.725 1484.37 320.268 1481.58 Q317.995 1477.4 317.995 1469.4 M322.195 1468.78 Q322.195 1476.41 322.738 1479.45 Q323.356 1482.74 325.036 1484.17 Q326.74 1485.58 328.618 1485.58 Q330.643 1485.58 332.323 1484.07 Q334.028 1482.54 334.547 1479.26 Q335.115 1476.02 335.09 1468.78 Q335.09 1461.74 334.596 1458.92 Q333.929 1455.64 332.15 1454.33 Q330.396 1453 328.618 1453 Q327.951 1453 327.234 1453.19 Q326.543 1453.39 325.53 1453.96 Q324.517 1454.53 323.726 1455.94 Q322.961 1457.34 322.59 1459.47 Q322.195 1462.21 322.195 1468.78 Z" fill="#000000" fill-rule="nonzero" fill-opacity="1" /><path clip-path="url(#clip620)" d="M660.873 1477.43 Q660.873 1475.92 661.688 1475.35 Q662.503 1474.76 663.368 1474.76 Q664.529 1474.76 665.196 1475.5 Q665.888 1476.22 665.888 1477.23 Q665.888 1478.24 665.196 1478.98 Q664.529 1479.7 663.368 1479.7 Q662.8 1479.7 662.503 1479.6 Q663.17 1481.92 665.196 1483.6 Q667.246 1485.28 669.939 1485.28 Q673.323 1485.28 675.349 1482 Q676.559 1479.87 676.559 1475.06 Q676.559 1470.81 675.645 1468.68 Q674.237 1465.45 671.347 1465.45 Q667.246 1465.45 664.825 1468.98 Q664.529 1469.42 664.183 1469.45 Q663.689 1469.45 663.565 1469.18 Q663.467 1468.88 663.467 1468.11 L663.467 1453.14 Q663.467 1451.93 663.961 1451.93 Q664.158 1451.93 664.578 1452.08 Q667.765 1453.49 671.298 1453.51 Q674.929 1453.51 678.19 1452.03 Q678.437 1451.88 678.585 1451.88 Q679.079 1451.88 679.104 1452.45 Q679.104 1452.65 678.684 1453.24 Q678.289 1453.81 677.424 1454.58 Q676.559 1455.32 675.448 1456.03 Q674.336 1456.75 672.706 1457.25 Q671.1 1457.71 669.321 1457.71 Q667.197 1457.71 665.023 1457.05 L665.023 1466.9 Q667.642 1464.33 671.446 1464.33 Q675.497 1464.33 678.289 1467.6 Q681.08 1470.86 681.08 1475.4 Q681.08 1480.17 677.77 1483.43 Q674.484 1486.69 670.038 1486.69 Q665.986 1486.69 663.417 1483.8 Q660.873 1480.91 660.873 1477.43 Z" fill="#000000" fill-rule="nonzero" fill-opacity="1" /><path clip-path="url(#clip620)" d="M685.774 1463.27 Q685.774 1460.58 686.564 1458.75 Q687.355 1456.9 689.01 1455.07 Q692.048 1451.88 696.446 1451.88 Q698.323 1451.88 699.978 1452.67 Q701.658 1453.47 703.239 1455.27 Q704.845 1457.05 705.808 1460.58 Q706.772 1464.09 706.772 1468.93 Q706.772 1476.76 702.967 1481.73 Q699.188 1486.69 694.074 1486.69 Q690.838 1486.69 688.936 1485.23 Q687.034 1483.75 687.034 1481.23 Q687.034 1479.92 687.775 1479.38 Q688.516 1478.81 689.356 1478.81 Q690.27 1478.81 690.986 1479.43 Q691.703 1480.02 691.703 1481.13 Q691.703 1482.05 691.11 1482.76 Q690.542 1483.46 689.059 1483.46 Q690.517 1485.28 694.025 1485.28 Q695.285 1485.28 696.544 1484.72 Q697.804 1484.12 699.163 1482.71 Q700.546 1481.28 701.386 1478.29 Q702.226 1475.3 702.226 1471.1 L702.226 1469.5 Q700.201 1474.56 695.902 1474.56 Q691.653 1474.56 688.713 1471.3 Q685.774 1468.04 685.774 1463.27 M690.319 1463.32 Q690.319 1468.34 691.233 1470.19 Q692.79 1473.38 695.952 1473.38 Q699.04 1473.38 700.571 1470.63 Q702.127 1467.87 702.127 1464.29 Q702.127 1459.32 701.312 1457.15 Q699.805 1453.14 696.446 1453.14 Q693.111 1453.14 691.381 1456.33 Q690.319 1458.21 690.319 1463.32 Z" fill="#000000" fill-rule="nonzero" fill-opacity="1" /><path clip-path="url(#clip620)" d="M711.786 1461.79 L713.442 1451.39 L714.701 1451.39 Q714.85 1452.01 715.097 1452.28 Q715.368 1452.55 716.801 1452.77 Q718.259 1453 721.198 1453 L733.476 1453 Q733.476 1454.16 733.031 1454.77 L726.188 1464.38 Q724.015 1467.42 723.051 1473.03 Q722.483 1476.79 722.508 1481.33 L722.508 1483.9 Q722.508 1486.69 720.161 1486.69 Q717.839 1486.69 717.839 1483.9 Q717.839 1474.24 724.064 1464.88 Q724.731 1463.91 727.177 1460.48 Q729.647 1457.05 729.746 1456.9 L719.272 1456.9 Q714.677 1456.9 714.306 1457.2 Q713.812 1457.64 713.046 1461.79 L711.786 1461.79 Z" fill="#000000" fill-rule="nonzero" fill-opacity="1" /><path clip-path="url(#clip620)" d="M736.218 1469.4 Q736.218 1461.96 738.096 1457.91 Q740.714 1451.88 746.89 1451.88 Q748.199 1451.88 749.558 1452.26 Q750.941 1452.6 752.67 1453.96 Q754.424 1455.32 755.487 1457.54 Q757.512 1461.84 757.512 1469.4 Q757.512 1476.79 755.635 1480.81 Q752.893 1486.69 746.841 1486.69 Q744.568 1486.69 742.246 1485.53 Q739.948 1484.37 738.491 1481.58 Q736.218 1477.4 736.218 1469.4 M740.418 1468.78 Q740.418 1476.41 740.961 1479.45 Q741.579 1482.74 743.259 1484.17 Q744.963 1485.58 746.841 1485.58 Q748.866 1485.58 750.546 1484.07 Q752.251 1482.54 752.769 1479.26 Q753.337 1476.02 753.313 1468.78 Q753.313 1461.74 752.819 1458.92 Q752.152 1455.64 750.373 1454.33 Q748.619 1453 746.841 1453 Q746.174 1453 745.457 1453.19 Q744.765 1453.39 743.753 1453.96 Q742.74 1454.53 741.949 1455.94 Q741.183 1457.34 740.813 1459.47 Q740.418 1462.21 740.418 1468.78 Z" fill="#000000" fill-rule="nonzero" fill-opacity="1" /><path clip-path="url(#clip620)" d="M1078.9 1469.6 Q1078.9 1461.64 1082.95 1456.78 Q1087 1451.88 1092.21 1451.88 Q1095.25 1451.88 1096.93 1453.44 Q1098.64 1454.97 1098.64 1457.34 Q1098.64 1458.65 1097.87 1459.22 Q1097.1 1459.79 1096.31 1459.79 Q1095.4 1459.79 1094.68 1459.17 Q1093.97 1458.55 1093.97 1457.44 Q1093.97 1455.17 1096.76 1455.17 Q1095.45 1453.14 1092.31 1453.14 Q1091.35 1453.14 1090.36 1453.44 Q1089.37 1453.71 1088.09 1454.65 Q1086.8 1455.59 1085.81 1457.07 Q1084.83 1458.55 1084.14 1461.35 Q1083.44 1464.14 1083.44 1467.77 L1083.44 1468.98 Q1085.52 1463.96 1089.77 1463.99 Q1094.02 1463.99 1096.96 1467.23 Q1099.9 1470.46 1099.9 1475.25 Q1099.9 1480.17 1096.83 1483.43 Q1093.77 1486.69 1089.47 1486.69 Q1087.54 1486.69 1085.79 1485.88 Q1084.06 1485.09 1082.43 1483.26 Q1080.82 1481.43 1079.86 1477.92 Q1078.9 1474.41 1078.9 1469.6 M1083.54 1474.14 Q1083.54 1479.11 1084.46 1481.48 Q1084.6 1481.87 1084.93 1482.42 Q1085.27 1482.96 1085.84 1483.68 Q1086.43 1484.37 1087.4 1484.84 Q1088.36 1485.28 1089.47 1485.28 Q1092.86 1485.28 1094.49 1482 Q1095.35 1480.17 1095.35 1475.2 Q1095.35 1470.14 1094.44 1468.29 Q1092.88 1465.15 1089.72 1465.15 Q1087.59 1465.15 1086.11 1466.61 Q1084.65 1468.07 1084.09 1470.02 Q1083.54 1471.97 1083.54 1474.14 Z" fill="#000000" fill-rule="nonzero" fill-opacity="1" /><path clip-path="url(#clip620)" d="M1104.05 1469.4 Q1104.05 1461.96 1105.92 1457.91 Q1108.54 1451.88 1114.72 1451.88 Q1116.03 1451.88 1117.39 1452.26 Q1118.77 1452.6 1120.5 1453.96 Q1122.25 1455.32 1123.31 1457.54 Q1125.34 1461.84 1125.34 1469.4 Q1125.34 1476.79 1123.46 1480.81 Q1120.72 1486.69 1114.67 1486.69 Q1112.4 1486.69 1110.07 1485.53 Q1107.78 1484.37 1106.32 1481.58 Q1104.05 1477.4 1104.05 1469.4 M1108.25 1468.78 Q1108.25 1476.41 1108.79 1479.45 Q1109.41 1482.74 1111.09 1484.17 Q1112.79 1485.58 1114.67 1485.58 Q1116.69 1485.58 1118.37 1484.07 Q1120.08 1482.54 1120.6 1479.26 Q1121.17 1476.02 1121.14 1468.78 Q1121.14 1461.74 1120.65 1458.92 Q1119.98 1455.64 1118.2 1454.33 Q1116.45 1453 1114.67 1453 Q1114 1453 1113.29 1453.19 Q1112.59 1453.39 1111.58 1453.96 Q1110.57 1454.53 1109.78 1455.94 Q1109.01 1457.34 1108.64 1459.47 Q1108.25 1462.21 1108.25 1468.78 Z" fill="#000000" fill-rule="nonzero" fill-opacity="1" /><path clip-path="url(#clip620)" d="M1129.34 1469.4 Q1129.34 1461.96 1131.22 1457.91 Q1133.84 1451.88 1140.01 1451.88 Q1141.32 1451.88 1142.68 1452.26 Q1144.07 1452.6 1145.79 1453.96 Q1147.55 1455.32 1148.61 1457.54 Q1150.64 1461.84 1150.64 1469.4 Q1150.64 1476.79 1148.76 1480.81 Q1146.02 1486.69 1139.96 1486.69 Q1137.69 1486.69 1135.37 1485.53 Q1133.07 1484.37 1131.61 1481.58 Q1129.34 1477.4 1129.34 1469.4 M1133.54 1468.78 Q1133.54 1476.41 1134.09 1479.45 Q1134.7 1482.74 1136.38 1484.17 Q1138.09 1485.58 1139.96 1485.58 Q1141.99 1485.58 1143.67 1484.07 Q1145.37 1482.54 1145.89 1479.26 Q1146.46 1476.02 1146.44 1468.78 Q1146.44 1461.74 1145.94 1458.92 Q1145.28 1455.64 1143.5 1454.33 Q1141.74 1453 1139.96 1453 Q1139.3 1453 1138.58 1453.19 Q1137.89 1453.39 1136.88 1453.96 Q1135.86 1454.53 1135.07 1455.94 Q1134.31 1457.34 1133.94 1459.47 Q1133.54 1462.21 1133.54 1468.78 Z" fill="#000000" fill-rule="nonzero" fill-opacity="1" /><path clip-path="url(#clip620)" d="M1154.64 1469.4 Q1154.64 1461.96 1156.52 1457.91 Q1159.13 1451.88 1165.31 1451.88 Q1166.62 1451.88 1167.98 1452.26 Q1169.36 1452.6 1171.09 1453.96 Q1172.84 1455.32 1173.91 1457.54 Q1175.93 1461.84 1175.93 1469.4 Q1175.93 1476.79 1174.06 1480.81 Q1171.31 1486.69 1165.26 1486.69 Q1162.99 1486.69 1160.67 1485.53 Q1158.37 1484.37 1156.91 1481.58 Q1154.64 1477.4 1154.64 1469.4 M1158.84 1468.78 Q1158.84 1476.41 1159.38 1479.45 Q1160 1482.74 1161.68 1484.17 Q1163.38 1485.58 1165.26 1485.58 Q1167.29 1485.58 1168.97 1484.07 Q1170.67 1482.54 1171.19 1479.26 Q1171.76 1476.02 1171.73 1468.78 Q1171.73 1461.74 1171.24 1458.92 Q1170.57 1455.64 1168.79 1454.33 Q1167.04 1453 1165.26 1453 Q1164.59 1453 1163.88 1453.19 Q1163.19 1453.39 1162.17 1453.96 Q1161.16 1454.53 1160.37 1455.94 Q1159.6 1457.34 1159.23 1459.47 Q1158.84 1462.21 1158.84 1468.78 Z" fill="#000000" fill-rule="nonzero" fill-opacity="1" /><path clip-path="url(#clip620)" d="M1497.12 1469.6 Q1497.12 1461.64 1501.17 1456.78 Q1505.22 1451.88 1510.44 1451.88 Q1513.47 1451.88 1515.15 1453.44 Q1516.86 1454.97 1516.86 1457.34 Q1516.86 1458.65 1516.09 1459.22 Q1515.33 1459.79 1514.54 1459.79 Q1513.62 1459.79 1512.91 1459.17 Q1512.19 1458.55 1512.19 1457.44 Q1512.19 1455.17 1514.98 1455.17 Q1513.67 1453.14 1510.53 1453.14 Q1509.57 1453.14 1508.58 1453.44 Q1507.6 1453.71 1506.31 1454.65 Q1505.03 1455.59 1504.04 1457.07 Q1503.05 1458.55 1502.36 1461.35 Q1501.67 1464.14 1501.67 1467.77 L1501.67 1468.98 Q1503.74 1463.96 1507.99 1463.99 Q1512.24 1463.99 1515.18 1467.23 Q1518.12 1470.46 1518.12 1475.25 Q1518.12 1480.17 1515.06 1483.43 Q1511.99 1486.69 1507.69 1486.69 Q1505.77 1486.69 1504.01 1485.88 Q1502.28 1485.09 1500.65 1483.26 Q1499.05 1481.43 1498.08 1477.92 Q1497.12 1474.41 1497.12 1469.6 M1501.77 1474.14 Q1501.77 1479.11 1502.68 1481.48 Q1502.83 1481.87 1503.15 1482.42 Q1503.49 1482.96 1504.06 1483.68 Q1504.66 1484.37 1505.62 1484.84 Q1506.58 1485.28 1507.69 1485.28 Q1511.08 1485.28 1512.71 1482 Q1513.57 1480.17 1513.57 1475.2 Q1513.57 1470.14 1512.66 1468.29 Q1511.1 1465.15 1507.94 1465.15 Q1505.82 1465.15 1504.33 1466.61 Q1502.88 1468.07 1502.31 1470.02 Q1501.77 1471.97 1501.77 1474.14 Z" fill="#000000" fill-rule="nonzero" fill-opacity="1" /><path clip-path="url(#clip620)" d="M1522.27 1469.4 Q1522.27 1461.96 1524.15 1457.91 Q1526.76 1451.88 1532.94 1451.88 Q1534.25 1451.88 1535.61 1452.26 Q1536.99 1452.6 1538.72 1453.96 Q1540.48 1455.32 1541.54 1457.54 Q1543.56 1461.84 1543.56 1469.4 Q1543.56 1476.79 1541.69 1480.81 Q1538.94 1486.69 1532.89 1486.69 Q1530.62 1486.69 1528.3 1485.53 Q1526 1484.37 1524.54 1481.58 Q1522.27 1477.4 1522.27 1469.4 M1526.47 1468.78 Q1526.47 1476.41 1527.01 1479.45 Q1527.63 1482.74 1529.31 1484.17 Q1531.01 1485.58 1532.89 1485.58 Q1534.92 1485.58 1536.6 1484.07 Q1538.3 1482.54 1538.82 1479.26 Q1539.39 1476.02 1539.36 1468.78 Q1539.36 1461.74 1538.87 1458.92 Q1538.2 1455.64 1536.42 1454.33 Q1534.67 1453 1532.89 1453 Q1532.22 1453 1531.51 1453.19 Q1530.82 1453.39 1529.8 1453.96 Q1528.79 1454.53 1528 1455.94 Q1527.23 1457.34 1526.86 1459.47 Q1526.47 1462.21 1526.47 1468.78 Z" fill="#000000" fill-rule="nonzero" fill-opacity="1" /><path clip-path="url(#clip620)" d="M1547.71 1478.76 Q1547.71 1477.25 1548.58 1476.54 Q1549.44 1475.82 1550.55 1475.82 Q1551.72 1475.82 1552.53 1476.59 Q1553.37 1477.33 1553.37 1478.64 Q1553.37 1480.05 1552.38 1480.84 Q1551.42 1481.63 1550.04 1481.43 Q1551.25 1483.46 1553.47 1484.37 Q1555.72 1485.28 1557.79 1485.28 Q1559.97 1485.28 1561.72 1483.41 Q1563.5 1481.53 1563.5 1476.93 Q1563.5 1473.03 1561.97 1470.78 Q1560.46 1468.53 1557.47 1468.53 L1555.25 1468.53 Q1554.48 1468.53 1554.26 1468.46 Q1554.04 1468.39 1554.04 1467.97 Q1554.04 1467.47 1554.8 1467.37 Q1555.57 1467.37 1556.78 1467.23 Q1559.72 1467.13 1561.28 1464.58 Q1562.68 1462.21 1562.68 1458.83 Q1562.68 1455.74 1561.2 1454.45 Q1559.74 1453.14 1557.84 1453.14 Q1556.06 1453.14 1554.11 1453.89 Q1552.16 1454.63 1551.1 1456.28 Q1554.23 1456.28 1554.23 1458.83 Q1554.23 1459.94 1553.52 1460.68 Q1552.83 1461.4 1551.67 1461.4 Q1550.55 1461.4 1549.81 1460.7 Q1549.07 1459.99 1549.07 1458.78 Q1549.07 1455.89 1551.64 1453.89 Q1554.23 1451.88 1558.04 1451.88 Q1561.79 1451.88 1564.56 1453.86 Q1567.35 1455.84 1567.35 1458.88 Q1567.35 1461.86 1565.38 1464.31 Q1563.4 1466.76 1560.26 1467.77 Q1564.12 1468.53 1566.41 1471.15 Q1568.71 1473.75 1568.71 1476.93 Q1568.71 1480.89 1565.6 1483.8 Q1562.49 1486.69 1557.94 1486.69 Q1553.74 1486.69 1550.73 1484.42 Q1547.71 1482.15 1547.71 1478.76 Z" fill="#000000" fill-rule="nonzero" fill-opacity="1" /><path clip-path="url(#clip620)" d="M1572.86 1469.4 Q1572.86 1461.96 1574.74 1457.91 Q1577.36 1451.88 1583.53 1451.88 Q1584.84 1451.88 1586.2 1452.26 Q1587.58 1452.6 1589.31 1453.96 Q1591.07 1455.32 1592.13 1457.54 Q1594.16 1461.84 1594.16 1469.4 Q1594.16 1476.79 1592.28 1480.81 Q1589.54 1486.69 1583.48 1486.69 Q1581.21 1486.69 1578.89 1485.53 Q1576.59 1484.37 1575.13 1481.58 Q1572.86 1477.4 1572.86 1469.4 M1577.06 1468.78 Q1577.06 1476.41 1577.6 1479.45 Q1578.22 1482.74 1579.9 1484.17 Q1581.61 1485.58 1583.48 1485.58 Q1585.51 1485.58 1587.19 1484.07 Q1588.89 1482.54 1589.41 1479.26 Q1589.98 1476.02 1589.96 1468.78 Q1589.96 1461.74 1589.46 1458.92 Q1588.79 1455.64 1587.02 1454.33 Q1585.26 1453 1583.48 1453 Q1582.82 1453 1582.1 1453.19 Q1581.41 1453.39 1580.4 1453.96 Q1579.38 1454.53 1578.59 1455.94 Q1577.83 1457.34 1577.46 1459.47 Q1577.06 1462.21 1577.06 1468.78 Z" fill="#000000" fill-rule="nonzero" fill-opacity="1" /><path clip-path="url(#clip620)" d="M1915.34 1469.6 Q1915.34 1461.64 1919.39 1456.78 Q1923.45 1451.88 1928.66 1451.88 Q1931.7 1451.88 1933.38 1453.44 Q1935.08 1454.97 1935.08 1457.34 Q1935.08 1458.65 1934.32 1459.22 Q1933.55 1459.79 1932.76 1459.79 Q1931.85 1459.79 1931.13 1459.17 Q1930.41 1458.55 1930.41 1457.44 Q1930.41 1455.17 1933.2 1455.17 Q1931.89 1453.14 1928.76 1453.14 Q1927.79 1453.14 1926.81 1453.44 Q1925.82 1453.71 1924.53 1454.65 Q1923.25 1455.59 1922.26 1457.07 Q1921.27 1458.55 1920.58 1461.35 Q1919.89 1464.14 1919.89 1467.77 L1919.89 1468.98 Q1921.96 1463.96 1926.21 1463.99 Q1930.46 1463.99 1933.4 1467.23 Q1936.34 1470.46 1936.34 1475.25 Q1936.34 1480.17 1933.28 1483.43 Q1930.22 1486.69 1925.92 1486.69 Q1923.99 1486.69 1922.24 1485.88 Q1920.51 1485.09 1918.88 1483.26 Q1917.27 1481.43 1916.31 1477.92 Q1915.34 1474.41 1915.34 1469.6 M1919.99 1474.14 Q1919.99 1479.11 1920.9 1481.48 Q1921.05 1481.87 1921.37 1482.42 Q1921.72 1482.96 1922.29 1483.68 Q1922.88 1484.37 1923.84 1484.84 Q1924.8 1485.28 1925.92 1485.28 Q1929.3 1485.28 1930.93 1482 Q1931.8 1480.17 1931.8 1475.2 Q1931.8 1470.14 1930.88 1468.29 Q1929.33 1465.15 1926.16 1465.15 Q1924.04 1465.15 1922.56 1466.61 Q1921.1 1468.07 1920.53 1470.02 Q1919.99 1471.97 1919.99 1474.14 Z" fill="#000000" fill-rule="nonzero" fill-opacity="1" /><path clip-path="url(#clip620)" d="M1940.49 1469.4 Q1940.49 1461.96 1942.37 1457.91 Q1944.99 1451.88 1951.16 1451.88 Q1952.47 1451.88 1953.83 1452.26 Q1955.21 1452.6 1956.94 1453.96 Q1958.7 1455.32 1959.76 1457.54 Q1961.79 1461.84 1961.79 1469.4 Q1961.79 1476.79 1959.91 1480.81 Q1957.17 1486.69 1951.11 1486.69 Q1948.84 1486.69 1946.52 1485.53 Q1944.22 1484.37 1942.76 1481.58 Q1940.49 1477.4 1940.49 1469.4 M1944.69 1468.78 Q1944.69 1476.41 1945.23 1479.45 Q1945.85 1482.74 1947.53 1484.17 Q1949.24 1485.58 1951.11 1485.58 Q1953.14 1485.58 1954.82 1484.07 Q1956.52 1482.54 1957.04 1479.26 Q1957.61 1476.02 1957.59 1468.78 Q1957.59 1461.74 1957.09 1458.92 Q1956.43 1455.64 1954.65 1454.33 Q1952.89 1453 1951.11 1453 Q1950.45 1453 1949.73 1453.19 Q1949.04 1453.39 1948.03 1453.96 Q1947.01 1454.53 1946.22 1455.94 Q1945.46 1457.34 1945.09 1459.47 Q1944.69 1462.21 1944.69 1468.78 Z" fill="#000000" fill-rule="nonzero" fill-opacity="1" /><path clip-path="url(#clip620)" d="M1965.94 1469.6 Q1965.94 1461.64 1969.99 1456.78 Q1974.04 1451.88 1979.25 1451.88 Q1982.29 1451.88 1983.97 1453.44 Q1985.67 1454.97 1985.67 1457.34 Q1985.67 1458.65 1984.91 1459.22 Q1984.14 1459.79 1983.35 1459.79 Q1982.44 1459.79 1981.72 1459.17 Q1981.01 1458.55 1981.01 1457.44 Q1981.01 1455.17 1983.8 1455.17 Q1982.49 1453.14 1979.35 1453.14 Q1978.39 1453.14 1977.4 1453.44 Q1976.41 1453.71 1975.13 1454.65 Q1973.84 1455.59 1972.85 1457.07 Q1971.86 1458.55 1971.17 1461.35 Q1970.48 1464.14 1970.48 1467.77 L1970.48 1468.98 Q1972.56 1463.96 1976.81 1463.99 Q1981.05 1463.99 1983.99 1467.23 Q1986.93 1470.46 1986.93 1475.25 Q1986.93 1480.17 1983.87 1483.43 Q1980.81 1486.69 1976.51 1486.69 Q1974.58 1486.69 1972.83 1485.88 Q1971.1 1485.09 1969.47 1483.26 Q1967.86 1481.43 1966.9 1477.92 Q1965.94 1474.41 1965.94 1469.6 M1970.58 1474.14 Q1970.58 1479.11 1971.49 1481.48 Q1971.64 1481.87 1971.96 1482.42 Q1972.31 1482.96 1972.88 1483.68 Q1973.47 1484.37 1974.43 1484.84 Q1975.4 1485.28 1976.51 1485.28 Q1979.89 1485.28 1981.52 1482 Q1982.39 1480.17 1982.39 1475.2 Q1982.39 1470.14 1981.47 1468.29 Q1979.92 1465.15 1976.76 1465.15 Q1974.63 1465.15 1973.15 1466.61 Q1971.69 1468.07 1971.12 1470.02 Q1970.58 1471.97 1970.58 1474.14 Z" fill="#000000" fill-rule="nonzero" fill-opacity="1" /><path clip-path="url(#clip620)" d="M1991.08 1469.4 Q1991.08 1461.96 1992.96 1457.91 Q1995.58 1451.88 2001.76 1451.88 Q2003.07 1451.88 2004.42 1452.26 Q2005.81 1452.6 2007.54 1453.96 Q2009.29 1455.32 2010.35 1457.54 Q2012.38 1461.84 2012.38 1469.4 Q2012.38 1476.79 2010.5 1480.81 Q2007.76 1486.69 2001.71 1486.69 Q1999.43 1486.69 1997.11 1485.53 Q1994.81 1484.37 1993.36 1481.58 Q1991.08 1477.4 1991.08 1469.4 M1995.28 1468.78 Q1995.28 1476.41 1995.83 1479.45 Q1996.44 1482.74 1998.12 1484.17 Q1999.83 1485.58 2001.71 1485.58 Q2003.73 1485.58 2005.41 1484.07 Q2007.12 1482.54 2007.64 1479.26 Q2008.2 1476.02 2008.18 1468.78 Q2008.18 1461.74 2007.68 1458.92 Q2007.02 1455.64 2005.24 1454.33 Q2003.49 1453 2001.71 1453 Q2001.04 1453 2000.32 1453.19 Q1999.63 1453.39 1998.62 1453.96 Q1997.61 1454.53 1996.82 1455.94 Q1996.05 1457.34 1995.68 1459.47 Q1995.28 1462.21 1995.28 1468.78 Z" fill="#000000" fill-rule="nonzero" fill-opacity="1" /><path clip-path="url(#clip620)" d="M1247.08 1540.22 L1247.08 1538.7 Q1250.28 1538.56 1252.38 1536.32 Q1254.52 1534.04 1255.24 1531.26 Q1255.98 1528.47 1256.05 1525.25 L1257.78 1525.25 L1257.78 1538.05 L1267.74 1538.05 L1267.74 1540.22 L1257.78 1540.22 L1257.78 1559.55 Q1257.78 1567.06 1262.47 1567.06 Q1264.48 1567.06 1265.8 1565.02 Q1267.13 1562.95 1267.13 1559.28 L1267.13 1555.44 L1268.86 1555.44 L1268.86 1559.42 Q1268.86 1563.19 1267.13 1566.01 Q1265.39 1568.83 1261.96 1568.83 Q1260.71 1568.83 1259.45 1568.49 Q1258.23 1568.18 1256.6 1567.36 Q1255 1566.52 1253.98 1564.48 Q1252.99 1562.41 1252.99 1559.42 L1252.99 1540.22 L1247.08 1540.22 Z" fill="#000000" fill-rule="nonzero" fill-opacity="1" /><path clip-path="url(#clip620)" d="M1303.1 1585.44 L1303.1 1515.87 L1313.59 1515.87 L1313.59 1517.47 L1307.75 1517.47 L1307.75 1583.84 L1313.59 1583.84 L1313.59 1585.44 L1303.1 1585.44 Z" fill="#000000" fill-rule="nonzero" fill-opacity="1" /><path clip-path="url(#clip620)" d="M1317.5 1567.13 L1317.5 1557.96 Q1317.5 1557.17 1317.53 1556.9 Q1317.57 1556.63 1317.77 1556.43 Q1317.97 1556.22 1318.38 1556.22 Q1318.86 1556.22 1319.03 1556.43 Q1319.23 1556.63 1319.37 1557.41 Q1320.42 1562.2 1322.66 1564.75 Q1324.94 1567.26 1329.05 1567.26 Q1332.95 1567.26 1334.92 1565.53 Q1336.89 1563.8 1336.89 1560.94 Q1336.89 1555.85 1329.66 1554.56 Q1325.48 1553.71 1323.75 1553.17 Q1322.02 1552.59 1320.49 1551.33 Q1317.5 1548.89 1317.5 1545.42 Q1317.5 1541.96 1320.11 1539.41 Q1322.76 1536.86 1328.61 1536.86 Q1332.51 1536.86 1335.16 1538.83 Q1335.94 1538.22 1336.35 1537.71 Q1337.27 1536.86 1337.74 1536.86 Q1338.29 1536.86 1338.39 1537.24 Q1338.49 1537.58 1338.49 1538.56 L1338.49 1545.56 Q1338.49 1546.34 1338.46 1546.61 Q1338.42 1546.88 1338.22 1547.09 Q1338.01 1547.26 1337.57 1547.26 Q1336.79 1547.26 1336.76 1546.61 Q1336.21 1538.19 1328.61 1538.19 Q1324.5 1538.19 1322.66 1539.78 Q1320.83 1541.35 1320.83 1543.49 Q1320.83 1544.67 1321.37 1545.59 Q1321.95 1546.47 1322.66 1547.02 Q1323.41 1547.53 1324.77 1548.04 Q1326.13 1548.51 1326.94 1548.68 Q1327.79 1548.85 1329.39 1549.19 Q1334.96 1550.25 1337.3 1552.52 Q1340.22 1555.44 1340.22 1559.14 Q1340.22 1563.25 1337.44 1566.04 Q1334.65 1568.83 1329.05 1568.83 Q1324.53 1568.83 1321.37 1565.8 Q1320.96 1566.21 1320.66 1566.58 Q1320.35 1566.92 1320.22 1567.06 Q1320.11 1567.19 1320.08 1567.3 Q1320.05 1567.36 1319.98 1567.43 Q1318.59 1568.83 1318.25 1568.83 Q1317.7 1568.83 1317.6 1568.45 Q1317.5 1568.11 1317.5 1567.13 Z" fill="#000000" fill-rule="nonzero" fill-opacity="1" /><path clip-path="url(#clip620)" d="M1344.03 1583.84 L1349.87 1583.84 L1349.87 1517.47 L1344.03 1517.47 L1344.03 1515.87 L1354.52 1515.87 L1354.52 1585.44 L1344.03 1585.44 L1344.03 1583.84 Z" fill="#000000" fill-rule="nonzero" fill-opacity="1" /><polyline clip-path="url(#clip622)" style="stroke:#000000; stroke-linecap:round; stroke-linejoin:round; stroke-width:2; stroke-opacity:0.1; fill:none" points="248.851,1234.31 2352.76,1234.31 "/>
<polyline clip-path="url(#clip622)" style="stroke:#000000; stroke-linecap:round; stroke-linejoin:round; stroke-width:2; stroke-opacity:0.1; fill:none" points="248.851,914.292 2352.76,914.292 "/>
<polyline clip-path="url(#clip622)" style="stroke:#000000; stroke-linecap:round; stroke-linejoin:round; stroke-width:2; stroke-opacity:0.1; fill:none" points="248.851,594.279 2352.76,594.279 "/>
<polyline clip-path="url(#clip622)" style="stroke:#000000; stroke-linecap:round; stroke-linejoin:round; stroke-width:2; stroke-opacity:0.1; fill:none" points="248.851,274.265 2352.76,274.265 "/>
<polyline clip-path="url(#clip620)" style="stroke:#000000; stroke-linecap:round; stroke-linejoin:round; stroke-width:4; stroke-opacity:1; fill:none" points="248.851,1423.18 248.851,108.933 "/>
<polyline clip-path="url(#clip620)" style="stroke:#000000; stroke-linecap:round; stroke-linejoin:round; stroke-width:4; stroke-opacity:1; fill:none" points="248.851,1234.31 267.749,1234.31 "/>
<polyline clip-path="url(#clip620)" style="stroke:#000000; stroke-linecap:round; stroke-linejoin:round; stroke-width:4; stroke-opacity:1; fill:none" points="248.851,914.292 267.749,914.292 "/>
<polyline clip-path="url(#clip620)" style="stroke:#000000; stroke-linecap:round; stroke-linejoin:round; stroke-width:4; stroke-opacity:1; fill:none" points="248.851,594.279 267.749,594.279 "/>
<polyline clip-path="url(#clip620)" style="stroke:#000000; stroke-linecap:round; stroke-linejoin:round; stroke-width:4; stroke-opacity:1; fill:none" points="248.851,274.265 267.749,274.265 "/>
<path clip-path="url(#clip620)" d="M147.659 1238.22 Q147.956 1238.52 147.956 1238.94 Q147.956 1239.36 147.659 1239.65 Q147.363 1239.95 146.943 1239.95 L115.273 1239.95 Q114.853 1239.95 114.557 1239.65 Q114.26 1239.36 114.26 1238.94 Q114.26 1238.52 114.557 1238.22 Q114.853 1237.92 115.273 1237.92 L146.943 1237.92 Q147.363 1237.92 147.659 1238.22 Z" fill="#000000" fill-rule="nonzero" fill-opacity="1" /><path clip-path="url(#clip620)" d="M152.748 1235.4 Q152.748 1227.97 154.625 1223.92 Q157.244 1217.89 163.42 1217.89 Q164.729 1217.89 166.088 1218.26 Q167.471 1218.61 169.2 1219.97 Q170.954 1221.32 172.017 1223.55 Q174.042 1227.85 174.042 1235.4 Q174.042 1242.79 172.165 1246.82 Q169.423 1252.7 163.37 1252.7 Q161.098 1252.7 158.776 1251.54 Q156.478 1250.38 155.021 1247.58 Q152.748 1243.41 152.748 1235.4 M156.948 1234.79 Q156.948 1242.42 157.491 1245.46 Q158.109 1248.74 159.788 1250.18 Q161.493 1251.59 163.37 1251.59 Q165.396 1251.59 167.076 1250.08 Q168.78 1248.55 169.299 1245.26 Q169.867 1242.03 169.843 1234.79 Q169.843 1227.75 169.349 1224.93 Q168.682 1221.65 166.903 1220.34 Q165.149 1219 163.37 1219 Q162.703 1219 161.987 1219.2 Q161.295 1219.4 160.283 1219.97 Q159.27 1220.53 158.479 1221.94 Q157.713 1223.35 157.343 1225.47 Q156.948 1228.22 156.948 1234.79 Z" fill="#000000" fill-rule="nonzero" fill-opacity="1" /><path clip-path="url(#clip620)" d="M181.132 1250.77 Q180.366 1249.96 180.366 1248.89 Q180.366 1247.83 181.132 1247.06 Q181.898 1246.27 183.059 1246.27 Q184.171 1246.27 184.912 1247.02 Q185.678 1247.73 185.678 1248.92 Q185.678 1250.08 184.862 1250.84 Q184.072 1251.59 183.059 1251.59 Q181.898 1251.59 181.132 1250.77 Z" fill="#000000" fill-rule="nonzero" fill-opacity="1" /><path clip-path="url(#clip620)" d="M192.644 1243.43 Q192.644 1241.93 193.459 1241.36 Q194.274 1240.77 195.139 1240.77 Q196.3 1240.77 196.967 1241.51 Q197.659 1242.22 197.659 1243.24 Q197.659 1244.25 196.967 1244.99 Q196.3 1245.71 195.139 1245.71 Q194.571 1245.71 194.274 1245.61 Q194.941 1247.93 196.967 1249.61 Q199.017 1251.29 201.71 1251.29 Q205.094 1251.29 207.12 1248 Q208.331 1245.88 208.331 1241.06 Q208.331 1236.81 207.417 1234.69 Q206.008 1231.45 203.118 1231.45 Q199.017 1231.45 196.596 1234.98 Q196.3 1235.43 195.954 1235.45 Q195.46 1235.45 195.337 1235.18 Q195.238 1234.89 195.238 1234.12 L195.238 1219.15 Q195.238 1217.94 195.732 1217.94 Q195.929 1217.94 196.349 1218.09 Q199.536 1219.5 203.069 1219.52 Q206.7 1219.52 209.961 1218.04 Q210.208 1217.89 210.356 1217.89 Q210.85 1217.89 210.875 1218.46 Q210.875 1218.66 210.455 1219.25 Q210.06 1219.82 209.195 1220.58 Q208.331 1221.32 207.219 1222.04 Q206.107 1222.76 204.477 1223.25 Q202.871 1223.72 201.092 1223.72 Q198.968 1223.72 196.794 1223.05 L196.794 1232.91 Q199.413 1230.34 203.217 1230.34 Q207.268 1230.34 210.06 1233.6 Q212.851 1236.86 212.851 1241.41 Q212.851 1246.18 209.541 1249.44 Q206.255 1252.7 201.809 1252.7 Q197.758 1252.7 195.188 1249.81 Q192.644 1246.92 192.644 1243.43 Z" fill="#000000" fill-rule="nonzero" fill-opacity="1" /><path clip-path="url(#clip620)" d="M152.205 915.391 Q152.205 907.956 154.082 903.904 Q156.701 897.877 162.876 897.877 Q164.186 897.877 165.544 898.247 Q166.928 898.593 168.657 899.952 Q170.411 901.31 171.473 903.534 Q173.499 907.832 173.499 915.391 Q173.499 922.778 171.621 926.804 Q168.879 932.684 162.827 932.684 Q160.554 932.684 158.232 931.523 Q155.935 930.362 154.477 927.57 Q152.205 923.395 152.205 915.391 M156.404 914.774 Q156.404 922.407 156.948 925.446 Q157.565 928.731 159.245 930.164 Q160.95 931.572 162.827 931.572 Q164.853 931.572 166.532 930.065 Q168.237 928.534 168.756 925.248 Q169.324 922.012 169.299 914.774 Q169.299 907.733 168.805 904.917 Q168.138 901.632 166.36 900.322 Q164.606 898.988 162.827 898.988 Q162.16 898.988 161.444 899.186 Q160.752 899.384 159.739 899.952 Q158.726 900.52 157.936 901.928 Q157.17 903.336 156.799 905.461 Q156.404 908.203 156.404 914.774 Z" fill="#000000" fill-rule="nonzero" fill-opacity="1" /><path clip-path="url(#clip620)" d="M180.589 930.757 Q179.823 929.942 179.823 928.879 Q179.823 927.817 180.589 927.051 Q181.354 926.261 182.516 926.261 Q183.627 926.261 184.368 927.002 Q185.134 927.718 185.134 928.904 Q185.134 930.065 184.319 930.831 Q183.528 931.572 182.516 931.572 Q181.354 931.572 180.589 930.757 Z" fill="#000000" fill-rule="nonzero" fill-opacity="1" /><path clip-path="url(#clip620)" d="M191.557 915.391 Q191.557 907.956 193.434 903.904 Q196.053 897.877 202.229 897.877 Q203.538 897.877 204.897 898.247 Q206.28 898.593 208.009 899.952 Q209.763 901.31 210.826 903.534 Q212.851 907.832 212.851 915.391 Q212.851 922.778 210.974 926.804 Q208.232 932.684 202.179 932.684 Q199.907 932.684 197.585 931.523 Q195.287 930.362 193.83 927.57 Q191.557 923.395 191.557 915.391 M195.757 914.774 Q195.757 922.407 196.3 925.446 Q196.918 928.731 198.597 930.164 Q200.302 931.572 202.179 931.572 Q204.205 931.572 205.885 930.065 Q207.589 928.534 208.108 925.248 Q208.676 922.012 208.652 914.774 Q208.652 907.733 208.158 904.917 Q207.491 901.632 205.712 900.322 Q203.958 898.988 202.179 898.988 Q201.512 898.988 200.796 899.186 Q200.104 899.384 199.091 899.952 Q198.079 900.52 197.288 901.928 Q196.522 903.336 196.152 905.461 Q195.757 908.203 195.757 914.774 Z" fill="#000000" fill-rule="nonzero" fill-opacity="1" /><path clip-path="url(#clip620)" d="M152.748 595.378 Q152.748 587.942 154.625 583.891 Q157.244 577.863 163.42 577.863 Q164.729 577.863 166.088 578.234 Q167.471 578.58 169.2 579.938 Q170.954 581.297 172.017 583.52 Q174.042 587.819 174.042 595.378 Q174.042 602.764 172.165 606.791 Q169.423 612.67 163.37 612.67 Q161.098 612.67 158.776 611.509 Q156.478 610.348 155.021 607.557 Q152.748 603.382 152.748 595.378 M156.948 594.76 Q156.948 602.394 157.491 605.432 Q158.109 608.718 159.788 610.15 Q161.493 611.559 163.37 611.559 Q165.396 611.559 167.076 610.052 Q168.78 608.52 169.299 605.235 Q169.867 601.998 169.843 594.76 Q169.843 587.72 169.349 584.904 Q168.682 581.618 166.903 580.309 Q165.149 578.975 163.37 578.975 Q162.703 578.975 161.987 579.172 Q161.295 579.37 160.283 579.938 Q159.27 580.506 158.479 581.915 Q157.713 583.323 157.343 585.447 Q156.948 588.189 156.948 594.76 Z" fill="#000000" fill-rule="nonzero" fill-opacity="1" /><path clip-path="url(#clip620)" d="M181.132 610.743 Q180.366 609.928 180.366 608.866 Q180.366 607.804 181.132 607.038 Q181.898 606.247 183.059 606.247 Q184.171 606.247 184.912 606.988 Q185.678 607.705 185.678 608.891 Q185.678 610.052 184.862 610.817 Q184.072 611.559 183.059 611.559 Q181.898 611.559 181.132 610.743 Z" fill="#000000" fill-rule="nonzero" fill-opacity="1" /><path clip-path="url(#clip620)" d="M192.644 603.406 Q192.644 601.9 193.459 601.331 Q194.274 600.739 195.139 600.739 Q196.3 600.739 196.967 601.48 Q197.659 602.196 197.659 603.209 Q197.659 604.222 196.967 604.963 Q196.3 605.679 195.139 605.679 Q194.571 605.679 194.274 605.58 Q194.941 607.902 196.967 609.582 Q199.017 611.262 201.71 611.262 Q205.094 611.262 207.12 607.977 Q208.331 605.852 208.331 601.035 Q208.331 596.786 207.417 594.661 Q206.008 591.425 203.118 591.425 Q199.017 591.425 196.596 594.958 Q196.3 595.403 195.954 595.427 Q195.46 595.427 195.337 595.156 Q195.238 594.859 195.238 594.093 L195.238 579.123 Q195.238 577.913 195.732 577.913 Q195.929 577.913 196.349 578.061 Q199.536 579.469 203.069 579.494 Q206.7 579.494 209.961 578.011 Q210.208 577.863 210.356 577.863 Q210.85 577.863 210.875 578.431 Q210.875 578.629 210.455 579.222 Q210.06 579.79 209.195 580.556 Q208.331 581.297 207.219 582.013 Q206.107 582.73 204.477 583.224 Q202.871 583.693 201.092 583.693 Q198.968 583.693 196.794 583.026 L196.794 592.883 Q199.413 590.314 203.217 590.314 Q207.268 590.314 210.06 593.575 Q212.851 596.835 212.851 601.381 Q212.851 606.149 209.541 609.409 Q206.255 612.67 201.809 612.67 Q197.758 612.67 195.188 609.78 Q192.644 606.89 192.644 603.406 Z" fill="#000000" fill-rule="nonzero" fill-opacity="1" /><path clip-path="url(#clip620)" d="M154.724 262.667 L154.724 261.086 Q160.801 261.086 163.939 257.85 Q164.803 257.85 164.951 258.047 Q165.1 258.245 165.1 259.159 L165.1 287.543 Q165.1 289.05 165.841 289.519 Q166.582 289.989 169.818 289.989 L171.424 289.989 L171.424 291.545 Q169.645 291.397 163.222 291.397 Q156.799 291.397 155.045 291.545 L155.045 289.989 L156.651 289.989 Q159.838 289.989 160.604 289.544 Q161.369 289.075 161.369 287.543 L161.369 261.333 Q158.726 262.667 154.724 262.667 Z" fill="#000000" fill-rule="nonzero" fill-opacity="1" /><path clip-path="url(#clip620)" d="M180.589 290.73 Q179.823 289.915 179.823 288.852 Q179.823 287.79 180.589 287.024 Q181.354 286.234 182.516 286.234 Q183.627 286.234 184.368 286.975 Q185.134 287.691 185.134 288.877 Q185.134 290.038 184.319 290.804 Q183.528 291.545 182.516 291.545 Q181.354 291.545 180.589 290.73 Z" fill="#000000" fill-rule="nonzero" fill-opacity="1" /><path clip-path="url(#clip620)" d="M191.557 275.364 Q191.557 267.929 193.434 263.877 Q196.053 257.85 202.229 257.85 Q203.538 257.85 204.897 258.22 Q206.28 258.566 208.009 259.925 Q209.763 261.284 210.826 263.507 Q212.851 267.805 212.851 275.364 Q212.851 282.751 210.974 286.777 Q208.232 292.657 202.179 292.657 Q199.907 292.657 197.585 291.496 Q195.287 290.335 193.83 287.543 Q191.557 283.368 191.557 275.364 M195.757 274.747 Q195.757 282.38 196.3 285.419 Q196.918 288.704 198.597 290.137 Q200.302 291.545 202.179 291.545 Q204.205 291.545 205.885 290.038 Q207.589 288.507 208.108 285.221 Q208.676 281.985 208.652 274.747 Q208.652 267.706 208.158 264.89 Q207.491 261.605 205.712 260.295 Q203.958 258.961 202.179 258.961 Q201.512 258.961 200.796 259.159 Q200.104 259.357 199.091 259.925 Q198.079 260.493 197.288 261.901 Q196.522 263.309 196.152 265.434 Q195.757 268.176 195.757 274.747 Z" fill="#000000" fill-rule="nonzero" fill-opacity="1" /><path clip-path="url(#clip620)" d="M51.3344 896.66 Q42.3671 896.66 33.4677 887.217 Q32.6865 886.368 32.6865 885.892 L32.6865 885.824 Q32.6865 885.417 33.9433 884.432 Q35.2 883.447 35.6756 883.447 Q36.0153 883.447 37.4758 884.703 Q38.9025 885.96 40.6687 887.421 Q42.435 888.881 45.3222 890.138 Q48.2094 891.395 51.1986 891.395 Q55.5124 891.395 58.4675 888.779 Q61.4227 886.164 61.4227 882.699 Q61.4227 880.254 59.3167 878.555 Q57.1768 876.857 56.1578 876.857 Q56.0898 876.857 54.833 877.197 Q53.5763 877.536 51.8779 877.91 Q50.1456 878.25 48.9228 878.25 Q45.8657 878.25 45.8317 875.804 Q45.8317 873.426 48.9907 873.426 Q50.3833 873.426 52.0477 873.766 Q53.7121 874.072 54.867 874.411 Q55.9879 874.751 56.1578 874.751 Q57.2787 874.751 59.3507 873.019 Q61.4227 871.286 61.4227 868.705 Q61.4227 865.716 58.6034 862.964 Q55.7841 860.213 51.1306 860.213 Q42.3671 860.213 35.4718 866.633 Q34.3509 867.618 34.0112 867.516 Q33.5357 867.448 33.128 867.108 Q32.6865 866.769 32.6865 866.361 Q32.6865 865.92 34.1471 864.391 Q38.5968 859.941 42.6388 857.496 Q46.6809 855.016 51.4024 855.016 Q56.8371 855.016 60.8112 858.005 Q64.7854 860.994 64.7854 865.716 Q64.7854 871.49 57.958 875.804 Q61.1509 877.536 62.9851 880.22 Q64.7854 882.903 64.7854 885.892 Q64.7854 890.614 60.7773 893.637 Q56.7692 896.66 51.3344 896.66 Z" fill="#000000" fill-rule="nonzero" fill-opacity="1" /><path clip-path="url(#clip620)" d="M81.3953 822.204 L11.8307 822.204 L11.8307 811.708 L13.4271 811.708 L13.4271 817.55 L79.7989 817.55 L79.7989 811.708 L81.3953 811.708 L81.3953 822.204 Z" fill="#000000" fill-rule="nonzero" fill-opacity="1" /><path clip-path="url(#clip620)" d="M64.0042 808.175 L61.8642 808.175 Q61.8642 804.473 61.4227 803.624 Q60.9471 802.741 58.7053 802.741 L40.0573 802.741 Q37.4758 802.741 36.8305 803.658 Q36.1851 804.541 36.1851 808.175 L34.0112 808.175 L33.2639 798.495 L40.9065 798.495 Q37.9174 797.51 35.6076 795.438 Q33.2639 793.332 33.2639 789.935 Q33.2639 787.693 34.5207 786.267 Q35.7775 784.806 37.5098 784.806 Q39.0383 784.806 39.8196 785.757 Q40.5668 786.674 40.5668 787.795 Q40.5668 789.052 39.7856 789.935 Q38.9704 790.784 37.5777 790.784 Q36.7286 790.784 36.0832 790.411 Q35.4038 790.003 35.1661 789.697 Q34.9283 789.392 34.8604 789.188 Q34.7924 789.324 34.7924 789.935 Q34.7924 793.773 38.6307 795.981 Q42.435 798.155 47.8698 798.155 L58.5694 798.155 Q60.5735 798.155 61.2189 797.34 Q61.8642 796.491 61.8642 792.856 L61.8642 791.396 L64.0042 791.396 Q63.8004 794.181 63.8004 800.227 Q63.8004 801.076 63.8343 802.401 Q63.8683 803.726 63.9362 805.458 Q64.0042 807.19 64.0042 808.175 Z" fill="#000000" fill-rule="nonzero" fill-opacity="1" /><path clip-path="url(#clip620)" d="M57.3806 780.017 Q51.4703 780.017 48.3453 773.053 Q46.3413 768.875 45.8317 760.248 L43.2842 760.248 Q38.9704 760.248 36.6946 762.524 Q34.3848 764.765 34.3848 767.619 Q34.3848 772.714 37.5777 775.159 Q37.6457 773.087 38.6987 772.34 Q39.7177 771.593 40.7706 771.593 Q42.1633 771.593 43.0804 772.476 Q43.9636 773.325 43.9636 774.786 Q43.9636 776.178 43.1144 777.095 Q42.2312 778.013 40.7027 778.013 Q37.306 778.013 35.0642 774.956 Q32.8223 771.865 32.8223 767.483 Q32.8223 761.776 36.6606 757.972 Q37.8495 756.783 39.378 756.206 Q40.9065 755.594 41.9255 755.526 Q42.9106 755.458 44.8807 755.458 L58.7732 755.458 Q59.1808 755.458 59.8602 755.323 Q60.5395 755.187 61.4227 754.575 Q62.2718 753.93 62.2718 752.877 Q62.2718 750.363 57.8221 750.397 L53.9159 750.397 L53.9159 748.631 L57.8221 748.631 Q61.5246 748.631 62.9851 750.601 Q64.4118 752.537 64.4118 754.338 Q64.4118 756.647 62.7134 758.108 Q61.0151 759.568 58.7053 759.772 Q61.3547 760.825 63.087 763.237 Q64.7854 765.615 64.7854 768.875 Q64.7854 771.389 64.14 773.767 Q63.5286 776.11 61.7963 778.081 Q60.03 780.017 57.3806 780.017 M57.3126 774.65 Q59.8941 774.65 61.5585 772.816 Q63.2229 770.981 63.2229 768.4 Q63.2229 765.479 60.9811 762.863 Q58.7053 760.248 54.2556 760.248 L47.2923 760.248 Q47.5641 767.958 50.6551 771.321 Q53.7121 774.65 57.3126 774.65 Z" fill="#000000" fill-rule="nonzero" fill-opacity="1" /><path clip-path="url(#clip620)" d="M49.0586 745.778 Q42.435 745.778 37.8495 741.158 Q33.2639 736.539 33.2639 730.289 Q33.2639 724.99 37.5777 721.525 L22.5303 721.525 Q19.9488 721.525 19.3034 722.442 Q18.6581 723.326 18.6581 726.926 L16.4842 726.926 L15.7369 716.906 L57.958 716.906 Q60.5395 716.906 61.2189 716.023 Q61.8642 715.105 61.8642 711.505 L64.0042 711.505 L64.7854 721.729 L60.1659 721.729 Q64.7514 725.33 64.7854 731.036 Q64.7854 737.014 60.1998 741.396 Q55.6143 745.778 49.0586 745.778 M49.1266 740.003 Q55.5803 740.003 58.7732 737.999 Q63.2229 735.214 63.2229 730.696 Q63.2229 725.533 58.3656 722.476 Q57.1768 721.695 55.7841 721.729 L41.5179 721.729 Q40.1253 721.729 38.9704 722.476 Q34.7924 725.33 34.7924 729.983 Q34.7924 734.84 39.2421 737.863 Q42.5709 740.003 49.1266 740.003 Z" fill="#000000" fill-rule="nonzero" fill-opacity="1" /><path clip-path="url(#clip620)" d="M80.4103 705.595 Q80.0706 705.595 79.3233 705.323 L13.6989 680.765 Q13.6309 680.765 13.2573 680.595 Q12.8836 680.425 12.6459 680.323 Q12.3741 680.221 12.1703 680.017 Q11.9665 679.78 11.9665 679.508 Q11.9665 678.829 12.8157 678.829 Q12.8836 678.829 13.6989 679.032 L79.3913 703.659 Q80.5801 704.066 80.9198 704.338 Q81.2595 704.576 81.2595 704.983 Q81.2595 705.595 80.4103 705.595 Z" fill="#000000" fill-rule="nonzero" fill-opacity="1" /><path clip-path="url(#clip620)" d="M63.087 672.477 L53.9159 672.477 Q53.1347 672.477 52.8629 672.443 Q52.5912 672.409 52.3874 672.205 Q52.1836 672.001 52.1836 671.594 Q52.1836 671.118 52.3874 670.948 Q52.5912 670.744 53.3724 670.609 Q58.1618 669.556 60.7093 667.314 Q63.2229 665.038 63.2229 660.928 Q63.2229 657.022 61.4906 655.052 Q59.7583 653.082 56.905 653.082 Q51.81 653.082 50.5192 660.317 Q49.67 664.494 49.1266 666.227 Q48.5491 667.959 47.2923 669.488 Q44.8467 672.477 41.3821 672.477 Q37.9174 672.477 35.3699 669.861 Q32.8223 667.212 32.8223 661.37 Q32.8223 657.463 34.7924 654.814 Q34.181 654.033 33.6715 653.625 Q32.8223 652.708 32.8223 652.232 Q32.8223 651.689 33.196 651.587 Q33.5357 651.485 34.5207 651.485 L41.5179 651.485 Q42.2992 651.485 42.5709 651.519 Q42.8426 651.553 43.0464 651.757 Q43.2163 651.961 43.2163 652.402 Q43.2163 653.183 42.5709 653.217 Q34.1471 653.761 34.1471 661.37 Q34.1471 665.48 35.7435 667.314 Q37.306 669.148 39.4459 669.148 Q40.6348 669.148 41.5519 668.605 Q42.435 668.027 42.9785 667.314 Q43.488 666.566 43.9975 665.208 Q44.4731 663.849 44.6429 663.034 Q44.8127 662.185 45.1524 660.588 Q46.2054 655.018 48.4812 652.674 Q51.4024 649.753 55.1048 649.753 Q59.2148 649.753 62.0001 652.538 Q64.7854 655.323 64.7854 660.928 Q64.7854 665.446 61.7623 668.605 Q62.1699 669.012 62.5436 669.318 Q62.8832 669.624 63.0191 669.759 Q63.155 669.861 63.2569 669.895 Q63.3248 669.929 63.3927 669.997 Q64.7854 671.39 64.7854 671.729 Q64.7854 672.273 64.4118 672.375 Q64.0721 672.477 63.087 672.477 Z" fill="#000000" fill-rule="nonzero" fill-opacity="1" /><path clip-path="url(#clip620)" d="M79.7989 645.948 L79.7989 640.106 L13.4271 640.106 L13.4271 645.948 L11.8307 645.948 L11.8307 635.453 L81.3953 635.453 L81.3953 645.948 L79.7989 645.948 Z" fill="#000000" fill-rule="nonzero" fill-opacity="1" /><g clip-path="url(#clip620)">
<text style="fill:#000000; fill-opacity:1; font-family:Century Schoolbook,Georgia,serif; font-size:66px; font-weight:bold; text-anchor:middle;" transform="rotate(0, 1300.8, 57.6)" x="1300.8" y="57.6">Event instantaneous frequency</text>
</g>
<polyline clip-path="url(#clip622)" style="stroke:#ba3d3a; stroke-linecap:round; stroke-linejoin:round; stroke-width:8; stroke-opacity:1; fill:none" points="308.396,260.231 310.138,265.629 311.881,273.392 313.624,283.147 315.366,294.487 317.109,306.934 318.851,320.041 320.594,333.338 322.336,346.466 324.079,359.078 325.822,370.987 327.564,382.036 329.307,392.221 331.049,401.523 332.792,410.045 334.535,417.842 336.277,425.057 338.02,431.757 339.762,438.112 341.505,444.21 343.248,450.245 344.99,456.353 346.733,462.814 348.475,469.846 350.218,477.83 351.961,487.097 353.703,498.108 355.446,511.26 357.188,527.041 358.931,545.799 360.674,567.853 362.416,593.232 364.159,621.727 365.901,652.547 367.644,684.367 369.387,715.079 371.129,742.016 372.872,762.122 374.614,772.653 376.357,771.794 378.1,759.213 379.842,736.21 381.585,705.318 383.327,669.648 385.07,632.073 386.813,594.927 388.555,559.568 390.298,526.755 392.04,496.546 393.783,468.896 395.525,443.566 397.268,420.609 399.011,400.071 400.753,382.228 402.496,367.121 404.238,354.711 405.981,344.45 407.724,335.581 409.466,326.939 411.209,317.443 412.951,306.115 414.694,292.507 416.437,276.647 418.179,259.182 419.922,241.099 421.664,223.618 423.407,207.907 425.15,194.954 426.892,185.462 428.635,179.8 430.377,178.079 432.12,180.126 433.863,185.629 435.605,194.094 437.348,204.999 439.09,217.707 440.833,231.654 442.576,246.223 444.318,260.928 446.061,275.28 447.803,288.952 449.546,301.637 451.289,313.193 453.031,323.487 454.774,332.531 456.516,340.304 458.259,346.889 460.002,352.318 461.744,356.687 463.487,360.035 465.229,362.445 466.972,363.957 468.714,364.63 470.457,364.497 472.2,363.601 473.942,361.976 475.685,359.668 477.427,356.731 479.17,353.22 480.913,349.235 482.655,344.873 484.398,340.299 486.14,335.67 487.883,331.237 489.626,327.228 491.368,323.976 493.111,321.758 494.853,320.961 496.596,321.876 498.339,324.895 500.081,330.296 501.824,338.447 503.566,349.584 505.309,364.064 507.052,382.126 508.794,404.195 510.537,430.64 512.279,462.137 514.022,499.465 515.765,543.928 517.507,597.15 519.25,661.535 520.992,739.836 522.735,835.096 524.478,948.805 526.22,1078.32 527.963,1211.63 529.705,1324.52 531.448,1385.98 533.19,1375.84 534.933,1299.98 536.676,1185.38 538.418,1061.76 540.161,947.915 541.903,851.39 543.646,772.562 545.389,709.201 547.131,658.359 548.874,617.483 550.616,584.38 552.359,557.334 554.102,534.817 555.844,515.574 557.587,498.488 559.329,482.723 561.072,467.657 562.815,453.019 564.557,438.769 566.3,425.169 568.042,412.567 569.785,401.431 571.528,392.143 573.27,385.043 575.013,380.279 576.755,377.922 578.498,377.847 580.241,379.881 581.983,383.715 583.726,389.046 585.468,395.509 587.211,402.791 588.954,410.556 590.696,418.562 592.439,426.562 594.181,434.402 595.924,441.935 597.667,449.087 599.409,455.786 601.152,462.02 602.894,467.758 604.637,473.018 606.379,477.801 608.122,482.135 609.865,486.031 611.607,489.524 613.35,492.633 615.092,495.39 616.835,497.818 618.578,499.95 620.32,501.811 622.063,503.434 623.805,504.852 625.548,506.096 627.291,507.205 629.033,508.213 630.776,509.165 632.518,510.095 634.261,511.058 636.004,512.088 637.746,513.239 639.489,514.538 641.231,516.03 642.974,517.724 644.717,519.65 646.459,521.801 648.202,524.193 649.944,526.798 651.687,529.583 653.43,532.451 655.172,535.307 656.915,538.002 658.657,540.43 660.4,542.478 662.143,544.081 663.885,545.146 665.628,545.57 667.37,545.189 669.113,543.857 670.855,541.44 672.598,537.908 674.341,533.298 676.083,527.711 677.826,521.225 679.568,513.875 681.311,505.628 683.054,496.458 684.796,486.395 686.539,475.602 688.281,464.395 690.024,453.212 691.767,442.566 693.509,432.949 695.252,424.79 696.994,418.387 698.737,413.902 700.48,411.353 702.222,410.645 703.965,411.577 705.707,413.909 707.45,417.348 709.193,421.628 710.935,426.479 712.678,431.691 714.42,437.074 716.163,442.507 717.906,447.876 719.648,453.129 721.391,458.203 723.133,463.081 724.876,467.723 726.619,472.128 728.361,476.27 730.104,480.148 731.846,483.743 733.589,487.058 735.332,490.077 737.074,492.806 738.817,495.233 740.559,497.361 742.302,499.184 744.044,500.705 745.787,501.919 747.53,502.827 749.272,503.424 751.015,503.709 752.757,503.674 754.5,503.313 756.243,502.616 757.985,501.57 759.728,500.168 761.47,498.395 763.213,496.247 764.956,493.708 766.698,490.772 768.441,487.416 770.183,483.627 771.926,479.365 773.669,474.604 775.411,469.295 777.154,463.42 778.896,456.959 780.639,449.952 782.382,442.471 784.124,434.689 785.867,426.834 787.609,419.248 789.352,412.32 791.095,406.514 792.837,402.276 794.58,400.042 796.322,400.134 798.065,402.769 799.808,407.969 801.55,415.602 803.293,425.329 805.035,436.689 806.778,449.097 808.52,461.949 810.263,474.661 812.006,486.759 813.748,497.887 815.491,507.843 817.233,516.544 818.976,524.014 820.719,530.332 822.461,535.619 824.204,540.008 825.946,543.64 827.689,546.659 829.432,549.2 831.174,551.412 832.917,553.421 834.659,555.361 836.402,557.332 838.145,559.443 839.887,561.757 841.63,564.352 843.372,567.274 845.115,570.605 846.858,574.398 848.6,578.76 850.343,583.763 852.085,589.511 853.828,596.047 855.571,603.419 857.313,611.586 859.056,620.512 860.798,630.095 862.541,640.283 864.284,650.999 866.026,662.268 867.769,674.112 869.511,686.614 871.254,699.777 872.997,713.53 874.739,727.574 876.482,741.387 878.224,754.145 879.967,764.829 881.709,772.298 883.452,775.529 885.195,773.788 886.937,766.835 888.68,754.968 890.422,738.972 892.165,719.948 893.908,699.131 895.65,677.692 897.393,656.604 899.135,636.601 900.878,618.15 902.621,601.507 904.363,586.749 906.106,573.84 907.848,562.658 909.591,553.045 911.334,544.796 913.076,537.703 914.819,531.523 916.561,526.044 918.304,521.061 920.047,516.448 921.789,512.126 923.532,508.085 925.274,504.279 927.017,500.611 928.76,496.847 930.502,492.71 932.245,487.926 933.987,482.418 935.73,476.302 937.473,469.88 939.215,463.37 940.958,456.738 942.7,449.519 944.443,440.978 946.186,430.377 947.928,417.419 949.671,402.442 951.413,386.441 953.156,370.709 954.898,356.452 956.641,344.382 958.384,334.65 960.126,326.925 961.869,320.713 963.611,315.605 965.354,311.472 967.097,308.474 968.839,306.955 970.582,307.265 972.324,309.602 974.067,313.942 975.81,320.051 977.552,327.592 979.295,336.205 981.037,345.592 982.78,355.487 984.523,365.678 986.265,375.957 988.008,386.163 989.75,396.134 991.493,405.747 993.236,414.851 994.978,423.354 996.721,431.188 998.463,438.369 1000.21,444.908 1001.95,450.849 1003.69,456.212 1005.43,461.059 1007.18,465.433 1008.92,469.403 1010.66,472.993 1012.4,476.246 1014.15,479.185 1015.89,481.857 1017.63,484.29 1019.37,486.519 1021.12,488.57 1022.86,490.486 1024.6,492.307 1026.34,494.088 1028.09,495.886 1029.83,497.769 1031.57,499.818 1033.32,502.119 1035.06,504.771 1036.8,507.871 1038.54,511.525 1040.29,515.818 1042.03,520.843 1043.77,526.648 1045.51,533.271 1047.26,540.694 1049,548.875 1050.74,557.689 1052.48,566.981 1054.23,576.502 1055.97,585.962 1057.71,594.987 1059.45,603.199 1061.2,610.201 1062.94,615.695 1064.68,619.461 1066.42,621.436 1068.17,621.611 1069.91,620.021 1071.65,616.622 1073.39,611.335 1075.14,604.055 1076.88,594.808 1078.62,583.806 1080.37,571.481 1082.11,558.301 1083.85,544.601 1085.59,530.352 1087.34,515.139 1089.08,498.271 1090.82,479.109 1092.56,457.372 1094.31,433.39 1096.05,408.12 1097.79,382.988 1099.53,359.584 1101.28,339.348 1103.02,323.361 1104.76,312.22 1106.5,306.058 1108.25,304.589 1109.99,307.237 1111.73,313.21 1113.47,321.65 1115.22,331.671 1116.96,342.498 1118.7,353.45 1120.45,364.049 1122.19,373.943 1123.93,382.974 1125.67,391.064 1127.42,398.258 1129.16,404.604 1130.9,410.212 1132.64,415.156 1134.39,419.542 1136.13,423.431 1137.87,426.906 1139.61,430.007 1141.36,432.795 1143.1,435.297 1144.84,437.558 1146.58,439.599 1148.33,441.452 1150.07,443.136 1151.81,444.674 1153.55,446.083 1155.3,447.381 1157.04,448.587 1158.78,449.714 1160.52,450.784 1162.27,451.812 1164.01,452.828 1165.75,453.841 1167.5,454.889 1169.24,455.984 1170.98,457.165 1172.72,458.446 1174.47,459.87 1176.21,461.439 1177.95,463.179 1179.69,465.064 1181.44,467.088 1183.18,469.2 1184.92,471.381 1186.66,473.571 1188.41,475.733 1190.15,477.78 1191.89,479.637 1193.63,481.181 1195.38,482.294 1197.12,482.813 1198.86,482.591 1200.6,481.447 1202.35,479.237 1204.09,475.861 1205.83,471.337 1207.57,465.818 1209.32,459.631 1211.06,453.23 1212.8,447.152 1214.55,441.917 1216.29,437.962 1218.03,435.579 1219.77,434.887 1221.52,435.863 1223.26,438.349 1225,442.126 1226.74,446.924 1228.49,452.489 1230.23,458.565 1231.97,464.937 1233.71,471.393 1235.46,477.762 1237.2,483.865 1238.94,489.568 1240.68,494.732 1242.43,499.276 1244.17,503.126 1245.91,506.277 1247.65,508.73 1249.4,510.552 1251.14,511.806 1252.88,512.601 1254.62,513.025 1256.37,513.19 1258.11,513.172 1259.85,513.057 1261.6,512.896 1263.34,512.742 1265.08,512.612 1266.82,512.532 1268.57,512.495 1270.31,512.504 1272.05,512.544 1273.79,512.599 1275.54,512.649 1277.28,512.676 1279.02,512.656 1280.76,512.565 1282.51,512.384 1284.25,512.084 1285.99,511.645 1287.73,511.039 1289.48,510.244 1291.22,509.224 1292.96,507.955 1294.7,506.393 1296.45,504.506 1298.19,502.238 1299.93,499.547 1301.67,496.366 1303.42,492.643 1305.16,488.303 1306.9,483.274 1308.65,477.436 1310.39,470.617 1312.13,462.499 1313.87,452.628 1315.62,440.392 1317.36,425.189 1319.1,406.622 1320.84,384.822 1322.59,360.654 1324.33,335.825 1326.07,312.678 1327.81,293.852 1329.56,281.788 1331.3,278.336 1333.04,284.382 1334.78,299.661 1336.53,322.692 1338.27,350.965 1340.01,381.288 1341.75,410.366 1343.5,435.514 1345.24,455.333 1346.98,469.921 1348.72,480.437 1350.47,488.299 1352.21,494.646 1353.95,500.255 1355.7,505.605 1357.44,510.886 1359.18,516.021 1360.92,520.882 1362.67,525.422 1364.41,529.687 1366.15,533.673 1367.89,537.366 1369.64,540.765 1371.38,543.929 1373.12,546.879 1374.86,549.626 1376.61,552.155 1378.35,554.502 1380.09,556.675 1381.83,558.697 1383.58,560.56 1385.32,562.287 1387.06,563.883 1388.8,565.369 1390.55,566.739 1392.29,568.015 1394.03,569.194 1395.78,570.294 1397.52,571.311 1399.26,572.26 1401,573.14 1402.75,573.964 1404.49,574.729 1406.23,575.446 1407.97,576.113 1409.72,576.74 1411.46,577.325 1413.2,577.874 1414.94,578.389 1416.69,578.873 1418.43,579.327 1420.17,579.754 1421.91,580.159 1423.66,580.539 1425.4,580.901 1427.14,581.243 1428.88,581.575 1430.63,581.893 1432.37,582.209 1434.11,582.517 1435.85,582.829 1437.6,583.139 1439.34,583.462 1441.08,583.785 1442.83,584.119 1444.57,584.449 1446.31,584.784 1448.05,585.107 1449.8,585.42 1451.54,585.701 1453.28,585.951 1455.02,586.133 1456.77,586.234 1458.51,586.202 1460.25,586.005 1461.99,585.579 1463.74,584.887 1465.48,583.871 1467.22,582.508 1468.96,580.765 1470.71,578.643 1472.45,576.116 1474.19,573.185 1475.93,569.812 1477.68,565.966 1479.42,561.6 1481.16,556.693 1482.9,551.246 1484.65,545.325 1486.39,539.056 1488.13,532.645 1489.88,526.348 1491.62,520.466 1493.36,515.299 1495.1,511.128 1496.85,508.181 1498.59,506.617 1500.33,506.518 1502.07,507.883 1503.82,510.65 1505.56,514.692 1507.3,519.85 1509.04,525.931 1510.79,532.75 1512.53,540.111 1514.27,547.848 1516.01,555.798 1517.76,563.844 1519.5,571.869 1521.24,579.804 1522.98,587.57 1524.73,595.126 1526.47,602.414 1528.21,609.406 1529.95,616.042 1531.7,622.285 1533.44,628.061 1535.18,633.314 1536.93,637.952 1538.67,641.906 1540.41,645.075 1542.15,647.398 1543.9,648.803 1545.64,649.259 1547.38,648.747 1549.12,647.3 1550.87,644.96 1552.61,641.825 1554.35,637.992 1556.09,633.599 1557.84,628.766 1559.58,623.642 1561.32,618.344 1563.06,612.996 1564.81,607.685 1566.55,602.498 1568.29,597.492 1570.03,592.711 1571.78,588.174 1573.52,583.9 1575.26,579.882 1577,576.111 1578.75,572.574 1580.49,569.247 1582.23,566.108 1583.98,563.127 1585.72,560.285 1587.46,557.551 1589.2,554.906 1590.95,552.32 1592.69,549.777 1594.43,547.249 1596.17,544.726 1597.92,542.18 1599.66,539.609 1601.4,536.991 1603.14,534.336 1604.89,531.626 1606.63,528.879 1608.37,526.085 1610.11,523.26 1611.86,520.393 1613.6,517.5 1615.34,514.563 1617.08,511.604 1618.83,508.619 1620.57,505.648 1622.31,502.714 1624.05,499.883 1625.8,497.188 1627.54,494.68 1629.28,492.356 1631.03,490.198 1632.77,488.125 1634.51,486.043 1636.25,483.83 1638,481.409 1639.74,478.731 1641.48,475.845 1643.22,472.876 1644.97,470.042 1646.71,467.605 1648.45,465.859 1650.19,465.074 1651.94,465.464 1653.68,467.157 1655.42,470.186 1657.16,474.487 1658.91,479.905 1660.65,486.228 1662.39,493.203 1664.13,500.578 1665.88,508.109 1667.62,515.602 1669.36,522.893 1671.11,529.88 1672.85,536.48 1674.59,542.655 1676.33,548.356 1678.08,553.557 1679.82,558.203 1681.56,562.256 1683.3,565.647 1685.05,568.345 1686.79,570.297 1688.53,571.498 1690.27,571.946 1692.02,571.687 1693.76,570.765 1695.5,569.274 1697.24,567.29 1698.99,564.923 1700.73,562.257 1702.47,559.393 1704.21,556.395 1705.96,553.338 1707.7,550.259 1709.44,547.204 1711.18,544.185 1712.93,541.221 1714.67,538.308 1716.41,535.443 1718.16,532.6 1719.9,529.758 1721.64,526.888 1723.38,523.973 1725.13,521 1726.87,517.963 1728.61,514.85 1730.35,511.62 1732.1,508.209 1733.84,504.538 1735.58,500.557 1737.32,496.263 1739.07,491.727 1740.81,487.019 1742.55,482.166 1744.29,477.039 1746.04,471.402 1747.78,464.943 1749.52,457.479 1751.26,449.031 1753.01,439.895 1754.75,430.463 1756.49,421.073 1758.23,411.76 1759.98,402.291 1761.72,392.271 1763.46,381.511 1765.21,370.248 1766.95,359.329 1768.69,350.02 1770.43,343.725 1772.18,341.502 1773.92,343.763 1775.66,350.045 1777.4,359.086 1779.15,369.035 1780.89,377.882 1782.63,383.902 1784.37,386.066 1786.12,384.242 1787.86,379.131 1789.6,372.001 1791.34,364.302 1793.09,357.342 1794.83,352.05 1796.57,348.941 1798.31,348.122 1800.06,349.444 1801.8,352.544 1803.54,357.004 1805.28,362.353 1807.03,368.188 1808.77,374.13 1810.51,379.917 1812.26,385.313 1814,390.188 1815.74,394.417 1817.48,397.957 1819.23,400.751 1820.97,402.799 1822.71,404.073 1824.45,404.584 1826.2,404.308 1827.94,403.256 1829.68,401.406 1831.42,398.758 1833.17,395.281 1834.91,390.96 1836.65,385.751 1838.39,379.612 1840.14,372.477 1841.88,364.265 1843.62,354.891 1845.36,344.252 1847.11,332.284 1848.85,318.932 1850.59,304.24 1852.33,288.301 1854.08,271.365 1855.82,253.741 1857.56,235.913 1859.31,218.364 1861.05,201.709 1862.79,186.469 1864.53,173.21 1866.28,162.309 1868.02,154.117 1869.76,148.725 1871.5,146.148 1873.25,146.128 1874.99,148.324 1876.73,152.161 1878.47,157.034 1880.22,162.214 1881.96,167.054 1883.7,171.005 1885.44,173.715 1887.19,175.097 1888.93,175.217 1890.67,174.364 1892.41,172.795 1894.16,170.931 1895.9,169.005 1897.64,167.433 1899.38,166.306 1901.13,165.876 1902.87,166.039 1904.61,166.907 1906.36,168.299 1908.1,170.282 1909.84,172.662 1911.58,175.448 1913.33,178.451 1915.07,181.637 1916.81,184.91 1918.55,188.243 1920.3,191.623 1922.04,194.994 1923.78,198.429 1925.52,201.847 1927.27,205.393 1929.01,208.989 1930.75,212.813 1932.49,216.761 1934.24,221.028 1935.98,225.49 1937.72,230.35 1939.46,235.478 1941.21,241.033 1942.95,246.906 1944.69,253.215 1946.44,259.867 1948.18,266.942 1949.92,274.363 1951.66,282.184 1953.41,290.343 1955.15,298.85 1956.89,307.677 1958.63,316.779 1960.38,326.156 1962.12,335.734 1963.86,345.517 1965.6,355.405 1967.35,365.419 1969.09,375.451 1970.83,385.516 1972.57,395.504 1974.32,405.449 1976.06,415.239 1977.8,424.928 1979.54,434.402 1981.29,443.73 1983.03,452.823 1984.77,461.751 1986.51,470.429 1988.26,478.942 1990,487.221 1991.74,495.347 1993.49,503.277 1995.23,511.094 1996.97,518.762 1998.71,526.372 2000.46,533.918 2002.2,541.49 2003.94,549.075 2005.68,556.783 2007.43,564.622 2009.17,572.683 2010.91,580.999 2012.65,589.681 2014.4,598.762 2016.14,608.378 2017.88,618.608 2019.62,629.59 2021.37,641.446 2023.11,654.347 2024.85,668.426 2026.59,683.875 2028.34,700.837 2030.08,719.492 2031.82,739.918 2033.56,762.203 2035.31,786.266 2037.05,811.897 2038.79,838.619 2040.54,865.72 2042.28,892.067 2044.02,916.252 2045.76,936.583 2047.51,951.346 2049.25,959.062 2050.99,958.782 2052.73,950.335 2054.48,934.345 2056.22,912.158 2057.96,885.43 2059.7,855.999 2061.45,825.432 2063.19,795.101 2064.93,765.88 2066.67,738.456 2068.42,713.087 2070.16,689.959 2071.9,668.99 2073.64,650.151 2075.39,633.218 2077.13,618.077 2078.87,604.484 2080.61,592.309 2082.36,581.3 2084.1,571.32 2085.84,562.149 2087.59,553.688 2089.33,545.767 2091.07,538.357 2092.81,531.366 2094.56,524.808 2096.3,518.591 2098.04,512.661 2099.78,506.84 2101.53,500.972 2103.27,494.843 2105.01,488.355 2106.75,481.46 2108.5,474.275 2110.24,466.944 2111.98,459.643 2113.72,452.415 2115.47,445.169 2117.21,437.626 2118.95,429.436 2120.69,420.268 2122.44,409.974 2124.18,398.675 2125.92,386.793 2127.66,374.995 2129.41,364.069 2131.15,354.808 2132.89,347.848 2134.64,343.636 2136.38,342.344 2138.12,343.938 2139.86,348.155 2141.61,354.625 2143.35,362.86 2145.09,372.383 2146.83,382.701 2148.58,393.413 2150.32,404.152 2152.06,414.676 2153.8,424.779 2155.55,434.365 2157.29,443.353 2159.03,451.739 2160.77,459.508 2162.52,466.699 2164.26,473.325 2166,479.435 2167.74,485.052 2169.49,490.223 2171.23,494.97 2172.97,499.337 2174.71,503.342 2176.46,507.027 2178.2,510.409 2179.94,513.521 2181.69,516.384 2183.43,519.026 2185.17,521.467 2186.91,523.732 2188.66,525.843 2190.4,527.82 2192.14,529.687 2193.88,531.462 2195.63,533.167 2197.37,534.816 2199.11,536.432 2200.85,538.023 2202.6,539.607 2204.34,541.181 2206.08,542.753 2207.82,544.297 2209.57,545.799 2211.31,547.206 2213.05,548.484 2214.79,549.574 2216.54,550.446 2218.28,551.042 2220.02,551.333 2221.77,551.249 2223.51,550.747 2225.25,549.761 2226.99,548.271 2228.74,546.243 2230.48,543.657 2232.22,540.424 2233.96,536.441 2235.71,531.596 2237.45,525.903 2239.19,519.521 2240.93,512.805 2242.68,506.159 2244.42,499.952 2246.16,494.398 2247.9,489.629 2249.65,485.81 2251.39,483.309 2253.13,482.696 2254.87,484.602 2256.62,489.402 2258.36,496.937 2260.1,506.4 2261.84,516.508 2263.59,525.938 2265.33,533.841 2267.07,540.193 2268.82,545.77 2270.56,551.769 2272.3,559.178 2274.04,568.257 2275.79,578.237 2277.53,587.44 2279.27,593.682 2281.01,594.965 2282.76,590.069 2284.5,578.975 2286.24,562.805 2287.98,543.484 2289.73,523.143 2291.47,503.694 2293.21,486.499 "/>
<polyline clip-path="url(#clip622)" style="stroke:#dfba53; stroke-linecap:round; stroke-linejoin:round; stroke-width:8; stroke-opacity:1; fill:none" stroke-dasharray="32, 20" points="1336.53,1385.98 1336.53,146.128 "/>
<polyline clip-path="url(#clip622)" style="stroke:#4a7945; stroke-linecap:round; stroke-linejoin:round; stroke-width:8; stroke-opacity:1; fill:none" stroke-dasharray="32, 20" points="447.803,1385.98 447.803,146.128 "/>
<polyline clip-path="url(#clip622)" style="stroke:#ba3d3a; stroke-linecap:round; stroke-linejoin:round; stroke-width:8; stroke-opacity:1; fill:none" stroke-dasharray="32, 20" points="2153.8,1385.98 2153.8,146.128 "/>
<path clip-path="url(#clip620)" d="M1970.56 1379.37 L2282.63 1379.37 L2282.63 1120.17 L1970.56 1120.17  Z" fill="#ffffff" fill-rule="evenodd" fill-opacity="1"/>
<polyline clip-path="url(#clip620)" style="stroke:#000000; stroke-linecap:round; stroke-linejoin:round; stroke-width:4; stroke-opacity:1; fill:none" points="1970.56,1379.37 2282.63,1379.37 2282.63,1120.17 1970.56,1120.17 1970.56,1379.37 "/>
<polyline clip-path="url(#clip620)" style="stroke:#ba3d3a; stroke-linecap:round; stroke-linejoin:round; stroke-width:8; stroke-opacity:1; fill:none" points="1993.93,1172.01 2134.19,1172.01 "/>
<path clip-path="url(#clip620)" d="M2185.91 1157.61 Q2185.91 1159.79 2184.81 1164 Q2184.37 1165.83 2183.76 1167.49 Q2183.17 1169.13 2182.3 1170.73 Q2181.44 1172.32 2180.43 1173.47 Q2179.42 1174.59 2178.11 1175.29 Q2176.8 1176 2175.35 1176 Q2173.05 1176 2171.69 1174.64 Q2170.36 1173.26 2169.94 1170.89 Q2166.8 1176 2162.61 1176 Q2160.01 1176 2158.79 1174.15 Q2157.57 1172.27 2157.57 1169.13 Q2157.57 1166.49 2158.27 1163.75 Q2159.61 1158.55 2162.21 1154.92 Q2162.56 1154.49 2163.07 1154.49 Q2163.38 1154.49 2163.52 1154.59 Q2163.94 1154.85 2163.94 1155.27 Q2163.94 1155.57 2163.71 1155.88 Q2162.07 1158.15 2160.99 1160.09 Q2159.91 1162.04 2159.42 1164 Q2159.05 1165.69 2159.05 1167.12 Q2159.05 1169.53 2160.08 1171.03 Q2161.13 1172.53 2163.21 1172.53 Q2165.14 1172.53 2166.82 1171.33 Q2168.51 1170.12 2169.75 1168.08 Q2169.82 1165.85 2170.36 1163.75 Q2170.85 1161.5 2172 1161.5 Q2172.91 1161.5 2172.91 1162.74 Q2172.91 1163.16 2172.72 1164 Q2172.21 1166.23 2171.27 1168.22 Q2171.6 1170.16 2172.82 1171.36 Q2174.04 1172.53 2175.98 1172.53 Q2177.78 1172.53 2179.38 1171.22 Q2180.99 1169.91 2182.02 1167.99 Q2183.08 1166.04 2183.66 1163.75 Q2183.85 1162.97 2183.85 1161.99 Q2183.85 1159.37 2182.02 1157.75 Q2181.51 1157.23 2181.51 1156.55 Q2181.51 1155.76 2182.16 1155.03 Q2182.94 1154.26 2183.85 1154.26 Q2184.53 1154.26 2184.95 1154.68 Q2185.91 1155.52 2185.91 1157.61 Z" fill="#000000" fill-rule="nonzero" fill-opacity="1" /><path clip-path="url(#clip620)" d="M2199.33 1168.19 Q2199.33 1168.91 2198.74 1169.45 Q2198.16 1169.98 2197.54 1169.98 Q2196.97 1169.98 2196.61 1169.64 Q2196.26 1169.27 2196.26 1168.77 Q2196.26 1168.09 2196.84 1167.54 Q2197.41 1166.98 2198.08 1166.98 Q2198.64 1166.98 2198.98 1167.32 Q2199.33 1167.67 2199.33 1168.19 M2199.62 1184.37 Q2199.62 1184.51 2199.48 1185.03 Q2199.33 1185.54 2198.97 1186.33 Q2198.62 1187.1 2198.15 1187.82 Q2197.67 1188.54 2196.88 1189.05 Q2196.11 1189.56 2195.23 1189.56 Q2194.03 1189.56 2193.24 1188.77 Q2192.47 1187.98 2192.47 1186.8 Q2192.47 1186.16 2193.24 1184.11 Q2195.47 1178.14 2195.56 1177.9 Q2195.93 1176.96 2195.93 1176.14 Q2195.93 1175.77 2195.85 1175.54 Q2195.77 1175.29 2195.61 1175.21 Q2195.44 1175.11 2195.34 1175.09 Q2195.26 1175.08 2195.1 1175.08 Q2194.13 1175.08 2193.23 1176.06 Q2192.33 1177.05 2191.7 1179.24 Q2191.57 1179.65 2191.49 1179.75 Q2191.41 1179.85 2191.16 1179.85 Q2190.75 1179.83 2190.75 1179.51 Q2190.75 1179.41 2190.87 1179.03 Q2190.98 1178.64 2191.2 1178.05 Q2191.41 1177.44 2191.79 1176.82 Q2192.16 1176.18 2192.62 1175.62 Q2193.1 1175.06 2193.77 1174.7 Q2194.44 1174.34 2195.2 1174.34 Q2196.43 1174.34 2197.18 1175.14 Q2197.95 1175.93 2197.95 1177.1 Q2197.95 1177.73 2197.51 1178.87 Q2196.97 1180.34 2196.77 1180.82 L2195.46 1184.34 Q2194.98 1185.62 2194.84 1186.01 Q2194.7 1186.39 2194.59 1186.85 Q2194.49 1187.29 2194.49 1187.7 Q2194.49 1188.28 2194.67 1188.54 Q2194.87 1188.8 2195.29 1188.8 Q2196.47 1188.8 2197.34 1187.64 Q2198.21 1186.46 2198.72 1184.65 Q2198.74 1184.6 2198.75 1184.52 Q2198.88 1184.11 2199.02 1184.06 Q2199.08 1184.05 2199.21 1184.05 Q2199.62 1184.05 2199.62 1184.37 Z" fill="#000000" fill-rule="nonzero" fill-opacity="1" /><path clip-path="url(#clip620)" d="M2220.68 1184.37 Q2220.68 1184.51 2220.54 1185.01 Q2220.39 1185.52 2220.03 1186.31 Q2219.68 1187.1 2219.21 1187.82 Q2218.73 1188.52 2217.94 1189.05 Q2217.17 1189.56 2216.29 1189.56 Q2215.11 1189.56 2214.32 1188.77 Q2213.53 1187.98 2213.53 1186.8 Q2213.53 1186.15 2213.88 1185.24 Q2216.06 1179.42 2216.06 1177.42 Q2216.06 1175.08 2214.24 1175.08 Q2213.34 1175.08 2212.48 1175.42 Q2211.65 1175.75 2211.07 1176.21 Q2210.5 1176.67 2209.98 1177.31 Q2209.47 1177.93 2209.21 1178.36 Q2208.96 1178.77 2208.76 1179.18 L2208.34 1180.85 Q2208.24 1181.31 2207.76 1183.1 L2207.03 1186.13 Q2206.5 1188.39 2206.39 1188.6 Q2206.22 1189.06 2205.86 1189.31 Q2205.5 1189.56 2205.14 1189.56 Q2204.73 1189.56 2204.45 1189.31 Q2204.17 1189.06 2204.17 1188.64 Q2204.17 1188.57 2204.22 1188.33 Q2204.27 1188.08 2204.35 1187.74 Q2204.43 1187.39 2204.47 1187.19 L2206.42 1179.44 Q2206.78 1178.03 2206.86 1177.59 Q2206.96 1177.13 2206.96 1176.62 Q2206.96 1175.08 2205.91 1175.08 Q2205.06 1175.08 2204.5 1176.1 Q2203.94 1177.11 2203.47 1179.08 Q2203.32 1179.62 2203.22 1179.73 Q2203.14 1179.85 2202.89 1179.85 Q2202.48 1179.83 2202.48 1179.51 Q2202.48 1179.42 2202.61 1178.88 Q2202.75 1178.34 2202.99 1177.57 Q2203.25 1176.78 2203.5 1176.26 Q2203.71 1175.87 2203.83 1175.69 Q2203.96 1175.49 2204.27 1175.11 Q2204.6 1174.72 2205.02 1174.54 Q2205.47 1174.34 2206.01 1174.34 Q2207.22 1174.34 2208.11 1175.13 Q2208.99 1175.9 2209.11 1177.26 Q2211.29 1174.34 2214.34 1174.34 Q2216.14 1174.34 2217.17 1175.29 Q2218.21 1176.24 2218.21 1177.93 Q2218.21 1178.32 2218.12 1178.83 Q2218.06 1179.32 2217.9 1179.95 Q2217.75 1180.57 2217.62 1181.05 Q2217.49 1181.52 2217.22 1182.29 Q2216.96 1183.05 2216.85 1183.37 Q2216.73 1183.7 2216.45 1184.47 Q2216.19 1185.23 2216.16 1185.31 Q2215.55 1186.83 2215.55 1187.7 Q2215.55 1188.28 2215.73 1188.54 Q2215.93 1188.8 2216.35 1188.8 Q2217.5 1188.8 2218.35 1187.67 Q2219.22 1186.52 2219.78 1184.65 Q2219.91 1184.24 2219.98 1184.15 Q2220.06 1184.05 2220.29 1184.05 Q2220.68 1184.05 2220.68 1184.37 Z" fill="#000000" fill-rule="nonzero" fill-opacity="1" /><path clip-path="url(#clip620)" d="M2235.72 1177.23 Q2235.72 1178.14 2235.26 1178.64 Q2234.81 1179.11 2234.18 1179.11 Q2233.67 1179.11 2233.4 1178.82 Q2233.13 1178.52 2233.13 1178.13 Q2233.13 1177.55 2233.59 1177.1 Q2234.07 1176.64 2234.76 1176.62 Q2234.53 1176.01 2233.92 1175.65 Q2233.31 1175.28 2232.77 1175.18 Q2232.25 1175.08 2231.72 1175.08 Q2230.69 1175.08 2229.9 1175.41 Q2229.12 1175.73 2228.72 1176.24 Q2228.33 1176.73 2228.15 1177.21 Q2227.97 1177.69 2227.97 1178.1 Q2227.97 1178.46 2228.05 1178.75 Q2228.15 1179.03 2228.38 1179.24 Q2228.61 1179.44 2228.77 1179.57 Q2228.95 1179.7 2229.35 1179.82 Q2229.74 1179.93 2229.9 1179.98 Q2230.07 1180.01 2230.53 1180.11 Q2231.48 1180.31 2231.9 1180.42 Q2232.33 1180.52 2232.89 1180.8 Q2233.46 1181.08 2233.89 1181.52 Q2234.92 1182.55 2234.92 1183.98 Q2234.92 1184.51 2234.74 1185.15 Q2234.58 1185.78 2234.1 1186.59 Q2233.62 1187.39 2232.9 1188.03 Q2232.18 1188.67 2230.94 1189.11 Q2229.71 1189.56 2228.17 1189.56 Q2226.02 1189.56 2224.69 1188.65 Q2223.36 1187.74 2223.36 1186.29 Q2223.36 1185.24 2223.94 1184.67 Q2224.51 1184.08 2225.25 1184.08 Q2225.8 1184.08 2226.15 1184.39 Q2226.49 1184.69 2226.49 1185.24 Q2226.49 1186 2225.89 1186.57 Q2225.28 1187.15 2224.38 1187.03 Q2225.15 1188.8 2228.2 1188.8 Q2229.35 1188.8 2230.23 1188.51 Q2231.13 1188.2 2231.62 1187.77 Q2232.13 1187.33 2232.46 1186.79 Q2232.79 1186.24 2232.89 1185.83 Q2233 1185.42 2233 1185.11 Q2233 1184.57 2232.79 1184.16 Q2232.58 1183.75 2232.28 1183.52 Q2232 1183.28 2231.46 1183.08 Q2230.94 1182.87 2230.56 1182.78 Q2230.18 1182.7 2229.51 1182.57 Q2229.2 1182.51 2229 1182.47 Q2228.8 1182.42 2228.39 1182.29 Q2228 1182.15 2227.72 1182 Q2227.46 1181.85 2227.12 1181.59 Q2226.77 1181.33 2226.56 1181.01 Q2226.35 1180.7 2226.2 1180.24 Q2226.05 1179.78 2226.05 1179.24 Q2226.05 1178.75 2226.2 1178.16 Q2226.36 1177.57 2226.77 1176.88 Q2227.2 1176.19 2227.8 1175.64 Q2228.41 1175.08 2229.43 1174.72 Q2230.46 1174.34 2231.72 1174.34 Q2233.56 1174.34 2234.64 1175.19 Q2235.72 1176.03 2235.72 1177.23 Z" fill="#000000" fill-rule="nonzero" fill-opacity="1" /><path clip-path="url(#clip620)" d="M2248.1 1175.08 Q2248.1 1175.54 2247.89 1175.65 Q2247.68 1175.75 2247.09 1175.75 L2243.94 1175.75 L2241.45 1185.65 Q2241.25 1186.52 2241.25 1187.26 Q2241.25 1188.08 2241.5 1188.44 Q2241.76 1188.8 2242.3 1188.8 Q2243.37 1188.8 2244.51 1187.83 Q2245.68 1186.87 2246.66 1184.51 Q2246.79 1184.19 2246.86 1184.13 Q2246.94 1184.05 2247.15 1184.05 Q2247.56 1184.05 2247.56 1184.37 Q2247.56 1184.49 2247.33 1185.01 Q2247.12 1185.54 2246.64 1186.31 Q2246.19 1187.08 2245.58 1187.8 Q2244.99 1188.52 2244.09 1189.05 Q2243.19 1189.56 2242.22 1189.56 Q2240.86 1189.56 2239.99 1188.69 Q2239.14 1187.82 2239.14 1186.46 Q2239.14 1186.01 2239.48 1184.6 Q2239.82 1183.18 2241.69 1175.75 L2238.73 1175.75 Q2238.32 1175.75 2238.15 1175.73 Q2238 1175.72 2237.89 1175.64 Q2237.79 1175.54 2237.79 1175.34 Q2237.79 1175.03 2237.92 1174.9 Q2238.05 1174.75 2238.22 1174.73 Q2238.4 1174.7 2238.81 1174.7 L2241.96 1174.7 L2243.27 1169.37 Q2243.4 1168.85 2243.73 1168.55 Q2244.07 1168.24 2244.27 1168.21 Q2244.46 1168.16 2244.61 1168.16 Q2245.05 1168.16 2245.32 1168.41 Q2245.58 1168.63 2245.58 1169.06 Q2245.58 1169.29 2244.2 1174.7 L2247.15 1174.7 Q2247.53 1174.7 2247.68 1174.72 Q2247.84 1174.73 2247.97 1174.82 Q2248.1 1174.9 2248.1 1175.08 Z" fill="#000000" fill-rule="nonzero" fill-opacity="1" /><polyline clip-path="url(#clip620)" style="stroke:#dfba53; stroke-linecap:round; stroke-linejoin:round; stroke-width:8; stroke-opacity:1; fill:none" stroke-dasharray="32, 20" points="1993.93,1223.85 2134.19,1223.85 "/>
<path clip-path="url(#clip620)" d="M2157.57 1249.38 Q2160.26 1249.38 2160.88 1249.04 Q2161.52 1248.72 2161.52 1247.11 L2161.52 1223.42 Q2161.52 1221.74 2160.88 1221.32 Q2160.26 1220.9 2157.57 1220.9 L2157.57 1219.32 L2164.86 1218.78 L2164.86 1222.11 Q2167.9 1218.78 2171.95 1218.78 Q2176.25 1218.78 2179.38 1222.11 Q2182.52 1225.44 2182.52 1230.21 Q2182.52 1235.03 2179.19 1238.36 Q2175.85 1241.7 2171.23 1241.7 Q2168.71 1241.7 2167.01 1240.42 Q2165.33 1239.11 2165.01 1238.14 L2165.01 1238.61 L2165.01 1247.11 Q2165.01 1248.74 2165.65 1249.06 Q2166.29 1249.38 2168.96 1249.38 L2168.96 1250.94 Q2163.65 1250.79 2163.25 1250.79 Q2162.76 1250.79 2157.57 1250.94 L2157.57 1249.38 M2165.01 1235.38 Q2165.01 1236.14 2165.1 1236.41 Q2165.23 1236.68 2165.72 1237.5 Q2167.72 1240.56 2170.98 1240.56 Q2171.01 1240.56 2171.03 1240.56 Q2173.92 1240.56 2176.12 1237.62 Q2178.32 1234.66 2178.32 1230.21 Q2178.32 1225.96 2176.32 1223 Q2174.32 1220.03 2171.55 1220.03 Q2169.58 1220.03 2167.85 1221.1 Q2166.12 1222.16 2165.01 1224.09 L2165.01 1235.38 Z" fill="#000000" fill-rule="nonzero" fill-opacity="1" /><path clip-path="url(#clip620)" d="M2187.04 1229.99 Q2187.04 1225.22 2190.1 1221.84 Q2193.17 1218.45 2197.56 1218.45 Q2202.01 1218.45 2204.31 1221.34 Q2206.63 1224.23 2206.63 1228.38 Q2206.63 1229.15 2206.43 1229.3 Q2206.24 1229.45 2205.37 1229.45 L2191.24 1229.45 Q2191.24 1234.61 2192.77 1237.03 Q2194.9 1240.42 2198.48 1240.42 Q2198.97 1240.42 2199.57 1240.32 Q2200.16 1240.22 2201.37 1239.8 Q2202.58 1239.35 2203.64 1238.19 Q2204.7 1237.03 2205.32 1235.2 Q2205.47 1234.49 2205.96 1234.51 Q2206.63 1234.51 2206.63 1235.1 Q2206.63 1235.55 2206.14 1236.56 Q2205.67 1237.55 2204.75 1238.74 Q2203.84 1239.92 2202.06 1240.81 Q2200.31 1241.7 2198.18 1241.7 Q2193.74 1241.7 2190.38 1238.34 Q2187.04 1234.96 2187.04 1229.99 M2191.29 1228.38 L2203.3 1228.38 Q2203.3 1227.32 2203.1 1226.14 Q2202.93 1224.95 2202.38 1223.32 Q2201.86 1221.67 2200.63 1220.63 Q2199.39 1219.59 2197.56 1219.59 Q2196.75 1219.59 2195.86 1219.94 Q2195 1220.28 2193.93 1221.12 Q2192.87 1221.96 2192.13 1223.86 Q2191.39 1225.77 2191.29 1228.38 Z" fill="#000000" fill-rule="nonzero" fill-opacity="1" /><path clip-path="url(#clip620)" d="M2210.21 1236.31 Q2210.21 1232.02 2215.28 1229.74 Q2218.32 1228.29 2224.59 1227.92 L2224.59 1226.06 Q2224.59 1222.93 2222.94 1221.27 Q2221.3 1219.59 2219.23 1219.59 Q2215.52 1219.59 2213.75 1221.91 Q2215.25 1221.96 2215.8 1222.73 Q2216.34 1223.47 2216.34 1224.23 Q2216.34 1225.25 2215.7 1225.91 Q2215.08 1226.56 2214.02 1226.56 Q2213 1226.56 2212.34 1225.94 Q2211.67 1225.3 2211.67 1224.19 Q2211.67 1221.71 2213.89 1220.08 Q2216.14 1218.45 2219.33 1218.45 Q2223.48 1218.45 2226.25 1221.25 Q2227.11 1222.11 2227.53 1223.22 Q2227.97 1224.33 2228.02 1225.07 Q2228.07 1225.79 2228.07 1227.22 L2228.07 1237.33 Q2228.07 1237.62 2228.17 1238.12 Q2228.27 1238.61 2228.72 1239.25 Q2229.19 1239.87 2229.95 1239.87 Q2231.78 1239.87 2231.75 1236.64 L2231.75 1233.79 L2233.04 1233.79 L2233.04 1236.64 Q2233.04 1239.33 2231.61 1240.39 Q2230.2 1241.43 2228.89 1241.43 Q2227.21 1241.43 2226.15 1240.19 Q2225.08 1238.96 2224.94 1237.28 Q2224.17 1239.2 2222.42 1240.46 Q2220.69 1241.7 2218.32 1241.7 Q2216.49 1241.7 2214.76 1241.23 Q2213.05 1240.79 2211.62 1239.53 Q2210.21 1238.24 2210.21 1236.31 M2214.12 1236.27 Q2214.12 1238.14 2215.45 1239.35 Q2216.78 1240.56 2218.66 1240.56 Q2220.79 1240.56 2222.69 1238.93 Q2224.59 1237.28 2224.59 1234.04 L2224.59 1228.98 Q2218.98 1229.18 2216.54 1231.42 Q2214.12 1233.65 2214.12 1236.27 Z" fill="#000000" fill-rule="nonzero" fill-opacity="1" /><path clip-path="url(#clip620)" d="M2234.79 1241.13 L2234.79 1239.58 Q2237.49 1239.58 2238.1 1239.25 Q2238.75 1238.91 2238.75 1237.28 L2238.75 1210.97 Q2238.75 1209.09 2238.08 1208.62 Q2237.44 1208.15 2234.79 1208.15 L2234.79 1206.57 L2242.08 1206.03 L2242.08 1230.31 L2249.22 1224.14 Q2250.33 1223.17 2250.33 1222.16 Q2250.33 1221 2248.87 1220.9 L2248.87 1219.32 Q2251 1219.47 2254.53 1219.47 Q2256.61 1219.47 2258.06 1219.32 L2258.06 1220.9 Q2254.88 1221.05 2251.69 1223.62 Q2250.97 1224.19 2249.27 1225.67 Q2247.59 1227.12 2247.59 1227.27 Q2247.59 1227.32 2247.64 1227.45 Q2247.71 1227.57 2247.81 1227.67 Q2247.91 1227.77 2247.91 1227.82 L2254.33 1236.88 Q2255.64 1238.71 2256.61 1239.16 Q2257.57 1239.58 2259.25 1239.58 L2259.25 1241.13 Q2257.08 1240.98 2254.83 1240.98 Q2253.62 1240.98 2249.37 1241.13 L2249.37 1239.58 Q2251.2 1239.58 2251.2 1238.39 Q2251.2 1237.57 2247.09 1231.92 Q2246.8 1231.52 2246.13 1230.66 Q2245.51 1229.74 2245.17 1229.3 L2241.93 1232.07 L2241.93 1237.28 Q2241.93 1238.91 2242.55 1239.25 Q2243.19 1239.58 2245.88 1239.58 L2245.88 1241.13 Q2242.85 1240.98 2240.33 1240.98 Q2239.81 1240.98 2234.79 1241.13 Z" fill="#000000" fill-rule="nonzero" fill-opacity="1" /><polyline clip-path="url(#clip620)" style="stroke:#4a7945; stroke-linecap:round; stroke-linejoin:round; stroke-width:8; stroke-opacity:1; fill:none" stroke-dasharray="32, 20" points="1993.93,1275.69 2134.19,1275.69 "/>
<path clip-path="url(#clip620)" d="M2157.57 1292.97 L2157.57 1291.42 Q2160.26 1291.42 2160.88 1291.09 Q2161.5 1290.75 2161.5 1289.12 L2161.5 1262.81 Q2161.5 1260.93 2160.83 1260.46 Q2160.19 1259.99 2157.57 1259.99 L2157.57 1258.41 L2164.83 1257.87 L2164.83 1289.12 Q2164.83 1290.75 2165.48 1291.09 Q2166.12 1291.42 2168.79 1291.42 L2168.79 1292.97 Q2168.17 1292.97 2166.88 1292.92 Q2165.6 1292.87 2164.66 1292.85 Q2163.72 1292.82 2163.18 1292.82 Q2162.58 1292.82 2157.57 1292.97 Z" fill="#000000" fill-rule="nonzero" fill-opacity="1" /><path clip-path="url(#clip620)" d="M2171.31 1259.99 L2171.31 1258.41 L2178.59 1257.87 L2178.59 1273.9 Q2181.53 1270.62 2185.53 1270.62 Q2189.88 1270.62 2193.07 1273.95 Q2196.26 1277.28 2196.26 1282.05 Q2196.26 1286.87 2192.92 1290.2 Q2189.59 1293.54 2184.97 1293.54 Q2180.77 1293.54 2178.35 1289.83 Q2176.57 1292.92 2176.52 1292.97 L2175.26 1292.97 L2175.26 1262.81 Q2175.26 1260.93 2174.59 1260.46 Q2173.92 1259.99 2171.31 1259.99 M2178.74 1287.22 Q2178.74 1288.28 2179.46 1289.34 Q2181.46 1292.4 2184.72 1292.4 Q2184.74 1292.4 2184.77 1292.4 Q2188.3 1292.4 2190.5 1289.17 Q2192.06 1286.75 2192.06 1282 Q2192.06 1277.31 2190.6 1274.96 Q2188.57 1271.73 2185.29 1271.73 Q2181.58 1271.73 2179.31 1274.96 Q2178.74 1275.78 2178.74 1276.79 L2178.74 1287.22 Z" fill="#000000" fill-rule="nonzero" fill-opacity="1" /><polyline clip-path="url(#clip620)" style="stroke:#ba3d3a; stroke-linecap:round; stroke-linejoin:round; stroke-width:8; stroke-opacity:1; fill:none" stroke-dasharray="32, 20" points="1993.93,1327.53 2134.19,1327.53 "/>
<path clip-path="url(#clip620)" d="M2157.57 1324.58 L2157.57 1323 L2165.01 1322.46 L2165.01 1339.25 Q2165.01 1340.46 2165.1 1341.18 Q2165.2 1341.87 2165.6 1342.69 Q2166.02 1343.5 2166.96 1343.87 Q2167.92 1344.24 2169.45 1344.24 Q2172.19 1344.24 2173.87 1342 Q2175.58 1339.75 2175.58 1336.41 L2175.58 1327.4 Q2175.58 1325.52 2174.91 1325.05 Q2174.24 1324.58 2171.63 1324.58 L2171.63 1323 L2179.06 1322.46 L2179.06 1340.41 Q2179.06 1342.29 2179.7 1342.79 Q2180.37 1343.26 2183.01 1343.26 L2183.01 1344.81 L2175.73 1345.38 L2175.73 1340.81 Q2173.6 1345.36 2169.21 1345.38 Q2166.98 1345.38 2165.45 1344.81 Q2163.94 1344.24 2163.18 1343.55 Q2162.41 1342.84 2161.99 1341.48 Q2161.6 1340.12 2161.55 1339.28 Q2161.5 1338.44 2161.5 1336.81 L2161.5 1329.22 Q2161.5 1325.79 2161 1325.2 Q2160.51 1324.58 2157.57 1324.58 Z" fill="#000000" fill-rule="nonzero" fill-opacity="1" /><path clip-path="url(#clip620)" d="M2185.41 1311.83 L2185.41 1310.25 L2192.7 1309.71 L2192.7 1325.74 Q2195.64 1322.46 2199.64 1322.46 Q2203.99 1322.46 2207.17 1325.79 Q2210.36 1329.12 2210.36 1333.89 Q2210.36 1338.71 2207.03 1342.04 Q2203.69 1345.38 2199.07 1345.38 Q2194.87 1345.38 2192.45 1341.67 Q2190.67 1344.76 2190.62 1344.81 L2189.36 1344.81 L2189.36 1314.65 Q2189.36 1312.77 2188.7 1312.3 Q2188.03 1311.83 2185.41 1311.83 M2192.85 1339.06 Q2192.85 1340.12 2193.56 1341.18 Q2195.56 1344.24 2198.82 1344.24 Q2198.85 1344.24 2198.87 1344.24 Q2202.41 1344.24 2204.61 1341.01 Q2206.16 1338.59 2206.16 1333.84 Q2206.16 1329.15 2204.7 1326.8 Q2202.68 1323.57 2199.39 1323.57 Q2195.69 1323.57 2193.41 1326.8 Q2192.85 1327.62 2192.85 1328.63 L2192.85 1339.06 Z" fill="#000000" fill-rule="nonzero" fill-opacity="1" /></svg>
