<?xml version="1.0" encoding="utf-8"?>
<svg xmlns="http://www.w3.org/2000/svg" xmlns:xlink="http://www.w3.org/1999/xlink" width="600" height="400" viewBox="0 0 2400 1600">
<defs>
  <clipPath id="clip960">
    <rect x="0" y="0" width="2400" height="1600"/>
  </clipPath>
</defs>
<path clip-path="url(#clip960)" d="M0 1600 L2400 1600 L2400 0 L0 0  Z" fill="#ffffff" fill-rule="evenodd" fill-opacity="1"/>
<defs>
  <clipPath id="clip961">
    <rect x="480" y="0" width="1681" height="1600"/>
  </clipPath>
</defs>
<path clip-path="url(#clip960)" d="M249.395 1423.18 L2352.76 1423.18 L2352.76 47.2441 L249.395 47.2441  Z" fill="#ffffff" fill-rule="evenodd" fill-opacity="1"/>
<defs>
  <clipPath id="clip962">
    <rect x="249" y="47" width="2104" height="1377"/>
  </clipPath>
</defs>
<polyline clip-path="url(#clip962)" style="stroke:#000000; stroke-linecap:round; stroke-linejoin:round; stroke-width:2; stroke-opacity:0.1; fill:none" points="431.124,1423.18 431.124,47.2441 "/>
<polyline clip-path="url(#clip962)" style="stroke:#000000; stroke-linecap:round; stroke-linejoin:round; stroke-width:2; stroke-opacity:0.1; fill:none" points="741.475,1423.18 741.475,47.2441 "/>
<polyline clip-path="url(#clip962)" style="stroke:#000000; stroke-linecap:round; stroke-linejoin:round; stroke-width:2; stroke-opacity:0.1; fill:none" points="1051.83,1423.18 1051.83,47.2441 "/>
<polyline clip-path="url(#clip962)" style="stroke:#000000; stroke-linecap:round; stroke-linejoin:round; stroke-width:2; stroke-opacity:0.1; fill:none" points="1362.18,1423.18 1362.18,47.2441 "/>
<polyline clip-path="url(#clip962)" style="stroke:#000000; stroke-linecap:round; stroke-linejoin:round; stroke-width:2; stroke-opacity:0.1; fill:none" points="1672.53,1423.18 1672.53,47.2441 "/>
<polyline clip-path="url(#clip962)" style="stroke:#000000; stroke-linecap:round; stroke-linejoin:round; stroke-width:2; stroke-opacity:0.1; fill:none" points="1982.88,1423.18 1982.88,47.2441 "/>
<polyline clip-path="url(#clip962)" style="stroke:#000000; stroke-linecap:round; stroke-linejoin:round; stroke-width:2; stroke-opacity:0.1; fill:none" points="2293.23,1423.18 2293.23,47.2441 "/>
<polyline clip-path="url(#clip960)" style="stroke:#000000; stroke-linecap:round; stroke-linejoin:round; stroke-width:4; stroke-opacity:1; fill:none" points="249.395,1423.18 2352.76,1423.18 "/>
<polyline clip-path="url(#clip960)" style="stroke:#000000; stroke-linecap:round; stroke-linejoin:round; stroke-width:4; stroke-opacity:1; fill:none" points="431.124,1423.18 431.124,1404.28 "/>
<polyline clip-path="url(#clip960)" style="stroke:#000000; stroke-linecap:round; stroke-linejoin:round; stroke-width:4; stroke-opacity:1; fill:none" points="741.475,1423.18 741.475,1404.28 "/>
<polyline clip-path="url(#clip960)" style="stroke:#000000; stroke-linecap:round; stroke-linejoin:round; stroke-width:4; stroke-opacity:1; fill:none" points="1051.83,1423.18 1051.83,1404.28 "/>
<polyline clip-path="url(#clip960)" style="stroke:#000000; stroke-linecap:round; stroke-linejoin:round; stroke-width:4; stroke-opacity:1; fill:none" points="1362.18,1423.18 1362.18,1404.28 "/>
<polyline clip-path="url(#clip960)" style="stroke:#000000; stroke-linecap:round; stroke-linejoin:round; stroke-width:4; stroke-opacity:1; fill:none" points="1672.53,1423.18 1672.53,1404.28 "/>
<polyline clip-path="url(#clip960)" style="stroke:#000000; stroke-linecap:round; stroke-linejoin:round; stroke-width:4; stroke-opacity:1; fill:none" points="1982.88,1423.18 1982.88,1404.28 "/>
<polyline clip-path="url(#clip960)" style="stroke:#000000; stroke-linecap:round; stroke-linejoin:round; stroke-width:4; stroke-opacity:1; fill:none" points="2293.23,1423.18 2293.23,1404.28 "/>
<path clip-path="url(#clip960)" d="M421.984 1472.22 Q422.281 1472.51 422.281 1472.93 Q422.281 1473.35 421.984 1473.65 Q421.688 1473.94 421.268 1473.94 L389.598 1473.94 Q389.178 1473.94 388.882 1473.65 Q388.585 1473.35 388.585 1472.93 Q388.585 1472.51 388.882 1472.22 Q389.178 1471.92 389.598 1471.92 L421.268 1471.92 Q421.688 1471.92 421.984 1472.22 Z" fill="#000000" fill-rule="nonzero" fill-opacity="1" /><path clip-path="url(#clip960)" d="M427.616 1485.58 Q427.616 1484.67 427.691 1484.39 Q427.789 1484.12 428.185 1483.7 L437.893 1472.88 Q443.204 1466.9 443.204 1461.69 Q443.204 1458.31 441.426 1455.89 Q439.672 1453.47 436.436 1453.47 Q434.212 1453.47 432.335 1454.82 Q430.457 1456.18 429.593 1458.6 Q429.741 1458.55 430.26 1458.55 Q431.52 1458.55 432.211 1459.34 Q432.928 1460.14 432.928 1461.2 Q432.928 1462.56 432.038 1463.22 Q431.174 1463.87 430.309 1463.87 Q429.963 1463.87 429.494 1463.79 Q429.049 1463.72 428.333 1463.03 Q427.616 1462.31 427.616 1461.05 Q427.616 1457.52 430.284 1454.7 Q432.977 1451.88 437.078 1451.88 Q441.722 1451.88 444.761 1454.65 Q447.824 1457.39 447.824 1461.69 Q447.824 1463.2 447.354 1464.58 Q446.91 1465.94 446.292 1467 Q445.699 1468.07 444.069 1469.77 Q442.438 1471.47 441.129 1472.68 Q439.82 1473.9 436.88 1476.46 L431.52 1481.68 L440.635 1481.68 Q445.082 1481.68 445.428 1481.28 Q445.922 1480.57 446.539 1476.79 L447.824 1476.79 L446.391 1485.58 L427.616 1485.58 Z" fill="#000000" fill-rule="nonzero" fill-opacity="1" /><path clip-path="url(#clip960)" d="M452.369 1469.4 Q452.369 1461.96 454.247 1457.91 Q456.865 1451.88 463.041 1451.88 Q464.35 1451.88 465.709 1452.26 Q467.092 1452.6 468.822 1453.96 Q470.576 1455.32 471.638 1457.54 Q473.663 1461.84 473.663 1469.4 Q473.663 1476.79 471.786 1480.81 Q469.044 1486.69 462.992 1486.69 Q460.719 1486.69 458.397 1485.53 Q456.099 1484.37 454.642 1481.58 Q452.369 1477.4 452.369 1469.4 M456.569 1468.78 Q456.569 1476.41 457.112 1479.45 Q457.73 1482.74 459.41 1484.17 Q461.114 1485.58 462.992 1485.58 Q465.017 1485.58 466.697 1484.07 Q468.402 1482.54 468.92 1479.26 Q469.489 1476.02 469.464 1468.78 Q469.464 1461.74 468.97 1458.92 Q468.303 1455.64 466.524 1454.33 Q464.77 1453 462.992 1453 Q462.325 1453 461.608 1453.19 Q460.917 1453.39 459.904 1453.96 Q458.891 1454.53 458.1 1455.94 Q457.335 1457.34 456.964 1459.47 Q456.569 1462.21 456.569 1468.78 Z" fill="#000000" fill-rule="nonzero" fill-opacity="1" /><path clip-path="url(#clip960)" d="M730.828 1469.4 Q730.828 1461.96 732.705 1457.91 Q735.324 1451.88 741.499 1451.88 Q742.809 1451.88 744.167 1452.26 Q745.551 1452.6 747.28 1453.96 Q749.034 1455.32 750.096 1457.54 Q752.122 1461.84 752.122 1469.4 Q752.122 1476.79 750.244 1480.81 Q747.502 1486.69 741.45 1486.69 Q739.177 1486.69 736.855 1485.53 Q734.558 1484.37 733.1 1481.58 Q730.828 1477.4 730.828 1469.4 M735.027 1468.78 Q735.027 1476.41 735.571 1479.45 Q736.188 1482.74 737.868 1484.17 Q739.573 1485.58 741.45 1485.58 Q743.476 1485.58 745.156 1484.07 Q746.86 1482.54 747.379 1479.26 Q747.947 1476.02 747.922 1468.78 Q747.922 1461.74 747.428 1458.92 Q746.761 1455.64 744.983 1454.33 Q743.229 1453 741.45 1453 Q740.783 1453 740.067 1453.19 Q739.375 1453.39 738.362 1453.96 Q737.349 1454.53 736.559 1455.94 Q735.793 1457.34 735.422 1459.47 Q735.027 1462.21 735.027 1468.78 Z" fill="#000000" fill-rule="nonzero" fill-opacity="1" /><path clip-path="url(#clip960)" d="M1028.8 1485.58 Q1028.8 1484.67 1028.88 1484.39 Q1028.97 1484.12 1029.37 1483.7 L1039.08 1472.88 Q1044.39 1466.9 1044.39 1461.69 Q1044.39 1458.31 1042.61 1455.89 Q1040.86 1453.47 1037.62 1453.47 Q1035.4 1453.47 1033.52 1454.82 Q1031.64 1456.18 1030.78 1458.6 Q1030.93 1458.55 1031.44 1458.55 Q1032.7 1458.55 1033.4 1459.34 Q1034.11 1460.14 1034.11 1461.2 Q1034.11 1462.56 1033.22 1463.22 Q1032.36 1463.87 1031.49 1463.87 Q1031.15 1463.87 1030.68 1463.79 Q1030.23 1463.72 1029.52 1463.03 Q1028.8 1462.31 1028.8 1461.05 Q1028.8 1457.52 1031.47 1454.7 Q1034.16 1451.88 1038.26 1451.88 Q1042.91 1451.88 1045.95 1454.65 Q1049.01 1457.39 1049.01 1461.69 Q1049.01 1463.2 1048.54 1464.58 Q1048.09 1465.94 1047.48 1467 Q1046.88 1468.07 1045.25 1469.77 Q1043.62 1471.47 1042.31 1472.68 Q1041.01 1473.9 1038.07 1476.46 L1032.7 1481.68 L1041.82 1481.68 Q1046.27 1481.68 1046.61 1481.28 Q1047.11 1480.57 1047.72 1476.79 L1049.01 1476.79 L1047.58 1485.58 L1028.8 1485.58 Z" fill="#000000" fill-rule="nonzero" fill-opacity="1" /><path clip-path="url(#clip960)" d="M1053.55 1469.4 Q1053.55 1461.96 1055.43 1457.91 Q1058.05 1451.88 1064.23 1451.88 Q1065.54 1451.88 1066.89 1452.26 Q1068.28 1452.6 1070.01 1453.96 Q1071.76 1455.32 1072.82 1457.54 Q1074.85 1461.84 1074.85 1469.4 Q1074.85 1476.79 1072.97 1480.81 Q1070.23 1486.69 1064.18 1486.69 Q1061.9 1486.69 1059.58 1485.53 Q1057.28 1484.37 1055.83 1481.58 Q1053.55 1477.4 1053.55 1469.4 M1057.75 1468.78 Q1057.75 1476.41 1058.3 1479.45 Q1058.92 1482.74 1060.59 1484.17 Q1062.3 1485.58 1064.18 1485.58 Q1066.2 1485.58 1067.88 1484.07 Q1069.59 1482.54 1070.11 1479.26 Q1070.67 1476.02 1070.65 1468.78 Q1070.65 1461.74 1070.16 1458.92 Q1069.49 1455.64 1067.71 1454.33 Q1065.96 1453 1064.18 1453 Q1063.51 1453 1062.79 1453.19 Q1062.1 1453.39 1061.09 1453.96 Q1060.08 1454.53 1059.29 1455.94 Q1058.52 1457.34 1058.15 1459.47 Q1057.75 1462.21 1057.75 1468.78 Z" fill="#000000" fill-rule="nonzero" fill-opacity="1" /><path clip-path="url(#clip960)" d="M1338.6 1477.23 L1338.6 1475.67 L1354.13 1451.93 Q1354.53 1451.32 1355.15 1451.34 Q1355.72 1451.34 1355.84 1451.56 Q1355.96 1451.79 1355.96 1452.65 L1355.96 1475.67 L1361.03 1475.67 L1361.03 1477.23 L1355.96 1477.23 L1355.96 1481.63 Q1355.96 1483.08 1356.56 1483.55 Q1357.17 1484.02 1359.79 1484.02 L1360.85 1484.02 L1360.85 1485.58 Q1358.78 1485.43 1353.99 1485.43 Q1349.22 1485.43 1347.14 1485.58 L1347.14 1484.02 L1348.21 1484.02 Q1350.82 1484.02 1351.44 1483.58 Q1352.06 1483.11 1352.06 1481.63 L1352.06 1477.23 L1338.6 1477.23 M1340.03 1475.67 L1352.36 1475.67 L1352.36 1456.8 L1340.03 1475.67 Z" fill="#000000" fill-rule="nonzero" fill-opacity="1" /><path clip-path="url(#clip960)" d="M1364.46 1469.4 Q1364.46 1461.96 1366.34 1457.91 Q1368.96 1451.88 1375.13 1451.88 Q1376.44 1451.88 1377.8 1452.26 Q1379.18 1452.6 1380.91 1453.96 Q1382.67 1455.32 1383.73 1457.54 Q1385.75 1461.84 1385.75 1469.4 Q1385.75 1476.79 1383.88 1480.81 Q1381.14 1486.69 1375.08 1486.69 Q1372.81 1486.69 1370.49 1485.53 Q1368.19 1484.37 1366.73 1481.58 Q1364.46 1477.4 1364.46 1469.4 M1368.66 1468.78 Q1368.66 1476.41 1369.2 1479.45 Q1369.82 1482.74 1371.5 1484.17 Q1373.21 1485.58 1375.08 1485.58 Q1377.11 1485.58 1378.79 1484.07 Q1380.49 1482.54 1381.01 1479.26 Q1381.58 1476.02 1381.56 1468.78 Q1381.56 1461.74 1381.06 1458.92 Q1380.39 1455.64 1378.62 1454.33 Q1376.86 1453 1375.08 1453 Q1374.42 1453 1373.7 1453.19 Q1373.01 1453.39 1372 1453.96 Q1370.98 1454.53 1370.19 1455.94 Q1369.43 1457.34 1369.06 1459.47 Q1368.66 1462.21 1368.66 1468.78 Z" fill="#000000" fill-rule="nonzero" fill-opacity="1" /><path clip-path="url(#clip960)" d="M1649.3 1469.6 Q1649.3 1461.64 1653.36 1456.78 Q1657.41 1451.88 1662.62 1451.88 Q1665.66 1451.88 1667.34 1453.44 Q1669.04 1454.97 1669.04 1457.34 Q1669.04 1458.65 1668.28 1459.22 Q1667.51 1459.79 1666.72 1459.79 Q1665.81 1459.79 1665.09 1459.17 Q1664.37 1458.55 1664.37 1457.44 Q1664.37 1455.17 1667.17 1455.17 Q1665.86 1453.14 1662.72 1453.14 Q1661.76 1453.14 1660.77 1453.44 Q1659.78 1453.71 1658.49 1454.65 Q1657.21 1455.59 1656.22 1457.07 Q1655.23 1458.55 1654.54 1461.35 Q1653.85 1464.14 1653.85 1467.77 L1653.85 1468.98 Q1655.93 1463.96 1660.17 1463.99 Q1664.42 1463.99 1667.36 1467.23 Q1670.3 1470.46 1670.3 1475.25 Q1670.3 1480.17 1667.24 1483.43 Q1664.18 1486.69 1659.88 1486.69 Q1657.95 1486.69 1656.2 1485.88 Q1654.47 1485.09 1652.84 1483.26 Q1651.23 1481.43 1650.27 1477.92 Q1649.3 1474.41 1649.3 1469.6 M1653.95 1474.14 Q1653.95 1479.11 1654.86 1481.48 Q1655.01 1481.87 1655.33 1482.42 Q1655.68 1482.96 1656.25 1483.68 Q1656.84 1484.37 1657.8 1484.84 Q1658.77 1485.28 1659.88 1485.28 Q1663.26 1485.28 1664.89 1482 Q1665.76 1480.17 1665.76 1475.2 Q1665.76 1470.14 1664.84 1468.29 Q1663.29 1465.15 1660.12 1465.15 Q1658 1465.15 1656.52 1466.61 Q1655.06 1468.07 1654.49 1470.02 Q1653.95 1471.97 1653.95 1474.14 Z" fill="#000000" fill-rule="nonzero" fill-opacity="1" /><path clip-path="url(#clip960)" d="M1674.45 1469.4 Q1674.45 1461.96 1676.33 1457.91 Q1678.95 1451.88 1685.12 1451.88 Q1686.43 1451.88 1687.79 1452.26 Q1689.18 1452.6 1690.91 1453.96 Q1692.66 1455.32 1693.72 1457.54 Q1695.75 1461.84 1695.75 1469.4 Q1695.75 1476.79 1693.87 1480.81 Q1691.13 1486.69 1685.08 1486.69 Q1682.8 1486.69 1680.48 1485.53 Q1678.18 1484.37 1676.73 1481.58 Q1674.45 1477.4 1674.45 1469.4 M1678.65 1468.78 Q1678.65 1476.41 1679.2 1479.45 Q1679.81 1482.74 1681.49 1484.17 Q1683.2 1485.58 1685.08 1485.58 Q1687.1 1485.58 1688.78 1484.07 Q1690.49 1482.54 1691 1479.26 Q1691.57 1476.02 1691.55 1468.78 Q1691.55 1461.74 1691.05 1458.92 Q1690.39 1455.64 1688.61 1454.33 Q1686.85 1453 1685.08 1453 Q1684.41 1453 1683.69 1453.19 Q1683 1453.39 1681.99 1453.96 Q1680.97 1454.53 1680.18 1455.94 Q1679.42 1457.34 1679.05 1459.47 Q1678.65 1462.21 1678.65 1468.78 Z" fill="#000000" fill-rule="nonzero" fill-opacity="1" /><path clip-path="url(#clip960)" d="M1959.66 1477.95 Q1959.66 1472.29 1966.94 1468.63 Q1963.81 1466.51 1963.24 1465.89 Q1961.01 1463.42 1961.01 1460.33 Q1961.01 1456.8 1963.68 1454.35 Q1966.37 1451.88 1970.18 1451.88 Q1973.81 1451.88 1976.55 1453.98 Q1979.29 1456.08 1979.29 1459.42 Q1979.29 1464.11 1973.17 1467.27 Q1977.22 1469.79 1978.18 1470.86 Q1980.65 1473.6 1980.65 1477.08 Q1980.65 1481.13 1977.54 1483.92 Q1974.43 1486.69 1970.13 1486.69 Q1965.93 1486.69 1962.79 1484.25 Q1959.66 1481.8 1959.66 1477.95 M1962.17 1477.95 Q1962.17 1481.08 1964.52 1483.18 Q1966.89 1485.28 1970.18 1485.28 Q1973.37 1485.28 1975.74 1483.46 Q1978.13 1481.63 1978.13 1478.91 Q1978.13 1477.85 1977.76 1476.93 Q1977.42 1476.02 1976.7 1475.3 Q1976.01 1474.56 1975.56 1474.24 Q1975.14 1473.9 1974.33 1473.33 L1968.1 1469.4 Q1962.17 1472.68 1962.17 1477.95 M1963.24 1458.36 Q1963.24 1460.78 1965.78 1462.46 L1972.06 1466.51 Q1977.07 1463.57 1977.07 1459.42 Q1977.07 1456.73 1975.02 1454.95 Q1972.97 1453.14 1970.13 1453.14 Q1967.34 1453.14 1965.29 1454.63 Q1963.24 1456.08 1963.24 1458.36 Z" fill="#000000" fill-rule="nonzero" fill-opacity="1" /><path clip-path="url(#clip960)" d="M1984.8 1469.4 Q1984.8 1461.96 1986.68 1457.91 Q1989.3 1451.88 1995.48 1451.88 Q1996.78 1451.88 1998.14 1452.26 Q1999.53 1452.6 2001.26 1453.96 Q2003.01 1455.32 2004.07 1457.54 Q2006.1 1461.84 2006.1 1469.4 Q2006.1 1476.79 2004.22 1480.81 Q2001.48 1486.69 1995.43 1486.69 Q1993.15 1486.69 1990.83 1485.53 Q1988.53 1484.37 1987.08 1481.58 Q1984.8 1477.4 1984.8 1469.4 M1989 1468.78 Q1989 1476.41 1989.55 1479.45 Q1990.16 1482.74 1991.84 1484.17 Q1993.55 1485.58 1995.43 1485.58 Q1997.45 1485.58 1999.13 1484.07 Q2000.84 1482.54 2001.35 1479.26 Q2001.92 1476.02 2001.9 1468.78 Q2001.9 1461.74 2001.4 1458.92 Q2000.74 1455.64 1998.96 1454.33 Q1997.2 1453 1995.43 1453 Q1994.76 1453 1994.04 1453.19 Q1993.35 1453.39 1992.34 1453.96 Q1991.32 1454.53 1990.53 1455.94 Q1989.77 1457.34 1989.4 1459.47 Q1989 1462.21 1989 1468.78 Z" fill="#000000" fill-rule="nonzero" fill-opacity="1" /><path clip-path="url(#clip960)" d="M2258.54 1456.7 L2258.54 1455.12 Q2264.62 1455.12 2267.76 1451.88 Q2268.62 1451.88 2268.77 1452.08 Q2268.92 1452.28 2268.92 1453.19 L2268.92 1481.58 Q2268.92 1483.08 2269.66 1483.55 Q2270.4 1484.02 2273.64 1484.02 L2275.24 1484.02 L2275.24 1485.58 Q2273.46 1485.43 2267.04 1485.43 Q2260.62 1485.43 2258.86 1485.58 L2258.86 1484.02 L2260.47 1484.02 Q2263.66 1484.02 2264.42 1483.58 Q2265.19 1483.11 2265.19 1481.58 L2265.19 1455.37 Q2262.55 1456.7 2258.54 1456.7 Z" fill="#000000" fill-rule="nonzero" fill-opacity="1" /><path clip-path="url(#clip960)" d="M2281.32 1469.4 Q2281.32 1461.96 2283.2 1457.91 Q2285.82 1451.88 2291.99 1451.88 Q2293.3 1451.88 2294.66 1452.26 Q2296.04 1452.6 2297.77 1453.96 Q2299.53 1455.32 2300.59 1457.54 Q2302.61 1461.84 2302.61 1469.4 Q2302.61 1476.79 2300.74 1480.81 Q2297.99 1486.69 2291.94 1486.69 Q2289.67 1486.69 2287.35 1485.53 Q2285.05 1484.37 2283.59 1481.58 Q2281.32 1477.4 2281.32 1469.4 M2285.52 1468.78 Q2285.52 1476.41 2286.06 1479.45 Q2286.68 1482.74 2288.36 1484.17 Q2290.06 1485.58 2291.94 1485.58 Q2293.97 1485.58 2295.65 1484.07 Q2297.35 1482.54 2297.87 1479.26 Q2298.44 1476.02 2298.41 1468.78 Q2298.41 1461.74 2297.92 1458.92 Q2297.25 1455.64 2295.47 1454.33 Q2293.72 1453 2291.94 1453 Q2291.28 1453 2290.56 1453.19 Q2289.87 1453.39 2288.85 1453.96 Q2287.84 1454.53 2287.05 1455.94 Q2286.29 1457.34 2285.91 1459.47 Q2285.52 1462.21 2285.52 1468.78 Z" fill="#000000" fill-rule="nonzero" fill-opacity="1" /><path clip-path="url(#clip960)" d="M2306.62 1469.4 Q2306.62 1461.96 2308.49 1457.91 Q2311.11 1451.88 2317.29 1451.88 Q2318.6 1451.88 2319.96 1452.26 Q2321.34 1452.6 2323.07 1453.96 Q2324.82 1455.32 2325.88 1457.54 Q2327.91 1461.84 2327.91 1469.4 Q2327.91 1476.79 2326.03 1480.81 Q2323.29 1486.69 2317.24 1486.69 Q2314.97 1486.69 2312.64 1485.53 Q2310.35 1484.37 2308.89 1481.58 Q2306.62 1477.4 2306.62 1469.4 M2310.82 1468.78 Q2310.82 1476.41 2311.36 1479.45 Q2311.98 1482.74 2313.66 1484.17 Q2315.36 1485.58 2317.24 1485.58 Q2319.26 1485.58 2320.94 1484.07 Q2322.65 1482.54 2323.17 1479.26 Q2323.74 1476.02 2323.71 1468.78 Q2323.71 1461.74 2323.22 1458.92 Q2322.55 1455.64 2320.77 1454.33 Q2319.02 1453 2317.24 1453 Q2316.57 1453 2315.86 1453.19 Q2315.16 1453.39 2314.15 1453.96 Q2313.14 1454.53 2312.35 1455.94 Q2311.58 1457.34 2311.21 1459.47 Q2310.82 1462.21 2310.82 1468.78 Z" fill="#000000" fill-rule="nonzero" fill-opacity="1" /><path clip-path="url(#clip960)" d="M1270.93 1528.17 Q1270.93 1529.07 1270.51 1529.3 Q1270.1 1529.49 1268.94 1529.49 L1262.75 1529.49 L1257.86 1548.94 Q1257.47 1550.65 1257.47 1552.1 Q1257.47 1553.71 1257.95 1554.42 Q1258.47 1555.13 1259.53 1555.13 Q1261.63 1555.13 1263.88 1553.23 Q1266.17 1551.33 1268.1 1546.69 Q1268.36 1546.08 1268.49 1545.95 Q1268.65 1545.79 1269.07 1545.79 Q1269.87 1545.79 1269.87 1546.43 Q1269.87 1546.66 1269.42 1547.69 Q1269 1548.72 1268.07 1550.23 Q1267.17 1551.75 1265.97 1553.16 Q1264.81 1554.58 1263.04 1555.61 Q1261.27 1556.61 1259.37 1556.61 Q1256.7 1556.61 1254.99 1554.9 Q1253.32 1553.19 1253.32 1550.52 Q1253.32 1549.65 1253.99 1546.88 Q1254.67 1544.08 1258.34 1529.49 L1252.51 1529.49 Q1251.71 1529.49 1251.38 1529.46 Q1251.09 1529.43 1250.87 1529.27 Q1250.68 1529.07 1250.68 1528.69 Q1250.68 1528.07 1250.93 1527.82 Q1251.19 1527.53 1251.51 1527.49 Q1251.87 1527.43 1252.67 1527.43 L1258.86 1527.43 L1261.43 1516.96 Q1261.69 1515.93 1262.33 1515.35 Q1263.01 1514.74 1263.4 1514.68 Q1263.78 1514.58 1264.07 1514.58 Q1264.94 1514.58 1265.46 1515.06 Q1265.97 1515.51 1265.97 1516.35 Q1265.97 1516.8 1263.27 1527.43 L1269.07 1527.43 Q1269.81 1527.43 1270.1 1527.46 Q1270.42 1527.49 1270.68 1527.66 Q1270.93 1527.82 1270.93 1528.17 Z" fill="#000000" fill-rule="nonzero" fill-opacity="1" /><path clip-path="url(#clip960)" d="M1291.68 1572.36 L1291.68 1506.4 L1301.63 1506.4 L1301.63 1507.91 L1296.09 1507.91 L1296.09 1570.84 L1301.63 1570.84 L1301.63 1572.36 L1291.68 1572.36 Z" fill="#000000" fill-rule="nonzero" fill-opacity="1" /><path clip-path="url(#clip960)" d="M1328.57 1532.39 Q1328.57 1534.19 1327.67 1535.16 Q1326.77 1536.09 1325.54 1536.09 Q1324.54 1536.09 1324 1535.51 Q1323.48 1534.93 1323.48 1534.16 Q1323.48 1533.03 1324.38 1532.13 Q1325.32 1531.23 1326.67 1531.2 Q1326.22 1530.01 1325.03 1529.3 Q1323.83 1528.56 1322.77 1528.36 Q1321.74 1528.17 1320.71 1528.17 Q1318.68 1528.17 1317.14 1528.81 Q1315.59 1529.46 1314.82 1530.46 Q1314.04 1531.42 1313.69 1532.36 Q1313.34 1533.29 1313.34 1534.1 Q1313.34 1534.81 1313.5 1535.38 Q1313.69 1535.93 1314.14 1536.35 Q1314.59 1536.74 1314.91 1537 Q1315.27 1537.25 1316.04 1537.48 Q1316.81 1537.7 1317.14 1537.8 Q1317.46 1537.86 1318.36 1538.06 Q1320.23 1538.44 1321.07 1538.67 Q1321.9 1538.86 1323 1539.41 Q1324.12 1539.96 1324.96 1540.83 Q1326.99 1542.86 1326.99 1545.66 Q1326.99 1546.69 1326.64 1547.95 Q1326.31 1549.2 1325.38 1550.78 Q1324.45 1552.36 1323.03 1553.61 Q1321.61 1554.87 1319.17 1555.74 Q1316.75 1556.61 1313.72 1556.61 Q1309.5 1556.61 1306.89 1554.84 Q1304.29 1553.03 1304.29 1550.2 Q1304.29 1548.14 1305.41 1547.01 Q1306.54 1545.85 1307.99 1545.85 Q1309.08 1545.85 1309.76 1546.46 Q1310.44 1547.04 1310.44 1548.14 Q1310.44 1549.62 1309.25 1550.75 Q1308.05 1551.87 1306.28 1551.65 Q1307.8 1555.13 1313.79 1555.13 Q1316.04 1555.13 1317.78 1554.55 Q1319.55 1553.94 1320.52 1553.1 Q1321.52 1552.23 1322.16 1551.17 Q1322.8 1550.1 1323 1549.3 Q1323.22 1548.49 1323.22 1547.88 Q1323.22 1546.82 1322.8 1546.01 Q1322.39 1545.21 1321.81 1544.76 Q1321.26 1544.27 1320.2 1543.89 Q1319.17 1543.47 1318.42 1543.31 Q1317.68 1543.15 1316.36 1542.89 Q1315.75 1542.76 1315.36 1542.7 Q1314.98 1542.6 1314.17 1542.34 Q1313.4 1542.05 1312.85 1541.76 Q1312.34 1541.47 1311.66 1540.96 Q1310.98 1540.44 1310.57 1539.83 Q1310.15 1539.22 1309.86 1538.32 Q1309.57 1537.41 1309.57 1536.35 Q1309.57 1535.38 1309.86 1534.23 Q1310.18 1533.07 1310.98 1531.71 Q1311.82 1530.36 1313.01 1529.27 Q1314.21 1528.17 1316.2 1527.46 Q1318.23 1526.72 1320.71 1526.72 Q1324.32 1526.72 1326.44 1528.4 Q1328.57 1530.04 1328.57 1532.39 Z" fill="#000000" fill-rule="nonzero" fill-opacity="1" /><path clip-path="url(#clip960)" d="M1333.32 1570.84 L1338.86 1570.84 L1338.86 1507.91 L1333.32 1507.91 L1333.32 1506.4 L1343.28 1506.4 L1343.28 1572.36 L1333.32 1572.36 L1333.32 1570.84 Z" fill="#000000" fill-rule="nonzero" fill-opacity="1" /><polyline clip-path="url(#clip962)" style="stroke:#000000; stroke-linecap:round; stroke-linejoin:round; stroke-width:2; stroke-opacity:0.1; fill:none" points="249.395,1269.49 2352.76,1269.49 "/>
<polyline clip-path="url(#clip962)" style="stroke:#000000; stroke-linecap:round; stroke-linejoin:round; stroke-width:2; stroke-opacity:0.1; fill:none" points="249.395,1007.44 2352.76,1007.44 "/>
<polyline clip-path="url(#clip962)" style="stroke:#000000; stroke-linecap:round; stroke-linejoin:round; stroke-width:2; stroke-opacity:0.1; fill:none" points="249.395,745.393 2352.76,745.393 "/>
<polyline clip-path="url(#clip962)" style="stroke:#000000; stroke-linecap:round; stroke-linejoin:round; stroke-width:2; stroke-opacity:0.1; fill:none" points="249.395,483.346 2352.76,483.346 "/>
<polyline clip-path="url(#clip962)" style="stroke:#000000; stroke-linecap:round; stroke-linejoin:round; stroke-width:2; stroke-opacity:0.1; fill:none" points="249.395,221.299 2352.76,221.299 "/>
<polyline clip-path="url(#clip960)" style="stroke:#000000; stroke-linecap:round; stroke-linejoin:round; stroke-width:4; stroke-opacity:1; fill:none" points="249.395,1423.18 249.395,47.2441 "/>
<polyline clip-path="url(#clip960)" style="stroke:#000000; stroke-linecap:round; stroke-linejoin:round; stroke-width:4; stroke-opacity:1; fill:none" points="249.395,1269.49 268.292,1269.49 "/>
<polyline clip-path="url(#clip960)" style="stroke:#000000; stroke-linecap:round; stroke-linejoin:round; stroke-width:4; stroke-opacity:1; fill:none" points="249.395,1007.44 268.292,1007.44 "/>
<polyline clip-path="url(#clip960)" style="stroke:#000000; stroke-linecap:round; stroke-linejoin:round; stroke-width:4; stroke-opacity:1; fill:none" points="249.395,745.393 268.292,745.393 "/>
<polyline clip-path="url(#clip960)" style="stroke:#000000; stroke-linecap:round; stroke-linejoin:round; stroke-width:4; stroke-opacity:1; fill:none" points="249.395,483.346 268.292,483.346 "/>
<polyline clip-path="url(#clip960)" style="stroke:#000000; stroke-linecap:round; stroke-linejoin:round; stroke-width:4; stroke-opacity:1; fill:none" points="249.395,221.299 268.292,221.299 "/>
<path clip-path="url(#clip960)" d="M147.659 1273.4 Q147.956 1273.7 147.956 1274.12 Q147.956 1274.54 147.659 1274.84 Q147.363 1275.13 146.943 1275.13 L115.273 1275.13 Q114.853 1275.13 114.557 1274.84 Q114.26 1274.54 114.26 1274.12 Q114.26 1273.7 114.557 1273.4 Q114.853 1273.11 115.273 1273.11 L146.943 1273.11 Q147.363 1273.11 147.659 1273.4 Z" fill="#000000" fill-rule="nonzero" fill-opacity="1" /><path clip-path="url(#clip960)" d="M153.291 1278.62 Q153.291 1277.11 154.107 1276.54 Q154.922 1275.95 155.787 1275.95 Q156.948 1275.95 157.615 1276.69 Q158.306 1277.4 158.306 1278.42 Q158.306 1279.43 157.615 1280.17 Q156.948 1280.89 155.787 1280.89 Q155.218 1280.89 154.922 1280.79 Q155.589 1283.11 157.615 1284.79 Q159.665 1286.47 162.358 1286.47 Q165.742 1286.47 167.768 1283.19 Q168.978 1281.06 168.978 1276.24 Q168.978 1271.99 168.064 1269.87 Q166.656 1266.63 163.766 1266.63 Q159.665 1266.63 157.244 1270.17 Q156.948 1270.61 156.602 1270.64 Q156.108 1270.64 155.984 1270.36 Q155.885 1270.07 155.885 1269.3 L155.885 1254.33 Q155.885 1253.12 156.379 1253.12 Q156.577 1253.12 156.997 1253.27 Q160.184 1254.68 163.716 1254.7 Q167.348 1254.7 170.609 1253.22 Q170.856 1253.07 171.004 1253.07 Q171.498 1253.07 171.523 1253.64 Q171.523 1253.84 171.103 1254.43 Q170.707 1255 169.843 1255.76 Q168.978 1256.51 167.866 1257.22 Q166.755 1257.94 165.124 1258.43 Q163.519 1258.9 161.74 1258.9 Q159.616 1258.9 157.442 1258.24 L157.442 1268.09 Q160.06 1265.52 163.865 1265.52 Q167.916 1265.52 170.707 1268.78 Q173.499 1272.04 173.499 1276.59 Q173.499 1281.36 170.189 1284.62 Q166.903 1287.88 162.456 1287.88 Q158.405 1287.88 155.836 1284.99 Q153.291 1282.1 153.291 1278.62 Z" fill="#000000" fill-rule="nonzero" fill-opacity="1" /><path clip-path="url(#clip960)" d="M181.132 1285.95 Q180.366 1285.14 180.366 1284.07 Q180.366 1283.01 181.132 1282.25 Q181.898 1281.46 183.059 1281.46 Q184.171 1281.46 184.912 1282.2 Q185.678 1282.91 185.678 1284.1 Q185.678 1285.26 184.862 1286.03 Q184.072 1286.77 183.059 1286.77 Q181.898 1286.77 181.132 1285.95 Z" fill="#000000" fill-rule="nonzero" fill-opacity="1" /><path clip-path="url(#clip960)" d="M192.1 1270.59 Q192.1 1263.15 193.978 1259.1 Q196.596 1253.07 202.772 1253.07 Q204.082 1253.07 205.44 1253.44 Q206.824 1253.79 208.553 1255.15 Q210.307 1256.51 211.369 1258.73 Q213.395 1263.03 213.395 1270.59 Q213.395 1277.97 211.517 1282 Q208.775 1287.88 202.723 1287.88 Q200.45 1287.88 198.128 1286.72 Q195.831 1285.56 194.373 1282.77 Q192.1 1278.59 192.1 1270.59 M196.3 1269.97 Q196.3 1277.6 196.843 1280.64 Q197.461 1283.93 199.141 1285.36 Q200.845 1286.77 202.723 1286.77 Q204.749 1286.77 206.428 1285.26 Q208.133 1283.73 208.652 1280.44 Q209.22 1277.21 209.195 1269.97 Q209.195 1262.93 208.701 1260.11 Q208.034 1256.83 206.255 1255.52 Q204.502 1254.18 202.723 1254.18 Q202.056 1254.18 201.339 1254.38 Q200.648 1254.58 199.635 1255.15 Q198.622 1255.72 197.832 1257.12 Q197.066 1258.53 196.695 1260.66 Q196.3 1263.4 196.3 1269.97 Z" fill="#000000" fill-rule="nonzero" fill-opacity="1" /><path clip-path="url(#clip960)" d="M148.203 1011.36 Q148.499 1011.65 148.499 1012.07 Q148.499 1012.49 148.203 1012.79 Q147.906 1013.09 147.486 1013.09 L115.816 1013.09 Q115.397 1013.09 115.1 1012.79 Q114.804 1012.49 114.804 1012.07 Q114.804 1011.65 115.1 1011.36 Q115.397 1011.06 115.816 1011.06 L147.486 1011.06 Q147.906 1011.06 148.203 1011.36 Z" fill="#000000" fill-rule="nonzero" fill-opacity="1" /><path clip-path="url(#clip960)" d="M153.835 1024.72 Q153.835 1023.81 153.909 1023.53 Q154.008 1023.26 154.403 1022.84 L164.112 1012.02 Q169.423 1006.04 169.423 1000.83 Q169.423 997.448 167.644 995.027 Q165.89 992.606 162.654 992.606 Q160.431 992.606 158.553 993.965 Q156.676 995.323 155.811 997.744 Q155.959 997.695 156.478 997.695 Q157.738 997.695 158.43 998.485 Q159.146 999.276 159.146 1000.34 Q159.146 1001.7 158.257 1002.36 Q157.392 1003.01 156.528 1003.01 Q156.182 1003.01 155.712 1002.93 Q155.268 1002.86 154.551 1002.17 Q153.835 1001.45 153.835 1000.19 Q153.835 996.657 156.503 993.841 Q159.196 991.025 163.296 991.025 Q167.941 991.025 170.979 993.792 Q174.042 996.534 174.042 1000.83 Q174.042 1002.34 173.573 1003.72 Q173.128 1005.08 172.511 1006.14 Q171.918 1007.21 170.287 1008.91 Q168.657 1010.61 167.348 1011.83 Q166.038 1013.04 163.099 1015.6 L157.738 1020.82 L166.854 1020.82 Q171.3 1020.82 171.646 1020.42 Q172.14 1019.71 172.758 1015.93 L174.042 1015.93 L172.609 1024.72 L153.835 1024.72 Z" fill="#000000" fill-rule="nonzero" fill-opacity="1" /><path clip-path="url(#clip960)" d="M181.676 1023.91 Q180.91 1023.09 180.91 1022.03 Q180.91 1020.97 181.676 1020.2 Q182.441 1019.41 183.602 1019.41 Q184.714 1019.41 185.455 1020.15 Q186.221 1020.87 186.221 1022.05 Q186.221 1023.21 185.406 1023.98 Q184.615 1024.72 183.602 1024.72 Q182.441 1024.72 181.676 1023.91 Z" fill="#000000" fill-rule="nonzero" fill-opacity="1" /><path clip-path="url(#clip960)" d="M193.187 1016.57 Q193.187 1015.06 194.003 1014.49 Q194.818 1013.9 195.682 1013.9 Q196.843 1013.9 197.51 1014.64 Q198.202 1015.36 198.202 1016.37 Q198.202 1017.38 197.51 1018.12 Q196.843 1018.84 195.682 1018.84 Q195.114 1018.84 194.818 1018.74 Q195.485 1021.06 197.51 1022.74 Q199.561 1024.42 202.254 1024.42 Q205.638 1024.42 207.664 1021.14 Q208.874 1019.01 208.874 1014.2 Q208.874 1009.95 207.96 1007.82 Q206.552 1004.59 203.662 1004.59 Q199.561 1004.59 197.14 1008.12 Q196.843 1008.56 196.498 1008.59 Q196.004 1008.59 195.88 1008.32 Q195.781 1008.02 195.781 1007.26 L195.781 992.285 Q195.781 991.074 196.275 991.074 Q196.473 991.074 196.893 991.223 Q200.08 992.631 203.612 992.655 Q207.244 992.655 210.504 991.173 Q210.751 991.025 210.9 991.025 Q211.394 991.025 211.418 991.593 Q211.418 991.791 210.999 992.384 Q210.603 992.952 209.739 993.718 Q208.874 994.459 207.762 995.175 Q206.651 995.892 205.02 996.386 Q203.415 996.855 201.636 996.855 Q199.511 996.855 197.338 996.188 L197.338 1006.04 Q199.956 1003.48 203.76 1003.48 Q207.812 1003.48 210.603 1006.74 Q213.395 1010 213.395 1014.54 Q213.395 1019.31 210.084 1022.57 Q206.799 1025.83 202.352 1025.83 Q198.301 1025.83 195.732 1022.94 Q193.187 1020.05 193.187 1016.57 Z" fill="#000000" fill-rule="nonzero" fill-opacity="1" /><path clip-path="url(#clip960)" d="M152.748 746.493 Q152.748 739.057 154.625 735.005 Q157.244 728.978 163.42 728.978 Q164.729 728.978 166.088 729.348 Q167.471 729.694 169.2 731.053 Q170.954 732.412 172.017 734.635 Q174.042 738.933 174.042 746.493 Q174.042 753.879 172.165 757.905 Q169.423 763.785 163.37 763.785 Q161.098 763.785 158.776 762.624 Q156.478 761.463 155.021 758.671 Q152.748 754.496 152.748 746.493 M156.948 745.875 Q156.948 753.508 157.491 756.547 Q158.109 759.832 159.788 761.265 Q161.493 762.673 163.37 762.673 Q165.396 762.673 167.076 761.166 Q168.78 759.635 169.299 756.349 Q169.867 753.113 169.843 745.875 Q169.843 738.834 169.349 736.018 Q168.682 732.733 166.903 731.423 Q165.149 730.089 163.37 730.089 Q162.703 730.089 161.987 730.287 Q161.295 730.485 160.283 731.053 Q159.27 731.621 158.479 733.029 Q157.713 734.437 157.343 736.562 Q156.948 739.304 156.948 745.875 Z" fill="#000000" fill-rule="nonzero" fill-opacity="1" /><path clip-path="url(#clip960)" d="M181.132 761.858 Q180.366 761.043 180.366 759.981 Q180.366 758.918 181.132 758.153 Q181.898 757.362 183.059 757.362 Q184.171 757.362 184.912 758.103 Q185.678 758.819 185.678 760.005 Q185.678 761.166 184.862 761.932 Q184.072 762.673 183.059 762.673 Q181.898 762.673 181.132 761.858 Z" fill="#000000" fill-rule="nonzero" fill-opacity="1" /><path clip-path="url(#clip960)" d="M192.1 746.493 Q192.1 739.057 193.978 735.005 Q196.596 728.978 202.772 728.978 Q204.082 728.978 205.44 729.348 Q206.824 729.694 208.553 731.053 Q210.307 732.412 211.369 734.635 Q213.395 738.933 213.395 746.493 Q213.395 753.879 211.517 757.905 Q208.775 763.785 202.723 763.785 Q200.45 763.785 198.128 762.624 Q195.831 761.463 194.373 758.671 Q192.1 754.496 192.1 746.493 M196.3 745.875 Q196.3 753.508 196.843 756.547 Q197.461 759.832 199.141 761.265 Q200.845 762.673 202.723 762.673 Q204.749 762.673 206.428 761.166 Q208.133 759.635 208.652 756.349 Q209.22 753.113 209.195 745.875 Q209.195 738.834 208.701 736.018 Q208.034 732.733 206.255 731.423 Q204.502 730.089 202.723 730.089 Q202.056 730.089 201.339 730.287 Q200.648 730.485 199.635 731.053 Q198.622 731.621 197.832 733.029 Q197.066 734.437 196.695 736.562 Q196.3 739.304 196.3 745.875 Z" fill="#000000" fill-rule="nonzero" fill-opacity="1" /><path clip-path="url(#clip960)" d="M153.835 500.626 Q153.835 499.712 153.909 499.44 Q154.008 499.169 154.403 498.749 L164.112 487.929 Q169.423 481.95 169.423 476.738 Q169.423 473.354 167.644 470.933 Q165.89 468.512 162.654 468.512 Q160.431 468.512 158.553 469.87 Q156.676 471.229 155.811 473.65 Q155.959 473.601 156.478 473.601 Q157.738 473.601 158.43 474.391 Q159.146 475.182 159.146 476.244 Q159.146 477.603 158.257 478.27 Q157.392 478.912 156.528 478.912 Q156.182 478.912 155.712 478.838 Q155.268 478.764 154.551 478.072 Q153.835 477.355 153.835 476.096 Q153.835 472.563 156.503 469.747 Q159.196 466.931 163.296 466.931 Q167.941 466.931 170.979 469.697 Q174.042 472.44 174.042 476.738 Q174.042 478.245 173.573 479.628 Q173.128 480.987 172.511 482.049 Q171.918 483.111 170.287 484.816 Q168.657 486.52 167.348 487.731 Q166.038 488.941 163.099 491.511 L157.738 496.723 L166.854 496.723 Q171.3 496.723 171.646 496.328 Q172.14 495.611 172.758 491.832 L174.042 491.832 L172.609 500.626 L153.835 500.626 Z" fill="#000000" fill-rule="nonzero" fill-opacity="1" /><path clip-path="url(#clip960)" d="M181.676 499.811 Q180.91 498.996 180.91 497.933 Q180.91 496.871 181.676 496.105 Q182.441 495.315 183.602 495.315 Q184.714 495.315 185.455 496.056 Q186.221 496.772 186.221 497.958 Q186.221 499.119 185.406 499.885 Q184.615 500.626 183.602 500.626 Q182.441 500.626 181.676 499.811 Z" fill="#000000" fill-rule="nonzero" fill-opacity="1" /><path clip-path="url(#clip960)" d="M193.187 492.474 Q193.187 490.967 194.003 490.399 Q194.818 489.806 195.682 489.806 Q196.843 489.806 197.51 490.547 Q198.202 491.263 198.202 492.276 Q198.202 493.289 197.51 494.03 Q196.843 494.747 195.682 494.747 Q195.114 494.747 194.818 494.648 Q195.485 496.97 197.51 498.65 Q199.561 500.33 202.254 500.33 Q205.638 500.33 207.664 497.044 Q208.874 494.92 208.874 490.102 Q208.874 485.853 207.96 483.729 Q206.552 480.493 203.662 480.493 Q199.561 480.493 197.14 484.025 Q196.843 484.47 196.498 484.495 Q196.004 484.495 195.88 484.223 Q195.781 483.927 195.781 483.161 L195.781 468.191 Q195.781 466.98 196.275 466.98 Q196.473 466.98 196.893 467.128 Q200.08 468.536 203.612 468.561 Q207.244 468.561 210.504 467.079 Q210.751 466.931 210.9 466.931 Q211.394 466.931 211.418 467.499 Q211.418 467.696 210.999 468.289 Q210.603 468.858 209.739 469.623 Q208.874 470.364 207.762 471.081 Q206.651 471.797 205.02 472.291 Q203.415 472.761 201.636 472.761 Q199.511 472.761 197.338 472.094 L197.338 481.95 Q199.956 479.381 203.76 479.381 Q207.812 479.381 210.603 482.642 Q213.395 485.903 213.395 490.448 Q213.395 495.216 210.084 498.477 Q206.799 501.738 202.352 501.738 Q198.301 501.738 195.732 498.847 Q193.187 495.957 193.187 492.474 Z" fill="#000000" fill-rule="nonzero" fill-opacity="1" /><path clip-path="url(#clip960)" d="M153.291 230.427 Q153.291 228.92 154.107 228.352 Q154.922 227.759 155.787 227.759 Q156.948 227.759 157.615 228.5 Q158.306 229.216 158.306 230.229 Q158.306 231.242 157.615 231.983 Q156.948 232.699 155.787 232.699 Q155.218 232.699 154.922 232.601 Q155.589 234.923 157.615 236.603 Q159.665 238.282 162.358 238.282 Q165.742 238.282 167.768 234.997 Q168.978 232.872 168.978 228.055 Q168.978 223.806 168.064 221.682 Q166.656 218.446 163.766 218.446 Q159.665 218.446 157.244 221.978 Q156.948 222.423 156.602 222.448 Q156.108 222.448 155.984 222.176 Q155.885 221.879 155.885 221.114 L155.885 206.143 Q155.885 204.933 156.379 204.933 Q156.577 204.933 156.997 205.081 Q160.184 206.489 163.716 206.514 Q167.348 206.514 170.609 205.032 Q170.856 204.884 171.004 204.884 Q171.498 204.884 171.523 205.452 Q171.523 205.649 171.103 206.242 Q170.707 206.81 169.843 207.576 Q168.978 208.317 167.866 209.034 Q166.755 209.75 165.124 210.244 Q163.519 210.714 161.74 210.714 Q159.616 210.714 157.442 210.047 L157.442 219.903 Q160.06 217.334 163.865 217.334 Q167.916 217.334 170.707 220.595 Q173.499 223.856 173.499 228.401 Q173.499 233.169 170.189 236.43 Q166.903 239.691 162.456 239.691 Q158.405 239.691 155.836 236.8 Q153.291 233.91 153.291 230.427 Z" fill="#000000" fill-rule="nonzero" fill-opacity="1" /><path clip-path="url(#clip960)" d="M181.132 237.764 Q180.366 236.948 180.366 235.886 Q180.366 234.824 181.132 234.058 Q181.898 233.268 183.059 233.268 Q184.171 233.268 184.912 234.009 Q185.678 234.725 185.678 235.911 Q185.678 237.072 184.862 237.838 Q184.072 238.579 183.059 238.579 Q181.898 238.579 181.132 237.764 Z" fill="#000000" fill-rule="nonzero" fill-opacity="1" /><path clip-path="url(#clip960)" d="M192.1 222.398 Q192.1 214.962 193.978 210.911 Q196.596 204.884 202.772 204.884 Q204.082 204.884 205.44 205.254 Q206.824 205.6 208.553 206.959 Q210.307 208.317 211.369 210.541 Q213.395 214.839 213.395 222.398 Q213.395 229.784 211.517 233.811 Q208.775 239.691 202.723 239.691 Q200.45 239.691 198.128 238.529 Q195.831 237.368 194.373 234.577 Q192.1 230.402 192.1 222.398 M196.3 221.781 Q196.3 229.414 196.843 232.452 Q197.461 235.738 199.141 237.171 Q200.845 238.579 202.723 238.579 Q204.749 238.579 206.428 237.072 Q208.133 235.54 208.652 232.255 Q209.22 229.019 209.195 221.781 Q209.195 214.74 208.701 211.924 Q208.034 208.638 206.255 207.329 Q204.502 205.995 202.723 205.995 Q202.056 205.995 201.339 206.193 Q200.648 206.39 199.635 206.959 Q198.622 207.527 197.832 208.935 Q197.066 210.343 196.695 212.467 Q196.3 215.21 196.3 221.781 Z" fill="#000000" fill-rule="nonzero" fill-opacity="1" /><path clip-path="url(#clip960)" d="M43.9909 772.59 Q45.7944 772.59 47.8234 773.137 L77.6782 780.641 Q80.3191 781.318 80.3191 783.347 Q80.3191 784.184 79.8038 784.699 Q79.3207 785.182 78.5478 785.182 Q78.2901 785.182 77.485 784.989 L47.147 777.485 Q44.3773 776.809 42.9925 776.809 Q38.3871 776.809 38.3871 780.384 Q38.3871 783.54 40.7059 786.696 Q41.8653 788.145 43.9587 789.562 Q46.0198 790.947 46.7606 791.205 Q48.4353 791.495 49.7235 791.913 Q50.6253 792.107 54.1357 793.04 L60.0938 794.49 Q64.5382 795.52 64.9569 795.746 Q65.8587 796.068 66.3417 796.776 Q66.8248 797.485 66.8248 798.193 Q66.8248 798.999 66.3417 799.546 Q65.8587 800.094 65.0213 800.094 Q64.8925 800.094 64.4094 799.997 Q63.9263 799.9 63.25 799.739 Q62.5737 799.578 62.1872 799.514 L46.9538 795.681 Q44.1841 794.973 43.3146 794.812 Q42.4128 794.619 41.4144 794.619 Q39.6753 794.619 39.0312 795.166 Q38.3871 795.714 38.3871 796.68 Q38.3871 798.354 40.3838 799.449 Q42.3806 800.544 46.2453 801.478 Q47.3081 801.768 47.5335 801.962 Q47.759 802.123 47.759 802.606 Q47.7268 803.411 47.0826 803.411 Q46.9216 803.411 45.891 803.153 Q44.8282 802.895 43.2823 802.412 Q41.7043 801.897 40.7059 801.35 Q40.0296 801.028 39.5787 800.738 Q39.1278 800.448 38.4193 799.868 Q37.7107 799.288 37.3243 798.419 Q36.9378 797.549 36.9378 796.487 Q36.9378 794.135 38.4515 792.396 Q39.9651 790.625 42.6704 790.4 Q41.6721 789.723 40.7703 788.854 Q39.8685 787.952 38.9668 786.696 Q38.0328 785.44 37.4853 783.733 Q36.9378 782.026 36.9378 780.19 Q36.9378 776.519 38.8379 774.554 Q40.7059 772.59 43.9909 772.59 Z" fill="#000000" fill-rule="nonzero" fill-opacity="1" /><path clip-path="url(#clip960)" d="M82.5735 753.539 L16.6159 753.539 L16.6159 743.588 L18.1296 743.588 L18.1296 749.127 L81.0598 749.127 L81.0598 743.588 L82.5735 743.588 L82.5735 753.539 Z" fill="#000000" fill-rule="nonzero" fill-opacity="1" /><path clip-path="url(#clip960)" d="M56.6478 688.211 Q56.9054 688.211 57.9038 688.501 Q58.9022 688.791 60.4481 689.5 Q61.994 690.176 63.411 691.142 Q64.7959 692.076 65.8264 693.622 Q66.8248 695.136 66.8248 696.875 Q66.8248 699.194 65.2789 700.74 Q63.7331 702.285 61.4142 702.285 Q60.1582 702.285 57.775 701.416 Q46.8894 697.326 42.9925 697.326 Q38.3871 697.326 38.3871 700.901 Q38.3871 702.93 39.2244 704.765 Q40.0618 706.601 41.2212 707.793 Q42.3806 708.984 43.701 709.918 Q45.0215 710.852 45.891 711.271 Q46.7606 711.657 47.147 711.754 L63.0567 715.715 Q64.4094 716.037 65.0535 716.263 Q65.6976 716.488 66.2451 717.1 Q66.8248 717.712 66.8248 718.678 Q66.8248 719.483 66.3417 720.063 Q65.8587 720.611 65.0213 720.611 Q64.8925 720.611 64.2162 720.45 Q63.5398 720.288 62.6059 720.063 Q61.6719 719.838 61.1244 719.741 Q56.7444 718.582 56.1325 718.421 L48.4675 716.585 Q44.6672 715.586 42.9925 715.586 Q38.3871 715.586 38.3871 719.161 Q38.3871 720.933 39.0634 722.607 Q39.7075 724.25 40.6093 725.377 Q41.511 726.504 42.7671 727.535 Q43.9909 728.533 44.8282 729.048 Q45.6334 729.532 46.4385 729.918 L49.7235 730.755 Q50.6253 730.949 54.1357 731.883 L60.0938 733.332 Q64.5382 734.362 64.9569 734.588 Q65.8587 734.91 66.3417 735.618 Q66.8248 736.327 66.8248 737.036 Q66.8248 737.841 66.3417 738.388 Q65.8587 738.936 65.0213 738.936 Q64.8925 738.936 64.4094 738.839 Q63.9263 738.742 63.25 738.581 Q62.5737 738.42 62.1872 738.356 L46.9538 734.523 Q44.1841 733.815 43.3146 733.654 Q42.4128 733.461 41.4144 733.461 Q38.3871 733.461 38.3871 735.522 Q38.3871 737.197 40.3838 738.292 Q42.3806 739.387 46.2453 740.321 Q47.3081 740.61 47.5335 740.804 Q47.759 740.965 47.759 741.448 Q47.7268 742.253 47.0826 742.253 Q46.9216 742.253 45.891 741.995 Q44.8604 741.738 43.3146 741.255 Q41.7365 740.739 40.7059 740.192 Q40.0296 739.87 39.5787 739.58 Q39.1278 739.29 38.4193 738.71 Q37.7107 738.131 37.3243 737.261 Q36.9378 736.391 36.9378 735.329 Q36.9378 732.978 38.4515 731.238 Q39.9651 729.467 42.6704 729.242 Q36.9378 724.958 36.9378 718.968 Q36.9378 715.586 38.6447 713.557 Q40.2872 711.657 43.3146 711.432 Q36.9378 706.987 36.9378 700.675 Q36.9378 697.036 38.8379 695.071 Q40.7059 693.107 43.9909 693.107 Q45.6978 693.107 48.9506 693.976 Q52.1712 694.846 53.7815 695.426 Q55.3917 696.005 58.4835 697.132 Q61.4465 698.324 63.1856 698.324 Q64.3128 698.324 64.8281 697.938 Q65.3434 697.551 65.3434 696.714 Q65.3434 695.426 64.6026 694.298 Q63.8297 693.171 62.5737 692.366 Q61.2854 691.529 59.9972 690.981 Q58.6767 690.434 57.1953 690.015 Q56.3901 689.757 56.1969 689.629 Q56.0037 689.467 56.0037 689.017 Q56.0037 688.211 56.6478 688.211 Z" fill="#000000" fill-rule="nonzero" fill-opacity="1" /><path clip-path="url(#clip960)" d="M81.0598 685.163 L81.0598 679.624 L18.1296 679.624 L18.1296 685.163 L16.6159 685.163 L16.6159 675.212 L82.5735 675.212 L82.5735 685.163 L81.0598 685.163 Z" fill="#000000" fill-rule="nonzero" fill-opacity="1" /><polyline clip-path="url(#clip962)" style="stroke:#dfba53; stroke-linecap:round; stroke-linejoin:round; stroke-width:8; stroke-opacity:1; fill:none" points="308.924,745.393 310.864,745.393 312.803,745.393 314.743,745.393 316.683,745.393 318.622,745.393 320.562,745.393 322.502,745.393 324.441,745.393 326.381,745.393 328.321,745.393 330.26,745.393 332.2,745.393 334.14,745.393 336.079,745.393 338.019,745.393 339.959,745.393 341.899,745.393 343.838,745.393 345.778,745.393 347.718,745.393 349.657,745.393 351.597,745.393 353.537,745.393 355.476,745.393 357.416,745.393 359.356,745.393 361.295,745.393 363.235,745.393 365.175,745.393 367.115,745.393 369.054,745.393 370.994,745.393 372.934,745.393 374.873,745.393 376.813,745.84 378.753,748.652 380.692,751.575 382.632,754.553 384.572,757.412 386.511,759.919 388.451,761.845 390.391,763.048 392.331,763.474 394.27,763.129 396.21,762.068 398.15,760.353 400.089,758.044 402.029,755.142 403.969,751.57 405.908,747.322 407.848,742.43 409.788,737.091 411.727,731.412 413.667,725.663 415.607,719.798 417.546,713.911 419.486,707.921 421.426,701.893 423.366,695.902 425.305,689.927 427.245,683.965 429.185,678.026 431.124,672.163 433.064,666.676 435.004,661.746 436.943,657.639 438.883,654.732 440.823,653.146 442.762,653.167 444.702,654.688 446.642,657.669 448.582,661.889 450.521,667.219 452.461,673.671 454.401,681.146 456.34,689.621 458.28,698.837 460.22,708.465 462.159,718.152 464.099,727.625 466.039,736.757 467.978,745.439 469.918,753.637 471.858,761.249 473.797,768.135 475.737,774.126 477.677,779.148 479.617,783.177 481.556,786.299 483.496,788.614 485.436,790.241 487.375,791.274 489.315,791.752 491.255,791.784 493.194,791.487 495.134,791.026 497.074,790.612 499.013,790.429 500.953,790.639 502.893,791.392 504.833,792.911 506.772,795.479 508.712,799.236 510.652,804.342 512.591,810.805 514.531,818.522 516.471,827.25 518.41,836.841 520.35,847.117 522.29,858.001 524.229,869.332 526.169,881.096 528.109,893.004 530.049,904.85 531.988,916.424 533.928,927.347 535.868,937.425 537.807,946.354 539.747,953.83 541.687,959.483 543.626,963.06 545.566,964.31 547.506,963.01 549.445,959.14 551.385,952.48 553.325,943.087 555.264,930.829 557.204,915.837 559.144,898.265 561.084,878.184 563.023,855.754 564.963,831.079 566.903,804.253 568.842,775.423 570.782,744.866 572.722,712.995 574.661,680.221 576.601,646.942 578.541,613.549 580.48,580.1 582.42,546.527 584.36,512.608 586.3,478.431 588.239,444.476 590.179,411.801 592.119,381.51 594.058,354.107 595.998,329.112 597.938,305.351 599.877,281.609 601.817,257.599 603.757,234.554 605.696,215.213 607.636,202.805 609.576,199.955 611.515,207.762 613.455,225.625 615.395,251.521 617.335,282.716 619.274,316.475 621.214,350.871 623.154,385.397 625.093,420.993 627.033,460.223 628.973,506.048 630.912,560.287 632.852,622.51 634.792,690.37 636.731,759.835 638.671,826.552 640.611,887.417 642.551,941.917 644.49,990.61 646.43,1035 648.37,1077.73 650.309,1119.74 652.249,1161.36 654.189,1202.02 656.128,1240.54 658.068,1275.38 660.008,1305.39 661.947,1329.42 663.887,1347.3 665.827,1359.6 667.767,1366.9 669.706,1370.02 671.646,1369.29 673.586,1364.96 675.525,1356.92 677.465,1344.74 679.405,1328.12 681.344,1306.79 683.284,1280.79 685.224,1250.37 687.163,1215.92 689.103,1178.09 691.043,1137.4 692.982,1094.21 694.922,1048.85 696.862,1001.63 698.802,952.893 700.741,902.889 702.681,851.831 704.621,799.839 706.56,746.913 708.5,693.06 710.44,638.56 712.379,583.927 714.319,530.088 716.259,477.953 718.198,428.468 720.138,382.198 722.078,339.404 724.018,299.937 725.957,263.615 727.897,230.259 729.837,200.052 731.776,173.373 733.716,150.992 735.656,133.634 737.595,121.783 739.535,115.522 741.475,114.894 743.414,119.549 745.354,129.158 747.294,143.061 749.233,161.032 751.173,182.882 753.113,208.302 755.053,237.331 756.992,270.042 758.932,306.252 760.872,345.805 762.811,388.048 764.751,432.469 766.691,478.058 768.63,523.99 770.57,569.703 772.51,614.717 774.449,658.838 776.389,701.755 778.329,743.18 780.269,782.821 782.208,820.421 784.148,855.974 786.088,889.487 788.027,921.229 789.967,951.31 791.907,979.708 793.846,1006.34 795.786,1031.1 797.726,1054.03 799.665,1075.18 801.605,1094.67 803.545,1112.54 805.484,1128.72 807.424,1143.01 809.364,1155.14 811.304,1165 813.243,1172.69 815.183,1178.43 817.123,1182.44 819.062,1184.92 821.002,1185.83 822.942,1185.1 824.881,1182.58 826.821,1178.22 828.761,1171.96 830.7,1163.73 832.64,1153.48 834.58,1141.19 836.52,1126.74 838.459,1110.16 840.399,1091.41 842.339,1070.56 844.278,1047.56 846.218,1022.48 848.158,995.434 850.097,966.443 852.037,935.696 853.977,903.431 855.916,869.88 857.856,835.399 859.796,800.268 861.736,764.931 863.675,729.693 865.615,694.873 867.555,660.892 869.494,627.886 871.434,596.176 873.374,565.936 875.313,537.153 877.253,510.173 879.193,485.143 881.132,462.311 883.072,441.919 885.012,424.251 886.951,409.45 888.891,397.576 890.831,388.609 892.771,382.464 894.71,379.018 896.65,378.123 898.59,379.589 900.529,383.225 902.469,388.828 904.409,396.229 906.348,405.247 908.288,415.779 910.228,427.72 912.167,440.888 914.107,455.034 916.047,469.879 917.987,485.177 919.926,500.707 921.866,516.316 923.806,531.945 925.745,547.618 927.685,563.402 929.625,579.389 931.564,595.597 933.504,611.996 935.444,628.538 937.383,645.085 939.323,661.529 941.263,677.748 943.202,693.75 945.142,709.552 947.082,725.19 949.022,740.782 950.961,756.427 952.901,772.19 954.841,788.145 956.78,804.324 958.72,820.79 960.66,837.391 962.599,854.09 964.539,870.96 966.479,887.759 968.418,904.444 970.358,920.551 972.298,936.143 974.238,950.966 976.177,964.69 978.117,977.108 980.057,987.307 981.996,995.88 983.936,1003.23 985.876,1009.26 987.815,1013.85 989.755,1017.31 991.695,1019.48 993.634,1020.44 995.574,1020.26 997.514,1018.81 999.454,1016.06 1001.39,1011.94 1003.33,1006.4 1005.27,999.447 1007.21,991.087 1009.15,981.41 1011.09,970.429 1013.03,958.055 1014.97,944.198 1016.91,928.742 1018.85,911.796 1020.79,893.501 1022.73,874.005 1024.67,853.475 1026.61,831.925 1028.55,809.581 1030.49,786.822 1032.43,763.878 1034.37,740.898 1036.31,718.092 1038.25,695.891 1040.19,674.536 1042.13,654.158 1044.07,634.745 1046.01,616.223 1047.95,598.575 1049.89,581.877 1051.83,566.449 1053.76,552.434 1055.7,540.103 1057.64,529.706 1059.58,521.204 1061.52,514.667 1063.46,510.055 1065.4,507.596 1067.34,507.371 1069.28,509.371 1071.22,513.674 1073.16,520.143 1075.1,528.487 1077.04,538.424 1078.98,549.489 1080.92,561.753 1082.86,575.021 1084.8,589.099 1086.74,603.804 1088.68,618.931 1090.62,634.698 1092.56,650.484 1094.5,666.306 1096.44,681.872 1098.38,697.426 1100.32,712.508 1102.26,727.043 1104.2,740.899 1106.14,754.247 1108.08,766.945 1110.02,779.076 1111.96,790.588 1113.9,801.486 1115.83,811.619 1117.77,820.826 1119.71,828.948 1121.65,835.778 1123.59,841.243 1125.53,845.397 1127.47,848.305 1129.41,850.082 1131.35,850.813 1133.29,850.538 1135.23,849.277 1137.17,847.055 1139.11,844.027 1141.05,840.243 1142.99,835.806 1144.93,830.838 1146.87,825.535 1148.81,820.058 1150.75,814.498 1152.69,808.884 1154.63,803.312 1156.57,797.706 1158.51,792.063 1160.45,786.271 1162.39,780.358 1164.33,774.234 1166.27,767.897 1168.21,761.395 1170.15,754.733 1172.09,747.892 1174.03,740.93 1175.97,733.937 1177.91,727.137 1179.84,720.716 1181.78,714.943 1183.72,709.901 1185.66,705.696 1187.6,702.264 1189.54,699.582 1191.48,697.594 1193.42,696.411 1195.36,695.988 1197.3,696.344 1199.24,697.497 1201.18,699.411 1203.12,701.888 1205.06,704.819 1207,708.123 1208.94,711.781 1210.88,715.689 1212.82,719.659 1214.76,723.661 1216.7,727.571 1218.64,731.282 1220.58,734.734 1222.52,738.021 1224.46,741.238 1226.4,744.5 1228.34,747.905 1230.28,751.473 1232.22,755.103 1234.16,758.712 1236.1,762.197 1238.04,765.465 1239.98,768.389 1241.91,770.984 1243.85,773.265 1245.79,775.273 1247.73,777.051 1249.67,778.738 1251.61,780.493 1253.55,782.423 1255.49,784.573 1257.43,786.969 1259.37,789.554 1261.31,792.297 1263.25,795.134 1265.19,798.046 1267.13,800.975 1269.07,803.79 1271.01,806.383 1272.95,808.619 1274.89,810.415 1276.83,811.721 1278.77,812.486 1280.71,812.73 1282.65,812.361 1284.59,811.289 1286.53,809.43 1288.47,806.603 1290.41,802.777 1292.35,797.919 1294.29,792.134 1296.23,785.507 1298.17,778.184 1300.11,770.285 1302.05,762.165 1303.98,754.087 1305.92,746.159 1307.86,738.523 1309.8,730.958 1311.74,723.527 1313.68,716.129 1315.62,708.679 1317.56,701.208 1319.5,693.689 1321.44,686.157 1323.38,678.77 1325.32,671.629 1327.26,664.829 1329.2,658.458 1331.14,652.691 1333.08,647.724 1335.02,643.717 1336.96,640.833 1338.9,639.117 1340.84,638.458 1342.78,638.685 1344.72,639.546 1346.66,640.868 1348.6,642.551 1350.54,644.61 1352.48,647.144 1354.42,650.24 1356.36,653.985 1358.3,658.33 1360.24,663.154 1362.18,668.285 1364.12,673.627 1366.05,679.132 1367.99,684.899 1369.93,691.082 1371.87,697.775 1373.81,705.03 1375.75,712.75 1377.69,720.821 1379.63,729.134 1381.57,737.594 1383.51,746.301 1385.45,755.177 1387.39,764.238 1389.33,773.39 1391.27,782.495 1393.21,791.38 1395.15,799.794 1397.09,807.579 1399.03,814.639 1400.97,820.923 1402.91,826.579 1404.85,831.671 1406.79,836.428 1408.73,840.982 1410.67,845.428 1412.61,849.736 1414.55,853.791 1416.49,857.526 1418.43,860.761 1420.37,863.208 1422.31,864.693 1424.25,864.974 1426.19,863.875 1428.13,861.344 1430.06,857.234 1432,851.731 1433.94,844.751 1435.88,836.622 1437.82,827.519 1439.76,817.6 1441.7,807.134 1443.64,796.238 1445.58,785.224 1447.52,774.268 1449.46,763.647 1451.4,753.592 1453.34,744.113 1455.28,735.298 1457.22,727.151 1459.16,719.608 1461.1,712.63 1463.04,706.198 1464.98,700.363 1466.92,695.086 1468.86,690.325 1470.8,686.074 1472.74,682.26 1474.68,678.904 1476.62,676.149 1478.56,674.208 1480.5,673.279 1482.44,673.379 1484.38,674.498 1486.32,676.467 1488.26,679.089 1490.2,682.209 1492.13,685.769 1494.07,689.769 1496.01,694.132 1497.95,698.726 1499.89,703.485 1501.83,708.275 1503.77,713.099 1505.71,717.92 1507.65,722.842 1509.59,727.852 1511.53,732.916 1513.47,737.881 1515.41,742.627 1517.35,747.003 1519.29,750.994 1521.23,754.496 1523.17,757.58 1525.11,760.323 1527.05,762.69 1528.99,764.684 1530.93,766.207 1532.87,767.302 1534.81,767.946 1536.75,768.14 1538.69,768.068 1540.63,767.741 1542.57,767.243 1544.51,766.406 1546.45,765.032 1548.39,762.812 1550.33,759.553 1552.27,755.144 1554.2,749.701 1556.14,743.458 1558.08,736.708 1560.02,729.616 1561.96,722.262 1563.9,714.788 1565.84,707.337 1567.78,700.159 1569.72,693.603 1571.66,687.97 1573.6,683.566 1575.54,680.488 1577.48,678.721 1579.42,678.083 1581.36,678.359 1583.3,679.457 1585.24,681.294 1587.18,683.807 1589.12,686.977 1591.06,690.659 1593,694.742 1594.94,699.024 1596.88,703.408 1598.82,707.714 1600.76,711.781 1602.7,715.567 1604.64,719.15 1606.58,722.562 1608.52,725.93 1610.46,729.356 1612.4,733.192 1614.34,737.535 1616.27,742.079 1618.21,746.668 1620.15,751.444 1622.09,756.48 1624.03,761.69 1625.97,767.012 1627.91,773.515 1629.85,780.105 1631.79,786.895 1633.73,794.982 1635.67,803.904 1637.61,814.6 1639.55,825.855 1641.49,837.791 1643.43,850.66 1645.37,864.089 1647.31,878.273 1649.25,892.155 1651.19,905.346 1653.13,917.934 1655.07,929.506 1657.01,939.937 1658.95,948.629 1660.89,955.202 1662.83,959.534 1664.77,961.393 1666.71,960.74 1668.65,957.385 1670.59,951.221 1672.53,942.139 1674.47,930.017 1676.41,914.82 1678.35,896.698 1680.28,875.841 1682.22,852.532 1684.16,827.012 1686.1,799.642 1688.04,770.793 1689.98,740.863 1691.92,710.348 1693.86,679.795 1695.8,649.681 1697.74,620.483 1699.68,592.59 1701.62,566.487 1703.56,542.45 1705.5,520.853 1707.44,501.997 1709.38,486.137 1711.32,473.32 1713.26,463.543 1715.2,456.789 1717.14,452.956 1719.08,451.904 1721.02,453.478 1722.96,457.585 1724.9,464.025 1726.84,472.627 1728.78,483.295 1730.72,495.822 1732.66,510.094 1734.6,525.933 1736.54,543.27 1738.48,561.885 1740.42,581.41 1742.35,601.643 1744.29,622.176 1746.23,642.751 1748.17,663.137 1750.11,683.183 1752.05,702.914 1753.99,722.325 1755.93,741.596 1757.87,760.711 1759.81,779.696 1761.75,798.557 1763.69,817.103 1765.63,835.136 1767.57,852.37 1769.51,868.574 1771.45,883.329 1773.39,896.32 1775.33,907.436 1777.27,916.604 1779.21,923.975 1781.15,929.783 1783.09,934.236 1785.03,937.235 1786.97,938.482 1788.91,937.708 1790.85,934.812 1792.79,929.988 1794.73,923.484 1796.67,915.492 1798.61,906.099 1800.55,895.451 1802.49,883.925 1804.42,871.974 1806.36,860.158 1808.3,848.718 1810.24,837.723 1812.18,827.077 1814.12,816.776 1816.06,807.113 1818,798.638 1819.94,792.001 1821.88,787.607 1823.82,785.506 1825.76,785.586 1827.7,787.581 1829.64,791.352 1831.58,796.871 1833.52,804.256 1835.46,813.569 1837.4,824.703 1839.34,837.277 1841.28,850.71 1843.22,864.197 1845.16,877.033 1847.1,888.528 1849.04,898.164 1850.98,905.229 1852.92,909.147 1854.86,909.155 1856.8,904.722 1858.74,895.497 1860.68,881.563 1862.62,863.443 1864.56,841.68 1866.49,816.689 1868.43,788.707 1870.37,757.49 1872.31,722.95 1874.25,684.95 1876.19,643.999 1878.13,601.127 1880.07,557.697 1882.01,515.193 1883.95,474.688 1885.89,436.632 1887.83,400.825 1889.77,366.644 1891.71,333.66 1893.65,302.084 1895.59,273.058 1897.53,248.51 1899.47,230.57 1901.41,220.878 1903.35,220.163 1905.29,227.928 1907.23,243.043 1909.17,263.868 1911.11,288.985 1913.05,317.291 1914.99,348.396 1916.93,382.427 1918.87,419.904 1920.81,461.434 1922.75,507.461 1924.69,557.791 1926.63,611.647 1928.57,667.539 1930.5,723.742 1932.44,745.393 1934.38,745.393 1936.32,745.393 1938.26,745.393 1940.2,745.393 1942.14,745.393 1944.08,745.393 1946.02,745.393 1947.96,745.393 1949.9,745.393 1951.84,745.393 1953.78,745.393 1955.72,745.393 1957.66,745.393 1959.6,745.393 1961.54,745.393 1963.48,745.393 1965.42,745.393 1967.36,745.393 1969.3,745.393 1971.24,745.393 1973.18,745.393 1975.12,745.393 1977.06,745.393 1979,745.393 1980.94,745.393 1982.88,745.393 1984.82,745.393 1986.76,745.393 1988.7,745.393 1990.64,745.393 1992.57,745.393 1994.51,745.393 1996.45,745.393 1998.39,745.393 2000.33,745.393 2002.27,745.393 2004.21,745.393 2006.15,745.393 2008.09,745.393 2010.03,745.393 2011.97,745.393 2013.91,745.393 2015.85,745.393 2017.79,745.393 2019.73,745.393 2021.67,745.393 2023.61,745.393 2025.55,745.393 2027.49,745.393 2029.43,745.393 2031.37,745.393 2033.31,745.393 2035.25,745.393 2037.19,745.393 2039.13,745.393 2041.07,745.393 2043.01,745.393 2044.95,745.393 2046.89,745.393 2048.83,745.393 2050.77,745.393 2052.71,745.393 2054.64,745.393 2056.58,745.393 2058.52,745.393 2060.46,745.393 2062.4,745.393 2064.34,745.393 2066.28,745.393 2068.22,745.393 2070.16,745.393 2072.1,745.393 2074.04,745.393 2075.98,745.393 2077.92,745.393 2079.86,745.393 2081.8,745.393 2083.74,745.393 2085.68,745.393 2087.62,745.393 2089.56,745.393 2091.5,745.393 2093.44,745.393 2095.38,745.393 2097.32,745.393 2099.26,745.393 2101.2,745.393 2103.14,745.393 2105.08,745.393 2107.02,745.393 2108.96,745.393 2110.9,745.393 2112.84,745.393 2114.78,745.393 2116.72,745.393 2118.65,745.393 2120.59,745.393 2122.53,745.393 2124.47,745.393 2126.41,745.393 2128.35,745.393 2130.29,745.393 2132.23,745.393 2134.17,745.393 2136.11,745.393 2138.05,745.393 2139.99,745.393 2141.93,745.393 2143.87,745.393 2145.81,745.393 2147.75,745.393 2149.69,745.393 2151.63,745.393 2153.57,745.393 2155.51,745.393 2157.45,745.393 2159.39,745.393 2161.33,745.393 2163.27,745.393 2165.21,745.393 2167.15,745.393 2169.09,745.393 2171.03,745.393 2172.97,745.393 2174.91,745.393 2176.85,745.393 2178.79,745.393 2180.72,745.393 2182.66,745.393 2184.6,745.393 2186.54,745.393 2188.48,745.393 2190.42,745.393 2192.36,745.393 2194.3,745.393 2196.24,745.393 2198.18,745.393 2200.12,745.393 2202.06,745.393 2204,745.393 2205.94,745.393 2207.88,745.393 2209.82,745.393 2211.76,745.393 2213.7,745.393 2215.64,745.393 2217.58,745.393 2219.52,745.393 2221.46,745.393 2223.4,745.393 2225.34,745.393 2227.28,745.393 2229.22,745.393 2231.16,745.393 2233.1,745.393 2235.04,745.393 2236.98,745.393 2238.92,745.393 2240.86,745.393 2242.79,745.393 2244.73,745.393 2246.67,745.393 2248.61,745.393 2250.55,745.393 2252.49,745.393 2254.43,745.393 2256.37,745.393 2258.31,745.393 2260.25,745.393 2262.19,745.393 2264.13,745.393 2266.07,745.393 2268.01,745.393 2269.95,745.393 2271.89,745.393 2273.83,745.393 2275.77,745.393 2277.71,745.393 2279.65,745.393 2281.59,745.393 2283.53,745.393 2285.47,745.393 2287.41,745.393 2289.35,745.393 2291.29,745.393 2293.23,745.393 "/>
<polyline clip-path="url(#clip962)" style="stroke:#ba3d3a; stroke-linecap:round; stroke-linejoin:round; stroke-width:8; stroke-opacity:1; fill:none" stroke-dasharray="4, 8" points="308.924,712.747 310.864,709.639 312.803,706.662 314.743,703.85 316.683,701.236 318.622,698.85 320.562,696.727 322.502,694.896 324.441,693.39 326.381,692.236 328.321,691.464 330.26,691.097 332.2,691.161 334.14,691.675 336.079,692.658 338.019,694.125 339.959,696.086 341.899,698.549 343.838,701.518 345.778,704.992 347.718,708.966 349.657,713.43 351.597,718.37 353.537,723.767 355.476,729.597 357.416,735.831 359.356,742.437 361.295,749.374 363.235,756.602 365.175,764.072 367.115,771.733 369.054,779.531 370.994,787.405 372.934,795.294 374.873,803.133 376.813,810.854 378.753,818.389 380.692,825.666 382.632,832.614 384.572,839.162 386.511,845.237 388.451,850.771 390.391,855.694 392.331,859.94 394.27,863.445 396.21,866.151 398.15,868.002 400.089,868.948 402.029,868.945 403.969,867.954 405.908,865.944 407.848,862.89 409.788,858.777 411.727,853.597 413.667,847.35 415.607,840.047 417.546,831.706 419.486,822.355 421.426,812.034 423.366,800.789 425.305,788.678 427.245,775.767 429.185,762.132 431.124,747.856 433.064,733.034 435.004,717.766 436.943,702.159 438.883,686.328 440.823,670.394 442.762,654.482 444.702,638.723 446.642,623.248 448.582,608.193 450.521,593.694 452.461,579.888 454.401,566.908 456.34,554.887 458.28,543.955 460.22,534.234 462.159,525.843 464.099,518.893 466.039,513.485 467.978,509.713 469.918,507.658 471.858,507.391 473.797,508.969 475.737,512.438 477.677,517.826 479.617,525.149 481.556,534.408 483.496,545.584 485.436,558.647 487.375,573.547 489.315,590.218 491.255,608.578 493.194,628.53 495.134,649.959 497.074,672.736 499.013,696.717 500.953,721.744 502.893,747.647 504.833,774.244 506.772,801.342 508.712,828.738 510.652,856.224 512.591,883.583 514.531,910.595 516.471,937.037 518.41,962.686 520.35,987.317 522.29,1010.71 524.229,1032.65 526.169,1052.93 528.109,1071.35 530.049,1087.71 531.988,1101.85 533.928,1113.59 535.868,1122.79 537.807,1129.32 539.747,1133.07 541.687,1133.94 543.626,1131.86 545.566,1126.79 547.506,1118.7 549.445,1107.59 551.385,1093.48 553.325,1076.42 555.264,1056.49 557.204,1033.78 559.144,1008.41 561.084,980.533 563.023,950.316 564.963,917.949 566.903,883.644 568.842,847.634 570.782,810.168 572.722,771.512 574.661,731.947 576.601,691.766 578.541,651.271 580.48,610.773 582.42,570.589 584.36,531.036 586.3,492.433 588.239,455.099 590.179,419.343 592.119,385.469 594.058,353.771 595.998,324.53 597.938,298.011 599.877,274.46 601.817,254.104 603.757,237.149 605.696,223.775 607.636,214.137 609.576,208.36 611.515,206.542 613.455,208.751 615.395,215.023 617.335,225.36 619.274,239.736 621.214,258.088 623.154,280.324 625.093,306.318 627.033,335.913 628.973,368.922 630.912,405.128 632.852,444.288 634.792,486.13 636.731,530.36 638.671,576.661 640.611,624.699 642.551,674.118 644.49,724.553 646.43,775.623 648.37,826.941 650.309,878.115 652.249,928.75 654.189,978.451 656.128,1026.83 658.068,1073.5 660.008,1118.09 661.947,1160.25 663.887,1199.62 665.827,1235.9 667.767,1268.78 669.706,1297.97 671.646,1323.25 673.586,1344.38 675.525,1361.18 677.465,1373.5 679.405,1381.21 681.344,1384.24 683.284,1382.53 685.224,1376.07 687.163,1364.89 689.103,1349.05 691.043,1328.65 692.982,1303.84 694.922,1274.77 696.862,1241.66 698.802,1204.75 700.741,1164.29 702.681,1120.6 704.621,1073.99 706.56,1024.81 708.5,973.42 710.44,920.216 712.379,865.594 714.319,809.967 716.259,753.756 718.198,697.387 720.138,641.288 722.078,585.884 724.018,531.597 725.957,478.84 727.897,428.014 729.837,379.505 731.776,333.681 733.716,290.891 735.656,251.458 737.595,215.68 739.535,183.827 741.475,156.139 743.414,132.821 745.354,114.048 747.294,99.9559 749.233,90.647 751.173,86.1857 753.113,86.5991 755.053,91.8769 756.992,101.971 758.932,116.798 760.872,136.236 762.811,160.13 764.751,188.291 766.691,220.497 768.63,256.496 770.57,296.008 772.51,338.728 774.449,384.325 776.389,432.451 778.329,482.736 780.269,534.798 782.208,588.24 784.148,642.659 786.088,697.643 788.027,752.781 789.967,807.66 791.907,861.872 793.846,915.014 795.786,966.694 797.726,1016.53 799.665,1064.17 801.605,1109.26 803.545,1151.47 805.484,1190.51 807.424,1226.1 809.364,1257.98 811.304,1285.96 813.243,1309.82 815.183,1329.42 817.123,1344.63 819.062,1355.36 821.002,1361.55 822.942,1363.18 824.881,1360.27 826.821,1352.85 828.761,1341.01 830.7,1324.85 832.64,1304.53 834.58,1280.21 836.52,1252.09 838.459,1220.4 840.399,1185.4 842.339,1147.37 844.278,1106.59 846.218,1063.4 848.158,1018.11 850.097,971.078 852.037,922.659 853.977,873.218 855.916,823.125 857.856,772.753 859.796,722.474 861.736,672.659 863.675,623.672 865.615,575.868 867.555,529.594 869.494,485.179 871.434,442.942 873.374,403.179 875.313,366.168 877.253,332.166 879.193,301.405 881.132,274.092 883.072,250.407 885.012,230.503 886.951,214.503 888.891,202.501 890.831,194.561 892.771,190.717 894.71,190.972 896.65,195.298 898.59,203.639 900.529,215.908 902.469,231.99 904.409,251.742 906.348,274.996 908.288,301.557 910.228,331.208 912.167,363.71 914.107,398.805 916.047,436.216 917.987,475.651 919.926,516.805 921.866,559.362 923.806,602.997 925.745,647.38 927.685,692.176 929.625,737.049 931.564,781.667 933.504,825.699 935.444,868.823 937.383,910.723 939.323,951.096 941.263,989.653 943.202,1026.12 945.142,1060.24 947.082,1091.77 949.022,1120.51 950.961,1146.25 952.901,1168.82 954.841,1188.09 956.78,1203.94 958.72,1216.26 960.66,1225 962.599,1230.13 964.539,1231.63 966.479,1229.52 968.418,1223.85 970.358,1214.69 972.298,1202.15 974.238,1186.34 976.177,1167.42 978.117,1145.55 980.057,1120.94 981.996,1093.78 983.936,1064.32 985.876,1032.79 987.815,999.463 989.755,964.6 991.695,928.483 993.634,891.401 995.574,853.644 997.514,815.507 999.454,777.283 1001.39,739.266 1003.33,701.741 1005.27,664.989 1007.21,629.28 1009.15,594.876 1011.09,562.022 1013.03,530.949 1014.97,501.874 1016.91,474.993 1018.85,450.483 1020.79,428.5 1022.73,409.178 1024.67,392.63 1026.61,378.943 1028.55,368.182 1030.49,360.387 1032.43,355.576 1034.37,353.739 1036.31,354.847 1038.25,358.846 1040.19,365.66 1042.13,375.191 1044.07,387.323 1046.01,401.919 1047.95,418.825 1049.89,437.873 1051.83,458.878 1053.76,481.644 1055.7,505.964 1057.64,531.622 1059.58,558.396 1061.52,586.058 1063.46,614.377 1065.4,643.122 1067.34,672.063 1069.28,700.971 1071.22,729.625 1073.16,757.806 1075.1,785.308 1077.04,811.931 1078.98,837.487 1080.92,861.803 1082.86,884.717 1084.8,906.082 1086.74,925.768 1088.68,943.661 1090.62,959.662 1092.56,973.693 1094.5,985.691 1096.44,995.612 1098.38,1003.43 1100.32,1009.13 1102.26,1012.73 1104.2,1014.25 1106.14,1013.74 1108.08,1011.24 1110.02,1006.82 1111.96,1000.58 1113.9,992.61 1115.83,983.014 1117.77,971.912 1119.71,959.43 1121.65,945.702 1123.59,930.869 1125.53,915.074 1127.47,898.465 1129.41,881.194 1131.35,863.41 1133.29,845.264 1135.23,826.904 1137.17,808.476 1139.11,790.121 1141.05,771.976 1142.99,754.17 1144.93,736.828 1146.87,720.065 1148.81,703.988 1150.75,688.695 1152.69,674.276 1154.63,660.809 1156.57,648.363 1158.51,636.997 1160.45,626.76 1162.39,617.689 1164.33,609.812 1166.27,603.147 1168.21,597.702 1170.15,593.476 1172.09,590.458 1174.03,588.629 1175.97,587.963 1177.91,588.424 1179.84,589.972 1181.78,592.56 1183.72,596.133 1185.66,600.635 1187.6,606.002 1189.54,612.171 1191.48,619.07 1193.42,626.631 1195.36,634.78 1197.3,643.444 1199.24,652.549 1201.18,662.02 1203.12,671.786 1205.06,681.773 1207,691.911 1208.94,702.132 1210.88,712.368 1212.82,722.556 1214.76,732.635 1216.7,742.547 1218.64,752.236 1220.58,761.652 1222.52,770.746 1224.46,779.473 1226.4,787.793 1228.34,795.668 1230.28,803.064 1232.22,809.952 1234.16,816.303 1236.1,822.095 1238.04,827.308 1239.98,831.925 1241.91,835.932 1243.85,839.318 1245.79,842.077 1247.73,844.203 1249.67,845.695 1251.61,846.553 1253.55,846.782 1255.49,846.386 1257.43,845.375 1259.37,843.761 1261.31,841.556 1263.25,838.776 1265.19,835.439 1267.13,831.567 1269.07,827.182 1271.01,822.309 1272.95,816.976 1274.89,811.21 1276.83,805.046 1278.77,798.514 1280.71,791.653 1282.65,784.498 1284.59,777.089 1286.53,769.468 1288.47,761.677 1290.41,753.76 1292.35,745.764 1294.29,737.734 1296.23,729.719 1298.17,721.768 1300.11,713.928 1302.05,706.249 1303.98,698.782 1305.92,691.573 1307.86,684.673 1309.8,678.128 1311.74,671.984 1313.68,666.286 1315.62,661.076 1317.56,656.394 1319.5,652.278 1321.44,648.762 1323.38,645.878 1325.32,643.652 1327.26,642.108 1329.2,641.266 1331.14,641.139 1333.08,641.738 1335.02,643.067 1336.96,645.126 1338.9,647.91 1340.84,651.408 1342.78,655.603 1344.72,660.473 1346.66,665.992 1348.6,672.128 1350.54,678.842 1352.48,686.092 1354.42,693.832 1356.36,702.01 1358.3,710.571 1360.24,719.455 1362.18,728.601 1364.12,737.942 1366.05,747.411 1367.99,756.94 1369.93,766.457 1371.87,775.892 1373.81,785.172 1375.75,794.228 1377.69,802.988 1379.63,811.386 1381.57,819.354 1383.51,826.831 1385.45,833.756 1387.39,840.074 1389.33,845.732 1391.27,850.686 1393.21,854.893 1395.15,858.318 1397.09,860.932 1399.03,862.711 1400.97,863.64 1402.91,863.707 1404.85,862.911 1406.79,861.255 1408.73,858.749 1410.67,855.412 1412.61,851.266 1414.55,846.344 1416.49,840.681 1418.43,834.321 1420.37,827.311 1422.31,819.705 1424.25,811.561 1426.19,802.94 1428.13,793.908 1430.06,784.535 1432,774.89 1433.94,765.048 1435.88,755.081 1437.82,745.064 1439.76,735.073 1441.7,725.18 1443.64,715.459 1445.58,705.979 1447.52,696.809 1449.46,688.013 1451.4,679.654 1453.34,671.789 1455.28,664.47 1457.22,657.747 1459.16,651.662 1461.1,646.254 1463.04,641.553 1464.98,637.588 1466.92,634.378 1468.86,631.939 1470.8,630.279 1472.74,629.402 1474.68,629.305 1476.62,629.98 1478.56,631.415 1480.5,633.59 1482.44,636.484 1484.38,640.068 1486.32,644.311 1488.26,649.18 1490.2,654.635 1492.13,660.635 1494.07,667.139 1496.01,674.099 1497.95,681.47 1499.89,689.203 1501.83,697.25 1503.77,705.562 1505.71,714.089 1507.65,722.783 1509.59,731.594 1511.53,740.477 1513.47,749.383 1515.41,758.267 1517.35,767.086 1519.29,775.797 1521.23,784.358 1523.17,792.731 1525.11,800.876 1527.05,808.758 1528.99,816.342 1530.93,823.593 1532.87,830.481 1534.81,836.974 1536.75,843.042 1538.69,848.657 1540.63,853.791 1542.57,858.418 1544.51,862.511 1546.45,866.047 1548.39,869 1550.33,871.347 1552.27,873.066 1554.2,874.135 1556.14,874.534 1558.08,874.243 1560.02,873.244 1561.96,871.522 1563.9,869.061 1565.84,865.849 1567.78,861.876 1569.72,857.136 1571.66,851.625 1573.6,845.343 1575.54,838.294 1577.48,830.485 1579.42,821.932 1581.36,812.652 1583.3,802.669 1585.24,792.014 1587.18,780.723 1589.12,768.839 1591.06,756.412 1593,743.497 1594.94,730.157 1596.88,716.464 1598.82,702.493 1600.76,688.326 1602.7,674.054 1604.64,659.771 1606.58,645.576 1608.52,631.575 1610.46,617.875 1612.4,604.588 1614.34,591.828 1616.27,579.708 1618.21,568.344 1620.15,557.849 1622.09,548.335 1624.03,539.911 1625.97,532.679 1627.91,526.738 1629.85,522.177 1631.79,519.08 1633.73,517.52 1635.67,517.557 1637.61,519.244 1639.55,522.616 1641.49,527.7 1643.43,534.504 1645.37,543.023 1647.31,553.238 1649.25,565.111 1651.19,578.59 1653.13,593.608 1655.07,610.081 1657.01,627.909 1658.95,646.979 1660.89,667.161 1662.83,688.316 1664.77,710.29 1666.71,732.918 1668.65,756.027 1670.59,779.434 1672.53,802.953 1674.47,826.391 1676.41,849.551 1678.35,872.239 1680.28,894.26 1682.22,915.421 1684.16,935.537 1686.1,954.427 1688.04,971.921 1689.98,987.86 1691.92,1002.1 1693.86,1014.5 1695.8,1024.95 1697.74,1033.34 1699.68,1039.6 1701.62,1043.66 1703.56,1045.48 1705.5,1045.03 1707.44,1042.32 1709.38,1037.37 1711.32,1030.2 1713.26,1020.89 1715.2,1009.51 1717.14,996.164 1719.08,980.968 1721.02,964.056 1722.96,945.578 1724.9,925.698 1726.84,904.591 1728.78,882.445 1730.72,859.453 1732.66,835.818 1734.6,811.745 1736.54,787.443 1738.48,763.12 1740.42,738.982 1742.35,715.233 1744.29,692.068 1746.23,669.676 1748.17,648.237 1750.11,627.917 1752.05,608.871 1753.99,591.239 1755.93,575.146 1757.87,560.7 1759.81,547.992 1761.75,537.095 1763.69,528.063 1765.63,520.931 1767.57,515.718 1769.51,512.422 1771.45,511.023 1773.39,511.486 1775.33,513.757 1777.27,517.768 1779.21,523.436 1781.15,530.663 1783.09,539.341 1785.03,549.352 1786.97,560.566 1788.91,572.848 1790.85,586.056 1792.79,600.044 1794.73,614.664 1796.67,629.766 1798.61,645.2 1800.55,660.821 1802.49,676.483 1804.42,692.049 1806.36,707.386 1808.3,722.368 1810.24,736.878 1812.18,750.808 1814.12,764.06 1816.06,776.546 1818,788.19 1819.94,798.926 1821.88,808.702 1823.82,817.474 1825.76,825.212 1827.7,831.898 1829.64,837.523 1831.58,842.089 1833.52,845.611 1835.46,848.109 1837.4,849.615 1839.34,850.167 1841.28,849.814 1843.22,848.606 1845.16,846.603 1847.1,843.868 1849.04,840.467 1850.98,836.471 1852.92,831.95 1854.86,826.978 1856.8,821.626 1858.74,815.969 1860.68,810.077 1862.62,804.018 1864.56,797.861 1866.49,791.668 1868.43,785.5 1870.37,779.412 1872.31,773.456 1874.25,767.678 1876.19,762.122 1878.13,756.824 1880.07,751.816 1882.01,747.125 1883.95,742.773 1885.89,738.776 1887.83,735.147 1889.77,731.894 1891.71,729.019 1893.65,726.522 1895.59,724.397 1897.53,722.637 1899.47,721.23 1901.41,720.163 1903.35,719.418 1905.29,718.977 1907.23,718.819 1909.17,718.924 1911.11,719.267 1913.05,719.827 1914.99,720.579 1916.93,721.499 1918.87,722.564 1920.81,723.75 1922.75,725.035 1924.69,726.398 1926.63,727.817 1928.57,729.274 1930.5,730.749 1932.44,732.227 1934.38,733.692 1936.32,735.13 1938.26,736.529 1940.2,737.878 1942.14,739.168 1944.08,740.391 1946.02,741.54 1947.96,742.612 1949.9,743.602 1951.84,744.508 1953.78,745.329 1955.72,746.064 1957.66,746.715 1959.6,747.283 1961.54,747.77 1963.48,748.18 1965.42,748.516 1967.36,748.782 1969.3,748.983 1971.24,749.122 1973.18,749.206 1975.12,749.239 1977.06,749.226 1979,749.172 1980.94,749.083 1982.88,748.962 1984.82,748.814 1986.76,748.645 1988.7,748.458 1990.64,748.257 1992.57,748.046 1994.51,747.828 1996.45,747.606 1998.39,747.383 2000.33,747.162 2002.27,746.945 2004.21,746.733 2006.15,746.528 2008.09,746.332 2010.03,746.146 2011.97,745.971 2013.91,745.807 2015.85,745.655 2017.79,745.516 2019.73,745.389 2021.67,745.274 2023.61,745.173 2025.55,745.084 2027.49,745.007 2029.43,744.943 2031.37,744.89 2033.31,744.849 2035.25,744.819 2037.19,744.8 2039.13,744.791 2041.07,744.792 2043.01,744.802 2044.95,744.821 2046.89,744.849 2048.83,744.885 2050.77,744.929 2052.71,744.98 2054.64,745.038 2056.58,745.103 2058.52,745.174 2060.46,745.25 2062.4,745.331 2064.34,745.418 2066.28,745.508 2068.22,745.601 2070.16,745.698 2072.1,745.797 2074.04,745.898 2075.98,745.999 2077.92,746.101 2079.86,746.201 2081.8,746.301 2083.74,746.397 2085.68,746.491 2087.62,746.579 2089.56,746.662 2091.5,746.739 2093.44,746.807 2095.38,746.867 2097.32,746.916 2099.26,746.954 2101.2,746.979 2103.14,746.991 2105.08,746.988 2107.02,746.97 2108.96,746.934 2110.9,746.881 2112.84,746.809 2114.78,746.717 2116.72,746.606 2118.65,746.474 2120.59,746.322 2122.53,746.149 2124.47,745.955 2126.41,745.74 2128.35,745.505 2130.29,745.251 2132.23,744.978 2134.17,744.688 2136.11,744.382 2138.05,744.061 2139.99,743.729 2141.93,743.386 2143.87,743.035 2145.81,742.68 2147.75,742.322 2149.69,741.966 2151.63,741.615 2153.57,741.271 2155.51,740.94 2157.45,740.625 2159.39,740.329 2161.33,740.058 2163.27,739.816 2165.21,739.607 2167.15,739.434 2169.09,739.303 2171.03,739.218 2172.97,739.182 2174.91,739.199 2176.85,739.274 2178.79,739.408 2180.72,739.606 2182.66,739.869 2184.6,740.2 2186.54,740.601 2188.48,741.072 2190.42,741.614 2192.36,742.228 2194.3,742.911 2196.24,743.663 2198.18,744.481 2200.12,745.363 2202.06,746.304 2204,747.3 2205.94,748.347 2207.88,749.436 2209.82,750.562 2211.76,751.717 2213.7,752.892 2215.64,754.079 2217.58,755.266 2219.52,756.444 2221.46,757.602 2223.4,758.728 2225.34,759.809 2227.28,760.834 2229.22,761.789 2231.16,762.663 2233.1,763.442 2235.04,764.114 2236.98,764.666 2238.92,765.086 2240.86,765.362 2242.79,765.484 2244.73,765.44 2246.67,765.222 2248.61,764.821 2250.55,764.229 2252.49,763.441 2254.43,762.453 2256.37,761.26 2258.31,759.862 2260.25,758.26 2262.19,756.454 2264.13,754.45 2266.07,752.254 2268.01,749.873 2269.95,747.319 2271.89,744.603 2273.83,741.74 2275.77,738.747 2277.71,735.642 2279.65,732.447 2281.59,729.183 2283.53,725.875 2285.47,722.549 2287.41,719.233 2289.35,715.955 2291.29,712.747 2293.23,709.639 "/>
<path clip-path="url(#clip960)" d="M1964.61 1377.32 L2282.64 1377.32 L2282.64 1186.99 L1964.61 1186.99  Z" fill="#ffffff" fill-rule="evenodd" fill-opacity="1"/>
<polyline clip-path="url(#clip960)" style="stroke:#000000; stroke-linecap:round; stroke-linejoin:round; stroke-width:4; stroke-opacity:1; fill:none" points="1964.61,1377.32 2282.64,1377.32 2282.64,1186.99 1964.61,1186.99 1964.61,1377.32 "/>
<polyline clip-path="url(#clip960)" style="stroke:#dfba53; stroke-linecap:round; stroke-linejoin:round; stroke-width:8; stroke-opacity:1; fill:none" points="1987.98,1250.43 2128.2,1250.43 "/>
<path clip-path="url(#clip960)" d="M2173.99 1246.24 Q2173.99 1247.55 2173.59 1249.03 L2168.14 1270.74 Q2167.64 1272.66 2166.17 1272.66 Q2165.56 1272.66 2165.18 1272.29 Q2164.83 1271.94 2164.83 1271.37 Q2164.83 1271.19 2164.97 1270.6 L2170.43 1248.54 Q2170.92 1246.52 2170.92 1245.51 Q2170.92 1242.17 2168.32 1242.17 Q2166.03 1242.17 2163.73 1243.85 Q2162.68 1244.69 2161.65 1246.22 Q2160.64 1247.72 2160.45 1248.25 Q2160.24 1249.47 2159.94 1250.41 Q2159.8 1251.07 2159.12 1253.62 L2158.06 1257.95 Q2157.31 1261.18 2157.15 1261.49 Q2156.92 1262.14 2156.4 1262.5 Q2155.89 1262.85 2155.37 1262.85 Q2154.78 1262.85 2154.39 1262.5 Q2153.99 1262.14 2153.99 1261.54 Q2153.99 1261.44 2154.06 1261.09 Q2154.13 1260.74 2154.25 1260.25 Q2154.36 1259.76 2154.41 1259.47 L2157.2 1248.4 Q2157.71 1246.38 2157.83 1245.75 Q2157.97 1245.09 2157.97 1244.37 Q2157.97 1243.1 2157.57 1242.63 Q2157.17 1242.17 2156.47 1242.17 Q2155.25 1242.17 2154.46 1243.62 Q2153.66 1245.07 2152.98 1247.88 Q2152.77 1248.65 2152.63 1248.82 Q2152.51 1248.98 2152.16 1248.98 Q2151.58 1248.96 2151.58 1248.49 Q2151.58 1248.37 2151.76 1247.62 Q2151.95 1246.85 2152.3 1245.73 Q2152.68 1244.58 2153.07 1243.85 Q2153.31 1243.36 2153.52 1243.03 Q2153.73 1242.7 2154.15 1242.19 Q2154.57 1241.67 2155.21 1241.39 Q2155.84 1241.11 2156.61 1241.11 Q2158.32 1241.11 2159.59 1242.21 Q2160.87 1243.31 2161.04 1245.28 Q2161.53 1244.55 2162.16 1243.9 Q2162.82 1243.24 2163.73 1242.59 Q2164.65 1241.91 2165.89 1241.51 Q2167.13 1241.11 2168.46 1241.11 Q2171.13 1241.11 2172.56 1242.49 Q2173.99 1243.85 2173.99 1246.24 Z" fill="#000000" fill-rule="nonzero" fill-opacity="1" /><path clip-path="url(#clip960)" d="M2180.92 1250.32 Q2180.92 1242.21 2183.94 1235.68 Q2185.23 1232.94 2187.04 1230.64 Q2188.84 1228.35 2190.03 1227.34 Q2191.23 1226.33 2191.56 1226.33 Q2192.03 1226.33 2192.05 1226.8 Q2192.05 1227.03 2191.42 1227.62 Q2183.69 1235.49 2183.71 1250.32 Q2183.71 1265.19 2191.23 1272.75 Q2192.05 1273.57 2192.05 1273.83 Q2192.05 1274.3 2191.56 1274.3 Q2191.23 1274.3 2190.08 1273.34 Q2188.93 1272.38 2187.15 1270.18 Q2185.37 1267.98 2184.09 1265.28 Q2180.92 1258.75 2180.92 1250.32 Z" fill="#000000" fill-rule="nonzero" fill-opacity="1" /><path clip-path="url(#clip960)" d="M2210.42 1242.17 Q2210.42 1242.82 2210.12 1242.98 Q2209.81 1243.13 2208.97 1243.13 L2204.47 1243.13 L2200.91 1257.27 Q2200.63 1258.51 2200.63 1259.57 Q2200.63 1260.74 2200.98 1261.25 Q2201.36 1261.77 2202.13 1261.77 Q2203.65 1261.77 2205.29 1260.39 Q2206.96 1259.01 2208.36 1255.63 Q2208.55 1255.19 2208.64 1255.09 Q2208.76 1254.98 2209.07 1254.98 Q2209.65 1254.98 2209.65 1255.45 Q2209.65 1255.61 2209.32 1256.36 Q2209.02 1257.11 2208.34 1258.21 Q2207.68 1259.31 2206.82 1260.34 Q2205.97 1261.37 2204.69 1262.12 Q2203.4 1262.85 2202.01 1262.85 Q2200.07 1262.85 2198.83 1261.61 Q2197.61 1260.36 2197.61 1258.42 Q2197.61 1257.79 2198.1 1255.77 Q2198.6 1253.74 2201.27 1243.13 L2197.03 1243.13 Q2196.44 1243.13 2196.21 1243.1 Q2196 1243.08 2195.83 1242.96 Q2195.69 1242.82 2195.69 1242.54 Q2195.69 1242.09 2195.88 1241.91 Q2196.07 1241.7 2196.3 1241.67 Q2196.56 1241.63 2197.14 1241.63 L2201.64 1241.63 L2203.51 1234.01 Q2203.7 1233.26 2204.17 1232.84 Q2204.66 1232.4 2204.94 1232.35 Q2205.22 1232.28 2205.43 1232.28 Q2206.07 1232.28 2206.44 1232.63 Q2206.82 1232.96 2206.82 1233.57 Q2206.82 1233.9 2204.85 1241.63 L2209.07 1241.63 Q2209.6 1241.63 2209.81 1241.65 Q2210.05 1241.67 2210.24 1241.79 Q2210.42 1241.91 2210.42 1242.17 Z" fill="#000000" fill-rule="nonzero" fill-opacity="1" /><path clip-path="url(#clip960)" d="M2214.17 1273.83 Q2214.17 1273.6 2214.78 1273.01 Q2222.51 1265.14 2222.51 1250.32 Q2222.51 1235.44 2215.09 1227.92 Q2214.17 1227.06 2214.17 1226.8 Q2214.17 1226.33 2214.64 1226.33 Q2214.97 1226.33 2216.12 1227.29 Q2217.29 1228.25 2219.05 1230.45 Q2220.83 1232.66 2222.14 1235.35 Q2225.3 1241.88 2225.3 1250.32 Q2225.3 1258.42 2222.28 1264.96 Q2220.99 1267.7 2219.19 1269.99 Q2217.38 1272.29 2216.19 1273.29 Q2214.99 1274.3 2214.64 1274.3 Q2214.17 1274.3 2214.17 1273.83 Z" fill="#000000" fill-rule="nonzero" fill-opacity="1" /><polyline clip-path="url(#clip960)" style="stroke:#ba3d3a; stroke-linecap:round; stroke-linejoin:round; stroke-width:8; stroke-opacity:1; fill:none" stroke-dasharray="4, 8" points="1987.98,1313.87 2128.2,1313.87 "/>
<path clip-path="url(#clip960)" d="M2173.99 1304.48 Q2173.99 1305.79 2173.59 1307.27 L2168.14 1328.98 Q2167.64 1330.9 2166.17 1330.9 Q2165.56 1330.9 2165.18 1330.53 Q2164.83 1330.18 2164.83 1329.61 Q2164.83 1329.43 2164.97 1328.84 L2170.43 1306.78 Q2170.92 1304.76 2170.92 1303.75 Q2170.92 1300.41 2168.32 1300.41 Q2166.03 1300.41 2163.73 1302.09 Q2162.68 1302.93 2161.65 1304.46 Q2160.64 1305.96 2160.45 1306.5 Q2160.24 1307.71 2159.94 1308.65 Q2159.8 1309.31 2159.12 1311.86 L2158.06 1316.19 Q2157.31 1319.42 2157.15 1319.73 Q2156.92 1320.38 2156.4 1320.74 Q2155.89 1321.09 2155.37 1321.09 Q2154.78 1321.09 2154.39 1320.74 Q2153.99 1320.38 2153.99 1319.78 Q2153.99 1319.68 2154.06 1319.33 Q2154.13 1318.98 2154.25 1318.49 Q2154.36 1318 2154.41 1317.71 L2157.2 1306.64 Q2157.71 1304.62 2157.83 1303.99 Q2157.97 1303.33 2157.97 1302.61 Q2157.97 1301.34 2157.57 1300.87 Q2157.17 1300.41 2156.47 1300.41 Q2155.25 1300.41 2154.46 1301.86 Q2153.66 1303.31 2152.98 1306.12 Q2152.77 1306.89 2152.63 1307.06 Q2152.51 1307.22 2152.16 1307.22 Q2151.58 1307.2 2151.58 1306.73 Q2151.58 1306.61 2151.76 1305.86 Q2151.95 1305.09 2152.3 1303.97 Q2152.68 1302.82 2153.07 1302.09 Q2153.31 1301.6 2153.52 1301.27 Q2153.73 1300.94 2154.15 1300.43 Q2154.57 1299.91 2155.21 1299.63 Q2155.84 1299.35 2156.61 1299.35 Q2158.32 1299.35 2159.59 1300.45 Q2160.87 1301.55 2161.04 1303.52 Q2161.53 1302.79 2162.16 1302.14 Q2162.82 1301.48 2163.73 1300.83 Q2164.65 1300.15 2165.89 1299.75 Q2167.13 1299.35 2168.46 1299.35 Q2171.13 1299.35 2172.56 1300.73 Q2173.99 1302.09 2173.99 1304.48 Z" fill="#000000" fill-rule="nonzero" fill-opacity="1" /><path clip-path="url(#clip960)" d="M2185.29 1283.19 Q2185.29 1283.58 2185.1 1283.83 L2179.78 1292.58 L2178.88 1292.58 L2182.92 1282.61 Q2183.01 1282.32 2183.33 1282.12 Q2183.64 1281.91 2184.01 1281.91 Q2184.54 1281.91 2184.92 1282.28 Q2185.29 1282.66 2185.29 1283.19 Z" fill="#000000" fill-rule="nonzero" fill-opacity="1" /><path clip-path="url(#clip960)" d="M2202.72 1321.53 L2200.61 1330.09 Q2200.46 1330.63 2200.36 1330.7 Q2200.28 1330.76 2200.02 1330.76 Q2199.51 1330.76 2199.51 1330.42 Q2199.51 1330.38 2199.56 1329.96 Q2199.61 1329.52 2199.61 1328.71 Q2199.61 1325.74 2198.16 1323.99 Q2196.74 1322.24 2194.2 1322.24 Q2191.82 1322.24 2189.54 1323.48 Q2187.26 1324.73 2185.8 1326.56 Q2184.57 1328.07 2183.72 1329.91 Q2182.88 1331.75 2182.54 1333.35 Q2182.2 1334.94 2182.06 1335.91 Q2181.95 1336.88 2181.95 1337.5 Q2181.95 1339.34 2182.54 1340.76 Q2183.13 1342.17 2184.11 1342.98 Q2185.11 1343.78 2186.26 1344.17 Q2187.43 1344.57 2188.69 1344.57 Q2189.16 1344.57 2189.74 1344.5 Q2190.31 1344.44 2191.2 1344.19 Q2192.1 1343.94 2192.84 1343.53 Q2193.59 1343.12 2194.25 1342.34 Q2194.92 1341.55 2195.18 1340.5 Q2195.89 1337.83 2195.89 1337.43 Q2195.89 1337.11 2195.69 1336.99 Q2195.49 1336.88 2194.84 1336.8 L2193.07 1336.73 Q2193.03 1336.73 2192.98 1336.73 Q2192.67 1336.73 2192.54 1336.73 Q2192.41 1336.71 2192.26 1336.68 Q2192.13 1336.65 2192.08 1336.58 Q2192.05 1336.5 2192.05 1336.37 Q2192.05 1336.06 2192.18 1335.91 Q2192.31 1335.75 2192.43 1335.73 Q2192.54 1335.7 2192.75 1335.7 L2197.46 1335.8 Q2197.84 1335.8 2199.21 1335.75 Q2200.59 1335.7 2200.98 1335.7 Q2201.43 1335.7 2201.43 1336.06 Q2201.43 1336.73 2200.89 1336.73 Q2200.35 1336.75 2200.07 1336.76 Q2199.79 1336.76 2199.51 1336.84 Q2199.25 1336.93 2199.15 1336.99 Q2199.05 1337.04 2198.92 1337.29 Q2198.79 1337.52 2198.74 1337.71 Q2198.69 1337.89 2198.57 1338.35 Q2198.51 1338.65 2198.34 1339.21 Q2198.2 1339.76 2198.13 1340.06 L2197.49 1342.65 Q2197.05 1344.57 2196.92 1344.7 Q2196.85 1344.83 2196.69 1344.83 Q2196.44 1344.83 2195.92 1344.11 Q2195.41 1343.39 2195.18 1342.75 Q2194.77 1343.19 2194.51 1343.45 Q2194.25 1343.7 2193.64 1344.09 Q2193.05 1344.48 2192.26 1344.8 Q2190.34 1345.6 2188.06 1345.6 Q2184 1345.6 2181.44 1343.03 Q2178.88 1340.44 2178.88 1336.4 Q2178.88 1333.55 2180.19 1330.75 Q2181.51 1327.94 2183.59 1325.86 Q2185.67 1323.78 2188.43 1322.48 Q2191.18 1321.19 2193.93 1321.19 Q2194.98 1321.19 2195.92 1321.47 Q2196.85 1321.74 2197.41 1322.09 Q2197.98 1322.43 2198.49 1322.94 Q2199 1323.43 2199.16 1323.66 Q2199.34 1323.89 2199.51 1324.17 L2201.85 1321.6 Q2202.26 1321.19 2202.36 1321.19 Q2202.56 1321.19 2202.64 1321.3 Q2202.72 1321.42 2202.72 1321.53 Z" fill="#000000" fill-rule="nonzero" fill-opacity="1" /><path clip-path="url(#clip960)" d="M2207.61 1308.56 Q2207.61 1300.45 2210.63 1293.92 Q2211.92 1291.18 2213.72 1288.88 Q2215.52 1286.59 2216.72 1285.58 Q2217.91 1284.57 2218.24 1284.57 Q2218.71 1284.57 2218.73 1285.04 Q2218.73 1285.27 2218.1 1285.86 Q2210.37 1293.73 2210.39 1308.56 Q2210.39 1323.43 2217.91 1331 Q2218.73 1331.81 2218.73 1332.07 Q2218.73 1332.54 2218.24 1332.54 Q2217.91 1332.54 2216.76 1331.58 Q2215.62 1330.62 2213.84 1328.42 Q2212.06 1326.22 2210.77 1323.52 Q2207.61 1316.99 2207.61 1308.56 Z" fill="#000000" fill-rule="nonzero" fill-opacity="1" /><path clip-path="url(#clip960)" d="M2237.11 1300.41 Q2237.11 1301.06 2236.8 1301.23 Q2236.5 1301.37 2235.65 1301.37 L2231.16 1301.37 L2227.6 1315.51 Q2227.32 1316.75 2227.32 1317.81 Q2227.32 1318.98 2227.67 1319.49 Q2228.04 1320.01 2228.81 1320.01 Q2230.34 1320.01 2231.98 1318.63 Q2233.64 1317.25 2235.05 1313.87 Q2235.23 1313.43 2235.33 1313.33 Q2235.44 1313.22 2235.75 1313.22 Q2236.33 1313.22 2236.33 1313.69 Q2236.33 1313.85 2236.01 1314.6 Q2235.7 1315.35 2235.02 1316.45 Q2234.37 1317.55 2233.5 1318.58 Q2232.66 1319.61 2231.37 1320.36 Q2230.08 1321.09 2228.7 1321.09 Q2226.75 1321.09 2225.51 1319.85 Q2224.29 1318.6 2224.29 1316.66 Q2224.29 1316.03 2224.79 1314.01 Q2225.28 1311.98 2227.95 1301.37 L2223.71 1301.37 Q2223.12 1301.37 2222.89 1301.34 Q2222.68 1301.32 2222.51 1301.2 Q2222.37 1301.06 2222.37 1300.78 Q2222.37 1300.34 2222.56 1300.15 Q2222.75 1299.94 2222.98 1299.91 Q2223.24 1299.87 2223.83 1299.87 L2228.32 1299.87 L2230.2 1292.25 Q2230.38 1291.5 2230.85 1291.08 Q2231.34 1290.64 2231.63 1290.59 Q2231.91 1290.52 2232.12 1290.52 Q2232.75 1290.52 2233.12 1290.87 Q2233.5 1291.2 2233.5 1291.81 Q2233.5 1292.14 2231.53 1299.87 L2235.75 1299.87 Q2236.29 1299.87 2236.5 1299.89 Q2236.73 1299.91 2236.92 1300.03 Q2237.11 1300.15 2237.11 1300.41 Z" fill="#000000" fill-rule="nonzero" fill-opacity="1" /><path clip-path="url(#clip960)" d="M2240.86 1332.07 Q2240.86 1331.84 2241.47 1331.25 Q2249.2 1323.38 2249.2 1308.56 Q2249.2 1293.68 2241.77 1286.16 Q2240.86 1285.3 2240.86 1285.04 Q2240.86 1284.57 2241.33 1284.57 Q2241.65 1284.57 2242.8 1285.53 Q2243.97 1286.49 2245.73 1288.69 Q2247.51 1290.9 2248.82 1293.59 Q2251.98 1300.12 2251.98 1308.56 Q2251.98 1316.66 2248.96 1323.2 Q2247.67 1325.94 2245.87 1328.23 Q2244.07 1330.53 2242.87 1331.53 Q2241.68 1332.54 2241.33 1332.54 Q2240.86 1332.54 2240.86 1332.07 Z" fill="#000000" fill-rule="nonzero" fill-opacity="1" /></svg>
