<?xml version="1.0" encoding="utf-8"?>
<svg xmlns="http://www.w3.org/2000/svg" xmlns:xlink="http://www.w3.org/1999/xlink" width="600" height="400" viewBox="0 0 2400 1600">
<defs>
  <clipPath id="clip550">
    <rect x="0" y="0" width="2400" height="1600"/>
  </clipPath>
</defs>
<path clip-path="url(#clip550)" d="M0 1600 L2400 1600 L2400 0 L0 0  Z" fill="#ffffff" fill-rule="evenodd" fill-opacity="1"/>
<defs>
  <clipPath id="clip551">
    <rect x="480" y="0" width="1681" height="1600"/>
  </clipPath>
</defs>
<path clip-path="url(#clip550)" d="M210.61 1423.18 L2352.76 1423.18 L2352.76 108.933 L210.61 108.933  Z" fill="#ffffff" fill-rule="evenodd" fill-opacity="1"/>
<defs>
  <clipPath id="clip552">
    <rect x="210" y="108" width="2143" height="1315"/>
  </clipPath>
</defs>
<polyline clip-path="url(#clip552)" style="stroke:#000000; stroke-linecap:round; stroke-linejoin:round; stroke-width:2; stroke-opacity:0.1; fill:none" points="535.249,1423.18 535.249,108.933 "/>
<polyline clip-path="url(#clip552)" style="stroke:#000000; stroke-linecap:round; stroke-linejoin:round; stroke-width:2; stroke-opacity:0.1; fill:none" points="919.267,1423.18 919.267,108.933 "/>
<polyline clip-path="url(#clip552)" style="stroke:#000000; stroke-linecap:round; stroke-linejoin:round; stroke-width:2; stroke-opacity:0.1; fill:none" points="1303.28,1423.18 1303.28,108.933 "/>
<polyline clip-path="url(#clip552)" style="stroke:#000000; stroke-linecap:round; stroke-linejoin:round; stroke-width:2; stroke-opacity:0.1; fill:none" points="1687.3,1423.18 1687.3,108.933 "/>
<polyline clip-path="url(#clip552)" style="stroke:#000000; stroke-linecap:round; stroke-linejoin:round; stroke-width:2; stroke-opacity:0.1; fill:none" points="2071.32,1423.18 2071.32,108.933 "/>
<polyline clip-path="url(#clip550)" style="stroke:#000000; stroke-linecap:round; stroke-linejoin:round; stroke-width:4; stroke-opacity:1; fill:none" points="210.61,1423.18 2352.76,1423.18 "/>
<polyline clip-path="url(#clip550)" style="stroke:#000000; stroke-linecap:round; stroke-linejoin:round; stroke-width:4; stroke-opacity:1; fill:none" points="535.249,1423.18 535.249,1404.28 "/>
<polyline clip-path="url(#clip550)" style="stroke:#000000; stroke-linecap:round; stroke-linejoin:round; stroke-width:4; stroke-opacity:1; fill:none" points="919.267,1423.18 919.267,1404.28 "/>
<polyline clip-path="url(#clip550)" style="stroke:#000000; stroke-linecap:round; stroke-linejoin:round; stroke-width:4; stroke-opacity:1; fill:none" points="1303.28,1423.18 1303.28,1404.28 "/>
<polyline clip-path="url(#clip550)" style="stroke:#000000; stroke-linecap:round; stroke-linejoin:round; stroke-width:4; stroke-opacity:1; fill:none" points="1687.3,1423.18 1687.3,1404.28 "/>
<polyline clip-path="url(#clip550)" style="stroke:#000000; stroke-linecap:round; stroke-linejoin:round; stroke-width:4; stroke-opacity:1; fill:none" points="2071.32,1423.18 2071.32,1404.28 "/>
<path clip-path="url(#clip550)" d="M487.09 1461.79 L488.745 1451.39 L490.005 1451.39 Q490.153 1452.01 490.4 1452.28 Q490.672 1452.55 492.105 1452.77 Q493.562 1453 496.502 1453 L508.78 1453 Q508.78 1454.16 508.335 1454.77 L501.492 1464.38 Q499.318 1467.42 498.355 1473.03 Q497.787 1476.79 497.811 1481.33 L497.811 1483.9 Q497.811 1486.69 495.464 1486.69 Q493.142 1486.69 493.142 1483.9 Q493.142 1474.24 499.368 1464.88 Q500.035 1463.91 502.48 1460.48 Q504.951 1457.05 505.049 1456.9 L494.575 1456.9 Q489.98 1456.9 489.61 1457.2 Q489.116 1457.64 488.35 1461.79 L487.09 1461.79 Z" fill="#000000" fill-rule="nonzero" fill-opacity="1" /><path clip-path="url(#clip550)" d="M512.386 1461.79 L514.041 1451.39 L515.301 1451.39 Q515.449 1452.01 515.697 1452.28 Q515.968 1452.55 517.401 1452.77 Q518.859 1453 521.798 1453 L534.076 1453 Q534.076 1454.16 533.631 1454.77 L526.788 1464.38 Q524.614 1467.42 523.651 1473.03 Q523.083 1476.79 523.108 1481.33 L523.108 1483.9 Q523.108 1486.69 520.761 1486.69 Q518.439 1486.69 518.439 1483.9 Q518.439 1474.24 524.664 1464.88 Q525.331 1463.91 527.776 1460.48 Q530.247 1457.05 530.346 1456.9 L519.871 1456.9 Q515.277 1456.9 514.906 1457.2 Q514.412 1457.64 513.646 1461.79 L512.386 1461.79 Z" fill="#000000" fill-rule="nonzero" fill-opacity="1" /><path clip-path="url(#clip550)" d="M536.966 1469.6 Q536.966 1461.64 541.017 1456.78 Q545.069 1451.88 550.281 1451.88 Q553.32 1451.88 555 1453.44 Q556.704 1454.97 556.704 1457.34 Q556.704 1458.65 555.938 1459.22 Q555.172 1459.79 554.382 1459.79 Q553.468 1459.79 552.752 1459.17 Q552.035 1458.55 552.035 1457.44 Q552.035 1455.17 554.827 1455.17 Q553.517 1453.14 550.38 1453.14 Q549.417 1453.14 548.428 1453.44 Q547.44 1453.71 546.156 1454.65 Q544.871 1455.59 543.883 1457.07 Q542.895 1458.55 542.203 1461.35 Q541.512 1464.14 541.512 1467.77 L541.512 1468.98 Q543.587 1463.96 547.836 1463.99 Q552.085 1463.99 555.024 1467.23 Q557.964 1470.46 557.964 1475.25 Q557.964 1480.17 554.901 1483.43 Q551.838 1486.69 547.539 1486.69 Q545.612 1486.69 543.858 1485.88 Q542.129 1485.09 540.499 1483.26 Q538.893 1481.43 537.93 1477.92 Q536.966 1474.41 536.966 1469.6 M541.61 1474.14 Q541.61 1479.11 542.524 1481.48 Q542.673 1481.87 542.994 1482.42 Q543.34 1482.96 543.908 1483.68 Q544.501 1484.37 545.464 1484.84 Q546.428 1485.28 547.539 1485.28 Q550.924 1485.28 552.554 1482 Q553.419 1480.17 553.419 1475.2 Q553.419 1470.14 552.505 1468.29 Q550.948 1465.15 547.786 1465.15 Q545.662 1465.15 544.179 1466.61 Q542.722 1468.07 542.154 1470.02 Q541.61 1471.97 541.61 1474.14 Z" fill="#000000" fill-rule="nonzero" fill-opacity="1" /><path clip-path="url(#clip550)" d="M562.114 1469.4 Q562.114 1461.96 563.992 1457.91 Q566.61 1451.88 572.786 1451.88 Q574.095 1451.88 575.454 1452.26 Q576.837 1452.6 578.567 1453.96 Q580.321 1455.32 581.383 1457.54 Q583.408 1461.84 583.408 1469.4 Q583.408 1476.79 581.531 1480.81 Q578.789 1486.69 572.737 1486.69 Q570.464 1486.69 568.142 1485.53 Q565.844 1484.37 564.387 1481.58 Q562.114 1477.4 562.114 1469.4 M566.314 1468.78 Q566.314 1476.41 566.857 1479.45 Q567.475 1482.74 569.155 1484.17 Q570.859 1485.58 572.737 1485.58 Q574.762 1485.58 576.442 1484.07 Q578.147 1482.54 578.665 1479.26 Q579.234 1476.02 579.209 1468.78 Q579.209 1461.74 578.715 1458.92 Q578.048 1455.64 576.269 1454.33 Q574.515 1453 572.737 1453 Q572.07 1453 571.353 1453.19 Q570.661 1453.39 569.649 1453.96 Q568.636 1454.53 567.845 1455.94 Q567.08 1457.34 566.709 1459.47 Q566.314 1462.21 566.314 1468.78 Z" fill="#000000" fill-rule="nonzero" fill-opacity="1" /><path clip-path="url(#clip550)" d="M871.108 1461.79 L872.763 1451.39 L874.022 1451.39 Q874.171 1452.01 874.418 1452.28 Q874.689 1452.55 876.122 1452.77 Q877.58 1453 880.519 1453 L892.797 1453 Q892.797 1454.16 892.352 1454.77 L885.51 1464.38 Q883.336 1467.42 882.372 1473.03 Q881.804 1476.79 881.829 1481.33 L881.829 1483.9 Q881.829 1486.69 879.482 1486.69 Q877.16 1486.69 877.16 1483.9 Q877.16 1474.24 883.385 1464.88 Q884.052 1463.91 886.498 1460.48 Q888.968 1457.05 889.067 1456.9 L878.593 1456.9 Q873.998 1456.9 873.627 1457.2 Q873.133 1457.64 872.367 1461.79 L871.108 1461.79 Z" fill="#000000" fill-rule="nonzero" fill-opacity="1" /><path clip-path="url(#clip550)" d="M896.404 1461.79 L898.059 1451.39 L899.319 1451.39 Q899.467 1452.01 899.714 1452.28 Q899.986 1452.55 901.419 1452.77 Q902.876 1453 905.816 1453 L918.093 1453 Q918.093 1454.16 917.649 1454.77 L910.806 1464.38 Q908.632 1467.42 907.668 1473.03 Q907.1 1476.79 907.125 1481.33 L907.125 1483.9 Q907.125 1486.69 904.778 1486.69 Q902.456 1486.69 902.456 1483.9 Q902.456 1474.24 908.681 1464.88 Q909.348 1463.91 911.794 1460.48 Q914.264 1457.05 914.363 1456.9 L903.889 1456.9 Q899.294 1456.9 898.923 1457.2 Q898.429 1457.64 897.664 1461.79 L896.404 1461.79 Z" fill="#000000" fill-rule="nonzero" fill-opacity="1" /><path clip-path="url(#clip550)" d="M920.984 1477.95 Q920.984 1472.29 928.271 1468.63 Q925.134 1466.51 924.566 1465.89 Q922.342 1463.42 922.342 1460.33 Q922.342 1456.8 925.01 1454.35 Q927.703 1451.88 931.507 1451.88 Q935.139 1451.88 937.881 1453.98 Q940.623 1456.08 940.623 1459.42 Q940.623 1464.11 934.496 1467.27 Q938.548 1469.79 939.511 1470.86 Q941.981 1473.6 941.981 1477.08 Q941.981 1481.13 938.869 1483.92 Q935.756 1486.69 931.458 1486.69 Q927.258 1486.69 924.121 1484.25 Q920.984 1481.8 920.984 1477.95 M923.503 1477.95 Q923.503 1481.08 925.85 1483.18 Q928.222 1485.28 931.507 1485.28 Q934.694 1485.28 937.065 1483.46 Q939.462 1481.63 939.462 1478.91 Q939.462 1477.85 939.091 1476.93 Q938.745 1476.02 938.029 1475.3 Q937.337 1474.56 936.893 1474.24 Q936.473 1473.9 935.657 1473.33 L929.432 1469.4 Q923.503 1472.68 923.503 1477.95 M924.566 1458.36 Q924.566 1460.78 927.11 1462.46 L933.385 1466.51 Q938.399 1463.57 938.399 1459.42 Q938.399 1456.73 936.349 1454.95 Q934.299 1453.14 931.458 1453.14 Q928.666 1453.14 926.616 1454.63 Q924.566 1456.08 924.566 1458.36 Z" fill="#000000" fill-rule="nonzero" fill-opacity="1" /><path clip-path="url(#clip550)" d="M946.132 1469.4 Q946.132 1461.96 948.009 1457.91 Q950.628 1451.88 956.803 1451.88 Q958.113 1451.88 959.471 1452.26 Q960.855 1452.6 962.584 1453.96 Q964.338 1455.32 965.4 1457.54 Q967.426 1461.84 967.426 1469.4 Q967.426 1476.79 965.548 1480.81 Q962.806 1486.69 956.754 1486.69 Q954.481 1486.69 952.159 1485.53 Q949.862 1484.37 948.404 1481.58 Q946.132 1477.4 946.132 1469.4 M950.331 1468.78 Q950.331 1476.41 950.875 1479.45 Q951.492 1482.74 953.172 1484.17 Q954.877 1485.58 956.754 1485.58 Q958.78 1485.58 960.46 1484.07 Q962.164 1482.54 962.683 1479.26 Q963.251 1476.02 963.226 1468.78 Q963.226 1461.74 962.732 1458.92 Q962.065 1455.64 960.287 1454.33 Q958.533 1453 956.754 1453 Q956.087 1453 955.371 1453.19 Q954.679 1453.39 953.666 1453.96 Q952.653 1454.53 951.863 1455.94 Q951.097 1457.34 950.726 1459.47 Q950.331 1462.21 950.331 1468.78 Z" fill="#000000" fill-rule="nonzero" fill-opacity="1" /><path clip-path="url(#clip550)" d="M1255.12 1461.79 L1256.78 1451.39 L1258.04 1451.39 Q1258.19 1452.01 1258.44 1452.28 Q1258.71 1452.55 1260.14 1452.77 Q1261.6 1453 1264.54 1453 L1276.81 1453 Q1276.81 1454.16 1276.37 1454.77 L1269.53 1464.38 Q1267.35 1467.42 1266.39 1473.03 Q1265.82 1476.79 1265.85 1481.33 L1265.85 1483.9 Q1265.85 1486.69 1263.5 1486.69 Q1261.18 1486.69 1261.18 1483.9 Q1261.18 1474.24 1267.4 1464.88 Q1268.07 1463.91 1270.52 1460.48 Q1272.99 1457.05 1273.08 1456.9 L1262.61 1456.9 Q1258.02 1456.9 1257.64 1457.2 Q1257.15 1457.64 1256.38 1461.79 L1255.12 1461.79 Z" fill="#000000" fill-rule="nonzero" fill-opacity="1" /><path clip-path="url(#clip550)" d="M1279.7 1477.95 Q1279.7 1472.29 1286.99 1468.63 Q1283.85 1466.51 1283.29 1465.89 Q1281.06 1463.42 1281.06 1460.33 Q1281.06 1456.8 1283.73 1454.35 Q1286.42 1451.88 1290.23 1451.88 Q1293.86 1451.88 1296.6 1453.98 Q1299.34 1456.08 1299.34 1459.42 Q1299.34 1464.11 1293.22 1467.27 Q1297.27 1469.79 1298.23 1470.86 Q1300.7 1473.6 1300.7 1477.08 Q1300.7 1481.13 1297.59 1483.92 Q1294.48 1486.69 1290.18 1486.69 Q1285.98 1486.69 1282.84 1484.25 Q1279.7 1481.8 1279.7 1477.95 M1282.22 1477.95 Q1282.22 1481.08 1284.57 1483.18 Q1286.94 1485.28 1290.23 1485.28 Q1293.42 1485.28 1295.79 1483.46 Q1298.18 1481.63 1298.18 1478.91 Q1298.18 1477.85 1297.81 1476.93 Q1297.47 1476.02 1296.75 1475.3 Q1296.06 1474.56 1295.61 1474.24 Q1295.19 1473.9 1294.38 1473.33 L1288.15 1469.4 Q1282.22 1472.68 1282.22 1477.95 M1283.29 1458.36 Q1283.29 1460.78 1285.83 1462.46 L1292.11 1466.51 Q1297.12 1463.57 1297.12 1459.42 Q1297.12 1456.73 1295.07 1454.95 Q1293.02 1453.14 1290.18 1453.14 Q1287.39 1453.14 1285.34 1454.63 Q1283.29 1456.08 1283.29 1458.36 Z" fill="#000000" fill-rule="nonzero" fill-opacity="1" /><path clip-path="url(#clip550)" d="M1304.85 1469.4 Q1304.85 1461.96 1306.73 1457.91 Q1309.35 1451.88 1315.52 1451.88 Q1316.83 1451.88 1318.19 1452.26 Q1319.58 1452.6 1321.31 1453.96 Q1323.06 1455.32 1324.12 1457.54 Q1326.15 1461.84 1326.15 1469.4 Q1326.15 1476.79 1324.27 1480.81 Q1321.53 1486.69 1315.48 1486.69 Q1313.2 1486.69 1310.88 1485.53 Q1308.58 1484.37 1307.13 1481.58 Q1304.85 1477.4 1304.85 1469.4 M1309.05 1468.78 Q1309.05 1476.41 1309.6 1479.45 Q1310.21 1482.74 1311.89 1484.17 Q1313.6 1485.58 1315.48 1485.58 Q1317.5 1485.58 1319.18 1484.07 Q1320.89 1482.54 1321.4 1479.26 Q1321.97 1476.02 1321.95 1468.78 Q1321.95 1461.74 1321.45 1458.92 Q1320.79 1455.64 1319.01 1454.33 Q1317.25 1453 1315.48 1453 Q1314.81 1453 1314.09 1453.19 Q1313.4 1453.39 1312.39 1453.96 Q1311.37 1454.53 1310.58 1455.94 Q1309.82 1457.34 1309.45 1459.47 Q1309.05 1462.21 1309.05 1468.78 Z" fill="#000000" fill-rule="nonzero" fill-opacity="1" /><path clip-path="url(#clip550)" d="M1330.15 1469.4 Q1330.15 1461.96 1332.03 1457.91 Q1334.65 1451.88 1340.82 1451.88 Q1342.13 1451.88 1343.49 1452.26 Q1344.87 1452.6 1346.6 1453.96 Q1348.36 1455.32 1349.42 1457.54 Q1351.44 1461.84 1351.44 1469.4 Q1351.44 1476.79 1349.57 1480.81 Q1346.82 1486.69 1340.77 1486.69 Q1338.5 1486.69 1336.18 1485.53 Q1333.88 1484.37 1332.42 1481.58 Q1330.15 1477.4 1330.15 1469.4 M1334.35 1468.78 Q1334.35 1476.41 1334.89 1479.45 Q1335.51 1482.74 1337.19 1484.17 Q1338.89 1485.58 1340.77 1485.58 Q1342.8 1485.58 1344.48 1484.07 Q1346.18 1482.54 1346.7 1479.26 Q1347.27 1476.02 1347.24 1468.78 Q1347.24 1461.74 1346.75 1458.92 Q1346.08 1455.64 1344.3 1454.33 Q1342.55 1453 1340.77 1453 Q1340.1 1453 1339.39 1453.19 Q1338.7 1453.39 1337.68 1453.96 Q1336.67 1454.53 1335.88 1455.94 Q1335.11 1457.34 1334.74 1459.47 Q1334.35 1462.21 1334.35 1468.78 Z" fill="#000000" fill-rule="nonzero" fill-opacity="1" /><path clip-path="url(#clip550)" d="M1639.14 1461.79 L1640.8 1451.39 L1642.06 1451.39 Q1642.21 1452.01 1642.45 1452.28 Q1642.72 1452.55 1644.16 1452.77 Q1645.61 1453 1648.55 1453 L1660.83 1453 Q1660.83 1454.16 1660.39 1454.77 L1653.54 1464.38 Q1651.37 1467.42 1650.41 1473.03 Q1649.84 1476.79 1649.86 1481.33 L1649.86 1483.9 Q1649.86 1486.69 1647.52 1486.69 Q1645.19 1486.69 1645.19 1483.9 Q1645.19 1474.24 1651.42 1464.88 Q1652.09 1463.91 1654.53 1460.48 Q1657 1457.05 1657.1 1456.9 L1646.63 1456.9 Q1642.03 1456.9 1641.66 1457.2 Q1641.17 1457.64 1640.4 1461.79 L1639.14 1461.79 Z" fill="#000000" fill-rule="nonzero" fill-opacity="1" /><path clip-path="url(#clip550)" d="M1663.72 1477.95 Q1663.72 1472.29 1671.01 1468.63 Q1667.87 1466.51 1667.3 1465.89 Q1665.08 1463.42 1665.08 1460.33 Q1665.08 1456.8 1667.75 1454.35 Q1670.44 1451.88 1674.25 1451.88 Q1677.88 1451.88 1680.62 1453.98 Q1683.36 1456.08 1683.36 1459.42 Q1683.36 1464.11 1677.24 1467.27 Q1681.29 1469.79 1682.25 1470.86 Q1684.72 1473.6 1684.72 1477.08 Q1684.72 1481.13 1681.61 1483.92 Q1678.49 1486.69 1674.2 1486.69 Q1670 1486.69 1666.86 1484.25 Q1663.72 1481.8 1663.72 1477.95 M1666.24 1477.95 Q1666.24 1481.08 1668.59 1483.18 Q1670.96 1485.28 1674.25 1485.28 Q1677.43 1485.28 1679.8 1483.46 Q1682.2 1481.63 1682.2 1478.91 Q1682.2 1477.85 1681.83 1476.93 Q1681.48 1476.02 1680.77 1475.3 Q1680.08 1474.56 1679.63 1474.24 Q1679.21 1473.9 1678.4 1473.33 L1672.17 1469.4 Q1666.24 1472.68 1666.24 1477.95 M1667.3 1458.36 Q1667.3 1460.78 1669.85 1462.46 L1676.12 1466.51 Q1681.14 1463.57 1681.14 1459.42 Q1681.14 1456.73 1679.09 1454.95 Q1677.04 1453.14 1674.2 1453.14 Q1671.41 1453.14 1669.35 1454.63 Q1667.3 1456.08 1667.3 1458.36 Z" fill="#000000" fill-rule="nonzero" fill-opacity="1" /><path clip-path="url(#clip550)" d="M1689.41 1485.58 Q1689.41 1484.67 1689.49 1484.39 Q1689.59 1484.12 1689.98 1483.7 L1699.69 1472.88 Q1705 1466.9 1705 1461.69 Q1705 1458.31 1703.22 1455.89 Q1701.47 1453.47 1698.23 1453.47 Q1696.01 1453.47 1694.13 1454.82 Q1692.25 1456.18 1691.39 1458.6 Q1691.54 1458.55 1692.06 1458.55 Q1693.32 1458.55 1694.01 1459.34 Q1694.72 1460.14 1694.72 1461.2 Q1694.72 1462.56 1693.84 1463.22 Q1692.97 1463.87 1692.11 1463.87 Q1691.76 1463.87 1691.29 1463.79 Q1690.85 1463.72 1690.13 1463.03 Q1689.41 1462.31 1689.41 1461.05 Q1689.41 1457.52 1692.08 1454.7 Q1694.77 1451.88 1698.88 1451.88 Q1703.52 1451.88 1706.56 1454.65 Q1709.62 1457.39 1709.62 1461.69 Q1709.62 1463.2 1709.15 1464.58 Q1708.71 1465.94 1708.09 1467 Q1707.5 1468.07 1705.87 1469.77 Q1704.24 1471.47 1702.93 1472.68 Q1701.62 1473.9 1698.68 1476.46 L1693.32 1481.68 L1702.43 1481.68 Q1706.88 1481.68 1707.22 1481.28 Q1707.72 1480.57 1708.34 1476.79 L1709.62 1476.79 L1708.19 1485.58 L1689.41 1485.58 Z" fill="#000000" fill-rule="nonzero" fill-opacity="1" /><path clip-path="url(#clip550)" d="M1714.17 1469.4 Q1714.17 1461.96 1716.04 1457.91 Q1718.66 1451.88 1724.84 1451.88 Q1726.15 1451.88 1727.51 1452.26 Q1728.89 1452.6 1730.62 1453.96 Q1732.37 1455.32 1733.44 1457.54 Q1735.46 1461.84 1735.46 1469.4 Q1735.46 1476.79 1733.58 1480.81 Q1730.84 1486.69 1724.79 1486.69 Q1722.52 1486.69 1720.19 1485.53 Q1717.9 1484.37 1716.44 1481.58 Q1714.17 1477.4 1714.17 1469.4 M1718.37 1468.78 Q1718.37 1476.41 1718.91 1479.45 Q1719.53 1482.74 1721.21 1484.17 Q1722.91 1485.58 1724.79 1485.58 Q1726.81 1485.58 1728.49 1484.07 Q1730.2 1482.54 1730.72 1479.26 Q1731.29 1476.02 1731.26 1468.78 Q1731.26 1461.74 1730.77 1458.92 Q1730.1 1455.64 1728.32 1454.33 Q1726.57 1453 1724.79 1453 Q1724.12 1453 1723.41 1453.19 Q1722.71 1453.39 1721.7 1453.96 Q1720.69 1454.53 1719.9 1455.94 Q1719.13 1457.34 1718.76 1459.47 Q1718.37 1462.21 1718.37 1468.78 Z" fill="#000000" fill-rule="nonzero" fill-opacity="1" /><path clip-path="url(#clip550)" d="M2023.16 1461.79 L2024.82 1451.39 L2026.07 1451.39 Q2026.22 1452.01 2026.47 1452.28 Q2026.74 1452.55 2028.17 1452.77 Q2029.63 1453 2032.57 1453 L2044.85 1453 Q2044.85 1454.16 2044.4 1454.77 L2037.56 1464.38 Q2035.39 1467.42 2034.42 1473.03 Q2033.86 1476.79 2033.88 1481.33 L2033.88 1483.9 Q2033.88 1486.69 2031.53 1486.69 Q2029.21 1486.69 2029.21 1483.9 Q2029.21 1474.24 2035.44 1464.88 Q2036.1 1463.91 2038.55 1460.48 Q2041.02 1457.05 2041.12 1456.9 L2030.65 1456.9 Q2026.05 1456.9 2025.68 1457.2 Q2025.19 1457.64 2024.42 1461.79 L2023.16 1461.79 Z" fill="#000000" fill-rule="nonzero" fill-opacity="1" /><path clip-path="url(#clip550)" d="M2047.74 1477.95 Q2047.74 1472.29 2055.03 1468.63 Q2051.89 1466.51 2051.32 1465.89 Q2049.1 1463.42 2049.1 1460.33 Q2049.1 1456.8 2051.77 1454.35 Q2054.46 1451.88 2058.26 1451.88 Q2061.89 1451.88 2064.64 1453.98 Q2067.38 1456.08 2067.38 1459.42 Q2067.38 1464.11 2061.25 1467.27 Q2065.3 1469.79 2066.27 1470.86 Q2068.74 1473.6 2068.74 1477.08 Q2068.74 1481.13 2065.62 1483.92 Q2062.51 1486.69 2058.21 1486.69 Q2054.01 1486.69 2050.88 1484.25 Q2047.74 1481.8 2047.74 1477.95 M2050.26 1477.95 Q2050.26 1481.08 2052.61 1483.18 Q2054.98 1485.28 2058.26 1485.28 Q2061.45 1485.28 2063.82 1483.46 Q2066.22 1481.63 2066.22 1478.91 Q2066.22 1477.85 2065.85 1476.93 Q2065.5 1476.02 2064.79 1475.3 Q2064.09 1474.56 2063.65 1474.24 Q2063.23 1473.9 2062.41 1473.33 L2056.19 1469.4 Q2050.26 1472.68 2050.26 1477.95 M2051.32 1458.36 Q2051.32 1460.78 2053.87 1462.46 L2060.14 1466.51 Q2065.16 1463.57 2065.16 1459.42 Q2065.16 1456.73 2063.11 1454.95 Q2061.05 1453.14 2058.21 1453.14 Q2055.42 1453.14 2053.37 1454.63 Q2051.32 1456.08 2051.32 1458.36 Z" fill="#000000" fill-rule="nonzero" fill-opacity="1" /><path clip-path="url(#clip550)" d="M2072.32 1477.23 L2072.32 1475.67 L2087.86 1451.93 Q2088.25 1451.32 2088.87 1451.34 Q2089.44 1451.34 2089.56 1451.56 Q2089.69 1451.79 2089.69 1452.65 L2089.69 1475.67 L2094.75 1475.67 L2094.75 1477.23 L2089.69 1477.23 L2089.69 1481.63 Q2089.69 1483.08 2090.28 1483.55 Q2090.9 1484.02 2093.52 1484.02 L2094.58 1484.02 L2094.58 1485.58 Q2092.5 1485.43 2087.71 1485.43 Q2082.94 1485.43 2080.87 1485.58 L2080.87 1484.02 L2081.93 1484.02 Q2084.55 1484.02 2085.17 1483.58 Q2085.78 1483.11 2085.78 1481.63 L2085.78 1477.23 L2072.32 1477.23 M2073.75 1475.67 L2086.08 1475.67 L2086.08 1456.8 L2073.75 1475.67 Z" fill="#000000" fill-rule="nonzero" fill-opacity="1" /><path clip-path="url(#clip550)" d="M2098.18 1469.4 Q2098.18 1461.96 2100.06 1457.91 Q2102.68 1451.88 2108.86 1451.88 Q2110.17 1451.88 2111.52 1452.26 Q2112.91 1452.6 2114.64 1453.96 Q2116.39 1455.32 2117.45 1457.54 Q2119.48 1461.84 2119.48 1469.4 Q2119.48 1476.79 2117.6 1480.81 Q2114.86 1486.69 2108.81 1486.69 Q2106.53 1486.69 2104.21 1485.53 Q2101.91 1484.37 2100.46 1481.58 Q2098.18 1477.4 2098.18 1469.4 M2102.38 1468.78 Q2102.38 1476.41 2102.93 1479.45 Q2103.54 1482.74 2105.22 1484.17 Q2106.93 1485.58 2108.81 1485.58 Q2110.83 1485.58 2112.51 1484.07 Q2114.22 1482.54 2114.74 1479.26 Q2115.3 1476.02 2115.28 1468.78 Q2115.28 1461.74 2114.78 1458.92 Q2114.12 1455.64 2112.34 1454.33 Q2110.59 1453 2108.81 1453 Q2108.14 1453 2107.42 1453.19 Q2106.73 1453.39 2105.72 1453.96 Q2104.71 1454.53 2103.92 1455.94 Q2103.15 1457.34 2102.78 1459.47 Q2102.38 1462.21 2102.38 1468.78 Z" fill="#000000" fill-rule="nonzero" fill-opacity="1" /><path clip-path="url(#clip550)" d="M1197.09 1540.22 L1197.09 1538.7 Q1200.28 1538.56 1202.39 1536.32 Q1204.53 1534.04 1205.24 1531.26 Q1205.99 1528.47 1206.06 1525.25 L1207.79 1525.25 L1207.79 1538.05 L1217.74 1538.05 L1217.74 1540.22 L1207.79 1540.22 L1207.79 1559.55 Q1207.79 1567.06 1212.48 1567.06 Q1214.48 1567.06 1215.8 1565.02 Q1217.13 1562.95 1217.13 1559.28 L1217.13 1555.44 L1218.86 1555.44 L1218.86 1559.42 Q1218.86 1563.19 1217.13 1566.01 Q1215.4 1568.83 1211.97 1568.83 Q1210.71 1568.83 1209.45 1568.49 Q1208.23 1568.18 1206.6 1567.36 Q1205 1566.52 1203.98 1564.48 Q1203 1562.41 1203 1559.42 L1203 1540.22 L1197.09 1540.22 Z" fill="#000000" fill-rule="nonzero" fill-opacity="1" /><path clip-path="url(#clip550)" d="M1253.1 1585.44 L1253.1 1515.87 L1263.6 1515.87 L1263.6 1517.47 L1257.75 1517.47 L1257.75 1583.84 L1263.6 1583.84 L1263.6 1585.44 L1253.1 1585.44 Z" fill="#000000" fill-rule="nonzero" fill-opacity="1" /><path clip-path="url(#clip550)" d="M1267.5 1567.13 L1267.5 1557.96 Q1267.5 1557.17 1267.54 1556.9 Q1267.57 1556.63 1267.77 1556.43 Q1267.98 1556.22 1268.39 1556.22 Q1268.86 1556.22 1269.03 1556.43 Q1269.23 1556.63 1269.37 1557.41 Q1270.42 1562.2 1272.66 1564.75 Q1274.94 1567.26 1279.05 1567.26 Q1282.96 1567.26 1284.93 1565.53 Q1286.9 1563.8 1286.9 1560.94 Q1286.9 1555.85 1279.66 1554.56 Q1275.48 1553.71 1273.75 1553.17 Q1272.02 1552.59 1270.49 1551.33 Q1267.5 1548.89 1267.5 1545.42 Q1267.5 1541.96 1270.12 1539.41 Q1272.77 1536.86 1278.61 1536.86 Q1282.52 1536.86 1285.16 1538.83 Q1285.95 1538.22 1286.35 1537.71 Q1287.27 1536.86 1287.75 1536.86 Q1288.29 1536.86 1288.39 1537.24 Q1288.49 1537.58 1288.49 1538.56 L1288.49 1545.56 Q1288.49 1546.34 1288.46 1546.61 Q1288.43 1546.88 1288.22 1547.09 Q1288.02 1547.26 1287.58 1547.26 Q1286.8 1547.26 1286.76 1546.61 Q1286.22 1538.19 1278.61 1538.19 Q1274.5 1538.19 1272.66 1539.78 Q1270.83 1541.35 1270.83 1543.49 Q1270.83 1544.67 1271.37 1545.59 Q1271.95 1546.47 1272.66 1547.02 Q1273.41 1547.53 1274.77 1548.04 Q1276.13 1548.51 1276.94 1548.68 Q1277.79 1548.85 1279.39 1549.19 Q1284.96 1550.25 1287.3 1552.52 Q1290.23 1555.44 1290.23 1559.14 Q1290.23 1563.25 1287.44 1566.04 Q1284.66 1568.83 1279.05 1568.83 Q1274.53 1568.83 1271.37 1565.8 Q1270.97 1566.21 1270.66 1566.58 Q1270.36 1566.92 1270.22 1567.06 Q1270.12 1567.19 1270.08 1567.3 Q1270.05 1567.36 1269.98 1567.43 Q1268.59 1568.83 1268.25 1568.83 Q1267.71 1568.83 1267.6 1568.45 Q1267.5 1568.11 1267.5 1567.13 Z" fill="#000000" fill-rule="nonzero" fill-opacity="1" /><path clip-path="url(#clip550)" d="M1294.51 1552.72 Q1294.51 1546.17 1298.72 1541.52 Q1302.93 1536.86 1308.98 1536.86 Q1315.09 1536.86 1318.25 1540.84 Q1321.44 1544.81 1321.44 1550.52 Q1321.44 1551.57 1321.17 1551.77 Q1320.9 1551.98 1319.71 1551.98 L1300.28 1551.98 Q1300.28 1559.08 1302.39 1562.41 Q1305.31 1567.06 1310.23 1567.06 Q1310.91 1567.06 1311.73 1566.92 Q1312.54 1566.79 1314.21 1566.21 Q1315.87 1565.6 1317.33 1564 Q1318.79 1562.41 1319.64 1559.89 Q1319.85 1558.91 1320.52 1558.94 Q1321.44 1558.94 1321.44 1559.76 Q1321.44 1560.37 1320.76 1561.76 Q1320.12 1563.12 1318.86 1564.75 Q1317.6 1566.38 1315.16 1567.6 Q1312.75 1568.83 1309.82 1568.83 Q1303.71 1568.83 1299.09 1564.21 Q1294.51 1559.55 1294.51 1552.72 M1300.35 1550.52 L1316.86 1550.52 Q1316.86 1549.06 1316.58 1547.43 Q1316.35 1545.8 1315.6 1543.55 Q1314.89 1541.28 1313.19 1539.85 Q1311.49 1538.42 1308.98 1538.42 Q1307.85 1538.42 1306.63 1538.9 Q1305.44 1539.38 1303.98 1540.53 Q1302.52 1541.69 1301.5 1544.3 Q1300.48 1546.92 1300.35 1550.52 Z" fill="#000000" fill-rule="nonzero" fill-opacity="1" /><path clip-path="url(#clip550)" d="M1330.24 1564.24 Q1325.82 1559.62 1325.82 1553.03 Q1325.82 1546.41 1330.17 1541.65 Q1334.52 1536.86 1340.9 1536.86 Q1345.15 1536.86 1348.34 1538.9 Q1351.54 1540.9 1351.54 1544.33 Q1351.54 1545.86 1350.62 1546.75 Q1349.74 1547.6 1348.34 1547.6 Q1346.88 1547.6 1346 1546.71 Q1345.15 1545.8 1345.15 1544.4 Q1345.15 1543.79 1345.35 1543.18 Q1345.56 1542.57 1346.31 1541.92 Q1347.09 1541.28 1348.41 1541.18 Q1345.93 1538.63 1341.11 1538.63 Q1341.04 1538.63 1340.97 1538.63 Q1337.44 1538.63 1334.52 1541.96 Q1331.6 1545.29 1331.6 1552.89 Q1331.6 1556.87 1332.55 1559.79 Q1333.53 1562.68 1335.13 1564.17 Q1336.73 1565.67 1338.29 1566.38 Q1339.85 1567.06 1341.38 1567.06 Q1348.21 1567.06 1350.52 1559.76 Q1350.72 1559.08 1351.4 1559.08 Q1352.32 1559.08 1352.32 1559.76 Q1352.32 1560.1 1352.05 1560.98 Q1351.77 1561.86 1350.93 1563.25 Q1350.08 1564.65 1348.85 1565.87 Q1347.66 1567.06 1345.52 1567.94 Q1343.42 1568.83 1340.77 1568.83 Q1334.65 1568.83 1330.24 1564.24 Z" fill="#000000" fill-rule="nonzero" fill-opacity="1" /><path clip-path="url(#clip550)" d="M1355.78 1583.84 L1361.62 1583.84 L1361.62 1517.47 L1355.78 1517.47 L1355.78 1515.87 L1366.28 1515.87 L1366.28 1585.44 L1355.78 1585.44 L1355.78 1583.84 Z" fill="#000000" fill-rule="nonzero" fill-opacity="1" /><polyline clip-path="url(#clip552)" style="stroke:#000000; stroke-linecap:round; stroke-linejoin:round; stroke-width:2; stroke-opacity:0.1; fill:none" points="210.61,1382.83 2352.76,1382.83 "/>
<polyline clip-path="url(#clip552)" style="stroke:#000000; stroke-linecap:round; stroke-linejoin:round; stroke-width:2; stroke-opacity:0.1; fill:none" points="210.61,1099.34 2352.76,1099.34 "/>
<polyline clip-path="url(#clip552)" style="stroke:#000000; stroke-linecap:round; stroke-linejoin:round; stroke-width:2; stroke-opacity:0.1; fill:none" points="210.61,815.843 2352.76,815.843 "/>
<polyline clip-path="url(#clip552)" style="stroke:#000000; stroke-linecap:round; stroke-linejoin:round; stroke-width:2; stroke-opacity:0.1; fill:none" points="210.61,532.35 2352.76,532.35 "/>
<polyline clip-path="url(#clip552)" style="stroke:#000000; stroke-linecap:round; stroke-linejoin:round; stroke-width:2; stroke-opacity:0.1; fill:none" points="210.61,248.858 2352.76,248.858 "/>
<polyline clip-path="url(#clip550)" style="stroke:#000000; stroke-linecap:round; stroke-linejoin:round; stroke-width:4; stroke-opacity:1; fill:none" points="210.61,1423.18 210.61,108.933 "/>
<polyline clip-path="url(#clip550)" style="stroke:#000000; stroke-linecap:round; stroke-linejoin:round; stroke-width:4; stroke-opacity:1; fill:none" points="210.61,1382.83 229.508,1382.83 "/>
<polyline clip-path="url(#clip550)" style="stroke:#000000; stroke-linecap:round; stroke-linejoin:round; stroke-width:4; stroke-opacity:1; fill:none" points="210.61,1099.34 229.508,1099.34 "/>
<polyline clip-path="url(#clip550)" style="stroke:#000000; stroke-linecap:round; stroke-linejoin:round; stroke-width:4; stroke-opacity:1; fill:none" points="210.61,815.843 229.508,815.843 "/>
<polyline clip-path="url(#clip550)" style="stroke:#000000; stroke-linecap:round; stroke-linejoin:round; stroke-width:4; stroke-opacity:1; fill:none" points="210.61,532.35 229.508,532.35 "/>
<polyline clip-path="url(#clip550)" style="stroke:#000000; stroke-linecap:round; stroke-linejoin:round; stroke-width:4; stroke-opacity:1; fill:none" points="210.61,248.858 229.508,248.858 "/>
<path clip-path="url(#clip550)" d="M147.659 1386.74 Q147.956 1387.04 147.956 1387.46 Q147.956 1387.88 147.659 1388.18 Q147.363 1388.47 146.943 1388.47 L115.273 1388.47 Q114.853 1388.47 114.557 1388.18 Q114.26 1387.88 114.26 1387.46 Q114.26 1387.04 114.557 1386.74 Q114.853 1386.45 115.273 1386.45 L146.943 1386.45 Q147.363 1386.45 147.659 1386.74 Z" fill="#000000" fill-rule="nonzero" fill-opacity="1" /><path clip-path="url(#clip550)" d="M152.18 1391.76 L152.18 1390.2 L167.718 1366.46 Q168.113 1365.84 168.731 1365.87 Q169.299 1365.87 169.423 1366.09 Q169.546 1366.31 169.546 1367.18 L169.546 1390.2 L174.61 1390.2 L174.61 1391.76 L169.546 1391.76 L169.546 1396.15 Q169.546 1397.61 170.139 1398.08 Q170.757 1398.55 173.375 1398.55 L174.438 1398.55 L174.438 1400.11 Q172.362 1399.96 167.57 1399.96 Q162.802 1399.96 160.727 1400.11 L160.727 1398.55 L161.789 1398.55 Q164.408 1398.55 165.026 1398.11 Q165.643 1397.64 165.643 1396.15 L165.643 1391.76 L152.18 1391.76 M153.613 1390.2 L165.94 1390.2 L165.94 1371.33 L153.613 1390.2 Z" fill="#000000" fill-rule="nonzero" fill-opacity="1" /><path clip-path="url(#clip550)" d="M148.771 1103.25 Q149.067 1103.55 149.067 1103.97 Q149.067 1104.39 148.771 1104.68 Q148.474 1104.98 148.054 1104.98 L116.385 1104.98 Q115.965 1104.98 115.668 1104.68 Q115.372 1104.39 115.372 1103.97 Q115.372 1103.55 115.668 1103.25 Q115.965 1102.95 116.385 1102.95 L148.054 1102.95 Q148.474 1102.95 148.771 1103.25 Z" fill="#000000" fill-rule="nonzero" fill-opacity="1" /><path clip-path="url(#clip550)" d="M154.403 1116.62 Q154.403 1115.7 154.477 1115.43 Q154.576 1115.16 154.971 1114.74 L164.68 1103.92 Q169.991 1097.94 169.991 1092.73 Q169.991 1089.34 168.212 1086.92 Q166.458 1084.5 163.222 1084.5 Q160.999 1084.5 159.121 1085.86 Q157.244 1087.22 156.379 1089.64 Q156.528 1089.59 157.046 1089.59 Q158.306 1089.59 158.998 1090.38 Q159.714 1091.17 159.714 1092.23 Q159.714 1093.59 158.825 1094.26 Q157.96 1094.9 157.096 1094.9 Q156.75 1094.9 156.281 1094.83 Q155.836 1094.75 155.12 1094.06 Q154.403 1093.34 154.403 1092.08 Q154.403 1088.55 157.071 1085.74 Q159.764 1082.92 163.865 1082.92 Q168.509 1082.92 171.547 1085.69 Q174.61 1088.43 174.61 1092.73 Q174.61 1094.23 174.141 1095.62 Q173.696 1096.98 173.079 1098.04 Q172.486 1099.1 170.856 1100.8 Q169.225 1102.51 167.916 1103.72 Q166.607 1104.93 163.667 1107.5 L158.306 1112.71 L167.422 1112.71 Q171.868 1112.71 172.214 1112.32 Q172.708 1111.6 173.326 1107.82 L174.61 1107.82 L173.178 1116.62 L154.403 1116.62 Z" fill="#000000" fill-rule="nonzero" fill-opacity="1" /><path clip-path="url(#clip550)" d="M153.316 816.942 Q153.316 809.506 155.194 805.455 Q157.812 799.427 163.988 799.427 Q165.297 799.427 166.656 799.798 Q168.039 800.144 169.769 801.502 Q171.523 802.861 172.585 805.084 Q174.61 809.383 174.61 816.942 Q174.61 824.328 172.733 828.355 Q169.991 834.234 163.939 834.234 Q161.666 834.234 159.344 833.073 Q157.046 831.912 155.589 829.121 Q153.316 824.946 153.316 816.942 M157.516 816.324 Q157.516 823.958 158.059 826.996 Q158.677 830.282 160.357 831.715 Q162.061 833.123 163.939 833.123 Q165.964 833.123 167.644 831.616 Q169.349 830.084 169.867 826.799 Q170.436 823.563 170.411 816.324 Q170.411 809.284 169.917 806.468 Q169.25 803.182 167.471 801.873 Q165.717 800.539 163.939 800.539 Q163.272 800.539 162.555 800.737 Q161.864 800.934 160.851 801.502 Q159.838 802.071 159.047 803.479 Q158.282 804.887 157.911 807.011 Q157.516 809.753 157.516 816.324 Z" fill="#000000" fill-rule="nonzero" fill-opacity="1" /><path clip-path="url(#clip550)" d="M154.403 549.63 Q154.403 548.716 154.477 548.445 Q154.576 548.173 154.971 547.753 L164.68 536.933 Q169.991 530.955 169.991 525.742 Q169.991 522.358 168.212 519.937 Q166.458 517.516 163.222 517.516 Q160.999 517.516 159.121 518.875 Q157.244 520.233 156.379 522.654 Q156.528 522.605 157.046 522.605 Q158.306 522.605 158.998 523.395 Q159.714 524.186 159.714 525.248 Q159.714 526.607 158.825 527.274 Q157.96 527.916 157.096 527.916 Q156.75 527.916 156.281 527.842 Q155.836 527.768 155.12 527.076 Q154.403 526.36 154.403 525.1 Q154.403 521.567 157.071 518.751 Q159.764 515.935 163.865 515.935 Q168.509 515.935 171.547 518.702 Q174.61 521.444 174.61 525.742 Q174.61 527.249 174.141 528.633 Q173.696 529.991 173.079 531.054 Q172.486 532.116 170.856 533.82 Q169.225 535.525 167.916 536.735 Q166.607 537.946 163.667 540.515 L158.306 545.727 L167.422 545.727 Q171.868 545.727 172.214 545.332 Q172.708 544.616 173.326 540.836 L174.61 540.836 L173.178 549.63 L154.403 549.63 Z" fill="#000000" fill-rule="nonzero" fill-opacity="1" /><path clip-path="url(#clip550)" d="M152.18 257.788 L152.18 256.232 L167.718 232.492 Q168.113 231.875 168.731 231.899 Q169.299 231.899 169.423 232.122 Q169.546 232.344 169.546 233.209 L169.546 256.232 L174.61 256.232 L174.61 257.788 L169.546 257.788 L169.546 262.186 Q169.546 263.643 170.139 264.112 Q170.757 264.582 173.375 264.582 L174.438 264.582 L174.438 266.138 Q172.362 265.99 167.57 265.99 Q162.802 265.99 160.727 266.138 L160.727 264.582 L161.789 264.582 Q164.408 264.582 165.026 264.137 Q165.643 263.668 165.643 262.186 L165.643 257.788 L152.18 257.788 M153.613 256.232 L165.94 256.232 L165.94 237.359 L153.613 256.232 Z" fill="#000000" fill-rule="nonzero" fill-opacity="1" /><path clip-path="url(#clip550)" d="M36.253 838.355 Q34.7245 838.355 33.6376 837.166 Q32.5506 835.944 32.5506 834.483 Q32.5506 833.498 32.9922 832.717 Q33.3998 831.901 34.215 831.392 Q34.9962 830.848 35.8114 830.509 Q36.5927 830.169 37.7815 829.931 Q38.9704 829.66 39.6837 829.558 Q40.363 829.456 41.416 829.354 Q42.435 829.252 42.6388 829.252 Q41.1783 828.844 39.7177 828.199 Q38.2571 827.52 36.4908 826.331 Q34.7245 825.142 33.6036 823.342 Q32.4827 821.541 32.4827 819.436 Q32.4827 815.529 36.7965 812.302 Q41.1103 809.076 50.0776 809.076 L79.8668 809.076 Q81.1236 809.076 81.8369 809.619 Q82.5842 810.129 82.754 810.604 Q82.9238 811.08 82.9238 811.657 Q82.9238 812.642 82.2105 813.491 Q81.5312 814.306 79.8668 814.306 Q74.9416 814.306 64.6156 812.574 Q54.3235 810.808 49.2624 810.808 Q41.9595 810.808 38.9704 814.306 Q37.4419 816.039 37.4419 817.975 Q37.4419 819.707 38.8006 821.1 Q40.1592 822.493 42.1973 823.444 Q44.2353 824.395 47.6999 825.278 Q51.1306 826.127 54.2216 826.671 Q57.3126 827.18 61.8642 827.791 Q65.4647 828.131 65.4647 830.645 Q65.4647 831.562 64.8533 832.377 Q64.2759 833.158 63.087 833.158 Q61.3547 833.158 54.867 832.071 Q48.3453 830.984 47.8018 830.984 Q41.9595 830.984 39.8875 831.732 Q37.7815 832.445 37.0682 833.973 Q38.5288 834.755 38.5288 836.079 Q38.5288 837.064 37.8834 837.71 Q37.2381 838.355 36.253 838.355 Z" fill="#000000" fill-rule="nonzero" fill-opacity="1" /><path clip-path="url(#clip550)" d="M81.3953 775.72 L11.8307 775.72 L11.8307 765.224 L13.4271 765.224 L13.4271 771.066 L79.7989 771.066 L79.7989 765.224 L81.3953 765.224 L81.3953 775.72 Z" fill="#000000" fill-rule="nonzero" fill-opacity="1" /><path clip-path="url(#clip550)" d="M64.0042 761.386 L61.8642 761.386 Q61.8642 757.683 61.4227 756.834 Q60.9471 755.985 58.7053 755.985 L40.0573 755.985 Q37.4758 755.985 36.8305 756.902 Q36.1851 757.785 36.1851 761.386 L34.0112 761.386 L33.2639 751.603 L40.5668 751.603 Q33.2639 748.342 33.2639 741.311 Q33.2639 733.159 40.0573 732.038 Q37.4079 730.849 35.3359 728.37 Q33.2639 725.856 33.2639 721.95 Q33.2639 716.719 35.8454 714.647 Q37.5777 713.118 39.5139 712.813 Q41.45 712.507 46.4771 712.507 L59.7583 712.507 Q61.2189 712.439 61.5585 711.318 Q61.8642 710.197 61.8642 707.072 L64.0042 707.072 Q63.8004 714.171 63.8004 714.851 Q63.8004 715.394 64.0042 722.731 L61.8642 722.731 Q61.8642 719.029 61.4227 718.18 Q60.9471 717.296 58.7053 717.296 L42.503 717.296 Q38.9704 717.296 36.8984 718.383 Q34.7924 719.47 34.7924 722.459 Q34.7924 726.06 37.8155 728.947 Q40.8386 731.834 45.9336 731.834 L58.7053 731.834 Q60.9471 731.834 61.4227 730.985 Q61.8642 730.102 61.8642 726.4 L64.0042 726.4 Q63.8004 733.499 63.8004 734.212 Q63.8004 734.755 64.0042 742.058 L61.8642 742.058 Q61.8642 738.356 61.4227 737.507 Q60.9471 736.624 58.7053 736.624 L42.503 736.624 Q38.9704 736.624 36.8984 737.711 Q34.7924 738.798 34.7924 741.787 Q34.7924 745.387 37.8155 748.274 Q40.8386 751.162 45.9336 751.162 L58.7053 751.162 Q60.9471 751.162 61.4227 750.312 Q61.8642 749.429 61.8642 745.761 L64.0042 745.761 Q63.8004 752.86 63.8004 753.539 Q63.8004 754.083 64.0042 761.386 Z" fill="#000000" fill-rule="nonzero" fill-opacity="1" /><path clip-path="url(#clip550)" d="M79.7989 704.253 L79.7989 698.411 L13.4271 698.411 L13.4271 704.253 L11.8307 704.253 L11.8307 693.757 L81.3953 693.757 L81.3953 704.253 L79.7989 704.253 Z" fill="#000000" fill-rule="nonzero" fill-opacity="1" /><g clip-path="url(#clip550)">
<text style="fill:#000000; fill-opacity:1; font-family:Century Schoolbook,Georgia,serif; font-size:66px; font-weight:bold; text-anchor:middle;" transform="rotate(0, 1281.68, 57.6)" x="1281.68" y="57.6">Original vs Reconstructed Signal</text>
</g>
<polyline clip-path="url(#clip552)" style="stroke:#dfba53; stroke-linecap:round; stroke-linejoin:round; stroke-width:8; stroke-opacity:1; fill:none" points="271.237,760.808 273.637,768.936 276.037,778.879 278.438,791.075 280.838,805.867 283.238,823.468 285.638,843.933 288.038,867.151 290.438,892.849 292.838,920.619 295.238,949.951 297.638,980.264 300.039,1010.95 302.439,1041.4 304.839,1071.03 307.239,1099.33 309.639,1125.81 312.039,1150.08 314.439,1171.77 316.839,1190.61 319.239,1206.34 321.64,1218.78 324.04,1227.77 326.44,1233.2 328.84,1235 331.24,1233.07 333.64,1227.35 336.04,1217.76 338.44,1204.22 340.84,1186.7 343.24,1165.19 345.641,1139.71 348.041,1110.21 350.441,1076.61 352.841,1038.72 355.241,996.37 357.641,949.458 360.041,898.03 362.441,842.235 364.841,782.221 367.242,718.023 369.642,649.618 372.042,577.204 374.442,501.691 376.842,425.21 379.242,351.366 381.642,284.996 384.042,231.375 386.442,195.082 388.843,178.933 391.243,183.333 393.643,206.308 396.043,244.137 398.443,292.318 400.843,346.521 403.243,403.252 405.643,460.113 408.043,515.699 410.444,569.265 412.844,620.407 415.244,668.866 417.644,714.444 420.044,756.975 422.444,796.301 424.844,832.29 427.244,864.861 429.644,893.989 432.045,919.676 434.445,941.938 436.845,960.806 439.245,976.344 441.645,988.629 444.045,997.748 446.445,1003.79 448.845,1006.88 451.245,1007.14 453.646,1004.72 456.046,999.794 458.446,992.533 460.846,983.151 463.246,971.882 465.646,958.989 468.046,944.77 470.446,929.561 472.846,913.741 475.247,897.737 477.647,882.02 480.047,867.1 482.447,853.511 484.847,841.79 487.247,832.447 489.647,825.929 492.047,822.59 494.447,822.658 496.847,826.216 499.248,833.197 501.648,843.389 504.048,856.456 506.448,871.961 508.848,889.405 511.248,908.256 513.648,927.981 516.048,948.066 518.448,968.036 520.849,987.461 523.249,1005.96 525.649,1023.21 528.049,1038.92 530.449,1052.87 532.849,1064.84 535.249,1074.67 537.649,1082.23 540.049,1087.39 542.45,1090.07 544.85,1090.18 547.25,1087.64 549.65,1082.41 552.05,1074.43 554.45,1063.64 556.85,1050 559.25,1033.47 561.65,1014.01 564.051,991.581 566.451,966.17 568.851,937.766 571.251,906.378 573.651,872.037 576.051,834.807 578.451,794.787 580.851,752.125 583.251,707.031 585.652,659.784 588.052,610.758 590.452,560.435 592.852,509.441 595.252,458.571 597.652,408.808 600.052,361.329 602.452,317.468 604.852,278.642 607.253,246.242 609.653,221.495 612.053,205.339 614.453,198.318 616.853,200.547 619.253,211.725 621.653,231.217 624.053,258.157 626.453,291.561 628.853,330.423 631.254,373.779 633.654,420.735 636.054,470.484 638.454,522.3 640.854,575.529 643.254,629.583 645.654,683.937 648.054,738.118 650.454,791.708 652.855,844.338 655.255,895.682 657.655,945.455 660.055,993.404 662.455,1039.31 664.855,1082.98 667.255,1124.23 669.655,1162.91 672.055,1198.88 674.456,1232 676.856,1262.17 679.256,1289.25 681.656,1313.17 684.056,1333.83 686.456,1351.15 688.856,1365.06 691.256,1375.51 693.656,1382.47 696.057,1385.9 698.457,1385.79 700.857,1382.15 703.257,1374.98 705.657,1364.3 708.057,1350.16 710.457,1332.58 712.857,1311.61 715.257,1287.28 717.658,1259.64 720.058,1228.73 722.458,1194.59 724.858,1157.27 727.258,1116.79 729.658,1073.2 732.058,1026.56 734.458,976.912 736.858,924.363 739.259,869.049 741.659,811.171 744.059,750.987 746.459,688.809 748.859,625.004 751.259,560.028 753.659,494.509 756.059,429.384 758.459,366.031 760.859,306.356 763.26,252.729 765.66,207.755 768.06,173.895 770.46,153.033 772.86,146.128 775.26,153.055 777.66,172.678 780.06,203.123 782.46,242.141 784.861,287.468 787.261,337.077 789.661,389.308 792.061,442.886 794.461,496.864 796.861,550.548 799.261,603.417 801.661,655.078 804.061,705.221 806.462,753.602 808.862,800.025 811.262,844.335 813.662,886.407 816.062,926.141 818.462,963.458 820.862,998.291 823.262,1030.59 825.662,1060.3 828.063,1087.38 830.463,1111.81 832.863,1133.53 835.263,1152.52 837.663,1168.73 840.063,1182.14 842.463,1192.71 844.863,1200.41 847.263,1205.22 849.664,1207.13 852.064,1206.11 854.464,1202.17 856.864,1195.34 859.264,1185.62 861.664,1173.07 864.064,1157.73 866.464,1139.68 868.864,1118.98 871.265,1095.75 873.665,1070.07 876.065,1042.07 878.465,1011.88 880.865,979.65 883.265,945.531 885.665,909.703 888.065,872.368 890.465,833.749 892.865,794.104 895.266,753.724 897.666,712.946 900.066,672.156 902.466,631.792 904.866,592.353 907.266,554.393 909.666,518.514 912.066,485.354 914.466,455.555 916.867,429.74 919.267,408.466 921.667,392.192 924.067,381.244 926.467,375.791 928.867,375.839 931.267,381.239 933.667,391.702 936.067,406.835 938.468,426.172 940.868,449.205 943.268,475.416 945.668,504.295 948.068,535.357 950.468,568.148 952.868,602.25 955.268,637.282 957.668,672.898 960.069,708.785 962.469,744.662 964.869,780.276 967.269,815.401 969.669,849.835 972.069,883.396 974.469,915.925 976.869,947.276 979.269,977.322 981.67,1005.95 984.07,1033.04 986.47,1058.51 988.87,1082.27 991.27,1104.22 993.67,1124.3 996.07,1142.42 998.47,1158.52 1000.87,1172.52 1003.27,1184.37 1005.67,1194.01 1008.07,1201.39 1010.47,1206.48 1012.87,1209.23 1015.27,1209.63 1017.67,1207.66 1020.07,1203.31 1022.47,1196.61 1024.87,1187.55 1027.27,1176.17 1029.67,1162.49 1032.07,1146.56 1034.47,1128.41 1036.87,1108.11 1039.27,1085.69 1041.67,1061.24 1044.07,1034.81 1046.47,1006.47 1048.87,976.313 1051.27,944.426 1053.67,910.911 1056.07,875.885 1058.47,839.476 1060.87,801.828 1063.27,763.099 1065.67,723.469 1068.07,683.142 1070.47,642.354 1072.87,601.372 1075.27,560.486 1077.67,520.004 1080.07,480.24 1082.47,441.524 1084.87,404.212 1087.27,368.704 1089.67,335.453 1092.07,304.947 1094.47,277.683 1096.87,254.137 1099.27,234.755 1101.67,219.966 1104.08,210.221 1106.48,206.015 1108.88,207.885 1111.28,216.363 1113.68,231.89 1116.08,254.718 1118.48,284.822 1120.88,321.858 1123.28,365.175 1125.68,413.869 1128.08,466.867 1130.48,523.031 1132.88,581.237 1135.28,640.442 1137.68,699.727 1140.08,758.312 1142.48,815.558 1144.88,870.955 1147.28,924.102 1149.68,974.692 1152.08,1022.49 1154.48,1067.33 1156.88,1109.07 1159.28,1147.61 1161.68,1182.89 1164.08,1214.85 1166.48,1243.46 1168.88,1268.68 1171.28,1290.49 1173.68,1308.89 1176.08,1323.87 1178.48,1335.43 1180.88,1343.58 1183.28,1348.32 1185.68,1349.69 1188.08,1347.7 1190.48,1342.39 1192.88,1333.81 1195.28,1322.01 1197.68,1307.07 1200.08,1289.05 1202.48,1268.05 1204.88,1244.18 1207.28,1217.57 1209.68,1188.38 1212.08,1156.76 1214.48,1122.94 1216.88,1087.13 1219.28,1049.62 1221.68,1010.69 1224.08,970.692 1226.48,930 1228.88,889.018 1231.28,848.177 1233.68,807.917 1236.08,768.682 1238.48,730.898 1240.88,694.959 1243.28,661.214 1245.68,629.949 1248.08,601.382 1250.48,575.656 1252.88,552.842 1255.28,532.94 1257.68,515.886 1260.08,501.569 1262.48,489.833 1264.88,480.49 1267.28,473.329 1269.68,468.125 1272.08,464.647 1274.48,462.667 1276.88,461.967 1279.28,462.342 1281.68,463.605 1284.08,465.582 1286.48,468.115 1288.88,471.066 1291.28,474.322 1293.68,477.802 1296.08,481.47 1298.48,485.334 1300.88,489.443 1303.28,493.883 1305.68,498.763 1308.08,504.213 1310.48,510.381 1312.88,517.443 1315.28,525.61 1317.68,535.139 1320.08,546.33 1322.49,559.509 1324.89,575.01 1327.29,593.134 1329.69,614.11 1332.09,638.068 1334.49,665.009 1336.89,694.799 1339.29,727.174 1341.69,761.755 1344.09,798.08 1346.49,835.631 1348.89,873.868 1351.29,912.253 1353.69,950.273 1356.09,987.459 1358.49,1023.39 1360.89,1057.7 1363.29,1090.07 1365.69,1120.25 1368.09,1148.02 1370.49,1173.2 1372.89,1195.65 1375.29,1215.25 1377.69,1231.92 1380.09,1245.59 1382.49,1256.21 1384.89,1263.71 1387.29,1268.09 1389.69,1269.3 1392.09,1267.34 1394.49,1262.2 1396.89,1253.87 1399.29,1242.39 1401.69,1227.75 1404.09,1210.02 1406.49,1189.24 1408.89,1165.5 1411.29,1138.89 1413.69,1109.56 1416.09,1077.65 1418.49,1043.4 1420.89,1007.05 1423.29,968.919 1425.69,929.392 1428.09,888.912 1430.49,847.991 1432.89,807.2 1435.29,767.152 1437.69,728.475 1440.09,691.787 1442.49,657.654 1444.89,626.558 1447.29,598.861 1449.69,574.785 1452.09,554.407 1454.49,537.656 1456.89,524.341 1459.29,514.173 1461.69,506.807 1464.09,501.867 1466.49,498.987 1468.89,497.823 1471.29,498.072 1473.69,499.478 1476.09,501.831 1478.49,504.966 1480.89,508.759 1483.29,513.117 1485.69,517.983 1488.09,523.325 1490.49,529.135 1492.89,535.426 1495.29,542.231 1497.69,549.59 1500.09,557.558 1502.49,566.19 1504.89,575.54 1507.29,585.66 1509.69,596.59 1512.09,608.358 1514.49,620.978 1516.89,634.446 1519.29,648.742 1521.69,663.829 1524.09,679.656 1526.49,696.159 1528.89,713.262 1531.29,730.883 1533.69,748.934 1536.09,767.326 1538.49,785.966 1540.89,804.766 1543.3,823.637 1545.7,842.493 1548.1,861.254 1550.5,879.842 1552.9,898.183 1555.3,916.206 1557.7,933.845 1560.1,951.034 1562.5,967.712 1564.9,983.817 1567.3,999.292 1569.7,1014.08 1572.1,1028.11 1574.5,1041.34 1576.9,1053.71 1579.3,1065.15 1581.7,1075.61 1584.1,1085.02 1586.5,1093.32 1588.9,1100.45 1591.3,1106.34 1593.7,1110.93 1596.1,1114.15 1598.5,1115.94 1600.9,1116.22 1603.3,1114.93 1605.7,1112.02 1608.1,1107.41 1610.5,1101.05 1612.9,1092.9 1615.3,1082.9 1617.7,1071.01 1620.1,1057.2 1622.5,1041.44 1624.9,1023.73 1627.3,1004.06 1629.7,982.431 1632.1,958.861 1634.5,933.387 1636.9,906.057 1639.3,876.943 1641.7,846.134 1644.1,813.742 1646.5,779.907 1648.9,744.798 1651.3,708.629 1653.7,671.662 1656.1,634.222 1658.5,596.702 1660.9,559.571 1663.3,523.373 1665.7,488.72 1668.1,456.274 1670.5,426.721 1672.9,400.725 1675.3,378.888 1677.7,361.703 1680.1,349.516 1682.5,342.504 1684.9,340.671 1687.3,343.862 1689.7,351.793 1692.1,364.089 1694.5,380.33 1696.9,400.08 1699.3,422.924 1701.7,448.479 1704.1,476.403 1706.5,506.395 1708.9,538.183 1711.3,571.518 1713.7,606.16 1716.1,641.875 1718.5,678.421 1720.9,715.55 1723.3,753.006 1725.7,790.527 1728.1,827.845 1730.5,864.695 1732.9,900.813 1735.3,935.946 1737.7,969.849 1740.1,1002.3 1742.5,1033.07 1744.9,1061.98 1747.3,1088.86 1749.7,1113.53 1752.1,1135.87 1754.5,1155.75 1756.9,1173.06 1759.3,1187.73 1761.71,1199.67 1764.11,1208.84 1766.51,1215.19 1768.91,1218.68 1771.31,1219.31 1773.71,1217.06 1776.11,1211.92 1778.51,1203.92 1780.91,1193.08 1783.31,1179.44 1785.71,1163.06 1788.11,1143.99 1790.51,1122.3 1792.91,1098.07 1795.31,1071.36 1797.71,1042.27 1800.11,1010.92 1802.51,977.476 1804.91,942.139 1807.31,905.173 1809.71,866.879 1812.11,827.599 1814.51,787.713 1816.91,747.667 1819.31,708.002 1821.71,669.393 1824.11,632.675 1826.51,598.83 1828.91,568.944 1831.31,544.107 1833.71,525.295 1836.11,513.242 1838.51,508.337 1840.91,510.571 1843.31,519.539 1845.71,534.497 1848.11,554.46 1850.51,578.314 1852.91,604.922 1855.31,633.207 1857.71,662.21 1860.11,691.115 1862.51,719.247 1864.91,746.066 1867.31,771.144 1869.71,794.15 1872.11,814.824 1874.51,832.972 1876.91,848.447 1879.31,861.142 1881.71,870.984 1884.11,877.929 1886.51,881.958 1888.91,883.074 1891.31,881.304 1893.71,876.694 1896.11,869.316 1898.51,859.264 1900.91,846.66 1903.31,831.654 1905.71,814.428 1908.11,795.203 1910.51,774.246 1912.91,751.88 1915.31,728.497 1917.71,704.562 1920.11,680.621 1922.51,657.297 1924.91,635.271 1927.31,615.257 1929.71,597.958 1932.11,584.022 1934.51,573.989 1936.91,568.252 1939.31,567.021 1941.71,570.317 1944.11,577.975 1946.51,589.672 1948.91,604.96 1951.31,623.316 1953.71,644.183 1956.11,667.008 1958.51,691.272 1960.91,716.504 1963.31,742.295 1965.71,768.292 1968.11,794.196 1970.51,819.759 1972.91,844.773 1975.31,869.064 1977.71,892.489 1980.11,914.929 1982.52,936.289 1984.92,956.492 1987.32,975.476 1989.72,993.197 1992.12,1009.62 1994.52,1024.72 1996.92,1038.49 1999.32,1050.92 2001.72,1062.01 2004.12,1071.76 2006.52,1080.19 2008.92,1087.3 2011.32,1093.12 2013.72,1097.64 2016.12,1100.9 2018.52,1102.89 2020.92,1103.63 2023.32,1103.13 2025.72,1101.38 2028.12,1098.39 2030.52,1094.16 2032.92,1088.68 2035.32,1081.93 2037.72,1073.9 2040.12,1064.58 2042.52,1053.95 2044.92,1042 2047.32,1028.71 2049.72,1014.09 2052.12,998.116 2054.52,980.808 2056.92,962.178 2059.32,942.251 2061.72,921.065 2064.12,898.676 2066.52,875.162 2068.92,850.621 2071.32,825.178 2073.72,798.978 2076.12,772.189 2078.52,745 2080.92,717.625 2083.32,690.305 2085.72,663.309 2088.12,636.929 2090.52,611.468 2092.92,587.215 2095.32,564.436 2097.72,543.352 2100.12,524.147 2102.52,506.971 2104.92,491.949 2107.32,479.193 2109.72,468.797 2112.12,460.835 2114.52,455.346 2116.92,452.34 2119.32,451.799 2121.72,453.704 2124.12,458.057 2126.52,464.908 2128.92,474.364 2131.32,486.581 2133.72,501.741 2136.12,520.014 2138.52,541.511 2140.92,566.25 2143.32,594.125 2145.72,624.9 2148.12,658.212 2150.52,693.594 2152.92,730.505 2155.32,768.36 2157.72,806.564 2160.12,844.541 2162.52,881.749 2164.92,917.7 2167.32,951.96 2169.72,984.156 2172.12,1013.98 2174.52,1041.15 2176.92,1065.48 2179.32,1086.79 2181.72,1104.95 2184.12,1119.87 2186.52,1131.47 2188.92,1139.71 2191.32,1144.57 2193.72,1146.07 2196.12,1144.21 2198.52,1139.04 2200.92,1130.6 2203.33,1118.98 2205.73,1104.26 2208.13,1086.54 2210.53,1065.96 2212.93,1042.64 2215.33,1016.75 2217.73,988.48 2220.13,958.052 2222.53,925.735 2224.93,891.863 2227.33,856.849 2229.73,821.204 2232.13,785.544 2234.53,750.591 2236.93,717.151 2239.33,686.079 2241.73,658.219 2244.13,634.343 2246.53,615.078 2248.93,600.848 2251.33,591.832 2253.73,587.956 2256.13,588.908 2258.53,594.184 2260.93,603.149 2263.33,615.11 2265.73,629.372 2268.13,645.292 2270.53,662.306 2272.93,679.942 2275.33,697.816 2277.73,715.623 2280.13,733.127 2282.53,750.145 2284.93,766.537 2287.33,782.199 2289.73,797.06 2292.13,811.076 "/>
<polyline clip-path="url(#clip552)" style="stroke:#ba3d3a; stroke-linecap:round; stroke-linejoin:round; stroke-width:8; stroke-opacity:1; fill:none" stroke-dasharray="32, 20" points="271.237,777.695 273.637,789.626 276.037,804.125 278.438,821.415 280.838,841.574 283.238,864.502 285.638,889.952 288.038,917.521 290.438,946.714 292.838,976.949 295.238,1007.63 297.638,1038.13 300.039,1067.89 302.439,1096.35 304.839,1123.06 307.239,1147.58 309.639,1169.57 312.039,1188.72 314.439,1204.81 316.839,1217.6 319.239,1226.98 321.64,1232.8 324.04,1234.99 326.44,1233.47 328.84,1228.17 331.24,1218.99 333.64,1205.88 336.04,1188.79 338.44,1167.72 340.84,1142.66 343.24,1113.6 345.641,1080.44 348.041,1043.03 350.441,1001.16 352.841,954.738 355.241,903.785 357.641,848.451 360.041,788.881 362.441,725.133 364.841,657.173 367.242,585.161 369.642,509.898 372.042,433.371 374.442,359.022 376.842,291.593 379.242,236.355 381.642,198.027 384.042,179.648 386.442,181.899 388.843,203.035 391.243,239.485 393.643,286.774 396.043,340.523 398.443,397.118 400.843,454.054 403.243,509.822 405.643,563.632 408.043,615.05 410.444,663.81 412.844,709.706 415.244,752.575 417.644,792.252 420.044,828.607 422.444,861.545 424.844,891.044 427.244,917.099 429.644,939.728 432.045,958.956 434.445,974.848 436.845,987.475 439.245,996.93 441.645,1003.3 444.045,1006.69 446.445,1007.25 448.845,1005.11 451.245,1000.44 453.646,993.418 456.046,984.248 458.446,973.169 460.846,960.433 463.246,946.341 465.646,931.216 468.046,915.443 470.446,899.434 472.846,883.664 475.247,868.632 477.647,854.877 480.047,842.93 482.447,833.313 484.847,826.475 487.247,822.787 489.647,822.485 492.047,825.675 494.447,832.3 496.847,842.168 499.248,854.949 501.648,870.221 504.048,887.484 506.448,906.214 508.848,925.871 511.248,945.945 513.648,965.947 516.048,985.451 518.448,1004.07 520.849,1021.46 523.249,1037.35 525.649,1051.49 528.049,1063.68 530.449,1073.75 532.849,1081.55 535.249,1086.97 537.649,1089.91 540.049,1090.3 542.45,1088.04 544.85,1083.1 547.25,1075.41 549.65,1064.92 552.05,1051.58 554.45,1035.35 556.85,1016.2 559.25,994.086 561.65,968.986 564.051,940.896 566.451,909.816 568.851,875.783 571.251,838.849 573.651,799.114 576.051,756.717 578.451,711.865 580.851,664.824 583.251,615.962 585.652,565.744 588.052,514.785 590.452,463.854 592.852,413.922 595.252,366.139 597.652,321.833 600.052,282.409 602.452,249.274 604.852,223.674 607.253,206.588 609.653,198.598 612.053,199.869 614.453,210.137 616.853,228.8 619.253,255.008 621.653,287.788 624.053,326.128 626.453,369.062 628.853,415.683 631.254,465.181 633.654,516.815 636.054,569.93 638.454,623.926 640.854,678.276 643.254,732.497 645.654,786.171 648.054,838.919 650.454,890.415 652.855,940.365 655.255,988.519 657.655,1034.65 660.055,1078.56 662.455,1120.07 664.855,1159.03 667.255,1195.29 669.655,1228.72 672.055,1259.19 674.456,1286.61 676.856,1310.86 679.256,1331.86 681.656,1349.53 684.056,1363.8 686.456,1374.61 688.856,1381.93 691.256,1385.72 693.656,1385.98 696.057,1382.7 698.457,1375.9 700.857,1365.58 703.257,1351.8 705.657,1334.57 708.057,1313.94 710.457,1289.96 712.857,1262.66 715.257,1232.08 717.658,1198.27 720.058,1161.27 722.458,1121.11 724.858,1077.84 727.258,1031.51 729.658,982.165 732.058,929.907 734.458,874.865 736.858,817.238 739.259,757.272 741.659,695.281 744.059,631.618 746.459,566.735 748.859,501.23 751.259,436.007 753.659,372.388 756.059,312.23 758.459,257.859 760.859,211.878 763.26,176.775 765.66,154.518 768.06,146.168 770.46,151.716 772.86,170.115 775.26,199.554 777.66,237.802 780.06,282.586 782.46,331.841 784.861,383.873 787.261,437.364 789.661,491.342 792.061,545.083 794.461,598.06 796.861,649.861 799.261,700.176 801.661,748.748 804.061,795.383 806.462,839.917 808.862,882.226 811.262,922.203 813.662,959.773 816.062,994.863 818.462,1027.42 820.862,1057.4 823.262,1084.76 825.662,1109.45 828.063,1131.45 830.463,1150.72 832.863,1167.22 835.263,1180.92 837.663,1191.78 840.063,1199.77 842.463,1204.88 844.863,1207.08 847.263,1206.36 849.664,1202.72 852.064,1196.17 854.464,1186.75 856.864,1174.48 859.264,1159.42 861.664,1141.64 864.064,1121.21 866.464,1098.22 868.864,1072.78 871.265,1045.01 873.665,1015.04 876.065,983.003 878.465,949.063 880.865,913.399 883.265,876.203 885.665,837.702 888.065,798.144 890.465,757.822 892.865,717.064 895.266,676.255 897.666,635.823 900.066,596.265 902.466,558.126 904.866,522.008 907.266,488.541 909.666,458.375 912.066,432.129 914.466,410.375 916.867,393.579 919.267,382.085 921.667,376.075 924.067,375.576 926.467,380.448 928.867,390.42 931.267,405.104 933.667,424.044 936.067,446.73 938.468,472.648 940.868,501.283 943.268,532.15 945.668,564.788 948.068,598.779 950.468,633.735 952.868,669.311 955.268,705.185 957.668,741.078 960.069,776.73 962.469,811.917 964.869,846.429 967.269,880.088 969.669,912.728 972.069,944.206 974.469,974.388 976.869,1003.16 979.269,1030.42 981.67,1056.05 984.07,1079.99 986.47,1102.13 988.87,1122.39 991.27,1140.72 993.67,1157.02 996.07,1171.23 998.47,1183.3 1000.87,1193.17 1003.27,1200.77 1005.67,1206.09 1008.07,1209.07 1010.47,1209.71 1012.87,1207.97 1015.27,1203.86 1017.67,1197.39 1020.07,1188.57 1022.47,1177.41 1024.87,1163.96 1027.27,1148.25 1029.67,1130.32 1032.07,1110.22 1034.47,1088.02 1036.87,1063.76 1039.27,1037.52 1041.67,1009.36 1044.07,979.382 1046.47,947.658 1048.87,914.299 1051.27,879.413 1053.67,843.134 1056.07,805.598 1058.47,766.967 1060.87,727.414 1063.27,687.145 1065.67,646.387 1068.07,605.41 1070.47,564.498 1072.87,523.96 1075.27,484.108 1077.67,445.272 1080.07,407.801 1082.47,372.095 1084.87,338.598 1087.27,307.799 1089.67,280.192 1092.07,256.259 1094.47,236.446 1096.87,221.186 1099.27,210.923 1101.67,206.15 1104.08,207.398 1106.48,215.206 1108.88,230.027 1111.28,252.137 1113.68,281.538 1116.08,317.922 1118.48,360.661 1120.88,408.876 1123.28,461.506 1125.68,517.414 1128.08,575.471 1130.48,634.625 1132.88,693.941 1135.28,752.63 1137.68,810.034 1140.08,865.635 1142.48,919.02 1144.88,969.875 1147.28,1017.96 1149.68,1063.09 1152.08,1105.14 1154.48,1144 1156.88,1179.61 1159.28,1211.9 1161.68,1240.83 1164.08,1266.38 1166.48,1288.53 1168.88,1307.27 1171.28,1322.58 1173.68,1334.47 1176.08,1342.95 1178.48,1348.03 1180.88,1349.72 1183.28,1348.05 1185.68,1343.07 1188.08,1334.8 1190.48,1323.31 1192.88,1308.67 1195.28,1290.94 1197.68,1270.23 1200.08,1246.63 1202.48,1220.28 1204.88,1191.33 1207.28,1159.94 1209.68,1126.32 1212.08,1090.69 1214.48,1053.32 1216.88,1014.52 1219.28,974.603 1221.68,933.958 1224.08,892.983 1226.48,852.107 1228.88,811.769 1231.28,772.414 1233.68,734.469 1236.08,698.335 1238.48,664.361 1240.88,632.845 1243.28,604.008 1245.68,578.003 1248.08,554.906 1250.48,534.723 1252.88,517.398 1255.28,502.823 1257.68,490.845 1260.08,481.28 1262.48,473.918 1264.88,468.536 1267.28,464.902 1269.68,462.788 1272.08,461.973 1274.48,462.254 1276.88,463.439 1279.28,465.355 1281.68,467.841 1284.08,470.758 1286.48,473.988 1288.88,477.45 1291.28,481.1 1293.68,484.944 1296.08,489.027 1298.48,493.431 1300.88,498.264 1303.28,503.654 1305.68,509.746 1308.08,516.715 1310.48,524.766 1312.88,534.154 1315.28,545.172 1317.68,558.148 1320.08,573.414 1322.49,591.277 1324.89,611.975 1327.29,635.648 1329.69,662.31 1332.09,691.84 1334.49,723.984 1336.89,758.376 1339.29,794.559 1341.69,832.02 1344.09,870.217 1346.49,908.612 1348.89,946.69 1351.29,983.977 1353.69,1020.05 1356.09,1054.52 1358.49,1087.1 1360.89,1117.5 1363.29,1145.5 1365.69,1170.93 1368.09,1193.65 1370.49,1213.53 1372.89,1230.48 1375.29,1244.44 1377.69,1255.35 1380.09,1263.15 1382.49,1267.82 1384.89,1269.34 1387.29,1267.68 1389.69,1262.83 1392.09,1254.81 1394.49,1243.62 1396.89,1229.28 1399.29,1211.84 1401.69,1191.35 1404.09,1167.88 1406.49,1141.53 1408.89,1112.44 1411.29,1080.77 1413.69,1046.73 1416.09,1010.56 1418.49,972.582 1420.89,933.166 1423.29,892.753 1425.69,851.848 1428.09,811.016 1430.49,770.868 1432.89,732.033 1435.29,695.131 1437.69,660.734 1440.09,629.333 1442.49,601.303 1444.89,576.881 1447.29,556.155 1449.69,539.069 1452.09,525.442 1454.49,514.993 1456.89,507.378 1459.29,502.228 1461.69,499.169 1464.09,497.858 1466.49,497.986 1468.89,499.293 1471.29,501.566 1473.69,504.634 1476.09,508.369 1478.49,512.679 1480.89,517.499 1483.29,522.797 1485.69,528.563 1488.09,534.81 1490.49,541.564 1492.89,548.871 1495.29,556.78 1497.69,565.348 1500.09,574.63 1502.49,584.677 1504.89,595.531 1507.29,607.221 1509.69,619.762 1512.09,633.153 1514.49,647.373 1516.89,662.39 1519.29,678.152 1521.69,694.596 1524.09,711.647 1526.49,729.225 1528.89,747.241 1531.29,765.606 1533.69,784.228 1536.09,803.019 1538.49,821.887 1540.89,840.75 1543.3,859.524 1545.7,878.133 1548.1,896.5 1550.5,914.557 1552.9,932.234 1555.3,949.47 1557.7,966.197 1560.1,982.36 1562.5,997.896 1564.9,1012.75 1567.3,1026.86 1569.7,1040.17 1572.1,1052.61 1574.5,1064.14 1576.9,1074.69 1579.3,1084.21 1581.7,1092.61 1584.1,1099.85 1586.5,1105.86 1588.9,1110.58 1591.3,1113.93 1593.7,1115.84 1596.1,1116.27 1598.5,1115.13 1600.9,1112.36 1603.3,1107.91 1605.7,1101.72 1608.1,1093.73 1610.5,1083.9 1612.9,1072.19 1615.3,1058.55 1617.7,1042.98 1620.1,1025.45 1622.5,1005.95 1624.9,984.497 1627.3,961.104 1629.7,935.799 1632.1,908.636 1634.5,879.679 1636.9,849.02 1639.3,816.765 1641.7,783.053 1644.1,748.05 1646.5,711.966 1648.9,675.057 1651.3,637.644 1653.7,600.109 1656.1,562.92 1658.5,526.609 1660.9,491.787 1663.3,459.109 1665.7,429.264 1668.1,402.915 1670.5,380.677 1672.9,363.05 1675.3,350.399 1677.7,342.912 1680.1,340.613 1682.5,343.356 1684.9,350.873 1687.3,362.789 1689.7,378.692 1692.1,398.141 1694.5,420.724 1696.9,446.047 1699.3,473.773 1701.7,503.589 1704.1,535.229 1706.5,568.433 1708.9,602.971 1711.3,638.599 1713.7,675.084 1716.1,712.171 1718.5,749.613 1720.9,787.139 1723.3,824.491 1725.7,861.394 1728.1,897.593 1730.5,932.825 1732.9,966.853 1735.3,999.44 1737.7,1030.38 1740.1,1059.47 1742.5,1086.53 1744.9,1111.41 1747.3,1133.97 1749.7,1154.07 1752.1,1171.63 1754.5,1186.53 1756.9,1198.72 1759.3,1208.14 1761.71,1214.74 1764.11,1218.5 1766.51,1219.38 1768.91,1217.39 1771.31,1212.51 1773.71,1204.77 1776.11,1194.18 1778.51,1180.79 1780.91,1164.65 1783.31,1145.81 1785.71,1124.36 1788.11,1100.35 1790.51,1073.86 1792.91,1044.98 1795.31,1013.82 1797.71,980.55 1800.11,945.372 1802.51,908.535 1804.91,870.347 1807.31,831.135 1809.71,791.287 1812.11,751.229 1814.51,711.505 1816.91,672.766 1819.31,635.841 1821.71,601.693 1824.11,571.41 1826.51,546.077 1828.91,526.697 1831.31,514.017 1833.71,508.473 1836.11,510.08 1838.51,518.479 1840.91,532.94 1843.31,552.507 1845.71,576.06 1848.11,602.473 1850.51,630.648 1852.91,659.628 1855.31,688.569 1857.71,716.798 1860.11,743.751 1862.51,769.003 1864.91,792.201 1867.31,813.096 1869.71,831.471 1872.11,847.192 1874.51,860.133 1876.91,870.234 1879.31,877.433 1881.71,881.724 1884.11,883.093 1886.51,881.579 1888.91,877.213 1891.31,870.079 1893.71,860.254 1896.11,847.873 1898.51,833.067 1900.91,816.031 1903.31,796.967 1905.71,776.153 1908.11,753.891 1910.51,730.582 1912.91,706.669 1915.31,682.708 1917.71,659.297 1920.11,637.132 1922.51,616.907 1924.91,599.346 1927.31,585.086 1929.71,574.697 1932.11,568.566 1934.51,566.941 1936.91,569.84 1939.31,577.133 1941.71,588.487 1944.11,603.487 1946.51,621.593 1948.91,642.269 1951.31,664.941 1953.71,689.105 1956.11,714.266 1958.51,740.03 1960.91,766.017 1963.31,791.948 1965.71,817.545 1968.11,842.622 1970.51,866.977 1972.91,890.49 1975.31,913.016 1977.71,934.48 1980.11,954.782 1982.52,973.882 1984.92,991.708 1987.32,1008.25 1989.72,1023.47 1992.12,1037.36 1994.52,1049.9 1996.92,1061.11 1999.32,1070.97 2001.72,1079.52 2004.12,1086.74 2006.52,1092.68 2008.92,1097.31 2011.32,1100.68 2013.72,1102.77 2016.12,1103.63 2018.52,1103.22 2020.92,1101.59 2023.32,1098.71 2025.72,1094.59 2028.12,1089.2 2030.52,1082.57 2032.92,1074.65 2035.32,1065.45 2037.72,1054.92 2040.12,1043.09 2042.52,1029.92 2044.92,1015.41 2047.32,999.547 2049.72,982.362 2052.12,963.835 2054.52,944.025 2056.92,922.935 2059.32,900.656 2061.72,877.224 2064.12,852.775 2066.52,827.393 2068.92,801.26 2071.32,774.503 2073.72,747.349 2076.12,719.969 2078.52,692.642 2080.92,665.595 2083.32,639.16 2085.72,613.595 2088.12,589.238 2090.52,566.31 2092.92,545.084 2095.32,525.699 2097.72,508.355 2100.12,493.131 2102.52,480.189 2104.92,469.575 2107.32,461.414 2109.72,455.701 2112.12,452.495 2114.52,451.732 2116.92,453.442 2119.32,457.572 2121.72,464.221 2124.12,473.435 2126.52,485.425 2128.92,500.313 2131.32,518.332 2133.72,539.538 2136.12,564.02 2138.52,591.622 2140.92,622.181 2143.32,655.28 2145.72,690.525 2148.12,727.314 2150.52,765.131 2152.92,803.313 2155.32,841.351 2157.72,878.629 2160.12,914.725 2162.52,949.126 2164.92,981.532 2167.32,1011.54 2169.72,1038.98 2172.12,1063.54 2174.52,1085.13 2176.92,1103.54 2179.32,1118.75 2181.72,1130.61 2184.12,1139.16 2186.52,1144.29 2188.92,1146.1 2191.32,1144.49 2193.72,1139.62 2196.12,1131.43 2198.52,1120.1 2200.92,1105.61 2203.33,1088.17 2205.73,1067.79 2208.13,1044.72 2210.53,1019.01 2212.93,990.966 2215.33,960.674 2217.73,928.538 2220.13,894.743 2222.53,859.843 2224.93,824.186 2227.33,788.541 2229.73,753.452 2232.13,719.897 2234.53,688.544 2236.93,660.432 2239.33,636.142 2241.73,616.525 2244.13,601.804 2246.53,592.411 2248.93,588.049 2251.33,588.683 2253.73,593.547 2256.13,602.31 2258.53,613.964 2260.93,628.151 2263.33,643.858 2265.73,660.909 2268.13,678.39 2270.53,696.391 2272.93,714.065 2275.33,731.776 2277.73,748.638 2280.13,765.332 2282.53,780.751 2284.93,796.096 2287.33,809.553 2289.73,824.06 2292.13,816.59 "/>
<path clip-path="url(#clip550)" d="M1740.84 308.261 L2281.35 308.261 L2281.35 152.741 L1740.84 152.741  Z" fill="#ffffff" fill-rule="evenodd" fill-opacity="1"/>
<polyline clip-path="url(#clip550)" style="stroke:#000000; stroke-linecap:round; stroke-linejoin:round; stroke-width:4; stroke-opacity:1; fill:none" points="1740.84,308.261 2281.35,308.261 2281.35,152.741 1740.84,152.741 1740.84,308.261 "/>
<polyline clip-path="url(#clip550)" style="stroke:#dfba53; stroke-linecap:round; stroke-linejoin:round; stroke-width:8; stroke-opacity:1; fill:none" points="1764.65,204.581 1907.46,204.581 "/>
<path clip-path="url(#clip550)" d="M1931.26 221.861 L1931.26 220.304 Q1933.09 220.304 1934.25 219.959 Q1935.41 219.588 1935.83 218.921 Q1936.25 218.229 1936.35 217.785 Q1936.47 217.315 1936.47 216.55 L1936.47 190.142 Q1936.47 189.425 1936.27 189.252 Q1936.1 189.079 1935.23 188.981 Q1933.73 188.882 1932.71 188.882 L1931.26 188.882 L1931.26 187.301 L1939.85 187.301 Q1940.57 187.301 1940.77 187.4 Q1940.97 187.498 1941.31 187.968 L1959.17 214.227 L1959.17 192.612 Q1959.17 191.846 1959.07 191.402 Q1958.97 190.957 1958.53 190.265 Q1958.11 189.573 1956.95 189.228 Q1955.79 188.882 1953.96 188.882 L1953.96 187.301 Q1959.27 187.449 1959.86 187.449 Q1960.48 187.449 1965.79 187.301 L1965.79 188.882 Q1963.96 188.882 1962.8 189.228 Q1961.64 189.573 1961.22 190.265 Q1960.8 190.957 1960.68 191.426 Q1960.58 191.871 1960.58 192.612 L1960.58 220.551 Q1960.58 221.367 1960.48 221.614 Q1960.38 221.861 1959.89 221.861 Q1959.54 221.861 1959.02 221.194 L1938.37 190.858 Q1938.17 190.562 1937.88 190.24 L1937.88 216.55 Q1937.88 217.315 1937.98 217.785 Q1938.08 218.229 1938.5 218.921 Q1938.94 219.588 1940.1 219.959 Q1941.26 220.304 1943.09 220.304 L1943.09 221.861 Q1937.78 221.713 1937.16 221.713 Q1936.57 221.713 1931.26 221.861 Z" fill="#000000" fill-rule="nonzero" fill-opacity="1" /><path clip-path="url(#clip550)" d="M1972.26 219.143 Q1968.93 215.833 1968.93 211.041 Q1968.93 206.224 1972.19 202.716 Q1975.48 199.183 1980.17 199.183 Q1984.76 199.183 1988.05 202.691 Q1991.36 206.174 1991.36 211.041 Q1991.36 215.808 1988.03 219.119 Q1984.72 222.429 1980.12 222.429 Q1975.62 222.429 1972.26 219.143 M1973.13 210.621 Q1973.13 215.537 1974.41 217.76 Q1976.39 221.144 1980.17 221.144 Q1982.05 221.144 1983.6 220.132 Q1985.18 219.119 1986.05 217.414 Q1987.16 215.191 1987.16 210.621 Q1987.16 205.754 1985.83 203.605 Q1983.85 200.319 1980.12 200.319 Q1978.49 200.319 1976.88 201.184 Q1975.3 202.024 1974.34 203.704 Q1973.13 205.927 1973.13 210.621 Z" fill="#000000" fill-rule="nonzero" fill-opacity="1" /><path clip-path="url(#clip550)" d="M1994.45 221.861 L1994.45 220.304 Q1997.14 220.304 1997.76 219.983 Q1998.38 219.637 1998.38 218.007 L1998.38 204.445 Q1998.38 202.567 1997.71 202.098 Q1997.07 201.629 1994.45 201.629 L1994.45 200.048 L2001.56 199.504 L2001.56 204.815 Q2003.93 199.504 2009.05 199.504 Q2012.85 199.504 2014.36 201.382 Q2015.47 202.642 2015.69 204.05 Q2015.94 205.458 2015.94 209.114 L2015.94 218.773 Q2015.99 219.835 2016.81 220.082 Q2017.62 220.304 2019.89 220.304 L2019.89 221.861 Q2014.73 221.713 2014.21 221.713 Q2013.82 221.713 2008.5 221.861 L2008.5 220.304 Q2011.2 220.304 2011.82 219.983 Q2012.46 219.637 2012.46 218.007 L2012.46 206.224 Q2012.46 203.654 2011.67 202.147 Q2010.88 200.616 2008.7 200.616 Q2006.08 200.616 2003.98 202.814 Q2001.88 205.013 2001.88 208.719 L2001.88 218.007 Q2001.88 219.637 2002.5 219.983 Q2003.14 220.304 2005.81 220.304 L2005.81 221.861 Q2000.65 221.713 2000.16 221.713 Q1999.76 221.713 1994.45 221.861 Z" fill="#000000" fill-rule="nonzero" fill-opacity="1" /><path clip-path="url(#clip550)" d="M2021.38 212.449 L2021.38 209.46 L2034.84 209.46 L2034.84 212.449 L2021.38 212.449 Z" fill="#000000" fill-rule="nonzero" fill-opacity="1" /><path clip-path="url(#clip550)" d="M2039.38 221.861 L2039.38 220.304 Q2042.08 220.304 2042.69 219.983 Q2043.31 219.637 2043.31 218.007 L2043.31 191.698 Q2043.31 189.821 2042.64 189.351 Q2042 188.882 2039.38 188.882 L2039.38 187.301 L2046.65 186.757 L2046.65 218.007 Q2046.65 219.637 2047.29 219.983 Q2047.93 220.304 2050.6 220.304 L2050.6 221.861 Q2049.98 221.861 2048.7 221.811 Q2047.41 221.762 2046.47 221.737 Q2045.54 221.713 2044.99 221.713 Q2044.4 221.713 2039.38 221.861 Z" fill="#000000" fill-rule="nonzero" fill-opacity="1" /><path clip-path="url(#clip550)" d="M2053.39 221.861 L2053.39 220.304 Q2056.08 220.304 2056.7 219.983 Q2057.32 219.637 2057.32 218.007 L2057.32 204.395 Q2057.32 202.518 2056.68 202.073 Q2056.06 201.629 2053.59 201.629 L2053.59 200.048 L2060.65 199.504 L2060.65 218.056 Q2060.65 219.563 2061.2 219.934 Q2061.74 220.304 2064.21 220.304 L2064.21 221.861 Q2059.05 221.713 2058.95 221.713 Q2058.26 221.713 2053.39 221.861 M2055.52 190.685 Q2055.52 189.672 2056.28 188.857 Q2057.07 188.017 2058.18 188.017 Q2059.29 188.017 2060.09 188.783 Q2060.88 189.524 2060.88 190.71 Q2060.88 191.871 2060.09 192.637 Q2059.29 193.378 2058.18 193.378 Q2057.02 193.378 2056.26 192.563 Q2055.52 191.747 2055.52 190.685 Z" fill="#000000" fill-rule="nonzero" fill-opacity="1" /><path clip-path="url(#clip550)" d="M2067.35 221.861 L2067.35 220.304 Q2070.04 220.304 2070.66 219.983 Q2071.28 219.637 2071.28 218.007 L2071.28 204.445 Q2071.28 202.567 2070.61 202.098 Q2069.97 201.629 2067.35 201.629 L2067.35 200.048 L2074.46 199.504 L2074.46 204.815 Q2076.83 199.504 2081.95 199.504 Q2085.75 199.504 2087.26 201.382 Q2088.37 202.642 2088.59 204.05 Q2088.84 205.458 2088.84 209.114 L2088.84 218.773 Q2088.89 219.835 2089.7 220.082 Q2090.52 220.304 2092.79 220.304 L2092.79 221.861 Q2087.63 221.713 2087.11 221.713 Q2086.72 221.713 2081.4 221.861 L2081.4 220.304 Q2084.1 220.304 2084.71 219.983 Q2085.36 219.637 2085.36 218.007 L2085.36 206.224 Q2085.36 203.654 2084.57 202.147 Q2083.78 200.616 2081.6 200.616 Q2078.98 200.616 2076.88 202.814 Q2074.78 205.013 2074.78 208.719 L2074.78 218.007 Q2074.78 219.637 2075.4 219.983 Q2076.04 220.304 2078.71 220.304 L2078.71 221.861 Q2073.55 221.713 2073.05 221.713 Q2072.66 221.713 2067.35 221.861 Z" fill="#000000" fill-rule="nonzero" fill-opacity="1" /><path clip-path="url(#clip550)" d="M2095.19 210.72 Q2095.19 205.952 2098.25 202.567 Q2101.32 199.183 2105.71 199.183 Q2110.16 199.183 2112.46 202.073 Q2114.78 204.964 2114.78 209.114 Q2114.78 209.88 2114.58 210.028 Q2114.38 210.176 2113.52 210.176 L2099.39 210.176 Q2099.39 215.339 2100.92 217.76 Q2103.04 221.144 2106.63 221.144 Q2107.12 221.144 2107.71 221.046 Q2108.31 220.947 2109.52 220.527 Q2110.73 220.082 2111.79 218.921 Q2112.85 217.76 2113.47 215.932 Q2113.62 215.216 2114.11 215.24 Q2114.78 215.24 2114.78 215.833 Q2114.78 216.278 2114.28 217.291 Q2113.82 218.279 2112.9 219.465 Q2111.99 220.65 2110.21 221.54 Q2108.45 222.429 2106.33 222.429 Q2101.88 222.429 2098.52 219.069 Q2095.19 215.685 2095.19 210.72 M2099.44 209.114 L2111.44 209.114 Q2111.44 208.052 2111.25 206.866 Q2111.07 205.68 2110.53 204.05 Q2110.01 202.395 2108.78 201.357 Q2107.54 200.319 2105.71 200.319 Q2104.9 200.319 2104.01 200.665 Q2103.14 201.011 2102.08 201.851 Q2101.02 202.691 2100.28 204.593 Q2099.54 206.495 2099.44 209.114 Z" fill="#000000" fill-rule="nonzero" fill-opacity="1" /><path clip-path="url(#clip550)" d="M2118.36 217.044 Q2118.36 212.745 2123.42 210.473 Q2126.46 209.015 2132.74 208.644 L2132.74 206.792 Q2132.74 203.654 2131.08 201.999 Q2129.45 200.319 2127.38 200.319 Q2123.67 200.319 2121.89 202.642 Q2123.4 202.691 2123.94 203.457 Q2124.49 204.198 2124.49 204.964 Q2124.49 205.976 2123.84 206.643 Q2123.23 207.286 2122.16 207.286 Q2121.15 207.286 2120.49 206.668 Q2119.82 206.026 2119.82 204.914 Q2119.82 202.444 2122.04 200.813 Q2124.29 199.183 2127.48 199.183 Q2131.63 199.183 2134.39 201.975 Q2135.26 202.839 2135.68 203.951 Q2136.12 205.062 2136.17 205.804 Q2136.22 206.52 2136.22 207.953 L2136.22 218.056 Q2136.22 218.353 2136.32 218.847 Q2136.42 219.341 2136.86 219.983 Q2137.33 220.601 2138.1 220.601 Q2139.93 220.601 2139.9 217.365 L2139.9 214.524 L2141.19 214.524 L2141.19 217.365 Q2141.19 220.057 2139.75 221.12 Q2138.35 222.157 2137.04 222.157 Q2135.36 222.157 2134.29 220.922 Q2133.23 219.687 2133.08 218.007 Q2132.32 219.934 2130.56 221.194 Q2128.83 222.429 2126.46 222.429 Q2124.64 222.429 2122.91 221.96 Q2121.2 221.515 2119.77 220.255 Q2118.36 218.97 2118.36 217.044 M2122.26 216.994 Q2122.26 218.872 2123.6 220.082 Q2124.93 221.293 2126.81 221.293 Q2128.93 221.293 2130.84 219.662 Q2132.74 218.007 2132.74 214.771 L2132.74 209.707 Q2127.13 209.904 2124.68 212.152 Q2122.26 214.376 2122.26 216.994 Z" fill="#000000" fill-rule="nonzero" fill-opacity="1" /><path clip-path="url(#clip550)" d="M2142.94 221.861 L2142.94 220.304 Q2145.63 220.304 2146.25 219.983 Q2146.89 219.637 2146.89 218.007 L2146.89 204.445 Q2146.89 202.567 2146.23 202.098 Q2145.58 201.629 2142.94 201.629 L2142.94 200.048 L2149.98 199.504 L2149.98 205.062 Q2150.7 202.889 2152.2 201.209 Q2153.74 199.504 2156.21 199.504 Q2157.84 199.504 2158.87 200.418 Q2159.94 201.332 2159.94 202.592 Q2159.94 203.704 2159.24 204.272 Q2158.58 204.815 2157.76 204.815 Q2156.85 204.815 2156.21 204.247 Q2155.59 203.654 2155.59 202.642 Q2155.59 202.024 2155.86 201.555 Q2156.16 201.061 2156.38 200.888 Q2156.6 200.715 2156.75 200.665 Q2156.65 200.616 2156.21 200.616 Q2153.41 200.616 2151.81 203.407 Q2150.23 206.174 2150.23 210.127 L2150.23 217.908 Q2150.23 219.366 2150.82 219.835 Q2151.44 220.304 2154.08 220.304 L2155.14 220.304 L2155.14 221.861 Q2153.12 221.713 2148.72 221.713 Q2148.1 221.713 2147.14 221.737 Q2146.18 221.762 2144.92 221.811 Q2143.66 221.861 2142.94 221.861 Z" fill="#000000" fill-rule="nonzero" fill-opacity="1" /><polyline clip-path="url(#clip550)" style="stroke:#ba3d3a; stroke-linecap:round; stroke-linejoin:round; stroke-width:8; stroke-opacity:1; fill:none" stroke-dasharray="32, 20" points="1764.65,256.421 1907.46,256.421 "/>
<path clip-path="url(#clip550)" d="M1976.49 268.343 L1972.36 280.288 L1932.59 280.288 Q1932.05 280.288 1931.84 280.265 Q1931.63 280.241 1931.47 280.124 Q1931.3 280.007 1931.3 279.749 Q1931.3 279.539 1931.73 279 L1948.75 257.943 L1931.26 233.865 Q1931.26 232.764 1931.44 232.553 Q1931.63 232.319 1932.59 232.319 L1972.36 232.319 L1976.49 243.538 L1975.29 243.538 Q1974.75 242.086 1973.89 240.868 Q1973.04 239.627 1972.06 238.737 Q1971.1 237.847 1969.83 237.144 Q1968.59 236.418 1967.42 235.973 Q1966.27 235.504 1964.85 235.176 Q1963.42 234.825 1962.27 234.661 Q1961.14 234.474 1959.74 234.38 Q1958.33 234.286 1957.44 234.263 Q1956.55 234.24 1955.43 234.24 L1936.43 234.24 L1952.01 255.624 Q1952.36 256.163 1952.36 256.303 Q1952.36 256.514 1951.92 257.076 L1935.29 277.641 L1955.66 277.641 Q1962.22 277.641 1966.79 276.259 Q1969.88 275.205 1972.13 273.121 Q1974.4 271.036 1975.29 268.343 L1976.49 268.343 Z" fill="#000000" fill-rule="nonzero" fill-opacity="1" /><path clip-path="url(#clip550)" d="M2025.23 262.745 Q2025.41 262.955 2025.41 263.166 Q2025.41 263.377 2024.94 263.986 Q2024.5 264.595 2023.54 265.415 Q2022.58 266.235 2021.34 267.008 Q2020.1 267.78 2018.27 268.296 Q2016.44 268.834 2014.52 268.834 Q2010.94 268.834 2008.83 266.469 Q2006.75 264.103 2006.75 260.707 Q2006.75 257.404 2008.6 254.242 Q2010.45 251.057 2013.44 249.089 Q2016.44 247.098 2019.6 247.098 Q2022.11 247.098 2023.68 248.27 Q2025.25 249.441 2025.25 251.221 Q2025.25 252.603 2024.45 253.446 Q2023.66 254.289 2022.58 254.289 Q2021.83 254.289 2021.31 253.868 Q2020.8 253.423 2020.8 252.603 Q2020.8 251.549 2021.67 250.729 Q2021.99 250.401 2022.37 250.26 Q2022.77 250.097 2023 250.097 Q2023.23 250.073 2023.77 250.073 Q2023.28 249.16 2022.11 248.668 Q2020.96 248.152 2019.65 248.152 Q2017.71 248.152 2015.86 249.511 Q2014.01 250.846 2012.88 252.954 Q2011.76 255.015 2011.03 257.943 Q2010.31 260.847 2010.31 262.534 Q2010.31 264.853 2011.38 266.305 Q2012.46 267.757 2014.62 267.757 Q2015.04 267.757 2015.48 267.734 Q2015.95 267.71 2017.12 267.453 Q2018.32 267.195 2019.37 266.75 Q2020.42 266.305 2021.76 265.345 Q2023.12 264.361 2024.2 263.026 Q2024.57 262.534 2024.83 262.534 Q2025.04 262.534 2025.23 262.745 Z" fill="#000000" fill-rule="nonzero" fill-opacity="1" /><path clip-path="url(#clip550)" d="M2047.45 255.203 Q2047.45 257.756 2046.33 260.285 Q2045.2 262.791 2043.4 264.665 Q2041.62 266.516 2039.28 267.687 Q2036.94 268.834 2034.59 268.834 Q2031.24 268.834 2029.07 266.562 Q2026.91 264.267 2026.91 260.707 Q2026.91 257.381 2028.76 254.219 Q2030.63 251.033 2033.63 249.066 Q2036.63 247.098 2039.77 247.098 Q2043.07 247.098 2045.25 249.324 Q2047.45 251.549 2047.45 255.203 M2043.94 253.329 Q2043.94 251.057 2042.84 249.605 Q2041.74 248.152 2039.72 248.152 Q2039.14 248.152 2038.46 248.34 Q2037.78 248.504 2036.89 248.949 Q2036.02 249.394 2035.04 250.331 Q2034.08 251.244 2033.23 252.556 Q2032.13 254.289 2031.29 257.475 Q2030.47 260.637 2030.47 262.534 Q2030.47 265.157 2031.69 266.469 Q2032.91 267.757 2034.64 267.757 Q2036.33 267.757 2038.11 266.586 Q2039.91 265.391 2041.15 263.354 Q2042.39 261.246 2043.17 258.154 Q2043.94 255.039 2043.94 253.329 Z" fill="#000000" fill-rule="nonzero" fill-opacity="1" /><path clip-path="url(#clip550)" d="M2088.28 261.433 Q2088.28 261.62 2088.07 262.346 Q2087.86 263.073 2087.35 264.197 Q2086.86 265.321 2086.15 266.352 Q2085.47 267.359 2084.35 268.108 Q2083.25 268.834 2081.98 268.834 Q2080.3 268.834 2079.17 267.71 Q2078.05 266.586 2078.05 264.9 Q2078.05 263.986 2078.68 262.253 Q2081.66 254.336 2081.66 251.502 Q2081.66 248.152 2079.06 248.152 Q2077.58 248.152 2076.25 248.761 Q2074.91 249.37 2074.04 250.214 Q2073.18 251.057 2072.5 252.017 Q2071.82 252.977 2071.51 253.61 Q2071.23 254.242 2071.16 254.523 L2068.28 266.094 Q2068.05 267.078 2067.88 267.546 Q2067.72 268.015 2067.27 268.413 Q2066.83 268.834 2066.13 268.834 Q2065.54 268.834 2065.12 268.483 Q2064.72 268.132 2064.72 267.523 Q2064.72 267.429 2064.84 266.937 Q2064.96 266.445 2065.12 265.766 Q2065.28 265.087 2065.35 264.689 Q2066.2 261.503 2066.31 261.058 L2067.65 255.484 Q2068.38 252.72 2068.38 251.502 Q2068.38 248.152 2065.78 248.152 Q2064.49 248.152 2063.27 248.644 Q2062.07 249.113 2061.26 249.769 Q2060.44 250.424 2059.69 251.338 Q2058.96 252.228 2058.58 252.837 Q2058.23 253.423 2057.95 254.008 L2057.34 256.397 Q2057.2 257.053 2056.52 259.606 L2055.47 263.939 Q2054.72 267.171 2054.56 267.476 Q2054.32 268.132 2053.81 268.483 Q2053.29 268.834 2052.78 268.834 Q2052.19 268.834 2051.79 268.483 Q2051.39 268.132 2051.39 267.523 Q2051.39 267.429 2051.46 267.078 Q2051.53 266.726 2051.65 266.235 Q2051.77 265.743 2051.82 265.462 L2054.6 254.383 Q2055.12 252.368 2055.24 251.736 Q2055.38 251.08 2055.38 250.354 Q2055.38 248.152 2053.88 248.152 Q2052.66 248.152 2051.86 249.605 Q2051.07 251.057 2050.39 253.868 Q2050.18 254.64 2050.04 254.804 Q2049.92 254.968 2049.57 254.968 Q2048.98 254.945 2048.98 254.477 Q2048.98 254.359 2049.17 253.61 Q2049.36 252.86 2049.71 251.736 Q2050.08 250.588 2050.48 249.839 Q2050.72 249.347 2050.93 249.019 Q2051.14 248.691 2051.56 248.176 Q2051.98 247.661 2052.61 247.38 Q2053.24 247.098 2054.02 247.098 Q2055.73 247.098 2056.99 248.199 Q2058.28 249.3 2058.44 251.268 Q2061.56 247.098 2065.92 247.098 Q2068.38 247.098 2069.85 248.34 Q2071.23 249.534 2071.4 251.736 Q2074.63 247.098 2079.22 247.098 Q2081.87 247.098 2083.3 248.48 Q2084.72 249.839 2084.72 252.228 Q2084.72 253.469 2084.09 255.835 Q2083.46 258.177 2083.04 259.348 Q2082.62 260.52 2081.8 262.768 Q2080.93 264.923 2080.93 266.188 Q2080.93 267.008 2081.21 267.382 Q2081.49 267.757 2082.1 267.757 Q2083.04 267.757 2083.86 267.218 Q2084.68 266.656 2085.26 265.743 Q2085.87 264.806 2086.27 263.869 Q2086.67 262.909 2086.97 261.831 Q2087.16 261.246 2087.25 261.105 Q2087.37 260.965 2087.7 260.965 Q2088.28 260.965 2088.28 261.433 Z" fill="#000000" fill-rule="nonzero" fill-opacity="1" /><path clip-path="url(#clip550)" d="M2113.55 254.758 Q2113.55 258.177 2111.82 261.48 Q2110.11 264.782 2107.41 266.82 Q2104.72 268.834 2101.98 268.834 Q2100.34 268.834 2099.24 267.944 Q2098.16 267.031 2097.57 265.743 Q2097.13 267.335 2096.17 271.153 Q2095.21 274.971 2095.21 275.346 Q2095.21 275.557 2095.26 275.65 Q2095.3 275.744 2095.51 275.861 Q2095.72 276.002 2096.24 276.049 Q2096.75 276.119 2097.62 276.119 Q2098.07 276.119 2098.23 276.119 Q2098.42 276.142 2098.58 276.259 Q2098.77 276.377 2098.77 276.634 Q2098.77 277.594 2097.9 277.594 Q2097.13 277.594 2095.54 277.524 Q2093.94 277.454 2093.15 277.454 Q2092.47 277.454 2091.11 277.524 Q2089.75 277.594 2089.12 277.594 Q2088.49 277.594 2088.49 277.032 Q2088.49 276.704 2088.58 276.494 Q2088.65 276.306 2088.84 276.213 Q2089.03 276.142 2089.19 276.119 Q2089.33 276.119 2089.61 276.119 Q2090.69 276.119 2091.16 275.931 Q2091.63 275.768 2091.79 275.416 Q2091.98 275.088 2092.19 274.151 L2097.57 252.79 Q2097.9 251.361 2097.9 250.354 Q2097.9 249.089 2097.5 248.621 Q2097.11 248.152 2096.4 248.152 Q2095.19 248.152 2094.39 249.605 Q2093.59 251.057 2092.91 253.868 Q2092.7 254.64 2092.56 254.804 Q2092.44 254.968 2092.09 254.968 Q2091.51 254.945 2091.51 254.477 Q2091.51 254.359 2091.7 253.61 Q2091.88 252.837 2092.23 251.713 Q2092.61 250.565 2093.01 249.839 Q2093.24 249.347 2093.45 249.019 Q2093.66 248.691 2094.08 248.176 Q2094.53 247.661 2095.16 247.38 Q2095.79 247.098 2096.57 247.098 Q2098.07 247.098 2099.31 247.988 Q2100.55 248.879 2100.88 250.682 Q2102.21 249.113 2103.85 248.106 Q2105.49 247.098 2107.15 247.098 Q2109.92 247.098 2111.72 249.253 Q2113.55 251.385 2113.55 254.758 M2110.08 252.65 Q2110.08 250.518 2109.26 249.347 Q2108.47 248.152 2107.01 248.152 Q2105.21 248.152 2103.13 249.979 Q2101.06 251.713 2100.64 253.329 L2098.28 262.721 L2098.14 263.494 Q2098.14 263.635 2098.21 264.056 Q2098.3 264.454 2098.56 265.11 Q2098.84 265.766 2099.21 266.352 Q2099.61 266.914 2100.31 267.335 Q2101.04 267.757 2101.93 267.757 Q2103.36 267.757 2104.91 266.492 Q2106.47 265.227 2107.65 262.838 Q2108.37 261.292 2109.22 257.966 Q2110.08 254.617 2110.08 252.65 Z" fill="#000000" fill-rule="nonzero" fill-opacity="1" /><path clip-path="url(#clip550)" d="M2136.57 255.203 Q2136.57 257.756 2135.44 260.285 Q2134.32 262.791 2132.51 264.665 Q2130.73 266.516 2128.39 267.687 Q2126.05 268.834 2123.71 268.834 Q2120.36 268.834 2118.18 266.562 Q2116.02 264.267 2116.02 260.707 Q2116.02 257.381 2117.87 254.219 Q2119.75 251.033 2122.75 249.066 Q2125.74 247.098 2128.88 247.098 Q2132.19 247.098 2134.36 249.324 Q2136.57 251.549 2136.57 255.203 M2133.05 253.329 Q2133.05 251.057 2131.95 249.605 Q2130.85 248.152 2128.84 248.152 Q2128.25 248.152 2127.57 248.34 Q2126.89 248.504 2126 248.949 Q2125.13 249.394 2124.15 250.331 Q2123.19 251.244 2122.35 252.556 Q2121.25 254.289 2120.4 257.475 Q2119.58 260.637 2119.58 262.534 Q2119.58 265.157 2120.8 266.469 Q2122.02 267.757 2123.75 267.757 Q2125.44 267.757 2127.22 266.586 Q2129.02 265.391 2130.26 263.354 Q2131.51 261.246 2132.28 258.154 Q2133.05 255.039 2133.05 253.329 Z" fill="#000000" fill-rule="nonzero" fill-opacity="1" /><path clip-path="url(#clip550)" d="M2164.09 261.433 Q2164.09 261.62 2163.88 262.346 Q2163.67 263.073 2163.16 264.197 Q2162.66 265.321 2161.99 266.352 Q2161.31 267.359 2160.18 268.108 Q2159.08 268.834 2157.82 268.834 Q2156.13 268.834 2155.01 267.71 Q2153.88 266.586 2153.88 264.9 Q2153.88 263.963 2154.37 262.674 Q2157.49 254.359 2157.49 251.502 Q2157.49 248.152 2154.89 248.152 Q2153.6 248.152 2152.38 248.644 Q2151.19 249.113 2150.37 249.769 Q2149.55 250.424 2148.8 251.338 Q2148.07 252.228 2147.7 252.837 Q2147.35 253.423 2147.07 254.008 L2146.46 256.397 Q2146.32 257.053 2145.64 259.606 L2144.58 263.939 Q2143.83 267.171 2143.67 267.476 Q2143.43 268.132 2142.92 268.483 Q2142.4 268.834 2141.89 268.834 Q2141.3 268.834 2140.91 268.483 Q2140.51 268.132 2140.51 267.523 Q2140.51 267.429 2140.58 267.078 Q2140.65 266.726 2140.76 266.235 Q2140.88 265.743 2140.93 265.462 L2143.72 254.383 Q2144.23 252.368 2144.35 251.736 Q2144.49 251.08 2144.49 250.354 Q2144.49 248.152 2142.99 248.152 Q2141.77 248.152 2140.98 249.605 Q2140.18 251.057 2139.5 253.868 Q2139.29 254.64 2139.15 254.804 Q2139.03 254.968 2138.68 254.968 Q2138.09 254.945 2138.09 254.477 Q2138.09 254.359 2138.28 253.586 Q2138.47 252.814 2138.82 251.713 Q2139.2 250.588 2139.55 249.839 Q2139.85 249.277 2140.02 249.019 Q2140.2 248.738 2140.65 248.199 Q2141.12 247.637 2141.73 247.38 Q2142.36 247.098 2143.13 247.098 Q2144.86 247.098 2146.13 248.223 Q2147.39 249.324 2147.56 251.268 Q2150.67 247.098 2155.03 247.098 Q2157.61 247.098 2159.08 248.457 Q2160.56 249.815 2160.56 252.228 Q2160.56 252.79 2160.44 253.516 Q2160.35 254.219 2160.11 255.109 Q2159.9 255.999 2159.71 256.678 Q2159.53 257.357 2159.15 258.458 Q2158.78 259.536 2158.61 260.004 Q2158.45 260.473 2158.05 261.574 Q2157.68 262.651 2157.63 262.768 Q2156.76 264.946 2156.76 266.188 Q2156.76 267.008 2157.02 267.382 Q2157.3 267.757 2157.91 267.757 Q2159.55 267.757 2160.77 266.141 Q2162.01 264.501 2162.81 261.831 Q2162.99 261.246 2163.09 261.105 Q2163.2 260.965 2163.53 260.965 Q2164.09 260.965 2164.09 261.433 Z" fill="#000000" fill-rule="nonzero" fill-opacity="1" /><path clip-path="url(#clip550)" d="M2186.17 262.745 Q2186.35 262.955 2186.35 263.166 Q2186.35 263.377 2185.89 263.986 Q2185.44 264.595 2184.48 265.415 Q2183.52 266.235 2182.28 267.008 Q2181.04 267.78 2179.21 268.296 Q2177.38 268.834 2175.46 268.834 Q2172.02 268.834 2169.96 266.375 Q2167.92 263.916 2167.92 260.145 Q2167.92 257.732 2168.72 255.601 Q2169.51 253.446 2170.8 251.923 Q2172.11 250.401 2173.75 249.3 Q2175.42 248.176 2177.15 247.637 Q2178.88 247.098 2180.5 247.098 Q2182.86 247.098 2184.25 248.293 Q2185.63 249.488 2185.63 251.174 Q2185.63 251.572 2185.51 252.064 Q2185.42 252.556 2185.09 253.329 Q2184.78 254.102 2183.99 254.875 Q2183.19 255.624 2182.02 256.116 Q2179.42 257.217 2174.69 257.217 L2172.14 257.217 Q2171.39 260.238 2171.39 262.206 Q2171.39 262.979 2171.53 263.775 Q2171.67 264.548 2172.04 265.532 Q2172.44 266.516 2173.33 267.148 Q2174.24 267.757 2175.56 267.757 Q2175.98 267.757 2176.42 267.734 Q2176.89 267.71 2178.06 267.453 Q2179.26 267.195 2180.31 266.75 Q2181.36 266.305 2182.7 265.345 Q2184.06 264.361 2185.14 263.026 Q2185.51 262.534 2185.77 262.534 Q2185.98 262.534 2186.17 262.745 M2184.03 251.174 Q2184.03 249.886 2183.07 249.019 Q2182.14 248.152 2180.5 248.152 Q2179.98 248.152 2179.35 248.27 Q2178.72 248.387 2177.66 248.879 Q2176.63 249.37 2175.72 250.19 Q2174.81 250.987 2173.89 252.556 Q2172.98 254.102 2172.44 256.163 L2174.41 256.163 Q2175.09 256.163 2175.58 256.163 Q2176.07 256.14 2177.15 256.046 Q2178.25 255.952 2179.05 255.788 Q2179.84 255.601 2180.85 255.226 Q2181.86 254.851 2182.49 254.359 Q2183.14 253.844 2183.59 253.024 Q2184.03 252.205 2184.03 251.174 Z" fill="#000000" fill-rule="nonzero" fill-opacity="1" /><path clip-path="url(#clip550)" d="M2215.09 261.433 Q2215.09 261.62 2214.87 262.346 Q2214.66 263.073 2214.15 264.197 Q2213.66 265.321 2212.98 266.352 Q2212.3 267.359 2211.17 268.108 Q2210.07 268.834 2208.81 268.834 Q2207.12 268.834 2206 267.71 Q2204.87 266.586 2204.87 264.9 Q2204.87 263.963 2205.37 262.674 Q2208.48 254.359 2208.48 251.502 Q2208.48 248.152 2205.88 248.152 Q2204.59 248.152 2203.37 248.644 Q2202.18 249.113 2201.36 249.769 Q2200.54 250.424 2199.79 251.338 Q2199.06 252.228 2198.69 252.837 Q2198.34 253.423 2198.06 254.008 L2197.45 256.397 Q2197.31 257.053 2196.63 259.606 L2195.57 263.939 Q2194.82 267.171 2194.66 267.476 Q2194.43 268.132 2193.91 268.483 Q2193.4 268.834 2192.88 268.834 Q2192.3 268.834 2191.9 268.483 Q2191.5 268.132 2191.5 267.523 Q2191.5 267.429 2191.57 267.078 Q2191.64 266.726 2191.76 266.235 Q2191.87 265.743 2191.92 265.462 L2194.71 254.383 Q2195.22 252.368 2195.34 251.736 Q2195.48 251.08 2195.48 250.354 Q2195.48 248.152 2193.98 248.152 Q2192.76 248.152 2191.97 249.605 Q2191.17 251.057 2190.49 253.868 Q2190.28 254.64 2190.14 254.804 Q2190.02 254.968 2189.67 254.968 Q2189.09 254.945 2189.09 254.477 Q2189.09 254.359 2189.27 253.586 Q2189.46 252.814 2189.81 251.713 Q2190.19 250.588 2190.54 249.839 Q2190.84 249.277 2191.01 249.019 Q2191.19 248.738 2191.64 248.199 Q2192.11 247.637 2192.72 247.38 Q2193.35 247.098 2194.12 247.098 Q2195.86 247.098 2197.12 248.223 Q2198.39 249.324 2198.55 251.268 Q2201.66 247.098 2206.02 247.098 Q2208.6 247.098 2210.07 248.457 Q2211.55 249.815 2211.55 252.228 Q2211.55 252.79 2211.43 253.516 Q2211.34 254.219 2211.1 255.109 Q2210.89 255.999 2210.71 256.678 Q2210.52 257.357 2210.14 258.458 Q2209.77 259.536 2209.6 260.004 Q2209.44 260.473 2209.04 261.574 Q2208.67 262.651 2208.62 262.768 Q2207.75 264.946 2207.75 266.188 Q2207.75 267.008 2208.01 267.382 Q2208.29 267.757 2208.9 267.757 Q2210.54 267.757 2211.76 266.141 Q2213 264.501 2213.8 261.831 Q2213.98 261.246 2214.08 261.105 Q2214.2 260.965 2214.52 260.965 Q2215.09 260.965 2215.09 261.433 Z" fill="#000000" fill-rule="nonzero" fill-opacity="1" /><path clip-path="url(#clip550)" d="M2232.49 248.152 Q2232.49 248.808 2232.19 248.972 Q2231.88 249.113 2231.04 249.113 L2226.54 249.113 L2222.98 263.26 Q2222.7 264.501 2222.7 265.555 Q2222.7 266.726 2223.05 267.242 Q2223.43 267.757 2224.2 267.757 Q2225.72 267.757 2227.36 266.375 Q2229.03 264.993 2230.43 261.62 Q2230.62 261.175 2230.71 261.082 Q2230.83 260.965 2231.13 260.965 Q2231.72 260.965 2231.72 261.433 Q2231.72 261.597 2231.39 262.346 Q2231.09 263.096 2230.41 264.197 Q2229.75 265.298 2228.89 266.328 Q2228.04 267.359 2226.75 268.108 Q2225.47 268.834 2224.08 268.834 Q2222.14 268.834 2220.9 267.593 Q2219.68 266.352 2219.68 264.408 Q2219.68 263.775 2220.17 261.761 Q2220.66 259.723 2223.33 249.113 L2219.1 249.113 Q2218.51 249.113 2218.28 249.089 Q2218.06 249.066 2217.9 248.949 Q2217.76 248.808 2217.76 248.527 Q2217.76 248.082 2217.95 247.895 Q2218.13 247.684 2218.37 247.661 Q2218.63 247.614 2219.21 247.614 L2223.71 247.614 L2225.58 240.001 Q2225.77 239.252 2226.24 238.83 Q2226.73 238.385 2227.01 238.338 Q2227.29 238.268 2227.5 238.268 Q2228.14 238.268 2228.51 238.62 Q2228.89 238.947 2228.89 239.556 Q2228.89 239.884 2226.92 247.614 L2231.13 247.614 Q2231.67 247.614 2231.88 247.637 Q2232.12 247.661 2232.31 247.778 Q2232.49 247.895 2232.49 248.152 Z" fill="#000000" fill-rule="nonzero" fill-opacity="1" /><path clip-path="url(#clip550)" d="M2252.94 251.221 Q2252.94 252.532 2252.29 253.235 Q2251.63 253.914 2250.74 253.914 Q2250.02 253.914 2249.62 253.493 Q2249.24 253.071 2249.24 252.509 Q2249.24 251.689 2249.9 251.033 Q2250.58 250.378 2251.56 250.354 Q2251.23 249.488 2250.37 248.972 Q2249.5 248.434 2248.73 248.293 Q2247.98 248.152 2247.23 248.152 Q2245.75 248.152 2244.63 248.621 Q2243.51 249.089 2242.94 249.815 Q2242.38 250.518 2242.12 251.197 Q2241.87 251.877 2241.87 252.462 Q2241.87 252.977 2241.98 253.399 Q2242.12 253.797 2242.45 254.102 Q2242.78 254.383 2243.01 254.57 Q2243.27 254.758 2243.83 254.922 Q2244.4 255.085 2244.63 255.156 Q2244.86 255.203 2245.52 255.343 Q2246.88 255.624 2247.49 255.788 Q2248.1 255.929 2248.89 256.327 Q2249.71 256.725 2250.32 257.357 Q2251.8 258.833 2251.8 260.871 Q2251.8 261.62 2251.54 262.534 Q2251.3 263.447 2250.63 264.595 Q2249.95 265.743 2248.92 266.656 Q2247.89 267.57 2246.1 268.202 Q2244.35 268.834 2242.15 268.834 Q2239.08 268.834 2237.18 267.546 Q2235.28 266.235 2235.28 264.173 Q2235.28 262.674 2236.1 261.855 Q2236.92 261.011 2237.98 261.011 Q2238.77 261.011 2239.27 261.456 Q2239.76 261.878 2239.76 262.674 Q2239.76 263.752 2238.89 264.572 Q2238.02 265.391 2236.74 265.227 Q2237.84 267.757 2242.19 267.757 Q2243.83 267.757 2245.1 267.335 Q2246.39 266.89 2247.09 266.281 Q2247.81 265.649 2248.28 264.876 Q2248.75 264.103 2248.89 263.518 Q2249.06 262.932 2249.06 262.487 Q2249.06 261.714 2248.75 261.128 Q2248.45 260.543 2248.03 260.215 Q2247.63 259.864 2246.85 259.583 Q2246.1 259.278 2245.57 259.161 Q2245.03 259.044 2244.07 258.857 Q2243.62 258.763 2243.34 258.716 Q2243.06 258.646 2242.47 258.458 Q2241.91 258.248 2241.51 258.037 Q2241.14 257.826 2240.65 257.451 Q2240.16 257.076 2239.85 256.631 Q2239.55 256.186 2239.34 255.531 Q2239.13 254.875 2239.13 254.102 Q2239.13 253.399 2239.34 252.556 Q2239.57 251.713 2240.16 250.729 Q2240.76 249.745 2241.63 248.949 Q2242.5 248.152 2243.95 247.637 Q2245.43 247.098 2247.23 247.098 Q2249.85 247.098 2251.4 248.316 Q2252.94 249.511 2252.94 251.221 Z" fill="#000000" fill-rule="nonzero" fill-opacity="1" /></svg>
