<?xml version="1.0" encoding="utf-8"?>
<svg xmlns="http://www.w3.org/2000/svg" xmlns:xlink="http://www.w3.org/1999/xlink" width="600" height="400" viewBox="0 0 2400 1600">
<defs>
  <clipPath id="clip700">
    <rect x="0" y="0" width="2400" height="1600"/>
  </clipPath>
</defs>
<path clip-path="url(#clip700)" d="M0 1600 L2400 1600 L2400 0 L0 0  Z" fill="#ffffff" fill-rule="evenodd" fill-opacity="1"/>
<defs>
  <clipPath id="clip701">
    <rect x="480" y="0" width="1681" height="1600"/>
  </clipPath>
</defs>
<path clip-path="url(#clip700)" d="M210.61 1423.18 L2352.76 1423.18 L2352.76 108.933 L210.61 108.933  Z" fill="#ffffff" fill-rule="evenodd" fill-opacity="1"/>
<defs>
  <clipPath id="clip702">
    <rect x="210" y="108" width="2143" height="1315"/>
  </clipPath>
</defs>
<polyline clip-path="url(#clip702)" style="stroke:#000000; stroke-linecap:round; stroke-linejoin:round; stroke-width:2; stroke-opacity:0.1; fill:none" points="535.249,1423.18 535.249,108.933 "/>
<polyline clip-path="url(#clip702)" style="stroke:#000000; stroke-linecap:round; stroke-linejoin:round; stroke-width:2; stroke-opacity:0.1; fill:none" points="919.267,1423.18 919.267,108.933 "/>
<polyline clip-path="url(#clip702)" style="stroke:#000000; stroke-linecap:round; stroke-linejoin:round; stroke-width:2; stroke-opacity:0.1; fill:none" points="1303.28,1423.18 1303.28,108.933 "/>
<polyline clip-path="url(#clip702)" style="stroke:#000000; stroke-linecap:round; stroke-linejoin:round; stroke-width:2; stroke-opacity:0.1; fill:none" points="1687.3,1423.18 1687.3,108.933 "/>
<polyline clip-path="url(#clip702)" style="stroke:#000000; stroke-linecap:round; stroke-linejoin:round; stroke-width:2; stroke-opacity:0.1; fill:none" points="2071.32,1423.18 2071.32,108.933 "/>
<polyline clip-path="url(#clip700)" style="stroke:#000000; stroke-linecap:round; stroke-linejoin:round; stroke-width:4; stroke-opacity:1; fill:none" points="210.61,1423.18 2352.76,1423.18 "/>
<polyline clip-path="url(#clip700)" style="stroke:#000000; stroke-linecap:round; stroke-linejoin:round; stroke-width:4; stroke-opacity:1; fill:none" points="535.249,1423.18 535.249,1404.28 "/>
<polyline clip-path="url(#clip700)" style="stroke:#000000; stroke-linecap:round; stroke-linejoin:round; stroke-width:4; stroke-opacity:1; fill:none" points="919.267,1423.18 919.267,1404.28 "/>
<polyline clip-path="url(#clip700)" style="stroke:#000000; stroke-linecap:round; stroke-linejoin:round; stroke-width:4; stroke-opacity:1; fill:none" points="1303.28,1423.18 1303.28,1404.28 "/>
<polyline clip-path="url(#clip700)" style="stroke:#000000; stroke-linecap:round; stroke-linejoin:round; stroke-width:4; stroke-opacity:1; fill:none" points="1687.3,1423.18 1687.3,1404.28 "/>
<polyline clip-path="url(#clip700)" style="stroke:#000000; stroke-linecap:round; stroke-linejoin:round; stroke-width:4; stroke-opacity:1; fill:none" points="2071.32,1423.18 2071.32,1404.28 "/>
<path clip-path="url(#clip700)" d="M487.09 1461.79 L488.745 1451.39 L490.005 1451.39 Q490.153 1452.01 490.4 1452.28 Q490.672 1452.55 492.105 1452.77 Q493.562 1453 496.502 1453 L508.78 1453 Q508.78 1454.16 508.335 1454.77 L501.492 1464.38 Q499.318 1467.42 498.355 1473.03 Q497.787 1476.79 497.811 1481.33 L497.811 1483.9 Q497.811 1486.69 495.464 1486.69 Q493.142 1486.69 493.142 1483.9 Q493.142 1474.24 499.368 1464.88 Q500.035 1463.91 502.48 1460.48 Q504.951 1457.05 505.049 1456.9 L494.575 1456.9 Q489.98 1456.9 489.61 1457.2 Q489.116 1457.64 488.35 1461.79 L487.09 1461.79 Z" fill="#000000" fill-rule="nonzero" fill-opacity="1" /><path clip-path="url(#clip700)" d="M512.386 1461.79 L514.041 1451.39 L515.301 1451.39 Q515.449 1452.01 515.697 1452.28 Q515.968 1452.55 517.401 1452.77 Q518.859 1453 521.798 1453 L534.076 1453 Q534.076 1454.16 533.631 1454.77 L526.788 1464.38 Q524.614 1467.42 523.651 1473.03 Q523.083 1476.79 523.108 1481.33 L523.108 1483.9 Q523.108 1486.69 520.761 1486.69 Q518.439 1486.69 518.439 1483.9 Q518.439 1474.24 524.664 1464.88 Q525.331 1463.91 527.776 1460.48 Q530.247 1457.05 530.346 1456.9 L519.871 1456.9 Q515.277 1456.9 514.906 1457.2 Q514.412 1457.64 513.646 1461.79 L512.386 1461.79 Z" fill="#000000" fill-rule="nonzero" fill-opacity="1" /><path clip-path="url(#clip700)" d="M536.966 1469.6 Q536.966 1461.64 541.017 1456.78 Q545.069 1451.88 550.281 1451.88 Q553.32 1451.88 555 1453.44 Q556.704 1454.97 556.704 1457.34 Q556.704 1458.65 555.938 1459.22 Q555.172 1459.79 554.382 1459.79 Q553.468 1459.79 552.752 1459.17 Q552.035 1458.55 552.035 1457.44 Q552.035 1455.17 554.827 1455.17 Q553.517 1453.14 550.38 1453.14 Q549.417 1453.14 548.428 1453.44 Q547.44 1453.71 546.156 1454.65 Q544.871 1455.59 543.883 1457.07 Q542.895 1458.55 542.203 1461.35 Q541.512 1464.14 541.512 1467.77 L541.512 1468.98 Q543.587 1463.96 547.836 1463.99 Q552.085 1463.99 555.024 1467.23 Q557.964 1470.46 557.964 1475.25 Q557.964 1480.17 554.901 1483.43 Q551.838 1486.69 547.539 1486.69 Q545.612 1486.69 543.858 1485.88 Q542.129 1485.09 540.499 1483.26 Q538.893 1481.43 537.93 1477.92 Q536.966 1474.41 536.966 1469.6 M541.61 1474.14 Q541.61 1479.11 542.524 1481.48 Q542.673 1481.87 542.994 1482.42 Q543.34 1482.96 543.908 1483.68 Q544.501 1484.37 545.464 1484.84 Q546.428 1485.28 547.539 1485.28 Q550.924 1485.28 552.554 1482 Q553.419 1480.17 553.419 1475.2 Q553.419 1470.14 552.505 1468.29 Q550.948 1465.15 547.786 1465.15 Q545.662 1465.15 544.179 1466.61 Q542.722 1468.07 542.154 1470.02 Q541.61 1471.97 541.61 1474.14 Z" fill="#000000" fill-rule="nonzero" fill-opacity="1" /><path clip-path="url(#clip700)" d="M562.114 1469.4 Q562.114 1461.96 563.992 1457.91 Q566.61 1451.88 572.786 1451.88 Q574.095 1451.88 575.454 1452.26 Q576.837 1452.6 578.567 1453.96 Q580.321 1455.32 581.383 1457.54 Q583.408 1461.84 583.408 1469.4 Q583.408 1476.79 581.531 1480.81 Q578.789 1486.69 572.737 1486.69 Q570.464 1486.69 568.142 1485.53 Q565.844 1484.37 564.387 1481.58 Q562.114 1477.4 562.114 1469.4 M566.314 1468.78 Q566.314 1476.41 566.857 1479.45 Q567.475 1482.74 569.155 1484.17 Q570.859 1485.58 572.737 1485.58 Q574.762 1485.58 576.442 1484.07 Q578.147 1482.54 578.665 1479.26 Q579.234 1476.02 579.209 1468.78 Q579.209 1461.74 578.715 1458.92 Q578.048 1455.64 576.269 1454.33 Q574.515 1453 572.737 1453 Q572.07 1453 571.353 1453.19 Q570.661 1453.39 569.649 1453.96 Q568.636 1454.53 567.845 1455.94 Q567.08 1457.34 566.709 1459.47 Q566.314 1462.21 566.314 1468.78 Z" fill="#000000" fill-rule="nonzero" fill-opacity="1" /><path clip-path="url(#clip700)" d="M871.108 1461.79 L872.763 1451.39 L874.022 1451.39 Q874.171 1452.01 874.418 1452.28 Q874.689 1452.55 876.122 1452.77 Q877.58 1453 880.519 1453 L892.797 1453 Q892.797 1454.16 892.352 1454.77 L885.51 1464.38 Q883.336 1467.42 882.372 1473.03 Q881.804 1476.79 881.829 1481.33 L881.829 1483.9 Q881.829 1486.69 879.482 1486.69 Q877.16 1486.69 877.16 1483.9 Q877.16 1474.24 883.385 1464.88 Q884.052 1463.91 886.498 1460.48 Q888.968 1457.05 889.067 1456.9 L878.593 1456.9 Q873.998 1456.9 873.627 1457.2 Q873.133 1457.64 872.367 1461.79 L871.108 1461.79 Z" fill="#000000" fill-rule="nonzero" fill-opacity="1" /><path clip-path="url(#clip700)" d="M896.404 1461.79 L898.059 1451.39 L899.319 1451.39 Q899.467 1452.01 899.714 1452.28 Q899.986 1452.55 901.419 1452.77 Q902.876 1453 905.816 1453 L918.093 1453 Q918.093 1454.16 917.649 1454.77 L910.806 1464.38 Q908.632 1467.42 907.668 1473.03 Q907.1 1476.79 907.125 1481.33 L907.125 1483.9 Q907.125 1486.69 904.778 1486.69 Q902.456 1486.69 902.456 1483.9 Q902.456 1474.24 908.681 1464.88 Q909.348 1463.91 911.794 1460.48 Q914.264 1457.05 914.363 1456.9 L903.889 1456.9 Q899.294 1456.9 898.923 1457.2 Q898.429 1457.64 897.664 1461.79 L896.404 1461.79 Z" fill="#000000" fill-rule="nonzero" fill-opacity="1" /><path clip-path="url(#clip700)" d="M920.984 1477.95 Q920.984 1472.29 928.271 1468.63 Q925.134 1466.51 924.566 1465.89 Q922.342 1463.42 922.342 1460.33 Q922.342 1456.8 925.01 1454.35 Q927.703 1451.88 931.507 1451.88 Q935.139 1451.88 937.881 1453.98 Q940.623 1456.08 940.623 1459.42 Q940.623 1464.11 934.496 1467.27 Q938.548 1469.79 939.511 1470.86 Q941.981 1473.6 941.981 1477.08 Q941.981 1481.13 938.869 1483.92 Q935.756 1486.69 931.458 1486.69 Q927.258 1486.69 924.121 1484.25 Q920.984 1481.8 920.984 1477.95 M923.503 1477.95 Q923.503 1481.08 925.85 1483.18 Q928.222 1485.28 931.507 1485.28 Q934.694 1485.28 937.065 1483.46 Q939.462 1481.63 939.462 1478.91 Q939.462 1477.85 939.091 1476.93 Q938.745 1476.02 938.029 1475.3 Q937.337 1474.56 936.893 1474.24 Q936.473 1473.9 935.657 1473.33 L929.432 1469.4 Q923.503 1472.68 923.503 1477.95 M924.566 1458.36 Q924.566 1460.78 927.11 1462.46 L933.385 1466.51 Q938.399 1463.57 938.399 1459.42 Q938.399 1456.73 936.349 1454.95 Q934.299 1453.14 931.458 1453.14 Q928.666 1453.14 926.616 1454.63 Q924.566 1456.08 924.566 1458.36 Z" fill="#000000" fill-rule="nonzero" fill-opacity="1" /><path clip-path="url(#clip700)" d="M946.132 1469.4 Q946.132 1461.96 948.009 1457.91 Q950.628 1451.88 956.803 1451.88 Q958.113 1451.88 959.471 1452.26 Q960.855 1452.6 962.584 1453.96 Q964.338 1455.32 965.4 1457.54 Q967.426 1461.84 967.426 1469.4 Q967.426 1476.79 965.548 1480.81 Q962.806 1486.69 956.754 1486.69 Q954.481 1486.69 952.159 1485.53 Q949.862 1484.37 948.404 1481.58 Q946.132 1477.4 946.132 1469.4 M950.331 1468.78 Q950.331 1476.41 950.875 1479.45 Q951.492 1482.74 953.172 1484.17 Q954.877 1485.58 956.754 1485.58 Q958.78 1485.58 960.46 1484.07 Q962.164 1482.54 962.683 1479.26 Q963.251 1476.02 963.226 1468.78 Q963.226 1461.74 962.732 1458.92 Q962.065 1455.64 960.287 1454.33 Q958.533 1453 956.754 1453 Q956.087 1453 955.371 1453.19 Q954.679 1453.39 953.666 1453.96 Q952.653 1454.53 951.863 1455.94 Q951.097 1457.34 950.726 1459.47 Q950.331 1462.21 950.331 1468.78 Z" fill="#000000" fill-rule="nonzero" fill-opacity="1" /><path clip-path="url(#clip700)" d="M1255.12 1461.79 L1256.78 1451.39 L1258.04 1451.39 Q1258.19 1452.01 1258.44 1452.28 Q1258.71 1452.55 1260.14 1452.77 Q1261.6 1453 1264.54 1453 L1276.81 1453 Q1276.81 1454.16 1276.37 1454.77 L1269.53 1464.38 Q1267.35 1467.42 1266.39 1473.03 Q1265.82 1476.79 1265.85 1481.33 L1265.85 1483.9 Q1265.85 1486.69 1263.5 1486.69 Q1261.18 1486.69 1261.18 1483.9 Q1261.18 1474.24 1267.4 1464.88 Q1268.07 1463.91 1270.52 1460.48 Q1272.99 1457.05 1273.08 1456.9 L1262.61 1456.9 Q1258.02 1456.9 1257.64 1457.2 Q1257.15 1457.64 1256.38 1461.79 L1255.12 1461.79 Z" fill="#000000" fill-rule="nonzero" fill-opacity="1" /><path clip-path="url(#clip700)" d="M1279.7 1477.95 Q1279.7 1472.29 1286.99 1468.63 Q1283.85 1466.51 1283.29 1465.89 Q1281.06 1463.42 1281.06 1460.33 Q1281.06 1456.8 1283.73 1454.35 Q1286.42 1451.88 1290.23 1451.88 Q1293.86 1451.88 1296.6 1453.98 Q1299.34 1456.08 1299.34 1459.42 Q1299.34 1464.11 1293.22 1467.27 Q1297.27 1469.79 1298.23 1470.86 Q1300.7 1473.6 1300.7 1477.08 Q1300.7 1481.13 1297.59 1483.92 Q1294.48 1486.69 1290.18 1486.69 Q1285.98 1486.69 1282.84 1484.25 Q1279.7 1481.8 1279.7 1477.95 M1282.22 1477.95 Q1282.22 1481.08 1284.57 1483.18 Q1286.94 1485.28 1290.23 1485.28 Q1293.42 1485.28 1295.79 1483.46 Q1298.18 1481.63 1298.18 1478.91 Q1298.18 1477.85 1297.81 1476.93 Q1297.47 1476.02 1296.75 1475.3 Q1296.06 1474.56 1295.61 1474.24 Q1295.19 1473.9 1294.38 1473.33 L1288.15 1469.4 Q1282.22 1472.68 1282.22 1477.95 M1283.29 1458.36 Q1283.29 1460.78 1285.83 1462.46 L1292.11 1466.51 Q1297.12 1463.57 1297.12 1459.42 Q1297.12 1456.73 1295.07 1454.95 Q1293.02 1453.14 1290.18 1453.14 Q1287.39 1453.14 1285.34 1454.63 Q1283.29 1456.08 1283.29 1458.36 Z" fill="#000000" fill-rule="nonzero" fill-opacity="1" /><path clip-path="url(#clip700)" d="M1304.85 1469.4 Q1304.85 1461.96 1306.73 1457.91 Q1309.35 1451.88 1315.52 1451.88 Q1316.83 1451.88 1318.19 1452.26 Q1319.58 1452.6 1321.31 1453.96 Q1323.06 1455.32 1324.12 1457.54 Q1326.15 1461.84 1326.15 1469.4 Q1326.15 1476.79 1324.27 1480.81 Q1321.53 1486.69 1315.48 1486.69 Q1313.2 1486.69 1310.88 1485.53 Q1308.58 1484.37 1307.13 1481.58 Q1304.85 1477.4 1304.85 1469.4 M1309.05 1468.78 Q1309.05 1476.41 1309.6 1479.45 Q1310.21 1482.74 1311.89 1484.17 Q1313.6 1485.58 1315.48 1485.58 Q1317.5 1485.58 1319.18 1484.07 Q1320.89 1482.54 1321.4 1479.26 Q1321.97 1476.02 1321.95 1468.78 Q1321.95 1461.74 1321.45 1458.92 Q1320.79 1455.64 1319.01 1454.33 Q1317.25 1453 1315.48 1453 Q1314.81 1453 1314.09 1453.19 Q1313.4 1453.39 1312.39 1453.96 Q1311.37 1454.53 1310.58 1455.94 Q1309.82 1457.34 1309.45 1459.47 Q1309.05 1462.21 1309.05 1468.78 Z" fill="#000000" fill-rule="nonzero" fill-opacity="1" /><path clip-path="url(#clip700)" d="M1330.15 1469.4 Q1330.15 1461.96 1332.03 1457.91 Q1334.65 1451.88 1340.82 1451.88 Q1342.13 1451.88 1343.49 1452.26 Q1344.87 1452.6 1346.6 1453.96 Q1348.36 1455.32 1349.42 1457.54 Q1351.44 1461.84 1351.44 1469.4 Q1351.44 1476.79 1349.57 1480.81 Q1346.82 1486.69 1340.77 1486.69 Q1338.5 1486.69 1336.18 1485.53 Q1333.88 1484.37 1332.42 1481.58 Q1330.15 1477.4 1330.15 1469.4 M1334.35 1468.78 Q1334.35 1476.41 1334.89 1479.45 Q1335.51 1482.74 1337.19 1484.17 Q1338.89 1485.58 1340.77 1485.58 Q1342.8 1485.58 1344.48 1484.07 Q1346.18 1482.54 1346.7 1479.26 Q1347.27 1476.02 1347.24 1468.78 Q1347.24 1461.74 1346.75 1458.92 Q1346.08 1455.64 1344.3 1454.33 Q1342.55 1453 1340.77 1453 Q1340.1 1453 1339.39 1453.19 Q1338.7 1453.39 1337.68 1453.96 Q1336.67 1454.53 1335.88 1455.94 Q1335.11 1457.34 1334.74 1459.47 Q1334.35 1462.21 1334.35 1468.78 Z" fill="#000000" fill-rule="nonzero" fill-opacity="1" /><path clip-path="url(#clip700)" d="M1639.14 1461.79 L1640.8 1451.39 L1642.06 1451.39 Q1642.21 1452.01 1642.45 1452.28 Q1642.72 1452.55 1644.16 1452.77 Q1645.61 1453 1648.55 1453 L1660.83 1453 Q1660.83 1454.16 1660.39 1454.77 L1653.54 1464.38 Q1651.37 1467.42 1650.41 1473.03 Q1649.84 1476.79 1649.86 1481.33 L1649.86 1483.9 Q1649.86 1486.69 1647.52 1486.69 Q1645.19 1486.69 1645.19 1483.9 Q1645.19 1474.24 1651.42 1464.88 Q1652.09 1463.91 1654.53 1460.48 Q1657 1457.05 1657.1 1456.9 L1646.63 1456.9 Q1642.03 1456.9 1641.66 1457.2 Q1641.17 1457.64 1640.4 1461.79 L1639.14 1461.79 Z" fill="#000000" fill-rule="nonzero" fill-opacity="1" /><path clip-path="url(#clip700)" d="M1663.72 1477.95 Q1663.72 1472.29 1671.01 1468.63 Q1667.87 1466.51 1667.3 1465.89 Q1665.08 1463.42 1665.08 1460.33 Q1665.08 1456.8 1667.75 1454.35 Q1670.44 1451.88 1674.25 1451.88 Q1677.88 1451.88 1680.62 1453.98 Q1683.36 1456.08 1683.36 1459.42 Q1683.36 1464.11 1677.24 1467.27 Q1681.29 1469.79 1682.25 1470.86 Q1684.72 1473.6 1684.72 1477.08 Q1684.72 1481.13 1681.61 1483.92 Q1678.49 1486.69 1674.2 1486.69 Q1670 1486.69 1666.86 1484.25 Q1663.72 1481.8 1663.72 1477.95 M1666.24 1477.95 Q1666.24 1481.08 1668.59 1483.18 Q1670.96 1485.28 1674.25 1485.28 Q1677.43 1485.28 1679.8 1483.46 Q1682.2 1481.63 1682.2 1478.91 Q1682.2 1477.85 1681.83 1476.93 Q1681.48 1476.02 1680.77 1475.3 Q1680.08 1474.56 1679.63 1474.24 Q1679.21 1473.9 1678.4 1473.33 L1672.17 1469.4 Q1666.24 1472.68 1666.24 1477.95 M1667.3 1458.36 Q1667.3 1460.78 1669.85 1462.46 L1676.12 1466.51 Q1681.14 1463.57 1681.14 1459.42 Q1681.14 1456.73 1679.09 1454.95 Q1677.04 1453.14 1674.2 1453.14 Q1671.41 1453.14 1669.35 1454.63 Q1667.3 1456.08 1667.3 1458.36 Z" fill="#000000" fill-rule="nonzero" fill-opacity="1" /><path clip-path="url(#clip700)" d="M1689.41 1485.58 Q1689.41 1484.67 1689.49 1484.39 Q1689.59 1484.12 1689.98 1483.7 L1699.69 1472.88 Q1705 1466.9 1705 1461.69 Q1705 1458.31 1703.22 1455.89 Q1701.47 1453.47 1698.23 1453.47 Q1696.01 1453.47 1694.13 1454.82 Q1692.25 1456.18 1691.39 1458.6 Q1691.54 1458.55 1692.06 1458.55 Q1693.32 1458.55 1694.01 1459.34 Q1694.72 1460.14 1694.72 1461.2 Q1694.72 1462.56 1693.84 1463.22 Q1692.97 1463.87 1692.11 1463.87 Q1691.76 1463.87 1691.29 1463.79 Q1690.85 1463.72 1690.13 1463.03 Q1689.41 1462.31 1689.41 1461.05 Q1689.41 1457.52 1692.08 1454.7 Q1694.77 1451.88 1698.88 1451.88 Q1703.52 1451.88 1706.56 1454.65 Q1709.62 1457.39 1709.62 1461.69 Q1709.62 1463.2 1709.15 1464.58 Q1708.71 1465.94 1708.09 1467 Q1707.5 1468.07 1705.87 1469.77 Q1704.24 1471.47 1702.93 1472.68 Q1701.62 1473.9 1698.68 1476.46 L1693.32 1481.68 L1702.43 1481.68 Q1706.88 1481.68 1707.22 1481.28 Q1707.72 1480.57 1708.34 1476.79 L1709.62 1476.79 L1708.19 1485.58 L1689.41 1485.58 Z" fill="#000000" fill-rule="nonzero" fill-opacity="1" /><path clip-path="url(#clip700)" d="M1714.17 1469.4 Q1714.17 1461.96 1716.04 1457.91 Q1718.66 1451.88 1724.84 1451.88 Q1726.15 1451.88 1727.51 1452.26 Q1728.89 1452.6 1730.62 1453.96 Q1732.37 1455.32 1733.44 1457.54 Q1735.46 1461.84 1735.46 1469.4 Q1735.46 1476.79 1733.58 1480.81 Q1730.84 1486.69 1724.79 1486.69 Q1722.52 1486.69 1720.19 1485.53 Q1717.9 1484.37 1716.44 1481.58 Q1714.17 1477.4 1714.17 1469.4 M1718.37 1468.78 Q1718.37 1476.41 1718.91 1479.45 Q1719.53 1482.74 1721.21 1484.17 Q1722.91 1485.58 1724.79 1485.58 Q1726.81 1485.58 1728.49 1484.07 Q1730.2 1482.54 1730.72 1479.26 Q1731.29 1476.02 1731.26 1468.78 Q1731.26 1461.74 1730.77 1458.92 Q1730.1 1455.64 1728.32 1454.33 Q1726.57 1453 1724.79 1453 Q1724.12 1453 1723.41 1453.19 Q1722.71 1453.39 1721.7 1453.96 Q1720.69 1454.53 1719.9 1455.94 Q1719.13 1457.34 1718.76 1459.47 Q1718.37 1462.21 1718.37 1468.78 Z" fill="#000000" fill-rule="nonzero" fill-opacity="1" /><path clip-path="url(#clip700)" d="M2023.16 1461.79 L2024.82 1451.39 L2026.07 1451.39 Q2026.22 1452.01 2026.47 1452.28 Q2026.74 1452.55 2028.17 1452.77 Q2029.63 1453 2032.57 1453 L2044.85 1453 Q2044.85 1454.16 2044.4 1454.77 L2037.56 1464.38 Q2035.39 1467.42 2034.42 1473.03 Q2033.86 1476.79 2033.88 1481.33 L2033.88 1483.9 Q2033.88 1486.69 2031.53 1486.69 Q2029.21 1486.69 2029.21 1483.9 Q2029.21 1474.24 2035.44 1464.88 Q2036.1 1463.91 2038.55 1460.48 Q2041.02 1457.05 2041.12 1456.9 L2030.65 1456.9 Q2026.05 1456.9 2025.68 1457.2 Q2025.19 1457.64 2024.42 1461.79 L2023.16 1461.79 Z" fill="#000000" fill-rule="nonzero" fill-opacity="1" /><path clip-path="url(#clip700)" d="M2047.74 1477.95 Q2047.74 1472.29 2055.03 1468.63 Q2051.89 1466.51 2051.32 1465.89 Q2049.1 1463.42 2049.1 1460.33 Q2049.1 1456.8 2051.77 1454.35 Q2054.46 1451.88 2058.26 1451.88 Q2061.89 1451.88 2064.64 1453.98 Q2067.38 1456.08 2067.38 1459.42 Q2067.38 1464.11 2061.25 1467.27 Q2065.3 1469.79 2066.27 1470.86 Q2068.74 1473.6 2068.74 1477.08 Q2068.74 1481.13 2065.62 1483.92 Q2062.51 1486.69 2058.21 1486.69 Q2054.01 1486.69 2050.88 1484.25 Q2047.74 1481.8 2047.74 1477.95 M2050.26 1477.95 Q2050.26 1481.08 2052.61 1483.18 Q2054.98 1485.28 2058.26 1485.28 Q2061.45 1485.28 2063.82 1483.46 Q2066.22 1481.63 2066.22 1478.91 Q2066.22 1477.85 2065.85 1476.93 Q2065.5 1476.02 2064.79 1475.3 Q2064.09 1474.56 2063.65 1474.24 Q2063.23 1473.9 2062.41 1473.33 L2056.19 1469.4 Q2050.26 1472.68 2050.26 1477.95 M2051.32 1458.36 Q2051.32 1460.78 2053.87 1462.46 L2060.14 1466.51 Q2065.16 1463.57 2065.16 1459.42 Q2065.16 1456.73 2063.11 1454.95 Q2061.05 1453.14 2058.21 1453.14 Q2055.42 1453.14 2053.37 1454.63 Q2051.32 1456.08 2051.32 1458.36 Z" fill="#000000" fill-rule="nonzero" fill-opacity="1" /><path clip-path="url(#clip700)" d="M2072.32 1477.23 L2072.32 1475.67 L2087.86 1451.93 Q2088.25 1451.32 2088.87 1451.34 Q2089.44 1451.34 2089.56 1451.56 Q2089.69 1451.79 2089.69 1452.65 L2089.69 1475.67 L2094.75 1475.67 L2094.75 1477.23 L2089.69 1477.23 L2089.69 1481.63 Q2089.69 1483.08 2090.28 1483.55 Q2090.9 1484.02 2093.52 1484.02 L2094.58 1484.02 L2094.58 1485.58 Q2092.5 1485.43 2087.71 1485.43 Q2082.94 1485.43 2080.87 1485.58 L2080.87 1484.02 L2081.93 1484.02 Q2084.55 1484.02 2085.17 1483.58 Q2085.78 1483.11 2085.78 1481.63 L2085.78 1477.23 L2072.32 1477.23 M2073.75 1475.67 L2086.08 1475.67 L2086.08 1456.8 L2073.75 1475.67 Z" fill="#000000" fill-rule="nonzero" fill-opacity="1" /><path clip-path="url(#clip700)" d="M2098.18 1469.4 Q2098.18 1461.96 2100.06 1457.91 Q2102.68 1451.88 2108.86 1451.88 Q2110.17 1451.88 2111.52 1452.26 Q2112.91 1452.6 2114.64 1453.96 Q2116.39 1455.32 2117.45 1457.54 Q2119.48 1461.84 2119.48 1469.4 Q2119.48 1476.79 2117.6 1480.81 Q2114.86 1486.69 2108.81 1486.69 Q2106.53 1486.69 2104.21 1485.53 Q2101.91 1484.37 2100.46 1481.58 Q2098.18 1477.4 2098.18 1469.4 M2102.38 1468.78 Q2102.38 1476.41 2102.93 1479.45 Q2103.54 1482.74 2105.22 1484.17 Q2106.93 1485.58 2108.81 1485.58 Q2110.83 1485.58 2112.51 1484.07 Q2114.22 1482.54 2114.74 1479.26 Q2115.3 1476.02 2115.28 1468.78 Q2115.28 1461.74 2114.78 1458.92 Q2114.12 1455.64 2112.34 1454.33 Q2110.59 1453 2108.81 1453 Q2108.14 1453 2107.42 1453.19 Q2106.73 1453.39 2105.72 1453.96 Q2104.71 1454.53 2103.92 1455.94 Q2103.15 1457.34 2102.78 1459.47 Q2102.38 1462.21 2102.38 1468.78 Z" fill="#000000" fill-rule="nonzero" fill-opacity="1" /><path clip-path="url(#clip700)" d="M1227.96 1540.22 L1227.96 1538.7 Q1231.16 1538.56 1233.26 1536.32 Q1235.4 1534.04 1236.12 1531.26 Q1236.86 1528.47 1236.93 1525.25 L1238.66 1525.25 L1238.66 1538.05 L1248.62 1538.05 L1248.62 1540.22 L1238.66 1540.22 L1238.66 1559.55 Q1238.66 1567.06 1243.35 1567.06 Q1245.36 1567.06 1246.68 1565.02 Q1248 1562.95 1248 1559.28 L1248 1555.44 L1249.74 1555.44 L1249.74 1559.42 Q1249.74 1563.19 1248 1566.01 Q1246.27 1568.83 1242.84 1568.83 Q1241.59 1568.83 1240.33 1568.49 Q1239.11 1568.18 1237.47 1567.36 Q1235.88 1566.52 1234.86 1564.48 Q1233.87 1562.41 1233.87 1559.42 L1233.87 1540.22 L1227.96 1540.22 Z" fill="#000000" fill-rule="nonzero" fill-opacity="1" /><path clip-path="url(#clip700)" d="M1283.98 1585.44 L1283.98 1515.87 L1294.47 1515.87 L1294.47 1517.47 L1288.63 1517.47 L1288.63 1583.84 L1294.47 1583.84 L1294.47 1585.44 L1283.98 1585.44 Z" fill="#000000" fill-rule="nonzero" fill-opacity="1" /><path clip-path="url(#clip700)" d="M1298.38 1567.13 L1298.38 1557.96 Q1298.38 1557.17 1298.41 1556.9 Q1298.45 1556.63 1298.65 1556.43 Q1298.85 1556.22 1299.26 1556.22 Q1299.74 1556.22 1299.91 1556.43 Q1300.11 1556.63 1300.25 1557.41 Q1301.3 1562.2 1303.54 1564.75 Q1305.82 1567.26 1309.93 1567.26 Q1313.83 1567.26 1315.8 1565.53 Q1317.77 1563.8 1317.77 1560.94 Q1317.77 1555.85 1310.54 1554.56 Q1306.36 1553.71 1304.63 1553.17 Q1302.9 1552.59 1301.37 1551.33 Q1298.38 1548.89 1298.38 1545.42 Q1298.38 1541.96 1300.99 1539.41 Q1303.64 1536.86 1309.49 1536.86 Q1313.39 1536.86 1316.04 1538.83 Q1316.82 1538.22 1317.23 1537.71 Q1318.15 1536.86 1318.62 1536.86 Q1319.17 1536.86 1319.27 1537.24 Q1319.37 1537.58 1319.37 1538.56 L1319.37 1545.56 Q1319.37 1546.34 1319.34 1546.61 Q1319.3 1546.88 1319.1 1547.09 Q1318.89 1547.26 1318.45 1547.26 Q1317.67 1547.26 1317.64 1546.61 Q1317.09 1538.19 1309.49 1538.19 Q1305.38 1538.19 1303.54 1539.78 Q1301.71 1541.35 1301.71 1543.49 Q1301.71 1544.67 1302.25 1545.59 Q1302.83 1546.47 1303.54 1547.02 Q1304.29 1547.53 1305.65 1548.04 Q1307.01 1548.51 1307.82 1548.68 Q1308.67 1548.85 1310.27 1549.19 Q1315.84 1550.25 1318.18 1552.52 Q1321.1 1555.44 1321.1 1559.14 Q1321.1 1563.25 1318.32 1566.04 Q1315.53 1568.83 1309.93 1568.83 Q1305.41 1568.83 1302.25 1565.8 Q1301.84 1566.21 1301.54 1566.58 Q1301.23 1566.92 1301.1 1567.06 Q1300.99 1567.19 1300.96 1567.3 Q1300.93 1567.36 1300.86 1567.43 Q1299.46 1568.83 1299.13 1568.83 Q1298.58 1568.83 1298.48 1568.45 Q1298.38 1568.11 1298.38 1567.13 Z" fill="#000000" fill-rule="nonzero" fill-opacity="1" /><path clip-path="url(#clip700)" d="M1324.91 1583.84 L1330.75 1583.84 L1330.75 1517.47 L1324.91 1517.47 L1324.91 1515.87 L1335.4 1515.87 L1335.4 1585.44 L1324.91 1585.44 L1324.91 1583.84 Z" fill="#000000" fill-rule="nonzero" fill-opacity="1" /><polyline clip-path="url(#clip702)" style="stroke:#000000; stroke-linecap:round; stroke-linejoin:round; stroke-width:2; stroke-opacity:0.1; fill:none" points="210.61,1362.87 2352.76,1362.87 "/>
<polyline clip-path="url(#clip702)" style="stroke:#000000; stroke-linecap:round; stroke-linejoin:round; stroke-width:2; stroke-opacity:0.1; fill:none" points="210.61,1068.51 2352.76,1068.51 "/>
<polyline clip-path="url(#clip702)" style="stroke:#000000; stroke-linecap:round; stroke-linejoin:round; stroke-width:2; stroke-opacity:0.1; fill:none" points="210.61,774.137 2352.76,774.137 "/>
<polyline clip-path="url(#clip702)" style="stroke:#000000; stroke-linecap:round; stroke-linejoin:round; stroke-width:2; stroke-opacity:0.1; fill:none" points="210.61,479.768 2352.76,479.768 "/>
<polyline clip-path="url(#clip702)" style="stroke:#000000; stroke-linecap:round; stroke-linejoin:round; stroke-width:2; stroke-opacity:0.1; fill:none" points="210.61,185.399 2352.76,185.399 "/>
<polyline clip-path="url(#clip700)" style="stroke:#000000; stroke-linecap:round; stroke-linejoin:round; stroke-width:4; stroke-opacity:1; fill:none" points="210.61,1423.18 210.61,108.933 "/>
<polyline clip-path="url(#clip700)" style="stroke:#000000; stroke-linecap:round; stroke-linejoin:round; stroke-width:4; stroke-opacity:1; fill:none" points="210.61,1362.87 229.508,1362.87 "/>
<polyline clip-path="url(#clip700)" style="stroke:#000000; stroke-linecap:round; stroke-linejoin:round; stroke-width:4; stroke-opacity:1; fill:none" points="210.61,1068.51 229.508,1068.51 "/>
<polyline clip-path="url(#clip700)" style="stroke:#000000; stroke-linecap:round; stroke-linejoin:round; stroke-width:4; stroke-opacity:1; fill:none" points="210.61,774.137 229.508,774.137 "/>
<polyline clip-path="url(#clip700)" style="stroke:#000000; stroke-linecap:round; stroke-linejoin:round; stroke-width:4; stroke-opacity:1; fill:none" points="210.61,479.768 229.508,479.768 "/>
<polyline clip-path="url(#clip700)" style="stroke:#000000; stroke-linecap:round; stroke-linejoin:round; stroke-width:4; stroke-opacity:1; fill:none" points="210.61,185.399 229.508,185.399 "/>
<path clip-path="url(#clip700)" d="M148.375 1366.79 Q148.672 1367.09 148.672 1367.51 Q148.672 1367.93 148.375 1368.22 Q148.079 1368.52 147.659 1368.52 L115.989 1368.52 Q115.569 1368.52 115.273 1368.22 Q114.977 1367.93 114.977 1367.51 Q114.977 1367.09 115.273 1366.79 Q115.569 1366.49 115.989 1366.49 L147.659 1366.49 Q148.079 1366.49 148.375 1366.79 Z" fill="#000000" fill-rule="nonzero" fill-opacity="1" /><path clip-path="url(#clip700)" d="M153.613 1364.17 Q153.613 1356.22 157.664 1351.35 Q161.715 1346.46 166.928 1346.46 Q169.966 1346.46 171.646 1348.02 Q173.351 1349.55 173.351 1351.92 Q173.351 1353.23 172.585 1353.8 Q171.819 1354.36 171.028 1354.36 Q170.114 1354.36 169.398 1353.75 Q168.682 1353.13 168.682 1352.02 Q168.682 1349.75 171.473 1349.75 Q170.164 1347.72 167.027 1347.72 Q166.063 1347.72 165.075 1348.02 Q164.087 1348.29 162.802 1349.23 Q161.518 1350.17 160.53 1351.65 Q159.541 1353.13 158.85 1355.92 Q158.158 1358.71 158.158 1362.34 L158.158 1363.55 Q160.233 1358.54 164.482 1358.56 Q168.731 1358.56 171.671 1361.8 Q174.61 1365.04 174.61 1369.83 Q174.61 1374.74 171.547 1378.01 Q168.484 1381.27 164.186 1381.27 Q162.259 1381.27 160.505 1380.45 Q158.776 1379.66 157.145 1377.83 Q155.539 1376 154.576 1372.5 Q153.613 1368.99 153.613 1364.17 M158.257 1368.72 Q158.257 1373.68 159.171 1376.05 Q159.319 1376.45 159.64 1376.99 Q159.986 1377.54 160.554 1378.25 Q161.147 1378.94 162.111 1379.41 Q163.074 1379.86 164.186 1379.86 Q167.57 1379.86 169.2 1376.57 Q170.065 1374.74 170.065 1369.78 Q170.065 1364.72 169.151 1362.86 Q167.595 1359.73 164.433 1359.73 Q162.308 1359.73 160.826 1361.18 Q159.368 1362.64 158.8 1364.59 Q158.257 1366.54 158.257 1368.72 Z" fill="#000000" fill-rule="nonzero" fill-opacity="1" /><path clip-path="url(#clip700)" d="M147.659 1072.42 Q147.956 1072.72 147.956 1073.14 Q147.956 1073.56 147.659 1073.85 Q147.363 1074.15 146.943 1074.15 L115.273 1074.15 Q114.853 1074.15 114.557 1073.85 Q114.26 1073.56 114.26 1073.14 Q114.26 1072.72 114.557 1072.42 Q114.853 1072.12 115.273 1072.12 L146.943 1072.12 Q147.363 1072.12 147.659 1072.42 Z" fill="#000000" fill-rule="nonzero" fill-opacity="1" /><path clip-path="url(#clip700)" d="M152.18 1077.44 L152.18 1075.88 L167.718 1052.14 Q168.113 1051.52 168.731 1051.55 Q169.299 1051.55 169.423 1051.77 Q169.546 1051.99 169.546 1052.86 L169.546 1075.88 L174.61 1075.88 L174.61 1077.44 L169.546 1077.44 L169.546 1081.83 Q169.546 1083.29 170.139 1083.76 Q170.757 1084.23 173.375 1084.23 L174.438 1084.23 L174.438 1085.79 Q172.362 1085.64 167.57 1085.64 Q162.802 1085.64 160.727 1085.79 L160.727 1084.23 L161.789 1084.23 Q164.408 1084.23 165.026 1083.78 Q165.643 1083.32 165.643 1081.83 L165.643 1077.44 L152.18 1077.44 M153.613 1075.88 L165.94 1075.88 L165.94 1057.01 L153.613 1075.88 Z" fill="#000000" fill-rule="nonzero" fill-opacity="1" /><path clip-path="url(#clip700)" d="M148.771 778.052 Q149.067 778.349 149.067 778.769 Q149.067 779.189 148.771 779.485 Q148.474 779.782 148.054 779.782 L116.385 779.782 Q115.965 779.782 115.668 779.485 Q115.372 779.189 115.372 778.769 Q115.372 778.349 115.668 778.052 Q115.965 777.756 116.385 777.756 L148.054 777.756 Q148.474 777.756 148.771 778.052 Z" fill="#000000" fill-rule="nonzero" fill-opacity="1" /><path clip-path="url(#clip700)" d="M154.403 791.417 Q154.403 790.503 154.477 790.231 Q154.576 789.959 154.971 789.539 L164.68 778.719 Q169.991 772.741 169.991 767.529 Q169.991 764.144 168.212 761.723 Q166.458 759.303 163.222 759.303 Q160.999 759.303 159.121 760.661 Q157.244 762.02 156.379 764.441 Q156.528 764.391 157.046 764.391 Q158.306 764.391 158.998 765.182 Q159.714 765.972 159.714 767.035 Q159.714 768.393 158.825 769.06 Q157.96 769.703 157.096 769.703 Q156.75 769.703 156.281 769.629 Q155.836 769.554 155.12 768.863 Q154.403 768.146 154.403 766.886 Q154.403 763.354 157.071 760.538 Q159.764 757.721 163.865 757.721 Q168.509 757.721 171.547 760.488 Q174.61 763.23 174.61 767.529 Q174.61 769.036 174.141 770.419 Q173.696 771.778 173.079 772.84 Q172.486 773.902 170.856 775.607 Q169.225 777.311 167.916 778.522 Q166.607 779.732 163.667 782.301 L158.306 787.514 L167.422 787.514 Q171.868 787.514 172.214 787.118 Q172.708 786.402 173.326 782.622 L174.61 782.622 L173.178 791.417 L154.403 791.417 Z" fill="#000000" fill-rule="nonzero" fill-opacity="1" /><path clip-path="url(#clip700)" d="M153.316 480.867 Q153.316 473.431 155.194 469.38 Q157.812 463.352 163.988 463.352 Q165.297 463.352 166.656 463.723 Q168.039 464.069 169.769 465.428 Q171.523 466.786 172.585 469.009 Q174.61 473.308 174.61 480.867 Q174.61 488.253 172.733 492.28 Q169.991 498.159 163.939 498.159 Q161.666 498.159 159.344 496.998 Q157.046 495.837 155.589 493.046 Q153.316 488.871 153.316 480.867 M157.516 480.25 Q157.516 487.883 158.059 490.921 Q158.677 494.207 160.357 495.64 Q162.061 497.048 163.939 497.048 Q165.964 497.048 167.644 495.541 Q169.349 494.009 169.867 490.724 Q170.436 487.488 170.411 480.25 Q170.411 473.209 169.917 470.393 Q169.25 467.107 167.471 465.798 Q165.717 464.464 163.939 464.464 Q163.272 464.464 162.555 464.662 Q161.864 464.859 160.851 465.428 Q159.838 465.996 159.047 467.404 Q158.282 468.812 157.911 470.936 Q157.516 473.678 157.516 480.25 Z" fill="#000000" fill-rule="nonzero" fill-opacity="1" /><path clip-path="url(#clip700)" d="M154.403 202.679 Q154.403 201.765 154.477 201.493 Q154.576 201.221 154.971 200.801 L164.68 189.981 Q169.991 184.003 169.991 178.791 Q169.991 175.406 168.212 172.985 Q166.458 170.564 163.222 170.564 Q160.999 170.564 159.121 171.923 Q157.244 173.282 156.379 175.703 Q156.528 175.653 157.046 175.653 Q158.306 175.653 158.998 176.444 Q159.714 177.234 159.714 178.297 Q159.714 179.655 158.825 180.322 Q157.96 180.965 157.096 180.965 Q156.75 180.965 156.281 180.89 Q155.836 180.816 155.12 180.125 Q154.403 179.408 154.403 178.148 Q154.403 174.616 157.071 171.8 Q159.764 168.983 163.865 168.983 Q168.509 168.983 171.547 171.75 Q174.61 174.492 174.61 178.791 Q174.61 180.298 174.141 181.681 Q173.696 183.04 173.079 184.102 Q172.486 185.164 170.856 186.869 Q169.225 188.573 167.916 189.784 Q166.607 190.994 163.667 193.563 L158.306 198.776 L167.422 198.776 Q171.868 198.776 172.214 198.38 Q172.708 197.664 173.326 193.884 L174.61 193.884 L173.178 202.679 L154.403 202.679 Z" fill="#000000" fill-rule="nonzero" fill-opacity="1" /><path clip-path="url(#clip700)" d="M51.3344 896.66 Q42.3671 896.66 33.4677 887.217 Q32.6865 886.368 32.6865 885.892 L32.6865 885.824 Q32.6865 885.417 33.9433 884.432 Q35.2 883.447 35.6756 883.447 Q36.0153 883.447 37.4758 884.703 Q38.9025 885.96 40.6687 887.421 Q42.435 888.881 45.3222 890.138 Q48.2094 891.395 51.1986 891.395 Q55.5124 891.395 58.4675 888.779 Q61.4227 886.164 61.4227 882.699 Q61.4227 880.254 59.3167 878.555 Q57.1768 876.857 56.1578 876.857 Q56.0898 876.857 54.833 877.197 Q53.5763 877.536 51.8779 877.91 Q50.1456 878.25 48.9228 878.25 Q45.8657 878.25 45.8317 875.804 Q45.8317 873.426 48.9907 873.426 Q50.3833 873.426 52.0477 873.766 Q53.7121 874.072 54.867 874.411 Q55.9879 874.751 56.1578 874.751 Q57.2787 874.751 59.3507 873.019 Q61.4227 871.286 61.4227 868.705 Q61.4227 865.716 58.6034 862.964 Q55.7841 860.213 51.1306 860.213 Q42.3671 860.213 35.4718 866.633 Q34.3509 867.618 34.0112 867.516 Q33.5357 867.448 33.128 867.108 Q32.6865 866.769 32.6865 866.361 Q32.6865 865.92 34.1471 864.391 Q38.5968 859.941 42.6388 857.496 Q46.6809 855.016 51.4024 855.016 Q56.8371 855.016 60.8112 858.005 Q64.7854 860.994 64.7854 865.716 Q64.7854 871.49 57.958 875.804 Q61.1509 877.536 62.9851 880.22 Q64.7854 882.903 64.7854 885.892 Q64.7854 890.614 60.7773 893.637 Q56.7692 896.66 51.3344 896.66 Z" fill="#000000" fill-rule="nonzero" fill-opacity="1" /><path clip-path="url(#clip700)" d="M81.3953 822.204 L11.8307 822.204 L11.8307 811.708 L13.4271 811.708 L13.4271 817.55 L79.7989 817.55 L79.7989 811.708 L81.3953 811.708 L81.3953 822.204 Z" fill="#000000" fill-rule="nonzero" fill-opacity="1" /><path clip-path="url(#clip700)" d="M64.0042 808.175 L61.8642 808.175 Q61.8642 804.473 61.4227 803.624 Q60.9471 802.741 58.7053 802.741 L40.0573 802.741 Q37.4758 802.741 36.8305 803.658 Q36.1851 804.541 36.1851 808.175 L34.0112 808.175 L33.2639 798.495 L40.9065 798.495 Q37.9174 797.51 35.6076 795.438 Q33.2639 793.332 33.2639 789.935 Q33.2639 787.693 34.5207 786.267 Q35.7775 784.806 37.5098 784.806 Q39.0383 784.806 39.8196 785.757 Q40.5668 786.674 40.5668 787.795 Q40.5668 789.052 39.7856 789.935 Q38.9704 790.784 37.5777 790.784 Q36.7286 790.784 36.0832 790.411 Q35.4038 790.003 35.1661 789.697 Q34.9283 789.392 34.8604 789.188 Q34.7924 789.324 34.7924 789.935 Q34.7924 793.773 38.6307 795.981 Q42.435 798.155 47.8698 798.155 L58.5694 798.155 Q60.5735 798.155 61.2189 797.34 Q61.8642 796.491 61.8642 792.856 L61.8642 791.396 L64.0042 791.396 Q63.8004 794.181 63.8004 800.227 Q63.8004 801.076 63.8343 802.401 Q63.8683 803.726 63.9362 805.458 Q64.0042 807.19 64.0042 808.175 Z" fill="#000000" fill-rule="nonzero" fill-opacity="1" /><path clip-path="url(#clip700)" d="M57.3806 780.017 Q51.4703 780.017 48.3453 773.053 Q46.3413 768.875 45.8317 760.248 L43.2842 760.248 Q38.9704 760.248 36.6946 762.524 Q34.3848 764.765 34.3848 767.619 Q34.3848 772.714 37.5777 775.159 Q37.6457 773.087 38.6987 772.34 Q39.7177 771.593 40.7706 771.593 Q42.1633 771.593 43.0804 772.476 Q43.9636 773.325 43.9636 774.786 Q43.9636 776.178 43.1144 777.095 Q42.2312 778.013 40.7027 778.013 Q37.306 778.013 35.0642 774.956 Q32.8223 771.865 32.8223 767.483 Q32.8223 761.776 36.6606 757.972 Q37.8495 756.783 39.378 756.206 Q40.9065 755.594 41.9255 755.526 Q42.9106 755.458 44.8807 755.458 L58.7732 755.458 Q59.1808 755.458 59.8602 755.323 Q60.5395 755.187 61.4227 754.575 Q62.2718 753.93 62.2718 752.877 Q62.2718 750.363 57.8221 750.397 L53.9159 750.397 L53.9159 748.631 L57.8221 748.631 Q61.5246 748.631 62.9851 750.601 Q64.4118 752.537 64.4118 754.338 Q64.4118 756.647 62.7134 758.108 Q61.0151 759.568 58.7053 759.772 Q61.3547 760.825 63.087 763.237 Q64.7854 765.615 64.7854 768.875 Q64.7854 771.389 64.14 773.767 Q63.5286 776.11 61.7963 778.081 Q60.03 780.017 57.3806 780.017 M57.3126 774.65 Q59.8941 774.65 61.5585 772.816 Q63.2229 770.981 63.2229 768.4 Q63.2229 765.479 60.9811 762.863 Q58.7053 760.248 54.2556 760.248 L47.2923 760.248 Q47.5641 767.958 50.6551 771.321 Q53.7121 774.65 57.3126 774.65 Z" fill="#000000" fill-rule="nonzero" fill-opacity="1" /><path clip-path="url(#clip700)" d="M49.0586 745.778 Q42.435 745.778 37.8495 741.158 Q33.2639 736.539 33.2639 730.289 Q33.2639 724.99 37.5777 721.525 L22.5303 721.525 Q19.9488 721.525 19.3034 722.442 Q18.6581 723.326 18.6581 726.926 L16.4842 726.926 L15.7369 716.906 L57.958 716.906 Q60.5395 716.906 61.2189 716.023 Q61.8642 715.105 61.8642 711.505 L64.0042 711.505 L64.7854 721.729 L60.1659 721.729 Q64.7514 725.33 64.7854 731.036 Q64.7854 737.014 60.1998 741.396 Q55.6143 745.778 49.0586 745.778 M49.1266 740.003 Q55.5803 740.003 58.7732 737.999 Q63.2229 735.214 63.2229 730.696 Q63.2229 725.533 58.3656 722.476 Q57.1768 721.695 55.7841 721.729 L41.5179 721.729 Q40.1253 721.729 38.9704 722.476 Q34.7924 725.33 34.7924 729.983 Q34.7924 734.84 39.2421 737.863 Q42.5709 740.003 49.1266 740.003 Z" fill="#000000" fill-rule="nonzero" fill-opacity="1" /><path clip-path="url(#clip700)" d="M80.4103 705.595 Q80.0706 705.595 79.3233 705.323 L13.6989 680.765 Q13.6309 680.765 13.2573 680.595 Q12.8836 680.425 12.6459 680.323 Q12.3741 680.221 12.1703 680.017 Q11.9665 679.78 11.9665 679.508 Q11.9665 678.829 12.8157 678.829 Q12.8836 678.829 13.6989 679.032 L79.3913 703.659 Q80.5801 704.066 80.9198 704.338 Q81.2595 704.576 81.2595 704.983 Q81.2595 705.595 80.4103 705.595 Z" fill="#000000" fill-rule="nonzero" fill-opacity="1" /><path clip-path="url(#clip700)" d="M63.087 672.477 L53.9159 672.477 Q53.1347 672.477 52.8629 672.443 Q52.5912 672.409 52.3874 672.205 Q52.1836 672.001 52.1836 671.594 Q52.1836 671.118 52.3874 670.948 Q52.5912 670.744 53.3724 670.609 Q58.1618 669.556 60.7093 667.314 Q63.2229 665.038 63.2229 660.928 Q63.2229 657.022 61.4906 655.052 Q59.7583 653.082 56.905 653.082 Q51.81 653.082 50.5192 660.317 Q49.67 664.494 49.1266 666.227 Q48.5491 667.959 47.2923 669.488 Q44.8467 672.477 41.3821 672.477 Q37.9174 672.477 35.3699 669.861 Q32.8223 667.212 32.8223 661.37 Q32.8223 657.463 34.7924 654.814 Q34.181 654.033 33.6715 653.625 Q32.8223 652.708 32.8223 652.232 Q32.8223 651.689 33.196 651.587 Q33.5357 651.485 34.5207 651.485 L41.5179 651.485 Q42.2992 651.485 42.5709 651.519 Q42.8426 651.553 43.0464 651.757 Q43.2163 651.961 43.2163 652.402 Q43.2163 653.183 42.5709 653.217 Q34.1471 653.761 34.1471 661.37 Q34.1471 665.48 35.7435 667.314 Q37.306 669.148 39.4459 669.148 Q40.6348 669.148 41.5519 668.605 Q42.435 668.027 42.9785 667.314 Q43.488 666.566 43.9975 665.208 Q44.4731 663.849 44.6429 663.034 Q44.8127 662.185 45.1524 660.588 Q46.2054 655.018 48.4812 652.674 Q51.4024 649.753 55.1048 649.753 Q59.2148 649.753 62.0001 652.538 Q64.7854 655.323 64.7854 660.928 Q64.7854 665.446 61.7623 668.605 Q62.1699 669.012 62.5436 669.318 Q62.8832 669.624 63.0191 669.759 Q63.155 669.861 63.2569 669.895 Q63.3248 669.929 63.3927 669.997 Q64.7854 671.39 64.7854 671.729 Q64.7854 672.273 64.4118 672.375 Q64.0721 672.477 63.087 672.477 Z" fill="#000000" fill-rule="nonzero" fill-opacity="1" /><path clip-path="url(#clip700)" d="M79.7989 645.948 L79.7989 640.106 L13.4271 640.106 L13.4271 645.948 L11.8307 645.948 L11.8307 635.453 L81.3953 635.453 L81.3953 645.948 L79.7989 645.948 Z" fill="#000000" fill-rule="nonzero" fill-opacity="1" /><g clip-path="url(#clip700)">
<text style="fill:#000000; fill-opacity:1; font-family:Century Schoolbook,Georgia,serif; font-size:66px; font-weight:bold; text-anchor:middle;" transform="rotate(0, 1281.68, 57.6)" x="1281.68" y="57.6">Event instantaneous frequency</text>
</g>
<polyline clip-path="url(#clip702)" style="stroke:#ba3d3a; stroke-linecap:round; stroke-linejoin:round; stroke-width:8; stroke-opacity:1; fill:none" points="271.237,428.674 273.637,422.815 276.037,416.357 278.438,409.575 280.838,402.957 283.238,396.676 285.638,391.065 288.038,386.12 290.438,382.003 292.838,378.584 295.238,375.921 297.638,373.834 300.039,372.333 302.439,371.239 304.839,370.545 307.239,370.098 309.639,369.888 312.039,369.799 314.439,369.826 316.839,369.899 319.239,370.012 321.64,370.128 324.04,370.219 326.44,370.259 328.84,370.196 331.24,370.031 333.64,369.726 336.04,369.346 338.44,368.866 340.84,368.358 343.24,367.722 345.641,366.948 348.041,365.845 350.441,364.415 352.841,362.558 355.241,360.45 357.641,358.114 360.041,355.71 362.441,353.049 364.841,349.955 367.242,345.957 369.642,340.84 372.042,334.451 374.442,327.164 376.842,319.51 379.242,312.369 381.642,306.475 384.042,302.534 386.442,300.895 388.843,301.735 391.243,304.886 393.643,310.013 396.043,316.547 398.443,323.825 400.843,331.149 403.243,337.886 405.643,343.664 408.043,348.322 410.444,352.04 412.844,354.972 415.244,357.398 417.644,359.382 420.044,361.16 422.444,362.715 424.844,364.204 427.244,365.466 429.644,366.632 432.045,367.57 434.445,368.482 436.845,369.197 439.245,369.877 441.645,370.338 444.045,370.803 446.445,371.097 448.845,371.425 451.245,371.568 453.646,371.76 456.046,371.812 458.446,372.001 460.846,372.126 463.246,372.518 465.646,373.034 468.046,374.2 470.446,376.057 472.846,379.674 475.247,385.874 477.647,398.152 480.047,422.77 482.447,484.31 484.847,679.044 487.247,1237 489.647,1385.98 492.047,863.543 494.447,531.114 496.847,436.228 499.248,400.532 501.648,383.951 504.048,375.358 506.448,370.839 508.848,368.51 511.248,367.564 513.648,367.427 516.048,367.839 518.448,368.571 520.849,369.495 523.249,370.526 525.649,371.575 528.049,372.634 530.449,373.624 532.849,374.582 535.249,375.422 537.649,376.214 540.049,376.861 542.45,377.453 544.85,377.881 547.25,378.253 549.65,378.45 552.05,378.588 554.45,378.542 556.85,378.435 559.25,378.138 561.65,377.779 564.051,377.228 566.451,376.617 568.851,375.813 571.251,374.945 573.651,373.882 576.051,372.746 578.451,371.412 580.851,369.994 583.251,368.375 585.652,366.655 588.052,364.732 590.452,362.704 592.852,360.51 595.252,358.274 597.652,356.003 600.052,353.856 602.452,351.9 604.852,350.3 607.253,349.132 609.653,348.504 612.053,348.443 614.453,348.952 616.853,349.984 619.253,351.443 621.653,353.237 624.053,355.22 626.453,357.321 628.853,359.408 631.254,361.468 633.654,363.409 636.054,365.277 638.454,367 640.854,368.657 643.254,370.176 645.654,371.643 648.054,372.977 650.454,374.269 652.855,375.431 655.255,376.554 657.655,377.549 660.055,378.506 662.455,379.341 664.855,380.138 667.255,380.819 669.655,381.466 672.055,382.007 674.456,382.516 676.856,382.934 679.256,383.322 681.656,383.633 684.056,383.917 686.456,384.137 688.856,384.328 691.256,384.466 693.656,384.572 696.057,384.63 698.457,384.646 700.857,384.617 703.257,384.531 705.657,384.396 708.057,384.184 710.457,383.917 712.857,383.548 715.257,383.114 717.658,382.555 720.058,381.918 722.458,381.129 724.858,380.244 727.258,379.177 729.658,377.99 732.058,376.593 734.458,375.065 736.858,373.32 739.259,371.45 741.659,369.356 744.059,367.097 746.459,364.521 748.859,361.634 751.259,358.269 753.659,354.485 756.059,350.258 758.459,345.844 760.859,341.447 763.26,337.479 765.66,334.22 768.06,332.011 770.46,330.977 772.86,331.202 775.26,332.565 777.66,334.889 780.06,337.888 782.46,341.262 784.861,344.739 787.261,348.071 789.661,351.147 792.061,353.848 794.461,356.227 796.861,358.243 799.261,360.026 801.661,361.528 804.061,362.9 806.462,364.057 808.862,365.15 811.262,366.068 813.662,366.961 816.062,367.701 818.462,368.439 820.862,369.04 823.262,369.65 825.662,370.136 828.063,370.634 830.463,371.023 832.863,371.422 835.263,371.727 837.663,372.04 840.063,372.276 842.463,372.513 844.863,372.694 847.263,372.867 849.664,373.001 852.064,373.114 854.464,373.206 856.864,373.26 859.264,373.303 861.664,373.29 864.064,373.272 866.464,373.174 868.864,373.074 871.265,372.869 873.665,372.659 876.065,372.32 878.465,371.969 880.865,371.467 883.265,370.948 885.665,370.261 888.065,369.551 890.465,368.664 892.865,367.754 895.266,366.671 897.666,365.575 900.066,364.33 902.466,363.101 904.866,361.774 907.266,360.52 909.666,359.253 912.066,358.14 914.466,357.12 916.867,356.338 919.267,355.747 921.667,355.451 924.067,355.402 926.467,355.649 928.867,356.142 931.267,356.871 933.667,357.796 936.067,358.86 938.468,360.05 940.868,361.278 943.268,362.572 945.668,363.829 948.068,365.117 950.468,366.321 952.868,367.55 955.268,368.671 957.668,369.822 960.069,370.858 962.469,371.931 964.869,372.885 967.269,373.883 969.669,374.761 972.069,375.686 974.469,376.49 976.869,377.339 979.269,378.071 981.67,378.841 984.07,379.501 986.47,380.193 988.87,380.784 991.27,381.399 993.67,381.929 996.07,382.475 998.47,382.953 1000.87,383.439 1003.27,383.876 1005.67,384.313 1008.07,384.718 1010.47,385.112 1012.87,385.49 1015.27,385.845 1017.67,386.195 1020.07,386.506 1022.47,386.82 1024.87,387.079 1027.27,387.345 1029.67,387.539 1032.07,387.741 1034.47,387.856 1036.87,387.979 1039.27,387.998 1041.67,388.024 1044.07,387.935 1046.47,387.854 1048.87,387.652 1051.27,387.461 1053.67,387.149 1056.07,386.847 1058.47,386.42 1060.87,385.996 1063.27,385.444 1065.67,384.895 1068.07,384.234 1070.47,383.595 1072.87,382.874 1075.27,382.181 1077.67,381.397 1080.07,380.595 1082.47,379.663 1084.87,378.677 1087.27,377.581 1089.67,376.479 1092.07,375.35 1094.47,374.257 1096.87,373.142 1099.27,371.981 1101.67,370.698 1104.08,369.259 1106.48,367.677 1108.88,365.997 1111.28,364.358 1113.68,362.855 1116.08,361.667 1118.48,360.835 1120.88,360.487 1123.28,360.554 1125.68,361.092 1128.08,361.948 1130.48,363.145 1132.88,364.496 1135.28,366.033 1137.68,367.574 1140.08,369.183 1142.48,370.694 1144.88,372.205 1147.28,373.569 1149.68,374.903 1152.08,376.074 1154.48,377.207 1156.88,378.182 1159.28,379.121 1161.68,379.915 1164.08,380.678 1166.48,381.313 1168.88,381.922 1171.28,382.421 1173.68,382.895 1176.08,383.276 1178.48,383.631 1180.88,383.91 1183.28,384.158 1185.68,384.346 1188.08,384.496 1190.48,384.6 1192.88,384.658 1195.28,384.684 1197.68,384.656 1200.08,384.61 1202.48,384.503 1204.88,384.393 1207.28,384.219 1209.68,384.063 1212.08,383.846 1214.48,383.674 1216.88,383.454 1219.28,383.314 1221.68,383.152 1224.08,383.112 1226.48,383.084 1228.88,383.225 1231.28,383.415 1233.68,383.818 1236.08,384.3 1238.48,385.025 1240.88,385.844 1243.28,386.912 1245.68,388.067 1248.08,389.452 1250.48,390.895 1252.88,392.531 1255.28,394.185 1257.68,395.987 1260.08,397.773 1262.48,399.664 1264.88,401.507 1267.28,403.409 1269.68,405.225 1272.08,407.048 1274.48,408.749 1276.88,410.41 1279.28,411.93 1281.68,413.371 1284.08,414.648 1286.48,415.785 1288.88,416.693 1291.28,417.355 1293.68,417.706 1296.08,417.725 1298.48,417.415 1300.88,416.776 1303.28,415.875 1305.68,414.692 1308.08,413.302 1310.48,411.622 1312.88,409.719 1315.28,407.466 1317.68,404.973 1320.08,402.136 1322.49,399.154 1324.89,395.969 1327.29,392.856 1329.69,389.757 1332.09,386.961 1334.49,384.363 1336.89,382.213 1339.29,380.341 1341.69,378.952 1344.09,377.824 1346.49,377.129 1348.89,376.623 1351.29,376.461 1353.69,376.398 1356.09,376.586 1358.49,376.795 1360.89,377.172 1363.29,377.514 1365.69,377.96 1368.09,378.335 1370.49,378.766 1372.89,379.11 1375.29,379.474 1377.69,379.746 1380.09,380.009 1382.49,380.185 1384.89,380.328 1387.29,380.396 1389.69,380.411 1392.09,380.365 1394.49,380.248 1396.89,380.088 1399.29,379.839 1401.69,379.565 1404.09,379.189 1406.49,378.804 1408.89,378.306 1411.29,377.822 1413.69,377.222 1416.09,376.665 1418.49,376.004 1420.89,375.434 1423.29,374.798 1425.69,374.323 1428.09,373.848 1430.49,373.63 1432.89,373.501 1435.29,373.734 1437.69,374.148 1440.09,375.01 1442.49,376.115 1444.89,377.705 1447.29,379.538 1449.69,381.814 1452.09,384.254 1454.49,387.013 1456.89,389.791 1459.29,392.713 1461.69,395.488 1464.09,398.236 1466.49,400.708 1468.89,403.036 1471.29,405.029 1473.69,406.823 1476.09,408.279 1478.49,409.521 1480.89,410.451 1483.29,411.165 1485.69,411.603 1488.09,411.827 1490.49,411.818 1492.89,411.608 1495.29,411.223 1497.69,410.663 1500.09,409.998 1502.49,409.195 1504.89,408.366 1507.29,407.437 1509.69,406.559 1512.09,405.614 1514.49,404.783 1516.89,403.906 1519.29,403.189 1521.69,402.43 1524.09,401.859 1526.49,401.234 1528.89,400.81 1531.29,400.311 1533.69,400.013 1536.09,399.616 1538.49,399.414 1540.89,399.09 1543.3,398.951 1545.7,398.672 1548.1,398.567 1550.5,398.309 1552.9,398.213 1555.3,397.958 1557.7,397.853 1560.1,397.59 1562.5,397.463 1564.9,397.182 1567.3,397.023 1569.7,396.723 1572.1,396.526 1574.5,396.205 1576.9,395.967 1579.3,395.625 1581.7,395.343 1584.1,394.982 1586.5,394.655 1588.9,394.273 1591.3,393.901 1593.7,393.502 1596.1,393.087 1598.5,392.673 1600.9,392.217 1603.3,391.789 1605.7,391.293 1608.1,390.85 1610.5,390.311 1612.9,389.85 1615.3,389.271 1617.7,388.79 1620.1,388.168 1622.5,387.653 1624.9,386.972 1627.3,386.403 1629.7,385.646 1632.1,385.004 1634.5,384.16 1636.9,383.429 1639.3,382.481 1641.7,381.631 1644.1,380.545 1646.5,379.533 1648.9,378.279 1651.3,377.088 1653.7,375.673 1656.1,374.337 1658.5,372.831 1660.9,371.45 1663.3,369.993 1665.7,368.74 1668.1,367.54 1670.5,366.639 1672.9,365.922 1675.3,365.576 1677.7,365.499 1680.1,365.794 1682.5,366.367 1684.9,367.231 1687.3,368.304 1689.7,369.52 1692.1,370.834 1694.5,372.126 1696.9,373.412 1699.3,374.544 1701.7,375.613 1704.1,376.453 1706.5,377.233 1708.9,377.764 1711.3,378.279 1713.7,378.561 1716.1,378.887 1718.5,379.006 1720.9,379.225 1723.3,379.258 1725.7,379.431 1728.1,379.431 1730.5,379.593 1732.9,379.587 1735.3,379.749 1737.7,379.742 1740.1,379.898 1742.5,379.884 1744.9,380.02 1747.3,379.988 1749.7,380.087 1752.1,380.026 1754.5,380.072 1756.9,379.971 1759.3,379.949 1761.71,379.795 1764.11,379.682 1766.51,379.454 1768.91,379.228 1771.31,378.909 1773.71,378.556 1776.11,378.143 1778.51,377.66 1780.91,377.149 1783.31,376.517 1785.71,375.866 1788.11,375.017 1790.51,374.143 1792.91,372.995 1795.31,371.838 1797.71,370.373 1800.11,368.955 1802.51,367.224 1804.91,365.585 1807.31,363.583 1809.71,361.641 1812.11,359.216 1814.51,356.773 1816.91,353.754 1819.31,350.732 1821.71,347.207 1824.11,343.879 1826.51,340.307 1828.91,337.253 1831.31,334.268 1833.71,332.066 1836.11,330.13 1838.51,329.048 1840.91,328.233 1843.31,328.104 1845.71,328.056 1848.11,328.332 1850.51,328.389 1852.91,328.274 1855.31,327.617 1857.71,326.197 1860.11,323.933 1862.51,320.167 1864.91,315.237 1867.31,307.718 1869.71,298.596 1872.11,285.185 1874.51,269.662 1876.91,247.746 1879.31,224.336 1881.71,195.142 1884.11,170.56 1886.51,150.698 1888.91,146.128 1891.31,157.075 1893.71,178.05 1896.11,206.998 1898.51,232.304 1900.91,257.307 1903.31,275.316 1905.71,291.466 1908.11,302.383 1910.51,311.89 1912.91,318.124 1915.31,323.467 1917.71,326.896 1920.11,329.804 1922.51,331.715 1924.91,333.373 1927.31,334.679 1929.71,335.92 1932.11,337.257 1934.51,338.629 1936.91,340.377 1939.31,342.163 1941.71,344.459 1944.11,346.71 1946.51,349.487 1948.91,352.073 1951.31,355.128 1953.71,357.825 1956.11,360.912 1958.51,363.501 1960.91,366.419 1963.31,368.754 1965.71,371.394 1968.11,373.422 1970.51,375.76 1972.91,377.497 1975.31,379.557 1977.71,381.045 1980.11,382.864 1982.52,384.15 1984.92,385.761 1987.32,386.881 1989.72,388.308 1992.12,389.29 1994.52,390.548 1996.92,391.41 1999.32,392.508 2001.72,393.262 2004.12,394.203 2006.52,394.856 2008.92,395.637 2011.32,396.188 2013.72,396.805 2016.12,397.25 2018.52,397.696 2020.92,398.029 2023.32,398.296 2025.72,398.512 2028.12,398.597 2030.52,398.692 2032.92,398.593 2035.32,398.567 2037.72,398.287 2040.12,398.143 2042.52,397.692 2044.92,397.44 2047.32,396.835 2049.72,396.487 2052.12,395.74 2054.52,395.3 2056.92,394.42 2059.32,393.892 2061.72,392.896 2064.12,392.304 2066.52,391.232 2068.92,390.614 2071.32,389.509 2073.72,388.884 2076.12,387.76 2078.52,387.132 2080.92,386.016 2083.32,385.44 2085.72,384.441 2088.12,384.042 2090.52,383.291 2092.92,383.145 2095.32,382.653 2097.72,382.671 2100.12,382.3 2102.52,382.315 2104.92,381.943 2107.32,381.886 2109.72,381.523 2112.12,381.422 2114.52,381.086 2116.92,380.869 2119.32,380.4 2121.72,379.796 2124.12,378.895 2126.52,377.62 2128.92,376.119 2131.32,374.151 2133.72,372.215 2136.12,369.86 2138.52,367.898 2140.92,365.589 2143.32,364.007 2145.72,362.073 2148.12,361.092 2150.52,359.656 2152.92,359.297 2155.32,358.314 2157.72,358.462 2160.12,357.804 2162.52,358.296 2164.92,357.826 2167.32,358.507 2169.72,358.119 2172.12,358.864 2174.52,358.493 2176.92,359.208 2179.32,358.826 2181.72,359.445 2184.12,359.045 2186.52,359.512 2188.92,359.098 2191.32,359.363 2193.72,358.94 2196.12,358.949 2198.52,358.518 2200.92,358.213 2203.33,357.762 2205.73,357.075 2208.13,356.575 2210.53,355.42 2212.93,354.823 2215.33,353.101 2217.73,352.358 2220.13,349.991 2222.53,349.092 2224.93,346.072 2227.33,345.111 2229.73,341.555 2232.13,340.763 2234.53,336.914 2236.93,336.633 2239.33,332.802 2241.73,333.393 2244.13,329.855 2246.53,331.581 2248.93,328.47 2251.33,331.391 2253.73,328.636 2256.13,332.54 2258.53,329.886 2260.93,334.291 2263.33,331.456 2265.73,335.716 2268.13,332.722 2270.53,336.21 2272.93,333.817 2275.33,336.108 2277.73,336.229 2280.13,337.281 2282.53,343.297 2284.93,343.849 2287.33,361.22 2289.73,363.885 2292.13,405.759 "/>
<polyline clip-path="url(#clip702)" style="stroke:#dfba53; stroke-linecap:round; stroke-linejoin:round; stroke-width:8; stroke-opacity:1; fill:none" stroke-dasharray="32, 20" points="772.86,1385.98 772.86,146.128 "/>
<polyline clip-path="url(#clip702)" style="stroke:#4a7945; stroke-linecap:round; stroke-linejoin:round; stroke-width:8; stroke-opacity:1; fill:none" stroke-dasharray="32, 20" points="271.237,1385.98 271.237,146.128 "/>
<polyline clip-path="url(#clip702)" style="stroke:#ba3d3a; stroke-linecap:round; stroke-linejoin:round; stroke-width:8; stroke-opacity:1; fill:none" stroke-dasharray="32, 20" points="2292.13,1385.98 2292.13,146.128 "/>
<path clip-path="url(#clip700)" d="M1965.46 1379.37 L2281.35 1379.37 L2281.35 1120.17 L1965.46 1120.17  Z" fill="#ffffff" fill-rule="evenodd" fill-opacity="1"/>
<polyline clip-path="url(#clip700)" style="stroke:#000000; stroke-linecap:round; stroke-linejoin:round; stroke-width:4; stroke-opacity:1; fill:none" points="1965.46,1379.37 2281.35,1379.37 2281.35,1120.17 1965.46,1120.17 1965.46,1379.37 "/>
<polyline clip-path="url(#clip700)" style="stroke:#ba3d3a; stroke-linecap:round; stroke-linejoin:round; stroke-width:8; stroke-opacity:1; fill:none" points="1989.26,1172.01 2132.07,1172.01 "/>
<path clip-path="url(#clip700)" d="M2184.21 1157.61 Q2184.21 1159.79 2183.11 1164 Q2182.67 1165.83 2182.06 1167.49 Q2181.47 1169.13 2180.6 1170.73 Q2179.74 1172.32 2178.73 1173.47 Q2177.72 1174.59 2176.41 1175.29 Q2175.1 1176 2173.65 1176 Q2171.35 1176 2169.99 1174.64 Q2168.66 1173.26 2168.24 1170.89 Q2165.1 1176 2160.91 1176 Q2158.31 1176 2157.09 1174.15 Q2155.87 1172.27 2155.87 1169.13 Q2155.87 1166.49 2156.57 1163.75 Q2157.91 1158.55 2160.51 1154.92 Q2160.86 1154.49 2161.37 1154.49 Q2161.68 1154.49 2161.82 1154.59 Q2162.24 1154.85 2162.24 1155.27 Q2162.24 1155.57 2162.01 1155.88 Q2160.37 1158.15 2159.29 1160.09 Q2158.21 1162.04 2157.72 1164 Q2157.35 1165.69 2157.35 1167.12 Q2157.35 1169.53 2158.38 1171.03 Q2159.43 1172.53 2161.52 1172.53 Q2163.44 1172.53 2165.12 1171.33 Q2166.81 1170.12 2168.05 1168.08 Q2168.12 1165.85 2168.66 1163.75 Q2169.15 1161.5 2170.3 1161.5 Q2171.21 1161.5 2171.21 1162.74 Q2171.21 1163.16 2171.02 1164 Q2170.51 1166.23 2169.57 1168.22 Q2169.9 1170.16 2171.12 1171.36 Q2172.34 1172.53 2174.28 1172.53 Q2176.08 1172.53 2177.68 1171.22 Q2179.29 1169.91 2180.32 1167.99 Q2181.38 1166.04 2181.96 1163.75 Q2182.15 1162.97 2182.15 1161.99 Q2182.15 1159.37 2180.32 1157.75 Q2179.81 1157.23 2179.81 1156.55 Q2179.81 1155.76 2180.46 1155.03 Q2181.24 1154.26 2182.15 1154.26 Q2182.83 1154.26 2183.25 1154.68 Q2184.21 1155.52 2184.21 1157.61 Z" fill="#000000" fill-rule="nonzero" fill-opacity="1" /><path clip-path="url(#clip700)" d="M2197.63 1168.19 Q2197.63 1168.91 2197.04 1169.45 Q2196.46 1169.98 2195.84 1169.98 Q2195.27 1169.98 2194.91 1169.64 Q2194.56 1169.27 2194.56 1168.77 Q2194.56 1168.09 2195.14 1167.54 Q2195.71 1166.98 2196.38 1166.98 Q2196.94 1166.98 2197.28 1167.32 Q2197.63 1167.67 2197.63 1168.19 M2197.92 1184.37 Q2197.92 1184.51 2197.78 1185.03 Q2197.63 1185.54 2197.27 1186.33 Q2196.92 1187.1 2196.45 1187.82 Q2195.97 1188.54 2195.18 1189.05 Q2194.41 1189.56 2193.53 1189.56 Q2192.33 1189.56 2191.55 1188.77 Q2190.77 1187.98 2190.77 1186.8 Q2190.77 1186.16 2191.55 1184.11 Q2193.77 1178.14 2193.86 1177.9 Q2194.23 1176.96 2194.23 1176.14 Q2194.23 1175.77 2194.15 1175.54 Q2194.07 1175.29 2193.91 1175.21 Q2193.74 1175.11 2193.64 1175.09 Q2193.56 1175.08 2193.4 1175.08 Q2192.43 1175.08 2191.53 1176.06 Q2190.63 1177.05 2190 1179.24 Q2189.87 1179.65 2189.79 1179.75 Q2189.71 1179.85 2189.46 1179.85 Q2189.05 1179.83 2189.05 1179.51 Q2189.05 1179.41 2189.17 1179.03 Q2189.28 1178.64 2189.5 1178.05 Q2189.71 1177.44 2190.09 1176.82 Q2190.46 1176.18 2190.92 1175.62 Q2191.4 1175.06 2192.07 1174.7 Q2192.74 1174.34 2193.5 1174.34 Q2194.73 1174.34 2195.48 1175.14 Q2196.25 1175.93 2196.25 1177.1 Q2196.25 1177.73 2195.81 1178.87 Q2195.27 1180.34 2195.07 1180.82 L2193.76 1184.34 Q2193.28 1185.62 2193.14 1186.01 Q2193 1186.39 2192.89 1186.85 Q2192.79 1187.29 2192.79 1187.7 Q2192.79 1188.28 2192.97 1188.54 Q2193.17 1188.8 2193.59 1188.8 Q2194.78 1188.8 2195.64 1187.64 Q2196.51 1186.46 2197.02 1184.65 Q2197.04 1184.6 2197.05 1184.52 Q2197.19 1184.11 2197.32 1184.06 Q2197.38 1184.05 2197.51 1184.05 Q2197.92 1184.05 2197.92 1184.37 Z" fill="#000000" fill-rule="nonzero" fill-opacity="1" /><path clip-path="url(#clip700)" d="M2218.98 1184.37 Q2218.98 1184.51 2218.84 1185.01 Q2218.69 1185.52 2218.33 1186.31 Q2217.98 1187.1 2217.51 1187.82 Q2217.03 1188.52 2216.25 1189.05 Q2215.47 1189.56 2214.59 1189.56 Q2213.41 1189.56 2212.62 1188.77 Q2211.83 1187.98 2211.83 1186.8 Q2211.83 1186.15 2212.18 1185.24 Q2214.36 1179.42 2214.36 1177.42 Q2214.36 1175.08 2212.54 1175.08 Q2211.64 1175.08 2210.79 1175.42 Q2209.95 1175.75 2209.38 1176.21 Q2208.8 1176.67 2208.28 1177.31 Q2207.77 1177.93 2207.51 1178.36 Q2207.26 1178.77 2207.06 1179.18 L2206.64 1180.85 Q2206.54 1181.31 2206.06 1183.1 L2205.33 1186.13 Q2204.8 1188.39 2204.69 1188.6 Q2204.52 1189.06 2204.16 1189.31 Q2203.8 1189.56 2203.44 1189.56 Q2203.03 1189.56 2202.75 1189.31 Q2202.47 1189.06 2202.47 1188.64 Q2202.47 1188.57 2202.52 1188.33 Q2202.57 1188.08 2202.65 1187.74 Q2202.73 1187.39 2202.77 1187.19 L2204.72 1179.44 Q2205.08 1178.03 2205.16 1177.59 Q2205.26 1177.13 2205.26 1176.62 Q2205.26 1175.08 2204.21 1175.08 Q2203.36 1175.08 2202.8 1176.1 Q2202.24 1177.11 2201.77 1179.08 Q2201.62 1179.62 2201.52 1179.73 Q2201.44 1179.85 2201.19 1179.85 Q2200.78 1179.83 2200.78 1179.51 Q2200.78 1179.42 2200.92 1178.88 Q2201.05 1178.34 2201.29 1177.57 Q2201.55 1176.78 2201.8 1176.26 Q2202.01 1175.87 2202.13 1175.69 Q2202.26 1175.49 2202.57 1175.11 Q2202.9 1174.72 2203.33 1174.54 Q2203.77 1174.34 2204.31 1174.34 Q2205.52 1174.34 2206.41 1175.13 Q2207.29 1175.9 2207.41 1177.26 Q2209.59 1174.34 2212.64 1174.34 Q2214.44 1174.34 2215.47 1175.29 Q2216.51 1176.24 2216.51 1177.93 Q2216.51 1178.32 2216.43 1178.83 Q2216.36 1179.32 2216.2 1179.95 Q2216.05 1180.57 2215.92 1181.05 Q2215.79 1181.52 2215.52 1182.29 Q2215.26 1183.05 2215.15 1183.37 Q2215.03 1183.7 2214.75 1184.47 Q2214.49 1185.23 2214.46 1185.31 Q2213.85 1186.83 2213.85 1187.7 Q2213.85 1188.28 2214.03 1188.54 Q2214.23 1188.8 2214.65 1188.8 Q2215.8 1188.8 2216.65 1187.67 Q2217.52 1186.52 2218.08 1184.65 Q2218.21 1184.24 2218.28 1184.15 Q2218.36 1184.05 2218.59 1184.05 Q2218.98 1184.05 2218.98 1184.37 Z" fill="#000000" fill-rule="nonzero" fill-opacity="1" /><path clip-path="url(#clip700)" d="M2234.02 1177.23 Q2234.02 1178.14 2233.56 1178.64 Q2233.11 1179.11 2232.48 1179.11 Q2231.97 1179.11 2231.7 1178.82 Q2231.43 1178.52 2231.43 1178.13 Q2231.43 1177.55 2231.89 1177.1 Q2232.37 1176.64 2233.06 1176.62 Q2232.83 1176.01 2232.22 1175.65 Q2231.61 1175.28 2231.07 1175.18 Q2230.55 1175.08 2230.02 1175.08 Q2228.99 1175.08 2228.2 1175.41 Q2227.42 1175.73 2227.02 1176.24 Q2226.63 1176.73 2226.45 1177.21 Q2226.27 1177.69 2226.27 1178.1 Q2226.27 1178.46 2226.35 1178.75 Q2226.45 1179.03 2226.68 1179.24 Q2226.91 1179.44 2227.07 1179.57 Q2227.25 1179.7 2227.65 1179.82 Q2228.04 1179.93 2228.2 1179.98 Q2228.37 1180.01 2228.83 1180.11 Q2229.78 1180.31 2230.2 1180.42 Q2230.63 1180.52 2231.19 1180.8 Q2231.76 1181.08 2232.19 1181.52 Q2233.22 1182.55 2233.22 1183.98 Q2233.22 1184.51 2233.04 1185.15 Q2232.88 1185.78 2232.4 1186.59 Q2231.93 1187.39 2231.2 1188.03 Q2230.48 1188.67 2229.24 1189.11 Q2228.01 1189.56 2226.47 1189.56 Q2224.32 1189.56 2222.99 1188.65 Q2221.66 1187.74 2221.66 1186.29 Q2221.66 1185.24 2222.24 1184.67 Q2222.81 1184.08 2223.55 1184.08 Q2224.1 1184.08 2224.45 1184.39 Q2224.79 1184.69 2224.79 1185.24 Q2224.79 1186 2224.19 1186.57 Q2223.58 1187.15 2222.68 1187.03 Q2223.45 1188.8 2226.5 1188.8 Q2227.65 1188.8 2228.53 1188.51 Q2229.43 1188.2 2229.93 1187.77 Q2230.43 1187.33 2230.76 1186.79 Q2231.09 1186.24 2231.19 1185.83 Q2231.3 1185.42 2231.3 1185.11 Q2231.3 1184.57 2231.09 1184.16 Q2230.88 1183.75 2230.58 1183.52 Q2230.3 1183.28 2229.76 1183.08 Q2229.24 1182.87 2228.86 1182.78 Q2228.48 1182.7 2227.81 1182.57 Q2227.5 1182.51 2227.3 1182.47 Q2227.11 1182.42 2226.7 1182.29 Q2226.3 1182.15 2226.02 1182 Q2225.76 1181.85 2225.42 1181.59 Q2225.07 1181.33 2224.86 1181.01 Q2224.65 1180.7 2224.5 1180.24 Q2224.35 1179.78 2224.35 1179.24 Q2224.35 1178.75 2224.5 1178.16 Q2224.66 1177.57 2225.07 1176.88 Q2225.5 1176.19 2226.1 1175.64 Q2226.71 1175.08 2227.73 1174.72 Q2228.76 1174.34 2230.02 1174.34 Q2231.86 1174.34 2232.94 1175.19 Q2234.02 1176.03 2234.02 1177.23 Z" fill="#000000" fill-rule="nonzero" fill-opacity="1" /><path clip-path="url(#clip700)" d="M2246.4 1175.08 Q2246.4 1175.54 2246.19 1175.65 Q2245.98 1175.75 2245.39 1175.75 L2242.24 1175.75 L2239.75 1185.65 Q2239.55 1186.52 2239.55 1187.26 Q2239.55 1188.08 2239.8 1188.44 Q2240.06 1188.8 2240.6 1188.8 Q2241.67 1188.8 2242.81 1187.83 Q2243.98 1186.87 2244.96 1184.51 Q2245.09 1184.19 2245.16 1184.13 Q2245.24 1184.05 2245.45 1184.05 Q2245.86 1184.05 2245.86 1184.37 Q2245.86 1184.49 2245.63 1185.01 Q2245.42 1185.54 2244.94 1186.31 Q2244.49 1187.08 2243.88 1187.8 Q2243.29 1188.52 2242.39 1189.05 Q2241.49 1189.56 2240.52 1189.56 Q2239.16 1189.56 2238.29 1188.69 Q2237.44 1187.82 2237.44 1186.46 Q2237.44 1186.01 2237.78 1184.6 Q2238.12 1183.18 2239.99 1175.75 L2237.03 1175.75 Q2236.62 1175.75 2236.45 1175.73 Q2236.3 1175.72 2236.19 1175.64 Q2236.09 1175.54 2236.09 1175.34 Q2236.09 1175.03 2236.22 1174.9 Q2236.35 1174.75 2236.52 1174.73 Q2236.7 1174.7 2237.11 1174.7 L2240.26 1174.7 L2241.57 1169.37 Q2241.7 1168.85 2242.03 1168.55 Q2242.37 1168.24 2242.57 1168.21 Q2242.76 1168.16 2242.91 1168.16 Q2243.35 1168.16 2243.62 1168.41 Q2243.88 1168.63 2243.88 1169.06 Q2243.88 1169.29 2242.5 1174.7 L2245.45 1174.7 Q2245.83 1174.7 2245.98 1174.72 Q2246.14 1174.73 2246.27 1174.82 Q2246.4 1174.9 2246.4 1175.08 Z" fill="#000000" fill-rule="nonzero" fill-opacity="1" /><polyline clip-path="url(#clip700)" style="stroke:#dfba53; stroke-linecap:round; stroke-linejoin:round; stroke-width:8; stroke-opacity:1; fill:none" stroke-dasharray="32, 20" points="1989.26,1223.85 2132.07,1223.85 "/>
<path clip-path="url(#clip700)" d="M2155.87 1249.38 Q2158.56 1249.38 2159.18 1249.04 Q2159.82 1248.72 2159.82 1247.11 L2159.82 1223.42 Q2159.82 1221.74 2159.18 1221.32 Q2158.56 1220.9 2155.87 1220.9 L2155.87 1219.32 L2163.16 1218.78 L2163.16 1222.11 Q2166.2 1218.78 2170.25 1218.78 Q2174.55 1218.78 2177.68 1222.11 Q2180.82 1225.44 2180.82 1230.21 Q2180.82 1235.03 2177.49 1238.36 Q2174.15 1241.7 2169.53 1241.7 Q2167.01 1241.7 2165.31 1240.42 Q2163.63 1239.11 2163.31 1238.14 L2163.31 1238.61 L2163.31 1247.11 Q2163.31 1248.74 2163.95 1249.06 Q2164.59 1249.38 2167.26 1249.38 L2167.26 1250.94 Q2161.95 1250.79 2161.55 1250.79 Q2161.06 1250.79 2155.87 1250.94 L2155.87 1249.38 M2163.31 1235.38 Q2163.31 1236.14 2163.4 1236.41 Q2163.53 1236.68 2164.02 1237.5 Q2166.02 1240.56 2169.28 1240.56 Q2169.31 1240.56 2169.33 1240.56 Q2172.22 1240.56 2174.42 1237.62 Q2176.62 1234.66 2176.62 1230.21 Q2176.62 1225.96 2174.62 1223 Q2172.62 1220.03 2169.85 1220.03 Q2167.88 1220.03 2166.15 1221.1 Q2164.42 1222.16 2163.31 1224.09 L2163.31 1235.38 Z" fill="#000000" fill-rule="nonzero" fill-opacity="1" /><path clip-path="url(#clip700)" d="M2185.34 1229.99 Q2185.34 1225.22 2188.4 1221.84 Q2191.47 1218.45 2195.87 1218.45 Q2200.31 1218.45 2202.61 1221.34 Q2204.93 1224.23 2204.93 1228.38 Q2204.93 1229.15 2204.73 1229.3 Q2204.54 1229.45 2203.67 1229.45 L2189.54 1229.45 Q2189.54 1234.61 2191.07 1237.03 Q2193.2 1240.42 2196.78 1240.42 Q2197.27 1240.42 2197.87 1240.32 Q2198.46 1240.22 2199.67 1239.8 Q2200.88 1239.35 2201.94 1238.19 Q2203 1237.03 2203.62 1235.2 Q2203.77 1234.49 2204.26 1234.51 Q2204.93 1234.51 2204.93 1235.1 Q2204.93 1235.55 2204.44 1236.56 Q2203.97 1237.55 2203.05 1238.74 Q2202.14 1239.92 2200.36 1240.81 Q2198.61 1241.7 2196.48 1241.7 Q2192.04 1241.7 2188.68 1238.34 Q2185.34 1234.96 2185.34 1229.99 M2189.59 1228.38 L2201.6 1228.38 Q2201.6 1227.32 2201.4 1226.14 Q2201.23 1224.95 2200.68 1223.32 Q2200.16 1221.67 2198.93 1220.63 Q2197.69 1219.59 2195.87 1219.59 Q2195.05 1219.59 2194.16 1219.94 Q2193.3 1220.28 2192.23 1221.12 Q2191.17 1221.96 2190.43 1223.86 Q2189.69 1225.77 2189.59 1228.38 Z" fill="#000000" fill-rule="nonzero" fill-opacity="1" /><path clip-path="url(#clip700)" d="M2208.51 1236.31 Q2208.51 1232.02 2213.58 1229.74 Q2216.62 1228.29 2222.89 1227.92 L2222.89 1226.06 Q2222.89 1222.93 2221.24 1221.27 Q2219.61 1219.59 2217.53 1219.59 Q2213.82 1219.59 2212.05 1221.91 Q2213.55 1221.96 2214.1 1222.73 Q2214.64 1223.47 2214.64 1224.23 Q2214.64 1225.25 2214 1225.91 Q2213.38 1226.56 2212.32 1226.56 Q2211.3 1226.56 2210.64 1225.94 Q2209.97 1225.3 2209.97 1224.19 Q2209.97 1221.71 2212.19 1220.08 Q2214.44 1218.45 2217.63 1218.45 Q2221.78 1218.45 2224.55 1221.25 Q2225.41 1222.11 2225.83 1223.22 Q2226.27 1224.33 2226.32 1225.07 Q2226.37 1225.79 2226.37 1227.22 L2226.37 1237.33 Q2226.37 1237.62 2226.47 1238.12 Q2226.57 1238.61 2227.02 1239.25 Q2227.49 1239.87 2228.25 1239.87 Q2230.08 1239.87 2230.05 1236.64 L2230.05 1233.79 L2231.34 1233.79 L2231.34 1236.64 Q2231.34 1239.33 2229.91 1240.39 Q2228.5 1241.43 2227.19 1241.43 Q2225.51 1241.43 2224.45 1240.19 Q2223.38 1238.96 2223.24 1237.28 Q2222.47 1239.2 2220.72 1240.46 Q2218.99 1241.7 2216.62 1241.7 Q2214.79 1241.7 2213.06 1241.23 Q2211.35 1240.79 2209.92 1239.53 Q2208.51 1238.24 2208.51 1236.31 M2212.42 1236.27 Q2212.42 1238.14 2213.75 1239.35 Q2215.08 1240.56 2216.96 1240.56 Q2219.09 1240.56 2220.99 1238.93 Q2222.89 1237.28 2222.89 1234.04 L2222.89 1228.98 Q2217.28 1229.18 2214.84 1231.42 Q2212.42 1233.65 2212.42 1236.27 Z" fill="#000000" fill-rule="nonzero" fill-opacity="1" /><path clip-path="url(#clip700)" d="M2233.09 1241.13 L2233.09 1239.58 Q2235.79 1239.58 2236.4 1239.25 Q2237.05 1238.91 2237.05 1237.28 L2237.05 1210.97 Q2237.05 1209.09 2236.38 1208.62 Q2235.74 1208.15 2233.09 1208.15 L2233.09 1206.57 L2240.38 1206.03 L2240.38 1230.31 L2247.52 1224.14 Q2248.63 1223.17 2248.63 1222.16 Q2248.63 1221 2247.17 1220.9 L2247.17 1219.32 Q2249.3 1219.47 2252.83 1219.47 Q2254.91 1219.47 2256.36 1219.32 L2256.36 1220.9 Q2253.18 1221.05 2249.99 1223.62 Q2249.27 1224.19 2247.57 1225.67 Q2245.89 1227.12 2245.89 1227.27 Q2245.89 1227.32 2245.94 1227.45 Q2246.01 1227.57 2246.11 1227.67 Q2246.21 1227.77 2246.21 1227.82 L2252.63 1236.88 Q2253.94 1238.71 2254.91 1239.16 Q2255.87 1239.58 2257.55 1239.58 L2257.55 1241.13 Q2255.38 1240.98 2253.13 1240.98 Q2251.92 1240.98 2247.67 1241.13 L2247.67 1239.58 Q2249.5 1239.58 2249.5 1238.39 Q2249.5 1237.57 2245.4 1231.92 Q2245.1 1231.52 2244.43 1230.66 Q2243.81 1229.74 2243.47 1229.3 L2240.23 1232.07 L2240.23 1237.28 Q2240.23 1238.91 2240.85 1239.25 Q2241.49 1239.58 2244.18 1239.58 L2244.18 1241.13 Q2241.15 1240.98 2238.63 1240.98 Q2238.11 1240.98 2233.09 1241.13 Z" fill="#000000" fill-rule="nonzero" fill-opacity="1" /><polyline clip-path="url(#clip700)" style="stroke:#4a7945; stroke-linecap:round; stroke-linejoin:round; stroke-width:8; stroke-opacity:1; fill:none" stroke-dasharray="32, 20" points="1989.26,1275.69 2132.07,1275.69 "/>
<path clip-path="url(#clip700)" d="M2155.87 1292.97 L2155.87 1291.42 Q2158.56 1291.42 2159.18 1291.09 Q2159.8 1290.75 2159.8 1289.12 L2159.8 1262.81 Q2159.8 1260.93 2159.13 1260.46 Q2158.49 1259.99 2155.87 1259.99 L2155.87 1258.41 L2163.13 1257.87 L2163.13 1289.12 Q2163.13 1290.75 2163.78 1291.09 Q2164.42 1291.42 2167.09 1291.42 L2167.09 1292.97 Q2166.47 1292.97 2165.18 1292.92 Q2163.9 1292.87 2162.96 1292.85 Q2162.02 1292.82 2161.48 1292.82 Q2160.89 1292.82 2155.87 1292.97 Z" fill="#000000" fill-rule="nonzero" fill-opacity="1" /><path clip-path="url(#clip700)" d="M2169.61 1259.99 L2169.61 1258.41 L2176.89 1257.87 L2176.89 1273.9 Q2179.83 1270.62 2183.83 1270.62 Q2188.18 1270.62 2191.37 1273.95 Q2194.56 1277.28 2194.56 1282.05 Q2194.56 1286.87 2191.22 1290.2 Q2187.89 1293.54 2183.27 1293.54 Q2179.07 1293.54 2176.65 1289.83 Q2174.87 1292.92 2174.82 1292.97 L2173.56 1292.97 L2173.56 1262.81 Q2173.56 1260.93 2172.89 1260.46 Q2172.22 1259.99 2169.61 1259.99 M2177.04 1287.22 Q2177.04 1288.28 2177.76 1289.34 Q2179.76 1292.4 2183.02 1292.4 Q2183.04 1292.4 2183.07 1292.4 Q2186.6 1292.4 2188.8 1289.17 Q2190.36 1286.75 2190.36 1282 Q2190.36 1277.31 2188.9 1274.96 Q2186.87 1271.73 2183.59 1271.73 Q2179.88 1271.73 2177.61 1274.96 Q2177.04 1275.78 2177.04 1276.79 L2177.04 1287.22 Z" fill="#000000" fill-rule="nonzero" fill-opacity="1" /><polyline clip-path="url(#clip700)" style="stroke:#ba3d3a; stroke-linecap:round; stroke-linejoin:round; stroke-width:8; stroke-opacity:1; fill:none" stroke-dasharray="32, 20" points="1989.26,1327.53 2132.07,1327.53 "/>
<path clip-path="url(#clip700)" d="M2155.87 1324.58 L2155.87 1323 L2163.31 1322.46 L2163.31 1339.25 Q2163.31 1340.46 2163.4 1341.18 Q2163.5 1341.87 2163.9 1342.69 Q2164.32 1343.5 2165.26 1343.87 Q2166.22 1344.24 2167.75 1344.24 Q2170.49 1344.24 2172.17 1342 Q2173.88 1339.75 2173.88 1336.41 L2173.88 1327.4 Q2173.88 1325.52 2173.21 1325.05 Q2172.55 1324.58 2169.93 1324.58 L2169.93 1323 L2177.36 1322.46 L2177.36 1340.41 Q2177.36 1342.29 2178 1342.79 Q2178.67 1343.26 2181.31 1343.26 L2181.31 1344.81 L2174.03 1345.38 L2174.03 1340.81 Q2171.9 1345.36 2167.51 1345.38 Q2165.28 1345.38 2163.75 1344.81 Q2162.24 1344.24 2161.48 1343.55 Q2160.71 1342.84 2160.29 1341.48 Q2159.9 1340.12 2159.85 1339.28 Q2159.8 1338.44 2159.8 1336.81 L2159.8 1329.22 Q2159.8 1325.79 2159.3 1325.2 Q2158.81 1324.58 2155.87 1324.58 Z" fill="#000000" fill-rule="nonzero" fill-opacity="1" /><path clip-path="url(#clip700)" d="M2183.71 1311.83 L2183.71 1310.25 L2191 1309.71 L2191 1325.74 Q2193.94 1322.46 2197.94 1322.46 Q2202.29 1322.46 2205.47 1325.79 Q2208.66 1329.12 2208.66 1333.89 Q2208.66 1338.71 2205.33 1342.04 Q2201.99 1345.38 2197.37 1345.38 Q2193.17 1345.38 2190.75 1341.67 Q2188.97 1344.76 2188.92 1344.81 L2187.66 1344.81 L2187.66 1314.65 Q2187.66 1312.77 2187 1312.3 Q2186.33 1311.83 2183.71 1311.83 M2191.15 1339.06 Q2191.15 1340.12 2191.86 1341.18 Q2193.86 1344.24 2197.13 1344.24 Q2197.15 1344.24 2197.17 1344.24 Q2200.71 1344.24 2202.91 1341.01 Q2204.46 1338.59 2204.46 1333.84 Q2204.46 1329.15 2203 1326.8 Q2200.98 1323.57 2197.69 1323.57 Q2193.99 1323.57 2191.71 1326.8 Q2191.15 1327.62 2191.15 1328.63 L2191.15 1339.06 Z" fill="#000000" fill-rule="nonzero" fill-opacity="1" /></svg>
