<?xml version="1.0" encoding="utf-8"?>
<svg xmlns="http://www.w3.org/2000/svg" xmlns:xlink="http://www.w3.org/1999/xlink" width="600" height="400" viewBox="0 0 2400 1600">
<defs>
  <clipPath id="clip020">
    <rect x="0" y="0" width="2400" height="1600"/>
  </clipPath>
</defs>
<path clip-path="url(#clip020)" d="M0 1600 L2400 1600 L2400 0 L0 0  Z" fill="#ffffff" fill-rule="evenodd" fill-opacity="1"/>
<defs>
  <clipPath id="clip021">
    <rect x="480" y="0" width="1681" height="1600"/>
  </clipPath>
</defs>
<path clip-path="url(#clip020)" d="M175.445 1423.18 L2352.76 1423.18 L2352.76 47.2441 L175.445 47.2441  Z" fill="#ffffff" fill-rule="evenodd" fill-opacity="1"/>
<defs>
  <clipPath id="clip022">
    <rect x="175" y="47" width="2178" height="1377"/>
  </clipPath>
</defs>
<polyline clip-path="url(#clip022)" style="stroke:#000000; stroke-linecap:round; stroke-linejoin:round; stroke-width:2; stroke-opacity:0.1; fill:none" points="237.067,1423.18 237.067,47.2441 "/>
<polyline clip-path="url(#clip022)" style="stroke:#000000; stroke-linecap:round; stroke-linejoin:round; stroke-width:2; stroke-opacity:0.1; fill:none" points="751.098,1423.18 751.098,47.2441 "/>
<polyline clip-path="url(#clip022)" style="stroke:#000000; stroke-linecap:round; stroke-linejoin:round; stroke-width:2; stroke-opacity:0.1; fill:none" points="1265.13,1423.18 1265.13,47.2441 "/>
<polyline clip-path="url(#clip022)" style="stroke:#000000; stroke-linecap:round; stroke-linejoin:round; stroke-width:2; stroke-opacity:0.1; fill:none" points="1779.16,1423.18 1779.16,47.2441 "/>
<polyline clip-path="url(#clip022)" style="stroke:#000000; stroke-linecap:round; stroke-linejoin:round; stroke-width:2; stroke-opacity:0.1; fill:none" points="2293.19,1423.18 2293.19,47.2441 "/>
<polyline clip-path="url(#clip020)" style="stroke:#000000; stroke-linecap:round; stroke-linejoin:round; stroke-width:4; stroke-opacity:1; fill:none" points="175.445,1423.18 2352.76,1423.18 "/>
<polyline clip-path="url(#clip020)" style="stroke:#000000; stroke-linecap:round; stroke-linejoin:round; stroke-width:4; stroke-opacity:1; fill:none" points="237.067,1423.18 237.067,1404.28 "/>
<polyline clip-path="url(#clip020)" style="stroke:#000000; stroke-linecap:round; stroke-linejoin:round; stroke-width:4; stroke-opacity:1; fill:none" points="751.098,1423.18 751.098,1404.28 "/>
<polyline clip-path="url(#clip020)" style="stroke:#000000; stroke-linecap:round; stroke-linejoin:round; stroke-width:4; stroke-opacity:1; fill:none" points="1265.13,1423.18 1265.13,1404.28 "/>
<polyline clip-path="url(#clip020)" style="stroke:#000000; stroke-linecap:round; stroke-linejoin:round; stroke-width:4; stroke-opacity:1; fill:none" points="1779.16,1423.18 1779.16,1404.28 "/>
<polyline clip-path="url(#clip020)" style="stroke:#000000; stroke-linecap:round; stroke-linejoin:round; stroke-width:4; stroke-opacity:1; fill:none" points="2293.19,1423.18 2293.19,1404.28 "/>
<path clip-path="url(#clip020)" d="M237.067 1454.1 Q233.456 1454.1 231.627 1457.66 Q229.822 1461.2 229.822 1468.33 Q229.822 1475.44 231.627 1479.01 Q233.456 1482.55 237.067 1482.55 Q240.701 1482.55 242.507 1479.01 Q244.336 1475.44 244.336 1468.33 Q244.336 1461.2 242.507 1457.66 Q240.701 1454.1 237.067 1454.1 M237.067 1450.39 Q242.877 1450.39 245.933 1455 Q249.012 1459.58 249.012 1468.33 Q249.012 1477.06 245.933 1481.67 Q242.877 1486.25 237.067 1486.25 Q231.257 1486.25 228.178 1481.67 Q225.123 1477.06 225.123 1468.33 Q225.123 1459.58 228.178 1455 Q231.257 1450.39 237.067 1450.39 Z" fill="#000000" fill-rule="nonzero" fill-opacity="1" /><path clip-path="url(#clip020)" d="M730.369 1481.64 L746.688 1481.64 L746.688 1485.58 L724.744 1485.58 L724.744 1481.64 Q727.406 1478.89 731.989 1474.26 Q736.596 1469.61 737.776 1468.27 Q740.022 1465.74 740.901 1464.01 Q741.804 1462.25 741.804 1460.56 Q741.804 1457.8 739.86 1456.07 Q737.938 1454.33 734.836 1454.33 Q732.637 1454.33 730.184 1455.09 Q727.753 1455.86 724.975 1457.41 L724.975 1452.69 Q727.799 1451.55 730.253 1450.97 Q732.707 1450.39 734.744 1450.39 Q740.114 1450.39 743.309 1453.08 Q746.503 1455.77 746.503 1460.26 Q746.503 1462.39 745.693 1464.31 Q744.906 1466.2 742.799 1468.8 Q742.221 1469.47 739.119 1472.69 Q736.017 1475.88 730.369 1481.64 Z" fill="#000000" fill-rule="nonzero" fill-opacity="1" /><path clip-path="url(#clip020)" d="M756.549 1451.02 L774.906 1451.02 L774.906 1454.96 L760.832 1454.96 L760.832 1463.43 Q761.85 1463.08 762.869 1462.92 Q763.887 1462.73 764.906 1462.73 Q770.693 1462.73 774.072 1465.9 Q777.452 1469.08 777.452 1474.49 Q777.452 1480.07 773.98 1483.17 Q770.508 1486.25 764.188 1486.25 Q762.012 1486.25 759.744 1485.88 Q757.498 1485.51 755.091 1484.77 L755.091 1480.07 Q757.174 1481.2 759.396 1481.76 Q761.619 1482.32 764.096 1482.32 Q768.1 1482.32 770.438 1480.21 Q772.776 1478.1 772.776 1474.49 Q772.776 1470.88 770.438 1468.77 Q768.1 1466.67 764.096 1466.67 Q762.221 1466.67 760.346 1467.08 Q758.494 1467.5 756.549 1468.38 L756.549 1451.02 Z" fill="#000000" fill-rule="nonzero" fill-opacity="1" /><path clip-path="url(#clip020)" d="M1239.83 1451.02 L1258.18 1451.02 L1258.18 1454.96 L1244.11 1454.96 L1244.11 1463.43 Q1245.13 1463.08 1246.15 1462.92 Q1247.17 1462.73 1248.18 1462.73 Q1253.97 1462.73 1257.35 1465.9 Q1260.73 1469.08 1260.73 1474.49 Q1260.73 1480.07 1257.26 1483.17 Q1253.79 1486.25 1247.47 1486.25 Q1245.29 1486.25 1243.02 1485.88 Q1240.78 1485.51 1238.37 1484.77 L1238.37 1480.07 Q1240.45 1481.2 1242.68 1481.76 Q1244.9 1482.32 1247.37 1482.32 Q1251.38 1482.32 1253.72 1480.21 Q1256.05 1478.1 1256.05 1474.49 Q1256.05 1470.88 1253.72 1468.77 Q1251.38 1466.67 1247.37 1466.67 Q1245.5 1466.67 1243.62 1467.08 Q1241.77 1467.5 1239.83 1468.38 L1239.83 1451.02 Z" fill="#000000" fill-rule="nonzero" fill-opacity="1" /><path clip-path="url(#clip020)" d="M1279.94 1454.1 Q1276.33 1454.1 1274.5 1457.66 Q1272.7 1461.2 1272.7 1468.33 Q1272.7 1475.44 1274.5 1479.01 Q1276.33 1482.55 1279.94 1482.55 Q1283.58 1482.55 1285.38 1479.01 Q1287.21 1475.44 1287.21 1468.33 Q1287.21 1461.2 1285.38 1457.66 Q1283.58 1454.1 1279.94 1454.1 M1279.94 1450.39 Q1285.75 1450.39 1288.81 1455 Q1291.89 1459.58 1291.89 1468.33 Q1291.89 1477.06 1288.81 1481.67 Q1285.75 1486.25 1279.94 1486.25 Q1274.13 1486.25 1271.05 1481.67 Q1268 1477.06 1268 1468.33 Q1268 1459.58 1271.05 1455 Q1274.13 1450.39 1279.94 1450.39 Z" fill="#000000" fill-rule="nonzero" fill-opacity="1" /><path clip-path="url(#clip020)" d="M1753.01 1451.02 L1775.24 1451.02 L1775.24 1453.01 L1762.69 1485.58 L1757.81 1485.58 L1769.61 1454.96 L1753.01 1454.96 L1753.01 1451.02 Z" fill="#000000" fill-rule="nonzero" fill-opacity="1" /><path clip-path="url(#clip020)" d="M1784.4 1451.02 L1802.76 1451.02 L1802.76 1454.96 L1788.68 1454.96 L1788.68 1463.43 Q1789.7 1463.08 1790.72 1462.92 Q1791.74 1462.73 1792.76 1462.73 Q1798.55 1462.73 1801.93 1465.9 Q1805.31 1469.08 1805.31 1474.49 Q1805.31 1480.07 1801.83 1483.17 Q1798.36 1486.25 1792.04 1486.25 Q1789.87 1486.25 1787.6 1485.88 Q1785.35 1485.51 1782.94 1484.77 L1782.94 1480.07 Q1785.03 1481.2 1787.25 1481.76 Q1789.47 1482.32 1791.95 1482.32 Q1795.95 1482.32 1798.29 1480.21 Q1800.63 1478.1 1800.63 1474.49 Q1800.63 1470.88 1798.29 1468.77 Q1795.95 1466.67 1791.95 1466.67 Q1790.07 1466.67 1788.2 1467.08 Q1786.35 1467.5 1784.4 1468.38 L1784.4 1451.02 Z" fill="#000000" fill-rule="nonzero" fill-opacity="1" /><path clip-path="url(#clip020)" d="M2252.8 1481.64 L2260.44 1481.64 L2260.44 1455.28 L2252.13 1456.95 L2252.13 1452.69 L2260.39 1451.02 L2265.07 1451.02 L2265.07 1481.64 L2272.7 1481.64 L2272.7 1485.58 L2252.8 1485.58 L2252.8 1481.64 Z" fill="#000000" fill-rule="nonzero" fill-opacity="1" /><path clip-path="url(#clip020)" d="M2292.15 1454.1 Q2288.54 1454.1 2286.71 1457.66 Q2284.9 1461.2 2284.9 1468.33 Q2284.9 1475.44 2286.71 1479.01 Q2288.54 1482.55 2292.15 1482.55 Q2295.78 1482.55 2297.59 1479.01 Q2299.42 1475.44 2299.42 1468.33 Q2299.42 1461.2 2297.59 1457.66 Q2295.78 1454.1 2292.15 1454.1 M2292.15 1450.39 Q2297.96 1450.39 2301.01 1455 Q2304.09 1459.58 2304.09 1468.33 Q2304.09 1477.06 2301.01 1481.67 Q2297.96 1486.25 2292.15 1486.25 Q2286.34 1486.25 2283.26 1481.67 Q2280.2 1477.06 2280.2 1468.33 Q2280.2 1459.58 2283.26 1455 Q2286.34 1450.39 2292.15 1450.39 Z" fill="#000000" fill-rule="nonzero" fill-opacity="1" /><path clip-path="url(#clip020)" d="M2322.31 1454.1 Q2318.7 1454.1 2316.87 1457.66 Q2315.06 1461.2 2315.06 1468.33 Q2315.06 1475.44 2316.87 1479.01 Q2318.7 1482.55 2322.31 1482.55 Q2325.94 1482.55 2327.75 1479.01 Q2329.58 1475.44 2329.58 1468.33 Q2329.58 1461.2 2327.75 1457.66 Q2325.94 1454.1 2322.31 1454.1 M2322.31 1450.39 Q2328.12 1450.39 2331.18 1455 Q2334.25 1459.58 2334.25 1468.33 Q2334.25 1477.06 2331.18 1481.67 Q2328.12 1486.25 2322.31 1486.25 Q2316.5 1486.25 2313.42 1481.67 Q2310.37 1477.06 2310.37 1468.33 Q2310.37 1459.58 2313.42 1455 Q2316.5 1450.39 2322.31 1450.39 Z" fill="#000000" fill-rule="nonzero" fill-opacity="1" /><path clip-path="url(#clip020)" d="M1233.96 1528.17 Q1233.96 1529.07 1233.54 1529.3 Q1233.12 1529.49 1231.96 1529.49 L1225.78 1529.49 L1220.88 1548.94 Q1220.5 1550.65 1220.5 1552.1 Q1220.5 1553.71 1220.98 1554.42 Q1221.49 1555.13 1222.56 1555.13 Q1224.65 1555.13 1226.91 1553.23 Q1229.19 1551.33 1231.12 1546.69 Q1231.38 1546.08 1231.51 1545.95 Q1231.67 1545.79 1232.09 1545.79 Q1232.9 1545.79 1232.9 1546.43 Q1232.9 1546.66 1232.44 1547.69 Q1232.03 1548.72 1231.09 1550.23 Q1230.19 1551.75 1229 1553.16 Q1227.84 1554.58 1226.07 1555.61 Q1224.3 1556.61 1222.4 1556.61 Q1219.72 1556.61 1218.02 1554.9 Q1216.34 1553.19 1216.34 1550.52 Q1216.34 1549.65 1217.02 1546.88 Q1217.69 1544.08 1221.37 1529.49 L1215.54 1529.49 Q1214.73 1529.49 1214.41 1529.46 Q1214.12 1529.43 1213.89 1529.27 Q1213.7 1529.07 1213.7 1528.69 Q1213.7 1528.07 1213.96 1527.82 Q1214.22 1527.53 1214.54 1527.49 Q1214.89 1527.43 1215.7 1527.43 L1221.88 1527.43 L1224.46 1516.96 Q1224.72 1515.93 1225.36 1515.35 Q1226.04 1514.74 1226.42 1514.68 Q1226.81 1514.58 1227.1 1514.58 Q1227.97 1514.58 1228.48 1515.06 Q1229 1515.51 1229 1516.35 Q1229 1516.8 1226.29 1527.43 L1232.09 1527.43 Q1232.83 1527.43 1233.12 1527.46 Q1233.44 1527.49 1233.7 1527.66 Q1233.96 1527.82 1233.96 1528.17 Z" fill="#000000" fill-rule="nonzero" fill-opacity="1" /><path clip-path="url(#clip020)" d="M1254.7 1572.36 L1254.7 1506.4 L1264.66 1506.4 L1264.66 1507.91 L1259.12 1507.91 L1259.12 1570.84 L1264.66 1570.84 L1264.66 1572.36 L1254.7 1572.36 Z" fill="#000000" fill-rule="nonzero" fill-opacity="1" /><path clip-path="url(#clip020)" d="M1291.59 1532.39 Q1291.59 1534.19 1290.69 1535.16 Q1289.79 1536.09 1288.57 1536.09 Q1287.57 1536.09 1287.02 1535.51 Q1286.51 1534.93 1286.51 1534.16 Q1286.51 1533.03 1287.41 1532.13 Q1288.34 1531.23 1289.69 1531.2 Q1289.24 1530.01 1288.05 1529.3 Q1286.86 1528.56 1285.8 1528.36 Q1284.77 1528.17 1283.74 1528.17 Q1281.71 1528.17 1280.16 1528.81 Q1278.62 1529.46 1277.84 1530.46 Q1277.07 1531.42 1276.72 1532.36 Q1276.36 1533.29 1276.36 1534.1 Q1276.36 1534.81 1276.52 1535.38 Q1276.72 1535.93 1277.17 1536.35 Q1277.62 1536.74 1277.94 1537 Q1278.29 1537.25 1279.07 1537.48 Q1279.84 1537.7 1280.16 1537.8 Q1280.48 1537.86 1281.39 1538.06 Q1283.25 1538.44 1284.09 1538.67 Q1284.93 1538.86 1286.02 1539.41 Q1287.15 1539.96 1287.99 1540.83 Q1290.02 1542.86 1290.02 1545.66 Q1290.02 1546.69 1289.66 1547.95 Q1289.34 1549.2 1288.41 1550.78 Q1287.47 1552.36 1286.06 1553.61 Q1284.64 1554.87 1282.19 1555.74 Q1279.77 1556.61 1276.75 1556.61 Q1272.53 1556.61 1269.92 1554.84 Q1267.31 1553.03 1267.31 1550.2 Q1267.31 1548.14 1268.44 1547.01 Q1269.57 1545.85 1271.01 1545.85 Q1272.11 1545.85 1272.79 1546.46 Q1273.46 1547.04 1273.46 1548.14 Q1273.46 1549.62 1272.27 1550.75 Q1271.08 1551.87 1269.31 1551.65 Q1270.82 1555.13 1276.81 1555.13 Q1279.07 1555.13 1280.81 1554.55 Q1282.58 1553.94 1283.54 1553.1 Q1284.54 1552.23 1285.19 1551.17 Q1285.83 1550.1 1286.02 1549.3 Q1286.25 1548.49 1286.25 1547.88 Q1286.25 1546.82 1285.83 1546.01 Q1285.41 1545.21 1284.83 1544.76 Q1284.28 1544.27 1283.22 1543.89 Q1282.19 1543.47 1281.45 1543.31 Q1280.71 1543.15 1279.39 1542.89 Q1278.78 1542.76 1278.39 1542.7 Q1278 1542.6 1277.2 1542.34 Q1276.43 1542.05 1275.88 1541.76 Q1275.36 1541.47 1274.69 1540.96 Q1274.01 1540.44 1273.59 1539.83 Q1273.17 1539.22 1272.88 1538.32 Q1272.59 1537.41 1272.59 1536.35 Q1272.59 1535.38 1272.88 1534.23 Q1273.2 1533.07 1274.01 1531.71 Q1274.85 1530.36 1276.04 1529.27 Q1277.23 1528.17 1279.23 1527.46 Q1281.26 1526.72 1283.74 1526.72 Q1287.34 1526.72 1289.47 1528.4 Q1291.59 1530.04 1291.59 1532.39 Z" fill="#000000" fill-rule="nonzero" fill-opacity="1" /><path clip-path="url(#clip020)" d="M1296.35 1570.84 L1301.89 1570.84 L1301.89 1507.91 L1296.35 1507.91 L1296.35 1506.4 L1306.3 1506.4 L1306.3 1572.36 L1296.35 1572.36 L1296.35 1570.84 Z" fill="#000000" fill-rule="nonzero" fill-opacity="1" /><polyline clip-path="url(#clip022)" style="stroke:#000000; stroke-linecap:round; stroke-linejoin:round; stroke-width:2; stroke-opacity:0.1; fill:none" points="175.445,1384.46 2352.76,1384.46 "/>
<polyline clip-path="url(#clip022)" style="stroke:#000000; stroke-linecap:round; stroke-linejoin:round; stroke-width:2; stroke-opacity:0.1; fill:none" points="175.445,1095.87 2352.76,1095.87 "/>
<polyline clip-path="url(#clip022)" style="stroke:#000000; stroke-linecap:round; stroke-linejoin:round; stroke-width:2; stroke-opacity:0.1; fill:none" points="175.445,807.282 2352.76,807.282 "/>
<polyline clip-path="url(#clip022)" style="stroke:#000000; stroke-linecap:round; stroke-linejoin:round; stroke-width:2; stroke-opacity:0.1; fill:none" points="175.445,518.691 2352.76,518.691 "/>
<polyline clip-path="url(#clip022)" style="stroke:#000000; stroke-linecap:round; stroke-linejoin:round; stroke-width:2; stroke-opacity:0.1; fill:none" points="175.445,230.1 2352.76,230.1 "/>
<polyline clip-path="url(#clip020)" style="stroke:#000000; stroke-linecap:round; stroke-linejoin:round; stroke-width:4; stroke-opacity:1; fill:none" points="175.445,1423.18 175.445,47.2441 "/>
<polyline clip-path="url(#clip020)" style="stroke:#000000; stroke-linecap:round; stroke-linejoin:round; stroke-width:4; stroke-opacity:1; fill:none" points="175.445,1384.46 194.343,1384.46 "/>
<polyline clip-path="url(#clip020)" style="stroke:#000000; stroke-linecap:round; stroke-linejoin:round; stroke-width:4; stroke-opacity:1; fill:none" points="175.445,1095.87 194.343,1095.87 "/>
<polyline clip-path="url(#clip020)" style="stroke:#000000; stroke-linecap:round; stroke-linejoin:round; stroke-width:4; stroke-opacity:1; fill:none" points="175.445,807.282 194.343,807.282 "/>
<polyline clip-path="url(#clip020)" style="stroke:#000000; stroke-linecap:round; stroke-linejoin:round; stroke-width:4; stroke-opacity:1; fill:none" points="175.445,518.691 194.343,518.691 "/>
<polyline clip-path="url(#clip020)" style="stroke:#000000; stroke-linecap:round; stroke-linejoin:round; stroke-width:4; stroke-opacity:1; fill:none" points="175.445,230.1 194.343,230.1 "/>
<path clip-path="url(#clip020)" d="M127.501 1370.26 Q123.89 1370.26 122.061 1373.83 Q120.255 1377.37 120.255 1384.5 Q120.255 1391.6 122.061 1395.17 Q123.89 1398.71 127.501 1398.71 Q131.135 1398.71 132.941 1395.17 Q134.769 1391.6 134.769 1384.5 Q134.769 1377.37 132.941 1373.83 Q131.135 1370.26 127.501 1370.26 M127.501 1366.56 Q133.311 1366.56 136.367 1371.16 Q139.445 1375.75 139.445 1384.5 Q139.445 1393.23 136.367 1397.83 Q133.311 1402.41 127.501 1402.41 Q121.691 1402.41 118.612 1397.83 Q115.556 1393.23 115.556 1384.5 Q115.556 1375.75 118.612 1371.16 Q121.691 1366.56 127.501 1366.56 Z" fill="#000000" fill-rule="nonzero" fill-opacity="1" /><path clip-path="url(#clip020)" d="M123.126 1109.22 L139.445 1109.22 L139.445 1113.15 L117.501 1113.15 L117.501 1109.22 Q120.163 1106.46 124.746 1101.83 Q129.353 1097.18 130.533 1095.84 Q132.779 1093.31 133.658 1091.58 Q134.561 1089.82 134.561 1088.13 Q134.561 1085.37 132.617 1083.64 Q130.695 1081.9 127.593 1081.9 Q125.394 1081.9 122.941 1082.67 Q120.51 1083.43 117.732 1084.98 L117.732 1080.26 Q120.556 1079.12 123.01 1078.55 Q125.464 1077.97 127.501 1077.97 Q132.871 1077.97 136.066 1080.65 Q139.26 1083.34 139.26 1087.83 Q139.26 1089.96 138.45 1091.88 Q137.663 1093.78 135.556 1096.37 Q134.978 1097.04 131.876 1100.26 Q128.774 1103.45 123.126 1109.22 Z" fill="#000000" fill-rule="nonzero" fill-opacity="1" /><path clip-path="url(#clip020)" d="M129.862 794.076 L118.056 812.525 L129.862 812.525 L129.862 794.076 M128.635 790.002 L134.515 790.002 L134.515 812.525 L139.445 812.525 L139.445 816.414 L134.515 816.414 L134.515 824.562 L129.862 824.562 L129.862 816.414 L114.26 816.414 L114.26 811.9 L128.635 790.002 Z" fill="#000000" fill-rule="nonzero" fill-opacity="1" /><path clip-path="url(#clip020)" d="M127.917 516.827 Q124.769 516.827 122.918 518.98 Q121.089 521.133 121.089 524.883 Q121.089 528.61 122.918 530.786 Q124.769 532.938 127.917 532.938 Q131.066 532.938 132.894 530.786 Q134.746 528.61 134.746 524.883 Q134.746 521.133 132.894 518.98 Q131.066 516.827 127.917 516.827 M137.2 502.175 L137.2 506.434 Q135.441 505.6 133.635 505.161 Q131.853 504.721 130.093 504.721 Q125.464 504.721 123.01 507.846 Q120.58 510.971 120.232 517.29 Q121.598 515.276 123.658 514.212 Q125.718 513.124 128.195 513.124 Q133.404 513.124 136.413 516.295 Q139.445 519.443 139.445 524.883 Q139.445 530.207 136.297 533.424 Q133.149 536.642 127.917 536.642 Q121.922 536.642 118.751 532.059 Q115.58 527.452 115.58 518.725 Q115.58 510.531 119.468 505.67 Q123.357 500.786 129.908 500.786 Q131.667 500.786 133.45 501.133 Q135.255 501.48 137.2 502.175 Z" fill="#000000" fill-rule="nonzero" fill-opacity="1" /><path clip-path="url(#clip020)" d="M127.593 230.968 Q124.26 230.968 122.339 232.75 Q120.441 234.533 120.441 237.658 Q120.441 240.783 122.339 242.565 Q124.26 244.347 127.593 244.347 Q130.927 244.347 132.848 242.565 Q134.769 240.759 134.769 237.658 Q134.769 234.533 132.848 232.75 Q130.95 230.968 127.593 230.968 M122.918 228.977 Q119.908 228.236 118.218 226.176 Q116.552 224.116 116.552 221.153 Q116.552 217.01 119.492 214.602 Q122.455 212.195 127.593 212.195 Q132.755 212.195 135.695 214.602 Q138.635 217.01 138.635 221.153 Q138.635 224.116 136.945 226.176 Q135.279 228.236 132.292 228.977 Q135.672 229.764 137.547 232.056 Q139.445 234.347 139.445 237.658 Q139.445 242.681 136.367 245.366 Q133.311 248.051 127.593 248.051 Q121.876 248.051 118.797 245.366 Q115.742 242.681 115.742 237.658 Q115.742 234.347 117.64 232.056 Q119.538 229.764 122.918 228.977 M121.205 221.593 Q121.205 224.278 122.871 225.783 Q124.561 227.287 127.593 227.287 Q130.603 227.287 132.292 225.783 Q134.005 224.278 134.005 221.593 Q134.005 218.908 132.292 217.403 Q130.603 215.898 127.593 215.898 Q124.561 215.898 122.871 217.403 Q121.205 218.908 121.205 221.593 Z" fill="#000000" fill-rule="nonzero" fill-opacity="1" /><path clip-path="url(#clip020)" d="M82.5735 778.475 L16.6159 778.475 L16.6159 768.523 L18.1296 768.523 L18.1296 774.063 L81.0598 774.063 L81.0598 768.523 L82.5735 768.523 L82.5735 778.475 Z" fill="#000000" fill-rule="nonzero" fill-opacity="1" /><path clip-path="url(#clip020)" d="M56.6478 713.147 Q56.9054 713.147 57.9038 713.437 Q58.9022 713.727 60.4481 714.436 Q61.994 715.112 63.411 716.078 Q64.7959 717.012 65.8264 718.558 Q66.8248 720.072 66.8248 721.811 Q66.8248 724.129 65.2789 725.675 Q63.7331 727.221 61.4142 727.221 Q60.1582 727.221 57.775 726.352 Q46.8894 722.262 42.9925 722.262 Q38.3871 722.262 38.3871 725.836 Q38.3871 727.865 39.2244 729.701 Q40.0618 731.537 41.2212 732.728 Q42.3806 733.92 43.701 734.854 Q45.0215 735.788 45.891 736.207 Q46.7606 736.593 47.147 736.69 L63.0567 740.651 Q64.4094 740.973 65.0535 741.199 Q65.6976 741.424 66.2451 742.036 Q66.8248 742.648 66.8248 743.614 Q66.8248 744.419 66.3417 744.999 Q65.8587 745.546 65.0213 745.546 Q64.8925 745.546 64.2162 745.385 Q63.5398 745.224 62.6059 744.999 Q61.6719 744.773 61.1244 744.677 Q56.7444 743.517 56.1325 743.356 L48.4675 741.521 Q44.6672 740.522 42.9925 740.522 Q38.3871 740.522 38.3871 744.097 Q38.3871 745.868 39.0634 747.543 Q39.7075 749.186 40.6093 750.313 Q41.511 751.44 42.7671 752.471 Q43.9909 753.469 44.8282 753.984 Q45.6334 754.467 46.4385 754.854 L49.7235 755.691 Q50.6253 755.884 54.1357 756.818 L60.0938 758.268 Q64.5382 759.298 64.9569 759.524 Q65.8587 759.846 66.3417 760.554 Q66.8248 761.263 66.8248 761.971 Q66.8248 762.777 66.3417 763.324 Q65.8587 763.872 65.0213 763.872 Q64.8925 763.872 64.4094 763.775 Q63.9263 763.678 63.25 763.517 Q62.5737 763.356 62.1872 763.292 L46.9538 759.459 Q44.1841 758.751 43.3146 758.59 Q42.4128 758.397 41.4144 758.397 Q38.3871 758.397 38.3871 760.458 Q38.3871 762.132 40.3838 763.227 Q42.3806 764.322 46.2453 765.256 Q47.3081 765.546 47.5335 765.739 Q47.759 765.9 47.759 766.384 Q47.7268 767.189 47.0826 767.189 Q46.9216 767.189 45.891 766.931 Q44.8604 766.673 43.3146 766.19 Q41.7365 765.675 40.7059 765.128 Q40.0296 764.805 39.5787 764.516 Q39.1278 764.226 38.4193 763.646 Q37.7107 763.066 37.3243 762.197 Q36.9378 761.327 36.9378 760.264 Q36.9378 757.913 38.4515 756.174 Q39.9651 754.403 42.6704 754.178 Q36.9378 749.894 36.9378 743.904 Q36.9378 740.522 38.6447 738.493 Q40.2872 736.593 43.3146 736.368 Q36.9378 731.923 36.9378 725.611 Q36.9378 721.972 38.8379 720.007 Q40.7059 718.043 43.9909 718.043 Q45.6978 718.043 48.9506 718.912 Q52.1712 719.782 53.7815 720.361 Q55.3917 720.941 58.4835 722.068 Q61.4465 723.26 63.1856 723.26 Q64.3128 723.26 64.8281 722.873 Q65.3434 722.487 65.3434 721.65 Q65.3434 720.361 64.6026 719.234 Q63.8297 718.107 62.5737 717.302 Q61.2854 716.464 59.9972 715.917 Q58.6767 715.369 57.1953 714.951 Q56.3901 714.693 56.1969 714.564 Q56.0037 714.403 56.0037 713.952 Q56.0037 713.147 56.6478 713.147 Z" fill="#000000" fill-rule="nonzero" fill-opacity="1" /><path clip-path="url(#clip020)" d="M81.0598 710.099 L81.0598 704.56 L18.1296 704.56 L18.1296 710.099 L16.6159 710.099 L16.6159 700.148 L82.5735 700.148 L82.5735 710.099 L81.0598 710.099 Z" fill="#000000" fill-rule="nonzero" fill-opacity="1" /><polyline clip-path="url(#clip022)" style="stroke:#009af9; stroke-linecap:round; stroke-linejoin:round; stroke-width:8; stroke-opacity:1; fill:none" points="237.067,1011.73 239.123,1101.66 241.179,1101.3 243.236,1124.22 245.292,1124.55 247.348,1134.86 249.404,1135.76 251.46,1140.92 253.516,1142.31 255.572,1144.77 257.628,1146.6 259.685,1147.48 261.741,1149.69 263.797,1149.62 265.853,1152.19 267.909,1151.58 269.965,1154.48 272.021,1153.61 274.077,1156.84 276.134,1155.95 278.19,1159.54 280.246,1158.82 282.302,1162.78 284.358,1162.42 286.414,1166.8 288.47,1167 290.526,1171.87 292.583,1172.8 294.639,1178.23 296.695,1180.05 298.751,1186.09 300.807,1188.91 302.863,1195.56 304.919,1199.38 306.975,1206.54 309.032,1211.28 311.088,1218.77 313.144,1224.21 315.2,1231.8 317.256,1237.65 319.312,1245.06 321.368,1251.03 323.424,1258 325.48,1263.78 327.537,1270.06 329.593,1275.37 331.649,1280.79 333.705,1285.37 335.761,1289.75 337.817,1293.37 339.873,1296.54 341.929,1299.01 343.986,1300.84 346.042,1301.99 348.098,1302.41 350.154,1302.19 352.21,1301.22 354.266,1299.7 356.322,1297.42 358.378,1294.76 360.435,1291.35 362.491,1287.74 364.547,1283.37 366.603,1279.06 368.659,1273.94 370.715,1269.15 372.771,1263.48 374.827,1258.43 376.884,1252.44 378.94,1247.35 380.996,1241.25 383.052,1236.33 385.108,1230.33 387.164,1225.73 389.22,1220 391.276,1215.83 393.333,1210.49 395.389,1206.78 397.445,1201.88 399.501,1198.63 401.557,1194.18 403.613,1191.3 405.669,1187.27 407.725,1184.69 409.782,1181.02 411.838,1178.65 413.894,1175.28 415.95,1173.03 418.006,1169.9 420.062,1167.68 422.118,1164.74 424.174,1162.48 426.231,1159.67 428.287,1157.31 430.343,1154.58 432.399,1152.06 434.455,1149.35 436.511,1146.62 438.567,1143.87 440.623,1140.88 442.679,1138.03 444.736,1134.71 446.792,1131.68 448.848,1127.97 450.904,1124.66 452.96,1120.51 455.016,1116.87 457.072,1112.22 459.128,1108.12 461.185,1102.8 463.241,1097.96 465.297,1091.7 467.353,1085.93 469.409,1078.78 471.465,1072.24 473.521,1064.37 475.577,1056.89 477.634,1047.63 479.69,1037.96 481.746,1025.85 483.802,1012.85 485.858,997.884 487.914,983.081 489.97,968.45 492.026,956.17 494.083,946.628 496.139,941.023 498.195,939.47 500.251,941.739 502.307,947.639 504.363,955.797 506.419,966.127 508.475,976.77 510.532,988.16 512.588,998.475 514.644,1008.78 516.7,1017.47 518.756,1026.03 520.812,1032.95 522.868,1039.85 524.924,1045.26 526.981,1050.75 529.037,1054.93 531.093,1059.25 533.149,1062.42 535.205,1065.73 537.261,1068.05 539.317,1070.48 541.373,1072.1 543.43,1073.77 545.486,1074.79 547.542,1075.8 549.598,1076.31 551.654,1076.73 553.71,1076.82 555.766,1076.72 557.822,1076.44 559.878,1075.89 561.935,1075.29 563.991,1074.32 566.047,1073.43 568.103,1072.1 570.159,1070.96 572.215,1069.3 574.271,1067.92 576.327,1065.96 578.384,1064.35 580.44,1062.1 582.496,1060.27 584.552,1057.75 586.608,1055.68 588.664,1052.89 590.72,1050.56 592.776,1047.49 594.833,1044.86 596.889,1041.49 598.945,1038.53 601.001,1034.83 603.057,1031.49 605.113,1027.44 607.169,1023.7 609.225,1019.29 611.282,1015.13 613.338,1010.39 615.394,1005.84 617.45,1000.82 619.506,995.953 621.562,990.761 623.618,985.737 625.674,980.61 627.731,975.724 629.787,971.046 631.843,966.749 633.899,963.013 635.955,959.795 638.011,957.433 640.067,955.63 642.123,954.834 644.18,954.494 646.236,955.152 648.292,956.051 650.348,957.828 652.404,959.59 654.46,962.074 656.516,964.313 658.572,967.126 660.629,969.524 662.685,972.38 664.741,974.712 666.797,977.415 668.853,979.539 670.909,981.964 672.965,983.796 675.021,985.871 677.077,987.368 679.134,989.054 681.19,990.195 683.246,991.473 685.302,992.254 687.358,993.118 689.414,993.542 691.47,993.995 693.526,994.069 695.583,994.116 697.639,993.848 699.695,993.494 701.751,992.891 703.807,992.143 705.863,991.21 707.919,990.074 709.975,988.814 712.032,987.293 714.088,985.696 716.144,983.773 718.2,981.809 720.256,979.467 722.312,977.145 724.368,974.433 726.424,971.783 728.481,968.633 730.537,965.398 732.593,961.449 734.649,957.437 736.705,953.227 738.761,949.05 740.817,944.05 742.873,939.232 744.93,933.637 746.986,927.994 749.042,921.546 751.098,914.949 753.154,907.25 755.21,898.937 757.266,889.121 759.322,878.646 761.379,867.284 763.435,856.133 765.491,844.313 767.547,830.965 769.603,813.138 771.659,789.112 773.715,757.693 775.771,721.078 777.828,683.134 779.884,649.614 781.94,625.175 783.996,613.053 786.052,614.05 788.108,626.77 790.164,648.469 792.22,675.311 794.276,704.2 796.333,732.091 798.389,757.826 800.445,780.35 802.501,800.331 804.557,817.665 806.613,833.35 808.669,847.144 810.725,859.905 812.782,871.243 814.838,881.896 816.894,891.369 818.95,900.341 821.006,908.315 823.062,915.928 825.118,922.685 827.174,929.166 829.231,934.905 831.287,940.428 833.343,945.306 835.399,949.999 837.455,954.131 839.511,958.093 841.567,961.571 843.623,964.882 845.68,967.782 847.736,970.511 849.792,972.897 851.848,975.104 853.904,977.034 855.96,978.774 858.016,980.301 860.072,981.623 862.129,982.793 864.185,983.746 866.241,984.605 868.297,985.235 870.353,985.828 872.409,986.183 874.465,986.556 876.521,986.689 878.578,986.895 880.634,986.866 882.69,986.968 884.746,986.852 886.802,986.926 888.858,986.811 890.914,986.95 892.97,986.941 895.027,987.249 897.083,987.458 899.139,988.041 901.195,988.571 903.251,989.514 905.307,990.434 907.363,991.774 909.419,993.093 911.475,994.793 913.532,996.438 915.588,998.382 917.644,1000.21 919.7,1002.22 921.756,1004.03 923.812,1005.92 925.868,1007.57 927.924,1009.22 929.981,1010.63 932.037,1012.02 934.093,1013.23 936.149,1014.44 938.205,1015.56 940.261,1016.73 942.317,1017.89 944.373,1019.11 946.43,1020.39 948.486,1021.7 950.542,1023.09 952.598,1024.47 954.654,1025.95 956.71,1027.38 958.766,1028.93 960.822,1030.42 962.879,1032.08 964.935,1033.67 966.991,1035.47 969.047,1037.21 971.103,1039.18 973.159,1041.09 975.215,1043.24 977.271,1045.3 979.328,1047.59 981.384,1049.74 983.44,1052.08 985.496,1054.26 987.552,1056.57 989.608,1058.67 991.664,1060.87 993.72,1062.83 995.777,1064.83 997.833,1066.58 999.889,1068.32 1001.94,1069.81 1004,1071.26 1006.06,1072.44 1008.11,1073.56 1010.17,1074.42 1012.23,1075.18 1014.28,1075.72 1016.34,1076.11 1018.39,1076.3 1020.45,1076.34 1022.51,1076.18 1024.56,1075.86 1026.62,1075.38 1028.67,1074.7 1030.73,1073.9 1032.79,1072.89 1034.84,1071.79 1036.9,1070.47 1038.96,1069.08 1041.01,1067.48 1043.07,1065.84 1045.12,1063.99 1047.18,1062.13 1049.24,1060.07 1051.29,1058.02 1053.35,1055.78 1055.4,1053.59 1057.46,1051.21 1059.52,1048.91 1061.57,1046.45 1063.63,1044.07 1065.68,1041.57 1067.74,1039.16 1069.8,1036.64 1071.85,1034.23 1073.91,1031.75 1075.97,1029.39 1078.02,1026.99 1080.08,1024.75 1082.13,1022.51 1084.19,1020.46 1086.25,1018.48 1088.3,1016.72 1090.36,1015.08 1092.41,1013.7 1094.47,1012.49 1096.53,1011.54 1098.58,1010.8 1100.64,1010.3 1102.69,1010.03 1104.75,1009.98 1106.81,1010.16 1108.86,1010.54 1110.92,1011.16 1112.98,1011.95 1115.03,1012.98 1117.09,1014.16 1119.14,1015.57 1121.2,1017.08 1123.26,1018.81 1125.31,1020.6 1127.37,1022.57 1129.42,1024.55 1131.48,1026.67 1133.54,1028.75 1135.59,1030.91 1137.65,1032.99 1139.71,1035.1 1141.76,1037.09 1143.82,1039.07 1145.87,1040.88 1147.93,1042.65 1149.99,1044.24 1152.04,1045.74 1154.1,1047.04 1156.15,1048.23 1158.21,1049.2 1160.27,1050.04 1162.32,1050.65 1164.38,1051.12 1166.43,1051.35 1168.49,1051.4 1170.55,1051.22 1172.6,1050.85 1174.66,1050.24 1176.72,1049.41 1178.77,1048.35 1180.83,1047.05 1182.88,1045.5 1184.94,1043.7 1187,1041.63 1189.05,1039.3 1191.11,1036.7 1193.16,1033.79 1195.22,1030.6 1197.28,1027.09 1199.33,1023.27 1201.39,1019.09 1203.44,1014.58 1205.5,1009.68 1207.56,1004.41 1209.61,998.699 1211.67,992.576 1213.73,985.964 1215.78,978.887 1217.84,971.264 1219.89,963.088 1221.95,954.254 1224.01,944.773 1226.06,934.592 1228.12,923.705 1230.17,911.912 1232.23,899.045 1234.29,884.993 1236.34,869.926 1238.4,853.885 1240.46,836.497 1242.51,816.906 1244.57,794.597 1246.62,769.951 1248.68,743.804 1250.74,715.664 1252.79,682.759 1254.85,641.423 1256.9,590.274 1258.96,532.922 1261.02,477.918 1263.07,435.244 1265.13,412.224 1267.18,411.106 1269.24,428.886 1271.3,459.122 1273.35,494.53 1275.41,529.214 1277.47,559.988 1279.52,586.32 1281.58,609.119 1283.63,629.331 1285.69,647.592 1287.75,664.336 1289.8,679.856 1291.86,694.192 1293.91,707.426 1295.97,719.663 1298.03,731.042 1300.08,741.569 1302.14,751.346 1304.19,760.417 1306.25,768.874 1308.31,776.706 1310.36,783.998 1312.42,790.751 1314.48,797.037 1316.53,802.839 1318.59,808.223 1320.64,813.178 1322.7,817.758 1324.76,821.949 1326.81,825.798 1328.87,829.294 1330.92,832.475 1332.98,835.333 1335.04,837.897 1337.09,840.167 1339.15,842.158 1341.21,843.88 1343.26,845.336 1345.32,846.547 1347.37,847.502 1349.43,848.235 1351.49,848.722 1353.54,849.008 1355.6,849.055 1357.65,848.923 1359.71,848.561 1361.77,848.041 1363.82,847.298 1365.88,846.42 1367.93,845.328 1369.99,844.122 1372.05,842.71 1374.1,841.206 1376.16,839.507 1378.22,837.736 1380.27,835.781 1382.33,833.774 1384.38,831.596 1386.44,829.388 1388.5,827.025 1390.55,824.656 1392.61,822.159 1394.66,819.689 1396.72,817.132 1398.78,814.649 1400.83,812.14 1402.89,809.771 1404.94,807.465 1407,805.386 1409.06,803.481 1411.11,801.903 1413.17,800.611 1415.23,799.723 1417.28,799.201 1419.34,799.119 1421.39,799.446 1423.45,800.225 1425.51,801.451 1427.56,803.147 1429.62,805.348 1431.67,808.047 1433.73,811.305 1435.79,815.066 1437.84,819.396 1439.9,824.174 1441.96,829.459 1444.01,835.072 1446.07,841.077 1448.12,847.252 1450.18,853.683 1452.24,860.126 1454.29,866.699 1456.35,873.151 1458.4,879.636 1460.46,885.903 1462.52,892.135 1464.57,898.084 1466.63,903.957 1468.68,909.508 1470.74,914.959 1472.8,920.071 1474.85,925.07 1476.91,929.725 1478.97,934.26 1481.02,938.458 1483.08,942.532 1485.13,946.28 1487.19,949.904 1489.25,953.217 1491.3,956.403 1493.36,959.298 1495.41,962.062 1497.47,964.556 1499.53,966.913 1501.58,969.023 1503.64,970.988 1505.69,972.728 1507.75,974.311 1509.81,975.693 1511.86,976.905 1513.92,977.937 1515.98,978.783 1518.03,979.472 1520.09,979.955 1522.14,980.302 1524.2,980.423 1526.26,980.426 1528.31,980.18 1530.37,979.834 1532.42,979.216 1534.48,978.512 1536.54,977.513 1538.59,976.439 1540.65,975.045 1542.71,973.582 1544.76,971.773 1546.82,969.901 1548.87,967.664 1550.93,965.371 1552.99,962.7 1555.04,959.973 1557.1,956.847 1559.15,953.656 1561.21,950.052 1563.27,946.387 1565.32,942.331 1567.38,938.251 1569.43,933.824 1571.49,929.4 1573.55,924.658 1575.6,919.926 1577.66,914.925 1579.72,909.999 1581.77,904.957 1583.83,900.145 1585.88,895.426 1587.94,891.075 1590,886.969 1592.05,883.295 1594.11,879.989 1596.16,877.208 1598.22,875.022 1600.28,873.585 1602.33,873.083 1604.39,873.589 1606.45,875.307 1608.5,878.137 1610.56,882.236 1612.61,887.306 1614.67,893.472 1616.73,900.294 1618.78,907.921 1620.84,915.847 1622.89,924.291 1624.95,932.73 1627.01,941.467 1629.06,949.99 1631.12,958.668 1633.17,967.006 1635.23,975.419 1637.29,983.429 1639.34,991.474 1641.4,999.096 1643.46,1006.74 1645.51,1013.96 1647.57,1021.19 1649.62,1028.03 1651.68,1034.88 1653.74,1041.36 1655.79,1047.86 1657.85,1054.03 1659.9,1060.2 1661.96,1066.1 1664.02,1071.99 1666.07,1077.65 1668.13,1083.3 1670.18,1088.77 1672.24,1094.2 1674.3,1099.51 1676.35,1104.76 1678.41,1109.93 1680.47,1115.02 1682.52,1120.08 1684.58,1125.02 1686.63,1129.96 1688.69,1134.74 1690.75,1139.53 1692.8,1144.11 1694.86,1148.72 1696.91,1153.03 1698.97,1157.36 1701.03,1161.32 1703.08,1165.27 1705.14,1168.76 1707.2,1172.21 1709.25,1175.11 1711.31,1177.95 1713.36,1180.18 1715.42,1182.31 1717.48,1183.8 1719.53,1185.19 1721.59,1185.91 1723.64,1186.55 1725.7,1186.54 1727.76,1186.49 1729.81,1185.82 1731.87,1185.16 1733.92,1183.92 1735.98,1182.75 1738.04,1181.06 1740.09,1179.51 1742.15,1177.5 1744.21,1175.68 1746.26,1173.5 1748.32,1171.57 1750.37,1169.39 1752.43,1167.54 1754.49,1165.57 1756.54,1164.01 1758.6,1162.47 1760.65,1161.42 1762.71,1160.52 1764.77,1160.16 1766.82,1160.07 1768.88,1160.5 1770.93,1161.27 1772.99,1162.49 1775.05,1164.07 1777.1,1165.98 1779.16,1168.21 1781.22,1170.63 1783.27,1173.31 1785.33,1176 1787.38,1178.9 1789.44,1181.65 1791.5,1184.53 1793.55,1187.13 1795.61,1189.81 1797.66,1192.09 1799.72,1194.41 1801.78,1196.23 1803.83,1198.07 1805.89,1199.33 1807.95,1200.61 1810,1201.24 1812.06,1201.89 1814.11,1201.86 1816.17,1201.88 1818.23,1201.21 1820.28,1200.62 1822.34,1199.35 1824.39,1198.24 1826.45,1196.49 1828.51,1194.98 1830.56,1192.9 1832.62,1191.15 1834.67,1188.91 1836.73,1187.08 1838.79,1184.84 1840.84,1183.07 1842.9,1180.96 1844.96,1179.35 1847.01,1177.46 1849.07,1176.06 1851.12,1174.41 1853.18,1173.23 1855.24,1171.84 1857.29,1170.85 1859.35,1169.68 1861.4,1168.83 1863.46,1167.83 1865.52,1167.06 1867.57,1166.17 1869.63,1165.42 1871.68,1164.6 1873.74,1163.81 1875.8,1163 1877.85,1162.13 1879.91,1161.29 1881.97,1160.3 1884.02,1159.41 1886.08,1158.27 1888.13,1157.31 1890.19,1156.01 1892.25,1154.96 1894.3,1153.5 1896.36,1152.37 1898.41,1150.77 1900.47,1149.57 1902.53,1147.87 1904.58,1146.64 1906.64,1144.91 1908.7,1143.73 1910.75,1142.06 1912.81,1141.03 1914.86,1139.6 1916.92,1138.9 1918.98,1137.96 1921.03,1137.88 1923.09,1137.8 1925.14,1138.71 1927.2,1139.85 1929.26,1142.03 1931.31,1144.63 1933.37,1148.16 1935.42,1152.19 1937.48,1156.91 1939.54,1162.1 1941.59,1167.64 1943.65,1173.59 1945.71,1179.54 1947.76,1185.83 1949.82,1191.83 1951.87,1198.15 1953.93,1203.97 1955.99,1210.13 1958.04,1215.63 1960.1,1221.54 1962.15,1226.7 1964.21,1232.32 1966.27,1237.14 1968.32,1242.48 1970.38,1247.01 1972.43,1252.09 1974.49,1256.39 1976.55,1261.26 1978.6,1265.39 1980.66,1270.09 1982.72,1274.11 1984.77,1278.69 1986.83,1282.67 1988.88,1287.15 1990.94,1291.13 1993,1295.55 1995.05,1299.57 1997.11,1303.93 1999.16,1308.01 2001.22,1312.31 2003.28,1316.43 2005.33,1320.64 2007.39,1324.78 2009.45,1328.84 2011.5,1332.93 2013.56,1336.77 2015.61,1340.73 2017.67,1344.28 2019.73,1348 2021.78,1351.16 2023.84,1354.53 2025.89,1357.21 2027.95,1360.11 2030.01,1362.22 2032.06,1364.54 2034.12,1365.99 2036.17,1367.63 2038.23,1368.39 2040.29,1369.32 2042.34,1369.45 2044.4,1369.78 2046.46,1369.42 2048.51,1369.36 2050.57,1368.69 2052.62,1368.42 2054.68,1367.56 2056.74,1367.21 2058.79,1366.21 2060.85,1365.84 2062.9,1364.71 2064.96,1364.33 2067.02,1363.05 2069.07,1362.62 2071.13,1361.18 2073.18,1360.67 2075.24,1359.05 2077.3,1358.39 2079.35,1356.6 2081.41,1355.76 2083.47,1353.83 2085.52,1352.77 2087.58,1350.74 2089.63,1349.46 2091.69,1347.37 2093.75,1345.88 2095.8,1343.8 2097.86,1342.13 2099.91,1340.12 2101.97,1338.31 2104.03,1336.4 2106.08,1334.49 2108.14,1332.75 2110.2,1330.76 2112.25,1329.2 2114.31,1327.19 2116.36,1325.82 2118.42,1323.79 2120.48,1322.61 2122.53,1320.59 2124.59,1319.59 2126.64,1317.57 2128.7,1316.73 2130.76,1314.71 2132.81,1314.01 2134.87,1311.99 2136.92,1311.39 2138.98,1309.37 2141.04,1308.84 2143.09,1306.81 2145.15,1306.33 2147.21,1304.28 2149.26,1303.82 2151.32,1301.75 2153.37,1301.28 2155.43,1299.18 2157.49,1298.67 2159.54,1296.54 2161.6,1295.96 2163.65,1293.79 2165.71,1293.12 2167.77,1290.92 2169.82,1290.15 2171.88,1287.95 2173.93,1287.06 2175.99,1284.89 2178.05,1283.9 2180.1,1281.82 2182.16,1280.74 2184.22,1278.83 2186.27,1277.7 2188.33,1276.02 2190.38,1274.87 2192.44,1273.51 2194.5,1272.36 2196.55,1271.37 2198.61,1270.23 2200.66,1269.68 2202.72,1268.55 2204.78,1268.45 2206.83,1267.31 2208.89,1267.69 2210.95,1266.52 2213,1267.35 2215.06,1266.12 2217.11,1267.37 2219.17,1266.04 2221.23,1267.64 2223.28,1266.18 2225.34,1268.04 2227.39,1266.43 2229.45,1268.42 2231.51,1266.65 2233.56,1268.61 2235.62,1266.69 2237.67,1268.43 2239.73,1266.38 2241.79,1267.71 2243.84,1265.59 2245.9,1266.29 2247.96,1264.16 2250.01,1264.02 2252.07,1261.98 2254.12,1260.81 2256.18,1258.97 2258.24,1256.57 2260.29,1255.05 2262.35,1251.25 2264.4,1250.16 2266.46,1244.74 2268.52,1244.2 2270.57,1236.85 2272.63,1236.98 2274.68,1227.14 2276.74,1228.06 2278.8,1214.61 2280.85,1216.45 2282.91,1196.73 2284.97,1199.63 2287.02,1165.21 2289.08,1169.34 2291.13,1059.35 "/>
<polyline clip-path="url(#clip022)" style="stroke:#e26f46; stroke-linecap:round; stroke-linejoin:round; stroke-width:4; stroke-opacity:1; fill:none" points="237.067,1377.14 239.123,1377 241.179,1376.86 243.236,1376.72 245.292,1376.57 247.348,1376.43 249.404,1376.28 251.46,1376.13 253.516,1375.97 255.572,1375.81 257.628,1375.65 259.685,1375.49 261.741,1375.33 263.797,1375.16 265.853,1374.99 267.909,1374.82 269.965,1374.64 272.021,1374.47 274.077,1374.28 276.134,1374.1 278.19,1373.92 280.246,1373.73 282.302,1373.53 284.358,1373.34 286.414,1373.14 288.47,1372.94 290.526,1372.74 292.583,1372.53 294.639,1372.32 296.695,1372.1 298.751,1371.89 300.807,1371.67 302.863,1371.44 304.919,1371.22 306.975,1370.99 309.032,1370.75 311.088,1370.52 313.144,1370.27 315.2,1370.03 317.256,1369.78 319.312,1369.53 321.368,1369.27 323.424,1369.01 325.48,1368.74 327.537,1368.47 329.593,1368.2 331.649,1367.92 333.705,1367.63 335.761,1367.34 337.817,1367.04 339.873,1366.73 341.929,1366.41 343.986,1366.09 346.042,1365.75 348.098,1365.4 350.154,1365.04 352.21,1364.66 354.266,1364.27 356.322,1363.85 358.378,1363.42 360.435,1362.95 362.491,1362.46 364.547,1361.92 366.603,1361.35 368.659,1360.74 370.715,1360.07 372.771,1359.34 374.827,1358.54 376.884,1357.66 378.94,1356.69 380.996,1355.63 383.052,1354.45 385.108,1353.14 387.164,1351.69 389.22,1350.08 391.276,1348.3 393.333,1346.32 395.389,1344.12 397.445,1341.68 399.501,1338.98 401.557,1336 403.613,1332.7 405.669,1329.07 407.725,1325.08 409.782,1320.7 411.838,1315.9 413.894,1310.67 415.95,1304.96 418.006,1298.77 420.062,1292.07 422.118,1284.83 424.174,1277.05 426.231,1268.7 428.287,1259.77 430.343,1250.27 432.399,1240.17 434.455,1229.5 436.511,1218.25 438.567,1206.44 440.623,1194.09 442.679,1181.22 444.736,1167.88 446.792,1154.09 448.848,1139.92 450.904,1125.41 452.96,1110.62 455.016,1095.62 457.072,1080.49 459.128,1065.3 461.185,1050.13 463.241,1035.08 465.297,1020.24 467.353,1005.69 469.409,991.541 471.465,977.876 473.521,964.792 475.577,952.379 477.634,940.726 479.69,929.915 481.746,920.024 483.802,911.123 485.858,903.274 487.914,896.532 489.97,890.939 492.026,886.529 494.083,883.324 496.139,881.336 498.195,880.563 500.251,880.993 502.307,882.601 504.363,885.352 506.419,889.2 508.475,894.086 510.532,899.944 512.588,906.697 514.644,914.262 516.7,922.547 518.756,931.457 520.812,940.888 522.868,950.737 524.924,960.896 526.981,971.258 529.037,981.713 531.093,992.156 533.149,1002.48 535.205,1012.59 537.261,1022.39 539.317,1031.78 541.373,1040.69 543.43,1049.03 545.486,1056.74 547.542,1063.74 549.598,1069.99 551.654,1075.44 553.71,1080.05 555.766,1083.79 557.822,1086.64 559.878,1088.58 561.935,1089.61 563.991,1089.73 566.047,1088.95 568.103,1087.27 570.159,1084.73 572.215,1081.35 574.271,1077.16 576.327,1072.2 578.384,1066.51 580.44,1060.14 582.496,1053.14 584.552,1045.56 586.608,1037.45 588.664,1028.87 590.72,1019.88 592.776,1010.54 594.833,1000.92 596.889,991.074 598.945,981.064 601.001,970.955 603.057,960.81 605.113,950.688 607.169,940.652 609.225,930.76 611.282,921.07 613.338,911.639 615.394,902.519 617.45,893.764 619.506,885.421 621.562,877.536 623.618,870.154 625.674,863.312 627.731,857.049 629.787,851.395 631.843,846.381 633.899,842.03 635.955,838.365 638.011,835.401 640.067,833.151 642.123,831.624 644.18,830.823 646.236,830.749 648.292,831.397 650.348,832.759 652.404,834.824 654.46,837.574 656.516,840.991 658.572,845.052 660.629,849.73 662.685,854.997 664.741,860.82 666.797,867.166 668.853,873.998 670.909,881.277 672.965,888.965 675.021,897.02 677.077,905.4 679.134,914.063 681.19,922.967 683.246,932.069 685.302,941.327 687.358,950.698 689.414,960.142 691.47,969.619 693.526,979.091 695.583,988.52 697.639,997.87 699.695,1007.11 701.751,1016.2 703.807,1025.11 705.863,1033.81 707.919,1042.26 709.975,1050.44 712.032,1058.31 714.088,1065.83 716.144,1072.94 718.2,1079.6 720.256,1085.74 722.312,1091.27 724.368,1096.09 726.424,1100.06 728.481,1103.03 730.537,1104.8 732.593,1105.14 734.649,1103.78 736.705,1100.41 738.761,1094.69 740.817,1086.26 742.873,1074.72 744.93,1059.72 746.986,1040.88 749.042,1017.92 751.098,990.615 753.154,958.852 755.21,922.671 757.266,882.284 759.322,838.096 761.379,790.721 763.435,740.988 765.491,689.925 767.547,638.739 769.603,588.773 771.659,541.451 773.715,498.221 775.771,460.476 777.828,429.485 779.884,406.323 781.94,391.809 783.996,386.456 786.052,390.446 788.108,403.613 790.164,425.458 792.22,455.178 794.276,491.713 796.333,533.811 798.389,580.092 800.445,629.125 802.501,679.502 804.557,729.892 806.613,779.107 808.669,826.132 810.725,870.154 812.782,910.572 814.838,946.996 816.894,979.23 818.95,1007.25 821.006,1031.17 823.062,1051.24 825.118,1067.75 827.174,1081.08 829.231,1091.61 831.287,1099.74 833.343,1105.83 835.399,1110.23 837.455,1113.27 839.511,1115.21 841.567,1116.28 843.623,1116.69 845.68,1116.58 847.736,1116.1 849.792,1115.33 851.848,1114.35 853.904,1113.23 855.96,1112.01 858.016,1110.72 860.072,1109.38 862.129,1108.01 864.185,1106.63 866.241,1105.23 868.297,1103.82 870.353,1102.42 872.409,1101.01 874.465,1099.61 876.521,1098.22 878.578,1096.82 880.634,1095.44 882.69,1094.05 884.746,1092.68 886.802,1091.31 888.858,1089.95 890.914,1088.59 892.97,1087.24 895.027,1085.9 897.083,1084.56 899.139,1083.24 901.195,1081.92 903.251,1080.6 905.307,1079.3 907.363,1078 909.419,1076.71 911.475,1075.43 913.532,1074.16 915.588,1072.9 917.644,1071.65 919.7,1070.4 921.756,1069.16 923.812,1067.94 925.868,1066.72 927.924,1065.51 929.981,1064.31 932.037,1063.12 934.093,1061.94 936.149,1060.77 938.205,1059.62 940.261,1058.47 942.317,1057.33 944.373,1056.2 946.43,1055.08 948.486,1053.98 950.542,1052.88 952.598,1051.8 954.654,1050.73 956.71,1049.67 958.766,1048.62 960.822,1047.58 962.879,1046.55 964.935,1045.54 966.991,1044.54 969.047,1043.55 971.103,1042.57 973.159,1041.6 975.215,1040.65 977.271,1039.71 979.328,1038.78 981.384,1037.87 983.44,1036.97 985.496,1036.08 987.552,1035.21 989.608,1034.34 991.664,1033.5 993.72,1032.66 995.777,1031.84 997.833,1031.03 999.889,1030.24 1001.94,1029.46 1004,1028.7 1006.06,1027.94 1008.11,1027.21 1010.17,1026.48 1012.23,1025.78 1014.28,1025.08 1016.34,1024.4 1018.39,1023.74 1020.45,1023.09 1022.51,1022.46 1024.56,1021.84 1026.62,1021.23 1028.67,1020.64 1030.73,1020.07 1032.79,1019.51 1034.84,1018.97 1036.9,1018.44 1038.96,1017.93 1041.01,1017.43 1043.07,1016.95 1045.12,1016.49 1047.18,1016.04 1049.24,1015.6 1051.29,1015.19 1053.35,1014.78 1055.4,1014.4 1057.46,1014.03 1059.52,1013.67 1061.57,1013.34 1063.63,1013.01 1065.68,1012.71 1067.74,1012.42 1069.8,1012.15 1071.85,1011.89 1073.91,1011.65 1075.97,1011.43 1078.02,1011.22 1080.08,1011.03 1082.13,1010.86 1084.19,1010.7 1086.25,1010.56 1088.3,1010.43 1090.36,1010.33 1092.41,1010.23 1094.47,1010.16 1096.53,1010.1 1098.58,1010.06 1100.64,1010.03 1102.69,1010.03 1104.75,1010.03 1106.81,1010.06 1108.86,1010.1 1110.92,1010.16 1112.98,1010.23 1115.03,1010.33 1117.09,1010.43 1119.14,1010.56 1121.2,1010.7 1123.26,1010.86 1125.31,1011.03 1127.37,1011.22 1129.42,1011.43 1131.48,1011.65 1133.54,1011.89 1135.59,1012.15 1137.65,1012.42 1139.71,1012.71 1141.76,1013.01 1143.82,1013.34 1145.87,1013.67 1147.93,1014.03 1149.99,1014.4 1152.04,1014.78 1154.1,1015.19 1156.15,1015.6 1158.21,1016.04 1160.27,1016.49 1162.32,1016.95 1164.38,1017.43 1166.43,1017.93 1168.49,1018.44 1170.55,1018.97 1172.6,1019.51 1174.66,1020.07 1176.72,1020.64 1178.77,1021.23 1180.83,1021.84 1182.88,1022.46 1184.94,1023.09 1187,1023.74 1189.05,1024.4 1191.11,1025.08 1193.16,1025.78 1195.22,1026.48 1197.28,1027.2 1199.33,1027.93 1201.39,1028.67 1203.44,1029.42 1205.5,1030.16 1207.56,1030.88 1209.61,1031.56 1211.67,1032.16 1213.73,1032.61 1215.78,1032.81 1217.84,1032.6 1219.89,1031.78 1221.95,1030 1224.01,1026.84 1226.06,1021.72 1228.12,1013.89 1230.17,1002.44 1232.23,986.304 1234.29,964.317 1236.34,935.27 1238.4,898.033 1240.46,851.702 1242.51,795.771 1244.57,730.309 1246.62,656.12 1248.68,574.861 1250.74,489.074 1252.79,402.127 1254.85,318.042 1256.9,241.211 1258.96,176.037 1261.02,126.525 1263.07,95.883 1265.13,86.1857 1267.18,98.1507 1269.24,131.059 1271.3,182.835 1273.35,250.269 1275.41,329.354 1277.47,415.686 1279.52,504.87 1281.58,592.883 1283.63,676.354 1285.69,752.737 1287.75,820.372 1289.8,878.452 1291.86,926.9 1293.91,966.22 1295.97,997.306 1298.03,1021.28 1300.08,1039.34 1302.14,1052.66 1304.19,1062.27 1306.25,1069.07 1308.31,1073.8 1310.36,1077.02 1312.42,1079.14 1314.48,1080.47 1316.53,1081.2 1318.59,1081.46 1320.64,1081.32 1322.7,1080.82 1324.76,1079.95 1326.81,1078.71 1328.87,1077.07 1330.92,1075 1332.98,1072.45 1335.04,1069.38 1337.09,1065.76 1339.15,1061.52 1341.21,1056.62 1343.26,1051.01 1345.32,1044.65 1347.37,1037.49 1349.43,1029.5 1351.49,1020.63 1353.54,1010.85 1355.6,1000.15 1357.65,988.494 1359.71,975.885 1361.77,962.321 1363.82,947.817 1365.88,932.397 1367.93,916.098 1369.99,898.971 1372.05,881.08 1374.1,862.506 1376.16,843.339 1378.22,823.687 1380.27,803.67 1382.33,783.419 1384.38,763.078 1386.44,742.798 1388.5,722.743 1390.55,703.077 1392.61,683.973 1394.66,665.602 1396.72,648.136 1398.78,631.743 1400.83,616.585 1402.89,602.813 1404.94,590.57 1407,579.982 1409.06,571.162 1411.11,564.202 1413.17,559.175 1415.23,556.134 1417.28,555.108 1419.34,556.106 1421.39,559.111 1423.45,564.085 1425.51,570.967 1427.56,579.676 1429.62,590.11 1431.67,602.149 1433.73,615.659 1435.79,630.49 1437.84,646.481 1439.9,663.463 1441.96,681.261 1444.01,699.696 1446.07,718.588 1448.12,737.76 1450.18,757.038 1452.24,776.255 1454.29,795.252 1456.35,813.879 1458.4,831.999 1460.46,849.488 1462.52,866.233 1464.57,882.139 1466.63,897.122 1468.68,911.114 1470.74,924.061 1472.8,935.922 1474.85,946.672 1476.91,956.295 1478.97,964.788 1481.02,972.158 1483.08,978.424 1485.13,983.609 1487.19,987.746 1489.25,990.874 1491.3,993.035 1493.36,994.277 1495.41,994.649 1497.47,994.204 1499.53,992.995 1501.58,991.075 1503.64,988.499 1505.69,985.319 1507.75,981.587 1509.81,977.353 1511.86,972.666 1513.92,967.574 1515.98,962.12 1518.03,956.347 1520.09,950.297 1522.14,944.007 1524.2,937.514 1526.26,930.853 1528.31,924.056 1530.37,917.154 1532.42,910.176 1534.48,903.151 1536.54,896.105 1538.59,889.063 1540.65,882.049 1542.71,875.086 1544.76,868.197 1546.82,861.403 1548.87,854.723 1550.93,848.179 1552.99,841.788 1555.04,835.57 1557.1,829.542 1559.15,823.722 1561.21,818.126 1563.27,812.769 1565.32,807.668 1567.38,802.838 1569.43,798.291 1571.49,794.042 1573.55,790.104 1575.6,786.488 1577.66,783.206 1579.72,780.268 1581.77,777.685 1583.83,775.464 1585.88,773.614 1587.94,772.143 1590,771.056 1592.05,770.358 1594.11,770.055 1596.16,770.149 1598.22,770.643 1600.28,771.539 1602.33,772.836 1604.39,774.535 1606.45,776.634 1608.5,779.13 1610.56,782.02 1612.61,785.3 1614.67,788.964 1616.73,793.007 1618.78,797.42 1620.84,802.196 1622.89,807.327 1624.95,812.802 1627.01,818.612 1629.06,824.745 1631.12,831.189 1633.17,837.933 1635.23,844.962 1637.29,852.264 1639.34,859.825 1641.4,867.631 1643.46,875.665 1645.51,883.915 1647.57,892.363 1649.62,900.994 1651.68,909.793 1653.74,918.744 1655.79,927.831 1657.85,937.037 1659.9,946.347 1661.96,955.745 1664.02,965.216 1666.07,974.743 1668.13,984.312 1670.18,993.907 1672.24,1003.51 1674.3,1013.12 1676.35,1022.71 1678.41,1032.26 1680.47,1041.78 1682.52,1051.24 1684.58,1060.63 1686.63,1069.94 1688.69,1079.16 1690.75,1088.28 1692.8,1097.29 1694.86,1106.18 1696.91,1114.94 1698.97,1123.56 1701.03,1132.04 1703.08,1140.37 1705.14,1148.53 1707.2,1156.54 1709.25,1164.38 1711.31,1172.04 1713.36,1179.53 1715.42,1186.84 1717.48,1193.96 1719.53,1200.9 1721.59,1207.65 1723.64,1214.22 1725.7,1220.59 1727.76,1226.78 1729.81,1232.77 1731.87,1238.58 1733.92,1244.2 1735.98,1249.64 1738.04,1254.89 1740.09,1259.95 1742.15,1264.84 1744.21,1269.55 1746.26,1274.09 1748.32,1278.45 1750.37,1282.65 1752.43,1286.68 1754.49,1290.55 1756.54,1294.26 1758.6,1297.82 1760.65,1301.23 1762.71,1304.5 1764.77,1307.63 1766.82,1310.62 1768.88,1313.48 1770.93,1316.21 1772.99,1318.82 1775.05,1321.31 1777.1,1323.68 1779.16,1325.95 1781.22,1328.11 1783.27,1330.17 1785.33,1332.13 1787.38,1334 1789.44,1335.77 1791.5,1337.47 1793.55,1339.08 1795.61,1340.61 1797.66,1342.08 1799.72,1343.47 1801.78,1344.79 1803.83,1346.05 1805.89,1347.25 1807.95,1348.39 1810,1349.47 1812.06,1350.51 1814.11,1351.49 1816.17,1352.43 1818.23,1353.33 1820.28,1354.18 1822.34,1355 1824.39,1355.78 1826.45,1356.52 1828.51,1357.24 1830.56,1357.92 1832.62,1358.57 1834.67,1359.19 1836.73,1359.79 1838.79,1360.36 1840.84,1360.92 1842.9,1361.45 1844.96,1361.96 1847.01,1362.45 1849.07,1362.92 1851.12,1363.38 1853.18,1363.82 1855.24,1364.24 1857.29,1364.65 1859.35,1365.05 1861.4,1365.44 1863.46,1365.81 1865.52,1366.17 1867.57,1366.53 1869.63,1366.87 1871.68,1367.2 1873.74,1367.53 1875.8,1367.84 1877.85,1368.15 1879.91,1368.45 1881.97,1368.75 1884.02,1369.03 1886.08,1369.31 1888.13,1369.59 1890.19,1369.86 1892.25,1370.12 1894.3,1370.38 1896.36,1370.63 1898.41,1370.88 1900.47,1371.12 1902.53,1371.36 1904.58,1371.59 1906.64,1371.82 1908.7,1372.04 1910.75,1372.26 1912.81,1372.48 1914.86,1372.69 1916.92,1372.9 1918.98,1373.11 1921.03,1373.31 1923.09,1373.51 1925.14,1373.7 1927.2,1373.89 1929.26,1374.08 1931.31,1374.27 1933.37,1374.45 1935.42,1374.63 1937.48,1374.81 1939.54,1374.98 1941.59,1375.15 1943.65,1375.32 1945.71,1375.49 1947.76,1375.65 1949.82,1375.81 1951.87,1375.97 1953.93,1376.12 1955.99,1376.27 1958.04,1376.42 1960.1,1376.57 1962.15,1376.72 1964.21,1376.86 1966.27,1377 1968.32,1377.14 1970.38,1377.27 1972.43,1377.41 1974.49,1377.54 1976.55,1377.67 1978.6,1377.8 1980.66,1377.92 1982.72,1378.04 1984.77,1378.17 1986.83,1378.28 1988.88,1378.4 1990.94,1378.52 1993,1378.63 1995.05,1378.74 1997.11,1378.85 1999.16,1378.96 2001.22,1379.06 2003.28,1379.17 2005.33,1379.27 2007.39,1379.37 2009.45,1379.47 2011.5,1379.57 2013.56,1379.66 2015.61,1379.75 2017.67,1379.85 2019.73,1379.94 2021.78,1380.03 2023.84,1380.11 2025.89,1380.2 2027.95,1380.28 2030.01,1380.37 2032.06,1380.45 2034.12,1380.53 2036.17,1380.61 2038.23,1380.68 2040.29,1380.76 2042.34,1380.83 2044.4,1380.91 2046.46,1380.98 2048.51,1381.05 2050.57,1381.12 2052.62,1381.18 2054.68,1381.25 2056.74,1381.32 2058.79,1381.38 2060.85,1381.44 2062.9,1381.51 2064.96,1381.57 2067.02,1381.63 2069.07,1381.69 2071.13,1381.74 2073.18,1381.8 2075.24,1381.85 2077.3,1381.91 2079.35,1381.96 2081.41,1382.01 2083.47,1382.07 2085.52,1382.12 2087.58,1382.16 2089.63,1382.21 2091.69,1382.26 2093.75,1382.31 2095.8,1382.35 2097.86,1382.4 2099.91,1382.44 2101.97,1382.48 2104.03,1382.53 2106.08,1382.57 2108.14,1382.61 2110.2,1382.65 2112.25,1382.69 2114.31,1382.73 2116.36,1382.76 2118.42,1382.8 2120.48,1382.84 2122.53,1382.87 2124.59,1382.91 2126.64,1382.94 2128.7,1382.97 2130.76,1383.01 2132.81,1383.04 2134.87,1383.07 2136.92,1383.1 2138.98,1383.13 2141.04,1383.16 2143.09,1383.19 2145.15,1383.22 2147.21,1383.25 2149.26,1383.27 2151.32,1383.3 2153.37,1383.33 2155.43,1383.35 2157.49,1383.38 2159.54,1383.4 2161.6,1383.42 2163.65,1383.45 2165.71,1383.47 2167.77,1383.49 2169.82,1383.52 2171.88,1383.54 2173.93,1383.56 2175.99,1383.58 2178.05,1383.6 2180.1,1383.62 2182.16,1383.64 2184.22,1383.66 2186.27,1383.68 2188.33,1383.69 2190.38,1383.71 2192.44,1383.73 2194.5,1383.75 2196.55,1383.76 2198.61,1383.78 2200.66,1383.8 2202.72,1383.81 2204.78,1383.83 2206.83,1383.84 2208.89,1383.86 2210.95,1383.87 2213,1383.89 2215.06,1383.9 2217.11,1383.91 2219.17,1383.93 2221.23,1383.94 2223.28,1383.95 2225.34,1383.96 2227.39,1383.98 2229.45,1383.99 2231.51,1384 2233.56,1384.01 2235.62,1384.02 2237.67,1384.03 2239.73,1384.04 2241.79,1384.05 2243.84,1384.06 2245.9,1384.07 2247.96,1384.08 2250.01,1384.09 2252.07,1384.1 2254.12,1384.11 2256.18,1384.12 2258.24,1384.13 2260.29,1384.13 2262.35,1384.14 2264.4,1384.15 2266.46,1384.16 2268.52,1384.17 2270.57,1384.17 2272.63,1384.18 2274.68,1384.19 2276.74,1384.19 2278.8,1384.2 2280.85,1384.21 2282.91,1384.21 2284.97,1384.22 2287.02,1384.23 2289.08,1384.23 2291.13,1384.24 "/>
<circle clip-path="url(#clip022)" cx="1265.13" cy="412.224" r="7.2" fill="#ff0000" fill-rule="evenodd" fill-opacity="1" stroke="#000000" stroke-opacity="1" stroke-width="3.2"/>
<circle clip-path="url(#clip022)" cx="783.996" cy="613.053" r="7.2" fill="#ff0000" fill-rule="evenodd" fill-opacity="1" stroke="#000000" stroke-opacity="1" stroke-width="3.2"/>
<circle clip-path="url(#clip022)" cx="1417.28" cy="799.201" r="7.2" fill="#ff0000" fill-rule="evenodd" fill-opacity="1" stroke="#000000" stroke-opacity="1" stroke-width="3.2"/>
<circle clip-path="url(#clip022)" cx="1600.28" cy="873.585" r="7.2" fill="#ff0000" fill-rule="evenodd" fill-opacity="1" stroke="#000000" stroke-opacity="1" stroke-width="3.2"/>
<circle clip-path="url(#clip022)" cx="496.139" cy="941.023" r="7.2" fill="#ff0000" fill-rule="evenodd" fill-opacity="1" stroke="#000000" stroke-opacity="1" stroke-width="3.2"/>
<circle clip-path="url(#clip022)" cx="642.123" cy="954.834" r="7.2" fill="#ff0000" fill-rule="evenodd" fill-opacity="1" stroke="#000000" stroke-opacity="1" stroke-width="3.2"/>
<circle clip-path="url(#clip022)" cx="1102.69" cy="1010.03" r="7.2" fill="#ff0000" fill-rule="evenodd" fill-opacity="1" stroke="#000000" stroke-opacity="1" stroke-width="3.2"/>
<path clip-path="url(#clip020)" d="M1741.82 300.469 L2280.18 300.469 L2280.18 93.1086 L1741.82 93.1086  Z" fill="#ffffff" fill-rule="evenodd" fill-opacity="1"/>
<polyline clip-path="url(#clip020)" style="stroke:#000000; stroke-linecap:round; stroke-linejoin:round; stroke-width:4; stroke-opacity:1; fill:none" points="1741.82,300.469 2280.18,300.469 2280.18,93.1086 1741.82,93.1086 1741.82,300.469 "/>
<polyline clip-path="url(#clip020)" style="stroke:#009af9; stroke-linecap:round; stroke-linejoin:round; stroke-width:8; stroke-opacity:1; fill:none" points="1766.02,144.949 1911.17,144.949 "/>
<path clip-path="url(#clip020)" d="M1960.03 149.961 Q1959.42 152.982 1958.6 154.716 Q1957.26 157.362 1955.04 157.362 Q1953.49 157.362 1952.32 156.496 Q1951.17 155.606 1950.78 154.13 Q1950.33 154.716 1949.93 155.114 Q1949.56 155.512 1948.83 156.121 Q1948.11 156.707 1947.12 157.034 Q1946.16 157.362 1945.06 157.362 Q1944.22 157.362 1943.44 157.198 Q1942.67 157.058 1941.85 156.66 Q1941.05 156.238 1940.47 155.606 Q1939.91 154.973 1939.53 153.943 Q1939.16 152.912 1939.16 151.6 Q1939.16 149.961 1939.79 147.736 Q1940.45 145.511 1941.94 141.529 Q1942.76 139.421 1942.76 138.25 Q1942.76 137.711 1942.65 137.36 Q1942.53 137.008 1942.3 136.891 Q1942.09 136.751 1941.94 136.727 Q1941.8 136.68 1941.57 136.68 Q1940.12 136.68 1938.85 138.156 Q1937.59 139.632 1936.72 142.63 Q1936.53 143.215 1936.42 143.356 Q1936.3 143.496 1935.95 143.496 Q1935.36 143.473 1935.36 143.004 Q1935.36 142.817 1935.57 142.091 Q1935.78 141.341 1936.28 140.241 Q1936.79 139.116 1937.49 138.109 Q1938.2 137.078 1939.3 136.352 Q1940.42 135.626 1941.71 135.626 Q1943.47 135.626 1944.54 136.774 Q1945.65 137.898 1945.65 139.561 Q1945.65 140.592 1944.83 142.583 Q1942.23 149.492 1942.23 152.373 Q1942.23 156.285 1945.2 156.285 Q1946.18 156.285 1947.1 155.887 Q1948.03 155.489 1948.64 154.926 Q1949.25 154.364 1949.72 153.755 Q1950.21 153.146 1950.42 152.748 Q1950.66 152.35 1950.68 152.256 L1954.27 137.828 Q1954.41 137.266 1954.66 136.891 Q1954.94 136.493 1955.27 136.352 Q1955.6 136.212 1955.79 136.188 Q1955.98 136.142 1956.14 136.142 Q1956.72 136.142 1957.12 136.493 Q1957.54 136.844 1957.54 137.453 Q1957.54 137.57 1957.4 138.133 Q1957.29 138.671 1957.1 139.468 Q1956.91 140.241 1956.82 140.662 Q1956.07 143.613 1956 143.918 L1954.66 149.094 Q1954.59 149.399 1954.36 150.382 Q1954.15 151.366 1954.03 151.881 Q1953.91 152.373 1953.8 153.053 Q1953.7 153.708 1953.7 154.083 Q1953.7 155.254 1954.05 155.77 Q1954.41 156.285 1955.18 156.285 Q1955.9 156.285 1956.47 155.793 Q1957.05 155.278 1957.5 154.294 Q1957.94 153.287 1958.2 152.467 Q1958.46 151.647 1958.79 150.359 Q1958.9 149.797 1959 149.656 Q1959.11 149.492 1959.44 149.492 Q1960.03 149.492 1960.03 149.961 Z" fill="#000000" fill-rule="nonzero" fill-opacity="1" /><path clip-path="url(#clip020)" d="M1965.59 144.831 Q1965.59 136.727 1968.62 130.192 Q1969.9 127.452 1971.71 125.156 Q1973.51 122.861 1974.71 121.854 Q1975.9 120.847 1976.23 120.847 Q1976.7 120.847 1976.72 121.315 Q1976.72 121.549 1976.09 122.135 Q1968.36 130.005 1968.38 144.831 Q1968.38 159.705 1975.9 167.27 Q1976.72 168.09 1976.72 168.347 Q1976.72 168.816 1976.23 168.816 Q1975.9 168.816 1974.75 167.856 Q1973.61 166.895 1971.83 164.694 Q1970.04 162.492 1968.76 159.798 Q1965.59 153.263 1965.59 144.831 Z" fill="#000000" fill-rule="nonzero" fill-opacity="1" /><path clip-path="url(#clip020)" d="M1995.09 136.68 Q1995.09 137.336 1994.79 137.5 Q1994.49 137.641 1993.64 137.641 L1989.15 137.641 L1985.59 151.788 Q1985.3 153.029 1985.3 154.083 Q1985.3 155.254 1985.66 155.77 Q1986.03 156.285 1986.8 156.285 Q1988.33 156.285 1989.97 154.903 Q1991.63 153.521 1993.03 150.148 Q1993.22 149.703 1993.31 149.61 Q1993.43 149.492 1993.74 149.492 Q1994.32 149.492 1994.32 149.961 Q1994.32 150.125 1993.99 150.874 Q1993.69 151.624 1993.01 152.725 Q1992.35 153.826 1991.49 154.856 Q1990.64 155.887 1989.36 156.636 Q1988.07 157.362 1986.69 157.362 Q1984.74 157.362 1983.5 156.121 Q1982.28 154.88 1982.28 152.935 Q1982.28 152.303 1982.77 150.289 Q1983.27 148.251 1985.94 137.641 L1981.7 137.641 Q1981.11 137.641 1980.88 137.617 Q1980.67 137.594 1980.5 137.477 Q1980.36 137.336 1980.36 137.055 Q1980.36 136.61 1980.55 136.423 Q1980.74 136.212 1980.97 136.188 Q1981.23 136.142 1981.81 136.142 L1986.31 136.142 L1988.19 128.529 Q1988.37 127.78 1988.84 127.358 Q1989.33 126.913 1989.61 126.866 Q1989.9 126.796 1990.11 126.796 Q1990.74 126.796 1991.11 127.147 Q1991.49 127.475 1991.49 128.084 Q1991.49 128.412 1989.52 136.142 L1993.74 136.142 Q1994.28 136.142 1994.49 136.165 Q1994.72 136.188 1994.91 136.306 Q1995.09 136.423 1995.09 136.68 Z" fill="#000000" fill-rule="nonzero" fill-opacity="1" /><path clip-path="url(#clip020)" d="M1998.85 168.347 Q1998.85 168.113 1999.46 167.528 Q2007.18 159.658 2007.18 144.831 Q2007.18 129.958 1999.76 122.439 Q1998.85 121.573 1998.85 121.315 Q1998.85 120.847 1999.31 120.847 Q1999.64 120.847 2000.79 121.807 Q2001.96 122.767 2003.72 124.969 Q2005.5 127.171 2006.81 129.864 Q2009.97 136.399 2009.97 144.831 Q2009.97 152.935 2006.95 159.47 Q2005.66 162.211 2003.86 164.506 Q2002.05 166.802 2000.86 167.809 Q1999.67 168.816 1999.31 168.816 Q1998.85 168.816 1998.85 168.347 Z" fill="#000000" fill-rule="nonzero" fill-opacity="1" /><polyline clip-path="url(#clip020)" style="stroke:#e26f46; stroke-linecap:round; stroke-linejoin:round; stroke-width:4; stroke-opacity:1; fill:none" points="1766.02,196.789 1911.17,196.789 "/>
<path clip-path="url(#clip020)" d="M1969.42 175.333 L1966.4 187.56 Q1966.19 188.333 1966.05 188.427 Q1965.93 188.52 1965.55 188.52 Q1964.83 188.52 1964.83 188.028 Q1964.83 187.982 1964.9 187.373 Q1964.97 186.74 1964.97 185.593 Q1964.97 181.353 1962.91 178.847 Q1960.87 176.341 1957.24 176.341 Q1953.84 176.341 1950.59 178.121 Q1947.33 179.901 1945.25 182.524 Q1943.49 184.679 1942.27 187.302 Q1941.08 189.926 1940.59 192.221 Q1940.09 194.493 1939.91 195.875 Q1939.74 197.257 1939.74 198.147 Q1939.74 200.77 1940.59 202.808 Q1941.43 204.822 1942.84 205.97 Q1944.26 207.118 1945.9 207.68 Q1947.57 208.242 1949.37 208.242 Q1950.05 208.242 1950.87 208.148 Q1951.69 208.055 1952.95 207.703 Q1954.24 207.352 1955.3 206.766 Q1956.37 206.181 1957.31 205.057 Q1958.27 203.932 1958.65 202.433 Q1959.65 198.615 1959.65 198.053 Q1959.65 197.585 1959.37 197.421 Q1959.09 197.257 1958.15 197.14 L1955.62 197.046 Q1955.58 197.046 1955.51 197.046 Q1955.06 197.046 1954.87 197.046 Q1954.69 197.023 1954.48 196.976 Q1954.29 196.929 1954.22 196.835 Q1954.17 196.718 1954.17 196.531 Q1954.17 196.086 1954.36 195.875 Q1954.55 195.641 1954.71 195.617 Q1954.87 195.57 1955.18 195.57 L1961.9 195.711 Q1962.44 195.711 1964.41 195.641 Q1966.37 195.57 1966.94 195.57 Q1967.57 195.57 1967.57 196.086 Q1967.57 197.046 1966.8 197.046 Q1966.02 197.07 1965.63 197.093 Q1965.23 197.093 1964.83 197.21 Q1964.45 197.327 1964.31 197.421 Q1964.17 197.491 1963.99 197.842 Q1963.8 198.17 1963.73 198.451 Q1963.66 198.709 1963.49 199.365 Q1963.4 199.787 1963.17 200.583 Q1962.95 201.379 1962.86 201.801 L1961.95 205.502 Q1961.32 208.242 1961.13 208.429 Q1961.03 208.617 1960.8 208.617 Q1960.45 208.617 1959.7 207.586 Q1958.97 206.556 1958.65 205.642 Q1958.06 206.275 1957.68 206.649 Q1957.31 207.001 1956.44 207.563 Q1955.6 208.125 1954.48 208.57 Q1951.74 209.718 1948.48 209.718 Q1942.67 209.718 1939.02 206.04 Q1935.36 202.34 1935.36 196.578 Q1935.36 192.502 1937.24 188.497 Q1939.11 184.492 1942.09 181.517 Q1945.06 178.542 1949 176.692 Q1952.93 174.842 1956.87 174.842 Q1958.36 174.842 1959.7 175.24 Q1961.03 175.638 1961.83 176.13 Q1962.65 176.622 1963.38 177.348 Q1964.1 178.05 1964.34 178.378 Q1964.59 178.706 1964.83 179.104 L1968.18 175.427 Q1968.76 174.842 1968.9 174.842 Q1969.19 174.842 1969.3 175.006 Q1969.42 175.17 1969.42 175.333 Z" fill="#000000" fill-rule="nonzero" fill-opacity="1" /><path clip-path="url(#clip020)" d="M1975.18 196.671 Q1975.18 188.567 1978.2 182.032 Q1979.49 179.292 1981.29 176.996 Q1983.09 174.701 1984.29 173.694 Q1985.48 172.687 1985.81 172.687 Q1986.28 172.687 1986.3 173.155 Q1986.3 173.389 1985.67 173.975 Q1977.94 181.845 1977.96 196.671 Q1977.96 211.545 1985.48 219.11 Q1986.3 219.93 1986.3 220.187 Q1986.3 220.656 1985.81 220.656 Q1985.48 220.656 1984.34 219.696 Q1983.19 218.735 1981.41 216.534 Q1979.63 214.332 1978.34 211.638 Q1975.18 205.103 1975.18 196.671 Z" fill="#000000" fill-rule="nonzero" fill-opacity="1" /><path clip-path="url(#clip020)" d="M2004.68 188.52 Q2004.68 189.176 2004.37 189.34 Q2004.07 189.481 2003.23 189.481 L1998.73 189.481 L1995.17 203.628 Q1994.89 204.869 1994.89 205.923 Q1994.89 207.094 1995.24 207.61 Q1995.61 208.125 1996.39 208.125 Q1997.91 208.125 1999.55 206.743 Q2001.21 205.361 2002.62 201.988 Q2002.8 201.543 2002.9 201.45 Q2003.01 201.332 2003.32 201.332 Q2003.9 201.332 2003.9 201.801 Q2003.9 201.965 2003.58 202.714 Q2003.27 203.464 2002.59 204.565 Q2001.94 205.666 2001.07 206.696 Q2000.23 207.727 1998.94 208.476 Q1997.65 209.202 1996.27 209.202 Q1994.32 209.202 1993.08 207.961 Q1991.87 206.72 1991.87 204.775 Q1991.87 204.143 1992.36 202.129 Q1992.85 200.091 1995.52 189.481 L1991.28 189.481 Q1990.69 189.481 1990.46 189.457 Q1990.25 189.434 1990.09 189.317 Q1989.94 189.176 1989.94 188.895 Q1989.94 188.45 1990.13 188.263 Q1990.32 188.052 1990.55 188.028 Q1990.81 187.982 1991.4 187.982 L1995.89 187.982 L1997.77 180.369 Q1997.96 179.62 1998.42 179.198 Q1998.92 178.753 1999.2 178.706 Q1999.48 178.636 1999.69 178.636 Q2000.32 178.636 2000.7 178.987 Q2001.07 179.315 2001.07 179.924 Q2001.07 180.252 1999.1 187.982 L2003.32 187.982 Q2003.86 187.982 2004.07 188.005 Q2004.3 188.028 2004.49 188.146 Q2004.68 188.263 2004.68 188.52 Z" fill="#000000" fill-rule="nonzero" fill-opacity="1" /><path clip-path="url(#clip020)" d="M2008.43 220.187 Q2008.43 219.953 2009.04 219.368 Q2016.77 211.498 2016.77 196.671 Q2016.77 181.798 2009.34 174.279 Q2008.43 173.413 2008.43 173.155 Q2008.43 172.687 2008.9 172.687 Q2009.23 172.687 2010.37 173.647 Q2011.54 174.607 2013.3 176.809 Q2015.08 179.011 2016.39 181.704 Q2019.55 188.239 2019.55 196.671 Q2019.55 204.775 2016.53 211.31 Q2015.24 214.051 2013.44 216.346 Q2011.64 218.642 2010.44 219.649 Q2009.25 220.656 2008.9 220.656 Q2008.43 220.656 2008.43 220.187 Z" fill="#000000" fill-rule="nonzero" fill-opacity="1" /><circle clip-path="url(#clip020)" cx="1838.59" cy="248.629" r="18.432" fill="#ff0000" fill-rule="evenodd" fill-opacity="1" stroke="#000000" stroke-opacity="1" stroke-width="8.192"/>
<path clip-path="url(#clip020)" d="M1951.87 229.89 L1951.87 233.432 L1947.79 233.432 Q1945.5 233.432 1944.6 234.358 Q1943.72 235.284 1943.72 237.691 L1943.72 239.983 L1950.73 239.983 L1950.73 243.293 L1943.72 243.293 L1943.72 265.909 L1939.44 265.909 L1939.44 243.293 L1935.36 243.293 L1935.36 239.983 L1939.44 239.983 L1939.44 238.177 Q1939.44 233.849 1941.45 231.881 Q1943.47 229.89 1947.84 229.89 L1951.87 229.89 Z" fill="#000000" fill-rule="nonzero" fill-opacity="1" /><path clip-path="url(#clip020)" d="M1955.43 239.983 L1959.69 239.983 L1959.69 265.909 L1955.43 265.909 L1955.43 239.983 M1955.43 229.89 L1959.69 229.89 L1959.69 235.284 L1955.43 235.284 L1955.43 229.89 Z" fill="#000000" fill-rule="nonzero" fill-opacity="1" /><path clip-path="url(#clip020)" d="M1968.6 229.89 L1972.86 229.89 L1972.86 265.909 L1968.6 265.909 L1968.6 229.89 Z" fill="#000000" fill-rule="nonzero" fill-opacity="1" /><path clip-path="url(#clip020)" d="M1985.99 232.622 L1985.99 239.983 L1994.76 239.983 L1994.76 243.293 L1985.99 243.293 L1985.99 257.367 Q1985.99 260.538 1986.84 261.441 Q1987.72 262.344 1990.39 262.344 L1994.76 262.344 L1994.76 265.909 L1990.39 265.909 Q1985.46 265.909 1983.58 264.08 Q1981.71 262.228 1981.71 257.367 L1981.71 243.293 L1978.58 243.293 L1978.58 239.983 L1981.71 239.983 L1981.71 232.622 L1985.99 232.622 Z" fill="#000000" fill-rule="nonzero" fill-opacity="1" /><path clip-path="url(#clip020)" d="M2022.54 251.881 L2022.54 253.964 L2002.96 253.964 Q2003.23 258.362 2005.59 260.677 Q2007.98 262.969 2012.21 262.969 Q2014.67 262.969 2016.96 262.367 Q2019.27 261.765 2021.54 260.561 L2021.54 264.589 Q2019.25 265.561 2016.84 266.071 Q2014.44 266.58 2011.96 266.58 Q2005.76 266.58 2002.12 262.969 Q1998.51 259.358 1998.51 253.2 Q1998.51 246.835 2001.94 243.108 Q2005.39 239.358 2011.22 239.358 Q2016.45 239.358 2019.48 242.737 Q2022.54 246.094 2022.54 251.881 M2018.28 250.631 Q2018.23 247.136 2016.31 245.052 Q2014.41 242.969 2011.27 242.969 Q2007.7 242.969 2005.55 244.983 Q2003.42 246.997 2003.09 250.654 L2018.28 250.631 Z" fill="#000000" fill-rule="nonzero" fill-opacity="1" /><path clip-path="url(#clip020)" d="M2044.55 243.964 Q2043.83 243.548 2042.98 243.362 Q2042.15 243.154 2041.13 243.154 Q2037.52 243.154 2035.57 245.515 Q2033.65 247.853 2033.65 252.251 L2033.65 265.909 L2029.37 265.909 L2029.37 239.983 L2033.65 239.983 L2033.65 244.011 Q2034.99 241.649 2037.15 240.515 Q2039.3 239.358 2042.38 239.358 Q2042.82 239.358 2043.35 239.427 Q2043.88 239.474 2044.53 239.589 L2044.55 243.964 Z" fill="#000000" fill-rule="nonzero" fill-opacity="1" /><path clip-path="url(#clip020)" d="M2070.15 251.881 L2070.15 253.964 L2050.57 253.964 Q2050.85 258.362 2053.21 260.677 Q2055.59 262.969 2059.83 262.969 Q2062.28 262.969 2064.58 262.367 Q2066.89 261.765 2069.16 260.561 L2069.16 264.589 Q2066.87 265.561 2064.46 266.071 Q2062.05 266.58 2059.58 266.58 Q2053.37 266.58 2049.74 262.969 Q2046.13 259.358 2046.13 253.2 Q2046.13 246.835 2049.55 243.108 Q2053 239.358 2058.83 239.358 Q2064.07 239.358 2067.1 242.737 Q2070.15 246.094 2070.15 251.881 M2065.89 250.631 Q2065.85 247.136 2063.93 245.052 Q2062.03 242.969 2058.88 242.969 Q2055.32 242.969 2053.16 244.983 Q2051.03 246.997 2050.71 250.654 L2065.89 250.631 Z" fill="#000000" fill-rule="nonzero" fill-opacity="1" /><path clip-path="url(#clip020)" d="M2094.21 243.918 L2094.21 229.89 L2098.46 229.89 L2098.46 265.909 L2094.21 265.909 L2094.21 262.02 Q2092.86 264.335 2090.8 265.469 Q2088.77 266.58 2085.89 266.58 Q2081.2 266.58 2078.23 262.83 Q2075.29 259.08 2075.29 252.969 Q2075.29 246.858 2078.23 243.108 Q2081.2 239.358 2085.89 239.358 Q2088.77 239.358 2090.8 240.492 Q2092.86 241.603 2094.21 243.918 M2079.69 252.969 Q2079.69 257.668 2081.61 260.353 Q2083.56 263.015 2086.94 263.015 Q2090.32 263.015 2092.26 260.353 Q2094.21 257.668 2094.21 252.969 Q2094.21 248.27 2092.26 245.608 Q2090.32 242.923 2086.94 242.923 Q2083.56 242.923 2081.61 245.608 Q2079.69 248.27 2079.69 252.969 Z" fill="#000000" fill-rule="nonzero" fill-opacity="1" /><path clip-path="url(#clip020)" d="M2126.43 262.02 L2126.43 275.77 L2122.14 275.77 L2122.14 239.983 L2126.43 239.983 L2126.43 243.918 Q2127.77 241.603 2129.81 240.492 Q2131.87 239.358 2134.71 239.358 Q2139.44 239.358 2142.38 243.108 Q2145.34 246.858 2145.34 252.969 Q2145.34 259.08 2142.38 262.83 Q2139.44 266.58 2134.71 266.58 Q2131.87 266.58 2129.81 265.469 Q2127.77 264.335 2126.43 262.02 M2140.92 252.969 Q2140.92 248.27 2138.97 245.608 Q2137.05 242.923 2133.67 242.923 Q2130.29 242.923 2128.35 245.608 Q2126.43 248.27 2126.43 252.969 Q2126.43 257.668 2128.35 260.353 Q2130.29 263.015 2133.67 263.015 Q2137.05 263.015 2138.97 260.353 Q2140.92 257.668 2140.92 252.969 Z" fill="#000000" fill-rule="nonzero" fill-opacity="1" /><path clip-path="url(#clip020)" d="M2174.57 251.881 L2174.57 253.964 L2154.99 253.964 Q2155.27 258.362 2157.63 260.677 Q2160.01 262.969 2164.25 262.969 Q2166.7 262.969 2169 262.367 Q2171.31 261.765 2173.58 260.561 L2173.58 264.589 Q2171.29 265.561 2168.88 266.071 Q2166.47 266.58 2164 266.58 Q2157.79 266.58 2154.16 262.969 Q2150.55 259.358 2150.55 253.2 Q2150.55 246.835 2153.97 243.108 Q2157.42 239.358 2163.26 239.358 Q2168.49 239.358 2171.52 242.737 Q2174.57 246.094 2174.57 251.881 M2170.32 250.631 Q2170.27 247.136 2168.35 245.052 Q2166.45 242.969 2163.3 242.969 Q2159.74 242.969 2157.58 244.983 Q2155.45 246.997 2155.13 250.654 L2170.32 250.631 Z" fill="#000000" fill-rule="nonzero" fill-opacity="1" /><path clip-path="url(#clip020)" d="M2193.35 252.876 Q2188.19 252.876 2186.2 254.057 Q2184.2 255.237 2184.2 258.085 Q2184.2 260.353 2185.69 261.696 Q2187.19 263.015 2189.76 263.015 Q2193.3 263.015 2195.43 260.515 Q2197.58 257.992 2197.58 253.825 L2197.58 252.876 L2193.35 252.876 M2201.84 251.117 L2201.84 265.909 L2197.58 265.909 L2197.58 261.973 Q2196.13 264.335 2193.95 265.469 Q2191.77 266.58 2188.63 266.58 Q2184.64 266.58 2182.28 264.358 Q2179.95 262.112 2179.95 258.362 Q2179.95 253.987 2182.86 251.765 Q2185.8 249.543 2191.61 249.543 L2197.58 249.543 L2197.58 249.126 Q2197.58 246.187 2195.64 244.589 Q2193.72 242.969 2190.22 242.969 Q2188 242.969 2185.89 243.501 Q2183.79 244.034 2181.84 245.099 L2181.84 241.163 Q2184.18 240.261 2186.38 239.821 Q2188.58 239.358 2190.66 239.358 Q2196.29 239.358 2199.07 242.274 Q2201.84 245.191 2201.84 251.117 Z" fill="#000000" fill-rule="nonzero" fill-opacity="1" /><path clip-path="url(#clip020)" d="M2210.45 229.89 L2214.74 229.89 L2214.74 251.163 L2227.45 239.983 L2232.88 239.983 L2219.13 252.112 L2233.46 265.909 L2227.91 265.909 L2214.74 253.247 L2214.74 265.909 L2210.45 265.909 L2210.45 229.89 Z" fill="#000000" fill-rule="nonzero" fill-opacity="1" /><path clip-path="url(#clip020)" d="M2254.6 240.747 L2254.6 244.774 Q2252.79 243.849 2250.85 243.386 Q2248.9 242.923 2246.82 242.923 Q2243.65 242.923 2242.05 243.895 Q2240.48 244.867 2240.48 246.811 Q2240.48 248.293 2241.61 249.149 Q2242.75 249.983 2246.17 250.747 L2247.63 251.071 Q2252.17 252.043 2254.07 253.825 Q2255.99 255.585 2255.99 258.756 Q2255.99 262.367 2253.12 264.473 Q2250.27 266.58 2245.27 266.58 Q2243.19 266.58 2240.92 266.163 Q2238.67 265.77 2236.17 264.96 L2236.17 260.561 Q2238.53 261.788 2240.82 262.413 Q2243.12 263.015 2245.36 263.015 Q2248.37 263.015 2249.99 261.997 Q2251.61 260.955 2251.61 259.08 Q2251.61 257.344 2250.43 256.418 Q2249.27 255.492 2245.32 254.636 L2243.83 254.288 Q2239.88 253.455 2238.12 251.742 Q2236.36 250.006 2236.36 246.997 Q2236.36 243.339 2238.95 241.349 Q2241.54 239.358 2246.31 239.358 Q2248.67 239.358 2250.76 239.705 Q2252.84 240.052 2254.6 240.747 Z" fill="#000000" fill-rule="nonzero" fill-opacity="1" /></svg>
