<?xml version="1.0" encoding="utf-8"?>
<svg xmlns="http://www.w3.org/2000/svg" xmlns:xlink="http://www.w3.org/1999/xlink" width="600" height="400" viewBox="0 0 2400 1600">
<defs>
  <clipPath id="clip530">
    <rect x="0" y="0" width="2400" height="1600"/>
  </clipPath>
</defs>
<path clip-path="url(#clip530)" d="M0 1600 L2400 1600 L2400 0 L0 0  Z" fill="#ffffff" fill-rule="evenodd" fill-opacity="1"/>
<defs>
  <clipPath id="clip531">
    <rect x="480" y="0" width="1681" height="1600"/>
  </clipPath>
</defs>
<path clip-path="url(#clip530)" d="M193.936 1486.45 L2352.76 1486.45 L2352.76 47.2441 L193.936 47.2441  Z" fill="#ffffff" fill-rule="evenodd" fill-opacity="1"/>
<defs>
  <clipPath id="clip532">
    <rect x="193" y="47" width="2160" height="1440"/>
  </clipPath>
</defs>
<polyline clip-path="url(#clip532)" style="stroke:#000000; stroke-linecap:round; stroke-linejoin:round; stroke-width:2; stroke-opacity:0.1; fill:none" points="255.035,1486.45 255.035,47.2441 "/>
<polyline clip-path="url(#clip532)" style="stroke:#000000; stroke-linecap:round; stroke-linejoin:round; stroke-width:2; stroke-opacity:0.1; fill:none" points="764.7,1486.45 764.7,47.2441 "/>
<polyline clip-path="url(#clip532)" style="stroke:#000000; stroke-linecap:round; stroke-linejoin:round; stroke-width:2; stroke-opacity:0.1; fill:none" points="1274.37,1486.45 1274.37,47.2441 "/>
<polyline clip-path="url(#clip532)" style="stroke:#000000; stroke-linecap:round; stroke-linejoin:round; stroke-width:2; stroke-opacity:0.1; fill:none" points="1784.03,1486.45 1784.03,47.2441 "/>
<polyline clip-path="url(#clip532)" style="stroke:#000000; stroke-linecap:round; stroke-linejoin:round; stroke-width:2; stroke-opacity:0.1; fill:none" points="2293.7,1486.45 2293.7,47.2441 "/>
<polyline clip-path="url(#clip530)" style="stroke:#000000; stroke-linecap:round; stroke-linejoin:round; stroke-width:4; stroke-opacity:1; fill:none" points="193.936,1486.45 2352.76,1486.45 "/>
<polyline clip-path="url(#clip530)" style="stroke:#000000; stroke-linecap:round; stroke-linejoin:round; stroke-width:4; stroke-opacity:1; fill:none" points="255.035,1486.45 255.035,1467.55 "/>
<polyline clip-path="url(#clip530)" style="stroke:#000000; stroke-linecap:round; stroke-linejoin:round; stroke-width:4; stroke-opacity:1; fill:none" points="764.7,1486.45 764.7,1467.55 "/>
<polyline clip-path="url(#clip530)" style="stroke:#000000; stroke-linecap:round; stroke-linejoin:round; stroke-width:4; stroke-opacity:1; fill:none" points="1274.37,1486.45 1274.37,1467.55 "/>
<polyline clip-path="url(#clip530)" style="stroke:#000000; stroke-linecap:round; stroke-linejoin:round; stroke-width:4; stroke-opacity:1; fill:none" points="1784.03,1486.45 1784.03,1467.55 "/>
<polyline clip-path="url(#clip530)" style="stroke:#000000; stroke-linecap:round; stroke-linejoin:round; stroke-width:4; stroke-opacity:1; fill:none" points="2293.7,1486.45 2293.7,1467.55 "/>
<path clip-path="url(#clip530)" d="M255.035 1517.37 Q251.424 1517.37 249.595 1520.93 Q247.789 1524.47 247.789 1531.6 Q247.789 1538.71 249.595 1542.27 Q251.424 1545.82 255.035 1545.82 Q258.669 1545.82 260.474 1542.27 Q262.303 1538.71 262.303 1531.6 Q262.303 1524.47 260.474 1520.93 Q258.669 1517.37 255.035 1517.37 M255.035 1513.66 Q260.845 1513.66 263.9 1518.27 Q266.979 1522.85 266.979 1531.6 Q266.979 1540.33 263.9 1544.94 Q260.845 1549.52 255.035 1549.52 Q249.225 1549.52 246.146 1544.94 Q243.09 1540.33 243.09 1531.6 Q243.09 1522.85 246.146 1518.27 Q249.225 1513.66 255.035 1513.66 Z" fill="#000000" fill-rule="nonzero" fill-opacity="1" /><path clip-path="url(#clip530)" d="M743.971 1544.91 L760.29 1544.91 L760.29 1548.85 L738.346 1548.85 L738.346 1544.91 Q741.008 1542.16 745.591 1537.53 Q750.198 1532.88 751.378 1531.53 Q753.624 1529.01 754.503 1527.27 Q755.406 1525.51 755.406 1523.82 Q755.406 1521.07 753.462 1519.33 Q751.54 1517.6 748.438 1517.6 Q746.239 1517.6 743.786 1518.36 Q741.355 1519.13 738.577 1520.68 L738.577 1515.95 Q741.401 1514.82 743.855 1514.24 Q746.309 1513.66 748.346 1513.66 Q753.716 1513.66 756.911 1516.35 Q760.105 1519.03 760.105 1523.52 Q760.105 1525.65 759.295 1527.57 Q758.508 1529.47 756.401 1532.07 Q755.823 1532.74 752.721 1535.95 Q749.619 1539.15 743.971 1544.91 Z" fill="#000000" fill-rule="nonzero" fill-opacity="1" /><path clip-path="url(#clip530)" d="M770.151 1514.29 L788.508 1514.29 L788.508 1518.22 L774.434 1518.22 L774.434 1526.7 Q775.452 1526.35 776.471 1526.19 Q777.489 1526 778.508 1526 Q784.295 1526 787.674 1529.17 Q791.054 1532.34 791.054 1537.76 Q791.054 1543.34 787.582 1546.44 Q784.11 1549.52 777.79 1549.52 Q775.614 1549.52 773.346 1549.15 Q771.1 1548.78 768.693 1548.04 L768.693 1543.34 Q770.776 1544.47 772.999 1545.03 Q775.221 1545.58 777.698 1545.58 Q781.702 1545.58 784.04 1543.48 Q786.378 1541.37 786.378 1537.76 Q786.378 1534.15 784.04 1532.04 Q781.702 1529.94 777.698 1529.94 Q775.823 1529.94 773.948 1530.35 Q772.096 1530.77 770.151 1531.65 L770.151 1514.29 Z" fill="#000000" fill-rule="nonzero" fill-opacity="1" /><path clip-path="url(#clip530)" d="M1249.06 1514.29 L1267.42 1514.29 L1267.42 1518.22 L1253.35 1518.22 L1253.35 1526.7 Q1254.37 1526.35 1255.38 1526.19 Q1256.4 1526 1257.42 1526 Q1263.21 1526 1266.59 1529.17 Q1269.97 1532.34 1269.97 1537.76 Q1269.97 1543.34 1266.49 1546.44 Q1263.02 1549.52 1256.7 1549.52 Q1254.53 1549.52 1252.26 1549.15 Q1250.01 1548.78 1247.61 1548.04 L1247.61 1543.34 Q1249.69 1544.47 1251.91 1545.03 Q1254.13 1545.58 1256.61 1545.58 Q1260.62 1545.58 1262.95 1543.48 Q1265.29 1541.37 1265.29 1537.76 Q1265.29 1534.15 1262.95 1532.04 Q1260.62 1529.94 1256.61 1529.94 Q1254.74 1529.94 1252.86 1530.35 Q1251.01 1530.77 1249.06 1531.65 L1249.06 1514.29 Z" fill="#000000" fill-rule="nonzero" fill-opacity="1" /><path clip-path="url(#clip530)" d="M1289.18 1517.37 Q1285.57 1517.37 1283.74 1520.93 Q1281.93 1524.47 1281.93 1531.6 Q1281.93 1538.71 1283.74 1542.27 Q1285.57 1545.82 1289.18 1545.82 Q1292.81 1545.82 1294.62 1542.27 Q1296.45 1538.71 1296.45 1531.6 Q1296.45 1524.47 1294.62 1520.93 Q1292.81 1517.37 1289.18 1517.37 M1289.18 1513.66 Q1294.99 1513.66 1298.05 1518.27 Q1301.12 1522.85 1301.12 1531.6 Q1301.12 1540.33 1298.05 1544.94 Q1294.99 1549.52 1289.18 1549.52 Q1283.37 1549.52 1280.29 1544.94 Q1277.24 1540.33 1277.24 1531.6 Q1277.24 1522.85 1280.29 1518.27 Q1283.37 1513.66 1289.18 1513.66 Z" fill="#000000" fill-rule="nonzero" fill-opacity="1" /><path clip-path="url(#clip530)" d="M1757.88 1514.29 L1780.11 1514.29 L1780.11 1516.28 L1767.56 1548.85 L1762.68 1548.85 L1774.48 1518.22 L1757.88 1518.22 L1757.88 1514.29 Z" fill="#000000" fill-rule="nonzero" fill-opacity="1" /><path clip-path="url(#clip530)" d="M1789.27 1514.29 L1807.63 1514.29 L1807.63 1518.22 L1793.56 1518.22 L1793.56 1526.7 Q1794.57 1526.35 1795.59 1526.19 Q1796.61 1526 1797.63 1526 Q1803.42 1526 1806.8 1529.17 Q1810.18 1532.34 1810.18 1537.76 Q1810.18 1543.34 1806.7 1546.44 Q1803.23 1549.52 1796.91 1549.52 Q1794.74 1549.52 1792.47 1549.15 Q1790.22 1548.78 1787.82 1548.04 L1787.82 1543.34 Q1789.9 1544.47 1792.12 1545.03 Q1794.34 1545.58 1796.82 1545.58 Q1800.82 1545.58 1803.16 1543.48 Q1805.5 1541.37 1805.5 1537.76 Q1805.5 1534.15 1803.16 1532.04 Q1800.82 1529.94 1796.82 1529.94 Q1794.94 1529.94 1793.07 1530.35 Q1791.22 1530.77 1789.27 1531.65 L1789.27 1514.29 Z" fill="#000000" fill-rule="nonzero" fill-opacity="1" /><path clip-path="url(#clip530)" d="M2253.3 1544.91 L2260.94 1544.91 L2260.94 1518.55 L2252.63 1520.21 L2252.63 1515.95 L2260.9 1514.29 L2265.57 1514.29 L2265.57 1544.91 L2273.21 1544.91 L2273.21 1548.85 L2253.3 1548.85 L2253.3 1544.91 Z" fill="#000000" fill-rule="nonzero" fill-opacity="1" /><path clip-path="url(#clip530)" d="M2292.65 1517.37 Q2289.04 1517.37 2287.21 1520.93 Q2285.41 1524.47 2285.41 1531.6 Q2285.41 1538.71 2287.21 1542.27 Q2289.04 1545.82 2292.65 1545.82 Q2296.29 1545.82 2298.09 1542.27 Q2299.92 1538.71 2299.92 1531.6 Q2299.92 1524.47 2298.09 1520.93 Q2296.29 1517.37 2292.65 1517.37 M2292.65 1513.66 Q2298.46 1513.66 2301.52 1518.27 Q2304.6 1522.85 2304.6 1531.6 Q2304.6 1540.33 2301.52 1544.94 Q2298.46 1549.52 2292.65 1549.52 Q2286.84 1549.52 2283.77 1544.94 Q2280.71 1540.33 2280.71 1531.6 Q2280.71 1522.85 2283.77 1518.27 Q2286.84 1513.66 2292.65 1513.66 Z" fill="#000000" fill-rule="nonzero" fill-opacity="1" /><path clip-path="url(#clip530)" d="M2322.82 1517.37 Q2319.21 1517.37 2317.38 1520.93 Q2315.57 1524.47 2315.57 1531.6 Q2315.57 1538.71 2317.38 1542.27 Q2319.21 1545.82 2322.82 1545.82 Q2326.45 1545.82 2328.26 1542.27 Q2330.08 1538.71 2330.08 1531.6 Q2330.08 1524.47 2328.26 1520.93 Q2326.45 1517.37 2322.82 1517.37 M2322.82 1513.66 Q2328.63 1513.66 2331.68 1518.27 Q2334.76 1522.85 2334.76 1531.6 Q2334.76 1540.33 2331.68 1544.94 Q2328.63 1549.52 2322.82 1549.52 Q2317.01 1549.52 2313.93 1544.94 Q2310.87 1540.33 2310.87 1531.6 Q2310.87 1522.85 2313.93 1518.27 Q2317.01 1513.66 2322.82 1513.66 Z" fill="#000000" fill-rule="nonzero" fill-opacity="1" /><polyline clip-path="url(#clip532)" style="stroke:#000000; stroke-linecap:round; stroke-linejoin:round; stroke-width:2; stroke-opacity:0.1; fill:none" points="193.936,1391.05 2352.76,1391.05 "/>
<polyline clip-path="url(#clip532)" style="stroke:#000000; stroke-linecap:round; stroke-linejoin:round; stroke-width:2; stroke-opacity:0.1; fill:none" points="193.936,1113.25 2352.76,1113.25 "/>
<polyline clip-path="url(#clip532)" style="stroke:#000000; stroke-linecap:round; stroke-linejoin:round; stroke-width:2; stroke-opacity:0.1; fill:none" points="193.936,835.459 2352.76,835.459 "/>
<polyline clip-path="url(#clip532)" style="stroke:#000000; stroke-linecap:round; stroke-linejoin:round; stroke-width:2; stroke-opacity:0.1; fill:none" points="193.936,557.665 2352.76,557.665 "/>
<polyline clip-path="url(#clip532)" style="stroke:#000000; stroke-linecap:round; stroke-linejoin:round; stroke-width:2; stroke-opacity:0.1; fill:none" points="193.936,279.871 2352.76,279.871 "/>
<polyline clip-path="url(#clip530)" style="stroke:#000000; stroke-linecap:round; stroke-linejoin:round; stroke-width:4; stroke-opacity:1; fill:none" points="193.936,1486.45 193.936,47.2441 "/>
<polyline clip-path="url(#clip530)" style="stroke:#000000; stroke-linecap:round; stroke-linejoin:round; stroke-width:4; stroke-opacity:1; fill:none" points="193.936,1391.05 212.834,1391.05 "/>
<polyline clip-path="url(#clip530)" style="stroke:#000000; stroke-linecap:round; stroke-linejoin:round; stroke-width:4; stroke-opacity:1; fill:none" points="193.936,1113.25 212.834,1113.25 "/>
<polyline clip-path="url(#clip530)" style="stroke:#000000; stroke-linecap:round; stroke-linejoin:round; stroke-width:4; stroke-opacity:1; fill:none" points="193.936,835.459 212.834,835.459 "/>
<polyline clip-path="url(#clip530)" style="stroke:#000000; stroke-linecap:round; stroke-linejoin:round; stroke-width:4; stroke-opacity:1; fill:none" points="193.936,557.665 212.834,557.665 "/>
<polyline clip-path="url(#clip530)" style="stroke:#000000; stroke-linecap:round; stroke-linejoin:round; stroke-width:4; stroke-opacity:1; fill:none" points="193.936,279.871 212.834,279.871 "/>
<path clip-path="url(#clip530)" d="M50.9921 1391.5 L80.6679 1391.5 L80.6679 1395.43 L50.9921 1395.43 L50.9921 1391.5 Z" fill="#000000" fill-rule="nonzero" fill-opacity="1" /><path clip-path="url(#clip530)" d="M90.8067 1373.77 L109.163 1373.77 L109.163 1377.7 L95.0891 1377.7 L95.0891 1386.17 Q96.1076 1385.83 97.1261 1385.67 Q98.1447 1385.48 99.1632 1385.48 Q104.95 1385.48 108.33 1388.65 Q111.709 1391.82 111.709 1397.24 Q111.709 1402.82 108.237 1405.92 Q104.765 1409 98.4456 1409 Q96.2697 1409 94.0012 1408.63 Q91.7558 1408.26 89.3484 1407.52 L89.3484 1402.82 Q91.4317 1403.95 93.6539 1404.51 Q95.8761 1405.06 98.353 1405.06 Q102.358 1405.06 104.696 1402.96 Q107.033 1400.85 107.033 1397.24 Q107.033 1393.63 104.696 1391.52 Q102.358 1389.42 98.353 1389.42 Q96.478 1389.42 94.603 1389.83 Q92.7512 1390.25 90.8067 1391.13 L90.8067 1373.77 Z" fill="#000000" fill-rule="nonzero" fill-opacity="1" /><path clip-path="url(#clip530)" d="M120.922 1402.45 L125.807 1402.45 L125.807 1408.33 L120.922 1408.33 L120.922 1402.45 Z" fill="#000000" fill-rule="nonzero" fill-opacity="1" /><path clip-path="url(#clip530)" d="M145.992 1376.85 Q142.381 1376.85 140.552 1380.41 Q138.746 1383.95 138.746 1391.08 Q138.746 1398.19 140.552 1401.75 Q142.381 1405.3 145.992 1405.3 Q149.626 1405.3 151.431 1401.75 Q153.26 1398.19 153.26 1391.08 Q153.26 1383.95 151.431 1380.41 Q149.626 1376.85 145.992 1376.85 M145.992 1373.14 Q151.802 1373.14 154.857 1377.75 Q157.936 1382.33 157.936 1391.08 Q157.936 1399.81 154.857 1404.42 Q151.802 1409 145.992 1409 Q140.181 1409 137.103 1404.42 Q134.047 1399.81 134.047 1391.08 Q134.047 1382.33 137.103 1377.75 Q140.181 1373.14 145.992 1373.14 Z" fill="#000000" fill-rule="nonzero" fill-opacity="1" /><path clip-path="url(#clip530)" d="M51.9875 1113.7 L81.6633 1113.7 L81.6633 1117.64 L51.9875 1117.64 L51.9875 1113.7 Z" fill="#000000" fill-rule="nonzero" fill-opacity="1" /><path clip-path="url(#clip530)" d="M95.7836 1126.6 L112.103 1126.6 L112.103 1130.53 L90.1586 1130.53 L90.1586 1126.6 Q92.8206 1123.84 97.4039 1119.21 Q102.01 1114.56 103.191 1113.22 Q105.436 1110.7 106.316 1108.96 Q107.219 1107.2 107.219 1105.51 Q107.219 1102.76 105.274 1101.02 Q103.353 1099.28 100.251 1099.28 Q98.0521 1099.28 95.5984 1100.05 Q93.1678 1100.81 90.3901 1102.36 L90.3901 1097.64 Q93.2141 1096.51 95.6678 1095.93 Q98.1215 1095.35 100.159 1095.35 Q105.529 1095.35 108.723 1098.03 Q111.918 1100.72 111.918 1105.21 Q111.918 1107.34 111.108 1109.26 Q110.321 1111.16 108.214 1113.75 Q107.635 1114.42 104.534 1117.64 Q101.432 1120.83 95.7836 1126.6 Z" fill="#000000" fill-rule="nonzero" fill-opacity="1" /><path clip-path="url(#clip530)" d="M121.918 1124.65 L126.802 1124.65 L126.802 1130.53 L121.918 1130.53 L121.918 1124.65 Z" fill="#000000" fill-rule="nonzero" fill-opacity="1" /><path clip-path="url(#clip530)" d="M137.033 1095.97 L155.39 1095.97 L155.39 1099.91 L141.316 1099.91 L141.316 1108.38 Q142.334 1108.03 143.353 1107.87 Q144.371 1107.69 145.39 1107.69 Q151.177 1107.69 154.556 1110.86 Q157.936 1114.03 157.936 1119.45 Q157.936 1125.02 154.464 1128.13 Q150.992 1131.2 144.672 1131.2 Q142.496 1131.2 140.228 1130.83 Q137.982 1130.46 135.575 1129.72 L135.575 1125.02 Q137.658 1126.16 139.881 1126.71 Q142.103 1127.27 144.58 1127.27 Q148.584 1127.27 150.922 1125.16 Q153.26 1123.06 153.26 1119.45 Q153.26 1115.83 150.922 1113.73 Q148.584 1111.62 144.58 1111.62 Q142.705 1111.62 140.83 1112.04 Q138.978 1112.45 137.033 1113.33 L137.033 1095.97 Z" fill="#000000" fill-rule="nonzero" fill-opacity="1" /><path clip-path="url(#clip530)" d="M100.76 821.258 Q97.1493 821.258 95.3206 824.823 Q93.515 828.365 93.515 835.494 Q93.515 842.601 95.3206 846.165 Q97.1493 849.707 100.76 849.707 Q104.395 849.707 106.2 846.165 Q108.029 842.601 108.029 835.494 Q108.029 828.365 106.2 824.823 Q104.395 821.258 100.76 821.258 M100.76 817.554 Q106.571 817.554 109.626 822.161 Q112.705 826.744 112.705 835.494 Q112.705 844.221 109.626 848.827 Q106.571 853.411 100.76 853.411 Q94.9502 853.411 91.8715 848.827 Q88.816 844.221 88.816 835.494 Q88.816 826.744 91.8715 822.161 Q94.9502 817.554 100.76 817.554 Z" fill="#000000" fill-rule="nonzero" fill-opacity="1" /><path clip-path="url(#clip530)" d="M120.922 846.86 L125.807 846.86 L125.807 852.739 L120.922 852.739 L120.922 846.86 Z" fill="#000000" fill-rule="nonzero" fill-opacity="1" /><path clip-path="url(#clip530)" d="M145.992 821.258 Q142.381 821.258 140.552 824.823 Q138.746 828.365 138.746 835.494 Q138.746 842.601 140.552 846.165 Q142.381 849.707 145.992 849.707 Q149.626 849.707 151.431 846.165 Q153.26 842.601 153.26 835.494 Q153.26 828.365 151.431 824.823 Q149.626 821.258 145.992 821.258 M145.992 817.554 Q151.802 817.554 154.857 822.161 Q157.936 826.744 157.936 835.494 Q157.936 844.221 154.857 848.827 Q151.802 853.411 145.992 853.411 Q140.181 853.411 137.103 848.827 Q134.047 844.221 134.047 835.494 Q134.047 826.744 137.103 822.161 Q140.181 817.554 145.992 817.554 Z" fill="#000000" fill-rule="nonzero" fill-opacity="1" /><path clip-path="url(#clip530)" d="M95.7836 571.01 L112.103 571.01 L112.103 574.945 L90.1586 574.945 L90.1586 571.01 Q92.8206 568.256 97.4039 563.626 Q102.01 558.973 103.191 557.631 Q105.436 555.108 106.316 553.371 Q107.219 551.612 107.219 549.922 Q107.219 547.168 105.274 545.432 Q103.353 543.696 100.251 543.696 Q98.0521 543.696 95.5984 544.459 Q93.1678 545.223 90.3901 546.774 L90.3901 542.052 Q93.2141 540.918 95.6678 540.339 Q98.1215 539.76 100.159 539.76 Q105.529 539.76 108.723 542.446 Q111.918 545.131 111.918 549.621 Q111.918 551.751 111.108 553.672 Q110.321 555.571 108.214 558.163 Q107.635 558.834 104.534 562.052 Q101.432 565.246 95.7836 571.01 Z" fill="#000000" fill-rule="nonzero" fill-opacity="1" /><path clip-path="url(#clip530)" d="M121.918 569.066 L126.802 569.066 L126.802 574.945 L121.918 574.945 L121.918 569.066 Z" fill="#000000" fill-rule="nonzero" fill-opacity="1" /><path clip-path="url(#clip530)" d="M137.033 540.385 L155.39 540.385 L155.39 544.321 L141.316 544.321 L141.316 552.793 Q142.334 552.446 143.353 552.283 Q144.371 552.098 145.39 552.098 Q151.177 552.098 154.556 555.27 Q157.936 558.441 157.936 563.857 Q157.936 569.436 154.464 572.538 Q150.992 575.617 144.672 575.617 Q142.496 575.617 140.228 575.246 Q137.982 574.876 135.575 574.135 L135.575 569.436 Q137.658 570.57 139.881 571.126 Q142.103 571.682 144.58 571.682 Q148.584 571.682 150.922 569.575 Q153.26 567.469 153.26 563.857 Q153.26 560.246 150.922 558.14 Q148.584 556.033 144.58 556.033 Q142.705 556.033 140.83 556.45 Q138.978 556.867 137.033 557.746 L137.033 540.385 Z" fill="#000000" fill-rule="nonzero" fill-opacity="1" /><path clip-path="url(#clip530)" d="M90.8067 262.591 L109.163 262.591 L109.163 266.527 L95.0891 266.527 L95.0891 274.999 Q96.1076 274.651 97.1261 274.489 Q98.1447 274.304 99.1632 274.304 Q104.95 274.304 108.33 277.476 Q111.709 280.647 111.709 286.063 Q111.709 291.642 108.237 294.744 Q104.765 297.823 98.4456 297.823 Q96.2697 297.823 94.0012 297.452 Q91.7558 297.082 89.3484 296.341 L89.3484 291.642 Q91.4317 292.776 93.6539 293.332 Q95.8761 293.888 98.353 293.888 Q102.358 293.888 104.696 291.781 Q107.033 289.675 107.033 286.063 Q107.033 282.452 104.696 280.346 Q102.358 278.239 98.353 278.239 Q96.478 278.239 94.603 278.656 Q92.7512 279.073 90.8067 279.952 L90.8067 262.591 Z" fill="#000000" fill-rule="nonzero" fill-opacity="1" /><path clip-path="url(#clip530)" d="M120.922 291.272 L125.807 291.272 L125.807 297.151 L120.922 297.151 L120.922 291.272 Z" fill="#000000" fill-rule="nonzero" fill-opacity="1" /><path clip-path="url(#clip530)" d="M145.992 265.67 Q142.381 265.67 140.552 269.235 Q138.746 272.777 138.746 279.906 Q138.746 287.013 140.552 290.577 Q142.381 294.119 145.992 294.119 Q149.626 294.119 151.431 290.577 Q153.26 287.013 153.26 279.906 Q153.26 272.777 151.431 269.235 Q149.626 265.67 145.992 265.67 M145.992 261.966 Q151.802 261.966 154.857 266.573 Q157.936 271.156 157.936 279.906 Q157.936 288.633 154.857 293.239 Q151.802 297.823 145.992 297.823 Q140.181 297.823 137.103 293.239 Q134.047 288.633 134.047 279.906 Q134.047 271.156 137.103 266.573 Q140.181 261.966 145.992 261.966 Z" fill="#000000" fill-rule="nonzero" fill-opacity="1" /><polyline clip-path="url(#clip532)" style="stroke:#009af9; stroke-linecap:round; stroke-linejoin:round; stroke-width:4; stroke-opacity:1; fill:none" points="255.035,835.458 257.073,835.458 259.112,835.457 261.151,835.457 263.189,835.457 265.228,835.457 267.267,835.457 269.305,835.457 271.344,835.457 273.383,835.457 275.421,835.457 277.46,835.457 279.499,835.457 281.537,835.457 283.576,835.457 285.615,835.457 287.653,835.458 289.692,835.458 291.731,835.459 293.769,835.46 295.808,835.461 297.847,835.462 299.885,835.463 301.924,835.464 303.963,835.466 306.001,835.468 308.04,835.47 310.079,835.472 312.117,835.475 314.156,835.478 316.195,835.48 318.233,835.484 320.272,835.487 322.31,835.49 324.349,835.494 326.388,835.498 328.426,835.502 330.465,835.506 332.504,835.509 334.542,835.513 336.581,835.517 338.62,835.52 340.658,835.523 342.697,835.526 344.736,835.528 346.774,835.529 348.813,835.53 350.852,835.53 352.89,835.528 354.929,835.526 356.968,835.521 359.006,835.516 361.045,835.508 363.084,835.499 365.122,835.487 367.161,835.473 369.2,835.456 371.238,835.437 373.277,835.415 375.316,835.391 377.354,835.363 379.393,835.332 381.432,835.298 383.47,835.26 385.509,835.22 387.548,835.176 389.586,835.13 391.625,835.081 393.664,835.029 395.702,834.975 397.741,834.92 399.78,834.863 401.818,834.806 403.857,834.749 405.896,834.693 407.934,834.638 409.973,834.586 412.012,834.538 414.05,834.495 416.089,834.458 418.128,834.429 420.166,834.409 422.205,834.399 424.244,834.401 426.282,834.417 428.321,834.448 430.36,834.496 432.398,834.563 434.437,834.651 436.476,834.76 438.514,834.893 440.553,835.051 442.592,835.235 444.63,835.447 446.669,835.687 448.707,835.956 450.746,836.254 452.785,836.581 454.823,836.938 456.862,837.323 458.901,837.736 460.939,838.174 462.978,838.636 465.017,839.119 467.055,839.62 469.094,840.135 471.133,840.659 473.171,841.188 475.21,841.716 477.249,842.237 479.287,842.744 481.326,843.229 483.365,843.684 485.403,844.101 487.442,844.47 489.481,844.783 491.519,845.028 493.558,845.197 495.597,845.277 497.635,845.26 499.674,845.135 501.713,844.891 503.751,844.519 505.79,844.009 507.829,843.352 509.867,842.54 511.906,841.567 513.945,840.425 515.983,839.11 518.022,837.62 520.061,835.952 522.099,834.107 524.138,832.088 526.177,829.898 528.215,827.544 530.254,825.036 532.293,822.386 534.331,819.607 536.37,816.717 538.409,813.737 540.447,810.688 542.486,807.596 544.525,804.49 546.563,801.4 548.602,798.36 550.641,795.405 552.679,792.573 554.718,789.904 556.757,787.439 558.795,785.22 560.834,783.291 562.873,781.696 564.911,780.478 566.95,779.682 568.989,779.349 571.027,779.52 573.066,780.235 575.104,781.528 577.143,783.435 579.182,785.982 581.22,789.195 583.259,793.094 585.298,797.692 587.336,802.997 589.375,809.01 591.414,815.724 593.452,823.127 595.491,831.196 597.53,839.901 599.568,849.204 601.607,859.058 603.646,869.407 605.684,880.186 607.723,891.323 609.762,902.736 611.8,914.335 613.839,926.025 615.878,937.701 617.916,949.253 619.955,960.565 621.994,971.518 624.032,981.987 626.071,991.846 628.11,1000.97 630.148,1009.22 632.187,1016.49 634.226,1022.64 636.264,1027.55 638.303,1031.11 640.342,1033.22 642.38,1033.76 644.419,1032.66 646.458,1029.84 648.496,1025.22 650.535,1018.76 652.574,1010.43 654.612,1000.19 656.651,988.053 658.69,974.029 660.728,958.152 662.767,940.475 664.806,921.069 666.844,900.028 668.883,877.463 670.922,853.505 672.96,828.302 674.999,802.024 677.038,774.854 679.076,746.993 681.115,718.656 683.154,690.072 685.192,661.478 687.231,633.124 689.27,605.264 691.308,578.159 693.347,552.07 695.385,527.259 697.424,503.986 699.463,482.503 701.501,463.057 703.54,445.882 705.579,431.199 707.617,419.212 709.656,410.108 711.695,404.052 713.733,401.186 715.772,401.627 717.811,405.464 719.849,412.759 721.888,423.542 723.927,437.814 725.965,455.542 728.004,476.662 730.043,501.079 732.081,528.663 734.12,559.254 736.159,592.661 738.197,628.664 740.236,667.014 742.275,707.437 744.313,749.634 746.352,793.287 748.391,838.056 750.429,883.587 752.468,929.515 754.507,975.462 756.545,1021.05 758.584,1065.89 760.623,1109.6 762.661,1151.81 764.7,1192.15 766.739,1230.27 768.777,1265.81 770.816,1298.47 772.855,1327.96 774.893,1353.98 776.932,1376.32 778.971,1394.75 781.009,1409.09 783.048,1419.22 785.087,1425.01 787.125,1426.41 789.164,1423.38 791.203,1415.94 793.241,1404.13 795.28,1388.06 797.319,1367.83 799.357,1343.63 801.396,1315.64 803.435,1284.1 805.473,1249.28 807.512,1211.47 809.551,1170.99 811.589,1128.18 813.628,1083.39 815.667,1037.02 817.705,989.436 819.744,941.048 821.782,892.255 823.821,843.458 825.86,795.057 827.898,747.444 829.937,701.002 831.976,656.097 834.014,613.079 836.053,572.279 838.092,534.001 840.13,498.526 842.169,466.105 844.208,436.958 846.246,411.274 848.285,389.208 850.324,370.879 852.362,356.375 854.401,345.743 856.44,339 858.478,336.124 860.517,337.062 862.556,341.727 864.594,350.001 866.633,361.736 868.672,376.757 870.71,394.863 872.749,415.83 874.788,439.416 876.826,465.358 878.865,493.383 880.904,523.201 882.942,554.519 884.981,587.034 887.02,620.444 889.058,654.446 891.097,688.74 893.136,723.034 895.174,757.042 897.213,790.491 899.252,823.122 901.29,854.692 903.329,884.972 905.368,913.757 907.406,940.859 909.445,966.112 911.484,989.374 913.522,1010.53 915.561,1029.47 917.6,1046.13 919.638,1060.46 921.677,1072.44 923.716,1082.05 925.754,1089.32 927.793,1094.28 929.832,1096.99 931.87,1097.52 933.909,1095.97 935.948,1092.45 937.986,1087.06 940.025,1079.95 942.064,1071.26 944.102,1061.13 946.141,1049.72 948.179,1037.19 950.218,1023.7 952.257,1009.42 954.295,994.505 956.334,979.123 958.373,963.427 960.411,947.57 962.45,931.697 964.489,915.947 966.527,900.449 968.566,885.324 970.605,870.682 972.643,856.624 974.682,843.239 976.721,830.605 978.759,818.788 980.798,807.844 982.837,797.816 984.875,788.738 986.914,780.63 988.953,773.506 990.991,767.365 993.03,762.201 995.069,757.997 997.107,754.728 999.146,752.362 1001.18,750.862 1003.22,750.183 1005.26,750.276 1007.3,751.087 1009.34,752.561 1011.38,754.637 1013.42,757.256 1015.46,760.355 1017.49,763.872 1019.53,767.745 1021.57,771.913 1023.61,776.315 1025.65,780.894 1027.69,785.596 1029.73,790.367 1031.76,795.158 1033.8,799.923 1035.84,804.62 1037.88,809.211 1039.92,813.66 1041.96,817.938 1044,822.019 1046.04,825.879 1048.07,829.5 1050.11,832.868 1052.15,835.971 1054.19,838.802 1056.23,841.356 1058.27,843.633 1060.31,845.634 1062.34,847.363 1064.38,848.826 1066.42,850.032 1068.46,850.992 1070.5,851.716 1072.54,852.219 1074.58,852.515 1076.62,852.618 1078.65,852.546 1080.69,852.313 1082.73,851.938 1084.77,851.438 1086.81,850.83 1088.85,850.134 1090.89,849.366 1092.92,848.546 1094.96,847.692 1097,846.822 1099.04,845.953 1101.08,845.102 1103.12,844.285 1105.16,843.512 1107.2,842.796 1109.23,842.143 1111.27,841.554 1113.31,841.027 1115.35,840.552 1117.39,840.112 1119.43,839.687 1121.47,839.244 1123.5,838.75 1125.54,838.162 1127.58,837.437 1129.62,836.532 1131.66,835.405 1133.7,834.026 1135.74,832.373 1137.77,830.446 1139.81,828.266 1141.85,825.885 1143.89,823.384 1145.93,820.881 1147.97,818.531 1150.01,816.521 1152.05,815.068 1154.08,814.41 1156.12,814.792 1158.16,816.454 1160.2,819.611 1162.24,824.43 1164.28,831.01 1166.32,839.358 1168.35,849.369 1170.39,860.807 1172.43,873.294 1174.47,886.305 1176.51,899.173 1178.55,911.105 1180.59,921.208 1182.63,928.53 1184.66,932.106 1186.7,931.025 1188.74,924.491 1190.78,911.896 1192.82,892.89 1194.86,867.445 1196.9,835.909 1198.93,799.04 1200.97,758.024 1203.01,714.466 1205.05,670.346 1207.09,627.957 1209.13,589.805 1211.17,558.487 1213.21,536.548 1215.24,526.32 1217.28,529.763 1219.32,548.306 1221.36,582.702 1223.4,632.918 1225.44,698.053 1227.48,776.309 1229.51,865.01 1231.55,960.678 1233.59,1059.16 1235.63,1155.82 1237.67,1245.75 1239.71,1324.05 1241.75,1386.06 1243.79,1427.71 1245.82,1445.72 1247.86,1437.83 1249.9,1403.05 1251.94,1341.7 1253.98,1255.47 1256.02,1147.44 1258.06,1021.89 1260.09,884.157 1262.13,740.345 1264.17,597.042 1266.21,460.954 1268.25,338.551 1270.29,235.709 1272.33,157.389 1274.37,107.356 1276.4,87.9763 1278.44,100.083 1280.48,142.937 1282.52,214.273 1284.56,310.435 1286.6,426.589 1288.64,557.001 1290.67,695.356 1292.71,835.111 1294.75,969.845 1296.79,1093.6 1298.83,1201.17 1300.87,1288.37 1302.91,1352.19 1304.95,1390.92 1306.98,1404.16 1309.02,1392.82 1311.06,1358.91 1313.1,1305.49 1315.14,1236.33 1317.18,1155.75 1319.22,1068.29 1321.25,978.523 1323.29,890.739 1325.33,808.796 1327.37,735.925 1329.41,674.622 1331.45,626.579 1333.49,592.667 1335.53,572.971 1337.56,566.861 1339.6,573.099 1341.64,589.968 1343.68,615.415 1345.72,647.198 1347.76,683.027 1349.8,720.691 1351.83,758.168 1353.87,793.708 1355.91,825.89 1357.95,853.659 1359.99,876.333 1362.03,893.583 1364.07,905.409 1366.11,912.086 1368.14,914.111 1370.18,912.146 1372.22,906.95 1374.26,899.327 1376.3,890.074 1378.34,879.938 1380.38,869.584 1382.41,859.57 1384.45,850.339 1386.49,842.209 1388.53,835.382 1390.57,829.952 1392.61,825.921 1394.65,823.214 1396.68,821.7 1398.72,821.21 1400.76,821.552 1402.8,822.53 1404.84,823.953 1406.88,825.646 1408.92,827.458 1410.96,829.264 1412.99,830.967 1415.03,832.497 1417.07,833.812 1419.11,834.889 1421.15,835.727 1423.19,836.337 1425.23,836.741 1427.26,836.969 1429.3,837.051 1431.34,837.022 1433.38,836.911 1435.42,836.747 1437.46,836.553 1439.5,836.35 1441.54,836.151 1443.57,835.968 1445.61,835.807 1447.65,835.672 1449.69,835.563 1451.73,835.48 1453.77,835.421 1455.81,835.382 1457.84,835.36 1459.88,835.35 1461.92,835.351 1463.96,835.358 1466,835.37 1468.04,835.384 1470.08,835.398 1472.12,835.412 1474.15,835.424 1476.19,835.435 1478.23,835.444 1480.27,835.451 1482.31,835.456 1484.35,835.459 1486.39,835.462 1488.42,835.463 1490.46,835.464 1492.5,835.464 1494.54,835.464 1496.58,835.463 1498.62,835.463 1500.66,835.462 1502.7,835.461 1504.73,835.461 1506.77,835.46 1508.81,835.46 1510.85,835.46 1512.89,835.46 1514.93,835.459 1516.97,835.459 1519,835.459 1521.04,835.459 1523.08,835.459 1525.12,835.459 1527.16,835.459 1529.2,835.459 1531.24,835.459 1533.28,835.459 1535.31,835.459 1537.35,835.459 1539.39,835.459 1541.43,835.459 1543.47,835.459 1545.51,835.459 1547.55,835.459 1549.58,835.459 1551.62,835.459 1553.66,835.459 1555.7,835.459 1557.74,835.459 1559.78,835.459 1561.82,835.459 1563.86,835.459 1565.89,835.459 1567.93,835.459 1569.97,835.459 1572.01,835.459 1574.05,835.459 1576.09,835.459 1578.13,835.459 1580.16,835.459 1582.2,835.459 1584.24,835.459 1586.28,835.459 1588.32,835.459 1590.36,835.459 1592.4,835.459 1594.44,835.459 1596.47,835.459 1598.51,835.459 1600.55,835.459 1602.59,835.459 1604.63,835.459 1606.67,835.459 1608.71,835.459 1610.74,835.459 1612.78,835.459 1614.82,835.459 1616.86,835.459 1618.9,835.459 1620.94,835.459 1622.98,835.459 1625.02,835.459 1627.05,835.459 1629.09,835.459 1631.13,835.459 1633.17,835.459 1635.21,835.459 1637.25,835.459 1639.29,835.459 1641.32,835.459 1643.36,835.459 1645.4,835.459 1647.44,835.459 1649.48,835.459 1651.52,835.459 1653.56,835.459 1655.59,835.459 1657.63,835.459 1659.67,835.459 1661.71,835.459 1663.75,835.459 1665.79,835.459 1667.83,835.459 1669.87,835.459 1671.9,835.459 1673.94,835.459 1675.98,835.459 1678.02,835.459 1680.06,835.459 1682.1,835.459 1684.14,835.459 1686.17,835.459 1688.21,835.459 1690.25,835.459 1692.29,835.459 1694.33,835.459 1696.37,835.459 1698.41,835.459 1700.45,835.459 1702.48,835.459 1704.52,835.459 1706.56,835.459 1708.6,835.459 1710.64,835.459 1712.68,835.459 1714.72,835.459 1716.75,835.459 1718.79,835.459 1720.83,835.459 1722.87,835.459 1724.91,835.459 1726.95,835.459 1728.99,835.459 1731.03,835.459 1733.06,835.459 1735.1,835.459 1737.14,835.459 1739.18,835.459 1741.22,835.459 1743.26,835.459 1745.3,835.459 1747.33,835.459 1749.37,835.459 1751.41,835.459 1753.45,835.459 1755.49,835.459 1757.53,835.459 1759.57,835.459 1761.61,835.459 1763.64,835.459 1765.68,835.459 1767.72,835.459 1769.76,835.459 1771.8,835.459 1773.84,835.459 1775.88,835.459 1777.91,835.459 1779.95,835.459 1781.99,835.459 1784.03,835.459 1786.07,835.459 1788.11,835.459 1790.15,835.459 1792.19,835.459 1794.22,835.459 1796.26,835.459 1798.3,835.459 1800.34,835.459 1802.38,835.459 1804.42,835.459 1806.46,835.459 1808.49,835.459 1810.53,835.459 1812.57,835.459 1814.61,835.459 1816.65,835.459 1818.69,835.459 1820.73,835.459 1822.77,835.459 1824.8,835.459 1826.84,835.459 1828.88,835.459 1830.92,835.459 1832.96,835.459 1835,835.459 1837.04,835.459 1839.07,835.459 1841.11,835.459 1843.15,835.459 1845.19,835.459 1847.23,835.459 1849.27,835.459 1851.31,835.459 1853.35,835.459 1855.38,835.459 1857.42,835.459 1859.46,835.459 1861.5,835.459 1863.54,835.459 1865.58,835.459 1867.62,835.459 1869.65,835.459 1871.69,835.459 1873.73,835.459 1875.77,835.459 1877.81,835.459 1879.85,835.459 1881.89,835.459 1883.92,835.459 1885.96,835.459 1888,835.459 1890.04,835.459 1892.08,835.459 1894.12,835.459 1896.16,835.459 1898.2,835.459 1900.23,835.459 1902.27,835.459 1904.31,835.459 1906.35,835.459 1908.39,835.459 1910.43,835.459 1912.47,835.459 1914.5,835.459 1916.54,835.459 1918.58,835.459 1920.62,835.459 1922.66,835.459 1924.7,835.459 1926.74,835.459 1928.78,835.459 1930.81,835.459 1932.85,835.459 1934.89,835.459 1936.93,835.459 1938.97,835.459 1941.01,835.459 1943.05,835.459 1945.08,835.459 1947.12,835.459 1949.16,835.459 1951.2,835.459 1953.24,835.459 1955.28,835.459 1957.32,835.459 1959.36,835.459 1961.39,835.459 1963.43,835.459 1965.47,835.459 1967.51,835.459 1969.55,835.459 1971.59,835.459 1973.63,835.459 1975.66,835.459 1977.7,835.459 1979.74,835.459 1981.78,835.459 1983.82,835.459 1985.86,835.459 1987.9,835.459 1989.94,835.459 1991.97,835.459 1994.01,835.459 1996.05,835.459 1998.09,835.459 2000.13,835.459 2002.17,835.459 2004.21,835.459 2006.24,835.459 2008.28,835.459 2010.32,835.459 2012.36,835.459 2014.4,835.459 2016.44,835.459 2018.48,835.459 2020.52,835.459 2022.55,835.459 2024.59,835.459 2026.63,835.459 2028.67,835.459 2030.71,835.459 2032.75,835.459 2034.79,835.459 2036.82,835.459 2038.86,835.459 2040.9,835.459 2042.94,835.459 2044.98,835.459 2047.02,835.459 2049.06,835.459 2051.1,835.459 2053.13,835.459 2055.17,835.459 2057.21,835.459 2059.25,835.459 2061.29,835.459 2063.33,835.459 2065.37,835.459 2067.4,835.459 2069.44,835.459 2071.48,835.459 2073.52,835.459 2075.56,835.459 2077.6,835.459 2079.64,835.459 2081.68,835.459 2083.71,835.459 2085.75,835.459 2087.79,835.459 2089.83,835.459 2091.87,835.459 2093.91,835.459 2095.95,835.459 2097.98,835.459 2100.02,835.459 2102.06,835.459 2104.1,835.459 2106.14,835.459 2108.18,835.459 2110.22,835.459 2112.26,835.459 2114.29,835.459 2116.33,835.459 2118.37,835.459 2120.41,835.459 2122.45,835.459 2124.49,835.459 2126.53,835.459 2128.56,835.459 2130.6,835.459 2132.64,835.459 2134.68,835.459 2136.72,835.459 2138.76,835.459 2140.8,835.459 2142.83,835.459 2144.87,835.459 2146.91,835.459 2148.95,835.459 2150.99,835.459 2153.03,835.459 2155.07,835.459 2157.11,835.459 2159.14,835.459 2161.18,835.459 2163.22,835.459 2165.26,835.459 2167.3,835.459 2169.34,835.459 2171.38,835.459 2173.41,835.459 2175.45,835.459 2177.49,835.459 2179.53,835.459 2181.57,835.459 2183.61,835.459 2185.65,835.459 2187.69,835.459 2189.72,835.459 2191.76,835.459 2193.8,835.459 2195.84,835.459 2197.88,835.459 2199.92,835.459 2201.96,835.459 2203.99,835.459 2206.03,835.459 2208.07,835.459 2210.11,835.459 2212.15,835.459 2214.19,835.459 2216.23,835.459 2218.27,835.459 2220.3,835.459 2222.34,835.459 2224.38,835.459 2226.42,835.459 2228.46,835.459 2230.5,835.459 2232.54,835.459 2234.57,835.459 2236.61,835.459 2238.65,835.459 2240.69,835.459 2242.73,835.459 2244.77,835.459 2246.81,835.459 2248.85,835.459 2250.88,835.459 2252.92,835.459 2254.96,835.459 2257,835.459 2259.04,835.459 2261.08,835.459 2263.12,835.459 2265.15,835.459 2267.19,835.459 2269.23,835.459 2271.27,835.459 2273.31,835.459 2275.35,835.459 2277.39,835.459 2279.43,835.459 2281.46,835.459 2283.5,835.459 2285.54,835.459 2287.58,835.459 2289.62,835.459 2291.66,835.459 "/>
<path clip-path="url(#clip530)" d="M1754.78 198.898 L2280.8 198.898 L2280.8 95.2176 L1754.78 95.2176  Z" fill="#ffffff" fill-rule="evenodd" fill-opacity="1"/>
<polyline clip-path="url(#clip530)" style="stroke:#000000; stroke-linecap:round; stroke-linejoin:round; stroke-width:4; stroke-opacity:1; fill:none" points="1754.78,198.898 2280.8,198.898 2280.8,95.2176 1754.78,95.2176 1754.78,198.898 "/>
<polyline clip-path="url(#clip530)" style="stroke:#009af9; stroke-linecap:round; stroke-linejoin:round; stroke-width:4; stroke-opacity:1; fill:none" points="1778.76,147.058 1922.68,147.058 "/>
<path clip-path="url(#clip530)" d="M1965.1 139.176 L1965.1 143.203 Q1963.29 142.277 1961.35 141.815 Q1959.4 141.352 1957.32 141.352 Q1954.15 141.352 1952.55 142.324 Q1950.98 143.296 1950.98 145.24 Q1950.98 146.722 1952.11 147.578 Q1953.25 148.412 1956.67 149.176 L1958.13 149.5 Q1962.67 150.472 1964.56 152.254 Q1966.49 154.014 1966.49 157.185 Q1966.49 160.796 1963.62 162.902 Q1960.77 165.009 1955.77 165.009 Q1953.68 165.009 1951.42 164.592 Q1949.17 164.199 1946.67 163.388 L1946.67 158.99 Q1949.03 160.217 1951.32 160.842 Q1953.62 161.444 1955.86 161.444 Q1958.87 161.444 1960.49 160.426 Q1962.11 159.384 1962.11 157.509 Q1962.11 155.773 1960.93 154.847 Q1959.77 153.921 1955.81 153.064 L1954.33 152.717 Q1950.37 151.884 1948.62 150.171 Q1946.86 148.435 1946.86 145.426 Q1946.86 141.768 1949.45 139.778 Q1952.04 137.787 1956.81 137.787 Q1959.17 137.787 1961.25 138.134 Q1963.34 138.481 1965.1 139.176 Z" fill="#000000" fill-rule="nonzero" fill-opacity="1" /><path clip-path="url(#clip530)" d="M1972.83 154.106 L1972.83 138.412 L1977.09 138.412 L1977.09 153.944 Q1977.09 157.625 1978.52 159.476 Q1979.96 161.305 1982.83 161.305 Q1986.28 161.305 1988.27 159.106 Q1990.28 156.907 1990.28 153.111 L1990.28 138.412 L1994.54 138.412 L1994.54 164.338 L1990.28 164.338 L1990.28 160.356 Q1988.73 162.717 1986.67 163.875 Q1984.63 165.009 1981.93 165.009 Q1977.46 165.009 1975.14 162.231 Q1972.83 159.453 1972.83 154.106 M1983.55 137.787 L1983.55 137.787 Z" fill="#000000" fill-rule="nonzero" fill-opacity="1" /><path clip-path="url(#clip530)" d="M2023.5 143.389 Q2025.1 140.518 2027.32 139.153 Q2029.54 137.787 2032.55 137.787 Q2036.6 137.787 2038.8 140.634 Q2041 143.458 2041 148.689 L2041 164.338 L2036.72 164.338 L2036.72 148.828 Q2036.72 145.102 2035.4 143.296 Q2034.08 141.49 2031.37 141.49 Q2028.06 141.49 2026.14 143.69 Q2024.22 145.889 2024.22 149.685 L2024.22 164.338 L2019.93 164.338 L2019.93 148.828 Q2019.93 145.078 2018.62 143.296 Q2017.3 141.49 2014.54 141.49 Q2011.28 141.49 2009.36 143.713 Q2007.43 145.912 2007.43 149.685 L2007.43 164.338 L2003.15 164.338 L2003.15 138.412 L2007.43 138.412 L2007.43 142.44 Q2008.89 140.055 2010.93 138.921 Q2012.97 137.787 2015.77 137.787 Q2018.59 137.787 2020.56 139.222 Q2022.55 140.657 2023.5 143.389 Z" fill="#000000" fill-rule="nonzero" fill-opacity="1" /><path clip-path="url(#clip530)" d="M2074.61 141.398 Q2071.18 141.398 2069.19 144.083 Q2067.2 146.745 2067.2 151.398 Q2067.2 156.051 2069.17 158.736 Q2071.16 161.398 2074.61 161.398 Q2078.01 161.398 2080 158.713 Q2081.99 156.027 2081.99 151.398 Q2081.99 146.791 2080 144.106 Q2078.01 141.398 2074.61 141.398 M2074.61 137.787 Q2080.17 137.787 2083.34 141.398 Q2086.51 145.009 2086.51 151.398 Q2086.51 157.764 2083.34 161.398 Q2080.17 165.009 2074.61 165.009 Q2069.03 165.009 2065.86 161.398 Q2062.71 157.764 2062.71 151.398 Q2062.71 145.009 2065.86 141.398 Q2069.03 137.787 2074.61 137.787 Z" fill="#000000" fill-rule="nonzero" fill-opacity="1" /><path clip-path="url(#clip530)" d="M2106.69 128.319 L2106.69 131.861 L2102.62 131.861 Q2100.33 131.861 2099.42 132.787 Q2098.55 133.713 2098.55 136.12 L2098.55 138.412 L2105.56 138.412 L2105.56 141.722 L2098.55 141.722 L2098.55 164.338 L2094.26 164.338 L2094.26 141.722 L2090.19 141.722 L2090.19 138.412 L2094.26 138.412 L2094.26 136.606 Q2094.26 132.278 2096.28 130.31 Q2098.29 128.319 2102.67 128.319 L2106.69 128.319 Z" fill="#000000" fill-rule="nonzero" fill-opacity="1" /><path clip-path="url(#clip530)" d="M2125.51 129.778 L2147.36 129.778 L2147.36 133.713 L2130.19 133.713 L2130.19 143.944 L2146.65 143.944 L2146.65 147.879 L2130.19 147.879 L2130.19 160.402 L2147.78 160.402 L2147.78 164.338 L2125.51 164.338 L2125.51 129.778 Z" fill="#000000" fill-rule="nonzero" fill-opacity="1" /><path clip-path="url(#clip530)" d="M2152.39 129.778 L2157.11 129.778 L2164.38 158.99 L2171.62 129.778 L2176.88 129.778 L2184.15 158.99 L2191.39 129.778 L2196.14 129.778 L2187.46 164.338 L2181.58 164.338 L2174.29 134.338 L2166.92 164.338 L2161.04 164.338 L2152.39 129.778 Z" fill="#000000" fill-rule="nonzero" fill-opacity="1" /><path clip-path="url(#clip530)" d="M2225.91 159.407 L2225.91 150.125 L2218.27 150.125 L2218.27 146.282 L2230.54 146.282 L2230.54 161.12 Q2227.83 163.041 2224.56 164.037 Q2221.3 165.009 2217.6 165.009 Q2209.49 165.009 2204.91 160.287 Q2200.35 155.541 2200.35 147.092 Q2200.35 138.62 2204.91 133.898 Q2209.49 129.153 2217.6 129.153 Q2220.98 129.153 2224.01 129.986 Q2227.06 130.819 2229.63 132.44 L2229.63 137.416 Q2227.04 135.217 2224.12 134.106 Q2221.21 132.995 2217.99 132.995 Q2211.65 132.995 2208.45 136.537 Q2205.28 140.078 2205.28 147.092 Q2205.28 154.083 2208.45 157.625 Q2211.65 161.166 2217.99 161.166 Q2220.47 161.166 2222.41 160.75 Q2224.35 160.31 2225.91 159.407 Z" fill="#000000" fill-rule="nonzero" fill-opacity="1" /><path clip-path="url(#clip530)" d="M2255.42 139.176 L2255.42 143.203 Q2253.61 142.277 2251.67 141.815 Q2249.73 141.352 2247.64 141.352 Q2244.47 141.352 2242.87 142.324 Q2241.3 143.296 2241.3 145.24 Q2241.3 146.722 2242.43 147.578 Q2243.57 148.412 2246.99 149.176 L2248.45 149.5 Q2252.99 150.472 2254.89 152.254 Q2256.81 154.014 2256.81 157.185 Q2256.81 160.796 2253.94 162.902 Q2251.09 165.009 2246.09 165.009 Q2244.01 165.009 2241.74 164.592 Q2239.49 164.199 2236.99 163.388 L2236.99 158.99 Q2239.35 160.217 2241.65 160.842 Q2243.94 161.444 2246.18 161.444 Q2249.19 161.444 2250.81 160.426 Q2252.43 159.384 2252.43 157.509 Q2252.43 155.773 2251.25 154.847 Q2250.1 153.921 2246.14 153.064 L2244.66 152.717 Q2240.7 151.884 2238.94 150.171 Q2237.18 148.435 2237.18 145.426 Q2237.18 141.768 2239.77 139.778 Q2242.36 137.787 2247.13 137.787 Q2249.49 137.787 2251.58 138.134 Q2253.66 138.481 2255.42 139.176 Z" fill="#000000" fill-rule="nonzero" fill-opacity="1" /></svg>
