<?xml version="1.0" encoding="utf-8"?>
<svg xmlns="http://www.w3.org/2000/svg" xmlns:xlink="http://www.w3.org/1999/xlink" width="600" height="400" viewBox="0 0 2400 1600">
<defs>
  <clipPath id="clip200">
    <rect x="0" y="0" width="2400" height="1600"/>
  </clipPath>
</defs>
<path clip-path="url(#clip200)" d="M0 1600 L2400 1600 L2400 0 L0 0  Z" fill="#ffffff" fill-rule="evenodd" fill-opacity="1"/>
<defs>
  <clipPath id="clip201">
    <rect x="480" y="0" width="1681" height="1600"/>
  </clipPath>
</defs>
<path clip-path="url(#clip200)" d="M175.445 1423.18 L2352.76 1423.18 L2352.76 47.2441 L175.445 47.2441  Z" fill="#ffffff" fill-rule="evenodd" fill-opacity="1"/>
<defs>
  <clipPath id="clip202">
    <rect x="175" y="47" width="2178" height="1377"/>
  </clipPath>
</defs>
<polyline clip-path="url(#clip202)" style="stroke:#000000; stroke-linecap:round; stroke-linejoin:round; stroke-width:2; stroke-opacity:0.1; fill:none" points="647.785,1423.18 647.785,47.2441 "/>
<polyline clip-path="url(#clip202)" style="stroke:#000000; stroke-linecap:round; stroke-linejoin:round; stroke-width:2; stroke-opacity:0.1; fill:none" points="1154.22,1423.18 1154.22,47.2441 "/>
<polyline clip-path="url(#clip202)" style="stroke:#000000; stroke-linecap:round; stroke-linejoin:round; stroke-width:2; stroke-opacity:0.1; fill:none" points="1660.65,1423.18 1660.65,47.2441 "/>
<polyline clip-path="url(#clip202)" style="stroke:#000000; stroke-linecap:round; stroke-linejoin:round; stroke-width:2; stroke-opacity:0.1; fill:none" points="2167.08,1423.18 2167.08,47.2441 "/>
<polyline clip-path="url(#clip200)" style="stroke:#000000; stroke-linecap:round; stroke-linejoin:round; stroke-width:4; stroke-opacity:1; fill:none" points="175.445,1423.18 2352.76,1423.18 "/>
<polyline clip-path="url(#clip200)" style="stroke:#000000; stroke-linecap:round; stroke-linejoin:round; stroke-width:4; stroke-opacity:1; fill:none" points="647.785,1423.18 647.785,1404.28 "/>
<polyline clip-path="url(#clip200)" style="stroke:#000000; stroke-linecap:round; stroke-linejoin:round; stroke-width:4; stroke-opacity:1; fill:none" points="1154.22,1423.18 1154.22,1404.28 "/>
<polyline clip-path="url(#clip200)" style="stroke:#000000; stroke-linecap:round; stroke-linejoin:round; stroke-width:4; stroke-opacity:1; fill:none" points="1660.65,1423.18 1660.65,1404.28 "/>
<polyline clip-path="url(#clip200)" style="stroke:#000000; stroke-linecap:round; stroke-linejoin:round; stroke-width:4; stroke-opacity:1; fill:none" points="2167.08,1423.18 2167.08,1404.28 "/>
<path clip-path="url(#clip200)" d="M638.063 1451.02 L656.419 1451.02 L656.419 1454.96 L642.345 1454.96 L642.345 1463.43 Q643.364 1463.08 644.382 1462.92 Q645.401 1462.73 646.42 1462.73 Q652.207 1462.73 655.586 1465.9 Q658.966 1469.08 658.966 1474.49 Q658.966 1480.07 655.494 1483.17 Q652.021 1486.25 645.702 1486.25 Q643.526 1486.25 641.258 1485.88 Q639.012 1485.51 636.605 1484.77 L636.605 1480.07 Q638.688 1481.2 640.91 1481.76 Q643.132 1482.32 645.609 1482.32 Q649.614 1482.32 651.952 1480.21 Q654.29 1478.1 654.29 1474.49 Q654.29 1470.88 651.952 1468.77 Q649.614 1466.67 645.609 1466.67 Q643.734 1466.67 641.859 1467.08 Q640.008 1467.5 638.063 1468.38 L638.063 1451.02 Z" fill="#000000" fill-rule="nonzero" fill-opacity="1" /><path clip-path="url(#clip200)" d="M1128.9 1481.64 L1136.54 1481.64 L1136.54 1455.28 L1128.23 1456.95 L1128.23 1452.69 L1136.5 1451.02 L1141.17 1451.02 L1141.17 1481.64 L1148.81 1481.64 L1148.81 1485.58 L1128.9 1485.58 L1128.9 1481.64 Z" fill="#000000" fill-rule="nonzero" fill-opacity="1" /><path clip-path="url(#clip200)" d="M1168.25 1454.1 Q1164.64 1454.1 1162.81 1457.66 Q1161.01 1461.2 1161.01 1468.33 Q1161.01 1475.44 1162.81 1479.01 Q1164.64 1482.55 1168.25 1482.55 Q1171.89 1482.55 1173.69 1479.01 Q1175.52 1475.44 1175.52 1468.33 Q1175.52 1461.2 1173.69 1457.66 Q1171.89 1454.1 1168.25 1454.1 M1168.25 1450.39 Q1174.06 1450.39 1177.12 1455 Q1180.2 1459.58 1180.2 1468.33 Q1180.2 1477.06 1177.12 1481.67 Q1174.06 1486.25 1168.25 1486.25 Q1162.44 1486.25 1159.37 1481.67 Q1156.31 1477.06 1156.31 1468.33 Q1156.31 1459.58 1159.37 1455 Q1162.44 1450.39 1168.25 1450.39 Z" fill="#000000" fill-rule="nonzero" fill-opacity="1" /><path clip-path="url(#clip200)" d="M1635.83 1481.64 L1643.47 1481.64 L1643.47 1455.28 L1635.16 1456.95 L1635.16 1452.69 L1643.42 1451.02 L1648.1 1451.02 L1648.1 1481.64 L1655.74 1481.64 L1655.74 1485.58 L1635.83 1485.58 L1635.83 1481.64 Z" fill="#000000" fill-rule="nonzero" fill-opacity="1" /><path clip-path="url(#clip200)" d="M1665.23 1451.02 L1683.59 1451.02 L1683.59 1454.96 L1669.51 1454.96 L1669.51 1463.43 Q1670.53 1463.08 1671.55 1462.92 Q1672.57 1462.73 1673.59 1462.73 Q1679.37 1462.73 1682.75 1465.9 Q1686.13 1469.08 1686.13 1474.49 Q1686.13 1480.07 1682.66 1483.17 Q1679.19 1486.25 1672.87 1486.25 Q1670.69 1486.25 1668.42 1485.88 Q1666.18 1485.51 1663.77 1484.77 L1663.77 1480.07 Q1665.85 1481.2 1668.08 1481.76 Q1670.3 1482.32 1672.78 1482.32 Q1676.78 1482.32 1679.12 1480.21 Q1681.46 1478.1 1681.46 1474.49 Q1681.46 1470.88 1679.12 1468.77 Q1676.78 1466.67 1672.78 1466.67 Q1670.9 1466.67 1669.03 1467.08 Q1667.17 1467.5 1665.23 1468.38 L1665.23 1451.02 Z" fill="#000000" fill-rule="nonzero" fill-opacity="1" /><path clip-path="url(#clip200)" d="M2145.85 1481.64 L2162.17 1481.64 L2162.17 1485.58 L2140.22 1485.58 L2140.22 1481.64 Q2142.89 1478.89 2147.47 1474.26 Q2152.08 1469.61 2153.26 1468.27 Q2155.5 1465.74 2156.38 1464.01 Q2157.28 1462.25 2157.28 1460.56 Q2157.28 1457.8 2155.34 1456.07 Q2153.42 1454.33 2150.32 1454.33 Q2148.12 1454.33 2145.66 1455.09 Q2143.23 1455.86 2140.46 1457.41 L2140.46 1452.69 Q2143.28 1451.55 2145.73 1450.97 Q2148.19 1450.39 2150.22 1450.39 Q2155.59 1450.39 2158.79 1453.08 Q2161.98 1455.77 2161.98 1460.26 Q2161.98 1462.39 2161.17 1464.31 Q2160.39 1466.2 2158.28 1468.8 Q2157.7 1469.47 2154.6 1472.69 Q2151.5 1475.88 2145.85 1481.64 Z" fill="#000000" fill-rule="nonzero" fill-opacity="1" /><path clip-path="url(#clip200)" d="M2181.98 1454.1 Q2178.37 1454.1 2176.54 1457.66 Q2174.74 1461.2 2174.74 1468.33 Q2174.74 1475.44 2176.54 1479.01 Q2178.37 1482.55 2181.98 1482.55 Q2185.62 1482.55 2187.42 1479.01 Q2189.25 1475.44 2189.25 1468.33 Q2189.25 1461.2 2187.42 1457.66 Q2185.62 1454.1 2181.98 1454.1 M2181.98 1450.39 Q2187.79 1450.39 2190.85 1455 Q2193.93 1459.58 2193.93 1468.33 Q2193.93 1477.06 2190.85 1481.67 Q2187.79 1486.25 2181.98 1486.25 Q2176.17 1486.25 2173.09 1481.67 Q2170.04 1477.06 2170.04 1468.33 Q2170.04 1459.58 2173.09 1455 Q2176.17 1450.39 2181.98 1450.39 Z" fill="#000000" fill-rule="nonzero" fill-opacity="1" /><path clip-path="url(#clip200)" d="M1231.31 1511.94 Q1231.31 1512.55 1231.18 1513.07 L1229.38 1524.53 Q1229.28 1525.4 1229.09 1525.72 Q1228.93 1526.05 1228.41 1526.05 Q1227.61 1526.05 1227.61 1525.21 Q1227.61 1524.72 1227.8 1523.95 Q1228.35 1520.31 1228.35 1518.67 Q1228.35 1517.58 1228.12 1516.77 Q1227.93 1515.93 1227.61 1515.35 Q1227.32 1514.77 1226.64 1514.39 Q1225.96 1514 1225.32 1513.77 Q1224.68 1513.55 1223.52 1513.45 Q1222.36 1513.32 1221.36 1513.29 Q1220.36 1513.26 1218.72 1513.26 Q1215.14 1513.26 1214.56 1513.39 Q1213.95 1513.55 1213.63 1514.03 Q1213.34 1514.48 1213.02 1515.84 L1204.26 1550.84 L1204 1552.23 Q1204 1553 1204.48 1553.26 Q1204.97 1553.52 1206.45 1553.68 Q1208.57 1553.84 1210.67 1553.84 Q1210.73 1553.84 1210.86 1553.84 Q1211.57 1553.84 1211.86 1553.87 Q1212.15 1553.87 1212.44 1553.94 Q1212.73 1554 1212.79 1554.16 Q1212.89 1554.29 1212.89 1554.55 Q1212.89 1555.16 1212.63 1555.48 Q1212.37 1555.77 1212.12 1555.84 Q1211.89 1555.87 1211.44 1555.87 Q1210.54 1555.87 1208.61 1555.8 Q1206.67 1555.74 1205.71 1555.74 L1200.23 1555.67 L1194.63 1555.74 Q1193.76 1555.74 1191.92 1555.8 Q1190.09 1555.87 1189.22 1555.87 Q1188.09 1555.87 1188.09 1555.06 Q1188.09 1554.16 1188.51 1554 Q1188.96 1553.84 1190.86 1553.84 Q1193.53 1553.84 1194.98 1553.71 Q1196.43 1553.58 1197.2 1553.13 Q1198.01 1552.68 1198.23 1552.23 Q1198.46 1551.75 1198.72 1550.65 L1207.57 1515.45 Q1207.83 1514.68 1207.83 1514.06 Q1207.83 1513.74 1207.74 1513.61 Q1207.67 1513.48 1207.25 1513.39 Q1206.83 1513.26 1205.96 1513.26 L1203.39 1513.26 Q1200.75 1513.26 1199.1 1513.39 Q1197.49 1513.48 1195.95 1513.97 Q1194.43 1514.45 1193.53 1515.13 Q1192.66 1515.8 1191.7 1517.19 Q1190.73 1518.57 1190.02 1520.25 Q1189.35 1521.92 1188.38 1524.66 Q1188.06 1525.56 1187.86 1525.82 Q1187.7 1526.05 1187.25 1526.05 Q1186.93 1526.05 1186.67 1525.85 Q1186.45 1525.63 1186.45 1525.34 Q1186.77 1524.27 1186.83 1524.15 L1190.8 1512.52 Q1191.12 1511.58 1191.41 1511.42 Q1191.73 1511.23 1192.92 1511.23 L1229.51 1511.23 Q1230.09 1511.23 1230.28 1511.23 Q1230.47 1511.23 1230.8 1511.29 Q1231.12 1511.36 1231.21 1511.52 Q1231.31 1511.68 1231.31 1511.94 Z" fill="#000000" fill-rule="nonzero" fill-opacity="1" /><path clip-path="url(#clip200)" d="M1257.68 1555.39 Q1257.68 1557.85 1256.6 1560.29 Q1255.52 1562.7 1253.78 1564.5 Q1252.07 1566.28 1249.81 1567.41 Q1247.56 1568.51 1245.3 1568.51 Q1242.08 1568.51 1239.98 1566.33 Q1237.91 1564.12 1237.91 1560.69 Q1237.91 1557.49 1239.69 1554.45 Q1241.49 1551.38 1244.38 1549.49 Q1247.27 1547.59 1250.29 1547.59 Q1253.46 1547.59 1255.56 1549.73 Q1257.68 1551.88 1257.68 1555.39 M1254.3 1553.59 Q1254.3 1551.4 1253.24 1550.01 Q1252.18 1548.61 1250.24 1548.61 Q1249.68 1548.61 1249.02 1548.79 Q1248.37 1548.95 1247.51 1549.37 Q1246.68 1549.8 1245.73 1550.7 Q1244.81 1551.58 1244 1552.85 Q1242.94 1554.51 1242.13 1557.58 Q1241.34 1560.62 1241.34 1562.45 Q1241.34 1564.97 1242.51 1566.24 Q1243.68 1567.48 1245.35 1567.48 Q1246.97 1567.48 1248.69 1566.35 Q1250.42 1565.2 1251.62 1563.24 Q1252.81 1561.21 1253.56 1558.23 Q1254.3 1555.24 1254.3 1553.59 Z" fill="#000000" fill-rule="nonzero" fill-opacity="1" /><path clip-path="url(#clip200)" d="M1281.96 1572.36 L1281.96 1506.4 L1291.91 1506.4 L1291.91 1507.91 L1286.37 1507.91 L1286.37 1570.84 L1291.91 1570.84 L1291.91 1572.36 L1281.96 1572.36 Z" fill="#000000" fill-rule="nonzero" fill-opacity="1" /><path clip-path="url(#clip200)" d="M1318.85 1532.39 Q1318.85 1534.19 1317.95 1535.16 Q1317.04 1536.09 1315.82 1536.09 Q1314.82 1536.09 1314.27 1535.51 Q1313.76 1534.93 1313.76 1534.16 Q1313.76 1533.03 1314.66 1532.13 Q1315.6 1531.23 1316.95 1531.2 Q1316.5 1530.01 1315.31 1529.3 Q1314.11 1528.56 1313.05 1528.36 Q1312.02 1528.17 1310.99 1528.17 Q1308.96 1528.17 1307.41 1528.81 Q1305.87 1529.46 1305.1 1530.46 Q1304.32 1531.42 1303.97 1532.36 Q1303.61 1533.29 1303.61 1534.1 Q1303.61 1534.81 1303.78 1535.38 Q1303.97 1535.93 1304.42 1536.35 Q1304.87 1536.74 1305.19 1537 Q1305.55 1537.25 1306.32 1537.48 Q1307.09 1537.7 1307.41 1537.8 Q1307.74 1537.86 1308.64 1538.06 Q1310.51 1538.44 1311.34 1538.67 Q1312.18 1538.86 1313.28 1539.41 Q1314.4 1539.96 1315.24 1540.83 Q1317.27 1542.86 1317.27 1545.66 Q1317.27 1546.69 1316.92 1547.95 Q1316.59 1549.2 1315.66 1550.78 Q1314.73 1552.36 1313.31 1553.61 Q1311.89 1554.87 1309.44 1555.74 Q1307.03 1556.61 1304 1556.61 Q1299.78 1556.61 1297.17 1554.84 Q1294.56 1553.03 1294.56 1550.2 Q1294.56 1548.14 1295.69 1547.01 Q1296.82 1545.85 1298.27 1545.85 Q1299.36 1545.85 1300.04 1546.46 Q1300.72 1547.04 1300.72 1548.14 Q1300.72 1549.62 1299.52 1550.75 Q1298.33 1551.87 1296.56 1551.65 Q1298.08 1555.13 1304.07 1555.13 Q1306.32 1555.13 1308.06 1554.55 Q1309.83 1553.94 1310.8 1553.1 Q1311.79 1552.23 1312.44 1551.17 Q1313.08 1550.1 1313.28 1549.3 Q1313.5 1548.49 1313.5 1547.88 Q1313.5 1546.82 1313.08 1546.01 Q1312.66 1545.21 1312.08 1544.76 Q1311.54 1544.27 1310.47 1543.89 Q1309.44 1543.47 1308.7 1543.31 Q1307.96 1543.15 1306.64 1542.89 Q1306.03 1542.76 1305.64 1542.7 Q1305.26 1542.6 1304.45 1542.34 Q1303.68 1542.05 1303.13 1541.76 Q1302.62 1541.47 1301.94 1540.96 Q1301.26 1540.44 1300.84 1539.83 Q1300.43 1539.22 1300.14 1538.32 Q1299.85 1537.41 1299.85 1536.35 Q1299.85 1535.38 1300.14 1534.23 Q1300.46 1533.07 1301.26 1531.71 Q1302.1 1530.36 1303.29 1529.27 Q1304.48 1528.17 1306.48 1527.46 Q1308.51 1526.72 1310.99 1526.72 Q1314.6 1526.72 1316.72 1528.4 Q1318.85 1530.04 1318.85 1532.39 Z" fill="#000000" fill-rule="nonzero" fill-opacity="1" /><path clip-path="url(#clip200)" d="M1323.6 1570.84 L1329.14 1570.84 L1329.14 1507.91 L1323.6 1507.91 L1323.6 1506.4 L1333.55 1506.4 L1333.55 1572.36 L1323.6 1572.36 L1323.6 1570.84 Z" fill="#000000" fill-rule="nonzero" fill-opacity="1" /><polyline clip-path="url(#clip202)" style="stroke:#000000; stroke-linecap:round; stroke-linejoin:round; stroke-width:2; stroke-opacity:0.1; fill:none" points="175.445,1257.32 2352.76,1257.32 "/>
<polyline clip-path="url(#clip202)" style="stroke:#000000; stroke-linecap:round; stroke-linejoin:round; stroke-width:2; stroke-opacity:0.1; fill:none" points="175.445,944.004 2352.76,944.004 "/>
<polyline clip-path="url(#clip202)" style="stroke:#000000; stroke-linecap:round; stroke-linejoin:round; stroke-width:2; stroke-opacity:0.1; fill:none" points="175.445,630.684 2352.76,630.684 "/>
<polyline clip-path="url(#clip202)" style="stroke:#000000; stroke-linecap:round; stroke-linejoin:round; stroke-width:2; stroke-opacity:0.1; fill:none" points="175.445,317.365 2352.76,317.365 "/>
<polyline clip-path="url(#clip200)" style="stroke:#000000; stroke-linecap:round; stroke-linejoin:round; stroke-width:4; stroke-opacity:1; fill:none" points="175.445,1423.18 175.445,47.2441 "/>
<polyline clip-path="url(#clip200)" style="stroke:#000000; stroke-linecap:round; stroke-linejoin:round; stroke-width:4; stroke-opacity:1; fill:none" points="175.445,1257.32 194.343,1257.32 "/>
<polyline clip-path="url(#clip200)" style="stroke:#000000; stroke-linecap:round; stroke-linejoin:round; stroke-width:4; stroke-opacity:1; fill:none" points="175.445,944.004 194.343,944.004 "/>
<polyline clip-path="url(#clip200)" style="stroke:#000000; stroke-linecap:round; stroke-linejoin:round; stroke-width:4; stroke-opacity:1; fill:none" points="175.445,630.684 194.343,630.684 "/>
<polyline clip-path="url(#clip200)" style="stroke:#000000; stroke-linecap:round; stroke-linejoin:round; stroke-width:4; stroke-opacity:1; fill:none" points="175.445,317.365 194.343,317.365 "/>
<path clip-path="url(#clip200)" d="M132.316 1255.97 Q135.672 1256.69 137.547 1258.95 Q139.445 1261.22 139.445 1264.56 Q139.445 1269.67 135.927 1272.47 Q132.408 1275.27 125.927 1275.27 Q123.751 1275.27 121.436 1274.83 Q119.144 1274.42 116.691 1273.56 L116.691 1269.05 Q118.635 1270.18 120.95 1270.76 Q123.265 1271.34 125.788 1271.34 Q130.186 1271.34 132.478 1269.6 Q134.792 1267.87 134.792 1264.56 Q134.792 1261.5 132.64 1259.79 Q130.51 1258.05 126.691 1258.05 L122.663 1258.05 L122.663 1254.21 L126.876 1254.21 Q130.325 1254.21 132.154 1252.84 Q133.982 1251.45 133.982 1248.86 Q133.982 1246.2 132.084 1244.79 Q130.209 1243.35 126.691 1243.35 Q124.769 1243.35 122.57 1243.77 Q120.371 1244.19 117.732 1245.07 L117.732 1240.9 Q120.394 1240.16 122.709 1239.79 Q125.047 1239.42 127.107 1239.42 Q132.431 1239.42 135.533 1241.85 Q138.635 1244.26 138.635 1248.38 Q138.635 1251.25 136.992 1253.24 Q135.348 1255.2 132.316 1255.97 Z" fill="#000000" fill-rule="nonzero" fill-opacity="1" /><path clip-path="url(#clip200)" d="M129.862 930.798 L118.056 949.247 L129.862 949.247 L129.862 930.798 M128.635 926.724 L134.515 926.724 L134.515 949.247 L139.445 949.247 L139.445 953.136 L134.515 953.136 L134.515 961.284 L129.862 961.284 L129.862 953.136 L114.26 953.136 L114.26 948.622 L128.635 926.724 Z" fill="#000000" fill-rule="nonzero" fill-opacity="1" /><path clip-path="url(#clip200)" d="M118.543 613.404 L136.899 613.404 L136.899 617.34 L122.825 617.34 L122.825 625.812 Q123.843 625.465 124.862 625.303 Q125.88 625.117 126.899 625.117 Q132.686 625.117 136.066 628.289 Q139.445 631.46 139.445 636.877 Q139.445 642.455 135.973 645.557 Q132.501 648.636 126.181 648.636 Q124.005 648.636 121.737 648.265 Q119.492 647.895 117.084 647.154 L117.084 642.455 Q119.168 643.59 121.39 644.145 Q123.612 644.701 126.089 644.701 Q130.093 644.701 132.431 642.594 Q134.769 640.488 134.769 636.877 Q134.769 633.266 132.431 631.159 Q130.093 629.053 126.089 629.053 Q124.214 629.053 122.339 629.469 Q120.487 629.886 118.543 630.766 L118.543 613.404 Z" fill="#000000" fill-rule="nonzero" fill-opacity="1" /><path clip-path="url(#clip200)" d="M127.917 315.502 Q124.769 315.502 122.918 317.655 Q121.089 319.807 121.089 323.557 Q121.089 327.284 122.918 329.46 Q124.769 331.613 127.917 331.613 Q131.066 331.613 132.894 329.46 Q134.746 327.284 134.746 323.557 Q134.746 319.807 132.894 317.655 Q131.066 315.502 127.917 315.502 M137.2 300.849 L137.2 305.108 Q135.441 304.275 133.635 303.835 Q131.853 303.395 130.093 303.395 Q125.464 303.395 123.01 306.52 Q120.58 309.645 120.232 315.965 Q121.598 313.951 123.658 312.886 Q125.718 311.798 128.195 311.798 Q133.404 311.798 136.413 314.969 Q139.445 318.118 139.445 323.557 Q139.445 328.881 136.297 332.099 Q133.149 335.317 127.917 335.317 Q121.922 335.317 118.751 330.733 Q115.58 326.127 115.58 317.4 Q115.58 309.206 119.468 304.345 Q123.357 299.46 129.908 299.46 Q131.667 299.46 133.45 299.808 Q135.255 300.155 137.2 300.849 Z" fill="#000000" fill-rule="nonzero" fill-opacity="1" /><path clip-path="url(#clip200)" d="M64.7637 781.176 Q65.3756 781.176 65.6976 781.434 Q65.9875 781.66 66.0519 781.885 Q66.0841 782.078 66.0841 782.368 Q66.0841 783.205 65.9875 786.104 Q65.8909 789.003 65.8909 789.84 Q65.8909 791.192 65.9875 793.962 Q66.0841 796.732 66.0841 798.085 Q66.0841 798.986 65.3434 798.986 Q64.8603 798.986 64.6026 798.89 Q64.3128 798.793 64.2162 798.535 Q64.0873 798.246 64.0873 798.085 Q64.0551 797.891 64.0551 797.408 Q64.0551 796.764 63.9907 796.088 Q63.8941 795.411 63.7009 794.574 Q63.5076 793.737 63.0245 793.221 Q62.5415 792.674 61.8651 792.674 Q61.5753 792.674 59.192 792.899 Q56.8088 793.125 54.0391 793.415 Q51.2372 793.705 50.8507 793.737 L50.8507 810.291 Q53.4594 811.804 55.2629 812.867 Q57.0665 813.93 57.6784 814.316 Q58.2903 814.703 58.6767 814.928 Q59.0632 815.154 59.2887 815.282 Q60.9956 816.216 61.7363 816.216 Q63.7975 816.216 64.0551 813.125 Q64.0551 812.062 64.8281 812.062 Q65.4078 812.062 65.7298 812.32 Q66.0197 812.577 66.0519 812.803 Q66.0841 812.996 66.0841 813.318 Q66.0841 814.381 65.9875 816.603 Q65.8909 818.825 65.8909 819.92 Q65.8909 820.854 65.9875 822.786 Q66.0841 824.719 66.0841 825.588 Q66.0841 825.975 65.8587 826.2 Q65.6332 826.426 65.3434 826.426 Q64.8925 826.426 64.6348 826.361 Q64.3772 826.265 64.2484 826.007 Q64.1195 825.749 64.1195 825.621 Q64.0873 825.492 64.0551 825.041 Q63.8941 822.593 62.7347 820.693 Q61.5431 818.761 58.4835 816.925 L19.9653 793.994 Q19.5788 793.769 19.3856 793.608 Q19.1924 793.447 19.0313 793.125 Q18.8703 792.771 18.8703 792.255 Q18.8703 791.45 19.1279 791.289 Q19.3534 791.128 20.4484 791.031 L61.6719 787.006 Q62.5415 786.909 62.8957 786.845 Q63.2178 786.748 63.572 786.329 Q63.8941 785.879 63.9907 785.073 Q64.0551 784.236 64.0551 782.69 Q64.0551 782.11 64.0873 781.885 Q64.0873 781.66 64.2484 781.434 Q64.4094 781.176 64.7637 781.176 M48.7895 793.93 L27.0506 796.023 L48.7895 809.035 L48.7895 793.93 Z" fill="#000000" fill-rule="nonzero" fill-opacity="1" /><path clip-path="url(#clip200)" d="M65.6094 754.802 Q68.0667 754.802 70.5015 755.884 Q72.9137 756.966 74.7173 758.702 Q76.4982 760.416 77.6254 762.67 Q78.7301 764.924 78.7301 767.179 Q78.7301 770.403 76.5433 772.499 Q74.334 774.573 70.9073 774.573 Q67.706 774.573 64.6626 772.792 Q61.5966 770.989 59.7029 768.103 Q57.8092 765.217 57.8092 762.196 Q57.8092 759.018 59.9509 756.921 Q62.0926 754.802 65.6094 754.802 M63.8059 758.184 Q61.6191 758.184 60.2214 759.243 Q58.8237 760.303 58.8237 762.242 Q58.8237 762.805 59.004 763.459 Q59.1618 764.113 59.5902 764.969 Q60.0185 765.804 60.9203 766.75 Q61.7995 767.675 63.062 768.486 Q64.7302 769.546 67.7962 770.357 Q70.8397 771.147 72.6657 771.147 Q75.1907 771.147 76.4532 769.974 Q77.6931 768.802 77.6931 767.134 Q77.6931 765.51 76.5659 763.797 Q75.4161 762.061 73.4548 760.866 Q71.4258 759.672 68.45 758.928 Q65.4516 758.184 63.8059 758.184 Z" fill="#000000" fill-rule="nonzero" fill-opacity="1" /><path clip-path="url(#clip200)" d="M82.5735 730.524 L16.6159 730.524 L16.6159 720.573 L18.1296 720.573 L18.1296 726.112 L81.0598 726.112 L81.0598 720.573 L82.5735 720.573 L82.5735 730.524 Z" fill="#000000" fill-rule="nonzero" fill-opacity="1" /><path clip-path="url(#clip200)" d="M56.6478 665.197 Q56.9054 665.197 57.9038 665.486 Q58.9022 665.776 60.4481 666.485 Q61.994 667.161 63.411 668.127 Q64.7959 669.061 65.8264 670.607 Q66.8248 672.121 66.8248 673.86 Q66.8248 676.179 65.2789 677.725 Q63.7331 679.27 61.4142 679.27 Q60.1582 679.27 57.775 678.401 Q46.8894 674.311 42.9925 674.311 Q38.3871 674.311 38.3871 677.886 Q38.3871 679.915 39.2244 681.75 Q40.0618 683.586 41.2212 684.778 Q42.3806 685.969 43.701 686.903 Q45.0215 687.837 45.891 688.256 Q46.7606 688.642 47.147 688.739 L63.0567 692.7 Q64.4094 693.022 65.0535 693.248 Q65.6976 693.473 66.2451 694.085 Q66.8248 694.697 66.8248 695.663 Q66.8248 696.468 66.3417 697.048 Q65.8587 697.596 65.0213 697.596 Q64.8925 697.596 64.2162 697.435 Q63.5398 697.274 62.6059 697.048 Q61.6719 696.823 61.1244 696.726 Q56.7444 695.567 56.1325 695.406 L48.4675 693.57 Q44.6672 692.572 42.9925 692.572 Q38.3871 692.572 38.3871 696.146 Q38.3871 697.918 39.0634 699.592 Q39.7075 701.235 40.6093 702.362 Q41.511 703.489 42.7671 704.52 Q43.9909 705.518 44.8282 706.034 Q45.6334 706.517 46.4385 706.903 L49.7235 707.74 Q50.6253 707.934 54.1357 708.868 L60.0938 710.317 Q64.5382 711.348 64.9569 711.573 Q65.8587 711.895 66.3417 712.604 Q66.8248 713.312 66.8248 714.021 Q66.8248 714.826 66.3417 715.373 Q65.8587 715.921 65.0213 715.921 Q64.8925 715.921 64.4094 715.824 Q63.9263 715.728 63.25 715.566 Q62.5737 715.405 62.1872 715.341 L46.9538 711.509 Q44.1841 710.8 43.3146 710.639 Q42.4128 710.446 41.4144 710.446 Q38.3871 710.446 38.3871 712.507 Q38.3871 714.182 40.3838 715.277 Q42.3806 716.372 46.2453 717.306 Q47.3081 717.595 47.5335 717.789 Q47.759 717.95 47.759 718.433 Q47.7268 719.238 47.0826 719.238 Q46.9216 719.238 45.891 718.98 Q44.8604 718.723 43.3146 718.24 Q41.7365 717.724 40.7059 717.177 Q40.0296 716.855 39.5787 716.565 Q39.1278 716.275 38.4193 715.695 Q37.7107 715.116 37.3243 714.246 Q36.9378 713.376 36.9378 712.314 Q36.9378 709.963 38.4515 708.224 Q39.9651 706.452 42.6704 706.227 Q36.9378 701.943 36.9378 695.953 Q36.9378 692.572 38.6447 690.543 Q40.2872 688.642 43.3146 688.417 Q36.9378 683.973 36.9378 677.66 Q36.9378 674.021 38.8379 672.056 Q40.7059 670.092 43.9909 670.092 Q45.6978 670.092 48.9506 670.961 Q52.1712 671.831 53.7815 672.411 Q55.3917 672.99 58.4835 674.118 Q61.4465 675.309 63.1856 675.309 Q64.3128 675.309 64.8281 674.923 Q65.3434 674.536 65.3434 673.699 Q65.3434 672.411 64.6026 671.283 Q63.8297 670.156 62.5737 669.351 Q61.2854 668.514 59.9972 667.966 Q58.6767 667.419 57.1953 667 Q56.3901 666.742 56.1969 666.614 Q56.0037 666.453 56.0037 666.002 Q56.0037 665.197 56.6478 665.197 Z" fill="#000000" fill-rule="nonzero" fill-opacity="1" /><path clip-path="url(#clip200)" d="M81.0598 662.148 L81.0598 656.609 L18.1296 656.609 L18.1296 662.148 L16.6159 662.148 L16.6159 652.197 L82.5735 652.197 L82.5735 662.148 L81.0598 662.148 Z" fill="#000000" fill-rule="nonzero" fill-opacity="1" /><circle clip-path="url(#clip202)" cx="237.067" cy="86.1857" r="7.2" fill="#ff0000" fill-rule="evenodd" fill-opacity="1" stroke="#000000" stroke-opacity="1" stroke-width="3.2"/>
<circle clip-path="url(#clip202)" cx="270.712" cy="522.26" r="7.2" fill="#ff0000" fill-rule="evenodd" fill-opacity="1" stroke="#000000" stroke-opacity="1" stroke-width="3.2"/>
<circle clip-path="url(#clip202)" cx="379.521" cy="926.457" r="7.2" fill="#ff0000" fill-rule="evenodd" fill-opacity="1" stroke="#000000" stroke-opacity="1" stroke-width="3.2"/>
<circle clip-path="url(#clip202)" cx="647.437" cy="1087.97" r="7.2" fill="#ff0000" fill-rule="evenodd" fill-opacity="1" stroke="#000000" stroke-opacity="1" stroke-width="3.2"/>
<circle clip-path="url(#clip202)" cx="406.29" cy="1234.41" r="7.2" fill="#ff0000" fill-rule="evenodd" fill-opacity="1" stroke="#000000" stroke-opacity="1" stroke-width="3.2"/>
<circle clip-path="url(#clip202)" cx="485.357" cy="1264.4" r="7.2" fill="#ff0000" fill-rule="evenodd" fill-opacity="1" stroke="#000000" stroke-opacity="1" stroke-width="3.2"/>
<circle clip-path="url(#clip202)" cx="2291.13" cy="1384.24" r="7.2" fill="#ff0000" fill-rule="evenodd" fill-opacity="1" stroke="#000000" stroke-opacity="1" stroke-width="3.2"/>
<path clip-path="url(#clip200)" d="M1431.71 196.789 L2280.18 196.789 L2280.18 93.1086 L1431.71 93.1086  Z" fill="#ffffff" fill-rule="evenodd" fill-opacity="1"/>
<polyline clip-path="url(#clip200)" style="stroke:#000000; stroke-linecap:round; stroke-linejoin:round; stroke-width:4; stroke-opacity:1; fill:none" points="1431.71,196.789 2280.18,196.789 2280.18,93.1086 1431.71,93.1086 1431.71,196.789 "/>
<circle clip-path="url(#clip200)" cx="1528.48" cy="144.949" r="18.432" fill="#ff0000" fill-rule="evenodd" fill-opacity="1" stroke="#000000" stroke-opacity="1" stroke-width="8.192"/>
<path clip-path="url(#clip200)" d="M1650.8 157.298 L1650.8 148.016 L1643.17 148.016 L1643.17 144.173 L1655.43 144.173 L1655.43 159.011 Q1652.73 160.932 1649.46 161.928 Q1646.2 162.9 1642.49 162.9 Q1634.39 162.9 1629.81 158.178 Q1625.25 153.432 1625.25 144.983 Q1625.25 136.511 1629.81 131.789 Q1634.39 127.044 1642.49 127.044 Q1645.87 127.044 1648.91 127.877 Q1651.96 128.71 1654.53 130.331 L1654.53 135.307 Q1651.94 133.108 1649.02 131.997 Q1646.11 130.886 1642.89 130.886 Q1636.55 130.886 1633.35 134.428 Q1630.18 137.969 1630.18 144.983 Q1630.18 151.974 1633.35 155.516 Q1636.55 159.057 1642.89 159.057 Q1645.36 159.057 1647.31 158.641 Q1649.25 158.201 1650.8 157.298 Z" fill="#000000" fill-rule="nonzero" fill-opacity="1" /><path clip-path="url(#clip200)" d="M1678.81 140.284 Q1678.1 139.868 1677.24 139.682 Q1676.41 139.474 1675.39 139.474 Q1671.78 139.474 1669.83 141.835 Q1667.91 144.173 1667.91 148.571 L1667.91 162.229 L1663.63 162.229 L1663.63 136.303 L1667.91 136.303 L1667.91 140.331 Q1669.25 137.969 1671.41 136.835 Q1673.56 135.678 1676.64 135.678 Q1677.08 135.678 1677.61 135.747 Q1678.14 135.794 1678.79 135.909 L1678.81 140.284 Z" fill="#000000" fill-rule="nonzero" fill-opacity="1" /><path clip-path="url(#clip200)" d="M1692.29 139.289 Q1688.86 139.289 1686.87 141.974 Q1684.88 144.636 1684.88 149.289 Q1684.88 153.942 1686.85 156.627 Q1688.84 159.289 1692.29 159.289 Q1695.69 159.289 1697.68 156.604 Q1699.67 153.918 1699.67 149.289 Q1699.67 144.682 1697.68 141.997 Q1695.69 139.289 1692.29 139.289 M1692.29 135.678 Q1697.84 135.678 1701.01 139.289 Q1704.18 142.9 1704.18 149.289 Q1704.18 155.655 1701.01 159.289 Q1697.84 162.9 1692.29 162.9 Q1686.71 162.9 1683.54 159.289 Q1680.39 155.655 1680.39 149.289 Q1680.39 142.9 1683.54 139.289 Q1686.71 135.678 1692.29 135.678 Z" fill="#000000" fill-rule="nonzero" fill-opacity="1" /><path clip-path="url(#clip200)" d="M1710.8 151.997 L1710.8 136.303 L1715.06 136.303 L1715.06 151.835 Q1715.06 155.516 1716.5 157.368 Q1717.93 159.196 1720.8 159.196 Q1724.25 159.196 1726.24 156.997 Q1728.26 154.798 1728.26 151.002 L1728.26 136.303 L1732.52 136.303 L1732.52 162.229 L1728.26 162.229 L1728.26 158.247 Q1726.71 160.608 1724.65 161.766 Q1722.61 162.9 1719.9 162.9 Q1715.43 162.9 1713.12 160.122 Q1710.8 157.344 1710.8 151.997 M1721.52 135.678 L1721.52 135.678 Z" fill="#000000" fill-rule="nonzero" fill-opacity="1" /><path clip-path="url(#clip200)" d="M1745.41 158.34 L1745.41 172.09 L1741.13 172.09 L1741.13 136.303 L1745.41 136.303 L1745.41 140.238 Q1746.75 137.923 1748.79 136.812 Q1750.85 135.678 1753.7 135.678 Q1758.42 135.678 1761.36 139.428 Q1764.32 143.178 1764.32 149.289 Q1764.32 155.4 1761.36 159.15 Q1758.42 162.9 1753.7 162.9 Q1750.85 162.9 1748.79 161.789 Q1746.75 160.655 1745.41 158.34 M1759.9 149.289 Q1759.9 144.59 1757.96 141.928 Q1756.04 139.243 1752.66 139.243 Q1749.28 139.243 1747.33 141.928 Q1745.41 144.59 1745.41 149.289 Q1745.41 153.988 1747.33 156.673 Q1749.28 159.335 1752.66 159.335 Q1756.04 159.335 1757.96 156.673 Q1759.9 153.988 1759.9 149.289 Z" fill="#000000" fill-rule="nonzero" fill-opacity="1" /><path clip-path="url(#clip200)" d="M1790.57 158.34 L1790.57 172.09 L1786.29 172.09 L1786.29 136.303 L1790.57 136.303 L1790.57 140.238 Q1791.91 137.923 1793.95 136.812 Q1796.01 135.678 1798.86 135.678 Q1803.58 135.678 1806.52 139.428 Q1809.48 143.178 1809.48 149.289 Q1809.48 155.4 1806.52 159.15 Q1803.58 162.9 1798.86 162.9 Q1796.01 162.9 1793.95 161.789 Q1791.91 160.655 1790.57 158.34 M1805.06 149.289 Q1805.06 144.59 1803.12 141.928 Q1801.2 139.243 1797.82 139.243 Q1794.44 139.243 1792.49 141.928 Q1790.57 144.59 1790.57 149.289 Q1790.57 153.988 1792.49 156.673 Q1794.44 159.335 1797.82 159.335 Q1801.2 159.335 1803.12 156.673 Q1805.06 153.988 1805.06 149.289 Z" fill="#000000" fill-rule="nonzero" fill-opacity="1" /><path clip-path="url(#clip200)" d="M1828.33 149.196 Q1823.16 149.196 1821.17 150.377 Q1819.18 151.557 1819.18 154.405 Q1819.18 156.673 1820.66 158.016 Q1822.17 159.335 1824.74 159.335 Q1828.28 159.335 1830.41 156.835 Q1832.56 154.312 1832.56 150.145 L1832.56 149.196 L1828.33 149.196 M1836.82 147.437 L1836.82 162.229 L1832.56 162.229 L1832.56 158.293 Q1831.1 160.655 1828.93 161.789 Q1826.75 162.9 1823.6 162.9 Q1819.62 162.9 1817.26 160.678 Q1814.92 158.432 1814.92 154.682 Q1814.92 150.307 1817.84 148.085 Q1820.78 145.863 1826.59 145.863 L1832.56 145.863 L1832.56 145.446 Q1832.56 142.507 1830.62 140.909 Q1828.7 139.289 1825.2 139.289 Q1822.98 139.289 1820.87 139.821 Q1818.77 140.354 1816.82 141.419 L1816.82 137.483 Q1819.16 136.581 1821.36 136.141 Q1823.56 135.678 1825.64 135.678 Q1831.27 135.678 1834.04 138.594 Q1836.82 141.511 1836.82 147.437 Z" fill="#000000" fill-rule="nonzero" fill-opacity="1" /><path clip-path="url(#clip200)" d="M1860.62 140.284 Q1859.9 139.868 1859.04 139.682 Q1858.21 139.474 1857.19 139.474 Q1853.58 139.474 1851.64 141.835 Q1849.72 144.173 1849.72 148.571 L1849.72 162.229 L1845.43 162.229 L1845.43 136.303 L1849.72 136.303 L1849.72 140.331 Q1851.06 137.969 1853.21 136.835 Q1855.36 135.678 1858.44 135.678 Q1858.88 135.678 1859.41 135.747 Q1859.95 135.794 1860.6 135.909 L1860.62 140.284 Z" fill="#000000" fill-rule="nonzero" fill-opacity="1" /><path clip-path="url(#clip200)" d="M1876.87 149.196 Q1871.71 149.196 1869.72 150.377 Q1867.72 151.557 1867.72 154.405 Q1867.72 156.673 1869.21 158.016 Q1870.71 159.335 1873.28 159.335 Q1876.82 159.335 1878.95 156.835 Q1881.1 154.312 1881.1 150.145 L1881.1 149.196 L1876.87 149.196 M1885.36 147.437 L1885.36 162.229 L1881.1 162.229 L1881.1 158.293 Q1879.65 160.655 1877.47 161.789 Q1875.29 162.9 1872.15 162.9 Q1868.16 162.9 1865.8 160.678 Q1863.47 158.432 1863.47 154.682 Q1863.47 150.307 1866.38 148.085 Q1869.32 145.863 1875.13 145.863 L1881.1 145.863 L1881.1 145.446 Q1881.1 142.507 1879.16 140.909 Q1877.24 139.289 1873.74 139.289 Q1871.52 139.289 1869.41 139.821 Q1867.31 140.354 1865.36 141.419 L1865.36 137.483 Q1867.7 136.581 1869.9 136.141 Q1872.1 135.678 1874.18 135.678 Q1879.81 135.678 1882.59 138.594 Q1885.36 141.511 1885.36 147.437 Z" fill="#000000" fill-rule="nonzero" fill-opacity="1" /><path clip-path="url(#clip200)" d="M1914.32 141.28 Q1915.92 138.409 1918.14 137.044 Q1920.36 135.678 1923.37 135.678 Q1927.42 135.678 1929.62 138.525 Q1931.82 141.349 1931.82 146.581 L1931.82 162.229 L1927.54 162.229 L1927.54 146.719 Q1927.54 142.993 1926.22 141.187 Q1924.9 139.382 1922.19 139.382 Q1918.88 139.382 1916.96 141.581 Q1915.04 143.78 1915.04 147.576 L1915.04 162.229 L1910.76 162.229 L1910.76 146.719 Q1910.76 142.969 1909.44 141.187 Q1908.12 139.382 1905.36 139.382 Q1902.1 139.382 1900.18 141.604 Q1898.26 143.803 1898.26 147.576 L1898.26 162.229 L1893.97 162.229 L1893.97 136.303 L1898.26 136.303 L1898.26 140.331 Q1899.72 137.946 1901.75 136.812 Q1903.79 135.678 1906.59 135.678 Q1909.41 135.678 1911.38 137.113 Q1913.37 138.548 1914.32 141.28 Z" fill="#000000" fill-rule="nonzero" fill-opacity="1" /><path clip-path="url(#clip200)" d="M1962.49 148.201 L1962.49 150.284 L1942.91 150.284 Q1943.19 154.682 1945.55 156.997 Q1947.93 159.289 1952.17 159.289 Q1954.62 159.289 1956.91 158.687 Q1959.23 158.085 1961.5 156.881 L1961.5 160.909 Q1959.21 161.881 1956.8 162.391 Q1954.39 162.9 1951.91 162.9 Q1945.71 162.9 1942.08 159.289 Q1938.47 155.678 1938.47 149.52 Q1938.47 143.155 1941.89 139.428 Q1945.34 135.678 1951.17 135.678 Q1956.4 135.678 1959.44 139.057 Q1962.49 142.414 1962.49 148.201 M1958.23 146.951 Q1958.19 143.456 1956.27 141.372 Q1954.37 139.289 1951.22 139.289 Q1947.65 139.289 1945.5 141.303 Q1943.37 143.317 1943.05 146.974 L1958.23 146.951 Z" fill="#000000" fill-rule="nonzero" fill-opacity="1" /><path clip-path="url(#clip200)" d="M1973.7 128.942 L1973.7 136.303 L1982.47 136.303 L1982.47 139.613 L1973.7 139.613 L1973.7 153.687 Q1973.7 156.858 1974.55 157.761 Q1975.43 158.664 1978.09 158.664 L1982.47 158.664 L1982.47 162.229 L1978.09 162.229 Q1973.16 162.229 1971.29 160.4 Q1969.41 158.548 1969.41 153.687 L1969.41 139.613 L1966.29 139.613 L1966.29 136.303 L1969.41 136.303 L1969.41 128.942 L1973.7 128.942 Z" fill="#000000" fill-rule="nonzero" fill-opacity="1" /><path clip-path="url(#clip200)" d="M2010.25 148.201 L2010.25 150.284 L1990.66 150.284 Q1990.94 154.682 1993.3 156.997 Q1995.69 159.289 1999.92 159.289 Q2002.38 159.289 2004.67 158.687 Q2006.98 158.085 2009.25 156.881 L2009.25 160.909 Q2006.96 161.881 2004.55 162.391 Q2002.15 162.9 1999.67 162.9 Q1993.46 162.9 1989.83 159.289 Q1986.22 155.678 1986.22 149.52 Q1986.22 143.155 1989.65 139.428 Q1993.09 135.678 1998.93 135.678 Q2004.16 135.678 2007.19 139.057 Q2010.25 142.414 2010.25 148.201 M2005.99 146.951 Q2005.94 143.456 2004.02 141.372 Q2002.12 139.289 1998.97 139.289 Q1995.41 139.289 1993.26 141.303 Q1991.13 143.317 1990.8 146.974 L2005.99 146.951 Z" fill="#000000" fill-rule="nonzero" fill-opacity="1" /><path clip-path="url(#clip200)" d="M2032.26 140.284 Q2031.54 139.868 2030.69 139.682 Q2029.85 139.474 2028.83 139.474 Q2025.22 139.474 2023.28 141.835 Q2021.36 144.173 2021.36 148.571 L2021.36 162.229 L2017.08 162.229 L2017.08 136.303 L2021.36 136.303 L2021.36 140.331 Q2022.7 137.969 2024.85 136.835 Q2027.01 135.678 2030.08 135.678 Q2030.52 135.678 2031.06 135.747 Q2031.59 135.794 2032.24 135.909 L2032.26 140.284 Z" fill="#000000" fill-rule="nonzero" fill-opacity="1" /><path clip-path="url(#clip200)" d="M2053.26 137.067 L2053.26 141.094 Q2051.45 140.169 2049.51 139.706 Q2047.56 139.243 2045.48 139.243 Q2042.31 139.243 2040.71 140.215 Q2039.14 141.187 2039.14 143.131 Q2039.14 144.613 2040.27 145.469 Q2041.4 146.303 2044.83 147.067 L2046.29 147.391 Q2050.83 148.363 2052.72 150.145 Q2054.65 151.905 2054.65 155.076 Q2054.65 158.687 2051.77 160.793 Q2048.93 162.9 2043.93 162.9 Q2041.84 162.9 2039.58 162.483 Q2037.33 162.09 2034.83 161.28 L2034.83 156.881 Q2037.19 158.108 2039.48 158.733 Q2041.77 159.335 2044.02 159.335 Q2047.03 159.335 2048.65 158.317 Q2050.27 157.275 2050.27 155.4 Q2050.27 153.664 2049.09 152.738 Q2047.93 151.812 2043.97 150.956 L2042.49 150.608 Q2038.53 149.775 2036.77 148.062 Q2035.02 146.326 2035.02 143.317 Q2035.02 139.659 2037.61 137.669 Q2040.2 135.678 2044.97 135.678 Q2047.33 135.678 2049.41 136.025 Q2051.5 136.372 2053.26 137.067 Z" fill="#000000" fill-rule="nonzero" fill-opacity="1" /><path clip-path="url(#clip200)" d="M2086.73 126.257 Q2083.63 131.581 2082.12 136.789 Q2080.62 141.997 2080.62 147.344 Q2080.62 152.692 2082.12 157.946 Q2083.65 163.178 2086.73 168.479 L2083.02 168.479 Q2079.55 163.039 2077.82 157.784 Q2076.1 152.53 2076.1 147.344 Q2076.1 142.182 2077.82 136.951 Q2079.53 131.72 2083.02 126.257 L2086.73 126.257 Z" fill="#000000" fill-rule="nonzero" fill-opacity="1" /><path clip-path="url(#clip200)" d="M2111.52 137.067 L2111.52 141.094 Q2109.71 140.169 2107.77 139.706 Q2105.83 139.243 2103.74 139.243 Q2100.57 139.243 2098.97 140.215 Q2097.4 141.187 2097.4 143.131 Q2097.4 144.613 2098.53 145.469 Q2099.67 146.303 2103.09 147.067 L2104.55 147.391 Q2109.09 148.363 2110.99 150.145 Q2112.91 151.905 2112.91 155.076 Q2112.91 158.687 2110.04 160.793 Q2107.19 162.9 2102.19 162.9 Q2100.11 162.9 2097.84 162.483 Q2095.59 162.09 2093.09 161.28 L2093.09 156.881 Q2095.45 158.108 2097.75 158.733 Q2100.04 159.335 2102.28 159.335 Q2105.29 159.335 2106.91 158.317 Q2108.53 157.275 2108.53 155.4 Q2108.53 153.664 2107.35 152.738 Q2106.2 151.812 2102.24 150.956 L2100.76 150.608 Q2096.8 149.775 2095.04 148.062 Q2093.28 146.326 2093.28 143.317 Q2093.28 139.659 2095.87 137.669 Q2098.46 135.678 2103.23 135.678 Q2105.59 135.678 2107.68 136.025 Q2109.76 136.372 2111.52 137.067 Z" fill="#000000" fill-rule="nonzero" fill-opacity="1" /><path clip-path="url(#clip200)" d="M2129.74 139.289 Q2126.31 139.289 2124.32 141.974 Q2122.33 144.636 2122.33 149.289 Q2122.33 153.942 2124.3 156.627 Q2126.29 159.289 2129.74 159.289 Q2133.14 159.289 2135.13 156.604 Q2137.12 153.918 2137.12 149.289 Q2137.12 144.682 2135.13 141.997 Q2133.14 139.289 2129.74 139.289 M2129.74 135.678 Q2135.29 135.678 2138.46 139.289 Q2141.64 142.9 2141.64 149.289 Q2141.64 155.655 2138.46 159.289 Q2135.29 162.9 2129.74 162.9 Q2124.16 162.9 2120.99 159.289 Q2117.84 155.655 2117.84 149.289 Q2117.84 142.9 2120.99 139.289 Q2124.16 135.678 2129.74 135.678 Z" fill="#000000" fill-rule="nonzero" fill-opacity="1" /><path clip-path="url(#clip200)" d="M2163.72 140.284 Q2163 139.868 2162.14 139.682 Q2161.31 139.474 2160.29 139.474 Q2156.68 139.474 2154.74 141.835 Q2152.82 144.173 2152.82 148.571 L2152.82 162.229 L2148.53 162.229 L2148.53 136.303 L2152.82 136.303 L2152.82 140.331 Q2154.16 137.969 2156.31 136.835 Q2158.46 135.678 2161.54 135.678 Q2161.98 135.678 2162.51 135.747 Q2163.05 135.794 2163.7 135.909 L2163.72 140.284 Z" fill="#000000" fill-rule="nonzero" fill-opacity="1" /><path clip-path="url(#clip200)" d="M2172.4 128.942 L2172.4 136.303 L2181.17 136.303 L2181.17 139.613 L2172.4 139.613 L2172.4 153.687 Q2172.4 156.858 2173.26 157.761 Q2174.14 158.664 2176.8 158.664 L2181.17 158.664 L2181.17 162.229 L2176.8 162.229 Q2171.87 162.229 2169.99 160.4 Q2168.12 158.548 2168.12 153.687 L2168.12 139.613 L2164.99 139.613 L2164.99 136.303 L2168.12 136.303 L2168.12 128.942 L2172.4 128.942 Z" fill="#000000" fill-rule="nonzero" fill-opacity="1" /><path clip-path="url(#clip200)" d="M2208.95 148.201 L2208.95 150.284 L2189.37 150.284 Q2189.64 154.682 2192.01 156.997 Q2194.39 159.289 2198.63 159.289 Q2201.08 159.289 2203.37 158.687 Q2205.69 158.085 2207.95 156.881 L2207.95 160.909 Q2205.66 161.881 2203.26 162.391 Q2200.85 162.9 2198.37 162.9 Q2192.17 162.9 2188.53 159.289 Q2184.92 155.678 2184.92 149.52 Q2184.92 143.155 2188.35 139.428 Q2191.8 135.678 2197.63 135.678 Q2202.86 135.678 2205.89 139.057 Q2208.95 142.414 2208.95 148.201 M2204.69 146.951 Q2204.64 143.456 2202.72 141.372 Q2200.82 139.289 2197.68 139.289 Q2194.11 139.289 2191.96 141.303 Q2189.83 143.317 2189.51 146.974 L2204.69 146.951 Z" fill="#000000" fill-rule="nonzero" fill-opacity="1" /><path clip-path="url(#clip200)" d="M2233 140.238 L2233 126.21 L2237.26 126.21 L2237.26 162.229 L2233 162.229 L2233 158.34 Q2231.66 160.655 2229.6 161.789 Q2227.56 162.9 2224.69 162.9 Q2219.99 162.9 2217.03 159.15 Q2214.09 155.4 2214.09 149.289 Q2214.09 143.178 2217.03 139.428 Q2219.99 135.678 2224.69 135.678 Q2227.56 135.678 2229.6 136.812 Q2231.66 137.923 2233 140.238 M2218.49 149.289 Q2218.49 153.988 2220.41 156.673 Q2222.35 159.335 2225.73 159.335 Q2229.11 159.335 2231.06 156.673 Q2233 153.988 2233 149.289 Q2233 144.59 2231.06 141.928 Q2229.11 139.243 2225.73 139.243 Q2222.35 139.243 2220.41 141.928 Q2218.49 144.59 2218.49 149.289 Z" fill="#000000" fill-rule="nonzero" fill-opacity="1" /><path clip-path="url(#clip200)" d="M2245.36 126.257 L2249.07 126.257 Q2252.54 131.72 2254.25 136.951 Q2255.99 142.182 2255.99 147.344 Q2255.99 152.53 2254.25 157.784 Q2252.54 163.039 2249.07 168.479 L2245.36 168.479 Q2248.44 163.178 2249.94 157.946 Q2251.47 152.692 2251.47 147.344 Q2251.47 141.997 2249.94 136.789 Q2248.44 131.581 2245.36 126.257 Z" fill="#000000" fill-rule="nonzero" fill-opacity="1" /></svg>
