<?xml version="1.0" encoding="utf-8"?>
<svg xmlns="http://www.w3.org/2000/svg" xmlns:xlink="http://www.w3.org/1999/xlink" width="600" height="400" viewBox="0 0 2400 1600">
<defs>
  <clipPath id="clip110">
    <rect x="0" y="0" width="2400" height="1600"/>
  </clipPath>
</defs>
<path clip-path="url(#clip110)" d="M0 1600 L2400 1600 L2400 0 L0 0  Z" fill="#ffffff" fill-rule="evenodd" fill-opacity="1"/>
<defs>
  <clipPath id="clip111">
    <rect x="480" y="0" width="1681" height="1600"/>
  </clipPath>
</defs>
<path clip-path="url(#clip110)" d="M256.209 1423.18 L2352.76 1423.18 L2352.76 47.2441 L256.209 47.2441  Z" fill="#ffffff" fill-rule="evenodd" fill-opacity="1"/>
<defs>
  <clipPath id="clip112">
    <rect x="256" y="47" width="2098" height="1377"/>
  </clipPath>
</defs>
<polyline clip-path="url(#clip112)" style="stroke:#000000; stroke-linecap:round; stroke-linejoin:round; stroke-width:2; stroke-opacity:0.1; fill:none" points="315.545,1423.18 315.545,47.2441 "/>
<polyline clip-path="url(#clip112)" style="stroke:#000000; stroke-linecap:round; stroke-linejoin:round; stroke-width:2; stroke-opacity:0.1; fill:none" points="810.509,1423.18 810.509,47.2441 "/>
<polyline clip-path="url(#clip112)" style="stroke:#000000; stroke-linecap:round; stroke-linejoin:round; stroke-width:2; stroke-opacity:0.1; fill:none" points="1305.47,1423.18 1305.47,47.2441 "/>
<polyline clip-path="url(#clip112)" style="stroke:#000000; stroke-linecap:round; stroke-linejoin:round; stroke-width:2; stroke-opacity:0.1; fill:none" points="1800.44,1423.18 1800.44,47.2441 "/>
<polyline clip-path="url(#clip112)" style="stroke:#000000; stroke-linecap:round; stroke-linejoin:round; stroke-width:2; stroke-opacity:0.1; fill:none" points="2295.4,1423.18 2295.4,47.2441 "/>
<polyline clip-path="url(#clip110)" style="stroke:#000000; stroke-linecap:round; stroke-linejoin:round; stroke-width:4; stroke-opacity:1; fill:none" points="256.209,1423.18 2352.76,1423.18 "/>
<polyline clip-path="url(#clip110)" style="stroke:#000000; stroke-linecap:round; stroke-linejoin:round; stroke-width:4; stroke-opacity:1; fill:none" points="315.545,1423.18 315.545,1404.28 "/>
<polyline clip-path="url(#clip110)" style="stroke:#000000; stroke-linecap:round; stroke-linejoin:round; stroke-width:4; stroke-opacity:1; fill:none" points="810.509,1423.18 810.509,1404.28 "/>
<polyline clip-path="url(#clip110)" style="stroke:#000000; stroke-linecap:round; stroke-linejoin:round; stroke-width:4; stroke-opacity:1; fill:none" points="1305.47,1423.18 1305.47,1404.28 "/>
<polyline clip-path="url(#clip110)" style="stroke:#000000; stroke-linecap:round; stroke-linejoin:round; stroke-width:4; stroke-opacity:1; fill:none" points="1800.44,1423.18 1800.44,1404.28 "/>
<polyline clip-path="url(#clip110)" style="stroke:#000000; stroke-linecap:round; stroke-linejoin:round; stroke-width:4; stroke-opacity:1; fill:none" points="2295.4,1423.18 2295.4,1404.28 "/>
<path clip-path="url(#clip110)" d="M315.545 1454.1 Q311.934 1454.1 310.105 1457.66 Q308.3 1461.2 308.3 1468.33 Q308.3 1475.44 310.105 1479.01 Q311.934 1482.55 315.545 1482.55 Q319.179 1482.55 320.985 1479.01 Q322.813 1475.44 322.813 1468.33 Q322.813 1461.2 320.985 1457.66 Q319.179 1454.1 315.545 1454.1 M315.545 1450.39 Q321.355 1450.39 324.411 1455 Q327.489 1459.58 327.489 1468.33 Q327.489 1477.06 324.411 1481.67 Q321.355 1486.25 315.545 1486.25 Q309.735 1486.25 306.656 1481.67 Q303.601 1477.06 303.601 1468.33 Q303.601 1459.58 306.656 1455 Q309.735 1450.39 315.545 1450.39 Z" fill="#000000" fill-rule="nonzero" fill-opacity="1" /><path clip-path="url(#clip110)" d="M789.78 1481.64 L806.099 1481.64 L806.099 1485.58 L784.155 1485.58 L784.155 1481.64 Q786.817 1478.89 791.4 1474.26 Q796.006 1469.61 797.187 1468.27 Q799.432 1465.74 800.312 1464.01 Q801.215 1462.25 801.215 1460.56 Q801.215 1457.8 799.27 1456.07 Q797.349 1454.33 794.247 1454.33 Q792.048 1454.33 789.594 1455.09 Q787.164 1455.86 784.386 1457.41 L784.386 1452.69 Q787.21 1451.55 789.664 1450.97 Q792.117 1450.39 794.154 1450.39 Q799.525 1450.39 802.719 1453.08 Q805.914 1455.77 805.914 1460.26 Q805.914 1462.39 805.103 1464.31 Q804.316 1466.2 802.21 1468.8 Q801.631 1469.47 798.529 1472.69 Q795.428 1475.88 789.78 1481.64 Z" fill="#000000" fill-rule="nonzero" fill-opacity="1" /><path clip-path="url(#clip110)" d="M815.96 1451.02 L834.316 1451.02 L834.316 1454.96 L820.242 1454.96 L820.242 1463.43 Q821.261 1463.08 822.279 1462.92 Q823.298 1462.73 824.316 1462.73 Q830.103 1462.73 833.483 1465.9 Q836.863 1469.08 836.863 1474.49 Q836.863 1480.07 833.39 1483.17 Q829.918 1486.25 823.599 1486.25 Q821.423 1486.25 819.154 1485.88 Q816.909 1485.51 814.502 1484.77 L814.502 1480.07 Q816.585 1481.2 818.807 1481.76 Q821.029 1482.32 823.506 1482.32 Q827.511 1482.32 829.849 1480.21 Q832.187 1478.1 832.187 1474.49 Q832.187 1470.88 829.849 1468.77 Q827.511 1466.67 823.506 1466.67 Q821.631 1466.67 819.756 1467.08 Q817.904 1467.5 815.96 1468.38 L815.96 1451.02 Z" fill="#000000" fill-rule="nonzero" fill-opacity="1" /><path clip-path="url(#clip110)" d="M1280.17 1451.02 L1298.53 1451.02 L1298.53 1454.96 L1284.45 1454.96 L1284.45 1463.43 Q1285.47 1463.08 1286.49 1462.92 Q1287.51 1462.73 1288.53 1462.73 Q1294.31 1462.73 1297.69 1465.9 Q1301.07 1469.08 1301.07 1474.49 Q1301.07 1480.07 1297.6 1483.17 Q1294.13 1486.25 1287.81 1486.25 Q1285.63 1486.25 1283.37 1485.88 Q1281.12 1485.51 1278.71 1484.77 L1278.71 1480.07 Q1280.8 1481.2 1283.02 1481.76 Q1285.24 1482.32 1287.72 1482.32 Q1291.72 1482.32 1294.06 1480.21 Q1296.4 1478.1 1296.4 1474.49 Q1296.4 1470.88 1294.06 1468.77 Q1291.72 1466.67 1287.72 1466.67 Q1285.84 1466.67 1283.97 1467.08 Q1282.12 1467.5 1280.17 1468.38 L1280.17 1451.02 Z" fill="#000000" fill-rule="nonzero" fill-opacity="1" /><path clip-path="url(#clip110)" d="M1320.29 1454.1 Q1316.68 1454.1 1314.85 1457.66 Q1313.04 1461.2 1313.04 1468.33 Q1313.04 1475.44 1314.85 1479.01 Q1316.68 1482.55 1320.29 1482.55 Q1323.92 1482.55 1325.73 1479.01 Q1327.56 1475.44 1327.56 1468.33 Q1327.56 1461.2 1325.73 1457.66 Q1323.92 1454.1 1320.29 1454.1 M1320.29 1450.39 Q1326.1 1450.39 1329.15 1455 Q1332.23 1459.58 1332.23 1468.33 Q1332.23 1477.06 1329.15 1481.67 Q1326.1 1486.25 1320.29 1486.25 Q1314.48 1486.25 1311.4 1481.67 Q1308.34 1477.06 1308.34 1468.33 Q1308.34 1459.58 1311.4 1455 Q1314.48 1450.39 1320.29 1450.39 Z" fill="#000000" fill-rule="nonzero" fill-opacity="1" /><path clip-path="url(#clip110)" d="M1774.29 1451.02 L1796.51 1451.02 L1796.51 1453.01 L1783.97 1485.58 L1779.08 1485.58 L1790.89 1454.96 L1774.29 1454.96 L1774.29 1451.02 Z" fill="#000000" fill-rule="nonzero" fill-opacity="1" /><path clip-path="url(#clip110)" d="M1805.68 1451.02 L1824.04 1451.02 L1824.04 1454.96 L1809.96 1454.96 L1809.96 1463.43 Q1810.98 1463.08 1812 1462.92 Q1813.02 1462.73 1814.04 1462.73 Q1819.82 1462.73 1823.2 1465.9 Q1826.58 1469.08 1826.58 1474.49 Q1826.58 1480.07 1823.11 1483.17 Q1819.64 1486.25 1813.32 1486.25 Q1811.14 1486.25 1808.87 1485.88 Q1806.63 1485.51 1804.22 1484.77 L1804.22 1480.07 Q1806.3 1481.2 1808.53 1481.76 Q1810.75 1482.32 1813.23 1482.32 Q1817.23 1482.32 1819.57 1480.21 Q1821.91 1478.1 1821.91 1474.49 Q1821.91 1470.88 1819.57 1468.77 Q1817.23 1466.67 1813.23 1466.67 Q1811.35 1466.67 1809.48 1467.08 Q1807.62 1467.5 1805.68 1468.38 L1805.68 1451.02 Z" fill="#000000" fill-rule="nonzero" fill-opacity="1" /><path clip-path="url(#clip110)" d="M2255.01 1481.64 L2262.65 1481.64 L2262.65 1455.28 L2254.33 1456.95 L2254.33 1452.69 L2262.6 1451.02 L2267.27 1451.02 L2267.27 1481.64 L2274.91 1481.64 L2274.91 1485.58 L2255.01 1485.58 L2255.01 1481.64 Z" fill="#000000" fill-rule="nonzero" fill-opacity="1" /><path clip-path="url(#clip110)" d="M2294.36 1454.1 Q2290.75 1454.1 2288.92 1457.66 Q2287.11 1461.2 2287.11 1468.33 Q2287.11 1475.44 2288.92 1479.01 Q2290.75 1482.55 2294.36 1482.55 Q2297.99 1482.55 2299.8 1479.01 Q2301.63 1475.44 2301.63 1468.33 Q2301.63 1461.2 2299.8 1457.66 Q2297.99 1454.1 2294.36 1454.1 M2294.36 1450.39 Q2300.17 1450.39 2303.22 1455 Q2306.3 1459.58 2306.3 1468.33 Q2306.3 1477.06 2303.22 1481.67 Q2300.17 1486.25 2294.36 1486.25 Q2288.55 1486.25 2285.47 1481.67 Q2282.41 1477.06 2282.41 1468.33 Q2282.41 1459.58 2285.47 1455 Q2288.55 1450.39 2294.36 1450.39 Z" fill="#000000" fill-rule="nonzero" fill-opacity="1" /><path clip-path="url(#clip110)" d="M2324.52 1454.1 Q2320.91 1454.1 2319.08 1457.66 Q2317.27 1461.2 2317.27 1468.33 Q2317.27 1475.44 2319.08 1479.01 Q2320.91 1482.55 2324.52 1482.55 Q2328.15 1482.55 2329.96 1479.01 Q2331.79 1475.44 2331.79 1468.33 Q2331.79 1461.2 2329.96 1457.66 Q2328.15 1454.1 2324.52 1454.1 M2324.52 1450.39 Q2330.33 1450.39 2333.39 1455 Q2336.46 1459.58 2336.46 1468.33 Q2336.46 1477.06 2333.39 1481.67 Q2330.33 1486.25 2324.52 1486.25 Q2318.71 1486.25 2315.63 1481.67 Q2312.58 1477.06 2312.58 1468.33 Q2312.58 1459.58 2315.63 1455 Q2318.71 1450.39 2324.52 1450.39 Z" fill="#000000" fill-rule="nonzero" fill-opacity="1" /><path clip-path="url(#clip110)" d="M1274.34 1528.17 Q1274.34 1529.07 1273.92 1529.3 Q1273.5 1529.49 1272.34 1529.49 L1266.16 1529.49 L1261.26 1548.94 Q1260.88 1550.65 1260.88 1552.1 Q1260.88 1553.71 1261.36 1554.42 Q1261.88 1555.13 1262.94 1555.13 Q1265.03 1555.13 1267.29 1553.23 Q1269.57 1551.33 1271.51 1546.69 Q1271.76 1546.08 1271.89 1545.95 Q1272.05 1545.79 1272.47 1545.79 Q1273.28 1545.79 1273.28 1546.43 Q1273.28 1546.66 1272.83 1547.69 Q1272.41 1548.72 1271.47 1550.23 Q1270.57 1551.75 1269.38 1553.16 Q1268.22 1554.58 1266.45 1555.61 Q1264.68 1556.61 1262.78 1556.61 Q1260.11 1556.61 1258.4 1554.9 Q1256.72 1553.19 1256.72 1550.52 Q1256.72 1549.65 1257.4 1546.88 Q1258.08 1544.08 1261.75 1529.49 L1255.92 1529.49 Q1255.11 1529.49 1254.79 1529.46 Q1254.5 1529.43 1254.28 1529.27 Q1254.08 1529.07 1254.08 1528.69 Q1254.08 1528.07 1254.34 1527.82 Q1254.6 1527.53 1254.92 1527.49 Q1255.27 1527.43 1256.08 1527.43 L1262.26 1527.43 L1264.84 1516.96 Q1265.1 1515.93 1265.74 1515.35 Q1266.42 1514.74 1266.8 1514.68 Q1267.19 1514.58 1267.48 1514.58 Q1268.35 1514.58 1268.87 1515.06 Q1269.38 1515.51 1269.38 1516.35 Q1269.38 1516.8 1266.68 1527.43 L1272.47 1527.43 Q1273.21 1527.43 1273.5 1527.46 Q1273.83 1527.49 1274.08 1527.66 Q1274.34 1527.82 1274.34 1528.17 Z" fill="#000000" fill-rule="nonzero" fill-opacity="1" /><path clip-path="url(#clip110)" d="M1295.09 1572.36 L1295.09 1506.4 L1305.04 1506.4 L1305.04 1507.91 L1299.5 1507.91 L1299.5 1570.84 L1305.04 1570.84 L1305.04 1572.36 L1295.09 1572.36 Z" fill="#000000" fill-rule="nonzero" fill-opacity="1" /><path clip-path="url(#clip110)" d="M1331.98 1532.39 Q1331.98 1534.19 1331.07 1535.16 Q1330.17 1536.09 1328.95 1536.09 Q1327.95 1536.09 1327.4 1535.51 Q1326.89 1534.93 1326.89 1534.16 Q1326.89 1533.03 1327.79 1532.13 Q1328.72 1531.23 1330.08 1531.2 Q1329.63 1530.01 1328.43 1529.3 Q1327.24 1528.56 1326.18 1528.36 Q1325.15 1528.17 1324.12 1528.17 Q1322.09 1528.17 1320.54 1528.81 Q1319 1529.46 1318.22 1530.46 Q1317.45 1531.42 1317.1 1532.36 Q1316.74 1533.29 1316.74 1534.1 Q1316.74 1534.81 1316.9 1535.38 Q1317.1 1535.93 1317.55 1536.35 Q1318 1536.74 1318.32 1537 Q1318.68 1537.25 1319.45 1537.48 Q1320.22 1537.7 1320.54 1537.8 Q1320.87 1537.86 1321.77 1538.06 Q1323.63 1538.44 1324.47 1538.67 Q1325.31 1538.86 1326.4 1539.41 Q1327.53 1539.96 1328.37 1540.83 Q1330.4 1542.86 1330.4 1545.66 Q1330.4 1546.69 1330.04 1547.95 Q1329.72 1549.2 1328.79 1550.78 Q1327.85 1552.36 1326.44 1553.61 Q1325.02 1554.87 1322.57 1555.74 Q1320.16 1556.61 1317.13 1556.61 Q1312.91 1556.61 1310.3 1554.84 Q1307.69 1553.03 1307.69 1550.2 Q1307.69 1548.14 1308.82 1547.01 Q1309.95 1545.85 1311.4 1545.85 Q1312.49 1545.85 1313.17 1546.46 Q1313.84 1547.04 1313.84 1548.14 Q1313.84 1549.62 1312.65 1550.75 Q1311.46 1551.87 1309.69 1551.65 Q1311.2 1555.13 1317.19 1555.13 Q1319.45 1555.13 1321.19 1554.55 Q1322.96 1553.94 1323.92 1553.1 Q1324.92 1552.23 1325.57 1551.17 Q1326.21 1550.1 1326.4 1549.3 Q1326.63 1548.49 1326.63 1547.88 Q1326.63 1546.82 1326.21 1546.01 Q1325.79 1545.21 1325.21 1544.76 Q1324.67 1544.27 1323.6 1543.89 Q1322.57 1543.47 1321.83 1543.31 Q1321.09 1543.15 1319.77 1542.89 Q1319.16 1542.76 1318.77 1542.7 Q1318.39 1542.6 1317.58 1542.34 Q1316.81 1542.05 1316.26 1541.76 Q1315.74 1541.47 1315.07 1540.96 Q1314.39 1540.44 1313.97 1539.83 Q1313.55 1539.22 1313.26 1538.32 Q1312.97 1537.41 1312.97 1536.35 Q1312.97 1535.38 1313.26 1534.23 Q1313.59 1533.07 1314.39 1531.71 Q1315.23 1530.36 1316.42 1529.27 Q1317.61 1528.17 1319.61 1527.46 Q1321.64 1526.72 1324.12 1526.72 Q1327.72 1526.72 1329.85 1528.4 Q1331.98 1530.04 1331.98 1532.39 Z" fill="#000000" fill-rule="nonzero" fill-opacity="1" /><path clip-path="url(#clip110)" d="M1336.73 1570.84 L1342.27 1570.84 L1342.27 1507.91 L1336.73 1507.91 L1336.73 1506.4 L1346.68 1506.4 L1346.68 1572.36 L1336.73 1572.36 L1336.73 1570.84 Z" fill="#000000" fill-rule="nonzero" fill-opacity="1" /><polyline clip-path="url(#clip112)" style="stroke:#000000; stroke-linecap:round; stroke-linejoin:round; stroke-width:2; stroke-opacity:0.1; fill:none" points="256.209,1254.92 2352.76,1254.92 "/>
<polyline clip-path="url(#clip112)" style="stroke:#000000; stroke-linecap:round; stroke-linejoin:round; stroke-width:2; stroke-opacity:0.1; fill:none" points="256.209,1000.19 2352.76,1000.19 "/>
<polyline clip-path="url(#clip112)" style="stroke:#000000; stroke-linecap:round; stroke-linejoin:round; stroke-width:2; stroke-opacity:0.1; fill:none" points="256.209,745.451 2352.76,745.451 "/>
<polyline clip-path="url(#clip112)" style="stroke:#000000; stroke-linecap:round; stroke-linejoin:round; stroke-width:2; stroke-opacity:0.1; fill:none" points="256.209,490.717 2352.76,490.717 "/>
<polyline clip-path="url(#clip112)" style="stroke:#000000; stroke-linecap:round; stroke-linejoin:round; stroke-width:2; stroke-opacity:0.1; fill:none" points="256.209,235.982 2352.76,235.982 "/>
<polyline clip-path="url(#clip110)" style="stroke:#000000; stroke-linecap:round; stroke-linejoin:round; stroke-width:4; stroke-opacity:1; fill:none" points="256.209,1423.18 256.209,47.2441 "/>
<polyline clip-path="url(#clip110)" style="stroke:#000000; stroke-linecap:round; stroke-linejoin:round; stroke-width:4; stroke-opacity:1; fill:none" points="256.209,1254.92 275.106,1254.92 "/>
<polyline clip-path="url(#clip110)" style="stroke:#000000; stroke-linecap:round; stroke-linejoin:round; stroke-width:4; stroke-opacity:1; fill:none" points="256.209,1000.19 275.106,1000.19 "/>
<polyline clip-path="url(#clip110)" style="stroke:#000000; stroke-linecap:round; stroke-linejoin:round; stroke-width:4; stroke-opacity:1; fill:none" points="256.209,745.451 275.106,745.451 "/>
<polyline clip-path="url(#clip110)" style="stroke:#000000; stroke-linecap:round; stroke-linejoin:round; stroke-width:4; stroke-opacity:1; fill:none" points="256.209,490.717 275.106,490.717 "/>
<polyline clip-path="url(#clip110)" style="stroke:#000000; stroke-linecap:round; stroke-linejoin:round; stroke-width:4; stroke-opacity:1; fill:none" points="256.209,235.982 275.106,235.982 "/>
<path clip-path="url(#clip110)" d="M114.26 1255.37 L143.936 1255.37 L143.936 1259.31 L114.26 1259.31 L114.26 1255.37 Z" fill="#000000" fill-rule="nonzero" fill-opacity="1" /><path clip-path="url(#clip110)" d="M158.056 1268.26 L174.376 1268.26 L174.376 1272.2 L152.431 1272.2 L152.431 1268.26 Q155.093 1265.51 159.677 1260.88 Q164.283 1256.23 165.464 1254.89 Q167.709 1252.36 168.589 1250.63 Q169.491 1248.87 169.491 1247.18 Q169.491 1244.42 167.547 1242.69 Q165.626 1240.95 162.524 1240.95 Q160.325 1240.95 157.871 1241.71 Q155.44 1242.48 152.663 1244.03 L152.663 1239.31 Q155.487 1238.17 157.94 1237.59 Q160.394 1237.01 162.431 1237.01 Q167.802 1237.01 170.996 1239.7 Q174.19 1242.39 174.19 1246.88 Q174.19 1249.01 173.38 1250.93 Q172.593 1252.82 170.487 1255.42 Q169.908 1256.09 166.806 1259.31 Q163.704 1262.5 158.056 1268.26 Z" fill="#000000" fill-rule="nonzero" fill-opacity="1" /><path clip-path="url(#clip110)" d="M184.19 1266.32 L189.075 1266.32 L189.075 1272.2 L184.19 1272.2 L184.19 1266.32 Z" fill="#000000" fill-rule="nonzero" fill-opacity="1" /><path clip-path="url(#clip110)" d="M199.306 1237.64 L217.662 1237.64 L217.662 1241.58 L203.588 1241.58 L203.588 1250.05 Q204.607 1249.7 205.625 1249.54 Q206.644 1249.35 207.662 1249.35 Q213.449 1249.35 216.829 1252.52 Q220.209 1255.7 220.209 1261.11 Q220.209 1266.69 216.736 1269.79 Q213.264 1272.87 206.945 1272.87 Q204.769 1272.87 202.5 1272.5 Q200.255 1272.13 197.848 1271.39 L197.848 1266.69 Q199.931 1267.82 202.153 1268.38 Q204.375 1268.94 206.852 1268.94 Q210.857 1268.94 213.195 1266.83 Q215.533 1264.72 215.533 1261.11 Q215.533 1257.5 213.195 1255.39 Q210.857 1253.29 206.852 1253.29 Q204.977 1253.29 203.102 1253.7 Q201.25 1254.12 199.306 1255 L199.306 1237.64 Z" fill="#000000" fill-rule="nonzero" fill-opacity="1" /><path clip-path="url(#clip110)" d="M163.033 985.984 Q159.422 985.984 157.593 989.549 Q155.788 993.091 155.788 1000.22 Q155.788 1007.33 157.593 1010.89 Q159.422 1014.43 163.033 1014.43 Q166.667 1014.43 168.473 1010.89 Q170.302 1007.33 170.302 1000.22 Q170.302 993.091 168.473 989.549 Q166.667 985.984 163.033 985.984 M163.033 982.28 Q168.843 982.28 171.899 986.887 Q174.977 991.47 174.977 1000.22 Q174.977 1008.95 171.899 1013.55 Q168.843 1018.14 163.033 1018.14 Q157.223 1018.14 154.144 1013.55 Q151.089 1008.95 151.089 1000.22 Q151.089 991.47 154.144 986.887 Q157.223 982.28 163.033 982.28 Z" fill="#000000" fill-rule="nonzero" fill-opacity="1" /><path clip-path="url(#clip110)" d="M183.195 1011.59 L188.079 1011.59 L188.079 1017.47 L183.195 1017.47 L183.195 1011.59 Z" fill="#000000" fill-rule="nonzero" fill-opacity="1" /><path clip-path="url(#clip110)" d="M208.264 985.984 Q204.653 985.984 202.824 989.549 Q201.019 993.091 201.019 1000.22 Q201.019 1007.33 202.824 1010.89 Q204.653 1014.43 208.264 1014.43 Q211.899 1014.43 213.704 1010.89 Q215.533 1007.33 215.533 1000.22 Q215.533 993.091 213.704 989.549 Q211.899 985.984 208.264 985.984 M208.264 982.28 Q214.074 982.28 217.13 986.887 Q220.209 991.47 220.209 1000.22 Q220.209 1008.95 217.13 1013.55 Q214.074 1018.14 208.264 1018.14 Q202.454 1018.14 199.375 1013.55 Q196.32 1008.95 196.32 1000.22 Q196.32 991.47 199.375 986.887 Q202.454 982.28 208.264 982.28 Z" fill="#000000" fill-rule="nonzero" fill-opacity="1" /><path clip-path="url(#clip110)" d="M158.056 758.796 L174.376 758.796 L174.376 762.731 L152.431 762.731 L152.431 758.796 Q155.093 756.041 159.677 751.412 Q164.283 746.759 165.464 745.416 Q167.709 742.893 168.589 741.157 Q169.491 739.398 169.491 737.708 Q169.491 734.953 167.547 733.217 Q165.626 731.481 162.524 731.481 Q160.325 731.481 157.871 732.245 Q155.44 733.009 152.663 734.56 L152.663 729.838 Q155.487 728.703 157.94 728.125 Q160.394 727.546 162.431 727.546 Q167.802 727.546 170.996 730.231 Q174.19 732.916 174.19 737.407 Q174.19 739.537 173.38 741.458 Q172.593 743.356 170.487 745.949 Q169.908 746.62 166.806 749.838 Q163.704 753.032 158.056 758.796 Z" fill="#000000" fill-rule="nonzero" fill-opacity="1" /><path clip-path="url(#clip110)" d="M184.19 756.851 L189.075 756.851 L189.075 762.731 L184.19 762.731 L184.19 756.851 Z" fill="#000000" fill-rule="nonzero" fill-opacity="1" /><path clip-path="url(#clip110)" d="M199.306 728.171 L217.662 728.171 L217.662 732.106 L203.588 732.106 L203.588 740.578 Q204.607 740.231 205.625 740.069 Q206.644 739.884 207.662 739.884 Q213.449 739.884 216.829 743.055 Q220.209 746.227 220.209 751.643 Q220.209 757.222 216.736 760.324 Q213.264 763.402 206.945 763.402 Q204.769 763.402 202.5 763.032 Q200.255 762.662 197.848 761.921 L197.848 757.222 Q199.931 758.356 202.153 758.912 Q204.375 759.467 206.852 759.467 Q210.857 759.467 213.195 757.361 Q215.533 755.254 215.533 751.643 Q215.533 748.032 213.195 745.926 Q210.857 743.819 206.852 743.819 Q204.977 743.819 203.102 744.236 Q201.25 744.652 199.306 745.532 L199.306 728.171 Z" fill="#000000" fill-rule="nonzero" fill-opacity="1" /><path clip-path="url(#clip110)" d="M153.079 473.437 L171.436 473.437 L171.436 477.372 L157.362 477.372 L157.362 485.844 Q158.38 485.497 159.399 485.335 Q160.417 485.15 161.436 485.15 Q167.223 485.15 170.602 488.321 Q173.982 491.492 173.982 496.909 Q173.982 502.487 170.51 505.589 Q167.038 508.668 160.718 508.668 Q158.542 508.668 156.274 508.298 Q154.028 507.927 151.621 507.186 L151.621 502.487 Q153.704 503.622 155.927 504.177 Q158.149 504.733 160.626 504.733 Q164.63 504.733 166.968 502.626 Q169.306 500.52 169.306 496.909 Q169.306 493.298 166.968 491.191 Q164.63 489.085 160.626 489.085 Q158.751 489.085 156.876 489.501 Q155.024 489.918 153.079 490.798 L153.079 473.437 Z" fill="#000000" fill-rule="nonzero" fill-opacity="1" /><path clip-path="url(#clip110)" d="M183.195 502.117 L188.079 502.117 L188.079 507.997 L183.195 507.997 L183.195 502.117 Z" fill="#000000" fill-rule="nonzero" fill-opacity="1" /><path clip-path="url(#clip110)" d="M208.264 476.515 Q204.653 476.515 202.824 480.08 Q201.019 483.622 201.019 490.751 Q201.019 497.858 202.824 501.423 Q204.653 504.964 208.264 504.964 Q211.899 504.964 213.704 501.423 Q215.533 497.858 215.533 490.751 Q215.533 483.622 213.704 480.08 Q211.899 476.515 208.264 476.515 M208.264 472.812 Q214.074 472.812 217.13 477.418 Q220.209 482.001 220.209 490.751 Q220.209 499.478 217.13 504.085 Q214.074 508.668 208.264 508.668 Q202.454 508.668 199.375 504.085 Q196.32 499.478 196.32 490.751 Q196.32 482.001 199.375 477.418 Q202.454 472.812 208.264 472.812 Z" fill="#000000" fill-rule="nonzero" fill-opacity="1" /><path clip-path="url(#clip110)" d="M152.848 218.702 L175.07 218.702 L175.07 220.693 L162.524 253.262 L157.64 253.262 L169.445 222.637 L152.848 222.637 L152.848 218.702 Z" fill="#000000" fill-rule="nonzero" fill-opacity="1" /><path clip-path="url(#clip110)" d="M184.19 247.383 L189.075 247.383 L189.075 253.262 L184.19 253.262 L184.19 247.383 Z" fill="#000000" fill-rule="nonzero" fill-opacity="1" /><path clip-path="url(#clip110)" d="M199.306 218.702 L217.662 218.702 L217.662 222.637 L203.588 222.637 L203.588 231.11 Q204.607 230.762 205.625 230.6 Q206.644 230.415 207.662 230.415 Q213.449 230.415 216.829 233.586 Q220.209 236.758 220.209 242.174 Q220.209 247.753 216.736 250.855 Q213.264 253.933 206.945 253.933 Q204.769 253.933 202.5 253.563 Q200.255 253.193 197.848 252.452 L197.848 247.753 Q199.931 248.887 202.153 249.443 Q204.375 249.998 206.852 249.998 Q210.857 249.998 213.195 247.892 Q215.533 245.785 215.533 242.174 Q215.533 238.563 213.195 236.457 Q210.857 234.35 206.852 234.35 Q204.977 234.35 203.102 234.767 Q201.25 235.184 199.306 236.063 L199.306 218.702 Z" fill="#000000" fill-rule="nonzero" fill-opacity="1" /><path clip-path="url(#clip110)" d="M43.9909 772.59 Q45.7944 772.59 47.8234 773.137 L77.6782 780.641 Q80.3191 781.318 80.3191 783.347 Q80.3191 784.184 79.8038 784.699 Q79.3207 785.182 78.5478 785.182 Q78.2901 785.182 77.485 784.989 L47.147 777.485 Q44.3773 776.809 42.9925 776.809 Q38.3871 776.809 38.3871 780.384 Q38.3871 783.54 40.7059 786.696 Q41.8653 788.145 43.9587 789.562 Q46.0198 790.947 46.7606 791.205 Q48.4353 791.495 49.7235 791.913 Q50.6253 792.107 54.1357 793.04 L60.0938 794.49 Q64.5382 795.52 64.9569 795.746 Q65.8587 796.068 66.3417 796.776 Q66.8248 797.485 66.8248 798.193 Q66.8248 798.999 66.3417 799.546 Q65.8587 800.094 65.0213 800.094 Q64.8925 800.094 64.4094 799.997 Q63.9263 799.9 63.25 799.739 Q62.5737 799.578 62.1872 799.514 L46.9538 795.681 Q44.1841 794.973 43.3146 794.812 Q42.4128 794.619 41.4144 794.619 Q39.6753 794.619 39.0312 795.166 Q38.3871 795.714 38.3871 796.68 Q38.3871 798.354 40.3838 799.449 Q42.3806 800.544 46.2453 801.478 Q47.3081 801.768 47.5335 801.962 Q47.759 802.123 47.759 802.606 Q47.7268 803.411 47.0826 803.411 Q46.9216 803.411 45.891 803.153 Q44.8282 802.895 43.2823 802.412 Q41.7043 801.897 40.7059 801.35 Q40.0296 801.028 39.5787 800.738 Q39.1278 800.448 38.4193 799.868 Q37.7107 799.288 37.3243 798.419 Q36.9378 797.549 36.9378 796.487 Q36.9378 794.135 38.4515 792.396 Q39.9651 790.625 42.6704 790.4 Q41.6721 789.723 40.7703 788.854 Q39.8685 787.952 38.9668 786.696 Q38.0328 785.44 37.4853 783.733 Q36.9378 782.026 36.9378 780.19 Q36.9378 776.519 38.8379 774.554 Q40.7059 772.59 43.9909 772.59 Z" fill="#000000" fill-rule="nonzero" fill-opacity="1" /><path clip-path="url(#clip110)" d="M82.5735 753.539 L16.6159 753.539 L16.6159 743.588 L18.1296 743.588 L18.1296 749.127 L81.0598 749.127 L81.0598 743.588 L82.5735 743.588 L82.5735 753.539 Z" fill="#000000" fill-rule="nonzero" fill-opacity="1" /><path clip-path="url(#clip110)" d="M56.6478 688.211 Q56.9054 688.211 57.9038 688.501 Q58.9022 688.791 60.4481 689.5 Q61.994 690.176 63.411 691.142 Q64.7959 692.076 65.8264 693.622 Q66.8248 695.136 66.8248 696.875 Q66.8248 699.194 65.2789 700.74 Q63.7331 702.285 61.4142 702.285 Q60.1582 702.285 57.775 701.416 Q46.8894 697.326 42.9925 697.326 Q38.3871 697.326 38.3871 700.901 Q38.3871 702.93 39.2244 704.765 Q40.0618 706.601 41.2212 707.793 Q42.3806 708.984 43.701 709.918 Q45.0215 710.852 45.891 711.271 Q46.7606 711.657 47.147 711.754 L63.0567 715.715 Q64.4094 716.037 65.0535 716.263 Q65.6976 716.488 66.2451 717.1 Q66.8248 717.712 66.8248 718.678 Q66.8248 719.483 66.3417 720.063 Q65.8587 720.611 65.0213 720.611 Q64.8925 720.611 64.2162 720.45 Q63.5398 720.288 62.6059 720.063 Q61.6719 719.838 61.1244 719.741 Q56.7444 718.582 56.1325 718.421 L48.4675 716.585 Q44.6672 715.586 42.9925 715.586 Q38.3871 715.586 38.3871 719.161 Q38.3871 720.933 39.0634 722.607 Q39.7075 724.25 40.6093 725.377 Q41.511 726.504 42.7671 727.535 Q43.9909 728.533 44.8282 729.048 Q45.6334 729.532 46.4385 729.918 L49.7235 730.755 Q50.6253 730.949 54.1357 731.883 L60.0938 733.332 Q64.5382 734.362 64.9569 734.588 Q65.8587 734.91 66.3417 735.618 Q66.8248 736.327 66.8248 737.036 Q66.8248 737.841 66.3417 738.388 Q65.8587 738.936 65.0213 738.936 Q64.8925 738.936 64.4094 738.839 Q63.9263 738.742 63.25 738.581 Q62.5737 738.42 62.1872 738.356 L46.9538 734.523 Q44.1841 733.815 43.3146 733.654 Q42.4128 733.461 41.4144 733.461 Q38.3871 733.461 38.3871 735.522 Q38.3871 737.197 40.3838 738.292 Q42.3806 739.387 46.2453 740.321 Q47.3081 740.61 47.5335 740.804 Q47.759 740.965 47.759 741.448 Q47.7268 742.253 47.0826 742.253 Q46.9216 742.253 45.891 741.995 Q44.8604 741.738 43.3146 741.255 Q41.7365 740.739 40.7059 740.192 Q40.0296 739.87 39.5787 739.58 Q39.1278 739.29 38.4193 738.71 Q37.7107 738.131 37.3243 737.261 Q36.9378 736.391 36.9378 735.329 Q36.9378 732.978 38.4515 731.238 Q39.9651 729.467 42.6704 729.242 Q36.9378 724.958 36.9378 718.968 Q36.9378 715.586 38.6447 713.557 Q40.2872 711.657 43.3146 711.432 Q36.9378 706.987 36.9378 700.675 Q36.9378 697.036 38.8379 695.071 Q40.7059 693.107 43.9909 693.107 Q45.6978 693.107 48.9506 693.976 Q52.1712 694.846 53.7815 695.426 Q55.3917 696.005 58.4835 697.132 Q61.4465 698.324 63.1856 698.324 Q64.3128 698.324 64.8281 697.938 Q65.3434 697.551 65.3434 696.714 Q65.3434 695.426 64.6026 694.298 Q63.8297 693.171 62.5737 692.366 Q61.2854 691.529 59.9972 690.981 Q58.6767 690.434 57.1953 690.015 Q56.3901 689.757 56.1969 689.629 Q56.0037 689.467 56.0037 689.017 Q56.0037 688.211 56.6478 688.211 Z" fill="#000000" fill-rule="nonzero" fill-opacity="1" /><path clip-path="url(#clip110)" d="M81.0598 685.163 L81.0598 679.624 L18.1296 679.624 L18.1296 685.163 L16.6159 685.163 L16.6159 675.212 L82.5735 675.212 L82.5735 685.163 L81.0598 685.163 Z" fill="#000000" fill-rule="nonzero" fill-opacity="1" /><polyline clip-path="url(#clip112)" style="stroke:#009af9; stroke-linecap:round; stroke-linejoin:round; stroke-width:8; stroke-opacity:1; fill:none" points="315.545,1002.85 317.525,1003.97 319.505,1004.22 321.484,1004.83 323.464,1005.07 325.444,1005.49 327.424,1005.7 329.404,1005.98 331.384,1006.14 333.364,1006.29 335.343,1006.4 337.323,1006.43 339.303,1006.46 341.283,1006.39 343.263,1006.33 345.243,1006.15 347.223,1006 349.202,1005.7 351.182,1005.45 353.162,1005.05 355.142,1004.69 357.122,1004.19 359.102,1003.72 361.082,1003.13 363.061,1002.55 365.041,1001.87 367.021,1001.19 369.001,1000.46 370.981,999.692 372.961,998.912 374.941,998.09 376.92,997.297 378.9,996.452 380.88,995.679 382.86,994.851 384.84,994.13 386.82,993.357 388.8,992.717 390.779,992.028 392.759,991.483 394.739,990.898 396.719,990.452 398.699,989.971 400.679,989.614 402.659,989.23 404.638,988.941 406.618,988.632 408.598,988.388 410.578,988.128 412.558,987.903 414.538,987.667 416.517,987.442 418.497,987.21 420.477,986.972 422.457,986.733 424.437,986.477 426.417,986.227 428.397,985.953 430.376,985.699 432.356,985.416 434.336,985.175 436.316,984.905 438.296,984.713 440.276,984.495 442.256,984.4 444.235,984.289 446.215,984.351 448.195,984.413 450.175,984.698 452.155,985.008 454.135,985.585 456.115,986.222 458.094,987.161 460.074,988.207 462.054,989.583 464.034,991.124 466.014,993.012 467.994,995.139 469.974,997.626 471.953,1000.44 473.933,1003.62 475.913,1007.21 477.893,1011.18 479.873,1015.65 481.853,1020.49 483.833,1025.92 485.812,1031.69 487.792,1038.08 489.772,1044.78 491.752,1052.09 493.732,1059.63 495.712,1067.69 497.692,1075.87 499.671,1084.38 501.651,1092.83 503.631,1101.32 505.611,1109.54 507.591,1117.39 509.571,1124.69 511.551,1131.12 513.53,1136.67 515.51,1140.78 517.49,1143.63 519.47,1144.46 521.45,1143.62 523.43,1140.21 525.409,1134.75 527.389,1126.3 529.369,1115.5 531.349,1101.49 533.329,1084.89 535.309,1065.03 537.289,1042.37 539.268,1016.68 541.248,988.407 543.228,957.968 545.208,925.753 547.188,892.603 549.168,858.422 551.148,824.081 553.127,789.186 555.107,755.126 557.087,722.279 559.067,693.113 561.047,669.047 563.027,652.631 565.007,645.066 566.986,647.259 568.966,659.126 570.946,679.44 572.926,707.099 574.906,739.744 576.886,776.243 578.866,814.376 580.845,853.553 582.825,892.252 584.805,930.253 586.785,966.653 588.765,1001.23 590.745,1033.57 592.725,1063.32 594.704,1090.51 596.684,1114.68 598.664,1136.21 600.644,1154.62 602.624,1170.54 604.604,1183.52 606.584,1194.28 608.563,1202.46 610.543,1208.77 612.523,1212.95 614.503,1215.61 616.483,1216.6 618.463,1216.36 620.443,1214.87 622.422,1212.36 624.402,1208.91 626.382,1204.55 628.362,1199.47 630.342,1193.48 632.322,1186.85 634.301,1179.23 636.281,1170.95 638.261,1161.57 640.241,1151.42 642.221,1140.01 644.201,1127.7 646.181,1114.01 648.16,1099.26 650.14,1083.06 652.12,1065.69 654.1,1046.88 656.08,1026.85 658.06,1005.51 660.04,982.986 662.019,959.406 663.999,934.798 665.979,909.497 667.959,883.445 669.939,857.176 671.919,830.568 673.899,804.319 675.878,778.275 677.858,753.243 679.838,729.085 681.818,706.645 683.798,685.845 685.778,667.487 687.758,651.598 689.737,638.858 691.717,629.421 693.697,623.761 695.677,622.128 697.657,624.692 699.637,631.707 701.617,642.957 703.596,658.61 705.576,678.063 707.556,701.358 709.536,727.62 711.516,756.787 713.496,787.883 715.476,820.779 717.455,854.561 719.435,889.053 721.415,923.508 723.395,957.698 725.375,991.1 727.355,1023.43 729.335,1054.39 731.314,1083.65 733.294,1111.15 735.274,1136.49 737.254,1159.8 739.234,1180.68 741.214,1199.41 743.194,1215.59 745.173,1229.6 747.153,1241.09 749.133,1250.46 751.113,1257.45 753.093,1262.47 755.073,1265.33 757.052,1266.39 759.032,1265.58 761.012,1263.18 762.992,1259.23 764.972,1253.92 766.952,1247.37 768.932,1239.71 770.911,1231.11 772.891,1221.64 774.871,1211.54 776.851,1200.78 778.831,1189.66 780.811,1178.1 782.791,1166.39 784.77,1154.46 786.75,1142.58 788.73,1130.67 790.71,1118.93 792.69,1107.16 794.67,1095.4 796.65,1083.46 798.629,1071.53 800.609,1059.07 802.589,1045.94 804.569,1031.71 806.549,1015.93 808.529,998.052 810.509,977.555 812.488,953.887 814.468,926.375 816.448,894.424 818.428,857.293 820.408,814.932 822.388,767.663 824.368,717.046 826.347,664.303 828.327,610.563 830.307,555.247 832.287,498.132 834.267,439.66 836.247,383.755 838.227,336.539 840.206,305.391 842.186,295.617 844.166,309.202 846.146,344.31 848.126,396.019 850.106,458.515 852.086,525.886 854.065,594.091 856.045,660.076 858.025,722.552 860.005,780.344 861.985,833.05 863.965,880.076 865.944,921.437 867.924,957.157 869.904,987.653 871.884,1013.41 873.864,1035.07 875.844,1053.35 877.824,1068.85 879.803,1082.27 881.783,1094.04 883.763,1104.68 885.743,1114.42 887.723,1123.6 889.703,1132.24 891.683,1140.53 893.662,1148.37 895.642,1155.84 897.622,1162.78 899.602,1169.24 901.582,1175.03 903.562,1180.18 905.542,1184.53 907.521,1188.08 909.501,1190.75 911.481,1192.5 913.461,1193.3 915.441,1193.11 917.421,1191.94 919.401,1189.73 921.38,1186.53 923.36,1182.28 925.34,1177.06 927.32,1170.79 929.3,1163.59 931.28,1155.36 933.26,1146.26 935.239,1136.17 937.219,1125.27 939.199,1113.47 941.179,1100.94 943.159,1087.61 945.139,1073.64 947.119,1059.02 949.098,1043.9 951.078,1028.3 953.058,1012.35 955.038,996.13 957.018,979.756 958.998,963.354 960.978,947.009 962.957,930.886 964.937,915.034 966.917,899.643 968.897,884.72 970.877,870.459 972.857,856.825 974.836,844.006 976.816,831.939 978.796,820.8 980.776,810.52 982.756,801.267 984.736,792.99 986.716,785.845 988.695,779.814 990.675,775.032 992.655,771.511 994.635,769.347 996.615,768.573 998.595,769.23 1000.57,771.367 1002.55,774.965 1004.53,780.088 1006.51,786.664 1008.49,794.77 1010.47,804.288 1012.45,815.296 1014.43,827.635 1016.41,841.368 1018.39,856.299 1020.37,872.457 1022.35,889.622 1024.33,907.776 1026.31,926.691 1028.29,946.299 1030.27,966.386 1032.25,986.836 1034.23,1007.47 1036.21,1028.12 1038.19,1048.65 1040.17,1068.88 1042.15,1088.7 1044.13,1107.91 1046.11,1126.45 1048.09,1144.09 1050.07,1160.84 1052.05,1176.45 1054.03,1190.94 1056.01,1204.1 1057.99,1215.96 1059.97,1226.34 1061.95,1235.26 1063.93,1242.6 1065.91,1248.37 1067.89,1252.48 1069.87,1254.95 1071.85,1255.75 1073.83,1254.86 1075.81,1252.33 1077.79,1248.12 1079.77,1242.31 1081.75,1234.89 1083.73,1225.96 1085.71,1215.5 1087.69,1203.67 1089.67,1190.43 1091.65,1175.97 1093.63,1160.29 1095.61,1143.56 1097.59,1125.8 1099.57,1107.22 1101.55,1087.84 1103.53,1067.85 1105.51,1047.33 1107.49,1026.45 1109.47,1005.33 1111.45,984.094 1113.43,962.904 1115.41,941.877 1117.39,921.184 1119.37,900.922 1121.35,881.28 1123.33,862.334 1125.31,844.285 1127.29,827.19 1129.27,811.252 1131.25,796.521 1133.22,783.188 1135.2,771.296 1137.18,761.011 1139.16,752.368 1141.14,745.493 1143.12,740.406 1145.1,737.182 1147.08,735.826 1149.06,736.356 1151.04,738.765 1153.02,743.015 1155,749.087 1156.98,756.893 1158.96,766.402 1160.94,777.483 1162.92,790.089 1164.9,804.053 1166.88,819.311 1168.86,835.676 1170.84,853.066 1172.82,871.285 1174.8,890.239 1176.78,909.738 1178.76,929.678 1180.74,949.886 1182.72,970.253 1184.7,990.63 1186.68,1010.9 1188.66,1030.95 1190.64,1050.65 1192.62,1069.92 1194.6,1088.63 1196.58,1106.72 1198.56,1124.06 1200.54,1140.61 1202.52,1156.26 1204.5,1170.97 1206.48,1184.64 1208.46,1197.25 1210.44,1208.71 1212.42,1219.01 1214.4,1228.08 1216.38,1235.9 1218.36,1242.43 1220.34,1247.67 1222.32,1251.57 1224.3,1254.16 1226.28,1255.41 1228.26,1255.34 1230.24,1253.95 1232.22,1251.26 1234.2,1247.29 1236.18,1242.08 1238.16,1235.65 1240.14,1228.05 1242.12,1219.34 1244.1,1209.54 1246.08,1198.73 1248.06,1186.96 1250.04,1174.32 1252.02,1160.86 1254,1146.68 1255.98,1131.84 1257.96,1116.44 1259.94,1100.56 1261.92,1084.29 1263.9,1067.65 1265.88,1050.62 1267.85,1033.11 1269.83,1014.98 1271.81,995.893 1273.79,975.26 1275.77,952.192 1277.75,925.636 1279.73,894.549 1281.71,857.864 1283.69,814.272 1285.67,762.174 1287.65,700.393 1289.63,629.25 1291.61,550.868 1293.59,467.829 1295.57,381.819 1297.55,294.364 1299.53,209.971 1301.51,138.649 1303.49,93.8071 1305.47,86.1857 1307.45,118.604 1309.43,184.994 1311.41,273.762 1313.39,372.701 1315.37,472.554 1317.35,567.851 1319.33,655.701 1321.31,734.297 1323.29,802.527 1325.27,860.158 1327.25,907.777 1329.23,946.508 1331.21,977.843 1333.19,1003.4 1335.17,1024.69 1337.15,1042.92 1339.13,1059.07 1341.11,1073.83 1343.09,1087.66 1345.07,1100.82 1347.05,1113.41 1349.03,1125.49 1351.01,1137.03 1352.99,1148 1354.97,1158.35 1356.95,1168.07 1358.93,1177.11 1360.91,1185.46 1362.89,1193.12 1364.87,1200.1 1366.85,1206.4 1368.83,1212.04 1370.81,1217.02 1372.79,1221.36 1374.77,1225.06 1376.75,1228.13 1378.73,1230.56 1380.71,1232.32 1382.69,1233.4 1384.67,1233.73 1386.65,1233.28 1388.63,1231.96 1390.61,1229.69 1392.59,1226.35 1394.57,1221.83 1396.55,1215.98 1398.53,1208.69 1400.51,1199.76 1402.49,1189.07 1404.46,1176.43 1406.44,1161.72 1408.42,1144.77 1410.4,1125.5 1412.38,1103.78 1414.36,1079.59 1416.34,1052.88 1418.32,1023.69 1420.3,992.107 1422.28,958.259 1424.26,922.353 1426.24,884.634 1428.22,845.446 1430.2,805.14 1432.18,764.197 1434.16,723.06 1436.14,682.326 1438.12,642.505 1440.1,604.268 1442.08,568.157 1444.06,534.862 1446.04,504.898 1448.02,478.892 1450,457.265 1451.98,440.485 1453.96,428.811 1455.94,422.488 1457.92,421.578 1459.9,426.077 1461.88,435.856 1463.86,450.665 1465.84,470.2 1467.82,493.991 1469.8,521.584 1471.78,552.341 1473.76,585.72 1475.74,621.005 1477.72,657.65 1479.7,694.965 1481.68,732.482 1483.66,769.621 1485.64,806.039 1487.62,841.313 1489.6,875.233 1491.58,907.541 1493.56,938.147 1495.54,966.94 1497.52,993.919 1499.5,1019.09 1501.48,1042.52 1503.46,1064.29 1505.44,1084.49 1507.42,1103.27 1509.4,1120.7 1511.38,1136.97 1513.36,1152.13 1515.34,1166.36 1517.32,1179.7 1519.3,1192.29 1521.28,1204.13 1523.26,1215.36 1525.24,1225.93 1527.22,1235.93 1529.2,1245.29 1531.18,1254.06 1533.16,1262.15 1535.14,1269.56 1537.12,1276.21 1539.1,1282.05 1541.07,1286.99 1543.05,1290.97 1545.03,1293.91 1547.01,1295.7 1548.99,1296.3 1550.97,1295.58 1552.95,1293.51 1554.93,1289.97 1556.91,1284.96 1558.89,1278.35 1560.87,1270.17 1562.85,1260.3 1564.83,1248.81 1566.81,1235.57 1568.79,1220.71 1570.77,1204.12 1572.75,1185.95 1574.73,1166.1 1576.71,1144.77 1578.69,1121.89 1580.67,1097.67 1582.65,1072.1 1584.63,1045.39 1586.61,1017.61 1588.59,988.92 1590.57,959.479 1592.55,929.426 1594.53,898.989 1596.51,868.309 1598.49,837.708 1600.47,807.324 1602.45,777.542 1604.43,748.478 1606.41,720.553 1608.39,693.884 1610.37,668.945 1612.35,645.9 1614.33,625.253 1616.31,607.192 1618.29,592.169 1620.27,580.347 1622.25,572.07 1624.23,567.491 1626.21,566.836 1628.19,570.247 1630.17,577.784 1632.15,589.502 1634.13,605.207 1636.11,624.787 1638.09,647.776 1640.07,673.911 1642.05,702.546 1644.03,733.355 1646.01,765.652 1647.99,799.129 1649.97,833.166 1651.95,867.508 1653.93,901.655 1655.91,935.389 1657.89,968.344 1659.87,1000.32 1661.85,1031.08 1663.83,1060.42 1665.81,1088.22 1667.79,1114.27 1669.77,1138.56 1671.75,1160.85 1673.73,1181.24 1675.71,1199.47 1677.68,1215.73 1679.66,1229.76 1681.64,1241.81 1683.62,1251.64 1685.6,1259.51 1687.58,1265.26 1689.56,1269.14 1691.54,1271.04 1693.52,1271.21 1695.5,1269.59 1697.48,1266.42 1699.46,1261.71 1701.44,1255.64 1703.42,1248.32 1705.4,1239.87 1707.38,1230.47 1709.36,1220.19 1711.34,1209.28 1713.32,1197.75 1715.3,1185.89 1717.28,1173.66 1719.26,1161.39 1721.24,1148.99 1723.22,1136.8 1725.2,1124.68 1727.18,1112.95 1729.16,1101.46 1731.14,1090.48 1733.12,1079.84 1735.1,1069.76 1737.08,1060.08 1739.06,1050.95 1741.04,1042.22 1743.02,1034.01 1745,1026.19 1746.98,1018.84 1748.96,1011.86 1750.94,1005.28 1752.92,999.078 1754.9,993.238 1756.88,987.772 1758.86,982.646 1760.84,977.906 1762.82,973.494 1764.8,969.487 1766.78,965.803 1768.76,962.54 1770.74,959.604 1772.72,957.103 1774.7,954.934 1776.68,953.206 1778.66,951.818 1780.64,950.868 1782.62,950.258 1784.6,950.067 1786.58,950.203 1788.56,950.714 1790.54,951.521 1792.52,952.637 1794.5,953.999 1796.48,955.589 1798.46,957.362 1800.44,959.276 1802.42,961.308 1804.4,963.399 1806.38,965.55 1808.36,967.693 1810.34,969.85 1812.31,971.95 1814.29,974.032 1816.27,976.027 1818.25,977.985 1820.23,979.842 1822.21,981.653 1824.19,983.36 1826.17,985.022 1828.15,986.588 1830.13,988.113 1832.11,989.555 1834.09,990.963 1836.07,992.304 1838.05,993.618 1840.03,994.882 1842.01,996.124 1843.99,997.329 1845.97,998.513 1847.95,999.668 1849.93,1000.8 1851.91,1001.9 1853.89,1002.97 1855.87,1004.02 1857.85,1005.01 1859.83,1005.97 1861.81,1006.87 1863.79,1007.73 1865.77,1008.51 1867.75,1009.24 1869.73,1009.89 1871.71,1010.49 1873.69,1010.99 1875.67,1011.44 1877.65,1011.79 1879.63,1012.08 1881.61,1012.27 1883.59,1012.4 1885.57,1012.45 1887.55,1012.42 1889.53,1012.32 1891.51,1012.14 1893.49,1011.9 1895.47,1011.58 1897.45,1011.2 1899.43,1010.75 1901.41,1010.24 1903.39,1009.67 1905.37,1009.05 1907.35,1008.37 1909.33,1007.66 1911.31,1006.89 1913.29,1006.09 1915.27,1005.25 1917.25,1004.39 1919.23,1003.5 1921.21,1002.6 1923.19,1001.7 1925.17,1000.79 1927.15,999.894 1929.13,999.014 1931.11,998.164 1933.09,997.346 1935.07,996.581 1937.05,995.866 1939.03,995.229 1941.01,994.664 1942.99,994.197 1944.97,993.82 1946.95,993.554 1948.92,993.387 1950.9,993.331 1952.88,993.373 1954.86,993.51 1956.84,993.734 1958.82,994.029 1960.8,994.394 1962.78,994.804 1964.76,995.265 1966.74,995.749 1968.72,996.265 1970.7,996.786 1972.68,997.325 1974.66,997.855 1976.64,998.389 1978.62,998.907 1980.6,999.417 1982.58,999.906 1984.56,1000.38 1986.54,1000.82 1988.52,1001.24 1990.5,1001.64 1992.48,1002.01 1994.46,1002.35 1996.44,1002.65 1998.42,1002.93 2000.4,1003.16 2002.38,1003.37 2004.36,1003.54 2006.34,1003.69 2008.32,1003.79 2010.3,1003.87 2012.28,1003.9 2014.26,1003.92 2016.24,1003.89 2018.22,1003.85 2020.2,1003.78 2022.18,1003.68 2024.16,1003.58 2026.14,1003.45 2028.12,1003.32 2030.1,1003.16 2032.08,1003.04 2034.06,1002.88 2036.04,1002.77 2038.02,1002.63 2040,1002.56 2041.98,1002.46 2043.96,1002.43 2045.94,1002.37 2047.92,1002.39 2049.9,1002.35 2051.88,1002.39 2053.86,1002.35 2055.84,1002.37 2057.82,1002.3 2059.8,1002.28 2061.78,1002.19 2063.76,1002.13 2065.74,1002 2067.72,1001.92 2069.7,1001.75 2071.68,1001.63 2073.66,1001.43 2075.64,1001.26 2077.62,1001.04 2079.6,1000.85 2081.58,1000.61 2083.56,1000.4 2085.53,1000.17 2087.51,999.957 2089.49,999.759 2091.47,999.56 2093.45,999.399 2095.43,999.234 2097.41,999.116 2099.39,998.995 2101.37,998.921 2103.35,998.847 2105.33,998.813 2107.31,998.783 2109.29,998.783 2111.27,998.792 2113.25,998.818 2115.23,998.858 2117.21,998.905 2119.19,998.967 2121.17,999.028 2123.15,999.104 2125.13,999.174 2127.11,999.259 2129.09,999.333 2131.07,999.42 2133.05,999.495 2135.03,999.581 2137.01,999.655 2138.99,999.737 2140.97,999.807 2142.95,999.883 2144.93,999.95 2146.91,1000.02 2148.89,1000.08 2150.87,1000.14 2152.85,1000.2 2154.83,1000.25 2156.81,1000.3 2158.79,1000.35 2160.77,1000.39 2162.75,1000.43 2164.73,1000.47 2166.71,1000.51 2168.69,1000.54 2170.67,1000.57 2172.65,1000.6 2174.63,1000.62 2176.61,1000.64 2178.59,1000.66 2180.57,1000.68 2182.55,1000.69 2184.53,1000.7 2186.51,1000.71 2188.49,1000.72 2190.47,1000.72 2192.45,1000.72 2194.43,1000.72 2196.41,1000.71 2198.39,1000.7 2200.37,1000.69 2202.35,1000.68 2204.33,1000.66 2206.31,1000.64 2208.29,1000.62 2210.27,1000.59 2212.25,1000.56 2214.23,1000.53 2216.21,1000.5 2218.19,1000.47 2220.17,1000.43 2222.14,1000.39 2224.12,1000.35 2226.1,1000.31 2228.08,1000.27 2230.06,1000.23 2232.04,1000.19 2234.02,1000.16 2236,1000.12 2237.98,1000.09 2239.96,1000.06 2241.94,1000.03 2243.92,1000 2245.9,999.979 2247.88,999.964 2249.86,999.948 2251.84,999.941 2253.82,999.934 2255.8,999.934 2257.78,999.935 2259.76,999.941 2261.74,999.951 2263.72,999.961 2265.7,999.976 2267.68,999.989 2269.66,1000.01 2271.64,1000.02 2273.62,1000.05 2275.6,1000.06 2277.58,1000.08 2279.56,1000.1 2281.54,1000.12 2283.52,1000.13 2285.5,1000.15 2287.48,1000.16 2289.46,1000.17 2291.44,1000.18 2293.42,1000.19 "/>
<polyline clip-path="url(#clip112)" style="stroke:#e26f46; stroke-linecap:round; stroke-linejoin:round; stroke-width:4; stroke-opacity:1; fill:none" points="315.545,1135.69 317.525,1143.47 319.505,1150.31 321.484,1156.18 323.464,1161.03 325.444,1164.85 327.424,1167.61 329.404,1169.31 331.384,1169.92 333.364,1169.44 335.343,1167.88 337.323,1165.24 339.303,1161.52 341.283,1156.75 343.263,1150.93 345.243,1144.11 347.223,1136.3 349.202,1127.56 351.182,1117.93 353.162,1107.47 355.142,1096.25 357.122,1084.35 359.102,1071.87 361.082,1058.91 363.061,1045.59 365.041,1032.06 367.021,1018.47 369.001,1004.99 370.981,991.804 372.961,979.12 374.941,967.134 376.92,956.04 378.9,946.018 380.88,937.22 382.86,929.759 384.84,923.703 386.82,919.072 388.8,915.833 390.779,913.907 392.759,913.178 394.739,913.497 396.719,914.696 398.699,916.598 400.679,919.023 402.659,921.801 404.638,924.773 406.618,927.794 408.598,930.74 410.578,933.501 412.558,935.986 414.538,938.123 416.517,939.853 418.497,941.136 420.477,941.945 422.457,942.27 424.437,942.115 426.417,941.496 428.397,940.444 430.376,939.004 432.356,937.235 434.336,935.213 436.316,933.029 438.296,930.79 440.276,928.62 442.256,926.655 444.235,925.044 446.215,923.943 448.195,923.51 450.175,923.897 452.155,925.244 454.135,927.671 456.115,931.268 458.094,936.093 460.074,942.165 462.054,949.464 464.034,957.93 466.014,967.47 467.994,977.962 469.974,989.263 471.953,1001.22 473.933,1013.65 475.913,1026.41 477.893,1039.32 479.873,1052.22 481.853,1064.97 483.833,1077.43 485.812,1089.47 487.792,1100.98 489.772,1111.85 491.752,1121.98 493.732,1131.29 495.712,1139.7 497.692,1147.14 499.671,1153.56 501.651,1158.89 503.631,1163.08 505.611,1166.1 507.591,1167.9 509.571,1168.45 511.551,1167.71 513.53,1165.67 515.51,1162.3 517.49,1157.59 519.47,1151.51 521.45,1144.03 523.43,1135.15 525.409,1124.85 527.389,1113.13 529.369,1100.02 531.349,1085.53 533.329,1069.65 535.309,1052.3 537.289,1033.44 539.268,1013.02 541.248,991.14 543.228,967.985 545.208,943.757 547.188,918.523 549.168,892.118 551.148,864.206 553.127,834.533 555.107,803.308 557.087,771.574 559.067,741.341 561.047,715.36 563.027,696.534 565.007,687.195 566.986,688.517 568.966,700.276 570.946,721.006 572.926,748.465 574.906,780.198 576.886,814.003 578.866,848.206 580.845,881.721 582.825,913.949 584.805,944.624 586.785,973.653 588.765,1001.02 590.745,1026.71 592.725,1050.75 594.704,1073.13 596.684,1093.86 598.664,1112.94 600.644,1130.39 602.624,1146.2 604.604,1160.4 606.584,1172.99 608.563,1183.98 610.543,1193.39 612.523,1201.23 614.503,1207.51 616.483,1212.25 618.463,1215.46 620.443,1217.15 622.422,1217.34 624.402,1216.06 626.382,1213.32 628.362,1209.15 630.342,1203.58 632.322,1196.64 634.301,1188.37 636.281,1178.8 638.261,1167.98 640.241,1155.97 642.221,1142.81 644.201,1128.57 646.181,1113.32 648.16,1097.13 650.14,1080.08 652.12,1062.24 654.1,1043.72 656.08,1024.6 658.06,1004.98 660.04,984.956 662.019,964.632 663.999,944.113 665.979,923.506 667.959,902.922 669.939,882.481 671.919,862.307 673.899,842.537 675.878,823.32 677.858,804.817 679.838,787.206 681.818,770.684 683.798,755.468 685.778,741.797 687.758,729.938 689.737,720.184 691.717,712.848 693.697,708.252 695.677,706.699 697.657,708.44 699.637,713.642 701.617,722.353 703.596,734.494 705.576,749.854 707.556,768.11 709.536,788.858 711.516,811.646 713.496,836.011 715.476,861.504 717.455,887.713 719.435,914.27 721.415,940.861 723.395,967.216 725.375,993.114 727.355,1018.37 729.335,1042.84 731.314,1066.4 733.294,1088.94 735.274,1110.4 737.254,1130.7 739.234,1149.8 741.214,1167.65 743.194,1184.22 745.173,1199.47 747.153,1213.4 749.133,1225.98 751.113,1237.2 753.093,1247.06 755.073,1255.53 757.052,1262.63 759.032,1268.34 761.012,1272.67 762.992,1275.62 764.972,1277.19 766.952,1277.4 768.932,1276.24 770.911,1273.72 772.891,1269.86 774.871,1264.69 776.851,1258.2 778.831,1250.44 780.811,1241.4 782.791,1231.09 784.77,1219.54 786.75,1206.81 788.73,1192.98 790.71,1178.11 792.69,1162.2 794.67,1145.04 796.65,1126.6 798.629,1107.39 800.609,1087.15 802.589,1065.95 804.569,1043.94 806.549,1021.1 808.529,997.491 810.509,973.207 812.488,948.274 814.468,922.581 816.448,895.864 818.428,867.898 820.408,838.82 822.388,809.271 824.368,779.984 826.347,750.884 828.327,720.427 830.307,685.962 832.287,645.122 834.267,597.751 836.247,547.483 838.227,501.607 840.206,468.732 842.186,455.589 844.166,464.638 846.146,493.531 848.126,536.514 850.106,586.829 852.086,638.776 854.065,688.748 856.045,735.226 858.025,778.136 860.005,818.025 861.985,855.462 863.965,890.839 865.944,924.401 867.924,956.3 869.904,986.613 871.884,1015.38 873.864,1042.64 875.844,1068.42 877.824,1092.73 879.803,1115.6 881.783,1137.03 883.763,1157.01 885.743,1175.55 887.723,1192.66 889.703,1208.32 891.683,1222.54 893.662,1235.32 895.642,1246.67 897.622,1256.59 899.602,1265.08 901.582,1272.16 903.562,1277.82 905.542,1282.08 907.521,1284.95 909.501,1286.44 911.481,1286.55 913.461,1285.31 915.441,1282.71 917.421,1278.79 919.401,1273.56 921.38,1267.03 923.36,1259.23 925.34,1250.18 927.32,1239.91 929.3,1228.45 931.28,1215.82 933.26,1202.08 935.239,1187.25 937.219,1171.39 939.199,1154.56 941.179,1136.81 943.159,1118.22 945.139,1098.88 947.119,1078.88 949.098,1058.34 951.078,1037.4 953.058,1016.19 955.038,994.878 957.018,973.632 958.998,952.628 960.978,932.046 962.957,912.055 964.937,892.814 966.917,874.459 968.897,857.104 970.877,840.832 972.857,825.701 974.836,811.744 976.816,798.977 978.796,787.409 980.776,777.049 982.756,767.914 984.736,760.038 986.716,753.469 988.695,748.267 990.675,744.499 992.655,742.232 994.635,741.52 996.615,742.404 998.595,744.903 1000.57,749.017 1002.55,754.728 1004.53,762.006 1006.51,770.811 1008.49,781.096 1010.47,792.806 1012.45,805.88 1014.43,820.243 1016.41,835.805 1018.39,852.46 1020.37,870.082 1022.35,888.527 1024.33,907.638 1026.31,927.245 1028.29,947.173 1030.27,967.246 1032.25,987.293 1034.23,1007.15 1036.21,1026.66 1038.19,1045.69 1040.17,1064.1 1042.15,1081.8 1044.13,1098.67 1046.11,1114.64 1048.09,1129.62 1050.07,1143.57 1052.05,1156.41 1054.03,1168.12 1056.01,1178.65 1057.99,1187.97 1059.97,1196.05 1061.95,1202.88 1063.93,1208.44 1065.91,1212.73 1067.89,1215.72 1069.87,1217.41 1071.85,1217.82 1073.83,1216.92 1075.81,1214.74 1077.79,1211.28 1079.77,1206.55 1081.75,1200.56 1083.73,1193.33 1085.71,1184.89 1087.69,1175.27 1089.67,1164.49 1091.65,1152.59 1093.63,1139.62 1095.61,1125.62 1097.59,1110.66 1099.57,1094.8 1101.55,1078.12 1103.53,1060.69 1105.51,1042.6 1107.49,1023.96 1109.47,1004.87 1111.45,985.44 1113.43,965.798 1115.41,946.067 1117.39,926.38 1119.37,906.873 1121.35,887.689 1123.33,868.972 1125.31,850.872 1127.29,833.544 1129.27,817.146 1131.25,801.839 1133.22,787.785 1135.2,775.14 1137.18,764.053 1139.16,754.661 1141.14,747.079 1143.12,741.402 1145.1,737.699 1147.08,736.011 1149.06,736.356 1151.04,738.724 1153.02,743.084 1155,749.383 1156.98,757.545 1158.96,767.477 1160.94,779.066 1162.92,792.182 1164.9,806.68 1166.88,822.4 1168.86,839.177 1170.84,856.836 1172.82,875.204 1174.8,894.107 1176.78,913.381 1178.76,932.868 1180.74,952.422 1182.72,971.908 1184.7,991.206 1186.68,1010.21 1188.66,1028.82 1190.64,1046.95 1192.62,1064.53 1194.6,1081.5 1196.58,1097.8 1198.56,1113.37 1200.54,1128.19 1202.52,1142.21 1204.5,1155.4 1206.48,1167.72 1208.46,1179.17 1210.44,1189.7 1212.42,1199.31 1214.4,1207.97 1216.38,1215.66 1218.36,1222.37 1220.34,1228.1 1222.32,1232.81 1224.3,1236.5 1226.28,1239.17 1228.26,1240.79 1230.24,1241.36 1232.22,1240.87 1234.2,1239.31 1236.18,1236.67 1238.16,1232.94 1240.14,1228.12 1242.12,1222.2 1244.1,1215.18 1246.08,1207.03 1248.06,1197.76 1250.04,1187.36 1252.02,1175.82 1254,1163.14 1255.98,1149.29 1257.96,1134.27 1259.94,1118.06 1261.92,1100.67 1263.9,1082.07 1265.88,1062.19 1267.85,1041.02 1269.83,1018.58 1271.81,994.876 1273.79,969.797 1275.77,943.131 1277.75,914.791 1279.73,884.962 1281.71,853.802 1283.69,820.946 1285.67,785.565 1287.65,747.247 1289.63,706.655 1291.61,664.574 1293.59,619.911 1295.57,569.332 1297.55,509.869 1299.53,443.345 1301.51,379.31 1303.49,332.511 1305.47,315.719 1307.45,333.09 1309.43,378.695 1311.41,440.786 1313.39,507.837 1315.37,572.499 1317.35,632.249 1319.33,687.6 1321.31,739.75 1323.29,789.402 1325.27,836.852 1327.25,882.215 1329.23,925.441 1331.21,966.48 1333.19,1005.4 1335.17,1042.25 1337.15,1077.07 1339.13,1109.87 1341.11,1140.71 1343.09,1169.61 1345.07,1196.6 1347.05,1221.69 1349.03,1244.91 1351.01,1266.28 1352.99,1285.81 1354.97,1303.54 1356.95,1319.46 1358.93,1333.6 1360.91,1345.98 1362.89,1356.59 1364.87,1365.47 1366.85,1372.62 1368.83,1378.06 1370.81,1381.8 1372.79,1383.86 1374.77,1384.24 1376.75,1382.96 1378.73,1380.05 1380.71,1375.51 1382.69,1369.36 1384.67,1361.62 1386.65,1352.32 1388.63,1341.47 1390.61,1329.11 1392.59,1315.26 1394.57,1299.96 1396.55,1283.23 1398.53,1265.13 1400.51,1245.7 1402.49,1224.99 1404.46,1203.06 1406.44,1179.97 1408.42,1155.79 1410.4,1130.61 1412.38,1104.52 1414.36,1077.6 1416.34,1049.96 1418.32,1021.72 1420.3,992.997 1422.28,963.917 1424.26,934.619 1426.24,905.252 1428.22,875.972 1430.2,846.948 1432.18,818.359 1434.16,790.4 1436.14,763.275 1438.12,737.208 1440.1,712.434 1442.08,689.205 1444.06,667.781 1446.04,648.426 1448.02,631.395 1450,616.923 1451.98,605.214 1453.96,596.434 1455.94,590.708 1457.92,588.126 1459.9,588.737 1461.88,592.557 1463.86,599.563 1465.84,609.687 1467.82,622.808 1469.8,638.748 1471.78,657.275 1473.76,678.104 1475.74,700.916 1477.72,725.368 1479.7,751.111 1481.68,777.806 1483.66,805.136 1485.64,832.812 1487.62,860.578 1489.6,888.213 1491.58,915.53 1493.56,942.37 1495.54,968.602 1497.52,994.118 1499.5,1018.83 1501.48,1042.66 1503.46,1065.56 1505.44,1087.47 1507.42,1108.35 1509.4,1128.18 1511.38,1146.92 1513.36,1164.55 1515.34,1181.05 1517.32,1196.41 1519.3,1210.61 1521.28,1223.65 1523.26,1235.5 1525.24,1246.17 1527.22,1255.64 1529.2,1263.91 1531.18,1270.97 1533.16,1276.83 1535.14,1281.48 1537.12,1284.91 1539.1,1287.14 1541.07,1288.16 1543.05,1287.98 1545.03,1286.61 1547.01,1284.04 1548.99,1280.3 1550.97,1275.4 1552.95,1269.34 1554.93,1262.15 1556.91,1253.84 1558.89,1244.44 1560.87,1233.96 1562.85,1222.43 1564.83,1209.88 1566.81,1196.33 1568.79,1181.82 1570.77,1166.37 1572.75,1150.03 1574.73,1132.82 1576.71,1114.78 1578.69,1095.94 1580.67,1076.36 1582.65,1056.08 1584.63,1035.14 1586.61,1013.61 1588.59,991.53 1590.57,968.961 1592.55,945.964 1594.53,922.615 1596.51,899.013 1598.49,875.276 1600.47,851.539 1602.45,827.945 1604.43,804.646 1606.41,781.813 1608.39,759.652 1610.37,738.423 1612.35,718.433 1614.33,700.019 1616.31,683.524 1618.29,669.27 1620.27,657.557 1622.25,648.671 1624.23,642.898 1626.21,640.526 1628.19,641.828 1630.17,647.016 1632.15,656.198 1634.13,669.327 1636.11,686.186 1638.09,706.399 1640.07,729.459 1642.05,754.781 1644.03,781.757 1646.01,809.799 1647.99,838.372 1649.97,867.015 1651.95,895.343 1653.93,923.047 1655.91,949.888 1657.89,975.681 1659.87,1000.29 1661.85,1023.61 1663.83,1045.57 1665.81,1066.13 1667.79,1085.25 1669.77,1102.91 1671.75,1119.11 1673.73,1133.84 1675.71,1147.11 1677.68,1158.93 1679.66,1169.32 1681.64,1178.3 1683.62,1185.89 1685.6,1192.12 1687.58,1197.03 1689.56,1200.65 1691.54,1203.01 1693.52,1204.17 1695.5,1204.16 1697.48,1203.04 1699.46,1200.87 1701.44,1197.7 1703.42,1193.6 1705.4,1188.64 1707.38,1182.9 1709.36,1176.45 1711.34,1169.38 1713.32,1161.78 1715.3,1153.75 1717.28,1145.37 1719.26,1136.75 1721.24,1127.96 1723.22,1119.1 1725.2,1110.24 1727.18,1101.45 1729.16,1092.78 1731.14,1084.28 1733.12,1075.96 1735.1,1067.83 1737.08,1059.89 1739.06,1052.11 1741.04,1044.46 1743.02,1036.91 1745,1029.39 1746.98,1021.87 1748.96,1014.28 1750.94,1006.59 1752.92,998.735 1754.9,990.694 1756.88,982.437 1758.86,973.945 1760.84,965.213 1762.82,956.249 1764.8,947.072 1766.78,937.717 1768.76,928.235 1770.74,918.694 1772.72,909.181 1774.7,899.804 1776.68,890.687 1778.66,881.975 1780.64,873.822 1782.62,866.387 1784.6,859.824 1786.58,854.275 1788.56,849.855 1790.54,846.65 1792.52,844.703 1794.5,844.018 1796.48,844.56 1798.46,846.255 1800.44,848.999 1802.42,852.669 1804.4,857.127 1806.38,862.229 1808.36,867.838 1810.34,873.822 1812.31,880.065 1814.29,886.467 1816.27,892.944 1818.25,899.431 1820.23,905.88 1822.21,912.26 1824.19,918.554 1826.17,924.76 1828.15,930.891 1830.13,936.968 1832.11,943.026 1834.09,949.105 1836.07,955.255 1838.05,961.529 1840.03,967.982 1842.01,974.668 1843.99,981.638 1845.97,988.934 1847.95,996.587 1849.93,1004.61 1851.91,1013.01 1853.89,1021.76 1855.87,1030.83 1857.85,1040.16 1859.83,1049.67 1861.81,1059.29 1863.79,1068.92 1865.77,1078.46 1867.75,1087.82 1869.73,1096.89 1871.71,1105.59 1873.69,1113.82 1875.67,1121.5 1877.65,1128.57 1879.63,1134.95 1881.61,1140.58 1883.59,1145.42 1885.57,1149.42 1887.55,1152.54 1889.53,1154.74 1891.51,1155.98 1893.49,1156.25 1895.47,1155.5 1897.45,1153.71 1899.43,1150.85 1901.41,1146.89 1903.39,1141.82 1905.37,1135.62 1907.35,1128.27 1909.33,1119.76 1911.31,1110.09 1913.29,1099.25 1915.27,1087.28 1917.25,1074.19 1919.23,1060.04 1921.21,1044.88 1923.19,1028.8 1925.17,1011.93 1927.15,994.4 1929.13,976.394 1931.11,958.129 1933.09,939.869 1935.07,921.937 1937.05,904.708 1939.03,888.608 1941.01,874.086 1942.99,861.588 1944.97,851.512 1946.95,844.165 1948.92,839.731 1950.9,838.251 1952.88,839.624 1954.86,843.625 1956.84,849.935 1958.82,858.182 1960.8,867.97 1962.78,878.915 1964.76,890.662 1966.74,902.899 1968.72,915.36 1970.7,927.824 1972.68,940.111 1974.66,952.076 1976.64,963.605 1978.62,974.608 1980.6,985.014 1982.58,994.771 1984.56,1003.84 1986.54,1012.18 1988.52,1019.78 1990.5,1026.62 1992.48,1032.69 1994.46,1037.99 1996.44,1042.5 1998.42,1046.23 2000.4,1049.19 2002.38,1051.39 2004.36,1052.84 2006.34,1053.57 2008.32,1053.61 2010.3,1053 2012.28,1051.79 2014.26,1050.05 2016.24,1047.83 2018.22,1045.22 2020.2,1042.3 2022.18,1039.16 2024.16,1035.88 2026.14,1032.56 2028.12,1029.28 2030.1,1026.12 2032.08,1023.14 2034.06,1020.41 2036.04,1017.96 2038.02,1015.82 2040,1014 2041.98,1012.51 2043.96,1011.33 2045.94,1010.44 2047.92,1009.81 2049.9,1009.4 2051.88,1009.19 2053.86,1009.13 2055.84,1009.18 2057.82,1009.31 2059.8,1009.46 2061.78,1009.61 2063.76,1009.72 2065.74,1009.75 2067.72,1009.68 2069.7,1009.46 2071.68,1009.07 2073.66,1008.48 2075.64,1007.68 2077.62,1006.65 2079.6,1005.37 2081.58,1003.85 2083.56,1002.08 2085.53,1000.08 2087.51,997.858 2089.49,995.439 2091.47,992.854 2093.45,990.14 2095.43,987.34 2097.41,984.499 2099.39,981.667 2101.37,978.895 2103.35,976.236 2105.33,973.739 2107.31,971.452 2109.29,969.418 2111.27,967.675 2113.25,966.253 2115.23,965.176 2117.21,964.461 2119.19,964.116 2121.17,964.141 2123.15,964.531 2125.13,965.276 2127.11,966.357 2129.09,967.756 2131.07,969.45 2133.05,971.414 2135.03,973.625 2137.01,976.056 2138.99,978.685 2140.97,981.489 2142.95,984.446 2144.93,987.538 2146.91,990.747 2148.89,994.058 2150.87,997.456 2152.85,1000.93 2154.83,1004.47 2156.81,1008.06 2158.79,1011.71 2160.77,1015.39 2162.75,1019.11 2164.73,1022.85 2166.71,1026.62 2168.69,1030.42 2170.67,1034.22 2172.65,1038.04 2174.63,1041.85 2176.61,1045.66 2178.59,1049.44 2180.57,1053.17 2182.55,1056.83 2184.53,1060.38 2186.51,1063.79 2188.49,1067.02 2190.47,1070 2192.45,1072.69 2194.43,1075.03 2196.41,1076.95 2198.39,1078.4 2200.37,1079.31 2202.35,1079.64 2204.33,1079.32 2206.31,1078.33 2208.29,1076.62 2210.27,1074.17 2212.25,1070.96 2214.23,1067 2216.21,1062.29 2218.19,1056.84 2220.17,1050.7 2222.14,1043.9 2224.12,1036.5 2226.1,1028.58 2228.08,1020.2 2230.06,1011.45 2232.04,1002.45 2234.02,993.288 2236,984.087 2237.98,974.966 2239.96,966.046 2241.94,957.451 2243.92,949.299 2245.9,941.707 2247.88,934.78 2249.86,928.615 2251.84,923.296 2253.82,918.891 2255.8,915.454 2257.78,913.021 2259.76,911.611 2261.74,911.229 2263.72,911.861 2265.7,913.48 2267.68,916.046 2269.66,919.505 2271.64,923.793 2273.62,928.838 2275.6,934.557 2277.58,940.863 2279.56,947.66 2281.54,954.853 2283.52,962.341 2285.5,970.024 2287.48,977.801 2289.46,985.576 2291.44,993.255 2293.42,1000.75 "/>
<path clip-path="url(#clip110)" d="M1739.51 258.29 L2282.87 258.29 L2282.87 93.1086 L1739.51 93.1086  Z" fill="#ffffff" fill-rule="evenodd" fill-opacity="1"/>
<polyline clip-path="url(#clip110)" style="stroke:#000000; stroke-linecap:round; stroke-linejoin:round; stroke-width:4; stroke-opacity:1; fill:none" points="1739.51,258.29 2282.87,258.29 2282.87,93.1086 1739.51,93.1086 1739.51,258.29 "/>
<polyline clip-path="url(#clip110)" style="stroke:#009af9; stroke-linecap:round; stroke-linejoin:round; stroke-width:8; stroke-opacity:1; fill:none" points="1762.81,148.169 1902.58,148.169 "/>
<path clip-path="url(#clip110)" d="M1948.29 140.196 Q1948.29 141.508 1947.89 142.983 L1942.43 164.696 Q1941.94 166.616 1940.47 166.616 Q1939.86 166.616 1939.48 166.242 Q1939.13 165.89 1939.13 165.328 Q1939.13 165.141 1939.27 164.555 L1944.73 142.491 Q1945.22 140.477 1945.22 139.47 Q1945.22 136.12 1942.62 136.12 Q1940.33 136.12 1938.03 137.807 Q1936.98 138.65 1935.95 140.173 Q1934.94 141.672 1934.75 142.21 Q1934.54 143.428 1934.24 144.365 Q1934.1 145.021 1933.42 147.574 L1932.36 151.907 Q1931.61 155.139 1931.45 155.444 Q1931.21 156.1 1930.7 156.451 Q1930.18 156.802 1929.67 156.802 Q1929.08 156.802 1928.68 156.451 Q1928.29 156.1 1928.29 155.491 Q1928.29 155.397 1928.36 155.046 Q1928.43 154.694 1928.54 154.203 Q1928.66 153.711 1928.71 153.43 L1931.5 142.351 Q1932.01 140.337 1932.13 139.704 Q1932.27 139.048 1932.27 138.322 Q1932.27 137.057 1931.87 136.589 Q1931.47 136.12 1930.77 136.12 Q1929.55 136.12 1928.76 137.573 Q1927.96 139.025 1927.28 141.836 Q1927.07 142.608 1926.93 142.772 Q1926.81 142.936 1926.46 142.936 Q1925.87 142.913 1925.87 142.445 Q1925.87 142.327 1926.06 141.578 Q1926.25 140.805 1926.6 139.681 Q1926.97 138.533 1927.37 137.807 Q1927.61 137.315 1927.82 136.987 Q1928.03 136.659 1928.45 136.144 Q1928.87 135.629 1929.5 135.348 Q1930.14 135.066 1930.91 135.066 Q1932.62 135.066 1933.88 136.167 Q1935.17 137.268 1935.34 139.236 Q1935.83 138.51 1936.46 137.854 Q1937.12 137.198 1938.03 136.542 Q1938.94 135.863 1940.19 135.465 Q1941.43 135.066 1942.76 135.066 Q1945.43 135.066 1946.86 136.448 Q1948.29 137.807 1948.29 140.196 Z" fill="#000000" fill-rule="nonzero" fill-opacity="1" /><path clip-path="url(#clip110)" d="M1971.38 170.523 Q1971.38 170.654 1971.23 171.163 Q1971.09 171.671 1970.73 172.458 Q1970.38 173.245 1969.91 173.966 Q1969.43 174.671 1968.64 175.196 Q1967.87 175.704 1966.99 175.704 Q1965.81 175.704 1965.02 174.917 Q1964.23 174.13 1964.23 172.95 Q1964.23 172.294 1964.58 171.392 Q1966.76 165.572 1966.76 163.571 Q1966.76 161.227 1964.94 161.227 Q1964.04 161.227 1963.18 161.571 Q1962.35 161.899 1961.77 162.358 Q1961.2 162.817 1960.67 163.457 Q1960.17 164.08 1959.9 164.506 Q1959.66 164.916 1959.46 165.326 L1959.03 166.998 Q1958.94 167.457 1958.46 169.244 L1957.72 172.278 Q1957.2 174.54 1957.08 174.753 Q1956.92 175.212 1956.56 175.458 Q1956.2 175.704 1955.84 175.704 Q1955.43 175.704 1955.15 175.458 Q1954.87 175.212 1954.87 174.786 Q1954.87 174.721 1954.92 174.475 Q1954.97 174.229 1955.05 173.884 Q1955.13 173.54 1955.17 173.343 L1957.12 165.588 Q1957.48 164.178 1957.56 163.735 Q1957.66 163.276 1957.66 162.768 Q1957.66 161.227 1956.61 161.227 Q1955.76 161.227 1955.2 162.243 Q1954.64 163.26 1954.17 165.227 Q1954.02 165.769 1953.92 165.883 Q1953.84 165.998 1953.59 165.998 Q1953.18 165.982 1953.18 165.654 Q1953.18 165.572 1953.31 165.031 Q1953.44 164.49 1953.69 163.719 Q1953.95 162.932 1954.2 162.407 Q1954.41 162.014 1954.53 161.834 Q1954.66 161.637 1954.97 161.26 Q1955.3 160.866 1955.72 160.686 Q1956.17 160.489 1956.71 160.489 Q1957.92 160.489 1958.81 161.276 Q1959.69 162.047 1959.81 163.408 Q1961.99 160.489 1965.04 160.489 Q1966.84 160.489 1967.87 161.44 Q1968.91 162.391 1968.91 164.08 Q1968.91 164.473 1968.82 164.982 Q1968.76 165.473 1968.59 166.096 Q1968.45 166.719 1968.31 167.195 Q1968.18 167.67 1967.92 168.441 Q1967.66 169.195 1967.54 169.523 Q1967.43 169.851 1967.15 170.622 Q1966.89 171.376 1966.86 171.458 Q1966.25 172.983 1966.25 173.852 Q1966.25 174.425 1966.43 174.688 Q1966.63 174.95 1967.05 174.95 Q1968.2 174.95 1969.05 173.819 Q1969.92 172.671 1970.48 170.802 Q1970.61 170.392 1970.68 170.294 Q1970.76 170.195 1970.99 170.195 Q1971.38 170.195 1971.38 170.523 Z" fill="#000000" fill-rule="nonzero" fill-opacity="1" /><path clip-path="url(#clip110)" d="M1986.83 171.441 Q1986.96 171.589 1986.96 171.737 Q1986.96 171.884 1986.63 172.31 Q1986.32 172.737 1985.65 173.311 Q1984.98 173.884 1984.11 174.425 Q1983.24 174.967 1981.96 175.327 Q1980.68 175.704 1979.34 175.704 Q1976.93 175.704 1975.49 173.983 Q1974.06 172.261 1974.06 169.622 Q1974.06 167.933 1974.62 166.441 Q1975.17 164.932 1976.08 163.867 Q1976.99 162.801 1978.14 162.03 Q1979.31 161.243 1980.52 160.866 Q1981.73 160.489 1982.86 160.489 Q1984.52 160.489 1985.49 161.325 Q1986.45 162.161 1986.45 163.342 Q1986.45 163.621 1986.37 163.965 Q1986.31 164.309 1986.08 164.85 Q1985.86 165.391 1985.31 165.932 Q1984.75 166.457 1983.93 166.801 Q1982.11 167.572 1978.8 167.572 L1977.01 167.572 Q1976.49 169.687 1976.49 171.064 Q1976.49 171.605 1976.58 172.163 Q1976.68 172.704 1976.95 173.393 Q1977.22 174.081 1977.85 174.524 Q1978.49 174.95 1979.4 174.95 Q1979.7 174.95 1980.01 174.934 Q1980.34 174.917 1981.16 174.737 Q1981.99 174.557 1982.73 174.245 Q1983.47 173.934 1984.41 173.261 Q1985.36 172.573 1986.11 171.638 Q1986.37 171.294 1986.55 171.294 Q1986.7 171.294 1986.83 171.441 M1985.34 163.342 Q1985.34 162.44 1984.67 161.834 Q1984.01 161.227 1982.86 161.227 Q1982.5 161.227 1982.06 161.309 Q1981.62 161.391 1980.88 161.735 Q1980.16 162.079 1979.52 162.653 Q1978.88 163.211 1978.24 164.309 Q1977.6 165.391 1977.22 166.834 L1978.6 166.834 Q1979.08 166.834 1979.42 166.834 Q1979.77 166.818 1980.52 166.752 Q1981.29 166.687 1981.85 166.572 Q1982.4 166.441 1983.11 166.178 Q1983.81 165.916 1984.26 165.572 Q1984.72 165.211 1985.03 164.637 Q1985.34 164.063 1985.34 163.342 Z" fill="#000000" fill-rule="nonzero" fill-opacity="1" /><path clip-path="url(#clip110)" d="M2010.58 162.834 Q2010.58 164.096 2009.89 166.883 Q2009.21 169.671 2008.37 171.573 Q2006.58 175.704 2003.5 175.704 Q2003.12 175.704 2002.75 175.672 Q2002.39 175.639 2001.84 175.491 Q2001.3 175.344 2000.86 175.114 Q2000.42 174.868 1999.98 174.409 Q1999.55 173.95 1999.3 173.343 Q1997.94 175.704 1995.81 175.704 Q1993.75 175.704 1992.38 174.655 Q1991.04 173.606 1991.04 171.458 Q1991.04 170.49 1991.43 169.064 Q1991.83 167.638 1992.93 164.686 Q1993.53 163.162 1993.53 162.325 Q1993.53 161.948 1993.45 161.702 Q1993.37 161.456 1993.2 161.374 Q1993.06 161.276 1992.96 161.26 Q1992.86 161.227 1992.7 161.227 Q1991.71 161.227 1990.83 162.227 Q1989.94 163.211 1989.3 165.391 Q1989.17 165.801 1989.09 165.9 Q1989.01 165.998 1988.76 165.998 Q1988.35 165.982 1988.35 165.654 Q1988.35 165.523 1988.5 165.014 Q1988.65 164.49 1988.99 163.719 Q1989.35 162.932 1989.84 162.227 Q1990.33 161.506 1991.11 160.997 Q1991.89 160.489 1992.79 160.489 Q1994.01 160.489 1994.78 161.292 Q1995.55 162.096 1995.55 163.244 Q1995.55 163.571 1995.47 163.932 Q1995.38 164.277 1995.3 164.506 Q1995.24 164.719 1994.97 165.391 Q1993.89 168.228 1993.55 169.589 Q1993.22 170.95 1993.22 171.901 Q1993.22 172.212 1993.24 172.458 Q1993.25 172.704 1993.38 173.212 Q1993.53 173.72 1993.79 174.065 Q1994.06 174.393 1994.6 174.671 Q1995.16 174.95 1995.91 174.95 Q1997.79 174.95 1999.01 172.13 Q1998.98 171.966 1998.98 171.54 Q1998.98 170.589 1999.27 169.31 Q1999.35 169.015 1999.83 167.129 Q2000.3 165.227 2000.71 163.571 Q2001.14 161.899 2001.19 161.801 Q2001.35 161.342 2001.71 161.096 Q2002.07 160.85 2002.43 160.85 Q2002.84 160.85 2003.12 161.096 Q2003.4 161.342 2003.4 161.768 Q2003.4 161.85 2003.3 162.227 Q2003.22 162.588 2003.09 163.129 Q2002.96 163.67 2002.89 163.949 L2001.48 169.589 Q2001.12 170.9 2001.12 172.032 Q2001.12 173.458 2001.76 174.212 Q2002.4 174.95 2003.6 174.95 Q2005.85 174.95 2007.29 171.999 Q2007.94 170.72 2008.53 168.72 Q2009.14 166.719 2009.14 165.85 Q2009.14 164.211 2007.93 162.998 Q2007.67 162.768 2007.55 162.588 Q2007.44 162.391 2007.44 162.096 Q2007.44 161.538 2007.96 161.014 Q2008.48 160.489 2009.11 160.489 Q2009.67 160.489 2010.12 161.047 Q2010.58 161.588 2010.58 162.834 Z" fill="#000000" fill-rule="nonzero" fill-opacity="1" /><path clip-path="url(#clip110)" d="M2017.27 144.271 Q2017.27 136.167 2020.29 129.632 Q2021.58 126.892 2023.39 124.597 Q2025.19 122.301 2026.38 121.294 Q2027.58 120.287 2027.91 120.287 Q2028.37 120.287 2028.4 120.755 Q2028.4 120.99 2027.77 121.575 Q2020.04 129.445 2020.06 144.271 Q2020.06 159.145 2027.58 166.71 Q2028.4 167.53 2028.4 167.788 Q2028.4 168.256 2027.91 168.256 Q2027.58 168.256 2026.43 167.296 Q2025.28 166.335 2023.5 164.134 Q2021.72 161.932 2020.43 159.238 Q2017.27 152.704 2017.27 144.271 Z" fill="#000000" fill-rule="nonzero" fill-opacity="1" /><path clip-path="url(#clip110)" d="M2046.77 136.12 Q2046.77 136.776 2046.47 136.94 Q2046.16 137.081 2045.32 137.081 L2040.82 137.081 L2037.26 151.228 Q2036.98 152.469 2036.98 153.523 Q2036.98 154.694 2037.33 155.21 Q2037.71 155.725 2038.48 155.725 Q2040 155.725 2041.64 154.343 Q2043.31 152.961 2044.71 149.588 Q2044.9 149.143 2044.99 149.05 Q2045.11 148.933 2045.41 148.933 Q2046 148.933 2046 149.401 Q2046 149.565 2045.67 150.314 Q2045.37 151.064 2044.69 152.165 Q2044.03 153.266 2043.17 154.296 Q2042.32 155.327 2041.03 156.076 Q2039.75 156.802 2038.36 156.802 Q2036.42 156.802 2035.18 155.561 Q2033.96 154.32 2033.96 152.376 Q2033.96 151.743 2034.45 149.729 Q2034.94 147.691 2037.61 137.081 L2033.37 137.081 Q2032.79 137.081 2032.55 137.057 Q2032.34 137.034 2032.18 136.917 Q2032.04 136.776 2032.04 136.495 Q2032.04 136.05 2032.23 135.863 Q2032.41 135.652 2032.65 135.629 Q2032.91 135.582 2033.49 135.582 L2037.99 135.582 L2039.86 127.969 Q2040.05 127.22 2040.52 126.798 Q2041.01 126.353 2041.29 126.306 Q2041.57 126.236 2041.78 126.236 Q2042.42 126.236 2042.79 126.588 Q2043.17 126.915 2043.17 127.524 Q2043.17 127.852 2041.2 135.582 L2045.41 135.582 Q2045.95 135.582 2046.16 135.605 Q2046.4 135.629 2046.58 135.746 Q2046.77 135.863 2046.77 136.12 Z" fill="#000000" fill-rule="nonzero" fill-opacity="1" /><path clip-path="url(#clip110)" d="M2050.52 167.788 Q2050.52 167.553 2051.13 166.968 Q2058.86 159.098 2058.86 144.271 Q2058.86 129.398 2051.44 121.88 Q2050.52 121.013 2050.52 120.755 Q2050.52 120.287 2050.99 120.287 Q2051.32 120.287 2052.47 121.247 Q2053.64 122.208 2055.4 124.409 Q2057.18 126.611 2058.49 129.305 Q2061.65 135.839 2061.65 144.271 Q2061.65 152.376 2058.63 158.911 Q2057.34 161.651 2055.54 163.946 Q2053.73 166.242 2052.54 167.249 Q2051.34 168.256 2050.99 168.256 Q2050.52 168.256 2050.52 167.788 Z" fill="#000000" fill-rule="nonzero" fill-opacity="1" /><polyline clip-path="url(#clip110)" style="stroke:#e26f46; stroke-linecap:round; stroke-linejoin:round; stroke-width:4; stroke-opacity:1; fill:none" points="1762.81,203.229 1902.58,203.229 "/>
<path clip-path="url(#clip110)" d="M1941.89 189.121 Q1936.8 189.121 1933.79 192.917 Q1930.8 196.713 1930.8 203.264 Q1930.8 209.792 1933.79 213.588 Q1936.8 217.384 1941.89 217.384 Q1946.99 217.384 1949.95 213.588 Q1952.93 209.792 1952.93 203.264 Q1952.93 196.713 1949.95 192.917 Q1946.99 189.121 1941.89 189.121 M1941.89 185.324 Q1949.16 185.324 1953.51 190.208 Q1957.86 195.07 1957.86 203.264 Q1957.86 211.435 1953.51 216.319 Q1949.16 221.181 1941.89 221.181 Q1934.6 221.181 1930.23 216.319 Q1925.87 211.458 1925.87 203.264 Q1925.87 195.07 1930.23 190.208 Q1934.6 185.324 1941.89 185.324 Z" fill="#000000" fill-rule="nonzero" fill-opacity="1" /><path clip-path="url(#clip110)" d="M1980.02 198.565 Q1979.3 198.148 1978.44 197.963 Q1977.61 197.755 1976.59 197.755 Q1972.98 197.755 1971.04 200.116 Q1969.11 202.454 1969.11 206.852 L1969.11 220.509 L1964.83 220.509 L1964.83 194.583 L1969.11 194.583 L1969.11 198.611 Q1970.46 196.25 1972.61 195.116 Q1974.76 193.958 1977.84 193.958 Q1978.28 193.958 1978.81 194.028 Q1979.35 194.074 1979.99 194.19 L1980.02 198.565 Z" fill="#000000" fill-rule="nonzero" fill-opacity="1" /><path clip-path="url(#clip110)" d="M1984.48 194.583 L1988.74 194.583 L1988.74 220.509 L1984.48 220.509 L1984.48 194.583 M1984.48 184.491 L1988.74 184.491 L1988.74 189.884 L1984.48 189.884 L1984.48 184.491 Z" fill="#000000" fill-rule="nonzero" fill-opacity="1" /><path clip-path="url(#clip110)" d="M2014.72 207.245 Q2014.72 202.616 2012.79 200.07 Q2010.9 197.523 2007.45 197.523 Q2004.02 197.523 2002.1 200.07 Q2000.2 202.616 2000.2 207.245 Q2000.2 211.852 2002.1 214.398 Q2004.02 216.944 2007.45 216.944 Q2010.9 216.944 2012.79 214.398 Q2014.72 211.852 2014.72 207.245 M2018.98 217.292 Q2018.98 223.912 2016.04 227.13 Q2013.1 230.37 2007.03 230.37 Q2004.79 230.37 2002.79 230.023 Q2000.8 229.699 1998.93 229.005 L1998.93 224.861 Q2000.8 225.88 2002.63 226.366 Q2004.46 226.852 2006.36 226.852 Q2010.55 226.852 2012.63 224.653 Q2014.72 222.477 2014.72 218.056 L2014.72 215.949 Q2013.4 218.241 2011.34 219.375 Q2009.28 220.509 2006.41 220.509 Q2001.64 220.509 1998.72 216.875 Q1995.8 213.241 1995.8 207.245 Q1995.8 201.227 1998.72 197.593 Q2001.64 193.958 2006.41 193.958 Q2009.28 193.958 2011.34 195.093 Q2013.4 196.227 2014.72 198.519 L2014.72 194.583 L2018.98 194.583 L2018.98 217.292 Z" fill="#000000" fill-rule="nonzero" fill-opacity="1" /><path clip-path="url(#clip110)" d="M2027.75 194.583 L2032.01 194.583 L2032.01 220.509 L2027.75 220.509 L2027.75 194.583 M2027.75 184.491 L2032.01 184.491 L2032.01 189.884 L2027.75 189.884 L2027.75 184.491 Z" fill="#000000" fill-rule="nonzero" fill-opacity="1" /><path clip-path="url(#clip110)" d="M2062.47 204.861 L2062.47 220.509 L2058.21 220.509 L2058.21 205 Q2058.21 201.32 2056.78 199.491 Q2055.34 197.662 2052.47 197.662 Q2049.02 197.662 2047.03 199.861 Q2045.04 202.06 2045.04 205.857 L2045.04 220.509 L2040.76 220.509 L2040.76 194.583 L2045.04 194.583 L2045.04 198.611 Q2046.57 196.273 2048.63 195.116 Q2050.71 193.958 2053.42 193.958 Q2057.89 193.958 2060.18 196.736 Q2062.47 199.491 2062.47 204.861 Z" fill="#000000" fill-rule="nonzero" fill-opacity="1" /><path clip-path="url(#clip110)" d="M2082.75 207.477 Q2077.59 207.477 2075.6 208.657 Q2073.6 209.838 2073.6 212.685 Q2073.6 214.954 2075.09 216.296 Q2076.59 217.616 2079.16 217.616 Q2082.7 217.616 2084.83 215.116 Q2086.98 212.593 2086.98 208.426 L2086.98 207.477 L2082.75 207.477 M2091.24 205.718 L2091.24 220.509 L2086.98 220.509 L2086.98 216.574 Q2085.53 218.935 2083.35 220.069 Q2081.17 221.181 2078.03 221.181 Q2074.04 221.181 2071.68 218.958 Q2069.35 216.713 2069.35 212.963 Q2069.35 208.588 2072.26 206.366 Q2075.2 204.144 2081.01 204.144 L2086.98 204.144 L2086.98 203.727 Q2086.98 200.787 2085.04 199.19 Q2083.12 197.57 2079.62 197.57 Q2077.4 197.57 2075.29 198.102 Q2073.19 198.634 2071.24 199.699 L2071.24 195.764 Q2073.58 194.861 2075.78 194.421 Q2077.98 193.958 2080.06 193.958 Q2085.69 193.958 2088.47 196.875 Q2091.24 199.792 2091.24 205.718 Z" fill="#000000" fill-rule="nonzero" fill-opacity="1" /><path clip-path="url(#clip110)" d="M2100.02 184.491 L2104.28 184.491 L2104.28 220.509 L2100.02 220.509 L2100.02 184.491 Z" fill="#000000" fill-rule="nonzero" fill-opacity="1" /><path clip-path="url(#clip110)" d="M2144.78 195.347 L2144.78 199.375 Q2142.98 198.449 2141.03 197.986 Q2139.09 197.523 2137.01 197.523 Q2133.84 197.523 2132.24 198.495 Q2130.66 199.468 2130.66 201.412 Q2130.66 202.894 2131.8 203.75 Q2132.93 204.583 2136.36 205.347 L2137.82 205.671 Q2142.35 206.644 2144.25 208.426 Q2146.17 210.185 2146.17 213.357 Q2146.17 216.968 2143.3 219.074 Q2140.46 221.181 2135.46 221.181 Q2133.37 221.181 2131.1 220.764 Q2128.86 220.37 2126.36 219.56 L2126.36 215.162 Q2128.72 216.389 2131.01 217.014 Q2133.3 217.616 2135.55 217.616 Q2138.56 217.616 2140.18 216.597 Q2141.8 215.556 2141.8 213.681 Q2141.8 211.944 2140.62 211.019 Q2139.46 210.093 2135.5 209.236 L2134.02 208.889 Q2130.06 208.056 2128.3 206.343 Q2126.54 204.607 2126.54 201.597 Q2126.54 197.94 2129.14 195.949 Q2131.73 193.958 2136.5 193.958 Q2138.86 193.958 2140.94 194.306 Q2143.03 194.653 2144.78 195.347 Z" fill="#000000" fill-rule="nonzero" fill-opacity="1" /><path clip-path="url(#clip110)" d="M2152.96 194.583 L2157.22 194.583 L2157.22 220.509 L2152.96 220.509 L2152.96 194.583 M2152.96 184.491 L2157.22 184.491 L2157.22 189.884 L2152.96 189.884 L2152.96 184.491 Z" fill="#000000" fill-rule="nonzero" fill-opacity="1" /><path clip-path="url(#clip110)" d="M2183.19 207.245 Q2183.19 202.616 2181.27 200.07 Q2179.37 197.523 2175.92 197.523 Q2172.49 197.523 2170.57 200.07 Q2168.67 202.616 2168.67 207.245 Q2168.67 211.852 2170.57 214.398 Q2172.49 216.944 2175.92 216.944 Q2179.37 216.944 2181.27 214.398 Q2183.19 211.852 2183.19 207.245 M2187.45 217.292 Q2187.45 223.912 2184.51 227.13 Q2181.57 230.37 2175.5 230.37 Q2173.26 230.37 2171.27 230.023 Q2169.28 229.699 2167.4 229.005 L2167.4 224.861 Q2169.28 225.88 2171.1 226.366 Q2172.93 226.852 2174.83 226.852 Q2179.02 226.852 2181.1 224.653 Q2183.19 222.477 2183.19 218.056 L2183.19 215.949 Q2181.87 218.241 2179.81 219.375 Q2177.75 220.509 2174.88 220.509 Q2170.11 220.509 2167.19 216.875 Q2164.28 213.241 2164.28 207.245 Q2164.28 201.227 2167.19 197.593 Q2170.11 193.958 2174.88 193.958 Q2177.75 193.958 2179.81 195.093 Q2181.87 196.227 2183.19 198.519 L2183.19 194.583 L2187.45 194.583 L2187.45 217.292 Z" fill="#000000" fill-rule="nonzero" fill-opacity="1" /><path clip-path="url(#clip110)" d="M2217.77 204.861 L2217.77 220.509 L2213.51 220.509 L2213.51 205 Q2213.51 201.32 2212.08 199.491 Q2210.64 197.662 2207.77 197.662 Q2204.32 197.662 2202.33 199.861 Q2200.34 202.06 2200.34 205.857 L2200.34 220.509 L2196.06 220.509 L2196.06 194.583 L2200.34 194.583 L2200.34 198.611 Q2201.87 196.273 2203.93 195.116 Q2206.01 193.958 2208.72 193.958 Q2213.19 193.958 2215.48 196.736 Q2217.77 199.491 2217.77 204.861 Z" fill="#000000" fill-rule="nonzero" fill-opacity="1" /><path clip-path="url(#clip110)" d="M2238.05 207.477 Q2232.89 207.477 2230.9 208.657 Q2228.9 209.838 2228.9 212.685 Q2228.9 214.954 2230.39 216.296 Q2231.89 217.616 2234.46 217.616 Q2238 217.616 2240.13 215.116 Q2242.28 212.593 2242.28 208.426 L2242.28 207.477 L2238.05 207.477 M2246.54 205.718 L2246.54 220.509 L2242.28 220.509 L2242.28 216.574 Q2240.83 218.935 2238.65 220.069 Q2236.47 221.181 2233.33 221.181 Q2229.34 221.181 2226.98 218.958 Q2224.65 216.713 2224.65 212.963 Q2224.65 208.588 2227.56 206.366 Q2230.5 204.144 2236.31 204.144 L2242.28 204.144 L2242.28 203.727 Q2242.28 200.787 2240.34 199.19 Q2238.42 197.57 2234.92 197.57 Q2232.7 197.57 2230.59 198.102 Q2228.49 198.634 2226.54 199.699 L2226.54 195.764 Q2228.88 194.861 2231.08 194.421 Q2233.28 193.958 2235.36 193.958 Q2240.99 193.958 2243.77 196.875 Q2246.54 199.792 2246.54 205.718 Z" fill="#000000" fill-rule="nonzero" fill-opacity="1" /><path clip-path="url(#clip110)" d="M2255.32 184.491 L2259.58 184.491 L2259.58 220.509 L2255.32 220.509 L2255.32 184.491 Z" fill="#000000" fill-rule="nonzero" fill-opacity="1" /></svg>
