<?xml version="1.0" encoding="utf-8"?>
<svg xmlns="http://www.w3.org/2000/svg" xmlns:xlink="http://www.w3.org/1999/xlink" width="600" height="400" viewBox="0 0 2400 1600">
<defs>
  <clipPath id="clip350">
    <rect x="0" y="0" width="2400" height="1600"/>
  </clipPath>
</defs>
<path clip-path="url(#clip350)" d="M0 1600 L2400 1600 L2400 0 L0 0  Z" fill="#ffffff" fill-rule="evenodd" fill-opacity="1"/>
<defs>
  <clipPath id="clip351">
    <rect x="480" y="0" width="1681" height="1600"/>
  </clipPath>
</defs>
<path clip-path="url(#clip350)" d="M210.61 1423.18 L2352.76 1423.18 L2352.76 47.2441 L210.61 47.2441  Z" fill="#ffffff" fill-rule="evenodd" fill-opacity="1"/>
<defs>
  <clipPath id="clip352">
    <rect x="210" y="47" width="2143" height="1377"/>
  </clipPath>
</defs>
<polyline clip-path="url(#clip352)" style="stroke:#000000; stroke-linecap:round; stroke-linejoin:round; stroke-width:2; stroke-opacity:0.1; fill:none" points="455.954,1423.18 455.954,47.2441 "/>
<polyline clip-path="url(#clip352)" style="stroke:#000000; stroke-linecap:round; stroke-linejoin:round; stroke-width:2; stroke-opacity:0.1; fill:none" points="895.757,1423.18 895.757,47.2441 "/>
<polyline clip-path="url(#clip352)" style="stroke:#000000; stroke-linecap:round; stroke-linejoin:round; stroke-width:2; stroke-opacity:0.1; fill:none" points="1335.56,1423.18 1335.56,47.2441 "/>
<polyline clip-path="url(#clip352)" style="stroke:#000000; stroke-linecap:round; stroke-linejoin:round; stroke-width:2; stroke-opacity:0.1; fill:none" points="1775.36,1423.18 1775.36,47.2441 "/>
<polyline clip-path="url(#clip352)" style="stroke:#000000; stroke-linecap:round; stroke-linejoin:round; stroke-width:2; stroke-opacity:0.1; fill:none" points="2215.16,1423.18 2215.16,47.2441 "/>
<polyline clip-path="url(#clip350)" style="stroke:#000000; stroke-linecap:round; stroke-linejoin:round; stroke-width:4; stroke-opacity:1; fill:none" points="210.61,1423.18 2352.76,1423.18 "/>
<polyline clip-path="url(#clip350)" style="stroke:#000000; stroke-linecap:round; stroke-linejoin:round; stroke-width:4; stroke-opacity:1; fill:none" points="455.954,1423.18 455.954,1404.28 "/>
<polyline clip-path="url(#clip350)" style="stroke:#000000; stroke-linecap:round; stroke-linejoin:round; stroke-width:4; stroke-opacity:1; fill:none" points="895.757,1423.18 895.757,1404.28 "/>
<polyline clip-path="url(#clip350)" style="stroke:#000000; stroke-linecap:round; stroke-linejoin:round; stroke-width:4; stroke-opacity:1; fill:none" points="1335.56,1423.18 1335.56,1404.28 "/>
<polyline clip-path="url(#clip350)" style="stroke:#000000; stroke-linecap:round; stroke-linejoin:round; stroke-width:4; stroke-opacity:1; fill:none" points="1775.36,1423.18 1775.36,1404.28 "/>
<polyline clip-path="url(#clip350)" style="stroke:#000000; stroke-linecap:round; stroke-linejoin:round; stroke-width:4; stroke-opacity:1; fill:none" points="2215.16,1423.18 2215.16,1404.28 "/>
<path clip-path="url(#clip350)" d="M446.814 1472.22 Q447.11 1472.51 447.11 1472.93 Q447.11 1473.35 446.814 1473.65 Q446.518 1473.94 446.098 1473.94 L414.428 1473.94 Q414.008 1473.94 413.711 1473.65 Q413.415 1473.35 413.415 1472.93 Q413.415 1472.51 413.711 1472.22 Q414.008 1471.92 414.428 1471.92 L446.098 1471.92 Q446.518 1471.92 446.814 1472.22 Z" fill="#000000" fill-rule="nonzero" fill-opacity="1" /><path clip-path="url(#clip350)" d="M452.446 1477.43 Q452.446 1475.92 453.262 1475.35 Q454.077 1474.76 454.941 1474.76 Q456.102 1474.76 456.769 1475.5 Q457.461 1476.22 457.461 1477.23 Q457.461 1478.24 456.769 1478.98 Q456.102 1479.7 454.941 1479.7 Q454.373 1479.7 454.077 1479.6 Q454.744 1481.92 456.769 1483.6 Q458.82 1485.28 461.512 1485.28 Q464.897 1485.28 466.923 1482 Q468.133 1479.87 468.133 1475.06 Q468.133 1470.81 467.219 1468.68 Q465.811 1465.45 462.921 1465.45 Q458.82 1465.45 456.399 1468.98 Q456.102 1469.42 455.757 1469.45 Q455.263 1469.45 455.139 1469.18 Q455.04 1468.88 455.04 1468.11 L455.04 1453.14 Q455.04 1451.93 455.534 1451.93 Q455.732 1451.93 456.152 1452.08 Q459.339 1453.49 462.871 1453.51 Q466.503 1453.51 469.763 1452.03 Q470.01 1451.88 470.159 1451.88 Q470.653 1451.88 470.677 1452.45 Q470.677 1452.65 470.257 1453.24 Q469.862 1453.81 468.998 1454.58 Q468.133 1455.32 467.021 1456.03 Q465.91 1456.75 464.279 1457.25 Q462.674 1457.71 460.895 1457.71 Q458.77 1457.71 456.597 1457.05 L456.597 1466.9 Q459.215 1464.33 463.019 1464.33 Q467.071 1464.33 469.862 1467.6 Q472.654 1470.86 472.654 1475.4 Q472.654 1480.17 469.343 1483.43 Q466.058 1486.69 461.611 1486.69 Q457.56 1486.69 454.991 1483.8 Q452.446 1480.91 452.446 1477.43 Z" fill="#000000" fill-rule="nonzero" fill-opacity="1" /><path clip-path="url(#clip350)" d="M477.199 1469.4 Q477.199 1461.96 479.077 1457.91 Q481.695 1451.88 487.871 1451.88 Q489.18 1451.88 490.539 1452.26 Q491.922 1452.6 493.652 1453.96 Q495.405 1455.32 496.468 1457.54 Q498.493 1461.84 498.493 1469.4 Q498.493 1476.79 496.616 1480.81 Q493.874 1486.69 487.822 1486.69 Q485.549 1486.69 483.227 1485.53 Q480.929 1484.37 479.472 1481.58 Q477.199 1477.4 477.199 1469.4 M481.399 1468.78 Q481.399 1476.41 481.942 1479.45 Q482.56 1482.74 484.24 1484.17 Q485.944 1485.58 487.822 1485.58 Q489.847 1485.58 491.527 1484.07 Q493.232 1482.54 493.75 1479.26 Q494.319 1476.02 494.294 1468.78 Q494.294 1461.74 493.8 1458.92 Q493.133 1455.64 491.354 1454.33 Q489.6 1453 487.822 1453 Q487.155 1453 486.438 1453.19 Q485.746 1453.39 484.734 1453.96 Q483.721 1454.53 482.93 1455.94 Q482.164 1457.34 481.794 1459.47 Q481.399 1462.21 481.399 1468.78 Z" fill="#000000" fill-rule="nonzero" fill-opacity="1" /><path clip-path="url(#clip350)" d="M886.888 1472.22 Q887.185 1472.51 887.185 1472.93 Q887.185 1473.35 886.888 1473.65 Q886.592 1473.94 886.172 1473.94 L854.502 1473.94 Q854.082 1473.94 853.786 1473.65 Q853.489 1473.35 853.489 1472.93 Q853.489 1472.51 853.786 1472.22 Q854.082 1471.92 854.502 1471.92 L886.172 1471.92 Q886.592 1471.92 886.888 1472.22 Z" fill="#000000" fill-rule="nonzero" fill-opacity="1" /><path clip-path="url(#clip350)" d="M892.52 1485.58 Q892.52 1484.67 892.595 1484.39 Q892.693 1484.12 893.089 1483.7 L902.797 1472.88 Q908.108 1466.9 908.108 1461.69 Q908.108 1458.31 906.33 1455.89 Q904.576 1453.47 901.34 1453.47 Q899.116 1453.47 897.239 1454.82 Q895.361 1456.18 894.497 1458.6 Q894.645 1458.55 895.164 1458.55 Q896.424 1458.55 897.115 1459.34 Q897.832 1460.14 897.832 1461.2 Q897.832 1462.56 896.942 1463.22 Q896.078 1463.87 895.213 1463.87 Q894.867 1463.87 894.398 1463.79 Q893.953 1463.72 893.237 1463.03 Q892.52 1462.31 892.52 1461.05 Q892.52 1457.52 895.188 1454.7 Q897.881 1451.88 901.982 1451.88 Q906.626 1451.88 909.665 1454.65 Q912.728 1457.39 912.728 1461.69 Q912.728 1463.2 912.258 1464.58 Q911.814 1465.94 911.196 1467 Q910.603 1468.07 908.973 1469.77 Q907.342 1471.47 906.033 1472.68 Q904.724 1473.9 901.784 1476.46 L896.424 1481.68 L905.539 1481.68 Q909.986 1481.68 910.332 1481.28 Q910.826 1480.57 911.443 1476.79 L912.728 1476.79 L911.295 1485.58 L892.52 1485.58 Z" fill="#000000" fill-rule="nonzero" fill-opacity="1" /><path clip-path="url(#clip350)" d="M917.817 1477.43 Q917.817 1475.92 918.632 1475.35 Q919.447 1474.76 920.312 1474.76 Q921.473 1474.76 922.14 1475.5 Q922.831 1476.22 922.831 1477.23 Q922.831 1478.24 922.14 1478.98 Q921.473 1479.7 920.312 1479.7 Q919.744 1479.7 919.447 1479.6 Q920.114 1481.92 922.14 1483.6 Q924.19 1485.28 926.883 1485.28 Q930.267 1485.28 932.293 1482 Q933.503 1479.87 933.503 1475.06 Q933.503 1470.81 932.589 1468.68 Q931.181 1465.45 928.291 1465.45 Q924.19 1465.45 921.769 1468.98 Q921.473 1469.42 921.127 1469.45 Q920.633 1469.45 920.509 1469.18 Q920.411 1468.88 920.411 1468.11 L920.411 1453.14 Q920.411 1451.93 920.905 1451.93 Q921.102 1451.93 921.522 1452.08 Q924.709 1453.49 928.242 1453.51 Q931.873 1453.51 935.134 1452.03 Q935.381 1451.88 935.529 1451.88 Q936.023 1451.88 936.048 1452.45 Q936.048 1452.65 935.628 1453.24 Q935.233 1453.81 934.368 1454.58 Q933.503 1455.32 932.392 1456.03 Q931.28 1456.75 929.65 1457.25 Q928.044 1457.71 926.265 1457.71 Q924.141 1457.71 921.967 1457.05 L921.967 1466.9 Q924.585 1464.33 928.39 1464.33 Q932.441 1464.33 935.233 1467.6 Q938.024 1470.86 938.024 1475.4 Q938.024 1480.17 934.714 1483.43 Q931.428 1486.69 926.982 1486.69 Q922.93 1486.69 920.361 1483.8 Q917.817 1480.91 917.817 1477.43 Z" fill="#000000" fill-rule="nonzero" fill-opacity="1" /><path clip-path="url(#clip350)" d="M1324.91 1469.4 Q1324.91 1461.96 1326.79 1457.91 Q1329.41 1451.88 1335.58 1451.88 Q1336.89 1451.88 1338.25 1452.26 Q1339.64 1452.6 1341.36 1453.96 Q1343.12 1455.32 1344.18 1457.54 Q1346.21 1461.84 1346.21 1469.4 Q1346.21 1476.79 1344.33 1480.81 Q1341.59 1486.69 1335.53 1486.69 Q1333.26 1486.69 1330.94 1485.53 Q1328.64 1484.37 1327.18 1481.58 Q1324.91 1477.4 1324.91 1469.4 M1329.11 1468.78 Q1329.11 1476.41 1329.65 1479.45 Q1330.27 1482.74 1331.95 1484.17 Q1333.66 1485.58 1335.53 1485.58 Q1337.56 1485.58 1339.24 1484.07 Q1340.94 1482.54 1341.46 1479.26 Q1342.03 1476.02 1342.01 1468.78 Q1342.01 1461.74 1341.51 1458.92 Q1340.85 1455.64 1339.07 1454.33 Q1337.31 1453 1335.53 1453 Q1334.87 1453 1334.15 1453.19 Q1333.46 1453.39 1332.45 1453.96 Q1331.43 1454.53 1330.64 1455.94 Q1329.88 1457.34 1329.51 1459.47 Q1329.11 1462.21 1329.11 1468.78 Z" fill="#000000" fill-rule="nonzero" fill-opacity="1" /><path clip-path="url(#clip350)" d="M1752.61 1485.58 Q1752.61 1484.67 1752.68 1484.39 Q1752.78 1484.12 1753.18 1483.7 L1762.89 1472.88 Q1768.2 1466.9 1768.2 1461.69 Q1768.2 1458.31 1766.42 1455.89 Q1764.66 1453.47 1761.43 1453.47 Q1759.21 1453.47 1757.33 1454.82 Q1755.45 1456.18 1754.59 1458.6 Q1754.73 1458.55 1755.25 1458.55 Q1756.51 1458.55 1757.2 1459.34 Q1757.92 1460.14 1757.92 1461.2 Q1757.92 1462.56 1757.03 1463.22 Q1756.17 1463.87 1755.3 1463.87 Q1754.96 1463.87 1754.49 1463.79 Q1754.04 1463.72 1753.33 1463.03 Q1752.61 1462.31 1752.61 1461.05 Q1752.61 1457.52 1755.28 1454.7 Q1757.97 1451.88 1762.07 1451.88 Q1766.72 1451.88 1769.75 1454.65 Q1772.82 1457.39 1772.82 1461.69 Q1772.82 1463.2 1772.35 1464.58 Q1771.9 1465.94 1771.29 1467 Q1770.69 1468.07 1769.06 1469.77 Q1767.43 1471.47 1766.12 1472.68 Q1764.81 1473.9 1761.87 1476.46 L1756.51 1481.68 L1765.63 1481.68 Q1770.07 1481.68 1770.42 1481.28 Q1770.91 1480.57 1771.53 1476.79 L1772.82 1476.79 L1771.38 1485.58 L1752.61 1485.58 Z" fill="#000000" fill-rule="nonzero" fill-opacity="1" /><path clip-path="url(#clip350)" d="M1777.91 1477.43 Q1777.91 1475.92 1778.72 1475.35 Q1779.54 1474.76 1780.4 1474.76 Q1781.56 1474.76 1782.23 1475.5 Q1782.92 1476.22 1782.92 1477.23 Q1782.92 1478.24 1782.23 1478.98 Q1781.56 1479.7 1780.4 1479.7 Q1779.83 1479.7 1779.54 1479.6 Q1780.2 1481.92 1782.23 1483.6 Q1784.28 1485.28 1786.97 1485.28 Q1790.36 1485.28 1792.38 1482 Q1793.59 1479.87 1793.59 1475.06 Q1793.59 1470.81 1792.68 1468.68 Q1791.27 1465.45 1788.38 1465.45 Q1784.28 1465.45 1781.86 1468.98 Q1781.56 1469.42 1781.22 1469.45 Q1780.72 1469.45 1780.6 1469.18 Q1780.5 1468.88 1780.5 1468.11 L1780.5 1453.14 Q1780.5 1451.93 1780.99 1451.93 Q1781.19 1451.93 1781.61 1452.08 Q1784.8 1453.49 1788.33 1453.51 Q1791.96 1453.51 1795.22 1452.03 Q1795.47 1451.88 1795.62 1451.88 Q1796.11 1451.88 1796.14 1452.45 Q1796.14 1452.65 1795.72 1453.24 Q1795.32 1453.81 1794.46 1454.58 Q1793.59 1455.32 1792.48 1456.03 Q1791.37 1456.75 1789.74 1457.25 Q1788.13 1457.71 1786.35 1457.71 Q1784.23 1457.71 1782.06 1457.05 L1782.06 1466.9 Q1784.67 1464.33 1788.48 1464.33 Q1792.53 1464.33 1795.32 1467.6 Q1798.11 1470.86 1798.11 1475.4 Q1798.11 1480.17 1794.8 1483.43 Q1791.52 1486.69 1787.07 1486.69 Q1783.02 1486.69 1780.45 1483.8 Q1777.91 1480.91 1777.91 1477.43 Z" fill="#000000" fill-rule="nonzero" fill-opacity="1" /><path clip-path="url(#clip350)" d="M2192.14 1477.43 Q2192.14 1475.92 2192.96 1475.35 Q2193.77 1474.76 2194.64 1474.76 Q2195.8 1474.76 2196.46 1475.5 Q2197.15 1476.22 2197.15 1477.23 Q2197.15 1478.24 2196.46 1478.98 Q2195.8 1479.7 2194.64 1479.7 Q2194.07 1479.7 2193.77 1479.6 Q2194.44 1481.92 2196.46 1483.6 Q2198.51 1485.28 2201.21 1485.28 Q2204.59 1485.28 2206.62 1482 Q2207.83 1479.87 2207.83 1475.06 Q2207.83 1470.81 2206.91 1468.68 Q2205.5 1465.45 2202.61 1465.45 Q2198.51 1465.45 2196.09 1468.98 Q2195.8 1469.42 2195.45 1469.45 Q2194.96 1469.45 2194.83 1469.18 Q2194.73 1468.88 2194.73 1468.11 L2194.73 1453.14 Q2194.73 1451.93 2195.23 1451.93 Q2195.43 1451.93 2195.85 1452.08 Q2199.03 1453.49 2202.57 1453.51 Q2206.2 1453.51 2209.46 1452.03 Q2209.7 1451.88 2209.85 1451.88 Q2210.35 1451.88 2210.37 1452.45 Q2210.37 1452.65 2209.95 1453.24 Q2209.56 1453.81 2208.69 1454.58 Q2207.83 1455.32 2206.72 1456.03 Q2205.6 1456.75 2203.97 1457.25 Q2202.37 1457.71 2200.59 1457.71 Q2198.46 1457.71 2196.29 1457.05 L2196.29 1466.9 Q2198.91 1464.33 2202.71 1464.33 Q2206.76 1464.33 2209.56 1467.6 Q2212.35 1470.86 2212.35 1475.4 Q2212.35 1480.17 2209.04 1483.43 Q2205.75 1486.69 2201.31 1486.69 Q2197.25 1486.69 2194.68 1483.8 Q2192.14 1480.91 2192.14 1477.43 Z" fill="#000000" fill-rule="nonzero" fill-opacity="1" /><path clip-path="url(#clip350)" d="M2216.89 1469.4 Q2216.89 1461.96 2218.77 1457.91 Q2221.39 1451.88 2227.56 1451.88 Q2228.87 1451.88 2230.23 1452.26 Q2231.62 1452.6 2233.35 1453.96 Q2235.1 1455.32 2236.16 1457.54 Q2238.19 1461.84 2238.19 1469.4 Q2238.19 1476.79 2236.31 1480.81 Q2233.57 1486.69 2227.52 1486.69 Q2225.24 1486.69 2222.92 1485.53 Q2220.62 1484.37 2219.17 1481.58 Q2216.89 1477.4 2216.89 1469.4 M2221.09 1468.78 Q2221.09 1476.41 2221.64 1479.45 Q2222.25 1482.74 2223.93 1484.17 Q2225.64 1485.58 2227.52 1485.58 Q2229.54 1485.58 2231.22 1484.07 Q2232.93 1482.54 2233.44 1479.26 Q2234.01 1476.02 2233.99 1468.78 Q2233.99 1461.74 2233.49 1458.92 Q2232.83 1455.64 2231.05 1454.33 Q2229.29 1453 2227.52 1453 Q2226.85 1453 2226.13 1453.19 Q2225.44 1453.39 2224.43 1453.96 Q2223.41 1454.53 2222.62 1455.94 Q2221.86 1457.34 2221.49 1459.47 Q2221.09 1462.21 2221.09 1468.78 Z" fill="#000000" fill-rule="nonzero" fill-opacity="1" /><path clip-path="url(#clip350)" d="M1251.54 1528.17 Q1251.54 1529.07 1251.12 1529.3 Q1250.7 1529.49 1249.54 1529.49 L1243.36 1529.49 L1238.47 1548.94 Q1238.08 1550.65 1238.08 1552.1 Q1238.08 1553.71 1238.56 1554.42 Q1239.08 1555.13 1240.14 1555.13 Q1242.23 1555.13 1244.49 1553.23 Q1246.77 1551.33 1248.71 1546.69 Q1248.96 1546.08 1249.09 1545.95 Q1249.25 1545.79 1249.67 1545.79 Q1250.48 1545.79 1250.48 1546.43 Q1250.48 1546.66 1250.03 1547.69 Q1249.61 1548.72 1248.67 1550.23 Q1247.77 1551.75 1246.58 1553.16 Q1245.42 1554.58 1243.65 1555.61 Q1241.88 1556.61 1239.98 1556.61 Q1237.31 1556.61 1235.6 1554.9 Q1233.92 1553.19 1233.92 1550.52 Q1233.92 1549.65 1234.6 1546.88 Q1235.28 1544.08 1238.95 1529.49 L1233.12 1529.49 Q1232.31 1529.49 1231.99 1529.46 Q1231.7 1529.43 1231.48 1529.27 Q1231.28 1529.07 1231.28 1528.69 Q1231.28 1528.07 1231.54 1527.82 Q1231.8 1527.53 1232.12 1527.49 Q1232.48 1527.43 1233.28 1527.43 L1239.46 1527.43 L1242.04 1516.96 Q1242.3 1515.93 1242.94 1515.35 Q1243.62 1514.74 1244.01 1514.68 Q1244.39 1514.58 1244.68 1514.58 Q1245.55 1514.58 1246.07 1515.06 Q1246.58 1515.51 1246.58 1516.35 Q1246.58 1516.8 1243.88 1527.43 L1249.67 1527.43 Q1250.41 1527.43 1250.7 1527.46 Q1251.03 1527.49 1251.28 1527.66 Q1251.54 1527.82 1251.54 1528.17 Z" fill="#000000" fill-rule="nonzero" fill-opacity="1" /><path clip-path="url(#clip350)" d="M1272.29 1572.36 L1272.29 1506.4 L1282.24 1506.4 L1282.24 1507.91 L1276.7 1507.91 L1276.7 1570.84 L1282.24 1570.84 L1282.24 1572.36 L1272.29 1572.36 Z" fill="#000000" fill-rule="nonzero" fill-opacity="1" /><path clip-path="url(#clip350)" d="M1309.18 1532.39 Q1309.18 1534.19 1308.28 1535.16 Q1307.37 1536.09 1306.15 1536.09 Q1305.15 1536.09 1304.6 1535.51 Q1304.09 1534.93 1304.09 1534.16 Q1304.09 1533.03 1304.99 1532.13 Q1305.92 1531.23 1307.28 1531.2 Q1306.83 1530.01 1305.63 1529.3 Q1304.44 1528.56 1303.38 1528.36 Q1302.35 1528.17 1301.32 1528.17 Q1299.29 1528.17 1297.74 1528.81 Q1296.2 1529.46 1295.43 1530.46 Q1294.65 1531.42 1294.3 1532.36 Q1293.94 1533.29 1293.94 1534.1 Q1293.94 1534.81 1294.1 1535.38 Q1294.3 1535.93 1294.75 1536.35 Q1295.2 1536.74 1295.52 1537 Q1295.88 1537.25 1296.65 1537.48 Q1297.42 1537.7 1297.74 1537.8 Q1298.07 1537.86 1298.97 1538.06 Q1300.84 1538.44 1301.67 1538.67 Q1302.51 1538.86 1303.61 1539.41 Q1304.73 1539.96 1305.57 1540.83 Q1307.6 1542.86 1307.6 1545.66 Q1307.6 1546.69 1307.24 1547.95 Q1306.92 1549.2 1305.99 1550.78 Q1305.05 1552.36 1303.64 1553.61 Q1302.22 1554.87 1299.77 1555.74 Q1297.36 1556.61 1294.33 1556.61 Q1290.11 1556.61 1287.5 1554.84 Q1284.89 1553.03 1284.89 1550.2 Q1284.89 1548.14 1286.02 1547.01 Q1287.15 1545.85 1288.6 1545.85 Q1289.69 1545.85 1290.37 1546.46 Q1291.05 1547.04 1291.05 1548.14 Q1291.05 1549.62 1289.85 1550.75 Q1288.66 1551.87 1286.89 1551.65 Q1288.4 1555.13 1294.39 1555.13 Q1296.65 1555.13 1298.39 1554.55 Q1300.16 1553.94 1301.13 1553.1 Q1302.12 1552.23 1302.77 1551.17 Q1303.41 1550.1 1303.61 1549.3 Q1303.83 1548.49 1303.83 1547.88 Q1303.83 1546.82 1303.41 1546.01 Q1302.99 1545.21 1302.41 1544.76 Q1301.87 1544.27 1300.8 1543.89 Q1299.77 1543.47 1299.03 1543.31 Q1298.29 1543.15 1296.97 1542.89 Q1296.36 1542.76 1295.97 1542.7 Q1295.59 1542.6 1294.78 1542.34 Q1294.01 1542.05 1293.46 1541.76 Q1292.95 1541.47 1292.27 1540.96 Q1291.59 1540.44 1291.17 1539.83 Q1290.76 1539.22 1290.47 1538.32 Q1290.18 1537.41 1290.18 1536.35 Q1290.18 1535.38 1290.47 1534.23 Q1290.79 1533.07 1291.59 1531.71 Q1292.43 1530.36 1293.62 1529.27 Q1294.81 1528.17 1296.81 1527.46 Q1298.84 1526.72 1301.32 1526.72 Q1304.93 1526.72 1307.05 1528.4 Q1309.18 1530.04 1309.18 1532.39 Z" fill="#000000" fill-rule="nonzero" fill-opacity="1" /><path clip-path="url(#clip350)" d="M1313.93 1570.84 L1319.47 1570.84 L1319.47 1507.91 L1313.93 1507.91 L1313.93 1506.4 L1323.88 1506.4 L1323.88 1572.36 L1313.93 1572.36 L1313.93 1570.84 Z" fill="#000000" fill-rule="nonzero" fill-opacity="1" /><polyline clip-path="url(#clip352)" style="stroke:#000000; stroke-linecap:round; stroke-linejoin:round; stroke-width:2; stroke-opacity:0.1; fill:none" points="210.61,1297.95 2352.76,1297.95 "/>
<polyline clip-path="url(#clip352)" style="stroke:#000000; stroke-linecap:round; stroke-linejoin:round; stroke-width:2; stroke-opacity:0.1; fill:none" points="210.61,1044.41 2352.76,1044.41 "/>
<polyline clip-path="url(#clip352)" style="stroke:#000000; stroke-linecap:round; stroke-linejoin:round; stroke-width:2; stroke-opacity:0.1; fill:none" points="210.61,790.873 2352.76,790.873 "/>
<polyline clip-path="url(#clip352)" style="stroke:#000000; stroke-linecap:round; stroke-linejoin:round; stroke-width:2; stroke-opacity:0.1; fill:none" points="210.61,537.333 2352.76,537.333 "/>
<polyline clip-path="url(#clip352)" style="stroke:#000000; stroke-linecap:round; stroke-linejoin:round; stroke-width:2; stroke-opacity:0.1; fill:none" points="210.61,283.793 2352.76,283.793 "/>
<polyline clip-path="url(#clip350)" style="stroke:#000000; stroke-linecap:round; stroke-linejoin:round; stroke-width:4; stroke-opacity:1; fill:none" points="210.61,1423.18 210.61,47.2441 "/>
<polyline clip-path="url(#clip350)" style="stroke:#000000; stroke-linecap:round; stroke-linejoin:round; stroke-width:4; stroke-opacity:1; fill:none" points="210.61,1297.95 229.508,1297.95 "/>
<polyline clip-path="url(#clip350)" style="stroke:#000000; stroke-linecap:round; stroke-linejoin:round; stroke-width:4; stroke-opacity:1; fill:none" points="210.61,1044.41 229.508,1044.41 "/>
<polyline clip-path="url(#clip350)" style="stroke:#000000; stroke-linecap:round; stroke-linejoin:round; stroke-width:4; stroke-opacity:1; fill:none" points="210.61,790.873 229.508,790.873 "/>
<polyline clip-path="url(#clip350)" style="stroke:#000000; stroke-linecap:round; stroke-linejoin:round; stroke-width:4; stroke-opacity:1; fill:none" points="210.61,537.333 229.508,537.333 "/>
<polyline clip-path="url(#clip350)" style="stroke:#000000; stroke-linecap:round; stroke-linejoin:round; stroke-width:4; stroke-opacity:1; fill:none" points="210.61,283.793 229.508,283.793 "/>
<path clip-path="url(#clip350)" d="M147.659 1301.87 Q147.956 1302.17 147.956 1302.59 Q147.956 1303.01 147.659 1303.3 Q147.363 1303.6 146.943 1303.6 L115.273 1303.6 Q114.853 1303.6 114.557 1303.3 Q114.26 1303.01 114.26 1302.59 Q114.26 1302.17 114.557 1301.87 Q114.853 1301.57 115.273 1301.57 L146.943 1301.57 Q147.363 1301.57 147.659 1301.87 Z" fill="#000000" fill-rule="nonzero" fill-opacity="1" /><path clip-path="url(#clip350)" d="M152.18 1306.88 L152.18 1305.33 L167.718 1281.59 Q168.113 1280.97 168.731 1281 Q169.299 1281 169.423 1281.22 Q169.546 1281.44 169.546 1282.3 L169.546 1305.33 L174.61 1305.33 L174.61 1306.88 L169.546 1306.88 L169.546 1311.28 Q169.546 1312.74 170.139 1313.21 Q170.757 1313.68 173.375 1313.68 L174.438 1313.68 L174.438 1315.23 Q172.362 1315.09 167.57 1315.09 Q162.802 1315.09 160.727 1315.23 L160.727 1313.68 L161.789 1313.68 Q164.408 1313.68 165.026 1313.23 Q165.643 1312.76 165.643 1311.28 L165.643 1306.88 L152.18 1306.88 M153.613 1305.33 L165.94 1305.33 L165.94 1286.45 L153.613 1305.33 Z" fill="#000000" fill-rule="nonzero" fill-opacity="1" /><path clip-path="url(#clip350)" d="M148.771 1048.33 Q149.067 1048.63 149.067 1049.05 Q149.067 1049.47 148.771 1049.76 Q148.474 1050.06 148.054 1050.06 L116.385 1050.06 Q115.965 1050.06 115.668 1049.76 Q115.372 1049.47 115.372 1049.05 Q115.372 1048.63 115.668 1048.33 Q115.965 1048.03 116.385 1048.03 L148.054 1048.03 Q148.474 1048.03 148.771 1048.33 Z" fill="#000000" fill-rule="nonzero" fill-opacity="1" /><path clip-path="url(#clip350)" d="M154.403 1061.69 Q154.403 1060.78 154.477 1060.51 Q154.576 1060.24 154.971 1059.82 L164.68 1049 Q169.991 1043.02 169.991 1037.81 Q169.991 1034.42 168.212 1032 Q166.458 1029.58 163.222 1029.58 Q160.999 1029.58 159.121 1030.94 Q157.244 1032.3 156.379 1034.72 Q156.528 1034.67 157.046 1034.67 Q158.306 1034.67 158.998 1035.46 Q159.714 1036.25 159.714 1037.31 Q159.714 1038.67 158.825 1039.34 Q157.96 1039.98 157.096 1039.98 Q156.75 1039.98 156.281 1039.91 Q155.836 1039.83 155.12 1039.14 Q154.403 1038.42 154.403 1037.16 Q154.403 1033.63 157.071 1030.81 Q159.764 1028 163.865 1028 Q168.509 1028 171.547 1030.77 Q174.61 1033.51 174.61 1037.81 Q174.61 1039.31 174.141 1040.7 Q173.696 1042.05 173.079 1043.12 Q172.486 1044.18 170.856 1045.88 Q169.225 1047.59 167.916 1048.8 Q166.607 1050.01 163.667 1052.58 L158.306 1057.79 L167.422 1057.79 Q171.868 1057.79 172.214 1057.4 Q172.708 1056.68 173.326 1052.9 L174.61 1052.9 L173.178 1061.69 L154.403 1061.69 Z" fill="#000000" fill-rule="nonzero" fill-opacity="1" /><path clip-path="url(#clip350)" d="M153.316 791.973 Q153.316 784.537 155.194 780.486 Q157.812 774.458 163.988 774.458 Q165.297 774.458 166.656 774.829 Q168.039 775.174 169.769 776.533 Q171.523 777.892 172.585 780.115 Q174.61 784.413 174.61 791.973 Q174.61 799.359 172.733 803.386 Q169.991 809.265 163.939 809.265 Q161.666 809.265 159.344 808.104 Q157.046 806.943 155.589 804.151 Q153.316 799.977 153.316 791.973 M157.516 791.355 Q157.516 798.988 158.059 802.027 Q158.677 805.312 160.357 806.745 Q162.061 808.153 163.939 808.153 Q165.964 808.153 167.644 806.646 Q169.349 805.115 169.867 801.829 Q170.436 798.593 170.411 791.355 Q170.411 784.315 169.917 781.498 Q169.25 778.213 167.471 776.904 Q165.717 775.57 163.939 775.57 Q163.272 775.57 162.555 775.767 Q161.864 775.965 160.851 776.533 Q159.838 777.101 159.047 778.509 Q158.282 779.917 157.911 782.042 Q157.516 784.784 157.516 791.355 Z" fill="#000000" fill-rule="nonzero" fill-opacity="1" /><path clip-path="url(#clip350)" d="M154.403 554.613 Q154.403 553.699 154.477 553.427 Q154.576 553.155 154.971 552.736 L164.68 541.915 Q169.991 535.937 169.991 530.725 Q169.991 527.34 168.212 524.92 Q166.458 522.499 163.222 522.499 Q160.999 522.499 159.121 523.857 Q157.244 525.216 156.379 527.637 Q156.528 527.588 157.046 527.588 Q158.306 527.588 158.998 528.378 Q159.714 529.169 159.714 530.231 Q159.714 531.589 158.825 532.256 Q157.96 532.899 157.096 532.899 Q156.75 532.899 156.281 532.825 Q155.836 532.751 155.12 532.059 Q154.403 531.342 154.403 530.083 Q154.403 526.55 157.071 523.734 Q159.764 520.918 163.865 520.918 Q168.509 520.918 171.547 523.684 Q174.61 526.426 174.61 530.725 Q174.61 532.232 174.141 533.615 Q173.696 534.974 173.079 536.036 Q172.486 537.098 170.856 538.803 Q169.225 540.507 167.916 541.718 Q166.607 542.928 163.667 545.497 L158.306 550.71 L167.422 550.71 Q171.868 550.71 172.214 550.315 Q172.708 549.598 173.326 545.819 L174.61 545.819 L173.178 554.613 L154.403 554.613 Z" fill="#000000" fill-rule="nonzero" fill-opacity="1" /><path clip-path="url(#clip350)" d="M152.18 292.723 L152.18 291.167 L167.718 267.427 Q168.113 266.809 168.731 266.834 Q169.299 266.834 169.423 267.056 Q169.546 267.278 169.546 268.143 L169.546 291.167 L174.61 291.167 L174.61 292.723 L169.546 292.723 L169.546 297.12 Q169.546 298.578 170.139 299.047 Q170.757 299.516 173.375 299.516 L174.438 299.516 L174.438 301.073 Q172.362 300.924 167.57 300.924 Q162.802 300.924 160.727 301.073 L160.727 299.516 L161.789 299.516 Q164.408 299.516 165.026 299.072 Q165.643 298.602 165.643 297.12 L165.643 292.723 L152.18 292.723 M153.613 291.167 L165.94 291.167 L165.94 272.293 L153.613 291.167 Z" fill="#000000" fill-rule="nonzero" fill-opacity="1" /><path clip-path="url(#clip350)" d="M82.5735 778.475 L16.6159 778.475 L16.6159 768.523 L18.1296 768.523 L18.1296 774.063 L81.0598 774.063 L81.0598 768.523 L82.5735 768.523 L82.5735 778.475 Z" fill="#000000" fill-rule="nonzero" fill-opacity="1" /><path clip-path="url(#clip350)" d="M56.6478 713.147 Q56.9054 713.147 57.9038 713.437 Q58.9022 713.727 60.4481 714.436 Q61.994 715.112 63.411 716.078 Q64.7959 717.012 65.8264 718.558 Q66.8248 720.072 66.8248 721.811 Q66.8248 724.129 65.2789 725.675 Q63.7331 727.221 61.4142 727.221 Q60.1582 727.221 57.775 726.352 Q46.8894 722.262 42.9925 722.262 Q38.3871 722.262 38.3871 725.836 Q38.3871 727.865 39.2244 729.701 Q40.0618 731.537 41.2212 732.728 Q42.3806 733.92 43.701 734.854 Q45.0215 735.788 45.891 736.207 Q46.7606 736.593 47.147 736.69 L63.0567 740.651 Q64.4094 740.973 65.0535 741.199 Q65.6976 741.424 66.2451 742.036 Q66.8248 742.648 66.8248 743.614 Q66.8248 744.419 66.3417 744.999 Q65.8587 745.546 65.0213 745.546 Q64.8925 745.546 64.2162 745.385 Q63.5398 745.224 62.6059 744.999 Q61.6719 744.773 61.1244 744.677 Q56.7444 743.517 56.1325 743.356 L48.4675 741.521 Q44.6672 740.522 42.9925 740.522 Q38.3871 740.522 38.3871 744.097 Q38.3871 745.868 39.0634 747.543 Q39.7075 749.186 40.6093 750.313 Q41.511 751.44 42.7671 752.471 Q43.9909 753.469 44.8282 753.984 Q45.6334 754.467 46.4385 754.854 L49.7235 755.691 Q50.6253 755.884 54.1357 756.818 L60.0938 758.268 Q64.5382 759.298 64.9569 759.524 Q65.8587 759.846 66.3417 760.554 Q66.8248 761.263 66.8248 761.971 Q66.8248 762.777 66.3417 763.324 Q65.8587 763.872 65.0213 763.872 Q64.8925 763.872 64.4094 763.775 Q63.9263 763.678 63.25 763.517 Q62.5737 763.356 62.1872 763.292 L46.9538 759.459 Q44.1841 758.751 43.3146 758.59 Q42.4128 758.397 41.4144 758.397 Q38.3871 758.397 38.3871 760.458 Q38.3871 762.132 40.3838 763.227 Q42.3806 764.322 46.2453 765.256 Q47.3081 765.546 47.5335 765.739 Q47.759 765.9 47.759 766.384 Q47.7268 767.189 47.0826 767.189 Q46.9216 767.189 45.891 766.931 Q44.8604 766.673 43.3146 766.19 Q41.7365 765.675 40.7059 765.128 Q40.0296 764.805 39.5787 764.516 Q39.1278 764.226 38.4193 763.646 Q37.7107 763.066 37.3243 762.197 Q36.9378 761.327 36.9378 760.264 Q36.9378 757.913 38.4515 756.174 Q39.9651 754.403 42.6704 754.178 Q36.9378 749.894 36.9378 743.904 Q36.9378 740.522 38.6447 738.493 Q40.2872 736.593 43.3146 736.368 Q36.9378 731.923 36.9378 725.611 Q36.9378 721.972 38.8379 720.007 Q40.7059 718.043 43.9909 718.043 Q45.6978 718.043 48.9506 718.912 Q52.1712 719.782 53.7815 720.361 Q55.3917 720.941 58.4835 722.068 Q61.4465 723.26 63.1856 723.26 Q64.3128 723.26 64.8281 722.873 Q65.3434 722.487 65.3434 721.65 Q65.3434 720.361 64.6026 719.234 Q63.8297 718.107 62.5737 717.302 Q61.2854 716.464 59.9972 715.917 Q58.6767 715.369 57.1953 714.951 Q56.3901 714.693 56.1969 714.564 Q56.0037 714.403 56.0037 713.952 Q56.0037 713.147 56.6478 713.147 Z" fill="#000000" fill-rule="nonzero" fill-opacity="1" /><path clip-path="url(#clip350)" d="M81.0598 710.099 L81.0598 704.56 L18.1296 704.56 L18.1296 710.099 L16.6159 710.099 L16.6159 700.148 L82.5735 700.148 L82.5735 710.099 L81.0598 710.099 Z" fill="#000000" fill-rule="nonzero" fill-opacity="1" /><polyline clip-path="url(#clip352)" style="stroke:#ba3d3a; stroke-linecap:round; stroke-linejoin:round; stroke-width:8; stroke-opacity:1; fill:none" points="271.237,803.91 273.436,784.541 275.635,766.888 277.834,751.148 280.033,737.513 282.232,726.155 284.431,717.174 286.63,710.434 288.829,705.835 291.028,703.222 293.227,702.387 295.426,703.129 297.625,705.348 299.824,708.908 302.023,713.668 304.222,719.407 306.421,725.929 308.62,732.928 310.819,740.009 313.018,746.745 315.217,752.643 317.416,757.241 319.615,760.258 321.814,761.508 324.014,761.067 326.213,758.963 328.412,755.326 330.611,750.253 332.81,743.843 335.009,736.077 337.208,727.051 339.407,717.017 341.606,706.21 343.805,694.898 346.004,683.308 348.203,671.729 350.402,660.368 352.601,649.431 354.8,639.097 356.999,629.641 359.198,621.289 361.397,614.263 363.596,608.813 365.795,605.096 367.994,603.318 370.193,603.671 372.392,606.388 374.591,611.765 376.79,620.052 378.989,631.473 381.188,645.981 383.387,663.448 385.586,683.648 387.785,706.386 389.984,731.405 392.183,758.484 394.382,787.283 396.581,817.394 398.78,848.291 400.979,879.445 403.178,910.35 405.377,940.571 407.576,969.79 409.775,997.752 411.974,1024.18 414.173,1048.78 416.372,1071.19 418.571,1091.09 420.77,1108.15 422.969,1122.24 425.168,1133.21 427.367,1141.05 429.566,1145.74 431.765,1147.33 433.964,1145.76 436.163,1141.06 438.362,1133.33 440.561,1122.72 442.76,1109.62 444.959,1094.23 447.158,1077.03 449.357,1058.18 451.556,1037.7 453.755,1015.7 455.954,992.096 458.153,967.132 460.352,940.983 462.551,914.184 464.75,887.317 466.949,860.721 469.148,834.732 471.347,809.436 473.546,784.573 475.745,759.947 477.944,735.542 480.143,711.405 482.342,687.33 484.541,663.471 486.74,639.847 488.939,616.574 491.138,593.59 493.337,570.945 495.536,548.737 497.735,526.951 499.934,505.626 502.133,484.853 504.332,464.721 506.531,445.445 508.731,427.193 510.93,410.294 513.129,395.07 515.328,381.86 517.527,370.975 519.726,362.775 521.925,357.659 524.124,355.932 526.323,357.845 528.522,363.592 530.721,373.33 532.92,387.044 535.119,404.578 537.318,425.704 539.517,450.091 541.716,477.413 543.915,507.416 546.114,539.877 548.313,574.537 550.512,611.289 552.711,649.912 554.91,690.257 557.109,732.106 559.308,775.405 561.507,820.078 563.706,865.696 565.905,911.96 568.104,958.31 570.303,1004.38 572.502,1049.44 574.701,1093.05 576.9,1134.43 579.099,1173.15 581.298,1208.53 583.497,1240.12 585.696,1267.46 587.895,1290.46 590.094,1309.18 592.293,1323.55 594.492,1333.48 596.691,1338.89 598.89,1339.7 601.089,1335.55 603.288,1326.33 605.487,1312.05 607.686,1293.11 609.885,1269.72 612.084,1242.31 614.283,1211.24 616.482,1176.82 618.681,1139.3 620.88,1098.97 623.079,1056.09 625.278,1010.96 627.477,963.92 629.676,915.57 631.875,866.607 634.074,817.829 636.273,769.986 638.472,723.742 640.671,679.664 642.87,638.251 645.069,599.885 647.268,564.969 649.467,533.714 651.666,506.25 653.865,482.532 656.064,462.487 658.263,446.01 660.462,432.982 662.661,423.374 664.86,417.084 667.059,413.982 669.258,413.79 671.457,416.219 673.656,420.978 675.855,427.893 678.054,436.863 680.253,447.715 682.452,460.243 684.651,474.205 686.85,489.367 689.049,505.541 691.248,522.615 693.448,540.55 695.647,559.089 697.846,578.12 700.045,597.462 702.244,616.932 704.443,636.443 706.642,655.996 708.841,675.444 711.04,694.642 713.239,713.374 715.438,731.484 717.637,748.803 719.836,765.201 722.035,780.809 724.234,795.795 726.433,810.241 728.632,824.147 730.831,837.412 733.03,849.828 735.229,861.199 737.428,871.358 739.627,880.367 741.826,888.252 744.025,895.182 746.224,901.256 748.423,906.539 750.622,910.99 752.821,914.634 755.02,917.511 757.219,919.743 759.418,921.543 761.617,923.283 763.816,925.405 766.015,928.366 768.214,932.524 770.413,938.135 772.612,945.192 774.811,953.634 777.01,963.36 779.209,974.244 781.408,986.122 783.607,998.785 785.806,1012.07 788.005,1025.7 790.204,1039.28 792.403,1052.58 794.602,1065.32 796.801,1077.28 799,1088.01 801.199,1097.06 803.398,1103.94 805.597,1108 807.796,1108.76 809.995,1105.74 812.194,1098.62 814.393,1087.18 816.592,1071.27 818.791,1051.08 820.99,1026.8 823.189,998.787 825.388,967.353 827.587,932.609 829.786,894.888 831.985,854.395 834.184,811.497 836.383,766.738 838.582,720.788 840.781,674.395 842.98,628.17 845.179,582.742 847.378,538.552 849.577,495.908 851.776,455.3 853.975,417.265 856.174,382.513 858.373,351.548 860.572,324.807 862.771,302.431 864.97,284.598 867.169,271.589 869.368,263.795 871.567,261.547 873.766,264.99 875.965,273.99 878.165,288.049 880.364,306.536 882.563,328.869 884.762,354.691 886.961,383.894 889.16,416.381 891.359,452.161 893.558,491.013 895.757,532.646 897.956,576.671 900.155,622.767 902.354,670.515 904.553,719.37 906.752,768.596 908.951,817.436 911.15,865.112 913.349,910.998 915.548,954.787 917.747,996.309 919.946,1035.58 922.145,1072.47 924.344,1106.49 926.543,1137.19 928.742,1163.84 930.941,1186.05 933.14,1203.37 935.339,1215.86 937.538,1223.75 939.737,1227.1 941.936,1226.17 944.135,1221.53 946.334,1213.23 948.533,1201.45 950.732,1186.15 952.931,1168.4 955.13,1147.99 957.329,1125.45 959.528,1101.06 961.727,1075.68 963.926,1049.3 966.125,1022.48 968.324,995.869 970.523,969.577 972.722,944.234 974.921,919.885 977.12,897.03 979.319,875.623 981.518,855.64 983.717,837.126 985.916,819.827 988.115,803.538 990.314,787.896 992.513,772.489 994.712,757.034 996.911,741.172 999.11,724.676 1001.31,707.279 1003.51,688.883 1005.71,669.472 1007.91,649.047 1010.11,627.828 1012.3,606.118 1014.5,584.316 1016.7,562.785 1018.9,541.896 1021.1,521.923 1023.3,502.948 1025.5,485.035 1027.7,468.338 1029.9,453.198 1032.1,440.071 1034.29,429.476 1036.49,421.94 1038.69,417.9 1040.89,417.743 1043.09,421.658 1045.29,429.829 1047.49,442.278 1049.69,458.927 1051.89,479.697 1054.09,504.512 1056.28,533.348 1058.48,566.041 1060.68,602.476 1062.88,642.442 1065.08,685.332 1067.28,730.446 1069.48,776.872 1071.68,823.685 1073.88,869.806 1076.08,914.424 1078.27,956.98 1080.47,996.953 1082.67,1034.09 1084.87,1068.14 1087.07,1098.79 1089.27,1125.78 1091.47,1148.8 1093.67,1167.65 1095.87,1182.08 1098.07,1192.1 1100.26,1197.79 1102.46,1199.26 1104.66,1196.74 1106.86,1190.36 1109.06,1180.21 1111.26,1166.51 1113.46,1149.43 1115.66,1129.28 1117.86,1106.35 1120.06,1080.99 1122.25,1053.52 1124.45,1024.42 1126.65,994.059 1128.85,962.866 1131.05,931.252 1133.25,899.599 1135.45,868.184 1137.65,837.133 1139.85,806.554 1142.05,776.463 1144.24,746.718 1146.44,717.277 1148.64,688.093 1150.84,659.26 1153.04,630.873 1155.24,603.114 1157.44,576.237 1159.64,550.4 1161.84,525.822 1164.04,502.666 1166.24,481.064 1168.43,461.216 1170.63,443.215 1172.83,427.333 1175.03,413.758 1177.23,402.701 1179.43,394.49 1181.63,389.129 1183.83,386.997 1186.03,388.049 1188.23,392.528 1190.42,400.287 1192.62,411.531 1194.82,425.908 1197.02,443.272 1199.22,463.287 1201.42,486.246 1203.62,511.612 1205.82,539.061 1208.02,568.631 1210.22,599.976 1212.41,633.084 1214.61,667.595 1216.81,703.192 1219.01,739.603 1221.21,776.755 1223.41,814.401 1225.61,852.332 1227.81,890.281 1230.01,928.082 1232.21,965.644 1234.4,1002.84 1236.6,1039.61 1238.8,1075.82 1241,1111.36 1243.2,1146.21 1245.4,1180.15 1247.6,1212.87 1249.8,1243.74 1252,1272.17 1254.2,1297.61 1256.39,1319.8 1258.59,1338.72 1260.79,1354.49 1262.99,1367.27 1265.19,1376.9 1267.39,1382.82 1269.59,1384.24 1271.79,1380.16 1273.99,1369.74 1276.19,1352.37 1278.38,1327.99 1280.58,1297.07 1282.78,1260.58 1284.98,1219.51 1287.18,1174.82 1289.38,1126.76 1291.58,1075.27 1293.78,1019.76 1295.98,959.866 1298.18,895.779 1300.37,828.42 1302.57,759.477 1304.77,690.918 1306.97,624.46 1309.17,561.343 1311.37,501.929 1313.57,446.13 1315.77,393.491 1317.97,343.733 1320.17,296.967 1322.36,253.793 1324.56,215.128 1326.76,182.3 1328.96,156.499 1331.16,138.492 1333.36,128.566 1335.56,126.187 1337.76,130.442 1339.96,140.137 1342.16,154.185 1344.36,172.069 1346.55,193.417 1348.75,218.339 1350.95,246.803 1353.15,278.587 1355.35,313.218 1357.55,350.226 1359.75,389.165 1361.95,429.563 1364.15,471.097 1366.35,513.549 1368.54,556.501 1370.74,599.597 1372.94,642.375 1375.14,684.59 1377.34,725.935 1379.54,766.24 1381.74,805.369 1383.94,843.139 1386.14,879.328 1388.34,913.671 1390.53,945.98 1392.73,976.19 1394.93,1004.21 1397.13,1030.1 1399.33,1053.88 1401.53,1075.72 1403.73,1095.75 1405.93,1114.19 1408.13,1131.2 1410.33,1146.87 1412.52,1161.02 1414.72,1173.39 1416.92,1183.58 1419.12,1191.36 1421.32,1196.6 1423.52,1199.4 1425.72,1199.84 1427.92,1198.14 1430.12,1194.42 1432.32,1188.96 1434.51,1181.91 1436.71,1173.56 1438.91,1164.06 1441.11,1153.7 1443.31,1142.58 1445.51,1130.84 1447.71,1118.35 1449.91,1105.14 1452.11,1090.88 1454.31,1075.48 1456.5,1058.74 1458.7,1040.55 1460.9,1020.98 1463.1,1000.12 1465.3,978.197 1467.5,955.536 1469.7,932.491 1471.9,909.29 1474.1,886.123 1476.3,863.154 1478.49,840.245 1480.69,817.389 1482.89,794.36 1485.09,771.091 1487.29,747.467 1489.49,723.579 1491.69,699.68 1493.89,676.034 1496.09,653.054 1498.29,630.945 1500.48,609.853 1502.68,589.796 1504.88,570.818 1507.08,552.951 1509.28,536.227 1511.48,520.624 1513.68,506.074 1515.88,492.535 1518.08,480.058 1520.28,468.776 1522.47,458.791 1524.67,450.213 1526.87,443.11 1529.07,437.48 1531.27,433.312 1533.47,430.625 1535.67,429.49 1537.87,430.119 1540.07,432.743 1542.27,437.516 1544.47,444.434 1546.66,453.451 1548.86,464.459 1551.06,477.531 1553.26,492.661 1555.46,509.844 1557.66,528.77 1559.86,549.032 1562.06,570.274 1564.26,592.056 1566.46,614.206 1568.65,636.697 1570.85,659.261 1573.05,681.754 1575.25,704.248 1577.45,726.468 1579.65,748.42 1581.85,769.983 1584.05,790.785 1586.25,811.285 1588.45,831.467 1590.64,851.41 1592.84,870.571 1595.04,889.071 1597.24,906.645 1599.44,923.391 1601.64,938.967 1603.84,953.635 1606.04,967.256 1608.24,980.13 1610.44,992.287 1612.63,1003.8 1614.83,1014.67 1617.03,1024.93 1619.23,1034.74 1621.43,1044.29 1623.63,1053.78 1625.83,1063.4 1628.03,1073.25 1630.23,1083.15 1632.43,1093 1634.62,1102.67 1636.82,1111.78 1639.02,1120.13 1641.22,1127.57 1643.42,1133.95 1645.62,1139.11 1647.82,1142.86 1650.02,1144.97 1652.22,1145.21 1654.42,1143.17 1656.61,1138.57 1658.81,1131.15 1661.01,1120.71 1663.21,1107.13 1665.41,1090.5 1667.61,1071.05 1669.81,1049.06 1672.01,1024.77 1674.21,998.533 1676.41,970.619 1678.6,941.162 1680.8,910.264 1683,878.041 1685.2,844.625 1687.4,810.203 1689.6,775.068 1691.8,739.631 1694,704.261 1696.2,669.207 1698.4,634.617 1700.59,600.701 1702.79,567.564 1704.99,535.514 1707.19,505.03 1709.39,476.687 1711.59,451.067 1713.79,428.419 1715.99,408.822 1718.19,392.092 1720.39,377.91 1722.59,366.195 1724.78,357.047 1726.98,350.764 1729.18,347.622 1731.38,347.652 1733.58,350.721 1735.78,356.399 1737.98,364.33 1740.18,374.395 1742.38,386.637 1744.58,401.323 1746.77,418.578 1748.97,438.33 1751.17,460.208 1753.37,483.639 1755.57,508.231 1757.77,533.746 1759.97,560.205 1762.17,587.7 1764.37,616.3 1766.57,645.906 1768.76,676.175 1770.96,706.62 1773.16,736.831 1775.36,766.543 1777.56,795.66 1779.76,824.196 1781.96,852.252 1784.16,879.91 1786.36,907.201 1788.56,934.016 1790.75,960.267 1792.95,985.852 1795.15,1010.74 1797.35,1034.89 1799.55,1058.31 1801.75,1080.95 1803.95,1102.66 1806.15,1123.16 1808.35,1142.24 1810.55,1159.66 1812.74,1175.15 1814.94,1188.66 1817.14,1200.26 1819.34,1209.94 1821.54,1217.83 1823.74,1223.61 1825.94,1226.98 1828.14,1227.48 1830.34,1224.57 1832.54,1218.04 1834.73,1207.56 1836.93,1193.17 1839.13,1174.95 1841.33,1152.99 1843.53,1127.24 1845.73,1097.7 1847.93,1064.45 1850.13,1027.81 1852.33,988.14 1854.53,946 1856.72,902.073 1858.92,856.983 1861.12,811.274 1863.32,765.48 1865.52,720.211 1867.72,676.054 1869.92,633.56 1872.12,593.228 1874.32,555.368 1876.52,520.094 1878.71,487.477 1880.91,457.708 1883.11,431.002 1885.31,407.718 1887.51,388.141 1889.71,372.551 1891.91,361.021 1894.11,353.468 1896.31,349.709 1898.51,349.537 1900.71,352.885 1902.9,359.859 1905.1,370.63 1907.3,385.363 1909.5,404.028 1911.7,426.458 1913.9,452.272 1916.1,481.059 1918.3,512.369 1920.5,545.992 1922.7,581.873 1924.89,620.068 1927.09,660.608 1929.29,703.289 1931.49,747.614 1933.69,792.68 1935.89,837.474 1938.09,880.963 1940.29,922.397 1942.49,961.165 1944.69,996.951 1946.88,1029.59 1949.08,1059.02 1951.28,1085.12 1953.48,1107.59 1955.68,1125.94 1957.88,1139.72 1960.08,1148.23 1962.28,1151.17 1964.48,1148.56 1966.68,1140.48 1968.87,1127.38 1971.07,1109.5 1973.27,1087.41 1975.47,1061.4 1977.67,1031.92 1979.87,999.34 1982.07,963.952 1984.27,926.425 1986.47,887.564 1988.67,848.415 1990.86,810.059 1993.06,773.591 1995.26,740.017 1997.46,710.038 1999.66,684.178 2001.86,662.646 2004.06,645.417 2006.26,632.312 2008.46,623.226 2010.66,618.048 2012.85,616.703 2015.05,619.006 2017.25,624.734 2019.45,633.499 2021.65,644.807 2023.85,658.153 2026.05,673.017 2028.25,688.977 2030.45,705.75 2032.65,723.065 2034.84,740.66 2037.04,758.144 2039.24,775.197 2041.44,791.477 2043.64,806.551 2045.84,820.122 2048.04,831.884 2050.24,841.641 2052.44,849.197 2054.64,854.579 2056.83,857.877 2059.03,859.335 2061.23,859.166 2063.43,857.793 2065.63,855.396 2067.83,852.292 2070.03,848.573 2072.23,844.226 2074.43,839.273 2076.63,833.667 2078.82,827.298 2081.02,820.003 2083.22,811.849 2085.42,802.851 2087.62,793.203 2089.82,783.177 2092.02,772.888 2094.22,762.738 2096.42,752.724 2098.62,743.132 2100.82,734.035 2103.01,725.515 2105.21,717.719 2107.41,710.854 2109.61,705.097 2111.81,700.642 2114.01,697.634 2116.21,696.24 2118.41,696.392 2120.61,698.017 2122.81,701.018 2125,705.162 2127.2,710.286 2129.4,716.172 2131.6,722.701 2133.8,729.633 2136,736.794 2138.2,743.984 2140.4,751.045 2142.6,757.915 2144.8,764.631 2146.99,771.228 2149.19,777.804 2151.39,784.395 2153.59,791.065 2155.79,797.78 2157.99,804.545 2160.19,811.249 2162.39,817.735 2164.59,823.77 2166.79,829.172 2168.98,833.81 2171.18,837.715 2173.38,840.936 2175.58,843.454 2177.78,845.43 2179.98,847.004 2182.18,848.103 2184.38,848.646 2186.58,848.949 2188.78,849.123 2190.97,849.133 2193.17,848.839 2195.37,848.69 2197.57,848.338 2199.77,847.879 2201.97,847.984 2204.17,848.047 2206.37,847.817 2208.57,847.183 2210.77,846.255 2212.96,845.103 2215.16,844.011 2217.36,842.598 2219.56,841.02 2221.76,839.35 2223.96,837.489 2226.16,835.533 2228.36,833.381 2230.56,831.446 2232.76,830.033 2234.95,829.319 2237.15,829.433 2239.35,830.294 2241.55,831.851 2243.75,834.083 2245.95,836.884 2248.15,840.268 2250.35,843.98 2252.55,847.774 2254.75,851.434 2256.94,854.866 2259.14,858.065 2261.34,861.02 2263.54,863.62 2265.74,865.678 2267.94,866.891 2270.14,867.024 2272.34,865.947 2274.54,863.599 2276.74,860.042 2278.94,855.239 2281.13,849.15 2283.33,841.657 2285.53,832.703 2287.73,822.264 2289.93,810.407 2292.13,797.201 "/>
<polyline clip-path="url(#clip352)" style="stroke:#4a7945; stroke-linecap:round; stroke-linejoin:round; stroke-width:8; stroke-opacity:1; fill:none" points="271.237,672.739 273.436,658.115 275.635,660.554 277.834,658.769 280.033,662.605 282.232,664.283 284.431,669.108 286.63,672.549 288.829,677.928 291.028,682.451 293.227,688.179 295.426,693.396 297.625,699.478 299.824,705.42 302.023,711.999 304.222,718.637 306.421,725.7 308.62,732.848 310.819,739.982 313.018,746.643 315.217,752.271 317.416,755.798 319.615,756.794 321.814,754.594 324.014,750.508 326.213,744.459 328.412,737.921 330.611,730.361 332.81,722.796 335.009,714.442 337.208,706.211 339.407,697.542 341.606,689.136 343.805,680.472 346.004,672.051 348.203,663.495 350.402,655.108 352.601,646.596 354.8,638.111 356.999,629.568 359.198,621.013 361.397,612.444 363.596,603.812 365.795,595.202 367.994,586.406 370.193,577.653 372.392,568.636 374.591,559.786 376.79,550.792 378.989,542.261 381.188,533.802 383.387,525.922 385.586,518.081 387.785,510.792 389.984,503.505 392.183,496.786 394.382,490.166 396.581,484.242 398.78,478.542 400.979,473.561 403.178,468.775 405.377,464.577 407.576,460.42 409.775,456.679 411.974,452.963 414.173,449.667 416.372,446.536 418.571,443.892 420.77,441.517 422.969,439.567 425.168,437.859 427.367,436.464 429.566,435.275 431.765,434.285 433.964,433.574 436.163,433.125 438.362,433.022 440.561,433.204 442.76,433.636 444.959,434.152 447.158,434.741 449.357,435.028 451.556,435.375 453.755,435.476 455.954,435.835 458.153,436.257 460.352,437.18 462.551,438.402 464.75,440.01 466.949,441.529 469.148,443.093 471.347,444.037 473.546,444.556 475.745,444.394 477.944,443.998 480.143,442.962 482.342,441.618 484.541,439.823 486.74,437.808 488.939,435.341 491.138,432.552 493.337,429.297 495.536,425.764 497.735,421.683 499.934,417.253 502.133,412.301 504.332,407.001 506.531,401.276 508.731,395.255 510.93,388.957 513.129,382.528 515.328,375.972 517.527,369.367 519.726,362.769 521.925,356.313 524.124,350.07 526.323,344.072 528.522,338.42 530.721,333.146 532.92,328.365 535.119,323.949 537.318,319.968 539.517,316.194 541.716,312.637 543.915,309.046 546.114,305.546 548.313,301.856 550.512,298.134 552.711,294.196 554.91,290.175 557.109,285.883 559.308,281.388 561.507,276.762 563.706,272.238 565.905,267.747 568.104,263.519 570.303,259.446 572.502,255.835 574.701,252.504 576.9,249.776 579.099,247.367 581.298,245.633 583.497,244.329 585.696,243.623 587.895,243.123 590.094,242.755 592.293,242.418 594.492,242.151 596.691,241.917 598.89,241.742 601.089,241.891 603.288,242.446 605.487,243.539 607.686,244.927 609.885,246.709 612.084,248.67 614.283,250.816 616.482,252.984 618.681,255.317 620.88,257.704 623.079,260.326 625.278,263.14 627.477,266.461 629.676,270.311 631.875,274.889 634.074,280.081 636.273,285.96 638.472,292.318 640.671,299.232 642.87,306.497 645.069,314.206 647.268,322.207 649.467,330.496 651.666,338.884 653.865,347.329 656.064,355.705 658.263,364.037 660.462,372.258 662.661,380.495 664.86,388.689 667.059,396.884 669.258,404.936 671.457,412.81 673.656,420.414 675.855,427.792 678.054,435.028 680.253,442.134 682.452,449.123 684.651,455.937 686.85,462.564 689.049,468.942 691.248,475.128 693.448,481.209 695.647,487.196 697.846,493.026 700.045,498.801 702.244,504.373 704.443,509.809 706.642,515.108 708.841,520.444 711.04,525.732 713.239,531.087 715.438,536.335 717.637,541.575 719.836,546.508 722.035,551.141 724.234,555.396 726.433,559.509 728.632,563.476 730.831,567.574 733.03,571.764 735.229,576.195 737.428,580.653 739.627,585.12 741.826,589.43 744.025,593.565 746.224,597.459 748.423,601.225 750.622,604.843 752.821,608.342 755.02,611.599 757.219,614.533 759.418,616.869 761.617,618.358 763.816,618.66 766.015,617.615 768.214,615.087 770.413,611.171 772.612,606.045 774.811,599.912 777.01,592.877 779.209,585.089 781.408,576.623 783.607,567.6 785.806,558.004 788.005,547.984 790.204,537.635 792.403,526.952 794.602,515.92 796.801,504.446 799,492.659 801.199,480.589 803.398,468.332 805.597,456.078 807.796,443.941 809.995,432.059 812.194,420.555 814.393,409.445 816.592,398.925 818.791,388.936 820.99,379.462 823.189,370.415 825.388,361.612 827.587,353.05 829.786,344.758 831.985,336.689 834.184,329.051 836.383,321.878 838.582,315.308 840.781,309.256 842.98,303.686 845.179,298.508 847.378,293.565 849.577,288.785 851.776,284.274 853.975,280.116 856.174,276.476 858.373,273.291 860.572,270.56 862.771,268.068 864.97,265.805 867.169,263.822 869.368,262.309 871.567,261.419 873.766,261.25 875.965,261.797 878.165,262.842 880.364,264.102 882.563,265.284 884.762,266.212 886.961,266.893 889.16,267.368 891.359,267.798 893.558,268.321 895.757,268.984 897.956,269.821 900.155,270.866 902.354,272.268 904.553,274.142 906.752,276.593 908.951,279.592 911.15,283.102 913.349,286.886 915.548,290.718 917.747,294.449 919.946,297.941 922.145,301.417 924.344,305.085 926.543,309.141 928.742,313.841 930.941,319.157 933.14,325.195 935.339,331.677 937.538,338.453 939.737,345.571 941.936,352.896 944.135,360.129 946.334,367.462 948.533,374.932 950.732,382.903 952.931,390.684 955.13,398.689 957.329,406.884 959.528,415.343 961.727,423.793 963.926,432.25 966.125,441.019 968.324,449.526 970.523,458.134 972.722,466.426 974.921,474.542 977.12,482.213 979.319,489.242 981.518,495.622 983.717,501.196 985.916,505.763 988.115,509.321 990.314,511.649 992.513,512.88 994.712,512.955 996.911,511.991 999.11,510.012 1001.31,507.15 1003.51,503.542 1005.71,499.325 1007.91,494.6 1010.11,489.622 1012.3,484.491 1014.5,479.377 1016.7,474.268 1018.9,469.234 1021.1,464.144 1023.3,458.857 1025.5,453.226 1027.7,447.248 1029.9,440.996 1032.1,434.604 1034.29,428.201 1036.49,421.923 1038.69,415.848 1040.89,410.062 1043.09,404.544 1045.29,399.316 1047.49,394.374 1049.69,389.611 1051.89,384.999 1054.09,380.464 1056.28,376.09 1058.48,371.877 1060.68,367.906 1062.88,364.412 1065.08,361.557 1067.28,359.411 1069.48,358.066 1071.68,357.515 1073.88,357.762 1076.08,358.508 1078.27,359.665 1080.47,361.068 1082.67,362.565 1084.87,364.136 1087.07,365.82 1089.27,367.607 1091.47,369.572 1093.67,371.7 1095.87,374.093 1098.07,376.626 1100.26,379.255 1102.46,381.932 1104.66,384.569 1106.86,387.165 1109.06,389.792 1111.26,392.44 1113.46,395.163 1115.66,397.957 1117.86,400.807 1120.06,403.727 1122.25,406.73 1124.45,409.8 1126.65,412.867 1128.85,415.95 1131.05,418.932 1133.25,421.761 1135.45,424.251 1137.65,426.356 1139.85,427.977 1142.05,429.024 1144.24,429.432 1146.44,429.298 1148.64,428.626 1150.84,427.573 1153.04,426.127 1155.24,424.456 1157.44,422.548 1159.64,420.439 1161.84,418.127 1164.04,415.614 1166.24,412.858 1168.43,409.917 1170.63,406.706 1172.83,403.38 1175.03,399.885 1177.23,396.315 1179.43,392.769 1181.63,389.123 1183.83,385.618 1186.03,382.112 1188.23,378.801 1190.42,375.526 1192.62,372.533 1194.82,369.653 1197.02,366.848 1199.22,363.882 1201.42,361.043 1203.62,358.39 1205.82,355.476 1208.02,352.587 1210.22,349.531 1212.41,346.461 1214.61,343.395 1216.81,340.293 1219.01,336.994 1221.21,333.515 1223.41,329.878 1225.61,326.081 1227.81,322.088 1230.01,317.8 1232.21,313.15 1234.4,308.119 1236.6,302.626 1238.8,296.72 1241,290.287 1243.2,283.326 1245.4,275.895 1247.6,268.178 1249.8,260.45 1252,252.843 1254.2,245.442 1256.39,238.112 1258.59,230.615 1260.79,222.65 1262.99,213.922 1265.19,204.36 1267.39,194.123 1269.59,183.51 1271.79,173.002 1273.99,163.046 1276.19,154.088 1278.38,146.382 1280.58,139.972 1282.78,134.542 1284.98,129.703 1287.18,124.785 1289.38,119.395 1291.58,113.268 1293.78,106.581 1295.98,99.9229 1298.18,93.9932 1300.37,89.4907 1302.57,86.8962 1304.77,86.1857 1306.97,87.0836 1309.17,88.9456 1311.37,91.0643 1313.57,92.8744 1315.77,93.9983 1317.97,94.4454 1320.17,94.5075 1322.36,94.6322 1324.56,95.347 1326.76,97.2937 1328.96,100.836 1331.16,106.116 1333.36,113.077 1335.56,121.245 1337.76,130.121 1339.96,139.084 1342.16,147.614 1344.36,155.629 1346.55,163.043 1348.75,170.175 1350.95,177.284 1353.15,184.543 1355.35,191.927 1357.55,199.385 1359.75,206.875 1361.95,214.326 1364.15,221.647 1366.35,228.993 1368.54,236.353 1370.74,243.782 1372.94,251.174 1375.14,258.495 1377.34,265.708 1379.54,272.756 1381.74,279.668 1383.94,286.517 1386.14,293.335 1388.34,300.17 1390.53,306.909 1392.73,313.534 1394.93,319.96 1397.13,326.129 1399.33,331.946 1401.53,337.345 1403.73,342.235 1405.93,346.563 1408.13,350.308 1410.33,353.581 1412.52,356.605 1414.72,359.605 1416.92,362.827 1419.12,366.366 1421.32,370.227 1423.52,374.321 1425.72,378.583 1427.92,382.921 1430.12,387.304 1432.32,391.606 1434.51,395.816 1436.71,399.793 1438.91,403.512 1441.11,406.796 1443.31,409.621 1445.51,411.853 1447.71,413.576 1449.91,414.724 1452.11,415.486 1454.31,415.97 1456.5,416.315 1458.7,416.745 1460.9,417.33 1463.1,418.167 1465.3,419.343 1467.5,420.811 1469.7,422.467 1471.9,424.143 1474.1,425.794 1476.3,427.155 1478.49,428.185 1480.69,428.803 1482.89,429.005 1485.09,428.89 1487.29,428.546 1489.49,428.229 1491.69,428.056 1493.89,428.156 1496.09,428.582 1498.29,429.199 1500.48,429.948 1502.68,430.692 1504.88,431.441 1507.08,432.122 1509.28,432.74 1511.48,433.184 1513.68,433.427 1515.88,433.421 1518.08,433.259 1520.28,432.995 1522.47,432.683 1524.67,432.339 1526.87,431.977 1529.07,431.527 1531.27,430.957 1533.47,430.24 1535.67,429.395 1537.87,428.551 1540.07,427.854 1542.27,427.425 1544.47,427.249 1546.66,427.336 1548.86,427.579 1551.06,428.102 1553.26,428.961 1555.46,430.361 1557.66,432.301 1559.86,434.694 1562.06,437.42 1564.26,440.333 1566.46,443.185 1568.65,446.138 1570.85,449.093 1573.05,451.966 1575.25,454.762 1577.45,457.621 1579.65,460.265 1581.85,463.094 1584.05,465.578 1586.25,467.765 1588.45,469.695 1590.64,471.738 1592.84,473.88 1595.04,476.028 1597.24,478.206 1599.44,480.392 1601.64,482.622 1603.84,484.628 1606.04,486.516 1608.24,487.978 1610.44,489.182 1612.63,490.028 1614.83,490.599 1617.03,490.794 1619.23,490.521 1621.43,489.632 1623.63,488.027 1625.83,485.625 1628.03,482.447 1630.23,478.672 1632.43,474.334 1634.62,469.502 1636.82,464.426 1639.02,459.113 1641.22,453.571 1643.42,447.793 1645.62,441.774 1647.82,435.533 1650.02,429.094 1652.22,422.487 1654.42,415.888 1656.61,409.397 1658.81,403.151 1661.01,397.239 1663.21,391.826 1665.41,386.952 1667.61,382.596 1669.81,378.653 1672.01,375.115 1674.21,371.851 1676.41,368.721 1678.6,365.623 1680.8,362.574 1683,359.556 1685.2,356.647 1687.4,353.887 1689.6,351.416 1691.8,349.22 1694,347.268 1696.2,345.403 1698.4,343.626 1700.59,341.884 1702.79,340.215 1704.99,338.787 1707.19,337.815 1709.39,337.458 1711.59,337.796 1713.79,338.633 1715.99,339.83 1718.19,341.057 1720.39,342.103 1722.59,342.955 1724.78,343.741 1726.98,344.688 1729.18,345.988 1731.38,347.642 1733.58,349.588 1735.78,351.542 1737.98,353.261 1740.18,354.7 1742.38,355.877 1744.58,357.072 1746.77,358.501 1748.97,360.35 1751.17,362.594 1753.37,365.017 1755.57,367.342 1757.77,369.42 1759.97,371.144 1762.17,372.664 1764.37,374.096 1766.57,375.729 1768.76,377.634 1770.96,379.845 1773.16,382.132 1775.36,384.379 1777.56,386.341 1779.76,387.964 1781.96,389.114 1784.16,389.879 1786.36,390.259 1788.56,390.408 1790.75,390.255 1792.95,389.871 1795.15,389.131 1797.35,388.09 1799.55,386.628 1801.75,384.876 1803.95,382.853 1806.15,380.733 1808.35,378.487 1810.55,376.236 1812.74,373.97 1814.94,371.587 1817.14,368.899 1819.34,365.848 1821.54,362.191 1823.74,358.113 1825.94,353.681 1828.14,349.085 1830.34,344.616 1832.54,340.267 1834.73,336.268 1836.93,332.528 1839.13,329.026 1841.33,325.613 1843.53,322.395 1845.73,319.396 1847.93,316.859 1850.13,314.753 1852.33,313.246 1854.53,312.322 1856.72,312.016 1858.92,312.127 1861.12,312.702 1863.32,313.636 1865.52,315.055 1867.72,316.799 1869.92,318.952 1872.12,321.292 1874.32,323.763 1876.52,326.08 1878.71,328.314 1880.91,330.404 1883.11,332.509 1885.31,334.677 1887.51,337.024 1889.71,339.547 1891.91,342.212 1894.11,344.849 1896.31,347.337 1898.51,349.514 1900.71,351.353 1902.9,352.953 1905.1,354.436 1907.3,356.014 1909.5,357.731 1911.7,359.692 1913.9,361.748 1916.1,363.859 1918.3,365.733 1920.5,367.308 1922.7,368.459 1924.89,369.361 1927.09,370.134 1929.29,371.17 1931.49,372.663 1933.69,374.939 1935.89,377.903 1938.09,381.594 1940.29,385.668 1942.49,390.096 1944.69,394.482 1946.88,398.811 1949.08,402.823 1951.28,406.663 1953.48,410.344 1955.68,414.157 1957.88,418.134 1960.08,422.67 1962.28,427.71 1964.48,433.177 1966.68,439.068 1968.87,445.132 1971.07,451.453 1973.27,457.783 1975.47,464.195 1977.67,470.619 1979.87,477.132 1982.07,483.859 1984.27,491.059 1986.47,498.689 1988.67,506.969 1990.86,515.687 1993.06,525.01 1995.26,534.596 1997.46,544.485 1999.66,554.35 2001.86,564.18 2004.06,573.654 2006.26,582.843 2008.46,591.649 2010.66,600.221 2012.85,608.544 2015.05,616.697 2017.25,624.681 2019.45,632.474 2021.65,640.015 2023.85,647.214 2026.05,654.056 2028.25,660.395 2030.45,666.378 2032.65,671.908 2034.84,677.229 2037.04,682.19 2039.24,686.966 2041.44,691.447 2043.64,695.824 2045.84,699.881 2048.04,703.829 2050.24,707.476 2052.44,711.017 2054.64,714.22 2056.83,717.21 2059.03,719.81 2061.23,722.112 2063.43,723.92 2065.63,725.313 2067.83,726.213 2070.03,726.552 2072.23,726.52 2074.43,725.974 2076.63,725.11 2078.82,723.749 2081.02,722.277 2083.22,720.516 2085.42,718.776 2087.62,716.936 2089.82,715.192 2092.02,713.361 2094.22,711.719 2096.42,709.867 2098.62,708.231 2100.82,706.39 2103.01,704.656 2105.21,702.818 2107.41,701.171 2109.61,699.565 2111.81,698.213 2114.01,697.049 2116.21,696.238 2118.41,695.701 2120.61,695.405 2122.81,695.444 2125,695.619 2127.2,696.086 2129.4,696.585 2131.6,697.388 2133.8,698.188 2136,699.245 2138.2,700.188 2140.4,701.275 2142.6,702.04 2144.8,702.858 2146.99,703.29 2149.19,703.796 2151.39,703.964 2153.59,704.31 2155.79,704.43 2157.99,704.848 2160.19,705.212 2162.39,706.064 2164.59,707.004 2166.79,708.468 2168.98,709.953 2171.18,711.768 2173.38,713.475 2175.58,715.457 2177.78,717.18 2179.98,719.019 2182.18,720.759 2184.38,722.721 2186.58,724.32 2188.78,725.896 2190.97,727.271 2193.17,728.792 2195.37,729.831 2197.57,731.08 2199.77,732.076 2201.97,732.526 2204.17,732.926 2206.37,733.575 2208.57,734.442 2210.77,735.486 2212.96,736.627 2215.16,737.602 2217.36,738.827 2219.56,740.122 2221.76,741.524 2223.96,743.028 2226.16,744.754 2228.36,746.659 2230.56,748.694 2232.76,750.247 2234.95,751.357 2237.15,751.518 2239.35,750.977 2241.55,749.565 2243.75,747.475 2245.95,744.687 2248.15,741.32 2250.35,737.478 2252.55,733.514 2254.75,729.393 2256.94,725.41 2259.14,721.16 2261.34,717.022 2263.54,712.387 2265.74,708.038 2267.94,703.165 2270.14,699.09 2272.34,694.41 2274.54,690.998 2276.74,686.563 2278.94,683.816 2281.13,679.392 2283.33,677.57 2285.53,673.154 2287.73,673.464 2289.93,669.068 2292.13,678.797 "/>
<polyline clip-path="url(#clip352)" style="stroke:#dfba53; stroke-linecap:round; stroke-linejoin:round; stroke-width:4; stroke-opacity:1; fill:none" stroke-dasharray="16, 10" points="271.237,790.873 273.436,790.873 275.635,790.873 277.834,790.873 280.033,790.873 282.232,790.873 284.431,790.873 286.63,790.873 288.829,790.873 291.028,790.873 293.227,790.873 295.426,790.873 297.625,790.873 299.824,790.873 302.023,790.873 304.222,790.873 306.421,790.873 308.62,790.873 310.819,790.873 313.018,790.873 315.217,790.873 317.416,790.873 319.615,790.873 321.814,790.873 324.014,790.873 326.213,790.873 328.412,790.873 330.611,790.873 332.81,790.873 335.009,790.873 337.208,790.873 339.407,790.873 341.606,790.873 343.805,790.873 346.004,790.873 348.203,790.873 350.402,790.873 352.601,790.873 354.8,790.873 356.999,790.873 359.198,790.873 361.397,790.873 363.596,790.873 365.795,790.873 367.994,790.873 370.193,790.873 372.392,790.873 374.591,790.873 376.79,790.873 378.989,790.873 381.188,790.873 383.387,790.873 385.586,790.873 387.785,790.873 389.984,790.873 392.183,790.873 394.382,790.873 396.581,790.873 398.78,790.873 400.979,790.873 403.178,790.873 405.377,790.873 407.576,790.873 409.775,790.873 411.974,790.873 414.173,790.873 416.372,790.873 418.571,790.873 420.77,790.873 422.969,790.873 425.168,790.873 427.367,790.873 429.566,790.873 431.765,790.873 433.964,790.873 436.163,790.873 438.362,790.873 440.561,790.873 442.76,790.873 444.959,790.873 447.158,790.873 449.357,790.873 451.556,790.873 453.755,790.873 455.954,790.873 458.153,790.873 460.352,790.873 462.551,790.873 464.75,790.873 466.949,790.873 469.148,790.873 471.347,790.873 473.546,790.873 475.745,790.873 477.944,790.873 480.143,790.873 482.342,790.873 484.541,790.873 486.74,790.873 488.939,790.873 491.138,790.873 493.337,790.873 495.536,790.873 497.735,790.873 499.934,790.873 502.133,790.873 504.332,790.873 506.531,790.873 508.731,790.873 510.93,790.873 513.129,790.873 515.328,790.873 517.527,790.873 519.726,790.873 521.925,790.873 524.124,790.873 526.323,790.873 528.522,790.873 530.721,790.873 532.92,790.873 535.119,790.873 537.318,790.873 539.517,790.873 541.716,790.873 543.915,790.873 546.114,790.873 548.313,790.873 550.512,790.873 552.711,790.873 554.91,790.873 557.109,790.873 559.308,790.873 561.507,790.873 563.706,790.873 565.905,790.873 568.104,790.873 570.303,790.873 572.502,790.873 574.701,790.873 576.9,790.873 579.099,790.873 581.298,790.873 583.497,790.873 585.696,790.873 587.895,790.873 590.094,790.873 592.293,790.873 594.492,790.873 596.691,790.873 598.89,790.873 601.089,790.873 603.288,790.873 605.487,790.873 607.686,790.873 609.885,790.873 612.084,790.873 614.283,790.873 616.482,790.873 618.681,790.873 620.88,790.873 623.079,790.873 625.278,790.873 627.477,790.873 629.676,790.873 631.875,790.873 634.074,790.873 636.273,790.873 638.472,790.873 640.671,790.873 642.87,790.873 645.069,790.873 647.268,790.873 649.467,790.873 651.666,790.873 653.865,790.873 656.064,790.873 658.263,790.873 660.462,790.873 662.661,790.873 664.86,790.873 667.059,790.873 669.258,790.873 671.457,790.873 673.656,790.873 675.855,790.873 678.054,790.873 680.253,790.873 682.452,790.873 684.651,790.873 686.85,790.873 689.049,790.873 691.248,790.873 693.448,790.873 695.647,790.873 697.846,790.873 700.045,790.873 702.244,790.873 704.443,790.873 706.642,790.873 708.841,790.873 711.04,790.873 713.239,790.873 715.438,790.873 717.637,790.873 719.836,790.873 722.035,790.873 724.234,790.873 726.433,790.873 728.632,790.873 730.831,790.873 733.03,790.873 735.229,790.873 737.428,790.873 739.627,790.873 741.826,790.873 744.025,790.873 746.224,790.873 748.423,790.873 750.622,790.873 752.821,790.873 755.02,790.873 757.219,790.873 759.418,790.873 761.617,790.873 763.816,790.873 766.015,790.873 768.214,790.873 770.413,790.873 772.612,790.873 774.811,790.873 777.01,790.873 779.209,790.873 781.408,790.873 783.607,790.873 785.806,790.873 788.005,790.873 790.204,790.873 792.403,790.873 794.602,790.873 796.801,790.873 799,790.873 801.199,790.873 803.398,790.873 805.597,790.873 807.796,790.873 809.995,790.873 812.194,790.873 814.393,790.873 816.592,790.873 818.791,790.873 820.99,790.873 823.189,790.873 825.388,790.873 827.587,790.873 829.786,790.873 831.985,790.873 834.184,790.873 836.383,790.873 838.582,790.873 840.781,790.873 842.98,790.873 845.179,790.873 847.378,790.873 849.577,790.873 851.776,790.873 853.975,790.873 856.174,790.873 858.373,790.873 860.572,790.873 862.771,790.873 864.97,790.873 867.169,790.873 869.368,790.873 871.567,790.873 873.766,790.873 875.965,790.873 878.165,790.873 880.364,790.873 882.563,790.873 884.762,790.873 886.961,790.873 889.16,790.873 891.359,790.873 893.558,790.873 895.757,790.873 897.956,790.873 900.155,790.873 902.354,790.873 904.553,790.873 906.752,790.873 908.951,790.873 911.15,790.873 913.349,790.873 915.548,790.873 917.747,790.873 919.946,790.873 922.145,790.873 924.344,790.873 926.543,790.873 928.742,790.873 930.941,790.873 933.14,790.873 935.339,790.873 937.538,790.873 939.737,790.873 941.936,790.873 944.135,790.873 946.334,790.873 948.533,790.873 950.732,790.873 952.931,790.873 955.13,790.873 957.329,790.873 959.528,790.873 961.727,790.873 963.926,790.873 966.125,790.873 968.324,790.873 970.523,790.873 972.722,790.873 974.921,790.873 977.12,790.873 979.319,790.873 981.518,790.873 983.717,790.873 985.916,790.873 988.115,790.873 990.314,790.873 992.513,790.873 994.712,790.873 996.911,790.873 999.11,790.873 1001.31,790.873 1003.51,790.873 1005.71,790.873 1007.91,790.873 1010.11,790.873 1012.3,790.873 1014.5,790.873 1016.7,790.873 1018.9,790.873 1021.1,790.873 1023.3,790.873 1025.5,790.873 1027.7,790.873 1029.9,790.873 1032.1,790.873 1034.29,790.873 1036.49,790.873 1038.69,790.873 1040.89,790.873 1043.09,790.873 1045.29,790.873 1047.49,790.873 1049.69,790.873 1051.89,790.873 1054.09,790.873 1056.28,790.873 1058.48,790.873 1060.68,790.873 1062.88,790.873 1065.08,790.873 1067.28,790.873 1069.48,790.873 1071.68,790.873 1073.88,790.873 1076.08,790.873 1078.27,790.873 1080.47,790.873 1082.67,790.873 1084.87,790.873 1087.07,790.873 1089.27,790.873 1091.47,790.873 1093.67,790.873 1095.87,790.873 1098.07,790.873 1100.26,790.873 1102.46,790.873 1104.66,790.873 1106.86,790.873 1109.06,790.873 1111.26,790.873 1113.46,790.873 1115.66,790.873 1117.86,790.873 1120.06,790.873 1122.25,790.873 1124.45,790.873 1126.65,790.873 1128.85,790.873 1131.05,790.873 1133.25,790.873 1135.45,790.873 1137.65,790.873 1139.85,790.873 1142.05,790.873 1144.24,790.873 1146.44,790.873 1148.64,790.873 1150.84,790.873 1153.04,790.873 1155.24,790.873 1157.44,790.873 1159.64,790.873 1161.84,790.873 1164.04,790.873 1166.24,790.873 1168.43,790.873 1170.63,790.873 1172.83,790.873 1175.03,790.873 1177.23,790.873 1179.43,790.873 1181.63,790.873 1183.83,790.873 1186.03,790.873 1188.23,790.873 1190.42,790.873 1192.62,790.873 1194.82,790.873 1197.02,790.873 1199.22,790.873 1201.42,790.873 1203.62,790.873 1205.82,790.873 1208.02,790.873 1210.22,790.873 1212.41,790.873 1214.61,790.873 1216.81,790.873 1219.01,790.873 1221.21,790.873 1223.41,790.873 1225.61,790.873 1227.81,790.873 1230.01,790.873 1232.21,790.873 1234.4,790.873 1236.6,790.873 1238.8,790.873 1241,790.873 1243.2,790.873 1245.4,790.873 1247.6,790.873 1249.8,790.873 1252,790.873 1254.2,790.873 1256.39,790.873 1258.59,790.873 1260.79,790.873 1262.99,790.873 1265.19,790.873 1267.39,790.873 1269.59,790.873 1271.79,790.873 1273.99,790.873 1276.19,790.873 1278.38,790.873 1280.58,790.873 1282.78,790.873 1284.98,790.873 1287.18,790.873 1289.38,790.873 1291.58,790.873 1293.78,790.873 1295.98,790.873 1298.18,790.873 1300.37,790.873 1302.57,790.873 1304.77,790.873 1306.97,790.873 1309.17,790.873 1311.37,790.873 1313.57,790.873 1315.77,790.873 1317.97,790.873 1320.17,790.873 1322.36,790.873 1324.56,790.873 1326.76,790.873 1328.96,790.873 1331.16,790.873 1333.36,790.873 1335.56,790.873 1337.76,790.873 1339.96,790.873 1342.16,790.873 1344.36,790.873 1346.55,790.873 1348.75,790.873 1350.95,790.873 1353.15,790.873 1355.35,790.873 1357.55,790.873 1359.75,790.873 1361.95,790.873 1364.15,790.873 1366.35,790.873 1368.54,790.873 1370.74,790.873 1372.94,790.873 1375.14,790.873 1377.34,790.873 1379.54,790.873 1381.74,790.873 1383.94,790.873 1386.14,790.873 1388.34,790.873 1390.53,790.873 1392.73,790.873 1394.93,790.873 1397.13,790.873 1399.33,790.873 1401.53,790.873 1403.73,790.873 1405.93,790.873 1408.13,790.873 1410.33,790.873 1412.52,790.873 1414.72,790.873 1416.92,790.873 1419.12,790.873 1421.32,790.873 1423.52,790.873 1425.72,790.873 1427.92,790.873 1430.12,790.873 1432.32,790.873 1434.51,790.873 1436.71,790.873 1438.91,790.873 1441.11,790.873 1443.31,790.873 1445.51,790.873 1447.71,790.873 1449.91,790.873 1452.11,790.873 1454.31,790.873 1456.5,790.873 1458.7,790.873 1460.9,790.873 1463.1,790.873 1465.3,790.873 1467.5,790.873 1469.7,790.873 1471.9,790.873 1474.1,790.873 1476.3,790.873 1478.49,790.873 1480.69,790.873 1482.89,790.873 1485.09,790.873 1487.29,790.873 1489.49,790.873 1491.69,790.873 1493.89,790.873 1496.09,790.873 1498.29,790.873 1500.48,790.873 1502.68,790.873 1504.88,790.873 1507.08,790.873 1509.28,790.873 1511.48,790.873 1513.68,790.873 1515.88,790.873 1518.08,790.873 1520.28,790.873 1522.47,790.873 1524.67,790.873 1526.87,790.873 1529.07,790.873 1531.27,790.873 1533.47,790.873 1535.67,790.873 1537.87,790.873 1540.07,790.873 1542.27,790.873 1544.47,790.873 1546.66,790.873 1548.86,790.873 1551.06,790.873 1553.26,790.873 1555.46,790.873 1557.66,790.873 1559.86,790.873 1562.06,790.873 1564.26,790.873 1566.46,790.873 1568.65,790.873 1570.85,790.873 1573.05,790.873 1575.25,790.873 1577.45,790.873 1579.65,790.873 1581.85,790.873 1584.05,790.873 1586.25,790.873 1588.45,790.873 1590.64,790.873 1592.84,790.873 1595.04,790.873 1597.24,790.873 1599.44,790.873 1601.64,790.873 1603.84,790.873 1606.04,790.873 1608.24,790.873 1610.44,790.873 1612.63,790.873 1614.83,790.873 1617.03,790.873 1619.23,790.873 1621.43,790.873 1623.63,790.873 1625.83,790.873 1628.03,790.873 1630.23,790.873 1632.43,790.873 1634.62,790.873 1636.82,790.873 1639.02,790.873 1641.22,790.873 1643.42,790.873 1645.62,790.873 1647.82,790.873 1650.02,790.873 1652.22,790.873 1654.42,790.873 1656.61,790.873 1658.81,790.873 1661.01,790.873 1663.21,790.873 1665.41,790.873 1667.61,790.873 1669.81,790.873 1672.01,790.873 1674.21,790.873 1676.41,790.873 1678.6,790.873 1680.8,790.873 1683,790.873 1685.2,790.873 1687.4,790.873 1689.6,790.873 1691.8,790.873 1694,790.873 1696.2,790.873 1698.4,790.873 1700.59,790.873 1702.79,790.873 1704.99,790.873 1707.19,790.873 1709.39,790.873 1711.59,790.873 1713.79,790.873 1715.99,790.873 1718.19,790.873 1720.39,790.873 1722.59,790.873 1724.78,790.873 1726.98,790.873 1729.18,790.873 1731.38,790.873 1733.58,790.873 1735.78,790.873 1737.98,790.873 1740.18,790.873 1742.38,790.873 1744.58,790.873 1746.77,790.873 1748.97,790.873 1751.17,790.873 1753.37,790.873 1755.57,790.873 1757.77,790.873 1759.97,790.873 1762.17,790.873 1764.37,790.873 1766.57,790.873 1768.76,790.873 1770.96,790.873 1773.16,790.873 1775.36,790.873 1777.56,790.873 1779.76,790.873 1781.96,790.873 1784.16,790.873 1786.36,790.873 1788.56,790.873 1790.75,790.873 1792.95,790.873 1795.15,790.873 1797.35,790.873 1799.55,790.873 1801.75,790.873 1803.95,790.873 1806.15,790.873 1808.35,790.873 1810.55,790.873 1812.74,790.873 1814.94,790.873 1817.14,790.873 1819.34,790.873 1821.54,790.873 1823.74,790.873 1825.94,790.873 1828.14,790.873 1830.34,790.873 1832.54,790.873 1834.73,790.873 1836.93,790.873 1839.13,790.873 1841.33,790.873 1843.53,790.873 1845.73,790.873 1847.93,790.873 1850.13,790.873 1852.33,790.873 1854.53,790.873 1856.72,790.873 1858.92,790.873 1861.12,790.873 1863.32,790.873 1865.52,790.873 1867.72,790.873 1869.92,790.873 1872.12,790.873 1874.32,790.873 1876.52,790.873 1878.71,790.873 1880.91,790.873 1883.11,790.873 1885.31,790.873 1887.51,790.873 1889.71,790.873 1891.91,790.873 1894.11,790.873 1896.31,790.873 1898.51,790.873 1900.71,790.873 1902.9,790.873 1905.1,790.873 1907.3,790.873 1909.5,790.873 1911.7,790.873 1913.9,790.873 1916.1,790.873 1918.3,790.873 1920.5,790.873 1922.7,790.873 1924.89,790.873 1927.09,790.873 1929.29,790.873 1931.49,790.873 1933.69,790.873 1935.89,790.873 1938.09,790.873 1940.29,790.873 1942.49,790.873 1944.69,790.873 1946.88,790.873 1949.08,790.873 1951.28,790.873 1953.48,790.873 1955.68,790.873 1957.88,790.873 1960.08,790.873 1962.28,790.873 1964.48,790.873 1966.68,790.873 1968.87,790.873 1971.07,790.873 1973.27,790.873 1975.47,790.873 1977.67,790.873 1979.87,790.873 1982.07,790.873 1984.27,790.873 1986.47,790.873 1988.67,790.873 1990.86,790.873 1993.06,790.873 1995.26,790.873 1997.46,790.873 1999.66,790.873 2001.86,790.873 2004.06,790.873 2006.26,790.873 2008.46,790.873 2010.66,790.873 2012.85,790.873 2015.05,790.873 2017.25,790.873 2019.45,790.873 2021.65,790.873 2023.85,790.873 2026.05,790.873 2028.25,790.873 2030.45,790.873 2032.65,790.873 2034.84,790.873 2037.04,790.873 2039.24,790.873 2041.44,790.873 2043.64,790.873 2045.84,790.873 2048.04,790.873 2050.24,790.873 2052.44,790.873 2054.64,790.873 2056.83,790.873 2059.03,790.873 2061.23,790.873 2063.43,790.873 2065.63,790.873 2067.83,790.873 2070.03,790.873 2072.23,790.873 2074.43,790.873 2076.63,790.873 2078.82,790.873 2081.02,790.873 2083.22,790.873 2085.42,790.873 2087.62,790.873 2089.82,790.873 2092.02,790.873 2094.22,790.873 2096.42,790.873 2098.62,790.873 2100.82,790.873 2103.01,790.873 2105.21,790.873 2107.41,790.873 2109.61,790.873 2111.81,790.873 2114.01,790.873 2116.21,790.873 2118.41,790.873 2120.61,790.873 2122.81,790.873 2125,790.873 2127.2,790.873 2129.4,790.873 2131.6,790.873 2133.8,790.873 2136,790.873 2138.2,790.873 2140.4,790.873 2142.6,790.873 2144.8,790.873 2146.99,790.873 2149.19,790.873 2151.39,790.873 2153.59,790.873 2155.79,790.873 2157.99,790.873 2160.19,790.873 2162.39,790.873 2164.59,790.873 2166.79,790.873 2168.98,790.873 2171.18,790.873 2173.38,790.873 2175.58,790.873 2177.78,790.873 2179.98,790.873 2182.18,790.873 2184.38,790.873 2186.58,790.873 2188.78,790.873 2190.97,790.873 2193.17,790.873 2195.37,790.873 2197.57,790.873 2199.77,790.873 2201.97,790.873 2204.17,790.873 2206.37,790.873 2208.57,790.873 2210.77,790.873 2212.96,790.873 2215.16,790.873 2217.36,790.873 2219.56,790.873 2221.76,790.873 2223.96,790.873 2226.16,790.873 2228.36,790.873 2230.56,790.873 2232.76,790.873 2234.95,790.873 2237.15,790.873 2239.35,790.873 2241.55,790.873 2243.75,790.873 2245.95,790.873 2248.15,790.873 2250.35,790.873 2252.55,790.873 2254.75,790.873 2256.94,790.873 2259.14,790.873 2261.34,790.873 2263.54,790.873 2265.74,790.873 2267.94,790.873 2270.14,790.873 2272.34,790.873 2274.54,790.873 2276.74,790.873 2278.94,790.873 2281.13,790.873 2283.33,790.873 2285.53,790.873 2287.73,790.873 2289.93,790.873 2292.13,790.873 "/>
<path clip-path="url(#clip350)" d="M1899.87 1377.32 L2281.35 1377.32 L2281.35 1169.96 L1899.87 1169.96  Z" fill="#ffffff" fill-rule="evenodd" fill-opacity="1"/>
<polyline clip-path="url(#clip350)" style="stroke:#000000; stroke-linecap:round; stroke-linejoin:round; stroke-width:4; stroke-opacity:1; fill:none" points="1899.87,1377.32 2281.35,1377.32 2281.35,1169.96 1899.87,1169.96 1899.87,1377.32 "/>
<polyline clip-path="url(#clip350)" style="stroke:#ba3d3a; stroke-linecap:round; stroke-linejoin:round; stroke-width:8; stroke-opacity:1; fill:none" points="1923.67,1221.8 2066.48,1221.8 "/>
<path clip-path="url(#clip350)" d="M2112.7 1217.6 Q2112.7 1218.91 2112.3 1220.39 L2106.84 1242.1 Q2106.35 1244.02 2104.88 1244.02 Q2104.27 1244.02 2103.89 1243.65 Q2103.54 1243.3 2103.54 1242.73 Q2103.54 1242.55 2103.68 1241.96 L2109.14 1219.9 Q2109.63 1217.88 2109.63 1216.88 Q2109.63 1213.53 2107.03 1213.53 Q2104.73 1213.53 2102.44 1215.21 Q2101.39 1216.06 2100.35 1217.58 Q2099.35 1219.08 2099.16 1219.62 Q2098.95 1220.83 2098.64 1221.77 Q2098.5 1222.43 2097.83 1224.98 L2096.77 1229.31 Q2096.02 1232.55 2095.86 1232.85 Q2095.62 1233.51 2095.11 1233.86 Q2094.59 1234.21 2094.08 1234.21 Q2093.49 1234.21 2093.09 1233.86 Q2092.7 1233.51 2092.7 1232.9 Q2092.7 1232.8 2092.77 1232.45 Q2092.84 1232.1 2092.95 1231.61 Q2093.07 1231.12 2093.12 1230.84 L2095.9 1219.76 Q2096.42 1217.74 2096.54 1217.11 Q2096.68 1216.45 2096.68 1215.73 Q2096.68 1214.46 2096.28 1214 Q2095.88 1213.53 2095.18 1213.53 Q2093.96 1213.53 2093.16 1214.98 Q2092.37 1216.43 2091.69 1219.24 Q2091.48 1220.02 2091.34 1220.18 Q2091.22 1220.34 2090.87 1220.34 Q2090.28 1220.32 2090.28 1219.85 Q2090.28 1219.73 2090.47 1218.98 Q2090.66 1218.21 2091.01 1217.09 Q2091.38 1215.94 2091.78 1215.21 Q2092.02 1214.72 2092.23 1214.39 Q2092.44 1214.07 2092.86 1213.55 Q2093.28 1213.04 2093.91 1212.75 Q2094.55 1212.47 2095.32 1212.47 Q2097.03 1212.47 2098.29 1213.57 Q2099.58 1214.67 2099.75 1216.64 Q2100.24 1215.92 2100.87 1215.26 Q2101.53 1214.6 2102.44 1213.95 Q2103.35 1213.27 2104.59 1212.87 Q2105.84 1212.47 2107.17 1212.47 Q2109.84 1212.47 2111.27 1213.85 Q2112.7 1215.21 2112.7 1217.6 Z" fill="#000000" fill-rule="nonzero" fill-opacity="1" /><path clip-path="url(#clip350)" d="M2119.63 1221.68 Q2119.63 1213.57 2122.65 1207.04 Q2123.94 1204.3 2125.74 1202 Q2127.55 1199.71 2128.74 1198.7 Q2129.94 1197.69 2130.26 1197.69 Q2130.73 1197.69 2130.76 1198.16 Q2130.76 1198.4 2130.12 1198.98 Q2122.39 1206.85 2122.42 1221.68 Q2122.42 1236.55 2129.94 1244.12 Q2130.76 1244.94 2130.76 1245.19 Q2130.76 1245.66 2130.26 1245.66 Q2129.94 1245.66 2128.79 1244.7 Q2127.64 1243.74 2125.86 1241.54 Q2124.08 1239.34 2122.79 1236.64 Q2119.63 1230.11 2119.63 1221.68 Z" fill="#000000" fill-rule="nonzero" fill-opacity="1" /><path clip-path="url(#clip350)" d="M2149.13 1213.53 Q2149.13 1214.18 2148.83 1214.35 Q2148.52 1214.49 2147.68 1214.49 L2143.18 1214.49 L2139.62 1228.63 Q2139.34 1229.88 2139.34 1230.93 Q2139.34 1232.1 2139.69 1232.62 Q2140.07 1233.13 2140.84 1233.13 Q2142.36 1233.13 2144 1231.75 Q2145.66 1230.37 2147.07 1226.99 Q2147.26 1226.55 2147.35 1226.46 Q2147.47 1226.34 2147.77 1226.34 Q2148.36 1226.34 2148.36 1226.81 Q2148.36 1226.97 2148.03 1227.72 Q2147.73 1228.47 2147.05 1229.57 Q2146.39 1230.67 2145.52 1231.7 Q2144.68 1232.73 2143.39 1233.48 Q2142.1 1234.21 2140.72 1234.21 Q2138.78 1234.21 2137.54 1232.97 Q2136.32 1231.73 2136.32 1229.78 Q2136.32 1229.15 2136.81 1227.14 Q2137.3 1225.1 2139.97 1214.49 L2135.73 1214.49 Q2135.15 1214.49 2134.91 1214.46 Q2134.7 1214.44 2134.54 1214.32 Q2134.4 1214.18 2134.4 1213.9 Q2134.4 1213.46 2134.59 1213.27 Q2134.77 1213.06 2135.01 1213.04 Q2135.26 1212.99 2135.85 1212.99 L2140.35 1212.99 L2142.22 1205.38 Q2142.41 1204.63 2142.88 1204.2 Q2143.37 1203.76 2143.65 1203.71 Q2143.93 1203.64 2144.14 1203.64 Q2144.77 1203.64 2145.15 1203.99 Q2145.52 1204.32 2145.52 1204.93 Q2145.52 1205.26 2143.56 1212.99 L2147.77 1212.99 Q2148.31 1212.99 2148.52 1213.01 Q2148.76 1213.04 2148.94 1213.15 Q2149.13 1213.27 2149.13 1213.53 Z" fill="#000000" fill-rule="nonzero" fill-opacity="1" /><path clip-path="url(#clip350)" d="M2152.88 1245.19 Q2152.88 1244.96 2153.49 1244.37 Q2161.22 1236.5 2161.22 1221.68 Q2161.22 1206.8 2153.8 1199.29 Q2152.88 1198.42 2152.88 1198.16 Q2152.88 1197.69 2153.35 1197.69 Q2153.68 1197.69 2154.83 1198.65 Q2156 1199.61 2157.75 1201.82 Q2159.53 1204.02 2160.85 1206.71 Q2164.01 1213.25 2164.01 1221.68 Q2164.01 1229.78 2160.99 1236.32 Q2159.7 1239.06 2157.89 1241.35 Q2156.09 1243.65 2154.9 1244.66 Q2153.7 1245.66 2153.35 1245.66 Q2152.88 1245.66 2152.88 1245.19 Z" fill="#000000" fill-rule="nonzero" fill-opacity="1" /><polyline clip-path="url(#clip350)" style="stroke:#4a7945; stroke-linecap:round; stroke-linejoin:round; stroke-width:8; stroke-opacity:1; fill:none" points="1923.67,1273.64 2066.48,1273.64 "/>
<path clip-path="url(#clip350)" d="M2114.95 1278.65 Q2114.34 1281.67 2113.52 1283.4 Q2112.18 1286.05 2109.96 1286.05 Q2108.41 1286.05 2107.24 1285.18 Q2106.09 1284.29 2105.69 1282.82 Q2105.25 1283.4 2104.85 1283.8 Q2104.48 1284.2 2103.75 1284.81 Q2103.02 1285.39 2102.04 1285.72 Q2101.08 1286.05 2099.98 1286.05 Q2099.14 1286.05 2098.36 1285.89 Q2097.59 1285.74 2096.77 1285.35 Q2095.97 1284.92 2095.39 1284.29 Q2094.83 1283.66 2094.45 1282.63 Q2094.08 1281.6 2094.08 1280.29 Q2094.08 1278.65 2094.71 1276.42 Q2095.37 1274.2 2096.86 1270.22 Q2097.68 1268.11 2097.68 1266.94 Q2097.68 1266.4 2097.57 1266.05 Q2097.45 1265.69 2097.22 1265.58 Q2097.01 1265.44 2096.86 1265.41 Q2096.72 1265.37 2096.49 1265.37 Q2095.04 1265.37 2093.77 1266.84 Q2092.51 1268.32 2091.64 1271.32 Q2091.45 1271.9 2091.34 1272.04 Q2091.22 1272.18 2090.87 1272.18 Q2090.28 1272.16 2090.28 1271.69 Q2090.28 1271.5 2090.49 1270.78 Q2090.7 1270.03 2091.2 1268.93 Q2091.71 1267.8 2092.41 1266.8 Q2093.12 1265.77 2094.22 1265.04 Q2095.34 1264.31 2096.63 1264.31 Q2098.39 1264.31 2099.46 1265.46 Q2100.57 1266.58 2100.57 1268.25 Q2100.57 1269.28 2099.75 1271.27 Q2097.15 1278.18 2097.15 1281.06 Q2097.15 1284.97 2100.12 1284.97 Q2101.1 1284.97 2102.02 1284.57 Q2102.95 1284.18 2103.56 1283.61 Q2104.17 1283.05 2104.64 1282.44 Q2105.13 1281.83 2105.34 1281.43 Q2105.58 1281.04 2105.6 1280.94 L2109.18 1266.51 Q2109.33 1265.95 2109.58 1265.58 Q2109.86 1265.18 2110.19 1265.04 Q2110.52 1264.9 2110.71 1264.88 Q2110.89 1264.83 2111.06 1264.83 Q2111.64 1264.83 2112.04 1265.18 Q2112.46 1265.53 2112.46 1266.14 Q2112.46 1266.26 2112.32 1266.82 Q2112.21 1267.36 2112.02 1268.15 Q2111.83 1268.93 2111.74 1269.35 Q2110.99 1272.3 2110.92 1272.6 L2109.58 1277.78 Q2109.51 1278.09 2109.28 1279.07 Q2109.07 1280.05 2108.95 1280.57 Q2108.83 1281.06 2108.72 1281.74 Q2108.62 1282.4 2108.62 1282.77 Q2108.62 1283.94 2108.97 1284.46 Q2109.33 1284.97 2110.1 1284.97 Q2110.82 1284.97 2111.39 1284.48 Q2111.97 1283.96 2112.42 1282.98 Q2112.86 1281.97 2113.12 1281.15 Q2113.38 1280.33 2113.71 1279.05 Q2113.82 1278.48 2113.92 1278.34 Q2114.03 1278.18 2114.36 1278.18 Q2114.95 1278.18 2114.95 1278.65 Z" fill="#000000" fill-rule="nonzero" fill-opacity="1" /><path clip-path="url(#clip350)" d="M2120.51 1273.52 Q2120.51 1265.41 2123.54 1258.88 Q2124.82 1256.14 2126.63 1253.84 Q2128.43 1251.55 2129.63 1250.54 Q2130.82 1249.53 2131.15 1249.53 Q2131.62 1249.53 2131.64 1250 Q2131.64 1250.24 2131.01 1250.82 Q2123.28 1258.69 2123.3 1273.52 Q2123.3 1288.39 2130.82 1295.96 Q2131.64 1296.78 2131.64 1297.03 Q2131.64 1297.5 2131.15 1297.5 Q2130.82 1297.5 2129.67 1296.54 Q2128.52 1295.58 2126.74 1293.38 Q2124.96 1291.18 2123.68 1288.48 Q2120.51 1281.95 2120.51 1273.52 Z" fill="#000000" fill-rule="nonzero" fill-opacity="1" /><path clip-path="url(#clip350)" d="M2150.01 1265.37 Q2150.01 1266.02 2149.71 1266.19 Q2149.41 1266.33 2148.56 1266.33 L2144.07 1266.33 L2140.51 1280.47 Q2140.22 1281.72 2140.22 1282.77 Q2140.22 1283.94 2140.58 1284.46 Q2140.95 1284.97 2141.72 1284.97 Q2143.25 1284.97 2144.89 1283.59 Q2146.55 1282.21 2147.95 1278.83 Q2148.14 1278.39 2148.23 1278.3 Q2148.35 1278.18 2148.66 1278.18 Q2149.24 1278.18 2149.24 1278.65 Q2149.24 1278.81 2148.91 1279.56 Q2148.61 1280.31 2147.93 1281.41 Q2147.27 1282.51 2146.41 1283.54 Q2145.56 1284.57 2144.28 1285.32 Q2142.99 1286.05 2141.61 1286.05 Q2139.66 1286.05 2138.42 1284.81 Q2137.2 1283.57 2137.2 1281.62 Q2137.2 1280.99 2137.69 1278.98 Q2138.19 1276.94 2140.86 1266.33 L2136.62 1266.33 Q2136.03 1266.33 2135.8 1266.3 Q2135.59 1266.28 2135.42 1266.16 Q2135.28 1266.02 2135.28 1265.74 Q2135.28 1265.3 2135.47 1265.11 Q2135.66 1264.9 2135.89 1264.88 Q2136.15 1264.83 2136.73 1264.83 L2141.23 1264.83 L2143.11 1257.22 Q2143.29 1256.47 2143.76 1256.04 Q2144.25 1255.6 2144.53 1255.55 Q2144.81 1255.48 2145.03 1255.48 Q2145.66 1255.48 2146.03 1255.83 Q2146.41 1256.16 2146.41 1256.77 Q2146.41 1257.1 2144.44 1264.83 L2148.66 1264.83 Q2149.19 1264.83 2149.41 1264.85 Q2149.64 1264.88 2149.83 1264.99 Q2150.01 1265.11 2150.01 1265.37 Z" fill="#000000" fill-rule="nonzero" fill-opacity="1" /><path clip-path="url(#clip350)" d="M2153.77 1297.03 Q2153.77 1296.8 2154.37 1296.21 Q2162.1 1288.34 2162.1 1273.52 Q2162.1 1258.64 2154.68 1251.13 Q2153.77 1250.26 2153.77 1250 Q2153.77 1249.53 2154.23 1249.53 Q2154.56 1249.53 2155.71 1250.49 Q2156.88 1251.45 2158.64 1253.66 Q2160.42 1255.86 2161.73 1258.55 Q2164.89 1265.09 2164.89 1273.52 Q2164.89 1281.62 2161.87 1288.16 Q2160.58 1290.9 2158.78 1293.19 Q2156.97 1295.49 2155.78 1296.5 Q2154.59 1297.5 2154.23 1297.5 Q2153.77 1297.5 2153.77 1297.03 Z" fill="#000000" fill-rule="nonzero" fill-opacity="1" /><polyline clip-path="url(#clip350)" style="stroke:#dfba53; stroke-linecap:round; stroke-linejoin:round; stroke-width:4; stroke-opacity:1; fill:none" stroke-dasharray="16, 10" points="1923.67,1325.48 2066.48,1325.48 "/>
<path clip-path="url(#clip350)" d="M2090.28 1326.57 Q2090.28 1319.14 2092.16 1315.09 Q2094.78 1309.06 2100.95 1309.06 Q2102.26 1309.06 2103.62 1309.43 Q2105.01 1309.78 2106.74 1311.14 Q2108.49 1312.49 2109.55 1314.72 Q2111.58 1319.02 2111.58 1326.57 Q2111.58 1333.96 2109.7 1337.99 Q2106.96 1343.87 2100.91 1343.87 Q2098.63 1343.87 2096.31 1342.71 Q2094.01 1341.54 2092.56 1338.75 Q2090.28 1334.58 2090.28 1326.57 M2094.48 1325.96 Q2094.48 1333.59 2095.03 1336.63 Q2095.64 1339.91 2097.32 1341.35 Q2099.03 1342.76 2100.91 1342.76 Q2102.93 1342.76 2104.61 1341.25 Q2106.32 1339.72 2106.83 1336.43 Q2107.4 1333.2 2107.38 1325.96 Q2107.38 1318.92 2106.88 1316.1 Q2106.22 1312.81 2104.44 1311.51 Q2102.68 1310.17 2100.91 1310.17 Q2100.24 1310.17 2099.52 1310.37 Q2098.83 1310.57 2097.82 1311.14 Q2096.8 1311.7 2096.01 1313.11 Q2095.25 1314.52 2094.88 1316.64 Q2094.48 1319.39 2094.48 1325.96 Z" fill="#000000" fill-rule="nonzero" fill-opacity="1" /><path clip-path="url(#clip350)" d="M2132.11 1342.09 L2132.11 1335.42 Q2132.11 1334.85 2132.13 1334.65 Q2132.16 1334.45 2132.3 1334.31 Q2132.45 1334.16 2132.75 1334.16 Q2133.09 1334.16 2133.22 1334.31 Q2133.37 1334.45 2133.46 1335.02 Q2134.23 1338.51 2135.86 1340.36 Q2137.52 1342.19 2140.5 1342.19 Q2143.35 1342.19 2144.78 1340.93 Q2146.21 1339.67 2146.21 1337.59 Q2146.21 1333.89 2140.95 1332.95 Q2137.91 1332.33 2136.65 1331.94 Q2135.39 1331.52 2134.28 1330.6 Q2132.11 1328.82 2132.11 1326.3 Q2132.11 1323.78 2134.01 1321.93 Q2135.93 1320.08 2140.18 1320.08 Q2143.02 1320.08 2144.95 1321.51 Q2145.52 1321.07 2145.82 1320.7 Q2146.48 1320.08 2146.83 1320.08 Q2147.22 1320.08 2147.3 1320.35 Q2147.37 1320.6 2147.37 1321.31 L2147.37 1326.4 Q2147.37 1326.97 2147.35 1327.17 Q2147.32 1327.37 2147.17 1327.51 Q2147.03 1327.64 2146.71 1327.64 Q2146.14 1327.64 2146.11 1327.17 Q2145.72 1321.04 2140.18 1321.04 Q2137.19 1321.04 2135.86 1322.2 Q2134.53 1323.34 2134.53 1324.89 Q2134.53 1325.76 2134.92 1326.43 Q2135.34 1327.07 2135.86 1327.46 Q2136.4 1327.83 2137.39 1328.21 Q2138.38 1328.55 2138.97 1328.67 Q2139.59 1328.8 2140.75 1329.04 Q2144.8 1329.81 2146.51 1331.47 Q2148.63 1333.59 2148.63 1336.28 Q2148.63 1339.27 2146.61 1341.3 Q2144.58 1343.32 2140.5 1343.32 Q2137.22 1343.32 2134.92 1341.12 Q2134.63 1341.42 2134.4 1341.69 Q2134.18 1341.94 2134.08 1342.04 Q2134.01 1342.14 2133.98 1342.21 Q2133.96 1342.26 2133.91 1342.31 Q2132.9 1343.32 2132.65 1343.32 Q2132.25 1343.32 2132.18 1343.05 Q2132.11 1342.8 2132.11 1342.09 Z" fill="#000000" fill-rule="nonzero" fill-opacity="1" /><path clip-path="url(#clip350)" d="M2151.3 1322.52 L2151.3 1321.41 Q2153.62 1321.31 2155.15 1319.68 Q2156.71 1318.03 2157.23 1316 Q2157.77 1313.98 2157.82 1311.63 L2159.08 1311.63 L2159.08 1320.94 L2166.32 1320.94 L2166.32 1322.52 L2159.08 1322.52 L2159.08 1336.58 Q2159.08 1342.04 2162.49 1342.04 Q2163.95 1342.04 2164.91 1340.56 Q2165.88 1339.05 2165.88 1336.38 L2165.88 1333.59 L2167.14 1333.59 L2167.14 1336.48 Q2167.14 1339.22 2165.88 1341.27 Q2164.62 1343.32 2162.12 1343.32 Q2161.21 1343.32 2160.29 1343.08 Q2159.4 1342.85 2158.22 1342.26 Q2157.06 1341.64 2156.32 1340.16 Q2155.6 1338.65 2155.6 1336.48 L2155.6 1322.52 L2151.3 1322.52 Z" fill="#000000" fill-rule="nonzero" fill-opacity="1" /><path clip-path="url(#clip350)" d="M2171.68 1331.89 Q2171.68 1327.07 2175.04 1323.73 Q2178.4 1320.4 2182.95 1320.4 Q2186.8 1320.4 2189.32 1323.54 L2189.32 1312.59 Q2189.32 1310.72 2188.65 1310.25 Q2188.01 1309.78 2185.39 1309.78 L2185.39 1308.2 L2192.68 1307.65 L2192.68 1338.36 Q2192.68 1340.24 2193.32 1340.73 Q2193.99 1341.2 2196.61 1341.2 L2196.61 1342.76 L2189.17 1343.32 L2189.17 1339.96 Q2186.55 1343.3 2182.4 1343.32 Q2178.05 1343.32 2174.87 1339.99 Q2171.68 1336.65 2171.68 1331.89 M2175.88 1331.94 Q2175.88 1336.63 2177.34 1338.95 Q2179.36 1342.19 2182.65 1342.19 Q2186.4 1342.19 2188.63 1338.65 Q2189.2 1337.79 2189.17 1336.78 L2189.17 1326.4 Q2189.17 1325.39 2188.63 1324.55 Q2186.55 1321.51 2183.17 1321.51 Q2179.64 1321.51 2177.44 1324.75 Q2175.88 1327.17 2175.88 1331.94 Z" fill="#000000" fill-rule="nonzero" fill-opacity="1" /><path clip-path="url(#clip350)" d="M2203.03 1330.11 Q2203.03 1321.56 2206.22 1314.67 Q2207.57 1311.78 2209.48 1309.36 Q2211.38 1306.94 2212.64 1305.87 Q2213.9 1304.81 2214.24 1304.81 Q2214.74 1304.81 2214.76 1305.31 Q2214.76 1305.55 2214.1 1306.17 Q2205.94 1314.47 2205.97 1330.11 Q2205.97 1345.79 2213.9 1353.77 Q2214.76 1354.64 2214.76 1354.91 Q2214.76 1355.4 2214.24 1355.4 Q2213.9 1355.4 2212.69 1354.39 Q2211.48 1353.38 2209.6 1351.06 Q2207.72 1348.73 2206.36 1345.89 Q2203.03 1339 2203.03 1330.11 Z" fill="#000000" fill-rule="nonzero" fill-opacity="1" /><path clip-path="url(#clip350)" d="M2219.46 1322.57 Q2219.46 1321.46 2220.32 1320.67 Q2221.21 1319.88 2222.27 1319.88 Q2222.99 1319.88 2223.56 1320.2 Q2224.15 1320.5 2224.52 1321.09 Q2224.92 1321.66 2225.16 1322.25 Q2225.41 1322.82 2225.58 1323.68 Q2225.78 1324.55 2225.86 1325.07 Q2225.93 1325.56 2226 1326.33 Q2226.08 1327.07 2226.08 1327.22 Q2226.37 1326.15 2226.84 1325.09 Q2227.34 1324.03 2228.2 1322.75 Q2229.07 1321.46 2230.38 1320.65 Q2231.69 1319.83 2233.22 1319.83 Q2236.06 1319.83 2238.4 1322.97 Q2240.75 1326.11 2240.75 1332.63 L2240.75 1354.29 Q2240.75 1355.21 2240.36 1355.72 Q2239.99 1356.27 2239.64 1356.39 Q2239.29 1356.52 2238.87 1356.52 Q2238.16 1356.52 2237.54 1356 Q2236.95 1355.5 2236.95 1354.29 Q2236.95 1350.71 2238.21 1343.2 Q2239.49 1335.71 2239.49 1332.03 Q2239.49 1326.72 2236.95 1324.55 Q2235.69 1323.44 2234.28 1323.44 Q2233.02 1323.44 2232.01 1324.43 Q2230.99 1325.41 2230.3 1326.9 Q2229.61 1328.38 2228.97 1330.9 Q2228.35 1333.39 2227.95 1335.64 Q2227.58 1337.89 2227.14 1341.2 Q2226.89 1343.82 2225.06 1343.82 Q2224.4 1343.82 2223.8 1343.37 Q2223.24 1342.95 2223.24 1342.09 Q2223.24 1340.83 2224.03 1336.11 Q2224.82 1331.37 2224.82 1330.97 Q2224.82 1326.72 2224.27 1325.22 Q2223.76 1323.68 2222.64 1323.17 Q2222.08 1324.23 2221.11 1324.23 Q2220.4 1324.23 2219.93 1323.76 Q2219.46 1323.29 2219.46 1322.57 Z" fill="#000000" fill-rule="nonzero" fill-opacity="1" /><path clip-path="url(#clip350)" d="M2245.82 1354.91 Q2245.82 1354.66 2246.46 1354.04 Q2254.61 1345.74 2254.61 1330.11 Q2254.61 1314.42 2246.78 1306.49 Q2245.82 1305.58 2245.82 1305.31 Q2245.82 1304.81 2246.31 1304.81 Q2246.66 1304.81 2247.87 1305.82 Q2249.1 1306.84 2250.95 1309.16 Q2252.83 1311.48 2254.21 1314.32 Q2257.55 1321.21 2257.55 1330.11 Q2257.55 1338.65 2254.36 1345.55 Q2253 1348.44 2251.1 1350.86 Q2249.2 1353.28 2247.94 1354.34 Q2246.68 1355.4 2246.31 1355.4 Q2245.82 1355.4 2245.82 1354.91 Z" fill="#000000" fill-rule="nonzero" fill-opacity="1" /></svg>
