<?xml version="1.0" encoding="utf-8"?>
<svg xmlns="http://www.w3.org/2000/svg" xmlns:xlink="http://www.w3.org/1999/xlink" width="600" height="400" viewBox="0 0 2400 1600">
<defs>
  <clipPath id="clip500">
    <rect x="0" y="0" width="2400" height="1600"/>
  </clipPath>
</defs>
<path clip-path="url(#clip500)" d="M0 1600 L2400 1600 L2400 0 L0 0  Z" fill="#ffffff" fill-rule="evenodd" fill-opacity="1"/>
<defs>
  <clipPath id="clip501">
    <rect x="480" y="0" width="1681" height="1600"/>
  </clipPath>
</defs>
<path clip-path="url(#clip500)" d="M210.61 1423.18 L2352.76 1423.18 L2352.76 47.2441 L210.61 47.2441  Z" fill="#ffffff" fill-rule="evenodd" fill-opacity="1"/>
<defs>
  <clipPath id="clip502">
    <rect x="210" y="47" width="2143" height="1377"/>
  </clipPath>
</defs>
<polyline clip-path="url(#clip502)" style="stroke:#000000; stroke-linecap:round; stroke-linejoin:round; stroke-width:2; stroke-opacity:0.1; fill:none" points="455.954,1423.18 455.954,47.2441 "/>
<polyline clip-path="url(#clip502)" style="stroke:#000000; stroke-linecap:round; stroke-linejoin:round; stroke-width:2; stroke-opacity:0.1; fill:none" points="895.757,1423.18 895.757,47.2441 "/>
<polyline clip-path="url(#clip502)" style="stroke:#000000; stroke-linecap:round; stroke-linejoin:round; stroke-width:2; stroke-opacity:0.1; fill:none" points="1335.56,1423.18 1335.56,47.2441 "/>
<polyline clip-path="url(#clip502)" style="stroke:#000000; stroke-linecap:round; stroke-linejoin:round; stroke-width:2; stroke-opacity:0.1; fill:none" points="1775.36,1423.18 1775.36,47.2441 "/>
<polyline clip-path="url(#clip502)" style="stroke:#000000; stroke-linecap:round; stroke-linejoin:round; stroke-width:2; stroke-opacity:0.1; fill:none" points="2215.16,1423.18 2215.16,47.2441 "/>
<polyline clip-path="url(#clip500)" style="stroke:#000000; stroke-linecap:round; stroke-linejoin:round; stroke-width:4; stroke-opacity:1; fill:none" points="210.61,1423.18 2352.76,1423.18 "/>
<polyline clip-path="url(#clip500)" style="stroke:#000000; stroke-linecap:round; stroke-linejoin:round; stroke-width:4; stroke-opacity:1; fill:none" points="455.954,1423.18 455.954,1404.28 "/>
<polyline clip-path="url(#clip500)" style="stroke:#000000; stroke-linecap:round; stroke-linejoin:round; stroke-width:4; stroke-opacity:1; fill:none" points="895.757,1423.18 895.757,1404.28 "/>
<polyline clip-path="url(#clip500)" style="stroke:#000000; stroke-linecap:round; stroke-linejoin:round; stroke-width:4; stroke-opacity:1; fill:none" points="1335.56,1423.18 1335.56,1404.28 "/>
<polyline clip-path="url(#clip500)" style="stroke:#000000; stroke-linecap:round; stroke-linejoin:round; stroke-width:4; stroke-opacity:1; fill:none" points="1775.36,1423.18 1775.36,1404.28 "/>
<polyline clip-path="url(#clip500)" style="stroke:#000000; stroke-linecap:round; stroke-linejoin:round; stroke-width:4; stroke-opacity:1; fill:none" points="2215.16,1423.18 2215.16,1404.28 "/>
<path clip-path="url(#clip500)" d="M446.814 1472.22 Q447.11 1472.51 447.11 1472.93 Q447.11 1473.35 446.814 1473.65 Q446.518 1473.94 446.098 1473.94 L414.428 1473.94 Q414.008 1473.94 413.711 1473.65 Q413.415 1473.35 413.415 1472.93 Q413.415 1472.51 413.711 1472.22 Q414.008 1471.92 414.428 1471.92 L446.098 1471.92 Q446.518 1471.92 446.814 1472.22 Z" fill="#000000" fill-rule="nonzero" fill-opacity="1" /><path clip-path="url(#clip500)" d="M452.446 1477.43 Q452.446 1475.92 453.262 1475.35 Q454.077 1474.76 454.941 1474.76 Q456.102 1474.76 456.769 1475.5 Q457.461 1476.22 457.461 1477.23 Q457.461 1478.24 456.769 1478.98 Q456.102 1479.7 454.941 1479.7 Q454.373 1479.7 454.077 1479.6 Q454.744 1481.92 456.769 1483.6 Q458.82 1485.28 461.512 1485.28 Q464.897 1485.28 466.923 1482 Q468.133 1479.87 468.133 1475.06 Q468.133 1470.81 467.219 1468.68 Q465.811 1465.45 462.921 1465.45 Q458.82 1465.45 456.399 1468.98 Q456.102 1469.42 455.757 1469.45 Q455.263 1469.45 455.139 1469.18 Q455.04 1468.88 455.04 1468.11 L455.04 1453.14 Q455.04 1451.93 455.534 1451.93 Q455.732 1451.93 456.152 1452.08 Q459.339 1453.49 462.871 1453.51 Q466.503 1453.51 469.763 1452.03 Q470.01 1451.88 470.159 1451.88 Q470.653 1451.88 470.677 1452.45 Q470.677 1452.65 470.257 1453.24 Q469.862 1453.81 468.998 1454.58 Q468.133 1455.32 467.021 1456.03 Q465.91 1456.75 464.279 1457.25 Q462.674 1457.71 460.895 1457.71 Q458.77 1457.71 456.597 1457.05 L456.597 1466.9 Q459.215 1464.33 463.019 1464.33 Q467.071 1464.33 469.862 1467.6 Q472.654 1470.86 472.654 1475.4 Q472.654 1480.17 469.343 1483.43 Q466.058 1486.69 461.611 1486.69 Q457.56 1486.69 454.991 1483.8 Q452.446 1480.91 452.446 1477.43 Z" fill="#000000" fill-rule="nonzero" fill-opacity="1" /><path clip-path="url(#clip500)" d="M477.199 1469.4 Q477.199 1461.96 479.077 1457.91 Q481.695 1451.88 487.871 1451.88 Q489.18 1451.88 490.539 1452.26 Q491.922 1452.6 493.652 1453.96 Q495.405 1455.32 496.468 1457.54 Q498.493 1461.84 498.493 1469.4 Q498.493 1476.79 496.616 1480.81 Q493.874 1486.69 487.822 1486.69 Q485.549 1486.69 483.227 1485.53 Q480.929 1484.37 479.472 1481.58 Q477.199 1477.4 477.199 1469.4 M481.399 1468.78 Q481.399 1476.41 481.942 1479.45 Q482.56 1482.74 484.24 1484.17 Q485.944 1485.58 487.822 1485.58 Q489.847 1485.58 491.527 1484.07 Q493.232 1482.54 493.75 1479.26 Q494.319 1476.02 494.294 1468.78 Q494.294 1461.74 493.8 1458.92 Q493.133 1455.64 491.354 1454.33 Q489.6 1453 487.822 1453 Q487.155 1453 486.438 1453.19 Q485.746 1453.39 484.734 1453.96 Q483.721 1454.53 482.93 1455.94 Q482.164 1457.34 481.794 1459.47 Q481.399 1462.21 481.399 1468.78 Z" fill="#000000" fill-rule="nonzero" fill-opacity="1" /><path clip-path="url(#clip500)" d="M886.888 1472.22 Q887.185 1472.51 887.185 1472.93 Q887.185 1473.35 886.888 1473.65 Q886.592 1473.94 886.172 1473.94 L854.502 1473.94 Q854.082 1473.94 853.786 1473.65 Q853.489 1473.35 853.489 1472.93 Q853.489 1472.51 853.786 1472.22 Q854.082 1471.92 854.502 1471.92 L886.172 1471.92 Q886.592 1471.92 886.888 1472.22 Z" fill="#000000" fill-rule="nonzero" fill-opacity="1" /><path clip-path="url(#clip500)" d="M892.52 1485.58 Q892.52 1484.67 892.595 1484.39 Q892.693 1484.12 893.089 1483.7 L902.797 1472.88 Q908.108 1466.9 908.108 1461.69 Q908.108 1458.31 906.33 1455.89 Q904.576 1453.47 901.34 1453.47 Q899.116 1453.47 897.239 1454.82 Q895.361 1456.18 894.497 1458.6 Q894.645 1458.55 895.164 1458.55 Q896.424 1458.55 897.115 1459.34 Q897.832 1460.14 897.832 1461.2 Q897.832 1462.56 896.942 1463.22 Q896.078 1463.87 895.213 1463.87 Q894.867 1463.87 894.398 1463.79 Q893.953 1463.72 893.237 1463.03 Q892.52 1462.31 892.52 1461.05 Q892.52 1457.52 895.188 1454.7 Q897.881 1451.88 901.982 1451.88 Q906.626 1451.88 909.665 1454.65 Q912.728 1457.39 912.728 1461.69 Q912.728 1463.2 912.258 1464.58 Q911.814 1465.94 911.196 1467 Q910.603 1468.07 908.973 1469.77 Q907.342 1471.47 906.033 1472.68 Q904.724 1473.9 901.784 1476.46 L896.424 1481.68 L905.539 1481.68 Q909.986 1481.68 910.332 1481.28 Q910.826 1480.57 911.443 1476.79 L912.728 1476.79 L911.295 1485.58 L892.52 1485.58 Z" fill="#000000" fill-rule="nonzero" fill-opacity="1" /><path clip-path="url(#clip500)" d="M917.817 1477.43 Q917.817 1475.92 918.632 1475.35 Q919.447 1474.76 920.312 1474.76 Q921.473 1474.76 922.14 1475.5 Q922.831 1476.22 922.831 1477.23 Q922.831 1478.24 922.14 1478.98 Q921.473 1479.7 920.312 1479.7 Q919.744 1479.7 919.447 1479.6 Q920.114 1481.92 922.14 1483.6 Q924.19 1485.28 926.883 1485.28 Q930.267 1485.28 932.293 1482 Q933.503 1479.87 933.503 1475.06 Q933.503 1470.81 932.589 1468.68 Q931.181 1465.45 928.291 1465.45 Q924.19 1465.45 921.769 1468.98 Q921.473 1469.42 921.127 1469.45 Q920.633 1469.45 920.509 1469.18 Q920.411 1468.88 920.411 1468.11 L920.411 1453.14 Q920.411 1451.93 920.905 1451.93 Q921.102 1451.93 921.522 1452.08 Q924.709 1453.49 928.242 1453.51 Q931.873 1453.51 935.134 1452.03 Q935.381 1451.88 935.529 1451.88 Q936.023 1451.88 936.048 1452.45 Q936.048 1452.65 935.628 1453.24 Q935.233 1453.81 934.368 1454.58 Q933.503 1455.32 932.392 1456.03 Q931.28 1456.75 929.65 1457.25 Q928.044 1457.71 926.265 1457.71 Q924.141 1457.71 921.967 1457.05 L921.967 1466.9 Q924.585 1464.33 928.39 1464.33 Q932.441 1464.33 935.233 1467.6 Q938.024 1470.86 938.024 1475.4 Q938.024 1480.17 934.714 1483.43 Q931.428 1486.69 926.982 1486.69 Q922.93 1486.69 920.361 1483.8 Q917.817 1480.91 917.817 1477.43 Z" fill="#000000" fill-rule="nonzero" fill-opacity="1" /><path clip-path="url(#clip500)" d="M1324.91 1469.4 Q1324.91 1461.96 1326.79 1457.91 Q1329.41 1451.88 1335.58 1451.88 Q1336.89 1451.88 1338.25 1452.26 Q1339.64 1452.6 1341.36 1453.96 Q1343.12 1455.32 1344.18 1457.54 Q1346.21 1461.84 1346.21 1469.4 Q1346.21 1476.79 1344.33 1480.81 Q1341.59 1486.69 1335.53 1486.69 Q1333.26 1486.69 1330.94 1485.53 Q1328.64 1484.37 1327.18 1481.58 Q1324.91 1477.4 1324.91 1469.4 M1329.11 1468.78 Q1329.11 1476.41 1329.65 1479.45 Q1330.27 1482.74 1331.95 1484.17 Q1333.66 1485.58 1335.53 1485.58 Q1337.56 1485.58 1339.24 1484.07 Q1340.94 1482.54 1341.46 1479.26 Q1342.03 1476.02 1342.01 1468.78 Q1342.01 1461.74 1341.51 1458.92 Q1340.85 1455.64 1339.07 1454.33 Q1337.31 1453 1335.53 1453 Q1334.87 1453 1334.15 1453.19 Q1333.46 1453.39 1332.45 1453.96 Q1331.43 1454.53 1330.64 1455.94 Q1329.88 1457.34 1329.51 1459.47 Q1329.11 1462.21 1329.11 1468.78 Z" fill="#000000" fill-rule="nonzero" fill-opacity="1" /><path clip-path="url(#clip500)" d="M1752.61 1485.58 Q1752.61 1484.67 1752.68 1484.39 Q1752.78 1484.12 1753.18 1483.7 L1762.89 1472.88 Q1768.2 1466.9 1768.2 1461.69 Q1768.2 1458.31 1766.42 1455.89 Q1764.66 1453.47 1761.43 1453.47 Q1759.21 1453.47 1757.33 1454.82 Q1755.45 1456.18 1754.59 1458.6 Q1754.73 1458.55 1755.25 1458.55 Q1756.51 1458.55 1757.2 1459.34 Q1757.92 1460.14 1757.92 1461.2 Q1757.92 1462.56 1757.03 1463.22 Q1756.17 1463.87 1755.3 1463.87 Q1754.96 1463.87 1754.49 1463.79 Q1754.04 1463.72 1753.33 1463.03 Q1752.61 1462.31 1752.61 1461.05 Q1752.61 1457.52 1755.28 1454.7 Q1757.97 1451.88 1762.07 1451.88 Q1766.72 1451.88 1769.75 1454.65 Q1772.82 1457.39 1772.82 1461.69 Q1772.82 1463.2 1772.35 1464.58 Q1771.9 1465.94 1771.29 1467 Q1770.69 1468.07 1769.06 1469.77 Q1767.43 1471.47 1766.12 1472.68 Q1764.81 1473.9 1761.87 1476.46 L1756.51 1481.68 L1765.63 1481.68 Q1770.07 1481.68 1770.42 1481.28 Q1770.91 1480.57 1771.53 1476.79 L1772.82 1476.79 L1771.38 1485.58 L1752.61 1485.58 Z" fill="#000000" fill-rule="nonzero" fill-opacity="1" /><path clip-path="url(#clip500)" d="M1777.91 1477.43 Q1777.91 1475.92 1778.72 1475.35 Q1779.54 1474.76 1780.4 1474.76 Q1781.56 1474.76 1782.23 1475.5 Q1782.92 1476.22 1782.92 1477.23 Q1782.92 1478.24 1782.23 1478.98 Q1781.56 1479.7 1780.4 1479.7 Q1779.83 1479.7 1779.54 1479.6 Q1780.2 1481.92 1782.23 1483.6 Q1784.28 1485.28 1786.97 1485.28 Q1790.36 1485.28 1792.38 1482 Q1793.59 1479.87 1793.59 1475.06 Q1793.59 1470.81 1792.68 1468.68 Q1791.27 1465.45 1788.38 1465.45 Q1784.28 1465.45 1781.86 1468.98 Q1781.56 1469.42 1781.22 1469.45 Q1780.72 1469.45 1780.6 1469.18 Q1780.5 1468.88 1780.5 1468.11 L1780.5 1453.14 Q1780.5 1451.93 1780.99 1451.93 Q1781.19 1451.93 1781.61 1452.08 Q1784.8 1453.49 1788.33 1453.51 Q1791.96 1453.51 1795.22 1452.03 Q1795.47 1451.88 1795.62 1451.88 Q1796.11 1451.88 1796.14 1452.45 Q1796.14 1452.65 1795.72 1453.24 Q1795.32 1453.81 1794.46 1454.58 Q1793.59 1455.32 1792.48 1456.03 Q1791.37 1456.75 1789.74 1457.25 Q1788.13 1457.71 1786.35 1457.71 Q1784.23 1457.71 1782.06 1457.05 L1782.06 1466.9 Q1784.67 1464.33 1788.48 1464.33 Q1792.53 1464.33 1795.32 1467.6 Q1798.11 1470.86 1798.11 1475.4 Q1798.11 1480.17 1794.8 1483.43 Q1791.52 1486.69 1787.07 1486.69 Q1783.02 1486.69 1780.45 1483.8 Q1777.91 1480.91 1777.91 1477.43 Z" fill="#000000" fill-rule="nonzero" fill-opacity="1" /><path clip-path="url(#clip500)" d="M2192.14 1477.43 Q2192.14 1475.92 2192.96 1475.35 Q2193.77 1474.76 2194.64 1474.76 Q2195.8 1474.76 2196.46 1475.5 Q2197.15 1476.22 2197.15 1477.23 Q2197.15 1478.24 2196.46 1478.98 Q2195.8 1479.7 2194.64 1479.7 Q2194.07 1479.7 2193.77 1479.6 Q2194.44 1481.92 2196.46 1483.6 Q2198.51 1485.28 2201.21 1485.28 Q2204.59 1485.28 2206.62 1482 Q2207.83 1479.87 2207.83 1475.06 Q2207.83 1470.81 2206.91 1468.68 Q2205.5 1465.45 2202.61 1465.45 Q2198.51 1465.45 2196.09 1468.98 Q2195.8 1469.42 2195.45 1469.45 Q2194.96 1469.45 2194.83 1469.18 Q2194.73 1468.88 2194.73 1468.11 L2194.73 1453.14 Q2194.73 1451.93 2195.23 1451.93 Q2195.43 1451.93 2195.85 1452.08 Q2199.03 1453.49 2202.57 1453.51 Q2206.2 1453.51 2209.46 1452.03 Q2209.7 1451.88 2209.85 1451.88 Q2210.35 1451.88 2210.37 1452.45 Q2210.37 1452.65 2209.95 1453.24 Q2209.56 1453.81 2208.69 1454.58 Q2207.83 1455.32 2206.72 1456.03 Q2205.6 1456.75 2203.97 1457.25 Q2202.37 1457.71 2200.59 1457.71 Q2198.46 1457.71 2196.29 1457.05 L2196.29 1466.9 Q2198.91 1464.33 2202.71 1464.33 Q2206.76 1464.33 2209.56 1467.6 Q2212.35 1470.86 2212.35 1475.4 Q2212.35 1480.17 2209.04 1483.43 Q2205.75 1486.69 2201.31 1486.69 Q2197.25 1486.69 2194.68 1483.8 Q2192.14 1480.91 2192.14 1477.43 Z" fill="#000000" fill-rule="nonzero" fill-opacity="1" /><path clip-path="url(#clip500)" d="M2216.89 1469.4 Q2216.89 1461.96 2218.77 1457.91 Q2221.39 1451.88 2227.56 1451.88 Q2228.87 1451.88 2230.23 1452.26 Q2231.62 1452.6 2233.35 1453.96 Q2235.1 1455.32 2236.16 1457.54 Q2238.19 1461.84 2238.19 1469.4 Q2238.19 1476.79 2236.31 1480.81 Q2233.57 1486.69 2227.52 1486.69 Q2225.24 1486.69 2222.92 1485.53 Q2220.62 1484.37 2219.17 1481.58 Q2216.89 1477.4 2216.89 1469.4 M2221.09 1468.78 Q2221.09 1476.41 2221.64 1479.45 Q2222.25 1482.74 2223.93 1484.17 Q2225.64 1485.58 2227.52 1485.58 Q2229.54 1485.58 2231.22 1484.07 Q2232.93 1482.54 2233.44 1479.26 Q2234.01 1476.02 2233.99 1468.78 Q2233.99 1461.74 2233.49 1458.92 Q2232.83 1455.64 2231.05 1454.33 Q2229.29 1453 2227.52 1453 Q2226.85 1453 2226.13 1453.19 Q2225.44 1453.39 2224.43 1453.96 Q2223.41 1454.53 2222.62 1455.94 Q2221.86 1457.34 2221.49 1459.47 Q2221.09 1462.21 2221.09 1468.78 Z" fill="#000000" fill-rule="nonzero" fill-opacity="1" /><path clip-path="url(#clip500)" d="M1251.54 1528.17 Q1251.54 1529.07 1251.12 1529.3 Q1250.7 1529.49 1249.54 1529.49 L1243.36 1529.49 L1238.47 1548.94 Q1238.08 1550.65 1238.08 1552.1 Q1238.08 1553.71 1238.56 1554.42 Q1239.08 1555.13 1240.14 1555.13 Q1242.23 1555.13 1244.49 1553.23 Q1246.77 1551.33 1248.71 1546.69 Q1248.96 1546.08 1249.09 1545.95 Q1249.25 1545.79 1249.67 1545.79 Q1250.48 1545.79 1250.48 1546.43 Q1250.48 1546.66 1250.03 1547.69 Q1249.61 1548.72 1248.67 1550.23 Q1247.77 1551.75 1246.58 1553.16 Q1245.42 1554.58 1243.65 1555.61 Q1241.88 1556.61 1239.98 1556.61 Q1237.31 1556.61 1235.6 1554.9 Q1233.92 1553.19 1233.92 1550.52 Q1233.92 1549.65 1234.6 1546.88 Q1235.28 1544.08 1238.95 1529.49 L1233.12 1529.49 Q1232.31 1529.49 1231.99 1529.46 Q1231.7 1529.43 1231.48 1529.27 Q1231.28 1529.07 1231.28 1528.69 Q1231.28 1528.07 1231.54 1527.82 Q1231.8 1527.53 1232.12 1527.49 Q1232.48 1527.43 1233.28 1527.43 L1239.46 1527.43 L1242.04 1516.96 Q1242.3 1515.93 1242.94 1515.35 Q1243.62 1514.74 1244.01 1514.68 Q1244.39 1514.58 1244.68 1514.58 Q1245.55 1514.58 1246.07 1515.06 Q1246.58 1515.51 1246.58 1516.35 Q1246.58 1516.8 1243.88 1527.43 L1249.67 1527.43 Q1250.41 1527.43 1250.7 1527.46 Q1251.03 1527.49 1251.28 1527.66 Q1251.54 1527.82 1251.54 1528.17 Z" fill="#000000" fill-rule="nonzero" fill-opacity="1" /><path clip-path="url(#clip500)" d="M1272.29 1572.36 L1272.29 1506.4 L1282.24 1506.4 L1282.24 1507.91 L1276.7 1507.91 L1276.7 1570.84 L1282.24 1570.84 L1282.24 1572.36 L1272.29 1572.36 Z" fill="#000000" fill-rule="nonzero" fill-opacity="1" /><path clip-path="url(#clip500)" d="M1309.18 1532.39 Q1309.18 1534.19 1308.28 1535.16 Q1307.37 1536.09 1306.15 1536.09 Q1305.15 1536.09 1304.6 1535.51 Q1304.09 1534.93 1304.09 1534.16 Q1304.09 1533.03 1304.99 1532.13 Q1305.92 1531.23 1307.28 1531.2 Q1306.83 1530.01 1305.63 1529.3 Q1304.44 1528.56 1303.38 1528.36 Q1302.35 1528.17 1301.32 1528.17 Q1299.29 1528.17 1297.74 1528.81 Q1296.2 1529.46 1295.43 1530.46 Q1294.65 1531.42 1294.3 1532.36 Q1293.94 1533.29 1293.94 1534.1 Q1293.94 1534.81 1294.1 1535.38 Q1294.3 1535.93 1294.75 1536.35 Q1295.2 1536.74 1295.52 1537 Q1295.88 1537.25 1296.65 1537.48 Q1297.42 1537.7 1297.74 1537.8 Q1298.07 1537.86 1298.97 1538.06 Q1300.84 1538.44 1301.67 1538.67 Q1302.51 1538.86 1303.61 1539.41 Q1304.73 1539.96 1305.57 1540.83 Q1307.6 1542.86 1307.6 1545.66 Q1307.6 1546.69 1307.24 1547.95 Q1306.92 1549.2 1305.99 1550.78 Q1305.05 1552.36 1303.64 1553.61 Q1302.22 1554.87 1299.77 1555.74 Q1297.36 1556.61 1294.33 1556.61 Q1290.11 1556.61 1287.5 1554.84 Q1284.89 1553.03 1284.89 1550.2 Q1284.89 1548.14 1286.02 1547.01 Q1287.15 1545.85 1288.6 1545.85 Q1289.69 1545.85 1290.37 1546.46 Q1291.05 1547.04 1291.05 1548.14 Q1291.05 1549.62 1289.85 1550.75 Q1288.66 1551.87 1286.89 1551.65 Q1288.4 1555.13 1294.39 1555.13 Q1296.65 1555.13 1298.39 1554.55 Q1300.16 1553.94 1301.13 1553.1 Q1302.12 1552.23 1302.77 1551.17 Q1303.41 1550.1 1303.61 1549.3 Q1303.83 1548.49 1303.83 1547.88 Q1303.83 1546.82 1303.41 1546.01 Q1302.99 1545.21 1302.41 1544.76 Q1301.87 1544.27 1300.8 1543.89 Q1299.77 1543.47 1299.03 1543.31 Q1298.29 1543.15 1296.97 1542.89 Q1296.36 1542.76 1295.97 1542.7 Q1295.59 1542.6 1294.78 1542.34 Q1294.01 1542.05 1293.46 1541.76 Q1292.95 1541.47 1292.27 1540.96 Q1291.59 1540.44 1291.17 1539.83 Q1290.76 1539.22 1290.47 1538.32 Q1290.18 1537.41 1290.18 1536.35 Q1290.18 1535.38 1290.47 1534.23 Q1290.79 1533.07 1291.59 1531.71 Q1292.43 1530.36 1293.62 1529.27 Q1294.81 1528.17 1296.81 1527.46 Q1298.84 1526.72 1301.32 1526.72 Q1304.93 1526.72 1307.05 1528.4 Q1309.18 1530.04 1309.18 1532.39 Z" fill="#000000" fill-rule="nonzero" fill-opacity="1" /><path clip-path="url(#clip500)" d="M1313.93 1570.84 L1319.47 1570.84 L1319.47 1507.91 L1313.93 1507.91 L1313.93 1506.4 L1323.88 1506.4 L1323.88 1572.36 L1313.93 1572.36 L1313.93 1570.84 Z" fill="#000000" fill-rule="nonzero" fill-opacity="1" /><polyline clip-path="url(#clip502)" style="stroke:#000000; stroke-linecap:round; stroke-linejoin:round; stroke-width:2; stroke-opacity:0.1; fill:none" points="210.61,1295.82 2352.76,1295.82 "/>
<polyline clip-path="url(#clip502)" style="stroke:#000000; stroke-linecap:round; stroke-linejoin:round; stroke-width:2; stroke-opacity:0.1; fill:none" points="210.61,1036.03 2352.76,1036.03 "/>
<polyline clip-path="url(#clip502)" style="stroke:#000000; stroke-linecap:round; stroke-linejoin:round; stroke-width:2; stroke-opacity:0.1; fill:none" points="210.61,776.227 2352.76,776.227 "/>
<polyline clip-path="url(#clip502)" style="stroke:#000000; stroke-linecap:round; stroke-linejoin:round; stroke-width:2; stroke-opacity:0.1; fill:none" points="210.61,516.428 2352.76,516.428 "/>
<polyline clip-path="url(#clip502)" style="stroke:#000000; stroke-linecap:round; stroke-linejoin:round; stroke-width:2; stroke-opacity:0.1; fill:none" points="210.61,256.629 2352.76,256.629 "/>
<polyline clip-path="url(#clip500)" style="stroke:#000000; stroke-linecap:round; stroke-linejoin:round; stroke-width:4; stroke-opacity:1; fill:none" points="210.61,1423.18 210.61,47.2441 "/>
<polyline clip-path="url(#clip500)" style="stroke:#000000; stroke-linecap:round; stroke-linejoin:round; stroke-width:4; stroke-opacity:1; fill:none" points="210.61,1295.82 229.508,1295.82 "/>
<polyline clip-path="url(#clip500)" style="stroke:#000000; stroke-linecap:round; stroke-linejoin:round; stroke-width:4; stroke-opacity:1; fill:none" points="210.61,1036.03 229.508,1036.03 "/>
<polyline clip-path="url(#clip500)" style="stroke:#000000; stroke-linecap:round; stroke-linejoin:round; stroke-width:4; stroke-opacity:1; fill:none" points="210.61,776.227 229.508,776.227 "/>
<polyline clip-path="url(#clip500)" style="stroke:#000000; stroke-linecap:round; stroke-linejoin:round; stroke-width:4; stroke-opacity:1; fill:none" points="210.61,516.428 229.508,516.428 "/>
<polyline clip-path="url(#clip500)" style="stroke:#000000; stroke-linecap:round; stroke-linejoin:round; stroke-width:4; stroke-opacity:1; fill:none" points="210.61,256.629 229.508,256.629 "/>
<path clip-path="url(#clip500)" d="M147.659 1299.74 Q147.956 1300.04 147.956 1300.46 Q147.956 1300.88 147.659 1301.17 Q147.363 1301.47 146.943 1301.47 L115.273 1301.47 Q114.853 1301.47 114.557 1301.17 Q114.26 1300.88 114.26 1300.46 Q114.26 1300.04 114.557 1299.74 Q114.853 1299.44 115.273 1299.44 L146.943 1299.44 Q147.363 1299.44 147.659 1299.74 Z" fill="#000000" fill-rule="nonzero" fill-opacity="1" /><path clip-path="url(#clip500)" d="M152.18 1304.75 L152.18 1303.2 L167.718 1279.46 Q168.113 1278.84 168.731 1278.87 Q169.299 1278.87 169.423 1279.09 Q169.546 1279.31 169.546 1280.17 L169.546 1303.2 L174.61 1303.2 L174.61 1304.75 L169.546 1304.75 L169.546 1309.15 Q169.546 1310.61 170.139 1311.08 Q170.757 1311.55 173.375 1311.55 L174.438 1311.55 L174.438 1313.1 Q172.362 1312.96 167.57 1312.96 Q162.802 1312.96 160.727 1313.1 L160.727 1311.55 L161.789 1311.55 Q164.408 1311.55 165.026 1311.1 Q165.643 1310.63 165.643 1309.15 L165.643 1304.75 L152.18 1304.75 M153.613 1303.2 L165.94 1303.2 L165.94 1284.32 L153.613 1303.2 Z" fill="#000000" fill-rule="nonzero" fill-opacity="1" /><path clip-path="url(#clip500)" d="M148.771 1039.94 Q149.067 1040.24 149.067 1040.66 Q149.067 1041.08 148.771 1041.37 Q148.474 1041.67 148.054 1041.67 L116.385 1041.67 Q115.965 1041.67 115.668 1041.37 Q115.372 1041.08 115.372 1040.66 Q115.372 1040.24 115.668 1039.94 Q115.965 1039.64 116.385 1039.64 L148.054 1039.64 Q148.474 1039.64 148.771 1039.94 Z" fill="#000000" fill-rule="nonzero" fill-opacity="1" /><path clip-path="url(#clip500)" d="M154.403 1053.31 Q154.403 1052.39 154.477 1052.12 Q154.576 1051.85 154.971 1051.43 L164.68 1040.61 Q169.991 1034.63 169.991 1029.42 Q169.991 1026.03 168.212 1023.61 Q166.458 1021.19 163.222 1021.19 Q160.999 1021.19 159.121 1022.55 Q157.244 1023.91 156.379 1026.33 Q156.528 1026.28 157.046 1026.28 Q158.306 1026.28 158.998 1027.07 Q159.714 1027.86 159.714 1028.92 Q159.714 1030.28 158.825 1030.95 Q157.96 1031.59 157.096 1031.59 Q156.75 1031.59 156.281 1031.52 Q155.836 1031.44 155.12 1030.75 Q154.403 1030.03 154.403 1028.78 Q154.403 1025.24 157.071 1022.43 Q159.764 1019.61 163.865 1019.61 Q168.509 1019.61 171.547 1022.38 Q174.61 1025.12 174.61 1029.42 Q174.61 1030.92 174.141 1032.31 Q173.696 1033.67 173.079 1034.73 Q172.486 1035.79 170.856 1037.5 Q169.225 1039.2 167.916 1040.41 Q166.607 1041.62 163.667 1044.19 L158.306 1049.4 L167.422 1049.4 Q171.868 1049.4 172.214 1049.01 Q172.708 1048.29 173.326 1044.51 L174.61 1044.51 L173.178 1053.31 L154.403 1053.31 Z" fill="#000000" fill-rule="nonzero" fill-opacity="1" /><path clip-path="url(#clip500)" d="M153.316 777.326 Q153.316 769.89 155.194 765.839 Q157.812 759.811 163.988 759.811 Q165.297 759.811 166.656 760.182 Q168.039 760.528 169.769 761.886 Q171.523 763.245 172.585 765.468 Q174.61 769.767 174.61 777.326 Q174.61 784.712 172.733 788.739 Q169.991 794.618 163.939 794.618 Q161.666 794.618 159.344 793.457 Q157.046 792.296 155.589 789.505 Q153.316 785.33 153.316 777.326 M157.516 776.708 Q157.516 784.342 158.059 787.38 Q158.677 790.666 160.357 792.099 Q162.061 793.507 163.939 793.507 Q165.964 793.507 167.644 792 Q169.349 790.468 169.867 787.183 Q170.436 783.946 170.411 776.708 Q170.411 769.668 169.917 766.852 Q169.25 763.566 167.471 762.257 Q165.717 760.923 163.939 760.923 Q163.272 760.923 162.555 761.121 Q161.864 761.318 160.851 761.886 Q159.838 762.455 159.047 763.863 Q158.282 765.271 157.911 767.395 Q157.516 770.137 157.516 776.708 Z" fill="#000000" fill-rule="nonzero" fill-opacity="1" /><path clip-path="url(#clip500)" d="M154.403 533.708 Q154.403 532.794 154.477 532.522 Q154.576 532.25 154.971 531.83 L164.68 521.01 Q169.991 515.032 169.991 509.82 Q169.991 506.435 168.212 504.014 Q166.458 501.593 163.222 501.593 Q160.999 501.593 159.121 502.952 Q157.244 504.311 156.379 506.732 Q156.528 506.682 157.046 506.682 Q158.306 506.682 158.998 507.473 Q159.714 508.263 159.714 509.326 Q159.714 510.684 158.825 511.351 Q157.96 511.994 157.096 511.994 Q156.75 511.994 156.281 511.919 Q155.836 511.845 155.12 511.154 Q154.403 510.437 154.403 509.177 Q154.403 505.645 157.071 502.829 Q159.764 500.012 163.865 500.012 Q168.509 500.012 171.547 502.779 Q174.61 505.521 174.61 509.82 Q174.61 511.327 174.141 512.71 Q173.696 514.069 173.079 515.131 Q172.486 516.193 170.856 517.898 Q169.225 519.602 167.916 520.813 Q166.607 522.023 163.667 524.592 L158.306 529.805 L167.422 529.805 Q171.868 529.805 172.214 529.409 Q172.708 528.693 173.326 524.913 L174.61 524.913 L173.178 533.708 L154.403 533.708 Z" fill="#000000" fill-rule="nonzero" fill-opacity="1" /><path clip-path="url(#clip500)" d="M152.18 265.559 L152.18 264.003 L167.718 240.263 Q168.113 239.645 168.731 239.67 Q169.299 239.67 169.423 239.892 Q169.546 240.115 169.546 240.979 L169.546 264.003 L174.61 264.003 L174.61 265.559 L169.546 265.559 L169.546 269.956 Q169.546 271.414 170.139 271.883 Q170.757 272.353 173.375 272.353 L174.438 272.353 L174.438 273.909 Q172.362 273.761 167.57 273.761 Q162.802 273.761 160.727 273.909 L160.727 272.353 L161.789 272.353 Q164.408 272.353 165.026 271.908 Q165.643 271.439 165.643 269.956 L165.643 265.559 L152.18 265.559 M153.613 264.003 L165.94 264.003 L165.94 245.13 L153.613 264.003 Z" fill="#000000" fill-rule="nonzero" fill-opacity="1" /><path clip-path="url(#clip500)" d="M43.9909 772.59 Q45.7944 772.59 47.8234 773.137 L77.6782 780.641 Q80.3191 781.318 80.3191 783.347 Q80.3191 784.184 79.8038 784.699 Q79.3207 785.182 78.5478 785.182 Q78.2901 785.182 77.485 784.989 L47.147 777.485 Q44.3773 776.809 42.9925 776.809 Q38.3871 776.809 38.3871 780.384 Q38.3871 783.54 40.7059 786.696 Q41.8653 788.145 43.9587 789.562 Q46.0198 790.947 46.7606 791.205 Q48.4353 791.495 49.7235 791.913 Q50.6253 792.107 54.1357 793.04 L60.0938 794.49 Q64.5382 795.52 64.9569 795.746 Q65.8587 796.068 66.3417 796.776 Q66.8248 797.485 66.8248 798.193 Q66.8248 798.999 66.3417 799.546 Q65.8587 800.094 65.0213 800.094 Q64.8925 800.094 64.4094 799.997 Q63.9263 799.9 63.25 799.739 Q62.5737 799.578 62.1872 799.514 L46.9538 795.681 Q44.1841 794.973 43.3146 794.812 Q42.4128 794.619 41.4144 794.619 Q39.6753 794.619 39.0312 795.166 Q38.3871 795.714 38.3871 796.68 Q38.3871 798.354 40.3838 799.449 Q42.3806 800.544 46.2453 801.478 Q47.3081 801.768 47.5335 801.962 Q47.759 802.123 47.759 802.606 Q47.7268 803.411 47.0826 803.411 Q46.9216 803.411 45.891 803.153 Q44.8282 802.895 43.2823 802.412 Q41.7043 801.897 40.7059 801.35 Q40.0296 801.028 39.5787 800.738 Q39.1278 800.448 38.4193 799.868 Q37.7107 799.288 37.3243 798.419 Q36.9378 797.549 36.9378 796.487 Q36.9378 794.135 38.4515 792.396 Q39.9651 790.625 42.6704 790.4 Q41.6721 789.723 40.7703 788.854 Q39.8685 787.952 38.9668 786.696 Q38.0328 785.44 37.4853 783.733 Q36.9378 782.026 36.9378 780.19 Q36.9378 776.519 38.8379 774.554 Q40.7059 772.59 43.9909 772.59 Z" fill="#000000" fill-rule="nonzero" fill-opacity="1" /><path clip-path="url(#clip500)" d="M82.5735 753.539 L16.6159 753.539 L16.6159 743.588 L18.1296 743.588 L18.1296 749.127 L81.0598 749.127 L81.0598 743.588 L82.5735 743.588 L82.5735 753.539 Z" fill="#000000" fill-rule="nonzero" fill-opacity="1" /><path clip-path="url(#clip500)" d="M56.6478 688.211 Q56.9054 688.211 57.9038 688.501 Q58.9022 688.791 60.4481 689.5 Q61.994 690.176 63.411 691.142 Q64.7959 692.076 65.8264 693.622 Q66.8248 695.136 66.8248 696.875 Q66.8248 699.194 65.2789 700.74 Q63.7331 702.285 61.4142 702.285 Q60.1582 702.285 57.775 701.416 Q46.8894 697.326 42.9925 697.326 Q38.3871 697.326 38.3871 700.901 Q38.3871 702.93 39.2244 704.765 Q40.0618 706.601 41.2212 707.793 Q42.3806 708.984 43.701 709.918 Q45.0215 710.852 45.891 711.271 Q46.7606 711.657 47.147 711.754 L63.0567 715.715 Q64.4094 716.037 65.0535 716.263 Q65.6976 716.488 66.2451 717.1 Q66.8248 717.712 66.8248 718.678 Q66.8248 719.483 66.3417 720.063 Q65.8587 720.611 65.0213 720.611 Q64.8925 720.611 64.2162 720.45 Q63.5398 720.288 62.6059 720.063 Q61.6719 719.838 61.1244 719.741 Q56.7444 718.582 56.1325 718.421 L48.4675 716.585 Q44.6672 715.586 42.9925 715.586 Q38.3871 715.586 38.3871 719.161 Q38.3871 720.933 39.0634 722.607 Q39.7075 724.25 40.6093 725.377 Q41.511 726.504 42.7671 727.535 Q43.9909 728.533 44.8282 729.048 Q45.6334 729.532 46.4385 729.918 L49.7235 730.755 Q50.6253 730.949 54.1357 731.883 L60.0938 733.332 Q64.5382 734.362 64.9569 734.588 Q65.8587 734.91 66.3417 735.618 Q66.8248 736.327 66.8248 737.036 Q66.8248 737.841 66.3417 738.388 Q65.8587 738.936 65.0213 738.936 Q64.8925 738.936 64.4094 738.839 Q63.9263 738.742 63.25 738.581 Q62.5737 738.42 62.1872 738.356 L46.9538 734.523 Q44.1841 733.815 43.3146 733.654 Q42.4128 733.461 41.4144 733.461 Q38.3871 733.461 38.3871 735.522 Q38.3871 737.197 40.3838 738.292 Q42.3806 739.387 46.2453 740.321 Q47.3081 740.61 47.5335 740.804 Q47.759 740.965 47.759 741.448 Q47.7268 742.253 47.0826 742.253 Q46.9216 742.253 45.891 741.995 Q44.8604 741.738 43.3146 741.255 Q41.7365 740.739 40.7059 740.192 Q40.0296 739.87 39.5787 739.58 Q39.1278 739.29 38.4193 738.71 Q37.7107 738.131 37.3243 737.261 Q36.9378 736.391 36.9378 735.329 Q36.9378 732.978 38.4515 731.238 Q39.9651 729.467 42.6704 729.242 Q36.9378 724.958 36.9378 718.968 Q36.9378 715.586 38.6447 713.557 Q40.2872 711.657 43.3146 711.432 Q36.9378 706.987 36.9378 700.675 Q36.9378 697.036 38.8379 695.071 Q40.7059 693.107 43.9909 693.107 Q45.6978 693.107 48.9506 693.976 Q52.1712 694.846 53.7815 695.426 Q55.3917 696.005 58.4835 697.132 Q61.4465 698.324 63.1856 698.324 Q64.3128 698.324 64.8281 697.938 Q65.3434 697.551 65.3434 696.714 Q65.3434 695.426 64.6026 694.298 Q63.8297 693.171 62.5737 692.366 Q61.2854 691.529 59.9972 690.981 Q58.6767 690.434 57.1953 690.015 Q56.3901 689.757 56.1969 689.629 Q56.0037 689.467 56.0037 689.017 Q56.0037 688.211 56.6478 688.211 Z" fill="#000000" fill-rule="nonzero" fill-opacity="1" /><path clip-path="url(#clip500)" d="M81.0598 685.163 L81.0598 679.624 L18.1296 679.624 L18.1296 685.163 L16.6159 685.163 L16.6159 675.212 L82.5735 675.212 L82.5735 685.163 L81.0598 685.163 Z" fill="#000000" fill-rule="nonzero" fill-opacity="1" /><polyline clip-path="url(#clip502)" style="stroke:#ba3d3a; stroke-linecap:round; stroke-linejoin:round; stroke-width:8; stroke-opacity:1; fill:none" points="271.237,789.585 273.436,769.738 275.635,751.649 277.834,735.521 280.033,721.549 282.232,709.91 284.431,700.708 286.63,693.802 288.829,689.089 291.028,686.412 293.227,685.557 295.426,686.317 297.625,688.59 299.824,692.238 302.023,697.115 304.222,702.996 306.421,709.679 308.62,716.851 310.819,724.107 313.018,731.008 315.217,737.052 317.416,741.764 319.615,744.856 321.814,746.137 324.014,745.685 326.213,743.529 328.412,739.802 330.611,734.604 332.81,728.036 335.009,720.078 337.208,710.829 339.407,700.547 341.606,689.474 343.805,677.882 346.004,666.006 348.203,654.141 350.402,642.5 352.601,631.293 354.8,620.704 356.999,611.015 359.198,602.456 361.397,595.257 363.596,589.672 365.795,585.864 367.994,584.042 370.193,584.404 372.392,587.187 374.591,592.697 376.79,601.188 378.989,612.892 381.188,627.758 383.387,645.656 385.586,666.354 387.785,689.654 389.984,715.29 392.183,743.038 394.382,772.548 396.581,803.402 398.78,835.061 400.979,866.984 403.178,898.653 405.377,929.62 407.576,959.56 409.775,988.212 411.974,1015.3 414.173,1040.5 416.372,1063.47 418.571,1083.85 420.77,1101.34 422.969,1115.77 425.168,1127.02 427.367,1135.05 429.566,1139.86 431.765,1141.49 433.964,1139.87 436.163,1135.06 438.362,1127.14 440.561,1116.27 442.76,1102.84 444.959,1087.07 447.158,1069.44 449.357,1050.13 451.556,1029.15 453.755,1006.61 455.954,982.417 458.153,956.836 460.352,930.041 462.551,902.582 464.75,875.051 466.949,847.799 469.148,821.168 471.347,795.247 473.546,769.771 475.745,744.537 477.944,719.529 480.143,694.796 482.342,670.127 484.541,645.68 486.74,621.472 488.939,597.625 491.138,574.074 493.337,550.87 495.536,528.113 497.735,505.789 499.934,483.938 502.133,462.652 504.332,442.023 506.531,422.272 508.731,403.569 510.93,386.253 513.129,370.653 515.328,357.117 517.527,345.963 519.726,337.561 521.925,332.319 524.124,330.549 526.323,332.509 528.522,338.398 530.721,348.377 532.92,362.429 535.119,380.396 537.318,402.043 539.517,427.032 541.716,455.029 543.915,485.773 546.114,519.035 548.313,554.55 550.512,592.209 552.711,631.786 554.91,673.127 557.109,716.009 559.308,760.376 561.507,806.152 563.706,852.896 565.905,900.302 568.104,947.796 570.303,994.999 572.502,1041.18 574.701,1085.86 576.9,1128.26 579.099,1167.94 581.298,1204.2 583.497,1236.56 585.696,1264.58 587.895,1288.14 590.094,1307.33 592.293,1322.05 594.492,1332.23 596.691,1337.78 598.89,1338.6 601.089,1334.35 603.288,1324.9 605.487,1310.27 607.686,1290.86 609.885,1266.89 612.084,1238.81 614.283,1206.97 616.482,1171.71 618.681,1133.25 620.88,1091.93 623.079,1047.99 625.278,1001.75 627.477,953.545 629.676,904.001 631.875,853.83 634.074,803.848 636.273,754.824 638.472,707.439 640.671,662.272 642.87,619.837 645.069,580.524 647.268,544.746 649.467,512.719 651.666,484.578 653.865,460.274 656.064,439.734 658.263,422.851 660.462,409.501 662.661,399.656 664.86,393.211 667.059,390.032 669.258,389.835 671.457,392.324 673.656,397.201 675.855,404.286 678.054,413.477 680.253,424.598 682.452,437.434 684.651,451.741 686.85,467.278 689.049,483.851 691.248,501.346 693.448,519.725 695.647,538.721 697.846,558.221 700.045,578.041 702.244,597.992 704.443,617.984 706.642,638.019 708.841,657.948 711.04,677.62 713.239,696.814 715.438,715.372 717.637,733.118 719.836,749.921 722.035,765.913 724.234,781.27 726.433,796.073 728.632,810.321 730.831,823.914 733.03,836.637 735.229,848.288 737.428,858.698 739.627,867.93 741.826,876.009 744.025,883.11 746.224,889.334 748.423,894.748 750.622,899.308 752.821,903.042 755.02,905.99 757.219,908.278 759.418,910.121 761.617,911.904 763.816,914.08 766.015,917.114 768.214,921.374 770.413,927.123 772.612,934.355 774.811,943.005 777.01,952.971 779.209,964.124 781.408,976.295 783.607,989.27 785.806,1002.89 788.005,1016.85 790.204,1030.77 792.403,1044.4 794.602,1057.44 796.801,1069.71 799,1080.7 801.199,1089.98 803.398,1097.02 805.597,1101.18 807.796,1101.96 809.995,1098.87 812.194,1091.57 814.393,1079.85 816.592,1063.55 818.791,1042.86 820.99,1017.98 823.189,989.272 825.388,957.063 827.587,921.461 829.786,882.808 831.985,841.316 834.184,797.359 836.383,751.495 838.582,704.412 840.781,656.873 842.98,609.507 845.179,562.957 847.378,517.677 849.577,473.981 851.776,432.37 853.975,393.396 856.174,357.786 858.373,326.056 860.572,298.655 862.771,275.727 864.97,257.455 867.169,244.124 869.368,236.138 871.567,233.834 873.766,237.362 875.965,246.584 878.165,260.991 880.364,279.934 882.563,302.818 884.762,329.278 886.961,359.201 889.16,392.49 891.359,429.153 893.558,468.964 895.757,511.625 897.956,556.737 900.155,603.971 902.354,652.897 904.553,702.958 906.752,753.399 908.951,803.445 911.15,852.298 913.349,899.316 915.548,944.186 917.747,986.733 919.946,1026.97 922.145,1064.78 924.344,1099.63 926.543,1131.1 928.742,1158.4 930.941,1181.16 933.14,1198.9 935.339,1211.71 937.538,1219.79 939.737,1223.22 941.936,1222.26 944.135,1217.52 946.334,1209.01 948.533,1196.94 950.732,1181.26 952.931,1163.07 955.13,1142.15 957.329,1119.06 959.528,1094.07 961.727,1068.06 963.926,1041.03 966.125,1013.56 968.324,986.282 970.523,959.342 972.722,933.372 974.921,908.423 977.12,885.004 979.319,863.069 981.518,842.592 983.717,823.621 985.916,805.895 988.115,789.204 990.314,773.176 992.513,757.388 994.712,741.552 996.911,725.299 999.11,708.395 1001.31,690.569 1003.51,671.719 1005.71,651.829 1007.91,630.899 1010.11,609.157 1012.3,586.911 1014.5,564.571 1016.7,542.508 1018.9,521.104 1021.1,500.637 1023.3,481.194 1025.5,462.839 1027.7,445.73 1029.9,430.216 1032.1,416.765 1034.29,405.909 1036.49,398.186 1038.69,394.047 1040.89,393.886 1043.09,397.898 1045.29,406.27 1047.49,419.026 1049.69,436.086 1051.89,457.369 1054.09,482.797 1056.28,512.344 1058.48,545.844 1060.68,583.179 1062.88,624.131 1065.08,668.081 1067.28,714.307 1069.48,761.879 1071.68,809.848 1073.88,857.108 1076.08,902.827 1078.27,946.434 1080.47,987.393 1082.67,1025.45 1084.87,1060.34 1087.07,1091.75 1089.27,1119.4 1091.47,1142.99 1093.67,1162.31 1095.87,1177.09 1098.07,1187.36 1100.26,1193.19 1102.46,1194.7 1104.66,1192.11 1106.86,1185.57 1109.06,1175.17 1111.26,1161.14 1113.46,1143.63 1115.66,1122.98 1117.86,1099.49 1120.06,1073.5 1122.25,1045.36 1124.45,1015.54 1126.65,984.428 1128.85,952.464 1131.05,920.07 1133.25,887.636 1135.45,855.445 1137.65,823.628 1139.85,792.294 1142.05,761.461 1144.24,730.981 1146.44,700.814 1148.64,670.909 1150.84,641.365 1153.04,612.277 1155.24,583.833 1157.44,556.292 1159.64,529.817 1161.84,504.632 1164.04,480.905 1166.24,458.77 1168.43,438.432 1170.63,419.987 1172.83,403.713 1175.03,389.802 1177.23,378.472 1179.43,370.059 1181.63,364.565 1183.83,362.381 1186.03,363.458 1188.23,368.048 1190.42,375.999 1192.62,387.52 1194.82,402.253 1197.02,420.045 1199.22,440.554 1201.42,464.08 1203.62,490.072 1205.82,518.199 1208.02,548.499 1210.22,580.617 1212.41,614.542 1214.61,649.905 1216.81,686.381 1219.01,723.691 1221.21,761.759 1223.41,800.335 1225.61,839.203 1227.81,878.088 1230.01,916.822 1232.21,955.311 1234.4,993.426 1236.6,1031.11 1238.8,1068.21 1241,1104.63 1243.2,1140.33 1245.4,1175.11 1247.6,1208.64 1249.8,1240.27 1252,1269.4 1254.2,1295.47 1256.39,1318.21 1258.59,1337.59 1260.79,1353.76 1262.99,1366.85 1265.19,1376.72 1267.39,1382.78 1269.59,1384.24 1271.79,1380.06 1273.99,1369.38 1276.19,1351.58 1278.38,1326.6 1280.58,1294.92 1282.78,1257.53 1284.98,1215.45 1287.18,1169.65 1289.38,1120.4 1291.58,1067.64 1293.78,1010.76 1295.98,949.391 1298.18,883.721 1300.37,814.7 1302.57,744.055 1304.77,673.804 1306.97,605.705 1309.17,541.031 1311.37,480.15 1313.57,422.974 1315.77,369.036 1317.97,318.049 1320.17,270.128 1322.36,225.889 1324.56,186.269 1326.76,152.631 1328.96,126.193 1331.16,107.742 1333.36,97.5706 1335.56,95.1326 1337.76,99.4926 1339.96,109.427 1342.16,123.823 1344.36,142.148 1346.55,164.022 1348.75,189.56 1350.95,218.727 1353.15,251.295 1355.35,286.781 1357.55,324.702 1359.75,364.603 1361.95,405.997 1364.15,448.557 1366.35,492.057 1368.54,536.069 1370.74,580.229 1372.94,624.063 1375.14,667.32 1377.34,709.685 1379.54,750.985 1381.74,791.08 1383.94,829.782 1386.14,866.864 1388.34,902.056 1390.53,935.162 1392.73,966.117 1394.93,994.832 1397.13,1021.35 1399.33,1045.72 1401.53,1068.1 1403.73,1088.62 1405.93,1107.52 1408.13,1124.95 1410.33,1141.02 1412.52,1155.51 1414.72,1168.18 1416.92,1178.63 1419.12,1186.6 1421.32,1191.97 1423.52,1194.83 1425.72,1195.29 1427.92,1193.54 1430.12,1189.74 1432.32,1184.14 1434.51,1176.92 1436.71,1168.36 1438.91,1158.63 1441.11,1148.01 1443.31,1136.62 1445.51,1124.58 1447.71,1111.79 1449.91,1098.25 1452.11,1083.64 1454.31,1067.86 1456.5,1050.7 1458.7,1032.06 1460.9,1012.01 1463.1,990.643 1465.3,968.174 1467.5,944.954 1469.7,921.34 1471.9,897.566 1474.1,873.828 1476.3,850.291 1478.49,826.817 1480.69,803.397 1482.89,779.799 1485.09,755.955 1487.29,731.749 1489.49,707.271 1491.69,682.782 1493.89,658.552 1496.09,635.005 1498.29,612.35 1500.48,590.738 1502.68,570.186 1504.88,550.74 1507.08,532.431 1509.28,515.295 1511.48,499.306 1513.68,484.397 1515.88,470.524 1518.08,457.739 1520.28,446.179 1522.47,435.947 1524.67,427.158 1526.87,419.879 1529.07,414.11 1531.27,409.839 1533.47,407.086 1535.67,405.923 1537.87,406.567 1540.07,409.256 1542.27,414.147 1544.47,421.236 1546.66,430.475 1548.86,441.755 1551.06,455.15 1553.26,470.653 1555.46,488.261 1557.66,507.654 1559.86,528.416 1562.06,550.182 1564.26,572.502 1566.46,595.198 1568.65,618.244 1570.85,641.366 1573.05,664.414 1575.25,687.463 1577.45,710.231 1579.65,732.726 1581.85,754.821 1584.05,776.136 1586.25,797.142 1588.45,817.822 1590.64,838.257 1592.84,857.892 1595.04,876.848 1597.24,894.856 1599.44,912.016 1601.64,927.976 1603.84,943.006 1606.04,956.963 1608.24,970.155 1610.44,982.612 1612.63,994.406 1614.83,1005.54 1617.03,1016.06 1619.23,1026.11 1621.43,1035.9 1623.63,1045.62 1625.83,1055.48 1628.03,1065.57 1630.23,1075.72 1632.43,1085.81 1634.62,1095.72 1636.82,1105.05 1639.02,1113.61 1641.22,1121.23 1643.42,1127.77 1645.62,1133.06 1647.82,1136.9 1650.02,1139.07 1652.22,1139.31 1654.42,1137.22 1656.61,1132.51 1658.81,1124.9 1661.01,1114.21 1663.21,1100.29 1665.41,1083.25 1667.61,1063.32 1669.81,1040.79 1672.01,1015.9 1674.21,989.012 1676.41,960.41 1678.6,930.225 1680.8,898.564 1683,865.546 1685.2,831.305 1687.4,796.034 1689.6,760.031 1691.8,723.72 1694,687.476 1696.2,651.557 1698.4,616.113 1700.59,581.36 1702.79,547.405 1704.99,514.564 1707.19,483.327 1709.39,454.285 1711.59,428.032 1713.79,404.825 1715.99,384.744 1718.19,367.602 1720.39,353.069 1722.59,341.065 1724.78,331.691 1726.98,325.254 1729.18,322.034 1731.38,322.064 1733.58,325.209 1735.78,331.027 1737.98,339.155 1740.18,349.467 1742.38,362.012 1744.58,377.06 1746.77,394.742 1748.97,414.981 1751.17,437.399 1753.37,461.409 1755.57,486.607 1757.77,512.753 1759.97,539.864 1762.17,568.038 1764.37,597.344 1766.57,627.681 1768.76,658.697 1770.96,689.894 1773.16,720.85 1775.36,751.296 1777.56,781.131 1779.76,810.371 1781.96,839.12 1784.16,867.461 1786.36,895.425 1788.56,922.903 1790.75,949.802 1792.95,976.018 1795.15,1001.52 1797.35,1026.26 1799.55,1050.27 1801.75,1073.47 1803.95,1095.71 1806.15,1116.72 1808.35,1136.27 1810.55,1154.12 1812.74,1169.99 1814.94,1183.84 1817.14,1195.72 1819.34,1205.63 1821.54,1213.72 1823.74,1219.65 1825.94,1223.1 1828.14,1223.61 1830.34,1220.63 1832.54,1213.94 1834.73,1203.19 1836.93,1188.45 1839.13,1169.79 1841.33,1147.28 1843.53,1120.9 1845.73,1090.63 1847.93,1056.55 1850.13,1019.01 1852.33,978.362 1854.53,935.182 1856.72,890.171 1858.92,843.968 1861.12,797.13 1863.32,750.207 1865.52,703.82 1867.72,658.573 1869.92,615.03 1872.12,573.703 1874.32,534.908 1876.52,498.763 1878.71,465.341 1880.91,434.838 1883.11,407.472 1885.31,383.613 1887.51,363.553 1889.71,347.578 1891.91,335.764 1894.11,328.024 1896.31,324.172 1898.51,323.997 1900.71,327.426 1902.9,334.573 1905.1,345.61 1907.3,360.706 1909.5,379.833 1911.7,402.816 1913.9,429.267 1916.1,458.765 1918.3,490.848 1920.5,525.301 1922.7,562.067 1924.89,601.206 1927.09,642.746 1929.29,686.481 1931.49,731.899 1933.69,778.078 1935.89,823.978 1938.09,868.54 1940.29,910.996 1942.49,950.722 1944.69,987.391 1946.88,1020.84 1949.08,1050.99 1951.28,1077.74 1953.48,1100.76 1955.68,1119.57 1957.88,1133.68 1960.08,1142.41 1962.28,1145.41 1964.48,1142.74 1966.68,1134.47 1968.87,1121.04 1971.07,1102.72 1973.27,1080.08 1975.47,1053.43 1977.67,1023.23 1979.87,989.84 1982.07,953.578 1984.27,915.124 1986.47,875.304 1988.67,835.188 1990.86,795.886 1993.06,758.518 1995.26,724.115 1997.46,693.396 1999.66,666.898 2001.86,644.834 2004.06,627.18 2006.26,613.751 2008.46,604.441 2010.66,599.135 2012.85,597.757 2015.05,600.117 2017.25,605.986 2019.45,614.968 2021.65,626.555 2023.85,640.23 2026.05,655.461 2028.25,671.815 2030.45,689.002 2032.65,706.745 2034.84,724.774 2037.04,742.69 2039.24,760.164 2041.44,776.845 2043.64,792.292 2045.84,806.197 2048.04,818.249 2050.24,828.247 2052.44,835.99 2054.64,841.505 2056.83,844.884 2059.03,846.378 2061.23,846.205 2063.43,844.798 2065.63,842.342 2067.83,839.161 2070.03,835.351 2072.23,830.897 2074.43,825.821 2076.63,820.077 2078.82,813.551 2081.02,806.075 2083.22,797.72 2085.42,788.5 2087.62,778.614 2089.82,768.34 2092.02,757.797 2094.22,747.397 2096.42,737.136 2098.62,727.307 2100.82,717.985 2103.01,709.255 2105.21,701.267 2107.41,694.232 2109.61,688.333 2111.81,683.768 2114.01,680.685 2116.21,679.258 2118.41,679.413 2120.61,681.078 2122.81,684.154 2125,688.4 2127.2,693.65 2129.4,699.681 2131.6,706.372 2133.8,713.474 2136,720.812 2138.2,728.18 2140.4,735.415 2142.6,742.455 2144.8,749.337 2146.99,756.097 2149.19,762.835 2151.39,769.588 2153.59,776.423 2155.79,783.303 2157.99,790.236 2160.19,797.105 2162.39,803.751 2164.59,809.935 2166.79,815.471 2168.98,820.224 2171.18,824.224 2173.38,827.525 2175.58,830.105 2177.78,832.13 2179.98,833.743 2182.18,834.869 2184.38,835.425 2186.58,835.736 2188.78,835.914 2190.97,835.925 2193.17,835.623 2195.37,835.47 2197.57,835.11 2199.77,834.639 2201.97,834.747 2204.17,834.812 2206.37,834.575 2208.57,833.926 2210.77,832.975 2212.96,831.795 2215.16,830.675 2217.36,829.228 2219.56,827.611 2221.76,825.9 2223.96,823.993 2226.16,821.988 2228.36,819.783 2230.56,817.801 2232.76,816.353 2234.95,815.621 2237.15,815.738 2239.35,816.621 2241.55,818.216 2243.75,820.502 2245.95,823.373 2248.15,826.84 2250.35,830.645 2252.55,834.531 2254.75,838.282 2256.94,841.799 2259.14,845.077 2261.34,848.105 2263.54,850.769 2265.74,852.878 2267.94,854.12 2270.14,854.257 2272.34,853.154 2274.54,850.747 2276.74,847.103 2278.94,842.181 2281.13,835.941 2283.33,828.264 2285.53,819.089 2287.73,808.392 2289.93,796.242 2292.13,782.71 "/>
<polyline clip-path="url(#clip502)" style="stroke:#4a7945; stroke-linecap:round; stroke-linejoin:round; stroke-width:8; stroke-opacity:1; fill:none" stroke-dasharray="4, 8" points="271.237,772.757 273.436,772.118 275.635,771.415 277.834,770.648 280.033,769.821 282.232,768.938 284.431,768.005 286.63,767.03 288.829,766.026 291.028,765.006 293.227,763.986 295.426,762.988 297.625,762.034 299.824,761.151 302.023,760.37 304.222,759.723 306.421,759.246 308.62,758.98 310.819,758.965 313.018,759.247 315.217,759.869 317.416,760.878 319.615,762.321 321.814,764.244 324.014,766.69 326.213,769.701 328.412,773.314 330.611,777.561 332.81,782.469 335.009,788.056 337.208,794.331 339.407,801.294 341.606,808.935 343.805,817.228 346.004,826.137 348.203,835.611 350.402,845.586 352.601,855.981 354.8,866.702 356.999,877.638 359.198,888.666 361.397,899.649 363.596,910.438 365.795,920.872 367.994,930.782 370.193,939.992 372.392,948.321 374.591,955.586 376.79,961.606 378.989,966.203 381.188,969.205 383.387,970.452 385.586,969.798 387.785,967.112 389.984,962.283 392.183,955.225 394.382,945.875 396.581,934.199 398.78,920.19 400.979,903.876 403.178,885.314 405.377,864.594 407.576,841.839 409.775,817.204 411.974,790.874 414.173,763.061 416.372,734.007 418.571,703.975 420.77,673.249 422.969,642.13 425.168,610.931 427.367,579.974 429.566,549.585 431.765,520.088 433.964,491.804 436.163,465.043 438.362,440.101 440.561,417.256 442.76,396.766 444.959,378.862 447.158,363.748 449.357,351.599 451.556,342.556 453.755,336.729 455.954,334.192 458.153,334.986 460.352,339.12 462.551,346.567 464.75,357.27 466.949,371.145 469.148,388.077 471.347,407.927 473.546,430.535 475.745,455.719 477.944,483.282 480.143,513.013 482.342,544.686 484.541,578.072 486.74,612.931 488.939,649.02 491.138,686.095 493.337,723.91 495.536,762.22 497.735,800.783 499.934,839.358 502.133,877.709 504.332,915.604 506.531,952.814 508.731,989.114 510.93,1024.28 513.129,1058.11 515.328,1090.38 517.527,1120.88 519.726,1149.43 521.925,1175.81 524.124,1199.84 526.323,1221.34 528.522,1240.12 530.721,1256.04 532.92,1268.92 535.119,1278.63 537.318,1285.05 539.517,1288.05 541.716,1287.55 543.915,1283.49 546.114,1275.8 548.313,1264.48 550.512,1249.52 552.711,1230.98 554.91,1208.9 557.109,1183.4 559.308,1154.61 561.507,1122.69 563.706,1087.84 565.905,1050.31 568.104,1010.35 570.303,968.265 572.502,924.371 574.701,879.02 576.9,832.582 579.099,785.445 581.298,738.012 583.497,690.695 585.696,643.91 587.895,598.073 590.094,553.595 592.293,510.877 594.492,470.302 596.691,432.235 598.89,397.015 601.089,364.951 603.288,336.318 605.487,311.353 607.686,290.256 609.885,273.18 612.084,260.237 614.283,251.491 616.482,246.962 618.681,246.62 620.88,250.394 623.079,258.168 625.278,269.783 627.477,285.043 629.676,303.714 631.875,325.532 634.074,350.205 636.273,377.416 638.472,406.831 640.671,438.099 642.87,470.864 645.069,504.762 647.268,539.431 649.467,574.515 651.666,609.666 653.865,644.552 656.064,678.857 658.263,712.286 660.462,744.568 662.661,775.459 664.86,804.744 667.059,832.236 669.258,857.779 671.457,881.25 673.656,902.554 675.855,921.629 678.054,938.44 680.253,952.981 682.452,965.273 684.651,975.359 686.85,983.304 689.049,989.191 691.248,993.12 693.448,995.204 695.647,995.564 697.846,994.331 700.045,991.638 702.244,987.62 704.443,982.411 706.642,976.14 708.841,968.932 711.04,960.903 713.239,952.161 715.438,942.802 717.637,932.911 719.836,922.563 722.035,911.817 724.234,900.722 726.433,889.315 728.632,877.621 730.831,865.657 733.03,853.43 735.229,840.938 737.428,828.175 739.627,815.132 741.826,801.797 744.025,788.157 746.224,774.204 748.423,759.931 750.622,745.34 752.821,730.44 755.02,715.248 757.219,699.796 759.418,684.124 761.617,668.29 763.816,652.362 766.015,636.428 768.214,620.585 770.413,604.95 772.612,589.652 774.811,574.832 777.01,560.644 779.209,547.255 781.408,534.836 783.607,523.568 785.806,513.633 788.005,505.217 790.204,498.502 792.403,493.665 794.602,490.878 796.801,490.297 799,492.069 801.199,496.319 803.398,503.154 805.597,512.658 807.796,524.886 809.995,539.868 812.194,557.602 814.393,578.056 816.592,601.162 818.791,626.821 820.99,654.898 823.189,685.226 825.388,717.605 827.587,751.802 829.786,787.556 831.985,824.577 834.184,862.552 836.383,901.146 838.582,940.006 840.781,978.767 842.98,1017.05 845.179,1054.48 847.378,1090.68 849.577,1125.27 851.776,1157.88 853.975,1188.17 856.174,1215.8 858.373,1240.48 860.572,1261.91 862.771,1279.85 864.97,1294.1 867.169,1304.48 869.368,1310.85 871.567,1313.14 873.766,1311.28 875.965,1305.29 878.165,1295.21 880.364,1281.12 882.563,1263.16 884.762,1241.5 886.961,1216.35 889.16,1187.96 891.359,1156.6 893.558,1122.59 895.757,1086.27 897.956,1047.97 900.155,1008.07 902.354,966.946 904.553,924.982 906.752,882.561 908.951,840.065 911.15,797.863 913.349,756.314 915.548,715.761 917.747,676.523 919.946,638.9 922.145,603.163 924.344,569.555 926.543,538.288 928.742,509.545 930.941,483.477 933.14,460.202 935.339,439.807 937.538,422.35 939.737,407.858 941.936,396.332 944.135,387.749 946.334,382.06 948.533,379.199 950.732,379.08 952.931,381.604 955.13,386.658 957.329,394.123 959.528,403.87 961.727,415.766 963.926,429.678 966.125,445.471 968.324,463.011 970.523,482.168 972.722,502.815 974.921,524.829 977.12,548.091 979.319,572.486 981.518,597.905 983.717,624.238 985.916,651.38 988.115,679.226 990.314,707.67 992.513,736.606 994.712,765.922 996.911,795.503 999.11,825.227 1001.31,854.966 1003.51,884.582 1005.71,913.93 1007.91,942.854 1010.11,971.191 1012.3,998.765 1014.5,1025.4 1016.7,1050.89 1018.9,1075.07 1021.1,1097.71 1023.3,1118.63 1025.5,1137.62 1027.7,1154.48 1029.9,1169.04 1032.1,1181.1 1034.29,1190.49 1036.49,1197.08 1038.69,1200.72 1040.89,1201.31 1043.09,1198.76 1045.29,1193.02 1047.49,1184.06 1049.69,1171.88 1051.89,1156.52 1054.09,1138.07 1056.28,1116.61 1058.48,1092.31 1060.68,1065.32 1062.88,1035.86 1065.08,1004.16 1067.28,970.483 1069.48,935.123 1071.68,898.386 1073.88,860.598 1076.08,822.099 1078.27,783.237 1080.47,744.363 1082.67,705.83 1084.87,667.984 1087.07,631.163 1089.27,595.691 1091.47,561.874 1093.67,529.996 1095.87,500.317 1098.07,473.071 1100.26,448.458 1102.46,426.651 1104.66,407.786 1106.86,391.968 1109.06,379.268 1111.26,369.723 1113.46,363.336 1115.66,360.083 1117.86,359.907 1120.06,362.727 1122.25,368.436 1124.45,376.906 1126.65,387.992 1128.85,401.531 1131.05,417.35 1133.25,435.267 1135.45,455.094 1137.65,476.64 1139.85,499.713 1142.05,524.123 1144.24,549.687 1146.44,576.224 1148.64,603.562 1150.84,631.539 1153.04,660 1155.24,688.799 1157.44,717.801 1159.64,746.877 1161.84,775.908 1164.04,804.782 1166.24,833.391 1168.43,861.633 1170.63,889.409 1172.83,916.62 1175.03,943.168 1177.23,968.954 1179.43,993.875 1181.63,1017.82 1183.83,1040.69 1186.03,1062.36 1188.23,1082.7 1190.42,1101.6 1192.62,1118.9 1194.82,1134.48 1197.02,1148.2 1199.22,1159.89 1201.42,1169.43 1203.62,1176.65 1205.82,1181.42 1208.02,1183.6 1210.22,1183.05 1212.41,1179.65 1214.61,1173.31 1216.81,1163.92 1219.01,1151.42 1221.21,1135.75 1223.41,1116.9 1225.61,1094.87 1227.81,1069.68 1230.01,1041.4 1232.21,1010.12 1234.4,975.963 1236.6,939.101 1238.8,899.724 1241,858.059 1243.2,814.368 1245.4,768.943 1247.6,722.106 1249.8,674.203 1252,625.608 1254.2,576.712 1256.39,527.926 1258.59,479.671 1260.79,432.378 1262.99,386.481 1265.19,342.413 1267.39,300.6 1269.59,261.459 1271.79,225.387 1273.99,192.765 1276.19,163.942 1278.38,139.241 1280.58,118.95 1282.78,103.315 1284.98,92.5429 1287.18,86.7953 1289.38,86.1857 1291.58,90.7783 1293.78,100.587 1295.98,115.574 1298.18,135.65 1300.37,160.676 1302.57,190.463 1304.77,224.773 1306.97,263.326 1309.17,305.796 1311.37,351.822 1313.57,401.005 1315.77,452.918 1317.97,507.109 1320.17,563.103 1322.36,620.412 1324.56,678.538 1326.76,736.979 1328.96,795.234 1331.16,852.809 1333.36,909.22 1335.56,964.005 1337.76,1016.72 1339.96,1066.94 1342.16,1114.3 1344.36,1158.42 1346.55,1199 1348.75,1235.76 1350.95,1268.47 1353.15,1296.93 1355.35,1321 1357.55,1340.57 1359.75,1355.59 1361.95,1366.03 1364.15,1371.92 1366.35,1373.34 1368.54,1370.37 1370.74,1363.17 1372.94,1351.9 1375.14,1336.77 1377.34,1318 1379.54,1295.86 1381.74,1270.6 1383.94,1242.51 1386.14,1211.89 1388.34,1179.05 1390.53,1144.3 1392.73,1107.95 1394.93,1070.31 1397.13,1031.69 1399.33,992.381 1401.53,952.685 1403.73,912.876 1405.93,873.22 1408.13,833.97 1410.33,795.362 1412.52,757.618 1414.72,720.941 1416.92,685.521 1419.12,651.53 1421.32,619.122 1423.52,588.439 1425.72,559.606 1427.92,532.734 1430.12,507.921 1432.32,485.252 1434.51,464.801 1436.71,446.632 1438.91,430.797 1441.11,417.34 1443.31,406.296 1445.51,397.691 1447.71,391.545 1449.91,387.866 1452.11,386.659 1454.31,387.918 1456.5,391.628 1458.7,397.769 1460.9,406.307 1463.1,417.201 1465.3,430.4 1467.5,445.84 1469.7,463.445 1471.9,483.129 1474.1,504.789 1476.3,528.312 1478.49,553.57 1480.69,580.42 1482.89,608.705 1485.09,638.255 1487.29,668.885 1489.49,700.4 1491.69,732.591 1493.89,765.238 1496.09,798.113 1498.29,830.979 1500.48,863.595 1502.68,895.715 1504.88,927.093 1507.08,957.483 1509.28,986.642 1511.48,1014.34 1513.68,1040.34 1515.88,1064.43 1518.08,1086.42 1520.28,1106.11 1522.47,1123.35 1524.67,1137.99 1526.87,1149.9 1529.07,1159 1531.27,1165.21 1533.47,1168.5 1535.67,1168.84 1537.87,1166.26 1540.07,1160.8 1542.27,1152.53 1544.47,1141.55 1546.66,1127.99 1548.86,1111.99 1551.06,1093.73 1553.26,1073.41 1555.46,1051.22 1557.66,1027.41 1559.86,1002.21 1562.06,975.859 1564.26,948.623 1566.46,920.756 1568.65,892.512 1570.85,864.143 1573.05,835.895 1575.25,808 1577.45,780.681 1579.65,754.142 1581.85,728.572 1584.05,704.137 1586.25,680.986 1588.45,659.241 1590.64,639.004 1592.84,620.354 1595.04,603.346 1597.24,588.013 1599.44,574.369 1601.64,562.408 1603.84,552.108 1606.04,543.431 1608.24,536.331 1610.44,530.751 1612.63,526.631 1614.83,523.909 1617.03,522.525 1619.23,522.423 1621.43,523.555 1623.63,525.887 1625.83,529.394 1628.03,534.068 1630.23,539.915 1632.43,546.959 1634.62,555.24 1636.82,564.811 1639.02,575.74 1641.22,588.103 1643.42,601.985 1645.62,617.472 1647.82,634.648 1650.02,653.592 1652.22,674.367 1654.42,697.021 1656.61,721.576 1658.81,748.025 1661.01,776.328 1663.21,806.406 1665.41,838.138 1667.61,871.359 1669.81,905.859 1672.01,941.38 1674.21,977.623 1676.41,1014.25 1678.6,1050.87 1680.8,1087.08 1683,1122.45 1685.2,1156.52 1687.4,1188.83 1689.6,1218.91 1691.8,1246.32 1694,1270.63 1696.2,1291.43 1698.4,1308.37 1700.59,1321.13 1702.79,1329.46 1704.99,1333.17 1707.19,1332.12 1709.39,1326.26 1711.59,1315.61 1713.79,1300.25 1715.99,1280.34 1718.19,1256.1 1720.39,1227.82 1722.59,1195.84 1724.78,1160.54 1726.98,1122.34 1729.18,1081.7 1731.38,1039.09 1733.58,994.994 1735.78,949.892 1737.98,904.258 1740.18,858.548 1742.38,813.195 1744.58,768.602 1746.77,725.136 1748.97,683.126 1751.17,642.86 1753.37,604.584 1755.57,568.504 1757.77,534.784 1759.97,503.554 1762.17,474.906 1764.37,448.905 1766.57,425.589 1768.76,404.975 1770.96,387.064 1773.16,371.845 1775.36,359.298 1777.56,349.4 1779.76,342.126 1781.96,337.452 1784.16,335.359 1786.36,335.827 1788.56,338.845 1790.75,344.402 1792.95,352.49 1795.15,363.1 1797.35,376.223 1799.55,391.843 1801.75,409.937 1803.95,430.473 1806.15,453.403 1808.35,478.665 1810.55,506.176 1812.74,535.833 1814.94,567.511 1817.14,601.059 1819.34,636.303 1821.54,673.044 1823.74,711.057 1825.94,750.095 1828.14,789.89 1830.34,830.153 1832.54,870.58 1834.73,910.853 1836.93,950.643 1839.13,989.618 1841.33,1027.44 1843.53,1063.78 1845.73,1098.31 1847.93,1130.71 1850.13,1160.69 1852.33,1187.97 1854.53,1212.28 1856.72,1233.41 1858.92,1251.15 1861.12,1265.33 1863.32,1275.84 1865.52,1282.56 1867.72,1285.45 1869.92,1284.49 1872.12,1279.71 1874.32,1271.16 1876.52,1258.95 1878.71,1243.21 1880.91,1224.12 1883.11,1201.87 1885.31,1176.71 1887.51,1148.89 1889.71,1118.71 1891.91,1086.45 1894.11,1052.45 1896.31,1017.03 1898.51,980.534 1900.71,943.309 1902.9,905.698 1905.1,868.04 1907.3,830.667 1909.5,793.901 1911.7,758.048 1913.9,723.396 1916.1,690.213 1918.3,658.745 1920.5,629.213 1922.7,601.81 1924.89,576.704 1927.09,554.03 1929.29,533.9 1931.49,516.391 1933.69,501.556 1935.89,489.417 1938.09,479.97 1940.29,473.185 1942.49,469.007 1944.69,467.359 1946.88,468.144 1949.08,471.245 1951.28,476.531 1953.48,483.854 1955.68,493.056 1957.88,503.971 1960.08,516.424 1962.28,530.236 1964.48,545.226 1966.68,561.213 1968.87,578.016 1971.07,595.459 1973.27,613.37 1975.47,631.585 1977.67,649.945 1979.87,668.302 1982.07,686.516 1984.27,704.46 1986.47,722.014 1988.67,739.072 1990.86,755.538 1993.06,771.326 1995.26,786.365 1997.46,800.591 1999.66,813.952 2001.86,826.405 2004.06,837.917 2006.26,848.464 2008.46,858.031 2010.66,866.608 2012.85,874.193 2015.05,880.792 2017.25,886.413 2019.45,891.071 2021.65,894.786 2023.85,897.578 2026.05,899.474 2028.25,900.503 2030.45,900.693 2032.65,900.078 2034.84,898.691 2037.04,896.567 2039.24,893.743 2041.44,890.256 2043.64,886.143 2045.84,881.444 2048.04,876.199 2050.24,870.447 2052.44,864.229 2054.64,857.587 2056.83,850.563 2059.03,843.201 2061.23,835.544 2063.43,827.636 2065.63,819.522 2067.83,811.25 2070.03,802.863 2072.23,794.411 2074.43,785.94 2076.63,777.497 2078.82,769.13 2081.02,760.887 2083.22,752.816 2085.42,744.961 2087.62,737.371 2089.82,730.089 2092.02,723.158 2094.22,716.622 2096.42,710.519 2098.62,704.887 2100.82,699.761 2103.01,695.173 2105.21,691.152 2107.41,687.724 2109.61,684.911 2111.81,682.73 2114.01,681.195 2116.21,680.316 2118.41,680.098 2120.61,680.542 2122.81,681.643 2125,683.393 2127.2,685.778 2129.4,688.781 2131.6,692.38 2133.8,696.547 2136,701.253 2138.2,706.462 2140.4,712.136 2142.6,718.233 2144.8,724.709 2146.99,731.514 2149.19,738.601 2151.39,745.915 2153.59,753.404 2155.79,761.012 2157.99,768.684 2160.19,776.364 2162.39,783.997 2164.59,791.526 2166.79,798.898 2168.98,806.06 2171.18,812.961 2173.38,819.552 2175.58,825.788 2177.78,831.626 2179.98,837.026 2182.18,841.951 2184.38,846.37 2186.58,850.255 2188.78,853.582 2190.97,856.332 2193.17,858.49 2195.37,860.046 2197.57,860.995 2199.77,861.337 2201.97,861.075 2204.17,860.218 2206.37,858.78 2208.57,856.777 2210.77,854.232 2212.96,851.171 2215.16,847.621 2217.36,843.617 2219.56,839.193 2221.76,834.388 2223.96,829.243 2226.16,823.8 2228.36,818.105 2230.56,812.203 2232.76,806.141 2234.95,799.966 2237.15,793.726 2239.35,787.468 2241.55,781.239 2243.75,775.083 2245.95,769.046 2248.15,763.169 2250.35,757.494 2252.55,752.059 2254.75,746.9 2256.94,742.049 2259.14,737.537 2261.34,733.39 2263.54,729.632 2265.74,726.283 2267.94,723.36 2270.14,720.874 2272.34,718.836 2274.54,717.251 2276.74,716.121 2278.94,715.443 2281.13,715.214 2283.33,715.424 2285.53,716.062 2287.73,717.113 2289.93,718.559 2292.13,720.38 "/>
<path clip-path="url(#clip500)" d="M1959.44 275.122 L2281.35 275.122 L2281.35 93.1086 L1959.44 93.1086  Z" fill="#ffffff" fill-rule="evenodd" fill-opacity="1"/>
<polyline clip-path="url(#clip500)" style="stroke:#000000; stroke-linecap:round; stroke-linejoin:round; stroke-width:4; stroke-opacity:1; fill:none" points="1959.44,275.122 2281.35,275.122 2281.35,93.1086 1959.44,93.1086 1959.44,275.122 "/>
<polyline clip-path="url(#clip500)" style="stroke:#ba3d3a; stroke-linecap:round; stroke-linejoin:round; stroke-width:8; stroke-opacity:1; fill:none" points="1983.24,153.78 2126.05,153.78 "/>
<path clip-path="url(#clip500)" d="M2172.27 149.587 Q2172.27 150.899 2171.87 152.374 L2166.41 174.087 Q2165.92 176.008 2164.44 176.008 Q2163.84 176.008 2163.46 175.633 Q2163.11 175.281 2163.11 174.719 Q2163.11 174.532 2163.25 173.946 L2168.71 151.882 Q2169.2 149.868 2169.2 148.861 Q2169.2 145.512 2166.6 145.512 Q2164.3 145.512 2162.01 147.198 Q2160.95 148.041 2159.92 149.564 Q2158.92 151.063 2158.73 151.601 Q2158.52 152.819 2158.21 153.756 Q2158.07 154.412 2157.39 156.965 L2156.34 161.298 Q2155.59 164.531 2155.43 164.835 Q2155.19 165.491 2154.68 165.842 Q2154.16 166.194 2153.65 166.194 Q2153.06 166.194 2152.66 165.842 Q2152.26 165.491 2152.26 164.882 Q2152.26 164.788 2152.33 164.437 Q2152.4 164.086 2152.52 163.594 Q2152.64 163.102 2152.69 162.821 L2155.47 151.742 Q2155.99 149.728 2156.11 149.095 Q2156.25 148.439 2156.25 147.713 Q2156.25 146.448 2155.85 145.98 Q2155.45 145.512 2154.75 145.512 Q2153.53 145.512 2152.73 146.964 Q2151.94 148.416 2151.26 151.227 Q2151.05 152 2150.91 152.164 Q2150.79 152.327 2150.44 152.327 Q2149.85 152.304 2149.85 151.836 Q2149.85 151.719 2150.04 150.969 Q2150.23 150.196 2150.58 149.072 Q2150.95 147.924 2151.35 147.198 Q2151.59 146.706 2151.8 146.378 Q2152.01 146.05 2152.43 145.535 Q2152.85 145.02 2153.48 144.739 Q2154.11 144.458 2154.89 144.458 Q2156.6 144.458 2157.86 145.558 Q2159.15 146.659 2159.31 148.627 Q2159.81 147.901 2160.44 147.245 Q2161.09 146.589 2162.01 145.933 Q2162.92 145.254 2164.16 144.856 Q2165.4 144.458 2166.74 144.458 Q2169.41 144.458 2170.84 145.839 Q2172.27 147.198 2172.27 149.587 Z" fill="#000000" fill-rule="nonzero" fill-opacity="1" /><path clip-path="url(#clip500)" d="M2179.2 153.663 Q2179.2 145.558 2182.22 139.024 Q2183.51 136.283 2185.31 133.988 Q2187.12 131.692 2188.31 130.685 Q2189.51 129.678 2189.83 129.678 Q2190.3 129.678 2190.33 130.146 Q2190.33 130.381 2189.69 130.966 Q2181.96 138.836 2181.99 153.663 Q2181.99 168.536 2189.51 176.101 Q2190.33 176.921 2190.33 177.179 Q2190.33 177.647 2189.83 177.647 Q2189.51 177.647 2188.36 176.687 Q2187.21 175.727 2185.43 173.525 Q2183.65 171.323 2182.36 168.63 Q2179.2 162.095 2179.2 153.663 Z" fill="#000000" fill-rule="nonzero" fill-opacity="1" /><path clip-path="url(#clip500)" d="M2208.7 145.512 Q2208.7 146.167 2208.4 146.331 Q2208.09 146.472 2207.25 146.472 L2202.75 146.472 L2199.19 160.619 Q2198.91 161.86 2198.91 162.914 Q2198.91 164.086 2199.26 164.601 Q2199.64 165.116 2200.41 165.116 Q2201.93 165.116 2203.57 163.734 Q2205.23 162.352 2206.64 158.979 Q2206.83 158.534 2206.92 158.441 Q2207.04 158.324 2207.34 158.324 Q2207.93 158.324 2207.93 158.792 Q2207.93 158.956 2207.6 159.706 Q2207.29 160.455 2206.62 161.556 Q2205.96 162.657 2205.09 163.687 Q2204.25 164.718 2202.96 165.467 Q2201.67 166.194 2200.29 166.194 Q2198.35 166.194 2197.11 164.952 Q2195.89 163.711 2195.89 161.767 Q2195.89 161.134 2196.38 159.12 Q2196.87 157.082 2199.54 146.472 L2195.3 146.472 Q2194.72 146.472 2194.48 146.448 Q2194.27 146.425 2194.11 146.308 Q2193.97 146.167 2193.97 145.886 Q2193.97 145.441 2194.15 145.254 Q2194.34 145.043 2194.58 145.02 Q2194.83 144.973 2195.42 144.973 L2199.92 144.973 L2201.79 137.361 Q2201.98 136.611 2202.45 136.189 Q2202.94 135.744 2203.22 135.698 Q2203.5 135.627 2203.71 135.627 Q2204.34 135.627 2204.72 135.979 Q2205.09 136.307 2205.09 136.916 Q2205.09 137.243 2203.13 144.973 L2207.34 144.973 Q2207.88 144.973 2208.09 144.996 Q2208.33 145.02 2208.51 145.137 Q2208.7 145.254 2208.7 145.512 Z" fill="#000000" fill-rule="nonzero" fill-opacity="1" /><path clip-path="url(#clip500)" d="M2212.45 177.179 Q2212.45 176.944 2213.06 176.359 Q2220.79 168.489 2220.79 153.663 Q2220.79 138.789 2213.36 131.271 Q2212.45 130.404 2212.45 130.146 Q2212.45 129.678 2212.92 129.678 Q2213.25 129.678 2214.39 130.638 Q2215.57 131.599 2217.32 133.8 Q2219.1 136.002 2220.41 138.696 Q2223.58 145.23 2223.58 153.663 Q2223.58 161.767 2220.56 168.302 Q2219.27 171.042 2217.46 173.337 Q2215.66 175.633 2214.47 176.64 Q2213.27 177.647 2212.92 177.647 Q2212.45 177.647 2212.45 177.179 Z" fill="#000000" fill-rule="nonzero" fill-opacity="1" /><polyline clip-path="url(#clip500)" style="stroke:#4a7945; stroke-linecap:round; stroke-linejoin:round; stroke-width:8; stroke-opacity:1; fill:none" stroke-dasharray="4, 8" points="1983.24,214.451 2126.05,214.451 "/>
<path clip-path="url(#clip500)" d="M2172.27 203.673 Q2172.27 204.984 2171.87 206.46 L2166.41 228.173 Q2165.92 230.093 2164.44 230.093 Q2163.84 230.093 2163.46 229.718 Q2163.11 229.367 2163.11 228.805 Q2163.11 228.618 2163.25 228.032 L2168.71 205.968 Q2169.2 203.954 2169.2 202.947 Q2169.2 199.597 2166.6 199.597 Q2164.3 199.597 2162.01 201.284 Q2160.95 202.127 2159.92 203.649 Q2158.92 205.148 2158.73 205.687 Q2158.52 206.905 2158.21 207.842 Q2158.07 208.498 2157.39 211.051 L2156.34 215.384 Q2155.59 218.616 2155.43 218.921 Q2155.19 219.577 2154.68 219.928 Q2154.16 220.279 2153.65 220.279 Q2153.06 220.279 2152.66 219.928 Q2152.26 219.577 2152.26 218.968 Q2152.26 218.874 2152.33 218.523 Q2152.4 218.171 2152.52 217.679 Q2152.64 217.187 2152.69 216.906 L2155.47 205.828 Q2155.99 203.813 2156.11 203.181 Q2156.25 202.525 2156.25 201.799 Q2156.25 200.534 2155.85 200.066 Q2155.45 199.597 2154.75 199.597 Q2153.53 199.597 2152.73 201.049 Q2151.94 202.502 2151.26 205.312 Q2151.05 206.085 2150.91 206.249 Q2150.79 206.413 2150.44 206.413 Q2149.85 206.39 2149.85 205.921 Q2149.85 205.804 2150.04 205.055 Q2150.23 204.282 2150.58 203.157 Q2150.95 202.01 2151.35 201.284 Q2151.59 200.792 2151.8 200.464 Q2152.01 200.136 2152.43 199.621 Q2152.85 199.105 2153.48 198.824 Q2154.11 198.543 2154.89 198.543 Q2156.6 198.543 2157.86 199.644 Q2159.15 200.745 2159.31 202.712 Q2159.81 201.986 2160.44 201.33 Q2161.09 200.675 2162.01 200.019 Q2162.92 199.34 2164.16 198.941 Q2165.4 198.543 2166.74 198.543 Q2169.41 198.543 2170.84 199.925 Q2172.27 201.284 2172.27 203.673 Z" fill="#000000" fill-rule="nonzero" fill-opacity="1" /><path clip-path="url(#clip500)" d="M2201 220.723 L2198.88 229.281 Q2198.74 229.822 2198.64 229.888 Q2198.56 229.954 2198.29 229.954 Q2197.79 229.954 2197.79 229.609 Q2197.79 229.577 2197.83 229.15 Q2197.88 228.708 2197.88 227.904 Q2197.88 224.937 2196.44 223.182 Q2195.01 221.428 2192.47 221.428 Q2190.1 221.428 2187.82 222.674 Q2185.54 223.92 2184.08 225.756 Q2182.85 227.265 2182 229.101 Q2181.16 230.937 2180.82 232.544 Q2180.47 234.135 2180.34 235.102 Q2180.23 236.069 2180.23 236.692 Q2180.23 238.529 2180.82 239.955 Q2181.41 241.365 2182.39 242.168 Q2183.39 242.972 2184.54 243.365 Q2185.7 243.759 2186.96 243.759 Q2187.44 243.759 2188.01 243.693 Q2188.59 243.628 2189.47 243.382 Q2190.37 243.136 2191.11 242.726 Q2191.87 242.316 2192.52 241.529 Q2193.19 240.742 2193.46 239.693 Q2194.16 237.02 2194.16 236.627 Q2194.16 236.299 2193.96 236.184 Q2193.77 236.069 2193.11 235.987 L2191.34 235.922 Q2191.31 235.922 2191.26 235.922 Q2190.95 235.922 2190.82 235.922 Q2190.69 235.905 2190.54 235.872 Q2190.41 235.84 2190.36 235.774 Q2190.33 235.692 2190.33 235.561 Q2190.33 235.249 2190.46 235.102 Q2190.59 234.938 2190.7 234.922 Q2190.82 234.889 2191.03 234.889 L2195.74 234.987 Q2196.11 234.987 2197.49 234.938 Q2198.87 234.889 2199.26 234.889 Q2199.7 234.889 2199.7 235.249 Q2199.7 235.922 2199.16 235.922 Q2198.62 235.938 2198.34 235.954 Q2198.06 235.954 2197.79 236.036 Q2197.52 236.118 2197.42 236.184 Q2197.33 236.233 2197.19 236.479 Q2197.06 236.709 2197.01 236.905 Q2196.97 237.086 2196.85 237.545 Q2196.79 237.84 2196.62 238.397 Q2196.47 238.955 2196.41 239.25 L2195.77 241.841 Q2195.33 243.759 2195.19 243.89 Q2195.13 244.021 2194.97 244.021 Q2194.72 244.021 2194.19 243.3 Q2193.69 242.578 2193.46 241.939 Q2193.05 242.382 2192.78 242.644 Q2192.52 242.89 2191.92 243.283 Q2191.33 243.677 2190.54 243.988 Q2188.62 244.792 2186.34 244.792 Q2182.27 244.792 2179.72 242.218 Q2177.16 239.627 2177.16 235.594 Q2177.16 232.741 2178.47 229.937 Q2179.78 227.134 2181.86 225.051 Q2183.95 222.969 2186.7 221.674 Q2189.46 220.379 2192.21 220.379 Q2193.26 220.379 2194.19 220.657 Q2195.13 220.936 2195.69 221.28 Q2196.26 221.625 2196.77 222.133 Q2197.28 222.625 2197.44 222.854 Q2197.62 223.084 2197.79 223.363 L2200.13 220.788 Q2200.54 220.379 2200.64 220.379 Q2200.83 220.379 2200.92 220.493 Q2201 220.608 2201 220.723 Z" fill="#000000" fill-rule="nonzero" fill-opacity="1" /><path clip-path="url(#clip500)" d="M2205.88 207.748 Q2205.88 199.644 2208.9 193.109 Q2210.19 190.369 2212 188.073 Q2213.8 185.778 2214.99 184.771 Q2216.19 183.764 2216.52 183.764 Q2216.98 183.764 2217.01 184.232 Q2217.01 184.466 2216.38 185.052 Q2208.65 192.922 2208.67 207.748 Q2208.67 222.621 2216.19 230.187 Q2217.01 231.007 2217.01 231.264 Q2217.01 231.733 2216.52 231.733 Q2216.19 231.733 2215.04 230.772 Q2213.89 229.812 2212.11 227.61 Q2210.33 225.409 2209.04 222.715 Q2205.88 216.18 2205.88 207.748 Z" fill="#000000" fill-rule="nonzero" fill-opacity="1" /><path clip-path="url(#clip500)" d="M2235.38 199.597 Q2235.38 200.253 2235.08 200.417 Q2234.77 200.558 2233.93 200.558 L2229.43 200.558 L2225.87 214.705 Q2225.59 215.946 2225.59 217 Q2225.59 218.171 2225.94 218.686 Q2226.32 219.202 2227.09 219.202 Q2228.61 219.202 2230.25 217.82 Q2231.92 216.438 2233.32 213.065 Q2233.51 212.62 2233.6 212.526 Q2233.72 212.409 2234.02 212.409 Q2234.61 212.409 2234.61 212.878 Q2234.61 213.042 2234.28 213.791 Q2233.98 214.541 2233.3 215.642 Q2232.64 216.742 2231.78 217.773 Q2230.93 218.804 2229.64 219.553 Q2228.36 220.279 2226.97 220.279 Q2225.03 220.279 2223.79 219.038 Q2222.57 217.796 2222.57 215.852 Q2222.57 215.22 2223.06 213.206 Q2223.55 211.168 2226.22 200.558 L2221.99 200.558 Q2221.4 200.558 2221.17 200.534 Q2220.95 200.511 2220.79 200.394 Q2220.65 200.253 2220.65 199.972 Q2220.65 199.527 2220.84 199.34 Q2221.02 199.129 2221.26 199.105 Q2221.52 199.058 2222.1 199.058 L2226.6 199.058 L2228.47 191.446 Q2228.66 190.697 2229.13 190.275 Q2229.62 189.83 2229.9 189.783 Q2230.18 189.713 2230.39 189.713 Q2231.03 189.713 2231.4 190.064 Q2231.78 190.392 2231.78 191.001 Q2231.78 191.329 2229.81 199.058 L2234.02 199.058 Q2234.56 199.058 2234.77 199.082 Q2235.01 199.105 2235.2 199.222 Q2235.38 199.34 2235.38 199.597 Z" fill="#000000" fill-rule="nonzero" fill-opacity="1" /><path clip-path="url(#clip500)" d="M2239.13 231.264 Q2239.13 231.03 2239.74 230.445 Q2247.47 222.575 2247.47 207.748 Q2247.47 192.875 2240.05 185.356 Q2239.13 184.49 2239.13 184.232 Q2239.13 183.764 2239.6 183.764 Q2239.93 183.764 2241.08 184.724 Q2242.25 185.684 2244.01 187.886 Q2245.79 190.088 2247.1 192.781 Q2250.26 199.316 2250.26 207.748 Q2250.26 215.852 2247.24 222.387 Q2245.95 225.128 2244.15 227.423 Q2242.34 229.718 2241.15 230.726 Q2239.95 231.733 2239.6 231.733 Q2239.13 231.733 2239.13 231.264 Z" fill="#000000" fill-rule="nonzero" fill-opacity="1" /></svg>
