<svg xmlns="http://www.w3.org/2000/svg" xmlns:xlink="http://www.w3.org/1999/xlink" width="600" height="400" viewBox="0 0 2400 1600">
<defs>
  <clipPath id="clip150">
    <rect x="0" y="0" width="2400" height="1600"></rect>
  </clipPath>
</defs>
<path clip-path="url(#clip150)" d="M0 1600 L2400 1600 L2400 0 L0 0  Z" fill="#ffffff" fill-rule="evenodd" fill-opacity="1"></path>
<defs>
  <clipPath id="clip151">
    <rect x="480" y="0" width="1681" height="1600"></rect>
  </clipPath>
</defs>
<path clip-path="url(#clip150)" d="M172.691 1423.18 L2352.76 1423.18 L2352.76 47.2441 L172.691 47.2441  Z" fill="#ffffff" fill-rule="evenodd" fill-opacity="1"></path>
<defs>
  <clipPath id="clip152">
    <rect x="172" y="47" width="2181" height="1377"></rect>
  </clipPath>
</defs>
<polyline clip-path="url(#clip152)" style="stroke:#000000; stroke-linecap:round; stroke-linejoin:round; stroke-width:2; stroke-opacity:0.1; fill:none" points="411.135,1423.18 411.135,47.2441 "></polyline>
<polyline clip-path="url(#clip152)" style="stroke:#000000; stroke-linecap:round; stroke-linejoin:round; stroke-width:2; stroke-opacity:0.1; fill:none" points="836.929,1423.18 836.929,47.2441 "></polyline>
<polyline clip-path="url(#clip152)" style="stroke:#000000; stroke-linecap:round; stroke-linejoin:round; stroke-width:2; stroke-opacity:0.1; fill:none" points="1262.72,1423.18 1262.72,47.2441 "></polyline>
<polyline clip-path="url(#clip152)" style="stroke:#000000; stroke-linecap:round; stroke-linejoin:round; stroke-width:2; stroke-opacity:0.1; fill:none" points="1688.52,1423.18 1688.52,47.2441 "></polyline>
<polyline clip-path="url(#clip152)" style="stroke:#000000; stroke-linecap:round; stroke-linejoin:round; stroke-width:2; stroke-opacity:0.1; fill:none" points="2114.31,1423.18 2114.31,47.2441 "></polyline>
<polyline clip-path="url(#clip150)" style="stroke:#000000; stroke-linecap:round; stroke-linejoin:round; stroke-width:4; stroke-opacity:1; fill:none" points="172.691,1423.18 2352.76,1423.18 "></polyline>
<polyline clip-path="url(#clip150)" style="stroke:#000000; stroke-linecap:round; stroke-linejoin:round; stroke-width:4; stroke-opacity:1; fill:none" points="411.135,1423.18 411.135,1404.28 "></polyline>
<polyline clip-path="url(#clip150)" style="stroke:#000000; stroke-linecap:round; stroke-linejoin:round; stroke-width:4; stroke-opacity:1; fill:none" points="836.929,1423.18 836.929,1404.28 "></polyline>
<polyline clip-path="url(#clip150)" style="stroke:#000000; stroke-linecap:round; stroke-linejoin:round; stroke-width:4; stroke-opacity:1; fill:none" points="1262.72,1423.18 1262.72,1404.28 "></polyline>
<polyline clip-path="url(#clip150)" style="stroke:#000000; stroke-linecap:round; stroke-linejoin:round; stroke-width:4; stroke-opacity:1; fill:none" points="1688.52,1423.18 1688.52,1404.28 "></polyline>
<polyline clip-path="url(#clip150)" style="stroke:#000000; stroke-linecap:round; stroke-linejoin:round; stroke-width:4; stroke-opacity:1; fill:none" points="2114.31,1423.18 2114.31,1404.28 "></polyline>
<path clip-path="url(#clip150)" d="M401.995 1472.22 Q402.292 1472.51 402.292 1472.93 Q402.292 1473.35 401.995 1473.65 Q401.699 1473.94 401.279 1473.94 L369.609 1473.94 Q369.189 1473.94 368.893 1473.65 Q368.596 1473.35 368.596 1472.93 Q368.596 1472.51 368.893 1472.22 Q369.189 1471.92 369.609 1471.92 L401.279 1471.92 Q401.699 1471.92 401.995 1472.22 Z" fill="#000000" fill-rule="nonzero" fill-opacity="1"></path><path clip-path="url(#clip150)" d="M407.628 1477.43 Q407.628 1475.92 408.443 1475.35 Q409.258 1474.76 410.123 1474.76 Q411.284 1474.76 411.951 1475.5 Q412.642 1476.22 412.642 1477.23 Q412.642 1478.24 411.951 1478.98 Q411.284 1479.7 410.123 1479.7 Q409.554 1479.7 409.258 1479.6 Q409.925 1481.92 411.951 1483.6 Q414.001 1485.28 416.694 1485.28 Q420.078 1485.28 422.104 1482 Q423.314 1479.87 423.314 1475.06 Q423.314 1470.81 422.4 1468.68 Q420.992 1465.45 418.102 1465.45 Q414.001 1465.45 411.58 1468.98 Q411.284 1469.42 410.938 1469.45 Q410.444 1469.45 410.32 1469.18 Q410.221 1468.88 410.221 1468.11 L410.221 1453.14 Q410.221 1451.93 410.715 1451.93 Q410.913 1451.93 411.333 1452.08 Q414.52 1453.49 418.052 1453.51 Q421.684 1453.51 424.945 1452.03 Q425.192 1451.88 425.34 1451.88 Q425.834 1451.88 425.859 1452.45 Q425.859 1452.65 425.439 1453.24 Q425.043 1453.81 424.179 1454.58 Q423.314 1455.32 422.203 1456.03 Q421.091 1456.75 419.46 1457.25 Q417.855 1457.71 416.076 1457.71 Q413.952 1457.71 411.778 1457.05 L411.778 1466.9 Q414.396 1464.33 418.201 1464.33 Q422.252 1464.33 425.043 1467.6 Q427.835 1470.86 427.835 1475.4 Q427.835 1480.17 424.525 1483.43 Q421.239 1486.69 416.792 1486.69 Q412.741 1486.69 410.172 1483.8 Q407.628 1480.91 407.628 1477.43 Z" fill="#000000" fill-rule="nonzero" fill-opacity="1"></path><path clip-path="url(#clip150)" d="M432.38 1469.4 Q432.38 1461.96 434.258 1457.91 Q436.876 1451.88 443.052 1451.88 Q444.361 1451.88 445.72 1452.26 Q447.104 1452.6 448.833 1453.96 Q450.587 1455.32 451.649 1457.54 Q453.675 1461.84 453.675 1469.4 Q453.675 1476.79 451.797 1480.81 Q449.055 1486.69 443.003 1486.69 Q440.73 1486.69 438.408 1485.53 Q436.111 1484.37 434.653 1481.58 Q432.38 1477.4 432.38 1469.4 M436.58 1468.78 Q436.58 1476.41 437.123 1479.45 Q437.741 1482.74 439.421 1484.17 Q441.125 1485.58 443.003 1485.58 Q445.028 1485.58 446.708 1484.07 Q448.413 1482.54 448.932 1479.26 Q449.5 1476.02 449.475 1468.78 Q449.475 1461.74 448.981 1458.92 Q448.314 1455.64 446.535 1454.33 Q444.781 1453 443.003 1453 Q442.336 1453 441.619 1453.19 Q440.928 1453.39 439.915 1453.96 Q438.902 1454.53 438.111 1455.94 Q437.346 1457.34 436.975 1459.47 Q436.58 1462.21 436.58 1468.78 Z" fill="#000000" fill-rule="nonzero" fill-opacity="1"></path><path clip-path="url(#clip150)" d="M828.061 1472.22 Q828.357 1472.51 828.357 1472.93 Q828.357 1473.35 828.061 1473.65 Q827.764 1473.94 827.344 1473.94 L795.675 1473.94 Q795.255 1473.94 794.958 1473.65 Q794.662 1473.35 794.662 1472.93 Q794.662 1472.51 794.958 1472.22 Q795.255 1471.92 795.675 1471.92 L827.344 1471.92 Q827.764 1471.92 828.061 1472.22 Z" fill="#000000" fill-rule="nonzero" fill-opacity="1"></path><path clip-path="url(#clip150)" d="M833.693 1485.58 Q833.693 1484.67 833.767 1484.39 Q833.866 1484.12 834.261 1483.7 L843.97 1472.88 Q849.281 1466.9 849.281 1461.69 Q849.281 1458.31 847.502 1455.89 Q845.748 1453.47 842.512 1453.47 Q840.289 1453.47 838.412 1454.82 Q836.534 1456.18 835.67 1458.6 Q835.818 1458.55 836.337 1458.55 Q837.596 1458.55 838.288 1459.34 Q839.004 1460.14 839.004 1461.2 Q839.004 1462.56 838.115 1463.22 Q837.251 1463.87 836.386 1463.87 Q836.04 1463.87 835.571 1463.79 Q835.126 1463.72 834.41 1463.03 Q833.693 1462.31 833.693 1461.05 Q833.693 1457.52 836.361 1454.7 Q839.054 1451.88 843.155 1451.88 Q847.799 1451.88 850.837 1454.65 Q853.901 1457.39 853.901 1461.69 Q853.901 1463.2 853.431 1464.58 Q852.987 1465.94 852.369 1467 Q851.776 1468.07 850.146 1469.77 Q848.515 1471.47 847.206 1472.68 Q845.897 1473.9 842.957 1476.46 L837.596 1481.68 L846.712 1481.68 Q851.159 1481.68 851.504 1481.28 Q851.998 1480.57 852.616 1476.79 L853.901 1476.79 L852.468 1485.58 L833.693 1485.58 Z" fill="#000000" fill-rule="nonzero" fill-opacity="1"></path><path clip-path="url(#clip150)" d="M858.989 1477.43 Q858.989 1475.92 859.805 1475.35 Q860.62 1474.76 861.485 1474.76 Q862.646 1474.76 863.313 1475.5 Q864.004 1476.22 864.004 1477.23 Q864.004 1478.24 863.313 1478.98 Q862.646 1479.7 861.485 1479.7 Q860.916 1479.7 860.62 1479.6 Q861.287 1481.92 863.313 1483.6 Q865.363 1485.28 868.056 1485.28 Q871.44 1485.28 873.466 1482 Q874.676 1479.87 874.676 1475.06 Q874.676 1470.81 873.762 1468.68 Q872.354 1465.45 869.464 1465.45 Q865.363 1465.45 862.942 1468.98 Q862.646 1469.42 862.3 1469.45 Q861.806 1469.45 861.682 1469.18 Q861.583 1468.88 861.583 1468.11 L861.583 1453.14 Q861.583 1451.93 862.077 1451.93 Q862.275 1451.93 862.695 1452.08 Q865.882 1453.49 869.414 1453.51 Q873.046 1453.51 876.307 1452.03 Q876.554 1451.88 876.702 1451.88 Q877.196 1451.88 877.221 1452.45 Q877.221 1452.65 876.801 1453.24 Q876.405 1453.81 875.541 1454.58 Q874.676 1455.32 873.564 1456.03 Q872.453 1456.75 870.822 1457.25 Q869.217 1457.71 867.438 1457.71 Q865.314 1457.71 863.14 1457.05 L863.14 1466.9 Q865.758 1464.33 869.563 1464.33 Q873.614 1464.33 876.405 1467.6 Q879.197 1470.86 879.197 1475.4 Q879.197 1480.17 875.887 1483.43 Q872.601 1486.69 868.154 1486.69 Q864.103 1486.69 861.534 1483.8 Q858.989 1480.91 858.989 1477.43 Z" fill="#000000" fill-rule="nonzero" fill-opacity="1"></path><path clip-path="url(#clip150)" d="M1252.08 1469.4 Q1252.08 1461.96 1253.95 1457.91 Q1256.57 1451.88 1262.75 1451.88 Q1264.06 1451.88 1265.42 1452.26 Q1266.8 1452.6 1268.53 1453.96 Q1270.28 1455.32 1271.34 1457.54 Q1273.37 1461.84 1273.37 1469.4 Q1273.37 1476.79 1271.49 1480.81 Q1268.75 1486.69 1262.7 1486.69 Q1260.43 1486.69 1258.1 1485.53 Q1255.81 1484.37 1254.35 1481.58 Q1252.08 1477.4 1252.08 1469.4 M1256.28 1468.78 Q1256.28 1476.41 1256.82 1479.45 Q1257.44 1482.74 1259.12 1484.17 Q1260.82 1485.58 1262.7 1485.58 Q1264.72 1485.58 1266.4 1484.07 Q1268.11 1482.54 1268.63 1479.26 Q1269.2 1476.02 1269.17 1468.78 Q1269.17 1461.74 1268.68 1458.92 Q1268.01 1455.64 1266.23 1454.33 Q1264.48 1453 1262.7 1453 Q1262.03 1453 1261.32 1453.19 Q1260.62 1453.39 1259.61 1453.96 Q1258.6 1454.53 1257.81 1455.94 Q1257.04 1457.34 1256.67 1459.47 Q1256.28 1462.21 1256.28 1468.78 Z" fill="#000000" fill-rule="nonzero" fill-opacity="1"></path><path clip-path="url(#clip150)" d="M1665.77 1485.58 Q1665.77 1484.67 1665.84 1484.39 Q1665.94 1484.12 1666.33 1483.7 L1676.04 1472.88 Q1681.35 1466.9 1681.35 1461.69 Q1681.35 1458.31 1679.57 1455.89 Q1677.82 1453.47 1674.58 1453.47 Q1672.36 1453.47 1670.48 1454.82 Q1668.61 1456.18 1667.74 1458.6 Q1667.89 1458.55 1668.41 1458.55 Q1669.67 1458.55 1670.36 1459.34 Q1671.08 1460.14 1671.08 1461.2 Q1671.08 1462.56 1670.19 1463.22 Q1669.32 1463.87 1668.46 1463.87 Q1668.11 1463.87 1667.64 1463.79 Q1667.2 1463.72 1666.48 1463.03 Q1665.77 1462.31 1665.77 1461.05 Q1665.77 1457.52 1668.43 1454.7 Q1671.13 1451.88 1675.23 1451.88 Q1679.87 1451.88 1682.91 1454.65 Q1685.97 1457.39 1685.97 1461.69 Q1685.97 1463.2 1685.5 1464.58 Q1685.06 1465.94 1684.44 1467 Q1683.85 1468.07 1682.22 1469.77 Q1680.59 1471.47 1679.28 1472.68 Q1677.97 1473.9 1675.03 1476.46 L1669.67 1481.68 L1678.78 1481.68 Q1683.23 1481.68 1683.58 1481.28 Q1684.07 1480.57 1684.69 1476.79 L1685.97 1476.79 L1684.54 1485.58 L1665.77 1485.58 Z" fill="#000000" fill-rule="nonzero" fill-opacity="1"></path><path clip-path="url(#clip150)" d="M1691.06 1477.43 Q1691.06 1475.92 1691.88 1475.35 Q1692.69 1474.76 1693.56 1474.76 Q1694.72 1474.76 1695.38 1475.5 Q1696.08 1476.22 1696.08 1477.23 Q1696.08 1478.24 1695.38 1478.98 Q1694.72 1479.7 1693.56 1479.7 Q1692.99 1479.7 1692.69 1479.6 Q1693.36 1481.92 1695.38 1483.6 Q1697.44 1485.28 1700.13 1485.28 Q1703.51 1485.28 1705.54 1482 Q1706.75 1479.87 1706.75 1475.06 Q1706.75 1470.81 1705.83 1468.68 Q1704.43 1465.45 1701.54 1465.45 Q1697.44 1465.45 1695.01 1468.98 Q1694.72 1469.42 1694.37 1469.45 Q1693.88 1469.45 1693.75 1469.18 Q1693.66 1468.88 1693.66 1468.11 L1693.66 1453.14 Q1693.66 1451.93 1694.15 1451.93 Q1694.35 1451.93 1694.77 1452.08 Q1697.95 1453.49 1701.49 1453.51 Q1705.12 1453.51 1708.38 1452.03 Q1708.63 1451.88 1708.77 1451.88 Q1709.27 1451.88 1709.29 1452.45 Q1709.29 1452.65 1708.87 1453.24 Q1708.48 1453.81 1707.61 1454.58 Q1706.75 1455.32 1705.64 1456.03 Q1704.53 1456.75 1702.89 1457.25 Q1701.29 1457.71 1699.51 1457.71 Q1697.39 1457.71 1695.21 1457.05 L1695.21 1466.9 Q1697.83 1464.33 1701.63 1464.33 Q1705.69 1464.33 1708.48 1467.6 Q1711.27 1470.86 1711.27 1475.4 Q1711.27 1480.17 1707.96 1483.43 Q1704.67 1486.69 1700.23 1486.69 Q1696.18 1486.69 1693.61 1483.8 Q1691.06 1480.91 1691.06 1477.43 Z" fill="#000000" fill-rule="nonzero" fill-opacity="1"></path><path clip-path="url(#clip150)" d="M2091.29 1477.43 Q2091.29 1475.92 2092.1 1475.35 Q2092.92 1474.76 2093.78 1474.76 Q2094.94 1474.76 2095.61 1475.5 Q2096.3 1476.22 2096.3 1477.23 Q2096.3 1478.24 2095.61 1478.98 Q2094.94 1479.7 2093.78 1479.7 Q2093.21 1479.7 2092.92 1479.6 Q2093.59 1481.92 2095.61 1483.6 Q2097.66 1485.28 2100.35 1485.28 Q2103.74 1485.28 2105.76 1482 Q2106.97 1479.87 2106.97 1475.06 Q2106.97 1470.81 2106.06 1468.68 Q2104.65 1465.45 2101.76 1465.45 Q2097.66 1465.45 2095.24 1468.98 Q2094.94 1469.42 2094.6 1469.45 Q2094.1 1469.45 2093.98 1469.18 Q2093.88 1468.88 2093.88 1468.11 L2093.88 1453.14 Q2093.88 1451.93 2094.38 1451.93 Q2094.57 1451.93 2094.99 1452.08 Q2098.18 1453.49 2101.71 1453.51 Q2105.34 1453.51 2108.6 1452.03 Q2108.85 1451.88 2109 1451.88 Q2109.49 1451.88 2109.52 1452.45 Q2109.52 1452.65 2109.1 1453.24 Q2108.7 1453.81 2107.84 1454.58 Q2106.97 1455.32 2105.86 1456.03 Q2104.75 1456.75 2103.12 1457.25 Q2101.51 1457.71 2099.74 1457.71 Q2097.61 1457.71 2095.44 1457.05 L2095.44 1466.9 Q2098.06 1464.33 2101.86 1464.33 Q2105.91 1464.33 2108.7 1467.6 Q2111.5 1470.86 2111.5 1475.4 Q2111.5 1480.17 2108.18 1483.43 Q2104.9 1486.69 2100.45 1486.69 Q2096.4 1486.69 2093.83 1483.8 Q2091.29 1480.91 2091.29 1477.43 Z" fill="#000000" fill-rule="nonzero" fill-opacity="1"></path><path clip-path="url(#clip150)" d="M2116.04 1469.4 Q2116.04 1461.96 2117.92 1457.91 Q2120.54 1451.88 2126.71 1451.88 Q2128.02 1451.88 2129.38 1452.26 Q2130.76 1452.6 2132.49 1453.96 Q2134.25 1455.32 2135.31 1457.54 Q2137.33 1461.84 2137.33 1469.4 Q2137.33 1476.79 2135.46 1480.81 Q2132.72 1486.69 2126.66 1486.69 Q2124.39 1486.69 2122.07 1485.53 Q2119.77 1484.37 2118.31 1481.58 Q2116.04 1477.4 2116.04 1469.4 M2120.24 1468.78 Q2120.24 1476.41 2120.78 1479.45 Q2121.4 1482.74 2123.08 1484.17 Q2124.79 1485.58 2126.66 1485.58 Q2128.69 1485.58 2130.37 1484.07 Q2132.07 1482.54 2132.59 1479.26 Q2133.16 1476.02 2133.14 1468.78 Q2133.14 1461.74 2132.64 1458.92 Q2131.97 1455.64 2130.2 1454.33 Q2128.44 1453 2126.66 1453 Q2126 1453 2125.28 1453.19 Q2124.59 1453.39 2123.58 1453.96 Q2122.56 1454.53 2121.77 1455.94 Q2121.01 1457.34 2120.64 1459.47 Q2120.24 1462.21 2120.24 1468.78 Z" fill="#000000" fill-rule="nonzero" fill-opacity="1"></path><path clip-path="url(#clip150)" d="M1232.58 1528.17 Q1232.58 1529.07 1232.16 1529.3 Q1231.74 1529.49 1230.58 1529.49 L1224.4 1529.49 L1219.51 1548.94 Q1219.12 1550.65 1219.12 1552.1 Q1219.12 1553.71 1219.6 1554.42 Q1220.12 1555.13 1221.18 1555.13 Q1223.27 1555.13 1225.53 1553.23 Q1227.81 1551.33 1229.75 1546.69 Q1230 1546.08 1230.13 1545.95 Q1230.29 1545.79 1230.71 1545.79 Q1231.52 1545.79 1231.52 1546.43 Q1231.52 1546.66 1231.07 1547.69 Q1230.65 1548.72 1229.72 1550.23 Q1228.81 1551.75 1227.62 1553.16 Q1226.46 1554.58 1224.69 1555.61 Q1222.92 1556.61 1221.02 1556.61 Q1218.35 1556.61 1216.64 1554.9 Q1214.96 1553.19 1214.96 1550.52 Q1214.96 1549.65 1215.64 1546.88 Q1216.32 1544.08 1219.99 1529.49 L1214.16 1529.49 Q1213.35 1529.49 1213.03 1529.46 Q1212.74 1529.43 1212.52 1529.27 Q1212.32 1529.07 1212.32 1528.69 Q1212.32 1528.07 1212.58 1527.82 Q1212.84 1527.53 1213.16 1527.49 Q1213.52 1527.43 1214.32 1527.43 L1220.5 1527.43 L1223.08 1516.96 Q1223.34 1515.93 1223.98 1515.35 Q1224.66 1514.74 1225.05 1514.68 Q1225.43 1514.58 1225.72 1514.58 Q1226.59 1514.58 1227.11 1515.06 Q1227.62 1515.51 1227.62 1516.35 Q1227.62 1516.8 1224.92 1527.43 L1230.71 1527.43 Q1231.45 1527.43 1231.74 1527.46 Q1232.07 1527.49 1232.32 1527.66 Q1232.58 1527.82 1232.58 1528.17 Z" fill="#000000" fill-rule="nonzero" fill-opacity="1"></path><path clip-path="url(#clip150)" d="M1253.33 1572.36 L1253.33 1506.4 L1263.28 1506.4 L1263.28 1507.91 L1257.74 1507.91 L1257.74 1570.84 L1263.28 1570.84 L1263.28 1572.36 L1253.33 1572.36 Z" fill="#000000" fill-rule="nonzero" fill-opacity="1"></path><path clip-path="url(#clip150)" d="M1290.22 1532.39 Q1290.22 1534.19 1289.32 1535.16 Q1288.41 1536.09 1287.19 1536.09 Q1286.19 1536.09 1285.64 1535.51 Q1285.13 1534.93 1285.13 1534.16 Q1285.13 1533.03 1286.03 1532.13 Q1286.96 1531.23 1288.32 1531.2 Q1287.87 1530.01 1286.67 1529.3 Q1285.48 1528.56 1284.42 1528.36 Q1283.39 1528.17 1282.36 1528.17 Q1280.33 1528.17 1278.78 1528.81 Q1277.24 1529.46 1276.47 1530.46 Q1275.69 1531.42 1275.34 1532.36 Q1274.98 1533.29 1274.98 1534.1 Q1274.98 1534.81 1275.14 1535.38 Q1275.34 1535.93 1275.79 1536.35 Q1276.24 1536.74 1276.56 1537 Q1276.92 1537.25 1277.69 1537.48 Q1278.46 1537.7 1278.78 1537.8 Q1279.11 1537.86 1280.01 1538.06 Q1281.88 1538.44 1282.71 1538.67 Q1283.55 1538.86 1284.65 1539.41 Q1285.77 1539.96 1286.61 1540.83 Q1288.64 1542.86 1288.64 1545.66 Q1288.64 1546.69 1288.28 1547.95 Q1287.96 1549.2 1287.03 1550.78 Q1286.09 1552.36 1284.68 1553.61 Q1283.26 1554.87 1280.81 1555.74 Q1278.4 1556.61 1275.37 1556.61 Q1271.15 1556.61 1268.54 1554.84 Q1265.93 1553.03 1265.93 1550.2 Q1265.93 1548.14 1267.06 1547.01 Q1268.19 1545.85 1269.64 1545.85 Q1270.73 1545.85 1271.41 1546.46 Q1272.09 1547.04 1272.09 1548.14 Q1272.09 1549.62 1270.89 1550.75 Q1269.7 1551.87 1267.93 1551.65 Q1269.44 1555.13 1275.43 1555.13 Q1277.69 1555.13 1279.43 1554.55 Q1281.2 1553.94 1282.17 1553.1 Q1283.16 1552.23 1283.81 1551.17 Q1284.45 1550.1 1284.65 1549.3 Q1284.87 1548.49 1284.87 1547.88 Q1284.87 1546.82 1284.45 1546.01 Q1284.03 1545.21 1283.45 1544.76 Q1282.91 1544.27 1281.84 1543.89 Q1280.81 1543.47 1280.07 1543.31 Q1279.33 1543.15 1278.01 1542.89 Q1277.4 1542.76 1277.01 1542.7 Q1276.63 1542.6 1275.82 1542.34 Q1275.05 1542.05 1274.5 1541.76 Q1273.99 1541.47 1273.31 1540.96 Q1272.63 1540.44 1272.21 1539.83 Q1271.8 1539.22 1271.51 1538.32 Q1271.22 1537.41 1271.22 1536.35 Q1271.22 1535.38 1271.51 1534.23 Q1271.83 1533.07 1272.63 1531.71 Q1273.47 1530.36 1274.66 1529.27 Q1275.85 1528.17 1277.85 1527.46 Q1279.88 1526.72 1282.36 1526.72 Q1285.97 1526.72 1288.09 1528.4 Q1290.22 1530.04 1290.22 1532.39 Z" fill="#000000" fill-rule="nonzero" fill-opacity="1"></path><path clip-path="url(#clip150)" d="M1294.97 1570.84 L1300.51 1570.84 L1300.51 1507.91 L1294.97 1507.91 L1294.97 1506.4 L1304.92 1506.4 L1304.92 1572.36 L1294.97 1572.36 L1294.97 1570.84 Z" fill="#000000" fill-rule="nonzero" fill-opacity="1"></path><polyline clip-path="url(#clip152)" style="stroke:#000000; stroke-linecap:round; stroke-linejoin:round; stroke-width:2; stroke-opacity:0.1; fill:none" points="172.691,1384.24 2352.76,1384.24 "></polyline>
<polyline clip-path="url(#clip152)" style="stroke:#000000; stroke-linecap:round; stroke-linejoin:round; stroke-width:2; stroke-opacity:0.1; fill:none" points="172.691,1088.48 2352.76,1088.48 "></polyline>
<polyline clip-path="url(#clip152)" style="stroke:#000000; stroke-linecap:round; stroke-linejoin:round; stroke-width:2; stroke-opacity:0.1; fill:none" points="172.691,792.716 2352.76,792.716 "></polyline>
<polyline clip-path="url(#clip152)" style="stroke:#000000; stroke-linecap:round; stroke-linejoin:round; stroke-width:2; stroke-opacity:0.1; fill:none" points="172.691,496.955 2352.76,496.955 "></polyline>
<polyline clip-path="url(#clip152)" style="stroke:#000000; stroke-linecap:round; stroke-linejoin:round; stroke-width:2; stroke-opacity:0.1; fill:none" points="172.691,201.194 2352.76,201.194 "></polyline>
<polyline clip-path="url(#clip150)" style="stroke:#000000; stroke-linecap:round; stroke-linejoin:round; stroke-width:4; stroke-opacity:1; fill:none" points="172.691,1423.18 172.691,47.2441 "></polyline>
<polyline clip-path="url(#clip150)" style="stroke:#000000; stroke-linecap:round; stroke-linejoin:round; stroke-width:4; stroke-opacity:1; fill:none" points="172.691,1384.24 191.588,1384.24 "></polyline>
<polyline clip-path="url(#clip150)" style="stroke:#000000; stroke-linecap:round; stroke-linejoin:round; stroke-width:4; stroke-opacity:1; fill:none" points="172.691,1088.48 191.588,1088.48 "></polyline>
<polyline clip-path="url(#clip150)" style="stroke:#000000; stroke-linecap:round; stroke-linejoin:round; stroke-width:4; stroke-opacity:1; fill:none" points="172.691,792.716 191.588,792.716 "></polyline>
<polyline clip-path="url(#clip150)" style="stroke:#000000; stroke-linecap:round; stroke-linejoin:round; stroke-width:4; stroke-opacity:1; fill:none" points="172.691,496.955 191.588,496.955 "></polyline>
<polyline clip-path="url(#clip150)" style="stroke:#000000; stroke-linecap:round; stroke-linejoin:round; stroke-width:4; stroke-opacity:1; fill:none" points="172.691,201.194 191.588,201.194 "></polyline>
<path clip-path="url(#clip150)" d="M115.397 1385.34 Q115.397 1377.9 117.274 1373.85 Q119.893 1367.82 126.068 1367.82 Q127.378 1367.82 128.736 1368.19 Q130.12 1368.54 131.849 1369.9 Q133.603 1371.26 134.665 1373.48 Q136.691 1377.78 136.691 1385.34 Q136.691 1392.72 134.813 1396.75 Q132.071 1402.63 126.019 1402.63 Q123.746 1402.63 121.424 1401.47 Q119.127 1400.31 117.669 1397.52 Q115.397 1393.34 115.397 1385.34 M119.596 1384.72 Q119.596 1392.35 120.14 1395.39 Q120.757 1398.68 122.437 1400.11 Q124.142 1401.52 126.019 1401.52 Q128.045 1401.52 129.724 1400.01 Q131.429 1398.48 131.948 1395.19 Q132.516 1391.96 132.491 1384.72 Q132.491 1377.68 131.997 1374.86 Q131.33 1371.58 129.552 1370.27 Q127.798 1368.93 126.019 1368.93 Q125.352 1368.93 124.636 1369.13 Q123.944 1369.33 122.931 1369.9 Q121.918 1370.47 121.128 1371.87 Q120.362 1373.28 119.991 1375.41 Q119.596 1378.15 119.596 1384.72 Z" fill="#000000" fill-rule="nonzero" fill-opacity="1"></path><path clip-path="url(#clip150)" d="M116.483 1105.76 Q116.483 1104.84 116.558 1104.57 Q116.656 1104.3 117.052 1103.88 L126.76 1093.06 Q132.071 1087.08 132.071 1081.87 Q132.071 1078.48 130.293 1076.06 Q128.539 1073.64 125.303 1073.64 Q123.079 1073.64 121.202 1075 Q119.324 1076.36 118.46 1078.78 Q118.608 1078.73 119.127 1078.73 Q120.387 1078.73 121.078 1079.52 Q121.795 1080.31 121.795 1081.38 Q121.795 1082.73 120.905 1083.4 Q120.041 1084.04 119.176 1084.04 Q118.83 1084.04 118.361 1083.97 Q117.916 1083.89 117.2 1083.2 Q116.483 1082.49 116.483 1081.23 Q116.483 1077.69 119.151 1074.88 Q121.844 1072.06 125.945 1072.06 Q130.589 1072.06 133.628 1074.83 Q136.691 1077.57 136.691 1081.87 Q136.691 1083.38 136.221 1084.76 Q135.777 1086.12 135.159 1087.18 Q134.566 1088.24 132.936 1089.95 Q131.305 1091.65 129.996 1092.86 Q128.687 1094.07 125.747 1096.64 L120.387 1101.85 L129.502 1101.85 Q133.949 1101.85 134.295 1101.46 Q134.789 1100.74 135.406 1096.96 L136.691 1096.96 L135.258 1105.76 L116.483 1105.76 Z" fill="#000000" fill-rule="nonzero" fill-opacity="1"></path><path clip-path="url(#clip150)" d="M114.26 801.646 L114.26 800.09 L129.799 776.35 Q130.194 775.733 130.811 775.757 Q131.38 775.757 131.503 775.98 Q131.627 776.202 131.627 777.067 L131.627 800.09 L136.691 800.09 L136.691 801.646 L131.627 801.646 L131.627 806.044 Q131.627 807.501 132.219 807.971 Q132.837 808.44 135.456 808.44 L136.518 808.44 L136.518 809.996 Q134.443 809.848 129.65 809.848 Q124.883 809.848 122.808 809.996 L122.808 808.44 L123.87 808.44 Q126.488 808.44 127.106 807.995 Q127.723 807.526 127.723 806.044 L127.723 801.646 L114.26 801.646 M115.693 800.09 L128.02 800.09 L128.02 781.217 L115.693 800.09 Z" fill="#000000" fill-rule="nonzero" fill-opacity="1"></path><path clip-path="url(#clip150)" d="M115.693 498.252 Q115.693 490.298 119.744 485.431 Q123.796 480.54 129.008 480.54 Q132.047 480.54 133.726 482.096 Q135.431 483.628 135.431 485.999 Q135.431 487.308 134.665 487.877 Q133.899 488.445 133.109 488.445 Q132.195 488.445 131.478 487.827 Q130.762 487.21 130.762 486.098 Q130.762 483.825 133.553 483.825 Q132.244 481.8 129.107 481.8 Q128.143 481.8 127.155 482.096 Q126.167 482.368 124.883 483.307 Q123.598 484.245 122.61 485.727 Q121.622 487.21 120.93 490.001 Q120.238 492.793 120.238 496.424 L120.238 497.635 Q122.313 492.62 126.562 492.644 Q130.811 492.644 133.751 495.881 Q136.691 499.117 136.691 503.909 Q136.691 508.825 133.628 512.086 Q130.564 515.347 126.266 515.347 Q124.339 515.347 122.585 514.532 Q120.856 513.741 119.226 511.913 Q117.62 510.085 116.656 506.577 Q115.693 503.069 115.693 498.252 M120.337 502.798 Q120.337 507.763 121.251 510.134 Q121.399 510.53 121.721 511.073 Q122.066 511.617 122.635 512.333 Q123.227 513.025 124.191 513.494 Q125.154 513.939 126.266 513.939 Q129.65 513.939 131.281 510.653 Q132.145 508.825 132.145 503.86 Q132.145 498.796 131.231 496.943 Q129.675 493.805 126.513 493.805 Q124.389 493.805 122.906 495.263 Q121.449 496.72 120.881 498.672 Q120.337 500.624 120.337 502.798 Z" fill="#000000" fill-rule="nonzero" fill-opacity="1"></path><path clip-path="url(#clip150)" d="M115.693 210.841 Q115.693 205.184 122.98 201.528 Q119.843 199.403 119.275 198.786 Q117.052 196.315 117.052 193.227 Q117.052 189.695 119.72 187.249 Q122.412 184.779 126.217 184.779 Q129.848 184.779 132.59 186.879 Q135.332 188.978 135.332 192.313 Q135.332 197.007 129.206 200.169 Q133.257 202.689 134.22 203.751 Q136.691 206.493 136.691 209.976 Q136.691 214.028 133.578 216.819 Q130.466 219.586 126.167 219.586 Q121.968 219.586 118.83 217.14 Q115.693 214.695 115.693 210.841 M118.213 210.841 Q118.213 213.978 120.56 216.078 Q122.931 218.178 126.217 218.178 Q129.403 218.178 131.775 216.35 Q134.171 214.522 134.171 211.804 Q134.171 210.742 133.801 209.828 Q133.455 208.914 132.738 208.198 Q132.047 207.456 131.602 207.135 Q131.182 206.789 130.367 206.221 L124.142 202.293 Q118.213 205.579 118.213 210.841 M119.275 191.251 Q119.275 193.672 121.819 195.352 L128.094 199.403 Q133.109 196.463 133.109 192.313 Q133.109 189.621 131.058 187.842 Q129.008 186.039 126.167 186.039 Q123.376 186.039 121.325 187.521 Q119.275 188.978 119.275 191.251 Z" fill="#000000" fill-rule="nonzero" fill-opacity="1"></path><path clip-path="url(#clip150)" d="M64.7637 781.176 Q65.3756 781.176 65.6976 781.434 Q65.9875 781.66 66.0519 781.885 Q66.0841 782.078 66.0841 782.368 Q66.0841 783.205 65.9875 786.104 Q65.8909 789.003 65.8909 789.84 Q65.8909 791.192 65.9875 793.962 Q66.0841 796.732 66.0841 798.085 Q66.0841 798.986 65.3434 798.986 Q64.8603 798.986 64.6026 798.89 Q64.3128 798.793 64.2162 798.535 Q64.0873 798.246 64.0873 798.085 Q64.0551 797.891 64.0551 797.408 Q64.0551 796.764 63.9907 796.088 Q63.8941 795.411 63.7009 794.574 Q63.5076 793.737 63.0245 793.221 Q62.5415 792.674 61.8651 792.674 Q61.5753 792.674 59.192 792.899 Q56.8088 793.125 54.0391 793.415 Q51.2372 793.705 50.8507 793.737 L50.8507 810.291 Q53.4594 811.804 55.2629 812.867 Q57.0665 813.93 57.6784 814.316 Q58.2903 814.703 58.6767 814.928 Q59.0632 815.154 59.2887 815.282 Q60.9956 816.216 61.7363 816.216 Q63.7975 816.216 64.0551 813.125 Q64.0551 812.062 64.8281 812.062 Q65.4078 812.062 65.7298 812.32 Q66.0197 812.577 66.0519 812.803 Q66.0841 812.996 66.0841 813.318 Q66.0841 814.381 65.9875 816.603 Q65.8909 818.825 65.8909 819.92 Q65.8909 820.854 65.9875 822.786 Q66.0841 824.719 66.0841 825.588 Q66.0841 825.975 65.8587 826.2 Q65.6332 826.426 65.3434 826.426 Q64.8925 826.426 64.6348 826.361 Q64.3772 826.265 64.2484 826.007 Q64.1195 825.749 64.1195 825.621 Q64.0873 825.492 64.0551 825.041 Q63.8941 822.593 62.7347 820.693 Q61.5431 818.761 58.4835 816.925 L19.9653 793.994 Q19.5788 793.769 19.3856 793.608 Q19.1924 793.447 19.0313 793.125 Q18.8703 792.771 18.8703 792.255 Q18.8703 791.45 19.1279 791.289 Q19.3534 791.128 20.4484 791.031 L61.6719 787.006 Q62.5415 786.909 62.8957 786.845 Q63.2178 786.748 63.572 786.329 Q63.8941 785.879 63.9907 785.073 Q64.0551 784.236 64.0551 782.69 Q64.0551 782.11 64.0873 781.885 Q64.0873 781.66 64.2484 781.434 Q64.4094 781.176 64.7637 781.176 M48.7895 793.93 L27.0506 796.023 L48.7895 809.035 L48.7895 793.93 Z" fill="#000000" fill-rule="nonzero" fill-opacity="1"></path><path clip-path="url(#clip150)" d="M65.6094 754.802 Q68.0667 754.802 70.5015 755.884 Q72.9137 756.966 74.7173 758.702 Q76.4982 760.416 77.6254 762.67 Q78.7301 764.924 78.7301 767.179 Q78.7301 770.403 76.5433 772.499 Q74.334 774.573 70.9073 774.573 Q67.706 774.573 64.6626 772.792 Q61.5966 770.989 59.7029 768.103 Q57.8092 765.217 57.8092 762.196 Q57.8092 759.018 59.9509 756.921 Q62.0926 754.802 65.6094 754.802 M63.8059 758.184 Q61.6191 758.184 60.2214 759.243 Q58.8237 760.303 58.8237 762.242 Q58.8237 762.805 59.004 763.459 Q59.1618 764.113 59.5902 764.969 Q60.0185 765.804 60.9203 766.75 Q61.7995 767.675 63.062 768.486 Q64.7302 769.546 67.7962 770.357 Q70.8397 771.147 72.6657 771.147 Q75.1907 771.147 76.4532 769.974 Q77.6931 768.802 77.6931 767.134 Q77.6931 765.51 76.5659 763.797 Q75.4161 762.061 73.4548 760.866 Q71.4258 759.672 68.45 758.928 Q65.4516 758.184 63.8059 758.184 Z" fill="#000000" fill-rule="nonzero" fill-opacity="1"></path><path clip-path="url(#clip150)" d="M82.5735 730.524 L16.6159 730.524 L16.6159 720.573 L18.1296 720.573 L18.1296 726.112 L81.0598 726.112 L81.0598 720.573 L82.5735 720.573 L82.5735 730.524 Z" fill="#000000" fill-rule="nonzero" fill-opacity="1"></path><path clip-path="url(#clip150)" d="M56.6478 665.197 Q56.9054 665.197 57.9038 665.486 Q58.9022 665.776 60.4481 666.485 Q61.994 667.161 63.411 668.127 Q64.7959 669.061 65.8264 670.607 Q66.8248 672.121 66.8248 673.86 Q66.8248 676.179 65.2789 677.725 Q63.7331 679.27 61.4142 679.27 Q60.1582 679.27 57.775 678.401 Q46.8894 674.311 42.9925 674.311 Q38.3871 674.311 38.3871 677.886 Q38.3871 679.915 39.2244 681.75 Q40.0618 683.586 41.2212 684.778 Q42.3806 685.969 43.701 686.903 Q45.0215 687.837 45.891 688.256 Q46.7606 688.642 47.147 688.739 L63.0567 692.7 Q64.4094 693.022 65.0535 693.248 Q65.6976 693.473 66.2451 694.085 Q66.8248 694.697 66.8248 695.663 Q66.8248 696.468 66.3417 697.048 Q65.8587 697.596 65.0213 697.596 Q64.8925 697.596 64.2162 697.435 Q63.5398 697.274 62.6059 697.048 Q61.6719 696.823 61.1244 696.726 Q56.7444 695.567 56.1325 695.406 L48.4675 693.57 Q44.6672 692.572 42.9925 692.572 Q38.3871 692.572 38.3871 696.146 Q38.3871 697.918 39.0634 699.592 Q39.7075 701.235 40.6093 702.362 Q41.511 703.489 42.7671 704.52 Q43.9909 705.518 44.8282 706.034 Q45.6334 706.517 46.4385 706.903 L49.7235 707.74 Q50.6253 707.934 54.1357 708.868 L60.0938 710.317 Q64.5382 711.348 64.9569 711.573 Q65.8587 711.895 66.3417 712.604 Q66.8248 713.312 66.8248 714.021 Q66.8248 714.826 66.3417 715.373 Q65.8587 715.921 65.0213 715.921 Q64.8925 715.921 64.4094 715.824 Q63.9263 715.728 63.25 715.566 Q62.5737 715.405 62.1872 715.341 L46.9538 711.509 Q44.1841 710.8 43.3146 710.639 Q42.4128 710.446 41.4144 710.446 Q38.3871 710.446 38.3871 712.507 Q38.3871 714.182 40.3838 715.277 Q42.3806 716.372 46.2453 717.306 Q47.3081 717.595 47.5335 717.789 Q47.759 717.95 47.759 718.433 Q47.7268 719.238 47.0826 719.238 Q46.9216 719.238 45.891 718.98 Q44.8604 718.723 43.3146 718.24 Q41.7365 717.724 40.7059 717.177 Q40.0296 716.855 39.5787 716.565 Q39.1278 716.275 38.4193 715.695 Q37.7107 715.116 37.3243 714.246 Q36.9378 713.376 36.9378 712.314 Q36.9378 709.963 38.4515 708.224 Q39.9651 706.452 42.6704 706.227 Q36.9378 701.943 36.9378 695.953 Q36.9378 692.572 38.6447 690.543 Q40.2872 688.642 43.3146 688.417 Q36.9378 683.973 36.9378 677.66 Q36.9378 674.021 38.8379 672.056 Q40.7059 670.092 43.9909 670.092 Q45.6978 670.092 48.9506 670.961 Q52.1712 671.831 53.7815 672.411 Q55.3917 672.99 58.4835 674.118 Q61.4465 675.309 63.1856 675.309 Q64.3128 675.309 64.8281 674.923 Q65.3434 674.536 65.3434 673.699 Q65.3434 672.411 64.6026 671.283 Q63.8297 670.156 62.5737 669.351 Q61.2854 668.514 59.9972 667.966 Q58.6767 667.419 57.1953 667 Q56.3901 666.742 56.1969 666.614 Q56.0037 666.453 56.0037 666.002 Q56.0037 665.197 56.6478 665.197 Z" fill="#000000" fill-rule="nonzero" fill-opacity="1"></path><path clip-path="url(#clip150)" d="M81.0598 662.148 L81.0598 656.609 L18.1296 656.609 L18.1296 662.148 L16.6159 662.148 L16.6159 652.197 L82.5735 652.197 L82.5735 662.148 L81.0598 662.148 Z" fill="#000000" fill-rule="nonzero" fill-opacity="1"></path><polyline clip-path="url(#clip152)" style="stroke:#009af9; stroke-linecap:round; stroke-linejoin:round; stroke-width:4; stroke-opacity:1; fill:none" stroke-dasharray="16, 10" points="-1194.55,1384.24 -1194.55,86.1857 "></polyline>
<polyline clip-path="url(#clip152)" style="stroke:#e26f46; stroke-linecap:round; stroke-linejoin:round; stroke-width:4; stroke-opacity:1; fill:none" stroke-dasharray="16, 10" points="-1094.26,1384.24 -1094.26,86.1857 "></polyline>
<polyline clip-path="url(#clip152)" style="stroke:#3da44d; stroke-linecap:round; stroke-linejoin:round; stroke-width:4; stroke-opacity:1; fill:none" stroke-dasharray="16, 10" points="-993.959,1384.24 -993.959,86.1857 "></polyline>
<polyline clip-path="url(#clip152)" style="stroke:#c271d2; stroke-linecap:round; stroke-linejoin:round; stroke-width:4; stroke-opacity:1; fill:none" stroke-dasharray="16, 10" points="-893.662,1384.24 -893.662,86.1857 "></polyline>
<polyline clip-path="url(#clip152)" style="stroke:#ac8d18; stroke-linecap:round; stroke-linejoin:round; stroke-width:4; stroke-opacity:1; fill:none" stroke-dasharray="16, 10" points="-793.365,1384.24 -793.365,86.1857 "></polyline>
<polyline clip-path="url(#clip152)" style="stroke:#00a9ad; stroke-linecap:round; stroke-linejoin:round; stroke-width:4; stroke-opacity:1; fill:none" stroke-dasharray="16, 10" points="-693.068,1384.24 -693.068,86.1857 "></polyline>
<polyline clip-path="url(#clip152)" style="stroke:#ed5d92; stroke-linecap:round; stroke-linejoin:round; stroke-width:4; stroke-opacity:1; fill:none" stroke-dasharray="16, 10" points="-592.771,1384.24 -592.771,86.1857 "></polyline>
<polyline clip-path="url(#clip152)" style="stroke:#c68125; stroke-linecap:round; stroke-linejoin:round; stroke-width:4; stroke-opacity:1; fill:none" stroke-dasharray="16, 10" points="-492.474,1384.24 -492.474,86.1857 "></polyline>
<polyline clip-path="url(#clip152)" style="stroke:#00a98d; stroke-linecap:round; stroke-linejoin:round; stroke-width:4; stroke-opacity:1; fill:none" stroke-dasharray="16, 10" points="-392.177,1384.24 -392.177,86.1857 "></polyline>
<polyline clip-path="url(#clip152)" style="stroke:#8e971d; stroke-linecap:round; stroke-linejoin:round; stroke-width:4; stroke-opacity:1; fill:none" stroke-dasharray="16, 10" points="-291.88,1384.24 -291.88,86.1857 "></polyline>
<polyline clip-path="url(#clip152)" style="stroke:#00a8cb; stroke-linecap:round; stroke-linejoin:round; stroke-width:4; stroke-opacity:1; fill:none" stroke-dasharray="16, 10" points="-191.583,1384.24 -191.583,86.1857 "></polyline>
<polyline clip-path="url(#clip152)" style="stroke:#9b7fe8; stroke-linecap:round; stroke-linejoin:round; stroke-width:4; stroke-opacity:1; fill:none" stroke-dasharray="16, 10" points="-91.2858,1384.24 -91.2858,86.1857 "></polyline>
<polyline clip-path="url(#clip152)" style="stroke:#608cf6; stroke-linecap:round; stroke-linejoin:round; stroke-width:4; stroke-opacity:1; fill:none" stroke-dasharray="16, 10" points="9.01114,1384.24 9.01114,86.1857 "></polyline>
<polyline clip-path="url(#clip152)" style="stroke:#f05f73; stroke-linecap:round; stroke-linejoin:round; stroke-width:4; stroke-opacity:1; fill:none" stroke-dasharray="16, 10" points="109.308,1384.24 109.308,86.1857 "></polyline>
<polyline clip-path="url(#clip152)" style="stroke:#dd64b5; stroke-linecap:round; stroke-linejoin:round; stroke-width:4; stroke-opacity:1; fill:none" stroke-dasharray="16, 10" points="209.605,1384.24 209.605,86.1857 "></polyline>
<polyline clip-path="url(#clip152)" style="stroke:#6b9e32; stroke-linecap:round; stroke-linejoin:round; stroke-width:4; stroke-opacity:1; fill:none" stroke-dasharray="16, 10" points="309.902,1384.24 309.902,86.1857 "></polyline>
<polyline clip-path="url(#clip152)" style="stroke:#009af9; stroke-linecap:round; stroke-linejoin:round; stroke-width:4; stroke-opacity:1; fill:none" stroke-dasharray="16, 10" points="410.199,1384.24 410.199,86.1857 "></polyline>
<polyline clip-path="url(#clip152)" style="stroke:#e26f46; stroke-linecap:round; stroke-linejoin:round; stroke-width:4; stroke-opacity:1; fill:none" stroke-dasharray="16, 10" points="510.496,1384.24 510.496,86.1857 "></polyline>
<polyline clip-path="url(#clip152)" style="stroke:#3da44d; stroke-linecap:round; stroke-linejoin:round; stroke-width:4; stroke-opacity:1; fill:none" stroke-dasharray="16, 10" points="610.793,1384.24 610.793,86.1857 "></polyline>
<polyline clip-path="url(#clip152)" style="stroke:#c271d2; stroke-linecap:round; stroke-linejoin:round; stroke-width:4; stroke-opacity:1; fill:none" stroke-dasharray="16, 10" points="711.09,1384.24 711.09,86.1857 "></polyline>
<polyline clip-path="url(#clip152)" style="stroke:#ac8d18; stroke-linecap:round; stroke-linejoin:round; stroke-width:4; stroke-opacity:1; fill:none" stroke-dasharray="16, 10" points="811.387,1384.24 811.387,86.1857 "></polyline>
<polyline clip-path="url(#clip152)" style="stroke:#00a9ad; stroke-linecap:round; stroke-linejoin:round; stroke-width:4; stroke-opacity:1; fill:none" stroke-dasharray="16, 10" points="911.684,1384.24 911.684,86.1857 "></polyline>
<polyline clip-path="url(#clip152)" style="stroke:#ed5d92; stroke-linecap:round; stroke-linejoin:round; stroke-width:4; stroke-opacity:1; fill:none" stroke-dasharray="16, 10" points="1011.98,1384.24 1011.98,86.1857 "></polyline>
<polyline clip-path="url(#clip152)" style="stroke:#c68125; stroke-linecap:round; stroke-linejoin:round; stroke-width:4; stroke-opacity:1; fill:none" stroke-dasharray="16, 10" points="1112.28,1384.24 1112.28,86.1857 "></polyline>
<polyline clip-path="url(#clip152)" style="stroke:#00a98d; stroke-linecap:round; stroke-linejoin:round; stroke-width:4; stroke-opacity:1; fill:none" stroke-dasharray="16, 10" points="1212.57,1384.24 1212.57,86.1857 "></polyline>
<polyline clip-path="url(#clip152)" style="stroke:#8e971d; stroke-linecap:round; stroke-linejoin:round; stroke-width:4; stroke-opacity:1; fill:none" stroke-dasharray="16, 10" points="1312.87,1384.24 1312.87,86.1857 "></polyline>
<polyline clip-path="url(#clip152)" style="stroke:#00a8cb; stroke-linecap:round; stroke-linejoin:round; stroke-width:4; stroke-opacity:1; fill:none" stroke-dasharray="16, 10" points="1413.17,1384.24 1413.17,86.1857 "></polyline>
<polyline clip-path="url(#clip152)" style="stroke:#9b7fe8; stroke-linecap:round; stroke-linejoin:round; stroke-width:4; stroke-opacity:1; fill:none" stroke-dasharray="16, 10" points="1513.47,1384.24 1513.47,86.1857 "></polyline>
<polyline clip-path="url(#clip152)" style="stroke:#608cf6; stroke-linecap:round; stroke-linejoin:round; stroke-width:4; stroke-opacity:1; fill:none" stroke-dasharray="16, 10" points="1613.76,1384.24 1613.76,86.1857 "></polyline>
<polyline clip-path="url(#clip152)" style="stroke:#f05f73; stroke-linecap:round; stroke-linejoin:round; stroke-width:4; stroke-opacity:1; fill:none" stroke-dasharray="16, 10" points="1714.06,1384.24 1714.06,86.1857 "></polyline>
<polyline clip-path="url(#clip152)" style="stroke:#dd64b5; stroke-linecap:round; stroke-linejoin:round; stroke-width:4; stroke-opacity:1; fill:none" stroke-dasharray="16, 10" points="1814.36,1384.24 1814.36,86.1857 "></polyline>
<polyline clip-path="url(#clip152)" style="stroke:#6b9e32; stroke-linecap:round; stroke-linejoin:round; stroke-width:4; stroke-opacity:1; fill:none" stroke-dasharray="16, 10" points="1914.65,1384.24 1914.65,86.1857 "></polyline>
<polyline clip-path="url(#clip152)" style="stroke:#009af9; stroke-linecap:round; stroke-linejoin:round; stroke-width:4; stroke-opacity:1; fill:none" stroke-dasharray="16, 10" points="2014.95,1384.24 2014.95,86.1857 "></polyline>
<polyline clip-path="url(#clip152)" style="stroke:#e26f46; stroke-linecap:round; stroke-linejoin:round; stroke-width:4; stroke-opacity:1; fill:none" stroke-dasharray="16, 10" points="2115.25,1384.24 2115.25,86.1857 "></polyline>
<polyline clip-path="url(#clip152)" style="stroke:#3da44d; stroke-linecap:round; stroke-linejoin:round; stroke-width:4; stroke-opacity:1; fill:none" stroke-dasharray="16, 10" points="2215.54,1384.24 2215.54,86.1857 "></polyline>
<polyline clip-path="url(#clip152)" style="stroke:#c271d2; stroke-linecap:round; stroke-linejoin:round; stroke-width:4; stroke-opacity:1; fill:none" stroke-dasharray="16, 10" points="2315.84,1384.24 2315.84,86.1857 "></polyline>
<polyline clip-path="url(#clip152)" style="stroke:#ac8d18; stroke-linecap:round; stroke-linejoin:round; stroke-width:4; stroke-opacity:1; fill:none" stroke-dasharray="16, 10" points="2416.14,1384.24 2416.14,86.1857 "></polyline>
<polyline clip-path="url(#clip152)" style="stroke:#00a9ad; stroke-linecap:round; stroke-linejoin:round; stroke-width:4; stroke-opacity:1; fill:none" stroke-dasharray="16, 10" points="2516.44,1384.24 2516.44,86.1857 "></polyline>
<polyline clip-path="url(#clip152)" style="stroke:#ed5d92; stroke-linecap:round; stroke-linejoin:round; stroke-width:4; stroke-opacity:1; fill:none" stroke-dasharray="16, 10" points="2616.73,1384.24 2616.73,86.1857 "></polyline>
<polyline clip-path="url(#clip152)" style="stroke:#c68125; stroke-linecap:round; stroke-linejoin:round; stroke-width:4; stroke-opacity:1; fill:none" stroke-dasharray="16, 10" points="2717.03,1384.24 2717.03,86.1857 "></polyline>
<polyline clip-path="url(#clip152)" style="stroke:#00a98d; stroke-linecap:round; stroke-linejoin:round; stroke-width:4; stroke-opacity:1; fill:none" stroke-dasharray="16, 10" points="2817.33,1384.24 2817.33,86.1857 "></polyline>
<polyline clip-path="url(#clip152)" style="stroke:#8e971d; stroke-linecap:round; stroke-linejoin:round; stroke-width:4; stroke-opacity:1; fill:none" stroke-dasharray="16, 10" points="2917.62,1384.24 2917.62,86.1857 "></polyline>
<polyline clip-path="url(#clip152)" style="stroke:#00a8cb; stroke-linecap:round; stroke-linejoin:round; stroke-width:4; stroke-opacity:1; fill:none" stroke-dasharray="16, 10" points="3017.92,1384.24 3017.92,86.1857 "></polyline>
<polyline clip-path="url(#clip152)" style="stroke:#9b7fe8; stroke-linecap:round; stroke-linejoin:round; stroke-width:4; stroke-opacity:1; fill:none" stroke-dasharray="16, 10" points="3118.22,1384.24 3118.22,86.1857 "></polyline>
<polyline clip-path="url(#clip152)" style="stroke:#608cf6; stroke-linecap:round; stroke-linejoin:round; stroke-width:4; stroke-opacity:1; fill:none" stroke-dasharray="16, 10" points="3218.51,1384.24 3218.51,86.1857 "></polyline>
<polyline clip-path="url(#clip152)" style="stroke:#f05f73; stroke-linecap:round; stroke-linejoin:round; stroke-width:4; stroke-opacity:1; fill:none" stroke-dasharray="16, 10" points="3318.81,1384.24 3318.81,86.1857 "></polyline>
<polyline clip-path="url(#clip152)" style="stroke:#dd64b5; stroke-linecap:round; stroke-linejoin:round; stroke-width:4; stroke-opacity:1; fill:none" stroke-dasharray="16, 10" points="3419.11,1384.24 3419.11,86.1857 "></polyline>
<polyline clip-path="url(#clip152)" style="stroke:#6b9e32; stroke-linecap:round; stroke-linejoin:round; stroke-width:4; stroke-opacity:1; fill:none" stroke-dasharray="16, 10" points="3519.41,1384.24 3519.41,86.1857 "></polyline>
<polyline clip-path="url(#clip152)" style="stroke:#009af9; stroke-linecap:round; stroke-linejoin:round; stroke-width:4; stroke-opacity:1; fill:none" stroke-dasharray="16, 10" points="3619.7,1384.24 3619.7,86.1857 "></polyline>
<polyline clip-path="url(#clip152)" style="stroke:#e26f46; stroke-linecap:round; stroke-linejoin:round; stroke-width:4; stroke-opacity:1; fill:none" stroke-dasharray="16, 10" points="3720,1384.24 3720,86.1857 "></polyline>
<circle clip-path="url(#clip152)" cx="585.399" cy="534.283" r="14.4" fill="#3da44d" fill-rule="evenodd" fill-opacity="1" stroke="#000000" stroke-opacity="1" stroke-width="3.2"></circle>
<circle clip-path="url(#clip152)" cx="738.666" cy="543.177" r="14.4" fill="#3da44d" fill-rule="evenodd" fill-opacity="1" stroke="#000000" stroke-opacity="1" stroke-width="3.2"></circle>
<circle clip-path="url(#clip152)" cx="1028.36" cy="239.348" r="14.4" fill="#3da44d" fill-rule="evenodd" fill-opacity="1" stroke="#000000" stroke-opacity="1" stroke-width="3.2"></circle>
<circle clip-path="url(#clip152)" cx="1262.72" cy="436.389" r="14.4" fill="#3da44d" fill-rule="evenodd" fill-opacity="1" stroke="#000000" stroke-opacity="1" stroke-width="3.2"></circle>
<circle clip-path="url(#clip152)" cx="1558.74" cy="384.847" r="14.4" fill="#3da44d" fill-rule="evenodd" fill-opacity="1" stroke="#000000" stroke-opacity="1" stroke-width="3.2"></circle>
<circle clip-path="url(#clip152)" cx="1850.25" cy="1030.57" r="14.4" fill="#3da44d" fill-rule="evenodd" fill-opacity="1" stroke="#000000" stroke-opacity="1" stroke-width="3.2"></circle>
<circle clip-path="url(#clip152)" cx="2220.68" cy="745.401" r="14.4" fill="#3da44d" fill-rule="evenodd" fill-opacity="1" stroke="#000000" stroke-opacity="1" stroke-width="3.2"></circle>
</svg>