<?xml version="1.0" encoding="utf-8"?>
<svg xmlns="http://www.w3.org/2000/svg" xmlns:xlink="http://www.w3.org/1999/xlink" width="600" height="400" viewBox="0 0 2400 1600">
<defs>
  <clipPath id="clip410">
    <rect x="0" y="0" width="2400" height="1600"/>
  </clipPath>
</defs>
<path clip-path="url(#clip410)" d="M0 1600 L2400 1600 L2400 0 L0 0  Z" fill="#ffffff" fill-rule="evenodd" fill-opacity="1"/>
<defs>
  <clipPath id="clip411">
    <rect x="480" y="0" width="1681" height="1600"/>
  </clipPath>
</defs>
<path clip-path="url(#clip410)" d="M222.715 1423.18 L2352.76 1423.18 L2352.76 108.933 L222.715 108.933  Z" fill="#ffffff" fill-rule="evenodd" fill-opacity="1"/>
<defs>
  <clipPath id="clip412">
    <rect x="222" y="108" width="2131" height="1315"/>
  </clipPath>
</defs>
<polyline clip-path="url(#clip412)" style="stroke:#000000; stroke-linecap:round; stroke-linejoin:round; stroke-width:2; stroke-opacity:0.1; fill:none" points="706.046,1423.18 706.046,108.933 "/>
<polyline clip-path="url(#clip412)" style="stroke:#000000; stroke-linecap:round; stroke-linejoin:round; stroke-width:2; stroke-opacity:0.1; fill:none" points="1234.85,1423.18 1234.85,108.933 "/>
<polyline clip-path="url(#clip412)" style="stroke:#000000; stroke-linecap:round; stroke-linejoin:round; stroke-width:2; stroke-opacity:0.1; fill:none" points="1763.66,1423.18 1763.66,108.933 "/>
<polyline clip-path="url(#clip412)" style="stroke:#000000; stroke-linecap:round; stroke-linejoin:round; stroke-width:2; stroke-opacity:0.1; fill:none" points="2292.47,1423.18 2292.47,108.933 "/>
<polyline clip-path="url(#clip410)" style="stroke:#000000; stroke-linecap:round; stroke-linejoin:round; stroke-width:4; stroke-opacity:1; fill:none" points="222.715,1423.18 2352.76,1423.18 "/>
<polyline clip-path="url(#clip410)" style="stroke:#000000; stroke-linecap:round; stroke-linejoin:round; stroke-width:4; stroke-opacity:1; fill:none" points="706.046,1423.18 706.046,1404.28 "/>
<polyline clip-path="url(#clip410)" style="stroke:#000000; stroke-linecap:round; stroke-linejoin:round; stroke-width:4; stroke-opacity:1; fill:none" points="1234.85,1423.18 1234.85,1404.28 "/>
<polyline clip-path="url(#clip410)" style="stroke:#000000; stroke-linecap:round; stroke-linejoin:round; stroke-width:4; stroke-opacity:1; fill:none" points="1763.66,1423.18 1763.66,1404.28 "/>
<polyline clip-path="url(#clip410)" style="stroke:#000000; stroke-linecap:round; stroke-linejoin:round; stroke-width:4; stroke-opacity:1; fill:none" points="2292.47,1423.18 2292.47,1404.28 "/>
<path clip-path="url(#clip410)" d="M695.942 1477.43 Q695.942 1475.92 696.758 1475.35 Q697.573 1474.76 698.437 1474.76 Q699.599 1474.76 700.266 1475.5 Q700.957 1476.22 700.957 1477.23 Q700.957 1478.24 700.266 1478.98 Q699.599 1479.7 698.437 1479.7 Q697.869 1479.7 697.573 1479.6 Q698.24 1481.92 700.266 1483.6 Q702.316 1485.28 705.009 1485.28 Q708.393 1485.28 710.419 1482 Q711.629 1479.87 711.629 1475.06 Q711.629 1470.81 710.715 1468.68 Q709.307 1465.45 706.417 1465.45 Q702.316 1465.45 699.895 1468.98 Q699.599 1469.42 699.253 1469.45 Q698.759 1469.45 698.635 1469.18 Q698.536 1468.88 698.536 1468.11 L698.536 1453.14 Q698.536 1451.93 699.03 1451.93 Q699.228 1451.93 699.648 1452.08 Q702.835 1453.49 706.367 1453.51 Q709.999 1453.51 713.259 1452.03 Q713.507 1451.88 713.655 1451.88 Q714.149 1451.88 714.174 1452.45 Q714.174 1452.65 713.754 1453.24 Q713.358 1453.81 712.494 1454.58 Q711.629 1455.32 710.517 1456.03 Q709.406 1456.75 707.775 1457.25 Q706.17 1457.71 704.391 1457.71 Q702.267 1457.71 700.093 1457.05 L700.093 1466.9 Q702.711 1464.33 706.515 1464.33 Q710.567 1464.33 713.358 1467.6 Q716.15 1470.86 716.15 1475.4 Q716.15 1480.17 712.84 1483.43 Q709.554 1486.69 705.107 1486.69 Q701.056 1486.69 698.487 1483.8 Q695.942 1480.91 695.942 1477.43 Z" fill="#000000" fill-rule="nonzero" fill-opacity="1" /><path clip-path="url(#clip410)" d="M1212.82 1456.7 L1212.82 1455.12 Q1218.9 1455.12 1222.03 1451.88 Q1222.9 1451.88 1223.05 1452.08 Q1223.19 1452.28 1223.19 1453.19 L1223.19 1481.58 Q1223.19 1483.08 1223.94 1483.55 Q1224.68 1484.02 1227.91 1484.02 L1229.52 1484.02 L1229.52 1485.58 Q1227.74 1485.43 1221.32 1485.43 Q1214.89 1485.43 1213.14 1485.58 L1213.14 1484.02 L1214.75 1484.02 Q1217.93 1484.02 1218.7 1483.58 Q1219.46 1483.11 1219.46 1481.58 L1219.46 1455.37 Q1216.82 1456.7 1212.82 1456.7 Z" fill="#000000" fill-rule="nonzero" fill-opacity="1" /><path clip-path="url(#clip410)" d="M1235.6 1469.4 Q1235.6 1461.96 1237.47 1457.91 Q1240.09 1451.88 1246.27 1451.88 Q1247.58 1451.88 1248.94 1452.26 Q1250.32 1452.6 1252.05 1453.96 Q1253.8 1455.32 1254.86 1457.54 Q1256.89 1461.84 1256.89 1469.4 Q1256.89 1476.79 1255.01 1480.81 Q1252.27 1486.69 1246.22 1486.69 Q1243.95 1486.69 1241.62 1485.53 Q1239.33 1484.37 1237.87 1481.58 Q1235.6 1477.4 1235.6 1469.4 M1239.8 1468.78 Q1239.8 1476.41 1240.34 1479.45 Q1240.96 1482.74 1242.64 1484.17 Q1244.34 1485.58 1246.22 1485.58 Q1248.24 1485.58 1249.92 1484.07 Q1251.63 1482.54 1252.15 1479.26 Q1252.72 1476.02 1252.69 1468.78 Q1252.69 1461.74 1252.2 1458.92 Q1251.53 1455.64 1249.75 1454.33 Q1248 1453 1246.22 1453 Q1245.55 1453 1244.83 1453.19 Q1244.14 1453.39 1243.13 1453.96 Q1242.12 1454.53 1241.33 1455.94 Q1240.56 1457.34 1240.19 1459.47 Q1239.8 1462.21 1239.8 1468.78 Z" fill="#000000" fill-rule="nonzero" fill-opacity="1" /><path clip-path="url(#clip410)" d="M1741.9 1456.7 L1741.9 1455.12 Q1747.98 1455.12 1751.11 1451.88 Q1751.98 1451.88 1752.13 1452.08 Q1752.27 1452.28 1752.27 1453.19 L1752.27 1481.58 Q1752.27 1483.08 1753.02 1483.55 Q1753.76 1484.02 1756.99 1484.02 L1758.6 1484.02 L1758.6 1485.58 Q1756.82 1485.43 1750.4 1485.43 Q1743.97 1485.43 1742.22 1485.58 L1742.22 1484.02 L1743.83 1484.02 Q1747.01 1484.02 1747.78 1483.58 Q1748.54 1483.11 1748.54 1481.58 L1748.54 1455.37 Q1745.9 1456.7 1741.9 1456.7 Z" fill="#000000" fill-rule="nonzero" fill-opacity="1" /><path clip-path="url(#clip410)" d="M1765.22 1477.43 Q1765.22 1475.92 1766.03 1475.35 Q1766.85 1474.76 1767.71 1474.76 Q1768.88 1474.76 1769.54 1475.5 Q1770.23 1476.22 1770.23 1477.23 Q1770.23 1478.24 1769.54 1478.98 Q1768.88 1479.7 1767.71 1479.7 Q1767.15 1479.7 1766.85 1479.6 Q1767.52 1481.92 1769.54 1483.6 Q1771.59 1485.28 1774.29 1485.28 Q1777.67 1485.28 1779.7 1482 Q1780.91 1479.87 1780.91 1475.06 Q1780.91 1470.81 1779.99 1468.68 Q1778.58 1465.45 1775.69 1465.45 Q1771.59 1465.45 1769.17 1468.98 Q1768.88 1469.42 1768.53 1469.45 Q1768.04 1469.45 1767.91 1469.18 Q1767.81 1468.88 1767.81 1468.11 L1767.81 1453.14 Q1767.81 1451.93 1768.31 1451.93 Q1768.51 1451.93 1768.93 1452.08 Q1772.11 1453.49 1775.64 1453.51 Q1779.28 1453.51 1782.54 1452.03 Q1782.78 1451.88 1782.93 1451.88 Q1783.43 1451.88 1783.45 1452.45 Q1783.45 1452.65 1783.03 1453.24 Q1782.64 1453.81 1781.77 1454.58 Q1780.91 1455.32 1779.79 1456.03 Q1778.68 1456.75 1777.05 1457.25 Q1775.45 1457.71 1773.67 1457.71 Q1771.54 1457.71 1769.37 1457.05 L1769.37 1466.9 Q1771.99 1464.33 1775.79 1464.33 Q1779.84 1464.33 1782.64 1467.6 Q1785.43 1470.86 1785.43 1475.4 Q1785.43 1480.17 1782.12 1483.43 Q1778.83 1486.69 1774.38 1486.69 Q1770.33 1486.69 1767.76 1483.8 Q1765.22 1480.91 1765.22 1477.43 Z" fill="#000000" fill-rule="nonzero" fill-opacity="1" /><path clip-path="url(#clip410)" d="M2269.45 1485.58 Q2269.45 1484.67 2269.52 1484.39 Q2269.62 1484.12 2270.02 1483.7 L2279.72 1472.88 Q2285.04 1466.9 2285.04 1461.69 Q2285.04 1458.31 2283.26 1455.89 Q2281.5 1453.47 2278.27 1453.47 Q2276.04 1453.47 2274.17 1454.82 Q2272.29 1456.18 2271.42 1458.6 Q2271.57 1458.55 2272.09 1458.55 Q2273.35 1458.55 2274.04 1459.34 Q2274.76 1460.14 2274.76 1461.2 Q2274.76 1462.56 2273.87 1463.22 Q2273.01 1463.87 2272.14 1463.87 Q2271.8 1463.87 2271.33 1463.79 Q2270.88 1463.72 2270.16 1463.03 Q2269.45 1462.31 2269.45 1461.05 Q2269.45 1457.52 2272.12 1454.7 Q2274.81 1451.88 2278.91 1451.88 Q2283.55 1451.88 2286.59 1454.65 Q2289.66 1457.39 2289.66 1461.69 Q2289.66 1463.2 2289.19 1464.58 Q2288.74 1465.94 2288.12 1467 Q2287.53 1468.07 2285.9 1469.77 Q2284.27 1471.47 2282.96 1472.68 Q2281.65 1473.9 2278.71 1476.46 L2273.35 1481.68 L2282.47 1481.68 Q2286.91 1481.68 2287.26 1481.28 Q2287.75 1480.57 2288.37 1476.79 L2289.66 1476.79 L2288.22 1485.58 L2269.45 1485.58 Z" fill="#000000" fill-rule="nonzero" fill-opacity="1" /><path clip-path="url(#clip410)" d="M2294.2 1469.4 Q2294.2 1461.96 2296.08 1457.91 Q2298.7 1451.88 2304.87 1451.88 Q2306.18 1451.88 2307.54 1452.26 Q2308.92 1452.6 2310.65 1453.96 Q2312.41 1455.32 2313.47 1457.54 Q2315.5 1461.84 2315.5 1469.4 Q2315.5 1476.79 2313.62 1480.81 Q2310.88 1486.69 2304.82 1486.69 Q2302.55 1486.69 2300.23 1485.53 Q2297.93 1484.37 2296.47 1481.58 Q2294.2 1477.4 2294.2 1469.4 M2298.4 1468.78 Q2298.4 1476.41 2298.94 1479.45 Q2299.56 1482.74 2301.24 1484.17 Q2302.95 1485.58 2304.82 1485.58 Q2306.85 1485.58 2308.53 1484.07 Q2310.23 1482.54 2310.75 1479.26 Q2311.32 1476.02 2311.3 1468.78 Q2311.3 1461.74 2310.8 1458.92 Q2310.13 1455.64 2308.36 1454.33 Q2306.6 1453 2304.82 1453 Q2304.16 1453 2303.44 1453.19 Q2302.75 1453.39 2301.74 1453.96 Q2300.72 1454.53 2299.93 1455.94 Q2299.17 1457.34 2298.8 1459.47 Q2298.4 1462.21 2298.4 1468.78 Z" fill="#000000" fill-rule="nonzero" fill-opacity="1" /><path clip-path="url(#clip410)" d="M1127.34 1567.91 L1127.34 1553.98 Q1127.34 1553.2 1127.38 1552.93 Q1127.41 1552.66 1127.61 1552.45 Q1127.82 1552.25 1128.23 1552.25 Q1129.01 1552.25 1129.08 1552.96 Q1129.28 1559.86 1133.39 1563.66 Q1137.43 1567.43 1144.36 1567.43 Q1148.54 1567.43 1151.12 1564.44 Q1153.7 1561.42 1153.7 1557.48 Q1153.7 1553.71 1151.53 1551.06 Q1150.61 1549.87 1149.46 1549.12 Q1148.33 1548.34 1147.62 1548.11 Q1146.94 1547.87 1145.62 1547.53 Q1136.99 1545.46 1136.45 1545.22 Q1132.34 1543.83 1129.82 1540.33 Q1127.34 1536.79 1127.34 1532.48 Q1127.34 1526.91 1131.25 1522.97 Q1135.19 1519 1140.9 1519 Q1143.75 1519 1146.13 1519.91 Q1148.54 1520.8 1149.52 1521.61 Q1150.51 1522.43 1152.04 1523.89 L1154.45 1519.91 Q1154.99 1519 1155.5 1519 Q1156.04 1519 1156.15 1519.33 Q1156.28 1519.64 1156.28 1520.66 L1156.28 1534.65 Q1156.28 1535.44 1156.25 1535.71 Q1156.21 1535.98 1155.98 1536.15 Q1155.77 1536.32 1155.37 1536.32 Q1154.69 1536.32 1154.52 1535.5 Q1152.58 1520.97 1140.96 1520.97 Q1136.99 1520.97 1134.37 1523.65 Q1131.79 1526.3 1131.79 1530.07 Q1131.79 1533.13 1133.69 1535.64 Q1135.6 1538.12 1138.82 1538.9 L1147.72 1541.04 Q1152.17 1542.09 1155.16 1546.03 Q1158.15 1549.97 1158.15 1555.1 Q1158.15 1561.01 1154.28 1565.29 Q1150.44 1569.57 1144.43 1569.57 Q1140.11 1569.57 1136.79 1568.15 Q1133.46 1566.72 1131.66 1564.72 Q1130.26 1567.02 1129.35 1568.32 L1129.14 1568.66 Q1128.6 1569.57 1128.09 1569.57 Q1127.55 1569.57 1127.44 1569.23 Q1127.34 1568.89 1127.34 1567.91 Z" fill="#000000" fill-rule="nonzero" fill-opacity="1" /><path clip-path="url(#clip410)" d="M1164.33 1568.04 L1164.33 1565.9 Q1168.04 1565.9 1168.88 1565.46 Q1169.73 1564.99 1169.73 1562.74 L1169.73 1544.03 Q1169.73 1541.45 1168.85 1540.84 Q1168 1540.22 1164.6 1540.22 L1164.6 1538.05 L1174.32 1537.3 L1174.32 1562.81 Q1174.32 1564.88 1175.07 1565.39 Q1175.81 1565.9 1179.21 1565.9 L1179.21 1568.04 Q1172.11 1567.84 1171.98 1567.84 Q1171.02 1567.84 1164.33 1568.04 M1167.25 1525.18 Q1167.25 1523.78 1168.31 1522.66 Q1169.39 1521.51 1170.92 1521.51 Q1172.45 1521.51 1173.54 1522.56 Q1174.63 1523.58 1174.63 1525.21 Q1174.63 1526.81 1173.54 1527.86 Q1172.45 1528.88 1170.92 1528.88 Q1169.33 1528.88 1168.27 1527.76 Q1167.25 1526.64 1167.25 1525.18 Z" fill="#000000" fill-rule="nonzero" fill-opacity="1" /><path clip-path="url(#clip410)" d="M1183.52 1568.04 L1183.52 1565.9 Q1187.23 1565.9 1188.08 1565.46 Q1188.93 1564.99 1188.93 1562.74 L1188.93 1544.1 Q1188.93 1541.52 1188.01 1540.87 Q1187.12 1540.22 1183.52 1540.22 L1183.52 1538.05 L1193.31 1537.3 L1193.31 1544.61 Q1196.57 1537.3 1203.6 1537.3 Q1211.75 1537.3 1212.87 1544.1 Q1214.06 1541.45 1216.54 1539.38 Q1219.05 1537.3 1222.96 1537.3 Q1228.19 1537.3 1230.26 1539.89 Q1231.79 1541.62 1232.1 1543.55 Q1232.4 1545.49 1232.4 1550.52 L1232.4 1563.8 Q1232.47 1565.26 1233.59 1565.6 Q1234.71 1565.9 1237.84 1565.9 L1237.84 1568.04 Q1230.74 1567.84 1230.06 1567.84 Q1229.52 1567.84 1222.18 1568.04 L1222.18 1565.9 Q1225.88 1565.9 1226.73 1565.46 Q1227.61 1564.99 1227.61 1562.74 L1227.61 1546.54 Q1227.61 1543.01 1226.53 1540.94 Q1225.44 1538.83 1222.45 1538.83 Q1218.85 1538.83 1215.96 1541.86 Q1213.08 1544.88 1213.08 1549.97 L1213.08 1562.74 Q1213.08 1564.99 1213.92 1565.46 Q1214.81 1565.9 1218.51 1565.9 L1218.51 1568.04 Q1211.41 1567.84 1210.7 1567.84 Q1210.15 1567.84 1202.85 1568.04 L1202.85 1565.9 Q1206.55 1565.9 1207.4 1565.46 Q1208.29 1564.99 1208.29 1562.74 L1208.29 1546.54 Q1208.29 1543.01 1207.2 1540.94 Q1206.11 1538.83 1203.12 1538.83 Q1199.52 1538.83 1196.64 1541.86 Q1193.75 1544.88 1193.75 1549.97 L1193.75 1562.74 Q1193.75 1564.99 1194.6 1565.46 Q1195.48 1565.9 1199.15 1565.9 L1199.15 1568.04 Q1192.05 1567.84 1191.37 1567.84 Q1190.83 1567.84 1183.52 1568.04 Z" fill="#000000" fill-rule="nonzero" fill-opacity="1" /><path clip-path="url(#clip410)" d="M1239.5 1540.22 L1239.5 1538.05 L1249.73 1537.3 L1249.73 1560.4 Q1249.73 1562.07 1249.86 1563.05 Q1250 1564 1250.54 1565.12 Q1251.12 1566.24 1252.41 1566.75 Q1253.73 1567.26 1255.84 1567.26 Q1259.61 1567.26 1261.92 1564.17 Q1264.26 1561.08 1264.26 1556.5 L1264.26 1544.1 Q1264.26 1541.52 1263.35 1540.87 Q1262.43 1540.22 1258.83 1540.22 L1258.83 1538.05 L1269.05 1537.3 L1269.05 1562 Q1269.05 1564.58 1269.94 1565.26 Q1270.85 1565.9 1274.49 1565.9 L1274.49 1568.04 L1264.47 1568.83 L1264.47 1562.54 Q1261.55 1568.79 1255.5 1568.83 Q1252.44 1568.83 1250.34 1568.04 Q1248.27 1567.26 1247.21 1566.31 Q1246.16 1565.33 1245.58 1563.46 Q1245.04 1561.59 1244.97 1560.44 Q1244.9 1559.28 1244.9 1557.04 L1244.9 1546.61 Q1244.9 1541.89 1244.22 1541.07 Q1243.54 1540.22 1239.5 1540.22 Z" fill="#000000" fill-rule="nonzero" fill-opacity="1" /><path clip-path="url(#clip410)" d="M1278.16 1568.04 L1278.16 1565.9 Q1281.86 1565.9 1282.71 1565.46 Q1283.56 1564.99 1283.56 1562.74 L1283.56 1526.57 Q1283.56 1523.99 1282.64 1523.34 Q1281.76 1522.7 1278.16 1522.7 L1278.16 1520.52 L1288.14 1519.78 L1288.14 1562.74 Q1288.14 1564.99 1289.03 1565.46 Q1289.91 1565.9 1293.58 1565.9 L1293.58 1568.04 Q1292.73 1568.04 1290.96 1567.98 Q1289.2 1567.91 1287.91 1567.87 Q1286.61 1567.84 1285.87 1567.84 Q1285.05 1567.84 1278.16 1568.04 Z" fill="#000000" fill-rule="nonzero" fill-opacity="1" /><path clip-path="url(#clip410)" d="M1298.03 1561.42 Q1298.03 1555.51 1304.99 1552.39 Q1309.17 1550.38 1317.8 1549.87 L1317.8 1547.32 Q1317.8 1543.01 1315.52 1540.73 Q1313.28 1538.42 1310.43 1538.42 Q1305.33 1538.42 1302.88 1541.62 Q1304.96 1541.69 1305.7 1542.74 Q1306.45 1543.76 1306.45 1544.81 Q1306.45 1546.2 1305.57 1547.12 Q1304.72 1548 1303.26 1548 Q1301.87 1548 1300.95 1547.15 Q1300.03 1546.27 1300.03 1544.74 Q1300.03 1541.35 1303.09 1539.1 Q1306.18 1536.86 1310.56 1536.86 Q1316.27 1536.86 1320.07 1540.7 Q1321.26 1541.89 1321.84 1543.42 Q1322.45 1544.95 1322.52 1545.97 Q1322.59 1546.95 1322.59 1548.92 L1322.59 1562.81 Q1322.59 1563.22 1322.72 1563.9 Q1322.86 1564.58 1323.47 1565.46 Q1324.11 1566.31 1325.17 1566.31 Q1327.68 1566.31 1327.65 1561.86 L1327.65 1557.96 L1329.41 1557.96 L1329.41 1561.86 Q1329.41 1565.56 1327.44 1567.02 Q1325.51 1568.45 1323.71 1568.45 Q1321.4 1568.45 1319.94 1566.75 Q1318.48 1565.05 1318.27 1562.74 Q1317.22 1565.39 1314.81 1567.13 Q1312.43 1568.83 1309.17 1568.83 Q1306.66 1568.83 1304.28 1568.18 Q1301.93 1567.57 1299.96 1565.84 Q1298.03 1564.07 1298.03 1561.42 M1303.39 1561.35 Q1303.39 1563.93 1305.23 1565.6 Q1307.06 1567.26 1309.64 1567.26 Q1312.57 1567.26 1315.18 1565.02 Q1317.8 1562.74 1317.8 1558.3 L1317.8 1551.33 Q1310.09 1551.6 1306.72 1554.69 Q1303.39 1557.75 1303.39 1561.35 Z" fill="#000000" fill-rule="nonzero" fill-opacity="1" /><path clip-path="url(#clip410)" d="M1331.21 1540.22 L1331.21 1538.7 Q1334.41 1538.56 1336.51 1536.32 Q1338.65 1534.04 1339.37 1531.26 Q1340.11 1528.47 1340.18 1525.25 L1341.91 1525.25 L1341.91 1538.05 L1351.87 1538.05 L1351.87 1540.22 L1341.91 1540.22 L1341.91 1559.55 Q1341.91 1567.06 1346.6 1567.06 Q1348.6 1567.06 1349.93 1565.02 Q1351.25 1562.95 1351.25 1559.28 L1351.25 1555.44 L1352.99 1555.44 L1352.99 1559.42 Q1352.99 1563.19 1351.25 1566.01 Q1349.52 1568.83 1346.09 1568.83 Q1344.83 1568.83 1343.58 1568.49 Q1342.35 1568.18 1340.72 1567.36 Q1339.13 1566.52 1338.11 1564.48 Q1337.12 1562.41 1337.12 1559.42 L1337.12 1540.22 L1331.21 1540.22 Z" fill="#000000" fill-rule="nonzero" fill-opacity="1" /><path clip-path="url(#clip410)" d="M1359.17 1568.04 L1359.17 1565.9 Q1362.87 1565.9 1363.72 1565.46 Q1364.57 1564.99 1364.57 1562.74 L1364.57 1544.03 Q1364.57 1541.45 1363.69 1540.84 Q1362.84 1540.22 1359.44 1540.22 L1359.44 1538.05 L1369.15 1537.3 L1369.15 1562.81 Q1369.15 1564.88 1369.9 1565.39 Q1370.65 1565.9 1374.05 1565.9 L1374.05 1568.04 Q1366.95 1567.84 1366.81 1567.84 Q1365.86 1567.84 1359.17 1568.04 M1362.09 1525.18 Q1362.09 1523.78 1363.14 1522.66 Q1364.23 1521.51 1365.76 1521.51 Q1367.29 1521.51 1368.37 1522.56 Q1369.46 1523.58 1369.46 1525.21 Q1369.46 1526.81 1368.37 1527.86 Q1367.29 1528.88 1365.76 1528.88 Q1364.16 1528.88 1363.11 1527.76 Q1362.09 1526.64 1362.09 1525.18 Z" fill="#000000" fill-rule="nonzero" fill-opacity="1" /><path clip-path="url(#clip410)" d="M1382.64 1564.31 Q1378.05 1559.76 1378.05 1553.17 Q1378.05 1546.54 1382.54 1541.72 Q1387.06 1536.86 1393.51 1536.86 Q1399.83 1536.86 1404.34 1541.69 Q1408.9 1546.47 1408.9 1553.17 Q1408.9 1559.72 1404.31 1564.27 Q1399.76 1568.83 1393.44 1568.83 Q1387.26 1568.83 1382.64 1564.31 M1383.83 1552.59 Q1383.83 1559.35 1385.59 1562.41 Q1388.31 1567.06 1393.51 1567.06 Q1396.09 1567.06 1398.23 1565.67 Q1400.4 1564.27 1401.59 1561.93 Q1403.12 1558.87 1403.12 1552.59 Q1403.12 1545.9 1401.29 1542.94 Q1398.57 1538.42 1393.44 1538.42 Q1391.2 1538.42 1388.99 1539.61 Q1386.82 1540.77 1385.49 1543.08 Q1383.83 1546.14 1383.83 1552.59 Z" fill="#000000" fill-rule="nonzero" fill-opacity="1" /><path clip-path="url(#clip410)" d="M1413.14 1568.04 L1413.14 1565.9 Q1416.84 1565.9 1417.69 1565.46 Q1418.54 1564.99 1418.54 1562.74 L1418.54 1544.1 Q1418.54 1541.52 1417.63 1540.87 Q1416.74 1540.22 1413.14 1540.22 L1413.14 1538.05 L1422.92 1537.3 L1422.92 1544.61 Q1426.19 1537.3 1433.22 1537.3 Q1438.45 1537.3 1440.52 1539.89 Q1442.05 1541.62 1442.35 1543.55 Q1442.69 1545.49 1442.69 1550.52 L1442.69 1563.8 Q1442.76 1565.26 1443.88 1565.6 Q1445 1565.9 1448.13 1565.9 L1448.13 1568.04 Q1441.03 1567.84 1440.32 1567.84 Q1439.77 1567.84 1432.47 1568.04 L1432.47 1565.9 Q1436.17 1565.9 1437.02 1565.46 Q1437.9 1564.99 1437.9 1562.74 L1437.9 1546.54 Q1437.9 1543.01 1436.82 1540.94 Q1435.73 1538.83 1432.74 1538.83 Q1429.14 1538.83 1426.25 1541.86 Q1423.37 1544.88 1423.37 1549.97 L1423.37 1562.74 Q1423.37 1564.99 1424.22 1565.46 Q1425.1 1565.9 1428.77 1565.9 L1428.77 1568.04 Q1421.67 1567.84 1420.99 1567.84 Q1420.45 1567.84 1413.14 1568.04 Z" fill="#000000" fill-rule="nonzero" fill-opacity="1" /><polyline clip-path="url(#clip412)" style="stroke:#000000; stroke-linecap:round; stroke-linejoin:round; stroke-width:2; stroke-opacity:0.1; fill:none" points="222.715,1423.18 2352.76,1423.18 "/>
<polyline clip-path="url(#clip412)" style="stroke:#000000; stroke-linecap:round; stroke-linejoin:round; stroke-width:2; stroke-opacity:0.1; fill:none" points="222.715,1088.83 2352.76,1088.83 "/>
<polyline clip-path="url(#clip412)" style="stroke:#000000; stroke-linecap:round; stroke-linejoin:round; stroke-width:2; stroke-opacity:0.1; fill:none" points="222.715,754.475 2352.76,754.475 "/>
<polyline clip-path="url(#clip412)" style="stroke:#000000; stroke-linecap:round; stroke-linejoin:round; stroke-width:2; stroke-opacity:0.1; fill:none" points="222.715,420.123 2352.76,420.123 "/>
<polyline clip-path="url(#clip410)" style="stroke:#000000; stroke-linecap:round; stroke-linejoin:round; stroke-width:4; stroke-opacity:1; fill:none" points="222.715,1423.18 222.715,108.933 "/>
<polyline clip-path="url(#clip410)" style="stroke:#000000; stroke-linecap:round; stroke-linejoin:round; stroke-width:4; stroke-opacity:1; fill:none" points="222.715,1423.18 241.613,1423.18 "/>
<polyline clip-path="url(#clip410)" style="stroke:#000000; stroke-linecap:round; stroke-linejoin:round; stroke-width:4; stroke-opacity:1; fill:none" points="222.715,1088.83 241.613,1088.83 "/>
<polyline clip-path="url(#clip410)" style="stroke:#000000; stroke-linecap:round; stroke-linejoin:round; stroke-width:4; stroke-opacity:1; fill:none" points="222.715,754.475 241.613,754.475 "/>
<polyline clip-path="url(#clip410)" style="stroke:#000000; stroke-linecap:round; stroke-linejoin:round; stroke-width:4; stroke-opacity:1; fill:none" points="222.715,420.123 241.613,420.123 "/>
<path clip-path="url(#clip410)" d="M165.421 1424.28 Q165.421 1416.84 167.298 1412.79 Q169.917 1406.76 176.093 1406.76 Q177.402 1406.76 178.761 1407.14 Q180.144 1407.48 181.873 1408.84 Q183.627 1410.2 184.689 1412.42 Q186.715 1416.72 186.715 1424.28 Q186.715 1431.67 184.838 1435.69 Q182.096 1441.57 176.043 1441.57 Q173.771 1441.57 171.448 1440.41 Q169.151 1439.25 167.694 1436.46 Q165.421 1432.28 165.421 1424.28 M169.62 1423.66 Q169.62 1431.29 170.164 1434.33 Q170.781 1437.62 172.461 1439.05 Q174.166 1440.46 176.043 1440.46 Q178.069 1440.46 179.749 1438.95 Q181.453 1437.42 181.972 1434.14 Q182.54 1430.9 182.516 1423.66 Q182.516 1416.62 182.021 1413.8 Q181.354 1410.52 179.576 1409.21 Q177.822 1407.88 176.043 1407.88 Q175.376 1407.88 174.66 1408.07 Q173.968 1408.27 172.955 1408.84 Q171.943 1409.41 171.152 1410.82 Q170.386 1412.22 170.016 1414.35 Q169.62 1417.09 169.62 1423.66 Z" fill="#000000" fill-rule="nonzero" fill-opacity="1" /><path clip-path="url(#clip410)" d="M115.372 1106.11 Q115.372 1105.19 115.446 1104.92 Q115.545 1104.65 115.94 1104.23 L125.648 1093.41 Q130.96 1087.43 130.96 1082.22 Q130.96 1078.84 129.181 1076.41 Q127.427 1073.99 124.191 1073.99 Q121.968 1073.99 120.09 1075.35 Q118.213 1076.71 117.348 1079.13 Q117.496 1079.08 118.015 1079.08 Q119.275 1079.08 119.967 1079.87 Q120.683 1080.66 120.683 1081.73 Q120.683 1083.08 119.794 1083.75 Q118.929 1084.39 118.064 1084.39 Q117.719 1084.39 117.249 1084.32 Q116.805 1084.25 116.088 1083.55 Q115.372 1082.84 115.372 1081.58 Q115.372 1078.04 118.04 1075.23 Q120.732 1072.41 124.833 1072.41 Q129.477 1072.41 132.516 1075.18 Q135.579 1077.92 135.579 1082.22 Q135.579 1083.73 135.11 1085.11 Q134.665 1086.47 134.048 1087.53 Q133.455 1088.59 131.824 1090.3 Q130.194 1092 128.885 1093.21 Q127.575 1094.42 124.636 1096.99 L119.275 1102.2 L128.39 1102.2 Q132.837 1102.2 133.183 1101.81 Q133.677 1101.09 134.295 1097.31 L135.579 1097.31 L134.146 1106.11 L115.372 1106.11 Z" fill="#000000" fill-rule="nonzero" fill-opacity="1" /><path clip-path="url(#clip410)" d="M140.125 1089.93 Q140.125 1082.49 142.002 1078.44 Q144.621 1072.41 150.796 1072.41 Q152.106 1072.41 153.464 1072.78 Q154.848 1073.13 156.577 1074.49 Q158.331 1075.85 159.393 1078.07 Q161.419 1082.37 161.419 1089.93 Q161.419 1097.31 159.541 1101.34 Q156.799 1107.22 150.747 1107.22 Q148.474 1107.22 146.152 1106.06 Q143.855 1104.9 142.397 1102.11 Q140.125 1097.93 140.125 1089.93 M144.324 1089.31 Q144.324 1096.94 144.868 1099.98 Q145.485 1103.27 147.165 1104.7 Q148.87 1106.11 150.747 1106.11 Q152.773 1106.11 154.453 1104.6 Q156.157 1103.07 156.676 1099.78 Q157.244 1096.55 157.219 1089.31 Q157.219 1082.27 156.725 1079.45 Q156.058 1076.17 154.28 1074.86 Q152.526 1073.52 150.747 1073.52 Q150.08 1073.52 149.364 1073.72 Q148.672 1073.92 147.659 1074.49 Q146.646 1075.06 145.856 1076.46 Q145.09 1077.87 144.719 1080 Q144.324 1082.74 144.324 1089.31 Z" fill="#000000" fill-rule="nonzero" fill-opacity="1" /><path clip-path="url(#clip410)" d="M165.421 1089.93 Q165.421 1082.49 167.298 1078.44 Q169.917 1072.41 176.093 1072.41 Q177.402 1072.41 178.761 1072.78 Q180.144 1073.13 181.873 1074.49 Q183.627 1075.85 184.689 1078.07 Q186.715 1082.37 186.715 1089.93 Q186.715 1097.31 184.838 1101.34 Q182.096 1107.22 176.043 1107.22 Q173.771 1107.22 171.448 1106.06 Q169.151 1104.9 167.694 1102.11 Q165.421 1097.93 165.421 1089.93 M169.62 1089.31 Q169.62 1096.94 170.164 1099.98 Q170.781 1103.27 172.461 1104.7 Q174.166 1106.11 176.043 1106.11 Q178.069 1106.11 179.749 1104.6 Q181.453 1103.07 181.972 1099.78 Q182.54 1096.55 182.516 1089.31 Q182.516 1082.27 182.021 1079.45 Q181.354 1076.17 179.576 1074.86 Q177.822 1073.52 176.043 1073.52 Q175.376 1073.52 174.66 1073.72 Q173.968 1073.92 172.955 1074.49 Q171.943 1075.06 171.152 1076.46 Q170.386 1077.87 170.016 1080 Q169.62 1082.74 169.62 1089.31 Z" fill="#000000" fill-rule="nonzero" fill-opacity="1" /><path clip-path="url(#clip410)" d="M114.26 763.405 L114.26 761.849 L129.799 738.109 Q130.194 737.492 130.811 737.516 Q131.38 737.516 131.503 737.739 Q131.627 737.961 131.627 738.826 L131.627 761.849 L136.691 761.849 L136.691 763.405 L131.627 763.405 L131.627 767.803 Q131.627 769.26 132.219 769.73 Q132.837 770.199 135.456 770.199 L136.518 770.199 L136.518 771.755 Q134.443 771.607 129.65 771.607 Q124.883 771.607 122.808 771.755 L122.808 770.199 L123.87 770.199 Q126.488 770.199 127.106 769.754 Q127.723 769.285 127.723 767.803 L127.723 763.405 L114.26 763.405 M115.693 761.849 L128.02 761.849 L128.02 742.976 L115.693 761.849 Z" fill="#000000" fill-rule="nonzero" fill-opacity="1" /><path clip-path="url(#clip410)" d="M140.125 755.575 Q140.125 748.139 142.002 744.087 Q144.621 738.06 150.796 738.06 Q152.106 738.06 153.464 738.43 Q154.848 738.776 156.577 740.135 Q158.331 741.494 159.393 743.717 Q161.419 748.015 161.419 755.575 Q161.419 762.961 159.541 766.987 Q156.799 772.867 150.747 772.867 Q148.474 772.867 146.152 771.706 Q143.855 770.545 142.397 767.753 Q140.125 763.578 140.125 755.575 M144.324 754.957 Q144.324 762.59 144.868 765.629 Q145.485 768.914 147.165 770.347 Q148.87 771.755 150.747 771.755 Q152.773 771.755 154.453 770.248 Q156.157 768.717 156.676 765.431 Q157.244 762.195 157.219 754.957 Q157.219 747.916 156.725 745.1 Q156.058 741.815 154.28 740.505 Q152.526 739.171 150.747 739.171 Q150.08 739.171 149.364 739.369 Q148.672 739.567 147.659 740.135 Q146.646 740.703 145.856 742.111 Q145.09 743.519 144.719 745.644 Q144.324 748.386 144.324 754.957 Z" fill="#000000" fill-rule="nonzero" fill-opacity="1" /><path clip-path="url(#clip410)" d="M165.421 755.575 Q165.421 748.139 167.298 744.087 Q169.917 738.06 176.093 738.06 Q177.402 738.06 178.761 738.43 Q180.144 738.776 181.873 740.135 Q183.627 741.494 184.689 743.717 Q186.715 748.015 186.715 755.575 Q186.715 762.961 184.838 766.987 Q182.096 772.867 176.043 772.867 Q173.771 772.867 171.448 771.706 Q169.151 770.545 167.694 767.753 Q165.421 763.578 165.421 755.575 M169.62 754.957 Q169.62 762.59 170.164 765.629 Q170.781 768.914 172.461 770.347 Q174.166 771.755 176.043 771.755 Q178.069 771.755 179.749 770.248 Q181.453 768.717 181.972 765.431 Q182.54 762.195 182.516 754.957 Q182.516 747.916 182.021 745.1 Q181.354 741.815 179.576 740.505 Q177.822 739.171 176.043 739.171 Q175.376 739.171 174.66 739.369 Q173.968 739.567 172.955 740.135 Q171.943 740.703 171.152 742.111 Q170.386 743.519 170.016 745.644 Q169.62 748.386 169.62 754.957 Z" fill="#000000" fill-rule="nonzero" fill-opacity="1" /><path clip-path="url(#clip410)" d="M114.977 421.42 Q114.977 413.465 119.028 408.599 Q123.079 403.708 128.292 403.708 Q131.33 403.708 133.01 405.264 Q134.715 406.795 134.715 409.167 Q134.715 410.476 133.949 411.044 Q133.183 411.613 132.392 411.613 Q131.478 411.613 130.762 410.995 Q130.046 410.377 130.046 409.266 Q130.046 406.993 132.837 406.993 Q131.528 404.967 128.39 404.967 Q127.427 404.967 126.439 405.264 Q125.451 405.536 124.166 406.474 Q122.882 407.413 121.893 408.895 Q120.905 410.377 120.214 413.169 Q119.522 415.96 119.522 419.592 L119.522 420.802 Q121.597 415.787 125.846 415.812 Q130.095 415.812 133.035 419.048 Q135.974 422.284 135.974 427.077 Q135.974 431.993 132.911 435.254 Q129.848 438.515 125.55 438.515 Q123.623 438.515 121.869 437.699 Q120.14 436.909 118.509 435.081 Q116.903 433.253 115.94 429.745 Q114.977 426.237 114.977 421.42 M119.621 425.965 Q119.621 430.931 120.535 433.302 Q120.683 433.697 121.004 434.241 Q121.35 434.784 121.918 435.501 Q122.511 436.192 123.475 436.662 Q124.438 437.106 125.55 437.106 Q128.934 437.106 130.564 433.821 Q131.429 431.993 131.429 427.027 Q131.429 421.963 130.515 420.111 Q128.959 416.973 125.797 416.973 Q123.672 416.973 122.19 418.431 Q120.732 419.888 120.164 421.84 Q119.621 423.791 119.621 425.965 Z" fill="#000000" fill-rule="nonzero" fill-opacity="1" /><path clip-path="url(#clip410)" d="M140.125 421.222 Q140.125 413.786 142.002 409.735 Q144.621 403.708 150.796 403.708 Q152.106 403.708 153.464 404.078 Q154.848 404.424 156.577 405.783 Q158.331 407.141 159.393 409.365 Q161.419 413.663 161.419 421.222 Q161.419 428.609 159.541 432.635 Q156.799 438.515 150.747 438.515 Q148.474 438.515 146.152 437.353 Q143.855 436.192 142.397 433.401 Q140.125 429.226 140.125 421.222 M144.324 420.605 Q144.324 428.238 144.868 431.276 Q145.485 434.562 147.165 435.995 Q148.87 437.403 150.747 437.403 Q152.773 437.403 154.453 435.896 Q156.157 434.364 156.676 431.079 Q157.244 427.843 157.219 420.605 Q157.219 413.564 156.725 410.748 Q156.058 407.462 154.28 406.153 Q152.526 404.819 150.747 404.819 Q150.08 404.819 149.364 405.017 Q148.672 405.214 147.659 405.783 Q146.646 406.351 145.856 407.759 Q145.09 409.167 144.719 411.291 Q144.324 414.034 144.324 420.605 Z" fill="#000000" fill-rule="nonzero" fill-opacity="1" /><path clip-path="url(#clip410)" d="M165.421 421.222 Q165.421 413.786 167.298 409.735 Q169.917 403.708 176.093 403.708 Q177.402 403.708 178.761 404.078 Q180.144 404.424 181.873 405.783 Q183.627 407.141 184.689 409.365 Q186.715 413.663 186.715 421.222 Q186.715 428.609 184.838 432.635 Q182.096 438.515 176.043 438.515 Q173.771 438.515 171.448 437.353 Q169.151 436.192 167.694 433.401 Q165.421 429.226 165.421 421.222 M169.62 420.605 Q169.62 428.238 170.164 431.276 Q170.781 434.562 172.461 435.995 Q174.166 437.403 176.043 437.403 Q178.069 437.403 179.749 435.896 Q181.453 434.364 181.972 431.079 Q182.54 427.843 182.516 420.605 Q182.516 413.564 182.021 410.748 Q181.354 407.462 179.576 406.153 Q177.822 404.819 176.043 404.819 Q175.376 404.819 174.66 405.017 Q173.968 405.214 172.955 405.783 Q171.943 406.351 171.152 407.759 Q170.386 409.167 170.016 411.291 Q169.62 414.034 169.62 420.605 Z" fill="#000000" fill-rule="nonzero" fill-opacity="1" /><path clip-path="url(#clip410)" d="M56.6478 860.278 Q60.8023 861.116 63.1856 862.243 Q66.8248 864.046 66.8248 867.138 Q66.8248 869.328 65.5044 871.003 Q64.1839 872.645 61.994 873.064 Q62.9923 873.901 63.572 874.513 Q64.1517 875.093 65.0535 876.252 Q65.9231 877.38 66.3739 878.797 Q66.8248 880.214 66.8248 881.824 Q66.8248 885.753 64.7637 888.233 Q78.2579 891.582 78.9342 891.872 Q80.3191 892.806 80.3191 894.159 Q80.3191 894.996 79.8038 895.511 Q79.3207 896.027 78.5478 896.027 Q78.2901 895.995 77.485 895.801 L39.321 886.333 Q38.2904 886.075 37.7107 885.431 Q37.0988 884.755 37.0344 884.368 Q36.9378 883.982 36.9378 883.692 Q36.9378 882.822 37.4209 882.307 Q37.8718 881.76 38.7091 881.76 Q38.8379 881.76 39.5787 881.953 Q40.2872 882.114 41.3822 882.372 Q42.445 882.629 42.9281 882.758 L54.0069 885.528 Q57.8072 886.462 59.6107 886.462 Q62.3482 886.462 63.8619 885.238 Q65.3434 883.982 65.3434 881.566 Q65.3434 880.053 64.7314 878.636 Q64.0873 877.219 63.2178 876.252 Q62.3482 875.286 61.4142 874.513 Q60.4481 873.74 59.8362 873.386 Q59.192 873.032 59.031 873 L52.3 871.293 L39.9651 868.169 Q39.1922 867.975 38.6769 867.621 Q38.1294 867.235 37.9362 866.784 Q37.7429 866.333 37.7107 866.075 Q37.6463 865.818 37.6463 865.592 Q37.6463 864.787 38.1294 864.24 Q38.6125 863.692 39.4498 863.692 Q39.6109 863.692 40.3838 863.885 Q41.1246 864.046 42.2196 864.304 Q43.2823 864.562 43.8621 864.69 Q47.92 865.721 48.3387 865.818 L55.4562 867.653 Q55.8748 867.75 57.2275 868.072 Q58.5801 868.362 59.2887 868.523 Q59.965 868.684 60.899 868.845 Q61.8007 868.974 62.316 868.974 Q65.3434 868.974 65.3434 866.977 Q65.3434 866.204 64.8925 865.528 Q64.4094 864.852 63.7331 864.401 Q63.0567 863.918 61.8973 863.467 Q60.7057 862.984 59.7395 862.694 Q58.7412 862.404 57.1953 861.985 Q56.4545 861.824 56.2291 861.663 Q56.0037 861.502 56.0037 861.051 Q56.0037 860.278 56.6478 860.278 Z" fill="#000000" fill-rule="nonzero" fill-opacity="1" /><path clip-path="url(#clip410)" d="M64.7637 838.361 Q63.5076 838.361 63.4432 836.526 L63.4432 817.782 L45.4401 817.782 L45.4401 836.397 Q45.4401 838.361 44.1197 838.361 Q42.7993 838.361 42.7993 836.397 L42.7993 817.782 L24.2165 817.782 Q22.2519 817.782 22.2519 816.461 Q22.2197 815.141 24.2165 815.141 L42.7993 815.141 L42.7993 796.558 Q42.7993 794.594 44.1197 794.594 Q45.4401 794.561 45.4401 796.558 L45.4401 815.141 L63.4432 815.141 L63.4432 796.558 Q63.4432 794.594 64.7637 794.594 Q66.0841 794.561 66.0841 796.494 L66.0841 836.397 Q66.0841 838.361 64.7637 838.361 Z" fill="#000000" fill-rule="nonzero" fill-opacity="1" /><path clip-path="url(#clip410)" d="M39.2244 734.366 Q41.4788 734.366 41.4788 737.586 L41.4788 744.832 Q44.3773 742.804 48.6607 742.804 Q52.3322 742.804 55.7782 744.317 Q59.192 745.799 61.5753 748.182 Q63.9585 750.533 65.4078 753.496 Q66.8248 756.459 66.8248 759.357 Q66.8248 763.77 63.8297 766.507 Q60.8345 769.245 56.3901 769.245 Q54.0391 769.245 51.4304 768.439 Q48.8218 767.602 46.4063 766.024 Q43.9587 764.446 41.9941 762.385 Q40.0296 760.291 38.8379 757.586 Q37.6463 754.848 37.6463 751.982 L37.6463 736.942 Q37.6463 736.137 37.7107 735.718 Q37.7429 735.267 38.1294 734.816 Q38.4837 734.366 39.2244 734.366 M47.8878 747.022 Q47.1148 747.022 46.4385 747.119 Q45.73 747.216 44.796 747.57 Q43.8298 747.924 43.1535 748.536 Q42.445 749.148 41.9619 750.34 Q41.4788 751.499 41.4788 753.077 Q41.4788 755.299 42.7026 757.747 Q43.9265 760.195 46.9538 762.063 Q49.5303 763.608 52.8797 764.381 Q56.2291 765.154 58.2259 765.154 Q61.6397 765.154 63.5076 763.512 Q65.3434 761.837 65.3434 759.293 Q65.3434 757.2 63.9263 754.816 Q62.477 752.433 59.7395 750.597 Q57.3563 748.987 53.8781 748.021 Q50.3998 747.022 47.8878 747.022 Z" fill="#000000" fill-rule="nonzero" fill-opacity="1" /><path clip-path="url(#clip410)" d="M82.5735 724.827 L16.6159 724.827 L16.6159 714.876 L18.1296 714.876 L18.1296 720.415 L81.0598 720.415 L81.0598 714.876 L82.5735 714.876 L82.5735 724.827 Z" fill="#000000" fill-rule="nonzero" fill-opacity="1" /><path clip-path="url(#clip410)" d="M21.7688 656.962 Q23.0893 656.962 23.0893 658.089 Q23.2181 661.729 24.4419 663.21 Q25.6335 664.659 27.9524 665.207 L64.6992 674.418 Q65.8587 674.74 65.9875 674.933 Q66.0841 675.126 66.0841 675.48 Q66.0841 675.931 65.8587 676.189 Q65.6332 676.414 64.8281 676.736 L25.9878 693.161 Q25.7302 693.29 25.3759 693.451 Q25.0216 693.612 24.7962 693.741 L59.6107 702.469 Q60.6091 702.727 61.1244 702.727 Q62.3804 702.727 63.1856 701.857 Q63.9585 700.955 64.0551 698.379 Q64.0551 697.058 64.7637 697.058 Q66.0841 697.058 66.0841 698.25 Q66.0841 699.345 65.9875 701.632 Q65.8909 703.918 65.8909 705.045 Q65.8909 706.14 65.9875 708.363 Q66.0841 710.585 66.0841 711.648 Q66.0841 712.485 65.3434 712.485 Q64.7637 712.485 64.4738 712.259 Q64.1517 712.034 64.1195 711.841 Q64.0551 711.648 64.0551 711.358 Q63.9907 709.425 63.6042 708.105 Q63.2178 706.785 62.477 706.044 Q61.7363 705.271 60.9956 704.917 Q60.2226 704.53 59.0954 704.24 L23.669 695.416 Q23.0893 695.416 23.0893 699.892 Q23.0893 700.665 23.0571 700.987 Q23.0249 701.277 22.8638 701.503 Q22.7028 701.728 22.3485 701.728 Q21.4468 701.728 21.2535 701.342 Q21.0281 700.955 21.0281 699.828 L21.0281 690.971 Q21.0281 689.844 21.2213 689.554 Q21.3824 689.265 22.2841 688.878 L56.7122 674.289 L27.3726 666.914 Q26.7929 666.72 25.9878 666.72 Q24.6996 666.72 23.9266 667.687 Q23.1215 668.621 23.0893 671.197 Q23.0893 672.389 22.3485 672.389 Q21.7366 672.389 21.4468 672.163 Q21.1247 671.906 21.0925 671.712 Q21.0281 671.487 21.0281 671.197 Q21.0281 670.102 21.1247 667.848 Q21.2213 665.593 21.2213 664.466 Q21.2213 663.371 21.1247 661.149 Q21.0281 658.894 21.0281 657.799 Q21.0281 657.413 21.2213 657.22 Q21.3824 656.994 21.5756 656.962 L21.7688 656.962 Z" fill="#000000" fill-rule="nonzero" fill-opacity="1" /><path clip-path="url(#clip410)" d="M81.0598 654.236 L81.0598 648.696 L18.1296 648.696 L18.1296 654.236 L16.6159 654.236 L16.6159 644.284 L82.5735 644.284 L82.5735 654.236 L81.0598 654.236 Z" fill="#000000" fill-rule="nonzero" fill-opacity="1" /><g clip-path="url(#clip410)">
<text style="fill:#000000; fill-opacity:1; font-family:Century Schoolbook,Georgia,serif; font-size:66px; font-weight:bold; text-anchor:middle;" transform="rotate(0, 1287.74, 57.6)" x="1287.74" y="57.6">Fairlead tension response</text>
</g>
<polyline clip-path="url(#clip412)" style="stroke:#0000ff; stroke-linecap:round; stroke-linejoin:round; stroke-width:12; stroke-opacity:1; fill:none" points="282.999,325.423 282.999,325.423 "/>
<polyline clip-path="url(#clip412)" style="stroke:#000000; stroke-linecap:round; stroke-linejoin:round; stroke-width:4; stroke-opacity:1; fill:none" points="282.999,519.767 282.999,131.079 "/>
<polyline clip-path="url(#clip412)" style="stroke:#0000ff; stroke-linecap:round; stroke-linejoin:round; stroke-width:12; stroke-opacity:1; fill:none" points="388.761,326.755 388.761,326.755 "/>
<polyline clip-path="url(#clip412)" style="stroke:#000000; stroke-linecap:round; stroke-linejoin:round; stroke-width:4; stroke-opacity:1; fill:none" points="388.761,532.248 388.761,121.262 "/>
<polyline clip-path="url(#clip412)" style="stroke:#0000ff; stroke-linecap:round; stroke-linejoin:round; stroke-width:12; stroke-opacity:1; fill:none" points="494.523,323.53 494.523,323.53 "/>
<polyline clip-path="url(#clip412)" style="stroke:#000000; stroke-linecap:round; stroke-linejoin:round; stroke-width:4; stroke-opacity:1; fill:none" points="494.523,522.55 494.523,124.51 "/>
<polyline clip-path="url(#clip412)" style="stroke:#0000ff; stroke-linecap:round; stroke-linejoin:round; stroke-width:12; stroke-opacity:1; fill:none" points="600.284,326.357 600.284,326.357 "/>
<polyline clip-path="url(#clip412)" style="stroke:#000000; stroke-linecap:round; stroke-linejoin:round; stroke-width:4; stroke-opacity:1; fill:none" points="600.284,519.491 600.284,133.224 "/>
<polyline clip-path="url(#clip412)" style="stroke:#0000ff; stroke-linecap:round; stroke-linejoin:round; stroke-width:12; stroke-opacity:1; fill:none" points="706.046,325.098 706.046,325.098 "/>
<polyline clip-path="url(#clip412)" style="stroke:#000000; stroke-linecap:round; stroke-linejoin:round; stroke-width:4; stroke-opacity:1; fill:none" points="706.046,525.148 706.046,125.049 "/>
<polyline clip-path="url(#clip412)" style="stroke:#0000ff; stroke-linecap:round; stroke-linejoin:round; stroke-width:12; stroke-opacity:1; fill:none" points="811.808,326.676 811.808,326.676 "/>
<polyline clip-path="url(#clip412)" style="stroke:#000000; stroke-linecap:round; stroke-linejoin:round; stroke-width:4; stroke-opacity:1; fill:none" points="811.808,522.694 811.808,130.659 "/>
<polyline clip-path="url(#clip412)" style="stroke:#0000ff; stroke-linecap:round; stroke-linejoin:round; stroke-width:12; stroke-opacity:1; fill:none" points="917.57,324.359 917.57,324.359 "/>
<polyline clip-path="url(#clip412)" style="stroke:#000000; stroke-linecap:round; stroke-linejoin:round; stroke-width:4; stroke-opacity:1; fill:none" points="917.57,525.586 917.57,123.133 "/>
<polyline clip-path="url(#clip412)" style="stroke:#0000ff; stroke-linecap:round; stroke-linejoin:round; stroke-width:12; stroke-opacity:1; fill:none" points="1023.33,325.924 1023.33,325.924 "/>
<polyline clip-path="url(#clip412)" style="stroke:#000000; stroke-linecap:round; stroke-linejoin:round; stroke-width:4; stroke-opacity:1; fill:none" points="1023.33,516.202 1023.33,135.646 "/>
<polyline clip-path="url(#clip412)" style="stroke:#0000ff; stroke-linecap:round; stroke-linejoin:round; stroke-width:12; stroke-opacity:1; fill:none" points="1129.09,327.394 1129.09,327.394 "/>
<polyline clip-path="url(#clip412)" style="stroke:#000000; stroke-linecap:round; stroke-linejoin:round; stroke-width:4; stroke-opacity:1; fill:none" points="1129.09,510.681 1129.09,144.107 "/>
<polyline clip-path="url(#clip412)" style="stroke:#0000ff; stroke-linecap:round; stroke-linejoin:round; stroke-width:12; stroke-opacity:1; fill:none" points="1234.85,322.729 1234.85,322.729 "/>
<polyline clip-path="url(#clip412)" style="stroke:#000000; stroke-linecap:round; stroke-linejoin:round; stroke-width:4; stroke-opacity:1; fill:none" points="1234.85,512.27 1234.85,133.188 "/>
<polyline clip-path="url(#clip412)" style="stroke:#0000ff; stroke-linecap:round; stroke-linejoin:round; stroke-width:12; stroke-opacity:1; fill:none" points="1340.62,325.244 1340.62,325.244 "/>
<polyline clip-path="url(#clip412)" style="stroke:#000000; stroke-linecap:round; stroke-linejoin:round; stroke-width:4; stroke-opacity:1; fill:none" points="1340.62,524.792 1340.62,125.696 "/>
<polyline clip-path="url(#clip412)" style="stroke:#0000ff; stroke-linecap:round; stroke-linejoin:round; stroke-width:12; stroke-opacity:1; fill:none" points="1446.38,324.381 1446.38,324.381 "/>
<polyline clip-path="url(#clip412)" style="stroke:#000000; stroke-linecap:round; stroke-linejoin:round; stroke-width:4; stroke-opacity:1; fill:none" points="1446.38,526.31 1446.38,122.452 "/>
<polyline clip-path="url(#clip412)" style="stroke:#0000ff; stroke-linecap:round; stroke-linejoin:round; stroke-width:12; stroke-opacity:1; fill:none" points="1552.14,324.757 1552.14,324.757 "/>
<polyline clip-path="url(#clip412)" style="stroke:#000000; stroke-linecap:round; stroke-linejoin:round; stroke-width:4; stroke-opacity:1; fill:none" points="1552.14,527.281 1552.14,122.233 "/>
<polyline clip-path="url(#clip412)" style="stroke:#0000ff; stroke-linecap:round; stroke-linejoin:round; stroke-width:12; stroke-opacity:1; fill:none" points="1657.9,326.814 1657.9,326.814 "/>
<polyline clip-path="url(#clip412)" style="stroke:#000000; stroke-linecap:round; stroke-linejoin:round; stroke-width:4; stroke-opacity:1; fill:none" points="1657.9,521.98 1657.9,131.647 "/>
<polyline clip-path="url(#clip412)" style="stroke:#0000ff; stroke-linecap:round; stroke-linejoin:round; stroke-width:12; stroke-opacity:1; fill:none" points="1763.66,321.748 1763.66,321.748 "/>
<polyline clip-path="url(#clip412)" style="stroke:#000000; stroke-linecap:round; stroke-linejoin:round; stroke-width:4; stroke-opacity:1; fill:none" points="1763.66,521.893 1763.66,121.603 "/>
<polyline clip-path="url(#clip412)" style="stroke:#0000ff; stroke-linecap:round; stroke-linejoin:round; stroke-width:12; stroke-opacity:1; fill:none" points="1869.42,324.67 1869.42,324.67 "/>
<polyline clip-path="url(#clip412)" style="stroke:#000000; stroke-linecap:round; stroke-linejoin:round; stroke-width:4; stroke-opacity:1; fill:none" points="1869.42,518.127 1869.42,131.214 "/>
<polyline clip-path="url(#clip412)" style="stroke:#0000ff; stroke-linecap:round; stroke-linejoin:round; stroke-width:12; stroke-opacity:1; fill:none" points="1975.19,324.107 1975.19,324.107 "/>
<polyline clip-path="url(#clip412)" style="stroke:#000000; stroke-linecap:round; stroke-linejoin:round; stroke-width:4; stroke-opacity:1; fill:none" points="1975.19,512.199 1975.19,136.015 "/>
<polyline clip-path="url(#clip412)" style="stroke:#0000ff; stroke-linecap:round; stroke-linejoin:round; stroke-width:12; stroke-opacity:1; fill:none" points="2080.95,325.27 2080.95,325.27 "/>
<polyline clip-path="url(#clip412)" style="stroke:#000000; stroke-linecap:round; stroke-linejoin:round; stroke-width:4; stroke-opacity:1; fill:none" points="2080.95,525.486 2080.95,125.055 "/>
<polyline clip-path="url(#clip412)" style="stroke:#0000ff; stroke-linecap:round; stroke-linejoin:round; stroke-width:12; stroke-opacity:1; fill:none" points="2186.71,323.346 2186.71,323.346 "/>
<polyline clip-path="url(#clip412)" style="stroke:#000000; stroke-linecap:round; stroke-linejoin:round; stroke-width:4; stroke-opacity:1; fill:none" points="2186.71,516.045 2186.71,130.647 "/>
<polyline clip-path="url(#clip412)" style="stroke:#0000ff; stroke-linecap:round; stroke-linejoin:round; stroke-width:12; stroke-opacity:1; fill:none" points="2292.47,325.281 2292.47,325.281 "/>
<polyline clip-path="url(#clip412)" style="stroke:#000000; stroke-linecap:round; stroke-linejoin:round; stroke-width:4; stroke-opacity:1; fill:none" points="2292.47,517.46 2292.47,133.102 "/>
</svg>
