<?xml version="1.0" encoding="utf-8"?>
<svg xmlns="http://www.w3.org/2000/svg" xmlns:xlink="http://www.w3.org/1999/xlink" width="600" height="400" viewBox="0 0 2400 1600">
<defs>
  <clipPath id="clip360">
    <rect x="0" y="0" width="2400" height="1600"/>
  </clipPath>
</defs>
<path clip-path="url(#clip360)" d="M0 1600 L2400 1600 L2400 0 L0 0  Z" fill="#ffffff" fill-rule="evenodd" fill-opacity="1"/>
<defs>
  <clipPath id="clip361">
    <rect x="480" y="0" width="1681" height="1600"/>
  </clipPath>
</defs>
<path clip-path="url(#clip360)" d="M172.691 1423.18 L2352.76 1423.18 L2352.76 207.176 L172.691 207.176  Z" fill="#ffffff" fill-rule="evenodd" fill-opacity="1"/>
<defs>
  <clipPath id="clip362">
    <rect x="172" y="207" width="2181" height="1217"/>
  </clipPath>
</defs>
<polyline clip-path="url(#clip362)" style="stroke:#000000; stroke-linecap:round; stroke-linejoin:round; stroke-width:2; stroke-opacity:0.1; fill:none" points="194.177,1423.18 194.177,207.176 "/>
<polyline clip-path="url(#clip362)" style="stroke:#000000; stroke-linecap:round; stroke-linejoin:round; stroke-width:2; stroke-opacity:0.1; fill:none" points="653.767,1423.18 653.767,207.176 "/>
<polyline clip-path="url(#clip362)" style="stroke:#000000; stroke-linecap:round; stroke-linejoin:round; stroke-width:2; stroke-opacity:0.1; fill:none" points="1113.36,1423.18 1113.36,207.176 "/>
<polyline clip-path="url(#clip362)" style="stroke:#000000; stroke-linecap:round; stroke-linejoin:round; stroke-width:2; stroke-opacity:0.1; fill:none" points="1572.95,1423.18 1572.95,207.176 "/>
<polyline clip-path="url(#clip362)" style="stroke:#000000; stroke-linecap:round; stroke-linejoin:round; stroke-width:2; stroke-opacity:0.1; fill:none" points="2032.54,1423.18 2032.54,207.176 "/>
<polyline clip-path="url(#clip360)" style="stroke:#000000; stroke-linecap:round; stroke-linejoin:round; stroke-width:4; stroke-opacity:1; fill:none" points="172.691,1423.18 2352.76,1423.18 "/>
<polyline clip-path="url(#clip360)" style="stroke:#000000; stroke-linecap:round; stroke-linejoin:round; stroke-width:4; stroke-opacity:1; fill:none" points="194.177,1423.18 194.177,1406.48 "/>
<polyline clip-path="url(#clip360)" style="stroke:#000000; stroke-linecap:round; stroke-linejoin:round; stroke-width:4; stroke-opacity:1; fill:none" points="653.767,1423.18 653.767,1406.48 "/>
<polyline clip-path="url(#clip360)" style="stroke:#000000; stroke-linecap:round; stroke-linejoin:round; stroke-width:4; stroke-opacity:1; fill:none" points="1113.36,1423.18 1113.36,1406.48 "/>
<polyline clip-path="url(#clip360)" style="stroke:#000000; stroke-linecap:round; stroke-linejoin:round; stroke-width:4; stroke-opacity:1; fill:none" points="1572.95,1423.18 1572.95,1406.48 "/>
<polyline clip-path="url(#clip360)" style="stroke:#000000; stroke-linecap:round; stroke-linejoin:round; stroke-width:4; stroke-opacity:1; fill:none" points="2032.54,1423.18 2032.54,1406.48 "/>
<path clip-path="url(#clip360)" d="M185.036 1472.22 Q185.333 1472.51 185.333 1472.93 Q185.333 1473.35 185.036 1473.65 Q184.74 1473.94 184.32 1473.94 L152.65 1473.94 Q152.23 1473.94 151.934 1473.65 Q151.637 1473.35 151.637 1472.93 Q151.637 1472.51 151.934 1472.22 Q152.23 1471.92 152.65 1471.92 L184.32 1471.92 Q184.74 1471.92 185.036 1472.22 Z" fill="#000000" fill-rule="nonzero" fill-opacity="1" /><path clip-path="url(#clip360)" d="M189.557 1477.23 L189.557 1475.67 L205.096 1451.93 Q205.491 1451.32 206.108 1451.34 Q206.677 1451.34 206.8 1451.56 Q206.924 1451.79 206.924 1452.65 L206.924 1475.67 L211.988 1475.67 L211.988 1477.23 L206.924 1477.23 L206.924 1481.63 Q206.924 1483.08 207.516 1483.55 Q208.134 1484.02 210.753 1484.02 L211.815 1484.02 L211.815 1485.58 Q209.74 1485.43 204.947 1485.43 Q200.18 1485.43 198.104 1485.58 L198.104 1484.02 L199.167 1484.02 Q201.785 1484.02 202.403 1483.58 Q203.02 1483.11 203.02 1481.63 L203.02 1477.23 L189.557 1477.23 M190.99 1475.67 L203.317 1475.67 L203.317 1456.8 L190.99 1475.67 Z" fill="#000000" fill-rule="nonzero" fill-opacity="1" /><path clip-path="url(#clip360)" d="M215.422 1469.4 Q215.422 1461.96 217.299 1457.91 Q219.918 1451.88 226.093 1451.88 Q227.403 1451.88 228.761 1452.26 Q230.145 1452.6 231.874 1453.96 Q233.628 1455.32 234.69 1457.54 Q236.716 1461.84 236.716 1469.4 Q236.716 1476.79 234.838 1480.81 Q232.096 1486.69 226.044 1486.69 Q223.771 1486.69 221.449 1485.53 Q219.152 1484.37 217.694 1481.58 Q215.422 1477.4 215.422 1469.4 M219.621 1468.78 Q219.621 1476.41 220.165 1479.45 Q220.782 1482.74 222.462 1484.17 Q224.167 1485.58 226.044 1485.58 Q228.07 1485.58 229.749 1484.07 Q231.454 1482.54 231.973 1479.26 Q232.541 1476.02 232.516 1468.78 Q232.516 1461.74 232.022 1458.92 Q231.355 1455.64 229.577 1454.33 Q227.823 1453 226.044 1453 Q225.377 1453 224.661 1453.19 Q223.969 1453.39 222.956 1453.96 Q221.943 1454.53 221.153 1455.94 Q220.387 1457.34 220.016 1459.47 Q219.621 1462.21 219.621 1468.78 Z" fill="#000000" fill-rule="nonzero" fill-opacity="1" /><path clip-path="url(#clip360)" d="M644.626 1472.22 Q644.923 1472.51 644.923 1472.93 Q644.923 1473.35 644.626 1473.65 Q644.33 1473.94 643.91 1473.94 L612.24 1473.94 Q611.82 1473.94 611.524 1473.65 Q611.227 1473.35 611.227 1472.93 Q611.227 1472.51 611.524 1472.22 Q611.82 1471.92 612.24 1471.92 L643.91 1471.92 Q644.33 1471.92 644.626 1472.22 Z" fill="#000000" fill-rule="nonzero" fill-opacity="1" /><path clip-path="url(#clip360)" d="M650.259 1485.58 Q650.259 1484.67 650.333 1484.39 Q650.432 1484.12 650.827 1483.7 L660.535 1472.88 Q665.847 1466.9 665.847 1461.69 Q665.847 1458.31 664.068 1455.89 Q662.314 1453.47 659.078 1453.47 Q656.855 1453.47 654.977 1454.82 Q653.1 1456.18 652.235 1458.6 Q652.383 1458.55 652.902 1458.55 Q654.162 1458.55 654.854 1459.34 Q655.57 1460.14 655.57 1461.2 Q655.57 1462.56 654.681 1463.22 Q653.816 1463.87 652.951 1463.87 Q652.606 1463.87 652.136 1463.79 Q651.692 1463.72 650.975 1463.03 Q650.259 1462.31 650.259 1461.05 Q650.259 1457.52 652.927 1454.7 Q655.619 1451.88 659.72 1451.88 Q664.364 1451.88 667.403 1454.65 Q670.466 1457.39 670.466 1461.69 Q670.466 1463.2 669.997 1464.58 Q669.552 1465.94 668.934 1467 Q668.342 1468.07 666.711 1469.77 Q665.081 1471.47 663.771 1472.68 Q662.462 1473.9 659.523 1476.46 L654.162 1481.68 L663.277 1481.68 Q667.724 1481.68 668.07 1481.28 Q668.564 1480.57 669.182 1476.79 L670.466 1476.79 L669.033 1485.58 L650.259 1485.58 Z" fill="#000000" fill-rule="nonzero" fill-opacity="1" /><path clip-path="url(#clip360)" d="M675.012 1469.4 Q675.012 1461.96 676.889 1457.91 Q679.508 1451.88 685.683 1451.88 Q686.993 1451.88 688.351 1452.26 Q689.735 1452.6 691.464 1453.96 Q693.218 1455.32 694.28 1457.54 Q696.306 1461.84 696.306 1469.4 Q696.306 1476.79 694.428 1480.81 Q691.686 1486.69 685.634 1486.69 Q683.361 1486.69 681.039 1485.53 Q678.742 1484.37 677.284 1481.58 Q675.012 1477.4 675.012 1469.4 M679.211 1468.78 Q679.211 1476.41 679.755 1479.45 Q680.372 1482.74 682.052 1484.17 Q683.757 1485.58 685.634 1485.58 Q687.66 1485.58 689.339 1484.07 Q691.044 1482.54 691.563 1479.26 Q692.131 1476.02 692.106 1468.78 Q692.106 1461.74 691.612 1458.92 Q690.945 1455.64 689.167 1454.33 Q687.413 1453 685.634 1453 Q684.967 1453 684.251 1453.19 Q683.559 1453.39 682.546 1453.96 Q681.533 1454.53 680.743 1455.94 Q679.977 1457.34 679.606 1459.47 Q679.211 1462.21 679.211 1468.78 Z" fill="#000000" fill-rule="nonzero" fill-opacity="1" /><path clip-path="url(#clip360)" d="M1102.71 1469.4 Q1102.71 1461.96 1104.59 1457.91 Q1107.21 1451.88 1113.38 1451.88 Q1114.69 1451.88 1116.05 1452.26 Q1117.43 1452.6 1119.16 1453.96 Q1120.92 1455.32 1121.98 1457.54 Q1124 1461.84 1124 1469.4 Q1124 1476.79 1122.13 1480.81 Q1119.38 1486.69 1113.33 1486.69 Q1111.06 1486.69 1108.74 1485.53 Q1106.44 1484.37 1104.98 1481.58 Q1102.71 1477.4 1102.71 1469.4 M1106.91 1468.78 Q1106.91 1476.41 1107.45 1479.45 Q1108.07 1482.74 1109.75 1484.17 Q1111.45 1485.58 1113.33 1485.58 Q1115.36 1485.58 1117.04 1484.07 Q1118.74 1482.54 1119.26 1479.26 Q1119.83 1476.02 1119.8 1468.78 Q1119.8 1461.74 1119.31 1458.92 Q1118.64 1455.64 1116.86 1454.33 Q1115.11 1453 1113.33 1453 Q1112.66 1453 1111.95 1453.19 Q1111.26 1453.39 1110.24 1453.96 Q1109.23 1454.53 1108.44 1455.94 Q1107.67 1457.34 1107.3 1459.47 Q1106.91 1462.21 1106.91 1468.78 Z" fill="#000000" fill-rule="nonzero" fill-opacity="1" /><path clip-path="url(#clip360)" d="M1549.92 1485.58 Q1549.92 1484.67 1550 1484.39 Q1550.1 1484.12 1550.49 1483.7 L1560.2 1472.88 Q1565.51 1466.9 1565.51 1461.69 Q1565.51 1458.31 1563.73 1455.89 Q1561.98 1453.47 1558.74 1453.47 Q1556.52 1453.47 1554.64 1454.82 Q1552.76 1456.18 1551.9 1458.6 Q1552.05 1458.55 1552.57 1458.55 Q1553.83 1458.55 1554.52 1459.34 Q1555.23 1460.14 1555.23 1461.2 Q1555.23 1462.56 1554.34 1463.22 Q1553.48 1463.87 1552.62 1463.87 Q1552.27 1463.87 1551.8 1463.79 Q1551.36 1463.72 1550.64 1463.03 Q1549.92 1462.31 1549.92 1461.05 Q1549.92 1457.52 1552.59 1454.7 Q1555.28 1451.88 1559.38 1451.88 Q1564.03 1451.88 1567.07 1454.65 Q1570.13 1457.39 1570.13 1461.69 Q1570.13 1463.2 1569.66 1464.58 Q1569.22 1465.94 1568.6 1467 Q1568.01 1468.07 1566.38 1469.77 Q1564.75 1471.47 1563.44 1472.68 Q1562.13 1473.9 1559.19 1476.46 L1553.83 1481.68 L1562.94 1481.68 Q1567.39 1481.68 1567.73 1481.28 Q1568.23 1480.57 1568.85 1476.79 L1570.13 1476.79 L1568.7 1485.58 L1549.92 1485.58 Z" fill="#000000" fill-rule="nonzero" fill-opacity="1" /><path clip-path="url(#clip360)" d="M1574.68 1469.4 Q1574.68 1461.96 1576.55 1457.91 Q1579.17 1451.88 1585.35 1451.88 Q1586.66 1451.88 1588.02 1452.26 Q1589.4 1452.6 1591.13 1453.96 Q1592.88 1455.32 1593.94 1457.54 Q1595.97 1461.84 1595.97 1469.4 Q1595.97 1476.79 1594.09 1480.81 Q1591.35 1486.69 1585.3 1486.69 Q1583.03 1486.69 1580.7 1485.53 Q1578.41 1484.37 1576.95 1481.58 Q1574.68 1477.4 1574.68 1469.4 M1578.88 1468.78 Q1578.88 1476.41 1579.42 1479.45 Q1580.04 1482.74 1581.72 1484.17 Q1583.42 1485.58 1585.3 1485.58 Q1587.32 1485.58 1589 1484.07 Q1590.71 1482.54 1591.23 1479.26 Q1591.8 1476.02 1591.77 1468.78 Q1591.77 1461.74 1591.28 1458.92 Q1590.61 1455.64 1588.83 1454.33 Q1587.08 1453 1585.3 1453 Q1584.63 1453 1583.91 1453.19 Q1583.22 1453.39 1582.21 1453.96 Q1581.2 1454.53 1580.41 1455.94 Q1579.64 1457.34 1579.27 1459.47 Q1578.88 1462.21 1578.88 1468.78 Z" fill="#000000" fill-rule="nonzero" fill-opacity="1" /><path clip-path="url(#clip360)" d="M2008.96 1477.23 L2008.96 1475.67 L2024.5 1451.93 Q2024.89 1451.32 2025.51 1451.34 Q2026.08 1451.34 2026.2 1451.56 Q2026.32 1451.79 2026.32 1452.65 L2026.32 1475.67 L2031.39 1475.67 L2031.39 1477.23 L2026.32 1477.23 L2026.32 1481.63 Q2026.32 1483.08 2026.92 1483.55 Q2027.53 1484.02 2030.15 1484.02 L2031.21 1484.02 L2031.21 1485.58 Q2029.14 1485.43 2024.35 1485.43 Q2019.58 1485.43 2017.5 1485.58 L2017.5 1484.02 L2018.57 1484.02 Q2021.19 1484.02 2021.8 1483.58 Q2022.42 1483.11 2022.42 1481.63 L2022.42 1477.23 L2008.96 1477.23 M2010.39 1475.67 L2022.72 1475.67 L2022.72 1456.8 L2010.39 1475.67 Z" fill="#000000" fill-rule="nonzero" fill-opacity="1" /><path clip-path="url(#clip360)" d="M2034.82 1469.4 Q2034.82 1461.96 2036.7 1457.91 Q2039.32 1451.88 2045.49 1451.88 Q2046.8 1451.88 2048.16 1452.26 Q2049.54 1452.6 2051.27 1453.96 Q2053.03 1455.32 2054.09 1457.54 Q2056.12 1461.84 2056.12 1469.4 Q2056.12 1476.79 2054.24 1480.81 Q2051.5 1486.69 2045.44 1486.69 Q2043.17 1486.69 2040.85 1485.53 Q2038.55 1484.37 2037.09 1481.58 Q2034.82 1477.4 2034.82 1469.4 M2039.02 1468.78 Q2039.02 1476.41 2039.56 1479.45 Q2040.18 1482.74 2041.86 1484.17 Q2043.57 1485.58 2045.44 1485.58 Q2047.47 1485.58 2049.15 1484.07 Q2050.85 1482.54 2051.37 1479.26 Q2051.94 1476.02 2051.92 1468.78 Q2051.92 1461.74 2051.42 1458.92 Q2050.76 1455.64 2048.98 1454.33 Q2047.22 1453 2045.44 1453 Q2044.78 1453 2044.06 1453.19 Q2043.37 1453.39 2042.36 1453.96 Q2041.34 1454.53 2040.55 1455.94 Q2039.79 1457.34 2039.42 1459.47 Q2039.02 1462.21 2039.02 1468.78 Z" fill="#000000" fill-rule="nonzero" fill-opacity="1" /><path clip-path="url(#clip360)" d="M1232.58 1528.17 Q1232.58 1529.07 1232.16 1529.3 Q1231.74 1529.49 1230.58 1529.49 L1224.4 1529.49 L1219.51 1548.94 Q1219.12 1550.65 1219.12 1552.1 Q1219.12 1553.71 1219.6 1554.42 Q1220.12 1555.13 1221.18 1555.13 Q1223.27 1555.13 1225.53 1553.23 Q1227.81 1551.33 1229.75 1546.69 Q1230 1546.08 1230.13 1545.95 Q1230.29 1545.79 1230.71 1545.79 Q1231.52 1545.79 1231.52 1546.43 Q1231.52 1546.66 1231.07 1547.69 Q1230.65 1548.72 1229.72 1550.23 Q1228.81 1551.75 1227.62 1553.16 Q1226.46 1554.58 1224.69 1555.61 Q1222.92 1556.61 1221.02 1556.61 Q1218.35 1556.61 1216.64 1554.9 Q1214.96 1553.19 1214.96 1550.52 Q1214.96 1549.65 1215.64 1546.88 Q1216.32 1544.08 1219.99 1529.49 L1214.16 1529.49 Q1213.35 1529.49 1213.03 1529.46 Q1212.74 1529.43 1212.52 1529.27 Q1212.32 1529.07 1212.32 1528.69 Q1212.32 1528.07 1212.58 1527.82 Q1212.84 1527.53 1213.16 1527.49 Q1213.52 1527.43 1214.32 1527.43 L1220.5 1527.43 L1223.08 1516.96 Q1223.34 1515.93 1223.98 1515.35 Q1224.66 1514.74 1225.05 1514.68 Q1225.43 1514.58 1225.72 1514.58 Q1226.59 1514.58 1227.11 1515.06 Q1227.62 1515.51 1227.62 1516.35 Q1227.62 1516.8 1224.92 1527.43 L1230.71 1527.43 Q1231.45 1527.43 1231.74 1527.46 Q1232.07 1527.49 1232.32 1527.66 Q1232.58 1527.82 1232.58 1528.17 Z" fill="#000000" fill-rule="nonzero" fill-opacity="1" /><path clip-path="url(#clip360)" d="M1253.33 1572.36 L1253.33 1506.4 L1263.28 1506.4 L1263.28 1507.91 L1257.74 1507.91 L1257.74 1570.84 L1263.28 1570.84 L1263.28 1572.36 L1253.33 1572.36 Z" fill="#000000" fill-rule="nonzero" fill-opacity="1" /><path clip-path="url(#clip360)" d="M1290.22 1532.39 Q1290.22 1534.19 1289.32 1535.16 Q1288.41 1536.09 1287.19 1536.09 Q1286.19 1536.09 1285.64 1535.51 Q1285.13 1534.93 1285.13 1534.16 Q1285.13 1533.03 1286.03 1532.13 Q1286.96 1531.23 1288.32 1531.2 Q1287.87 1530.01 1286.67 1529.3 Q1285.48 1528.56 1284.42 1528.36 Q1283.39 1528.17 1282.36 1528.17 Q1280.33 1528.17 1278.78 1528.81 Q1277.24 1529.46 1276.47 1530.46 Q1275.69 1531.42 1275.34 1532.36 Q1274.98 1533.29 1274.98 1534.1 Q1274.98 1534.81 1275.14 1535.38 Q1275.34 1535.93 1275.79 1536.35 Q1276.24 1536.74 1276.56 1537 Q1276.92 1537.25 1277.69 1537.48 Q1278.46 1537.7 1278.78 1537.8 Q1279.11 1537.86 1280.01 1538.06 Q1281.88 1538.44 1282.71 1538.67 Q1283.55 1538.86 1284.65 1539.41 Q1285.77 1539.96 1286.61 1540.83 Q1288.64 1542.86 1288.64 1545.66 Q1288.64 1546.69 1288.28 1547.95 Q1287.96 1549.2 1287.03 1550.78 Q1286.09 1552.36 1284.68 1553.61 Q1283.26 1554.87 1280.81 1555.74 Q1278.4 1556.61 1275.37 1556.61 Q1271.15 1556.61 1268.54 1554.84 Q1265.93 1553.03 1265.93 1550.2 Q1265.93 1548.14 1267.06 1547.01 Q1268.19 1545.85 1269.64 1545.85 Q1270.73 1545.85 1271.41 1546.46 Q1272.09 1547.04 1272.09 1548.14 Q1272.09 1549.62 1270.89 1550.75 Q1269.7 1551.87 1267.93 1551.65 Q1269.44 1555.13 1275.43 1555.13 Q1277.69 1555.13 1279.43 1554.55 Q1281.2 1553.94 1282.17 1553.1 Q1283.16 1552.23 1283.81 1551.17 Q1284.45 1550.1 1284.65 1549.3 Q1284.87 1548.49 1284.87 1547.88 Q1284.87 1546.82 1284.45 1546.01 Q1284.03 1545.21 1283.45 1544.76 Q1282.91 1544.27 1281.84 1543.89 Q1280.81 1543.47 1280.07 1543.31 Q1279.33 1543.15 1278.01 1542.89 Q1277.4 1542.76 1277.01 1542.7 Q1276.63 1542.6 1275.82 1542.34 Q1275.05 1542.05 1274.5 1541.76 Q1273.99 1541.47 1273.31 1540.96 Q1272.63 1540.44 1272.21 1539.83 Q1271.8 1539.22 1271.51 1538.32 Q1271.22 1537.41 1271.22 1536.35 Q1271.22 1535.38 1271.51 1534.23 Q1271.83 1533.07 1272.63 1531.71 Q1273.47 1530.36 1274.66 1529.27 Q1275.85 1528.17 1277.85 1527.46 Q1279.88 1526.72 1282.36 1526.72 Q1285.97 1526.72 1288.09 1528.4 Q1290.22 1530.04 1290.22 1532.39 Z" fill="#000000" fill-rule="nonzero" fill-opacity="1" /><path clip-path="url(#clip360)" d="M1294.97 1570.84 L1300.51 1570.84 L1300.51 1507.91 L1294.97 1507.91 L1294.97 1506.4 L1304.92 1506.4 L1304.92 1572.36 L1294.97 1572.36 L1294.97 1570.84 Z" fill="#000000" fill-rule="nonzero" fill-opacity="1" /><polyline clip-path="url(#clip362)" style="stroke:#000000; stroke-linecap:round; stroke-linejoin:round; stroke-width:2; stroke-opacity:0.1; fill:none" points="172.691,1388.76 2352.76,1388.76 "/>
<polyline clip-path="url(#clip362)" style="stroke:#000000; stroke-linecap:round; stroke-linejoin:round; stroke-width:2; stroke-opacity:0.1; fill:none" points="172.691,1198.07 2352.76,1198.07 "/>
<polyline clip-path="url(#clip362)" style="stroke:#000000; stroke-linecap:round; stroke-linejoin:round; stroke-width:2; stroke-opacity:0.1; fill:none" points="172.691,1007.38 2352.76,1007.38 "/>
<polyline clip-path="url(#clip362)" style="stroke:#000000; stroke-linecap:round; stroke-linejoin:round; stroke-width:2; stroke-opacity:0.1; fill:none" points="172.691,816.689 2352.76,816.689 "/>
<polyline clip-path="url(#clip362)" style="stroke:#000000; stroke-linecap:round; stroke-linejoin:round; stroke-width:2; stroke-opacity:0.1; fill:none" points="172.691,625.997 2352.76,625.997 "/>
<polyline clip-path="url(#clip362)" style="stroke:#000000; stroke-linecap:round; stroke-linejoin:round; stroke-width:2; stroke-opacity:0.1; fill:none" points="172.691,435.305 2352.76,435.305 "/>
<polyline clip-path="url(#clip362)" style="stroke:#000000; stroke-linecap:round; stroke-linejoin:round; stroke-width:2; stroke-opacity:0.1; fill:none" points="172.691,244.614 2352.76,244.614 "/>
<polyline clip-path="url(#clip360)" style="stroke:#000000; stroke-linecap:round; stroke-linejoin:round; stroke-width:4; stroke-opacity:1; fill:none" points="172.691,1423.18 172.691,207.176 "/>
<polyline clip-path="url(#clip360)" style="stroke:#000000; stroke-linecap:round; stroke-linejoin:round; stroke-width:4; stroke-opacity:1; fill:none" points="172.691,1388.76 191.588,1388.76 "/>
<polyline clip-path="url(#clip360)" style="stroke:#000000; stroke-linecap:round; stroke-linejoin:round; stroke-width:4; stroke-opacity:1; fill:none" points="172.691,1198.07 191.588,1198.07 "/>
<polyline clip-path="url(#clip360)" style="stroke:#000000; stroke-linecap:round; stroke-linejoin:round; stroke-width:4; stroke-opacity:1; fill:none" points="172.691,1007.38 191.588,1007.38 "/>
<polyline clip-path="url(#clip360)" style="stroke:#000000; stroke-linecap:round; stroke-linejoin:round; stroke-width:4; stroke-opacity:1; fill:none" points="172.691,816.689 191.588,816.689 "/>
<polyline clip-path="url(#clip360)" style="stroke:#000000; stroke-linecap:round; stroke-linejoin:round; stroke-width:4; stroke-opacity:1; fill:none" points="172.691,625.997 191.588,625.997 "/>
<polyline clip-path="url(#clip360)" style="stroke:#000000; stroke-linecap:round; stroke-linejoin:round; stroke-width:4; stroke-opacity:1; fill:none" points="172.691,435.305 191.588,435.305 "/>
<polyline clip-path="url(#clip360)" style="stroke:#000000; stroke-linecap:round; stroke-linejoin:round; stroke-width:4; stroke-opacity:1; fill:none" points="172.691,244.614 191.588,244.614 "/>
<path clip-path="url(#clip360)" d="M115.397 1389.86 Q115.397 1382.43 117.274 1378.38 Q119.893 1372.35 126.068 1372.35 Q127.378 1372.35 128.736 1372.72 Q130.12 1373.07 131.849 1374.42 Q133.603 1375.78 134.665 1378.01 Q136.691 1382.3 136.691 1389.86 Q136.691 1397.25 134.813 1401.28 Q132.071 1407.16 126.019 1407.16 Q123.746 1407.16 121.424 1406 Q119.127 1404.83 117.669 1402.04 Q115.397 1397.87 115.397 1389.86 M119.596 1389.25 Q119.596 1396.88 120.14 1399.92 Q120.757 1403.2 122.437 1404.64 Q124.142 1406.04 126.019 1406.04 Q128.045 1406.04 129.724 1404.54 Q131.429 1403.01 131.948 1399.72 Q132.516 1396.48 132.491 1389.25 Q132.491 1382.21 131.997 1379.39 Q131.33 1376.1 129.552 1374.79 Q127.798 1373.46 126.019 1373.46 Q125.352 1373.46 124.636 1373.66 Q123.944 1373.86 122.931 1374.42 Q121.918 1374.99 121.128 1376.4 Q120.362 1377.81 119.991 1379.93 Q119.596 1382.68 119.596 1389.25 Z" fill="#000000" fill-rule="nonzero" fill-opacity="1" /><path clip-path="url(#clip360)" d="M119.991 1186.47 L119.991 1184.89 Q126.068 1184.89 129.206 1181.66 Q130.07 1181.66 130.219 1181.86 Q130.367 1182.05 130.367 1182.97 L130.367 1211.35 Q130.367 1212.86 131.108 1213.33 Q131.849 1213.8 135.085 1213.8 L136.691 1213.8 L136.691 1215.35 Q134.912 1215.2 128.489 1215.2 Q122.066 1215.2 120.312 1215.35 L120.312 1213.8 L121.918 1213.8 Q125.105 1213.8 125.871 1213.35 Q126.637 1212.88 126.637 1211.35 L126.637 1185.14 Q123.993 1186.47 119.991 1186.47 Z" fill="#000000" fill-rule="nonzero" fill-opacity="1" /><path clip-path="url(#clip360)" d="M116.483 1024.66 Q116.483 1023.75 116.558 1023.48 Q116.656 1023.2 117.052 1022.78 L126.76 1011.96 Q132.071 1005.99 132.071 1000.77 Q132.071 997.388 130.293 994.968 Q128.539 992.547 125.303 992.547 Q123.079 992.547 121.202 993.905 Q119.324 995.264 118.46 997.685 Q118.608 997.635 119.127 997.635 Q120.387 997.635 121.078 998.426 Q121.795 999.217 121.795 1000.28 Q121.795 1001.64 120.905 1002.3 Q120.041 1002.95 119.176 1002.95 Q118.83 1002.95 118.361 1002.87 Q117.916 1002.8 117.2 1002.11 Q116.483 1001.39 116.483 1000.13 Q116.483 996.598 119.151 993.782 Q121.844 990.966 125.945 990.966 Q130.589 990.966 133.628 993.732 Q136.691 996.474 136.691 1000.77 Q136.691 1002.28 136.221 1003.66 Q135.777 1005.02 135.159 1006.08 Q134.566 1007.15 132.936 1008.85 Q131.305 1010.56 129.996 1011.77 Q128.687 1012.98 125.747 1015.55 L120.387 1020.76 L129.502 1020.76 Q133.949 1020.76 134.295 1020.36 Q134.789 1019.65 135.406 1015.87 L136.691 1015.87 L135.258 1024.66 L116.483 1024.66 Z" fill="#000000" fill-rule="nonzero" fill-opacity="1" /><path clip-path="url(#clip360)" d="M115.693 827.151 Q115.693 825.644 116.558 824.928 Q117.422 824.211 118.534 824.211 Q119.695 824.211 120.51 824.977 Q121.35 825.718 121.35 827.027 Q121.35 828.436 120.362 829.226 Q119.398 830.017 118.015 829.819 Q119.226 831.845 121.449 832.759 Q123.697 833.673 125.772 833.673 Q127.946 833.673 129.7 831.795 Q131.478 829.918 131.478 825.323 Q131.478 821.42 129.947 819.172 Q128.44 816.924 125.451 816.924 L123.227 816.924 Q122.462 816.924 122.239 816.85 Q122.017 816.776 122.017 816.356 Q122.017 815.862 122.783 815.763 Q123.549 815.763 124.759 815.615 Q127.699 815.516 129.255 812.971 Q130.663 810.6 130.663 807.215 Q130.663 804.127 129.181 802.843 Q127.723 801.534 125.821 801.534 Q124.043 801.534 122.091 802.275 Q120.14 803.016 119.077 804.671 Q122.215 804.671 122.215 807.215 Q122.215 808.327 121.498 809.068 Q120.807 809.785 119.645 809.785 Q118.534 809.785 117.793 809.093 Q117.052 808.376 117.052 807.166 Q117.052 804.276 119.621 802.275 Q122.215 800.274 126.019 800.274 Q129.774 800.274 132.541 802.25 Q135.332 804.226 135.332 807.265 Q135.332 810.254 133.356 812.7 Q131.38 815.145 128.242 816.158 Q132.096 816.924 134.393 819.542 Q136.691 822.136 136.691 825.323 Q136.691 829.275 133.578 832.19 Q130.466 835.081 125.92 835.081 Q121.721 835.081 118.707 832.808 Q115.693 830.535 115.693 827.151 Z" fill="#000000" fill-rule="nonzero" fill-opacity="1" /><path clip-path="url(#clip360)" d="M114.26 634.928 L114.26 633.371 L129.799 609.631 Q130.194 609.014 130.811 609.038 Q131.38 609.038 131.503 609.261 Q131.627 609.483 131.627 610.348 L131.627 633.371 L136.691 633.371 L136.691 634.928 L131.627 634.928 L131.627 639.325 Q131.627 640.782 132.219 641.252 Q132.837 641.721 135.456 641.721 L136.518 641.721 L136.518 643.277 Q134.443 643.129 129.65 643.129 Q124.883 643.129 122.808 643.277 L122.808 641.721 L123.87 641.721 Q126.488 641.721 127.106 641.276 Q127.723 640.807 127.723 639.325 L127.723 634.928 L114.26 634.928 M115.693 633.371 L128.02 633.371 L128.02 614.498 L115.693 633.371 Z" fill="#000000" fill-rule="nonzero" fill-opacity="1" /><path clip-path="url(#clip360)" d="M116.483 444.433 Q116.483 442.926 117.299 442.358 Q118.114 441.765 118.978 441.765 Q120.14 441.765 120.807 442.506 Q121.498 443.223 121.498 444.236 Q121.498 445.249 120.807 445.99 Q120.14 446.706 118.978 446.706 Q118.41 446.706 118.114 446.607 Q118.781 448.929 120.807 450.609 Q122.857 452.289 125.55 452.289 Q128.934 452.289 130.96 449.003 Q132.17 446.879 132.17 442.062 Q132.17 437.813 131.256 435.688 Q129.848 432.452 126.958 432.452 Q122.857 432.452 120.436 435.985 Q120.14 436.429 119.794 436.454 Q119.3 436.454 119.176 436.182 Q119.077 435.886 119.077 435.12 L119.077 420.15 Q119.077 418.939 119.571 418.939 Q119.769 418.939 120.189 419.088 Q123.376 420.496 126.908 420.52 Q130.54 420.52 133.801 419.038 Q134.048 418.89 134.196 418.89 Q134.69 418.89 134.715 419.458 Q134.715 419.656 134.295 420.249 Q133.899 420.817 133.035 421.583 Q132.17 422.324 131.058 423.04 Q129.947 423.757 128.316 424.251 Q126.711 424.72 124.932 424.72 Q122.808 424.72 120.634 424.053 L120.634 433.91 Q123.252 431.341 127.056 431.341 Q131.108 431.341 133.899 434.601 Q136.691 437.862 136.691 442.408 Q136.691 447.175 133.381 450.436 Q130.095 453.697 125.648 453.697 Q121.597 453.697 119.028 450.807 Q116.483 447.917 116.483 444.433 Z" fill="#000000" fill-rule="nonzero" fill-opacity="1" /><path clip-path="url(#clip360)" d="M115.693 245.911 Q115.693 237.956 119.744 233.089 Q123.796 228.198 129.008 228.198 Q132.047 228.198 133.726 229.755 Q135.431 231.286 135.431 233.658 Q135.431 234.967 134.665 235.535 Q133.899 236.103 133.109 236.103 Q132.195 236.103 131.478 235.486 Q130.762 234.868 130.762 233.756 Q130.762 231.484 133.553 231.484 Q132.244 229.458 129.107 229.458 Q128.143 229.458 127.155 229.755 Q126.167 230.026 124.883 230.965 Q123.598 231.904 122.61 233.386 Q121.622 234.868 120.93 237.66 Q120.238 240.451 120.238 244.082 L120.238 245.293 Q122.313 240.278 126.562 240.303 Q130.811 240.303 133.751 243.539 Q136.691 246.775 136.691 251.568 Q136.691 256.484 133.628 259.744 Q130.564 263.005 126.266 263.005 Q124.339 263.005 122.585 262.19 Q120.856 261.4 119.226 259.572 Q117.62 257.743 116.656 254.236 Q115.693 250.728 115.693 245.911 M120.337 250.456 Q120.337 255.421 121.251 257.793 Q121.399 258.188 121.721 258.732 Q122.066 259.275 122.635 259.991 Q123.227 260.683 124.191 261.153 Q125.154 261.597 126.266 261.597 Q129.65 261.597 131.281 258.312 Q132.145 256.484 132.145 251.518 Q132.145 246.454 131.231 244.601 Q129.675 241.464 126.513 241.464 Q124.389 241.464 122.906 242.921 Q121.449 244.379 120.881 246.331 Q120.337 248.282 120.337 250.456 Z" fill="#000000" fill-rule="nonzero" fill-opacity="1" /><path clip-path="url(#clip360)" d="M82.5735 858.441 L16.6159 858.441 L16.6159 848.489 L18.1296 848.489 L18.1296 854.029 L81.0598 854.029 L81.0598 848.489 L82.5735 848.489 L82.5735 858.441 Z" fill="#000000" fill-rule="nonzero" fill-opacity="1" /><path clip-path="url(#clip360)" d="M56.6478 793.113 Q56.9054 793.113 57.9038 793.403 Q58.9022 793.693 60.4481 794.402 Q61.994 795.078 63.411 796.044 Q64.7959 796.978 65.8264 798.524 Q66.8248 800.038 66.8248 801.777 Q66.8248 804.095 65.2789 805.641 Q63.7331 807.187 61.4142 807.187 Q60.1582 807.187 57.775 806.318 Q46.8894 802.228 42.9925 802.228 Q38.3871 802.228 38.3871 805.802 Q38.3871 807.831 39.2244 809.667 Q40.0618 811.503 41.2212 812.694 Q42.3806 813.886 43.701 814.82 Q45.0215 815.754 45.891 816.173 Q46.7606 816.559 47.147 816.656 L63.0567 820.617 Q64.4094 820.939 65.0535 821.165 Q65.6976 821.39 66.2451 822.002 Q66.8248 822.614 66.8248 823.58 Q66.8248 824.385 66.3417 824.965 Q65.8587 825.512 65.0213 825.512 Q64.8925 825.512 64.2162 825.351 Q63.5398 825.19 62.6059 824.965 Q61.6719 824.739 61.1244 824.643 Q56.7444 823.483 56.1325 823.322 L48.4675 821.487 Q44.6672 820.488 42.9925 820.488 Q38.3871 820.488 38.3871 824.063 Q38.3871 825.834 39.0634 827.509 Q39.7075 829.152 40.6093 830.279 Q41.511 831.406 42.7671 832.437 Q43.9909 833.435 44.8282 833.95 Q45.6334 834.433 46.4385 834.82 L49.7235 835.657 Q50.6253 835.85 54.1357 836.784 L60.0938 838.234 Q64.5382 839.264 64.9569 839.49 Q65.8587 839.812 66.3417 840.52 Q66.8248 841.229 66.8248 841.937 Q66.8248 842.743 66.3417 843.29 Q65.8587 843.838 65.0213 843.838 Q64.8925 843.838 64.4094 843.741 Q63.9263 843.644 63.25 843.483 Q62.5737 843.322 62.1872 843.258 L46.9538 839.425 Q44.1841 838.717 43.3146 838.556 Q42.4128 838.363 41.4144 838.363 Q38.3871 838.363 38.3871 840.424 Q38.3871 842.098 40.3838 843.193 Q42.3806 844.288 46.2453 845.222 Q47.3081 845.512 47.5335 845.705 Q47.759 845.866 47.759 846.35 Q47.7268 847.155 47.0826 847.155 Q46.9216 847.155 45.891 846.897 Q44.8604 846.639 43.3146 846.156 Q41.7365 845.641 40.7059 845.094 Q40.0296 844.771 39.5787 844.482 Q39.1278 844.192 38.4193 843.612 Q37.7107 843.032 37.3243 842.163 Q36.9378 841.293 36.9378 840.23 Q36.9378 837.879 38.4515 836.14 Q39.9651 834.369 42.6704 834.144 Q36.9378 829.86 36.9378 823.87 Q36.9378 820.488 38.6447 818.459 Q40.2872 816.559 43.3146 816.334 Q36.9378 811.889 36.9378 805.577 Q36.9378 801.938 38.8379 799.973 Q40.7059 798.009 43.9909 798.009 Q45.6978 798.009 48.9506 798.878 Q52.1712 799.748 53.7815 800.327 Q55.3917 800.907 58.4835 802.034 Q61.4465 803.226 63.1856 803.226 Q64.3128 803.226 64.8281 802.839 Q65.3434 802.453 65.3434 801.616 Q65.3434 800.327 64.6026 799.2 Q63.8297 798.073 62.5737 797.268 Q61.2854 796.431 59.9972 795.883 Q58.6767 795.336 57.1953 794.917 Q56.3901 794.659 56.1969 794.53 Q56.0037 794.369 56.0037 793.918 Q56.0037 793.113 56.6478 793.113 Z" fill="#000000" fill-rule="nonzero" fill-opacity="1" /><path clip-path="url(#clip360)" d="M81.0598 790.065 L81.0598 784.526 L18.1296 784.526 L18.1296 790.065 L16.6159 790.065 L16.6159 780.114 L82.5735 780.114 L82.5735 790.065 L81.0598 790.065 Z" fill="#000000" fill-rule="nonzero" fill-opacity="1" /><polyline clip-path="url(#clip362)" style="stroke:#4a7945; stroke-linecap:round; stroke-linejoin:round; stroke-width:8; stroke-opacity:1; fill:none" points="234.391,1223.66 237.263,1224.35 240.136,1225.13 243.008,1226.1 245.881,1227.35 248.753,1228.94 251.625,1230.92 254.498,1233.34 257.37,1236.2 260.243,1239.5 263.115,1243.21 265.988,1247.28 268.86,1251.65 271.732,1256.22 274.605,1260.9 277.477,1265.58 280.35,1270.16 283.222,1274.5 286.095,1278.49 288.967,1282.02 291.84,1284.99 294.712,1287.31 297.584,1288.91 300.457,1289.72 303.329,1289.7 306.202,1288.86 309.074,1287.18 311.947,1284.69 314.819,1281.44 317.691,1277.49 320.564,1272.92 323.436,1267.8 326.309,1262.24 329.181,1256.33 332.054,1250.17 334.926,1243.87 337.799,1237.52 340.671,1231.21 343.543,1225.03 346.416,1219.05 349.288,1213.35 352.161,1207.98 355.033,1203 357.906,1198.45 360.778,1194.37 363.65,1190.78 366.523,1187.71 369.395,1185.17 372.268,1183.16 375.14,1181.69 378.013,1180.75 380.885,1180.32 383.758,1180.41 386.63,1180.98 389.502,1182.02 392.375,1183.49 395.247,1185.37 398.12,1187.62 400.992,1190.21 403.865,1193.11 406.737,1196.28 409.609,1199.67 412.482,1203.24 415.354,1206.96 418.227,1210.77 421.099,1214.64 423.972,1218.52 426.844,1222.38 429.717,1226.18 432.589,1229.88 435.461,1233.47 438.334,1236.91 441.206,1240.21 444.079,1243.35 446.951,1246.33 449.824,1249.16 452.696,1251.87 455.568,1254.46 458.441,1256.96 461.313,1259.41 464.186,1261.83 467.058,1264.25 469.931,1266.7 472.803,1269.21 475.676,1271.81 478.548,1274.52 481.42,1277.35 484.293,1280.33 487.165,1283.45 490.038,1286.72 492.91,1290.12 495.783,1293.64 498.655,1297.26 501.527,1300.93 504.4,1304.59 507.272,1308.19 510.145,1311.64 513.017,1314.85 515.89,1317.72 518.762,1320.15 521.635,1322 524.507,1323.17 527.379,1323.54 530.252,1323 533.124,1321.45 535.997,1318.81 538.869,1315.02 541.742,1310.03 544.614,1303.82 547.486,1296.41 550.359,1287.8 553.231,1278.05 556.104,1267.22 558.976,1255.38 561.849,1242.64 564.721,1229.08 567.594,1214.81 570.466,1199.92 573.338,1184.5 576.211,1168.66 579.083,1152.46 581.956,1136 584.828,1119.32 587.701,1102.49 590.573,1085.56 593.445,1068.56 596.318,1051.54 599.19,1034.51 602.063,1017.52 604.935,1000.58 607.808,983.71 610.68,966.939 613.553,950.289 616.425,933.783 619.297,917.448 622.17,901.312 625.042,885.404 627.915,869.756 630.787,854.4 633.66,839.369 636.532,824.696 639.404,810.414 642.277,796.557 645.149,783.154 648.022,770.237 650.894,757.834 653.767,745.974 656.639,734.683 659.512,723.988 662.384,713.912 665.256,704.478 668.129,695.708 671.001,687.619 673.874,680.228 676.746,673.545 679.619,667.58 682.491,662.332 685.363,657.8 688.236,653.974 691.108,650.838 693.981,648.374 696.853,646.554 699.726,645.35 702.598,644.728 705.47,644.655 708.343,645.092 711.215,646.004 714.088,647.354 716.96,649.108 719.833,651.232 722.705,653.696 725.578,656.471 728.45,659.53 731.322,662.849 734.195,666.406 737.067,670.182 739.94,674.158 742.812,678.316 745.685,682.643 748.557,687.123 751.429,691.741 754.302,696.484 757.174,701.339 760.047,706.29 762.919,711.324 765.792,716.424 768.664,721.575 771.537,726.761 774.409,731.967 777.281,737.176 780.154,742.375 783.026,747.554 785.899,752.703 788.771,757.82 791.644,762.904 794.516,767.965 797.388,773.014 800.261,778.07 803.133,783.162 806.006,788.32 808.878,793.582 811.751,798.992 814.623,804.596 817.496,810.443 820.368,816.582 823.24,823.063 826.113,829.933 828.985,837.238 831.858,845.017 834.73,853.304 837.603,862.126 840.475,871.503 843.347,881.445 846.22,891.956 849.092,903.029 851.965,914.649 854.837,926.793 857.71,939.43 860.582,952.522 863.455,966.021 866.327,979.878 869.199,994.034 872.072,1008.43 874.944,1022.99 877.817,1037.65 880.689,1052.34 883.562,1066.98 886.434,1081.48 889.306,1095.76 892.179,1109.74 895.051,1123.33 897.924,1136.44 900.796,1148.97 903.669,1160.85 906.541,1171.98 909.414,1182.28 912.286,1191.66 915.158,1200.07 918.031,1207.43 920.903,1213.68 923.776,1218.78 926.648,1222.7 929.521,1225.42 932.393,1226.91 935.265,1227.19 938.138,1226.25 941.01,1224.13 943.883,1220.83 946.755,1216.4 949.628,1210.86 952.5,1204.25 955.373,1196.59 958.245,1187.92 961.117,1178.25 963.99,1167.6 966.862,1155.99 969.735,1143.42 972.607,1129.88 975.48,1115.39 978.352,1099.93 981.224,1083.51 984.097,1066.12 986.969,1047.79 989.842,1028.5 992.714,1008.3 995.587,987.218 998.459,965.291 1001.33,942.577 1004.2,919.144 1007.08,895.068 1009.95,870.436 1012.82,845.344 1015.69,819.894 1018.57,794.192 1021.44,768.348 1024.31,742.471 1027.18,716.672 1030.06,691.057 1032.93,665.729 1035.8,640.785 1038.67,616.316 1041.55,592.404 1044.42,569.121 1047.29,546.529 1050.16,524.68 1053.04,503.61 1055.91,483.344 1058.78,463.896 1061.65,445.263 1064.53,427.436 1067.4,410.395 1070.27,394.116 1073.14,378.575 1076.01,363.751 1078.89,349.633 1081.76,336.223 1084.63,323.539 1087.5,311.617 1090.38,300.513 1093.25,290.299 1096.12,281.062 1098.99,272.893 1101.87,265.888 1104.74,260.134 1107.61,255.708 1110.48,252.664 1113.36,251.033 1116.23,250.818 1119.1,251.991 1121.97,254.499 1124.85,258.265 1127.72,263.19 1130.59,269.163 1133.46,276.065 1136.34,283.774 1139.21,292.173 1142.08,301.15 1144.95,310.604 1147.83,320.442 1150.7,330.585 1153.57,340.96 1156.44,351.505 1159.32,362.164 1162.19,372.886 1165.06,383.623 1167.93,394.335 1170.81,404.983 1173.68,415.534 1176.55,425.963 1179.42,436.25 1182.3,446.385 1185.17,456.367 1188.04,466.203 1190.91,475.913 1193.78,485.52 1196.66,495.057 1199.53,504.563 1202.4,514.077 1205.27,523.642 1208.15,533.296 1211.02,543.077 1213.89,553.015 1216.76,563.136 1219.64,573.456 1222.51,583.983 1225.38,594.719 1228.25,605.656 1231.13,616.779 1234,628.067 1236.87,639.494 1239.74,651.031 1242.62,662.646 1245.49,674.305 1248.36,685.977 1251.23,697.631 1254.11,709.237 1256.98,720.772 1259.85,732.213 1262.72,743.543 1265.6,754.75 1268.47,765.826 1271.34,776.765 1274.21,787.568 1277.09,798.237 1279.96,808.776 1282.83,819.193 1285.7,829.496 1288.58,839.694 1291.45,849.794 1294.32,859.804 1297.19,869.73 1300.07,879.576 1302.94,889.344 1305.81,899.034 1308.68,908.647 1311.55,918.179 1314.43,927.629 1317.3,936.994 1320.17,946.271 1323.04,955.462 1325.92,964.567 1328.79,973.589 1331.66,982.535 1334.53,991.412 1337.41,1000.23 1340.28,1008.99 1343.15,1017.71 1346.02,1026.39 1348.9,1035.04 1351.77,1043.65 1354.64,1052.22 1357.51,1060.74 1360.39,1069.19 1363.26,1077.55 1366.13,1085.79 1369,1093.87 1371.88,1101.75 1374.75,1109.39 1377.62,1116.75 1380.49,1123.79 1383.37,1130.45 1386.24,1136.71 1389.11,1142.54 1391.98,1147.9 1394.86,1152.78 1397.73,1157.15 1400.6,1161.03 1403.47,1164.39 1406.35,1167.25 1409.22,1169.62 1412.09,1171.51 1414.96,1172.93 1417.83,1173.9 1420.71,1174.45 1423.58,1174.58 1426.45,1174.33 1429.32,1173.72 1432.2,1172.76 1435.07,1171.49 1437.94,1169.93 1440.81,1168.11 1443.69,1166.05 1446.56,1163.79 1449.43,1161.35 1452.3,1158.76 1455.18,1156.05 1458.05,1153.25 1460.92,1150.39 1463.79,1147.5 1466.67,1144.59 1469.54,1141.69 1472.41,1138.82 1475.28,1136.01 1478.16,1133.25 1481.03,1130.56 1483.9,1127.96 1486.77,1125.45 1489.65,1123.02 1492.52,1120.68 1495.39,1118.43 1498.26,1116.26 1501.14,1114.16 1504.01,1112.12 1506.88,1110.12 1509.75,1108.16 1512.63,1106.22 1515.5,1104.27 1518.37,1102.31 1521.24,1100.31 1524.12,1098.27 1526.99,1096.15 1529.86,1093.95 1532.73,1091.65 1535.6,1089.24 1538.48,1086.69 1541.35,1083.99 1544.22,1081.14 1547.09,1078.1 1549.97,1074.87 1552.84,1071.44 1555.71,1067.79 1558.58,1063.91 1561.46,1059.81 1564.33,1055.47 1567.2,1050.91 1570.07,1046.12 1572.95,1041.11 1575.82,1035.91 1578.69,1030.53 1581.56,1024.99 1584.44,1019.31 1587.31,1013.51 1590.18,1007.62 1593.05,1001.67 1595.93,995.657 1598.8,989.617 1601.67,983.562 1604.54,977.508 1607.42,971.469 1610.29,965.459 1613.16,959.491 1616.03,953.58 1618.91,947.74 1621.78,941.989 1624.65,936.343 1627.52,930.822 1630.4,925.447 1633.27,920.236 1636.14,915.21 1639.01,910.388 1641.89,905.786 1644.76,901.418 1647.63,897.296 1650.5,893.426 1653.37,889.813 1656.25,886.454 1659.12,883.345 1661.99,880.475 1664.86,877.83 1667.74,875.393 1670.61,873.141 1673.48,871.049 1676.35,869.089 1679.23,867.228 1682.1,865.434 1684.97,863.669 1687.84,861.896 1690.72,860.077 1693.59,858.171 1696.46,856.14 1699.33,853.944 1702.21,851.547 1705.08,848.911 1707.95,846.005 1710.82,842.795 1713.7,839.257 1716.57,835.365 1719.44,831.102 1722.31,826.45 1725.19,821.401 1728.06,815.948 1730.93,810.09 1733.8,803.83 1736.68,797.177 1739.55,790.143 1742.42,782.745 1745.29,775.004 1748.17,766.945 1751.04,758.597 1753.91,749.991 1756.78,741.163 1759.66,732.152 1762.53,722.998 1765.4,713.743 1768.27,704.431 1771.14,695.107 1774.02,685.815 1776.89,676.598 1779.76,667.498 1782.63,658.554 1785.51,649.801 1788.38,641.272 1791.25,632.994 1794.12,624.991 1797,617.282 1799.87,609.88 1802.74,602.797 1805.61,596.04 1808.49,589.616 1811.36,583.529 1814.23,577.784 1817.1,572.384 1819.98,567.336 1822.85,562.646 1825.72,558.321 1828.59,554.371 1831.47,550.803 1834.34,547.627 1837.21,544.847 1840.08,542.469 1842.96,540.491 1845.83,538.908 1848.7,537.711 1851.57,536.885 1854.45,536.407 1857.32,536.253 1860.19,536.394 1863.06,536.795 1865.94,537.423 1868.81,538.243 1871.68,539.221 1874.55,540.326 1877.42,541.528 1880.3,542.803 1883.17,544.13 1886.04,545.493 1888.91,546.881 1891.79,548.285 1894.66,549.7 1897.53,551.126 1900.4,552.562 1903.28,554.009 1906.15,555.468 1909.02,556.942 1911.89,558.43 1914.77,559.933 1917.64,561.449 1920.51,562.975 1923.38,564.508 1926.26,566.043 1929.13,567.575 1932,569.099 1934.87,570.609 1937.75,572.102 1940.62,573.575 1943.49,575.026 1946.36,576.456 1949.24,577.869 1952.11,579.268 1954.98,580.66 1957.85,582.054 1960.73,583.46 1963.6,584.887 1966.47,586.346 1969.34,587.847 1972.22,589.397 1975.09,591.004 1977.96,592.672 1980.83,594.404 1983.71,596.2 1986.58,598.058 1989.45,599.975 1992.32,601.945 1995.19,603.964 1998.07,606.026 2000.94,608.125 2003.81,610.257 2006.68,612.417 2009.56,614.603 2012.43,616.814 2015.3,619.047 2018.17,621.301 2021.05,623.576 2023.92,625.869 2026.79,628.179 2029.66,630.502 2032.54,632.836 2035.41,635.175 2038.28,637.516 2041.15,639.856 2044.03,642.193 2046.9,644.529 2049.77,646.867 2052.64,649.212 2055.52,651.577 2058.39,653.975 2061.26,656.423 2064.13,658.942 2067.01,661.556 2069.88,664.289 2072.75,667.168 2075.62,670.218 2078.5,673.465 2081.37,676.934 2084.24,680.648 2087.11,684.628 2089.99,688.893 2092.86,693.462 2095.73,698.351 2098.6,703.575 2101.48,709.148 2104.35,715.083 2107.22,721.394 2110.09,728.093 2112.96,735.193 2115.84,742.705 2118.71,750.64 2121.58,759.006 2124.45,767.812 2127.33,777.061 2130.2,786.756 2133.07,796.896 2135.94,807.476 2138.82,818.488 2141.69,829.92 2144.56,841.757 2147.43,853.982 2150.31,866.574 2153.18,879.511 2156.05,892.77 2158.92,906.325 2161.8,920.153 2164.67,934.225 2167.54,948.515 2170.41,962.993 2173.29,977.629 2176.16,992.39 2179.03,1007.24 2181.9,1022.14 2184.78,1037.05 2187.65,1051.92 2190.52,1066.71 2193.39,1081.36 2196.27,1095.82 2199.14,1110.04 2202.01,1123.95 2204.88,1137.5 2207.76,1150.65 2210.63,1163.32 2213.5,1175.48 2216.37,1187.06 2219.25,1198.02 2222.12,1208.3 2224.99,1217.88 2227.86,1226.69 2230.73,1234.71 2233.61,1241.91 2236.48,1248.24 2239.35,1253.71 2242.22,1258.29 2245.1,1261.98 2247.97,1264.8 2250.84,1266.75 2253.71,1267.88 2256.59,1268.22 2259.46,1267.83 2262.33,1266.76 2265.2,1265.07 2268.08,1262.84 2270.95,1260.13 2273.82,1257.02 2276.69,1253.57 2279.57,1249.84 2282.44,1245.91 2285.31,1241.82 2288.18,1237.63 2291.06,1233.39 "/>
<polyline clip-path="url(#clip362)" style="stroke:#dfba53; stroke-linecap:round; stroke-linejoin:round; stroke-width:8; stroke-opacity:1; fill:none" points="234.391,1370.23 237.263,1368.4 240.136,1366.44 243.008,1364.33 245.881,1362.07 248.753,1359.65 251.625,1357.08 254.498,1354.35 257.37,1351.44 260.243,1348.37 263.115,1345.12 265.988,1341.71 268.86,1338.12 271.732,1334.35 274.605,1330.42 277.477,1326.31 280.35,1322.04 283.222,1317.62 286.095,1313.04 288.967,1308.31 291.84,1303.45 294.712,1298.46 297.584,1293.36 300.457,1288.15 303.329,1282.86 306.202,1277.49 309.074,1272.07 311.947,1266.62 314.819,1261.14 317.691,1255.66 320.564,1250.21 323.436,1244.8 326.309,1239.45 329.181,1234.19 332.054,1229.04 334.926,1224.02 337.799,1219.15 340.671,1214.46 343.543,1209.97 346.416,1205.7 349.288,1201.67 352.161,1197.89 355.033,1194.4 357.906,1191.19 360.778,1188.3 363.65,1185.73 366.523,1183.49 369.395,1181.6 372.268,1180.06 375.14,1178.88 378.013,1178.07 380.885,1177.61 383.758,1177.52 386.63,1177.79 389.502,1178.42 392.375,1179.39 395.247,1180.69 398.12,1182.32 400.992,1184.26 403.865,1186.5 406.737,1189.01 409.609,1191.78 412.482,1194.78 415.354,1198 418.227,1201.4 421.099,1204.97 423.972,1208.67 426.844,1212.48 429.717,1216.38 432.589,1220.32 435.461,1224.3 438.334,1228.27 441.206,1232.21 444.079,1236.09 446.951,1239.88 449.824,1243.57 452.696,1247.11 455.568,1250.49 458.441,1253.67 461.313,1256.65 464.186,1259.38 467.058,1261.86 469.931,1264.06 472.803,1265.97 475.676,1267.56 478.548,1268.82 481.42,1269.73 484.293,1270.28 487.165,1270.46 490.038,1270.25 492.91,1269.65 495.783,1268.64 498.655,1267.22 501.527,1265.39 504.4,1263.13 507.272,1260.45 510.145,1257.33 513.017,1253.78 515.89,1249.8 518.762,1245.39 521.635,1240.54 524.507,1235.26 527.379,1229.55 530.252,1223.41 533.124,1216.85 535.997,1209.88 538.869,1202.49 541.742,1194.7 544.614,1186.51 547.486,1177.94 550.359,1168.98 553.231,1159.65 556.104,1149.96 558.976,1139.93 561.849,1129.56 564.721,1118.87 567.594,1107.86 570.466,1096.56 573.338,1084.99 576.211,1073.15 579.083,1061.06 581.956,1048.75 584.828,1036.23 587.701,1023.53 590.573,1010.65 593.445,997.627 596.318,984.481 599.19,971.233 602.063,957.908 604.935,944.529 607.808,931.123 610.68,917.714 613.553,904.329 616.425,890.994 619.297,877.736 622.17,864.583 625.042,851.563 627.915,838.703 630.787,826.031 633.66,813.576 636.532,801.365 639.404,789.426 642.277,777.787 645.149,766.475 648.022,755.516 650.894,744.937 653.767,734.764 656.639,725.02 659.512,715.731 662.384,706.919 665.256,698.607 668.129,690.814 671.001,683.562 673.874,676.867 676.746,670.748 679.619,665.22 682.491,660.296 685.363,655.99 688.236,652.311 691.108,649.27 693.981,646.873 696.853,645.127 699.726,644.034 702.598,643.598 705.47,643.817 708.343,644.691 711.215,646.216 714.088,648.386 716.96,651.195 719.833,654.633 722.705,658.689 725.578,663.351 728.45,668.605 731.322,674.435 734.195,680.823 737.067,687.751 739.94,695.199 742.812,703.144 745.685,711.564 748.557,720.434 751.429,729.73 754.302,739.425 757.174,749.491 760.047,759.901 762.919,770.627 765.792,781.637 768.664,792.904 771.537,804.395 774.409,816.081 777.281,827.931 780.154,839.913 783.026,851.996 785.899,864.15 788.771,876.343 791.644,888.544 794.516,900.723 797.388,912.85 800.261,924.895 803.133,936.829 806.006,948.623 808.878,960.25 811.751,971.682 814.623,982.892 817.496,993.856 820.368,1004.55 823.24,1014.94 826.113,1025.02 828.985,1034.75 831.858,1044.13 834.73,1053.12 837.603,1061.7 840.475,1069.87 843.347,1077.6 846.22,1084.87 849.092,1091.68 851.965,1098 854.837,1103.82 857.71,1109.14 860.582,1113.93 863.455,1118.19 866.327,1121.91 869.199,1125.08 872.072,1127.69 874.944,1129.74 877.817,1131.21 880.689,1132.12 883.562,1132.44 886.434,1132.18 889.306,1131.34 892.179,1129.91 895.051,1127.89 897.924,1125.28 900.796,1122.09 903.669,1118.31 906.541,1113.94 909.414,1109 912.286,1103.48 915.158,1097.39 918.031,1090.73 920.903,1083.5 923.776,1075.73 926.648,1067.41 929.521,1058.54 932.393,1049.15 935.265,1039.24 938.138,1028.82 941.01,1017.9 943.883,1006.49 946.755,994.605 949.628,982.261 952.5,969.471 955.373,956.25 958.245,942.613 961.117,928.576 963.99,914.158 966.862,899.376 969.735,884.249 972.607,868.797 975.48,853.04 978.352,837 981.224,820.697 984.097,804.156 986.969,787.398 989.842,770.449 992.714,753.332 995.587,736.073 998.459,718.697 1001.33,701.232 1004.2,683.704 1007.08,666.14 1009.95,648.568 1012.82,631.016 1015.69,613.513 1018.57,596.088 1021.44,578.769 1024.31,561.587 1027.18,544.569 1030.06,527.746 1032.93,511.147 1035.8,494.801 1038.67,478.737 1041.55,462.984 1044.42,447.571 1047.29,432.526 1050.16,417.876 1053.04,403.649 1055.91,389.871 1058.78,376.569 1061.65,363.767 1064.53,351.491 1067.4,339.763 1070.27,328.606 1073.14,318.043 1076.01,308.092 1078.89,298.774 1081.76,290.108 1084.63,282.109 1087.5,274.793 1090.38,268.176 1093.25,262.269 1096.12,257.084 1098.99,252.631 1101.87,248.919 1104.74,245.954 1107.61,243.742 1110.48,242.287 1113.36,241.591 1116.23,241.655 1119.1,242.478 1121.97,244.056 1124.85,246.387 1127.72,249.465 1130.59,253.282 1133.46,257.829 1136.34,263.097 1139.21,269.074 1142.08,275.747 1144.95,283.101 1147.83,291.121 1150.7,299.789 1153.57,309.088 1156.44,318.999 1159.32,329.499 1162.19,340.569 1165.06,352.186 1167.93,364.325 1170.81,376.964 1173.68,390.077 1176.55,403.639 1179.42,417.623 1182.3,432.003 1185.17,446.752 1188.04,461.842 1190.91,477.245 1193.78,492.934 1196.66,508.88 1199.53,525.056 1202.4,541.433 1205.27,557.983 1208.15,574.678 1211.02,591.492 1213.89,608.396 1216.76,625.364 1219.64,642.37 1222.51,659.387 1225.38,676.39 1228.25,693.355 1231.13,710.257 1234,727.073 1236.87,743.781 1239.74,760.357 1242.62,776.783 1245.49,793.036 1248.36,809.099 1251.23,824.952 1254.11,840.578 1256.98,855.96 1259.85,871.084 1262.72,885.934 1265.6,900.496 1268.47,914.758 1271.34,928.709 1274.21,942.337 1277.09,955.633 1279.96,968.587 1282.83,981.192 1285.7,993.441 1288.58,1005.33 1291.45,1016.85 1294.32,1027.99 1297.19,1038.76 1300.07,1049.16 1302.94,1059.17 1305.81,1068.8 1308.68,1078.05 1311.55,1086.92 1314.43,1095.41 1317.3,1103.51 1320.17,1111.24 1323.04,1118.6 1325.92,1125.58 1328.79,1132.19 1331.66,1138.44 1334.53,1144.33 1337.41,1149.87 1340.28,1155.05 1343.15,1159.9 1346.02,1164.4 1348.9,1168.57 1351.77,1172.42 1354.64,1175.95 1357.51,1179.16 1360.39,1182.07 1363.26,1184.68 1366.13,1187 1369,1189.03 1371.88,1190.79 1374.75,1192.27 1377.62,1193.5 1380.49,1194.46 1383.37,1195.18 1386.24,1195.66 1389.11,1195.9 1391.98,1195.92 1394.86,1195.71 1397.73,1195.29 1400.6,1194.67 1403.47,1193.84 1406.35,1192.82 1409.22,1191.61 1412.09,1190.22 1414.96,1188.65 1417.83,1186.92 1420.71,1185.01 1423.58,1182.95 1426.45,1180.74 1429.32,1178.38 1432.2,1175.87 1435.07,1173.23 1437.94,1170.46 1440.81,1167.55 1443.69,1164.52 1446.56,1161.37 1449.43,1158.1 1452.3,1154.72 1455.18,1151.24 1458.05,1147.64 1460.92,1143.95 1463.79,1140.16 1466.67,1136.27 1469.54,1132.3 1472.41,1128.23 1475.28,1124.08 1478.16,1119.84 1481.03,1115.53 1483.9,1111.14 1486.77,1106.67 1489.65,1102.13 1492.52,1097.52 1495.39,1092.84 1498.26,1088.1 1501.14,1083.29 1504.01,1078.42 1506.88,1073.49 1509.75,1068.5 1512.63,1063.46 1515.5,1058.36 1518.37,1053.21 1521.24,1048.01 1524.12,1042.76 1526.99,1037.46 1529.86,1032.12 1532.73,1026.73 1535.6,1021.31 1538.48,1015.84 1541.35,1010.33 1544.22,1004.78 1547.09,999.198 1549.97,993.58 1552.84,987.929 1555.71,982.247 1558.58,976.534 1561.46,970.793 1564.33,965.025 1567.2,959.231 1570.07,953.413 1572.95,947.573 1575.82,941.711 1578.69,935.83 1581.56,929.931 1584.44,924.015 1587.31,918.085 1590.18,912.142 1593.05,906.187 1595.93,900.221 1598.8,894.248 1601.67,888.267 1604.54,882.281 1607.42,876.292 1610.29,870.301 1613.16,864.31 1616.03,858.32 1618.91,852.333 1621.78,846.351 1624.65,840.376 1627.52,834.409 1630.4,828.452 1633.27,822.507 1636.14,816.575 1639.01,810.659 1641.89,804.76 1644.76,798.88 1647.63,793.021 1650.5,787.184 1653.37,781.372 1656.25,775.585 1659.12,769.827 1661.99,764.099 1664.86,758.402 1667.74,752.739 1670.61,747.112 1673.48,741.521 1676.35,735.97 1679.23,730.459 1682.1,724.991 1684.97,719.568 1687.84,714.191 1690.72,708.862 1693.59,703.584 1696.46,698.357 1699.33,693.184 1702.21,688.066 1705.08,683.006 1707.95,678.004 1710.82,673.064 1713.7,668.186 1716.57,663.372 1719.44,658.625 1722.31,653.945 1725.19,649.335 1728.06,644.796 1730.93,640.329 1733.8,635.937 1736.68,631.621 1739.55,627.383 1742.42,623.224 1745.29,619.146 1748.17,615.151 1751.04,611.239 1753.91,607.412 1756.78,603.672 1759.66,600.02 1762.53,596.458 1765.4,592.987 1768.27,589.609 1771.14,586.323 1774.02,583.133 1776.89,580.039 1779.76,577.042 1782.63,574.143 1785.51,571.344 1788.38,568.646 1791.25,566.05 1794.12,563.556 1797,561.166 1799.87,558.881 1802.74,556.702 1805.61,554.629 1808.49,552.663 1811.36,550.805 1814.23,549.056 1817.1,547.417 1819.98,545.888 1822.85,544.47 1825.72,543.163 1828.59,541.968 1831.47,540.885 1834.34,539.915 1837.21,539.058 1840.08,538.315 1842.96,537.686 1845.83,537.17 1848.7,536.769 1851.57,536.483 1854.45,536.311 1857.32,536.253 1860.19,536.311 1863.06,536.483 1865.94,536.769 1868.81,537.17 1871.68,537.686 1874.55,538.315 1877.42,539.058 1880.3,539.915 1883.17,540.885 1886.04,541.968 1888.91,543.163 1891.79,544.47 1894.66,545.888 1897.53,547.417 1900.4,549.056 1903.28,550.805 1906.15,552.663 1909.02,554.629 1911.89,556.702 1914.77,558.881 1917.64,561.166 1920.51,563.556 1923.38,566.05 1926.26,568.646 1929.13,571.344 1932,574.143 1934.87,577.042 1937.75,580.039 1940.62,583.133 1943.49,586.323 1946.36,589.609 1949.24,592.987 1952.11,596.458 1954.98,600.021 1957.85,603.672 1960.73,607.412 1963.6,611.239 1966.47,615.151 1969.34,619.146 1972.22,623.225 1975.09,627.383 1977.96,631.622 1980.83,635.937 1983.71,640.329 1986.58,644.796 1989.45,649.335 1992.32,653.945 1995.19,658.625 1998.07,663.373 2000.94,668.186 2003.81,673.064 2006.68,678.005 2009.56,683.006 2012.43,688.067 2015.3,693.185 2018.17,698.358 2021.05,703.585 2023.92,708.863 2026.79,714.192 2029.66,719.569 2032.54,724.993 2035.41,730.461 2038.28,735.972 2041.15,741.524 2044.03,747.115 2046.9,752.743 2049.77,758.407 2052.64,764.104 2055.52,769.833 2058.39,775.592 2061.26,781.379 2064.13,787.192 2067.01,793.03 2069.88,798.891 2072.75,804.772 2075.62,810.672 2078.5,816.59 2081.37,822.524 2084.24,828.471 2087.11,834.431 2089.99,840.4 2092.86,846.379 2095.73,852.364 2098.6,858.355 2101.48,864.349 2104.35,870.346 2107.22,876.343 2110.09,882.338 2112.96,888.331 2115.84,894.319 2118.71,900.301 2121.58,906.276 2124.45,912.242 2127.33,918.197 2130.2,924.141 2133.07,930.071 2135.94,935.986 2138.82,941.885 2141.69,947.767 2144.56,953.629 2147.43,959.472 2150.31,965.293 2153.18,971.091 2156.05,976.866 2158.92,982.615 2161.8,988.337 2164.67,994.033 2167.54,999.699 2170.41,1005.34 2173.29,1010.94 2176.16,1016.52 2179.03,1022.06 2181.9,1027.56 2184.78,1033.04 2187.65,1038.47 2190.52,1043.87 2193.39,1049.24 2196.27,1054.56 2199.14,1059.84 2202.01,1065.09 2204.88,1070.29 2207.76,1075.45 2210.63,1080.57 2213.5,1085.65 2216.37,1090.69 2219.25,1095.68 2222.12,1100.62 2224.99,1105.52 2227.86,1110.37 2230.73,1115.18 2233.61,1119.94 2236.48,1124.65 2239.35,1129.32 2242.22,1133.94 2245.1,1138.5 2247.97,1143.02 2250.84,1147.49 2253.71,1151.92 2256.59,1156.29 2259.46,1160.61 2262.33,1164.88 2265.2,1169.1 2268.08,1173.27 2270.95,1177.39 2273.82,1181.46 2276.69,1185.48 2279.57,1189.44 2282.44,1193.36 2285.31,1197.22 2288.18,1201.04 2291.06,1204.8 "/>
<polyline clip-path="url(#clip362)" style="stroke:#ba3d3a; stroke-linecap:round; stroke-linejoin:round; stroke-width:4; stroke-opacity:1; fill:none" stroke-dasharray="16, 10" points="234.391,1388.76 237.263,1388.76 240.136,1388.76 243.008,1388.76 245.881,1388.76 248.753,1388.76 251.625,1388.76 254.498,1388.76 257.37,1388.76 260.243,1388.76 263.115,1388.76 265.988,1388.76 268.86,1388.76 271.732,1388.76 274.605,1388.76 277.477,1388.76 280.35,1388.76 283.222,1388.76 286.095,1388.76 288.967,1388.76 291.84,1388.76 294.712,1388.76 297.584,1388.76 300.457,1388.76 303.329,1388.76 306.202,1388.76 309.074,1388.76 311.947,1388.76 314.819,1388.76 317.691,1388.76 320.564,1388.76 323.436,1388.76 326.309,1388.76 329.181,1388.76 332.054,1388.76 334.926,1388.76 337.799,1388.76 340.671,1388.76 343.543,1388.76 346.416,1388.76 349.288,1388.76 352.161,1388.76 355.033,1388.76 357.906,1388.76 360.778,1388.76 363.65,1388.76 366.523,1388.76 369.395,1388.76 372.268,1388.76 375.14,1388.76 378.013,1388.76 380.885,1388.76 383.758,1388.76 386.63,1388.76 389.502,1388.76 392.375,1388.76 395.247,1388.76 398.12,1388.76 400.992,1388.76 403.865,1388.76 406.737,1388.76 409.609,1388.76 412.482,1388.76 415.354,1388.76 418.227,1388.76 421.099,1388.76 423.972,1388.76 426.844,1388.76 429.717,1388.76 432.589,1388.76 435.461,1388.76 438.334,1388.76 441.206,1388.76 444.079,1388.76 446.951,1388.76 449.824,1388.76 452.696,1388.76 455.568,1388.76 458.441,1388.76 461.313,1388.76 464.186,1388.76 467.058,1388.76 469.931,1388.76 472.803,1388.76 475.676,1388.76 478.548,1388.76 481.42,1388.76 484.293,1388.76 487.165,1388.76 490.038,1388.76 492.91,1388.76 495.783,1388.76 498.655,1388.76 501.527,1388.76 504.4,1388.76 507.272,1388.76 510.145,1388.76 513.017,1388.76 515.89,1388.76 518.762,1388.76 521.635,1388.76 524.507,1388.76 527.379,1388.76 530.252,1388.76 533.124,1388.76 535.997,1388.76 538.869,1388.76 541.742,1388.76 544.614,1388.76 547.486,1388.76 550.359,1388.76 553.231,1388.76 556.104,1388.76 558.976,1388.76 561.849,1388.76 564.721,1388.76 567.594,1388.76 570.466,1388.76 573.338,1388.76 576.211,1388.76 579.083,1388.76 581.956,1388.76 584.828,1388.76 587.701,1388.76 590.573,1388.76 593.445,1388.76 596.318,1388.76 599.19,1388.76 602.063,1388.76 604.935,1388.76 607.808,1388.76 610.68,1388.76 613.553,1388.76 616.425,1388.76 619.297,1388.76 622.17,1388.76 625.042,1388.76 627.915,1388.76 630.787,1388.76 633.66,1388.76 636.532,1388.76 639.404,1388.76 642.277,1388.76 645.149,1388.76 648.022,1388.76 650.894,1388.76 653.767,1388.76 656.639,1388.76 659.512,1388.76 662.384,1388.76 665.256,1388.76 668.129,1388.76 671.001,1388.76 673.874,1388.76 676.746,1388.76 679.619,1388.76 682.491,1388.76 685.363,1388.76 688.236,1388.76 691.108,1388.76 693.981,1388.76 696.853,1388.76 699.726,1388.76 702.598,1388.76 705.47,1388.76 708.343,1388.76 711.215,1388.76 714.088,1388.76 716.96,1388.76 719.833,1388.76 722.705,1388.76 725.578,1388.76 728.45,1388.76 731.322,1388.76 734.195,1388.76 737.067,1388.76 739.94,1388.76 742.812,1388.76 745.685,1388.76 748.557,1388.76 751.429,1388.76 754.302,1388.76 757.174,1388.76 760.047,1388.76 762.919,1388.76 765.792,1388.76 768.664,1388.76 771.537,1388.76 774.409,1388.76 777.281,1388.76 780.154,1388.76 783.026,1388.76 785.899,1388.76 788.771,1388.76 791.644,1388.76 794.516,1388.76 797.388,1388.76 800.261,1388.76 803.133,1388.76 806.006,1388.76 808.878,1388.76 811.751,1388.76 814.623,1388.76 817.496,1388.76 820.368,1388.76 823.24,1388.76 826.113,1388.76 828.985,1388.76 831.858,1388.76 834.73,1388.76 837.603,1388.76 840.475,1388.76 843.347,1388.76 846.22,1388.76 849.092,1388.76 851.965,1388.76 854.837,1388.76 857.71,1388.76 860.582,1388.76 863.455,1388.76 866.327,1388.76 869.199,1388.76 872.072,1388.76 874.944,1388.76 877.817,1388.76 880.689,1388.76 883.562,1388.76 886.434,1388.76 889.306,1388.76 892.179,1388.76 895.051,1388.76 897.924,1388.76 900.796,1388.76 903.669,1388.76 906.541,1388.76 909.414,1388.76 912.286,1388.76 915.158,1388.76 918.031,1388.76 920.903,1388.76 923.776,1388.76 926.648,1388.76 929.521,1388.76 932.393,1388.76 935.265,1388.76 938.138,1388.76 941.01,1388.76 943.883,1388.76 946.755,1388.76 949.628,1388.76 952.5,1388.76 955.373,1388.76 958.245,1388.76 961.117,1388.76 963.99,1388.76 966.862,1388.76 969.735,1388.76 972.607,1388.76 975.48,1388.76 978.352,1388.76 981.224,1388.76 984.097,1388.76 986.969,1388.76 989.842,1388.76 992.714,1388.76 995.587,1388.76 998.459,1388.76 1001.33,1388.76 1004.2,1388.76 1007.08,1388.76 1009.95,1388.76 1012.82,1388.76 1015.69,1388.76 1018.57,1388.76 1021.44,1388.76 1024.31,1388.76 1027.18,1388.76 1030.06,1388.76 1032.93,1388.76 1035.8,1388.76 1038.67,1388.76 1041.55,1388.76 1044.42,1388.76 1047.29,1388.76 1050.16,1388.76 1053.04,1388.76 1055.91,1388.76 1058.78,1388.76 1061.65,1388.76 1064.53,1388.76 1067.4,1388.76 1070.27,1388.76 1073.14,1388.76 1076.01,1388.76 1078.89,1388.76 1081.76,1388.76 1084.63,1388.76 1087.5,1388.76 1090.38,1388.76 1093.25,1388.76 1096.12,1388.76 1098.99,1388.76 1101.87,1388.76 1104.74,1388.76 1107.61,1388.76 1110.48,1388.76 1113.36,1388.76 1116.23,1388.76 1119.1,1388.76 1121.97,1388.76 1124.85,1388.76 1127.72,1388.76 1130.59,1388.76 1133.46,1388.76 1136.34,1388.76 1139.21,1388.76 1142.08,1388.76 1144.95,1388.76 1147.83,1388.76 1150.7,1388.76 1153.57,1388.76 1156.44,1388.76 1159.32,1388.76 1162.19,1388.76 1165.06,1388.76 1167.93,1388.76 1170.81,1388.76 1173.68,1388.76 1176.55,1388.76 1179.42,1388.76 1182.3,1388.76 1185.17,1388.76 1188.04,1388.76 1190.91,1388.76 1193.78,1388.76 1196.66,1388.76 1199.53,1388.76 1202.4,1388.76 1205.27,1388.76 1208.15,1388.76 1211.02,1388.76 1213.89,1388.76 1216.76,1388.76 1219.64,1388.76 1222.51,1388.76 1225.38,1388.76 1228.25,1388.76 1231.13,1388.76 1234,1388.76 1236.87,1388.76 1239.74,1388.76 1242.62,1388.76 1245.49,1388.76 1248.36,1388.76 1251.23,1388.76 1254.11,1388.76 1256.98,1388.76 1259.85,1388.76 1262.72,1388.76 1265.6,1388.76 1268.47,1388.76 1271.34,1388.76 1274.21,1388.76 1277.09,1388.76 1279.96,1388.76 1282.83,1388.76 1285.7,1388.76 1288.58,1388.76 1291.45,1388.76 1294.32,1388.76 1297.19,1388.76 1300.07,1388.76 1302.94,1388.76 1305.81,1388.76 1308.68,1388.76 1311.55,1388.76 1314.43,1388.76 1317.3,1388.76 1320.17,1388.76 1323.04,1388.76 1325.92,1388.76 1328.79,1388.76 1331.66,1388.76 1334.53,1388.76 1337.41,1388.76 1340.28,1388.76 1343.15,1388.76 1346.02,1388.76 1348.9,1388.76 1351.77,1388.76 1354.64,1388.76 1357.51,1388.76 1360.39,1388.76 1363.26,1388.76 1366.13,1388.76 1369,1388.76 1371.88,1388.76 1374.75,1388.76 1377.62,1388.76 1380.49,1388.76 1383.37,1388.76 1386.24,1388.76 1389.11,1388.76 1391.98,1388.76 1394.86,1388.76 1397.73,1388.76 1400.6,1388.76 1403.47,1388.76 1406.35,1388.76 1409.22,1388.76 1412.09,1388.76 1414.96,1388.76 1417.83,1388.76 1420.71,1388.76 1423.58,1388.76 1426.45,1388.76 1429.32,1388.76 1432.2,1388.76 1435.07,1388.76 1437.94,1388.76 1440.81,1388.76 1443.69,1388.76 1446.56,1388.76 1449.43,1388.76 1452.3,1388.76 1455.18,1388.76 1458.05,1388.76 1460.92,1388.76 1463.79,1388.76 1466.67,1388.76 1469.54,1388.76 1472.41,1388.76 1475.28,1388.76 1478.16,1388.76 1481.03,1388.76 1483.9,1388.76 1486.77,1388.76 1489.65,1388.76 1492.52,1388.76 1495.39,1388.76 1498.26,1388.76 1501.14,1388.76 1504.01,1388.76 1506.88,1388.76 1509.75,1388.76 1512.63,1388.76 1515.5,1388.76 1518.37,1388.76 1521.24,1388.76 1524.12,1388.76 1526.99,1388.76 1529.86,1388.76 1532.73,1388.76 1535.6,1388.76 1538.48,1388.76 1541.35,1388.76 1544.22,1388.76 1547.09,1388.76 1549.97,1388.76 1552.84,1388.76 1555.71,1388.76 1558.58,1388.76 1561.46,1388.76 1564.33,1388.76 1567.2,1388.76 1570.07,1388.76 1572.95,1388.76 1575.82,1388.76 1578.69,1388.76 1581.56,1388.76 1584.44,1388.76 1587.31,1388.76 1590.18,1388.76 1593.05,1388.76 1595.93,1388.76 1598.8,1388.76 1601.67,1388.76 1604.54,1388.76 1607.42,1388.76 1610.29,1388.76 1613.16,1388.76 1616.03,1388.76 1618.91,1388.76 1621.78,1388.76 1624.65,1388.76 1627.52,1388.76 1630.4,1388.76 1633.27,1388.76 1636.14,1388.76 1639.01,1388.76 1641.89,1388.76 1644.76,1388.76 1647.63,1388.76 1650.5,1388.76 1653.37,1388.76 1656.25,1388.76 1659.12,1388.76 1661.99,1388.76 1664.86,1388.76 1667.74,1388.76 1670.61,1388.76 1673.48,1388.76 1676.35,1388.76 1679.23,1388.76 1682.1,1388.76 1684.97,1388.76 1687.84,1388.76 1690.72,1388.76 1693.59,1388.76 1696.46,1388.76 1699.33,1388.76 1702.21,1388.76 1705.08,1388.76 1707.95,1388.76 1710.82,1388.76 1713.7,1388.76 1716.57,1388.76 1719.44,1388.76 1722.31,1388.76 1725.19,1388.76 1728.06,1388.76 1730.93,1388.76 1733.8,1388.76 1736.68,1388.76 1739.55,1388.76 1742.42,1388.76 1745.29,1388.76 1748.17,1388.76 1751.04,1388.76 1753.91,1388.76 1756.78,1388.76 1759.66,1388.76 1762.53,1388.76 1765.4,1388.76 1768.27,1388.76 1771.14,1388.76 1774.02,1388.76 1776.89,1388.76 1779.76,1388.76 1782.63,1388.76 1785.51,1388.76 1788.38,1388.76 1791.25,1388.76 1794.12,1388.76 1797,1388.76 1799.87,1388.76 1802.74,1388.76 1805.61,1388.76 1808.49,1388.76 1811.36,1388.76 1814.23,1388.76 1817.1,1388.76 1819.98,1388.76 1822.85,1388.76 1825.72,1388.76 1828.59,1388.76 1831.47,1388.76 1834.34,1388.76 1837.21,1388.76 1840.08,1388.76 1842.96,1388.76 1845.83,1388.76 1848.7,1388.76 1851.57,1388.76 1854.45,1388.76 1857.32,1388.76 1860.19,1388.76 1863.06,1388.76 1865.94,1388.76 1868.81,1388.76 1871.68,1388.76 1874.55,1388.76 1877.42,1388.76 1880.3,1388.76 1883.17,1388.76 1886.04,1388.76 1888.91,1388.76 1891.79,1388.76 1894.66,1388.76 1897.53,1388.76 1900.4,1388.76 1903.28,1388.76 1906.15,1388.76 1909.02,1388.76 1911.89,1388.76 1914.77,1388.76 1917.64,1388.76 1920.51,1388.76 1923.38,1388.76 1926.26,1388.76 1929.13,1388.76 1932,1388.76 1934.87,1388.76 1937.75,1388.76 1940.62,1388.76 1943.49,1388.76 1946.36,1388.76 1949.24,1388.76 1952.11,1388.76 1954.98,1388.76 1957.85,1388.76 1960.73,1388.76 1963.6,1388.76 1966.47,1388.76 1969.34,1388.76 1972.22,1388.76 1975.09,1388.76 1977.96,1388.76 1980.83,1388.76 1983.71,1388.76 1986.58,1388.76 1989.45,1388.76 1992.32,1388.76 1995.19,1388.76 1998.07,1388.76 2000.94,1388.76 2003.81,1388.76 2006.68,1388.76 2009.56,1388.76 2012.43,1388.76 2015.3,1388.76 2018.17,1388.76 2021.05,1388.76 2023.92,1388.76 2026.79,1388.76 2029.66,1388.76 2032.54,1388.76 2035.41,1388.76 2038.28,1388.76 2041.15,1388.76 2044.03,1388.76 2046.9,1388.76 2049.77,1388.76 2052.64,1388.76 2055.52,1388.76 2058.39,1388.76 2061.26,1388.76 2064.13,1388.76 2067.01,1388.76 2069.88,1388.76 2072.75,1388.76 2075.62,1388.76 2078.5,1388.76 2081.37,1388.76 2084.24,1388.76 2087.11,1388.76 2089.99,1388.76 2092.86,1388.76 2095.73,1388.76 2098.6,1388.76 2101.48,1388.76 2104.35,1388.76 2107.22,1388.76 2110.09,1388.76 2112.96,1388.76 2115.84,1388.76 2118.71,1388.76 2121.58,1388.76 2124.45,1388.76 2127.33,1388.76 2130.2,1388.76 2133.07,1388.76 2135.94,1388.76 2138.82,1388.76 2141.69,1388.76 2144.56,1388.76 2147.43,1388.76 2150.31,1388.76 2153.18,1388.76 2156.05,1388.76 2158.92,1388.76 2161.8,1388.76 2164.67,1388.76 2167.54,1388.76 2170.41,1388.76 2173.29,1388.76 2176.16,1388.76 2179.03,1388.76 2181.9,1388.76 2184.78,1388.76 2187.65,1388.76 2190.52,1388.76 2193.39,1388.76 2196.27,1388.76 2199.14,1388.76 2202.01,1388.76 2204.88,1388.76 2207.76,1388.76 2210.63,1388.76 2213.5,1388.76 2216.37,1388.76 2219.25,1388.76 2222.12,1388.76 2224.99,1388.76 2227.86,1388.76 2230.73,1388.76 2233.61,1388.76 2236.48,1388.76 2239.35,1388.76 2242.22,1388.76 2245.1,1388.76 2247.97,1388.76 2250.84,1388.76 2253.71,1388.76 2256.59,1388.76 2259.46,1388.76 2262.33,1388.76 2265.2,1388.76 2268.08,1388.76 2270.95,1388.76 2273.82,1388.76 2276.69,1388.76 2279.57,1388.76 2282.44,1388.76 2285.31,1388.76 2288.18,1388.76 2291.06,1388.76 "/>
<circle clip-path="url(#clip362)" cx="1113.36" cy="251.033" r="7.2" fill="#ff0000" fill-rule="evenodd" fill-opacity="1" stroke="#000000" stroke-opacity="1" stroke-width="3.2"/>
<circle clip-path="url(#clip362)" cx="1857.32" cy="536.253" r="7.2" fill="#ff0000" fill-rule="evenodd" fill-opacity="1" stroke="#000000" stroke-opacity="1" stroke-width="3.2"/>
<circle clip-path="url(#clip362)" cx="702.598" cy="644.728" r="7.2" fill="#ff0000" fill-rule="evenodd" fill-opacity="1" stroke="#000000" stroke-opacity="1" stroke-width="3.2"/>
<circle clip-path="url(#clip362)" cx="380.885" cy="1180.32" r="7.2" fill="#ff0000" fill-rule="evenodd" fill-opacity="1" stroke="#000000" stroke-opacity="1" stroke-width="3.2"/>
<path clip-path="url(#clip360)" d="M528.512 161.312 L1996.93 161.312 L1996.93 47.2441 L528.512 47.2441  Z" fill="#ffffff" fill-rule="evenodd" fill-opacity="1"/>
<polyline clip-path="url(#clip360)" style="stroke:#000000; stroke-linecap:round; stroke-linejoin:round; stroke-width:4; stroke-opacity:1; fill:none" points="528.512,161.312 1996.93,161.312 1996.93,47.2441 528.512,47.2441 528.512,161.312 "/>
<polyline clip-path="url(#clip360)" style="stroke:#4a7945; stroke-linecap:round; stroke-linejoin:round; stroke-width:8; stroke-opacity:1; fill:none" points="552.735,104.278 698.072,104.278 "/>
<path clip-path="url(#clip360)" d="M746.959 104.523 Q746.35 107.545 745.53 109.278 Q744.195 111.925 741.97 111.925 Q740.424 111.925 739.253 111.058 Q738.106 110.168 737.707 108.692 Q737.262 109.278 736.864 109.676 Q736.489 110.074 735.763 110.683 Q735.037 111.269 734.053 111.597 Q733.093 111.925 731.992 111.925 Q731.149 111.925 730.376 111.761 Q729.603 111.62 728.783 111.222 Q727.987 110.8 727.402 110.168 Q726.839 109.536 726.465 108.505 Q726.09 107.474 726.09 106.163 Q726.09 104.523 726.722 102.298 Q727.378 100.073 728.877 96.0911 Q729.697 93.9831 729.697 92.812 Q729.697 92.2733 729.58 91.9219 Q729.463 91.5706 729.228 91.4535 Q729.018 91.3129 728.877 91.2895 Q728.737 91.2427 728.502 91.2427 Q727.05 91.2427 725.785 92.7183 Q724.521 94.1939 723.654 97.192 Q723.467 97.7775 723.349 97.9181 Q723.232 98.0586 722.881 98.0586 Q722.295 98.0352 722.295 97.5667 Q722.295 97.3793 722.506 96.6533 Q722.717 95.9037 723.209 94.8029 Q723.724 93.6786 724.427 92.6714 Q725.13 91.6408 726.23 90.9148 Q727.355 90.1887 728.643 90.1887 Q730.4 90.1887 731.477 91.3364 Q732.578 92.4606 732.578 94.1236 Q732.578 95.1542 731.758 97.1451 Q729.158 104.055 729.158 106.936 Q729.158 110.847 732.133 110.847 Q733.117 110.847 734.03 110.449 Q734.967 110.051 735.576 109.489 Q736.185 108.927 736.653 108.318 Q737.145 107.709 737.356 107.31 Q737.59 106.912 737.614 106.819 L741.197 92.3904 Q741.338 91.8282 741.596 91.4535 Q741.877 91.0553 742.205 90.9148 Q742.532 90.7742 742.72 90.7508 Q742.907 90.704 743.071 90.704 Q743.657 90.704 744.055 91.0553 Q744.476 91.4066 744.476 92.0156 Q744.476 92.1327 744.336 92.6949 Q744.219 93.2336 744.031 94.0299 Q743.844 94.8029 743.75 95.2245 Q743.001 98.1757 742.931 98.4802 L741.596 103.657 Q741.525 103.961 741.291 104.945 Q741.08 105.929 740.963 106.444 Q740.846 106.936 740.729 107.615 Q740.635 108.271 740.635 108.646 Q740.635 109.817 740.987 110.332 Q741.338 110.847 742.111 110.847 Q742.837 110.847 743.399 110.355 Q743.985 109.84 744.43 108.856 Q744.875 107.849 745.132 107.029 Q745.39 106.21 745.718 104.921 Q745.835 104.359 745.929 104.219 Q746.046 104.055 746.374 104.055 Q746.959 104.055 746.959 104.523 Z" fill="#000000" fill-rule="nonzero" fill-opacity="1" /><path clip-path="url(#clip360)" d="M768.577 104.617 Q768.577 105.519 768.003 106.076 Q767.446 106.634 766.741 106.634 Q766.233 106.634 765.856 106.322 Q765.495 106.011 765.495 105.47 Q765.495 104.912 765.921 104.322 Q766.348 103.732 767.315 103.65 Q766.675 103.043 765.659 103.043 Q765.151 103.043 764.724 103.371 Q764.314 103.682 764.085 104.191 Q763.839 104.715 763.282 107.683 Q763.101 108.65 762.937 109.585 Q762.773 110.52 762.576 111.503 L765.364 111.503 Q765.724 111.503 765.872 111.52 Q766.02 111.536 766.134 111.618 Q766.266 111.7 766.266 111.88 Q766.266 112.339 766.052 112.454 Q765.856 112.553 765.265 112.553 L762.38 112.553 L760.363 123.193 Q760.314 123.505 760.101 124.489 Q759.904 125.456 759.429 127.046 Q758.953 128.653 758.478 129.604 Q758.215 130.145 757.871 130.653 Q757.543 131.178 757.068 131.703 Q756.592 132.227 755.969 132.539 Q755.346 132.867 754.69 132.867 Q753.575 132.867 752.706 132.244 Q751.837 131.621 751.837 130.555 Q751.837 129.653 752.395 129.096 Q752.969 128.538 753.674 128.538 Q754.182 128.538 754.543 128.85 Q754.92 129.161 754.92 129.702 Q754.92 129.932 754.838 130.194 Q754.756 130.457 754.575 130.752 Q754.395 131.063 754.002 131.276 Q753.608 131.49 753.067 131.522 Q753.706 132.129 754.69 132.129 Q755.002 132.129 755.28 131.998 Q755.559 131.883 755.789 131.588 Q756.035 131.293 756.215 130.998 Q756.395 130.719 756.576 130.178 Q756.756 129.653 756.871 129.26 Q756.986 128.866 757.133 128.161 Q757.297 127.456 757.379 127.03 Q757.461 126.62 757.609 125.817 L760.117 112.553 L757.904 112.553 Q757.51 112.553 757.346 112.536 Q757.199 112.52 757.084 112.438 Q756.969 112.339 756.969 112.143 Q756.969 111.831 757.1 111.7 Q757.248 111.552 757.412 111.536 Q757.576 111.503 757.969 111.503 L760.297 111.503 Q761.084 107.355 761.396 106.24 Q761.757 105.06 762.314 104.24 Q762.872 103.404 763.495 103.01 Q764.118 102.617 764.626 102.469 Q765.151 102.305 765.659 102.305 Q766.807 102.305 767.692 102.928 Q768.577 103.535 768.577 104.617 Z" fill="#000000" fill-rule="nonzero" fill-opacity="1" /><path clip-path="url(#clip360)" d="M778.366 103.043 L773.529 122.456 Q773.332 123.226 773.332 124.062 Q773.332 125.604 774.349 125.604 Q774.824 125.604 775.218 125.292 Q775.611 124.964 775.907 124.325 Q776.218 123.669 776.415 123.046 Q776.628 122.423 776.89 121.455 Q776.972 121.078 777.054 120.964 Q777.136 120.849 777.366 120.849 Q777.776 120.849 777.776 121.177 Q777.366 123.193 776.759 124.472 Q775.874 126.358 774.234 126.358 Q773.004 126.358 772.086 125.505 Q771.185 124.636 771.185 123.259 Q771.185 122.734 771.349 122.111 L775.579 105.322 L775.693 104.666 Q775.693 104.486 775.628 104.388 Q775.562 104.289 775.169 104.191 Q774.792 104.092 774.037 104.092 Q773.726 104.092 773.578 104.076 Q773.447 104.06 773.316 103.978 Q773.201 103.896 773.201 103.715 Q773.201 103.42 773.316 103.256 Q773.447 103.092 773.546 103.059 Q773.644 103.027 773.841 103.01 Q774.119 102.994 775.054 102.912 Q775.989 102.814 776.792 102.748 Q777.595 102.682 777.94 102.682 Q778.136 102.682 778.235 102.781 Q778.349 102.863 778.366 102.961 L778.366 103.043 Z" fill="#000000" fill-rule="nonzero" fill-opacity="1" /><path clip-path="url(#clip360)" d="M791.132 111.88 Q791.132 112.339 790.919 112.454 Q790.706 112.553 790.116 112.553 L786.968 112.553 L784.476 122.456 Q784.279 123.325 784.279 124.062 Q784.279 124.882 784.525 125.243 Q784.787 125.604 785.328 125.604 Q786.394 125.604 787.542 124.636 Q788.706 123.669 789.689 121.308 Q789.821 120.996 789.886 120.931 Q789.968 120.849 790.181 120.849 Q790.591 120.849 790.591 121.177 Q790.591 121.291 790.362 121.816 Q790.148 122.341 789.673 123.111 Q789.214 123.882 788.607 124.603 Q788.017 125.325 787.115 125.849 Q786.214 126.358 785.246 126.358 Q783.885 126.358 783.016 125.489 Q782.164 124.62 782.164 123.259 Q782.164 122.816 782.508 121.406 Q782.852 119.98 784.722 112.553 L781.754 112.553 Q781.344 112.553 781.18 112.536 Q781.032 112.52 780.918 112.438 Q780.819 112.339 780.819 112.143 Q780.819 111.831 780.95 111.7 Q781.082 111.552 781.246 111.536 Q781.426 111.503 781.836 111.503 L784.984 111.503 L786.295 106.175 Q786.427 105.65 786.755 105.355 Q787.099 105.043 787.296 105.011 Q787.492 104.961 787.64 104.961 Q788.083 104.961 788.345 105.207 Q788.607 105.437 788.607 105.863 Q788.607 106.093 787.23 111.503 L790.181 111.503 Q790.558 111.503 790.706 111.52 Q790.87 111.536 791.001 111.618 Q791.132 111.7 791.132 111.88 Z" fill="#000000" fill-rule="nonzero" fill-opacity="1" /><path clip-path="url(#clip360)" d="M797.937 99.3937 Q797.937 91.2895 800.959 84.7546 Q802.247 82.0142 804.051 79.7188 Q805.854 77.4234 807.049 76.4163 Q808.243 75.4091 808.571 75.4091 Q809.039 75.4091 809.063 75.8775 Q809.063 76.1118 808.431 76.6973 Q800.701 84.5673 800.725 99.3937 Q800.725 114.267 808.243 121.832 Q809.063 122.652 809.063 122.91 Q809.063 123.378 808.571 123.378 Q808.243 123.378 807.095 122.418 Q805.948 121.458 804.168 119.256 Q802.388 117.054 801.099 114.361 Q797.937 107.826 797.937 99.3937 Z" fill="#000000" fill-rule="nonzero" fill-opacity="1" /><path clip-path="url(#clip360)" d="M827.437 91.2427 Q827.437 91.8985 827.133 92.0625 Q826.829 92.203 825.985 92.203 L821.488 92.203 L817.928 106.35 Q817.647 107.592 817.647 108.646 Q817.647 109.817 817.998 110.332 Q818.373 110.847 819.146 110.847 Q820.668 110.847 822.308 109.465 Q823.971 108.083 825.376 104.711 Q825.564 104.266 825.657 104.172 Q825.774 104.055 826.079 104.055 Q826.665 104.055 826.665 104.523 Q826.665 104.687 826.337 105.437 Q826.032 106.186 825.353 107.287 Q824.697 108.388 823.83 109.418 Q822.987 110.449 821.699 111.199 Q820.411 111.925 819.029 111.925 Q817.085 111.925 815.843 110.683 Q814.625 109.442 814.625 107.498 Q814.625 106.865 815.117 104.851 Q815.609 102.813 818.279 92.203 L814.04 92.203 Q813.454 92.203 813.22 92.1796 Q813.009 92.1561 812.845 92.039 Q812.705 91.8985 812.705 91.6174 Q812.705 91.1724 812.892 90.985 Q813.08 90.7742 813.314 90.7508 Q813.571 90.704 814.157 90.704 L818.654 90.704 L820.528 83.0917 Q820.715 82.3421 821.184 81.9205 Q821.676 81.4755 821.957 81.4287 Q822.238 81.3584 822.449 81.3584 Q823.081 81.3584 823.456 81.7097 Q823.83 82.0376 823.83 82.6466 Q823.83 82.9745 821.863 90.704 L826.079 90.704 Q826.618 90.704 826.829 90.7274 Q827.063 90.7508 827.25 90.8679 Q827.437 90.985 827.437 91.2427 Z" fill="#000000" fill-rule="nonzero" fill-opacity="1" /><path clip-path="url(#clip360)" d="M831.189 122.91 Q831.189 122.676 831.798 122.09 Q839.527 114.22 839.527 99.3937 Q839.527 84.5204 832.102 77.0018 Q831.189 76.1352 831.189 75.8775 Q831.189 75.4091 831.657 75.4091 Q831.985 75.4091 833.133 76.3694 Q834.304 77.3297 836.061 79.5314 Q837.841 81.7332 839.152 84.4267 Q842.314 90.9616 842.314 99.3937 Q842.314 107.498 839.293 114.033 Q838.005 116.773 836.201 119.069 Q834.398 121.364 833.203 122.371 Q832.008 123.378 831.657 123.378 Q831.189 123.378 831.189 122.91 Z" fill="#000000" fill-rule="nonzero" fill-opacity="1" /><polyline clip-path="url(#clip360)" style="stroke:#dfba53; stroke-linecap:round; stroke-linejoin:round; stroke-width:8; stroke-opacity:1; fill:none" points="913.785,104.278 1059.12,104.278 "/>
<path clip-path="url(#clip360)" d="M1117.4 82.8227 L1114.38 95.0492 Q1114.17 95.8222 1114.03 95.9159 Q1113.91 96.0095 1113.54 96.0095 Q1112.81 96.0095 1112.81 95.5177 Q1112.81 95.4708 1112.88 94.8618 Q1112.95 94.2294 1112.95 93.0817 Q1112.95 88.8423 1110.89 86.3361 Q1108.85 83.8299 1105.22 83.8299 Q1101.83 83.8299 1098.57 85.61 Q1095.31 87.3901 1093.23 90.0134 Q1091.47 92.1683 1090.26 94.7916 Q1089.06 97.4149 1088.57 99.7103 Q1088.08 101.982 1087.89 103.364 Q1087.73 104.746 1087.73 105.636 Q1087.73 108.259 1088.57 110.297 Q1089.41 112.312 1090.82 113.459 Q1092.25 114.607 1093.89 115.169 Q1095.55 115.731 1097.35 115.731 Q1098.03 115.731 1098.85 115.638 Q1099.67 115.544 1100.94 115.193 Q1102.22 114.841 1103.28 114.256 Q1104.36 113.67 1105.29 112.546 Q1106.25 111.422 1106.63 109.922 Q1107.63 106.105 1107.63 105.542 Q1107.63 105.074 1107.35 104.91 Q1107.07 104.746 1106.14 104.629 L1103.61 104.535 Q1103.56 104.535 1103.49 104.535 Q1103.04 104.535 1102.86 104.535 Q1102.67 104.512 1102.46 104.465 Q1102.27 104.418 1102.2 104.325 Q1102.15 104.207 1102.15 104.02 Q1102.15 103.575 1102.34 103.364 Q1102.53 103.13 1102.69 103.107 Q1102.86 103.06 1103.16 103.06 L1109.88 103.2 Q1110.42 103.2 1112.39 103.13 Q1114.36 103.06 1114.92 103.06 Q1115.55 103.06 1115.55 103.575 Q1115.55 104.535 1114.78 104.535 Q1114.01 104.559 1113.61 104.582 Q1113.21 104.582 1112.81 104.699 Q1112.44 104.816 1112.3 104.91 Q1112.16 104.98 1111.97 105.332 Q1111.78 105.66 1111.71 105.941 Q1111.64 106.198 1111.48 106.854 Q1111.38 107.276 1111.15 108.072 Q1110.94 108.868 1110.84 109.29 L1109.93 112.991 Q1109.3 115.731 1109.11 115.919 Q1109.02 116.106 1108.78 116.106 Q1108.43 116.106 1107.68 115.075 Q1106.96 114.045 1106.63 113.131 Q1106.04 113.764 1105.67 114.139 Q1105.29 114.49 1104.43 115.052 Q1103.58 115.614 1102.46 116.059 Q1099.72 117.207 1096.46 117.207 Q1090.65 117.207 1087 113.53 Q1083.35 109.829 1083.35 104.067 Q1083.35 99.9914 1085.22 95.9861 Q1087.09 91.9809 1090.07 89.0062 Q1093.04 86.0316 1096.98 84.1812 Q1100.91 82.3308 1104.85 82.3308 Q1106.35 82.3308 1107.68 82.729 Q1109.02 83.1272 1109.81 83.6191 Q1110.63 84.1109 1111.36 84.837 Q1112.08 85.5397 1112.32 85.8676 Q1112.58 86.1955 1112.81 86.5937 L1116.16 82.9164 Q1116.75 82.3308 1116.89 82.3308 Q1117.17 82.3308 1117.28 82.4948 Q1117.4 82.6587 1117.4 82.8227 Z" fill="#000000" fill-rule="nonzero" fill-opacity="1" /><path clip-path="url(#clip360)" d="M1123.16 104.161 Q1123.16 96.0564 1126.18 89.5215 Q1127.47 86.7811 1129.27 84.4857 Q1131.08 82.1903 1132.27 81.1831 Q1133.47 80.176 1133.79 80.176 Q1134.26 80.176 1134.29 80.6444 Q1134.29 80.8786 1133.65 81.4642 Q1125.92 89.3341 1125.95 104.161 Q1125.95 119.034 1133.47 126.599 Q1134.29 127.419 1134.29 127.677 Q1134.29 128.145 1133.79 128.145 Q1133.47 128.145 1132.32 127.185 Q1131.17 126.224 1129.39 124.023 Q1127.61 121.821 1126.32 119.127 Q1123.16 112.593 1123.16 104.161 Z" fill="#000000" fill-rule="nonzero" fill-opacity="1" /><path clip-path="url(#clip360)" d="M1152.66 96.0095 Q1152.66 96.6654 1152.36 96.8293 Q1152.05 96.9699 1151.21 96.9699 L1146.71 96.9699 L1143.15 111.117 Q1142.87 112.358 1142.87 113.412 Q1142.87 114.584 1143.22 115.099 Q1143.6 115.614 1144.37 115.614 Q1145.89 115.614 1147.53 114.232 Q1149.19 112.85 1150.6 109.477 Q1150.79 109.032 1150.88 108.939 Q1151 108.822 1151.3 108.822 Q1151.89 108.822 1151.89 109.29 Q1151.89 109.454 1151.56 110.204 Q1151.25 110.953 1150.58 112.054 Q1149.92 113.155 1149.05 114.185 Q1148.21 115.216 1146.92 115.965 Q1145.63 116.692 1144.25 116.692 Q1142.31 116.692 1141.07 115.45 Q1139.85 114.209 1139.85 112.265 Q1139.85 111.632 1140.34 109.618 Q1140.83 107.58 1143.5 96.9699 L1139.26 96.9699 Q1138.68 96.9699 1138.44 96.9464 Q1138.23 96.923 1138.07 96.8059 Q1137.93 96.6654 1137.93 96.3843 Q1137.93 95.9393 1138.11 95.7519 Q1138.3 95.5411 1138.54 95.5177 Q1138.79 95.4708 1139.38 95.4708 L1143.88 95.4708 L1145.75 87.8585 Q1145.94 87.109 1146.41 86.6874 Q1146.9 86.2424 1147.18 86.1955 Q1147.46 86.1253 1147.67 86.1253 Q1148.3 86.1253 1148.68 86.4766 Q1149.05 86.8045 1149.05 87.4135 Q1149.05 87.7414 1147.09 95.4708 L1151.3 95.4708 Q1151.84 95.4708 1152.05 95.4942 Q1152.29 95.5177 1152.47 95.6348 Q1152.66 95.7519 1152.66 96.0095 Z" fill="#000000" fill-rule="nonzero" fill-opacity="1" /><path clip-path="url(#clip360)" d="M1156.41 127.677 Q1156.41 127.442 1157.02 126.857 Q1164.75 118.987 1164.75 104.161 Q1164.75 89.2873 1157.32 81.7687 Q1156.41 80.9021 1156.41 80.6444 Q1156.41 80.176 1156.88 80.176 Q1157.21 80.176 1158.36 81.1363 Q1159.53 82.0966 1161.28 84.2983 Q1163.06 86.5 1164.37 89.1936 Q1167.54 95.7285 1167.54 104.161 Q1167.54 112.265 1164.52 118.8 Q1163.23 121.54 1161.42 123.835 Q1159.62 126.131 1158.43 127.138 Q1157.23 128.145 1156.88 128.145 Q1156.41 128.145 1156.41 127.677 Z" fill="#000000" fill-rule="nonzero" fill-opacity="1" /><polyline clip-path="url(#clip360)" style="stroke:#ba3d3a; stroke-linecap:round; stroke-linejoin:round; stroke-width:4; stroke-opacity:1; fill:none" stroke-dasharray="16, 10" points="1274.83,104.278 1420.17,104.278 "/>
<path clip-path="url(#clip360)" d="M1444.4 105.377 Q1444.4 97.9414 1446.27 93.8901 Q1448.89 87.8625 1455.07 87.8625 Q1456.38 87.8625 1457.74 88.233 Q1459.12 88.5789 1460.85 89.9375 Q1462.6 91.2962 1463.66 93.5195 Q1465.69 97.8179 1465.69 105.377 Q1465.69 112.763 1463.81 116.79 Q1461.07 122.669 1455.02 122.669 Q1452.75 122.669 1450.42 121.508 Q1448.13 120.347 1446.67 117.556 Q1444.4 113.381 1444.4 105.377 M1448.6 104.76 Q1448.6 112.393 1449.14 115.431 Q1449.76 118.717 1451.44 120.15 Q1453.14 121.558 1455.02 121.558 Q1457.04 121.558 1458.72 120.051 Q1460.43 118.519 1460.95 115.234 Q1461.51 111.998 1461.49 104.76 Q1461.49 97.7191 1461 94.9029 Q1460.33 91.6174 1458.55 90.3081 Q1456.8 88.9741 1455.02 88.9741 Q1454.35 88.9741 1453.63 89.1717 Q1452.94 89.3694 1451.93 89.9375 Q1450.92 90.5057 1450.13 91.9138 Q1449.36 93.3219 1448.99 95.4464 Q1448.6 98.1885 1448.6 104.76 Z" fill="#000000" fill-rule="nonzero" fill-opacity="1" /><path clip-path="url(#clip360)" d="M1486.22 120.891 L1486.22 114.221 Q1486.22 113.653 1486.24 113.455 Q1486.27 113.258 1486.42 113.109 Q1486.56 112.961 1486.86 112.961 Q1487.21 112.961 1487.33 113.109 Q1487.48 113.258 1487.58 113.826 Q1488.34 117.309 1489.97 119.162 Q1491.63 120.99 1494.62 120.99 Q1497.46 120.99 1498.89 119.73 Q1500.32 118.47 1500.32 116.395 Q1500.32 112.689 1495.06 111.751 Q1492.02 111.133 1490.76 110.738 Q1489.5 110.318 1488.39 109.404 Q1486.22 107.625 1486.22 105.105 Q1486.22 102.586 1488.12 100.733 Q1490.05 98.8802 1494.3 98.8802 Q1497.14 98.8802 1499.06 100.313 Q1499.63 99.8683 1499.93 99.4977 Q1500.6 98.8802 1500.94 98.8802 Q1501.34 98.8802 1501.41 99.1519 Q1501.48 99.3989 1501.48 100.115 L1501.48 105.204 Q1501.48 105.772 1501.46 105.97 Q1501.44 106.168 1501.29 106.316 Q1501.14 106.439 1500.82 106.439 Q1500.25 106.439 1500.23 105.97 Q1499.83 99.8436 1494.3 99.8436 Q1491.31 99.8436 1489.97 101.005 Q1488.64 102.141 1488.64 103.697 Q1488.64 104.562 1489.03 105.229 Q1489.45 105.871 1489.97 106.266 Q1490.52 106.637 1491.5 107.008 Q1492.49 107.353 1493.09 107.477 Q1493.7 107.6 1494.86 107.847 Q1498.92 108.613 1500.62 110.268 Q1502.74 112.393 1502.74 115.086 Q1502.74 118.075 1500.72 120.1 Q1498.69 122.126 1494.62 122.126 Q1491.33 122.126 1489.03 119.927 Q1488.74 120.224 1488.52 120.496 Q1488.29 120.743 1488.19 120.841 Q1488.12 120.94 1488.1 121.014 Q1488.07 121.064 1488.02 121.113 Q1487.01 122.126 1486.76 122.126 Q1486.37 122.126 1486.29 121.854 Q1486.22 121.607 1486.22 120.891 Z" fill="#000000" fill-rule="nonzero" fill-opacity="1" /><path clip-path="url(#clip360)" d="M1505.41 101.326 L1505.41 100.214 Q1507.73 100.115 1509.27 98.4849 Q1510.82 96.8298 1511.34 94.8041 Q1511.89 92.7784 1511.93 90.4316 L1513.19 90.4316 L1513.19 99.7448 L1520.43 99.7448 L1520.43 101.326 L1513.19 101.326 L1513.19 115.382 Q1513.19 120.841 1516.6 120.841 Q1518.06 120.841 1519.02 119.359 Q1519.99 117.852 1519.99 115.184 L1519.99 112.393 L1521.25 112.393 L1521.25 115.283 Q1521.25 118.025 1519.99 120.076 Q1518.73 122.126 1516.23 122.126 Q1515.32 122.126 1514.4 121.879 Q1513.52 121.657 1512.33 121.064 Q1511.17 120.446 1510.43 118.964 Q1509.71 117.457 1509.71 115.283 L1509.71 101.326 L1505.41 101.326 Z" fill="#000000" fill-rule="nonzero" fill-opacity="1" /><path clip-path="url(#clip360)" d="M1525.79 110.688 Q1525.79 105.871 1529.15 102.536 Q1532.51 99.2013 1537.06 99.2013 Q1540.91 99.2013 1543.43 102.339 L1543.43 91.395 Q1543.43 89.5176 1542.76 89.0482 Q1542.12 88.5789 1539.5 88.5789 L1539.5 86.9978 L1546.79 86.4544 L1546.79 117.161 Q1546.79 119.038 1547.43 119.532 Q1548.1 120.002 1550.72 120.002 L1550.72 121.558 L1543.28 122.126 L1543.28 118.766 Q1540.66 122.101 1536.51 122.126 Q1532.17 122.126 1528.98 118.791 Q1525.79 115.456 1525.79 110.688 M1529.99 110.738 Q1529.99 115.431 1531.45 117.754 Q1533.48 120.99 1536.76 120.99 Q1540.52 120.99 1542.74 117.457 Q1543.31 116.592 1543.28 115.58 L1543.28 105.204 Q1543.28 104.191 1542.74 103.351 Q1540.66 100.313 1537.28 100.313 Q1533.75 100.313 1531.55 103.549 Q1529.99 105.97 1529.99 110.738 Z" fill="#000000" fill-rule="nonzero" fill-opacity="1" /><path clip-path="url(#clip360)" d="M1557.14 108.91 Q1557.14 100.362 1560.33 93.4701 Q1561.69 90.5798 1563.59 88.1589 Q1565.49 85.738 1566.75 84.6757 Q1568.01 83.6135 1568.36 83.6135 Q1568.85 83.6135 1568.88 84.1076 Q1568.88 84.3546 1568.21 84.9722 Q1560.06 93.2725 1560.08 108.91 Q1560.08 124.596 1568.01 132.576 Q1568.88 133.44 1568.88 133.712 Q1568.88 134.206 1568.36 134.206 Q1568.01 134.206 1566.8 133.193 Q1565.59 132.18 1563.71 129.858 Q1561.84 127.536 1560.48 124.695 Q1557.14 117.803 1557.14 108.91 Z" fill="#000000" fill-rule="nonzero" fill-opacity="1" /><path clip-path="url(#clip360)" d="M1573.57 101.375 Q1573.57 100.264 1574.43 99.473 Q1575.32 98.6825 1576.39 98.6825 Q1577.1 98.6825 1577.67 99.0037 Q1578.26 99.3001 1578.63 99.893 Q1579.03 100.461 1579.28 101.054 Q1579.52 101.622 1579.7 102.487 Q1579.89 103.351 1579.97 103.87 Q1580.04 104.364 1580.12 105.13 Q1580.19 105.871 1580.19 106.019 Q1580.49 104.957 1580.96 103.895 Q1581.45 102.833 1582.31 101.548 Q1583.18 100.264 1584.49 99.4483 Q1585.8 98.6331 1587.33 98.6331 Q1590.17 98.6331 1592.52 101.77 Q1594.86 104.908 1594.86 111.429 L1594.86 133.094 Q1594.86 134.008 1594.47 134.527 Q1594.1 135.071 1593.75 135.194 Q1593.41 135.318 1592.99 135.318 Q1592.27 135.318 1591.65 134.799 Q1591.06 134.305 1591.06 133.094 Q1591.06 129.512 1592.32 122.003 Q1593.6 114.517 1593.6 110.837 Q1593.6 105.525 1591.06 103.351 Q1589.8 102.24 1588.39 102.24 Q1587.13 102.24 1586.12 103.228 Q1585.11 104.216 1584.41 105.698 Q1583.72 107.18 1583.08 109.7 Q1582.46 112.195 1582.07 114.443 Q1581.7 116.691 1581.25 120.002 Q1581.01 122.62 1579.18 122.62 Q1578.51 122.62 1577.92 122.175 Q1577.35 121.755 1577.35 120.891 Q1577.35 119.631 1578.14 114.913 Q1578.93 110.17 1578.93 109.774 Q1578.93 105.525 1578.39 104.018 Q1577.87 102.487 1576.76 101.968 Q1576.19 103.03 1575.22 103.03 Q1574.51 103.03 1574.04 102.561 Q1573.57 102.092 1573.57 101.375 Z" fill="#000000" fill-rule="nonzero" fill-opacity="1" /><path clip-path="url(#clip360)" d="M1599.93 133.712 Q1599.93 133.465 1600.57 132.847 Q1608.72 124.547 1608.72 108.91 Q1608.72 93.2231 1600.89 85.2933 Q1599.93 84.3793 1599.93 84.1076 Q1599.93 83.6135 1600.42 83.6135 Q1600.77 83.6135 1601.98 84.6263 Q1603.21 85.6392 1605.07 87.9613 Q1606.94 90.2834 1608.33 93.1243 Q1611.66 100.017 1611.66 108.91 Q1611.66 117.457 1608.48 124.349 Q1607.12 127.24 1605.21 129.661 Q1603.31 132.081 1602.05 133.144 Q1600.79 134.206 1600.42 134.206 Q1599.93 134.206 1599.93 133.712 Z" fill="#000000" fill-rule="nonzero" fill-opacity="1" /><circle clip-path="url(#clip360)" cx="1708.55" cy="104.278" r="18.432" fill="#ff0000" fill-rule="evenodd" fill-opacity="1" stroke="#000000" stroke-opacity="1" stroke-width="8.192"/>
<path clip-path="url(#clip360)" d="M1805.45 121.558 L1805.45 120.002 L1806.66 120.002 Q1809.4 120.002 1810.02 119.557 Q1810.66 119.088 1810.66 117.605 L1810.66 90.9504 Q1810.66 89.4929 1810.02 89.0482 Q1809.37 88.5789 1806.66 88.5789 L1805.45 88.5789 L1805.45 86.9978 L1823.31 86.9978 Q1828.42 86.9978 1831.83 89.814 Q1835.24 92.6302 1835.24 96.4098 Q1835.24 100.165 1831.75 102.882 Q1828.3 105.575 1823.7 105.575 L1815.15 105.575 L1815.15 117.605 Q1815.15 119.063 1815.77 119.532 Q1816.41 120.002 1819.16 120.002 L1820.37 120.002 L1820.37 121.558 Q1818.59 121.41 1812.88 121.41 Q1807.22 121.41 1805.45 121.558 M1815.01 104.265 L1821.97 104.265 Q1824.24 104.265 1825.9 103.623 Q1827.55 102.981 1828.3 102.215 Q1829.06 101.425 1829.48 100.165 Q1829.93 98.8802 1829.98 98.1885 Q1830.03 97.4721 1830.03 96.4098 Q1830.03 95.2982 1829.98 94.6065 Q1829.93 93.8901 1829.48 92.6302 Q1829.06 91.3456 1828.3 90.5798 Q1827.55 89.7893 1825.9 89.1964 Q1824.27 88.5789 1821.97 88.5789 L1817.48 88.5789 Q1815.75 88.5789 1815.38 88.9247 Q1815.01 89.2706 1815.01 90.6045 L1815.01 104.265 Z" fill="#000000" fill-rule="nonzero" fill-opacity="1" /><path clip-path="url(#clip360)" d="M1838.05 110.417 Q1838.05 105.649 1841.12 102.265 Q1844.18 98.8802 1848.58 98.8802 Q1853.02 98.8802 1855.32 101.77 Q1857.64 104.661 1857.64 108.811 Q1857.64 109.577 1857.45 109.725 Q1857.25 109.873 1856.38 109.873 L1842.25 109.873 Q1842.25 115.036 1843.79 117.457 Q1845.91 120.841 1849.49 120.841 Q1849.99 120.841 1850.58 120.743 Q1851.17 120.644 1852.38 120.224 Q1853.59 119.779 1854.65 118.618 Q1855.72 117.457 1856.33 115.629 Q1856.48 114.913 1856.98 114.937 Q1857.64 114.937 1857.64 115.53 Q1857.64 115.975 1857.15 116.988 Q1856.68 117.976 1855.77 119.162 Q1854.85 120.347 1853.07 121.237 Q1851.32 122.126 1849.2 122.126 Q1844.75 122.126 1841.39 118.766 Q1838.05 115.382 1838.05 110.417 M1842.3 108.811 L1854.31 108.811 Q1854.31 107.749 1854.11 106.563 Q1853.94 105.377 1853.39 103.747 Q1852.88 102.092 1851.64 101.054 Q1850.41 100.017 1848.58 100.017 Q1847.76 100.017 1846.87 100.362 Q1846.01 100.708 1844.95 101.548 Q1843.88 102.388 1843.14 104.29 Q1842.4 106.192 1842.3 108.811 Z" fill="#000000" fill-rule="nonzero" fill-opacity="1" /><path clip-path="url(#clip360)" d="M1861.23 116.741 Q1861.23 112.442 1866.29 110.17 Q1869.33 108.712 1875.6 108.342 L1875.6 106.489 Q1875.6 103.351 1873.95 101.696 Q1872.32 100.017 1870.24 100.017 Q1866.54 100.017 1864.76 102.339 Q1866.27 102.388 1866.81 103.154 Q1867.35 103.895 1867.35 104.661 Q1867.35 105.674 1866.71 106.341 Q1866.09 106.983 1865.03 106.983 Q1864.02 106.983 1863.35 106.365 Q1862.68 105.723 1862.68 104.611 Q1862.68 102.141 1864.91 100.511 Q1867.15 98.8802 1870.34 98.8802 Q1874.49 98.8802 1877.26 101.672 Q1878.12 102.536 1878.54 103.648 Q1878.99 104.76 1879.04 105.501 Q1879.09 106.217 1879.09 107.65 L1879.09 117.754 Q1879.09 118.05 1879.18 118.544 Q1879.28 119.038 1879.73 119.68 Q1880.2 120.298 1880.96 120.298 Q1882.79 120.298 1882.77 117.062 L1882.77 114.221 L1884.05 114.221 L1884.05 117.062 Q1884.05 119.754 1882.62 120.817 Q1881.21 121.854 1879.9 121.854 Q1878.22 121.854 1877.16 120.619 Q1876.1 119.384 1875.95 117.704 Q1875.18 119.631 1873.43 120.891 Q1871.7 122.126 1869.33 122.126 Q1867.5 122.126 1865.77 121.657 Q1864.07 121.212 1862.63 119.952 Q1861.23 118.668 1861.23 116.741 M1865.13 116.691 Q1865.13 118.569 1866.46 119.779 Q1867.8 120.99 1869.67 120.99 Q1871.8 120.99 1873.7 119.359 Q1875.6 117.704 1875.6 114.468 L1875.6 109.404 Q1870 109.601 1867.55 111.849 Q1865.13 114.073 1865.13 116.691 Z" fill="#000000" fill-rule="nonzero" fill-opacity="1" /><path clip-path="url(#clip360)" d="M1885.81 121.558 L1885.81 120.002 Q1888.5 120.002 1889.12 119.68 Q1889.76 119.335 1889.76 117.704 L1889.76 91.395 Q1889.76 89.5176 1889.09 89.0482 Q1888.45 88.5789 1885.81 88.5789 L1885.81 86.9978 L1893.09 86.4544 L1893.09 110.738 L1900.23 104.562 Q1901.34 103.599 1901.34 102.586 Q1901.34 101.425 1899.89 101.326 L1899.89 99.7448 Q1902.01 99.893 1905.54 99.893 Q1907.62 99.893 1909.08 99.7448 L1909.08 101.326 Q1905.89 101.474 1902.7 104.043 Q1901.99 104.611 1900.28 106.094 Q1898.6 107.551 1898.6 107.699 Q1898.6 107.749 1898.65 107.872 Q1898.73 107.996 1898.82 108.095 Q1898.92 108.193 1898.92 108.243 L1905.35 117.309 Q1906.66 119.137 1907.62 119.582 Q1908.58 120.002 1910.26 120.002 L1910.26 121.558 Q1908.09 121.41 1905.84 121.41 Q1904.63 121.41 1900.38 121.558 L1900.38 120.002 Q1902.21 120.002 1902.21 118.816 Q1902.21 118.001 1898.11 112.343 Q1897.81 111.948 1897.14 111.084 Q1896.53 110.17 1896.18 109.725 L1892.94 112.492 L1892.94 117.704 Q1892.94 119.335 1893.56 119.68 Q1894.2 120.002 1896.9 120.002 L1896.9 121.558 Q1893.86 121.41 1891.34 121.41 Q1890.82 121.41 1885.81 121.558 Z" fill="#000000" fill-rule="nonzero" fill-opacity="1" /><path clip-path="url(#clip360)" d="M1912.73 120.891 L1912.73 114.221 Q1912.73 113.653 1912.76 113.455 Q1912.78 113.258 1912.93 113.109 Q1913.08 112.961 1913.37 112.961 Q1913.72 112.961 1913.84 113.109 Q1913.99 113.258 1914.09 113.826 Q1914.86 117.309 1916.49 119.162 Q1918.14 120.99 1921.13 120.99 Q1923.97 120.99 1925.4 119.73 Q1926.84 118.47 1926.84 116.395 Q1926.84 112.689 1921.58 111.751 Q1918.54 111.133 1917.28 110.738 Q1916.02 110.318 1914.91 109.404 Q1912.73 107.625 1912.73 105.105 Q1912.73 102.586 1914.63 100.733 Q1916.56 98.8802 1920.81 98.8802 Q1923.65 98.8802 1925.58 100.313 Q1926.15 99.8683 1926.44 99.4977 Q1927.11 98.8802 1927.46 98.8802 Q1927.85 98.8802 1927.92 99.1519 Q1928 99.3989 1928 100.115 L1928 105.204 Q1928 105.772 1927.97 105.97 Q1927.95 106.168 1927.8 106.316 Q1927.65 106.439 1927.33 106.439 Q1926.76 106.439 1926.74 105.97 Q1926.34 99.8436 1920.81 99.8436 Q1917.82 99.8436 1916.49 101.005 Q1915.15 102.141 1915.15 103.697 Q1915.15 104.562 1915.55 105.229 Q1915.97 105.871 1916.49 106.266 Q1917.03 106.637 1918.02 107.008 Q1919.01 107.353 1919.6 107.477 Q1920.22 107.6 1921.38 107.847 Q1925.43 108.613 1927.13 110.268 Q1929.26 112.393 1929.26 115.086 Q1929.26 118.075 1927.23 120.1 Q1925.21 122.126 1921.13 122.126 Q1917.85 122.126 1915.55 119.927 Q1915.25 120.224 1915.03 120.496 Q1914.81 120.743 1914.71 120.841 Q1914.63 120.94 1914.61 121.014 Q1914.58 121.064 1914.54 121.113 Q1913.52 122.126 1913.28 122.126 Q1912.88 122.126 1912.81 121.854 Q1912.73 121.607 1912.73 120.891 Z" fill="#000000" fill-rule="nonzero" fill-opacity="1" /></svg>
