<?xml version="1.0" encoding="utf-8"?>
<svg xmlns="http://www.w3.org/2000/svg" xmlns:xlink="http://www.w3.org/1999/xlink" width="600" height="400" viewBox="0 0 2400 1600">
<defs>
  <clipPath id="clip310">
    <rect x="0" y="0" width="2400" height="1600"/>
  </clipPath>
</defs>
<path clip-path="url(#clip310)" d="M0 1600 L2400 1600 L2400 0 L0 0  Z" fill="#ffffff" fill-rule="evenodd" fill-opacity="1"/>
<defs>
  <clipPath id="clip311">
    <rect x="480" y="0" width="1681" height="1600"/>
  </clipPath>
</defs>
<path clip-path="url(#clip310)" d="M248.851 1423.18 L2352.76 1423.18 L2352.76 47.2441 L248.851 47.2441  Z" fill="#ffffff" fill-rule="evenodd" fill-opacity="1"/>
<defs>
  <clipPath id="clip312">
    <rect x="248" y="47" width="2105" height="1377"/>
  </clipPath>
</defs>
<polyline clip-path="url(#clip312)" style="stroke:#000000; stroke-linecap:round; stroke-linejoin:round; stroke-width:2; stroke-opacity:0.1; fill:none" points="269.586,1423.18 269.586,47.2441 "/>
<polyline clip-path="url(#clip312)" style="stroke:#000000; stroke-linecap:round; stroke-linejoin:round; stroke-width:2; stroke-opacity:0.1; fill:none" points="713.121,1423.18 713.121,47.2441 "/>
<polyline clip-path="url(#clip312)" style="stroke:#000000; stroke-linecap:round; stroke-linejoin:round; stroke-width:2; stroke-opacity:0.1; fill:none" points="1156.65,1423.18 1156.65,47.2441 "/>
<polyline clip-path="url(#clip312)" style="stroke:#000000; stroke-linecap:round; stroke-linejoin:round; stroke-width:2; stroke-opacity:0.1; fill:none" points="1600.19,1423.18 1600.19,47.2441 "/>
<polyline clip-path="url(#clip312)" style="stroke:#000000; stroke-linecap:round; stroke-linejoin:round; stroke-width:2; stroke-opacity:0.1; fill:none" points="2043.72,1423.18 2043.72,47.2441 "/>
<polyline clip-path="url(#clip310)" style="stroke:#000000; stroke-linecap:round; stroke-linejoin:round; stroke-width:4; stroke-opacity:1; fill:none" points="248.851,1423.18 2352.76,1423.18 "/>
<polyline clip-path="url(#clip310)" style="stroke:#000000; stroke-linecap:round; stroke-linejoin:round; stroke-width:4; stroke-opacity:1; fill:none" points="269.586,1423.18 269.586,1404.28 "/>
<polyline clip-path="url(#clip310)" style="stroke:#000000; stroke-linecap:round; stroke-linejoin:round; stroke-width:4; stroke-opacity:1; fill:none" points="713.121,1423.18 713.121,1404.28 "/>
<polyline clip-path="url(#clip310)" style="stroke:#000000; stroke-linecap:round; stroke-linejoin:round; stroke-width:4; stroke-opacity:1; fill:none" points="1156.65,1423.18 1156.65,1404.28 "/>
<polyline clip-path="url(#clip310)" style="stroke:#000000; stroke-linecap:round; stroke-linejoin:round; stroke-width:4; stroke-opacity:1; fill:none" points="1600.19,1423.18 1600.19,1404.28 "/>
<polyline clip-path="url(#clip310)" style="stroke:#000000; stroke-linecap:round; stroke-linejoin:round; stroke-width:4; stroke-opacity:1; fill:none" points="2043.72,1423.18 2043.72,1404.28 "/>
<path clip-path="url(#clip310)" d="M260.446 1472.22 Q260.743 1472.51 260.743 1472.93 Q260.743 1473.35 260.446 1473.65 Q260.15 1473.94 259.73 1473.94 L228.06 1473.94 Q227.64 1473.94 227.344 1473.65 Q227.047 1473.35 227.047 1472.93 Q227.047 1472.51 227.344 1472.22 Q227.64 1471.92 228.06 1471.92 L259.73 1471.92 Q260.15 1471.92 260.446 1472.22 Z" fill="#000000" fill-rule="nonzero" fill-opacity="1" /><path clip-path="url(#clip310)" d="M264.967 1477.23 L264.967 1475.67 L280.505 1451.93 Q280.901 1451.32 281.518 1451.34 Q282.086 1451.34 282.21 1451.56 Q282.333 1451.79 282.333 1452.65 L282.333 1475.67 L287.398 1475.67 L287.398 1477.23 L282.333 1477.23 L282.333 1481.63 Q282.333 1483.08 282.926 1483.55 Q283.544 1484.02 286.162 1484.02 L287.225 1484.02 L287.225 1485.58 Q285.15 1485.43 280.357 1485.43 Q275.589 1485.43 273.514 1485.58 L273.514 1484.02 L274.577 1484.02 Q277.195 1484.02 277.813 1483.58 Q278.43 1483.11 278.43 1481.63 L278.43 1477.23 L264.967 1477.23 M266.4 1475.67 L278.727 1475.67 L278.727 1456.8 L266.4 1475.67 Z" fill="#000000" fill-rule="nonzero" fill-opacity="1" /><path clip-path="url(#clip310)" d="M290.831 1469.4 Q290.831 1461.96 292.709 1457.91 Q295.327 1451.88 301.503 1451.88 Q302.813 1451.88 304.171 1452.26 Q305.555 1452.6 307.284 1453.96 Q309.038 1455.32 310.1 1457.54 Q312.126 1461.84 312.126 1469.4 Q312.126 1476.79 310.248 1480.81 Q307.506 1486.69 301.454 1486.69 Q299.181 1486.69 296.859 1485.53 Q294.562 1484.37 293.104 1481.58 Q290.831 1477.4 290.831 1469.4 M295.031 1468.78 Q295.031 1476.41 295.574 1479.45 Q296.192 1482.74 297.872 1484.17 Q299.576 1485.58 301.454 1485.58 Q303.48 1485.58 305.159 1484.07 Q306.864 1482.54 307.383 1479.26 Q307.951 1476.02 307.926 1468.78 Q307.926 1461.74 307.432 1458.92 Q306.765 1455.64 304.986 1454.33 Q303.232 1453 301.454 1453 Q300.787 1453 300.07 1453.19 Q299.379 1453.39 298.366 1453.96 Q297.353 1454.53 296.563 1455.94 Q295.797 1457.34 295.426 1459.47 Q295.031 1462.21 295.031 1468.78 Z" fill="#000000" fill-rule="nonzero" fill-opacity="1" /><path clip-path="url(#clip310)" d="M703.98 1472.22 Q704.277 1472.51 704.277 1472.93 Q704.277 1473.35 703.98 1473.65 Q703.684 1473.94 703.264 1473.94 L671.594 1473.94 Q671.174 1473.94 670.878 1473.65 Q670.582 1473.35 670.582 1472.93 Q670.582 1472.51 670.878 1472.22 Q671.174 1471.92 671.594 1471.92 L703.264 1471.92 Q703.684 1471.92 703.98 1472.22 Z" fill="#000000" fill-rule="nonzero" fill-opacity="1" /><path clip-path="url(#clip310)" d="M709.613 1485.58 Q709.613 1484.67 709.687 1484.39 Q709.786 1484.12 710.181 1483.7 L719.889 1472.88 Q725.201 1466.9 725.201 1461.69 Q725.201 1458.31 723.422 1455.89 Q721.668 1453.47 718.432 1453.47 Q716.209 1453.47 714.331 1454.82 Q712.454 1456.18 711.589 1458.6 Q711.737 1458.55 712.256 1458.55 Q713.516 1458.55 714.208 1459.34 Q714.924 1460.14 714.924 1461.2 Q714.924 1462.56 714.035 1463.22 Q713.17 1463.87 712.306 1463.87 Q711.96 1463.87 711.49 1463.79 Q711.046 1463.72 710.329 1463.03 Q709.613 1462.31 709.613 1461.05 Q709.613 1457.52 712.281 1454.7 Q714.973 1451.88 719.074 1451.88 Q723.718 1451.88 726.757 1454.65 Q729.82 1457.39 729.82 1461.69 Q729.82 1463.2 729.351 1464.58 Q728.906 1465.94 728.289 1467 Q727.696 1468.07 726.065 1469.77 Q724.435 1471.47 723.126 1472.68 Q721.816 1473.9 718.877 1476.46 L713.516 1481.68 L722.632 1481.68 Q727.078 1481.68 727.424 1481.28 Q727.918 1480.57 728.536 1476.79 L729.82 1476.79 L728.387 1485.58 L709.613 1485.58 Z" fill="#000000" fill-rule="nonzero" fill-opacity="1" /><path clip-path="url(#clip310)" d="M734.366 1469.4 Q734.366 1461.96 736.243 1457.91 Q738.862 1451.88 745.037 1451.88 Q746.347 1451.88 747.705 1452.26 Q749.089 1452.6 750.818 1453.96 Q752.572 1455.32 753.634 1457.54 Q755.66 1461.84 755.66 1469.4 Q755.66 1476.79 753.782 1480.81 Q751.04 1486.69 744.988 1486.69 Q742.715 1486.69 740.393 1485.53 Q738.096 1484.37 736.638 1481.58 Q734.366 1477.4 734.366 1469.4 M738.565 1468.78 Q738.565 1476.41 739.109 1479.45 Q739.726 1482.74 741.406 1484.17 Q743.111 1485.58 744.988 1485.58 Q747.014 1485.58 748.694 1484.07 Q750.398 1482.54 750.917 1479.26 Q751.485 1476.02 751.46 1468.78 Q751.46 1461.74 750.966 1458.92 Q750.299 1455.64 748.521 1454.33 Q746.767 1453 744.988 1453 Q744.321 1453 743.605 1453.19 Q742.913 1453.39 741.9 1453.96 Q740.887 1454.53 740.097 1455.94 Q739.331 1457.34 738.96 1459.47 Q738.565 1462.21 738.565 1468.78 Z" fill="#000000" fill-rule="nonzero" fill-opacity="1" /><path clip-path="url(#clip310)" d="M1146.01 1469.4 Q1146.01 1461.96 1147.89 1457.91 Q1150.5 1451.88 1156.68 1451.88 Q1157.99 1451.88 1159.35 1452.26 Q1160.73 1452.6 1162.46 1453.96 Q1164.21 1455.32 1165.28 1457.54 Q1167.3 1461.84 1167.3 1469.4 Q1167.3 1476.79 1165.42 1480.81 Q1162.68 1486.69 1156.63 1486.69 Q1154.36 1486.69 1152.04 1485.53 Q1149.74 1484.37 1148.28 1481.58 Q1146.01 1477.4 1146.01 1469.4 M1150.21 1468.78 Q1150.21 1476.41 1150.75 1479.45 Q1151.37 1482.74 1153.05 1484.17 Q1154.75 1485.58 1156.63 1485.58 Q1158.66 1485.58 1160.34 1484.07 Q1162.04 1482.54 1162.56 1479.26 Q1163.13 1476.02 1163.1 1468.78 Q1163.1 1461.74 1162.61 1458.92 Q1161.94 1455.64 1160.16 1454.33 Q1158.41 1453 1156.63 1453 Q1155.96 1453 1155.25 1453.19 Q1154.56 1453.39 1153.54 1453.96 Q1152.53 1454.53 1151.74 1455.94 Q1150.97 1457.34 1150.6 1459.47 Q1150.21 1462.21 1150.21 1468.78 Z" fill="#000000" fill-rule="nonzero" fill-opacity="1" /><path clip-path="url(#clip310)" d="M1577.17 1485.58 Q1577.17 1484.67 1577.24 1484.39 Q1577.34 1484.12 1577.73 1483.7 L1587.44 1472.88 Q1592.75 1466.9 1592.75 1461.69 Q1592.75 1458.31 1590.97 1455.89 Q1589.22 1453.47 1585.98 1453.47 Q1583.76 1453.47 1581.88 1454.82 Q1580.01 1456.18 1579.14 1458.6 Q1579.29 1458.55 1579.81 1458.55 Q1581.07 1458.55 1581.76 1459.34 Q1582.48 1460.14 1582.48 1461.2 Q1582.48 1462.56 1581.59 1463.22 Q1580.72 1463.87 1579.86 1463.87 Q1579.51 1463.87 1579.04 1463.79 Q1578.6 1463.72 1577.88 1463.03 Q1577.17 1462.31 1577.17 1461.05 Q1577.17 1457.52 1579.83 1454.7 Q1582.53 1451.88 1586.63 1451.88 Q1591.27 1451.88 1594.31 1454.65 Q1597.37 1457.39 1597.37 1461.69 Q1597.37 1463.2 1596.9 1464.58 Q1596.46 1465.94 1595.84 1467 Q1595.25 1468.07 1593.62 1469.77 Q1591.99 1471.47 1590.68 1472.68 Q1589.37 1473.9 1586.43 1476.46 L1581.07 1481.68 L1590.18 1481.68 Q1594.63 1481.68 1594.98 1481.28 Q1595.47 1480.57 1596.09 1476.79 L1597.37 1476.79 L1595.94 1485.58 L1577.17 1485.58 Z" fill="#000000" fill-rule="nonzero" fill-opacity="1" /><path clip-path="url(#clip310)" d="M1601.92 1469.4 Q1601.92 1461.96 1603.8 1457.91 Q1606.41 1451.88 1612.59 1451.88 Q1613.9 1451.88 1615.26 1452.26 Q1616.64 1452.6 1618.37 1453.96 Q1620.12 1455.32 1621.19 1457.54 Q1623.21 1461.84 1623.21 1469.4 Q1623.21 1476.79 1621.34 1480.81 Q1618.59 1486.69 1612.54 1486.69 Q1610.27 1486.69 1607.95 1485.53 Q1605.65 1484.37 1604.19 1481.58 Q1601.92 1477.4 1601.92 1469.4 M1606.12 1468.78 Q1606.12 1476.41 1606.66 1479.45 Q1607.28 1482.74 1608.96 1484.17 Q1610.66 1485.58 1612.54 1485.58 Q1614.57 1485.58 1616.25 1484.07 Q1617.95 1482.54 1618.47 1479.26 Q1619.04 1476.02 1619.01 1468.78 Q1619.01 1461.74 1618.52 1458.92 Q1617.85 1455.64 1616.07 1454.33 Q1614.32 1453 1612.54 1453 Q1611.87 1453 1611.16 1453.19 Q1610.47 1453.39 1609.45 1453.96 Q1608.44 1454.53 1607.65 1455.94 Q1606.88 1457.34 1606.51 1459.47 Q1606.12 1462.21 1606.12 1468.78 Z" fill="#000000" fill-rule="nonzero" fill-opacity="1" /><path clip-path="url(#clip310)" d="M2020.14 1477.23 L2020.14 1475.67 L2035.68 1451.93 Q2036.08 1451.32 2036.7 1451.34 Q2037.26 1451.34 2037.39 1451.56 Q2037.51 1451.79 2037.51 1452.65 L2037.51 1475.67 L2042.57 1475.67 L2042.57 1477.23 L2037.51 1477.23 L2037.51 1481.63 Q2037.51 1483.08 2038.1 1483.55 Q2038.72 1484.02 2041.34 1484.02 L2042.4 1484.02 L2042.4 1485.58 Q2040.33 1485.43 2035.53 1485.43 Q2030.77 1485.43 2028.69 1485.58 L2028.69 1484.02 L2029.75 1484.02 Q2032.37 1484.02 2032.99 1483.58 Q2033.61 1483.11 2033.61 1481.63 L2033.61 1477.23 L2020.14 1477.23 M2021.58 1475.67 L2033.9 1475.67 L2033.9 1456.8 L2021.58 1475.67 Z" fill="#000000" fill-rule="nonzero" fill-opacity="1" /><path clip-path="url(#clip310)" d="M2046.01 1469.4 Q2046.01 1461.96 2047.89 1457.91 Q2050.5 1451.88 2056.68 1451.88 Q2057.99 1451.88 2059.35 1452.26 Q2060.73 1452.6 2062.46 1453.96 Q2064.21 1455.32 2065.28 1457.54 Q2067.3 1461.84 2067.3 1469.4 Q2067.3 1476.79 2065.43 1480.81 Q2062.68 1486.69 2056.63 1486.69 Q2054.36 1486.69 2052.04 1485.53 Q2049.74 1484.37 2048.28 1481.58 Q2046.01 1477.4 2046.01 1469.4 M2050.21 1468.78 Q2050.21 1476.41 2050.75 1479.45 Q2051.37 1482.74 2053.05 1484.17 Q2054.75 1485.58 2056.63 1485.58 Q2058.66 1485.58 2060.34 1484.07 Q2062.04 1482.54 2062.56 1479.26 Q2063.13 1476.02 2063.1 1468.78 Q2063.1 1461.74 2062.61 1458.92 Q2061.94 1455.64 2060.16 1454.33 Q2058.41 1453 2056.63 1453 Q2055.96 1453 2055.25 1453.19 Q2054.56 1453.39 2053.54 1453.96 Q2052.53 1454.53 2051.74 1455.94 Q2050.97 1457.34 2050.6 1459.47 Q2050.21 1462.21 2050.21 1468.78 Z" fill="#000000" fill-rule="nonzero" fill-opacity="1" /><path clip-path="url(#clip310)" d="M1270.66 1528.17 Q1270.66 1529.07 1270.24 1529.3 Q1269.82 1529.49 1268.66 1529.49 L1262.48 1529.49 L1257.59 1548.94 Q1257.2 1550.65 1257.2 1552.1 Q1257.2 1553.71 1257.68 1554.42 Q1258.2 1555.13 1259.26 1555.13 Q1261.35 1555.13 1263.61 1553.23 Q1265.9 1551.33 1267.83 1546.69 Q1268.09 1546.08 1268.21 1545.95 Q1268.38 1545.79 1268.79 1545.79 Q1269.6 1545.79 1269.6 1546.43 Q1269.6 1546.66 1269.15 1547.69 Q1268.73 1548.72 1267.8 1550.23 Q1266.89 1551.75 1265.7 1553.16 Q1264.54 1554.58 1262.77 1555.61 Q1261 1556.61 1259.1 1556.61 Q1256.43 1556.61 1254.72 1554.9 Q1253.05 1553.19 1253.05 1550.52 Q1253.05 1549.65 1253.72 1546.88 Q1254.4 1544.08 1258.07 1529.49 L1252.24 1529.49 Q1251.43 1529.49 1251.11 1529.46 Q1250.82 1529.43 1250.6 1529.27 Q1250.4 1529.07 1250.4 1528.69 Q1250.4 1528.07 1250.66 1527.82 Q1250.92 1527.53 1251.24 1527.49 Q1251.6 1527.43 1252.4 1527.43 L1258.58 1527.43 L1261.16 1516.96 Q1261.42 1515.93 1262.06 1515.35 Q1262.74 1514.74 1263.13 1514.68 Q1263.51 1514.58 1263.8 1514.58 Q1264.67 1514.58 1265.19 1515.06 Q1265.7 1515.51 1265.7 1516.35 Q1265.7 1516.8 1263 1527.43 L1268.79 1527.43 Q1269.53 1527.43 1269.82 1527.46 Q1270.15 1527.49 1270.4 1527.66 Q1270.66 1527.82 1270.66 1528.17 Z" fill="#000000" fill-rule="nonzero" fill-opacity="1" /><path clip-path="url(#clip310)" d="M1291.41 1572.36 L1291.41 1506.4 L1301.36 1506.4 L1301.36 1507.91 L1295.82 1507.91 L1295.82 1570.84 L1301.36 1570.84 L1301.36 1572.36 L1291.41 1572.36 Z" fill="#000000" fill-rule="nonzero" fill-opacity="1" /><path clip-path="url(#clip310)" d="M1328.3 1532.39 Q1328.3 1534.19 1327.4 1535.16 Q1326.49 1536.09 1325.27 1536.09 Q1324.27 1536.09 1323.72 1535.51 Q1323.21 1534.93 1323.21 1534.16 Q1323.21 1533.03 1324.11 1532.13 Q1325.04 1531.23 1326.4 1531.2 Q1325.95 1530.01 1324.75 1529.3 Q1323.56 1528.56 1322.5 1528.36 Q1321.47 1528.17 1320.44 1528.17 Q1318.41 1528.17 1316.86 1528.81 Q1315.32 1529.46 1314.55 1530.46 Q1313.77 1531.42 1313.42 1532.36 Q1313.06 1533.29 1313.06 1534.1 Q1313.06 1534.81 1313.23 1535.38 Q1313.42 1535.93 1313.87 1536.35 Q1314.32 1536.74 1314.64 1537 Q1315 1537.25 1315.77 1537.48 Q1316.54 1537.7 1316.86 1537.8 Q1317.19 1537.86 1318.09 1538.06 Q1319.96 1538.44 1320.79 1538.67 Q1321.63 1538.86 1322.73 1539.41 Q1323.85 1539.96 1324.69 1540.83 Q1326.72 1542.86 1326.72 1545.66 Q1326.72 1546.69 1326.37 1547.95 Q1326.04 1549.2 1325.11 1550.78 Q1324.18 1552.36 1322.76 1553.61 Q1321.34 1554.87 1318.89 1555.74 Q1316.48 1556.61 1313.45 1556.61 Q1309.23 1556.61 1306.62 1554.84 Q1304.01 1553.03 1304.01 1550.2 Q1304.01 1548.14 1305.14 1547.01 Q1306.27 1545.85 1307.72 1545.85 Q1308.81 1545.85 1309.49 1546.46 Q1310.17 1547.04 1310.17 1548.14 Q1310.17 1549.62 1308.97 1550.75 Q1307.78 1551.87 1306.01 1551.65 Q1307.52 1555.13 1313.51 1555.13 Q1315.77 1555.13 1317.51 1554.55 Q1319.28 1553.94 1320.25 1553.1 Q1321.24 1552.23 1321.89 1551.17 Q1322.53 1550.1 1322.73 1549.3 Q1322.95 1548.49 1322.95 1547.88 Q1322.95 1546.82 1322.53 1546.01 Q1322.11 1545.21 1321.53 1544.76 Q1320.99 1544.27 1319.92 1543.89 Q1318.89 1543.47 1318.15 1543.31 Q1317.41 1543.15 1316.09 1542.89 Q1315.48 1542.76 1315.09 1542.7 Q1314.71 1542.6 1313.9 1542.34 Q1313.13 1542.05 1312.58 1541.76 Q1312.07 1541.47 1311.39 1540.96 Q1310.71 1540.44 1310.29 1539.83 Q1309.88 1539.22 1309.59 1538.32 Q1309.3 1537.41 1309.3 1536.35 Q1309.3 1535.38 1309.59 1534.23 Q1309.91 1533.07 1310.71 1531.71 Q1311.55 1530.36 1312.74 1529.27 Q1313.93 1528.17 1315.93 1527.46 Q1317.96 1526.72 1320.44 1526.72 Q1324.05 1526.72 1326.17 1528.4 Q1328.3 1530.04 1328.3 1532.39 Z" fill="#000000" fill-rule="nonzero" fill-opacity="1" /><path clip-path="url(#clip310)" d="M1333.05 1570.84 L1338.59 1570.84 L1338.59 1507.91 L1333.05 1507.91 L1333.05 1506.4 L1343 1506.4 L1343 1572.36 L1333.05 1572.36 L1333.05 1570.84 Z" fill="#000000" fill-rule="nonzero" fill-opacity="1" /><polyline clip-path="url(#clip312)" style="stroke:#000000; stroke-linecap:round; stroke-linejoin:round; stroke-width:2; stroke-opacity:0.1; fill:none" points="248.851,1154.84 2352.76,1154.84 "/>
<polyline clip-path="url(#clip312)" style="stroke:#000000; stroke-linecap:round; stroke-linejoin:round; stroke-width:2; stroke-opacity:0.1; fill:none" points="248.851,852.77 2352.76,852.77 "/>
<polyline clip-path="url(#clip312)" style="stroke:#000000; stroke-linecap:round; stroke-linejoin:round; stroke-width:2; stroke-opacity:0.1; fill:none" points="248.851,550.696 2352.76,550.696 "/>
<polyline clip-path="url(#clip312)" style="stroke:#000000; stroke-linecap:round; stroke-linejoin:round; stroke-width:2; stroke-opacity:0.1; fill:none" points="248.851,248.623 2352.76,248.623 "/>
<polyline clip-path="url(#clip310)" style="stroke:#000000; stroke-linecap:round; stroke-linejoin:round; stroke-width:4; stroke-opacity:1; fill:none" points="248.851,1423.18 248.851,47.2441 "/>
<polyline clip-path="url(#clip310)" style="stroke:#000000; stroke-linecap:round; stroke-linejoin:round; stroke-width:4; stroke-opacity:1; fill:none" points="248.851,1154.84 267.749,1154.84 "/>
<polyline clip-path="url(#clip310)" style="stroke:#000000; stroke-linecap:round; stroke-linejoin:round; stroke-width:4; stroke-opacity:1; fill:none" points="248.851,852.77 267.749,852.77 "/>
<polyline clip-path="url(#clip310)" style="stroke:#000000; stroke-linecap:round; stroke-linejoin:round; stroke-width:4; stroke-opacity:1; fill:none" points="248.851,550.696 267.749,550.696 "/>
<polyline clip-path="url(#clip310)" style="stroke:#000000; stroke-linecap:round; stroke-linejoin:round; stroke-width:4; stroke-opacity:1; fill:none" points="248.851,248.623 267.749,248.623 "/>
<path clip-path="url(#clip310)" d="M147.659 1158.76 Q147.956 1159.06 147.956 1159.48 Q147.956 1159.9 147.659 1160.19 Q147.363 1160.49 146.943 1160.49 L115.273 1160.49 Q114.853 1160.49 114.557 1160.19 Q114.26 1159.9 114.26 1159.48 Q114.26 1159.06 114.557 1158.76 Q114.853 1158.46 115.273 1158.46 L146.943 1158.46 Q147.363 1158.46 147.659 1158.76 Z" fill="#000000" fill-rule="nonzero" fill-opacity="1" /><path clip-path="url(#clip310)" d="M153.291 1172.12 Q153.291 1171.21 153.366 1170.94 Q153.464 1170.67 153.86 1170.25 L163.568 1159.43 Q168.879 1153.45 168.879 1148.24 Q168.879 1144.85 167.101 1142.43 Q165.347 1140.01 162.111 1140.01 Q159.887 1140.01 158.01 1141.37 Q156.132 1142.73 155.268 1145.15 Q155.416 1145.1 155.935 1145.1 Q157.195 1145.1 157.886 1145.89 Q158.603 1146.68 158.603 1147.74 Q158.603 1149.1 157.713 1149.77 Q156.849 1150.41 155.984 1150.41 Q155.638 1150.41 155.169 1150.33 Q154.724 1150.26 154.008 1149.57 Q153.291 1148.85 153.291 1147.59 Q153.291 1144.06 155.959 1141.24 Q158.652 1138.43 162.753 1138.43 Q167.397 1138.43 170.436 1141.19 Q173.499 1143.94 173.499 1148.24 Q173.499 1149.74 173.029 1151.13 Q172.585 1152.48 171.967 1153.55 Q171.374 1154.61 169.744 1156.31 Q168.113 1158.02 166.804 1159.23 Q165.495 1160.44 162.555 1163.01 L157.195 1168.22 L166.31 1168.22 Q170.757 1168.22 171.103 1167.82 Q171.597 1167.11 172.214 1163.33 L173.499 1163.33 L172.066 1172.12 L153.291 1172.12 Z" fill="#000000" fill-rule="nonzero" fill-opacity="1" /><path clip-path="url(#clip310)" d="M181.132 1171.31 Q180.366 1170.49 180.366 1169.43 Q180.366 1168.37 181.132 1167.6 Q181.898 1166.81 183.059 1166.81 Q184.171 1166.81 184.912 1167.55 Q185.678 1168.27 185.678 1169.46 Q185.678 1170.62 184.862 1171.38 Q184.072 1172.12 183.059 1172.12 Q181.898 1172.12 181.132 1171.31 Z" fill="#000000" fill-rule="nonzero" fill-opacity="1" /><path clip-path="url(#clip310)" d="M192.644 1163.97 Q192.644 1162.46 193.459 1161.9 Q194.274 1161.3 195.139 1161.3 Q196.3 1161.3 196.967 1162.04 Q197.659 1162.76 197.659 1163.77 Q197.659 1164.79 196.967 1165.53 Q196.3 1166.24 195.139 1166.24 Q194.571 1166.24 194.274 1166.15 Q194.941 1168.47 196.967 1170.15 Q199.017 1171.83 201.71 1171.83 Q205.094 1171.83 207.12 1168.54 Q208.331 1166.42 208.331 1161.6 Q208.331 1157.35 207.417 1155.23 Q206.008 1151.99 203.118 1151.99 Q199.017 1151.99 196.596 1155.52 Q196.3 1155.97 195.954 1155.99 Q195.46 1155.99 195.337 1155.72 Q195.238 1155.42 195.238 1154.66 L195.238 1139.69 Q195.238 1138.48 195.732 1138.48 Q195.929 1138.48 196.349 1138.63 Q199.536 1140.03 203.069 1140.06 Q206.7 1140.06 209.961 1138.58 Q210.208 1138.43 210.356 1138.43 Q210.85 1138.43 210.875 1139 Q210.875 1139.19 210.455 1139.79 Q210.06 1140.35 209.195 1141.12 Q208.331 1141.86 207.219 1142.58 Q206.107 1143.29 204.477 1143.79 Q202.871 1144.26 201.092 1144.26 Q198.968 1144.26 196.794 1143.59 L196.794 1153.45 Q199.413 1150.88 203.217 1150.88 Q207.268 1150.88 210.06 1154.14 Q212.851 1157.4 212.851 1161.95 Q212.851 1166.71 209.541 1169.97 Q206.255 1173.23 201.809 1173.23 Q197.758 1173.23 195.188 1170.34 Q192.644 1167.45 192.644 1163.97 Z" fill="#000000" fill-rule="nonzero" fill-opacity="1" /><path clip-path="url(#clip310)" d="M152.205 853.869 Q152.205 846.433 154.082 842.382 Q156.701 836.354 162.876 836.354 Q164.186 836.354 165.544 836.725 Q166.928 837.071 168.657 838.429 Q170.411 839.788 171.473 842.011 Q173.499 846.31 173.499 853.869 Q173.499 861.255 171.621 865.282 Q168.879 871.161 162.827 871.161 Q160.554 871.161 158.232 870 Q155.935 868.839 154.477 866.048 Q152.205 861.873 152.205 853.869 M156.404 853.252 Q156.404 860.885 156.948 863.923 Q157.565 867.209 159.245 868.642 Q160.95 870.05 162.827 870.05 Q164.853 870.05 166.532 868.543 Q168.237 867.011 168.756 863.726 Q169.324 860.49 169.299 853.252 Q169.299 846.211 168.805 843.395 Q168.138 840.109 166.36 838.8 Q164.606 837.466 162.827 837.466 Q162.16 837.466 161.444 837.664 Q160.752 837.861 159.739 838.429 Q158.726 838.998 157.936 840.406 Q157.17 841.814 156.799 843.938 Q156.404 846.68 156.404 853.252 Z" fill="#000000" fill-rule="nonzero" fill-opacity="1" /><path clip-path="url(#clip310)" d="M180.589 869.235 Q179.823 868.419 179.823 867.357 Q179.823 866.295 180.589 865.529 Q181.354 864.739 182.516 864.739 Q183.627 864.739 184.368 865.48 Q185.134 866.196 185.134 867.382 Q185.134 868.543 184.319 869.309 Q183.528 870.05 182.516 870.05 Q181.354 870.05 180.589 869.235 Z" fill="#000000" fill-rule="nonzero" fill-opacity="1" /><path clip-path="url(#clip310)" d="M191.557 853.869 Q191.557 846.433 193.434 842.382 Q196.053 836.354 202.229 836.354 Q203.538 836.354 204.897 836.725 Q206.28 837.071 208.009 838.429 Q209.763 839.788 210.826 842.011 Q212.851 846.31 212.851 853.869 Q212.851 861.255 210.974 865.282 Q208.232 871.161 202.179 871.161 Q199.907 871.161 197.585 870 Q195.287 868.839 193.83 866.048 Q191.557 861.873 191.557 853.869 M195.757 853.252 Q195.757 860.885 196.3 863.923 Q196.918 867.209 198.597 868.642 Q200.302 870.05 202.179 870.05 Q204.205 870.05 205.885 868.543 Q207.589 867.011 208.108 863.726 Q208.676 860.49 208.652 853.252 Q208.652 846.211 208.158 843.395 Q207.491 840.109 205.712 838.8 Q203.958 837.466 202.179 837.466 Q201.512 837.466 200.796 837.664 Q200.104 837.861 199.091 838.429 Q198.079 838.998 197.288 840.406 Q196.522 841.814 196.152 843.938 Q195.757 846.68 195.757 853.252 Z" fill="#000000" fill-rule="nonzero" fill-opacity="1" /><path clip-path="url(#clip310)" d="M153.291 567.976 Q153.291 567.062 153.366 566.791 Q153.464 566.519 153.86 566.099 L163.568 555.279 Q168.879 549.301 168.879 544.088 Q168.879 540.704 167.101 538.283 Q165.347 535.862 162.111 535.862 Q159.887 535.862 158.01 537.221 Q156.132 538.579 155.268 541 Q155.416 540.951 155.935 540.951 Q157.195 540.951 157.886 541.741 Q158.603 542.532 158.603 543.594 Q158.603 544.953 157.713 545.62 Q156.849 546.262 155.984 546.262 Q155.638 546.262 155.169 546.188 Q154.724 546.114 154.008 545.422 Q153.291 544.706 153.291 543.446 Q153.291 539.913 155.959 537.097 Q158.652 534.281 162.753 534.281 Q167.397 534.281 170.436 537.048 Q173.499 539.79 173.499 544.088 Q173.499 545.595 173.029 546.978 Q172.585 548.337 171.967 549.399 Q171.374 550.462 169.744 552.166 Q168.113 553.871 166.804 555.081 Q165.495 556.292 162.555 558.861 L157.195 564.073 L166.31 564.073 Q170.757 564.073 171.103 563.678 Q171.597 562.961 172.214 559.182 L173.499 559.182 L172.066 567.976 L153.291 567.976 Z" fill="#000000" fill-rule="nonzero" fill-opacity="1" /><path clip-path="url(#clip310)" d="M181.132 567.161 Q180.366 566.346 180.366 565.284 Q180.366 564.221 181.132 563.456 Q181.898 562.665 183.059 562.665 Q184.171 562.665 184.912 563.406 Q185.678 564.123 185.678 565.308 Q185.678 566.469 184.862 567.235 Q184.072 567.976 183.059 567.976 Q181.898 567.976 181.132 567.161 Z" fill="#000000" fill-rule="nonzero" fill-opacity="1" /><path clip-path="url(#clip310)" d="M192.644 559.824 Q192.644 558.317 193.459 557.749 Q194.274 557.156 195.139 557.156 Q196.3 557.156 196.967 557.897 Q197.659 558.614 197.659 559.627 Q197.659 560.639 196.967 561.38 Q196.3 562.097 195.139 562.097 Q194.571 562.097 194.274 561.998 Q194.941 564.32 196.967 566 Q199.017 567.68 201.71 567.68 Q205.094 567.68 207.12 564.394 Q208.331 562.27 208.331 557.453 Q208.331 553.204 207.417 551.079 Q206.008 547.843 203.118 547.843 Q199.017 547.843 196.596 551.376 Q196.3 551.82 195.954 551.845 Q195.46 551.845 195.337 551.573 Q195.238 551.277 195.238 550.511 L195.238 535.541 Q195.238 534.33 195.732 534.33 Q195.929 534.33 196.349 534.479 Q199.536 535.887 203.069 535.911 Q206.7 535.911 209.961 534.429 Q210.208 534.281 210.356 534.281 Q210.85 534.281 210.875 534.849 Q210.875 535.047 210.455 535.64 Q210.06 536.208 209.195 536.974 Q208.331 537.715 207.219 538.431 Q206.107 539.147 204.477 539.642 Q202.871 540.111 201.092 540.111 Q198.968 540.111 196.794 539.444 L196.794 549.301 Q199.413 546.731 203.217 546.731 Q207.268 546.731 210.06 549.992 Q212.851 553.253 212.851 557.798 Q212.851 562.566 209.541 565.827 Q206.255 569.088 201.809 569.088 Q197.758 569.088 195.188 566.198 Q192.644 563.307 192.644 559.824 Z" fill="#000000" fill-rule="nonzero" fill-opacity="1" /><path clip-path="url(#clip310)" d="M152.748 257.751 Q152.748 256.244 153.563 255.676 Q154.378 255.083 155.243 255.083 Q156.404 255.083 157.071 255.824 Q157.763 256.54 157.763 257.553 Q157.763 258.566 157.071 259.307 Q156.404 260.023 155.243 260.023 Q154.675 260.023 154.378 259.925 Q155.045 262.247 157.071 263.926 Q159.121 265.606 161.814 265.606 Q165.198 265.606 167.224 262.321 Q168.435 260.196 168.435 255.379 Q168.435 251.13 167.521 249.006 Q166.113 245.77 163.222 245.77 Q159.121 245.77 156.701 249.302 Q156.404 249.747 156.058 249.771 Q155.564 249.771 155.441 249.5 Q155.342 249.203 155.342 248.437 L155.342 233.467 Q155.342 232.257 155.836 232.257 Q156.034 232.257 156.453 232.405 Q159.64 233.813 163.173 233.838 Q166.804 233.838 170.065 232.356 Q170.312 232.207 170.46 232.207 Q170.954 232.207 170.979 232.776 Q170.979 232.973 170.559 233.566 Q170.164 234.134 169.299 234.9 Q168.435 235.641 167.323 236.358 Q166.211 237.074 164.581 237.568 Q162.975 238.037 161.197 238.037 Q159.072 238.037 156.898 237.37 L156.898 247.227 Q159.517 244.658 163.321 244.658 Q167.372 244.658 170.164 247.919 Q172.955 251.18 172.955 255.725 Q172.955 260.493 169.645 263.754 Q166.36 267.014 161.913 267.014 Q157.862 267.014 155.292 264.124 Q152.748 261.234 152.748 257.751 Z" fill="#000000" fill-rule="nonzero" fill-opacity="1" /><path clip-path="url(#clip310)" d="M180.589 265.088 Q179.823 264.272 179.823 263.21 Q179.823 262.148 180.589 261.382 Q181.354 260.592 182.516 260.592 Q183.627 260.592 184.368 261.333 Q185.134 262.049 185.134 263.235 Q185.134 264.396 184.319 265.162 Q183.528 265.903 182.516 265.903 Q181.354 265.903 180.589 265.088 Z" fill="#000000" fill-rule="nonzero" fill-opacity="1" /><path clip-path="url(#clip310)" d="M191.557 249.722 Q191.557 242.286 193.434 238.235 Q196.053 232.207 202.229 232.207 Q203.538 232.207 204.897 232.578 Q206.28 232.924 208.009 234.282 Q209.763 235.641 210.826 237.864 Q212.851 242.163 212.851 249.722 Q212.851 257.108 210.974 261.135 Q208.232 267.014 202.179 267.014 Q199.907 267.014 197.585 265.853 Q195.287 264.692 193.83 261.901 Q191.557 257.726 191.557 249.722 M195.757 249.104 Q195.757 256.738 196.3 259.776 Q196.918 263.062 198.597 264.495 Q200.302 265.903 202.179 265.903 Q204.205 265.903 205.885 264.396 Q207.589 262.864 208.108 259.579 Q208.676 256.343 208.652 249.104 Q208.652 242.064 208.158 239.248 Q207.491 235.962 205.712 234.653 Q203.958 233.319 202.179 233.319 Q201.512 233.319 200.796 233.517 Q200.104 233.714 199.091 234.282 Q198.079 234.851 197.288 236.259 Q196.522 237.667 196.152 239.791 Q195.757 242.533 195.757 249.104 Z" fill="#000000" fill-rule="nonzero" fill-opacity="1" /><path clip-path="url(#clip310)" d="M82.5735 778.475 L16.6159 778.475 L16.6159 768.523 L18.1296 768.523 L18.1296 774.063 L81.0598 774.063 L81.0598 768.523 L82.5735 768.523 L82.5735 778.475 Z" fill="#000000" fill-rule="nonzero" fill-opacity="1" /><path clip-path="url(#clip310)" d="M56.6478 713.147 Q56.9054 713.147 57.9038 713.437 Q58.9022 713.727 60.4481 714.436 Q61.994 715.112 63.411 716.078 Q64.7959 717.012 65.8264 718.558 Q66.8248 720.072 66.8248 721.811 Q66.8248 724.129 65.2789 725.675 Q63.7331 727.221 61.4142 727.221 Q60.1582 727.221 57.775 726.352 Q46.8894 722.262 42.9925 722.262 Q38.3871 722.262 38.3871 725.836 Q38.3871 727.865 39.2244 729.701 Q40.0618 731.537 41.2212 732.728 Q42.3806 733.92 43.701 734.854 Q45.0215 735.788 45.891 736.207 Q46.7606 736.593 47.147 736.69 L63.0567 740.651 Q64.4094 740.973 65.0535 741.199 Q65.6976 741.424 66.2451 742.036 Q66.8248 742.648 66.8248 743.614 Q66.8248 744.419 66.3417 744.999 Q65.8587 745.546 65.0213 745.546 Q64.8925 745.546 64.2162 745.385 Q63.5398 745.224 62.6059 744.999 Q61.6719 744.773 61.1244 744.677 Q56.7444 743.517 56.1325 743.356 L48.4675 741.521 Q44.6672 740.522 42.9925 740.522 Q38.3871 740.522 38.3871 744.097 Q38.3871 745.868 39.0634 747.543 Q39.7075 749.186 40.6093 750.313 Q41.511 751.44 42.7671 752.471 Q43.9909 753.469 44.8282 753.984 Q45.6334 754.467 46.4385 754.854 L49.7235 755.691 Q50.6253 755.884 54.1357 756.818 L60.0938 758.268 Q64.5382 759.298 64.9569 759.524 Q65.8587 759.846 66.3417 760.554 Q66.8248 761.263 66.8248 761.971 Q66.8248 762.777 66.3417 763.324 Q65.8587 763.872 65.0213 763.872 Q64.8925 763.872 64.4094 763.775 Q63.9263 763.678 63.25 763.517 Q62.5737 763.356 62.1872 763.292 L46.9538 759.459 Q44.1841 758.751 43.3146 758.59 Q42.4128 758.397 41.4144 758.397 Q38.3871 758.397 38.3871 760.458 Q38.3871 762.132 40.3838 763.227 Q42.3806 764.322 46.2453 765.256 Q47.3081 765.546 47.5335 765.739 Q47.759 765.9 47.759 766.384 Q47.7268 767.189 47.0826 767.189 Q46.9216 767.189 45.891 766.931 Q44.8604 766.673 43.3146 766.19 Q41.7365 765.675 40.7059 765.128 Q40.0296 764.805 39.5787 764.516 Q39.1278 764.226 38.4193 763.646 Q37.7107 763.066 37.3243 762.197 Q36.9378 761.327 36.9378 760.264 Q36.9378 757.913 38.4515 756.174 Q39.9651 754.403 42.6704 754.178 Q36.9378 749.894 36.9378 743.904 Q36.9378 740.522 38.6447 738.493 Q40.2872 736.593 43.3146 736.368 Q36.9378 731.923 36.9378 725.611 Q36.9378 721.972 38.8379 720.007 Q40.7059 718.043 43.9909 718.043 Q45.6978 718.043 48.9506 718.912 Q52.1712 719.782 53.7815 720.361 Q55.3917 720.941 58.4835 722.068 Q61.4465 723.26 63.1856 723.26 Q64.3128 723.26 64.8281 722.873 Q65.3434 722.487 65.3434 721.65 Q65.3434 720.361 64.6026 719.234 Q63.8297 718.107 62.5737 717.302 Q61.2854 716.464 59.9972 715.917 Q58.6767 715.369 57.1953 714.951 Q56.3901 714.693 56.1969 714.564 Q56.0037 714.403 56.0037 713.952 Q56.0037 713.147 56.6478 713.147 Z" fill="#000000" fill-rule="nonzero" fill-opacity="1" /><path clip-path="url(#clip310)" d="M81.0598 710.099 L81.0598 704.56 L18.1296 704.56 L18.1296 710.099 L16.6159 710.099 L16.6159 700.148 L82.5735 700.148 L82.5735 710.099 L81.0598 710.099 Z" fill="#000000" fill-rule="nonzero" fill-opacity="1" /><polyline clip-path="url(#clip312)" style="stroke:#ba3d3a; stroke-linecap:round; stroke-linejoin:round; stroke-width:8; stroke-opacity:1; fill:none" points="308.396,854.815 311.168,840.963 313.94,828.089 316.712,816.352 319.484,805.824 322.256,796.662 325.028,788.888 327.8,782.544 330.572,777.351 333.345,773.537 336.117,770.842 338.889,769.542 341.661,769.433 344.433,770.539 347.205,772.942 349.977,776.38 352.749,780.608 355.521,785.177 358.293,790.016 361.065,794.8 363.838,799.267 366.61,803.207 369.382,806.49 372.154,808.711 374.926,809.759 377.698,809.458 380.47,807.899 383.242,805.034 386.014,801.128 388.786,796.391 391.558,791.032 394.33,785.145 397.103,778.886 399.875,772.384 402.647,765.956 405.419,759.865 408.191,754.475 410.963,749.967 413.735,746.532 416.507,744.261 419.279,743.285 422.051,743.702 424.823,745.631 427.596,749.206 430.368,754.566 433.14,761.705 435.912,770.54 438.684,780.855 441.456,792.366 444.228,804.674 447,817.495 449.772,830.642 452.544,843.842 455.316,856.859 458.089,869.501 460.861,881.62 463.633,893 466.405,903.421 469.177,912.877 471.949,921.286 474.721,928.649 477.493,934.981 480.265,940.258 483.037,944.435 485.809,947.448 488.582,949.248 491.354,949.952 494.126,949.75 496.898,948.795 499.67,947.323 502.442,945.483 505.214,943.58 507.986,941.725 510.758,940.06 513.53,938.616 516.302,937.431 519.074,936.377 521.847,935.288 524.619,933.993 527.391,932.29 530.163,930.053 532.935,927.2 535.707,923.765 538.479,919.881 541.251,915.665 544.023,911.323 546.795,906.96 549.567,902.635 552.34,898.351 555.112,894.061 557.884,889.718 560.656,885.27 563.428,880.792 566.2,876.404 568.972,872.251 571.744,868.411 574.516,865.008 577.288,862.046 580.06,859.558 582.833,857.605 585.605,856.334 588.377,855.924 591.149,856.536 593.921,858.238 596.693,861.02 599.465,864.783 602.237,869.46 605.009,874.947 607.781,881.121 610.553,887.928 613.326,895.241 616.098,902.821 618.87,910.477 621.642,917.737 624.414,924.154 627.186,929.343 629.958,932.777 632.73,934.122 635.502,933.016 638.274,929.33 641.046,922.946 643.819,913.875 646.591,902.084 649.363,887.583 652.135,870.485 654.907,851.008 657.679,829.279 660.451,805.586 663.223,780.021 665.995,752.869 668.767,724.607 671.539,695.774 674.311,666.965 677.084,638.677 679.856,611.372 682.628,585.427 685.4,561.188 688.172,538.974 690.944,519.203 693.716,502.415 696.488,489.292 699.26,480.545 702.032,476.832 704.804,478.68 707.577,486.28 710.349,499.526 713.121,518.013 715.893,541.234 718.665,568.637 721.437,599.792 724.209,634.598 726.981,673.065 729.753,715.289 732.525,761.04 735.297,809.805 738.07,860.643 740.842,912.321 743.614,963.564 746.386,1013.17 749.158,1060.27 751.93,1104.28 754.702,1144.87 757.474,1181.9 760.246,1215.15 763.018,1244.54 765.79,1269.75 768.563,1290.46 771.335,1306.32 774.107,1317.05 776.879,1322.6 779.651,1322.97 782.423,1318.42 785.195,1309.27 787.967,1295.79 790.739,1278.36 793.511,1257.21 796.283,1232.58 799.055,1204.62 801.828,1173.72 804.6,1140.11 807.372,1104.27 810.144,1066.5 812.916,1027.42 815.688,987.353 818.46,946.743 821.232,906.07 824.004,865.604 826.776,825.672 829.548,786.601 832.321,748.814 835.093,712.814 837.865,678.786 840.637,647.137 843.409,617.971 846.181,591.465 848.953,567.634 851.725,546.428 854.497,527.838 857.269,511.868 860.041,498.715 862.814,488.742 865.586,482.336 868.358,479.913 871.13,481.637 873.902,487.628 876.674,497.774 879.446,511.977 882.218,529.998 884.99,551.665 887.762,576.778 890.534,605.165 893.307,636.482 896.079,670.304 898.851,705.983 901.623,742.861 904.395,780.004 907.167,816.562 909.939,851.692 912.711,884.693 915.483,914.974 918.255,942.134 921.027,966.004 923.799,986.454 926.572,1003.26 929.344,1016.36 932.116,1025.55 934.888,1030.79 937.66,1032 940.432,1029.49 943.204,1023.62 945.976,1014.71 948.748,1003.37 951.52,990.002 954.292,975.118 957.065,958.92 959.837,941.932 962.609,924.426 965.381,906.647 968.153,889.014 970.925,871.633 973.697,854.771 976.469,838.494 979.241,823.089 982.013,808.713 984.785,795.659 987.558,784.123 990.33,774.18 993.102,765.834 995.874,759.117 998.646,754.177 1001.42,751.306 1004.19,750.793 1006.96,752.654 1009.73,756.606 1012.51,762.163 1015.28,768.944 1018.05,776.821 1020.82,786.005 1023.59,797.013 1026.37,810.123 1029.14,825.351 1031.91,842.316 1034.68,860.612 1037.46,879.976 1040.23,900.685 1043,923.579 1045.77,949.757 1048.54,979.884 1051.32,1013.83 1054.09,1050.18 1056.86,1087.08 1059.63,1122.78 1062.4,1156.32 1065.18,1187.72 1067.95,1217.74 1070.72,1246.81 1073.49,1274.54 1076.26,1299.25 1079.04,1319 1081.81,1331.53 1084.58,1335.47 1087.35,1329.78 1090.12,1314.14 1092.9,1289.34 1095.67,1257.69 1098.44,1222.53 1101.21,1185.75 1103.99,1148.66 1106.76,1107.89 1109.53,1051.03 1112.3,974.096 1115.07,899.225 1117.85,826.393 1120.62,758.765 1123.39,696.18 1126.16,629.842 1128.93,567.078 1131.71,507.263 1134.48,451.107 1137.25,396.585 1140.02,342.094 1142.79,286.556 1145.57,230.526 1148.34,177.548 1151.11,133.501 1153.88,103.646 1156.65,91.3338 1159.43,95.6511 1162.2,112.933 1164.97,138.185 1167.74,167.545 1170.52,198.854 1173.29,232.522 1176.06,268.795 1178.83,309.749 1181.6,356.772 1184.38,408.864 1187.15,465.123 1189.92,524.545 1192.69,585.33 1195.46,646.294 1198.24,706.501 1201.01,765.274 1203.78,822.347 1206.55,877.535 1209.32,930.759 1212.1,981.796 1214.87,1030.45 1217.64,1076.39 1220.41,1119.49 1223.19,1159.54 1225.96,1196.55 1228.73,1230.47 1231.5,1261.36 1234.27,1289.04 1237.05,1313.56 1239.82,1334.78 1242.59,1352.57 1245.36,1366.61 1248.13,1376.68 1250.91,1382.66 1253.68,1384.24 1256.45,1381.35 1259.22,1374.08 1261.99,1362.68 1264.77,1347.44 1267.54,1328.75 1270.31,1307.25 1273.08,1283.25 1275.85,1257.09 1278.63,1229.2 1281.4,1199.76 1284.17,1169.05 1286.94,1137.41 1289.72,1105.25 1292.49,1072.92 1295.26,1040.65 1298.03,1008.62 1300.8,976.862 1303.58,945.494 1306.35,914.761 1309.12,884.854 1311.89,856.044 1314.66,828.491 1317.44,802.27 1320.21,777.319 1322.98,753.576 1325.75,731.01 1328.52,709.732 1331.3,689.896 1334.07,671.735 1336.84,655.457 1339.61,641.271 1342.38,629.3 1345.16,619.467 1347.93,611.613 1350.7,605.508 1353.47,600.979 1356.25,597.94 1359.02,596.263 1361.79,595.956 1364.56,596.974 1367.33,599.315 1370.11,602.929 1372.88,607.634 1375.65,613.381 1378.42,620.064 1381.19,627.666 1383.97,636.161 1386.74,645.515 1389.51,655.766 1392.28,666.736 1395.05,678.276 1397.83,690.299 1400.6,702.589 1403.37,714.959 1406.14,727.153 1408.92,738.843 1411.69,749.775 1414.46,759.593 1417.23,768.426 1420,776.219 1422.78,783.183 1425.55,789.483 1428.32,795.316 1431.09,800.908 1433.86,806.196 1436.64,811.338 1439.41,816.304 1442.18,821.169 1444.95,826.148 1447.72,831.193 1450.5,836.415 1453.27,841.673 1456.04,846.942 1458.81,852.142 1461.58,857.259 1464.36,862.379 1467.13,867.665 1469.9,873.253 1472.67,879.317 1475.45,885.896 1478.22,893.06 1480.99,900.768 1483.76,908.928 1486.53,917.404 1489.31,926.066 1492.08,934.806 1494.85,943.535 1497.62,952.155 1500.39,960.666 1503.17,969.041 1505.94,977.285 1508.71,985.276 1511.48,992.879 1514.25,999.953 1517.03,1006.38 1519.8,1012.1 1522.57,1017.08 1525.34,1021.38 1528.11,1024.97 1530.89,1027.77 1533.66,1029.59 1536.43,1030.34 1539.2,1030.01 1541.98,1028.74 1544.75,1026.71 1547.52,1024.06 1550.29,1020.87 1553.06,1017.15 1555.84,1012.91 1558.61,1008.18 1561.38,1002.58 1564.15,996.273 1566.92,989.213 1569.7,981.283 1572.47,972.846 1575.24,963.554 1578.01,953.314 1580.78,942.5 1583.56,931.305 1586.33,919.717 1589.1,908.125 1591.87,896.165 1594.65,883.714 1597.42,870.969 1600.19,857.421 1602.96,842.77 1605.73,827.072 1608.51,810.493 1611.28,793.003 1614.05,774.712 1616.82,755.884 1619.59,736.967 1622.37,718.205 1625.14,699.929 1627.91,682.279 1630.68,665.384 1633.45,649.327 1636.23,634.034 1639,619.529 1641.77,605.876 1644.54,593.23 1647.31,581.786 1650.09,571.759 1652.86,563.453 1655.63,557.076 1658.4,552.818 1661.18,550.914 1663.95,551.486 1666.72,554.644 1669.49,560.4 1672.26,568.699 1675.04,579.518 1677.81,592.608 1680.58,607.854 1683.35,625.021 1686.12,644.006 1688.9,664.687 1691.67,686.927 1694.44,710.51 1697.21,735.236 1699.98,760.768 1702.76,786.897 1705.53,813.216 1708.3,839.591 1711.07,865.771 1713.84,891.69 1716.62,917.208 1719.39,942.238 1722.16,966.751 1724.93,990.624 1727.71,1013.75 1730.48,1035.99 1733.25,1057.35 1736.02,1077.89 1738.79,1097.49 1741.57,1116.28 1744.34,1134.18 1747.11,1151.33 1749.88,1167.43 1752.65,1182.42 1755.43,1196.12 1758.2,1208.48 1760.97,1219.41 1763.74,1228.69 1766.51,1236.33 1769.29,1242.01 1772.06,1245.55 1774.83,1246.7 1777.6,1245.34 1780.37,1241.3 1783.15,1234.44 1785.92,1224.65 1788.69,1211.82 1791.46,1195.7 1794.24,1176.28 1797.01,1153.45 1799.78,1127.27 1802.55,1097.79 1805.32,1065.2 1808.1,1029.71 1810.87,991.591 1813.64,951.18 1816.41,908.927 1819.18,865.24 1821.96,820.647 1824.73,775.62 1827.5,730.693 1830.27,686.352 1833.04,642.965 1835.82,600.847 1838.59,560.288 1841.36,521.519 1844.13,484.883 1846.91,450.613 1849.68,419.072 1852.45,390.558 1855.22,365.517 1857.99,344.477 1860.77,327.674 1863.54,315.494 1866.31,308.225 1869.08,305.928 1871.85,308.465 1874.63,315.453 1877.4,326.744 1880.17,341.822 1882.94,360.329 1885.71,381.956 1888.49,406.405 1891.26,433.612 1894.03,463.4 1896.8,495.55 1899.57,529.911 1902.35,566.332 1905.12,604.562 1907.89,644.362 1910.66,685.342 1913.44,727.318 1916.21,769.899 1918.98,812.819 1921.75,855.709 1924.52,898.36 1927.3,940.597 1930.07,982.147 1932.84,1022.76 1935.61,1062.12 1938.38,1099.78 1941.16,1135.5 1943.93,1169.03 1946.7,1200.28 1949.47,1229 1952.24,1255.24 1955.02,1278.92 1957.79,1299.93 1960.56,1318.04 1963.33,1333.15 1966.1,1345.23 1968.88,1354.2 1971.65,1360.03 1974.42,1362.68 1977.19,1362.08 1979.97,1358.22 1982.74,1350.97 1985.51,1340.37 1988.28,1326.36 1991.05,1309.04 1993.83,1288.53 1996.6,1265 1999.37,1238.73 2002.14,1210.01 2004.91,1179.13 2007.69,1146.39 2010.46,1112.05 2013.23,1076.42 2016,1039.62 2018.77,1001.87 2021.55,963.315 2024.32,924.163 2027.09,884.563 2029.86,844.74 2032.64,804.967 2035.41,765.505 2038.18,726.66 2040.95,688.798 2043.72,652.354 2046.5,617.814 2049.27,585.503 2052.04,555.631 2054.81,528.046 2057.58,502.768 2060.36,479.715 2063.13,459.031 2065.9,440.887 2068.67,425.28 2071.44,412.338 2074.22,402.149 2076.99,395.081 2079.76,391.578 2082.53,391.957 2085.3,396.241 2088.08,404.239 2090.85,415.618 2093.62,430.183 2096.39,447.854 2099.17,468.626 2101.94,492.409 2104.71,519.112 2107.48,548.398 2110.25,579.864 2113.03,613.032 2115.8,647.5 2118.57,682.996 2121.34,719.394 2124.11,756.569 2126.89,794.246 2129.66,831.856 2132.43,868.734 2135.2,904.202 2137.97,937.777 2140.75,969.331 2143.52,998.93 2146.29,1026.56 2149.06,1051.91 2151.83,1074.33 2154.61,1093.25 2157.38,1108.18 2160.15,1119.01 2162.92,1126.14 2165.7,1130.25 2168.47,1131.9 2171.24,1131.36 2174.01,1128.64 2176.78,1123.65 2179.56,1116.18 2182.33,1106.3 2185.1,1094.26 2187.87,1080.43 2190.64,1065.26 2193.42,1049.06 2196.19,1032.26 2198.96,1015.2 2201.73,998.275 2204.5,982.103 2207.28,967.086 2210.05,953.505 2212.82,941.459 2215.59,930.773 2218.37,921.234 2221.14,912.539 2223.91,904.456 2226.68,897.055 2229.45,890.505 2232.23,884.978 2235,880.637 2237.77,877.489 2240.54,875.53 2243.31,874.558 2246.09,874.373 2248.86,874.97 2251.63,876.205 2254.4,877.914 2257.17,879.755 2259.95,881.509 2262.72,882.998 2265.49,883.994 2268.26,884.512 2271.03,884.555 2273.81,884.123 2276.58,883.053 2279.35,881.159 2282.12,878.293 2284.9,874.379 2287.67,869.403 2290.44,863.414 2293.21,856.41 "/>
<polyline clip-path="url(#clip312)" style="stroke:#4a7945; stroke-linecap:round; stroke-linejoin:round; stroke-width:8; stroke-opacity:1; fill:none" points="308.396,748.155 311.168,739.684 313.94,739.454 316.712,738.076 319.484,739.412 322.256,740.189 325.028,742.521 327.8,744.45 330.572,747.254 333.345,749.961 336.117,753.256 338.889,756.725 341.661,760.661 344.433,764.81 347.205,769.551 349.977,774.483 352.749,779.677 355.521,784.743 358.293,789.848 361.065,794.717 363.838,799.207 366.61,803.1 369.382,806.245 372.154,808.098 374.926,808.543 377.698,807.353 380.47,804.889 383.242,801.179 386.014,796.849 388.786,791.999 391.558,786.972 394.33,781.654 397.103,776.243 399.875,770.652 402.647,765.123 405.419,759.665 408.191,754.466 410.963,749.504 413.735,744.789 416.507,740.32 419.279,736.03 422.051,732.004 424.823,728.134 427.596,724.607 430.368,721.379 433.14,718.699 435.912,716.44 438.684,714.843 441.456,713.698 444.228,713.167 447,712.883 449.772,713.091 452.544,713.544 455.316,714.434 458.089,715.492 460.861,716.939 463.633,718.606 466.405,720.624 469.177,722.702 471.949,725.049 474.721,727.409 477.493,729.965 480.265,732.576 483.037,735.436 485.809,738.453 488.582,741.762 491.354,745.139 494.126,748.591 496.898,751.98 499.67,755.263 502.442,758.349 505.214,761.094 507.986,763.464 510.758,765.406 513.53,766.923 516.302,767.996 519.074,768.737 521.847,769.264 524.619,769.713 527.391,770.213 530.163,770.907 532.935,771.846 535.707,773.118 538.479,774.613 541.251,776.375 544.023,778.223 546.795,780.145 549.567,782.018 552.34,783.896 555.112,785.725 557.884,787.642 560.656,789.664 563.428,791.962 566.2,794.459 568.972,797.224 571.744,800.143 574.516,803.287 577.288,806.511 580.06,809.982 582.833,813.628 585.605,817.606 588.377,821.731 591.149,825.907 593.921,829.606 596.693,832.287 599.465,833.049 602.237,831.48 605.009,827.656 607.781,822.234 610.553,815.572 613.326,807.945 616.098,799.514 618.87,790.34 621.642,780.541 624.414,770.338 627.186,759.695 629.958,748.865 632.73,737.838 635.502,726.822 638.274,715.774 641.046,704.793 643.819,693.778 646.591,682.781 649.363,671.743 652.135,660.804 654.907,649.816 657.679,638.857 660.451,627.819 663.223,616.687 665.995,605.555 668.767,594.568 671.539,583.745 674.311,573.16 677.084,562.707 679.856,552.387 682.628,542.062 685.4,531.694 688.172,521.174 690.944,510.536 693.716,499.834 696.488,489.25 699.26,478.966 702.032,469.175 704.804,460.094 707.577,451.791 710.349,444.286 713.121,437.417 715.893,431.022 718.665,424.83 721.437,418.58 724.209,412.119 726.981,405.492 729.753,398.875 732.525,392.636 735.297,387.03 738.07,382.439 740.842,378.927 743.614,376.575 746.386,375.192 749.158,374.574 751.93,374.444 754.702,374.577 757.474,374.809 760.246,375.104 763.018,375.374 765.79,375.78 768.563,376.373 771.335,377.331 774.107,378.683 776.879,380.43 779.651,382.565 782.423,384.97 785.195,387.511 787.967,390.168 790.739,392.796 793.511,395.396 796.283,397.973 799.055,400.637 801.828,403.364 804.6,406.212 807.372,409.191 810.144,412.326 812.916,415.609 815.688,418.9 818.46,422.36 821.232,425.786 824.004,429.217 826.776,432.634 829.548,436.126 832.321,439.763 835.093,443.518 837.865,447.272 840.637,451.12 843.409,454.832 846.181,458.484 848.953,461.849 851.725,464.921 854.497,467.606 857.269,469.941 860.041,472.029 862.814,474.082 865.586,476.251 868.358,478.736 871.13,481.543 873.902,484.734 876.674,488.239 879.446,492.048 882.218,496.106 884.99,500.389 887.762,504.95 890.534,509.864 893.307,515.261 896.079,521.202 898.851,527.775 901.623,535.003 904.395,542.96 907.167,551.474 909.939,560.562 912.711,570.004 915.483,579.787 918.255,589.656 921.027,599.562 923.799,609.453 926.572,619.423 929.344,629.376 932.116,639.49 934.888,649.689 937.66,660.078 940.432,670.423 943.204,680.684 945.976,690.822 948.748,700.615 951.52,710.059 954.292,718.974 957.065,727.486 959.837,735.429 962.609,742.712 965.381,749.381 968.153,755.246 970.925,760.221 973.697,764.253 976.469,767.217 979.241,769.182 982.013,770.002 984.785,769.831 987.558,768.577 990.33,766.316 993.102,763.03 995.874,758.825 998.646,753.822 1001.42,748.254 1004.19,742.411 1006.96,736.44 1009.73,730.405 1012.51,724.109 1015.28,717.349 1018.05,709.846 1020.82,701.479 1023.59,692.334 1026.37,682.736 1029.14,672.875 1031.91,662.923 1034.68,652.64 1037.46,641.712 1040.23,629.444 1043,615.397 1045.77,599.367 1048.54,581.804 1051.32,563.447 1054.09,545.416 1056.86,528.221 1059.63,512.158 1062.4,496.737 1065.18,481.22 1067.95,464.563 1070.72,446.32 1073.49,426.51 1076.26,405.953 1079.04,385.35 1081.81,365.721 1084.58,347.537 1087.35,331.24 1090.12,317.48 1092.9,306.282 1095.67,297.474 1098.44,288.791 1101.21,278.846 1103.99,264.357 1106.76,242.63 1109.53,216.598 1112.3,203.005 1115.07,199.3 1117.85,195.609 1120.62,195.935 1123.39,190.709 1126.16,183.954 1128.93,179.671 1131.71,174.585 1134.48,169.052 1137.25,160.578 1140.02,149.211 1142.79,134.653 1145.57,118.341 1148.34,102.909 1151.11,91.5321 1153.88,86.1857 1156.65,87.9208 1159.43,95.492 1162.2,106.74 1164.97,118.85 1167.74,129.681 1170.52,137.793 1173.29,143.53 1176.06,146.925 1178.83,149.088 1181.6,152.158 1184.38,156.299 1187.15,161.568 1189.92,168.199 1192.69,175.984 1195.46,184.271 1198.24,192.968 1201.01,201.512 1203.78,209.868 1206.55,217.778 1209.32,225.425 1212.1,232.733 1214.87,239.911 1217.64,246.862 1220.41,253.649 1223.19,260.159 1225.96,266.401 1228.73,272.251 1231.5,277.794 1234.27,283.07 1237.05,288.031 1239.82,292.8 1242.59,297.458 1245.36,302.215 1248.13,307.136 1250.91,312.277 1253.68,317.88 1256.45,323.982 1259.22,330.596 1261.99,337.653 1264.77,345.116 1267.54,352.936 1270.31,360.826 1273.08,368.761 1275.85,376.739 1278.63,384.642 1281.4,392.516 1284.17,400.431 1286.94,408.38 1289.72,416.337 1292.49,424.142 1295.26,431.786 1298.03,439.149 1300.8,446.328 1303.58,453.401 1306.35,460.446 1309.12,467.439 1311.89,474.419 1314.66,481.23 1317.44,487.841 1320.21,494.119 1322.98,500.149 1325.75,505.959 1328.52,511.747 1331.3,517.557 1334.07,523.56 1336.84,529.744 1339.61,536.206 1342.38,542.829 1345.16,549.514 1347.93,556.093 1350.7,562.483 1353.47,568.635 1356.25,574.595 1359.02,580.324 1361.79,585.939 1364.56,591.436 1367.33,596.898 1370.11,602.325 1372.88,607.634 1375.65,612.858 1378.42,617.973 1381.19,623.033 1383.97,628.085 1386.74,633.17 1389.51,638.417 1392.28,643.83 1395.05,649.351 1397.83,655.08 1400.6,660.979 1403.37,667.063 1406.14,673.307 1408.92,679.588 1411.69,685.804 1414.46,691.632 1417.23,696.943 1420,701.694 1422.78,705.727 1425.55,709.191 1428.32,711.999 1431.09,714.444 1433.86,716.459 1436.64,718.128 1439.41,719.472 1442.18,720.407 1444.95,721.05 1447.72,721.495 1450.5,721.77 1453.27,722.021 1456.04,722.12 1458.81,722.135 1461.58,721.864 1464.36,721.277 1467.13,720.25 1469.9,718.848 1472.67,717.044 1475.45,715.009 1478.22,712.723 1480.99,710.397 1483.76,708.034 1486.53,705.779 1489.31,703.575 1492.08,701.492 1494.85,699.457 1497.62,697.511 1500.39,695.524 1503.17,693.543 1505.94,691.489 1508.71,689.514 1511.48,687.6 1514.25,685.848 1517.03,684.219 1519.8,682.727 1522.57,681.309 1525.34,679.896 1528.11,678.479 1530.89,677.116 1533.66,675.921 1536.43,674.955 1539.2,674.231 1541.98,673.649 1544.75,673.078 1547.52,672.395 1550.29,671.57 1553.06,670.546 1555.84,669.347 1558.61,667.805 1561.38,666.249 1564.15,664.651 1566.92,662.928 1569.7,661.316 1572.47,659.534 1575.24,657.584 1578.01,655.886 1580.78,654.322 1583.56,652.713 1586.33,651.077 1589.1,649.208 1591.87,646.751 1594.65,644.135 1597.42,640.942 1600.19,637.123 1602.96,632.875 1605.73,628.531 1608.51,624.009 1611.28,619.406 1614.05,614.787 1616.82,610.425 1619.59,606.322 1622.37,602.497 1625.14,598.905 1627.91,595.46 1630.68,592.077 1633.45,588.688 1636.23,585.1 1639,581.345 1641.77,577.372 1644.54,573.277 1647.31,569.071 1650.09,564.84 1652.86,560.68 1655.63,556.625 1658.4,552.698 1661.18,548.992 1663.95,545.53 1666.72,542.342 1669.49,539.464 1672.26,536.827 1675.04,534.544 1677.81,532.448 1680.58,530.587 1683.35,528.82 1686.12,527.182 1688.9,525.633 1691.67,524.29 1694.44,523.079 1697.21,522.139 1699.98,521.341 1702.76,520.793 1705.53,520.341 1708.3,519.956 1711.07,519.549 1713.84,519.074 1716.62,518.506 1719.39,517.807 1722.16,516.937 1724.93,515.978 1727.71,514.867 1730.48,513.664 1733.25,512.143 1736.02,510.373 1738.79,508.302 1741.57,505.854 1744.34,503.012 1747.11,499.721 1749.88,496.187 1752.65,492.35 1755.43,488.279 1758.2,483.885 1760.97,479.178 1763.74,474.221 1766.51,468.869 1769.29,463.291 1772.06,457.495 1774.83,451.56 1777.6,445.464 1780.37,439.213 1783.15,432.83 1785.92,426.311 1788.69,419.629 1791.46,412.901 1794.24,406.185 1797.01,399.497 1799.78,392.953 1802.55,386.536 1805.32,380.364 1808.1,374.384 1810.87,368.707 1813.64,363.321 1816.41,358.306 1819.18,353.595 1821.96,349.293 1824.73,345.281 1827.5,341.659 1830.27,338.244 1833.04,335.028 1835.82,331.869 1838.59,328.782 1841.36,325.673 1844.13,322.647 1846.91,319.598 1849.68,316.684 1852.45,313.844 1855.22,311.323 1857.99,309.211 1860.77,307.503 1863.54,306.332 1866.31,305.813 1869.08,305.921 1871.85,306.578 1874.63,307.557 1877.4,308.895 1880.17,310.383 1882.94,311.839 1885.71,313.249 1888.49,314.413 1891.26,315.475 1894.03,316.403 1896.8,317.26 1899.57,317.956 1902.35,318.69 1905.12,319.36 1907.89,320.17 1910.66,320.926 1913.44,321.782 1916.21,322.64 1918.98,323.585 1921.75,324.494 1924.52,325.37 1927.3,326.148 1930.07,326.994 1932.84,327.802 1935.61,328.814 1938.38,329.941 1941.16,331.22 1943.93,332.496 1946.7,333.803 1949.47,335.066 1952.24,336.198 1955.02,337.166 1957.79,338.053 1960.56,338.926 1963.33,339.781 1966.1,340.554 1968.88,341.273 1971.65,341.915 1974.42,342.48 1977.19,343.01 1979.97,343.49 1982.74,344.046 1985.51,344.643 1988.28,345.408 1991.05,346.324 1993.83,347.446 1996.6,348.756 1999.37,350.269 2002.14,351.876 2004.91,353.601 2007.69,355.309 2010.46,357.056 2013.23,358.643 2016,360.148 2018.77,361.482 2021.55,362.748 2024.32,363.847 2027.09,364.913 2029.86,365.911 2032.64,366.986 2035.41,368.057 2038.18,369.322 2040.95,370.731 2043.72,372.506 2046.5,374.522 2049.27,376.808 2052.04,379.064 2054.81,381.142 2057.58,382.951 2060.36,384.472 2063.13,385.782 2065.9,386.949 2068.67,387.852 2071.44,388.582 2074.22,389.098 2076.99,389.675 2079.76,390.537 2082.53,391.869 2085.3,393.652 2088.08,395.757 2090.85,397.997 2093.62,400.239 2096.39,402.528 2099.17,404.906 2101.94,407.512 2104.71,410.402 2107.48,413.714 2110.25,417.296 2113.03,421.185 2115.8,425.099 2118.57,429.099 2121.34,433.027 2124.11,437.196 2126.89,441.657 2129.66,446.779 2132.43,452.393 2135.2,458.632 2137.97,465.044 2140.75,471.578 2143.52,477.933 2146.29,484.444 2149.06,491.231 2151.83,498.783 2154.61,507.043 2157.38,516.204 2160.15,525.852 2162.92,535.713 2165.7,545.261 2168.47,554.423 2171.24,563.177 2174.01,571.786 2176.78,580.387 2179.56,589.314 2182.33,598.638 2185.1,608.309 2187.87,618.311 2190.64,628.462 2193.42,638.844 2196.19,649.307 2198.96,659.955 2201.73,670.653 2204.5,681.358 2207.28,691.606 2210.05,701.467 2212.82,710.444 2215.59,718.82 2218.37,726.317 2221.14,733.435 2223.91,740.102 2226.68,746.912 2229.45,753.448 2232.23,760.125 2235,766.293 2237.77,772.295 2240.54,777.405 2243.31,781.994 2246.09,785.515 2248.86,788.469 2251.63,790.051 2254.4,790.84 2257.17,790.173 2259.95,789.06 2262.72,786.816 2265.49,784.619 2268.26,781.673 2271.03,779.059 2273.81,775.561 2276.58,772.495 2279.35,768.426 2282.12,765.286 2284.9,760.991 2287.67,758.476 2290.44,754.017 2293.21,754.316 "/>
<polyline clip-path="url(#clip312)" style="stroke:#dfba53; stroke-linecap:round; stroke-linejoin:round; stroke-width:4; stroke-opacity:1; fill:none" stroke-dasharray="16, 10" points="308.396,852.77 311.168,852.77 313.94,852.77 316.712,852.77 319.484,852.77 322.256,852.77 325.028,852.77 327.8,852.77 330.572,852.77 333.345,852.77 336.117,852.77 338.889,852.77 341.661,852.77 344.433,852.77 347.205,852.77 349.977,852.77 352.749,852.77 355.521,852.77 358.293,852.77 361.065,852.77 363.838,852.77 366.61,852.77 369.382,852.77 372.154,852.77 374.926,852.77 377.698,852.77 380.47,852.77 383.242,852.77 386.014,852.77 388.786,852.77 391.558,852.77 394.33,852.77 397.103,852.77 399.875,852.77 402.647,852.77 405.419,852.77 408.191,852.77 410.963,852.77 413.735,852.77 416.507,852.77 419.279,852.77 422.051,852.77 424.823,852.77 427.596,852.77 430.368,852.77 433.14,852.77 435.912,852.77 438.684,852.77 441.456,852.77 444.228,852.77 447,852.77 449.772,852.77 452.544,852.77 455.316,852.77 458.089,852.77 460.861,852.77 463.633,852.77 466.405,852.77 469.177,852.77 471.949,852.77 474.721,852.77 477.493,852.77 480.265,852.77 483.037,852.77 485.809,852.77 488.582,852.77 491.354,852.77 494.126,852.77 496.898,852.77 499.67,852.77 502.442,852.77 505.214,852.77 507.986,852.77 510.758,852.77 513.53,852.77 516.302,852.77 519.074,852.77 521.847,852.77 524.619,852.77 527.391,852.77 530.163,852.77 532.935,852.77 535.707,852.77 538.479,852.77 541.251,852.77 544.023,852.77 546.795,852.77 549.567,852.77 552.34,852.77 555.112,852.77 557.884,852.77 560.656,852.77 563.428,852.77 566.2,852.77 568.972,852.77 571.744,852.77 574.516,852.77 577.288,852.77 580.06,852.77 582.833,852.77 585.605,852.77 588.377,852.77 591.149,852.77 593.921,852.77 596.693,852.77 599.465,852.77 602.237,852.77 605.009,852.77 607.781,852.77 610.553,852.77 613.326,852.77 616.098,852.77 618.87,852.77 621.642,852.77 624.414,852.77 627.186,852.77 629.958,852.77 632.73,852.77 635.502,852.77 638.274,852.77 641.046,852.77 643.819,852.77 646.591,852.77 649.363,852.77 652.135,852.77 654.907,852.77 657.679,852.77 660.451,852.77 663.223,852.77 665.995,852.77 668.767,852.77 671.539,852.77 674.311,852.77 677.084,852.77 679.856,852.77 682.628,852.77 685.4,852.77 688.172,852.77 690.944,852.77 693.716,852.77 696.488,852.77 699.26,852.77 702.032,852.77 704.804,852.77 707.577,852.77 710.349,852.77 713.121,852.77 715.893,852.77 718.665,852.77 721.437,852.77 724.209,852.77 726.981,852.77 729.753,852.77 732.525,852.77 735.297,852.77 738.07,852.77 740.842,852.77 743.614,852.77 746.386,852.77 749.158,852.77 751.93,852.77 754.702,852.77 757.474,852.77 760.246,852.77 763.018,852.77 765.79,852.77 768.563,852.77 771.335,852.77 774.107,852.77 776.879,852.77 779.651,852.77 782.423,852.77 785.195,852.77 787.967,852.77 790.739,852.77 793.511,852.77 796.283,852.77 799.055,852.77 801.828,852.77 804.6,852.77 807.372,852.77 810.144,852.77 812.916,852.77 815.688,852.77 818.46,852.77 821.232,852.77 824.004,852.77 826.776,852.77 829.548,852.77 832.321,852.77 835.093,852.77 837.865,852.77 840.637,852.77 843.409,852.77 846.181,852.77 848.953,852.77 851.725,852.77 854.497,852.77 857.269,852.77 860.041,852.77 862.814,852.77 865.586,852.77 868.358,852.77 871.13,852.77 873.902,852.77 876.674,852.77 879.446,852.77 882.218,852.77 884.99,852.77 887.762,852.77 890.534,852.77 893.307,852.77 896.079,852.77 898.851,852.77 901.623,852.77 904.395,852.77 907.167,852.77 909.939,852.77 912.711,852.77 915.483,852.77 918.255,852.77 921.027,852.77 923.799,852.77 926.572,852.77 929.344,852.77 932.116,852.77 934.888,852.77 937.66,852.77 940.432,852.77 943.204,852.77 945.976,852.77 948.748,852.77 951.52,852.77 954.292,852.77 957.065,852.77 959.837,852.77 962.609,852.77 965.381,852.77 968.153,852.77 970.925,852.77 973.697,852.77 976.469,852.77 979.241,852.77 982.013,852.77 984.785,852.77 987.558,852.77 990.33,852.77 993.102,852.77 995.874,852.77 998.646,852.77 1001.42,852.77 1004.19,852.77 1006.96,852.77 1009.73,852.77 1012.51,852.77 1015.28,852.77 1018.05,852.77 1020.82,852.77 1023.59,852.77 1026.37,852.77 1029.14,852.77 1031.91,852.77 1034.68,852.77 1037.46,852.77 1040.23,852.77 1043,852.77 1045.77,852.77 1048.54,852.77 1051.32,852.77 1054.09,852.77 1056.86,852.77 1059.63,852.77 1062.4,852.77 1065.18,852.77 1067.95,852.77 1070.72,852.77 1073.49,852.77 1076.26,852.77 1079.04,852.77 1081.81,852.77 1084.58,852.77 1087.35,852.77 1090.12,852.77 1092.9,852.77 1095.67,852.77 1098.44,852.77 1101.21,852.77 1103.99,852.77 1106.76,852.77 1109.53,852.77 1112.3,852.77 1115.07,852.77 1117.85,852.77 1120.62,852.77 1123.39,852.77 1126.16,852.77 1128.93,852.77 1131.71,852.77 1134.48,852.77 1137.25,852.77 1140.02,852.77 1142.79,852.77 1145.57,852.77 1148.34,852.77 1151.11,852.77 1153.88,852.77 1156.65,852.77 1159.43,852.77 1162.2,852.77 1164.97,852.77 1167.74,852.77 1170.52,852.77 1173.29,852.77 1176.06,852.77 1178.83,852.77 1181.6,852.77 1184.38,852.77 1187.15,852.77 1189.92,852.77 1192.69,852.77 1195.46,852.77 1198.24,852.77 1201.01,852.77 1203.78,852.77 1206.55,852.77 1209.32,852.77 1212.1,852.77 1214.87,852.77 1217.64,852.77 1220.41,852.77 1223.19,852.77 1225.96,852.77 1228.73,852.77 1231.5,852.77 1234.27,852.77 1237.05,852.77 1239.82,852.77 1242.59,852.77 1245.36,852.77 1248.13,852.77 1250.91,852.77 1253.68,852.77 1256.45,852.77 1259.22,852.77 1261.99,852.77 1264.77,852.77 1267.54,852.77 1270.31,852.77 1273.08,852.77 1275.85,852.77 1278.63,852.77 1281.4,852.77 1284.17,852.77 1286.94,852.77 1289.72,852.77 1292.49,852.77 1295.26,852.77 1298.03,852.77 1300.8,852.77 1303.58,852.77 1306.35,852.77 1309.12,852.77 1311.89,852.77 1314.66,852.77 1317.44,852.77 1320.21,852.77 1322.98,852.77 1325.75,852.77 1328.52,852.77 1331.3,852.77 1334.07,852.77 1336.84,852.77 1339.61,852.77 1342.38,852.77 1345.16,852.77 1347.93,852.77 1350.7,852.77 1353.47,852.77 1356.25,852.77 1359.02,852.77 1361.79,852.77 1364.56,852.77 1367.33,852.77 1370.11,852.77 1372.88,852.77 1375.65,852.77 1378.42,852.77 1381.19,852.77 1383.97,852.77 1386.74,852.77 1389.51,852.77 1392.28,852.77 1395.05,852.77 1397.83,852.77 1400.6,852.77 1403.37,852.77 1406.14,852.77 1408.92,852.77 1411.69,852.77 1414.46,852.77 1417.23,852.77 1420,852.77 1422.78,852.77 1425.55,852.77 1428.32,852.77 1431.09,852.77 1433.86,852.77 1436.64,852.77 1439.41,852.77 1442.18,852.77 1444.95,852.77 1447.72,852.77 1450.5,852.77 1453.27,852.77 1456.04,852.77 1458.81,852.77 1461.58,852.77 1464.36,852.77 1467.13,852.77 1469.9,852.77 1472.67,852.77 1475.45,852.77 1478.22,852.77 1480.99,852.77 1483.76,852.77 1486.53,852.77 1489.31,852.77 1492.08,852.77 1494.85,852.77 1497.62,852.77 1500.39,852.77 1503.17,852.77 1505.94,852.77 1508.71,852.77 1511.48,852.77 1514.25,852.77 1517.03,852.77 1519.8,852.77 1522.57,852.77 1525.34,852.77 1528.11,852.77 1530.89,852.77 1533.66,852.77 1536.43,852.77 1539.2,852.77 1541.98,852.77 1544.75,852.77 1547.52,852.77 1550.29,852.77 1553.06,852.77 1555.84,852.77 1558.61,852.77 1561.38,852.77 1564.15,852.77 1566.92,852.77 1569.7,852.77 1572.47,852.77 1575.24,852.77 1578.01,852.77 1580.78,852.77 1583.56,852.77 1586.33,852.77 1589.1,852.77 1591.87,852.77 1594.65,852.77 1597.42,852.77 1600.19,852.77 1602.96,852.77 1605.73,852.77 1608.51,852.77 1611.28,852.77 1614.05,852.77 1616.82,852.77 1619.59,852.77 1622.37,852.77 1625.14,852.77 1627.91,852.77 1630.68,852.77 1633.45,852.77 1636.23,852.77 1639,852.77 1641.77,852.77 1644.54,852.77 1647.31,852.77 1650.09,852.77 1652.86,852.77 1655.63,852.77 1658.4,852.77 1661.18,852.77 1663.95,852.77 1666.72,852.77 1669.49,852.77 1672.26,852.77 1675.04,852.77 1677.81,852.77 1680.58,852.77 1683.35,852.77 1686.12,852.77 1688.9,852.77 1691.67,852.77 1694.44,852.77 1697.21,852.77 1699.98,852.77 1702.76,852.77 1705.53,852.77 1708.3,852.77 1711.07,852.77 1713.84,852.77 1716.62,852.77 1719.39,852.77 1722.16,852.77 1724.93,852.77 1727.71,852.77 1730.48,852.77 1733.25,852.77 1736.02,852.77 1738.79,852.77 1741.57,852.77 1744.34,852.77 1747.11,852.77 1749.88,852.77 1752.65,852.77 1755.43,852.77 1758.2,852.77 1760.97,852.77 1763.74,852.77 1766.51,852.77 1769.29,852.77 1772.06,852.77 1774.83,852.77 1777.6,852.77 1780.37,852.77 1783.15,852.77 1785.92,852.77 1788.69,852.77 1791.46,852.77 1794.24,852.77 1797.01,852.77 1799.78,852.77 1802.55,852.77 1805.32,852.77 1808.1,852.77 1810.87,852.77 1813.64,852.77 1816.41,852.77 1819.18,852.77 1821.96,852.77 1824.73,852.77 1827.5,852.77 1830.27,852.77 1833.04,852.77 1835.82,852.77 1838.59,852.77 1841.36,852.77 1844.13,852.77 1846.91,852.77 1849.68,852.77 1852.45,852.77 1855.22,852.77 1857.99,852.77 1860.77,852.77 1863.54,852.77 1866.31,852.77 1869.08,852.77 1871.85,852.77 1874.63,852.77 1877.4,852.77 1880.17,852.77 1882.94,852.77 1885.71,852.77 1888.49,852.77 1891.26,852.77 1894.03,852.77 1896.8,852.77 1899.57,852.77 1902.35,852.77 1905.12,852.77 1907.89,852.77 1910.66,852.77 1913.44,852.77 1916.21,852.77 1918.98,852.77 1921.75,852.77 1924.52,852.77 1927.3,852.77 1930.07,852.77 1932.84,852.77 1935.61,852.77 1938.38,852.77 1941.16,852.77 1943.93,852.77 1946.7,852.77 1949.47,852.77 1952.24,852.77 1955.02,852.77 1957.79,852.77 1960.56,852.77 1963.33,852.77 1966.1,852.77 1968.88,852.77 1971.65,852.77 1974.42,852.77 1977.19,852.77 1979.97,852.77 1982.74,852.77 1985.51,852.77 1988.28,852.77 1991.05,852.77 1993.83,852.77 1996.6,852.77 1999.37,852.77 2002.14,852.77 2004.91,852.77 2007.69,852.77 2010.46,852.77 2013.23,852.77 2016,852.77 2018.77,852.77 2021.55,852.77 2024.32,852.77 2027.09,852.77 2029.86,852.77 2032.64,852.77 2035.41,852.77 2038.18,852.77 2040.95,852.77 2043.72,852.77 2046.5,852.77 2049.27,852.77 2052.04,852.77 2054.81,852.77 2057.58,852.77 2060.36,852.77 2063.13,852.77 2065.9,852.77 2068.67,852.77 2071.44,852.77 2074.22,852.77 2076.99,852.77 2079.76,852.77 2082.53,852.77 2085.3,852.77 2088.08,852.77 2090.85,852.77 2093.62,852.77 2096.39,852.77 2099.17,852.77 2101.94,852.77 2104.71,852.77 2107.48,852.77 2110.25,852.77 2113.03,852.77 2115.8,852.77 2118.57,852.77 2121.34,852.77 2124.11,852.77 2126.89,852.77 2129.66,852.77 2132.43,852.77 2135.2,852.77 2137.97,852.77 2140.75,852.77 2143.52,852.77 2146.29,852.77 2149.06,852.77 2151.83,852.77 2154.61,852.77 2157.38,852.77 2160.15,852.77 2162.92,852.77 2165.7,852.77 2168.47,852.77 2171.24,852.77 2174.01,852.77 2176.78,852.77 2179.56,852.77 2182.33,852.77 2185.1,852.77 2187.87,852.77 2190.64,852.77 2193.42,852.77 2196.19,852.77 2198.96,852.77 2201.73,852.77 2204.5,852.77 2207.28,852.77 2210.05,852.77 2212.82,852.77 2215.59,852.77 2218.37,852.77 2221.14,852.77 2223.91,852.77 2226.68,852.77 2229.45,852.77 2232.23,852.77 2235,852.77 2237.77,852.77 2240.54,852.77 2243.31,852.77 2246.09,852.77 2248.86,852.77 2251.63,852.77 2254.4,852.77 2257.17,852.77 2259.95,852.77 2262.72,852.77 2265.49,852.77 2268.26,852.77 2271.03,852.77 2273.81,852.77 2276.58,852.77 2279.35,852.77 2282.12,852.77 2284.9,852.77 2287.67,852.77 2290.44,852.77 2293.21,852.77 "/>
<path clip-path="url(#clip310)" d="M318.981 1377.32 L696.638 1377.32 L696.638 1169.96 L318.981 1169.96  Z" fill="#ffffff" fill-rule="evenodd" fill-opacity="1"/>
<polyline clip-path="url(#clip310)" style="stroke:#000000; stroke-linecap:round; stroke-linejoin:round; stroke-width:4; stroke-opacity:1; fill:none" points="318.981,1377.32 696.638,1377.32 696.638,1169.96 318.981,1169.96 318.981,1377.32 "/>
<polyline clip-path="url(#clip310)" style="stroke:#ba3d3a; stroke-linecap:round; stroke-linejoin:round; stroke-width:8; stroke-opacity:1; fill:none" points="342.358,1221.8 482.618,1221.8 "/>
<path clip-path="url(#clip310)" d="M528.41 1217.6 Q528.41 1218.91 528.012 1220.39 L522.555 1242.1 Q522.063 1244.02 520.587 1244.02 Q519.978 1244.02 519.604 1243.65 Q519.252 1243.3 519.252 1242.73 Q519.252 1242.55 519.393 1241.96 L524.85 1219.9 Q525.342 1217.88 525.342 1216.88 Q525.342 1213.53 522.742 1213.53 Q520.447 1213.53 518.151 1215.21 Q517.097 1216.06 516.067 1217.58 Q515.06 1219.08 514.872 1219.62 Q514.661 1220.83 514.357 1221.77 Q514.216 1222.43 513.537 1224.98 L512.483 1229.31 Q511.734 1232.55 511.57 1232.85 Q511.335 1233.51 510.82 1233.86 Q510.305 1234.21 509.79 1234.21 Q509.204 1234.21 508.806 1233.86 Q508.408 1233.51 508.408 1232.9 Q508.408 1232.8 508.478 1232.45 Q508.548 1232.1 508.665 1231.61 Q508.782 1231.12 508.829 1230.84 L511.617 1219.76 Q512.132 1217.74 512.249 1217.11 Q512.389 1216.45 512.389 1215.73 Q512.389 1214.46 511.991 1214 Q511.593 1213.53 510.89 1213.53 Q509.672 1213.53 508.876 1214.98 Q508.08 1216.43 507.401 1219.24 Q507.19 1220.02 507.049 1220.18 Q506.932 1220.34 506.581 1220.34 Q505.995 1220.32 505.995 1219.85 Q505.995 1219.73 506.183 1218.98 Q506.37 1218.21 506.721 1217.09 Q507.096 1215.94 507.494 1215.21 Q507.728 1214.72 507.939 1214.39 Q508.15 1214.07 508.572 1213.55 Q508.993 1213.04 509.626 1212.75 Q510.258 1212.47 511.031 1212.47 Q512.741 1212.47 514.006 1213.57 Q515.294 1214.67 515.458 1216.64 Q515.95 1215.92 516.582 1215.26 Q517.238 1214.6 518.151 1213.95 Q519.065 1213.27 520.306 1212.87 Q521.548 1212.47 522.883 1212.47 Q525.553 1212.47 526.982 1213.85 Q528.41 1215.21 528.41 1217.6 Z" fill="#000000" fill-rule="nonzero" fill-opacity="1" /><path clip-path="url(#clip310)" d="M535.343 1221.68 Q535.343 1213.57 538.364 1207.04 Q539.653 1204.3 541.456 1202 Q543.26 1199.71 544.454 1198.7 Q545.649 1197.69 545.977 1197.69 Q546.445 1197.69 546.468 1198.16 Q546.468 1198.4 545.836 1198.98 Q538.107 1206.85 538.13 1221.68 Q538.13 1236.55 545.649 1244.12 Q546.468 1244.94 546.468 1245.19 Q546.468 1245.66 545.977 1245.66 Q545.649 1245.66 544.501 1244.7 Q543.353 1243.74 541.573 1241.54 Q539.793 1239.34 538.505 1236.64 Q535.343 1230.11 535.343 1221.68 Z" fill="#000000" fill-rule="nonzero" fill-opacity="1" /><path clip-path="url(#clip310)" d="M564.843 1213.53 Q564.843 1214.18 564.539 1214.35 Q564.234 1214.49 563.391 1214.49 L558.894 1214.49 L555.334 1228.63 Q555.052 1229.88 555.052 1230.93 Q555.052 1232.1 555.404 1232.62 Q555.779 1233.13 556.552 1233.13 Q558.074 1233.13 559.714 1231.75 Q561.377 1230.37 562.782 1226.99 Q562.969 1226.55 563.063 1226.46 Q563.18 1226.34 563.485 1226.34 Q564.07 1226.34 564.07 1226.81 Q564.07 1226.97 563.742 1227.72 Q563.438 1228.47 562.758 1229.57 Q562.103 1230.67 561.236 1231.7 Q560.393 1232.73 559.105 1233.48 Q557.816 1234.21 556.434 1234.21 Q554.49 1234.21 553.249 1232.97 Q552.031 1231.73 552.031 1229.78 Q552.031 1229.15 552.523 1227.14 Q553.015 1225.1 555.685 1214.49 L551.445 1214.49 Q550.86 1214.49 550.626 1214.46 Q550.415 1214.44 550.251 1214.32 Q550.11 1214.18 550.11 1213.9 Q550.11 1213.46 550.298 1213.27 Q550.485 1213.06 550.719 1213.04 Q550.977 1212.99 551.563 1212.99 L556.06 1212.99 L557.933 1205.38 Q558.121 1204.63 558.589 1204.2 Q559.081 1203.76 559.362 1203.71 Q559.643 1203.64 559.854 1203.64 Q560.486 1203.64 560.861 1203.99 Q561.236 1204.32 561.236 1204.93 Q561.236 1205.26 559.269 1212.99 L563.485 1212.99 Q564.023 1212.99 564.234 1213.01 Q564.468 1213.04 564.656 1213.15 Q564.843 1213.27 564.843 1213.53 Z" fill="#000000" fill-rule="nonzero" fill-opacity="1" /><path clip-path="url(#clip310)" d="M568.594 1245.19 Q568.594 1244.96 569.203 1244.37 Q576.933 1236.5 576.933 1221.68 Q576.933 1206.8 569.508 1199.29 Q568.594 1198.42 568.594 1198.16 Q568.594 1197.69 569.063 1197.69 Q569.391 1197.69 570.538 1198.65 Q571.709 1199.61 573.466 1201.82 Q575.246 1204.02 576.558 1206.71 Q579.72 1213.25 579.72 1221.68 Q579.72 1229.78 576.698 1236.32 Q575.41 1239.06 573.607 1241.35 Q571.803 1243.65 570.609 1244.66 Q569.414 1245.66 569.063 1245.66 Q568.594 1245.66 568.594 1245.19 Z" fill="#000000" fill-rule="nonzero" fill-opacity="1" /><polyline clip-path="url(#clip310)" style="stroke:#4a7945; stroke-linecap:round; stroke-linejoin:round; stroke-width:8; stroke-opacity:1; fill:none" points="342.358,1273.64 482.618,1273.64 "/>
<path clip-path="url(#clip310)" d="M530.659 1278.65 Q530.05 1281.67 529.23 1283.4 Q527.895 1286.05 525.67 1286.05 Q524.124 1286.05 522.953 1285.18 Q521.805 1284.29 521.407 1282.82 Q520.962 1283.4 520.564 1283.8 Q520.189 1284.2 519.463 1284.81 Q518.737 1285.39 517.753 1285.72 Q516.793 1286.05 515.692 1286.05 Q514.849 1286.05 514.076 1285.89 Q513.303 1285.74 512.483 1285.35 Q511.687 1284.92 511.101 1284.29 Q510.539 1283.66 510.164 1282.63 Q509.79 1281.6 509.79 1280.29 Q509.79 1278.65 510.422 1276.42 Q511.078 1274.2 512.577 1270.22 Q513.397 1268.11 513.397 1266.94 Q513.397 1266.4 513.28 1266.05 Q513.162 1265.69 512.928 1265.58 Q512.717 1265.44 512.577 1265.41 Q512.436 1265.37 512.202 1265.37 Q510.75 1265.37 509.485 1266.84 Q508.22 1268.32 507.354 1271.32 Q507.166 1271.9 507.049 1272.04 Q506.932 1272.18 506.581 1272.18 Q505.995 1272.16 505.995 1271.69 Q505.995 1271.5 506.206 1270.78 Q506.417 1270.03 506.909 1268.93 Q507.424 1267.8 508.127 1266.8 Q508.829 1265.77 509.93 1265.04 Q511.054 1264.31 512.343 1264.31 Q514.099 1264.31 515.177 1265.46 Q516.278 1266.58 516.278 1268.25 Q516.278 1269.28 515.458 1271.27 Q512.858 1278.18 512.858 1281.06 Q512.858 1284.97 515.833 1284.97 Q516.816 1284.97 517.73 1284.57 Q518.667 1284.18 519.276 1283.61 Q519.885 1283.05 520.353 1282.44 Q520.845 1281.83 521.056 1281.43 Q521.29 1281.04 521.313 1280.94 L524.897 1266.51 Q525.038 1265.95 525.295 1265.58 Q525.576 1265.18 525.904 1265.04 Q526.232 1264.9 526.42 1264.88 Q526.607 1264.83 526.771 1264.83 Q527.356 1264.83 527.755 1265.18 Q528.176 1265.53 528.176 1266.14 Q528.176 1266.26 528.036 1266.82 Q527.919 1267.36 527.731 1268.15 Q527.544 1268.93 527.45 1269.35 Q526.701 1272.3 526.63 1272.6 L525.295 1277.78 Q525.225 1278.09 524.991 1279.07 Q524.78 1280.05 524.663 1280.57 Q524.546 1281.06 524.429 1281.74 Q524.335 1282.4 524.335 1282.77 Q524.335 1283.94 524.686 1284.46 Q525.038 1284.97 525.811 1284.97 Q526.537 1284.97 527.099 1284.48 Q527.684 1283.96 528.129 1282.98 Q528.574 1281.97 528.832 1281.15 Q529.09 1280.33 529.418 1279.05 Q529.535 1278.48 529.628 1278.34 Q529.746 1278.18 530.073 1278.18 Q530.659 1278.18 530.659 1278.65 Z" fill="#000000" fill-rule="nonzero" fill-opacity="1" /><path clip-path="url(#clip310)" d="M536.227 1273.52 Q536.227 1265.41 539.248 1258.88 Q540.536 1256.14 542.34 1253.84 Q544.143 1251.55 545.338 1250.54 Q546.532 1249.53 546.86 1249.53 Q547.329 1249.53 547.352 1250 Q547.352 1250.24 546.72 1250.82 Q538.99 1258.69 539.014 1273.52 Q539.014 1288.39 546.532 1295.96 Q547.352 1296.78 547.352 1297.03 Q547.352 1297.5 546.86 1297.5 Q546.532 1297.5 545.385 1296.54 Q544.237 1295.58 542.457 1293.38 Q540.677 1291.18 539.389 1288.48 Q536.227 1281.95 536.227 1273.52 Z" fill="#000000" fill-rule="nonzero" fill-opacity="1" /><path clip-path="url(#clip310)" d="M565.727 1265.37 Q565.727 1266.02 565.422 1266.19 Q565.118 1266.33 564.275 1266.33 L559.778 1266.33 L556.217 1280.47 Q555.936 1281.72 555.936 1282.77 Q555.936 1283.94 556.288 1284.46 Q556.662 1284.97 557.435 1284.97 Q558.958 1284.97 560.597 1283.59 Q562.26 1282.21 563.666 1278.83 Q563.853 1278.39 563.947 1278.3 Q564.064 1278.18 564.368 1278.18 Q564.954 1278.18 564.954 1278.65 Q564.954 1278.81 564.626 1279.56 Q564.321 1280.31 563.642 1281.41 Q562.986 1282.51 562.12 1283.54 Q561.277 1284.57 559.988 1285.32 Q558.7 1286.05 557.318 1286.05 Q555.374 1286.05 554.133 1284.81 Q552.915 1283.57 552.915 1281.62 Q552.915 1280.99 553.407 1278.98 Q553.899 1276.94 556.569 1266.33 L552.329 1266.33 Q551.744 1266.33 551.509 1266.3 Q551.299 1266.28 551.135 1266.16 Q550.994 1266.02 550.994 1265.74 Q550.994 1265.3 551.181 1265.11 Q551.369 1264.9 551.603 1264.88 Q551.861 1264.83 552.446 1264.83 L556.943 1264.83 L558.817 1257.22 Q559.005 1256.47 559.473 1256.04 Q559.965 1255.6 560.246 1255.55 Q560.527 1255.48 560.738 1255.48 Q561.37 1255.48 561.745 1255.83 Q562.12 1256.16 562.12 1256.77 Q562.12 1257.1 560.152 1264.83 L564.368 1264.83 Q564.907 1264.83 565.118 1264.85 Q565.352 1264.88 565.539 1264.99 Q565.727 1265.11 565.727 1265.37 Z" fill="#000000" fill-rule="nonzero" fill-opacity="1" /><path clip-path="url(#clip310)" d="M569.478 1297.03 Q569.478 1296.8 570.087 1296.21 Q577.816 1288.34 577.816 1273.52 Q577.816 1258.64 570.391 1251.13 Q569.478 1250.26 569.478 1250 Q569.478 1249.53 569.946 1249.53 Q570.274 1249.53 571.422 1250.49 Q572.593 1251.45 574.35 1253.66 Q576.13 1255.86 577.442 1258.55 Q580.604 1265.09 580.604 1273.52 Q580.604 1281.62 577.582 1288.16 Q576.294 1290.9 574.49 1293.19 Q572.687 1295.49 571.492 1296.5 Q570.298 1297.5 569.946 1297.5 Q569.478 1297.5 569.478 1297.03 Z" fill="#000000" fill-rule="nonzero" fill-opacity="1" /><polyline clip-path="url(#clip310)" style="stroke:#dfba53; stroke-linecap:round; stroke-linejoin:round; stroke-width:4; stroke-opacity:1; fill:none" stroke-dasharray="16, 10" points="342.358,1325.48 482.618,1325.48 "/>
<path clip-path="url(#clip310)" d="M505.995 1326.57 Q505.995 1319.14 507.873 1315.09 Q510.491 1309.06 516.667 1309.06 Q517.976 1309.06 519.335 1309.43 Q520.718 1309.78 522.448 1311.14 Q524.202 1312.49 525.264 1314.72 Q527.289 1319.02 527.289 1326.57 Q527.289 1333.96 525.412 1337.99 Q522.67 1343.87 516.618 1343.87 Q514.345 1343.87 512.023 1342.71 Q509.725 1341.54 508.268 1338.75 Q505.995 1334.58 505.995 1326.57 M510.195 1325.96 Q510.195 1333.59 510.738 1336.63 Q511.356 1339.91 513.036 1341.35 Q514.74 1342.76 516.618 1342.76 Q518.643 1342.76 520.323 1341.25 Q522.028 1339.72 522.546 1336.43 Q523.115 1333.2 523.09 1325.96 Q523.09 1318.92 522.596 1316.1 Q521.929 1312.81 520.15 1311.51 Q518.396 1310.17 516.618 1310.17 Q515.951 1310.17 515.234 1310.37 Q514.543 1310.57 513.53 1311.14 Q512.517 1311.7 511.726 1313.11 Q510.961 1314.52 510.59 1316.64 Q510.195 1319.39 510.195 1325.96 Z" fill="#000000" fill-rule="nonzero" fill-opacity="1" /><path clip-path="url(#clip310)" d="M547.818 1342.09 L547.818 1335.42 Q547.818 1334.85 547.843 1334.65 Q547.867 1334.45 548.016 1334.31 Q548.164 1334.16 548.46 1334.16 Q548.806 1334.16 548.93 1334.31 Q549.078 1334.45 549.177 1335.02 Q549.942 1338.51 551.573 1340.36 Q553.228 1342.19 556.217 1342.19 Q559.058 1342.19 560.491 1340.93 Q561.924 1339.67 561.924 1337.59 Q561.924 1333.89 556.662 1332.95 Q553.623 1332.33 552.363 1331.94 Q551.104 1331.52 549.992 1330.6 Q547.818 1328.82 547.818 1326.3 Q547.818 1323.78 549.72 1321.93 Q551.647 1320.08 555.896 1320.08 Q558.737 1320.08 560.664 1321.51 Q561.232 1321.07 561.528 1320.7 Q562.195 1320.08 562.541 1320.08 Q562.936 1320.08 563.011 1320.35 Q563.085 1320.6 563.085 1321.31 L563.085 1326.4 Q563.085 1326.97 563.06 1327.17 Q563.035 1327.37 562.887 1327.51 Q562.739 1327.64 562.418 1327.64 Q561.849 1327.64 561.825 1327.17 Q561.43 1321.04 555.896 1321.04 Q552.907 1321.04 551.573 1322.2 Q550.239 1323.34 550.239 1324.89 Q550.239 1325.76 550.634 1326.43 Q551.054 1327.07 551.573 1327.46 Q552.116 1327.83 553.104 1328.21 Q554.093 1328.55 554.685 1328.67 Q555.303 1328.8 556.464 1329.04 Q560.515 1329.81 562.22 1331.47 Q564.345 1333.59 564.345 1336.28 Q564.345 1339.27 562.319 1341.3 Q560.293 1343.32 556.217 1343.32 Q552.932 1343.32 550.634 1341.12 Q550.338 1341.42 550.115 1341.69 Q549.893 1341.94 549.794 1342.04 Q549.72 1342.14 549.695 1342.21 Q549.671 1342.26 549.621 1342.31 Q548.608 1343.32 548.361 1343.32 Q547.966 1343.32 547.892 1343.05 Q547.818 1342.8 547.818 1342.09 Z" fill="#000000" fill-rule="nonzero" fill-opacity="1" /><path clip-path="url(#clip310)" d="M567.012 1322.52 L567.012 1321.41 Q569.335 1321.31 570.866 1319.68 Q572.422 1318.03 572.941 1316 Q573.485 1313.98 573.534 1311.63 L574.794 1311.63 L574.794 1320.94 L582.032 1320.94 L582.032 1322.52 L574.794 1322.52 L574.794 1336.58 Q574.794 1342.04 578.203 1342.04 Q579.661 1342.04 580.624 1340.56 Q581.587 1339.05 581.587 1336.38 L581.587 1333.59 L582.847 1333.59 L582.847 1336.48 Q582.847 1339.22 581.587 1341.27 Q580.328 1343.32 577.833 1343.32 Q576.919 1343.32 576.004 1343.08 Q575.115 1342.85 573.929 1342.26 Q572.768 1341.64 572.027 1340.16 Q571.311 1338.65 571.311 1336.48 L571.311 1322.52 L567.012 1322.52 Z" fill="#000000" fill-rule="nonzero" fill-opacity="1" /><path clip-path="url(#clip310)" d="M587.393 1331.89 Q587.393 1327.07 590.752 1323.73 Q594.112 1320.4 598.657 1320.4 Q602.511 1320.4 605.031 1323.54 L605.031 1312.59 Q605.031 1310.72 604.364 1310.25 Q603.722 1309.78 601.103 1309.78 L601.103 1308.2 L608.391 1307.65 L608.391 1338.36 Q608.391 1340.24 609.033 1340.73 Q609.7 1341.2 612.318 1341.2 L612.318 1342.76 L604.883 1343.32 L604.883 1339.96 Q602.264 1343.3 598.114 1343.32 Q593.766 1343.32 590.579 1339.99 Q587.393 1336.65 587.393 1331.89 M591.592 1331.94 Q591.592 1336.63 593.05 1338.95 Q595.075 1342.19 598.361 1342.19 Q602.116 1342.19 604.339 1338.65 Q604.907 1337.79 604.883 1336.78 L604.883 1326.4 Q604.883 1325.39 604.339 1324.55 Q602.264 1321.51 598.88 1321.51 Q595.347 1321.51 593.149 1324.75 Q591.592 1327.17 591.592 1331.94 Z" fill="#000000" fill-rule="nonzero" fill-opacity="1" /><path clip-path="url(#clip310)" d="M618.741 1330.11 Q618.741 1321.56 621.928 1314.67 Q623.287 1311.78 625.189 1309.36 Q627.091 1306.94 628.351 1305.87 Q629.611 1304.81 629.957 1304.81 Q630.451 1304.81 630.475 1305.31 Q630.475 1305.55 629.808 1306.17 Q621.656 1314.47 621.681 1330.11 Q621.681 1345.79 629.611 1353.77 Q630.475 1354.64 630.475 1354.91 Q630.475 1355.4 629.957 1355.4 Q629.611 1355.4 628.4 1354.39 Q627.19 1353.38 625.312 1351.06 Q623.435 1348.73 622.076 1345.89 Q618.741 1339 618.741 1330.11 Z" fill="#000000" fill-rule="nonzero" fill-opacity="1" /><path clip-path="url(#clip310)" d="M635.169 1322.57 Q635.169 1321.46 636.034 1320.67 Q636.923 1319.88 637.985 1319.88 Q638.702 1319.88 639.27 1320.2 Q639.863 1320.5 640.233 1321.09 Q640.628 1321.66 640.876 1322.25 Q641.123 1322.82 641.295 1323.68 Q641.493 1324.55 641.567 1325.07 Q641.641 1325.56 641.715 1326.33 Q641.79 1327.07 641.79 1327.22 Q642.086 1326.15 642.555 1325.09 Q643.049 1324.03 643.914 1322.75 Q644.779 1321.46 646.088 1320.65 Q647.397 1319.83 648.929 1319.83 Q651.77 1319.83 654.117 1322.97 Q656.463 1326.11 656.463 1332.63 L656.463 1354.29 Q656.463 1355.21 656.068 1355.72 Q655.698 1356.27 655.352 1356.39 Q655.006 1356.52 654.586 1356.52 Q653.869 1356.52 653.252 1356 Q652.659 1355.5 652.659 1354.29 Q652.659 1350.71 653.919 1343.2 Q655.203 1335.71 655.203 1332.03 Q655.203 1326.72 652.659 1324.55 Q651.399 1323.44 649.991 1323.44 Q648.731 1323.44 647.718 1324.43 Q646.706 1325.41 646.014 1326.9 Q645.322 1328.38 644.68 1330.9 Q644.062 1333.39 643.667 1335.64 Q643.296 1337.89 642.852 1341.2 Q642.605 1343.82 640.777 1343.82 Q640.11 1343.82 639.517 1343.37 Q638.949 1342.95 638.949 1342.09 Q638.949 1340.83 639.739 1336.11 Q640.53 1331.37 640.53 1330.97 Q640.53 1326.72 639.986 1325.22 Q639.467 1323.68 638.356 1323.17 Q637.788 1324.23 636.824 1324.23 Q636.108 1324.23 635.638 1323.76 Q635.169 1323.29 635.169 1322.57 Z" fill="#000000" fill-rule="nonzero" fill-opacity="1" /><path clip-path="url(#clip310)" d="M661.528 1354.91 Q661.528 1354.66 662.17 1354.04 Q670.322 1345.74 670.322 1330.11 Q670.322 1314.42 662.491 1306.49 Q661.528 1305.58 661.528 1305.31 Q661.528 1304.81 662.022 1304.81 Q662.367 1304.81 663.578 1305.82 Q664.813 1306.84 666.666 1309.16 Q668.543 1311.48 669.927 1314.32 Q673.262 1321.21 673.262 1330.11 Q673.262 1338.65 670.075 1345.55 Q668.716 1348.44 666.814 1350.86 Q664.912 1353.28 663.652 1354.34 Q662.392 1355.4 662.022 1355.4 Q661.528 1355.4 661.528 1354.91 Z" fill="#000000" fill-rule="nonzero" fill-opacity="1" /></svg>
