<?xml version="1.0" encoding="utf-8"?>
<svg xmlns="http://www.w3.org/2000/svg" xmlns:xlink="http://www.w3.org/1999/xlink" width="600" height="400" viewBox="0 0 2400 1600">
<defs>
  <clipPath id="clip510">
    <rect x="0" y="0" width="2400" height="1600"/>
  </clipPath>
</defs>
<path clip-path="url(#clip510)" d="M0 1600 L2400 1600 L2400 0 L0 0  Z" fill="#ffffff" fill-rule="evenodd" fill-opacity="1"/>
<defs>
  <clipPath id="clip511">
    <rect x="480" y="0" width="1681" height="1600"/>
  </clipPath>
</defs>
<path clip-path="url(#clip510)" d="M172.691 1423.18 L2352.76 1423.18 L2352.76 47.2441 L172.691 47.2441  Z" fill="#ffffff" fill-rule="evenodd" fill-opacity="1"/>
<defs>
  <clipPath id="clip512">
    <rect x="172" y="47" width="2181" height="1377"/>
  </clipPath>
</defs>
<polyline clip-path="url(#clip512)" style="stroke:#000000; stroke-linecap:round; stroke-linejoin:round; stroke-width:2; stroke-opacity:0.1; fill:none" points="400.88,1423.18 400.88,47.2441 "/>
<polyline clip-path="url(#clip512)" style="stroke:#000000; stroke-linecap:round; stroke-linejoin:round; stroke-width:2; stroke-opacity:0.1; fill:none" points="862.239,1423.18 862.239,47.2441 "/>
<polyline clip-path="url(#clip512)" style="stroke:#000000; stroke-linecap:round; stroke-linejoin:round; stroke-width:2; stroke-opacity:0.1; fill:none" points="1323.6,1423.18 1323.6,47.2441 "/>
<polyline clip-path="url(#clip512)" style="stroke:#000000; stroke-linecap:round; stroke-linejoin:round; stroke-width:2; stroke-opacity:0.1; fill:none" points="1784.96,1423.18 1784.96,47.2441 "/>
<polyline clip-path="url(#clip512)" style="stroke:#000000; stroke-linecap:round; stroke-linejoin:round; stroke-width:2; stroke-opacity:0.1; fill:none" points="2246.32,1423.18 2246.32,47.2441 "/>
<polyline clip-path="url(#clip510)" style="stroke:#000000; stroke-linecap:round; stroke-linejoin:round; stroke-width:4; stroke-opacity:1; fill:none" points="172.691,1423.18 2352.76,1423.18 "/>
<polyline clip-path="url(#clip510)" style="stroke:#000000; stroke-linecap:round; stroke-linejoin:round; stroke-width:4; stroke-opacity:1; fill:none" points="400.88,1423.18 400.88,1404.28 "/>
<polyline clip-path="url(#clip510)" style="stroke:#000000; stroke-linecap:round; stroke-linejoin:round; stroke-width:4; stroke-opacity:1; fill:none" points="862.239,1423.18 862.239,1404.28 "/>
<polyline clip-path="url(#clip510)" style="stroke:#000000; stroke-linecap:round; stroke-linejoin:round; stroke-width:4; stroke-opacity:1; fill:none" points="1323.6,1423.18 1323.6,1404.28 "/>
<polyline clip-path="url(#clip510)" style="stroke:#000000; stroke-linecap:round; stroke-linejoin:round; stroke-width:4; stroke-opacity:1; fill:none" points="1784.96,1423.18 1784.96,1404.28 "/>
<polyline clip-path="url(#clip510)" style="stroke:#000000; stroke-linecap:round; stroke-linejoin:round; stroke-width:4; stroke-opacity:1; fill:none" points="2246.32,1423.18 2246.32,1404.28 "/>
<path clip-path="url(#clip510)" d="M370.828 1477.43 Q370.828 1475.92 371.643 1475.35 Q372.459 1474.76 373.323 1474.76 Q374.484 1474.76 375.151 1475.5 Q375.843 1476.22 375.843 1477.23 Q375.843 1478.24 375.151 1478.98 Q374.484 1479.7 373.323 1479.7 Q372.755 1479.7 372.459 1479.6 Q373.126 1481.92 375.151 1483.6 Q377.202 1485.28 379.894 1485.28 Q383.279 1485.28 385.304 1482 Q386.515 1479.87 386.515 1475.06 Q386.515 1470.81 385.601 1468.68 Q384.193 1465.45 381.302 1465.45 Q377.202 1465.45 374.781 1468.98 Q374.484 1469.42 374.138 1469.45 Q373.644 1469.45 373.521 1469.18 Q373.422 1468.88 373.422 1468.11 L373.422 1453.14 Q373.422 1451.93 373.916 1451.93 Q374.114 1451.93 374.534 1452.08 Q377.72 1453.49 381.253 1453.51 Q384.884 1453.51 388.145 1452.03 Q388.392 1451.88 388.54 1451.88 Q389.035 1451.88 389.059 1452.45 Q389.059 1452.65 388.639 1453.24 Q388.244 1453.81 387.379 1454.58 Q386.515 1455.32 385.403 1456.03 Q384.291 1456.75 382.661 1457.25 Q381.055 1457.71 379.277 1457.71 Q377.152 1457.71 374.978 1457.05 L374.978 1466.9 Q377.597 1464.33 381.401 1464.33 Q385.453 1464.33 388.244 1467.6 Q391.036 1470.86 391.036 1475.4 Q391.036 1480.17 387.725 1483.43 Q384.44 1486.69 379.993 1486.69 Q375.942 1486.69 373.373 1483.8 Q370.828 1480.91 370.828 1477.43 Z" fill="#000000" fill-rule="nonzero" fill-opacity="1" /><path clip-path="url(#clip510)" d="M398.669 1484.76 Q397.903 1483.95 397.903 1482.89 Q397.903 1481.82 398.669 1481.06 Q399.435 1480.27 400.596 1480.27 Q401.707 1480.27 402.448 1481.01 Q403.214 1481.73 403.214 1482.91 Q403.214 1484.07 402.399 1484.84 Q401.609 1485.58 400.596 1485.58 Q399.435 1485.58 398.669 1484.76 Z" fill="#000000" fill-rule="nonzero" fill-opacity="1" /><path clip-path="url(#clip510)" d="M409.637 1469.4 Q409.637 1461.96 411.515 1457.91 Q414.133 1451.88 420.309 1451.88 Q421.618 1451.88 422.977 1452.26 Q424.36 1452.6 426.09 1453.96 Q427.844 1455.32 428.906 1457.54 Q430.931 1461.84 430.931 1469.4 Q430.931 1476.79 429.054 1480.81 Q426.312 1486.69 420.26 1486.69 Q417.987 1486.69 415.665 1485.53 Q413.367 1484.37 411.91 1481.58 Q409.637 1477.4 409.637 1469.4 M413.837 1468.78 Q413.837 1476.41 414.38 1479.45 Q414.998 1482.74 416.678 1484.17 Q418.382 1485.58 420.26 1485.58 Q422.285 1485.58 423.965 1484.07 Q425.67 1482.54 426.188 1479.26 Q426.757 1476.02 426.732 1468.78 Q426.732 1461.74 426.238 1458.92 Q425.571 1455.64 423.792 1454.33 Q422.038 1453 420.26 1453 Q419.593 1453 418.876 1453.19 Q418.185 1453.39 417.172 1453.96 Q416.159 1454.53 415.368 1455.94 Q414.603 1457.34 414.232 1459.47 Q413.837 1462.21 413.837 1468.78 Z" fill="#000000" fill-rule="nonzero" fill-opacity="1" /><path clip-path="url(#clip510)" d="M832.62 1461.79 L834.275 1451.39 L835.535 1451.39 Q835.683 1452.01 835.93 1452.28 Q836.202 1452.55 837.634 1452.77 Q839.092 1453 842.032 1453 L854.309 1453 Q854.309 1454.16 853.864 1454.77 L847.022 1464.38 Q844.848 1467.42 843.884 1473.03 Q843.316 1476.79 843.341 1481.33 L843.341 1483.9 Q843.341 1486.69 840.994 1486.69 Q838.672 1486.69 838.672 1483.9 Q838.672 1474.24 844.897 1464.88 Q845.564 1463.91 848.01 1460.48 Q850.48 1457.05 850.579 1456.9 L840.105 1456.9 Q835.51 1456.9 835.139 1457.2 Q834.645 1457.64 833.879 1461.79 L832.62 1461.79 Z" fill="#000000" fill-rule="nonzero" fill-opacity="1" /><path clip-path="url(#clip510)" d="M860.139 1484.76 Q859.373 1483.95 859.373 1482.89 Q859.373 1481.82 860.139 1481.06 Q860.905 1480.27 862.066 1480.27 Q863.178 1480.27 863.919 1481.01 Q864.685 1481.73 864.685 1482.91 Q864.685 1484.07 863.869 1484.84 Q863.079 1485.58 862.066 1485.58 Q860.905 1485.58 860.139 1484.76 Z" fill="#000000" fill-rule="nonzero" fill-opacity="1" /><path clip-path="url(#clip510)" d="M871.651 1477.43 Q871.651 1475.92 872.466 1475.35 Q873.281 1474.76 874.146 1474.76 Q875.307 1474.76 875.974 1475.5 Q876.666 1476.22 876.666 1477.23 Q876.666 1478.24 875.974 1478.98 Q875.307 1479.7 874.146 1479.7 Q873.578 1479.7 873.281 1479.6 Q873.948 1481.92 875.974 1483.6 Q878.024 1485.28 880.717 1485.28 Q884.101 1485.28 886.127 1482 Q887.338 1479.87 887.338 1475.06 Q887.338 1470.81 886.423 1468.68 Q885.015 1465.45 882.125 1465.45 Q878.024 1465.45 875.603 1468.98 Q875.307 1469.42 874.961 1469.45 Q874.467 1469.45 874.344 1469.18 Q874.245 1468.88 874.245 1468.11 L874.245 1453.14 Q874.245 1451.93 874.739 1451.93 Q874.936 1451.93 875.356 1452.08 Q878.543 1453.49 882.076 1453.51 Q885.707 1453.51 888.968 1452.03 Q889.215 1451.88 889.363 1451.88 Q889.857 1451.88 889.882 1452.45 Q889.882 1452.65 889.462 1453.24 Q889.067 1453.81 888.202 1454.58 Q887.338 1455.32 886.226 1456.03 Q885.114 1456.75 883.484 1457.25 Q881.878 1457.71 880.099 1457.71 Q877.975 1457.71 875.801 1457.05 L875.801 1466.9 Q878.42 1464.33 882.224 1464.33 Q886.275 1464.33 889.067 1467.6 Q891.858 1470.86 891.858 1475.4 Q891.858 1480.17 888.548 1483.43 Q885.262 1486.69 880.816 1486.69 Q876.764 1486.69 874.195 1483.8 Q871.651 1480.91 871.651 1477.43 Z" fill="#000000" fill-rule="nonzero" fill-opacity="1" /><path clip-path="url(#clip510)" d="M1281.89 1456.7 L1281.89 1455.12 Q1287.96 1455.12 1291.1 1451.88 Q1291.97 1451.88 1292.11 1452.08 Q1292.26 1452.28 1292.26 1453.19 L1292.26 1481.58 Q1292.26 1483.08 1293 1483.55 Q1293.74 1484.02 1296.98 1484.02 L1298.59 1484.02 L1298.59 1485.58 Q1296.81 1485.43 1290.38 1485.43 Q1283.96 1485.43 1282.21 1485.58 L1282.21 1484.02 L1283.81 1484.02 Q1287 1484.02 1287.77 1483.58 Q1288.53 1483.11 1288.53 1481.58 L1288.53 1455.37 Q1285.89 1456.7 1281.89 1456.7 Z" fill="#000000" fill-rule="nonzero" fill-opacity="1" /><path clip-path="url(#clip510)" d="M1304.66 1469.4 Q1304.66 1461.96 1306.54 1457.91 Q1309.16 1451.88 1315.33 1451.88 Q1316.64 1451.88 1318 1452.26 Q1319.39 1452.6 1321.12 1453.96 Q1322.87 1455.32 1323.93 1457.54 Q1325.96 1461.84 1325.96 1469.4 Q1325.96 1476.79 1324.08 1480.81 Q1321.34 1486.69 1315.29 1486.69 Q1313.01 1486.69 1310.69 1485.53 Q1308.39 1484.37 1306.94 1481.58 Q1304.66 1477.4 1304.66 1469.4 M1308.86 1468.78 Q1308.86 1476.41 1309.41 1479.45 Q1310.02 1482.74 1311.7 1484.17 Q1313.41 1485.58 1315.29 1485.58 Q1317.31 1485.58 1318.99 1484.07 Q1320.7 1482.54 1321.21 1479.26 Q1321.78 1476.02 1321.76 1468.78 Q1321.76 1461.74 1321.26 1458.92 Q1320.6 1455.64 1318.82 1454.33 Q1317.06 1453 1315.29 1453 Q1314.62 1453 1313.9 1453.19 Q1313.21 1453.39 1312.2 1453.96 Q1311.18 1454.53 1310.39 1455.94 Q1309.63 1457.34 1309.26 1459.47 Q1308.86 1462.21 1308.86 1468.78 Z" fill="#000000" fill-rule="nonzero" fill-opacity="1" /><path clip-path="url(#clip510)" d="M1333.05 1484.76 Q1332.28 1483.95 1332.28 1482.89 Q1332.28 1481.82 1333.05 1481.06 Q1333.81 1480.27 1334.97 1480.27 Q1336.09 1480.27 1336.83 1481.01 Q1337.59 1481.73 1337.59 1482.91 Q1337.59 1484.07 1336.78 1484.84 Q1335.99 1485.58 1334.97 1485.58 Q1333.81 1485.58 1333.05 1484.76 Z" fill="#000000" fill-rule="nonzero" fill-opacity="1" /><path clip-path="url(#clip510)" d="M1344.02 1469.4 Q1344.02 1461.96 1345.89 1457.91 Q1348.51 1451.88 1354.69 1451.88 Q1356 1451.88 1357.36 1452.26 Q1358.74 1452.6 1360.47 1453.96 Q1362.22 1455.32 1363.28 1457.54 Q1365.31 1461.84 1365.31 1469.4 Q1365.31 1476.79 1363.43 1480.81 Q1360.69 1486.69 1354.64 1486.69 Q1352.37 1486.69 1350.04 1485.53 Q1347.75 1484.37 1346.29 1481.58 Q1344.02 1477.4 1344.02 1469.4 M1348.21 1468.78 Q1348.21 1476.41 1348.76 1479.45 Q1349.38 1482.74 1351.06 1484.17 Q1352.76 1485.58 1354.64 1485.58 Q1356.66 1485.58 1358.34 1484.07 Q1360.05 1482.54 1360.57 1479.26 Q1361.13 1476.02 1361.11 1468.78 Q1361.11 1461.74 1360.62 1458.92 Q1359.95 1455.64 1358.17 1454.33 Q1356.42 1453 1354.64 1453 Q1353.97 1453 1353.25 1453.19 Q1352.56 1453.39 1351.55 1453.96 Q1350.54 1454.53 1349.75 1455.94 Q1348.98 1457.34 1348.61 1459.47 Q1348.21 1462.21 1348.21 1468.78 Z" fill="#000000" fill-rule="nonzero" fill-opacity="1" /><path clip-path="url(#clip510)" d="M1743.52 1456.7 L1743.52 1455.12 Q1749.59 1455.12 1752.73 1451.88 Q1753.6 1451.88 1753.74 1452.08 Q1753.89 1452.28 1753.89 1453.19 L1753.89 1481.58 Q1753.89 1483.08 1754.63 1483.55 Q1755.37 1484.02 1758.61 1484.02 L1760.22 1484.02 L1760.22 1485.58 Q1758.44 1485.43 1752.02 1485.43 Q1745.59 1485.43 1743.84 1485.58 L1743.84 1484.02 L1745.44 1484.02 Q1748.63 1484.02 1749.4 1483.58 Q1750.16 1483.11 1750.16 1481.58 L1750.16 1455.37 Q1747.52 1456.7 1743.52 1456.7 Z" fill="#000000" fill-rule="nonzero" fill-opacity="1" /><path clip-path="url(#clip510)" d="M1766.84 1485.58 Q1766.84 1484.67 1766.91 1484.39 Q1767.01 1484.12 1767.41 1483.7 L1777.11 1472.88 Q1782.43 1466.9 1782.43 1461.69 Q1782.43 1458.31 1780.65 1455.89 Q1778.89 1453.47 1775.66 1453.47 Q1773.43 1453.47 1771.56 1454.82 Q1769.68 1456.18 1768.81 1458.6 Q1768.96 1458.55 1769.48 1458.55 Q1770.74 1458.55 1771.43 1459.34 Q1772.15 1460.14 1772.15 1461.2 Q1772.15 1462.56 1771.26 1463.22 Q1770.39 1463.87 1769.53 1463.87 Q1769.18 1463.87 1768.71 1463.79 Q1768.27 1463.72 1767.55 1463.03 Q1766.84 1462.31 1766.84 1461.05 Q1766.84 1457.52 1769.51 1454.7 Q1772.2 1451.88 1776.3 1451.88 Q1780.94 1451.88 1783.98 1454.65 Q1787.04 1457.39 1787.04 1461.69 Q1787.04 1463.2 1786.58 1464.58 Q1786.13 1465.94 1785.51 1467 Q1784.92 1468.07 1783.29 1469.77 Q1781.66 1471.47 1780.35 1472.68 Q1779.04 1473.9 1776.1 1476.46 L1770.74 1481.68 L1779.86 1481.68 Q1784.3 1481.68 1784.65 1481.28 Q1785.14 1480.57 1785.76 1476.79 L1787.04 1476.79 L1785.61 1485.58 L1766.84 1485.58 Z" fill="#000000" fill-rule="nonzero" fill-opacity="1" /><path clip-path="url(#clip510)" d="M1794.68 1484.76 Q1793.91 1483.95 1793.91 1482.89 Q1793.91 1481.82 1794.68 1481.06 Q1795.44 1480.27 1796.6 1480.27 Q1797.72 1480.27 1798.46 1481.01 Q1799.22 1481.73 1799.22 1482.91 Q1799.22 1484.07 1798.41 1484.84 Q1797.62 1485.58 1796.6 1485.58 Q1795.44 1485.58 1794.68 1484.76 Z" fill="#000000" fill-rule="nonzero" fill-opacity="1" /><path clip-path="url(#clip510)" d="M1806.19 1477.43 Q1806.19 1475.92 1807 1475.35 Q1807.82 1474.76 1808.68 1474.76 Q1809.85 1474.76 1810.51 1475.5 Q1811.2 1476.22 1811.2 1477.23 Q1811.2 1478.24 1810.51 1478.98 Q1809.85 1479.7 1808.68 1479.7 Q1808.12 1479.7 1807.82 1479.6 Q1808.49 1481.92 1810.51 1483.6 Q1812.56 1485.28 1815.26 1485.28 Q1818.64 1485.28 1820.67 1482 Q1821.88 1479.87 1821.88 1475.06 Q1821.88 1470.81 1820.96 1468.68 Q1819.55 1465.45 1816.66 1465.45 Q1812.56 1465.45 1810.14 1468.98 Q1809.85 1469.42 1809.5 1469.45 Q1809.01 1469.45 1808.88 1469.18 Q1808.78 1468.88 1808.78 1468.11 L1808.78 1453.14 Q1808.78 1451.93 1809.28 1451.93 Q1809.48 1451.93 1809.9 1452.08 Q1813.08 1453.49 1816.61 1453.51 Q1820.25 1453.51 1823.51 1452.03 Q1823.75 1451.88 1823.9 1451.88 Q1824.4 1451.88 1824.42 1452.45 Q1824.42 1452.65 1824 1453.24 Q1823.61 1453.81 1822.74 1454.58 Q1821.88 1455.32 1820.76 1456.03 Q1819.65 1456.75 1818.02 1457.25 Q1816.42 1457.71 1814.64 1457.71 Q1812.51 1457.71 1810.34 1457.05 L1810.34 1466.9 Q1812.96 1464.33 1816.76 1464.33 Q1820.81 1464.33 1823.61 1467.6 Q1826.4 1470.86 1826.4 1475.4 Q1826.4 1480.17 1823.09 1483.43 Q1819.8 1486.69 1815.35 1486.69 Q1811.3 1486.69 1808.73 1483.8 Q1806.19 1480.91 1806.19 1477.43 Z" fill="#000000" fill-rule="nonzero" fill-opacity="1" /><path clip-path="url(#clip510)" d="M2204.6 1456.7 L2204.6 1455.12 Q2210.68 1455.12 2213.82 1451.88 Q2214.68 1451.88 2214.83 1452.08 Q2214.98 1452.28 2214.98 1453.19 L2214.98 1481.58 Q2214.98 1483.08 2215.72 1483.55 Q2216.46 1484.02 2219.7 1484.02 L2221.3 1484.02 L2221.3 1485.58 Q2219.53 1485.43 2213.1 1485.43 Q2206.68 1485.43 2204.93 1485.58 L2204.93 1484.02 L2206.53 1484.02 Q2209.72 1484.02 2210.48 1483.58 Q2211.25 1483.11 2211.25 1481.58 L2211.25 1455.37 Q2208.61 1456.7 2204.6 1456.7 Z" fill="#000000" fill-rule="nonzero" fill-opacity="1" /><path clip-path="url(#clip510)" d="M2227.92 1477.43 Q2227.92 1475.92 2228.74 1475.35 Q2229.56 1474.76 2230.42 1474.76 Q2231.58 1474.76 2232.25 1475.5 Q2232.94 1476.22 2232.94 1477.23 Q2232.94 1478.24 2232.25 1478.98 Q2231.58 1479.7 2230.42 1479.7 Q2229.85 1479.7 2229.56 1479.6 Q2230.22 1481.92 2232.25 1483.6 Q2234.3 1485.28 2236.99 1485.28 Q2240.38 1485.28 2242.4 1482 Q2243.61 1479.87 2243.61 1475.06 Q2243.61 1470.81 2242.7 1468.68 Q2241.29 1465.45 2238.4 1465.45 Q2234.3 1465.45 2231.88 1468.98 Q2231.58 1469.42 2231.23 1469.45 Q2230.74 1469.45 2230.62 1469.18 Q2230.52 1468.88 2230.52 1468.11 L2230.52 1453.14 Q2230.52 1451.93 2231.01 1451.93 Q2231.21 1451.93 2231.63 1452.08 Q2234.82 1453.49 2238.35 1453.51 Q2241.98 1453.51 2245.24 1452.03 Q2245.49 1451.88 2245.64 1451.88 Q2246.13 1451.88 2246.16 1452.45 Q2246.16 1452.65 2245.74 1453.24 Q2245.34 1453.81 2244.48 1454.58 Q2243.61 1455.32 2242.5 1456.03 Q2241.39 1456.75 2239.76 1457.25 Q2238.15 1457.71 2236.37 1457.71 Q2234.25 1457.71 2232.07 1457.05 L2232.07 1466.9 Q2234.69 1464.33 2238.5 1464.33 Q2242.55 1464.33 2245.34 1467.6 Q2248.13 1470.86 2248.13 1475.4 Q2248.13 1480.17 2244.82 1483.43 Q2241.54 1486.69 2237.09 1486.69 Q2233.04 1486.69 2230.47 1483.8 Q2227.92 1480.91 2227.92 1477.43 Z" fill="#000000" fill-rule="nonzero" fill-opacity="1" /><path clip-path="url(#clip510)" d="M2255.77 1484.76 Q2255 1483.95 2255 1482.89 Q2255 1481.82 2255.77 1481.06 Q2256.53 1480.27 2257.69 1480.27 Q2258.8 1480.27 2259.54 1481.01 Q2260.31 1481.73 2260.31 1482.91 Q2260.31 1484.07 2259.5 1484.84 Q2258.7 1485.58 2257.69 1485.58 Q2256.53 1485.58 2255.77 1484.76 Z" fill="#000000" fill-rule="nonzero" fill-opacity="1" /><path clip-path="url(#clip510)" d="M2266.73 1469.4 Q2266.73 1461.96 2268.61 1457.91 Q2271.23 1451.88 2277.41 1451.88 Q2278.71 1451.88 2280.07 1452.26 Q2281.46 1452.6 2283.19 1453.96 Q2284.94 1455.32 2286 1457.54 Q2288.03 1461.84 2288.03 1469.4 Q2288.03 1476.79 2286.15 1480.81 Q2283.41 1486.69 2277.36 1486.69 Q2275.08 1486.69 2272.76 1485.53 Q2270.46 1484.37 2269.01 1481.58 Q2266.73 1477.4 2266.73 1469.4 M2270.93 1468.78 Q2270.93 1476.41 2271.48 1479.45 Q2272.09 1482.74 2273.77 1484.17 Q2275.48 1485.58 2277.36 1485.58 Q2279.38 1485.58 2281.06 1484.07 Q2282.77 1482.54 2283.28 1479.26 Q2283.85 1476.02 2283.83 1468.78 Q2283.83 1461.74 2283.33 1458.92 Q2282.67 1455.64 2280.89 1454.33 Q2279.13 1453 2277.36 1453 Q2276.69 1453 2275.97 1453.19 Q2275.28 1453.39 2274.27 1453.96 Q2273.26 1454.53 2272.46 1455.94 Q2271.7 1457.34 2271.33 1459.47 Q2270.93 1462.21 2270.93 1468.78 Z" fill="#000000" fill-rule="nonzero" fill-opacity="1" /><path clip-path="url(#clip510)" d="M1229.93 1511.94 Q1229.93 1512.55 1229.8 1513.07 L1228 1524.53 Q1227.9 1525.4 1227.71 1525.72 Q1227.55 1526.05 1227.03 1526.05 Q1226.23 1526.05 1226.23 1525.21 Q1226.23 1524.72 1226.42 1523.95 Q1226.97 1520.31 1226.97 1518.67 Q1226.97 1517.58 1226.74 1516.77 Q1226.55 1515.93 1226.23 1515.35 Q1225.94 1514.77 1225.26 1514.39 Q1224.59 1514 1223.94 1513.77 Q1223.3 1513.55 1222.14 1513.45 Q1220.98 1513.32 1219.98 1513.29 Q1218.98 1513.26 1217.34 1513.26 Q1213.77 1513.26 1213.19 1513.39 Q1212.57 1513.55 1212.25 1514.03 Q1211.96 1514.48 1211.64 1515.84 L1202.88 1550.84 L1202.62 1552.23 Q1202.62 1553 1203.11 1553.26 Q1203.59 1553.52 1205.07 1553.68 Q1207.2 1553.84 1209.29 1553.84 Q1209.35 1553.84 1209.48 1553.84 Q1210.19 1553.84 1210.48 1553.87 Q1210.77 1553.87 1211.06 1553.94 Q1211.35 1554 1211.41 1554.16 Q1211.51 1554.29 1211.51 1554.55 Q1211.51 1555.16 1211.25 1555.48 Q1211 1555.77 1210.74 1555.84 Q1210.51 1555.87 1210.06 1555.87 Q1209.16 1555.87 1207.23 1555.8 Q1205.3 1555.74 1204.33 1555.74 L1198.85 1555.67 L1193.25 1555.74 Q1192.38 1555.74 1190.55 1555.8 Q1188.71 1555.87 1187.84 1555.87 Q1186.71 1555.87 1186.71 1555.06 Q1186.71 1554.16 1187.13 1554 Q1187.58 1553.84 1189.48 1553.84 Q1192.16 1553.84 1193.6 1553.71 Q1195.05 1553.58 1195.83 1553.13 Q1196.63 1552.68 1196.86 1552.23 Q1197.08 1551.75 1197.34 1550.65 L1206.2 1515.45 Q1206.46 1514.68 1206.46 1514.06 Q1206.46 1513.74 1206.36 1513.61 Q1206.29 1513.48 1205.88 1513.39 Q1205.46 1513.26 1204.59 1513.26 L1202.01 1513.26 Q1199.37 1513.26 1197.73 1513.39 Q1196.12 1513.48 1194.57 1513.97 Q1193.06 1514.45 1192.16 1515.13 Q1191.29 1515.8 1190.32 1517.19 Q1189.35 1518.57 1188.65 1520.25 Q1187.97 1521.92 1187 1524.66 Q1186.68 1525.56 1186.49 1525.82 Q1186.33 1526.05 1185.88 1526.05 Q1185.55 1526.05 1185.3 1525.85 Q1185.07 1525.63 1185.07 1525.34 Q1185.39 1524.27 1185.46 1524.15 L1189.42 1512.52 Q1189.74 1511.58 1190.03 1511.42 Q1190.35 1511.23 1191.54 1511.23 L1228.13 1511.23 Q1228.71 1511.23 1228.9 1511.23 Q1229.1 1511.23 1229.42 1511.29 Q1229.74 1511.36 1229.84 1511.52 Q1229.93 1511.68 1229.93 1511.94 Z" fill="#000000" fill-rule="nonzero" fill-opacity="1" /><path clip-path="url(#clip510)" d="M1256.3 1555.39 Q1256.3 1557.85 1255.22 1560.29 Q1254.14 1562.7 1252.4 1564.5 Q1250.69 1566.28 1248.44 1567.41 Q1246.18 1568.51 1243.93 1568.51 Q1240.7 1568.51 1238.61 1566.33 Q1236.53 1564.12 1236.53 1560.69 Q1236.53 1557.49 1238.31 1554.45 Q1240.12 1551.38 1243 1549.49 Q1245.89 1547.59 1248.91 1547.59 Q1252.09 1547.59 1254.18 1549.73 Q1256.3 1551.88 1256.3 1555.39 M1252.92 1553.59 Q1252.92 1551.4 1251.86 1550.01 Q1250.8 1548.61 1248.86 1548.61 Q1248.3 1548.61 1247.65 1548.79 Q1246.99 1548.95 1246.14 1549.37 Q1245.3 1549.8 1244.36 1550.7 Q1243.43 1551.58 1242.62 1552.85 Q1241.56 1554.51 1240.75 1557.58 Q1239.96 1560.62 1239.96 1562.45 Q1239.96 1564.97 1241.13 1566.24 Q1242.3 1567.48 1243.97 1567.48 Q1245.6 1567.48 1247.31 1566.35 Q1249.04 1565.2 1250.24 1563.24 Q1251.43 1561.21 1252.18 1558.23 Q1252.92 1555.24 1252.92 1553.59 Z" fill="#000000" fill-rule="nonzero" fill-opacity="1" /><path clip-path="url(#clip510)" d="M1280.58 1572.36 L1280.58 1506.4 L1290.53 1506.4 L1290.53 1507.91 L1284.99 1507.91 L1284.99 1570.84 L1290.53 1570.84 L1290.53 1572.36 L1280.58 1572.36 Z" fill="#000000" fill-rule="nonzero" fill-opacity="1" /><path clip-path="url(#clip510)" d="M1317.47 1532.39 Q1317.47 1534.19 1316.57 1535.16 Q1315.67 1536.09 1314.44 1536.09 Q1313.45 1536.09 1312.9 1535.51 Q1312.38 1534.93 1312.38 1534.16 Q1312.38 1533.03 1313.28 1532.13 Q1314.22 1531.23 1315.57 1531.2 Q1315.12 1530.01 1313.93 1529.3 Q1312.74 1528.56 1311.67 1528.36 Q1310.64 1528.17 1309.61 1528.17 Q1307.58 1528.17 1306.04 1528.81 Q1304.49 1529.46 1303.72 1530.46 Q1302.95 1531.42 1302.59 1532.36 Q1302.24 1533.29 1302.24 1534.1 Q1302.24 1534.81 1302.4 1535.38 Q1302.59 1535.93 1303.04 1536.35 Q1303.49 1536.74 1303.82 1537 Q1304.17 1537.25 1304.94 1537.48 Q1305.72 1537.7 1306.04 1537.8 Q1306.36 1537.86 1307.26 1538.06 Q1309.13 1538.44 1309.97 1538.67 Q1310.8 1538.86 1311.9 1539.41 Q1313.03 1539.96 1313.86 1540.83 Q1315.89 1542.86 1315.89 1545.66 Q1315.89 1546.69 1315.54 1547.95 Q1315.22 1549.2 1314.28 1550.78 Q1313.35 1552.36 1311.93 1553.61 Q1310.51 1554.87 1308.07 1555.74 Q1305.65 1556.61 1302.62 1556.61 Q1298.4 1556.61 1295.8 1554.84 Q1293.19 1553.03 1293.19 1550.2 Q1293.19 1548.14 1294.31 1547.01 Q1295.44 1545.85 1296.89 1545.85 Q1297.99 1545.85 1298.66 1546.46 Q1299.34 1547.04 1299.34 1548.14 Q1299.34 1549.62 1298.15 1550.75 Q1296.96 1551.87 1295.18 1551.65 Q1296.7 1555.13 1302.69 1555.13 Q1304.94 1555.13 1306.68 1554.55 Q1308.45 1553.94 1309.42 1553.1 Q1310.42 1552.23 1311.06 1551.17 Q1311.71 1550.1 1311.9 1549.3 Q1312.12 1548.49 1312.12 1547.88 Q1312.12 1546.82 1311.71 1546.01 Q1311.29 1545.21 1310.71 1544.76 Q1310.16 1544.27 1309.1 1543.89 Q1308.07 1543.47 1307.33 1543.31 Q1306.59 1543.15 1305.26 1542.89 Q1304.65 1542.76 1304.27 1542.7 Q1303.88 1542.6 1303.07 1542.34 Q1302.3 1542.05 1301.75 1541.76 Q1301.24 1541.47 1300.56 1540.96 Q1299.89 1540.44 1299.47 1539.83 Q1299.05 1539.22 1298.76 1538.32 Q1298.47 1537.41 1298.47 1536.35 Q1298.47 1535.38 1298.76 1534.23 Q1299.08 1533.07 1299.89 1531.71 Q1300.72 1530.36 1301.92 1529.27 Q1303.11 1528.17 1305.1 1527.46 Q1307.13 1526.72 1309.61 1526.72 Q1313.22 1526.72 1315.35 1528.4 Q1317.47 1530.04 1317.47 1532.39 Z" fill="#000000" fill-rule="nonzero" fill-opacity="1" /><path clip-path="url(#clip510)" d="M1322.23 1570.84 L1327.77 1570.84 L1327.77 1507.91 L1322.23 1507.91 L1322.23 1506.4 L1332.18 1506.4 L1332.18 1572.36 L1322.23 1572.36 L1322.23 1570.84 Z" fill="#000000" fill-rule="nonzero" fill-opacity="1" /><polyline clip-path="url(#clip512)" style="stroke:#000000; stroke-linecap:round; stroke-linejoin:round; stroke-width:2; stroke-opacity:0.1; fill:none" points="172.691,1409.03 2352.76,1409.03 "/>
<polyline clip-path="url(#clip512)" style="stroke:#000000; stroke-linecap:round; stroke-linejoin:round; stroke-width:2; stroke-opacity:0.1; fill:none" points="172.691,1142.67 2352.76,1142.67 "/>
<polyline clip-path="url(#clip512)" style="stroke:#000000; stroke-linecap:round; stroke-linejoin:round; stroke-width:2; stroke-opacity:0.1; fill:none" points="172.691,876.305 2352.76,876.305 "/>
<polyline clip-path="url(#clip512)" style="stroke:#000000; stroke-linecap:round; stroke-linejoin:round; stroke-width:2; stroke-opacity:0.1; fill:none" points="172.691,609.943 2352.76,609.943 "/>
<polyline clip-path="url(#clip512)" style="stroke:#000000; stroke-linecap:round; stroke-linejoin:round; stroke-width:2; stroke-opacity:0.1; fill:none" points="172.691,343.581 2352.76,343.581 "/>
<polyline clip-path="url(#clip512)" style="stroke:#000000; stroke-linecap:round; stroke-linejoin:round; stroke-width:2; stroke-opacity:0.1; fill:none" points="172.691,77.2185 2352.76,77.2185 "/>
<polyline clip-path="url(#clip510)" style="stroke:#000000; stroke-linecap:round; stroke-linejoin:round; stroke-width:4; stroke-opacity:1; fill:none" points="172.691,1423.18 172.691,47.2441 "/>
<polyline clip-path="url(#clip510)" style="stroke:#000000; stroke-linecap:round; stroke-linejoin:round; stroke-width:4; stroke-opacity:1; fill:none" points="172.691,1409.03 191.588,1409.03 "/>
<polyline clip-path="url(#clip510)" style="stroke:#000000; stroke-linecap:round; stroke-linejoin:round; stroke-width:4; stroke-opacity:1; fill:none" points="172.691,1142.67 191.588,1142.67 "/>
<polyline clip-path="url(#clip510)" style="stroke:#000000; stroke-linecap:round; stroke-linejoin:round; stroke-width:4; stroke-opacity:1; fill:none" points="172.691,876.305 191.588,876.305 "/>
<polyline clip-path="url(#clip510)" style="stroke:#000000; stroke-linecap:round; stroke-linejoin:round; stroke-width:4; stroke-opacity:1; fill:none" points="172.691,609.943 191.588,609.943 "/>
<polyline clip-path="url(#clip510)" style="stroke:#000000; stroke-linecap:round; stroke-linejoin:round; stroke-width:4; stroke-opacity:1; fill:none" points="172.691,343.581 191.588,343.581 "/>
<polyline clip-path="url(#clip510)" style="stroke:#000000; stroke-linecap:round; stroke-linejoin:round; stroke-width:4; stroke-opacity:1; fill:none" points="172.691,77.2185 191.588,77.2185 "/>
<path clip-path="url(#clip510)" d="M119.991 1397.43 L119.991 1395.85 Q126.068 1395.85 129.206 1392.61 Q130.07 1392.61 130.219 1392.81 Q130.367 1393.01 130.367 1393.92 L130.367 1422.31 Q130.367 1423.81 131.108 1424.28 Q131.849 1424.75 135.085 1424.75 L136.691 1424.75 L136.691 1426.31 Q134.912 1426.16 128.489 1426.16 Q122.066 1426.16 120.312 1426.31 L120.312 1424.75 L121.918 1424.75 Q125.105 1424.75 125.871 1424.31 Q126.637 1423.84 126.637 1422.31 L126.637 1396.1 Q123.993 1397.43 119.991 1397.43 Z" fill="#000000" fill-rule="nonzero" fill-opacity="1" /><path clip-path="url(#clip510)" d="M116.483 1159.95 Q116.483 1159.03 116.558 1158.76 Q116.656 1158.49 117.052 1158.07 L126.76 1147.25 Q132.071 1141.27 132.071 1136.06 Q132.071 1132.67 130.293 1130.25 Q128.539 1127.83 125.303 1127.83 Q123.079 1127.83 121.202 1129.19 Q119.324 1130.55 118.46 1132.97 Q118.608 1132.92 119.127 1132.92 Q120.387 1132.92 121.078 1133.71 Q121.795 1134.5 121.795 1135.56 Q121.795 1136.92 120.905 1137.59 Q120.041 1138.23 119.176 1138.23 Q118.83 1138.23 118.361 1138.16 Q117.916 1138.08 117.2 1137.39 Q116.483 1136.68 116.483 1135.42 Q116.483 1131.88 119.151 1129.07 Q121.844 1126.25 125.945 1126.25 Q130.589 1126.25 133.628 1129.02 Q136.691 1131.76 136.691 1136.06 Q136.691 1137.57 136.221 1138.95 Q135.777 1140.31 135.159 1141.37 Q134.566 1142.43 132.936 1144.14 Q131.305 1145.84 129.996 1147.05 Q128.687 1148.26 125.747 1150.83 L120.387 1156.04 L129.502 1156.04 Q133.949 1156.04 134.295 1155.65 Q134.789 1154.93 135.406 1151.15 L136.691 1151.15 L135.258 1159.95 L116.483 1159.95 Z" fill="#000000" fill-rule="nonzero" fill-opacity="1" /><path clip-path="url(#clip510)" d="M115.693 886.767 Q115.693 885.26 116.558 884.544 Q117.422 883.827 118.534 883.827 Q119.695 883.827 120.51 884.593 Q121.35 885.334 121.35 886.643 Q121.35 888.051 120.362 888.842 Q119.398 889.632 118.015 889.435 Q119.226 891.46 121.449 892.374 Q123.697 893.289 125.772 893.289 Q127.946 893.289 129.7 891.411 Q131.478 889.534 131.478 884.939 Q131.478 881.036 129.947 878.788 Q128.44 876.54 125.451 876.54 L123.227 876.54 Q122.462 876.54 122.239 876.466 Q122.017 876.391 122.017 875.971 Q122.017 875.477 122.783 875.379 Q123.549 875.379 124.759 875.23 Q127.699 875.132 129.255 872.587 Q130.663 870.216 130.663 866.831 Q130.663 863.743 129.181 862.459 Q127.723 861.149 125.821 861.149 Q124.043 861.149 122.091 861.891 Q120.14 862.632 119.077 864.287 Q122.215 864.287 122.215 866.831 Q122.215 867.943 121.498 868.684 Q120.807 869.4 119.645 869.4 Q118.534 869.4 117.793 868.709 Q117.052 867.992 117.052 866.782 Q117.052 863.892 119.621 861.891 Q122.215 859.89 126.019 859.89 Q129.774 859.89 132.541 861.866 Q135.332 863.842 135.332 866.881 Q135.332 869.87 133.356 872.315 Q131.38 874.761 128.242 875.774 Q132.096 876.54 134.393 879.158 Q136.691 881.752 136.691 884.939 Q136.691 888.891 133.578 891.806 Q130.466 894.697 125.92 894.697 Q121.721 894.697 118.707 892.424 Q115.693 890.151 115.693 886.767 Z" fill="#000000" fill-rule="nonzero" fill-opacity="1" /><path clip-path="url(#clip510)" d="M114.26 618.873 L114.26 617.317 L129.799 593.577 Q130.194 592.959 130.811 592.984 Q131.38 592.984 131.503 593.206 Q131.627 593.429 131.627 594.293 L131.627 617.317 L136.691 617.317 L136.691 618.873 L131.627 618.873 L131.627 623.27 Q131.627 624.728 132.219 625.197 Q132.837 625.666 135.456 625.666 L136.518 625.666 L136.518 627.223 Q134.443 627.075 129.65 627.075 Q124.883 627.075 122.808 627.223 L122.808 625.666 L123.87 625.666 Q126.488 625.666 127.106 625.222 Q127.723 624.752 127.723 623.27 L127.723 618.873 L114.26 618.873 M115.693 617.317 L128.02 617.317 L128.02 598.443 L115.693 617.317 Z" fill="#000000" fill-rule="nonzero" fill-opacity="1" /><path clip-path="url(#clip510)" d="M116.483 352.709 Q116.483 351.202 117.299 350.633 Q118.114 350.041 118.978 350.041 Q120.14 350.041 120.807 350.782 Q121.498 351.498 121.498 352.511 Q121.498 353.524 120.807 354.265 Q120.14 354.981 118.978 354.981 Q118.41 354.981 118.114 354.882 Q118.781 357.205 120.807 358.884 Q122.857 360.564 125.55 360.564 Q128.934 360.564 130.96 357.279 Q132.17 355.154 132.17 350.337 Q132.17 346.088 131.256 343.964 Q129.848 340.727 126.958 340.727 Q122.857 340.727 120.436 344.26 Q120.14 344.705 119.794 344.729 Q119.3 344.729 119.176 344.458 Q119.077 344.161 119.077 343.395 L119.077 328.425 Q119.077 327.215 119.571 327.215 Q119.769 327.215 120.189 327.363 Q123.376 328.771 126.908 328.796 Q130.54 328.796 133.801 327.313 Q134.048 327.165 134.196 327.165 Q134.69 327.165 134.715 327.733 Q134.715 327.931 134.295 328.524 Q133.899 329.092 133.035 329.858 Q132.17 330.599 131.058 331.315 Q129.947 332.032 128.316 332.526 Q126.711 332.995 124.932 332.995 Q122.808 332.995 120.634 332.328 L120.634 342.185 Q123.252 339.616 127.056 339.616 Q131.108 339.616 133.899 342.877 Q136.691 346.137 136.691 350.683 Q136.691 355.451 133.381 358.711 Q130.095 361.972 125.648 361.972 Q121.597 361.972 119.028 359.082 Q116.483 356.192 116.483 352.709 Z" fill="#000000" fill-rule="nonzero" fill-opacity="1" /><path clip-path="url(#clip510)" d="M115.693 78.5154 Q115.693 70.5609 119.744 65.6944 Q123.796 60.8031 129.008 60.8031 Q132.047 60.8031 133.726 62.3594 Q135.431 63.891 135.431 66.2625 Q135.431 67.5718 134.665 68.14 Q133.899 68.7082 133.109 68.7082 Q132.195 68.7082 131.478 68.0906 Q130.762 67.473 130.762 66.3614 Q130.762 64.0886 133.553 64.0886 Q132.244 62.063 129.107 62.063 Q128.143 62.063 127.155 62.3594 Q126.167 62.6311 124.883 63.5699 Q123.598 64.5086 122.61 65.9908 Q121.622 67.473 120.93 70.2645 Q120.238 73.056 120.238 76.6874 L120.238 77.8978 Q122.313 72.883 126.562 72.9077 Q130.811 72.9077 133.751 76.1439 Q136.691 79.38 136.691 84.1725 Q136.691 89.0884 133.628 92.3493 Q130.564 95.6101 126.266 95.6101 Q124.339 95.6101 122.585 94.7949 Q120.856 94.0044 119.226 92.1764 Q117.62 90.3483 116.656 86.8404 Q115.693 83.3326 115.693 78.5154 M120.337 83.0608 Q120.337 88.0262 121.251 90.3977 Q121.399 90.793 121.721 91.3365 Q122.066 91.8799 122.635 92.5963 Q123.227 93.288 124.191 93.7574 Q125.154 94.202 126.266 94.202 Q129.65 94.202 131.281 90.9165 Q132.145 89.0884 132.145 84.1231 Q132.145 79.0589 131.231 77.2061 Q129.675 74.0688 126.513 74.0688 Q124.389 74.0688 122.906 75.5263 Q121.449 76.9838 120.881 78.9354 Q120.337 80.8869 120.337 83.0608 Z" fill="#000000" fill-rule="nonzero" fill-opacity="1" /><path clip-path="url(#clip510)" d="M64.7637 781.176 Q65.3756 781.176 65.6976 781.434 Q65.9875 781.66 66.0519 781.885 Q66.0841 782.078 66.0841 782.368 Q66.0841 783.205 65.9875 786.104 Q65.8909 789.003 65.8909 789.84 Q65.8909 791.192 65.9875 793.962 Q66.0841 796.732 66.0841 798.085 Q66.0841 798.986 65.3434 798.986 Q64.8603 798.986 64.6026 798.89 Q64.3128 798.793 64.2162 798.535 Q64.0873 798.246 64.0873 798.085 Q64.0551 797.891 64.0551 797.408 Q64.0551 796.764 63.9907 796.088 Q63.8941 795.411 63.7009 794.574 Q63.5076 793.737 63.0245 793.221 Q62.5415 792.674 61.8651 792.674 Q61.5753 792.674 59.192 792.899 Q56.8088 793.125 54.0391 793.415 Q51.2372 793.705 50.8507 793.737 L50.8507 810.291 Q53.4594 811.804 55.2629 812.867 Q57.0665 813.93 57.6784 814.316 Q58.2903 814.703 58.6767 814.928 Q59.0632 815.154 59.2887 815.282 Q60.9956 816.216 61.7363 816.216 Q63.7975 816.216 64.0551 813.125 Q64.0551 812.062 64.8281 812.062 Q65.4078 812.062 65.7298 812.32 Q66.0197 812.577 66.0519 812.803 Q66.0841 812.996 66.0841 813.318 Q66.0841 814.381 65.9875 816.603 Q65.8909 818.825 65.8909 819.92 Q65.8909 820.854 65.9875 822.786 Q66.0841 824.719 66.0841 825.588 Q66.0841 825.975 65.8587 826.2 Q65.6332 826.426 65.3434 826.426 Q64.8925 826.426 64.6348 826.361 Q64.3772 826.265 64.2484 826.007 Q64.1195 825.749 64.1195 825.621 Q64.0873 825.492 64.0551 825.041 Q63.8941 822.593 62.7347 820.693 Q61.5431 818.761 58.4835 816.925 L19.9653 793.994 Q19.5788 793.769 19.3856 793.608 Q19.1924 793.447 19.0313 793.125 Q18.8703 792.771 18.8703 792.255 Q18.8703 791.45 19.1279 791.289 Q19.3534 791.128 20.4484 791.031 L61.6719 787.006 Q62.5415 786.909 62.8957 786.845 Q63.2178 786.748 63.572 786.329 Q63.8941 785.879 63.9907 785.073 Q64.0551 784.236 64.0551 782.69 Q64.0551 782.11 64.0873 781.885 Q64.0873 781.66 64.2484 781.434 Q64.4094 781.176 64.7637 781.176 M48.7895 793.93 L27.0506 796.023 L48.7895 809.035 L48.7895 793.93 Z" fill="#000000" fill-rule="nonzero" fill-opacity="1" /><path clip-path="url(#clip510)" d="M65.6094 754.802 Q68.0667 754.802 70.5015 755.884 Q72.9137 756.966 74.7173 758.702 Q76.4982 760.416 77.6254 762.67 Q78.7301 764.924 78.7301 767.179 Q78.7301 770.403 76.5433 772.499 Q74.334 774.573 70.9073 774.573 Q67.706 774.573 64.6626 772.792 Q61.5966 770.989 59.7029 768.103 Q57.8092 765.217 57.8092 762.196 Q57.8092 759.018 59.9509 756.921 Q62.0926 754.802 65.6094 754.802 M63.8059 758.184 Q61.6191 758.184 60.2214 759.243 Q58.8237 760.303 58.8237 762.242 Q58.8237 762.805 59.004 763.459 Q59.1618 764.113 59.5902 764.969 Q60.0185 765.804 60.9203 766.75 Q61.7995 767.675 63.062 768.486 Q64.7302 769.546 67.7962 770.357 Q70.8397 771.147 72.6657 771.147 Q75.1907 771.147 76.4532 769.974 Q77.6931 768.802 77.6931 767.134 Q77.6931 765.51 76.5659 763.797 Q75.4161 762.061 73.4548 760.866 Q71.4258 759.672 68.45 758.928 Q65.4516 758.184 63.8059 758.184 Z" fill="#000000" fill-rule="nonzero" fill-opacity="1" /><path clip-path="url(#clip510)" d="M82.5735 730.524 L16.6159 730.524 L16.6159 720.573 L18.1296 720.573 L18.1296 726.112 L81.0598 726.112 L81.0598 720.573 L82.5735 720.573 L82.5735 730.524 Z" fill="#000000" fill-rule="nonzero" fill-opacity="1" /><path clip-path="url(#clip510)" d="M56.6478 665.197 Q56.9054 665.197 57.9038 665.486 Q58.9022 665.776 60.4481 666.485 Q61.994 667.161 63.411 668.127 Q64.7959 669.061 65.8264 670.607 Q66.8248 672.121 66.8248 673.86 Q66.8248 676.179 65.2789 677.725 Q63.7331 679.27 61.4142 679.27 Q60.1582 679.27 57.775 678.401 Q46.8894 674.311 42.9925 674.311 Q38.3871 674.311 38.3871 677.886 Q38.3871 679.915 39.2244 681.75 Q40.0618 683.586 41.2212 684.778 Q42.3806 685.969 43.701 686.903 Q45.0215 687.837 45.891 688.256 Q46.7606 688.642 47.147 688.739 L63.0567 692.7 Q64.4094 693.022 65.0535 693.248 Q65.6976 693.473 66.2451 694.085 Q66.8248 694.697 66.8248 695.663 Q66.8248 696.468 66.3417 697.048 Q65.8587 697.596 65.0213 697.596 Q64.8925 697.596 64.2162 697.435 Q63.5398 697.274 62.6059 697.048 Q61.6719 696.823 61.1244 696.726 Q56.7444 695.567 56.1325 695.406 L48.4675 693.57 Q44.6672 692.572 42.9925 692.572 Q38.3871 692.572 38.3871 696.146 Q38.3871 697.918 39.0634 699.592 Q39.7075 701.235 40.6093 702.362 Q41.511 703.489 42.7671 704.52 Q43.9909 705.518 44.8282 706.034 Q45.6334 706.517 46.4385 706.903 L49.7235 707.74 Q50.6253 707.934 54.1357 708.868 L60.0938 710.317 Q64.5382 711.348 64.9569 711.573 Q65.8587 711.895 66.3417 712.604 Q66.8248 713.312 66.8248 714.021 Q66.8248 714.826 66.3417 715.373 Q65.8587 715.921 65.0213 715.921 Q64.8925 715.921 64.4094 715.824 Q63.9263 715.728 63.25 715.566 Q62.5737 715.405 62.1872 715.341 L46.9538 711.509 Q44.1841 710.8 43.3146 710.639 Q42.4128 710.446 41.4144 710.446 Q38.3871 710.446 38.3871 712.507 Q38.3871 714.182 40.3838 715.277 Q42.3806 716.372 46.2453 717.306 Q47.3081 717.595 47.5335 717.789 Q47.759 717.95 47.759 718.433 Q47.7268 719.238 47.0826 719.238 Q46.9216 719.238 45.891 718.98 Q44.8604 718.723 43.3146 718.24 Q41.7365 717.724 40.7059 717.177 Q40.0296 716.855 39.5787 716.565 Q39.1278 716.275 38.4193 715.695 Q37.7107 715.116 37.3243 714.246 Q36.9378 713.376 36.9378 712.314 Q36.9378 709.963 38.4515 708.224 Q39.9651 706.452 42.6704 706.227 Q36.9378 701.943 36.9378 695.953 Q36.9378 692.572 38.6447 690.543 Q40.2872 688.642 43.3146 688.417 Q36.9378 683.973 36.9378 677.66 Q36.9378 674.021 38.8379 672.056 Q40.7059 670.092 43.9909 670.092 Q45.6978 670.092 48.9506 670.961 Q52.1712 671.831 53.7815 672.411 Q55.3917 672.99 58.4835 674.118 Q61.4465 675.309 63.1856 675.309 Q64.3128 675.309 64.8281 674.923 Q65.3434 674.536 65.3434 673.699 Q65.3434 672.411 64.6026 671.283 Q63.8297 670.156 62.5737 669.351 Q61.2854 668.514 59.9972 667.966 Q58.6767 667.419 57.1953 667 Q56.3901 666.742 56.1969 666.614 Q56.0037 666.453 56.0037 666.002 Q56.0037 665.197 56.6478 665.197 Z" fill="#000000" fill-rule="nonzero" fill-opacity="1" /><path clip-path="url(#clip510)" d="M81.0598 662.148 L81.0598 656.609 L18.1296 656.609 L18.1296 662.148 L16.6159 662.148 L16.6159 652.197 L82.5735 652.197 L82.5735 662.148 L81.0598 662.148 Z" fill="#000000" fill-rule="nonzero" fill-opacity="1" /><circle clip-path="url(#clip512)" cx="731.238" cy="86.1857" r="7.2" fill="#ff0000" fill-rule="evenodd" fill-opacity="1" stroke="#000000" stroke-opacity="1" stroke-width="3.2"/>
<circle clip-path="url(#clip512)" cx="2291.06" cy="484.587" r="7.2" fill="#ff0000" fill-rule="evenodd" fill-opacity="1" stroke="#000000" stroke-opacity="1" stroke-width="3.2"/>
<circle clip-path="url(#clip512)" cx="568.495" cy="636.107" r="7.2" fill="#ff0000" fill-rule="evenodd" fill-opacity="1" stroke="#000000" stroke-opacity="1" stroke-width="3.2"/>
<circle clip-path="url(#clip512)" cx="234.391" cy="1384.24" r="7.2" fill="#ff0000" fill-rule="evenodd" fill-opacity="1" stroke="#000000" stroke-opacity="1" stroke-width="3.2"/>
<path clip-path="url(#clip510)" d="M1476.36 196.789 L2280.09 196.789 L2280.09 93.1086 L1476.36 93.1086  Z" fill="#ffffff" fill-rule="evenodd" fill-opacity="1"/>
<polyline clip-path="url(#clip510)" style="stroke:#000000; stroke-linecap:round; stroke-linejoin:round; stroke-width:4; stroke-opacity:1; fill:none" points="1476.36,196.789 2280.09,196.789 2280.09,93.1086 1476.36,93.1086 1476.36,196.789 "/>
<circle clip-path="url(#clip510)" cx="1573.26" cy="144.949" r="18.432" fill="#ff0000" fill-rule="evenodd" fill-opacity="1" stroke="#000000" stroke-opacity="1" stroke-width="8.192"/>
<path clip-path="url(#clip510)" d="M1675.34 157.98 Q1670.15 152.619 1670.15 144.936 Q1670.15 137.229 1675.38 131.893 Q1680.62 126.557 1687.74 126.557 Q1689.51 126.557 1691.02 126.977 Q1692.55 127.372 1693.76 128.187 Q1694.97 128.978 1695.59 129.521 Q1696.23 130.04 1697.1 130.905 L1699.64 127.175 Q1700.04 126.557 1700.43 126.557 Q1700.85 126.557 1700.93 126.804 Q1701 127.026 1701 127.767 L1701 139.773 Q1701 140.588 1700.9 140.786 Q1700.8 140.984 1700.19 140.984 Q1699.69 140.984 1699.59 140.836 Q1699.5 140.687 1699.37 140.119 Q1698.61 134.66 1695.54 131.399 Q1692.5 128.138 1688.35 128.138 Q1687.14 128.138 1685.78 128.41 Q1684.45 128.681 1682.47 129.719 Q1680.52 130.757 1679.02 132.461 Q1677.53 134.141 1676.45 137.402 Q1675.36 140.638 1675.36 144.936 Q1675.36 149.185 1676.45 152.446 Q1677.53 155.707 1679.04 157.411 Q1680.57 159.091 1682.55 160.154 Q1684.55 161.216 1685.96 161.512 Q1687.39 161.784 1688.65 161.784 Q1689.51 161.784 1690.53 161.611 Q1691.54 161.413 1693.05 160.87 Q1694.58 160.302 1695.54 158.968 Q1696.51 157.634 1696.51 155.658 L1696.51 152.421 Q1696.51 150.914 1695.76 150.445 Q1695.02 149.976 1691.79 149.976 L1690.18 149.976 L1690.18 148.419 Q1692.01 148.568 1698.31 148.568 Q1698.88 148.568 1704.49 148.419 L1704.49 149.976 Q1702.06 149.976 1701.52 150.346 Q1701 150.692 1701 152.199 L1701 161.018 Q1701 162.179 1700.56 162.179 Q1700.16 162.179 1698.98 161.043 Q1697.82 159.907 1697.3 159.042 Q1696.09 161.166 1693.44 162.253 Q1690.82 163.34 1687.84 163.34 Q1680.55 163.34 1675.34 157.98 Z" fill="#000000" fill-rule="nonzero" fill-opacity="1" /><path clip-path="url(#clip510)" d="M1708.36 162.229 L1708.36 160.672 Q1711.06 160.672 1711.67 160.351 Q1712.32 160.005 1712.32 158.375 L1712.32 144.813 Q1712.32 142.935 1711.65 142.466 Q1711.01 141.997 1708.36 141.997 L1708.36 140.416 L1715.4 139.872 L1715.4 145.43 Q1716.12 143.256 1717.63 141.577 Q1719.16 139.872 1721.63 139.872 Q1723.26 139.872 1724.3 140.786 Q1725.36 141.7 1725.36 142.96 Q1725.36 144.072 1724.67 144.64 Q1724 145.183 1723.19 145.183 Q1722.27 145.183 1721.63 144.615 Q1721.01 144.022 1721.01 143.009 Q1721.01 142.392 1721.28 141.922 Q1721.58 141.428 1721.8 141.255 Q1722.02 141.083 1722.17 141.033 Q1722.07 140.984 1721.63 140.984 Q1718.84 140.984 1717.23 143.775 Q1715.65 146.542 1715.65 150.495 L1715.65 158.276 Q1715.65 159.734 1716.24 160.203 Q1716.86 160.672 1719.5 160.672 L1720.57 160.672 L1720.57 162.229 Q1718.54 162.08 1714.14 162.08 Q1713.53 162.08 1712.56 162.105 Q1711.6 162.13 1710.34 162.179 Q1709.08 162.229 1708.36 162.229 Z" fill="#000000" fill-rule="nonzero" fill-opacity="1" /><path clip-path="url(#clip510)" d="M1731.46 159.511 Q1728.13 156.201 1728.13 151.409 Q1728.13 146.591 1731.39 143.084 Q1734.67 139.551 1739.37 139.551 Q1743.96 139.551 1747.25 143.059 Q1750.56 146.542 1750.56 151.409 Q1750.56 156.176 1747.22 159.487 Q1743.91 162.797 1739.32 162.797 Q1734.82 162.797 1731.46 159.511 M1732.33 150.989 Q1732.33 155.905 1733.61 158.128 Q1735.59 161.512 1739.37 161.512 Q1741.24 161.512 1742.8 160.499 Q1744.38 159.487 1745.25 157.782 Q1746.36 155.559 1746.36 150.989 Q1746.36 146.122 1745.02 143.973 Q1743.05 140.687 1739.32 140.687 Q1737.69 140.687 1736.08 141.552 Q1734.5 142.392 1733.54 144.072 Q1732.33 146.295 1732.33 150.989 Z" fill="#000000" fill-rule="nonzero" fill-opacity="1" /><path clip-path="url(#clip510)" d="M1753.64 141.997 L1753.64 140.416 L1761.08 139.872 L1761.08 156.67 Q1761.08 157.881 1761.18 158.597 Q1761.28 159.289 1761.67 160.104 Q1762.09 160.919 1763.03 161.29 Q1764 161.66 1765.53 161.66 Q1768.27 161.66 1769.95 159.412 Q1771.65 157.164 1771.65 153.829 L1771.65 144.813 Q1771.65 142.935 1770.99 142.466 Q1770.32 141.997 1767.7 141.997 L1767.7 140.416 L1775.14 139.872 L1775.14 157.831 Q1775.14 159.709 1775.78 160.203 Q1776.45 160.672 1779.09 160.672 L1779.09 162.229 L1771.8 162.797 L1771.8 158.227 Q1769.68 162.772 1765.28 162.797 Q1763.06 162.797 1761.53 162.229 Q1760.02 161.66 1759.25 160.969 Q1758.49 160.252 1758.07 158.894 Q1757.67 157.535 1757.62 156.695 Q1757.57 155.855 1757.57 154.225 L1757.57 146.641 Q1757.57 143.207 1757.08 142.614 Q1756.58 141.997 1753.64 141.997 Z" fill="#000000" fill-rule="nonzero" fill-opacity="1" /><path clip-path="url(#clip510)" d="M1781.49 170.48 Q1784.18 170.48 1784.8 170.134 Q1785.44 169.813 1785.44 168.207 L1785.44 144.516 Q1785.44 142.836 1784.8 142.417 Q1784.18 141.997 1781.49 141.997 L1781.49 140.416 L1788.77 139.872 L1788.77 143.207 Q1791.81 139.872 1795.86 139.872 Q1800.16 139.872 1803.3 143.207 Q1806.44 146.542 1806.44 151.31 Q1806.44 156.127 1803.1 159.462 Q1799.77 162.797 1795.15 162.797 Q1792.63 162.797 1790.92 161.512 Q1789.24 160.203 1788.92 159.24 L1788.92 159.709 L1788.92 168.207 Q1788.92 169.837 1789.56 170.158 Q1790.21 170.48 1792.87 170.48 L1792.87 172.036 Q1787.56 171.888 1787.17 171.888 Q1786.67 171.888 1781.49 172.036 L1781.49 170.48 M1788.92 156.473 Q1788.92 157.239 1789.02 157.51 Q1789.14 157.782 1789.64 158.597 Q1791.64 161.66 1794.9 161.66 Q1794.92 161.66 1794.95 161.66 Q1797.84 161.66 1800.04 158.721 Q1802.24 155.756 1802.24 151.31 Q1802.24 147.061 1800.24 144.096 Q1798.23 141.132 1795.47 141.132 Q1793.49 141.132 1791.76 142.194 Q1790.03 143.256 1788.92 145.183 L1788.92 156.473 Z" fill="#000000" fill-rule="nonzero" fill-opacity="1" /><path clip-path="url(#clip510)" d="M1826.37 170.48 Q1829.06 170.48 1829.68 170.134 Q1830.32 169.813 1830.32 168.207 L1830.32 144.516 Q1830.32 142.836 1829.68 142.417 Q1829.06 141.997 1826.37 141.997 L1826.37 140.416 L1833.66 139.872 L1833.66 143.207 Q1836.7 139.872 1840.75 139.872 Q1845.05 139.872 1848.18 143.207 Q1851.32 146.542 1851.32 151.31 Q1851.32 156.127 1847.99 159.462 Q1844.65 162.797 1840.03 162.797 Q1837.51 162.797 1835.81 161.512 Q1834.13 160.203 1833.81 159.24 L1833.81 159.709 L1833.81 168.207 Q1833.81 169.837 1834.45 170.158 Q1835.09 170.48 1837.76 170.48 L1837.76 172.036 Q1832.45 171.888 1832.05 171.888 Q1831.56 171.888 1826.37 172.036 L1826.37 170.48 M1833.81 156.473 Q1833.81 157.239 1833.91 157.51 Q1834.03 157.782 1834.52 158.597 Q1836.52 161.66 1839.79 161.66 Q1839.81 161.66 1839.83 161.66 Q1842.73 161.66 1844.92 158.721 Q1847.12 155.756 1847.12 151.31 Q1847.12 147.061 1845.12 144.096 Q1843.12 141.132 1840.35 141.132 Q1838.38 141.132 1836.65 142.194 Q1834.92 143.256 1833.81 145.183 L1833.81 156.473 Z" fill="#000000" fill-rule="nonzero" fill-opacity="1" /><path clip-path="url(#clip510)" d="M1855.15 157.411 Q1855.15 153.113 1860.22 150.84 Q1863.25 149.383 1869.53 149.012 L1869.53 147.16 Q1869.53 144.022 1867.87 142.367 Q1866.24 140.687 1864.17 140.687 Q1860.46 140.687 1858.68 143.009 Q1860.19 143.059 1860.73 143.825 Q1861.28 144.566 1861.28 145.332 Q1861.28 146.344 1860.64 147.011 Q1860.02 147.654 1858.96 147.654 Q1857.94 147.654 1857.28 147.036 Q1856.61 146.394 1856.61 145.282 Q1856.61 142.812 1858.83 141.181 Q1861.08 139.551 1864.27 139.551 Q1868.42 139.551 1871.18 142.342 Q1872.05 143.207 1872.47 144.319 Q1872.91 145.43 1872.96 146.171 Q1873.01 146.888 1873.01 148.321 L1873.01 158.424 Q1873.01 158.721 1873.11 159.215 Q1873.21 159.709 1873.65 160.351 Q1874.12 160.969 1874.89 160.969 Q1876.72 160.969 1876.69 157.733 L1876.69 154.892 L1877.98 154.892 L1877.98 157.733 Q1877.98 160.425 1876.54 161.488 Q1875.14 162.525 1873.83 162.525 Q1872.15 162.525 1871.08 161.29 Q1870.02 160.055 1869.87 158.375 Q1869.11 160.302 1867.35 161.562 Q1865.63 162.797 1863.25 162.797 Q1861.43 162.797 1859.7 162.327 Q1857.99 161.883 1856.56 160.623 Q1855.15 159.338 1855.15 157.411 M1859.05 157.362 Q1859.05 159.24 1860.39 160.45 Q1861.72 161.66 1863.6 161.66 Q1865.72 161.66 1867.63 160.03 Q1869.53 158.375 1869.53 155.139 L1869.53 150.075 Q1863.92 150.272 1861.47 152.52 Q1859.05 154.744 1859.05 157.362 Z" fill="#000000" fill-rule="nonzero" fill-opacity="1" /><path clip-path="url(#clip510)" d="M1879.73 162.229 L1879.73 160.672 Q1882.42 160.672 1883.04 160.351 Q1883.68 160.005 1883.68 158.375 L1883.68 144.813 Q1883.68 142.935 1883.02 142.466 Q1882.37 141.997 1879.73 141.997 L1879.73 140.416 L1886.77 139.872 L1886.77 145.43 Q1887.49 143.256 1888.99 141.577 Q1890.53 139.872 1893 139.872 Q1894.63 139.872 1895.66 140.786 Q1896.73 141.7 1896.73 142.96 Q1896.73 144.072 1896.03 144.64 Q1895.37 145.183 1894.55 145.183 Q1893.64 145.183 1893 144.615 Q1892.38 144.022 1892.38 143.009 Q1892.38 142.392 1892.65 141.922 Q1892.95 141.428 1893.17 141.255 Q1893.39 141.083 1893.54 141.033 Q1893.44 140.984 1893 140.984 Q1890.2 140.984 1888.6 143.775 Q1887.02 146.542 1887.02 150.495 L1887.02 158.276 Q1887.02 159.734 1887.61 160.203 Q1888.23 160.672 1890.87 160.672 L1891.93 160.672 L1891.93 162.229 Q1889.91 162.08 1885.51 162.08 Q1884.89 162.08 1883.93 162.105 Q1882.97 162.13 1881.71 162.179 Q1880.45 162.229 1879.73 162.229 Z" fill="#000000" fill-rule="nonzero" fill-opacity="1" /><path clip-path="url(#clip510)" d="M1900.21 157.411 Q1900.21 153.113 1905.27 150.84 Q1908.31 149.383 1914.59 149.012 L1914.59 147.16 Q1914.59 144.022 1912.93 142.367 Q1911.3 140.687 1909.23 140.687 Q1905.52 140.687 1903.74 143.009 Q1905.25 143.059 1905.79 143.825 Q1906.34 144.566 1906.34 145.332 Q1906.34 146.344 1905.69 147.011 Q1905.08 147.654 1904.01 147.654 Q1903 147.654 1902.33 147.036 Q1901.67 146.394 1901.67 145.282 Q1901.67 142.812 1903.89 141.181 Q1906.14 139.551 1909.33 139.551 Q1913.48 139.551 1916.24 142.342 Q1917.11 143.207 1917.53 144.319 Q1917.97 145.43 1918.02 146.171 Q1918.07 146.888 1918.07 148.321 L1918.07 158.424 Q1918.07 158.721 1918.17 159.215 Q1918.27 159.709 1918.71 160.351 Q1919.18 160.969 1919.95 160.969 Q1921.78 160.969 1921.75 157.733 L1921.75 154.892 L1923.04 154.892 L1923.04 157.733 Q1923.04 160.425 1921.6 161.488 Q1920.19 162.525 1918.89 162.525 Q1917.21 162.525 1916.14 161.29 Q1915.08 160.055 1914.93 158.375 Q1914.17 160.302 1912.41 161.562 Q1910.68 162.797 1908.31 162.797 Q1906.48 162.797 1904.76 162.327 Q1903.05 161.883 1901.62 160.623 Q1900.21 159.338 1900.21 157.411 M1904.11 157.362 Q1904.11 159.24 1905.45 160.45 Q1906.78 161.66 1908.66 161.66 Q1910.78 161.66 1912.69 160.03 Q1914.59 158.375 1914.59 155.139 L1914.59 150.075 Q1908.98 150.272 1906.53 152.52 Q1904.11 154.744 1904.11 157.362 Z" fill="#000000" fill-rule="nonzero" fill-opacity="1" /><path clip-path="url(#clip510)" d="M1925.01 162.229 L1925.01 160.672 Q1927.7 160.672 1928.32 160.351 Q1928.94 160.005 1928.94 158.375 L1928.94 144.813 Q1928.94 142.935 1928.27 142.466 Q1927.63 141.997 1925.01 141.997 L1925.01 140.416 L1932.13 139.872 L1932.13 145.183 Q1934.5 139.872 1939.61 139.872 Q1945.54 139.872 1946.36 144.813 Q1947.22 142.886 1949.02 141.379 Q1950.85 139.872 1953.69 139.872 Q1957.5 139.872 1959 141.75 Q1960.12 143.009 1960.34 144.417 Q1960.56 145.826 1960.56 149.482 L1960.56 159.141 Q1960.61 160.203 1961.42 160.45 Q1962.24 160.672 1964.51 160.672 L1964.51 162.229 Q1959.35 162.08 1958.86 162.08 Q1958.46 162.08 1953.12 162.229 L1953.12 160.672 Q1955.82 160.672 1956.43 160.351 Q1957.08 160.005 1957.08 158.375 L1957.08 146.591 Q1957.08 144.022 1956.29 142.515 Q1955.5 140.984 1953.32 140.984 Q1950.7 140.984 1948.6 143.182 Q1946.5 145.381 1946.5 149.086 L1946.5 158.375 Q1946.5 160.005 1947.12 160.351 Q1947.76 160.672 1950.46 160.672 L1950.46 162.229 Q1945.29 162.08 1944.77 162.08 Q1944.38 162.08 1939.07 162.229 L1939.07 160.672 Q1941.76 160.672 1942.38 160.351 Q1943.02 160.005 1943.02 158.375 L1943.02 146.591 Q1943.02 144.022 1942.23 142.515 Q1941.44 140.984 1939.27 140.984 Q1936.65 140.984 1934.55 143.182 Q1932.45 145.381 1932.45 149.086 L1932.45 158.375 Q1932.45 160.005 1933.07 160.351 Q1933.71 160.672 1936.38 160.672 L1936.38 162.229 Q1931.21 162.08 1930.72 162.08 Q1930.32 162.08 1925.01 162.229 Z" fill="#000000" fill-rule="nonzero" fill-opacity="1" /><path clip-path="url(#clip510)" d="M1966.91 151.087 Q1966.91 146.32 1969.97 142.935 Q1973.04 139.551 1977.43 139.551 Q1981.88 139.551 1984.18 142.441 Q1986.5 145.332 1986.5 149.482 Q1986.5 150.247 1986.3 150.396 Q1986.1 150.544 1985.24 150.544 L1971.11 150.544 Q1971.11 155.707 1972.64 158.128 Q1974.76 161.512 1978.35 161.512 Q1978.84 161.512 1979.43 161.413 Q1980.03 161.315 1981.24 160.895 Q1982.45 160.45 1983.51 159.289 Q1984.57 158.128 1985.19 156.3 Q1985.34 155.583 1985.83 155.608 Q1986.5 155.608 1986.5 156.201 Q1986.5 156.646 1986 157.658 Q1985.54 158.647 1984.62 159.832 Q1983.71 161.018 1981.93 161.907 Q1980.17 162.797 1978.05 162.797 Q1973.6 162.797 1970.24 159.437 Q1966.91 156.053 1966.91 151.087 M1971.16 149.482 L1983.16 149.482 Q1983.16 148.419 1982.97 147.234 Q1982.79 146.048 1982.25 144.417 Q1981.73 142.762 1980.5 141.725 Q1979.26 140.687 1977.43 140.687 Q1976.62 140.687 1975.73 141.033 Q1974.86 141.379 1973.8 142.219 Q1972.74 143.059 1972 144.961 Q1971.26 146.863 1971.16 149.482 Z" fill="#000000" fill-rule="nonzero" fill-opacity="1" /><path clip-path="url(#clip510)" d="M1988.92 141.997 L1988.92 140.885 Q1991.24 140.786 1992.77 139.156 Q1994.33 137.501 1994.85 135.475 Q1995.39 133.449 1995.44 131.102 L1996.7 131.102 L1996.7 140.416 L2003.94 140.416 L2003.94 141.997 L1996.7 141.997 L1996.7 156.053 Q1996.7 161.512 2000.11 161.512 Q2001.57 161.512 2002.53 160.03 Q2003.49 158.523 2003.49 155.855 L2003.49 153.064 L2004.75 153.064 L2004.75 155.954 Q2004.75 158.696 2003.49 160.746 Q2002.23 162.797 1999.74 162.797 Q1998.83 162.797 1997.91 162.55 Q1997.02 162.327 1995.84 161.735 Q1994.68 161.117 1993.93 159.635 Q1993.22 158.128 1993.22 155.954 L1993.22 141.997 L1988.92 141.997 Z" fill="#000000" fill-rule="nonzero" fill-opacity="1" /><path clip-path="url(#clip510)" d="M2008.98 151.087 Q2008.98 146.32 2012.04 142.935 Q2015.11 139.551 2019.5 139.551 Q2023.95 139.551 2026.25 142.441 Q2028.57 145.332 2028.57 149.482 Q2028.57 150.247 2028.37 150.396 Q2028.17 150.544 2027.31 150.544 L2013.18 150.544 Q2013.18 155.707 2014.71 158.128 Q2016.83 161.512 2020.42 161.512 Q2020.91 161.512 2021.5 161.413 Q2022.1 161.315 2023.31 160.895 Q2024.52 160.45 2025.58 159.289 Q2026.64 158.128 2027.26 156.3 Q2027.41 155.583 2027.9 155.608 Q2028.57 155.608 2028.57 156.201 Q2028.57 156.646 2028.07 157.658 Q2027.61 158.647 2026.69 159.832 Q2025.78 161.018 2024 161.907 Q2022.24 162.797 2020.12 162.797 Q2015.67 162.797 2012.31 159.437 Q2008.98 156.053 2008.98 151.087 M2013.23 149.482 L2025.23 149.482 Q2025.23 148.419 2025.04 147.234 Q2024.86 146.048 2024.32 144.417 Q2023.8 142.762 2022.57 141.725 Q2021.33 140.687 2019.5 140.687 Q2018.69 140.687 2017.8 141.033 Q2016.93 141.379 2015.87 142.219 Q2014.81 143.059 2014.07 144.961 Q2013.33 146.863 2013.23 149.482 Z" fill="#000000" fill-rule="nonzero" fill-opacity="1" /><path clip-path="url(#clip510)" d="M2031.43 162.229 L2031.43 160.672 Q2034.13 160.672 2034.74 160.351 Q2035.39 160.005 2035.39 158.375 L2035.39 144.813 Q2035.39 142.935 2034.72 142.466 Q2034.08 141.997 2031.43 141.997 L2031.43 140.416 L2038.47 139.872 L2038.47 145.43 Q2039.19 143.256 2040.7 141.577 Q2042.23 139.872 2044.7 139.872 Q2046.33 139.872 2047.37 140.786 Q2048.43 141.7 2048.43 142.96 Q2048.43 144.072 2047.74 144.64 Q2047.07 145.183 2046.26 145.183 Q2045.34 145.183 2044.7 144.615 Q2044.08 144.022 2044.08 143.009 Q2044.08 142.392 2044.35 141.922 Q2044.65 141.428 2044.87 141.255 Q2045.1 141.083 2045.24 141.033 Q2045.14 140.984 2044.7 140.984 Q2041.91 140.984 2040.3 143.775 Q2038.72 146.542 2038.72 150.495 L2038.72 158.276 Q2038.72 159.734 2039.31 160.203 Q2039.93 160.672 2042.58 160.672 L2043.64 160.672 L2043.64 162.229 Q2041.61 162.08 2037.21 162.08 Q2036.6 162.08 2035.63 162.105 Q2034.67 162.13 2033.41 162.179 Q2032.15 162.229 2031.43 162.229 Z" fill="#000000" fill-rule="nonzero" fill-opacity="1" /><path clip-path="url(#clip510)" d="M2051.47 161.562 L2051.47 154.892 Q2051.47 154.324 2051.49 154.126 Q2051.52 153.928 2051.67 153.78 Q2051.81 153.632 2052.11 153.632 Q2052.46 153.632 2052.58 153.78 Q2052.73 153.928 2052.83 154.496 Q2053.59 157.98 2055.22 159.832 Q2056.88 161.66 2059.87 161.66 Q2062.71 161.66 2064.14 160.401 Q2065.57 159.141 2065.57 157.066 Q2065.57 153.36 2060.31 152.421 Q2057.27 151.804 2056.01 151.409 Q2054.75 150.989 2053.64 150.075 Q2051.47 148.296 2051.47 145.776 Q2051.47 143.256 2053.37 141.404 Q2055.3 139.551 2059.55 139.551 Q2062.39 139.551 2064.31 140.984 Q2064.88 140.539 2065.18 140.169 Q2065.85 139.551 2066.19 139.551 Q2066.59 139.551 2066.66 139.823 Q2066.74 140.07 2066.74 140.786 L2066.74 145.875 Q2066.74 146.443 2066.71 146.641 Q2066.69 146.838 2066.54 146.987 Q2066.39 147.11 2066.07 147.11 Q2065.5 147.11 2065.48 146.641 Q2065.08 140.514 2059.55 140.514 Q2056.56 140.514 2055.22 141.675 Q2053.89 142.812 2053.89 144.368 Q2053.89 145.233 2054.28 145.9 Q2054.7 146.542 2055.22 146.937 Q2055.77 147.308 2056.76 147.678 Q2057.74 148.024 2058.34 148.148 Q2058.95 148.271 2060.11 148.518 Q2064.17 149.284 2065.87 150.939 Q2068 153.064 2068 155.756 Q2068 158.745 2065.97 160.771 Q2063.94 162.797 2059.87 162.797 Q2056.58 162.797 2054.28 160.598 Q2053.99 160.895 2053.77 161.166 Q2053.54 161.413 2053.44 161.512 Q2053.37 161.611 2053.35 161.685 Q2053.32 161.735 2053.27 161.784 Q2052.26 162.797 2052.01 162.797 Q2051.62 162.797 2051.54 162.525 Q2051.47 162.278 2051.47 161.562 Z" fill="#000000" fill-rule="nonzero" fill-opacity="1" /><path clip-path="url(#clip510)" d="M2091.54 149.58 Q2091.54 141.033 2094.72 134.141 Q2096.08 131.251 2097.98 128.83 Q2099.89 126.409 2101.15 125.347 Q2102.41 124.284 2102.75 124.284 Q2103.25 124.284 2103.27 124.778 Q2103.27 125.025 2102.6 125.643 Q2094.45 133.943 2094.48 149.58 Q2094.48 165.267 2102.41 173.246 Q2103.27 174.111 2103.27 174.383 Q2103.27 174.877 2102.75 174.877 Q2102.41 174.877 2101.2 173.864 Q2099.99 172.851 2098.11 170.529 Q2096.23 168.207 2094.87 165.366 Q2091.54 158.474 2091.54 149.58 Z" fill="#000000" fill-rule="nonzero" fill-opacity="1" /><path clip-path="url(#clip510)" d="M2107.82 161.562 L2107.82 154.892 Q2107.82 154.324 2107.84 154.126 Q2107.87 153.928 2108.01 153.78 Q2108.16 153.632 2108.46 153.632 Q2108.81 153.632 2108.93 153.78 Q2109.08 153.928 2109.18 154.496 Q2109.94 157.98 2111.57 159.832 Q2113.23 161.66 2116.22 161.66 Q2119.06 161.66 2120.49 160.401 Q2121.92 159.141 2121.92 157.066 Q2121.92 153.36 2116.66 152.421 Q2113.62 151.804 2112.36 151.409 Q2111.1 150.989 2109.99 150.075 Q2107.82 148.296 2107.82 145.776 Q2107.82 143.256 2109.72 141.404 Q2111.65 139.551 2115.89 139.551 Q2118.74 139.551 2120.66 140.984 Q2121.23 140.539 2121.53 140.169 Q2122.19 139.551 2122.54 139.551 Q2122.94 139.551 2123.01 139.823 Q2123.08 140.07 2123.08 140.786 L2123.08 145.875 Q2123.08 146.443 2123.06 146.641 Q2123.03 146.838 2122.89 146.987 Q2122.74 147.11 2122.42 147.11 Q2121.85 147.11 2121.82 146.641 Q2121.43 140.514 2115.89 140.514 Q2112.91 140.514 2111.57 141.675 Q2110.24 142.812 2110.24 144.368 Q2110.24 145.233 2110.63 145.9 Q2111.05 146.542 2111.57 146.937 Q2112.12 147.308 2113.1 147.678 Q2114.09 148.024 2114.68 148.148 Q2115.3 148.271 2116.46 148.518 Q2120.51 149.284 2122.22 150.939 Q2124.34 153.064 2124.34 155.756 Q2124.34 158.745 2122.32 160.771 Q2120.29 162.797 2116.22 162.797 Q2112.93 162.797 2110.63 160.598 Q2110.34 160.895 2110.11 161.166 Q2109.89 161.413 2109.79 161.512 Q2109.72 161.611 2109.69 161.685 Q2109.67 161.735 2109.62 161.784 Q2108.61 162.797 2108.36 162.797 Q2107.97 162.797 2107.89 162.525 Q2107.82 162.278 2107.82 161.562 Z" fill="#000000" fill-rule="nonzero" fill-opacity="1" /><path clip-path="url(#clip510)" d="M2130.79 159.511 Q2127.46 156.201 2127.46 151.409 Q2127.46 146.591 2130.72 143.084 Q2134 139.551 2138.7 139.551 Q2143.29 139.551 2146.58 143.059 Q2149.89 146.542 2149.89 151.409 Q2149.89 156.176 2146.55 159.487 Q2143.24 162.797 2138.65 162.797 Q2134.15 162.797 2130.79 159.511 M2131.66 150.989 Q2131.66 155.905 2132.94 158.128 Q2134.92 161.512 2138.7 161.512 Q2140.57 161.512 2142.13 160.499 Q2143.71 159.487 2144.58 157.782 Q2145.69 155.559 2145.69 150.989 Q2145.69 146.122 2144.35 143.973 Q2142.38 140.687 2138.65 140.687 Q2137.02 140.687 2135.41 141.552 Q2133.83 142.392 2132.87 144.072 Q2131.66 146.295 2131.66 150.989 Z" fill="#000000" fill-rule="nonzero" fill-opacity="1" /><path clip-path="url(#clip510)" d="M2152.75 162.229 L2152.75 160.672 Q2155.44 160.672 2156.06 160.351 Q2156.7 160.005 2156.7 158.375 L2156.7 144.813 Q2156.7 142.935 2156.04 142.466 Q2155.4 141.997 2152.75 141.997 L2152.75 140.416 L2159.79 139.872 L2159.79 145.43 Q2160.51 143.256 2162.02 141.577 Q2163.55 139.872 2166.02 139.872 Q2167.65 139.872 2168.69 140.786 Q2169.75 141.7 2169.75 142.96 Q2169.75 144.072 2169.06 144.64 Q2168.39 145.183 2167.57 145.183 Q2166.66 145.183 2166.02 144.615 Q2165.4 144.022 2165.4 143.009 Q2165.4 142.392 2165.67 141.922 Q2165.97 141.428 2166.19 141.255 Q2166.41 141.083 2166.56 141.033 Q2166.46 140.984 2166.02 140.984 Q2163.23 140.984 2161.62 143.775 Q2160.04 146.542 2160.04 150.495 L2160.04 158.276 Q2160.04 159.734 2160.63 160.203 Q2161.25 160.672 2163.89 160.672 L2164.96 160.672 L2164.96 162.229 Q2162.93 162.08 2158.53 162.08 Q2157.92 162.08 2156.95 162.105 Q2155.99 162.13 2154.73 162.179 Q2153.47 162.229 2152.75 162.229 Z" fill="#000000" fill-rule="nonzero" fill-opacity="1" /><path clip-path="url(#clip510)" d="M2172.07 141.997 L2172.07 140.885 Q2174.39 140.786 2175.92 139.156 Q2177.48 137.501 2178 135.475 Q2178.54 133.449 2178.59 131.102 L2179.85 131.102 L2179.85 140.416 L2187.09 140.416 L2187.09 141.997 L2179.85 141.997 L2179.85 156.053 Q2179.85 161.512 2183.26 161.512 Q2184.72 161.512 2185.68 160.03 Q2186.65 158.523 2186.65 155.855 L2186.65 153.064 L2187.91 153.064 L2187.91 155.954 Q2187.91 158.696 2186.65 160.746 Q2185.39 162.797 2182.89 162.797 Q2181.98 162.797 2181.06 162.55 Q2180.17 162.327 2178.99 161.735 Q2177.83 161.117 2177.09 159.635 Q2176.37 158.128 2176.37 155.954 L2176.37 141.997 L2172.07 141.997 Z" fill="#000000" fill-rule="nonzero" fill-opacity="1" /><path clip-path="url(#clip510)" d="M2192.13 151.087 Q2192.13 146.32 2195.19 142.935 Q2198.26 139.551 2202.65 139.551 Q2207.1 139.551 2209.4 142.441 Q2211.72 145.332 2211.72 149.482 Q2211.72 150.247 2211.52 150.396 Q2211.32 150.544 2210.46 150.544 L2196.33 150.544 Q2196.33 155.707 2197.86 158.128 Q2199.99 161.512 2203.57 161.512 Q2204.06 161.512 2204.65 161.413 Q2205.25 161.315 2206.46 160.895 Q2207.67 160.45 2208.73 159.289 Q2209.79 158.128 2210.41 156.3 Q2210.56 155.583 2211.05 155.608 Q2211.72 155.608 2211.72 156.201 Q2211.72 156.646 2211.23 157.658 Q2210.76 158.647 2209.84 159.832 Q2208.93 161.018 2207.15 161.907 Q2205.4 162.797 2203.27 162.797 Q2198.82 162.797 2195.46 159.437 Q2192.13 156.053 2192.13 151.087 M2196.38 149.482 L2208.38 149.482 Q2208.38 148.419 2208.19 147.234 Q2208.01 146.048 2207.47 144.417 Q2206.95 142.762 2205.72 141.725 Q2204.48 140.687 2202.65 140.687 Q2201.84 140.687 2200.95 141.033 Q2200.08 141.379 2199.02 142.219 Q2197.96 143.059 2197.22 144.961 Q2196.48 146.863 2196.38 149.482 Z" fill="#000000" fill-rule="nonzero" fill-opacity="1" /><path clip-path="url(#clip510)" d="M2214.91 151.359 Q2214.91 146.542 2218.27 143.207 Q2221.63 139.872 2226.17 139.872 Q2230.02 139.872 2232.54 143.009 L2232.54 132.066 Q2232.54 130.188 2231.88 129.719 Q2231.23 129.25 2228.62 129.25 L2228.62 127.669 L2235.9 127.125 L2235.9 157.831 Q2235.9 159.709 2236.55 160.203 Q2237.21 160.672 2239.83 160.672 L2239.83 162.229 L2232.4 162.797 L2232.4 159.437 Q2229.78 162.772 2225.63 162.797 Q2221.28 162.797 2218.09 159.462 Q2214.91 156.127 2214.91 151.359 M2219.11 151.409 Q2219.11 156.102 2220.56 158.424 Q2222.59 161.66 2225.87 161.66 Q2229.63 161.66 2231.85 158.128 Q2232.42 157.263 2232.4 156.25 L2232.4 145.875 Q2232.4 144.862 2231.85 144.022 Q2229.78 140.984 2226.39 140.984 Q2222.86 140.984 2220.66 144.22 Q2219.11 146.641 2219.11 151.409 Z" fill="#000000" fill-rule="nonzero" fill-opacity="1" /><path clip-path="url(#clip510)" d="M2244.13 174.383 Q2244.13 174.136 2244.77 173.518 Q2252.92 165.218 2252.92 149.58 Q2252.92 133.894 2245.09 125.964 Q2244.13 125.05 2244.13 124.778 Q2244.13 124.284 2244.62 124.284 Q2244.97 124.284 2246.18 125.297 Q2247.42 126.31 2249.27 128.632 Q2251.15 130.954 2252.53 133.795 Q2255.86 140.687 2255.86 149.58 Q2255.86 158.128 2252.68 165.02 Q2251.32 167.91 2249.42 170.331 Q2247.51 172.752 2246.25 173.814 Q2244.99 174.877 2244.62 174.877 Q2244.13 174.877 2244.13 174.383 Z" fill="#000000" fill-rule="nonzero" fill-opacity="1" /></svg>
