<?xml version="1.0" encoding="utf-8"?>
<svg xmlns="http://www.w3.org/2000/svg" xmlns:xlink="http://www.w3.org/1999/xlink" width="600" height="400" viewBox="0 0 2400 1600">
<defs>
  <clipPath id="clip410">
    <rect x="0" y="0" width="2400" height="1600"/>
  </clipPath>
</defs>
<path clip-path="url(#clip410)" d="M0 1600 L2400 1600 L2400 0 L0 0  Z" fill="#ffffff" fill-rule="evenodd" fill-opacity="1"/>
<defs>
  <clipPath id="clip411">
    <rect x="480" y="0" width="1681" height="1600"/>
  </clipPath>
</defs>
<path clip-path="url(#clip410)" d="M249.395 1150.52 L2352.76 1150.52 L2352.76 47.2441 L249.395 47.2441  Z" fill="#ffffff" fill-rule="evenodd" fill-opacity="1"/>
<defs>
  <clipPath id="clip412">
    <rect x="249" y="47" width="2104" height="1104"/>
  </clipPath>
</defs>
<polyline clip-path="url(#clip412)" style="stroke:#000000; stroke-linecap:round; stroke-linejoin:round; stroke-width:2; stroke-opacity:0.1; fill:none" points="270.125,1150.52 270.125,47.2441 "/>
<polyline clip-path="url(#clip412)" style="stroke:#000000; stroke-linecap:round; stroke-linejoin:round; stroke-width:2; stroke-opacity:0.1; fill:none" points="713.544,1150.52 713.544,47.2441 "/>
<polyline clip-path="url(#clip412)" style="stroke:#000000; stroke-linecap:round; stroke-linejoin:round; stroke-width:2; stroke-opacity:0.1; fill:none" points="1156.96,1150.52 1156.96,47.2441 "/>
<polyline clip-path="url(#clip412)" style="stroke:#000000; stroke-linecap:round; stroke-linejoin:round; stroke-width:2; stroke-opacity:0.1; fill:none" points="1600.38,1150.52 1600.38,47.2441 "/>
<polyline clip-path="url(#clip412)" style="stroke:#000000; stroke-linecap:round; stroke-linejoin:round; stroke-width:2; stroke-opacity:0.1; fill:none" points="2043.8,1150.52 2043.8,47.2441 "/>
<polyline clip-path="url(#clip410)" style="stroke:#000000; stroke-linecap:round; stroke-linejoin:round; stroke-width:4; stroke-opacity:1; fill:none" points="249.395,1150.52 2352.76,1150.52 "/>
<polyline clip-path="url(#clip410)" style="stroke:#000000; stroke-linecap:round; stroke-linejoin:round; stroke-width:4; stroke-opacity:1; fill:none" points="270.125,1150.52 270.125,1135.36 "/>
<polyline clip-path="url(#clip410)" style="stroke:#000000; stroke-linecap:round; stroke-linejoin:round; stroke-width:4; stroke-opacity:1; fill:none" points="713.544,1150.52 713.544,1135.36 "/>
<polyline clip-path="url(#clip410)" style="stroke:#000000; stroke-linecap:round; stroke-linejoin:round; stroke-width:4; stroke-opacity:1; fill:none" points="1156.96,1150.52 1156.96,1135.36 "/>
<polyline clip-path="url(#clip410)" style="stroke:#000000; stroke-linecap:round; stroke-linejoin:round; stroke-width:4; stroke-opacity:1; fill:none" points="1600.38,1150.52 1600.38,1135.36 "/>
<polyline clip-path="url(#clip410)" style="stroke:#000000; stroke-linecap:round; stroke-linejoin:round; stroke-width:4; stroke-opacity:1; fill:none" points="2043.8,1150.52 2043.8,1135.36 "/>
<path clip-path="url(#clip410)" d="M260.984 1199.55 Q261.281 1199.85 261.281 1200.27 Q261.281 1200.69 260.984 1200.98 Q260.688 1201.28 260.268 1201.28 L228.598 1201.28 Q228.178 1201.28 227.882 1200.98 Q227.585 1200.69 227.585 1200.27 Q227.585 1199.85 227.882 1199.55 Q228.178 1199.25 228.598 1199.25 L260.268 1199.25 Q260.688 1199.25 260.984 1199.55 Z" fill="#000000" fill-rule="nonzero" fill-opacity="1" /><path clip-path="url(#clip410)" d="M265.505 1204.57 L265.505 1203.01 L281.043 1179.27 Q281.439 1178.65 282.056 1178.68 Q282.625 1178.68 282.748 1178.9 Q282.872 1179.12 282.872 1179.99 L282.872 1203.01 L287.936 1203.01 L287.936 1204.57 L282.872 1204.57 L282.872 1208.96 Q282.872 1210.42 283.464 1210.89 Q284.082 1211.36 286.701 1211.36 L287.763 1211.36 L287.763 1212.92 Q285.688 1212.77 280.895 1212.77 Q276.128 1212.77 274.052 1212.92 L274.052 1211.36 L275.115 1211.36 Q277.733 1211.36 278.351 1210.91 Q278.968 1210.44 278.968 1208.96 L278.968 1204.57 L265.505 1204.57 M266.938 1203.01 L279.265 1203.01 L279.265 1184.14 L266.938 1203.01 Z" fill="#000000" fill-rule="nonzero" fill-opacity="1" /><path clip-path="url(#clip410)" d="M291.369 1196.73 Q291.369 1189.3 293.247 1185.25 Q295.866 1179.22 302.041 1179.22 Q303.351 1179.22 304.709 1179.59 Q306.093 1179.94 307.822 1181.3 Q309.576 1182.65 310.638 1184.88 Q312.664 1189.18 312.664 1196.73 Q312.664 1204.12 310.786 1208.15 Q308.044 1214.03 301.992 1214.03 Q299.719 1214.03 297.397 1212.87 Q295.1 1211.7 293.642 1208.91 Q291.369 1204.74 291.369 1196.73 M295.569 1196.12 Q295.569 1203.75 296.113 1206.79 Q296.73 1210.07 298.41 1211.51 Q300.114 1212.92 301.992 1212.92 Q304.018 1212.92 305.697 1211.41 Q307.402 1209.88 307.921 1206.59 Q308.489 1203.36 308.464 1196.12 Q308.464 1189.08 307.97 1186.26 Q307.303 1182.97 305.525 1181.67 Q303.771 1180.33 301.992 1180.33 Q301.325 1180.33 300.609 1180.53 Q299.917 1180.73 298.904 1181.3 Q297.891 1181.86 297.101 1183.27 Q296.335 1184.68 295.964 1186.8 Q295.569 1189.55 295.569 1196.12 Z" fill="#000000" fill-rule="nonzero" fill-opacity="1" /><path clip-path="url(#clip410)" d="M704.404 1199.55 Q704.7 1199.85 704.7 1200.27 Q704.7 1200.69 704.404 1200.98 Q704.108 1201.28 703.688 1201.28 L672.018 1201.28 Q671.598 1201.28 671.302 1200.98 Q671.005 1200.69 671.005 1200.27 Q671.005 1199.85 671.302 1199.55 Q671.598 1199.25 672.018 1199.25 L703.688 1199.25 Q704.108 1199.25 704.404 1199.55 Z" fill="#000000" fill-rule="nonzero" fill-opacity="1" /><path clip-path="url(#clip410)" d="M710.036 1212.92 Q710.036 1212 710.111 1211.73 Q710.209 1211.46 710.605 1211.04 L720.313 1200.22 Q725.624 1194.24 725.624 1189.03 Q725.624 1185.64 723.846 1183.22 Q722.092 1180.8 718.855 1180.8 Q716.632 1180.8 714.755 1182.16 Q712.877 1183.52 712.013 1185.94 Q712.161 1185.89 712.68 1185.89 Q713.94 1185.89 714.631 1186.68 Q715.348 1187.47 715.348 1188.53 Q715.348 1189.89 714.458 1190.56 Q713.594 1191.2 712.729 1191.2 Q712.383 1191.2 711.914 1191.13 Q711.469 1191.05 710.753 1190.36 Q710.036 1189.64 710.036 1188.38 Q710.036 1184.85 712.704 1182.04 Q715.397 1179.22 719.498 1179.22 Q724.142 1179.22 727.181 1181.99 Q730.244 1184.73 730.244 1189.03 Q730.244 1190.53 729.774 1191.92 Q729.33 1193.28 728.712 1194.34 Q728.119 1195.4 726.489 1197.11 Q724.858 1198.81 723.549 1200.02 Q722.24 1201.23 719.3 1203.8 L713.94 1209.01 L723.055 1209.01 Q727.502 1209.01 727.848 1208.62 Q728.342 1207.9 728.959 1204.12 L730.244 1204.12 L728.811 1212.92 L710.036 1212.92 Z" fill="#000000" fill-rule="nonzero" fill-opacity="1" /><path clip-path="url(#clip410)" d="M734.789 1196.73 Q734.789 1189.3 736.667 1185.25 Q739.285 1179.22 745.461 1179.22 Q746.77 1179.22 748.129 1179.59 Q749.512 1179.94 751.242 1181.3 Q752.996 1182.65 754.058 1184.88 Q756.083 1189.18 756.083 1196.73 Q756.083 1204.12 754.206 1208.15 Q751.464 1214.03 745.412 1214.03 Q743.139 1214.03 740.817 1212.87 Q738.519 1211.7 737.062 1208.91 Q734.789 1204.74 734.789 1196.73 M738.989 1196.12 Q738.989 1203.75 739.532 1206.79 Q740.15 1210.07 741.83 1211.51 Q743.534 1212.92 745.412 1212.92 Q747.437 1212.92 749.117 1211.41 Q750.822 1209.88 751.34 1206.59 Q751.909 1203.36 751.884 1196.12 Q751.884 1189.08 751.39 1186.26 Q750.723 1182.97 748.944 1181.67 Q747.19 1180.33 745.412 1180.33 Q744.745 1180.33 744.028 1180.53 Q743.337 1180.73 742.324 1181.3 Q741.311 1181.86 740.52 1183.27 Q739.755 1184.68 739.384 1186.8 Q738.989 1189.55 738.989 1196.12 Z" fill="#000000" fill-rule="nonzero" fill-opacity="1" /><path clip-path="url(#clip410)" d="M1146.32 1196.73 Q1146.32 1189.3 1148.19 1185.25 Q1150.81 1179.22 1156.99 1179.22 Q1158.3 1179.22 1159.66 1179.59 Q1161.04 1179.94 1162.77 1181.3 Q1164.52 1182.65 1165.59 1184.88 Q1167.61 1189.18 1167.61 1196.73 Q1167.61 1204.12 1165.73 1208.15 Q1162.99 1214.03 1156.94 1214.03 Q1154.67 1214.03 1152.34 1212.87 Q1150.05 1211.7 1148.59 1208.91 Q1146.32 1204.74 1146.32 1196.73 M1150.52 1196.12 Q1150.52 1203.75 1151.06 1206.79 Q1151.68 1210.07 1153.36 1211.51 Q1155.06 1212.92 1156.94 1212.92 Q1158.96 1212.92 1160.64 1211.41 Q1162.35 1209.88 1162.87 1206.59 Q1163.44 1203.36 1163.41 1196.12 Q1163.41 1189.08 1162.92 1186.26 Q1162.25 1182.97 1160.47 1181.67 Q1158.72 1180.33 1156.94 1180.33 Q1156.27 1180.33 1155.56 1180.53 Q1154.86 1180.73 1153.85 1181.3 Q1152.84 1181.86 1152.05 1183.27 Q1151.28 1184.68 1150.91 1186.8 Q1150.52 1189.55 1150.52 1196.12 Z" fill="#000000" fill-rule="nonzero" fill-opacity="1" /><path clip-path="url(#clip410)" d="M1577.36 1212.92 Q1577.36 1212 1577.43 1211.73 Q1577.53 1211.46 1577.93 1211.04 L1587.64 1200.22 Q1592.95 1194.24 1592.95 1189.03 Q1592.95 1185.64 1591.17 1183.22 Q1589.42 1180.8 1586.18 1180.8 Q1583.96 1180.8 1582.08 1182.16 Q1580.2 1183.52 1579.34 1185.94 Q1579.48 1185.89 1580 1185.89 Q1581.26 1185.89 1581.95 1186.68 Q1582.67 1187.47 1582.67 1188.53 Q1582.67 1189.89 1581.78 1190.56 Q1580.92 1191.2 1580.05 1191.2 Q1579.71 1191.2 1579.24 1191.13 Q1578.79 1191.05 1578.08 1190.36 Q1577.36 1189.64 1577.36 1188.38 Q1577.36 1184.85 1580.03 1182.04 Q1582.72 1179.22 1586.82 1179.22 Q1591.47 1179.22 1594.5 1181.99 Q1597.57 1184.73 1597.57 1189.03 Q1597.57 1190.53 1597.1 1191.92 Q1596.65 1193.28 1596.04 1194.34 Q1595.44 1195.4 1593.81 1197.11 Q1592.18 1198.81 1590.87 1200.02 Q1589.56 1201.23 1586.62 1203.8 L1581.26 1209.01 L1590.38 1209.01 Q1594.83 1209.01 1595.17 1208.62 Q1595.67 1207.9 1596.28 1204.12 L1597.57 1204.12 L1596.13 1212.92 L1577.36 1212.92 Z" fill="#000000" fill-rule="nonzero" fill-opacity="1" /><path clip-path="url(#clip410)" d="M1602.11 1196.73 Q1602.11 1189.3 1603.99 1185.25 Q1606.61 1179.22 1612.78 1179.22 Q1614.09 1179.22 1615.45 1179.59 Q1616.84 1179.94 1618.57 1181.3 Q1620.32 1182.65 1621.38 1184.88 Q1623.41 1189.18 1623.41 1196.73 Q1623.41 1204.12 1621.53 1208.15 Q1618.79 1214.03 1612.74 1214.03 Q1610.46 1214.03 1608.14 1212.87 Q1605.84 1211.7 1604.39 1208.91 Q1602.11 1204.74 1602.11 1196.73 M1606.31 1196.12 Q1606.31 1203.75 1606.86 1206.79 Q1607.47 1210.07 1609.15 1211.51 Q1610.86 1212.92 1612.74 1212.92 Q1614.76 1212.92 1616.44 1211.41 Q1618.15 1209.88 1618.66 1206.59 Q1619.23 1203.36 1619.21 1196.12 Q1619.21 1189.08 1618.71 1186.26 Q1618.05 1182.97 1616.27 1181.67 Q1614.51 1180.33 1612.74 1180.33 Q1612.07 1180.33 1611.35 1180.53 Q1610.66 1180.73 1609.65 1181.3 Q1608.63 1181.86 1607.84 1183.27 Q1607.08 1184.68 1606.71 1186.8 Q1606.31 1189.55 1606.31 1196.12 Z" fill="#000000" fill-rule="nonzero" fill-opacity="1" /><path clip-path="url(#clip410)" d="M2020.22 1204.57 L2020.22 1203.01 L2035.76 1179.27 Q2036.16 1178.65 2036.78 1178.68 Q2037.34 1178.68 2037.47 1178.9 Q2037.59 1179.12 2037.59 1179.99 L2037.59 1203.01 L2042.65 1203.01 L2042.65 1204.57 L2037.59 1204.57 L2037.59 1208.96 Q2037.59 1210.42 2038.18 1210.89 Q2038.8 1211.36 2041.42 1211.36 L2042.48 1211.36 L2042.48 1212.92 Q2040.41 1212.77 2035.61 1212.77 Q2030.85 1212.77 2028.77 1212.92 L2028.77 1211.36 L2029.83 1211.36 Q2032.45 1211.36 2033.07 1210.91 Q2033.69 1210.44 2033.69 1208.96 L2033.69 1204.57 L2020.22 1204.57 M2021.66 1203.01 L2033.98 1203.01 L2033.98 1184.14 L2021.66 1203.01 Z" fill="#000000" fill-rule="nonzero" fill-opacity="1" /><path clip-path="url(#clip410)" d="M2046.09 1196.73 Q2046.09 1189.3 2047.97 1185.25 Q2050.58 1179.22 2056.76 1179.22 Q2058.07 1179.22 2059.43 1179.59 Q2060.81 1179.94 2062.54 1181.3 Q2064.29 1182.65 2065.36 1184.88 Q2067.38 1189.18 2067.38 1196.73 Q2067.38 1204.12 2065.51 1208.15 Q2062.76 1214.03 2056.71 1214.03 Q2054.44 1214.03 2052.12 1212.87 Q2049.82 1211.7 2048.36 1208.91 Q2046.09 1204.74 2046.09 1196.73 M2050.29 1196.12 Q2050.29 1203.75 2050.83 1206.79 Q2051.45 1210.07 2053.13 1211.51 Q2054.83 1212.92 2056.71 1212.92 Q2058.74 1212.92 2060.42 1211.41 Q2062.12 1209.88 2062.64 1206.59 Q2063.21 1203.36 2063.18 1196.12 Q2063.18 1189.08 2062.69 1186.26 Q2062.02 1182.97 2060.24 1181.67 Q2058.49 1180.33 2056.71 1180.33 Q2056.04 1180.33 2055.33 1180.53 Q2054.64 1180.73 2053.62 1181.3 Q2052.61 1181.86 2051.82 1183.27 Q2051.05 1184.68 2050.68 1186.8 Q2050.29 1189.55 2050.29 1196.12 Z" fill="#000000" fill-rule="nonzero" fill-opacity="1" /><path clip-path="url(#clip410)" d="M1247.36 1267.56 L1247.36 1266.03 Q1250.55 1265.9 1252.66 1263.65 Q1254.8 1261.38 1255.51 1258.59 Q1256.26 1255.81 1256.32 1252.58 L1258.06 1252.58 L1258.06 1265.39 L1268.01 1265.39 L1268.01 1267.56 L1258.06 1267.56 L1258.06 1286.89 Q1258.06 1294.39 1262.74 1294.39 Q1264.75 1294.39 1266.07 1292.36 Q1267.4 1290.28 1267.4 1286.62 L1267.4 1282.78 L1269.13 1282.78 L1269.13 1286.75 Q1269.13 1290.52 1267.4 1293.34 Q1265.66 1296.16 1262.23 1296.16 Q1260.98 1296.16 1259.72 1295.82 Q1258.5 1295.52 1256.87 1294.7 Q1255.27 1293.85 1254.25 1291.81 Q1253.27 1289.74 1253.27 1286.75 L1253.27 1267.56 L1247.36 1267.56 Z" fill="#000000" fill-rule="nonzero" fill-opacity="1" /><path clip-path="url(#clip410)" d="M1303.37 1312.77 L1303.37 1243.21 L1313.86 1243.21 L1313.86 1244.8 L1308.02 1244.8 L1308.02 1311.17 L1313.86 1311.17 L1313.86 1312.77 L1303.37 1312.77 Z" fill="#000000" fill-rule="nonzero" fill-opacity="1" /><path clip-path="url(#clip410)" d="M1317.77 1294.46 L1317.77 1285.29 Q1317.77 1284.51 1317.8 1284.24 Q1317.84 1283.97 1318.04 1283.76 Q1318.25 1283.56 1318.65 1283.56 Q1319.13 1283.56 1319.3 1283.76 Q1319.5 1283.97 1319.64 1284.75 Q1320.69 1289.54 1322.93 1292.08 Q1325.21 1294.6 1329.32 1294.6 Q1333.23 1294.6 1335.2 1292.87 Q1337.17 1291.13 1337.17 1288.28 Q1337.17 1283.19 1329.93 1281.89 Q1325.75 1281.05 1324.02 1280.5 Q1322.29 1279.92 1320.76 1278.67 Q1317.77 1276.22 1317.77 1272.76 Q1317.77 1269.29 1320.39 1266.75 Q1323.04 1264.2 1328.88 1264.2 Q1332.78 1264.2 1335.43 1266.17 Q1336.21 1265.56 1336.62 1265.05 Q1337.54 1264.2 1338.01 1264.2 Q1338.56 1264.2 1338.66 1264.57 Q1338.76 1264.91 1338.76 1265.9 L1338.76 1272.89 Q1338.76 1273.67 1338.73 1273.95 Q1338.69 1274.22 1338.49 1274.42 Q1338.29 1274.59 1337.84 1274.59 Q1337.06 1274.59 1337.03 1273.95 Q1336.49 1265.52 1328.88 1265.52 Q1324.77 1265.52 1322.93 1267.12 Q1321.1 1268.68 1321.1 1270.82 Q1321.1 1272.01 1321.64 1272.93 Q1322.22 1273.81 1322.93 1274.35 Q1323.68 1274.86 1325.04 1275.37 Q1326.4 1275.85 1327.21 1276.02 Q1328.06 1276.19 1329.66 1276.53 Q1335.23 1277.58 1337.57 1279.86 Q1340.49 1282.78 1340.49 1286.48 Q1340.49 1290.59 1337.71 1293.38 Q1334.92 1296.16 1329.32 1296.16 Q1324.8 1296.16 1321.64 1293.14 Q1321.23 1293.55 1320.93 1293.92 Q1320.62 1294.26 1320.49 1294.39 Q1320.39 1294.53 1320.35 1294.63 Q1320.32 1294.7 1320.25 1294.77 Q1318.86 1296.16 1318.52 1296.16 Q1317.97 1296.16 1317.87 1295.79 Q1317.77 1295.45 1317.77 1294.46 Z" fill="#000000" fill-rule="nonzero" fill-opacity="1" /><path clip-path="url(#clip410)" d="M1344.3 1311.17 L1350.14 1311.17 L1350.14 1244.8 L1344.3 1244.8 L1344.3 1243.21 L1354.79 1243.21 L1354.79 1312.77 L1344.3 1312.77 L1344.3 1311.17 Z" fill="#000000" fill-rule="nonzero" fill-opacity="1" /><polyline clip-path="url(#clip412)" style="stroke:#000000; stroke-linecap:round; stroke-linejoin:round; stroke-width:2; stroke-opacity:0.1; fill:none" points="249.395,1038.61 2352.76,1038.61 "/>
<polyline clip-path="url(#clip412)" style="stroke:#000000; stroke-linecap:round; stroke-linejoin:round; stroke-width:2; stroke-opacity:0.1; fill:none" points="249.395,805.413 2352.76,805.413 "/>
<polyline clip-path="url(#clip412)" style="stroke:#000000; stroke-linecap:round; stroke-linejoin:round; stroke-width:2; stroke-opacity:0.1; fill:none" points="249.395,572.22 2352.76,572.22 "/>
<polyline clip-path="url(#clip412)" style="stroke:#000000; stroke-linecap:round; stroke-linejoin:round; stroke-width:2; stroke-opacity:0.1; fill:none" points="249.395,339.026 2352.76,339.026 "/>
<polyline clip-path="url(#clip412)" style="stroke:#000000; stroke-linecap:round; stroke-linejoin:round; stroke-width:2; stroke-opacity:0.1; fill:none" points="249.395,105.833 2352.76,105.833 "/>
<polyline clip-path="url(#clip410)" style="stroke:#000000; stroke-linecap:round; stroke-linejoin:round; stroke-width:4; stroke-opacity:1; fill:none" points="249.395,1150.52 249.395,47.2441 "/>
<polyline clip-path="url(#clip410)" style="stroke:#000000; stroke-linecap:round; stroke-linejoin:round; stroke-width:4; stroke-opacity:1; fill:none" points="249.395,1038.61 268.292,1038.61 "/>
<polyline clip-path="url(#clip410)" style="stroke:#000000; stroke-linecap:round; stroke-linejoin:round; stroke-width:4; stroke-opacity:1; fill:none" points="249.395,805.413 268.292,805.413 "/>
<polyline clip-path="url(#clip410)" style="stroke:#000000; stroke-linecap:round; stroke-linejoin:round; stroke-width:4; stroke-opacity:1; fill:none" points="249.395,572.22 268.292,572.22 "/>
<polyline clip-path="url(#clip410)" style="stroke:#000000; stroke-linecap:round; stroke-linejoin:round; stroke-width:4; stroke-opacity:1; fill:none" points="249.395,339.026 268.292,339.026 "/>
<polyline clip-path="url(#clip410)" style="stroke:#000000; stroke-linecap:round; stroke-linejoin:round; stroke-width:4; stroke-opacity:1; fill:none" points="249.395,105.833 268.292,105.833 "/>
<path clip-path="url(#clip410)" d="M147.659 1042.52 Q147.956 1042.82 147.956 1043.24 Q147.956 1043.66 147.659 1043.95 Q147.363 1044.25 146.943 1044.25 L115.273 1044.25 Q114.853 1044.25 114.557 1043.95 Q114.26 1043.66 114.26 1043.24 Q114.26 1042.82 114.557 1042.52 Q114.853 1042.22 115.273 1042.22 L146.943 1042.22 Q147.363 1042.22 147.659 1042.52 Z" fill="#000000" fill-rule="nonzero" fill-opacity="1" /><path clip-path="url(#clip410)" d="M153.291 1047.73 Q153.291 1046.23 154.107 1045.66 Q154.922 1045.07 155.787 1045.07 Q156.948 1045.07 157.615 1045.81 Q158.306 1046.52 158.306 1047.54 Q158.306 1048.55 157.615 1049.29 Q156.948 1050.01 155.787 1050.01 Q155.218 1050.01 154.922 1049.91 Q155.589 1052.23 157.615 1053.91 Q159.665 1055.59 162.358 1055.59 Q165.742 1055.59 167.768 1052.3 Q168.978 1050.18 168.978 1045.36 Q168.978 1041.11 168.064 1038.99 Q166.656 1035.75 163.766 1035.75 Q159.665 1035.75 157.244 1039.29 Q156.948 1039.73 156.602 1039.75 Q156.108 1039.75 155.984 1039.48 Q155.885 1039.19 155.885 1038.42 L155.885 1023.45 Q155.885 1022.24 156.379 1022.24 Q156.577 1022.24 156.997 1022.39 Q160.184 1023.8 163.716 1023.82 Q167.348 1023.82 170.609 1022.34 Q170.856 1022.19 171.004 1022.19 Q171.498 1022.19 171.523 1022.76 Q171.523 1022.96 171.103 1023.55 Q170.707 1024.12 169.843 1024.88 Q168.978 1025.62 167.866 1026.34 Q166.755 1027.06 165.124 1027.55 Q163.519 1028.02 161.74 1028.02 Q159.616 1028.02 157.442 1027.35 L157.442 1037.21 Q160.06 1034.64 163.865 1034.64 Q167.916 1034.64 170.707 1037.9 Q173.499 1041.16 173.499 1045.71 Q173.499 1050.48 170.189 1053.74 Q166.903 1057 162.456 1057 Q158.405 1057 155.836 1054.11 Q153.291 1051.22 153.291 1047.73 Z" fill="#000000" fill-rule="nonzero" fill-opacity="1" /><path clip-path="url(#clip410)" d="M181.132 1055.07 Q180.366 1054.26 180.366 1053.19 Q180.366 1052.13 181.132 1051.37 Q181.898 1050.57 183.059 1050.57 Q184.171 1050.57 184.912 1051.32 Q185.678 1052.03 185.678 1053.22 Q185.678 1054.38 184.862 1055.14 Q184.072 1055.89 183.059 1055.89 Q181.898 1055.89 181.132 1055.07 Z" fill="#000000" fill-rule="nonzero" fill-opacity="1" /><path clip-path="url(#clip410)" d="M192.1 1039.71 Q192.1 1032.27 193.978 1028.22 Q196.596 1022.19 202.772 1022.19 Q204.082 1022.19 205.44 1022.56 Q206.824 1022.91 208.553 1024.27 Q210.307 1025.62 211.369 1027.85 Q213.395 1032.15 213.395 1039.71 Q213.395 1047.09 211.517 1051.12 Q208.775 1057 202.723 1057 Q200.45 1057 198.128 1055.84 Q195.831 1054.68 194.373 1051.88 Q192.1 1047.71 192.1 1039.71 M196.3 1039.09 Q196.3 1046.72 196.843 1049.76 Q197.461 1053.05 199.141 1054.48 Q200.845 1055.89 202.723 1055.89 Q204.749 1055.89 206.428 1054.38 Q208.133 1052.85 208.652 1049.56 Q209.22 1046.33 209.195 1039.09 Q209.195 1032.05 208.701 1029.23 Q208.034 1025.95 206.255 1024.64 Q204.502 1023.3 202.723 1023.3 Q202.056 1023.3 201.339 1023.5 Q200.648 1023.7 199.635 1024.27 Q198.622 1024.83 197.832 1026.24 Q197.066 1027.65 196.695 1029.77 Q196.3 1032.52 196.3 1039.09 Z" fill="#000000" fill-rule="nonzero" fill-opacity="1" /><path clip-path="url(#clip410)" d="M148.203 809.328 Q148.499 809.625 148.499 810.045 Q148.499 810.465 148.203 810.761 Q147.906 811.057 147.486 811.057 L115.816 811.057 Q115.397 811.057 115.1 810.761 Q114.804 810.465 114.804 810.045 Q114.804 809.625 115.1 809.328 Q115.397 809.032 115.816 809.032 L147.486 809.032 Q147.906 809.032 148.203 809.328 Z" fill="#000000" fill-rule="nonzero" fill-opacity="1" /><path clip-path="url(#clip410)" d="M153.835 822.693 Q153.835 821.779 153.909 821.507 Q154.008 821.235 154.403 820.815 L164.112 809.995 Q169.423 804.017 169.423 798.805 Q169.423 795.42 167.644 792.999 Q165.89 790.578 162.654 790.578 Q160.431 790.578 158.553 791.937 Q156.676 793.296 155.811 795.717 Q155.959 795.667 156.478 795.667 Q157.738 795.667 158.43 796.458 Q159.146 797.248 159.146 798.311 Q159.146 799.669 158.257 800.336 Q157.392 800.978 156.528 800.978 Q156.182 800.978 155.712 800.904 Q155.268 800.83 154.551 800.139 Q153.835 799.422 153.835 798.162 Q153.835 794.63 156.503 791.814 Q159.196 788.997 163.296 788.997 Q167.941 788.997 170.979 791.764 Q174.042 794.506 174.042 798.805 Q174.042 800.311 173.573 801.695 Q173.128 803.054 172.511 804.116 Q171.918 805.178 170.287 806.883 Q168.657 808.587 167.348 809.798 Q166.038 811.008 163.099 813.577 L157.738 818.79 L166.854 818.79 Q171.3 818.79 171.646 818.394 Q172.14 817.678 172.758 813.898 L174.042 813.898 L172.609 822.693 L153.835 822.693 Z" fill="#000000" fill-rule="nonzero" fill-opacity="1" /><path clip-path="url(#clip410)" d="M181.676 821.878 Q180.91 821.062 180.91 820 Q180.91 818.938 181.676 818.172 Q182.441 817.381 183.602 817.381 Q184.714 817.381 185.455 818.123 Q186.221 818.839 186.221 820.025 Q186.221 821.186 185.406 821.952 Q184.615 822.693 183.602 822.693 Q182.441 822.693 181.676 821.878 Z" fill="#000000" fill-rule="nonzero" fill-opacity="1" /><path clip-path="url(#clip410)" d="M193.187 814.541 Q193.187 813.034 194.003 812.466 Q194.818 811.873 195.682 811.873 Q196.843 811.873 197.51 812.614 Q198.202 813.33 198.202 814.343 Q198.202 815.356 197.51 816.097 Q196.843 816.813 195.682 816.813 Q195.114 816.813 194.818 816.715 Q195.485 819.037 197.51 820.716 Q199.561 822.396 202.254 822.396 Q205.638 822.396 207.664 819.111 Q208.874 816.986 208.874 812.169 Q208.874 807.92 207.96 805.796 Q206.552 802.559 203.662 802.559 Q199.561 802.559 197.14 806.092 Q196.843 806.537 196.498 806.561 Q196.004 806.561 195.88 806.29 Q195.781 805.993 195.781 805.227 L195.781 790.257 Q195.781 789.047 196.275 789.047 Q196.473 789.047 196.893 789.195 Q200.08 790.603 203.612 790.628 Q207.244 790.628 210.504 789.146 Q210.751 788.997 210.9 788.997 Q211.394 788.997 211.418 789.566 Q211.418 789.763 210.999 790.356 Q210.603 790.924 209.739 791.69 Q208.874 792.431 207.762 793.148 Q206.651 793.864 205.02 794.358 Q203.415 794.827 201.636 794.827 Q199.511 794.827 197.338 794.16 L197.338 804.017 Q199.956 801.448 203.76 801.448 Q207.812 801.448 210.603 804.709 Q213.395 807.97 213.395 812.515 Q213.395 817.283 210.084 820.544 Q206.799 823.804 202.352 823.804 Q198.301 823.804 195.732 820.914 Q193.187 818.024 193.187 814.541 Z" fill="#000000" fill-rule="nonzero" fill-opacity="1" /><path clip-path="url(#clip410)" d="M152.748 573.319 Q152.748 565.883 154.625 561.832 Q157.244 555.804 163.42 555.804 Q164.729 555.804 166.088 556.175 Q167.471 556.521 169.2 557.879 Q170.954 559.238 172.017 561.461 Q174.042 565.76 174.042 573.319 Q174.042 580.705 172.165 584.732 Q169.423 590.611 163.37 590.611 Q161.098 590.611 158.776 589.45 Q156.478 588.289 155.021 585.498 Q152.748 581.323 152.748 573.319 M156.948 572.701 Q156.948 580.335 157.491 583.373 Q158.109 586.659 159.788 588.091 Q161.493 589.5 163.37 589.5 Q165.396 589.5 167.076 587.993 Q168.78 586.461 169.299 583.175 Q169.867 579.939 169.843 572.701 Q169.843 565.661 169.349 562.845 Q168.682 559.559 166.903 558.25 Q165.149 556.916 163.37 556.916 Q162.703 556.916 161.987 557.113 Q161.295 557.311 160.283 557.879 Q159.27 558.447 158.479 559.855 Q157.713 561.264 157.343 563.388 Q156.948 566.13 156.948 572.701 Z" fill="#000000" fill-rule="nonzero" fill-opacity="1" /><path clip-path="url(#clip410)" d="M181.132 588.684 Q180.366 587.869 180.366 586.807 Q180.366 585.745 181.132 584.979 Q181.898 584.188 183.059 584.188 Q184.171 584.188 184.912 584.929 Q185.678 585.646 185.678 586.832 Q185.678 587.993 184.862 588.758 Q184.072 589.5 183.059 589.5 Q181.898 589.5 181.132 588.684 Z" fill="#000000" fill-rule="nonzero" fill-opacity="1" /><path clip-path="url(#clip410)" d="M192.1 573.319 Q192.1 565.883 193.978 561.832 Q196.596 555.804 202.772 555.804 Q204.082 555.804 205.44 556.175 Q206.824 556.521 208.553 557.879 Q210.307 559.238 211.369 561.461 Q213.395 565.76 213.395 573.319 Q213.395 580.705 211.517 584.732 Q208.775 590.611 202.723 590.611 Q200.45 590.611 198.128 589.45 Q195.831 588.289 194.373 585.498 Q192.1 581.323 192.1 573.319 M196.3 572.701 Q196.3 580.335 196.843 583.373 Q197.461 586.659 199.141 588.091 Q200.845 589.5 202.723 589.5 Q204.749 589.5 206.428 587.993 Q208.133 586.461 208.652 583.175 Q209.22 579.939 209.195 572.701 Q209.195 565.661 208.701 562.845 Q208.034 559.559 206.255 558.25 Q204.502 556.916 202.723 556.916 Q202.056 556.916 201.339 557.113 Q200.648 557.311 199.635 557.879 Q198.622 558.447 197.832 559.855 Q197.066 561.264 196.695 563.388 Q196.3 566.13 196.3 572.701 Z" fill="#000000" fill-rule="nonzero" fill-opacity="1" /><path clip-path="url(#clip410)" d="M153.835 356.306 Q153.835 355.392 153.909 355.121 Q154.008 354.849 154.403 354.429 L164.112 343.609 Q169.423 337.631 169.423 332.418 Q169.423 329.034 167.644 326.613 Q165.89 324.192 162.654 324.192 Q160.431 324.192 158.553 325.551 Q156.676 326.909 155.811 329.33 Q155.959 329.281 156.478 329.281 Q157.738 329.281 158.43 330.071 Q159.146 330.862 159.146 331.924 Q159.146 333.283 158.257 333.95 Q157.392 334.592 156.528 334.592 Q156.182 334.592 155.712 334.518 Q155.268 334.444 154.551 333.752 Q153.835 333.036 153.835 331.776 Q153.835 328.243 156.503 325.427 Q159.196 322.611 163.296 322.611 Q167.941 322.611 170.979 325.378 Q174.042 328.12 174.042 332.418 Q174.042 333.925 173.573 335.308 Q173.128 336.667 172.511 337.729 Q171.918 338.792 170.287 340.496 Q168.657 342.201 167.348 343.411 Q166.038 344.622 163.099 347.191 L157.738 352.403 L166.854 352.403 Q171.3 352.403 171.646 352.008 Q172.14 351.292 172.758 347.512 L174.042 347.512 L172.609 356.306 L153.835 356.306 Z" fill="#000000" fill-rule="nonzero" fill-opacity="1" /><path clip-path="url(#clip410)" d="M181.676 355.491 Q180.91 354.676 180.91 353.614 Q180.91 352.551 181.676 351.786 Q182.441 350.995 183.602 350.995 Q184.714 350.995 185.455 351.736 Q186.221 352.453 186.221 353.638 Q186.221 354.799 185.406 355.565 Q184.615 356.306 183.602 356.306 Q182.441 356.306 181.676 355.491 Z" fill="#000000" fill-rule="nonzero" fill-opacity="1" /><path clip-path="url(#clip410)" d="M193.187 348.154 Q193.187 346.647 194.003 346.079 Q194.818 345.486 195.682 345.486 Q196.843 345.486 197.51 346.227 Q198.202 346.944 198.202 347.957 Q198.202 348.969 197.51 349.711 Q196.843 350.427 195.682 350.427 Q195.114 350.427 194.818 350.328 Q195.485 352.65 197.51 354.33 Q199.561 356.01 202.254 356.01 Q205.638 356.01 207.664 352.724 Q208.874 350.6 208.874 345.783 Q208.874 341.534 207.96 339.409 Q206.552 336.173 203.662 336.173 Q199.561 336.173 197.14 339.706 Q196.843 340.15 196.498 340.175 Q196.004 340.175 195.88 339.903 Q195.781 339.607 195.781 338.841 L195.781 323.871 Q195.781 322.66 196.275 322.66 Q196.473 322.66 196.893 322.809 Q200.08 324.217 203.612 324.241 Q207.244 324.241 210.504 322.759 Q210.751 322.611 210.9 322.611 Q211.394 322.611 211.418 323.179 Q211.418 323.377 210.999 323.97 Q210.603 324.538 209.739 325.304 Q208.874 326.045 207.762 326.761 Q206.651 327.478 205.02 327.972 Q203.415 328.441 201.636 328.441 Q199.511 328.441 197.338 327.774 L197.338 337.631 Q199.956 335.061 203.76 335.061 Q207.812 335.061 210.603 338.322 Q213.395 341.583 213.395 346.129 Q213.395 350.896 210.084 354.157 Q206.799 357.418 202.352 357.418 Q198.301 357.418 195.732 354.528 Q193.187 351.637 193.187 348.154 Z" fill="#000000" fill-rule="nonzero" fill-opacity="1" /><path clip-path="url(#clip410)" d="M153.291 114.961 Q153.291 113.454 154.107 112.886 Q154.922 112.293 155.787 112.293 Q156.948 112.293 157.615 113.034 Q158.306 113.751 158.306 114.763 Q158.306 115.776 157.615 116.517 Q156.948 117.234 155.787 117.234 Q155.218 117.234 154.922 117.135 Q155.589 119.457 157.615 121.137 Q159.665 122.817 162.358 122.817 Q165.742 122.817 167.768 119.531 Q168.978 117.407 168.978 112.59 Q168.978 108.341 168.064 106.216 Q166.656 102.98 163.766 102.98 Q159.665 102.98 157.244 106.512 Q156.948 106.957 156.602 106.982 Q156.108 106.982 155.984 106.71 Q155.885 106.414 155.885 105.648 L155.885 90.6776 Q155.885 89.4672 156.379 89.4672 Q156.577 89.4672 156.997 89.6154 Q160.184 91.0235 163.716 91.0482 Q167.348 91.0482 170.609 89.566 Q170.856 89.4178 171.004 89.4178 Q171.498 89.4178 171.523 89.9859 Q171.523 90.1836 171.103 90.7764 Q170.707 91.3446 169.843 92.1104 Q168.978 92.8515 167.866 93.5679 Q166.755 94.2843 165.124 94.7784 Q163.519 95.2478 161.74 95.2478 Q159.616 95.2478 157.442 94.5808 L157.442 104.437 Q160.06 101.868 163.865 101.868 Q167.916 101.868 170.707 105.129 Q173.499 108.39 173.499 112.935 Q173.499 117.703 170.189 120.964 Q166.903 124.225 162.456 124.225 Q158.405 124.225 155.836 121.335 Q153.291 118.444 153.291 114.961 Z" fill="#000000" fill-rule="nonzero" fill-opacity="1" /><path clip-path="url(#clip410)" d="M181.132 122.298 Q180.366 121.483 180.366 120.42 Q180.366 119.358 181.132 118.592 Q181.898 117.802 183.059 117.802 Q184.171 117.802 184.912 118.543 Q185.678 119.259 185.678 120.445 Q185.678 121.606 184.862 122.372 Q184.072 123.113 183.059 123.113 Q181.898 123.113 181.132 122.298 Z" fill="#000000" fill-rule="nonzero" fill-opacity="1" /><path clip-path="url(#clip410)" d="M192.1 106.932 Q192.1 99.4967 193.978 95.4454 Q196.596 89.4178 202.772 89.4178 Q204.082 89.4178 205.44 89.7883 Q206.824 90.1342 208.553 91.4928 Q210.307 92.8515 211.369 95.0748 Q213.395 99.3732 213.395 106.932 Q213.395 114.319 211.517 118.345 Q208.775 124.225 202.723 124.225 Q200.45 124.225 198.128 123.064 Q195.831 121.903 194.373 119.111 Q192.1 114.936 192.1 106.932 M196.3 106.315 Q196.3 113.948 196.843 116.987 Q197.461 120.272 199.141 121.705 Q200.845 123.113 202.723 123.113 Q204.749 123.113 206.428 121.606 Q208.133 120.075 208.652 116.789 Q209.22 113.553 209.195 106.315 Q209.195 99.2744 208.701 96.4582 Q208.034 93.1727 206.255 91.8634 Q204.502 90.5294 202.723 90.5294 Q202.056 90.5294 201.339 90.727 Q200.648 90.9247 199.635 91.4928 Q198.622 92.061 197.832 93.4691 Q197.066 94.8772 196.695 97.0017 Q196.3 99.7438 196.3 106.315 Z" fill="#000000" fill-rule="nonzero" fill-opacity="1" /><path clip-path="url(#clip410)" d="M36.253 671.179 Q34.7245 671.179 33.6376 669.99 Q32.5506 668.767 32.5506 667.306 Q32.5506 666.321 32.9922 665.54 Q33.3998 664.725 34.215 664.215 Q34.9962 663.672 35.8114 663.332 Q36.5927 662.993 37.7815 662.755 Q38.9704 662.483 39.6837 662.381 Q40.363 662.279 41.416 662.177 Q42.435 662.076 42.6388 662.076 Q41.1783 661.668 39.7177 661.023 Q38.2571 660.343 36.4908 659.154 Q34.7245 657.966 33.6036 656.165 Q32.4827 654.365 32.4827 652.259 Q32.4827 648.353 36.7965 645.126 Q41.1103 641.899 50.0776 641.899 L79.8668 641.899 Q81.1236 641.899 81.8369 642.443 Q82.5842 642.952 82.754 643.428 Q82.9238 643.903 82.9238 644.481 Q82.9238 645.466 82.2105 646.315 Q81.5312 647.13 79.8668 647.13 Q74.9416 647.13 64.6156 645.398 Q54.3235 643.631 49.2624 643.631 Q41.9595 643.631 38.9704 647.13 Q37.4419 648.862 37.4419 650.798 Q37.4419 652.531 38.8006 653.923 Q40.1592 655.316 42.1973 656.267 Q44.2353 657.218 47.6999 658.101 Q51.1306 658.951 54.2216 659.494 Q57.3126 660.004 61.8642 660.615 Q65.4647 660.955 65.4647 663.468 Q65.4647 664.385 64.8533 665.201 Q64.2759 665.982 63.087 665.982 Q61.3547 665.982 54.867 664.895 Q48.3453 663.808 47.8018 663.808 Q41.9595 663.808 39.8875 664.555 Q37.7815 665.268 37.0682 666.797 Q38.5288 667.578 38.5288 668.903 Q38.5288 669.888 37.8834 670.533 Q37.2381 671.179 36.253 671.179 Z" fill="#000000" fill-rule="nonzero" fill-opacity="1" /><path clip-path="url(#clip410)" d="M81.3953 608.543 L11.8307 608.543 L11.8307 598.048 L13.4271 598.048 L13.4271 603.89 L79.7989 603.89 L79.7989 598.048 L81.3953 598.048 L81.3953 608.543 Z" fill="#000000" fill-rule="nonzero" fill-opacity="1" /><path clip-path="url(#clip410)" d="M64.0042 594.209 L61.8642 594.209 Q61.8642 590.507 61.4227 589.658 Q60.9471 588.808 58.7053 588.808 L40.0573 588.808 Q37.4758 588.808 36.8305 589.726 Q36.1851 590.609 36.1851 594.209 L34.0112 594.209 L33.2639 584.427 L40.5668 584.427 Q33.2639 581.166 33.2639 574.135 Q33.2639 565.983 40.0573 564.862 Q37.4079 563.673 35.3359 561.193 Q33.2639 558.68 33.2639 554.773 Q33.2639 549.542 35.8454 547.47 Q37.5777 545.942 39.5139 545.636 Q41.45 545.331 46.4771 545.331 L59.7583 545.331 Q61.2189 545.263 61.5585 544.142 Q61.8642 543.021 61.8642 539.896 L64.0042 539.896 Q63.8004 546.995 63.8004 547.674 Q63.8004 548.218 64.0042 555.555 L61.8642 555.555 Q61.8642 551.852 61.4227 551.003 Q60.9471 550.12 58.7053 550.12 L42.503 550.12 Q38.9704 550.12 36.8984 551.207 Q34.7924 552.294 34.7924 555.283 Q34.7924 558.883 37.8155 561.771 Q40.8386 564.658 45.9336 564.658 L58.7053 564.658 Q60.9471 564.658 61.4227 563.809 Q61.8642 562.926 61.8642 559.223 L64.0042 559.223 Q63.8004 566.322 63.8004 567.036 Q63.8004 567.579 64.0042 574.882 L61.8642 574.882 Q61.8642 571.18 61.4227 570.33 Q60.9471 569.447 58.7053 569.447 L42.503 569.447 Q38.9704 569.447 36.8984 570.534 Q34.7924 571.621 34.7924 574.61 Q34.7924 578.211 37.8155 581.098 Q40.8386 583.985 45.9336 583.985 L58.7053 583.985 Q60.9471 583.985 61.4227 583.136 Q61.8642 582.253 61.8642 578.584 L64.0042 578.584 Q63.8004 585.683 63.8004 586.363 Q63.8004 586.906 64.0042 594.209 Z" fill="#000000" fill-rule="nonzero" fill-opacity="1" /><path clip-path="url(#clip410)" d="M79.7989 537.077 L79.7989 531.234 L13.4271 531.234 L13.4271 537.077 L11.8307 537.077 L11.8307 526.581 L81.3953 526.581 L81.3953 537.077 L79.7989 537.077 Z" fill="#000000" fill-rule="nonzero" fill-opacity="1" /><polyline clip-path="url(#clip412)" style="stroke:#660066; stroke-linecap:round; stroke-linejoin:round; stroke-width:8; stroke-opacity:1; fill:none" points="308.924,572.216 311.695,572.216 314.467,572.216 317.238,572.216 320.009,572.216 322.781,572.216 325.552,572.216 328.323,572.216 331.095,572.216 333.866,572.216 336.638,572.216 339.409,572.216 342.18,572.216 344.952,572.216 347.723,572.216 350.494,572.216 353.266,572.216 356.037,572.216 358.809,572.216 361.58,572.216 364.351,572.217 367.123,572.217 369.894,572.217 372.665,572.217 375.437,572.217 378.208,572.217 380.98,572.217 383.751,572.217 386.522,572.217 389.294,572.217 392.065,572.217 394.836,572.217 397.608,572.216 400.379,572.216 403.151,572.216 405.922,572.216 408.693,572.216 411.465,572.216 414.236,572.216 417.007,572.215 419.779,572.215 422.55,572.215 425.321,572.214 428.093,572.214 430.864,572.213 433.636,572.212 436.407,572.212 439.178,572.211 441.95,572.21 444.721,572.209 447.492,572.209 450.264,572.208 453.035,572.207 455.807,572.206 458.578,572.205 461.349,572.204 464.121,572.202 466.892,572.201 469.663,572.2 472.435,572.199 475.206,572.199 477.978,572.198 480.749,572.197 483.52,572.197 486.292,572.196 489.063,572.196 491.834,572.197 494.606,572.197 497.377,572.198 500.149,572.2 502.92,572.202 505.691,572.204 508.463,572.207 511.234,572.211 514.005,572.216 516.777,572.221 519.548,572.227 522.32,572.234 525.091,572.242 527.862,572.251 530.634,572.26 533.405,572.271 536.176,572.283 538.948,572.296 541.719,572.309 544.491,572.324 547.262,572.339 550.033,572.355 552.805,572.372 555.576,572.389 558.347,572.406 561.119,572.424 563.89,572.442 566.662,572.459 569.433,572.475 572.204,572.491 574.976,572.505 577.747,572.518 580.518,572.528 583.29,572.536 586.061,572.54 588.832,572.541 591.604,572.538 594.375,572.53 597.147,572.517 599.918,572.498 602.689,572.473 605.461,572.44 608.232,572.4 611.003,572.352 613.775,572.294 616.546,572.228 619.318,572.152 622.089,572.067 624.86,571.971 627.632,571.864 630.403,571.747 633.174,571.62 635.946,571.483 638.717,571.336 641.489,571.18 644.26,571.015 647.031,570.843 649.803,570.664 652.574,570.481 655.345,570.293 658.117,570.105 660.888,569.916 663.66,569.731 666.431,569.551 669.202,569.38 671.974,569.219 674.745,569.074 677.516,568.946 680.288,568.841 683.059,568.761 685.831,568.711 688.602,568.695 691.373,568.717 694.145,568.782 696.916,568.893 699.687,569.055 702.459,569.272 705.23,569.547 708.002,569.885 710.773,570.287 713.544,570.758 716.316,571.299 719.087,571.911 721.858,572.597 724.63,573.356 727.401,574.188 730.173,575.091 732.944,576.064 735.715,577.101 738.487,578.201 741.258,579.355 744.029,580.559 746.801,581.803 749.572,583.079 752.343,584.375 755.115,585.68 757.886,586.981 760.658,588.264 763.429,589.512 766.2,590.709 768.972,591.838 771.743,592.88 774.514,593.816 777.286,594.625 780.057,595.287 782.829,595.782 785.6,596.089 788.371,596.187 791.143,596.056 793.914,595.677 796.685,595.03 799.457,594.1 802.228,592.869 805,591.324 807.771,589.454 810.542,587.249 813.314,584.703 816.085,581.811 818.856,578.575 821.628,574.997 824.399,571.085 827.171,566.85 829.942,562.308 832.713,557.478 835.485,552.387 838.256,547.062 841.027,541.537 843.799,535.852 846.57,530.049 849.342,524.175 852.113,518.282 854.884,512.425 857.656,506.665 860.427,501.062 863.198,495.683 865.97,490.594 868.741,485.866 871.513,481.569 874.284,477.774 877.055,474.551 879.827,471.971 882.598,470.101 885.369,469.007 888.141,468.751 890.912,469.39 893.684,470.976 896.455,473.557 899.226,477.171 901.998,481.851 904.769,487.619 907.54,494.489 910.312,502.467 913.083,511.544 915.854,521.705 918.626,532.919 921.397,545.146 924.169,558.334 926.94,572.417 929.711,587.318 932.483,602.948 935.254,619.207 938.025,635.981 940.797,653.149 943.568,670.577 946.34,688.123 949.111,705.637 951.882,722.962 954.654,739.934 957.425,756.387 960.196,772.149 962.968,787.048 965.739,800.912 968.511,813.572 971.282,824.862 974.053,834.621 976.825,842.696 979.596,848.943 982.367,853.229 985.139,855.434 987.91,855.452 990.682,853.194 993.453,848.587 996.224,841.578 998.996,832.135 1001.77,820.245 1004.54,805.918 1007.31,789.189 1010.08,770.112 1012.85,748.768 1015.62,725.259 1018.4,699.713 1021.17,672.278 1023.94,643.126 1026.71,612.448 1029.48,580.456 1032.25,547.381 1035.02,513.469 1037.79,478.982 1040.57,444.193 1043.34,409.387 1046.11,374.855 1048.88,340.894 1051.65,307.805 1054.42,275.886 1057.19,245.432 1059.97,216.734 1062.74,190.071 1065.51,165.712 1068.28,143.91 1071.05,124.902 1073.82,108.903 1076.59,96.1052 1079.37,86.6778 1082.14,80.7615 1084.91,78.4688 1087.68,79.8815 1090.45,85.0501 1093.22,93.9923 1095.99,106.693 1098.77,123.102 1101.54,143.138 1104.31,166.684 1107.08,193.592 1109.85,223.681 1112.62,256.743 1115.39,292.537 1118.16,330.798 1120.94,371.238 1123.71,413.543 1126.48,457.385 1129.25,502.417 1132.02,548.278 1134.79,594.601 1137.56,641.01 1140.34,687.128 1143.11,732.577 1145.88,776.985 1148.65,819.989 1151.42,861.234 1154.19,900.384 1156.96,937.117 1159.74,971.134 1162.51,1002.16 1165.28,1029.95 1168.05,1054.27 1170.82,1074.95 1173.59,1091.82 1176.36,1104.76 1179.13,1113.68 1181.91,1118.53 1184.68,1119.29 1187.45,1115.98 1190.22,1108.66 1192.99,1097.41 1195.76,1082.37 1198.53,1063.67 1201.31,1041.51 1204.08,1016.11 1206.85,987.695 1209.62,956.542 1212.39,922.932 1215.16,887.168 1217.93,849.57 1220.71,810.468 1223.48,770.2 1226.25,729.111 1229.02,687.548 1231.79,645.855 1234.56,604.374 1237.33,563.437 1240.11,523.367 1242.88,484.474 1245.65,447.05 1248.42,411.369 1251.19,377.687 1253.96,346.233 1256.73,317.215 1259.5,290.813 1262.28,267.181 1265.05,246.445 1267.82,228.702 1270.59,214.022 1273.36,202.445 1276.13,193.981 1278.9,188.617 1281.68,186.308 1284.45,186.988 1287.22,190.562 1289.99,196.915 1292.76,205.91 1295.53,217.391 1298.3,231.185 1301.08,247.104 1303.85,264.945 1306.62,284.498 1309.39,305.542 1312.16,327.852 1314.93,351.197 1317.7,375.348 1320.47,400.075 1323.25,425.15 1326.02,450.354 1328.79,475.47 1331.56,500.295 1334.33,524.632 1337.1,548.299 1339.87,571.126 1342.65,592.957 1345.42,613.652 1348.19,633.086 1350.96,651.152 1353.73,667.759 1356.5,682.832 1359.27,696.316 1362.05,708.169 1364.82,718.367 1367.59,726.904 1370.36,733.788 1373.13,739.039 1375.9,742.695 1378.67,744.804 1381.45,745.426 1384.22,744.633 1386.99,742.504 1389.76,739.127 1392.53,734.599 1395.3,729.019 1398.07,722.493 1400.84,715.128 1403.62,707.036 1406.39,698.327 1409.16,689.11 1411.93,679.496 1414.7,669.59 1417.47,659.496 1420.24,649.313 1423.02,639.135 1425.79,629.05 1428.56,619.141 1431.33,609.485 1434.1,600.149 1436.87,591.197 1439.64,582.682 1442.42,574.652 1445.19,567.146 1447.96,560.197 1450.73,553.829 1453.5,548.06 1456.27,542.901 1459.04,538.357 1461.81,534.427 1464.59,531.103 1467.36,528.372 1470.13,526.218 1472.9,524.618 1475.67,523.549 1478.44,522.98 1481.21,522.88 1483.99,523.217 1486.76,523.954 1489.53,525.055 1492.3,526.482 1495.07,528.198 1497.84,530.164 1500.61,532.343 1503.39,534.698 1506.16,537.194 1508.93,539.796 1511.7,542.471 1514.47,545.189 1517.24,547.921 1520.01,550.64 1522.79,553.321 1525.56,555.943 1528.33,558.485 1531.1,560.93 1533.87,563.264 1536.64,565.472 1539.41,567.546 1542.18,569.477 1544.96,571.258 1547.73,572.887 1550.5,574.36 1553.27,575.677 1556.04,576.839 1558.81,577.849 1561.58,578.712 1564.36,579.431 1567.13,580.014 1569.9,580.466 1572.67,580.797 1575.44,581.013 1578.21,581.124 1580.98,581.138 1583.76,581.065 1586.53,580.914 1589.3,580.694 1592.07,580.413 1594.84,580.08 1597.61,579.705 1600.38,579.295 1603.15,578.857 1605.93,578.399 1608.7,577.928 1611.47,577.449 1614.24,576.969 1617.01,576.492 1619.78,576.023 1622.55,575.567 1625.33,575.126 1628.1,574.703 1630.87,574.302 1633.64,573.923 1636.41,573.569 1639.18,573.24 1641.95,572.938 1644.73,572.662 1647.5,572.413 1650.27,572.19 1653.04,571.993 1655.81,571.82 1658.58,571.673 1661.35,571.548 1664.13,571.444 1666.9,571.362 1669.67,571.298 1672.44,571.251 1675.21,571.221 1677.98,571.205 1680.75,571.202 1683.52,571.21 1686.3,571.229 1689.07,571.256 1691.84,571.29 1694.61,571.33 1697.38,571.376 1700.15,571.424 1702.92,571.476 1705.7,571.53 1708.47,571.584 1711.24,571.639 1714.01,571.693 1716.78,571.747 1719.55,571.799 1722.32,571.849 1725.1,571.897 1727.87,571.942 1730.64,571.985 1733.41,572.024 1736.18,572.061 1738.95,572.095 1741.72,572.125 1744.49,572.153 1747.27,572.178 1750.04,572.2 1752.81,572.219 1755.58,572.236 1758.35,572.25 1761.12,572.262 1763.89,572.272 1766.67,572.279 1769.44,572.285 1772.21,572.29 1774.98,572.293 1777.75,572.294 1780.52,572.295 1783.29,572.294 1786.07,572.293 1788.84,572.291 1791.61,572.288 1794.38,572.285 1797.15,572.282 1799.92,572.278 1802.69,572.274 1805.47,572.27 1808.24,572.266 1811.01,572.262 1813.78,572.258 1816.55,572.254 1819.32,572.25 1822.09,572.247 1824.86,572.244 1827.64,572.24 1830.41,572.238 1833.18,572.235 1835.95,572.232 1838.72,572.23 1841.49,572.228 1844.26,572.226 1847.04,572.225 1849.81,572.223 1852.58,572.222 1855.35,572.221 1858.12,572.22 1860.89,572.219 1863.66,572.219 1866.44,572.218 1869.21,572.218 1871.98,572.217 1874.75,572.217 1877.52,572.217 1880.29,572.217 1883.06,572.217 1885.84,572.217 1888.61,572.217 1891.38,572.217 1894.15,572.217 1896.92,572.218 1899.69,572.218 1902.46,572.218 1905.23,572.218 1908.01,572.218 1910.78,572.218 1913.55,572.219 1916.32,572.219 1919.09,572.219 1921.86,572.219 1924.63,572.219 1927.41,572.219 1930.18,572.22 1932.95,572.22 1935.72,572.22 1938.49,572.22 1941.26,572.22 1944.03,572.22 1946.81,572.22 1949.58,572.22 1952.35,572.22 1955.12,572.22 1957.89,572.22 1960.66,572.22 1963.43,572.22 1966.2,572.22 1968.98,572.22 1971.75,572.22 1974.52,572.22 1977.29,572.22 1980.06,572.22 1982.83,572.22 1985.6,572.22 1988.38,572.22 1991.15,572.22 1993.92,572.22 1996.69,572.22 1999.46,572.22 2002.23,572.22 2005,572.22 2007.78,572.22 2010.55,572.22 2013.32,572.22 2016.09,572.22 2018.86,572.22 2021.63,572.22 2024.4,572.22 2027.18,572.22 2029.95,572.22 2032.72,572.22 2035.49,572.22 2038.26,572.22 2041.03,572.22 2043.8,572.22 2046.57,572.22 2049.35,572.22 2052.12,572.22 2054.89,572.22 2057.66,572.22 2060.43,572.22 2063.2,572.22 2065.97,572.22 2068.75,572.22 2071.52,572.22 2074.29,572.22 2077.06,572.22 2079.83,572.22 2082.6,572.22 2085.37,572.22 2088.15,572.22 2090.92,572.22 2093.69,572.22 2096.46,572.22 2099.23,572.22 2102,572.22 2104.77,572.22 2107.54,572.22 2110.32,572.22 2113.09,572.22 2115.86,572.22 2118.63,572.22 2121.4,572.22 2124.17,572.22 2126.94,572.22 2129.72,572.22 2132.49,572.22 2135.26,572.22 2138.03,572.22 2140.8,572.219 2143.57,572.219 2146.34,572.219 2149.12,572.219 2151.89,572.219 2154.66,572.219 2157.43,572.219 2160.2,572.219 2162.97,572.219 2165.74,572.219 2168.52,572.219 2171.29,572.219 2174.06,572.219 2176.83,572.219 2179.6,572.219 2182.37,572.219 2185.14,572.219 2187.91,572.219 2190.69,572.219 2193.46,572.219 2196.23,572.219 2199,572.219 2201.77,572.219 2204.54,572.219 2207.31,572.219 2210.09,572.219 2212.86,572.219 2215.63,572.219 2218.4,572.219 2221.17,572.219 2223.94,572.219 2226.71,572.219 2229.49,572.219 2232.26,572.219 2235.03,572.219 2237.8,572.219 2240.57,572.219 2243.34,572.219 2246.11,572.219 2248.88,572.219 2251.66,572.219 2254.43,572.219 2257.2,572.219 2259.97,572.219 2262.74,572.219 2265.51,572.219 2268.28,572.219 2271.06,572.219 2273.83,572.219 2276.6,572.219 2279.37,572.219 2282.14,572.219 2284.91,572.219 2287.68,572.219 2290.46,572.219 2293.23,572.219 "/>
<polyline clip-path="url(#clip412)" style="stroke:#0000e5; stroke-linecap:round; stroke-linejoin:round; stroke-width:8; stroke-opacity:1; fill:none" points="308.924,572.232 311.695,572.228 314.467,572.225 317.238,572.222 320.009,572.219 322.781,572.217 325.552,572.214 328.323,572.212 331.095,572.21 333.866,572.209 336.638,572.207 339.409,572.206 342.18,572.205 344.952,572.204 347.723,572.204 350.494,572.203 353.266,572.203 356.037,572.203 358.809,572.203 361.58,572.203 364.351,572.204 367.123,572.204 369.894,572.205 372.665,572.205 375.437,572.206 378.208,572.207 380.98,572.207 383.751,572.208 386.522,572.209 389.294,572.21 392.065,572.211 394.836,572.212 397.608,572.213 400.379,572.213 403.151,572.214 405.922,572.215 408.693,572.216 411.465,572.217 414.236,572.217 417.007,572.218 419.779,572.219 422.55,572.219 425.321,572.22 428.093,572.22 430.864,572.221 433.636,572.221 436.407,572.221 439.178,572.222 441.95,572.222 444.721,572.222 447.492,572.222 450.264,572.222 453.035,572.222 455.807,572.222 458.578,572.222 461.349,572.222 464.121,572.222 466.892,572.222 469.663,572.221 472.435,572.221 475.206,572.221 477.978,572.22 480.749,572.22 483.52,572.219 486.292,572.219 489.063,572.218 491.834,572.218 494.606,572.217 497.377,572.216 500.149,572.216 502.92,572.215 505.691,572.214 508.463,572.214 511.234,572.213 514.005,572.212 516.777,572.211 519.548,572.211 522.32,572.21 525.091,572.209 527.862,572.209 530.634,572.208 533.405,572.207 536.176,572.207 538.948,572.207 541.719,572.206 544.491,572.206 547.262,572.206 550.033,572.206 552.805,572.206 555.576,572.206 558.347,572.207 561.119,572.207 563.89,572.208 566.662,572.209 569.433,572.21 572.204,572.211 574.976,572.213 577.747,572.214 580.518,572.216 583.29,572.218 586.061,572.22 588.832,572.222 591.604,572.225 594.375,572.228 597.147,572.231 599.918,572.234 602.689,572.237 605.461,572.24 608.232,572.244 611.003,572.247 613.775,572.251 616.546,572.254 619.318,572.258 622.089,572.261 624.86,572.265 627.632,572.268 630.403,572.271 633.174,572.273 635.946,572.276 638.717,572.278 641.489,572.28 644.26,572.281 647.031,572.282 649.803,572.282 652.574,572.282 655.345,572.281 658.117,572.28 660.888,572.277 663.66,572.274 666.431,572.27 669.202,572.266 671.974,572.26 674.745,572.253 677.516,572.246 680.288,572.238 683.059,572.228 685.831,572.218 688.602,572.207 691.373,572.196 694.145,572.183 696.916,572.169 699.687,572.155 702.459,572.141 705.23,572.125 708.002,572.11 710.773,572.093 713.544,572.077 716.316,572.061 719.087,572.045 721.858,572.029 724.63,572.014 727.401,571.999 730.173,571.985 732.944,571.972 735.715,571.96 738.487,571.949 741.258,571.941 744.029,571.934 746.801,571.929 749.572,571.926 752.343,571.926 755.115,571.928 757.886,571.934 760.658,571.942 763.429,571.954 766.2,571.969 768.972,571.987 771.743,572.009 774.514,572.035 777.286,572.064 780.057,572.097 782.829,572.134 785.6,572.174 788.371,572.218 791.143,572.265 793.914,572.315 796.685,572.369 799.457,572.425 802.228,572.483 805,572.544 807.771,572.606 810.542,572.67 813.314,572.734 816.085,572.798 818.856,572.862 821.628,572.925 824.399,572.987 827.171,573.046 829.942,573.102 832.713,573.154 835.485,573.202 838.256,573.245 841.027,573.282 843.799,573.312 846.57,573.334 849.342,573.349 852.113,573.354 854.884,573.35 857.656,573.335 860.427,573.31 863.198,573.273 865.97,573.224 868.741,573.163 871.513,573.09 874.284,573.004 877.055,572.905 879.827,572.793 882.598,572.668 885.369,572.532 888.141,572.382 890.912,572.222 893.684,572.05 896.455,571.868 899.226,571.677 901.998,571.478 904.769,571.272 907.54,571.06 910.312,570.844 913.083,570.626 915.854,570.406 918.626,570.188 921.397,569.974 924.169,569.764 926.94,569.562 929.711,569.369 932.483,569.189 935.254,569.023 938.025,568.873 940.797,568.742 943.568,568.633 946.34,568.547 949.111,568.487 951.882,568.455 954.654,568.453 957.425,568.482 960.196,568.545 962.968,568.644 965.739,568.778 968.511,568.95 971.282,569.159 974.053,569.408 976.825,569.695 979.596,570.021 982.367,570.384 985.139,570.785 987.91,571.222 990.682,571.694 993.453,572.198 996.224,572.731 998.996,573.292 1001.77,573.877 1004.54,574.482 1007.31,575.103 1010.08,575.736 1012.85,576.377 1015.62,577.02 1018.4,577.659 1021.17,578.29 1023.94,578.907 1026.71,579.502 1029.48,580.072 1032.25,580.608 1035.02,581.104 1037.79,581.555 1040.57,581.954 1043.34,582.295 1046.11,582.572 1048.88,582.778 1051.65,582.909 1054.42,582.959 1057.19,582.924 1059.97,582.8 1062.74,582.582 1065.51,582.267 1068.28,581.854 1071.05,581.341 1073.82,580.726 1076.59,580.009 1079.37,579.192 1082.14,578.275 1084.91,577.262 1087.68,576.156 1090.45,574.961 1093.22,573.683 1095.99,572.329 1098.77,570.904 1101.54,569.419 1104.31,567.882 1107.08,566.304 1109.85,564.695 1112.62,563.067 1115.39,561.432 1118.16,559.805 1120.94,558.198 1123.71,556.626 1126.48,555.103 1129.25,553.644 1132.02,552.264 1134.79,550.978 1137.56,549.802 1140.34,548.749 1143.11,547.835 1145.88,547.072 1148.65,546.475 1151.42,546.055 1154.19,545.825 1156.96,545.794 1159.74,545.972 1162.51,546.367 1165.28,546.985 1168.05,547.831 1170.82,548.909 1173.59,550.22 1176.36,551.762 1179.13,553.535 1181.91,555.534 1184.68,557.752 1187.45,560.18 1190.22,562.809 1192.99,565.625 1195.76,568.614 1198.53,571.759 1201.31,575.041 1204.08,578.439 1206.85,581.931 1209.62,585.492 1212.39,589.098 1215.16,592.72 1217.93,596.331 1220.71,599.901 1223.48,603.399 1226.25,606.796 1229.02,610.059 1231.79,613.158 1234.56,616.06 1237.33,618.736 1240.11,621.155 1242.88,623.288 1245.65,625.107 1248.42,626.585 1251.19,627.697 1253.96,628.421 1256.73,628.737 1259.5,628.626 1262.28,628.073 1265.05,627.067 1267.82,625.598 1270.59,623.662 1273.36,621.256 1276.13,618.383 1278.9,615.048 1281.68,611.26 1284.45,607.035 1287.22,602.389 1289.99,597.344 1292.76,591.926 1295.53,586.165 1298.3,580.094 1301.08,573.75 1303.85,567.173 1306.62,560.408 1309.39,553.5 1312.16,546.5 1314.93,539.459 1317.7,532.431 1320.47,525.471 1323.25,518.637 1326.02,511.985 1328.79,505.574 1331.56,499.462 1334.33,493.706 1337.1,488.362 1339.87,483.485 1342.65,479.128 1345.42,475.341 1348.19,472.172 1350.96,469.664 1353.73,467.858 1356.5,466.788 1359.27,466.486 1362.05,466.978 1364.82,468.282 1367.59,470.415 1370.36,473.383 1373.13,477.189 1375.9,481.826 1378.67,487.285 1381.45,493.546 1384.22,500.585 1386.99,508.368 1389.76,516.858 1392.53,526.007 1395.3,535.766 1398.07,546.074 1400.84,556.867 1403.62,568.077 1406.39,579.628 1409.16,591.44 1411.93,603.43 1414.7,615.51 1417.47,627.589 1420.24,639.575 1423.02,651.374 1425.79,662.889 1428.56,674.026 1431.33,684.688 1434.1,694.784 1436.87,704.219 1439.64,712.907 1442.42,720.761 1445.19,727.701 1447.96,733.652 1450.73,738.543 1453.5,742.312 1456.27,744.903 1459.04,746.268 1461.81,746.368 1464.59,745.172 1467.36,742.658 1470.13,738.816 1472.9,733.644 1475.67,727.151 1478.44,719.357 1481.21,710.292 1483.99,699.996 1486.76,688.52 1489.53,675.925 1492.3,662.284 1495.07,647.675 1497.84,632.191 1500.61,615.929 1503.39,598.996 1506.16,581.506 1508.93,563.581 1511.7,545.347 1514.47,526.936 1517.24,508.483 1520.01,490.127 1522.79,472.009 1525.56,454.27 1528.33,437.052 1531.1,420.494 1533.87,404.735 1536.64,389.908 1539.41,376.142 1542.18,363.562 1544.96,352.285 1547.73,342.418 1550.5,334.062 1553.27,327.307 1556.04,322.233 1558.81,318.907 1561.58,317.386 1564.36,317.711 1567.13,319.913 1569.9,324.007 1572.67,329.994 1575.44,337.86 1578.21,347.579 1580.98,359.107 1583.76,372.387 1586.53,387.349 1589.3,403.907 1592.07,421.961 1594.84,441.401 1597.61,462.102 1600.38,483.928 1603.15,506.734 1605.93,530.363 1608.7,554.651 1611.47,579.426 1614.24,604.511 1617.01,629.722 1619.78,654.873 1622.55,679.775 1625.33,704.24 1628.1,728.079 1630.87,751.105 1633.64,773.137 1636.41,793.996 1639.18,813.514 1641.95,831.525 1644.73,847.878 1647.5,862.43 1650.27,875.051 1653.04,885.622 1655.81,894.04 1658.58,900.217 1661.35,904.081 1664.13,905.576 1666.9,904.664 1669.67,901.323 1672.44,895.553 1675.21,887.368 1677.98,876.804 1680.75,863.913 1683.52,848.766 1686.3,831.452 1689.07,812.077 1691.84,790.764 1694.61,767.651 1697.38,742.892 1700.15,716.654 1702.92,689.117 1705.7,660.474 1708.47,630.926 1711.24,600.683 1714.01,569.962 1716.78,538.988 1719.55,507.985 1722.32,477.184 1725.1,446.814 1727.87,417.102 1730.64,388.273 1733.41,360.548 1736.18,334.138 1738.95,309.249 1741.72,286.076 1744.49,264.803 1747.27,245.6 1750.04,228.622 1752.81,214.01 1755.58,201.889 1758.35,192.362 1761.12,185.518 1763.89,181.422 1766.67,180.123 1769.44,181.645 1772.21,185.995 1774.98,193.156 1777.75,203.092 1780.52,215.742 1783.29,231.03 1786.07,248.855 1788.84,269.1 1791.61,291.626 1794.38,316.278 1797.15,342.886 1799.92,371.261 1802.69,401.203 1805.47,432.498 1808.24,464.921 1811.01,498.239 1813.78,532.21 1816.55,566.587 1819.32,601.117 1822.09,635.551 1824.86,669.632 1827.64,703.111 1830.41,735.74 1833.18,767.278 1835.95,797.489 1838.72,826.152 1841.49,853.048 1844.26,877.982 1847.04,900.762 1849.81,921.222 1852.58,939.203 1855.35,954.575 1858.12,967.216 1860.89,977.035 1863.66,983.951 1866.44,987.917 1869.21,988.892 1871.98,986.876 1874.75,981.854 1877.52,973.645 1880.29,962.587 1883.06,948.731 1885.84,932.193 1888.61,913.084 1891.38,891.553 1894.15,867.754 1896.92,841.869 1899.69,814.086 1902.46,784.614 1905.23,753.668 1908.01,721.48 1910.78,688.286 1913.55,654.332 1916.32,619.866 1919.09,585.145 1921.86,550.42 1924.63,515.948 1927.41,481.978 1930.18,448.759 1932.95,416.531 1935.72,385.527 1938.49,355.969 1941.26,328.07 1944.03,302.026 1946.81,278.022 1949.58,256.225 1952.35,236.786 1955.12,219.838 1957.89,205.493 1960.66,193.845 1963.43,184.968 1966.2,178.912 1968.98,175.708 1971.75,175.365 1974.52,177.871 1977.29,183.193 1980.06,191.275 1982.83,202.044 1985.6,215.406 1988.38,231.246 1991.15,249.434 1993.92,269.822 1996.69,292.248 1999.46,316.533 2002.23,342.488 2005,369.911 2007.78,398.591 2010.55,428.309 2013.32,458.84 2016.09,489.955 2018.86,521.42 2021.63,553.004 2024.4,584.473 2027.18,615.599 2029.95,646.154 2032.72,675.922 2035.49,704.689 2038.26,732.254 2041.03,758.425 2043.8,783.022 2046.57,805.879 2049.35,826.845 2052.12,845.783 2054.89,862.574 2057.66,877.115 2060.43,889.32 2063.2,899.125 2065.97,906.48 2068.75,911.357 2071.52,913.745 2074.29,913.654 2077.06,911.109 2079.83,906.156 2082.6,898.858 2085.37,889.294 2088.15,877.559 2090.92,863.765 2093.69,848.037 2096.46,830.512 2099.23,811.341 2102,790.684 2104.77,768.711 2107.54,745.599 2110.32,721.533 2113.09,696.702 2115.86,671.296 2118.63,645.512 2121.4,619.543 2124.17,593.583 2126.94,567.823 2129.72,542.449 2132.49,517.642 2135.26,493.579 2138.03,470.424 2140.8,448.337 2143.57,427.464 2146.34,407.941 2149.12,389.893 2151.89,373.43 2154.66,358.651 2157.43,345.639 2160.2,334.463 2162.97,325.177 2165.74,317.821 2168.52,312.417 2171.29,308.977 2174.06,307.492 2176.83,307.943 2179.6,310.295 2182.37,314.499 2185.14,320.494 2187.91,328.204 2190.69,337.545 2193.46,348.418 2196.23,360.719 2199,374.33 2201.77,389.128 2204.54,404.982 2207.31,421.758 2210.09,439.313 2212.86,457.504 2215.63,476.185 2218.4,495.208 2221.17,514.426 2223.94,533.693 2226.71,552.866 2229.49,571.804 2232.26,590.372 2235.03,608.439 2237.8,625.881 2240.57,642.582 2243.34,658.432 2246.11,673.331 2248.88,687.187 2251.66,699.92 2254.43,711.458 2257.2,721.741 2259.97,730.717 2262.74,738.349 2265.51,744.608 2268.28,749.477 2271.06,752.95 2273.83,755.031 2276.6,755.737 2279.37,755.091 2282.14,753.13 2284.91,749.896 2287.68,745.444 2290.46,739.834 2293.23,733.134 "/>
<polyline clip-path="url(#clip412)" style="stroke:#006600; stroke-linecap:round; stroke-linejoin:round; stroke-width:8; stroke-opacity:1; fill:none" points="308.924,573.112 311.695,573.147 314.467,573.175 317.238,573.195 320.009,573.205 322.781,573.203 325.552,573.188 328.323,573.158 331.095,573.111 333.866,573.046 336.638,572.96 339.409,572.852 342.18,572.721 344.952,572.564 347.723,572.38 350.494,572.168 353.266,571.927 356.037,571.655 358.809,571.353 361.58,571.021 364.351,570.657 367.123,570.263 369.894,569.841 372.665,569.39 375.437,568.915 378.208,568.416 380.98,567.898 383.751,567.365 386.522,566.821 389.294,566.271 392.065,565.722 394.836,565.18 397.608,564.653 400.379,564.148 403.151,563.676 405.922,563.244 408.693,562.864 411.465,562.544 414.236,562.297 417.007,562.134 419.779,562.065 422.55,562.103 425.321,562.258 428.093,562.542 430.864,562.966 433.636,563.54 436.407,564.274 439.178,565.175 441.95,566.253 444.721,567.513 447.492,568.96 450.264,570.597 453.035,572.426 455.807,574.444 458.578,576.65 461.349,579.038 464.121,581.598 466.892,584.321 469.663,587.192 472.435,590.195 475.206,593.309 477.978,596.512 480.749,599.777 483.52,603.077 486.292,606.378 489.063,609.647 491.834,612.847 494.606,615.937 497.377,618.877 500.149,621.622 502.92,624.13 505.691,626.352 508.463,628.245 511.234,629.76 514.005,630.853 516.777,631.479 519.548,631.594 522.32,631.158 525.091,630.133 527.862,628.484 530.634,626.181 533.405,623.199 536.176,619.516 538.948,615.12 541.719,610.002 544.491,604.162 547.262,597.607 550.033,590.352 552.805,582.419 555.576,573.841 558.347,564.658 561.119,554.918 563.89,544.68 566.662,534.011 569.433,522.984 572.204,511.684 574.976,500.2 577.747,488.63 580.518,477.079 583.29,465.655 586.061,454.473 588.832,443.652 591.604,433.31 594.375,423.571 597.147,414.556 599.918,406.387 602.689,399.181 605.461,393.054 608.232,388.114 611.003,384.465 613.775,382.201 616.546,381.407 619.318,382.157 622.089,384.514 624.86,388.526 627.632,394.23 630.403,401.644 633.174,410.773 635.946,421.603 638.717,434.105 641.489,448.232 644.26,463.919 647.031,481.084 649.803,499.627 652.574,519.433 655.345,540.37 658.117,562.289 660.888,585.031 663.66,608.42 666.431,632.272 669.202,656.391 671.974,680.573 674.745,704.61 677.516,728.288 680.288,751.391 683.059,773.703 685.831,795.013 688.602,815.111 691.373,833.796 694.145,850.875 696.916,866.168 699.687,879.506 702.459,890.738 705.23,899.727 708.002,906.358 710.773,910.534 713.544,912.18 716.316,911.245 719.087,907.7 721.858,901.542 724.63,892.789 727.401,881.488 730.173,867.707 732.944,851.539 735.715,833.101 738.487,812.53 741.258,789.987 744.029,765.649 746.801,739.714 749.572,712.393 752.343,683.913 755.115,654.511 757.886,624.434 760.658,593.935 763.429,563.273 766.2,532.705 768.972,502.491 771.743,472.884 774.514,444.133 777.286,416.477 780.057,390.143 782.829,365.348 785.6,342.289 788.371,321.15 791.143,302.092 793.914,285.259 796.685,270.769 799.457,258.722 802.228,249.191 805,242.224 807.771,237.848 810.542,236.064 813.314,236.848 816.085,240.154 818.856,245.912 821.628,254.032 824.399,264.403 827.171,276.893 829.942,291.357 832.713,307.631 835.485,325.539 838.256,344.893 841.027,365.495 843.799,387.142 846.57,409.624 849.342,432.728 852.113,456.243 854.884,479.957 857.656,503.664 860.427,527.161 863.198,550.254 865.97,572.76 868.741,594.504 871.513,615.326 874.284,635.077 877.055,653.625 879.827,670.852 882.598,686.658 885.369,700.959 888.141,713.687 890.912,724.792 893.684,734.242 896.455,742.021 899.226,748.129 901.998,752.581 904.769,755.409 907.54,756.658 910.312,756.386 913.083,754.664 915.854,751.57 918.626,747.197 921.397,741.643 924.169,735.011 926.94,727.414 929.711,718.965 932.483,709.781 935.254,699.981 938.025,689.684 940.797,679.007 943.568,668.064 946.34,656.967 949.111,645.824 951.882,634.737 954.654,623.801 957.425,613.106 960.196,602.733 962.968,592.757 965.739,583.244 968.511,574.251 971.282,565.828 974.053,558.016 976.825,550.847 979.596,544.345 982.367,538.527 985.139,533.4 987.91,528.966 990.682,525.218 993.453,522.146 996.224,519.73 998.996,517.947 1001.77,516.769 1004.54,516.164 1007.31,516.096 1010.08,516.527 1012.85,517.416 1015.62,518.72 1018.4,520.395 1021.17,522.398 1023.94,524.685 1026.71,527.21 1029.48,529.933 1032.25,532.81 1035.02,535.802 1037.79,538.871 1040.57,541.98 1043.34,545.097 1046.11,548.19 1048.88,551.232 1051.65,554.196 1054.42,557.061 1057.19,559.807 1059.97,562.417 1062.74,564.877 1065.51,567.177 1068.28,569.308 1071.05,571.263 1073.82,573.04 1076.59,574.636 1079.37,576.053 1082.14,577.293 1084.91,578.361 1087.68,579.261 1090.45,580.001 1093.22,580.588 1095.99,581.032 1098.77,581.342 1101.54,581.528 1104.31,581.601 1107.08,581.571 1109.85,581.449 1112.62,581.246 1115.39,580.973 1118.16,580.639 1120.94,580.254 1123.71,579.829 1126.48,579.371 1129.25,578.89 1132.02,578.393 1134.79,577.887 1137.56,577.378 1140.34,576.873 1143.11,576.377 1145.88,575.894 1148.65,575.428 1151.42,574.981 1154.19,574.558 1156.96,574.16 1159.74,573.788 1162.51,573.444 1165.28,573.128 1168.05,572.841 1170.82,572.582 1173.59,572.351 1176.36,572.147 1179.13,571.97 1181.91,571.817 1184.68,571.689 1187.45,571.583 1190.22,571.497 1192.99,571.431 1195.76,571.382 1198.53,571.349 1201.31,571.331 1204.08,571.325 1206.85,571.33 1209.62,571.345 1212.39,571.368 1215.16,571.398 1217.93,571.433 1220.71,571.473 1223.48,571.516 1226.25,571.562 1229.02,571.608 1231.79,571.656 1234.56,571.703 1237.33,571.75 1240.11,571.796 1242.88,571.84 1245.65,571.882 1248.42,571.922 1251.19,571.96 1253.96,571.995 1256.73,572.028 1259.5,572.058 1262.28,572.085 1265.05,572.109 1267.82,572.132 1270.59,572.151 1273.36,572.168 1276.13,572.183 1278.9,572.196 1281.68,572.207 1284.45,572.216 1287.22,572.223 1289.99,572.229 1292.76,572.234 1295.53,572.237 1298.3,572.239 1301.08,572.241 1303.85,572.241 1306.62,572.241 1309.39,572.24 1312.16,572.239 1314.93,572.237 1317.7,572.235 1320.47,572.233 1323.25,572.231 1326.02,572.229 1328.79,572.226 1331.56,572.224 1334.33,572.222 1337.1,572.219 1339.87,572.217 1342.65,572.215 1345.42,572.213 1348.19,572.211 1350.96,572.21 1353.73,572.208 1356.5,572.207 1359.27,572.206 1362.05,572.204 1364.82,572.203 1367.59,572.203 1370.36,572.202 1373.13,572.201 1375.9,572.201 1378.67,572.2 1381.45,572.2 1384.22,572.2 1386.99,572.199 1389.76,572.199 1392.53,572.199 1395.3,572.199 1398.07,572.199 1400.84,572.199 1403.62,572.199 1406.39,572.199 1409.16,572.2 1411.93,572.2 1414.7,572.2 1417.47,572.2 1420.24,572.2 1423.02,572.2 1425.79,572.2 1428.56,572.201 1431.33,572.201 1434.1,572.201 1436.87,572.201 1439.64,572.201 1442.42,572.201 1445.19,572.201 1447.96,572.202 1450.73,572.202 1453.5,572.202 1456.27,572.202 1459.04,572.202 1461.81,572.202 1464.59,572.202 1467.36,572.202 1470.13,572.202 1472.9,572.202 1475.67,572.203 1478.44,572.203 1481.21,572.203 1483.99,572.203 1486.76,572.203 1489.53,572.203 1492.3,572.203 1495.07,572.203 1497.84,572.203 1500.61,572.203 1503.39,572.203 1506.16,572.203 1508.93,572.204 1511.7,572.204 1514.47,572.204 1517.24,572.204 1520.01,572.204 1522.79,572.204 1525.56,572.204 1528.33,572.204 1531.1,572.204 1533.87,572.204 1536.64,572.204 1539.41,572.204 1542.18,572.204 1544.96,572.204 1547.73,572.205 1550.5,572.205 1553.27,572.205 1556.04,572.205 1558.81,572.205 1561.58,572.205 1564.36,572.205 1567.13,572.205 1569.9,572.205 1572.67,572.205 1575.44,572.205 1578.21,572.205 1580.98,572.205 1583.76,572.206 1586.53,572.206 1589.3,572.206 1592.07,572.206 1594.84,572.206 1597.61,572.206 1600.38,572.206 1603.15,572.206 1605.93,572.206 1608.7,572.206 1611.47,572.206 1614.24,572.206 1617.01,572.206 1619.78,572.206 1622.55,572.206 1625.33,572.207 1628.1,572.207 1630.87,572.207 1633.64,572.207 1636.41,572.207 1639.18,572.207 1641.95,572.207 1644.73,572.207 1647.5,572.207 1650.27,572.207 1653.04,572.207 1655.81,572.207 1658.58,572.207 1661.35,572.207 1664.13,572.208 1666.9,572.208 1669.67,572.208 1672.44,572.208 1675.21,572.208 1677.98,572.208 1680.75,572.208 1683.52,572.208 1686.3,572.208 1689.07,572.208 1691.84,572.208 1694.61,572.208 1697.38,572.208 1700.15,572.208 1702.92,572.208 1705.7,572.209 1708.47,572.209 1711.24,572.209 1714.01,572.209 1716.78,572.209 1719.55,572.209 1722.32,572.209 1725.1,572.209 1727.87,572.209 1730.64,572.209 1733.41,572.209 1736.18,572.209 1738.95,572.209 1741.72,572.209 1744.49,572.209 1747.27,572.21 1750.04,572.21 1752.81,572.21 1755.58,572.21 1758.35,572.21 1761.12,572.21 1763.89,572.21 1766.67,572.21 1769.44,572.21 1772.21,572.21 1774.98,572.21 1777.75,572.21 1780.52,572.21 1783.29,572.21 1786.07,572.21 1788.84,572.21 1791.61,572.211 1794.38,572.211 1797.15,572.211 1799.92,572.211 1802.69,572.211 1805.47,572.211 1808.24,572.211 1811.01,572.211 1813.78,572.211 1816.55,572.211 1819.32,572.211 1822.09,572.211 1824.86,572.211 1827.64,572.211 1830.41,572.211 1833.18,572.211 1835.95,572.212 1838.72,572.212 1841.49,572.212 1844.26,572.212 1847.04,572.212 1849.81,572.212 1852.58,572.212 1855.35,572.212 1858.12,572.212 1860.89,572.212 1863.66,572.212 1866.44,572.212 1869.21,572.212 1871.98,572.212 1874.75,572.212 1877.52,572.212 1880.29,572.213 1883.06,572.213 1885.84,572.213 1888.61,572.213 1891.38,572.213 1894.15,572.213 1896.92,572.213 1899.69,572.213 1902.46,572.213 1905.23,572.213 1908.01,572.213 1910.78,572.213 1913.55,572.213 1916.32,572.213 1919.09,572.213 1921.86,572.213 1924.63,572.213 1927.41,572.214 1930.18,572.214 1932.95,572.214 1935.72,572.214 1938.49,572.214 1941.26,572.214 1944.03,572.214 1946.81,572.214 1949.58,572.214 1952.35,572.214 1955.12,572.214 1957.89,572.214 1960.66,572.214 1963.43,572.214 1966.2,572.214 1968.98,572.214 1971.75,572.215 1974.52,572.215 1977.29,572.215 1980.06,572.215 1982.83,572.215 1985.6,572.215 1988.38,572.215 1991.15,572.215 1993.92,572.215 1996.69,572.215 1999.46,572.215 2002.23,572.215 2005,572.215 2007.78,572.215 2010.55,572.215 2013.32,572.215 2016.09,572.215 2018.86,572.216 2021.63,572.216 2024.4,572.216 2027.18,572.216 2029.95,572.216 2032.72,572.216 2035.49,572.216 2038.26,572.216 2041.03,572.216 2043.8,572.216 2046.57,572.216 2049.35,572.216 2052.12,572.216 2054.89,572.216 2057.66,572.216 2060.43,572.216 2063.2,572.216 2065.97,572.217 2068.75,572.217 2071.52,572.217 2074.29,572.217 2077.06,572.217 2079.83,572.217 2082.6,572.217 2085.37,572.217 2088.15,572.217 2090.92,572.217 2093.69,572.217 2096.46,572.217 2099.23,572.217 2102,572.217 2104.77,572.217 2107.54,572.217 2110.32,572.217 2113.09,572.218 2115.86,572.218 2118.63,572.218 2121.4,572.218 2124.17,572.218 2126.94,572.218 2129.72,572.218 2132.49,572.218 2135.26,572.218 2138.03,572.218 2140.8,572.218 2143.57,572.218 2146.34,572.218 2149.12,572.218 2151.89,572.218 2154.66,572.218 2157.43,572.218 2160.2,572.218 2162.97,572.219 2165.74,572.219 2168.52,572.219 2171.29,572.219 2174.06,572.219 2176.83,572.219 2179.6,572.219 2182.37,572.219 2185.14,572.219 2187.91,572.219 2190.69,572.219 2193.46,572.219 2196.23,572.219 2199,572.219 2201.77,572.219 2204.54,572.219 2207.31,572.22 2210.09,572.22 2212.86,572.22 2215.63,572.22 2218.4,572.22 2221.17,572.22 2223.94,572.22 2226.71,572.22 2229.49,572.22 2232.26,572.22 2235.03,572.22 2237.8,572.22 2240.57,572.22 2243.34,572.22 2246.11,572.22 2248.88,572.22 2251.66,572.22 2254.43,572.22 2257.2,572.221 2259.97,572.221 2262.74,572.221 2265.51,572.221 2268.28,572.221 2271.06,572.221 2273.83,572.221 2276.6,572.221 2279.37,572.221 2282.14,572.221 2284.91,572.221 2287.68,572.221 2290.46,572.221 2293.23,572.221 "/>
<polyline clip-path="url(#clip412)" style="stroke:#e58b00; stroke-linecap:round; stroke-linejoin:round; stroke-width:8; stroke-opacity:1; fill:none" points="308.924,553.867 311.695,554.937 314.467,556.319 317.238,558.023 320.009,560.056 322.781,562.422 325.552,565.12 328.323,568.145 331.095,571.486 333.866,575.13 336.638,579.056 339.409,583.239 342.18,587.65 344.952,592.254 347.723,597.012 350.494,601.88 353.266,606.81 356.037,611.752 358.809,616.652 361.58,621.452 364.351,626.096 367.123,630.523 369.894,634.675 372.665,638.492 375.437,641.918 378.208,644.897 380.98,647.378 383.751,649.313 386.522,650.658 389.294,651.375 392.065,651.434 394.836,650.81 397.608,649.485 400.379,647.45 403.151,644.704 405.922,641.254 408.693,637.116 411.465,632.313 414.236,626.88 417.007,620.856 419.779,614.291 422.55,607.239 425.321,599.765 428.093,591.934 430.864,583.822 433.636,575.506 436.407,567.066 439.178,558.585 441.95,550.148 444.721,541.836 447.492,533.736 450.264,525.915 453.035,518.475 455.807,511.491 458.578,505.018 461.349,499.123 464.121,493.856 466.892,489.268 469.663,485.394 472.435,482.268 475.206,479.909 477.978,478.332 480.749,477.538 483.52,477.523 486.292,478.272 489.063,479.762 491.834,481.961 494.606,484.831 497.377,488.327 500.149,492.396 502.92,496.982 505.691,502.023 508.463,507.455 511.234,513.209 514.005,519.217 516.777,525.408 519.548,531.714 522.32,538.066 525.091,544.397 527.862,550.645 530.634,556.748 533.405,562.652 536.176,568.305 538.948,573.663 541.719,578.683 544.491,583.334 547.262,587.585 550.033,591.416 552.805,594.811 555.576,597.759 558.347,600.258 561.119,602.309 563.89,603.919 566.662,605.101 569.433,605.87 572.204,606.247 574.976,606.257 577.747,605.925 580.518,605.282 583.29,604.358 586.061,603.185 588.832,601.798 591.604,600.228 594.375,598.51 597.147,596.675 599.918,594.756 602.689,592.78 605.461,590.778 608.232,588.775 611.003,586.794 613.775,584.858 616.546,582.985 619.318,581.191 622.089,579.491 624.86,577.895 627.632,576.413 630.403,575.051 633.174,573.813 635.946,572.7 638.717,571.714 641.489,570.852 644.26,570.111 647.031,569.486 649.803,568.972 652.574,568.562 655.345,568.249 658.117,568.024 660.888,567.88 663.66,567.808 666.431,567.799 669.202,567.845 671.974,567.938 674.745,568.069 677.516,568.233 680.288,568.422 683.059,568.628 685.831,568.848 688.602,569.075 691.373,569.305 694.145,569.533 696.916,569.758 699.687,569.975 702.459,570.182 705.23,570.379 708.002,570.562 710.773,570.733 713.544,570.889 716.316,571.031 719.087,571.159 721.858,571.274 724.63,571.375 727.401,571.463 730.173,571.54 732.944,571.606 735.715,571.661 738.487,571.708 741.258,571.746 744.029,571.778 746.801,571.802 749.572,571.822 752.343,571.836 755.115,571.847 757.886,571.854 760.658,571.859 763.429,571.861 766.2,571.862 768.972,571.861 771.743,571.86 774.514,571.858 777.286,571.855 780.057,571.852 782.829,571.85 785.6,571.847 788.371,571.845 791.143,571.843 793.914,571.841 796.685,571.84 799.457,571.839 802.228,571.838 805,571.838 807.771,571.838 810.542,571.838 813.314,571.839 816.085,571.839 818.856,571.841 821.628,571.842 824.399,571.843 827.171,571.845 829.942,571.847 832.713,571.849 835.485,571.851 838.256,571.853 841.027,571.855 843.799,571.857 846.57,571.859 849.342,571.862 852.113,571.864 854.884,571.866 857.656,571.869 860.427,571.871 863.198,571.873 865.97,571.875 868.741,571.878 871.513,571.88 874.284,571.882 877.055,571.884 879.827,571.887 882.598,571.889 885.369,571.891 888.141,571.893 890.912,571.895 893.684,571.898 896.455,571.9 899.226,571.902 901.998,571.904 904.769,571.906 907.54,571.908 910.312,571.91 913.083,571.912 915.854,571.914 918.626,571.916 921.397,571.918 924.169,571.92 926.94,571.922 929.711,571.924 932.483,571.926 935.254,571.928 938.025,571.93 940.797,571.932 943.568,571.934 946.34,571.936 949.111,571.938 951.882,571.94 954.654,571.942 957.425,571.944 960.196,571.945 962.968,571.947 965.739,571.949 968.511,571.951 971.282,571.953 974.053,571.955 976.825,571.956 979.596,571.958 982.367,571.96 985.139,571.962 987.91,571.964 990.682,571.965 993.453,571.967 996.224,571.969 998.996,571.97 1001.77,571.972 1004.54,571.974 1007.31,571.976 1010.08,571.977 1012.85,571.979 1015.62,571.981 1018.4,571.982 1021.17,571.984 1023.94,571.985 1026.71,571.987 1029.48,571.989 1032.25,571.99 1035.02,571.992 1037.79,571.994 1040.57,571.995 1043.34,571.997 1046.11,571.998 1048.88,572 1051.65,572.001 1054.42,572.003 1057.19,572.004 1059.97,572.006 1062.74,572.008 1065.51,572.009 1068.28,572.011 1071.05,572.012 1073.82,572.014 1076.59,572.015 1079.37,572.016 1082.14,572.018 1084.91,572.019 1087.68,572.021 1090.45,572.022 1093.22,572.024 1095.99,572.025 1098.77,572.027 1101.54,572.028 1104.31,572.029 1107.08,572.031 1109.85,572.032 1112.62,572.034 1115.39,572.035 1118.16,572.036 1120.94,572.038 1123.71,572.039 1126.48,572.04 1129.25,572.042 1132.02,572.043 1134.79,572.044 1137.56,572.046 1140.34,572.047 1143.11,572.048 1145.88,572.05 1148.65,572.051 1151.42,572.052 1154.19,572.054 1156.96,572.055 1159.74,572.056 1162.51,572.057 1165.28,572.059 1168.05,572.06 1170.82,572.061 1173.59,572.063 1176.36,572.064 1179.13,572.065 1181.91,572.066 1184.68,572.067 1187.45,572.069 1190.22,572.07 1192.99,572.071 1195.76,572.072 1198.53,572.074 1201.31,572.075 1204.08,572.076 1206.85,572.077 1209.62,572.078 1212.39,572.079 1215.16,572.081 1217.93,572.082 1220.71,572.083 1223.48,572.084 1226.25,572.085 1229.02,572.086 1231.79,572.088 1234.56,572.089 1237.33,572.09 1240.11,572.091 1242.88,572.092 1245.65,572.093 1248.42,572.094 1251.19,572.095 1253.96,572.097 1256.73,572.098 1259.5,572.099 1262.28,572.1 1265.05,572.101 1267.82,572.102 1270.59,572.103 1273.36,572.104 1276.13,572.105 1278.9,572.106 1281.68,572.107 1284.45,572.108 1287.22,572.11 1289.99,572.111 1292.76,572.112 1295.53,572.113 1298.3,572.114 1301.08,572.115 1303.85,572.116 1306.62,572.117 1309.39,572.118 1312.16,572.119 1314.93,572.12 1317.7,572.121 1320.47,572.122 1323.25,572.123 1326.02,572.124 1328.79,572.125 1331.56,572.126 1334.33,572.127 1337.1,572.128 1339.87,572.129 1342.65,572.13 1345.42,572.131 1348.19,572.132 1350.96,572.133 1353.73,572.134 1356.5,572.135 1359.27,572.136 1362.05,572.137 1364.82,572.138 1367.59,572.139 1370.36,572.14 1373.13,572.141 1375.9,572.142 1378.67,572.142 1381.45,572.143 1384.22,572.144 1386.99,572.145 1389.76,572.146 1392.53,572.147 1395.3,572.148 1398.07,572.149 1400.84,572.15 1403.62,572.151 1406.39,572.152 1409.16,572.153 1411.93,572.154 1414.7,572.155 1417.47,572.155 1420.24,572.156 1423.02,572.157 1425.79,572.158 1428.56,572.159 1431.33,572.16 1434.1,572.161 1436.87,572.162 1439.64,572.163 1442.42,572.163 1445.19,572.164 1447.96,572.165 1450.73,572.166 1453.5,572.167 1456.27,572.168 1459.04,572.169 1461.81,572.17 1464.59,572.171 1467.36,572.171 1470.13,572.172 1472.9,572.173 1475.67,572.174 1478.44,572.175 1481.21,572.176 1483.99,572.177 1486.76,572.177 1489.53,572.178 1492.3,572.179 1495.07,572.18 1497.84,572.181 1500.61,572.182 1503.39,572.182 1506.16,572.183 1508.93,572.184 1511.7,572.185 1514.47,572.186 1517.24,572.187 1520.01,572.187 1522.79,572.188 1525.56,572.189 1528.33,572.19 1531.1,572.191 1533.87,572.192 1536.64,572.192 1539.41,572.193 1542.18,572.194 1544.96,572.195 1547.73,572.196 1550.5,572.196 1553.27,572.197 1556.04,572.198 1558.81,572.199 1561.58,572.2 1564.36,572.2 1567.13,572.201 1569.9,572.202 1572.67,572.203 1575.44,572.204 1578.21,572.204 1580.98,572.205 1583.76,572.206 1586.53,572.207 1589.3,572.208 1592.07,572.208 1594.84,572.209 1597.61,572.21 1600.38,572.211 1603.15,572.212 1605.93,572.212 1608.7,572.213 1611.47,572.214 1614.24,572.215 1617.01,572.215 1619.78,572.216 1622.55,572.217 1625.33,572.218 1628.1,572.219 1630.87,572.219 1633.64,572.22 1636.41,572.221 1639.18,572.222 1641.95,572.222 1644.73,572.223 1647.5,572.224 1650.27,572.225 1653.04,572.225 1655.81,572.226 1658.58,572.227 1661.35,572.228 1664.13,572.229 1666.9,572.229 1669.67,572.23 1672.44,572.231 1675.21,572.232 1677.98,572.232 1680.75,572.233 1683.52,572.234 1686.3,572.235 1689.07,572.235 1691.84,572.236 1694.61,572.237 1697.38,572.238 1700.15,572.238 1702.92,572.239 1705.7,572.24 1708.47,572.241 1711.24,572.241 1714.01,572.242 1716.78,572.243 1719.55,572.244 1722.32,572.244 1725.1,572.245 1727.87,572.246 1730.64,572.247 1733.41,572.247 1736.18,572.248 1738.95,572.249 1741.72,572.249 1744.49,572.25 1747.27,572.251 1750.04,572.252 1752.81,572.252 1755.58,572.253 1758.35,572.254 1761.12,572.255 1763.89,572.255 1766.67,572.256 1769.44,572.257 1772.21,572.258 1774.98,572.258 1777.75,572.259 1780.52,572.26 1783.29,572.261 1786.07,572.261 1788.84,572.262 1791.61,572.263 1794.38,572.263 1797.15,572.264 1799.92,572.265 1802.69,572.266 1805.47,572.266 1808.24,572.267 1811.01,572.268 1813.78,572.269 1816.55,572.269 1819.32,572.27 1822.09,572.271 1824.86,572.271 1827.64,572.272 1830.41,572.273 1833.18,572.274 1835.95,572.274 1838.72,572.275 1841.49,572.276 1844.26,572.277 1847.04,572.277 1849.81,572.278 1852.58,572.279 1855.35,572.279 1858.12,572.28 1860.89,572.281 1863.66,572.282 1866.44,572.282 1869.21,572.283 1871.98,572.284 1874.75,572.285 1877.52,572.285 1880.29,572.286 1883.06,572.287 1885.84,572.287 1888.61,572.288 1891.38,572.289 1894.15,572.29 1896.92,572.29 1899.69,572.291 1902.46,572.292 1905.23,572.293 1908.01,572.293 1910.78,572.294 1913.55,572.295 1916.32,572.295 1919.09,572.296 1921.86,572.297 1924.63,572.298 1927.41,572.298 1930.18,572.299 1932.95,572.3 1935.72,572.301 1938.49,572.301 1941.26,572.302 1944.03,572.303 1946.81,572.303 1949.58,572.304 1952.35,572.305 1955.12,572.306 1957.89,572.306 1960.66,572.307 1963.43,572.308 1966.2,572.309 1968.98,572.309 1971.75,572.31 1974.52,572.311 1977.29,572.312 1980.06,572.312 1982.83,572.313 1985.6,572.314 1988.38,572.315 1991.15,572.315 1993.92,572.316 1996.69,572.317 1999.46,572.317 2002.23,572.318 2005,572.319 2007.78,572.32 2010.55,572.32 2013.32,572.321 2016.09,572.322 2018.86,572.323 2021.63,572.323 2024.4,572.324 2027.18,572.325 2029.95,572.326 2032.72,572.326 2035.49,572.327 2038.26,572.328 2041.03,572.329 2043.8,572.329 2046.57,572.33 2049.35,572.331 2052.12,572.332 2054.89,572.332 2057.66,572.333 2060.43,572.334 2063.2,572.335 2065.97,572.335 2068.75,572.336 2071.52,572.337 2074.29,572.338 2077.06,572.338 2079.83,572.339 2082.6,572.34 2085.37,572.341 2088.15,572.342 2090.92,572.342 2093.69,572.343 2096.46,572.344 2099.23,572.345 2102,572.345 2104.77,572.346 2107.54,572.347 2110.32,572.348 2113.09,572.348 2115.86,572.349 2118.63,572.35 2121.4,572.351 2124.17,572.352 2126.94,572.352 2129.72,572.353 2132.49,572.354 2135.26,572.355 2138.03,572.356 2140.8,572.356 2143.57,572.357 2146.34,572.358 2149.12,572.359 2151.89,572.359 2154.66,572.36 2157.43,572.361 2160.2,572.362 2162.97,572.363 2165.74,572.363 2168.52,572.364 2171.29,572.365 2174.06,572.366 2176.83,572.367 2179.6,572.367 2182.37,572.368 2185.14,572.369 2187.91,572.37 2190.69,572.371 2193.46,572.372 2196.23,572.372 2199,572.373 2201.77,572.374 2204.54,572.375 2207.31,572.376 2210.09,572.376 2212.86,572.377 2215.63,572.378 2218.4,572.379 2221.17,572.38 2223.94,572.381 2226.71,572.381 2229.49,572.382 2232.26,572.383 2235.03,572.384 2237.8,572.385 2240.57,572.386 2243.34,572.387 2246.11,572.387 2248.88,572.388 2251.66,572.389 2254.43,572.39 2257.2,572.391 2259.97,572.392 2262.74,572.393 2265.51,572.393 2268.28,572.394 2271.06,572.395 2273.83,572.396 2276.6,572.397 2279.37,572.398 2282.14,572.399 2284.91,572.399 2287.68,572.4 2290.46,572.401 2293.23,572.402 "/>
<path clip-path="url(#clip410)" d="M820.845 1423.18 L1781.31 1423.18 L1781.31 1319.5 L820.845 1319.5  Z" fill="#ffffff" fill-rule="evenodd" fill-opacity="1"/>
<polyline clip-path="url(#clip410)" style="stroke:#000000; stroke-linecap:round; stroke-linejoin:round; stroke-width:4; stroke-opacity:1; fill:none" points="820.845,1423.18 1781.31,1423.18 1781.31,1319.5 820.845,1319.5 820.845,1423.18 "/>
<polyline clip-path="url(#clip410)" style="stroke:#660066; stroke-linecap:round; stroke-linejoin:round; stroke-width:8; stroke-opacity:1; fill:none" points="844.216,1371.34 984.44,1371.34 "/>
<path clip-path="url(#clip410)" d="M1007.81 1368.44 Q1007.81 1367.33 1008.68 1366.54 Q1009.56 1365.74 1010.63 1365.74 Q1011.34 1365.74 1011.91 1366.07 Q1012.5 1366.36 1012.87 1366.95 Q1013.27 1367.52 1013.52 1368.12 Q1013.76 1368.68 1013.94 1369.55 Q1014.13 1370.41 1014.21 1370.93 Q1014.28 1371.43 1014.36 1372.19 Q1014.43 1372.93 1014.43 1373.08 Q1014.73 1372.02 1015.2 1370.96 Q1015.69 1369.89 1016.56 1368.61 Q1017.42 1367.33 1018.73 1366.51 Q1020.04 1365.7 1021.57 1365.7 Q1024.41 1365.7 1026.76 1368.83 Q1029.1 1371.97 1029.1 1378.49 L1029.1 1400.16 Q1029.1 1401.07 1028.71 1401.59 Q1028.34 1402.13 1027.99 1402.26 Q1027.65 1402.38 1027.23 1402.38 Q1026.51 1402.38 1025.89 1401.86 Q1025.3 1401.37 1025.3 1400.16 Q1025.3 1396.57 1026.56 1389.06 Q1027.85 1381.58 1027.85 1377.9 Q1027.85 1372.59 1025.3 1370.41 Q1024.04 1369.3 1022.63 1369.3 Q1021.37 1369.3 1020.36 1370.29 Q1019.35 1371.28 1018.66 1372.76 Q1017.96 1374.24 1017.32 1376.76 Q1016.7 1379.26 1016.31 1381.51 Q1015.94 1383.75 1015.49 1387.06 Q1015.25 1389.68 1013.42 1389.68 Q1012.75 1389.68 1012.16 1389.24 Q1011.59 1388.82 1011.59 1387.95 Q1011.59 1386.69 1012.38 1381.97 Q1013.17 1377.23 1013.17 1376.84 Q1013.17 1372.59 1012.63 1371.08 Q1012.11 1369.55 1011 1369.03 Q1010.43 1370.09 1009.47 1370.09 Q1008.75 1370.09 1008.28 1369.62 Q1007.81 1369.15 1007.81 1368.44 Z" fill="#000000" fill-rule="nonzero" fill-opacity="1" /><path clip-path="url(#clip410)" d="M1035.77 1359.74 L1035.77 1358.16 Q1041.85 1358.16 1044.99 1354.92 Q1045.85 1354.92 1046 1355.12 Q1046.15 1355.32 1046.15 1356.23 L1046.15 1384.62 Q1046.15 1386.12 1046.89 1386.59 Q1047.63 1387.06 1050.87 1387.06 L1052.47 1387.06 L1052.47 1388.62 Q1050.7 1388.47 1044.27 1388.47 Q1037.85 1388.47 1036.1 1388.62 L1036.1 1387.06 L1037.7 1387.06 Q1040.89 1387.06 1041.65 1386.62 Q1042.42 1386.15 1042.42 1384.62 L1042.42 1358.41 Q1039.78 1359.74 1035.77 1359.74 Z" fill="#000000" fill-rule="nonzero" fill-opacity="1" /><polyline clip-path="url(#clip410)" style="stroke:#0000e5; stroke-linecap:round; stroke-linejoin:round; stroke-width:8; stroke-opacity:1; fill:none" points="1078.49,1371.34 1218.71,1371.34 "/>
<path clip-path="url(#clip410)" d="M1242.08 1368.44 Q1242.08 1367.33 1242.95 1366.54 Q1243.84 1365.74 1244.9 1365.74 Q1245.62 1365.74 1246.18 1366.07 Q1246.78 1366.36 1247.15 1366.95 Q1247.54 1367.52 1247.79 1368.12 Q1248.04 1368.68 1248.21 1369.55 Q1248.41 1370.41 1248.48 1370.93 Q1248.56 1371.43 1248.63 1372.19 Q1248.7 1372.93 1248.7 1373.08 Q1249 1372.02 1249.47 1370.96 Q1249.96 1369.89 1250.83 1368.61 Q1251.69 1367.33 1253 1366.51 Q1254.31 1365.7 1255.84 1365.7 Q1258.68 1365.7 1261.03 1368.83 Q1263.38 1371.97 1263.38 1378.49 L1263.38 1400.16 Q1263.38 1401.07 1262.98 1401.59 Q1262.61 1402.13 1262.27 1402.26 Q1261.92 1402.38 1261.5 1402.38 Q1260.78 1402.38 1260.17 1401.86 Q1259.57 1401.37 1259.57 1400.16 Q1259.57 1396.57 1260.83 1389.06 Q1262.12 1381.58 1262.12 1377.9 Q1262.12 1372.59 1259.57 1370.41 Q1258.31 1369.3 1256.91 1369.3 Q1255.65 1369.3 1254.63 1370.29 Q1253.62 1371.28 1252.93 1372.76 Q1252.24 1374.24 1251.59 1376.76 Q1250.98 1379.26 1250.58 1381.51 Q1250.21 1383.75 1249.77 1387.06 Q1249.52 1389.68 1247.69 1389.68 Q1247.02 1389.68 1246.43 1389.24 Q1245.86 1388.82 1245.86 1387.95 Q1245.86 1386.69 1246.65 1381.97 Q1247.44 1377.23 1247.44 1376.84 Q1247.44 1372.59 1246.9 1371.08 Q1246.38 1369.55 1245.27 1369.03 Q1244.7 1370.09 1243.74 1370.09 Q1243.02 1370.09 1242.55 1369.62 Q1242.08 1369.15 1242.08 1368.44 Z" fill="#000000" fill-rule="nonzero" fill-opacity="1" /><path clip-path="url(#clip410)" d="M1268.07 1388.62 Q1268.07 1387.71 1268.15 1387.43 Q1268.24 1387.16 1268.64 1386.74 L1278.35 1375.92 Q1283.66 1369.94 1283.66 1364.73 Q1283.66 1361.35 1281.88 1358.93 Q1280.13 1356.51 1276.89 1356.51 Q1274.67 1356.51 1272.79 1357.86 Q1270.91 1359.22 1270.05 1361.64 Q1270.2 1361.59 1270.71 1361.59 Q1271.97 1361.59 1272.67 1362.38 Q1273.38 1363.18 1273.38 1364.24 Q1273.38 1365.6 1272.49 1366.26 Q1271.63 1366.91 1270.76 1366.91 Q1270.42 1366.91 1269.95 1366.83 Q1269.5 1366.76 1268.79 1366.07 Q1268.07 1365.35 1268.07 1364.09 Q1268.07 1360.56 1270.74 1357.74 Q1273.43 1354.92 1277.53 1354.92 Q1282.18 1354.92 1285.22 1357.69 Q1288.28 1360.43 1288.28 1364.73 Q1288.28 1366.24 1287.81 1367.62 Q1287.36 1368.98 1286.75 1370.04 Q1286.15 1371.11 1284.52 1372.81 Q1282.89 1374.51 1281.58 1375.72 Q1280.27 1376.94 1277.33 1379.5 L1271.97 1384.72 L1281.09 1384.72 Q1285.54 1384.72 1285.88 1384.32 Q1286.38 1383.61 1286.99 1379.83 L1288.28 1379.83 L1286.85 1388.62 L1268.07 1388.62 Z" fill="#000000" fill-rule="nonzero" fill-opacity="1" /><polyline clip-path="url(#clip410)" style="stroke:#006600; stroke-linecap:round; stroke-linejoin:round; stroke-width:8; stroke-opacity:1; fill:none" points="1312.76,1371.34 1452.98,1371.34 "/>
<path clip-path="url(#clip410)" d="M1476.36 1368.44 Q1476.36 1367.33 1477.22 1366.54 Q1478.11 1365.74 1479.17 1365.74 Q1479.89 1365.74 1480.46 1366.07 Q1481.05 1366.36 1481.42 1366.95 Q1481.81 1367.52 1482.06 1368.12 Q1482.31 1368.68 1482.48 1369.55 Q1482.68 1370.41 1482.75 1370.93 Q1482.83 1371.43 1482.9 1372.19 Q1482.98 1372.93 1482.98 1373.08 Q1483.27 1372.02 1483.74 1370.96 Q1484.24 1369.89 1485.1 1368.61 Q1485.97 1367.33 1487.27 1366.51 Q1488.58 1365.7 1490.12 1365.7 Q1492.96 1365.7 1495.3 1368.83 Q1497.65 1371.97 1497.65 1378.49 L1497.65 1400.16 Q1497.65 1401.07 1497.25 1401.59 Q1496.88 1402.13 1496.54 1402.26 Q1496.19 1402.38 1495.77 1402.38 Q1495.06 1402.38 1494.44 1401.86 Q1493.85 1401.37 1493.85 1400.16 Q1493.85 1396.57 1495.11 1389.06 Q1496.39 1381.58 1496.39 1377.9 Q1496.39 1372.59 1493.85 1370.41 Q1492.59 1369.3 1491.18 1369.3 Q1489.92 1369.3 1488.9 1370.29 Q1487.89 1371.28 1487.2 1372.76 Q1486.51 1374.24 1485.87 1376.76 Q1485.25 1379.26 1484.85 1381.51 Q1484.48 1383.75 1484.04 1387.06 Q1483.79 1389.68 1481.96 1389.68 Q1481.3 1389.68 1480.7 1389.24 Q1480.14 1388.82 1480.14 1387.95 Q1480.14 1386.69 1480.93 1381.97 Q1481.72 1377.23 1481.72 1376.84 Q1481.72 1372.59 1481.17 1371.08 Q1480.65 1369.55 1479.54 1369.03 Q1478.97 1370.09 1478.01 1370.09 Q1477.29 1370.09 1476.82 1369.62 Q1476.36 1369.15 1476.36 1368.44 Z" fill="#000000" fill-rule="nonzero" fill-opacity="1" /><path clip-path="url(#clip410)" d="M1501.95 1381.8 Q1501.95 1380.29 1502.81 1379.58 Q1503.68 1378.86 1504.79 1378.86 Q1505.95 1378.86 1506.77 1379.63 Q1507.61 1380.37 1507.61 1381.68 Q1507.61 1383.09 1506.62 1383.88 Q1505.65 1384.67 1504.27 1384.47 Q1505.48 1386.5 1507.7 1387.41 Q1509.95 1388.32 1512.03 1388.32 Q1514.2 1388.32 1515.95 1386.45 Q1517.73 1384.57 1517.73 1379.97 Q1517.73 1376.07 1516.2 1373.82 Q1514.7 1371.57 1511.71 1371.57 L1509.48 1371.57 Q1508.72 1371.57 1508.49 1371.5 Q1508.27 1371.43 1508.27 1371.01 Q1508.27 1370.51 1509.04 1370.41 Q1509.8 1370.41 1511.01 1370.27 Q1513.95 1370.17 1515.51 1367.62 Q1516.92 1365.25 1516.92 1361.87 Q1516.92 1358.78 1515.44 1357.49 Q1513.98 1356.18 1512.08 1356.18 Q1510.3 1356.18 1508.35 1356.93 Q1506.39 1357.67 1505.33 1359.32 Q1508.47 1359.32 1508.47 1361.87 Q1508.47 1362.98 1507.75 1363.72 Q1507.06 1364.44 1505.9 1364.44 Q1504.79 1364.44 1504.05 1363.74 Q1503.31 1363.03 1503.31 1361.82 Q1503.31 1358.93 1505.88 1356.93 Q1508.47 1354.92 1512.27 1354.92 Q1516.03 1354.92 1518.8 1356.9 Q1521.59 1358.88 1521.59 1361.92 Q1521.59 1364.9 1519.61 1367.35 Q1517.63 1369.8 1514.5 1370.81 Q1518.35 1371.57 1520.65 1374.19 Q1522.95 1376.79 1522.95 1379.97 Q1522.95 1383.93 1519.83 1386.84 Q1516.72 1389.73 1512.18 1389.73 Q1507.98 1389.73 1504.96 1387.46 Q1501.95 1385.19 1501.95 1381.8 Z" fill="#000000" fill-rule="nonzero" fill-opacity="1" /><polyline clip-path="url(#clip410)" style="stroke:#e58b00; stroke-linecap:round; stroke-linejoin:round; stroke-width:8; stroke-opacity:1; fill:none" points="1547.03,1371.34 1687.26,1371.34 "/>
<path clip-path="url(#clip410)" d="M1710.63 1368.44 Q1710.63 1367.33 1711.49 1366.54 Q1712.38 1365.74 1713.44 1365.74 Q1714.16 1365.74 1714.73 1366.07 Q1715.32 1366.36 1715.69 1366.95 Q1716.09 1367.52 1716.33 1368.12 Q1716.58 1368.68 1716.75 1369.55 Q1716.95 1370.41 1717.03 1370.93 Q1717.1 1371.43 1717.17 1372.19 Q1717.25 1372.93 1717.25 1373.08 Q1717.54 1372.02 1718.01 1370.96 Q1718.51 1369.89 1719.37 1368.61 Q1720.24 1367.33 1721.55 1366.51 Q1722.86 1365.7 1724.39 1365.7 Q1727.23 1365.7 1729.58 1368.83 Q1731.92 1371.97 1731.92 1378.49 L1731.92 1400.16 Q1731.92 1401.07 1731.53 1401.59 Q1731.16 1402.13 1730.81 1402.26 Q1730.46 1402.38 1730.04 1402.38 Q1729.33 1402.38 1728.71 1401.86 Q1728.12 1401.37 1728.12 1400.16 Q1728.12 1396.57 1729.38 1389.06 Q1730.66 1381.58 1730.66 1377.9 Q1730.66 1372.59 1728.12 1370.41 Q1726.86 1369.3 1725.45 1369.3 Q1724.19 1369.3 1723.18 1370.29 Q1722.16 1371.28 1721.47 1372.76 Q1720.78 1374.24 1720.14 1376.76 Q1719.52 1379.26 1719.13 1381.51 Q1718.76 1383.75 1718.31 1387.06 Q1718.06 1389.68 1716.24 1389.68 Q1715.57 1389.68 1714.98 1389.24 Q1714.41 1388.82 1714.41 1387.95 Q1714.41 1386.69 1715.2 1381.97 Q1715.99 1377.23 1715.99 1376.84 Q1715.99 1372.59 1715.44 1371.08 Q1714.93 1369.55 1713.81 1369.03 Q1713.25 1370.09 1712.28 1370.09 Q1711.57 1370.09 1711.1 1369.62 Q1710.63 1369.15 1710.63 1368.44 Z" fill="#000000" fill-rule="nonzero" fill-opacity="1" /><path clip-path="url(#clip410)" d="M1735.5 1380.27 L1735.5 1378.71 L1751.04 1354.97 Q1751.44 1354.36 1752.06 1354.38 Q1752.62 1354.38 1752.75 1354.6 Q1752.87 1354.83 1752.87 1355.69 L1752.87 1378.71 L1757.93 1378.71 L1757.93 1380.27 L1752.87 1380.27 L1752.87 1384.67 Q1752.87 1386.12 1753.46 1386.59 Q1754.08 1387.06 1756.7 1387.06 L1757.76 1387.06 L1757.76 1388.62 Q1755.69 1388.47 1750.89 1388.47 Q1746.13 1388.47 1744.05 1388.62 L1744.05 1387.06 L1745.11 1387.06 Q1747.73 1387.06 1748.35 1386.62 Q1748.97 1386.15 1748.97 1384.67 L1748.97 1380.27 L1735.5 1380.27 M1736.94 1378.71 L1749.26 1378.71 L1749.26 1359.84 L1736.94 1378.71 Z" fill="#000000" fill-rule="nonzero" fill-opacity="1" /></svg>
