<?xml version="1.0" encoding="utf-8"?>
<svg xmlns="http://www.w3.org/2000/svg" xmlns:xlink="http://www.w3.org/1999/xlink" width="600" height="400" viewBox="0 0 2400 1600">
<defs>
  <clipPath id="clip460">
    <rect x="0" y="0" width="2400" height="1600"/>
  </clipPath>
</defs>
<path clip-path="url(#clip460)" d="M0 1600 L2400 1600 L2400 0 L0 0  Z" fill="#ffffff" fill-rule="evenodd" fill-opacity="1"/>
<defs>
  <clipPath id="clip461">
    <rect x="480" y="0" width="1681" height="1600"/>
  </clipPath>
</defs>
<path clip-path="url(#clip460)" d="M249.395 1423.18 L2352.76 1423.18 L2352.76 47.2441 L249.395 47.2441  Z" fill="#ffffff" fill-rule="evenodd" fill-opacity="1"/>
<defs>
  <clipPath id="clip462">
    <rect x="249" y="47" width="2104" height="1377"/>
  </clipPath>
</defs>
<polyline clip-path="url(#clip462)" style="stroke:#000000; stroke-linecap:round; stroke-linejoin:round; stroke-width:2; stroke-opacity:0.1; fill:none" points="270.125,1423.18 270.125,47.2441 "/>
<polyline clip-path="url(#clip462)" style="stroke:#000000; stroke-linecap:round; stroke-linejoin:round; stroke-width:2; stroke-opacity:0.1; fill:none" points="713.544,1423.18 713.544,47.2441 "/>
<polyline clip-path="url(#clip462)" style="stroke:#000000; stroke-linecap:round; stroke-linejoin:round; stroke-width:2; stroke-opacity:0.1; fill:none" points="1156.96,1423.18 1156.96,47.2441 "/>
<polyline clip-path="url(#clip462)" style="stroke:#000000; stroke-linecap:round; stroke-linejoin:round; stroke-width:2; stroke-opacity:0.1; fill:none" points="1600.38,1423.18 1600.38,47.2441 "/>
<polyline clip-path="url(#clip462)" style="stroke:#000000; stroke-linecap:round; stroke-linejoin:round; stroke-width:2; stroke-opacity:0.1; fill:none" points="2043.8,1423.18 2043.8,47.2441 "/>
<polyline clip-path="url(#clip460)" style="stroke:#000000; stroke-linecap:round; stroke-linejoin:round; stroke-width:4; stroke-opacity:1; fill:none" points="249.395,1423.18 2352.76,1423.18 "/>
<polyline clip-path="url(#clip460)" style="stroke:#000000; stroke-linecap:round; stroke-linejoin:round; stroke-width:4; stroke-opacity:1; fill:none" points="270.125,1423.18 270.125,1404.28 "/>
<polyline clip-path="url(#clip460)" style="stroke:#000000; stroke-linecap:round; stroke-linejoin:round; stroke-width:4; stroke-opacity:1; fill:none" points="713.544,1423.18 713.544,1404.28 "/>
<polyline clip-path="url(#clip460)" style="stroke:#000000; stroke-linecap:round; stroke-linejoin:round; stroke-width:4; stroke-opacity:1; fill:none" points="1156.96,1423.18 1156.96,1404.28 "/>
<polyline clip-path="url(#clip460)" style="stroke:#000000; stroke-linecap:round; stroke-linejoin:round; stroke-width:4; stroke-opacity:1; fill:none" points="1600.38,1423.18 1600.38,1404.28 "/>
<polyline clip-path="url(#clip460)" style="stroke:#000000; stroke-linecap:round; stroke-linejoin:round; stroke-width:4; stroke-opacity:1; fill:none" points="2043.8,1423.18 2043.8,1404.28 "/>
<path clip-path="url(#clip460)" d="M260.984 1472.22 Q261.281 1472.51 261.281 1472.93 Q261.281 1473.35 260.984 1473.65 Q260.688 1473.94 260.268 1473.94 L228.598 1473.94 Q228.178 1473.94 227.882 1473.65 Q227.585 1473.35 227.585 1472.93 Q227.585 1472.51 227.882 1472.22 Q228.178 1471.92 228.598 1471.92 L260.268 1471.92 Q260.688 1471.92 260.984 1472.22 Z" fill="#000000" fill-rule="nonzero" fill-opacity="1" /><path clip-path="url(#clip460)" d="M265.505 1477.23 L265.505 1475.67 L281.043 1451.93 Q281.439 1451.32 282.056 1451.34 Q282.625 1451.34 282.748 1451.56 Q282.872 1451.79 282.872 1452.65 L282.872 1475.67 L287.936 1475.67 L287.936 1477.23 L282.872 1477.23 L282.872 1481.63 Q282.872 1483.08 283.464 1483.55 Q284.082 1484.02 286.701 1484.02 L287.763 1484.02 L287.763 1485.58 Q285.688 1485.43 280.895 1485.43 Q276.128 1485.43 274.052 1485.58 L274.052 1484.02 L275.115 1484.02 Q277.733 1484.02 278.351 1483.58 Q278.968 1483.11 278.968 1481.63 L278.968 1477.23 L265.505 1477.23 M266.938 1475.67 L279.265 1475.67 L279.265 1456.8 L266.938 1475.67 Z" fill="#000000" fill-rule="nonzero" fill-opacity="1" /><path clip-path="url(#clip460)" d="M291.369 1469.4 Q291.369 1461.96 293.247 1457.91 Q295.866 1451.88 302.041 1451.88 Q303.351 1451.88 304.709 1452.26 Q306.093 1452.6 307.822 1453.96 Q309.576 1455.32 310.638 1457.54 Q312.664 1461.84 312.664 1469.4 Q312.664 1476.79 310.786 1480.81 Q308.044 1486.69 301.992 1486.69 Q299.719 1486.69 297.397 1485.53 Q295.1 1484.37 293.642 1481.58 Q291.369 1477.4 291.369 1469.4 M295.569 1468.78 Q295.569 1476.41 296.113 1479.45 Q296.73 1482.74 298.41 1484.17 Q300.114 1485.58 301.992 1485.58 Q304.018 1485.58 305.697 1484.07 Q307.402 1482.54 307.921 1479.26 Q308.489 1476.02 308.464 1468.78 Q308.464 1461.74 307.97 1458.92 Q307.303 1455.64 305.525 1454.33 Q303.771 1453 301.992 1453 Q301.325 1453 300.609 1453.19 Q299.917 1453.39 298.904 1453.96 Q297.891 1454.53 297.101 1455.94 Q296.335 1457.34 295.964 1459.47 Q295.569 1462.21 295.569 1468.78 Z" fill="#000000" fill-rule="nonzero" fill-opacity="1" /><path clip-path="url(#clip460)" d="M704.404 1472.22 Q704.7 1472.51 704.7 1472.93 Q704.7 1473.35 704.404 1473.65 Q704.108 1473.94 703.688 1473.94 L672.018 1473.94 Q671.598 1473.94 671.302 1473.65 Q671.005 1473.35 671.005 1472.93 Q671.005 1472.51 671.302 1472.22 Q671.598 1471.92 672.018 1471.92 L703.688 1471.92 Q704.108 1471.92 704.404 1472.22 Z" fill="#000000" fill-rule="nonzero" fill-opacity="1" /><path clip-path="url(#clip460)" d="M710.036 1485.58 Q710.036 1484.67 710.111 1484.39 Q710.209 1484.12 710.605 1483.7 L720.313 1472.88 Q725.624 1466.9 725.624 1461.69 Q725.624 1458.31 723.846 1455.89 Q722.092 1453.47 718.855 1453.47 Q716.632 1453.47 714.755 1454.82 Q712.877 1456.18 712.013 1458.6 Q712.161 1458.55 712.68 1458.55 Q713.94 1458.55 714.631 1459.34 Q715.348 1460.14 715.348 1461.2 Q715.348 1462.56 714.458 1463.22 Q713.594 1463.87 712.729 1463.87 Q712.383 1463.87 711.914 1463.79 Q711.469 1463.72 710.753 1463.03 Q710.036 1462.31 710.036 1461.05 Q710.036 1457.52 712.704 1454.7 Q715.397 1451.88 719.498 1451.88 Q724.142 1451.88 727.181 1454.65 Q730.244 1457.39 730.244 1461.69 Q730.244 1463.2 729.774 1464.58 Q729.33 1465.94 728.712 1467 Q728.119 1468.07 726.489 1469.77 Q724.858 1471.47 723.549 1472.68 Q722.24 1473.9 719.3 1476.46 L713.94 1481.68 L723.055 1481.68 Q727.502 1481.68 727.848 1481.28 Q728.342 1480.57 728.959 1476.79 L730.244 1476.79 L728.811 1485.58 L710.036 1485.58 Z" fill="#000000" fill-rule="nonzero" fill-opacity="1" /><path clip-path="url(#clip460)" d="M734.789 1469.4 Q734.789 1461.96 736.667 1457.91 Q739.285 1451.88 745.461 1451.88 Q746.77 1451.88 748.129 1452.26 Q749.512 1452.6 751.242 1453.96 Q752.996 1455.32 754.058 1457.54 Q756.083 1461.84 756.083 1469.4 Q756.083 1476.79 754.206 1480.81 Q751.464 1486.69 745.412 1486.69 Q743.139 1486.69 740.817 1485.53 Q738.519 1484.37 737.062 1481.58 Q734.789 1477.4 734.789 1469.4 M738.989 1468.78 Q738.989 1476.41 739.532 1479.45 Q740.15 1482.74 741.83 1484.17 Q743.534 1485.58 745.412 1485.58 Q747.437 1485.58 749.117 1484.07 Q750.822 1482.54 751.34 1479.26 Q751.909 1476.02 751.884 1468.78 Q751.884 1461.74 751.39 1458.92 Q750.723 1455.64 748.944 1454.33 Q747.19 1453 745.412 1453 Q744.745 1453 744.028 1453.19 Q743.337 1453.39 742.324 1453.96 Q741.311 1454.53 740.52 1455.94 Q739.755 1457.34 739.384 1459.47 Q738.989 1462.21 738.989 1468.78 Z" fill="#000000" fill-rule="nonzero" fill-opacity="1" /><path clip-path="url(#clip460)" d="M1146.32 1469.4 Q1146.32 1461.96 1148.19 1457.91 Q1150.81 1451.88 1156.99 1451.88 Q1158.3 1451.88 1159.66 1452.26 Q1161.04 1452.6 1162.77 1453.96 Q1164.52 1455.32 1165.59 1457.54 Q1167.61 1461.84 1167.61 1469.4 Q1167.61 1476.79 1165.73 1480.81 Q1162.99 1486.69 1156.94 1486.69 Q1154.67 1486.69 1152.34 1485.53 Q1150.05 1484.37 1148.59 1481.58 Q1146.32 1477.4 1146.32 1469.4 M1150.52 1468.78 Q1150.52 1476.41 1151.06 1479.45 Q1151.68 1482.74 1153.36 1484.17 Q1155.06 1485.58 1156.94 1485.58 Q1158.96 1485.58 1160.64 1484.07 Q1162.35 1482.54 1162.87 1479.26 Q1163.44 1476.02 1163.41 1468.78 Q1163.41 1461.74 1162.92 1458.92 Q1162.25 1455.64 1160.47 1454.33 Q1158.72 1453 1156.94 1453 Q1156.27 1453 1155.56 1453.19 Q1154.86 1453.39 1153.85 1453.96 Q1152.84 1454.53 1152.05 1455.94 Q1151.28 1457.34 1150.91 1459.47 Q1150.52 1462.21 1150.52 1468.78 Z" fill="#000000" fill-rule="nonzero" fill-opacity="1" /><path clip-path="url(#clip460)" d="M1577.36 1485.58 Q1577.36 1484.67 1577.43 1484.39 Q1577.53 1484.12 1577.93 1483.7 L1587.64 1472.88 Q1592.95 1466.9 1592.95 1461.69 Q1592.95 1458.31 1591.17 1455.89 Q1589.42 1453.47 1586.18 1453.47 Q1583.96 1453.47 1582.08 1454.82 Q1580.2 1456.18 1579.34 1458.6 Q1579.48 1458.55 1580 1458.55 Q1581.26 1458.55 1581.95 1459.34 Q1582.67 1460.14 1582.67 1461.2 Q1582.67 1462.56 1581.78 1463.22 Q1580.92 1463.87 1580.05 1463.87 Q1579.71 1463.87 1579.24 1463.79 Q1578.79 1463.72 1578.08 1463.03 Q1577.36 1462.31 1577.36 1461.05 Q1577.36 1457.52 1580.03 1454.7 Q1582.72 1451.88 1586.82 1451.88 Q1591.47 1451.88 1594.5 1454.65 Q1597.57 1457.39 1597.57 1461.69 Q1597.57 1463.2 1597.1 1464.58 Q1596.65 1465.94 1596.04 1467 Q1595.44 1468.07 1593.81 1469.77 Q1592.18 1471.47 1590.87 1472.68 Q1589.56 1473.9 1586.62 1476.46 L1581.26 1481.68 L1590.38 1481.68 Q1594.83 1481.68 1595.17 1481.28 Q1595.67 1480.57 1596.28 1476.79 L1597.57 1476.79 L1596.13 1485.58 L1577.36 1485.58 Z" fill="#000000" fill-rule="nonzero" fill-opacity="1" /><path clip-path="url(#clip460)" d="M1602.11 1469.4 Q1602.11 1461.96 1603.99 1457.91 Q1606.61 1451.88 1612.78 1451.88 Q1614.09 1451.88 1615.45 1452.26 Q1616.84 1452.6 1618.57 1453.96 Q1620.32 1455.32 1621.38 1457.54 Q1623.41 1461.84 1623.41 1469.4 Q1623.41 1476.79 1621.53 1480.81 Q1618.79 1486.69 1612.74 1486.69 Q1610.46 1486.69 1608.14 1485.53 Q1605.84 1484.37 1604.39 1481.58 Q1602.11 1477.4 1602.11 1469.4 M1606.31 1468.78 Q1606.31 1476.41 1606.86 1479.45 Q1607.47 1482.74 1609.15 1484.17 Q1610.86 1485.58 1612.74 1485.58 Q1614.76 1485.58 1616.44 1484.07 Q1618.15 1482.54 1618.66 1479.26 Q1619.23 1476.02 1619.21 1468.78 Q1619.21 1461.74 1618.71 1458.92 Q1618.05 1455.64 1616.27 1454.33 Q1614.51 1453 1612.74 1453 Q1612.07 1453 1611.35 1453.19 Q1610.66 1453.39 1609.65 1453.96 Q1608.63 1454.53 1607.84 1455.94 Q1607.08 1457.34 1606.71 1459.47 Q1606.31 1462.21 1606.31 1468.78 Z" fill="#000000" fill-rule="nonzero" fill-opacity="1" /><path clip-path="url(#clip460)" d="M2020.22 1477.23 L2020.22 1475.67 L2035.76 1451.93 Q2036.16 1451.32 2036.78 1451.34 Q2037.34 1451.34 2037.47 1451.56 Q2037.59 1451.79 2037.59 1452.65 L2037.59 1475.67 L2042.65 1475.67 L2042.65 1477.23 L2037.59 1477.23 L2037.59 1481.63 Q2037.59 1483.08 2038.18 1483.55 Q2038.8 1484.02 2041.42 1484.02 L2042.48 1484.02 L2042.48 1485.58 Q2040.41 1485.43 2035.61 1485.43 Q2030.85 1485.43 2028.77 1485.58 L2028.77 1484.02 L2029.83 1484.02 Q2032.45 1484.02 2033.07 1483.58 Q2033.69 1483.11 2033.69 1481.63 L2033.69 1477.23 L2020.22 1477.23 M2021.66 1475.67 L2033.98 1475.67 L2033.98 1456.8 L2021.66 1475.67 Z" fill="#000000" fill-rule="nonzero" fill-opacity="1" /><path clip-path="url(#clip460)" d="M2046.09 1469.4 Q2046.09 1461.96 2047.97 1457.91 Q2050.58 1451.88 2056.76 1451.88 Q2058.07 1451.88 2059.43 1452.26 Q2060.81 1452.6 2062.54 1453.96 Q2064.29 1455.32 2065.36 1457.54 Q2067.38 1461.84 2067.38 1469.4 Q2067.38 1476.79 2065.51 1480.81 Q2062.76 1486.69 2056.71 1486.69 Q2054.44 1486.69 2052.12 1485.53 Q2049.82 1484.37 2048.36 1481.58 Q2046.09 1477.4 2046.09 1469.4 M2050.29 1468.78 Q2050.29 1476.41 2050.83 1479.45 Q2051.45 1482.74 2053.13 1484.17 Q2054.83 1485.58 2056.71 1485.58 Q2058.74 1485.58 2060.42 1484.07 Q2062.12 1482.54 2062.64 1479.26 Q2063.21 1476.02 2063.18 1468.78 Q2063.18 1461.74 2062.69 1458.92 Q2062.02 1455.64 2060.24 1454.33 Q2058.49 1453 2056.71 1453 Q2056.04 1453 2055.33 1453.19 Q2054.64 1453.39 2053.62 1453.96 Q2052.61 1454.53 2051.82 1455.94 Q2051.05 1457.34 2050.68 1459.47 Q2050.29 1462.21 2050.29 1468.78 Z" fill="#000000" fill-rule="nonzero" fill-opacity="1" /><path clip-path="url(#clip460)" d="M1270.93 1528.17 Q1270.93 1529.07 1270.51 1529.3 Q1270.1 1529.49 1268.94 1529.49 L1262.75 1529.49 L1257.86 1548.94 Q1257.47 1550.65 1257.47 1552.1 Q1257.47 1553.71 1257.95 1554.42 Q1258.47 1555.13 1259.53 1555.13 Q1261.63 1555.13 1263.88 1553.23 Q1266.17 1551.33 1268.1 1546.69 Q1268.36 1546.08 1268.49 1545.95 Q1268.65 1545.79 1269.07 1545.79 Q1269.87 1545.79 1269.87 1546.43 Q1269.87 1546.66 1269.42 1547.69 Q1269 1548.72 1268.07 1550.23 Q1267.17 1551.75 1265.97 1553.16 Q1264.81 1554.58 1263.04 1555.61 Q1261.27 1556.61 1259.37 1556.61 Q1256.7 1556.61 1254.99 1554.9 Q1253.32 1553.19 1253.32 1550.52 Q1253.32 1549.65 1253.99 1546.88 Q1254.67 1544.08 1258.34 1529.49 L1252.51 1529.49 Q1251.71 1529.49 1251.38 1529.46 Q1251.09 1529.43 1250.87 1529.27 Q1250.68 1529.07 1250.68 1528.69 Q1250.68 1528.07 1250.93 1527.82 Q1251.19 1527.53 1251.51 1527.49 Q1251.87 1527.43 1252.67 1527.43 L1258.86 1527.43 L1261.43 1516.96 Q1261.69 1515.93 1262.33 1515.35 Q1263.01 1514.74 1263.4 1514.68 Q1263.78 1514.58 1264.07 1514.58 Q1264.94 1514.58 1265.46 1515.06 Q1265.97 1515.51 1265.97 1516.35 Q1265.97 1516.8 1263.27 1527.43 L1269.07 1527.43 Q1269.81 1527.43 1270.1 1527.46 Q1270.42 1527.49 1270.68 1527.66 Q1270.93 1527.82 1270.93 1528.17 Z" fill="#000000" fill-rule="nonzero" fill-opacity="1" /><path clip-path="url(#clip460)" d="M1291.68 1572.36 L1291.68 1506.4 L1301.63 1506.4 L1301.63 1507.91 L1296.09 1507.91 L1296.09 1570.84 L1301.63 1570.84 L1301.63 1572.36 L1291.68 1572.36 Z" fill="#000000" fill-rule="nonzero" fill-opacity="1" /><path clip-path="url(#clip460)" d="M1328.57 1532.39 Q1328.57 1534.19 1327.67 1535.16 Q1326.77 1536.09 1325.54 1536.09 Q1324.54 1536.09 1324 1535.51 Q1323.48 1534.93 1323.48 1534.16 Q1323.48 1533.03 1324.38 1532.13 Q1325.32 1531.23 1326.67 1531.2 Q1326.22 1530.01 1325.03 1529.3 Q1323.83 1528.56 1322.77 1528.36 Q1321.74 1528.17 1320.71 1528.17 Q1318.68 1528.17 1317.14 1528.81 Q1315.59 1529.46 1314.82 1530.46 Q1314.04 1531.42 1313.69 1532.36 Q1313.34 1533.29 1313.34 1534.1 Q1313.34 1534.81 1313.5 1535.38 Q1313.69 1535.93 1314.14 1536.35 Q1314.59 1536.74 1314.91 1537 Q1315.27 1537.25 1316.04 1537.48 Q1316.81 1537.7 1317.14 1537.8 Q1317.46 1537.86 1318.36 1538.06 Q1320.23 1538.44 1321.07 1538.67 Q1321.9 1538.86 1323 1539.41 Q1324.12 1539.96 1324.96 1540.83 Q1326.99 1542.86 1326.99 1545.66 Q1326.99 1546.69 1326.64 1547.95 Q1326.31 1549.2 1325.38 1550.78 Q1324.45 1552.36 1323.03 1553.61 Q1321.61 1554.87 1319.17 1555.74 Q1316.75 1556.61 1313.72 1556.61 Q1309.5 1556.61 1306.89 1554.84 Q1304.29 1553.03 1304.29 1550.2 Q1304.29 1548.14 1305.41 1547.01 Q1306.54 1545.85 1307.99 1545.85 Q1309.08 1545.85 1309.76 1546.46 Q1310.44 1547.04 1310.44 1548.14 Q1310.44 1549.62 1309.25 1550.75 Q1308.05 1551.87 1306.28 1551.65 Q1307.8 1555.13 1313.79 1555.13 Q1316.04 1555.13 1317.78 1554.55 Q1319.55 1553.94 1320.52 1553.1 Q1321.52 1552.23 1322.16 1551.17 Q1322.8 1550.1 1323 1549.3 Q1323.22 1548.49 1323.22 1547.88 Q1323.22 1546.82 1322.8 1546.01 Q1322.39 1545.21 1321.81 1544.76 Q1321.26 1544.27 1320.2 1543.89 Q1319.17 1543.47 1318.42 1543.31 Q1317.68 1543.15 1316.36 1542.89 Q1315.75 1542.76 1315.36 1542.7 Q1314.98 1542.6 1314.17 1542.34 Q1313.4 1542.05 1312.85 1541.76 Q1312.34 1541.47 1311.66 1540.96 Q1310.98 1540.44 1310.57 1539.83 Q1310.15 1539.22 1309.86 1538.32 Q1309.57 1537.41 1309.57 1536.35 Q1309.57 1535.38 1309.86 1534.23 Q1310.18 1533.07 1310.98 1531.71 Q1311.82 1530.36 1313.01 1529.27 Q1314.21 1528.17 1316.2 1527.46 Q1318.23 1526.72 1320.71 1526.72 Q1324.32 1526.72 1326.44 1528.4 Q1328.57 1530.04 1328.57 1532.39 Z" fill="#000000" fill-rule="nonzero" fill-opacity="1" /><path clip-path="url(#clip460)" d="M1333.32 1570.84 L1338.86 1570.84 L1338.86 1507.91 L1333.32 1507.91 L1333.32 1506.4 L1343.28 1506.4 L1343.28 1572.36 L1333.32 1572.36 L1333.32 1570.84 Z" fill="#000000" fill-rule="nonzero" fill-opacity="1" /><polyline clip-path="url(#clip462)" style="stroke:#000000; stroke-linecap:round; stroke-linejoin:round; stroke-width:2; stroke-opacity:0.1; fill:none" points="249.395,1297.13 2352.76,1297.13 "/>
<polyline clip-path="url(#clip462)" style="stroke:#000000; stroke-linecap:round; stroke-linejoin:round; stroke-width:2; stroke-opacity:0.1; fill:none" points="249.395,1029.26 2352.76,1029.26 "/>
<polyline clip-path="url(#clip462)" style="stroke:#000000; stroke-linecap:round; stroke-linejoin:round; stroke-width:2; stroke-opacity:0.1; fill:none" points="249.395,761.395 2352.76,761.395 "/>
<polyline clip-path="url(#clip462)" style="stroke:#000000; stroke-linecap:round; stroke-linejoin:round; stroke-width:2; stroke-opacity:0.1; fill:none" points="249.395,493.529 2352.76,493.529 "/>
<polyline clip-path="url(#clip462)" style="stroke:#000000; stroke-linecap:round; stroke-linejoin:round; stroke-width:2; stroke-opacity:0.1; fill:none" points="249.395,225.663 2352.76,225.663 "/>
<polyline clip-path="url(#clip460)" style="stroke:#000000; stroke-linecap:round; stroke-linejoin:round; stroke-width:4; stroke-opacity:1; fill:none" points="249.395,1423.18 249.395,47.2441 "/>
<polyline clip-path="url(#clip460)" style="stroke:#000000; stroke-linecap:round; stroke-linejoin:round; stroke-width:4; stroke-opacity:1; fill:none" points="249.395,1297.13 268.292,1297.13 "/>
<polyline clip-path="url(#clip460)" style="stroke:#000000; stroke-linecap:round; stroke-linejoin:round; stroke-width:4; stroke-opacity:1; fill:none" points="249.395,1029.26 268.292,1029.26 "/>
<polyline clip-path="url(#clip460)" style="stroke:#000000; stroke-linecap:round; stroke-linejoin:round; stroke-width:4; stroke-opacity:1; fill:none" points="249.395,761.395 268.292,761.395 "/>
<polyline clip-path="url(#clip460)" style="stroke:#000000; stroke-linecap:round; stroke-linejoin:round; stroke-width:4; stroke-opacity:1; fill:none" points="249.395,493.529 268.292,493.529 "/>
<polyline clip-path="url(#clip460)" style="stroke:#000000; stroke-linecap:round; stroke-linejoin:round; stroke-width:4; stroke-opacity:1; fill:none" points="249.395,225.663 268.292,225.663 "/>
<path clip-path="url(#clip460)" d="M147.659 1301.04 Q147.956 1301.34 147.956 1301.76 Q147.956 1302.18 147.659 1302.48 Q147.363 1302.77 146.943 1302.77 L115.273 1302.77 Q114.853 1302.77 114.557 1302.48 Q114.26 1302.18 114.26 1301.76 Q114.26 1301.34 114.557 1301.04 Q114.853 1300.75 115.273 1300.75 L146.943 1300.75 Q147.363 1300.75 147.659 1301.04 Z" fill="#000000" fill-rule="nonzero" fill-opacity="1" /><path clip-path="url(#clip460)" d="M153.291 1306.26 Q153.291 1304.75 154.107 1304.18 Q154.922 1303.59 155.787 1303.59 Q156.948 1303.59 157.615 1304.33 Q158.306 1305.05 158.306 1306.06 Q158.306 1307.07 157.615 1307.81 Q156.948 1308.53 155.787 1308.53 Q155.218 1308.53 154.922 1308.43 Q155.589 1310.75 157.615 1312.43 Q159.665 1314.11 162.358 1314.11 Q165.742 1314.11 167.768 1310.83 Q168.978 1308.7 168.978 1303.88 Q168.978 1299.64 168.064 1297.51 Q166.656 1294.27 163.766 1294.27 Q159.665 1294.27 157.244 1297.81 Q156.948 1298.25 156.602 1298.28 Q156.108 1298.28 155.984 1298 Q155.885 1297.71 155.885 1296.94 L155.885 1281.97 Q155.885 1280.76 156.379 1280.76 Q156.577 1280.76 156.997 1280.91 Q160.184 1282.32 163.716 1282.34 Q167.348 1282.34 170.609 1280.86 Q170.856 1280.71 171.004 1280.71 Q171.498 1280.71 171.523 1281.28 Q171.523 1281.48 171.103 1282.07 Q170.707 1282.64 169.843 1283.41 Q168.978 1284.15 167.866 1284.86 Q166.755 1285.58 165.124 1286.07 Q163.519 1286.54 161.74 1286.54 Q159.616 1286.54 157.442 1285.88 L157.442 1295.73 Q160.06 1293.16 163.865 1293.16 Q167.916 1293.16 170.707 1296.42 Q173.499 1299.68 173.499 1304.23 Q173.499 1309 170.189 1312.26 Q166.903 1315.52 162.456 1315.52 Q158.405 1315.52 155.836 1312.63 Q153.291 1309.74 153.291 1306.26 Z" fill="#000000" fill-rule="nonzero" fill-opacity="1" /><path clip-path="url(#clip460)" d="M181.132 1313.59 Q180.366 1312.78 180.366 1311.72 Q180.366 1310.65 181.132 1309.89 Q181.898 1309.1 183.059 1309.1 Q184.171 1309.1 184.912 1309.84 Q185.678 1310.55 185.678 1311.74 Q185.678 1312.9 184.862 1313.67 Q184.072 1314.41 183.059 1314.41 Q181.898 1314.41 181.132 1313.59 Z" fill="#000000" fill-rule="nonzero" fill-opacity="1" /><path clip-path="url(#clip460)" d="M192.1 1298.23 Q192.1 1290.79 193.978 1286.74 Q196.596 1280.71 202.772 1280.71 Q204.082 1280.71 205.44 1281.08 Q206.824 1281.43 208.553 1282.79 Q210.307 1284.15 211.369 1286.37 Q213.395 1290.67 213.395 1298.23 Q213.395 1305.61 211.517 1309.64 Q208.775 1315.52 202.723 1315.52 Q200.45 1315.52 198.128 1314.36 Q195.831 1313.2 194.373 1310.41 Q192.1 1306.23 192.1 1298.23 M196.3 1297.61 Q196.3 1305.24 196.843 1308.28 Q197.461 1311.57 199.141 1313 Q200.845 1314.41 202.723 1314.41 Q204.749 1314.41 206.428 1312.9 Q208.133 1311.37 208.652 1308.08 Q209.22 1304.85 209.195 1297.61 Q209.195 1290.57 208.701 1287.75 Q208.034 1284.47 206.255 1283.16 Q204.502 1281.82 202.723 1281.82 Q202.056 1281.82 201.339 1282.02 Q200.648 1282.22 199.635 1282.79 Q198.622 1283.36 197.832 1284.76 Q197.066 1286.17 196.695 1288.3 Q196.3 1291.04 196.3 1297.61 Z" fill="#000000" fill-rule="nonzero" fill-opacity="1" /><path clip-path="url(#clip460)" d="M148.203 1033.18 Q148.499 1033.47 148.499 1033.89 Q148.499 1034.31 148.203 1034.61 Q147.906 1034.91 147.486 1034.91 L115.816 1034.91 Q115.397 1034.91 115.1 1034.61 Q114.804 1034.31 114.804 1033.89 Q114.804 1033.47 115.1 1033.18 Q115.397 1032.88 115.816 1032.88 L147.486 1032.88 Q147.906 1032.88 148.203 1033.18 Z" fill="#000000" fill-rule="nonzero" fill-opacity="1" /><path clip-path="url(#clip460)" d="M153.835 1046.54 Q153.835 1045.63 153.909 1045.36 Q154.008 1045.08 154.403 1044.66 L164.112 1033.84 Q169.423 1027.87 169.423 1022.65 Q169.423 1019.27 167.644 1016.85 Q165.89 1014.43 162.654 1014.43 Q160.431 1014.43 158.553 1015.79 Q156.676 1017.14 155.811 1019.57 Q155.959 1019.52 156.478 1019.52 Q157.738 1019.52 158.43 1020.31 Q159.146 1021.1 159.146 1022.16 Q159.146 1023.52 158.257 1024.19 Q157.392 1024.83 156.528 1024.83 Q156.182 1024.83 155.712 1024.75 Q155.268 1024.68 154.551 1023.99 Q153.835 1023.27 153.835 1022.01 Q153.835 1018.48 156.503 1015.66 Q159.196 1012.85 163.296 1012.85 Q167.941 1012.85 170.979 1015.61 Q174.042 1018.36 174.042 1022.65 Q174.042 1024.16 173.573 1025.54 Q173.128 1026.9 172.511 1027.96 Q171.918 1029.03 170.287 1030.73 Q168.657 1032.44 167.348 1033.65 Q166.038 1034.86 163.099 1037.43 L157.738 1042.64 L166.854 1042.64 Q171.3 1042.64 171.646 1042.24 Q172.14 1041.53 172.758 1037.75 L174.042 1037.75 L172.609 1046.54 L153.835 1046.54 Z" fill="#000000" fill-rule="nonzero" fill-opacity="1" /><path clip-path="url(#clip460)" d="M181.676 1045.73 Q180.91 1044.91 180.91 1043.85 Q180.91 1042.79 181.676 1042.02 Q182.441 1041.23 183.602 1041.23 Q184.714 1041.23 185.455 1041.97 Q186.221 1042.69 186.221 1043.87 Q186.221 1045.03 185.406 1045.8 Q184.615 1046.54 183.602 1046.54 Q182.441 1046.54 181.676 1045.73 Z" fill="#000000" fill-rule="nonzero" fill-opacity="1" /><path clip-path="url(#clip460)" d="M193.187 1038.39 Q193.187 1036.88 194.003 1036.31 Q194.818 1035.72 195.682 1035.72 Q196.843 1035.72 197.51 1036.46 Q198.202 1037.18 198.202 1038.19 Q198.202 1039.2 197.51 1039.95 Q196.843 1040.66 195.682 1040.66 Q195.114 1040.66 194.818 1040.56 Q195.485 1042.89 197.51 1044.57 Q199.561 1046.25 202.254 1046.25 Q205.638 1046.25 207.664 1042.96 Q208.874 1040.84 208.874 1036.02 Q208.874 1031.77 207.96 1029.64 Q206.552 1026.41 203.662 1026.41 Q199.561 1026.41 197.14 1029.94 Q196.843 1030.39 196.498 1030.41 Q196.004 1030.41 195.88 1030.14 Q195.781 1029.84 195.781 1029.08 L195.781 1014.11 Q195.781 1012.9 196.275 1012.9 Q196.473 1012.9 196.893 1013.04 Q200.08 1014.45 203.612 1014.48 Q207.244 1014.48 210.504 1012.99 Q210.751 1012.85 210.9 1012.85 Q211.394 1012.85 211.418 1013.41 Q211.418 1013.61 210.999 1014.2 Q210.603 1014.77 209.739 1015.54 Q208.874 1016.28 207.762 1017 Q206.651 1017.71 205.02 1018.21 Q203.415 1018.68 201.636 1018.68 Q199.511 1018.68 197.338 1018.01 L197.338 1027.87 Q199.956 1025.3 203.76 1025.3 Q207.812 1025.3 210.603 1028.56 Q213.395 1031.82 213.395 1036.36 Q213.395 1041.13 210.084 1044.39 Q206.799 1047.65 202.352 1047.65 Q198.301 1047.65 195.732 1044.76 Q193.187 1041.87 193.187 1038.39 Z" fill="#000000" fill-rule="nonzero" fill-opacity="1" /><path clip-path="url(#clip460)" d="M152.748 762.495 Q152.748 755.059 154.625 751.008 Q157.244 744.98 163.42 744.98 Q164.729 744.98 166.088 745.351 Q167.471 745.696 169.2 747.055 Q170.954 748.414 172.017 750.637 Q174.042 754.936 174.042 762.495 Q174.042 769.881 172.165 773.908 Q169.423 779.787 163.37 779.787 Q161.098 779.787 158.776 778.626 Q156.478 777.465 155.021 774.674 Q152.748 770.499 152.748 762.495 M156.948 761.877 Q156.948 769.51 157.491 772.549 Q158.109 775.835 159.788 777.267 Q161.493 778.675 163.37 778.675 Q165.396 778.675 167.076 777.169 Q168.78 775.637 169.299 772.351 Q169.867 769.115 169.843 761.877 Q169.843 754.837 169.349 752.021 Q168.682 748.735 166.903 747.426 Q165.149 746.092 163.37 746.092 Q162.703 746.092 161.987 746.289 Q161.295 746.487 160.283 747.055 Q159.27 747.623 158.479 749.031 Q157.713 750.44 157.343 752.564 Q156.948 755.306 156.948 761.877 Z" fill="#000000" fill-rule="nonzero" fill-opacity="1" /><path clip-path="url(#clip460)" d="M181.132 777.86 Q180.366 777.045 180.366 775.983 Q180.366 774.921 181.132 774.155 Q181.898 773.364 183.059 773.364 Q184.171 773.364 184.912 774.105 Q185.678 774.822 185.678 776.007 Q185.678 777.169 184.862 777.934 Q184.072 778.675 183.059 778.675 Q181.898 778.675 181.132 777.86 Z" fill="#000000" fill-rule="nonzero" fill-opacity="1" /><path clip-path="url(#clip460)" d="M192.1 762.495 Q192.1 755.059 193.978 751.008 Q196.596 744.98 202.772 744.98 Q204.082 744.98 205.44 745.351 Q206.824 745.696 208.553 747.055 Q210.307 748.414 211.369 750.637 Q213.395 754.936 213.395 762.495 Q213.395 769.881 211.517 773.908 Q208.775 779.787 202.723 779.787 Q200.45 779.787 198.128 778.626 Q195.831 777.465 194.373 774.674 Q192.1 770.499 192.1 762.495 M196.3 761.877 Q196.3 769.51 196.843 772.549 Q197.461 775.835 199.141 777.267 Q200.845 778.675 202.723 778.675 Q204.749 778.675 206.428 777.169 Q208.133 775.637 208.652 772.351 Q209.22 769.115 209.195 761.877 Q209.195 754.837 208.701 752.021 Q208.034 748.735 206.255 747.426 Q204.502 746.092 202.723 746.092 Q202.056 746.092 201.339 746.289 Q200.648 746.487 199.635 747.055 Q198.622 747.623 197.832 749.031 Q197.066 750.44 196.695 752.564 Q196.3 755.306 196.3 761.877 Z" fill="#000000" fill-rule="nonzero" fill-opacity="1" /><path clip-path="url(#clip460)" d="M153.835 510.809 Q153.835 509.895 153.909 509.623 Q154.008 509.352 154.403 508.932 L164.112 498.112 Q169.423 492.133 169.423 486.921 Q169.423 483.537 167.644 481.116 Q165.89 478.695 162.654 478.695 Q160.431 478.695 158.553 480.054 Q156.676 481.412 155.811 483.833 Q155.959 483.784 156.478 483.784 Q157.738 483.784 158.43 484.574 Q159.146 485.365 159.146 486.427 Q159.146 487.786 158.257 488.453 Q157.392 489.095 156.528 489.095 Q156.182 489.095 155.712 489.021 Q155.268 488.947 154.551 488.255 Q153.835 487.539 153.835 486.279 Q153.835 482.746 156.503 479.93 Q159.196 477.114 163.296 477.114 Q167.941 477.114 170.979 479.881 Q174.042 482.623 174.042 486.921 Q174.042 488.428 173.573 489.811 Q173.128 491.17 172.511 492.232 Q171.918 493.295 170.287 494.999 Q168.657 496.704 167.348 497.914 Q166.038 499.125 163.099 501.694 L157.738 506.906 L166.854 506.906 Q171.3 506.906 171.646 506.511 Q172.14 505.794 172.758 502.015 L174.042 502.015 L172.609 510.809 L153.835 510.809 Z" fill="#000000" fill-rule="nonzero" fill-opacity="1" /><path clip-path="url(#clip460)" d="M181.676 509.994 Q180.91 509.179 180.91 508.117 Q180.91 507.054 181.676 506.288 Q182.441 505.498 183.602 505.498 Q184.714 505.498 185.455 506.239 Q186.221 506.955 186.221 508.141 Q186.221 509.302 185.406 510.068 Q184.615 510.809 183.602 510.809 Q182.441 510.809 181.676 509.994 Z" fill="#000000" fill-rule="nonzero" fill-opacity="1" /><path clip-path="url(#clip460)" d="M193.187 502.657 Q193.187 501.15 194.003 500.582 Q194.818 499.989 195.682 499.989 Q196.843 499.989 197.51 500.73 Q198.202 501.447 198.202 502.459 Q198.202 503.472 197.51 504.213 Q196.843 504.93 195.682 504.93 Q195.114 504.93 194.818 504.831 Q195.485 507.153 197.51 508.833 Q199.561 510.513 202.254 510.513 Q205.638 510.513 207.664 507.227 Q208.874 505.103 208.874 500.286 Q208.874 496.037 207.96 493.912 Q206.552 490.676 203.662 490.676 Q199.561 490.676 197.14 494.209 Q196.843 494.653 196.498 494.678 Q196.004 494.678 195.88 494.406 Q195.781 494.11 195.781 493.344 L195.781 478.374 Q195.781 477.163 196.275 477.163 Q196.473 477.163 196.893 477.311 Q200.08 478.72 203.612 478.744 Q207.244 478.744 210.504 477.262 Q210.751 477.114 210.9 477.114 Q211.394 477.114 211.418 477.682 Q211.418 477.88 210.999 478.473 Q210.603 479.041 209.739 479.806 Q208.874 480.548 207.762 481.264 Q206.651 481.98 205.02 482.474 Q203.415 482.944 201.636 482.944 Q199.511 482.944 197.338 482.277 L197.338 492.133 Q199.956 489.564 203.76 489.564 Q207.812 489.564 210.603 492.825 Q213.395 496.086 213.395 500.631 Q213.395 505.399 210.084 508.66 Q206.799 511.921 202.352 511.921 Q198.301 511.921 195.732 509.031 Q193.187 506.14 193.187 502.657 Z" fill="#000000" fill-rule="nonzero" fill-opacity="1" /><path clip-path="url(#clip460)" d="M153.291 234.791 Q153.291 233.284 154.107 232.716 Q154.922 232.123 155.787 232.123 Q156.948 232.123 157.615 232.864 Q158.306 233.58 158.306 234.593 Q158.306 235.606 157.615 236.347 Q156.948 237.064 155.787 237.064 Q155.218 237.064 154.922 236.965 Q155.589 239.287 157.615 240.967 Q159.665 242.647 162.358 242.647 Q165.742 242.647 167.768 239.361 Q168.978 237.237 168.978 232.419 Q168.978 228.17 168.064 226.046 Q166.656 222.81 163.766 222.81 Q159.665 222.81 157.244 226.342 Q156.948 226.787 156.602 226.812 Q156.108 226.812 155.984 226.54 Q155.885 226.244 155.885 225.478 L155.885 210.507 Q155.885 209.297 156.379 209.297 Q156.577 209.297 156.997 209.445 Q160.184 210.853 163.716 210.878 Q167.348 210.878 170.609 209.396 Q170.856 209.248 171.004 209.248 Q171.498 209.248 171.523 209.816 Q171.523 210.013 171.103 210.606 Q170.707 211.174 169.843 211.94 Q168.978 212.681 167.866 213.398 Q166.755 214.114 165.124 214.608 Q163.519 215.078 161.74 215.078 Q159.616 215.078 157.442 214.411 L157.442 224.267 Q160.06 221.698 163.865 221.698 Q167.916 221.698 170.707 224.959 Q173.499 228.22 173.499 232.765 Q173.499 237.533 170.189 240.794 Q166.903 244.055 162.456 244.055 Q158.405 244.055 155.836 241.164 Q153.291 238.274 153.291 234.791 Z" fill="#000000" fill-rule="nonzero" fill-opacity="1" /><path clip-path="url(#clip460)" d="M181.132 242.128 Q180.366 241.313 180.366 240.25 Q180.366 239.188 181.132 238.422 Q181.898 237.632 183.059 237.632 Q184.171 237.632 184.912 238.373 Q185.678 239.089 185.678 240.275 Q185.678 241.436 184.862 242.202 Q184.072 242.943 183.059 242.943 Q181.898 242.943 181.132 242.128 Z" fill="#000000" fill-rule="nonzero" fill-opacity="1" /><path clip-path="url(#clip460)" d="M192.1 226.762 Q192.1 219.327 193.978 215.275 Q196.596 209.248 202.772 209.248 Q204.082 209.248 205.44 209.618 Q206.824 209.964 208.553 211.323 Q210.307 212.681 211.369 214.905 Q213.395 219.203 213.395 226.762 Q213.395 234.149 211.517 238.175 Q208.775 244.055 202.723 244.055 Q200.45 244.055 198.128 242.894 Q195.831 241.733 194.373 238.941 Q192.1 234.766 192.1 226.762 M196.3 226.145 Q196.3 233.778 196.843 236.817 Q197.461 240.102 199.141 241.535 Q200.845 242.943 202.723 242.943 Q204.749 242.943 206.428 241.436 Q208.133 239.904 208.652 236.619 Q209.22 233.383 209.195 226.145 Q209.195 219.104 208.701 216.288 Q208.034 213.003 206.255 211.693 Q204.502 210.359 202.723 210.359 Q202.056 210.359 201.339 210.557 Q200.648 210.755 199.635 211.323 Q198.622 211.891 197.832 213.299 Q197.066 214.707 196.695 216.832 Q196.3 219.574 196.3 226.145 Z" fill="#000000" fill-rule="nonzero" fill-opacity="1" /><path clip-path="url(#clip460)" d="M43.9909 772.59 Q45.7944 772.59 47.8234 773.137 L77.6782 780.641 Q80.3191 781.318 80.3191 783.347 Q80.3191 784.184 79.8038 784.699 Q79.3207 785.182 78.5478 785.182 Q78.2901 785.182 77.485 784.989 L47.147 777.485 Q44.3773 776.809 42.9925 776.809 Q38.3871 776.809 38.3871 780.384 Q38.3871 783.54 40.7059 786.696 Q41.8653 788.145 43.9587 789.562 Q46.0198 790.947 46.7606 791.205 Q48.4353 791.495 49.7235 791.913 Q50.6253 792.107 54.1357 793.04 L60.0938 794.49 Q64.5382 795.52 64.9569 795.746 Q65.8587 796.068 66.3417 796.776 Q66.8248 797.485 66.8248 798.193 Q66.8248 798.999 66.3417 799.546 Q65.8587 800.094 65.0213 800.094 Q64.8925 800.094 64.4094 799.997 Q63.9263 799.9 63.25 799.739 Q62.5737 799.578 62.1872 799.514 L46.9538 795.681 Q44.1841 794.973 43.3146 794.812 Q42.4128 794.619 41.4144 794.619 Q39.6753 794.619 39.0312 795.166 Q38.3871 795.714 38.3871 796.68 Q38.3871 798.354 40.3838 799.449 Q42.3806 800.544 46.2453 801.478 Q47.3081 801.768 47.5335 801.962 Q47.759 802.123 47.759 802.606 Q47.7268 803.411 47.0826 803.411 Q46.9216 803.411 45.891 803.153 Q44.8282 802.895 43.2823 802.412 Q41.7043 801.897 40.7059 801.35 Q40.0296 801.028 39.5787 800.738 Q39.1278 800.448 38.4193 799.868 Q37.7107 799.288 37.3243 798.419 Q36.9378 797.549 36.9378 796.487 Q36.9378 794.135 38.4515 792.396 Q39.9651 790.625 42.6704 790.4 Q41.6721 789.723 40.7703 788.854 Q39.8685 787.952 38.9668 786.696 Q38.0328 785.44 37.4853 783.733 Q36.9378 782.026 36.9378 780.19 Q36.9378 776.519 38.8379 774.554 Q40.7059 772.59 43.9909 772.59 Z" fill="#000000" fill-rule="nonzero" fill-opacity="1" /><path clip-path="url(#clip460)" d="M82.5735 753.539 L16.6159 753.539 L16.6159 743.588 L18.1296 743.588 L18.1296 749.127 L81.0598 749.127 L81.0598 743.588 L82.5735 743.588 L82.5735 753.539 Z" fill="#000000" fill-rule="nonzero" fill-opacity="1" /><path clip-path="url(#clip460)" d="M56.6478 688.211 Q56.9054 688.211 57.9038 688.501 Q58.9022 688.791 60.4481 689.5 Q61.994 690.176 63.411 691.142 Q64.7959 692.076 65.8264 693.622 Q66.8248 695.136 66.8248 696.875 Q66.8248 699.194 65.2789 700.74 Q63.7331 702.285 61.4142 702.285 Q60.1582 702.285 57.775 701.416 Q46.8894 697.326 42.9925 697.326 Q38.3871 697.326 38.3871 700.901 Q38.3871 702.93 39.2244 704.765 Q40.0618 706.601 41.2212 707.793 Q42.3806 708.984 43.701 709.918 Q45.0215 710.852 45.891 711.271 Q46.7606 711.657 47.147 711.754 L63.0567 715.715 Q64.4094 716.037 65.0535 716.263 Q65.6976 716.488 66.2451 717.1 Q66.8248 717.712 66.8248 718.678 Q66.8248 719.483 66.3417 720.063 Q65.8587 720.611 65.0213 720.611 Q64.8925 720.611 64.2162 720.45 Q63.5398 720.288 62.6059 720.063 Q61.6719 719.838 61.1244 719.741 Q56.7444 718.582 56.1325 718.421 L48.4675 716.585 Q44.6672 715.586 42.9925 715.586 Q38.3871 715.586 38.3871 719.161 Q38.3871 720.933 39.0634 722.607 Q39.7075 724.25 40.6093 725.377 Q41.511 726.504 42.7671 727.535 Q43.9909 728.533 44.8282 729.048 Q45.6334 729.532 46.4385 729.918 L49.7235 730.755 Q50.6253 730.949 54.1357 731.883 L60.0938 733.332 Q64.5382 734.362 64.9569 734.588 Q65.8587 734.91 66.3417 735.618 Q66.8248 736.327 66.8248 737.036 Q66.8248 737.841 66.3417 738.388 Q65.8587 738.936 65.0213 738.936 Q64.8925 738.936 64.4094 738.839 Q63.9263 738.742 63.25 738.581 Q62.5737 738.42 62.1872 738.356 L46.9538 734.523 Q44.1841 733.815 43.3146 733.654 Q42.4128 733.461 41.4144 733.461 Q38.3871 733.461 38.3871 735.522 Q38.3871 737.197 40.3838 738.292 Q42.3806 739.387 46.2453 740.321 Q47.3081 740.61 47.5335 740.804 Q47.759 740.965 47.759 741.448 Q47.7268 742.253 47.0826 742.253 Q46.9216 742.253 45.891 741.995 Q44.8604 741.738 43.3146 741.255 Q41.7365 740.739 40.7059 740.192 Q40.0296 739.87 39.5787 739.58 Q39.1278 739.29 38.4193 738.71 Q37.7107 738.131 37.3243 737.261 Q36.9378 736.391 36.9378 735.329 Q36.9378 732.978 38.4515 731.238 Q39.9651 729.467 42.6704 729.242 Q36.9378 724.958 36.9378 718.968 Q36.9378 715.586 38.6447 713.557 Q40.2872 711.657 43.3146 711.432 Q36.9378 706.987 36.9378 700.675 Q36.9378 697.036 38.8379 695.071 Q40.7059 693.107 43.9909 693.107 Q45.6978 693.107 48.9506 693.976 Q52.1712 694.846 53.7815 695.426 Q55.3917 696.005 58.4835 697.132 Q61.4465 698.324 63.1856 698.324 Q64.3128 698.324 64.8281 697.938 Q65.3434 697.551 65.3434 696.714 Q65.3434 695.426 64.6026 694.298 Q63.8297 693.171 62.5737 692.366 Q61.2854 691.529 59.9972 690.981 Q58.6767 690.434 57.1953 690.015 Q56.3901 689.757 56.1969 689.629 Q56.0037 689.467 56.0037 689.017 Q56.0037 688.211 56.6478 688.211 Z" fill="#000000" fill-rule="nonzero" fill-opacity="1" /><path clip-path="url(#clip460)" d="M81.0598 685.163 L81.0598 679.624 L18.1296 679.624 L18.1296 685.163 L16.6159 685.163 L16.6159 675.212 L82.5735 675.212 L82.5735 685.163 L81.0598 685.163 Z" fill="#000000" fill-rule="nonzero" fill-opacity="1" /><polyline clip-path="url(#clip462)" style="stroke:#ba3d3a; stroke-linecap:round; stroke-linejoin:round; stroke-width:8; stroke-opacity:1; fill:none" points="308.924,763.209 311.695,750.926 314.467,739.51 317.238,729.102 320.009,719.765 322.781,711.642 325.552,704.748 328.323,699.122 331.095,694.518 333.866,691.136 336.638,688.746 339.409,687.593 342.18,687.496 344.952,688.477 347.723,690.607 350.494,693.656 353.266,697.406 356.037,701.457 358.809,705.748 361.58,709.991 364.351,713.951 367.123,717.445 369.894,720.356 372.665,722.326 375.437,723.255 378.208,722.988 380.98,721.606 383.751,719.065 386.522,715.602 389.294,711.401 392.065,706.649 394.836,701.428 397.608,695.878 400.379,690.113 403.151,684.412 405.922,679.011 408.693,674.232 411.465,670.235 414.236,667.189 417.007,665.174 419.779,664.309 422.55,664.679 425.321,666.389 428.093,669.559 430.864,674.313 433.636,680.643 436.407,688.478 439.178,697.625 441.95,707.832 444.721,718.746 447.492,730.115 450.264,741.773 453.035,753.479 455.807,765.021 458.578,776.232 461.349,786.979 464.121,797.07 466.892,806.311 469.663,814.696 472.435,822.152 475.206,828.682 477.978,834.297 480.749,838.977 483.52,842.681 486.292,845.353 489.063,846.948 491.834,847.573 494.606,847.394 497.377,846.546 500.149,845.241 502.92,843.61 505.691,841.923 508.463,840.277 511.234,838.8 514.005,837.52 516.777,836.469 519.548,835.535 522.32,834.569 525.091,833.421 527.862,831.911 530.634,829.927 533.405,827.397 536.176,824.351 538.948,820.907 541.719,817.169 544.491,813.318 547.262,809.449 550.033,805.614 552.805,801.815 555.576,798.011 558.347,794.159 561.119,790.215 563.89,786.244 566.662,782.354 569.433,778.671 572.204,775.265 574.976,772.248 577.747,769.621 580.518,767.415 583.29,765.683 586.061,764.556 588.832,764.192 591.604,764.735 594.375,766.244 597.147,768.711 599.918,772.048 602.689,776.195 605.461,781.061 608.232,786.536 611.003,792.572 613.775,799.057 616.546,805.779 619.318,812.568 622.089,819.006 624.86,824.696 627.632,829.298 630.403,832.343 633.174,833.535 635.946,832.554 638.717,829.286 641.489,823.625 644.26,815.581 647.031,805.126 649.803,792.267 652.574,777.104 655.345,759.834 658.117,740.565 660.888,719.555 663.66,696.885 666.431,672.807 669.202,647.746 671.974,622.178 674.745,596.632 677.516,571.546 680.288,547.334 683.059,524.327 685.831,502.832 688.602,483.134 691.373,465.603 694.145,450.715 696.916,439.078 699.687,431.322 702.459,428.029 705.23,429.668 708.002,436.408 710.773,448.153 713.544,464.547 716.316,485.138 719.087,509.438 721.858,537.066 724.63,567.93 727.401,602.041 730.173,639.483 732.944,680.053 735.715,723.296 738.487,768.377 741.258,814.203 744.029,859.644 746.801,903.631 749.572,945.399 752.343,984.421 755.115,1020.42 757.886,1053.25 760.658,1082.74 763.429,1108.8 766.2,1131.15 768.972,1149.53 771.743,1163.58 774.514,1173.1 777.286,1178.02 780.057,1178.35 782.829,1174.31 785.6,1166.21 788.371,1154.25 791.143,1138.79 793.914,1120.04 796.685,1098.2 799.457,1073.4 802.228,1046 805,1016.2 807.771,984.412 810.542,950.924 813.314,916.27 816.085,880.738 818.856,844.727 821.628,808.66 824.399,772.777 827.171,737.366 829.942,702.72 832.713,669.211 835.485,637.288 838.256,607.114 841.027,579.049 843.799,553.185 846.57,529.681 849.342,508.549 852.113,489.744 854.884,473.26 857.656,459.098 860.427,447.435 863.198,438.591 865.97,432.91 868.741,430.761 871.513,432.29 874.284,437.603 877.055,446.6 879.827,459.195 882.598,475.174 885.369,494.388 888.141,516.657 890.912,541.83 893.684,569.601 896.455,599.593 899.226,631.231 901.998,663.933 904.769,696.869 907.54,729.288 910.312,760.439 913.083,789.704 915.854,816.556 918.626,840.64 921.397,861.807 924.169,879.941 926.94,894.841 929.711,906.458 932.483,914.613 935.254,919.255 938.025,920.333 940.797,918.107 943.568,912.9 946.34,904.996 949.111,894.941 951.882,883.088 954.654,869.889 957.425,855.525 960.196,840.46 962.968,824.937 965.739,809.172 968.511,793.535 971.282,778.122 974.053,763.17 976.825,748.737 979.596,735.076 982.367,722.327 985.139,710.752 987.91,700.522 990.682,691.705 993.453,684.304 996.224,678.348 998.996,673.968 1001.77,671.422 1004.54,670.967 1007.31,672.617 1010.08,676.121 1012.85,681.049 1015.62,687.062 1018.4,694.047 1021.17,702.191 1023.94,711.952 1026.71,723.578 1029.48,737.082 1032.25,752.125 1035.02,768.35 1037.79,785.52 1040.57,803.884 1043.34,824.186 1046.11,847.4 1048.88,874.115 1051.65,904.216 1054.42,936.447 1057.19,969.174 1059.97,1000.83 1062.74,1030.57 1065.51,1058.42 1068.28,1085.04 1071.05,1110.82 1073.82,1135.4 1076.59,1157.32 1079.37,1174.83 1082.14,1185.94 1084.91,1189.43 1087.68,1184.39 1090.45,1170.52 1093.22,1148.53 1095.99,1120.46 1098.77,1089.28 1101.54,1056.67 1104.31,1023.77 1107.08,987.629 1109.85,937.208 1112.62,868.983 1115.39,802.59 1118.16,738.005 1120.94,678.036 1123.71,622.538 1126.48,563.712 1129.25,508.055 1132.02,455.014 1134.79,405.218 1137.56,356.87 1140.34,308.549 1143.11,259.301 1145.88,209.616 1148.65,162.637 1151.42,123.578 1154.19,97.1038 1156.96,86.1857 1159.74,90.014 1162.51,105.339 1165.28,127.731 1168.05,153.767 1170.82,181.53 1173.59,211.386 1176.36,243.551 1179.13,279.867 1181.91,321.566 1184.68,367.758 1187.45,417.647 1190.22,470.339 1192.99,524.241 1195.76,578.301 1198.53,631.69 1201.31,683.808 1204.08,734.418 1206.85,783.356 1209.62,830.553 1212.39,875.811 1215.16,918.953 1217.93,959.693 1220.71,997.908 1223.48,1033.43 1226.25,1066.24 1229.02,1096.32 1231.79,1123.72 1234.56,1148.26 1237.33,1170.01 1240.11,1188.83 1242.88,1204.6 1245.65,1217.05 1248.42,1225.98 1251.19,1231.28 1253.96,1232.68 1256.73,1230.12 1259.5,1223.67 1262.28,1213.56 1265.05,1200.05 1267.82,1183.48 1270.59,1164.41 1273.36,1143.13 1276.13,1119.93 1278.9,1095.2 1281.68,1069.09 1284.45,1041.86 1287.22,1013.8 1289.99,985.284 1292.76,956.612 1295.53,928.002 1298.3,899.599 1301.08,871.436 1303.85,843.62 1306.62,816.367 1309.39,789.846 1312.16,764.299 1314.93,739.866 1317.7,716.615 1320.47,694.489 1323.25,673.434 1326.02,653.424 1328.79,634.555 1331.56,616.966 1334.33,600.861 1337.1,586.427 1339.87,573.847 1342.65,563.232 1345.42,554.512 1348.19,547.548 1350.96,542.134 1353.73,538.118 1356.5,535.423 1359.27,533.936 1362.05,533.664 1364.82,534.567 1367.59,536.642 1370.36,539.847 1373.13,544.02 1375.9,549.116 1378.67,555.041 1381.45,561.782 1384.22,569.316 1386.99,577.61 1389.76,586.7 1392.53,596.429 1395.3,606.661 1398.07,617.323 1400.84,628.222 1403.62,639.191 1406.39,650.003 1409.16,660.37 1411.93,670.064 1414.7,678.77 1417.47,686.603 1420.24,693.514 1423.02,699.688 1425.79,705.275 1428.56,710.448 1431.33,715.407 1434.1,720.096 1436.87,724.655 1439.64,729.059 1442.42,733.373 1445.19,737.789 1447.96,742.262 1450.73,746.892 1453.5,751.556 1456.27,756.228 1459.04,760.838 1461.81,765.376 1464.59,769.917 1467.36,774.604 1470.13,779.559 1472.9,784.936 1475.67,790.77 1478.44,797.123 1481.21,803.959 1483.99,811.194 1486.76,818.71 1489.53,826.391 1492.3,834.142 1495.07,841.882 1497.84,849.526 1500.61,857.074 1503.39,864.5 1506.16,871.81 1508.93,878.897 1511.7,885.638 1514.47,891.912 1517.24,897.609 1520.01,902.685 1522.79,907.101 1525.56,910.915 1528.33,914.098 1531.1,916.577 1533.87,918.194 1536.64,918.861 1539.41,918.568 1542.18,917.434 1544.96,915.635 1547.73,913.292 1550.5,910.462 1553.27,907.161 1556.04,903.4 1558.81,899.205 1561.58,894.244 1564.36,888.648 1567.13,882.387 1569.9,875.356 1572.67,867.874 1575.44,859.634 1578.21,850.554 1580.98,840.964 1583.76,831.037 1586.53,820.761 1589.3,810.482 1592.07,799.876 1594.84,788.835 1597.61,777.534 1600.38,765.52 1603.15,752.528 1605.93,738.608 1608.7,723.906 1611.47,708.397 1614.24,692.177 1617.01,675.482 1619.78,658.706 1622.55,642.069 1625.33,625.862 1628.1,610.212 1630.87,595.229 1633.64,580.991 1636.41,567.43 1639.18,554.568 1641.95,542.46 1644.73,531.247 1647.5,521.099 1650.27,512.206 1653.04,504.841 1655.81,499.186 1658.58,495.411 1661.35,493.722 1664.13,494.23 1666.9,497.03 1669.67,502.134 1672.44,509.493 1675.21,519.087 1677.98,530.695 1680.75,544.215 1683.52,559.437 1686.3,576.272 1689.07,594.611 1691.84,614.333 1694.61,635.246 1697.38,657.172 1700.15,679.812 1702.92,702.982 1705.7,726.321 1708.47,749.709 1711.24,772.925 1714.01,795.909 1716.78,818.536 1719.55,840.732 1722.32,862.469 1725.1,883.638 1727.87,904.15 1730.64,923.87 1733.41,942.808 1736.18,961.025 1738.95,978.406 1741.72,995.063 1744.49,1010.94 1747.27,1026.14 1750.04,1040.42 1752.81,1053.72 1755.58,1065.86 1758.35,1076.83 1761.12,1086.52 1763.89,1094.74 1766.67,1101.52 1769.44,1106.56 1772.21,1109.7 1774.98,1110.72 1777.75,1109.51 1780.52,1105.93 1783.29,1099.85 1786.07,1091.16 1788.84,1079.79 1791.61,1065.5 1794.38,1048.27 1797.15,1028.03 1799.92,1004.81 1802.69,978.673 1805.47,949.77 1808.24,918.298 1811.01,884.497 1813.78,848.661 1816.55,811.193 1819.32,772.454 1822.09,732.91 1824.86,692.982 1827.64,653.143 1830.41,613.823 1833.18,575.349 1835.95,538.001 1838.72,502.035 1841.49,467.656 1844.26,435.168 1847.04,404.78 1849.81,376.81 1852.58,351.526 1855.35,329.32 1858.12,310.662 1860.89,295.763 1863.66,284.961 1866.44,278.516 1869.21,276.479 1871.98,278.728 1874.75,284.925 1877.52,294.938 1880.29,308.308 1883.06,324.72 1885.84,343.897 1888.61,365.578 1891.38,389.704 1894.15,416.119 1896.92,444.627 1899.69,475.097 1902.46,507.394 1905.23,541.295 1908.01,576.588 1910.78,612.927 1913.55,650.15 1916.32,687.909 1919.09,725.969 1921.86,764.002 1924.63,801.823 1927.41,839.277 1930.18,876.122 1932.95,912.132 1935.72,947.037 1938.49,980.435 1941.26,1012.11 1944.03,1041.85 1946.81,1069.55 1949.58,1095.02 1952.35,1118.29 1955.12,1139.29 1957.89,1157.92 1960.66,1173.98 1963.43,1187.38 1966.2,1198.08 1968.98,1206.04 1971.75,1211.21 1974.52,1213.56 1977.29,1213.03 1980.06,1209.61 1982.83,1203.18 1985.6,1193.78 1988.38,1181.36 1991.15,1166 1993.92,1147.81 1996.69,1126.95 1999.46,1103.65 2002.23,1078.18 2005,1050.8 2007.78,1021.76 2010.55,991.316 2013.32,959.717 2016.09,927.09 2018.86,893.609 2021.63,859.422 2024.4,824.704 2027.18,789.588 2029.95,754.275 2032.72,719.006 2035.49,684.013 2038.26,649.566 2041.03,615.992 2043.8,583.675 2046.57,553.047 2049.35,524.394 2052.12,497.905 2054.89,473.444 2057.66,451.028 2060.43,430.586 2063.2,412.245 2065.97,396.154 2068.75,382.315 2071.52,370.839 2074.29,361.804 2077.06,355.536 2079.83,352.43 2082.6,352.766 2085.37,356.565 2088.15,363.657 2090.92,373.747 2093.69,386.663 2096.46,402.333 2099.23,420.752 2102,441.842 2104.77,465.522 2107.54,491.491 2110.32,519.394 2113.09,548.806 2115.86,579.371 2118.63,610.847 2121.4,643.123 2124.17,676.088 2126.94,709.499 2129.72,742.85 2132.49,775.552 2135.26,807.003 2138.03,836.776 2140.8,864.757 2143.57,891.005 2146.34,915.508 2149.12,937.982 2151.89,957.87 2154.66,974.644 2157.43,987.879 2160.2,997.482 2162.97,1003.81 2165.74,1007.45 2168.52,1008.92 2171.29,1008.44 2174.06,1006.02 2176.83,1001.6 2179.6,994.98 2182.37,986.212 2185.14,975.541 2187.91,963.276 2190.69,949.818 2193.46,935.461 2196.23,920.558 2199,905.434 2201.77,890.423 2204.54,876.082 2207.31,862.766 2210.09,850.723 2212.86,840.041 2215.63,830.565 2218.4,822.107 2221.17,814.397 2223.94,807.228 2226.71,800.666 2229.49,794.857 2232.26,789.956 2235.03,786.107 2237.8,783.316 2240.57,781.578 2243.34,780.717 2246.11,780.553 2248.88,781.081 2251.66,782.177 2254.43,783.692 2257.2,785.325 2259.97,786.88 2262.74,788.2 2265.51,789.084 2268.28,789.543 2271.06,789.582 2273.83,789.198 2276.6,788.249 2279.37,786.569 2282.14,784.029 2284.91,780.558 2287.68,776.145 2290.46,770.835 2293.23,764.623 "/>
<polyline clip-path="url(#clip462)" style="stroke:#4a7945; stroke-linecap:round; stroke-linejoin:round; stroke-width:8; stroke-opacity:1; fill:none" stroke-dasharray="4, 8" points="308.924,771.44 311.695,772.137 314.467,772.77 317.238,773.314 320.009,773.744 322.781,774.033 325.552,774.153 328.323,774.073 331.095,773.765 333.866,773.197 336.638,772.341 339.409,771.17 342.18,769.659 344.952,767.786 347.723,765.532 350.494,762.885 353.266,759.836 356.037,756.385 358.809,752.537 361.58,748.305 364.351,743.711 367.123,738.783 369.894,733.561 372.665,728.089 375.437,722.424 378.208,716.628 380.98,710.771 383.751,704.928 386.522,699.183 389.294,693.62 392.065,688.329 394.836,683.399 397.608,678.92 400.379,674.979 403.151,671.66 405.922,669.041 408.693,667.191 411.465,666.173 414.236,666.036 417.007,666.819 419.779,668.547 422.55,671.231 425.321,674.868 428.093,679.44 430.864,684.912 433.636,691.236 436.407,698.349 439.178,706.176 441.95,714.629 444.721,723.611 447.492,733.013 450.264,742.722 453.035,752.621 455.807,762.588 458.578,772.503 461.349,782.246 464.121,791.703 466.892,800.765 469.663,809.332 472.435,817.312 475.206,824.626 477.978,831.207 480.749,837.001 483.52,841.968 486.292,846.08 489.063,849.326 491.834,851.706 494.606,853.234 497.377,853.935 500.149,853.844 502.92,853.006 505.691,851.473 508.463,849.304 511.234,846.56 514.005,843.307 516.777,839.608 519.548,835.53 522.32,831.132 525.091,826.475 527.862,821.61 530.634,816.585 533.405,811.439 536.176,806.207 538.948,800.914 541.719,795.578 544.491,790.209 547.262,784.813 550.033,779.387 552.805,773.923 555.576,768.41 558.347,762.833 561.119,757.175 563.89,751.418 566.662,745.545 569.433,739.543 572.204,733.399 574.976,727.107 577.747,720.666 580.518,714.082 583.29,707.371 586.061,700.554 588.832,693.663 591.604,686.741 594.375,679.839 597.147,673.019 599.918,666.352 602.689,659.918 605.461,653.805 608.232,648.11 611.003,642.935 613.775,638.388 616.546,634.58 619.318,631.623 622.089,629.63 624.86,628.712 627.632,628.976 630.403,630.523 633.174,633.445 635.946,637.825 638.717,643.734 641.489,651.226 644.26,660.342 647.031,671.105 649.803,683.516 652.574,697.558 655.345,713.191 658.117,730.354 660.888,748.962 663.66,768.907 666.431,790.059 669.202,812.265 671.974,835.353 674.745,859.128 677.516,883.38 680.288,907.88 683.059,932.388 685.831,956.65 688.602,980.407 691.373,1003.39 694.145,1025.34 696.916,1045.98 699.687,1065.06 702.459,1082.32 705.23,1097.54 708.002,1110.47 710.773,1120.93 713.544,1128.74 716.316,1133.73 719.087,1135.79 721.858,1134.82 724.63,1130.76 727.401,1123.59 730.173,1113.3 732.944,1099.96 735.715,1083.62 738.487,1064.42 741.258,1042.49 744.029,1018.03 746.801,991.239 749.572,962.365 752.343,931.673 755.115,899.451 757.886,866.007 760.658,831.663 763.429,796.751 766.2,761.609 768.972,726.579 771.743,691.999 774.514,658.2 777.286,625.503 780.057,594.213 782.829,564.617 785.6,536.981 788.371,511.543 791.143,488.515 793.914,468.079 796.685,450.382 799.457,435.542 802.228,423.639 805,414.721 807.771,408.8 810.542,405.855 813.314,405.833 816.085,408.648 818.856,414.189 821.628,422.315 824.399,432.863 827.171,445.647 829.942,460.465 832.713,477.101 835.485,495.326 838.256,514.905 841.027,535.597 843.799,557.163 846.57,579.363 849.342,601.964 852.113,624.741 854.884,647.479 857.656,669.977 860.427,692.048 863.198,713.522 865.97,734.246 868.741,754.086 871.513,772.929 874.284,790.677 877.055,807.256 879.827,822.608 882.598,836.692 885.369,849.488 888.141,860.988 890.912,871.199 893.684,880.142 896.455,887.848 899.226,894.356 901.998,899.713 904.769,903.971 907.54,907.186 910.312,909.414 913.083,910.712 915.854,911.134 918.626,910.733 921.397,909.554 924.169,907.64 926.94,905.026 929.711,901.739 932.483,897.8 935.254,893.225 938.025,888.018 940.797,882.18 943.568,875.704 946.34,868.579 949.111,860.789 951.882,852.315 954.654,843.136 957.425,833.233 960.196,822.584 962.968,811.175 965.739,798.993 968.511,786.032 971.282,772.297 974.053,757.798 976.825,742.558 979.596,726.615 982.367,710.015 985.139,692.822 987.91,675.116 990.682,656.988 993.453,638.55 996.224,619.926 998.996,601.256 1001.77,582.697 1004.54,564.417 1007.31,546.597 1010.08,529.429 1012.85,513.114 1015.62,497.86 1018.4,483.879 1021.17,471.385 1023.94,460.591 1026.71,451.706 1029.48,444.933 1032.25,440.464 1035.02,438.478 1037.79,439.137 1040.57,442.586 1043.34,448.944 1046.11,458.309 1048.88,470.748 1051.65,486.301 1054.42,504.973 1057.19,526.739 1059.97,551.536 1062.74,579.267 1065.51,609.799 1068.28,642.962 1071.05,678.554 1073.82,716.334 1076.59,756.032 1079.37,797.346 1082.14,839.945 1084.91,883.476 1087.68,927.56 1090.45,971.804 1093.22,1015.8 1095.99,1059.12 1098.77,1101.36 1101.54,1142.08 1104.31,1180.88 1107.08,1217.34 1109.85,1251.06 1112.62,1281.69 1115.39,1308.87 1118.16,1332.28 1120.94,1351.63 1123.71,1366.69 1126.48,1377.25 1129.25,1383.14 1132.02,1384.24 1134.79,1380.49 1137.56,1371.87 1140.34,1358.41 1143.11,1340.2 1145.88,1317.36 1148.65,1290.07 1151.42,1258.57 1154.19,1223.11 1156.96,1184.03 1159.74,1141.65 1162.51,1096.38 1165.28,1048.61 1168.05,998.798 1170.82,947.389 1173.59,894.857 1176.36,841.683 1179.13,788.35 1181.91,735.341 1184.68,683.127 1187.45,632.171 1190.22,582.914 1192.99,535.776 1195.76,491.149 1198.53,449.394 1201.31,410.836 1204.08,375.764 1206.85,344.425 1209.62,317.022 1212.39,293.715 1215.16,274.62 1217.93,259.806 1220.71,249.297 1223.48,243.075 1226.25,241.076 1229.02,243.198 1231.79,249.297 1234.56,259.196 1237.33,272.684 1240.11,289.521 1242.88,309.44 1245.65,332.155 1248.42,357.359 1251.19,384.733 1253.96,413.949 1256.73,444.672 1259.5,476.565 1262.28,509.297 1265.05,542.538 1267.82,575.971 1270.59,609.291 1273.36,642.207 1276.13,674.447 1278.9,705.759 1281.68,735.913 1284.45,764.703 1287.22,791.946 1289.99,817.486 1292.76,841.19 1295.53,862.953 1298.3,882.695 1301.08,900.359 1303.85,915.913 1306.62,929.347 1309.39,940.672 1312.16,949.919 1314.93,957.137 1317.7,962.39 1320.47,965.759 1323.25,967.333 1326.02,967.214 1328.79,965.513 1331.56,962.344 1334.33,957.829 1337.1,952.09 1339.87,945.253 1342.65,937.44 1345.42,928.774 1348.19,919.375 1350.96,909.357 1353.73,898.829 1356.5,887.897 1359.27,876.658 1362.05,865.203 1364.82,853.617 1367.59,841.976 1370.36,830.351 1373.13,818.805 1375.9,807.395 1378.67,796.17 1381.45,785.176 1384.22,774.451 1386.99,764.028 1389.76,753.939 1392.53,744.209 1395.3,734.861 1398.07,725.916 1400.84,717.392 1403.62,709.306 1406.39,701.674 1409.16,694.511 1411.93,687.833 1414.7,681.656 1417.47,675.994 1420.24,670.864 1423.02,666.282 1425.79,662.266 1428.56,658.833 1431.33,656.002 1434.1,653.79 1436.87,652.216 1439.64,651.298 1442.42,651.052 1445.19,651.495 1447.96,652.641 1450.73,654.503 1453.5,657.09 1456.27,660.41 1459.04,664.465 1461.81,669.257 1464.59,674.781 1467.36,681.028 1470.13,687.984 1472.9,695.63 1475.67,703.941 1478.44,712.887 1481.21,722.43 1483.99,732.529 1486.76,743.134 1489.53,754.191 1492.3,765.638 1495.07,777.411 1497.84,789.436 1500.61,801.637 1503.39,813.933 1506.16,826.236 1508.93,838.458 1511.7,850.505 1514.47,862.283 1517.24,873.694 1520.01,884.641 1522.79,895.026 1525.56,904.751 1528.33,913.721 1531.1,921.842 1533.87,929.025 1536.64,935.184 1539.41,940.239 1542.18,944.114 1544.96,946.741 1547.73,948.062 1550.5,948.025 1553.27,946.586 1556.04,943.713 1558.81,939.384 1561.58,933.587 1564.36,926.323 1567.13,917.604 1569.9,907.453 1572.67,895.905 1575.44,883.011 1578.21,868.829 1580.98,853.432 1583.76,836.904 1586.53,819.342 1589.3,800.851 1592.07,781.549 1594.84,761.563 1597.61,741.027 1600.38,720.086 1603.15,698.891 1605.93,677.598 1608.7,656.368 1611.47,635.368 1614.24,614.763 1617.01,594.724 1619.78,575.419 1622.55,557.013 1625.33,539.672 1628.1,523.552 1630.87,508.809 1633.64,495.587 1636.41,484.024 1639.18,474.247 1641.95,466.37 1644.73,460.499 1647.5,456.722 1650.27,455.114 1653.04,455.736 1655.81,458.629 1658.58,463.821 1661.35,471.319 1664.13,481.115 1666.9,493.179 1669.67,507.466 1672.44,523.911 1675.21,542.431 1677.98,562.924 1680.75,585.273 1683.52,609.341 1686.3,634.977 1689.07,662.015 1691.84,690.275 1694.61,719.563 1697.38,749.674 1700.15,780.394 1702.92,811.5 1705.7,842.761 1708.47,873.945 1711.24,904.812 1714.01,935.123 1716.78,964.641 1719.55,993.129 1722.32,1020.36 1725.1,1046.1 1727.87,1070.14 1730.64,1092.27 1733.41,1112.3 1736.18,1130.05 1738.95,1145.35 1741.72,1158.05 1744.49,1168.04 1747.27,1175.19 1750.04,1179.41 1752.81,1180.65 1755.58,1178.85 1758.35,1173.99 1761.12,1166.09 1763.89,1155.15 1766.67,1141.23 1769.44,1124.42 1772.21,1104.79 1774.98,1082.47 1777.75,1057.61 1780.52,1030.37 1783.29,1000.92 1786.07,969.48 1788.84,936.257 1791.61,901.49 1794.38,865.427 1797.15,828.329 1799.92,790.465 1802.69,752.116 1805.47,713.564 1808.24,675.098 1811.01,637.006 1813.78,599.577 1816.55,563.095 1819.32,527.839 1822.09,494.08 1824.86,462.077 1827.64,432.08 1830.41,404.322 1833.18,379.02 1835.95,356.375 1838.72,336.565 1841.49,319.75 1844.26,306.064 1847.04,295.619 1849.81,288.503 1852.58,284.777 1855.35,284.477 1858.12,287.611 1860.89,294.162 1863.66,304.087 1866.44,317.314 1869.21,333.749 1871.98,353.27 1874.75,375.734 1877.52,400.972 1880.29,428.797 1883.06,458.999 1885.84,491.352 1888.61,525.612 1891.38,561.522 1894.15,598.81 1896.92,637.198 1899.69,676.395 1902.46,716.109 1905.23,756.042 1908.01,795.895 1910.78,835.372 1913.55,874.179 1916.32,912.03 1919.09,948.647 1921.86,983.761 1924.63,1017.12 1927.41,1048.47 1930.18,1077.61 1932.95,1104.32 1935.72,1128.41 1938.49,1149.73 1941.26,1168.13 1944.03,1183.48 1946.81,1195.7 1949.58,1204.72 1952.35,1210.49 1955.12,1212.99 1957.89,1212.22 1960.66,1208.23 1963.43,1201.05 1966.2,1190.79 1968.98,1177.52 1971.75,1161.39 1974.52,1142.54 1977.29,1121.13 1980.06,1097.35 1982.83,1071.4 1985.6,1043.49 1988.38,1013.85 1991.15,982.723 1993.92,950.355 1996.69,917.002 1999.46,882.922 2002.23,848.38 2005,813.636 2007.78,778.954 2010.55,744.59 2013.32,710.797 2016.09,677.819 2018.86,645.892 2021.63,615.239 2024.4,586.072 2027.18,558.587 2029.95,532.965 2032.72,509.371 2035.49,487.949 2038.26,468.828 2041.03,452.115 2043.8,437.897 2046.57,426.24 2049.35,417.191 2052.12,410.774 2054.89,406.993 2057.66,405.833 2060.43,407.257 2063.2,411.209 2065.97,417.615 2068.75,426.383 2071.52,437.405 2074.29,450.557 2077.06,465.7 2079.83,482.684 2082.6,501.346 2085.37,521.514 2088.15,543.006 2090.92,565.637 2093.69,589.213 2096.46,613.538 2099.23,638.415 2102,663.645 2104.77,689.032 2107.54,714.382 2110.32,739.506 2113.09,764.221 2115.86,788.35 2118.63,811.726 2121.4,834.19 2124.17,855.595 2126.94,875.804 2129.72,894.694 2132.49,912.156 2135.26,928.091 2138.03,942.418 2140.8,955.068 2143.57,965.988 2146.34,975.14 2149.12,982.498 2151.89,988.055 2154.66,991.815 2157.43,993.797 2160.2,994.033 2162.97,992.567 2165.74,989.457 2168.52,984.77 2171.29,978.587 2174.06,970.993 2176.83,962.088 2179.6,951.974 2182.37,940.763 2185.14,928.571 2187.91,915.518 2190.69,901.729 2193.46,887.33 2196.23,872.447 2199,857.209 2201.77,841.74 2204.54,826.166 2207.31,810.608 2210.09,795.182 2212.86,780.003 2215.63,765.178 2218.4,750.807 2221.17,736.985 2223.94,723.8 2226.71,711.331 2229.49,699.649 2232.26,688.817 2235.03,678.889 2237.8,669.911 2240.57,661.918 2243.34,654.939 2246.11,648.99 2248.88,644.082 2251.66,640.216 2254.43,637.385 2257.2,635.573 2259.97,634.759 2262.74,634.912 2265.51,635.997 2268.28,637.971 2271.06,640.787 2273.83,644.391 2276.6,648.727 2279.37,653.735 2282.14,659.349 2284.91,665.505 2287.68,672.135 2290.46,679.168 2293.23,686.536 "/>
<path clip-path="url(#clip460)" d="M319.507 275.122 L637.54 275.122 L637.54 93.1086 L319.507 93.1086  Z" fill="#ffffff" fill-rule="evenodd" fill-opacity="1"/>
<polyline clip-path="url(#clip460)" style="stroke:#000000; stroke-linecap:round; stroke-linejoin:round; stroke-width:4; stroke-opacity:1; fill:none" points="319.507,275.122 637.54,275.122 637.54,93.1086 319.507,93.1086 319.507,275.122 "/>
<polyline clip-path="url(#clip460)" style="stroke:#ba3d3a; stroke-linecap:round; stroke-linejoin:round; stroke-width:8; stroke-opacity:1; fill:none" points="342.877,153.78 483.102,153.78 "/>
<path clip-path="url(#clip460)" d="M528.887 149.587 Q528.887 150.899 528.489 152.374 L523.032 174.087 Q522.54 176.008 521.064 176.008 Q520.455 176.008 520.081 175.633 Q519.729 175.281 519.729 174.719 Q519.729 174.532 519.87 173.946 L525.327 151.882 Q525.819 149.868 525.819 148.861 Q525.819 145.512 523.219 145.512 Q520.924 145.512 518.628 147.198 Q517.574 148.041 516.544 149.564 Q515.537 151.063 515.349 151.601 Q515.139 152.819 514.834 153.756 Q514.693 154.412 514.014 156.965 L512.96 161.298 Q512.211 164.531 512.047 164.835 Q511.813 165.491 511.297 165.842 Q510.782 166.194 510.267 166.194 Q509.681 166.194 509.283 165.842 Q508.885 165.491 508.885 164.882 Q508.885 164.788 508.955 164.437 Q509.025 164.086 509.142 163.594 Q509.259 163.102 509.306 162.821 L512.094 151.742 Q512.609 149.728 512.726 149.095 Q512.867 148.439 512.867 147.713 Q512.867 146.448 512.468 145.98 Q512.07 145.512 511.368 145.512 Q510.15 145.512 509.353 146.964 Q508.557 148.416 507.878 151.227 Q507.667 152 507.526 152.164 Q507.409 152.327 507.058 152.327 Q506.472 152.304 506.472 151.836 Q506.472 151.719 506.66 150.969 Q506.847 150.196 507.198 149.072 Q507.573 147.924 507.971 147.198 Q508.205 146.706 508.416 146.378 Q508.627 146.05 509.049 145.535 Q509.47 145.02 510.103 144.739 Q510.735 144.458 511.508 144.458 Q513.218 144.458 514.483 145.558 Q515.771 146.659 515.935 148.627 Q516.427 147.901 517.059 147.245 Q517.715 146.589 518.628 145.933 Q519.542 145.254 520.783 144.856 Q522.025 144.458 523.36 144.458 Q526.03 144.458 527.459 145.839 Q528.887 147.198 528.887 149.587 Z" fill="#000000" fill-rule="nonzero" fill-opacity="1" /><path clip-path="url(#clip460)" d="M535.82 153.663 Q535.82 145.558 538.841 139.024 Q540.13 136.283 541.933 133.988 Q543.737 131.692 544.931 130.685 Q546.126 129.678 546.454 129.678 Q546.922 129.678 546.946 130.146 Q546.946 130.381 546.313 130.966 Q538.584 138.836 538.607 153.663 Q538.607 168.536 546.126 176.101 Q546.946 176.921 546.946 177.179 Q546.946 177.647 546.454 177.647 Q546.126 177.647 544.978 176.687 Q543.83 175.727 542.05 173.525 Q540.27 171.323 538.982 168.63 Q535.82 162.095 535.82 153.663 Z" fill="#000000" fill-rule="nonzero" fill-opacity="1" /><path clip-path="url(#clip460)" d="M565.32 145.512 Q565.32 146.167 565.016 146.331 Q564.711 146.472 563.868 146.472 L559.371 146.472 L555.811 160.619 Q555.53 161.86 555.53 162.914 Q555.53 164.086 555.881 164.601 Q556.256 165.116 557.029 165.116 Q558.551 165.116 560.191 163.734 Q561.854 162.352 563.259 158.979 Q563.446 158.534 563.54 158.441 Q563.657 158.324 563.962 158.324 Q564.547 158.324 564.547 158.792 Q564.547 158.956 564.219 159.706 Q563.915 160.455 563.236 161.556 Q562.58 162.657 561.713 163.687 Q560.87 164.718 559.582 165.467 Q558.293 166.194 556.911 166.194 Q554.967 166.194 553.726 164.952 Q552.508 163.711 552.508 161.767 Q552.508 161.134 553 159.12 Q553.492 157.082 556.162 146.472 L551.922 146.472 Q551.337 146.472 551.103 146.448 Q550.892 146.425 550.728 146.308 Q550.587 146.167 550.587 145.886 Q550.587 145.441 550.775 145.254 Q550.962 145.043 551.196 145.02 Q551.454 144.973 552.04 144.973 L556.537 144.973 L558.41 137.361 Q558.598 136.611 559.066 136.189 Q559.558 135.744 559.839 135.698 Q560.12 135.627 560.331 135.627 Q560.964 135.627 561.338 135.979 Q561.713 136.307 561.713 136.916 Q561.713 137.243 559.746 144.973 L563.962 144.973 Q564.5 144.973 564.711 144.996 Q564.945 145.02 565.133 145.137 Q565.32 145.254 565.32 145.512 Z" fill="#000000" fill-rule="nonzero" fill-opacity="1" /><path clip-path="url(#clip460)" d="M569.071 177.179 Q569.071 176.944 569.68 176.359 Q577.41 168.489 577.41 153.663 Q577.41 138.789 569.985 131.271 Q569.071 130.404 569.071 130.146 Q569.071 129.678 569.54 129.678 Q569.868 129.678 571.015 130.638 Q572.186 131.599 573.943 133.8 Q575.723 136.002 577.035 138.696 Q580.197 145.23 580.197 153.663 Q580.197 161.767 577.175 168.302 Q575.887 171.042 574.084 173.337 Q572.28 175.633 571.086 176.64 Q569.891 177.647 569.54 177.647 Q569.071 177.647 569.071 177.179 Z" fill="#000000" fill-rule="nonzero" fill-opacity="1" /><polyline clip-path="url(#clip460)" style="stroke:#4a7945; stroke-linecap:round; stroke-linejoin:round; stroke-width:8; stroke-opacity:1; fill:none" stroke-dasharray="4, 8" points="342.877,214.451 483.102,214.451 "/>
<path clip-path="url(#clip460)" d="M528.887 203.673 Q528.887 204.984 528.489 206.46 L523.032 228.173 Q522.54 230.093 521.064 230.093 Q520.455 230.093 520.081 229.718 Q519.729 229.367 519.729 228.805 Q519.729 228.618 519.87 228.032 L525.327 205.968 Q525.819 203.954 525.819 202.947 Q525.819 199.597 523.219 199.597 Q520.924 199.597 518.628 201.284 Q517.574 202.127 516.544 203.649 Q515.537 205.148 515.349 205.687 Q515.139 206.905 514.834 207.842 Q514.693 208.498 514.014 211.051 L512.96 215.384 Q512.211 218.616 512.047 218.921 Q511.813 219.577 511.297 219.928 Q510.782 220.279 510.267 220.279 Q509.681 220.279 509.283 219.928 Q508.885 219.577 508.885 218.968 Q508.885 218.874 508.955 218.523 Q509.025 218.171 509.142 217.679 Q509.259 217.187 509.306 216.906 L512.094 205.828 Q512.609 203.813 512.726 203.181 Q512.867 202.525 512.867 201.799 Q512.867 200.534 512.468 200.066 Q512.07 199.597 511.368 199.597 Q510.15 199.597 509.353 201.049 Q508.557 202.502 507.878 205.312 Q507.667 206.085 507.526 206.249 Q507.409 206.413 507.058 206.413 Q506.472 206.39 506.472 205.921 Q506.472 205.804 506.66 205.055 Q506.847 204.282 507.198 203.157 Q507.573 202.01 507.971 201.284 Q508.205 200.792 508.416 200.464 Q508.627 200.136 509.049 199.621 Q509.47 199.105 510.103 198.824 Q510.735 198.543 511.508 198.543 Q513.218 198.543 514.483 199.644 Q515.771 200.745 515.935 202.712 Q516.427 201.986 517.059 201.33 Q517.715 200.675 518.628 200.019 Q519.542 199.34 520.783 198.941 Q522.025 198.543 523.36 198.543 Q526.03 198.543 527.459 199.925 Q528.887 201.284 528.887 203.673 Z" fill="#000000" fill-rule="nonzero" fill-opacity="1" /><path clip-path="url(#clip460)" d="M557.619 220.723 L555.504 229.281 Q555.356 229.822 555.258 229.888 Q555.176 229.954 554.914 229.954 Q554.406 229.954 554.406 229.609 Q554.406 229.577 554.455 229.15 Q554.504 228.708 554.504 227.904 Q554.504 224.937 553.061 223.182 Q551.635 221.428 549.093 221.428 Q546.716 221.428 544.437 222.674 Q542.158 223.92 540.699 225.756 Q539.469 227.265 538.616 229.101 Q537.78 230.937 537.436 232.544 Q537.092 234.135 536.96 235.102 Q536.846 236.069 536.846 236.692 Q536.846 238.529 537.436 239.955 Q538.026 241.365 539.01 242.168 Q540.01 242.972 541.158 243.365 Q542.322 243.759 543.584 243.759 Q544.06 243.759 544.634 243.693 Q545.208 243.628 546.093 243.382 Q546.995 243.136 547.732 242.726 Q548.487 242.316 549.142 241.529 Q549.815 240.742 550.077 239.693 Q550.782 237.02 550.782 236.627 Q550.782 236.299 550.585 236.184 Q550.389 236.069 549.733 235.987 L547.962 235.922 Q547.929 235.922 547.88 235.922 Q547.569 235.922 547.437 235.922 Q547.306 235.905 547.159 235.872 Q547.027 235.84 546.978 235.774 Q546.945 235.692 546.945 235.561 Q546.945 235.249 547.077 235.102 Q547.208 234.938 547.323 234.922 Q547.437 234.889 547.65 234.889 L552.356 234.987 Q552.733 234.987 554.11 234.938 Q555.488 234.889 555.881 234.889 Q556.324 234.889 556.324 235.249 Q556.324 235.922 555.783 235.922 Q555.242 235.938 554.963 235.954 Q554.684 235.954 554.406 236.036 Q554.143 236.118 554.045 236.184 Q553.946 236.233 553.815 236.479 Q553.684 236.709 553.635 236.905 Q553.586 237.086 553.471 237.545 Q553.405 237.84 553.241 238.397 Q553.094 238.955 553.028 239.25 L552.389 241.841 Q551.946 243.759 551.815 243.89 Q551.749 244.021 551.585 244.021 Q551.34 244.021 550.815 243.3 Q550.307 242.578 550.077 241.939 Q549.667 242.382 549.405 242.644 Q549.142 242.89 548.536 243.283 Q547.946 243.677 547.159 243.988 Q545.24 244.792 542.961 244.792 Q538.895 244.792 536.337 242.218 Q533.78 239.627 533.78 235.594 Q533.78 232.741 535.091 229.937 Q536.403 227.134 538.485 225.051 Q540.568 222.969 543.322 221.674 Q546.076 220.379 548.831 220.379 Q549.88 220.379 550.815 220.657 Q551.749 220.936 552.307 221.28 Q552.881 221.625 553.389 222.133 Q553.897 222.625 554.061 222.854 Q554.242 223.084 554.406 223.363 L556.75 220.788 Q557.16 220.379 557.258 220.379 Q557.455 220.379 557.537 220.493 Q557.619 220.608 557.619 220.723 Z" fill="#000000" fill-rule="nonzero" fill-opacity="1" /><path clip-path="url(#clip460)" d="M562.503 207.748 Q562.503 199.644 565.524 193.109 Q566.813 190.369 568.616 188.073 Q570.42 185.778 571.614 184.771 Q572.809 183.764 573.137 183.764 Q573.605 183.764 573.629 184.232 Q573.629 184.466 572.996 185.052 Q565.267 192.922 565.29 207.748 Q565.29 222.621 572.809 230.187 Q573.629 231.007 573.629 231.264 Q573.629 231.733 573.137 231.733 Q572.809 231.733 571.661 230.772 Q570.513 229.812 568.733 227.61 Q566.953 225.409 565.665 222.715 Q562.503 216.18 562.503 207.748 Z" fill="#000000" fill-rule="nonzero" fill-opacity="1" /><path clip-path="url(#clip460)" d="M592.003 199.597 Q592.003 200.253 591.699 200.417 Q591.394 200.558 590.551 200.558 L586.054 200.558 L582.494 214.705 Q582.213 215.946 582.213 217 Q582.213 218.171 582.564 218.686 Q582.939 219.202 583.712 219.202 Q585.234 219.202 586.874 217.82 Q588.537 216.438 589.942 213.065 Q590.129 212.62 590.223 212.526 Q590.34 212.409 590.645 212.409 Q591.23 212.409 591.23 212.878 Q591.23 213.042 590.902 213.791 Q590.598 214.541 589.918 215.642 Q589.263 216.742 588.396 217.773 Q587.553 218.804 586.265 219.553 Q584.976 220.279 583.594 220.279 Q581.65 220.279 580.409 219.038 Q579.191 217.796 579.191 215.852 Q579.191 215.22 579.683 213.206 Q580.175 211.168 582.845 200.558 L578.605 200.558 Q578.02 200.558 577.786 200.534 Q577.575 200.511 577.411 200.394 Q577.27 200.253 577.27 199.972 Q577.27 199.527 577.458 199.34 Q577.645 199.129 577.879 199.105 Q578.137 199.058 578.723 199.058 L583.22 199.058 L585.093 191.446 Q585.281 190.697 585.749 190.275 Q586.241 189.83 586.522 189.783 Q586.803 189.713 587.014 189.713 Q587.647 189.713 588.021 190.064 Q588.396 190.392 588.396 191.001 Q588.396 191.329 586.429 199.058 L590.645 199.058 Q591.183 199.058 591.394 199.082 Q591.628 199.105 591.816 199.222 Q592.003 199.34 592.003 199.597 Z" fill="#000000" fill-rule="nonzero" fill-opacity="1" /><path clip-path="url(#clip460)" d="M595.754 231.264 Q595.754 231.03 596.363 230.445 Q604.093 222.575 604.093 207.748 Q604.093 192.875 596.668 185.356 Q595.754 184.49 595.754 184.232 Q595.754 183.764 596.223 183.764 Q596.551 183.764 597.698 184.724 Q598.869 185.684 600.626 187.886 Q602.406 190.088 603.718 192.781 Q606.88 199.316 606.88 207.748 Q606.88 215.852 603.858 222.387 Q602.57 225.128 600.767 227.423 Q598.963 229.718 597.769 230.726 Q596.574 231.733 596.223 231.733 Q595.754 231.733 595.754 231.264 Z" fill="#000000" fill-rule="nonzero" fill-opacity="1" /></svg>
