<?xml version="1.0" encoding="utf-8"?>
<svg xmlns="http://www.w3.org/2000/svg" xmlns:xlink="http://www.w3.org/1999/xlink" width="600" height="400" viewBox="0 0 2400 1600">
<defs>
  <clipPath id="clip580">
    <rect x="0" y="0" width="2400" height="1600"/>
  </clipPath>
</defs>
<path clip-path="url(#clip580)" d="M0 1600 L2400 1600 L2400 0 L0 0  Z" fill="#ffffff" fill-rule="evenodd" fill-opacity="1"/>
<defs>
  <clipPath id="clip581">
    <rect x="480" y="0" width="1681" height="1600"/>
  </clipPath>
</defs>
<path clip-path="url(#clip580)" d="M209.894 1423.18 L2352.76 1423.18 L2352.76 108.933 L209.894 108.933  Z" fill="#ffffff" fill-rule="evenodd" fill-opacity="1"/>
<defs>
  <clipPath id="clip582">
    <rect x="209" y="108" width="2144" height="1315"/>
  </clipPath>
</defs>
<polyline clip-path="url(#clip582)" style="stroke:#000000; stroke-linecap:round; stroke-linejoin:round; stroke-width:2; stroke-opacity:0.1; fill:none" points="455.493,1423.18 455.493,108.933 "/>
<polyline clip-path="url(#clip582)" style="stroke:#000000; stroke-linecap:round; stroke-linejoin:round; stroke-width:2; stroke-opacity:0.1; fill:none" points="885.614,1423.18 885.614,108.933 "/>
<polyline clip-path="url(#clip582)" style="stroke:#000000; stroke-linecap:round; stroke-linejoin:round; stroke-width:2; stroke-opacity:0.1; fill:none" points="1315.73,1423.18 1315.73,108.933 "/>
<polyline clip-path="url(#clip582)" style="stroke:#000000; stroke-linecap:round; stroke-linejoin:round; stroke-width:2; stroke-opacity:0.1; fill:none" points="1745.86,1423.18 1745.86,108.933 "/>
<polyline clip-path="url(#clip582)" style="stroke:#000000; stroke-linecap:round; stroke-linejoin:round; stroke-width:2; stroke-opacity:0.1; fill:none" points="2175.98,1423.18 2175.98,108.933 "/>
<polyline clip-path="url(#clip580)" style="stroke:#000000; stroke-linecap:round; stroke-linejoin:round; stroke-width:4; stroke-opacity:1; fill:none" points="209.894,1423.18 2352.76,1423.18 "/>
<polyline clip-path="url(#clip580)" style="stroke:#000000; stroke-linecap:round; stroke-linejoin:round; stroke-width:4; stroke-opacity:1; fill:none" points="455.493,1423.18 455.493,1404.28 "/>
<polyline clip-path="url(#clip580)" style="stroke:#000000; stroke-linecap:round; stroke-linejoin:round; stroke-width:4; stroke-opacity:1; fill:none" points="885.614,1423.18 885.614,1404.28 "/>
<polyline clip-path="url(#clip580)" style="stroke:#000000; stroke-linecap:round; stroke-linejoin:round; stroke-width:4; stroke-opacity:1; fill:none" points="1315.73,1423.18 1315.73,1404.28 "/>
<polyline clip-path="url(#clip580)" style="stroke:#000000; stroke-linecap:round; stroke-linejoin:round; stroke-width:4; stroke-opacity:1; fill:none" points="1745.86,1423.18 1745.86,1404.28 "/>
<polyline clip-path="url(#clip580)" style="stroke:#000000; stroke-linecap:round; stroke-linejoin:round; stroke-width:4; stroke-opacity:1; fill:none" points="2175.98,1423.18 2175.98,1404.28 "/>
<path clip-path="url(#clip580)" d="M407.247 1478.76 Q407.247 1477.25 408.112 1476.54 Q408.977 1475.82 410.088 1475.82 Q411.249 1475.82 412.065 1476.59 Q412.904 1477.33 412.904 1478.64 Q412.904 1480.05 411.916 1480.84 Q410.953 1481.63 409.57 1481.43 Q410.78 1483.46 413.003 1484.37 Q415.251 1485.28 417.326 1485.28 Q419.5 1485.28 421.254 1483.41 Q423.033 1481.53 423.033 1476.93 Q423.033 1473.03 421.501 1470.78 Q419.994 1468.53 417.005 1468.53 L414.782 1468.53 Q414.016 1468.53 413.794 1468.46 Q413.571 1468.39 413.571 1467.97 Q413.571 1467.47 414.337 1467.37 Q415.103 1467.37 416.314 1467.23 Q419.253 1467.13 420.81 1464.58 Q422.218 1462.21 422.218 1458.83 Q422.218 1455.74 420.735 1454.45 Q419.278 1453.14 417.376 1453.14 Q415.597 1453.14 413.646 1453.89 Q411.694 1454.63 410.632 1456.28 Q413.769 1456.28 413.769 1458.83 Q413.769 1459.94 413.053 1460.68 Q412.361 1461.4 411.2 1461.4 Q410.088 1461.4 409.347 1460.7 Q408.606 1459.99 408.606 1458.78 Q408.606 1455.89 411.175 1453.89 Q413.769 1451.88 417.573 1451.88 Q421.328 1451.88 424.095 1453.86 Q426.887 1455.84 426.887 1458.88 Q426.887 1461.86 424.91 1464.31 Q422.934 1466.76 419.797 1467.77 Q423.65 1468.53 425.948 1471.15 Q428.245 1473.75 428.245 1476.93 Q428.245 1480.89 425.133 1483.8 Q422.02 1486.69 417.475 1486.69 Q413.275 1486.69 410.261 1484.42 Q407.247 1482.15 407.247 1478.76 Z" fill="#000000" fill-rule="nonzero" fill-opacity="1" /><path clip-path="url(#clip580)" d="M432.395 1469.4 Q432.395 1461.96 434.273 1457.91 Q436.891 1451.88 443.067 1451.88 Q444.377 1451.88 445.735 1452.26 Q447.119 1452.6 448.848 1453.96 Q450.602 1455.32 451.664 1457.54 Q453.69 1461.84 453.69 1469.4 Q453.69 1476.79 451.812 1480.81 Q449.07 1486.69 443.018 1486.69 Q440.745 1486.69 438.423 1485.53 Q436.126 1484.37 434.668 1481.58 Q432.395 1477.4 432.395 1469.4 M436.595 1468.78 Q436.595 1476.41 437.138 1479.45 Q437.756 1482.74 439.436 1484.17 Q441.14 1485.58 443.018 1485.58 Q445.044 1485.58 446.723 1484.07 Q448.428 1482.54 448.947 1479.26 Q449.515 1476.02 449.49 1468.78 Q449.49 1461.74 448.996 1458.92 Q448.329 1455.64 446.55 1454.33 Q444.796 1453 443.018 1453 Q442.351 1453 441.634 1453.19 Q440.943 1453.39 439.93 1453.96 Q438.917 1454.53 438.127 1455.94 Q437.361 1457.34 436.99 1459.47 Q436.595 1462.21 436.595 1468.78 Z" fill="#000000" fill-rule="nonzero" fill-opacity="1" /><path clip-path="url(#clip580)" d="M458.235 1485.58 Q458.235 1484.67 458.309 1484.39 Q458.408 1484.12 458.803 1483.7 L468.512 1472.88 Q473.823 1466.9 473.823 1461.69 Q473.823 1458.31 472.044 1455.89 Q470.29 1453.47 467.054 1453.47 Q464.831 1453.47 462.953 1454.82 Q461.076 1456.18 460.211 1458.6 Q460.36 1458.55 460.878 1458.55 Q462.138 1458.55 462.83 1459.34 Q463.546 1460.14 463.546 1461.2 Q463.546 1462.56 462.657 1463.22 Q461.792 1463.87 460.928 1463.87 Q460.582 1463.87 460.113 1463.79 Q459.668 1463.72 458.952 1463.03 Q458.235 1462.31 458.235 1461.05 Q458.235 1457.52 460.903 1454.7 Q463.596 1451.88 467.697 1451.88 Q472.341 1451.88 475.379 1454.65 Q478.442 1457.39 478.442 1461.69 Q478.442 1463.2 477.973 1464.58 Q477.528 1465.94 476.911 1467 Q476.318 1468.07 474.688 1469.77 Q473.057 1471.47 471.748 1472.68 Q470.439 1473.9 467.499 1476.46 L462.138 1481.68 L471.254 1481.68 Q475.7 1481.68 476.046 1481.28 Q476.54 1480.57 477.158 1476.79 L478.442 1476.79 L477.01 1485.58 L458.235 1485.58 Z" fill="#000000" fill-rule="nonzero" fill-opacity="1" /><path clip-path="url(#clip580)" d="M483.531 1477.43 Q483.531 1475.92 484.347 1475.35 Q485.162 1474.76 486.026 1474.76 Q487.187 1474.76 487.854 1475.5 Q488.546 1476.22 488.546 1477.23 Q488.546 1478.24 487.854 1478.98 Q487.187 1479.7 486.026 1479.7 Q485.458 1479.7 485.162 1479.6 Q485.829 1481.92 487.854 1483.6 Q489.905 1485.28 492.597 1485.28 Q495.982 1485.28 498.008 1482 Q499.218 1479.87 499.218 1475.06 Q499.218 1470.81 498.304 1468.68 Q496.896 1465.45 494.006 1465.45 Q489.905 1465.45 487.484 1468.98 Q487.187 1469.42 486.842 1469.45 Q486.348 1469.45 486.224 1469.18 Q486.125 1468.88 486.125 1468.11 L486.125 1453.14 Q486.125 1451.93 486.619 1451.93 Q486.817 1451.93 487.237 1452.08 Q490.424 1453.49 493.956 1453.51 Q497.588 1453.51 500.848 1452.03 Q501.095 1451.88 501.244 1451.88 Q501.738 1451.88 501.762 1452.45 Q501.762 1452.65 501.342 1453.24 Q500.947 1453.81 500.083 1454.58 Q499.218 1455.32 498.106 1456.03 Q496.995 1456.75 495.364 1457.25 Q493.759 1457.71 491.98 1457.71 Q489.855 1457.71 487.682 1457.05 L487.682 1466.9 Q490.3 1464.33 494.104 1464.33 Q498.156 1464.33 500.947 1467.6 Q503.739 1470.86 503.739 1475.4 Q503.739 1480.17 500.428 1483.43 Q497.143 1486.69 492.696 1486.69 Q488.645 1486.69 486.076 1483.8 Q483.531 1480.91 483.531 1477.43 Z" fill="#000000" fill-rule="nonzero" fill-opacity="1" /><path clip-path="url(#clip580)" d="M837.096 1478.76 Q837.096 1477.25 837.961 1476.54 Q838.826 1475.82 839.937 1475.82 Q841.098 1475.82 841.914 1476.59 Q842.754 1477.33 842.754 1478.64 Q842.754 1480.05 841.765 1480.84 Q840.802 1481.63 839.419 1481.43 Q840.629 1483.46 842.852 1484.37 Q845.1 1485.28 847.175 1485.28 Q849.349 1485.28 851.103 1483.41 Q852.882 1481.53 852.882 1476.93 Q852.882 1473.03 851.35 1470.78 Q849.843 1468.53 846.854 1468.53 L844.631 1468.53 Q843.865 1468.53 843.643 1468.46 Q843.421 1468.39 843.421 1467.97 Q843.421 1467.47 844.186 1467.37 Q844.952 1467.37 846.163 1467.23 Q849.102 1467.13 850.659 1464.58 Q852.067 1462.21 852.067 1458.83 Q852.067 1455.74 850.584 1454.45 Q849.127 1453.14 847.225 1453.14 Q845.446 1453.14 843.495 1453.89 Q841.543 1454.63 840.481 1456.28 Q843.618 1456.28 843.618 1458.83 Q843.618 1459.94 842.902 1460.68 Q842.21 1461.4 841.049 1461.4 Q839.937 1461.4 839.196 1460.7 Q838.455 1459.99 838.455 1458.78 Q838.455 1455.89 841.024 1453.89 Q843.618 1451.88 847.422 1451.88 Q851.177 1451.88 853.944 1453.86 Q856.736 1455.84 856.736 1458.88 Q856.736 1461.86 854.759 1464.31 Q852.783 1466.76 849.646 1467.77 Q853.499 1468.53 855.797 1471.15 Q858.094 1473.75 858.094 1476.93 Q858.094 1480.89 854.982 1483.8 Q851.869 1486.69 847.324 1486.69 Q843.124 1486.69 840.11 1484.42 Q837.096 1482.15 837.096 1478.76 Z" fill="#000000" fill-rule="nonzero" fill-opacity="1" /><path clip-path="url(#clip580)" d="M862.244 1469.4 Q862.244 1461.96 864.122 1457.91 Q866.74 1451.88 872.916 1451.88 Q874.226 1451.88 875.584 1452.26 Q876.968 1452.6 878.697 1453.96 Q880.451 1455.32 881.513 1457.54 Q883.539 1461.84 883.539 1469.4 Q883.539 1476.79 881.661 1480.81 Q878.919 1486.69 872.867 1486.69 Q870.594 1486.69 868.272 1485.53 Q865.975 1484.37 864.517 1481.58 Q862.244 1477.4 862.244 1469.4 M866.444 1468.78 Q866.444 1476.41 866.988 1479.45 Q867.605 1482.74 869.285 1484.17 Q870.989 1485.58 872.867 1485.58 Q874.893 1485.58 876.572 1484.07 Q878.277 1482.54 878.796 1479.26 Q879.364 1476.02 879.339 1468.78 Q879.339 1461.74 878.845 1458.92 Q878.178 1455.64 876.399 1454.33 Q874.646 1453 872.867 1453 Q872.2 1453 871.484 1453.19 Q870.792 1453.39 869.779 1453.96 Q868.766 1454.53 867.976 1455.94 Q867.21 1457.34 866.839 1459.47 Q866.444 1462.21 866.444 1468.78 Z" fill="#000000" fill-rule="nonzero" fill-opacity="1" /><path clip-path="url(#clip580)" d="M888.084 1477.43 Q888.084 1475.92 888.899 1475.35 Q889.715 1474.76 890.579 1474.76 Q891.74 1474.76 892.407 1475.5 Q893.099 1476.22 893.099 1477.23 Q893.099 1478.24 892.407 1478.98 Q891.74 1479.7 890.579 1479.7 Q890.011 1479.7 889.715 1479.6 Q890.382 1481.92 892.407 1483.6 Q894.458 1485.28 897.15 1485.28 Q900.535 1485.28 902.56 1482 Q903.771 1479.87 903.771 1475.06 Q903.771 1470.81 902.857 1468.68 Q901.449 1465.45 898.558 1465.45 Q894.458 1465.45 892.037 1468.98 Q891.74 1469.42 891.394 1469.45 Q890.9 1469.45 890.777 1469.18 Q890.678 1468.88 890.678 1468.11 L890.678 1453.14 Q890.678 1451.93 891.172 1451.93 Q891.37 1451.93 891.79 1452.08 Q894.976 1453.49 898.509 1453.51 Q902.14 1453.51 905.401 1452.03 Q905.648 1451.88 905.796 1451.88 Q906.291 1451.88 906.315 1452.45 Q906.315 1452.65 905.895 1453.24 Q905.5 1453.81 904.635 1454.58 Q903.771 1455.32 902.659 1456.03 Q901.548 1456.75 899.917 1457.25 Q898.311 1457.71 896.533 1457.71 Q894.408 1457.71 892.234 1457.05 L892.234 1466.9 Q894.853 1464.33 898.657 1464.33 Q902.709 1464.33 905.5 1467.6 Q908.292 1470.86 908.292 1475.4 Q908.292 1480.17 904.981 1483.43 Q901.696 1486.69 897.249 1486.69 Q893.198 1486.69 890.629 1483.8 Q888.084 1480.91 888.084 1477.43 Z" fill="#000000" fill-rule="nonzero" fill-opacity="1" /><path clip-path="url(#clip580)" d="M912.837 1469.4 Q912.837 1461.96 914.714 1457.91 Q917.333 1451.88 923.509 1451.88 Q924.818 1451.88 926.177 1452.26 Q927.56 1452.6 929.289 1453.96 Q931.043 1455.32 932.106 1457.54 Q934.131 1461.84 934.131 1469.4 Q934.131 1476.79 932.254 1480.81 Q929.512 1486.69 923.459 1486.69 Q921.187 1486.69 918.865 1485.53 Q916.567 1484.37 915.11 1481.58 Q912.837 1477.4 912.837 1469.4 M917.037 1468.78 Q917.037 1476.41 917.58 1479.45 Q918.198 1482.74 919.877 1484.17 Q921.582 1485.58 923.459 1485.58 Q925.485 1485.58 927.165 1484.07 Q928.869 1482.54 929.388 1479.26 Q929.956 1476.02 929.932 1468.78 Q929.932 1461.74 929.438 1458.92 Q928.771 1455.64 926.992 1454.33 Q925.238 1453 923.459 1453 Q922.792 1453 922.076 1453.19 Q921.384 1453.39 920.371 1453.96 Q919.359 1454.53 918.568 1455.94 Q917.802 1457.34 917.432 1459.47 Q917.037 1462.21 917.037 1468.78 Z" fill="#000000" fill-rule="nonzero" fill-opacity="1" /><path clip-path="url(#clip580)" d="M1267.49 1478.76 Q1267.49 1477.25 1268.35 1476.54 Q1269.22 1475.82 1270.33 1475.82 Q1271.49 1475.82 1272.31 1476.59 Q1273.15 1477.33 1273.15 1478.64 Q1273.15 1480.05 1272.16 1480.84 Q1271.19 1481.63 1269.81 1481.43 Q1271.02 1483.46 1273.24 1484.37 Q1275.49 1485.28 1277.57 1485.28 Q1279.74 1485.28 1281.5 1483.41 Q1283.27 1481.53 1283.27 1476.93 Q1283.27 1473.03 1281.74 1470.78 Q1280.24 1468.53 1277.25 1468.53 L1275.02 1468.53 Q1274.26 1468.53 1274.04 1468.46 Q1273.81 1468.39 1273.81 1467.97 Q1273.81 1467.47 1274.58 1467.37 Q1275.34 1467.37 1276.56 1467.23 Q1279.49 1467.13 1281.05 1464.58 Q1282.46 1462.21 1282.46 1458.83 Q1282.46 1455.74 1280.98 1454.45 Q1279.52 1453.14 1277.62 1453.14 Q1275.84 1453.14 1273.89 1453.89 Q1271.94 1454.63 1270.87 1456.28 Q1274.01 1456.28 1274.01 1458.83 Q1274.01 1459.94 1273.29 1460.68 Q1272.6 1461.4 1271.44 1461.4 Q1270.33 1461.4 1269.59 1460.7 Q1268.85 1459.99 1268.85 1458.78 Q1268.85 1455.89 1271.42 1453.89 Q1274.01 1451.88 1277.81 1451.88 Q1281.57 1451.88 1284.34 1453.86 Q1287.13 1455.84 1287.13 1458.88 Q1287.13 1461.86 1285.15 1464.31 Q1283.18 1466.76 1280.04 1467.77 Q1283.89 1468.53 1286.19 1471.15 Q1288.49 1473.75 1288.49 1476.93 Q1288.49 1480.89 1285.37 1483.8 Q1282.26 1486.69 1277.72 1486.69 Q1273.52 1486.69 1270.5 1484.42 Q1267.49 1482.15 1267.49 1478.76 Z" fill="#000000" fill-rule="nonzero" fill-opacity="1" /><path clip-path="url(#clip580)" d="M1292.64 1469.4 Q1292.64 1461.96 1294.51 1457.91 Q1297.13 1451.88 1303.31 1451.88 Q1304.62 1451.88 1305.98 1452.26 Q1307.36 1452.6 1309.09 1453.96 Q1310.84 1455.32 1311.91 1457.54 Q1313.93 1461.84 1313.93 1469.4 Q1313.93 1476.79 1312.05 1480.81 Q1309.31 1486.69 1303.26 1486.69 Q1300.99 1486.69 1298.66 1485.53 Q1296.37 1484.37 1294.91 1481.58 Q1292.64 1477.4 1292.64 1469.4 M1296.84 1468.78 Q1296.84 1476.41 1297.38 1479.45 Q1298 1482.74 1299.68 1484.17 Q1301.38 1485.58 1303.26 1485.58 Q1305.29 1485.58 1306.96 1484.07 Q1308.67 1482.54 1309.19 1479.26 Q1309.76 1476.02 1309.73 1468.78 Q1309.73 1461.74 1309.24 1458.92 Q1308.57 1455.64 1306.79 1454.33 Q1305.04 1453 1303.26 1453 Q1302.59 1453 1301.88 1453.19 Q1301.18 1453.39 1300.17 1453.96 Q1299.16 1454.53 1298.37 1455.94 Q1297.6 1457.34 1297.23 1459.47 Q1296.84 1462.21 1296.84 1468.78 Z" fill="#000000" fill-rule="nonzero" fill-opacity="1" /><path clip-path="url(#clip580)" d="M1318.8 1461.79 L1320.45 1451.39 L1321.71 1451.39 Q1321.86 1452.01 1322.11 1452.28 Q1322.38 1452.55 1323.81 1452.77 Q1325.27 1453 1328.21 1453 L1340.49 1453 Q1340.49 1454.16 1340.04 1454.77 L1333.2 1464.38 Q1331.03 1467.42 1330.06 1473.03 Q1329.49 1476.79 1329.52 1481.33 L1329.52 1483.9 Q1329.52 1486.69 1327.17 1486.69 Q1324.85 1486.69 1324.85 1483.9 Q1324.85 1474.24 1331.08 1464.88 Q1331.74 1463.91 1334.19 1460.48 Q1336.66 1457.05 1336.76 1456.9 L1326.28 1456.9 Q1321.69 1456.9 1321.32 1457.2 Q1320.82 1457.64 1320.06 1461.79 L1318.8 1461.79 Z" fill="#000000" fill-rule="nonzero" fill-opacity="1" /><path clip-path="url(#clip580)" d="M1343.77 1477.43 Q1343.77 1475.92 1344.59 1475.35 Q1345.4 1474.76 1346.27 1474.76 Q1347.43 1474.76 1348.1 1475.5 Q1348.79 1476.22 1348.79 1477.23 Q1348.79 1478.24 1348.1 1478.98 Q1347.43 1479.7 1346.27 1479.7 Q1345.7 1479.7 1345.4 1479.6 Q1346.07 1481.92 1348.1 1483.6 Q1350.15 1485.28 1352.84 1485.28 Q1356.22 1485.28 1358.25 1482 Q1359.46 1479.87 1359.46 1475.06 Q1359.46 1470.81 1358.55 1468.68 Q1357.14 1465.45 1354.25 1465.45 Q1350.15 1465.45 1347.73 1468.98 Q1347.43 1469.42 1347.08 1469.45 Q1346.59 1469.45 1346.47 1469.18 Q1346.37 1468.88 1346.37 1468.11 L1346.37 1453.14 Q1346.37 1451.93 1346.86 1451.93 Q1347.06 1451.93 1347.48 1452.08 Q1350.67 1453.49 1354.2 1453.51 Q1357.83 1453.51 1361.09 1452.03 Q1361.34 1451.88 1361.49 1451.88 Q1361.98 1451.88 1362 1452.45 Q1362 1452.65 1361.58 1453.24 Q1361.19 1453.81 1360.32 1454.58 Q1359.46 1455.32 1358.35 1456.03 Q1357.24 1456.75 1355.61 1457.25 Q1354 1457.71 1352.22 1457.71 Q1350.1 1457.71 1347.92 1457.05 L1347.92 1466.9 Q1350.54 1464.33 1354.35 1464.33 Q1358.4 1464.33 1361.19 1467.6 Q1363.98 1470.86 1363.98 1475.4 Q1363.98 1480.17 1360.67 1483.43 Q1357.38 1486.69 1352.94 1486.69 Q1348.89 1486.69 1346.32 1483.8 Q1343.77 1480.91 1343.77 1477.43 Z" fill="#000000" fill-rule="nonzero" fill-opacity="1" /><path clip-path="url(#clip580)" d="M1697.34 1478.76 Q1697.34 1477.25 1698.2 1476.54 Q1699.07 1475.82 1700.18 1475.82 Q1701.34 1475.82 1702.16 1476.59 Q1703 1477.33 1703 1478.64 Q1703 1480.05 1702.01 1480.84 Q1701.04 1481.63 1699.66 1481.43 Q1700.87 1483.46 1703.09 1484.37 Q1705.34 1485.28 1707.42 1485.28 Q1709.59 1485.28 1711.34 1483.41 Q1713.12 1481.53 1713.12 1476.93 Q1713.12 1473.03 1711.59 1470.78 Q1710.08 1468.53 1707.1 1468.53 L1704.87 1468.53 Q1704.11 1468.53 1703.88 1468.46 Q1703.66 1468.39 1703.66 1467.97 Q1703.66 1467.47 1704.43 1467.37 Q1705.19 1467.37 1706.4 1467.23 Q1709.34 1467.13 1710.9 1464.58 Q1712.31 1462.21 1712.31 1458.83 Q1712.31 1455.74 1710.83 1454.45 Q1709.37 1453.14 1707.47 1453.14 Q1705.69 1453.14 1703.74 1453.89 Q1701.78 1454.63 1700.72 1456.28 Q1703.86 1456.28 1703.86 1458.83 Q1703.86 1459.94 1703.14 1460.68 Q1702.45 1461.4 1701.29 1461.4 Q1700.18 1461.4 1699.44 1460.7 Q1698.7 1459.99 1698.7 1458.78 Q1698.7 1455.89 1701.27 1453.89 Q1703.86 1451.88 1707.66 1451.88 Q1711.42 1451.88 1714.19 1453.86 Q1716.98 1455.84 1716.98 1458.88 Q1716.98 1461.86 1715 1464.31 Q1713.02 1466.76 1709.89 1467.77 Q1713.74 1468.53 1716.04 1471.15 Q1718.34 1473.75 1718.34 1476.93 Q1718.34 1480.89 1715.22 1483.8 Q1712.11 1486.69 1707.57 1486.69 Q1703.37 1486.69 1700.35 1484.42 Q1697.34 1482.15 1697.34 1478.76 Z" fill="#000000" fill-rule="nonzero" fill-opacity="1" /><path clip-path="url(#clip580)" d="M1725.01 1456.7 L1725.01 1455.12 Q1731.08 1455.12 1734.22 1451.88 Q1735.08 1451.88 1735.23 1452.08 Q1735.38 1452.28 1735.38 1453.19 L1735.38 1481.58 Q1735.38 1483.08 1736.12 1483.55 Q1736.86 1484.02 1740.1 1484.02 L1741.71 1484.02 L1741.71 1485.58 Q1739.93 1485.43 1733.5 1485.43 Q1727.08 1485.43 1725.33 1485.58 L1725.33 1484.02 L1726.93 1484.02 Q1730.12 1484.02 1730.89 1483.58 Q1731.65 1483.11 1731.65 1481.58 L1731.65 1455.37 Q1729.01 1456.7 1725.01 1456.7 Z" fill="#000000" fill-rule="nonzero" fill-opacity="1" /><path clip-path="url(#clip580)" d="M1747.78 1469.4 Q1747.78 1461.96 1749.66 1457.91 Q1752.28 1451.88 1758.45 1451.88 Q1759.76 1451.88 1761.12 1452.26 Q1762.51 1452.6 1764.23 1453.96 Q1765.99 1455.32 1767.05 1457.54 Q1769.08 1461.84 1769.08 1469.4 Q1769.08 1476.79 1767.2 1480.81 Q1764.46 1486.69 1758.4 1486.69 Q1756.13 1486.69 1753.81 1485.53 Q1751.51 1484.37 1750.06 1481.58 Q1747.78 1477.4 1747.78 1469.4 M1751.98 1468.78 Q1751.98 1476.41 1752.53 1479.45 Q1753.14 1482.74 1754.82 1484.17 Q1756.53 1485.58 1758.4 1485.58 Q1760.43 1485.58 1762.11 1484.07 Q1763.81 1482.54 1764.33 1479.26 Q1764.9 1476.02 1764.88 1468.78 Q1764.88 1461.74 1764.38 1458.92 Q1763.72 1455.64 1761.94 1454.33 Q1760.18 1453 1758.4 1453 Q1757.74 1453 1757.02 1453.19 Q1756.33 1453.39 1755.32 1453.96 Q1754.3 1454.53 1753.51 1455.94 Q1752.75 1457.34 1752.38 1459.47 Q1751.98 1462.21 1751.98 1468.78 Z" fill="#000000" fill-rule="nonzero" fill-opacity="1" /><path clip-path="url(#clip580)" d="M1773.08 1469.4 Q1773.08 1461.96 1774.96 1457.91 Q1777.57 1451.88 1783.75 1451.88 Q1785.06 1451.88 1786.42 1452.26 Q1787.8 1452.6 1789.53 1453.96 Q1791.28 1455.32 1792.35 1457.54 Q1794.37 1461.84 1794.37 1469.4 Q1794.37 1476.79 1792.5 1480.81 Q1789.75 1486.69 1783.7 1486.69 Q1781.43 1486.69 1779.11 1485.53 Q1776.81 1484.37 1775.35 1481.58 Q1773.08 1477.4 1773.08 1469.4 M1777.28 1468.78 Q1777.28 1476.41 1777.82 1479.45 Q1778.44 1482.74 1780.12 1484.17 Q1781.82 1485.58 1783.7 1485.58 Q1785.73 1485.58 1787.41 1484.07 Q1789.11 1482.54 1789.63 1479.26 Q1790.2 1476.02 1790.17 1468.78 Q1790.17 1461.74 1789.68 1458.92 Q1789.01 1455.64 1787.23 1454.33 Q1785.48 1453 1783.7 1453 Q1783.03 1453 1782.32 1453.19 Q1781.63 1453.39 1780.61 1453.96 Q1779.6 1454.53 1778.81 1455.94 Q1778.04 1457.34 1777.67 1459.47 Q1777.28 1462.21 1777.28 1468.78 Z" fill="#000000" fill-rule="nonzero" fill-opacity="1" /><path clip-path="url(#clip580)" d="M2127.73 1478.76 Q2127.73 1477.25 2128.6 1476.54 Q2129.46 1475.82 2130.57 1475.82 Q2131.73 1475.82 2132.55 1476.59 Q2133.39 1477.33 2133.39 1478.64 Q2133.39 1480.05 2132.4 1480.84 Q2131.44 1481.63 2130.05 1481.43 Q2131.26 1483.46 2133.49 1484.37 Q2135.73 1485.28 2137.81 1485.28 Q2139.98 1485.28 2141.74 1483.41 Q2143.52 1481.53 2143.52 1476.93 Q2143.52 1473.03 2141.98 1470.78 Q2140.48 1468.53 2137.49 1468.53 L2135.27 1468.53 Q2134.5 1468.53 2134.28 1468.46 Q2134.05 1468.39 2134.05 1467.97 Q2134.05 1467.47 2134.82 1467.37 Q2135.59 1467.37 2136.8 1467.23 Q2139.74 1467.13 2141.29 1464.58 Q2142.7 1462.21 2142.7 1458.83 Q2142.7 1455.74 2141.22 1454.45 Q2139.76 1453.14 2137.86 1453.14 Q2136.08 1453.14 2134.13 1453.89 Q2132.18 1454.63 2131.11 1456.28 Q2134.25 1456.28 2134.25 1458.83 Q2134.25 1459.94 2133.54 1460.68 Q2132.84 1461.4 2131.68 1461.4 Q2130.57 1461.4 2129.83 1460.7 Q2129.09 1459.99 2129.09 1458.78 Q2129.09 1455.89 2131.66 1453.89 Q2134.25 1451.88 2138.06 1451.88 Q2141.81 1451.88 2144.58 1453.86 Q2147.37 1455.84 2147.37 1458.88 Q2147.37 1461.86 2145.39 1464.31 Q2143.42 1466.76 2140.28 1467.77 Q2144.13 1468.53 2146.43 1471.15 Q2148.73 1473.75 2148.73 1476.93 Q2148.73 1480.89 2145.62 1483.8 Q2142.5 1486.69 2137.96 1486.69 Q2133.76 1486.69 2130.74 1484.42 Q2127.73 1482.15 2127.73 1478.76 Z" fill="#000000" fill-rule="nonzero" fill-opacity="1" /><path clip-path="url(#clip580)" d="M2155.4 1456.7 L2155.4 1455.12 Q2161.48 1455.12 2164.61 1451.88 Q2165.48 1451.88 2165.63 1452.08 Q2165.77 1452.28 2165.77 1453.19 L2165.77 1481.58 Q2165.77 1483.08 2166.51 1483.55 Q2167.26 1484.02 2170.49 1484.02 L2172.1 1484.02 L2172.1 1485.58 Q2170.32 1485.43 2163.9 1485.43 Q2157.47 1485.43 2155.72 1485.58 L2155.72 1484.02 L2157.33 1484.02 Q2160.51 1484.02 2161.28 1483.58 Q2162.04 1483.11 2162.04 1481.58 L2162.04 1455.37 Q2159.4 1456.7 2155.4 1456.7 Z" fill="#000000" fill-rule="nonzero" fill-opacity="1" /><path clip-path="url(#clip580)" d="M2178.72 1485.58 Q2178.72 1484.67 2178.79 1484.39 Q2178.89 1484.12 2179.29 1483.7 L2188.99 1472.88 Q2194.31 1466.9 2194.31 1461.69 Q2194.31 1458.31 2192.53 1455.89 Q2190.77 1453.47 2187.54 1453.47 Q2185.31 1453.47 2183.44 1454.82 Q2181.56 1456.18 2180.69 1458.6 Q2180.84 1458.55 2181.36 1458.55 Q2182.62 1458.55 2183.31 1459.34 Q2184.03 1460.14 2184.03 1461.2 Q2184.03 1462.56 2183.14 1463.22 Q2182.28 1463.87 2181.41 1463.87 Q2181.07 1463.87 2180.6 1463.79 Q2180.15 1463.72 2179.43 1463.03 Q2178.72 1462.31 2178.72 1461.05 Q2178.72 1457.52 2181.39 1454.7 Q2184.08 1451.88 2188.18 1451.88 Q2192.82 1451.88 2195.86 1454.65 Q2198.93 1457.39 2198.93 1461.69 Q2198.93 1463.2 2198.46 1464.58 Q2198.01 1465.94 2197.39 1467 Q2196.8 1468.07 2195.17 1469.77 Q2193.54 1471.47 2192.23 1472.68 Q2190.92 1473.9 2187.98 1476.46 L2182.62 1481.68 L2191.74 1481.68 Q2196.18 1481.68 2196.53 1481.28 Q2197.02 1480.57 2197.64 1476.79 L2198.93 1476.79 L2197.49 1485.58 L2178.72 1485.58 Z" fill="#000000" fill-rule="nonzero" fill-opacity="1" /><path clip-path="url(#clip580)" d="M2204.01 1477.43 Q2204.01 1475.92 2204.83 1475.35 Q2205.64 1474.76 2206.51 1474.76 Q2207.67 1474.76 2208.34 1475.5 Q2209.03 1476.22 2209.03 1477.23 Q2209.03 1478.24 2208.34 1478.98 Q2207.67 1479.7 2206.51 1479.7 Q2205.94 1479.7 2205.64 1479.6 Q2206.31 1481.92 2208.34 1483.6 Q2210.39 1485.28 2213.08 1485.28 Q2216.47 1485.28 2218.49 1482 Q2219.7 1479.87 2219.7 1475.06 Q2219.7 1470.81 2218.79 1468.68 Q2217.38 1465.45 2214.49 1465.45 Q2210.39 1465.45 2207.97 1468.98 Q2207.67 1469.42 2207.32 1469.45 Q2206.83 1469.45 2206.71 1469.18 Q2206.61 1468.88 2206.61 1468.11 L2206.61 1453.14 Q2206.61 1451.93 2207.1 1451.93 Q2207.3 1451.93 2207.72 1452.08 Q2210.91 1453.49 2214.44 1453.51 Q2218.07 1453.51 2221.33 1452.03 Q2221.58 1451.88 2221.73 1451.88 Q2222.22 1451.88 2222.25 1452.45 Q2222.25 1452.65 2221.83 1453.24 Q2221.43 1453.81 2220.57 1454.58 Q2219.7 1455.32 2218.59 1456.03 Q2217.48 1456.75 2215.85 1457.25 Q2214.24 1457.71 2212.46 1457.71 Q2210.34 1457.71 2208.16 1457.05 L2208.16 1466.9 Q2210.78 1464.33 2214.59 1464.33 Q2218.64 1464.33 2221.43 1467.6 Q2224.22 1470.86 2224.22 1475.4 Q2224.22 1480.17 2220.91 1483.43 Q2217.63 1486.69 2213.18 1486.69 Q2209.13 1486.69 2206.56 1483.8 Q2204.01 1480.91 2204.01 1477.43 Z" fill="#000000" fill-rule="nonzero" fill-opacity="1" /><path clip-path="url(#clip580)" d="M1227.61 1540.22 L1227.61 1538.7 Q1230.8 1538.56 1232.9 1536.32 Q1235.04 1534.04 1235.76 1531.26 Q1236.51 1528.47 1236.57 1525.25 L1238.31 1525.25 L1238.31 1538.05 L1248.26 1538.05 L1248.26 1540.22 L1238.31 1540.22 L1238.31 1559.55 Q1238.31 1567.06 1242.99 1567.06 Q1245 1567.06 1246.32 1565.02 Q1247.65 1562.95 1247.65 1559.28 L1247.65 1555.44 L1249.38 1555.44 L1249.38 1559.42 Q1249.38 1563.19 1247.65 1566.01 Q1245.91 1568.83 1242.48 1568.83 Q1241.23 1568.83 1239.97 1568.49 Q1238.75 1568.18 1237.12 1567.36 Q1235.52 1566.52 1234.5 1564.48 Q1233.52 1562.41 1233.52 1559.42 L1233.52 1540.22 L1227.61 1540.22 Z" fill="#000000" fill-rule="nonzero" fill-opacity="1" /><path clip-path="url(#clip580)" d="M1283.62 1585.44 L1283.62 1515.87 L1294.11 1515.87 L1294.11 1517.47 L1288.27 1517.47 L1288.27 1583.84 L1294.11 1583.84 L1294.11 1585.44 L1283.62 1585.44 Z" fill="#000000" fill-rule="nonzero" fill-opacity="1" /><path clip-path="url(#clip580)" d="M1298.02 1567.13 L1298.02 1557.96 Q1298.02 1557.17 1298.05 1556.9 Q1298.09 1556.63 1298.29 1556.43 Q1298.5 1556.22 1298.9 1556.22 Q1299.38 1556.22 1299.55 1556.43 Q1299.75 1556.63 1299.89 1557.41 Q1300.94 1562.2 1303.18 1564.75 Q1305.46 1567.26 1309.57 1567.26 Q1313.47 1567.26 1315.44 1565.53 Q1317.42 1563.8 1317.42 1560.94 Q1317.42 1555.85 1310.18 1554.56 Q1306 1553.71 1304.27 1553.17 Q1302.54 1552.59 1301.01 1551.33 Q1298.02 1548.89 1298.02 1545.42 Q1298.02 1541.96 1300.64 1539.41 Q1303.28 1536.86 1309.13 1536.86 Q1313.03 1536.86 1315.68 1538.83 Q1316.46 1538.22 1316.87 1537.71 Q1317.79 1536.86 1318.26 1536.86 Q1318.81 1536.86 1318.91 1537.24 Q1319.01 1537.58 1319.01 1538.56 L1319.01 1545.56 Q1319.01 1546.34 1318.98 1546.61 Q1318.94 1546.88 1318.74 1547.09 Q1318.54 1547.26 1318.09 1547.26 Q1317.31 1547.26 1317.28 1546.61 Q1316.74 1538.19 1309.13 1538.19 Q1305.02 1538.19 1303.18 1539.78 Q1301.35 1541.35 1301.35 1543.49 Q1301.35 1544.67 1301.89 1545.59 Q1302.47 1546.47 1303.18 1547.02 Q1303.93 1547.53 1305.29 1548.04 Q1306.65 1548.51 1307.46 1548.68 Q1308.31 1548.85 1309.91 1549.19 Q1315.48 1550.25 1317.82 1552.52 Q1320.74 1555.44 1320.74 1559.14 Q1320.74 1563.25 1317.96 1566.04 Q1315.17 1568.83 1309.57 1568.83 Q1305.05 1568.83 1301.89 1565.8 Q1301.48 1566.21 1301.18 1566.58 Q1300.87 1566.92 1300.74 1567.06 Q1300.64 1567.19 1300.6 1567.3 Q1300.57 1567.36 1300.5 1567.43 Q1299.11 1568.83 1298.77 1568.83 Q1298.22 1568.83 1298.12 1568.45 Q1298.02 1568.11 1298.02 1567.13 Z" fill="#000000" fill-rule="nonzero" fill-opacity="1" /><path clip-path="url(#clip580)" d="M1324.55 1583.84 L1330.39 1583.84 L1330.39 1517.47 L1324.55 1517.47 L1324.55 1515.87 L1335.04 1515.87 L1335.04 1585.44 L1324.55 1585.44 L1324.55 1583.84 Z" fill="#000000" fill-rule="nonzero" fill-opacity="1" /><polyline clip-path="url(#clip582)" style="stroke:#000000; stroke-linecap:round; stroke-linejoin:round; stroke-width:2; stroke-opacity:0.1; fill:none" points="209.894,1339.54 2352.76,1339.54 "/>
<polyline clip-path="url(#clip582)" style="stroke:#000000; stroke-linecap:round; stroke-linejoin:round; stroke-width:2; stroke-opacity:0.1; fill:none" points="209.894,1074.89 2352.76,1074.89 "/>
<polyline clip-path="url(#clip582)" style="stroke:#000000; stroke-linecap:round; stroke-linejoin:round; stroke-width:2; stroke-opacity:0.1; fill:none" points="209.894,810.248 2352.76,810.248 "/>
<polyline clip-path="url(#clip582)" style="stroke:#000000; stroke-linecap:round; stroke-linejoin:round; stroke-width:2; stroke-opacity:0.1; fill:none" points="209.894,545.603 2352.76,545.603 "/>
<polyline clip-path="url(#clip582)" style="stroke:#000000; stroke-linecap:round; stroke-linejoin:round; stroke-width:2; stroke-opacity:0.1; fill:none" points="209.894,280.959 2352.76,280.959 "/>
<polyline clip-path="url(#clip580)" style="stroke:#000000; stroke-linecap:round; stroke-linejoin:round; stroke-width:4; stroke-opacity:1; fill:none" points="209.894,1423.18 209.894,108.933 "/>
<polyline clip-path="url(#clip580)" style="stroke:#000000; stroke-linecap:round; stroke-linejoin:round; stroke-width:4; stroke-opacity:1; fill:none" points="209.894,1339.54 228.792,1339.54 "/>
<polyline clip-path="url(#clip580)" style="stroke:#000000; stroke-linecap:round; stroke-linejoin:round; stroke-width:4; stroke-opacity:1; fill:none" points="209.894,1074.89 228.792,1074.89 "/>
<polyline clip-path="url(#clip580)" style="stroke:#000000; stroke-linecap:round; stroke-linejoin:round; stroke-width:4; stroke-opacity:1; fill:none" points="209.894,810.248 228.792,810.248 "/>
<polyline clip-path="url(#clip580)" style="stroke:#000000; stroke-linecap:round; stroke-linejoin:round; stroke-width:4; stroke-opacity:1; fill:none" points="209.894,545.603 228.792,545.603 "/>
<polyline clip-path="url(#clip580)" style="stroke:#000000; stroke-linecap:round; stroke-linejoin:round; stroke-width:4; stroke-opacity:1; fill:none" points="209.894,280.959 228.792,280.959 "/>
<path clip-path="url(#clip580)" d="M147.659 1343.45 Q147.956 1343.75 147.956 1344.17 Q147.956 1344.59 147.659 1344.89 Q147.363 1345.18 146.943 1345.18 L115.273 1345.18 Q114.853 1345.18 114.557 1344.89 Q114.26 1344.59 114.26 1344.17 Q114.26 1343.75 114.557 1343.45 Q114.853 1343.16 115.273 1343.16 L146.943 1343.16 Q147.363 1343.16 147.659 1343.45 Z" fill="#000000" fill-rule="nonzero" fill-opacity="1" /><path clip-path="url(#clip580)" d="M152.896 1350 Q152.896 1348.49 153.761 1347.78 Q154.625 1347.06 155.737 1347.06 Q156.898 1347.06 157.713 1347.83 Q158.553 1348.57 158.553 1349.88 Q158.553 1351.28 157.565 1352.07 Q156.602 1352.86 155.218 1352.67 Q156.429 1354.69 158.652 1355.61 Q160.9 1356.52 162.975 1356.52 Q165.149 1356.52 166.903 1354.64 Q168.682 1352.77 168.682 1348.17 Q168.682 1344.27 167.15 1342.02 Q165.643 1339.77 162.654 1339.77 L160.431 1339.77 Q159.665 1339.77 159.443 1339.7 Q159.22 1339.62 159.22 1339.2 Q159.22 1338.71 159.986 1338.61 Q160.752 1338.61 161.962 1338.46 Q164.902 1338.36 166.458 1335.82 Q167.866 1333.45 167.866 1330.06 Q167.866 1326.98 166.384 1325.69 Q164.927 1324.38 163.025 1324.38 Q161.246 1324.38 159.294 1325.12 Q157.343 1325.86 156.281 1327.52 Q159.418 1327.52 159.418 1330.06 Q159.418 1331.18 158.702 1331.92 Q158.01 1332.63 156.849 1332.63 Q155.737 1332.63 154.996 1331.94 Q154.255 1331.22 154.255 1330.01 Q154.255 1327.12 156.824 1325.12 Q159.418 1323.12 163.222 1323.12 Q166.977 1323.12 169.744 1325.1 Q172.535 1327.07 172.535 1330.11 Q172.535 1333.1 170.559 1335.55 Q168.583 1337.99 165.446 1339.01 Q169.299 1339.77 171.597 1342.39 Q173.894 1344.98 173.894 1348.17 Q173.894 1352.12 170.781 1355.04 Q167.669 1357.93 163.123 1357.93 Q158.924 1357.93 155.91 1355.66 Q152.896 1353.38 152.896 1350 Z" fill="#000000" fill-rule="nonzero" fill-opacity="1" /><path clip-path="url(#clip580)" d="M148.054 1078.81 Q148.351 1079.1 148.351 1079.52 Q148.351 1079.94 148.054 1080.24 Q147.758 1080.54 147.338 1080.54 L115.668 1080.54 Q115.248 1080.54 114.952 1080.24 Q114.655 1079.94 114.655 1079.52 Q114.655 1079.1 114.952 1078.81 Q115.248 1078.51 115.668 1078.51 L147.338 1078.51 Q147.758 1078.51 148.054 1078.81 Z" fill="#000000" fill-rule="nonzero" fill-opacity="1" /><path clip-path="url(#clip580)" d="M153.687 1092.17 Q153.687 1091.26 153.761 1090.99 Q153.86 1090.72 154.255 1090.3 L163.963 1079.48 Q169.275 1073.5 169.275 1068.28 Q169.275 1064.9 167.496 1062.48 Q165.742 1060.06 162.506 1060.06 Q160.283 1060.06 158.405 1061.42 Q156.528 1062.78 155.663 1065.2 Q155.811 1065.15 156.33 1065.15 Q157.59 1065.15 158.282 1065.94 Q158.998 1066.73 158.998 1067.79 Q158.998 1069.15 158.109 1069.82 Q157.244 1070.46 156.379 1070.46 Q156.034 1070.46 155.564 1070.38 Q155.12 1070.31 154.403 1069.62 Q153.687 1068.9 153.687 1067.64 Q153.687 1064.11 156.355 1061.29 Q159.047 1058.48 163.148 1058.48 Q167.792 1058.48 170.831 1061.24 Q173.894 1063.99 173.894 1068.28 Q173.894 1069.79 173.425 1071.17 Q172.98 1072.53 172.362 1073.6 Q171.77 1074.66 170.139 1076.36 Q168.509 1078.07 167.199 1079.28 Q165.89 1080.49 162.95 1083.06 L157.59 1088.27 L166.705 1088.27 Q171.152 1088.27 171.498 1087.87 Q171.992 1087.16 172.609 1083.38 L173.894 1083.38 L172.461 1092.17 L153.687 1092.17 Z" fill="#000000" fill-rule="nonzero" fill-opacity="1" /><path clip-path="url(#clip580)" d="M149.586 814.163 Q149.882 814.46 149.882 814.88 Q149.882 815.3 149.586 815.596 Q149.29 815.893 148.87 815.893 L117.2 815.893 Q116.78 815.893 116.483 815.596 Q116.187 815.3 116.187 814.88 Q116.187 814.46 116.483 814.163 Q116.78 813.867 117.2 813.867 L148.87 813.867 Q149.29 813.867 149.586 814.163 Z" fill="#000000" fill-rule="nonzero" fill-opacity="1" /><path clip-path="url(#clip580)" d="M157.195 798.65 L157.195 797.069 Q163.272 797.069 166.409 793.833 Q167.274 793.833 167.422 794.03 Q167.57 794.228 167.57 795.142 L167.57 823.526 Q167.57 825.033 168.311 825.502 Q169.052 825.972 172.288 825.972 L173.894 825.972 L173.894 827.528 Q172.115 827.38 165.693 827.38 Q159.27 827.38 157.516 827.528 L157.516 825.972 L159.121 825.972 Q162.308 825.972 163.074 825.527 Q163.84 825.058 163.84 823.526 L163.84 797.316 Q161.197 798.65 157.195 798.65 Z" fill="#000000" fill-rule="nonzero" fill-opacity="1" /><path clip-path="url(#clip580)" d="M152.6 546.703 Q152.6 539.267 154.477 535.215 Q157.096 529.188 163.272 529.188 Q164.581 529.188 165.94 529.558 Q167.323 529.904 169.052 531.263 Q170.806 532.622 171.868 534.845 Q173.894 539.143 173.894 546.703 Q173.894 554.089 172.017 558.116 Q169.275 563.995 163.222 563.995 Q160.95 563.995 158.627 562.834 Q156.33 561.673 154.872 558.881 Q152.6 554.706 152.6 546.703 M156.799 546.085 Q156.799 553.718 157.343 556.757 Q157.96 560.042 159.64 561.475 Q161.345 562.883 163.222 562.883 Q165.248 562.883 166.928 561.376 Q168.632 559.845 169.151 556.559 Q169.719 553.323 169.694 546.085 Q169.694 539.045 169.2 536.228 Q168.533 532.943 166.755 531.634 Q165.001 530.3 163.222 530.3 Q162.555 530.3 161.839 530.497 Q161.147 530.695 160.134 531.263 Q159.121 531.831 158.331 533.239 Q157.565 534.647 157.195 536.772 Q156.799 539.514 156.799 546.085 Z" fill="#000000" fill-rule="nonzero" fill-opacity="1" /><path clip-path="url(#clip580)" d="M157.195 269.36 L157.195 267.779 Q163.272 267.779 166.409 264.543 Q167.274 264.543 167.422 264.741 Q167.57 264.938 167.57 265.852 L167.57 294.237 Q167.57 295.743 168.311 296.213 Q169.052 296.682 172.288 296.682 L173.894 296.682 L173.894 298.239 Q172.115 298.09 165.693 298.09 Q159.27 298.09 157.516 298.239 L157.516 296.682 L159.121 296.682 Q162.308 296.682 163.074 296.238 Q163.84 295.768 163.84 294.237 L163.84 268.026 Q161.197 269.36 157.195 269.36 Z" fill="#000000" fill-rule="nonzero" fill-opacity="1" /><path clip-path="url(#clip580)" d="M51.3344 896.66 Q42.3671 896.66 33.4677 887.217 Q32.6865 886.368 32.6865 885.892 L32.6865 885.824 Q32.6865 885.417 33.9433 884.432 Q35.2 883.447 35.6756 883.447 Q36.0153 883.447 37.4758 884.703 Q38.9025 885.96 40.6687 887.421 Q42.435 888.881 45.3222 890.138 Q48.2094 891.395 51.1986 891.395 Q55.5124 891.395 58.4675 888.779 Q61.4227 886.164 61.4227 882.699 Q61.4227 880.254 59.3167 878.555 Q57.1768 876.857 56.1578 876.857 Q56.0898 876.857 54.833 877.197 Q53.5763 877.536 51.8779 877.91 Q50.1456 878.25 48.9228 878.25 Q45.8657 878.25 45.8317 875.804 Q45.8317 873.426 48.9907 873.426 Q50.3833 873.426 52.0477 873.766 Q53.7121 874.072 54.867 874.411 Q55.9879 874.751 56.1578 874.751 Q57.2787 874.751 59.3507 873.019 Q61.4227 871.286 61.4227 868.705 Q61.4227 865.716 58.6034 862.964 Q55.7841 860.213 51.1306 860.213 Q42.3671 860.213 35.4718 866.633 Q34.3509 867.618 34.0112 867.516 Q33.5357 867.448 33.128 867.108 Q32.6865 866.769 32.6865 866.361 Q32.6865 865.92 34.1471 864.391 Q38.5968 859.941 42.6388 857.496 Q46.6809 855.016 51.4024 855.016 Q56.8371 855.016 60.8112 858.005 Q64.7854 860.994 64.7854 865.716 Q64.7854 871.49 57.958 875.804 Q61.1509 877.536 62.9851 880.22 Q64.7854 882.903 64.7854 885.892 Q64.7854 890.614 60.7773 893.637 Q56.7692 896.66 51.3344 896.66 Z" fill="#000000" fill-rule="nonzero" fill-opacity="1" /><path clip-path="url(#clip580)" d="M81.3953 822.204 L11.8307 822.204 L11.8307 811.708 L13.4271 811.708 L13.4271 817.55 L79.7989 817.55 L79.7989 811.708 L81.3953 811.708 L81.3953 822.204 Z" fill="#000000" fill-rule="nonzero" fill-opacity="1" /><path clip-path="url(#clip580)" d="M64.0042 808.175 L61.8642 808.175 Q61.8642 804.473 61.4227 803.624 Q60.9471 802.741 58.7053 802.741 L40.0573 802.741 Q37.4758 802.741 36.8305 803.658 Q36.1851 804.541 36.1851 808.175 L34.0112 808.175 L33.2639 798.495 L40.9065 798.495 Q37.9174 797.51 35.6076 795.438 Q33.2639 793.332 33.2639 789.935 Q33.2639 787.693 34.5207 786.267 Q35.7775 784.806 37.5098 784.806 Q39.0383 784.806 39.8196 785.757 Q40.5668 786.674 40.5668 787.795 Q40.5668 789.052 39.7856 789.935 Q38.9704 790.784 37.5777 790.784 Q36.7286 790.784 36.0832 790.411 Q35.4038 790.003 35.1661 789.697 Q34.9283 789.392 34.8604 789.188 Q34.7924 789.324 34.7924 789.935 Q34.7924 793.773 38.6307 795.981 Q42.435 798.155 47.8698 798.155 L58.5694 798.155 Q60.5735 798.155 61.2189 797.34 Q61.8642 796.491 61.8642 792.856 L61.8642 791.396 L64.0042 791.396 Q63.8004 794.181 63.8004 800.227 Q63.8004 801.076 63.8343 802.401 Q63.8683 803.726 63.9362 805.458 Q64.0042 807.19 64.0042 808.175 Z" fill="#000000" fill-rule="nonzero" fill-opacity="1" /><path clip-path="url(#clip580)" d="M57.3806 780.017 Q51.4703 780.017 48.3453 773.053 Q46.3413 768.875 45.8317 760.248 L43.2842 760.248 Q38.9704 760.248 36.6946 762.524 Q34.3848 764.765 34.3848 767.619 Q34.3848 772.714 37.5777 775.159 Q37.6457 773.087 38.6987 772.34 Q39.7177 771.593 40.7706 771.593 Q42.1633 771.593 43.0804 772.476 Q43.9636 773.325 43.9636 774.786 Q43.9636 776.178 43.1144 777.095 Q42.2312 778.013 40.7027 778.013 Q37.306 778.013 35.0642 774.956 Q32.8223 771.865 32.8223 767.483 Q32.8223 761.776 36.6606 757.972 Q37.8495 756.783 39.378 756.206 Q40.9065 755.594 41.9255 755.526 Q42.9106 755.458 44.8807 755.458 L58.7732 755.458 Q59.1808 755.458 59.8602 755.323 Q60.5395 755.187 61.4227 754.575 Q62.2718 753.93 62.2718 752.877 Q62.2718 750.363 57.8221 750.397 L53.9159 750.397 L53.9159 748.631 L57.8221 748.631 Q61.5246 748.631 62.9851 750.601 Q64.4118 752.537 64.4118 754.338 Q64.4118 756.647 62.7134 758.108 Q61.0151 759.568 58.7053 759.772 Q61.3547 760.825 63.087 763.237 Q64.7854 765.615 64.7854 768.875 Q64.7854 771.389 64.14 773.767 Q63.5286 776.11 61.7963 778.081 Q60.03 780.017 57.3806 780.017 M57.3126 774.65 Q59.8941 774.65 61.5585 772.816 Q63.2229 770.981 63.2229 768.4 Q63.2229 765.479 60.9811 762.863 Q58.7053 760.248 54.2556 760.248 L47.2923 760.248 Q47.5641 767.958 50.6551 771.321 Q53.7121 774.65 57.3126 774.65 Z" fill="#000000" fill-rule="nonzero" fill-opacity="1" /><path clip-path="url(#clip580)" d="M49.0586 745.778 Q42.435 745.778 37.8495 741.158 Q33.2639 736.539 33.2639 730.289 Q33.2639 724.99 37.5777 721.525 L22.5303 721.525 Q19.9488 721.525 19.3034 722.442 Q18.6581 723.326 18.6581 726.926 L16.4842 726.926 L15.7369 716.906 L57.958 716.906 Q60.5395 716.906 61.2189 716.023 Q61.8642 715.105 61.8642 711.505 L64.0042 711.505 L64.7854 721.729 L60.1659 721.729 Q64.7514 725.33 64.7854 731.036 Q64.7854 737.014 60.1998 741.396 Q55.6143 745.778 49.0586 745.778 M49.1266 740.003 Q55.5803 740.003 58.7732 737.999 Q63.2229 735.214 63.2229 730.696 Q63.2229 725.533 58.3656 722.476 Q57.1768 721.695 55.7841 721.729 L41.5179 721.729 Q40.1253 721.729 38.9704 722.476 Q34.7924 725.33 34.7924 729.983 Q34.7924 734.84 39.2421 737.863 Q42.5709 740.003 49.1266 740.003 Z" fill="#000000" fill-rule="nonzero" fill-opacity="1" /><path clip-path="url(#clip580)" d="M80.4103 705.595 Q80.0706 705.595 79.3233 705.323 L13.6989 680.765 Q13.6309 680.765 13.2573 680.595 Q12.8836 680.425 12.6459 680.323 Q12.3741 680.221 12.1703 680.017 Q11.9665 679.78 11.9665 679.508 Q11.9665 678.829 12.8157 678.829 Q12.8836 678.829 13.6989 679.032 L79.3913 703.659 Q80.5801 704.066 80.9198 704.338 Q81.2595 704.576 81.2595 704.983 Q81.2595 705.595 80.4103 705.595 Z" fill="#000000" fill-rule="nonzero" fill-opacity="1" /><path clip-path="url(#clip580)" d="M63.087 672.477 L53.9159 672.477 Q53.1347 672.477 52.8629 672.443 Q52.5912 672.409 52.3874 672.205 Q52.1836 672.001 52.1836 671.594 Q52.1836 671.118 52.3874 670.948 Q52.5912 670.744 53.3724 670.609 Q58.1618 669.556 60.7093 667.314 Q63.2229 665.038 63.2229 660.928 Q63.2229 657.022 61.4906 655.052 Q59.7583 653.082 56.905 653.082 Q51.81 653.082 50.5192 660.317 Q49.67 664.494 49.1266 666.227 Q48.5491 667.959 47.2923 669.488 Q44.8467 672.477 41.3821 672.477 Q37.9174 672.477 35.3699 669.861 Q32.8223 667.212 32.8223 661.37 Q32.8223 657.463 34.7924 654.814 Q34.181 654.033 33.6715 653.625 Q32.8223 652.708 32.8223 652.232 Q32.8223 651.689 33.196 651.587 Q33.5357 651.485 34.5207 651.485 L41.5179 651.485 Q42.2992 651.485 42.5709 651.519 Q42.8426 651.553 43.0464 651.757 Q43.2163 651.961 43.2163 652.402 Q43.2163 653.183 42.5709 653.217 Q34.1471 653.761 34.1471 661.37 Q34.1471 665.48 35.7435 667.314 Q37.306 669.148 39.4459 669.148 Q40.6348 669.148 41.5519 668.605 Q42.435 668.027 42.9785 667.314 Q43.488 666.566 43.9975 665.208 Q44.4731 663.849 44.6429 663.034 Q44.8127 662.185 45.1524 660.588 Q46.2054 655.018 48.4812 652.674 Q51.4024 649.753 55.1048 649.753 Q59.2148 649.753 62.0001 652.538 Q64.7854 655.323 64.7854 660.928 Q64.7854 665.446 61.7623 668.605 Q62.1699 669.012 62.5436 669.318 Q62.8832 669.624 63.0191 669.759 Q63.155 669.861 63.2569 669.895 Q63.3248 669.929 63.3927 669.997 Q64.7854 671.39 64.7854 671.729 Q64.7854 672.273 64.4118 672.375 Q64.0721 672.477 63.087 672.477 Z" fill="#000000" fill-rule="nonzero" fill-opacity="1" /><path clip-path="url(#clip580)" d="M79.7989 645.948 L79.7989 640.106 L13.4271 640.106 L13.4271 645.948 L11.8307 645.948 L11.8307 635.453 L81.3953 635.453 L81.3953 645.948 L79.7989 645.948 Z" fill="#000000" fill-rule="nonzero" fill-opacity="1" /><g clip-path="url(#clip580)">
<text style="fill:#000000; fill-opacity:1; font-family:Century Schoolbook,Georgia,serif; font-size:66px; font-weight:bold; text-anchor:middle;" transform="rotate(0, 1281.32, 57.6)" x="1281.32" y="57.6">Event instantaneous frequency</text>
</g>
<polyline clip-path="url(#clip582)" style="stroke:#ba3d3a; stroke-linecap:round; stroke-linejoin:round; stroke-width:8; stroke-opacity:1; fill:none" points="270.541,366.005 272.692,361.811 274.842,358.141 276.993,355.121 279.144,352.831 281.294,351.3 283.445,350.512 285.595,350.415 287.746,350.923 289.897,351.933 292.047,353.331 294.198,355.005 296.348,356.844 298.499,358.755 300.65,360.656 302.8,362.486 304.951,364.196 307.101,365.76 309.252,367.154 311.403,368.376 313.553,369.418 315.704,370.29 317.854,370.994 320.005,371.544 322.156,371.942 324.306,372.204 326.457,372.333 328.607,372.341 330.758,372.229 332.909,372.007 335.059,371.674 337.21,371.234 339.36,370.685 341.511,370.031 343.662,369.264 345.812,368.388 347.963,367.399 350.113,366.297 352.264,365.077 354.415,363.736 356.565,362.266 358.716,360.656 360.866,358.892 363.017,356.954 365.168,354.827 367.318,352.493 369.469,349.941 371.619,347.16 373.77,344.15 375.921,340.91 378.071,337.45 380.222,333.764 382.373,329.871 384.523,325.767 386.674,321.473 388.824,317 390.975,312.389 393.126,307.671 395.276,302.919 397.427,298.191 399.577,293.581 401.728,289.154 403.879,285.009 406.029,281.199 408.18,277.796 410.33,274.827 412.481,272.329 414.632,270.298 416.782,268.737 418.933,267.625 421.083,266.943 423.234,266.669 425.385,266.779 427.535,267.264 429.686,268.103 431.836,269.301 433.987,270.84 436.138,272.73 438.288,274.945 440.439,277.489 442.589,280.316 444.74,283.419 446.891,286.734 449.041,290.237 451.192,293.85 453.342,297.545 455.493,301.245 457.644,304.915 459.794,308.492 461.945,311.946 464.095,315.236 466.246,318.344 468.397,321.249 470.547,323.946 472.698,326.433 474.848,328.712 476.999,330.783 479.15,332.639 481.3,334.274 483.451,335.663 485.602,336.786 487.752,337.605 489.903,338.099 492.053,338.237 494.204,338.025 496.355,337.469 498.505,336.631 500.656,335.571 502.806,334.413 504.957,333.271 507.108,332.313 509.258,331.684 511.409,331.568 513.559,332.113 515.71,333.499 517.861,335.868 520.011,339.388 522.162,344.195 524.312,350.474 526.463,358.386 528.614,368.161 530.764,380.029 532.915,394.311 535.065,411.335 537.216,431.512 539.367,455.176 541.517,482.563 543.668,513.464 545.818,546.934 547.969,580.729 550.12,611.138 552.27,633.35 554.421,642.972 556.571,637.951 558.722,619.639 560.873,592.057 563.023,559.948 565.174,527.232 567.324,496.333 569.475,468.43 571.626,443.843 573.776,422.498 575.927,404.113 578.077,388.395 580.228,375.053 582.379,363.851 584.529,354.573 586.68,347.047 588.83,341.105 590.981,336.611 593.132,333.414 595.282,331.39 597.433,330.399 599.584,330.319 601.734,331.009 603.885,332.359 606.035,334.235 608.186,336.539 610.337,339.155 612.487,342.011 614.638,345.014 616.788,348.124 618.939,351.283 621.09,354.486 623.24,357.704 625.391,360.963 627.541,364.261 629.692,367.643 631.843,371.125 633.993,374.762 636.144,378.567 638.294,382.587 640.445,386.814 642.596,391.269 644.746,395.911 646.897,400.714 649.047,405.594 651.198,410.481 653.349,415.247 655.499,419.782 657.65,423.928 659.8,427.55 661.951,430.485 664.102,432.609 666.252,433.802 668.403,434.004 670.553,433.189 672.704,431.396 674.855,428.711 677.005,425.267 679.156,421.227 681.306,416.766 683.457,412.064 685.608,407.263 687.758,402.507 689.909,397.879 692.059,393.461 694.21,389.291 696.361,385.431 698.511,381.912 700.662,378.833 702.813,376.289 704.963,374.489 707.114,373.675 709.264,374.283 711.415,376.859 713.566,382.345 715.716,392.127 717.867,408.731 720.017,436.638 722.168,484.993 724.319,573.246 726.469,743.54 728.62,1053.3 730.77,1385.98 732.921,1376.5 735.072,1037.33 737.222,734.587 739.373,569.716 741.523,483.835 743.674,436.337 745.825,408.2 747.975,390.777 750.126,379.58 752.276,372.272 754.427,367.328 756.578,363.84 758.728,361.115 760.879,358.832 763.029,356.856 765.18,355.307 767.331,354.306 769.481,353.914 771.632,353.888 773.782,353.768 775.933,352.946 778.084,351.006 780.234,347.901 782.385,344.082 784.535,340.272 786.686,337.158 788.837,334.986 790.987,333.382 793.138,331.398 795.288,327.885 797.439,321.946 799.59,313.338 801.74,302.606 803.891,290.916 806.041,279.696 808.192,270.247 810.343,263.497 812.493,259.903 814.644,259.511 816.795,262.032 818.945,266.972 821.096,273.706 823.246,281.59 825.397,290 827.548,298.422 829.698,306.455 831.849,313.854 833.999,320.495 836.15,326.366 838.301,331.506 840.451,335.996 842.602,339.91 844.752,343.331 846.903,346.314 849.054,348.92 851.204,351.182 853.355,353.136 855.505,354.811 857.656,356.249 859.807,357.452 861.957,358.441 864.108,359.227 866.258,359.83 868.409,360.265 870.56,360.53 872.71,360.63 874.861,360.573 877.011,360.356 879.162,359.977 881.313,359.438 883.463,358.75 885.614,357.948 887.764,357.076 889.915,356.194 892.066,355.338 894.216,354.52 896.367,353.692 898.517,352.781 900.668,351.687 902.819,350.373 904.969,348.875 907.12,347.361 909.27,346.071 911.421,345.269 913.572,345.087 915.722,345.458 917.873,346.014 920.024,346.162 922.174,345.181 924.325,342.465 926.475,337.691 928.626,330.974 930.777,322.822 932.927,314.041 935.078,305.507 937.228,298.013 939.379,292.119 941.53,288.136 943.68,286.125 945.831,285.953 947.981,287.353 950.132,289.977 952.283,293.443 954.433,297.371 956.584,301.429 958.734,305.323 960.885,308.842 963.036,311.82 965.186,314.172 967.337,315.831 969.487,316.797 971.638,317.044 973.789,316.6 975.939,315.43 978.09,313.545 980.24,310.89 982.391,307.481 984.542,303.267 986.692,298.274 988.843,292.43 990.993,285.708 993.144,277.96 995.295,269.095 997.445,258.979 999.596,247.635 1001.75,235.148 1003.9,221.801 1006.05,207.962 1008.2,194.094 1010.35,180.771 1012.5,168.572 1014.65,158.292 1016.8,150.606 1018.95,146.4 1021.1,146.128 1023.25,150.218 1025.4,158.399 1027.55,170.274 1029.7,184.899 1031.85,201.365 1034.01,218.589 1036.16,235.694 1038.31,251.936 1040.46,266.8 1042.61,280.016 1044.76,291.434 1046.91,301.104 1049.06,309.044 1051.21,315.406 1053.36,320.243 1055.51,323.741 1057.66,325.994 1059.81,327.254 1061.96,327.688 1064.11,327.599 1066.26,327.173 1068.42,326.686 1070.57,326.265 1072.72,326.092 1074.87,326.202 1077.02,326.677 1079.17,327.475 1081.32,328.607 1083.47,329.996 1085.62,331.619 1087.77,333.391 1089.92,335.285 1092.07,337.226 1094.22,339.182 1096.37,341.097 1098.52,342.946 1100.67,344.7 1102.82,346.353 1104.98,347.896 1107.13,349.306 1109.28,350.55 1111.43,351.576 1113.58,352.372 1115.73,352.952 1117.88,353.411 1120.03,353.813 1122.18,354.193 1124.33,354.389 1126.48,354.12 1128.63,352.971 1130.78,350.756 1132.93,347.711 1135.08,344.796 1137.23,343.197 1139.39,343.381 1141.54,343.612 1143.69,339.923 1145.84,327.635 1147.99,304.027 1150.14,270.059 1152.29,231.183 1154.44,195.145 1156.59,168.657 1158.74,155.61 1160.89,158.04 1163.04,175.798 1165.19,206.526 1167.34,245.368 1169.49,286.406 1171.64,321.946 1173.79,347.179 1175.95,362.201 1178.1,361.271 1180.25,352.321 1182.4,349.842 1184.55,349.875 1186.7,349.576 1188.85,353.147 1191,357.555 1193.15,360.963 1195.3,364.687 1197.45,367.846 1199.6,370.964 1201.75,373.838 1203.9,376.585 1206.05,379.141 1208.2,381.513 1210.36,383.625 1212.51,385.468 1214.66,386.994 1216.81,388.189 1218.96,389.017 1221.11,389.49 1223.26,389.633 1225.41,389.494 1227.56,389.117 1229.71,388.558 1231.86,387.879 1234.01,387.129 1236.16,386.355 1238.31,385.574 1240.46,384.812 1242.61,384.065 1244.76,383.343 1246.92,382.622 1249.07,381.909 1251.22,381.177 1253.37,380.436 1255.52,379.664 1257.67,378.879 1259.82,378.07 1261.97,377.268 1264.12,376.469 1266.27,375.719 1268.42,375.025 1270.57,374.441 1272.72,373.984 1274.87,373.712 1277.02,373.641 1279.17,373.824 1281.32,374.269 1283.48,375.012 1285.63,376.041 1287.78,377.369 1289.93,378.958 1292.08,380.792 1294.23,382.808 1296.38,384.965 1298.53,387.183 1300.68,389.404 1302.83,391.543 1304.98,393.541 1307.13,395.324 1309.28,396.852 1311.43,398.078 1313.58,398.995 1315.73,399.598 1317.89,399.919 1320.04,399.992 1322.19,399.883 1324.34,399.657 1326.49,399.394 1328.64,399.171 1330.79,399.066 1332.94,399.148 1335.09,399.479 1337.24,400.111 1339.39,401.083 1341.54,402.425 1343.69,404.156 1345.84,406.292 1347.99,408.832 1350.14,411.78 1352.29,415.126 1354.45,418.867 1356.6,422.984 1358.75,427.467 1360.9,432.286 1363.05,437.423 1365.2,442.835 1367.35,448.481 1369.5,454.294 1371.65,460.203 1373.8,466.097 1375.95,471.858 1378.1,477.32 1380.25,482.309 1382.4,486.607 1384.55,490.007 1386.7,492.294 1388.86,493.301 1391.01,492.905 1393.16,491.077 1395.31,487.86 1397.46,483.407 1399.61,477.916 1401.76,471.657 1403.91,464.898 1406.06,457.917 1408.21,450.942 1410.36,444.181 1412.51,437.771 1414.66,431.826 1416.81,426.394 1418.96,421.511 1421.11,417.163 1423.26,413.337 1425.42,409.984 1427.57,407.073 1429.72,404.545 1431.87,402.359 1434.02,400.465 1436.17,398.831 1438.32,397.417 1440.47,396.201 1442.62,395.159 1444.77,394.281 1446.92,393.558 1449.07,392.989 1451.22,392.573 1453.37,392.316 1455.52,392.225 1457.67,392.301 1459.83,392.554 1461.98,392.985 1464.13,393.598 1466.28,394.386 1468.43,395.348 1470.58,396.464 1472.73,397.725 1474.88,399.101 1477.03,400.572 1479.18,402.099 1481.33,403.65 1483.48,405.176 1485.63,406.644 1487.78,408 1489.93,409.211 1492.08,410.223 1494.23,411.012 1496.39,411.536 1498.54,411.782 1500.69,411.727 1502.84,411.377 1504.99,410.726 1507.14,409.795 1509.29,408.591 1511.44,407.138 1513.59,405.447 1515.74,403.541 1517.89,401.423 1520.04,399.117 1522.19,396.63 1524.34,393.987 1526.49,391.206 1528.64,388.313 1530.8,385.326 1532.95,382.266 1535.1,379.152 1537.25,375.997 1539.4,372.82 1541.55,369.651 1543.7,366.527 1545.85,363.506 1548,360.662 1550.15,358.076 1552.3,355.837 1554.45,354.026 1556.6,352.713 1558.75,351.942 1560.9,351.739 1563.05,352.092 1565.2,352.974 1567.36,354.327 1569.51,356.082 1571.66,358.157 1573.81,360.471 1575.96,362.938 1578.11,365.49 1580.26,368.057 1582.41,370.594 1584.56,373.058 1586.71,375.424 1588.86,377.672 1591.01,379.796 1593.16,381.787 1595.31,383.648 1597.46,385.376 1599.61,386.977 1601.76,388.448 1603.92,389.793 1606.07,391.008 1608.22,392.095 1610.37,393.051 1612.52,393.876 1614.67,394.569 1616.82,395.131 1618.97,395.564 1621.12,395.871 1623.27,396.058 1625.42,396.132 1627.57,396.1 1629.72,395.97 1631.87,395.753 1634.02,395.456 1636.17,395.087 1638.33,394.655 1640.48,394.164 1642.63,393.619 1644.78,393.024 1646.93,392.378 1649.08,391.681 1651.23,390.93 1653.38,390.122 1655.53,389.249 1657.68,388.307 1659.83,387.285 1661.98,386.174 1664.13,384.961 1666.28,383.636 1668.43,382.184 1670.58,380.593 1672.73,378.849 1674.89,376.939 1677.04,374.842 1679.19,372.529 1681.34,369.948 1683.49,367.024 1685.64,363.657 1687.79,359.738 1689.94,355.166 1692.09,349.898 1694.24,343.975 1696.39,337.564 1698.54,330.962 1700.69,324.576 1702.84,318.878 1704.99,314.338 1707.14,311.356 1709.3,310.205 1711.45,310.985 1713.6,313.611 1715.75,317.817 1717.9,323.193 1720.05,329.242 1722.2,335.452 1724.35,341.377 1726.5,346.697 1728.65,351.252 1730.8,355.033 1732.95,358.139 1735.1,360.718 1737.25,362.926 1739.4,364.89 1741.55,366.708 1743.7,368.439 1745.86,370.113 1748.01,371.74 1750.16,373.321 1752.31,374.85 1754.46,376.322 1756.61,377.729 1758.76,379.068 1760.91,380.332 1763.06,381.52 1765.21,382.629 1767.36,383.66 1769.51,384.61 1771.66,385.481 1773.81,386.274 1775.96,386.99 1778.11,387.631 1780.27,388.198 1782.42,388.692 1784.57,389.115 1786.72,389.469 1788.87,389.755 1791.02,389.973 1793.17,390.124 1795.32,390.21 1797.47,390.231 1799.62,390.189 1801.77,390.083 1803.92,389.916 1806.07,389.687 1808.22,389.398 1810.37,389.049 1812.52,388.642 1814.67,388.177 1816.83,387.654 1818.98,387.073 1821.13,386.435 1823.28,385.74 1825.43,384.992 1827.58,384.189 1829.73,383.33 1831.88,382.407 1834.03,381.414 1836.18,380.34 1838.33,379.181 1840.48,377.936 1842.63,376.608 1844.78,375.195 1846.93,373.688 1849.08,372.059 1851.24,370.275 1853.39,368.302 1855.54,366.126 1857.69,363.763 1859.84,361.257 1861.99,358.673 1864.14,356.078 1866.29,353.516 1868.44,351.012 1870.59,348.568 1872.74,346.187 1874.89,343.886 1877.04,341.712 1879.19,339.745 1881.34,338.086 1883.49,336.838 1885.64,336.089 1887.8,335.893 1889.95,336.263 1892.1,337.173 1894.25,338.562 1896.4,340.345 1898.55,342.428 1900.7,344.714 1902.85,347.114 1905,349.551 1907.15,351.96 1909.3,354.295 1911.45,356.518 1913.6,358.607 1915.75,360.543 1917.9,362.321 1920.05,363.934 1922.2,365.387 1924.36,366.677 1926.51,367.814 1928.66,368.802 1930.81,369.647 1932.96,370.357 1935.11,370.941 1937.26,371.405 1939.41,371.76 1941.56,372.014 1943.71,372.178 1945.86,372.263 1948.01,372.283 1950.16,372.251 1952.31,372.189 1954.46,372.117 1956.61,372.064 1958.77,372.062 1960.92,372.154 1963.07,372.388 1965.22,372.825 1967.37,373.539 1969.52,374.615 1971.67,376.153 1973.82,378.273 1975.97,381.114 1978.12,384.83 1980.27,389.603 1982.42,395.638 1984.57,403.165 1986.72,412.443 1988.87,423.757 1991.02,437.405 1993.17,453.676 1995.33,472.8 1997.48,494.853 1999.63,519.593 2001.78,546.24 2003.93,573.234 2006.08,598.125 2008.23,617.813 2010.38,629.279 2012.53,630.678 2014.68,622.089 2016.83,605.485 2018.98,583.867 2021.13,560.214 2023.28,536.81 2025.43,515.056 2027.58,495.619 2029.74,478.656 2031.89,464.05 2034.04,451.548 2036.19,440.846 2038.34,431.64 2040.49,423.662 2042.64,416.682 2044.79,410.526 2046.94,405.057 2049.09,400.174 2051.24,395.784 2053.39,391.798 2055.54,388.109 2057.69,384.612 2059.84,381.203 2061.99,377.806 2064.14,374.384 2066.3,370.946 2068.45,367.518 2070.6,364.133 2072.75,360.797 2074.9,357.476 2077.05,354.101 2079.2,350.587 2081.35,346.864 2083.5,342.908 2085.65,338.763 2087.8,334.545 2089.95,330.43 2092.1,326.619 2094.25,323.315 2096.4,320.688 2098.55,318.858 2100.71,317.884 2102.86,317.765 2105.01,318.445 2107.16,319.831 2109.31,321.803 2111.46,324.228 2113.61,326.971 2115.76,329.912 2117.91,332.939 2120.06,335.967 2122.21,338.923 2124.36,341.76 2126.51,344.441 2128.66,346.947 2130.81,349.265 2132.96,351.394 2135.11,353.334 2137.27,355.092 2139.42,356.676 2141.57,358.096 2143.72,359.361 2145.87,360.481 2148.02,361.469 2150.17,362.337 2152.32,363.096 2154.47,363.759 2156.62,364.342 2158.77,364.863 2160.92,365.342 2163.07,365.806 2165.22,366.289 2167.37,366.837 2169.52,367.508 2171.68,368.374 2173.83,369.53 2175.98,371.088 2178.13,373.186 2180.28,375.985 2182.43,379.676 2184.58,384.471 2186.73,390.616 2188.88,398.378 2191.03,408.047 2193.18,419.915 2195.33,434.261 2197.48,451.289 2199.63,471.056 2201.78,493.33 2203.93,517.426 2206.08,542.015 2208.24,565.053 2210.39,583.959 2212.54,596.164 2214.69,599.925 2216.84,594.963 2218.99,582.565 2221.14,565.033 2223.29,544.885 2225.44,524.221 2227.59,504.466 2229.74,486.402 2231.89,470.331 2234.04,456.259 2236.19,444.034 2238.34,433.438 2240.49,424.237 2242.64,416.215 2244.8,409.177 2246.95,402.958 2249.1,397.419 2251.25,392.445 2253.4,387.939 2255.55,383.827 2257.7,380.043 2259.85,376.541 2262,373.288 2264.15,370.257 2266.3,367.435 2268.45,364.815 2270.6,362.396 2272.75,360.181 2274.9,358.173 2277.05,356.378 2279.21,354.803 2281.36,353.455 2283.51,352.341 2285.66,351.465 2287.81,350.835 2289.96,350.452 2292.11,350.319 "/>
<polyline clip-path="url(#clip582)" style="stroke:#dfba53; stroke-linecap:round; stroke-linejoin:round; stroke-width:8; stroke-opacity:1; fill:none" stroke-dasharray="32, 20" points="1163.04,1385.98 1163.04,146.128 "/>
<polyline clip-path="url(#clip582)" style="stroke:#4a7945; stroke-linecap:round; stroke-linejoin:round; stroke-width:8; stroke-opacity:1; fill:none" stroke-dasharray="32, 20" points="442.589,1385.98 442.589,146.128 "/>
<polyline clip-path="url(#clip582)" style="stroke:#ba3d3a; stroke-linecap:round; stroke-linejoin:round; stroke-width:8; stroke-opacity:1; fill:none" stroke-dasharray="32, 20" points="2120.06,1385.98 2120.06,146.128 "/>
<path clip-path="url(#clip580)" d="M1965.36 1379.37 L2281.33 1379.37 L2281.33 1120.17 L1965.36 1120.17  Z" fill="#ffffff" fill-rule="evenodd" fill-opacity="1"/>
<polyline clip-path="url(#clip580)" style="stroke:#000000; stroke-linecap:round; stroke-linejoin:round; stroke-width:4; stroke-opacity:1; fill:none" points="1965.36,1379.37 2281.33,1379.37 2281.33,1120.17 1965.36,1120.17 1965.36,1379.37 "/>
<polyline clip-path="url(#clip580)" style="stroke:#ba3d3a; stroke-linecap:round; stroke-linejoin:round; stroke-width:8; stroke-opacity:1; fill:none" points="1989.17,1172.01 2132.03,1172.01 "/>
<path clip-path="url(#clip580)" d="M2184.18 1157.61 Q2184.18 1159.79 2183.08 1164 Q2182.63 1165.83 2182.02 1167.49 Q2181.44 1169.13 2180.57 1170.73 Q2179.71 1172.32 2178.7 1173.47 Q2177.69 1174.59 2176.38 1175.29 Q2175.07 1176 2173.62 1176 Q2171.32 1176 2169.96 1174.64 Q2168.63 1173.26 2168.21 1170.89 Q2165.07 1176 2160.87 1176 Q2158.27 1176 2157.06 1174.15 Q2155.84 1172.27 2155.84 1169.13 Q2155.84 1166.49 2156.54 1163.75 Q2157.88 1158.55 2160.48 1154.92 Q2160.83 1154.49 2161.34 1154.49 Q2161.65 1154.49 2161.79 1154.59 Q2162.21 1154.85 2162.21 1155.27 Q2162.21 1155.57 2161.98 1155.88 Q2160.34 1158.15 2159.26 1160.09 Q2158.18 1162.04 2157.69 1164 Q2157.31 1165.69 2157.31 1167.12 Q2157.31 1169.53 2158.34 1171.03 Q2159.4 1172.53 2161.48 1172.53 Q2163.4 1172.53 2165.09 1171.33 Q2166.78 1170.12 2168.02 1168.08 Q2168.09 1165.85 2168.63 1163.75 Q2169.12 1161.5 2170.27 1161.5 Q2171.18 1161.5 2171.18 1162.74 Q2171.18 1163.16 2170.99 1164 Q2170.48 1166.23 2169.54 1168.22 Q2169.87 1170.16 2171.09 1171.36 Q2172.3 1172.53 2174.25 1172.53 Q2176.05 1172.53 2177.64 1171.22 Q2179.26 1169.91 2180.29 1167.99 Q2181.35 1166.04 2181.93 1163.75 Q2182.12 1162.97 2182.12 1161.99 Q2182.12 1159.37 2180.29 1157.75 Q2179.78 1157.23 2179.78 1156.55 Q2179.78 1155.76 2180.43 1155.03 Q2181.21 1154.26 2182.12 1154.26 Q2182.8 1154.26 2183.22 1154.68 Q2184.18 1155.52 2184.18 1157.61 Z" fill="#000000" fill-rule="nonzero" fill-opacity="1" /><path clip-path="url(#clip580)" d="M2197.6 1168.19 Q2197.6 1168.91 2197.01 1169.45 Q2196.43 1169.98 2195.81 1169.98 Q2195.24 1169.98 2194.87 1169.64 Q2194.53 1169.27 2194.53 1168.77 Q2194.53 1168.09 2195.1 1167.54 Q2195.68 1166.98 2196.35 1166.98 Q2196.91 1166.98 2197.25 1167.32 Q2197.6 1167.67 2197.6 1168.19 M2197.89 1184.37 Q2197.89 1184.51 2197.74 1185.03 Q2197.6 1185.54 2197.24 1186.33 Q2196.89 1187.1 2196.42 1187.82 Q2195.94 1188.54 2195.15 1189.05 Q2194.38 1189.56 2193.5 1189.56 Q2192.3 1189.56 2191.51 1188.77 Q2190.74 1187.98 2190.74 1186.8 Q2190.74 1186.16 2191.51 1184.11 Q2193.74 1178.14 2193.83 1177.9 Q2194.2 1176.96 2194.2 1176.14 Q2194.2 1175.77 2194.12 1175.54 Q2194.04 1175.29 2193.87 1175.21 Q2193.71 1175.11 2193.61 1175.09 Q2193.53 1175.08 2193.37 1175.08 Q2192.4 1175.08 2191.5 1176.06 Q2190.6 1177.05 2189.97 1179.24 Q2189.84 1179.65 2189.76 1179.75 Q2189.68 1179.85 2189.43 1179.85 Q2189.02 1179.83 2189.02 1179.51 Q2189.02 1179.41 2189.14 1179.03 Q2189.25 1178.64 2189.46 1178.05 Q2189.68 1177.44 2190.05 1176.82 Q2190.43 1176.18 2190.89 1175.62 Q2191.37 1175.06 2192.04 1174.7 Q2192.71 1174.34 2193.46 1174.34 Q2194.69 1174.34 2195.45 1175.14 Q2196.22 1175.93 2196.22 1177.1 Q2196.22 1177.73 2195.78 1178.87 Q2195.24 1180.34 2195.04 1180.82 L2193.73 1184.34 Q2193.25 1185.62 2193.1 1186.01 Q2192.97 1186.39 2192.86 1186.85 Q2192.76 1187.29 2192.76 1187.7 Q2192.76 1188.28 2192.94 1188.54 Q2193.14 1188.8 2193.56 1188.8 Q2194.74 1188.8 2195.61 1187.64 Q2196.48 1186.46 2196.99 1184.65 Q2197.01 1184.6 2197.02 1184.52 Q2197.15 1184.11 2197.28 1184.06 Q2197.35 1184.05 2197.48 1184.05 Q2197.89 1184.05 2197.89 1184.37 Z" fill="#000000" fill-rule="nonzero" fill-opacity="1" /><path clip-path="url(#clip580)" d="M2218.95 1184.37 Q2218.95 1184.51 2218.8 1185.01 Q2218.66 1185.52 2218.3 1186.31 Q2217.95 1187.1 2217.48 1187.82 Q2217 1188.52 2216.21 1189.05 Q2215.44 1189.56 2214.56 1189.56 Q2213.38 1189.56 2212.59 1188.77 Q2211.8 1187.98 2211.8 1186.8 Q2211.8 1186.15 2212.15 1185.24 Q2214.33 1179.42 2214.33 1177.42 Q2214.33 1175.08 2212.51 1175.08 Q2211.61 1175.08 2210.75 1175.42 Q2209.92 1175.75 2209.34 1176.21 Q2208.77 1176.67 2208.24 1177.31 Q2207.74 1177.93 2207.47 1178.36 Q2207.23 1178.77 2207.03 1179.18 L2206.61 1180.85 Q2206.51 1181.31 2206.03 1183.1 L2205.29 1186.13 Q2204.77 1188.39 2204.65 1188.6 Q2204.49 1189.06 2204.13 1189.31 Q2203.77 1189.56 2203.41 1189.56 Q2203 1189.56 2202.72 1189.31 Q2202.44 1189.06 2202.44 1188.64 Q2202.44 1188.57 2202.49 1188.33 Q2202.54 1188.08 2202.62 1187.74 Q2202.7 1187.39 2202.74 1187.19 L2204.69 1179.44 Q2205.05 1178.03 2205.13 1177.59 Q2205.23 1177.13 2205.23 1176.62 Q2205.23 1175.08 2204.18 1175.08 Q2203.33 1175.08 2202.77 1176.1 Q2202.21 1177.11 2201.74 1179.08 Q2201.59 1179.62 2201.49 1179.73 Q2201.41 1179.85 2201.16 1179.85 Q2200.75 1179.83 2200.75 1179.51 Q2200.75 1179.42 2200.88 1178.88 Q2201.01 1178.34 2201.26 1177.57 Q2201.52 1176.78 2201.77 1176.26 Q2201.98 1175.87 2202.1 1175.69 Q2202.23 1175.49 2202.54 1175.11 Q2202.87 1174.72 2203.29 1174.54 Q2203.74 1174.34 2204.28 1174.34 Q2205.49 1174.34 2206.38 1175.13 Q2207.26 1175.9 2207.38 1177.26 Q2209.56 1174.34 2212.61 1174.34 Q2214.41 1174.34 2215.44 1175.29 Q2216.48 1176.24 2216.48 1177.93 Q2216.48 1178.32 2216.39 1178.83 Q2216.33 1179.32 2216.16 1179.95 Q2216.02 1180.57 2215.89 1181.05 Q2215.75 1181.52 2215.49 1182.29 Q2215.23 1183.05 2215.11 1183.37 Q2215 1183.7 2214.72 1184.47 Q2214.46 1185.23 2214.43 1185.31 Q2213.82 1186.83 2213.82 1187.7 Q2213.82 1188.28 2214 1188.54 Q2214.2 1188.8 2214.62 1188.8 Q2215.77 1188.8 2216.62 1187.67 Q2217.49 1186.52 2218.05 1184.65 Q2218.18 1184.24 2218.25 1184.15 Q2218.33 1184.05 2218.56 1184.05 Q2218.95 1184.05 2218.95 1184.37 Z" fill="#000000" fill-rule="nonzero" fill-opacity="1" /><path clip-path="url(#clip580)" d="M2233.99 1177.23 Q2233.99 1178.14 2233.53 1178.64 Q2233.07 1179.11 2232.45 1179.11 Q2231.94 1179.11 2231.66 1178.82 Q2231.4 1178.52 2231.4 1178.13 Q2231.4 1177.55 2231.86 1177.1 Q2232.34 1176.64 2233.02 1176.62 Q2232.8 1176.01 2232.19 1175.65 Q2231.58 1175.28 2231.04 1175.18 Q2230.52 1175.08 2229.99 1175.08 Q2228.96 1175.08 2228.17 1175.41 Q2227.38 1175.73 2226.99 1176.24 Q2226.6 1176.73 2226.42 1177.21 Q2226.24 1177.69 2226.24 1178.1 Q2226.24 1178.46 2226.32 1178.75 Q2226.42 1179.03 2226.65 1179.24 Q2226.88 1179.44 2227.04 1179.57 Q2227.22 1179.7 2227.61 1179.82 Q2228.01 1179.93 2228.17 1179.98 Q2228.34 1180.01 2228.79 1180.11 Q2229.75 1180.31 2230.17 1180.42 Q2230.6 1180.52 2231.16 1180.8 Q2231.73 1181.08 2232.16 1181.52 Q2233.19 1182.55 2233.19 1183.98 Q2233.19 1184.51 2233.01 1185.15 Q2232.84 1185.78 2232.37 1186.59 Q2231.89 1187.39 2231.17 1188.03 Q2230.45 1188.67 2229.2 1189.11 Q2227.97 1189.56 2226.43 1189.56 Q2224.29 1189.56 2222.96 1188.65 Q2221.63 1187.74 2221.63 1186.29 Q2221.63 1185.24 2222.2 1184.67 Q2222.78 1184.08 2223.52 1184.08 Q2224.07 1184.08 2224.42 1184.39 Q2224.76 1184.69 2224.76 1185.24 Q2224.76 1186 2224.15 1186.57 Q2223.55 1187.15 2222.65 1187.03 Q2223.42 1188.8 2226.47 1188.8 Q2227.61 1188.8 2228.5 1188.51 Q2229.4 1188.2 2229.89 1187.77 Q2230.4 1187.33 2230.73 1186.79 Q2231.06 1186.24 2231.16 1185.83 Q2231.27 1185.42 2231.27 1185.11 Q2231.27 1184.57 2231.06 1184.16 Q2230.84 1183.75 2230.55 1183.52 Q2230.27 1183.28 2229.73 1183.08 Q2229.2 1182.87 2228.83 1182.78 Q2228.45 1182.7 2227.78 1182.57 Q2227.47 1182.51 2227.27 1182.47 Q2227.07 1182.42 2226.66 1182.29 Q2226.27 1182.15 2225.99 1182 Q2225.73 1181.85 2225.38 1181.59 Q2225.04 1181.33 2224.83 1181.01 Q2224.61 1180.7 2224.47 1180.24 Q2224.32 1179.78 2224.32 1179.24 Q2224.32 1178.75 2224.47 1178.16 Q2224.63 1177.57 2225.04 1176.88 Q2225.47 1176.19 2226.07 1175.64 Q2226.68 1175.08 2227.7 1174.72 Q2228.73 1174.34 2229.99 1174.34 Q2231.83 1174.34 2232.91 1175.19 Q2233.99 1176.03 2233.99 1177.23 Z" fill="#000000" fill-rule="nonzero" fill-opacity="1" /><path clip-path="url(#clip580)" d="M2246.37 1175.08 Q2246.37 1175.54 2246.16 1175.65 Q2245.95 1175.75 2245.36 1175.75 L2242.21 1175.75 L2239.72 1185.65 Q2239.52 1186.52 2239.52 1187.26 Q2239.52 1188.08 2239.76 1188.44 Q2240.03 1188.8 2240.57 1188.8 Q2241.63 1188.8 2242.78 1187.83 Q2243.95 1186.87 2244.93 1184.51 Q2245.06 1184.19 2245.13 1184.13 Q2245.21 1184.05 2245.42 1184.05 Q2245.83 1184.05 2245.83 1184.37 Q2245.83 1184.49 2245.6 1185.01 Q2245.39 1185.54 2244.91 1186.31 Q2244.45 1187.08 2243.85 1187.8 Q2243.26 1188.52 2242.36 1189.05 Q2241.45 1189.56 2240.49 1189.56 Q2239.13 1189.56 2238.26 1188.69 Q2237.4 1187.82 2237.4 1186.46 Q2237.4 1186.01 2237.75 1184.6 Q2238.09 1183.18 2239.96 1175.75 L2236.99 1175.75 Q2236.58 1175.75 2236.42 1175.73 Q2236.27 1175.72 2236.16 1175.64 Q2236.06 1175.54 2236.06 1175.34 Q2236.06 1175.03 2236.19 1174.9 Q2236.32 1174.75 2236.49 1174.73 Q2236.67 1174.7 2237.08 1174.7 L2240.22 1174.7 L2241.54 1169.37 Q2241.67 1168.85 2241.99 1168.55 Q2242.34 1168.24 2242.54 1168.21 Q2242.73 1168.16 2242.88 1168.16 Q2243.32 1168.16 2243.59 1168.41 Q2243.85 1168.63 2243.85 1169.06 Q2243.85 1169.29 2242.47 1174.7 L2245.42 1174.7 Q2245.8 1174.7 2245.95 1174.72 Q2246.11 1174.73 2246.24 1174.82 Q2246.37 1174.9 2246.37 1175.08 Z" fill="#000000" fill-rule="nonzero" fill-opacity="1" /><polyline clip-path="url(#clip580)" style="stroke:#dfba53; stroke-linecap:round; stroke-linejoin:round; stroke-width:8; stroke-opacity:1; fill:none" stroke-dasharray="32, 20" points="1989.17,1223.85 2132.03,1223.85 "/>
<path clip-path="url(#clip580)" d="M2155.84 1249.38 Q2158.53 1249.38 2159.15 1249.04 Q2159.79 1248.72 2159.79 1247.11 L2159.79 1223.42 Q2159.79 1221.74 2159.15 1221.32 Q2158.53 1220.9 2155.84 1220.9 L2155.84 1219.32 L2163.13 1218.78 L2163.13 1222.11 Q2166.16 1218.78 2170.22 1218.78 Q2174.51 1218.78 2177.65 1222.11 Q2180.79 1225.44 2180.79 1230.21 Q2180.79 1235.03 2177.45 1238.36 Q2174.12 1241.7 2169.5 1241.7 Q2166.98 1241.7 2165.28 1240.42 Q2163.6 1239.11 2163.27 1238.14 L2163.27 1238.61 L2163.27 1247.11 Q2163.27 1248.74 2163.92 1249.06 Q2164.56 1249.38 2167.23 1249.38 L2167.23 1250.94 Q2161.92 1250.79 2161.52 1250.79 Q2161.03 1250.79 2155.84 1250.94 L2155.84 1249.38 M2163.27 1235.38 Q2163.27 1236.14 2163.37 1236.41 Q2163.5 1236.68 2163.99 1237.5 Q2165.99 1240.56 2169.25 1240.56 Q2169.28 1240.56 2169.3 1240.56 Q2172.19 1240.56 2174.39 1237.62 Q2176.59 1234.66 2176.59 1230.21 Q2176.59 1225.96 2174.59 1223 Q2172.59 1220.03 2169.82 1220.03 Q2167.84 1220.03 2166.12 1221.1 Q2164.39 1222.16 2163.27 1224.09 L2163.27 1235.38 Z" fill="#000000" fill-rule="nonzero" fill-opacity="1" /><path clip-path="url(#clip580)" d="M2185.31 1229.99 Q2185.31 1225.22 2188.37 1221.84 Q2191.44 1218.45 2195.83 1218.45 Q2200.28 1218.45 2202.58 1221.34 Q2204.9 1224.23 2204.9 1228.38 Q2204.9 1229.15 2204.7 1229.3 Q2204.5 1229.45 2203.64 1229.45 L2189.51 1229.45 Q2189.51 1234.61 2191.04 1237.03 Q2193.17 1240.42 2196.75 1240.42 Q2197.24 1240.42 2197.83 1240.32 Q2198.43 1240.22 2199.64 1239.8 Q2200.85 1239.35 2201.91 1238.19 Q2202.97 1237.03 2203.59 1235.2 Q2203.74 1234.49 2204.23 1234.51 Q2204.9 1234.51 2204.9 1235.1 Q2204.9 1235.55 2204.41 1236.56 Q2203.94 1237.55 2203.02 1238.74 Q2202.11 1239.92 2200.33 1240.81 Q2198.58 1241.7 2196.45 1241.7 Q2192 1241.7 2188.64 1238.34 Q2185.31 1234.96 2185.31 1229.99 M2189.56 1228.38 L2201.56 1228.38 Q2201.56 1227.32 2201.37 1226.14 Q2201.19 1224.95 2200.65 1223.32 Q2200.13 1221.67 2198.9 1220.63 Q2197.66 1219.59 2195.83 1219.59 Q2195.02 1219.59 2194.13 1219.94 Q2193.26 1220.28 2192.2 1221.12 Q2191.14 1221.96 2190.4 1223.86 Q2189.66 1225.77 2189.56 1228.38 Z" fill="#000000" fill-rule="nonzero" fill-opacity="1" /><path clip-path="url(#clip580)" d="M2208.48 1236.31 Q2208.48 1232.02 2213.55 1229.74 Q2216.58 1228.29 2222.86 1227.92 L2222.86 1226.06 Q2222.86 1222.93 2221.2 1221.27 Q2219.57 1219.59 2217.5 1219.59 Q2213.79 1219.59 2212.01 1221.91 Q2213.52 1221.96 2214.06 1222.73 Q2214.61 1223.47 2214.61 1224.23 Q2214.61 1225.25 2213.97 1225.91 Q2213.35 1226.56 2212.29 1226.56 Q2211.27 1226.56 2210.61 1225.94 Q2209.94 1225.3 2209.94 1224.19 Q2209.94 1221.71 2212.16 1220.08 Q2214.41 1218.45 2217.6 1218.45 Q2221.75 1218.45 2224.51 1221.25 Q2225.38 1222.11 2225.8 1223.22 Q2226.24 1224.33 2226.29 1225.07 Q2226.34 1225.79 2226.34 1227.22 L2226.34 1237.33 Q2226.34 1237.62 2226.44 1238.12 Q2226.54 1238.61 2226.98 1239.25 Q2227.45 1239.87 2228.22 1239.87 Q2230.05 1239.87 2230.02 1236.64 L2230.02 1233.79 L2231.31 1233.79 L2231.31 1236.64 Q2231.31 1239.33 2229.87 1240.39 Q2228.47 1241.43 2227.16 1241.43 Q2225.48 1241.43 2224.42 1240.19 Q2223.35 1238.96 2223.2 1237.28 Q2222.44 1239.2 2220.68 1240.46 Q2218.96 1241.7 2216.58 1241.7 Q2214.76 1241.7 2213.03 1241.23 Q2211.32 1240.79 2209.89 1239.53 Q2208.48 1238.24 2208.48 1236.31 M2212.38 1236.27 Q2212.38 1238.14 2213.72 1239.35 Q2215.05 1240.56 2216.93 1240.56 Q2219.05 1240.56 2220.96 1238.93 Q2222.86 1237.28 2222.86 1234.04 L2222.86 1228.98 Q2217.25 1229.18 2214.81 1231.42 Q2212.38 1233.65 2212.38 1236.27 Z" fill="#000000" fill-rule="nonzero" fill-opacity="1" /><path clip-path="url(#clip580)" d="M2233.06 1241.13 L2233.06 1239.58 Q2235.75 1239.58 2236.37 1239.25 Q2237.01 1238.91 2237.01 1237.28 L2237.01 1210.97 Q2237.01 1209.09 2236.35 1208.62 Q2235.7 1208.15 2233.06 1208.15 L2233.06 1206.57 L2240.35 1206.03 L2240.35 1230.31 L2247.49 1224.14 Q2248.6 1223.17 2248.6 1222.16 Q2248.6 1221 2247.14 1220.9 L2247.14 1219.32 Q2249.27 1219.47 2252.8 1219.47 Q2254.87 1219.47 2256.33 1219.32 L2256.33 1220.9 Q2253.15 1221.05 2249.96 1223.62 Q2249.24 1224.19 2247.54 1225.67 Q2245.86 1227.12 2245.86 1227.27 Q2245.86 1227.32 2245.91 1227.45 Q2245.98 1227.57 2246.08 1227.67 Q2246.18 1227.77 2246.18 1227.82 L2252.6 1236.88 Q2253.91 1238.71 2254.87 1239.16 Q2255.84 1239.58 2257.52 1239.58 L2257.52 1241.13 Q2255.34 1240.98 2253.1 1240.98 Q2251.89 1240.98 2247.64 1241.13 L2247.64 1239.58 Q2249.46 1239.58 2249.46 1238.39 Q2249.46 1237.57 2245.36 1231.92 Q2245.07 1231.52 2244.4 1230.66 Q2243.78 1229.74 2243.44 1229.3 L2240.2 1232.07 L2240.2 1237.28 Q2240.2 1238.91 2240.82 1239.25 Q2241.46 1239.58 2244.15 1239.58 L2244.15 1241.13 Q2241.11 1240.98 2238.59 1240.98 Q2238.08 1240.98 2233.06 1241.13 Z" fill="#000000" fill-rule="nonzero" fill-opacity="1" /><polyline clip-path="url(#clip580)" style="stroke:#4a7945; stroke-linecap:round; stroke-linejoin:round; stroke-width:8; stroke-opacity:1; fill:none" stroke-dasharray="32, 20" points="1989.17,1275.69 2132.03,1275.69 "/>
<path clip-path="url(#clip580)" d="M2155.84 1292.97 L2155.84 1291.42 Q2158.53 1291.42 2159.15 1291.09 Q2159.77 1290.75 2159.77 1289.12 L2159.77 1262.81 Q2159.77 1260.93 2159.1 1260.46 Q2158.46 1259.99 2155.84 1259.99 L2155.84 1258.41 L2163.1 1257.87 L2163.1 1289.12 Q2163.1 1290.75 2163.74 1291.09 Q2164.39 1291.42 2167.05 1291.42 L2167.05 1292.97 Q2166.44 1292.97 2165.15 1292.92 Q2163.87 1292.87 2162.93 1292.85 Q2161.99 1292.82 2161.45 1292.82 Q2160.85 1292.82 2155.84 1292.97 Z" fill="#000000" fill-rule="nonzero" fill-opacity="1" /><path clip-path="url(#clip580)" d="M2169.57 1259.99 L2169.57 1258.41 L2176.86 1257.87 L2176.86 1273.9 Q2179.8 1270.62 2183.8 1270.62 Q2188.15 1270.62 2191.34 1273.95 Q2194.52 1277.28 2194.52 1282.05 Q2194.52 1286.87 2191.19 1290.2 Q2187.85 1293.54 2183.23 1293.54 Q2179.04 1293.54 2176.61 1289.83 Q2174.84 1292.92 2174.79 1292.97 L2173.53 1292.97 L2173.53 1262.81 Q2173.53 1260.93 2172.86 1260.46 Q2172.19 1259.99 2169.57 1259.99 M2177.01 1287.22 Q2177.01 1288.28 2177.73 1289.34 Q2179.73 1292.4 2182.99 1292.4 Q2183.01 1292.4 2183.04 1292.4 Q2186.57 1292.4 2188.77 1289.17 Q2190.32 1286.75 2190.32 1282 Q2190.32 1277.31 2188.87 1274.96 Q2186.84 1271.73 2183.56 1271.73 Q2179.85 1271.73 2177.58 1274.96 Q2177.01 1275.78 2177.01 1276.79 L2177.01 1287.22 Z" fill="#000000" fill-rule="nonzero" fill-opacity="1" /><polyline clip-path="url(#clip580)" style="stroke:#ba3d3a; stroke-linecap:round; stroke-linejoin:round; stroke-width:8; stroke-opacity:1; fill:none" stroke-dasharray="32, 20" points="1989.17,1327.53 2132.03,1327.53 "/>
<path clip-path="url(#clip580)" d="M2155.84 1324.58 L2155.84 1323 L2163.27 1322.46 L2163.27 1339.25 Q2163.27 1340.46 2163.37 1341.18 Q2163.47 1341.87 2163.87 1342.69 Q2164.29 1343.5 2165.23 1343.87 Q2166.19 1344.24 2167.72 1344.24 Q2170.46 1344.24 2172.14 1342 Q2173.85 1339.75 2173.85 1336.41 L2173.85 1327.4 Q2173.85 1325.52 2173.18 1325.05 Q2172.51 1324.58 2169.89 1324.58 L2169.89 1323 L2177.33 1322.46 L2177.33 1340.41 Q2177.33 1342.29 2177.97 1342.79 Q2178.64 1343.26 2181.28 1343.26 L2181.28 1344.81 L2174 1345.38 L2174 1340.81 Q2171.87 1345.36 2167.47 1345.38 Q2165.25 1345.38 2163.72 1344.81 Q2162.21 1344.24 2161.45 1343.55 Q2160.68 1342.84 2160.26 1341.48 Q2159.87 1340.12 2159.82 1339.28 Q2159.77 1338.44 2159.77 1336.81 L2159.77 1329.22 Q2159.77 1325.79 2159.27 1325.2 Q2158.78 1324.58 2155.84 1324.58 Z" fill="#000000" fill-rule="nonzero" fill-opacity="1" /><path clip-path="url(#clip580)" d="M2183.68 1311.83 L2183.68 1310.25 L2190.97 1309.71 L2190.97 1325.74 Q2193.91 1322.46 2197.91 1322.46 Q2202.26 1322.46 2205.44 1325.79 Q2208.63 1329.12 2208.63 1333.89 Q2208.63 1338.71 2205.29 1342.04 Q2201.96 1345.38 2197.34 1345.38 Q2193.14 1345.38 2190.72 1341.67 Q2188.94 1344.76 2188.89 1344.81 L2187.63 1344.81 L2187.63 1314.65 Q2187.63 1312.77 2186.96 1312.3 Q2186.3 1311.83 2183.68 1311.83 M2191.11 1339.06 Q2191.11 1340.12 2191.83 1341.18 Q2193.83 1344.24 2197.09 1344.24 Q2197.12 1344.24 2197.14 1344.24 Q2200.68 1344.24 2202.87 1341.01 Q2204.43 1338.59 2204.43 1333.84 Q2204.43 1329.15 2202.97 1326.8 Q2200.95 1323.57 2197.66 1323.57 Q2193.96 1323.57 2191.68 1326.8 Q2191.11 1327.62 2191.11 1328.63 L2191.11 1339.06 Z" fill="#000000" fill-rule="nonzero" fill-opacity="1" /></svg>
