<?xml version="1.0" encoding="utf-8"?>
<svg xmlns="http://www.w3.org/2000/svg" xmlns:xlink="http://www.w3.org/1999/xlink" width="600" height="400" viewBox="0 0 2400 1600">
<defs>
  <clipPath id="clip660">
    <rect x="0" y="0" width="2400" height="1600"/>
  </clipPath>
</defs>
<path clip-path="url(#clip660)" d="M0 1600 L2400 1600 L2400 0 L0 0  Z" fill="#ffffff" fill-rule="evenodd" fill-opacity="1"/>
<defs>
  <clipPath id="clip661">
    <rect x="480" y="0" width="1681" height="1600"/>
  </clipPath>
</defs>
<path clip-path="url(#clip660)" d="M248.851 1423.18 L2352.76 1423.18 L2352.76 108.933 L248.851 108.933  Z" fill="#ffffff" fill-rule="evenodd" fill-opacity="1"/>
<defs>
  <clipPath id="clip662">
    <rect x="248" y="108" width="2105" height="1315"/>
  </clipPath>
</defs>
<polyline clip-path="url(#clip662)" style="stroke:#000000; stroke-linecap:round; stroke-linejoin:round; stroke-width:2; stroke-opacity:0.1; fill:none" points="624.397,1423.18 624.397,108.933 "/>
<polyline clip-path="url(#clip662)" style="stroke:#000000; stroke-linecap:round; stroke-linejoin:round; stroke-width:2; stroke-opacity:0.1; fill:none" points="1037.47,1423.18 1037.47,108.933 "/>
<polyline clip-path="url(#clip662)" style="stroke:#000000; stroke-linecap:round; stroke-linejoin:round; stroke-width:2; stroke-opacity:0.1; fill:none" points="1450.54,1423.18 1450.54,108.933 "/>
<polyline clip-path="url(#clip662)" style="stroke:#000000; stroke-linecap:round; stroke-linejoin:round; stroke-width:2; stroke-opacity:0.1; fill:none" points="1863.62,1423.18 1863.62,108.933 "/>
<polyline clip-path="url(#clip662)" style="stroke:#000000; stroke-linecap:round; stroke-linejoin:round; stroke-width:2; stroke-opacity:0.1; fill:none" points="2276.69,1423.18 2276.69,108.933 "/>
<polyline clip-path="url(#clip660)" style="stroke:#000000; stroke-linecap:round; stroke-linejoin:round; stroke-width:4; stroke-opacity:1; fill:none" points="248.851,1423.18 2352.76,1423.18 "/>
<polyline clip-path="url(#clip660)" style="stroke:#000000; stroke-linecap:round; stroke-linejoin:round; stroke-width:4; stroke-opacity:1; fill:none" points="624.397,1423.18 624.397,1404.28 "/>
<polyline clip-path="url(#clip660)" style="stroke:#000000; stroke-linecap:round; stroke-linejoin:round; stroke-width:4; stroke-opacity:1; fill:none" points="1037.47,1423.18 1037.47,1404.28 "/>
<polyline clip-path="url(#clip660)" style="stroke:#000000; stroke-linecap:round; stroke-linejoin:round; stroke-width:4; stroke-opacity:1; fill:none" points="1450.54,1423.18 1450.54,1404.28 "/>
<polyline clip-path="url(#clip660)" style="stroke:#000000; stroke-linecap:round; stroke-linejoin:round; stroke-width:4; stroke-opacity:1; fill:none" points="1863.62,1423.18 1863.62,1404.28 "/>
<polyline clip-path="url(#clip660)" style="stroke:#000000; stroke-linecap:round; stroke-linejoin:round; stroke-width:4; stroke-opacity:1; fill:none" points="2276.69,1423.18 2276.69,1404.28 "/>
<path clip-path="url(#clip660)" d="M576.349 1477.43 Q576.349 1475.92 577.164 1475.35 Q577.979 1474.76 578.844 1474.76 Q580.005 1474.76 580.672 1475.5 Q581.363 1476.22 581.363 1477.23 Q581.363 1478.24 580.672 1478.98 Q580.005 1479.7 578.844 1479.7 Q578.275 1479.7 577.979 1479.6 Q578.646 1481.92 580.672 1483.6 Q582.722 1485.28 585.415 1485.28 Q588.799 1485.28 590.825 1482 Q592.035 1479.87 592.035 1475.06 Q592.035 1470.81 591.121 1468.68 Q589.713 1465.45 586.823 1465.45 Q582.722 1465.45 580.301 1468.98 Q580.005 1469.42 579.659 1469.45 Q579.165 1469.45 579.041 1469.18 Q578.942 1468.88 578.942 1468.11 L578.942 1453.14 Q578.942 1451.93 579.436 1451.93 Q579.634 1451.93 580.054 1452.08 Q583.241 1453.49 586.773 1453.51 Q590.405 1453.51 593.666 1452.03 Q593.913 1451.88 594.061 1451.88 Q594.555 1451.88 594.58 1452.45 Q594.58 1452.65 594.16 1453.24 Q593.764 1453.81 592.9 1454.58 Q592.035 1455.32 590.924 1456.03 Q589.812 1456.75 588.181 1457.25 Q586.576 1457.71 584.797 1457.71 Q582.673 1457.71 580.499 1457.05 L580.499 1466.9 Q583.117 1464.33 586.922 1464.33 Q590.973 1464.33 593.764 1467.6 Q596.556 1470.86 596.556 1475.4 Q596.556 1480.17 593.246 1483.43 Q589.96 1486.69 585.513 1486.69 Q581.462 1486.69 578.893 1483.8 Q576.349 1480.91 576.349 1477.43 Z" fill="#000000" fill-rule="nonzero" fill-opacity="1" /><path clip-path="url(#clip660)" d="M601.25 1478.76 Q601.25 1477.25 602.114 1476.54 Q602.979 1475.82 604.09 1475.82 Q605.251 1475.82 606.067 1476.59 Q606.907 1477.33 606.907 1478.64 Q606.907 1480.05 605.918 1480.84 Q604.955 1481.63 603.572 1481.43 Q604.782 1483.46 607.005 1484.37 Q609.253 1485.28 611.328 1485.28 Q613.502 1485.28 615.256 1483.41 Q617.035 1481.53 617.035 1476.93 Q617.035 1473.03 615.503 1470.78 Q613.996 1468.53 611.007 1468.53 L608.784 1468.53 Q608.018 1468.53 607.796 1468.46 Q607.574 1468.39 607.574 1467.97 Q607.574 1467.47 608.339 1467.37 Q609.105 1467.37 610.316 1467.23 Q613.255 1467.13 614.812 1464.58 Q616.22 1462.21 616.22 1458.83 Q616.22 1455.74 614.738 1454.45 Q613.28 1453.14 611.378 1453.14 Q609.599 1453.14 607.648 1453.89 Q605.696 1454.63 604.634 1456.28 Q607.771 1456.28 607.771 1458.83 Q607.771 1459.94 607.055 1460.68 Q606.363 1461.4 605.202 1461.4 Q604.09 1461.4 603.349 1460.7 Q602.608 1459.99 602.608 1458.78 Q602.608 1455.89 605.177 1453.89 Q607.771 1451.88 611.576 1451.88 Q615.33 1451.88 618.097 1453.86 Q620.889 1455.84 620.889 1458.88 Q620.889 1461.86 618.912 1464.31 Q616.936 1466.76 613.799 1467.77 Q617.653 1468.53 619.95 1471.15 Q622.247 1473.75 622.247 1476.93 Q622.247 1480.89 619.135 1483.8 Q616.022 1486.69 611.477 1486.69 Q607.277 1486.69 604.263 1484.42 Q601.25 1482.15 601.25 1478.76 Z" fill="#000000" fill-rule="nonzero" fill-opacity="1" /><path clip-path="url(#clip660)" d="M627.262 1461.79 L628.917 1451.39 L630.177 1451.39 Q630.325 1452.01 630.572 1452.28 Q630.844 1452.55 632.277 1452.77 Q633.734 1453 636.674 1453 L648.952 1453 Q648.952 1454.16 648.507 1454.77 L641.664 1464.38 Q639.49 1467.42 638.527 1473.03 Q637.959 1476.79 637.983 1481.33 L637.983 1483.9 Q637.983 1486.69 635.637 1486.69 Q633.314 1486.69 633.314 1483.9 Q633.314 1474.24 639.54 1464.88 Q640.207 1463.91 642.652 1460.48 Q645.123 1457.05 645.222 1456.9 L634.747 1456.9 Q630.152 1456.9 629.782 1457.2 Q629.288 1457.64 628.522 1461.79 L627.262 1461.79 Z" fill="#000000" fill-rule="nonzero" fill-opacity="1" /><path clip-path="url(#clip660)" d="M652.237 1477.43 Q652.237 1475.92 653.052 1475.35 Q653.868 1474.76 654.732 1474.76 Q655.893 1474.76 656.56 1475.5 Q657.252 1476.22 657.252 1477.23 Q657.252 1478.24 656.56 1478.98 Q655.893 1479.7 654.732 1479.7 Q654.164 1479.7 653.868 1479.6 Q654.535 1481.92 656.56 1483.6 Q658.611 1485.28 661.303 1485.28 Q664.688 1485.28 666.713 1482 Q667.924 1479.87 667.924 1475.06 Q667.924 1470.81 667.01 1468.68 Q665.602 1465.45 662.711 1465.45 Q658.611 1465.45 656.19 1468.98 Q655.893 1469.42 655.548 1469.45 Q655.053 1469.45 654.93 1469.18 Q654.831 1468.88 654.831 1468.11 L654.831 1453.14 Q654.831 1451.93 655.325 1451.93 Q655.523 1451.93 655.943 1452.08 Q659.129 1453.49 662.662 1453.51 Q666.293 1453.51 669.554 1452.03 Q669.801 1451.88 669.95 1451.88 Q670.444 1451.88 670.468 1452.45 Q670.468 1452.65 670.048 1453.24 Q669.653 1453.81 668.789 1454.58 Q667.924 1455.32 666.812 1456.03 Q665.701 1456.75 664.07 1457.25 Q662.464 1457.71 660.686 1457.71 Q658.561 1457.71 656.387 1457.05 L656.387 1466.9 Q659.006 1464.33 662.81 1464.33 Q666.862 1464.33 669.653 1467.6 Q672.445 1470.86 672.445 1475.4 Q672.445 1480.17 669.134 1483.43 Q665.849 1486.69 661.402 1486.69 Q657.351 1486.69 654.782 1483.8 Q652.237 1480.91 652.237 1477.43 Z" fill="#000000" fill-rule="nonzero" fill-opacity="1" /><path clip-path="url(#clip660)" d="M989.15 1477.43 Q989.15 1475.92 989.965 1475.35 Q990.78 1474.76 991.645 1474.76 Q992.806 1474.76 993.473 1475.5 Q994.165 1476.22 994.165 1477.23 Q994.165 1478.24 993.473 1478.98 Q992.806 1479.7 991.645 1479.7 Q991.077 1479.7 990.78 1479.6 Q991.447 1481.92 993.473 1483.6 Q995.523 1485.28 998.216 1485.28 Q1001.6 1485.28 1003.63 1482 Q1004.84 1479.87 1004.84 1475.06 Q1004.84 1470.81 1003.92 1468.68 Q1002.51 1465.45 999.624 1465.45 Q995.523 1465.45 993.102 1468.98 Q992.806 1469.42 992.46 1469.45 Q991.966 1469.45 991.842 1469.18 Q991.744 1468.88 991.744 1468.11 L991.744 1453.14 Q991.744 1451.93 992.238 1451.93 Q992.435 1451.93 992.855 1452.08 Q996.042 1453.49 999.575 1453.51 Q1003.21 1453.51 1006.47 1452.03 Q1006.71 1451.88 1006.86 1451.88 Q1007.36 1451.88 1007.38 1452.45 Q1007.38 1452.65 1006.96 1453.24 Q1006.57 1453.81 1005.7 1454.58 Q1004.84 1455.32 1003.72 1456.03 Q1002.61 1456.75 1000.98 1457.25 Q999.377 1457.71 997.598 1457.71 Q995.474 1457.71 993.3 1457.05 L993.3 1466.9 Q995.919 1464.33 999.723 1464.33 Q1003.77 1464.33 1006.57 1467.6 Q1009.36 1470.86 1009.36 1475.4 Q1009.36 1480.17 1006.05 1483.43 Q1002.76 1486.69 998.315 1486.69 Q994.263 1486.69 991.694 1483.8 Q989.15 1480.91 989.15 1477.43 Z" fill="#000000" fill-rule="nonzero" fill-opacity="1" /><path clip-path="url(#clip660)" d="M1013.33 1477.23 L1013.33 1475.67 L1028.87 1451.93 Q1029.27 1451.32 1029.89 1451.34 Q1030.45 1451.34 1030.58 1451.56 Q1030.7 1451.79 1030.7 1452.65 L1030.7 1475.67 L1035.77 1475.67 L1035.77 1477.23 L1030.7 1477.23 L1030.7 1481.63 Q1030.7 1483.08 1031.29 1483.55 Q1031.91 1484.02 1034.53 1484.02 L1035.59 1484.02 L1035.59 1485.58 Q1033.52 1485.43 1028.72 1485.43 Q1023.96 1485.43 1021.88 1485.58 L1021.88 1484.02 L1022.94 1484.02 Q1025.56 1484.02 1026.18 1483.58 Q1026.8 1483.11 1026.8 1481.63 L1026.8 1477.23 L1013.33 1477.23 M1014.77 1475.67 L1027.09 1475.67 L1027.09 1456.8 L1014.77 1475.67 Z" fill="#000000" fill-rule="nonzero" fill-opacity="1" /><path clip-path="url(#clip660)" d="M1039.2 1469.4 Q1039.2 1461.96 1041.08 1457.91 Q1043.69 1451.88 1049.87 1451.88 Q1051.18 1451.88 1052.54 1452.26 Q1053.92 1452.6 1055.65 1453.96 Q1057.41 1455.32 1058.47 1457.54 Q1060.49 1461.84 1060.49 1469.4 Q1060.49 1476.79 1058.62 1480.81 Q1055.87 1486.69 1049.82 1486.69 Q1047.55 1486.69 1045.23 1485.53 Q1042.93 1484.37 1041.47 1481.58 Q1039.2 1477.4 1039.2 1469.4 M1043.4 1468.78 Q1043.4 1476.41 1043.94 1479.45 Q1044.56 1482.74 1046.24 1484.17 Q1047.94 1485.58 1049.82 1485.58 Q1051.85 1485.58 1053.53 1484.07 Q1055.23 1482.54 1055.75 1479.26 Q1056.32 1476.02 1056.29 1468.78 Q1056.29 1461.74 1055.8 1458.92 Q1055.13 1455.64 1053.35 1454.33 Q1051.6 1453 1049.82 1453 Q1049.15 1453 1048.44 1453.19 Q1047.75 1453.39 1046.73 1453.96 Q1045.72 1454.53 1044.93 1455.94 Q1044.16 1457.34 1043.79 1459.47 Q1043.4 1462.21 1043.4 1468.78 Z" fill="#000000" fill-rule="nonzero" fill-opacity="1" /><path clip-path="url(#clip660)" d="M1064.5 1469.4 Q1064.5 1461.96 1066.37 1457.91 Q1068.99 1451.88 1075.17 1451.88 Q1076.48 1451.88 1077.83 1452.26 Q1079.22 1452.6 1080.95 1453.96 Q1082.7 1455.32 1083.76 1457.54 Q1085.79 1461.84 1085.79 1469.4 Q1085.79 1476.79 1083.91 1480.81 Q1081.17 1486.69 1075.12 1486.69 Q1072.84 1486.69 1070.52 1485.53 Q1068.23 1484.37 1066.77 1481.58 Q1064.5 1477.4 1064.5 1469.4 M1068.69 1468.78 Q1068.69 1476.41 1069.24 1479.45 Q1069.86 1482.74 1071.54 1484.17 Q1073.24 1485.58 1075.12 1485.58 Q1077.14 1485.58 1078.82 1484.07 Q1080.53 1482.54 1081.05 1479.26 Q1081.61 1476.02 1081.59 1468.78 Q1081.59 1461.74 1081.1 1458.92 Q1080.43 1455.64 1078.65 1454.33 Q1076.9 1453 1075.12 1453 Q1074.45 1453 1073.73 1453.19 Q1073.04 1453.39 1072.03 1453.96 Q1071.02 1454.53 1070.23 1455.94 Q1069.46 1457.34 1069.09 1459.47 Q1068.69 1462.21 1068.69 1468.78 Z" fill="#000000" fill-rule="nonzero" fill-opacity="1" /><path clip-path="url(#clip660)" d="M1402.49 1477.43 Q1402.49 1475.92 1403.31 1475.35 Q1404.12 1474.76 1404.99 1474.76 Q1406.15 1474.76 1406.82 1475.5 Q1407.51 1476.22 1407.51 1477.23 Q1407.51 1478.24 1406.82 1478.98 Q1406.15 1479.7 1404.99 1479.7 Q1404.42 1479.7 1404.12 1479.6 Q1404.79 1481.92 1406.82 1483.6 Q1408.87 1485.28 1411.56 1485.28 Q1414.95 1485.28 1416.97 1482 Q1418.18 1479.87 1418.18 1475.06 Q1418.18 1470.81 1417.27 1468.68 Q1415.86 1465.45 1412.97 1465.45 Q1408.87 1465.45 1406.45 1468.98 Q1406.15 1469.42 1405.8 1469.45 Q1405.31 1469.45 1405.19 1469.18 Q1405.09 1468.88 1405.09 1468.11 L1405.09 1453.14 Q1405.09 1451.93 1405.58 1451.93 Q1405.78 1451.93 1406.2 1452.08 Q1409.39 1453.49 1412.92 1453.51 Q1416.55 1453.51 1419.81 1452.03 Q1420.06 1451.88 1420.21 1451.88 Q1420.7 1451.88 1420.73 1452.45 Q1420.73 1452.65 1420.31 1453.24 Q1419.91 1453.81 1419.05 1454.58 Q1418.18 1455.32 1417.07 1456.03 Q1415.96 1456.75 1414.33 1457.25 Q1412.72 1457.71 1410.94 1457.71 Q1408.82 1457.71 1406.64 1457.05 L1406.64 1466.9 Q1409.26 1464.33 1413.07 1464.33 Q1417.12 1464.33 1419.91 1467.6 Q1422.7 1470.86 1422.7 1475.4 Q1422.7 1480.17 1419.39 1483.43 Q1416.11 1486.69 1411.66 1486.69 Q1407.61 1486.69 1405.04 1483.8 Q1402.49 1480.91 1402.49 1477.43 Z" fill="#000000" fill-rule="nonzero" fill-opacity="1" /><path clip-path="url(#clip660)" d="M1426.68 1477.23 L1426.68 1475.67 L1442.22 1451.93 Q1442.61 1451.32 1443.23 1451.34 Q1443.8 1451.34 1443.92 1451.56 Q1444.05 1451.79 1444.05 1452.65 L1444.05 1475.67 L1449.11 1475.67 L1449.11 1477.23 L1444.05 1477.23 L1444.05 1481.63 Q1444.05 1483.08 1444.64 1483.55 Q1445.26 1484.02 1447.87 1484.02 L1448.94 1484.02 L1448.94 1485.58 Q1446.86 1485.43 1442.07 1485.43 Q1437.3 1485.43 1435.23 1485.58 L1435.23 1484.02 L1436.29 1484.02 Q1438.91 1484.02 1439.52 1483.58 Q1440.14 1483.11 1440.14 1481.63 L1440.14 1477.23 L1426.68 1477.23 M1428.11 1475.67 L1440.44 1475.67 L1440.44 1456.8 L1428.11 1475.67 Z" fill="#000000" fill-rule="nonzero" fill-opacity="1" /><path clip-path="url(#clip660)" d="M1453.09 1485.58 Q1453.09 1484.67 1453.16 1484.39 Q1453.26 1484.12 1453.66 1483.7 L1463.36 1472.88 Q1468.67 1466.9 1468.67 1461.69 Q1468.67 1458.31 1466.9 1455.89 Q1465.14 1453.47 1461.91 1453.47 Q1459.68 1453.47 1457.81 1454.82 Q1455.93 1456.18 1455.06 1458.6 Q1455.21 1458.55 1455.73 1458.55 Q1456.99 1458.55 1457.68 1459.34 Q1458.4 1460.14 1458.4 1461.2 Q1458.4 1462.56 1457.51 1463.22 Q1456.64 1463.87 1455.78 1463.87 Q1455.43 1463.87 1454.96 1463.79 Q1454.52 1463.72 1453.8 1463.03 Q1453.09 1462.31 1453.09 1461.05 Q1453.09 1457.52 1455.75 1454.7 Q1458.45 1451.88 1462.55 1451.88 Q1467.19 1451.88 1470.23 1454.65 Q1473.29 1457.39 1473.29 1461.69 Q1473.29 1463.2 1472.82 1464.58 Q1472.38 1465.94 1471.76 1467 Q1471.17 1468.07 1469.54 1469.77 Q1467.91 1471.47 1466.6 1472.68 Q1465.29 1473.9 1462.35 1476.46 L1456.99 1481.68 L1466.11 1481.68 Q1470.55 1481.68 1470.9 1481.28 Q1471.39 1480.57 1472.01 1476.79 L1473.29 1476.79 L1471.86 1485.58 L1453.09 1485.58 Z" fill="#000000" fill-rule="nonzero" fill-opacity="1" /><path clip-path="url(#clip660)" d="M1478.38 1477.43 Q1478.38 1475.92 1479.2 1475.35 Q1480.01 1474.76 1480.88 1474.76 Q1482.04 1474.76 1482.71 1475.5 Q1483.4 1476.22 1483.4 1477.23 Q1483.4 1478.24 1482.71 1478.98 Q1482.04 1479.7 1480.88 1479.7 Q1480.31 1479.7 1480.01 1479.6 Q1480.68 1481.92 1482.71 1483.6 Q1484.76 1485.28 1487.45 1485.28 Q1490.83 1485.28 1492.86 1482 Q1494.07 1479.87 1494.07 1475.06 Q1494.07 1470.81 1493.16 1468.68 Q1491.75 1465.45 1488.86 1465.45 Q1484.76 1465.45 1482.34 1468.98 Q1482.04 1469.42 1481.69 1469.45 Q1481.2 1469.45 1481.08 1469.18 Q1480.98 1468.88 1480.98 1468.11 L1480.98 1453.14 Q1480.98 1451.93 1481.47 1451.93 Q1481.67 1451.93 1482.09 1452.08 Q1485.28 1453.49 1488.81 1453.51 Q1492.44 1453.51 1495.7 1452.03 Q1495.95 1451.88 1496.1 1451.88 Q1496.59 1451.88 1496.61 1452.45 Q1496.61 1452.65 1496.19 1453.24 Q1495.8 1453.81 1494.93 1454.58 Q1494.07 1455.32 1492.96 1456.03 Q1491.85 1456.75 1490.22 1457.25 Q1488.61 1457.71 1486.83 1457.71 Q1484.71 1457.71 1482.53 1457.05 L1482.53 1466.9 Q1485.15 1464.33 1488.96 1464.33 Q1493.01 1464.33 1495.8 1467.6 Q1498.59 1470.86 1498.59 1475.4 Q1498.59 1480.17 1495.28 1483.43 Q1491.99 1486.69 1487.55 1486.69 Q1483.5 1486.69 1480.93 1483.8 Q1478.38 1480.91 1478.38 1477.43 Z" fill="#000000" fill-rule="nonzero" fill-opacity="1" /><path clip-path="url(#clip660)" d="M1815.3 1477.43 Q1815.3 1475.92 1816.11 1475.35 Q1816.93 1474.76 1817.79 1474.76 Q1818.95 1474.76 1819.62 1475.5 Q1820.31 1476.22 1820.31 1477.23 Q1820.31 1478.24 1819.62 1478.98 Q1818.95 1479.7 1817.79 1479.7 Q1817.22 1479.7 1816.93 1479.6 Q1817.59 1481.92 1819.62 1483.6 Q1821.67 1485.28 1824.36 1485.28 Q1827.75 1485.28 1829.77 1482 Q1830.98 1479.87 1830.98 1475.06 Q1830.98 1470.81 1830.07 1468.68 Q1828.66 1465.45 1825.77 1465.45 Q1821.67 1465.45 1819.25 1468.98 Q1818.95 1469.42 1818.61 1469.45 Q1818.11 1469.45 1817.99 1469.18 Q1817.89 1468.88 1817.89 1468.11 L1817.89 1453.14 Q1817.89 1451.93 1818.38 1451.93 Q1818.58 1451.93 1819 1452.08 Q1822.19 1453.49 1825.72 1453.51 Q1829.35 1453.51 1832.61 1452.03 Q1832.86 1451.88 1833.01 1451.88 Q1833.5 1451.88 1833.53 1452.45 Q1833.53 1452.65 1833.11 1453.24 Q1832.71 1453.81 1831.85 1454.58 Q1830.98 1455.32 1829.87 1456.03 Q1828.76 1456.75 1827.13 1457.25 Q1825.52 1457.71 1823.74 1457.71 Q1821.62 1457.71 1819.45 1457.05 L1819.45 1466.9 Q1822.06 1464.33 1825.87 1464.33 Q1829.92 1464.33 1832.71 1467.6 Q1835.5 1470.86 1835.5 1475.4 Q1835.5 1480.17 1832.19 1483.43 Q1828.91 1486.69 1824.46 1486.69 Q1820.41 1486.69 1817.84 1483.8 Q1815.3 1480.91 1815.3 1477.43 Z" fill="#000000" fill-rule="nonzero" fill-opacity="1" /><path clip-path="url(#clip660)" d="M1839.48 1477.23 L1839.48 1475.67 L1855.02 1451.93 Q1855.41 1451.32 1856.03 1451.34 Q1856.6 1451.34 1856.72 1451.56 Q1856.85 1451.79 1856.85 1452.65 L1856.85 1475.67 L1861.91 1475.67 L1861.91 1477.23 L1856.85 1477.23 L1856.85 1481.63 Q1856.85 1483.08 1857.44 1483.55 Q1858.06 1484.02 1860.68 1484.02 L1861.74 1484.02 L1861.74 1485.58 Q1859.66 1485.43 1854.87 1485.43 Q1850.1 1485.43 1848.03 1485.58 L1848.03 1484.02 L1849.09 1484.02 Q1851.71 1484.02 1852.33 1483.58 Q1852.94 1483.11 1852.94 1481.63 L1852.94 1477.23 L1839.48 1477.23 M1840.91 1475.67 L1853.24 1475.67 L1853.24 1456.8 L1840.91 1475.67 Z" fill="#000000" fill-rule="nonzero" fill-opacity="1" /><path clip-path="url(#clip660)" d="M1865.89 1477.43 Q1865.89 1475.92 1866.7 1475.35 Q1867.52 1474.76 1868.38 1474.76 Q1869.54 1474.76 1870.21 1475.5 Q1870.9 1476.22 1870.9 1477.23 Q1870.9 1478.24 1870.21 1478.98 Q1869.54 1479.7 1868.38 1479.7 Q1867.82 1479.7 1867.52 1479.6 Q1868.19 1481.92 1870.21 1483.6 Q1872.26 1485.28 1874.95 1485.28 Q1878.34 1485.28 1880.36 1482 Q1881.57 1479.87 1881.57 1475.06 Q1881.57 1470.81 1880.66 1468.68 Q1879.25 1465.45 1876.36 1465.45 Q1872.26 1465.45 1869.84 1468.98 Q1869.54 1469.42 1869.2 1469.45 Q1868.7 1469.45 1868.58 1469.18 Q1868.48 1468.88 1868.48 1468.11 L1868.48 1453.14 Q1868.48 1451.93 1868.98 1451.93 Q1869.17 1451.93 1869.59 1452.08 Q1872.78 1453.49 1876.31 1453.51 Q1879.94 1453.51 1883.21 1452.03 Q1883.45 1451.88 1883.6 1451.88 Q1884.09 1451.88 1884.12 1452.45 Q1884.12 1452.65 1883.7 1453.24 Q1883.3 1453.81 1882.44 1454.58 Q1881.57 1455.32 1880.46 1456.03 Q1879.35 1456.75 1877.72 1457.25 Q1876.12 1457.71 1874.34 1457.71 Q1872.21 1457.71 1870.04 1457.05 L1870.04 1466.9 Q1872.66 1464.33 1876.46 1464.33 Q1880.51 1464.33 1883.3 1467.6 Q1886.1 1470.86 1886.1 1475.4 Q1886.1 1480.17 1882.79 1483.43 Q1879.5 1486.69 1875.05 1486.69 Q1871 1486.69 1868.43 1483.8 Q1865.89 1480.91 1865.89 1477.43 Z" fill="#000000" fill-rule="nonzero" fill-opacity="1" /><path clip-path="url(#clip660)" d="M1890.64 1469.4 Q1890.64 1461.96 1892.52 1457.91 Q1895.14 1451.88 1901.31 1451.88 Q1902.62 1451.88 1903.98 1452.26 Q1905.36 1452.6 1907.09 1453.96 Q1908.85 1455.32 1909.91 1457.54 Q1911.94 1461.84 1911.94 1469.4 Q1911.94 1476.79 1910.06 1480.81 Q1907.32 1486.69 1901.26 1486.69 Q1898.99 1486.69 1896.67 1485.53 Q1894.37 1484.37 1892.91 1481.58 Q1890.64 1477.4 1890.64 1469.4 M1894.84 1468.78 Q1894.84 1476.41 1895.38 1479.45 Q1896 1482.74 1897.68 1484.17 Q1899.39 1485.58 1901.26 1485.58 Q1903.29 1485.58 1904.97 1484.07 Q1906.67 1482.54 1907.19 1479.26 Q1907.76 1476.02 1907.74 1468.78 Q1907.74 1461.74 1907.24 1458.92 Q1906.57 1455.64 1904.8 1454.33 Q1903.04 1453 1901.26 1453 Q1900.6 1453 1899.88 1453.19 Q1899.19 1453.39 1898.18 1453.96 Q1897.16 1454.53 1896.37 1455.94 Q1895.61 1457.34 1895.24 1459.47 Q1894.84 1462.21 1894.84 1468.78 Z" fill="#000000" fill-rule="nonzero" fill-opacity="1" /><path clip-path="url(#clip660)" d="M2228.64 1477.43 Q2228.64 1475.92 2229.46 1475.35 Q2230.27 1474.76 2231.14 1474.76 Q2232.3 1474.76 2232.96 1475.5 Q2233.66 1476.22 2233.66 1477.23 Q2233.66 1478.24 2232.96 1478.98 Q2232.3 1479.7 2231.14 1479.7 Q2230.57 1479.7 2230.27 1479.6 Q2230.94 1481.92 2232.96 1483.6 Q2235.01 1485.28 2237.71 1485.28 Q2241.09 1485.28 2243.12 1482 Q2244.33 1479.87 2244.33 1475.06 Q2244.33 1470.81 2243.41 1468.68 Q2242 1465.45 2239.11 1465.45 Q2235.01 1465.45 2232.59 1468.98 Q2232.3 1469.42 2231.95 1469.45 Q2231.46 1469.45 2231.33 1469.18 Q2231.23 1468.88 2231.23 1468.11 L2231.23 1453.14 Q2231.23 1451.93 2231.73 1451.93 Q2231.93 1451.93 2232.35 1452.08 Q2235.53 1453.49 2239.07 1453.51 Q2242.7 1453.51 2245.96 1452.03 Q2246.2 1451.88 2246.35 1451.88 Q2246.85 1451.88 2246.87 1452.45 Q2246.87 1452.65 2246.45 1453.24 Q2246.06 1453.81 2245.19 1454.58 Q2244.33 1455.32 2243.22 1456.03 Q2242.1 1456.75 2240.47 1457.25 Q2238.87 1457.71 2237.09 1457.71 Q2234.96 1457.71 2232.79 1457.05 L2232.79 1466.9 Q2235.41 1464.33 2239.21 1464.33 Q2243.26 1464.33 2246.06 1467.6 Q2248.85 1470.86 2248.85 1475.4 Q2248.85 1480.17 2245.54 1483.43 Q2242.25 1486.69 2237.81 1486.69 Q2233.75 1486.69 2231.18 1483.8 Q2228.64 1480.91 2228.64 1477.43 Z" fill="#000000" fill-rule="nonzero" fill-opacity="1" /><path clip-path="url(#clip660)" d="M2252.83 1477.23 L2252.83 1475.67 L2268.36 1451.93 Q2268.76 1451.32 2269.38 1451.34 Q2269.94 1451.34 2270.07 1451.56 Q2270.19 1451.79 2270.19 1452.65 L2270.19 1475.67 L2275.26 1475.67 L2275.26 1477.23 L2270.19 1477.23 L2270.19 1481.63 Q2270.19 1483.08 2270.78 1483.55 Q2271.4 1484.02 2274.02 1484.02 L2275.08 1484.02 L2275.08 1485.58 Q2273.01 1485.43 2268.22 1485.43 Q2263.45 1485.43 2261.37 1485.58 L2261.37 1484.02 L2262.43 1484.02 Q2265.05 1484.02 2265.67 1483.58 Q2266.29 1483.11 2266.29 1481.63 L2266.29 1477.23 L2252.83 1477.23 M2254.26 1475.67 L2266.58 1475.67 L2266.58 1456.8 L2254.26 1475.67 Z" fill="#000000" fill-rule="nonzero" fill-opacity="1" /><path clip-path="url(#clip660)" d="M2279.55 1461.79 L2281.21 1451.39 L2282.47 1451.39 Q2282.62 1452.01 2282.86 1452.28 Q2283.14 1452.55 2284.57 1452.77 Q2286.03 1453 2288.97 1453 L2301.24 1453 Q2301.24 1454.16 2300.8 1454.77 L2293.96 1464.38 Q2291.78 1467.42 2290.82 1473.03 Q2290.25 1476.79 2290.28 1481.33 L2290.28 1483.9 Q2290.28 1486.69 2287.93 1486.69 Q2285.61 1486.69 2285.61 1483.9 Q2285.61 1474.24 2291.83 1464.88 Q2292.5 1463.91 2294.94 1460.48 Q2297.41 1457.05 2297.51 1456.9 L2287.04 1456.9 Q2282.44 1456.9 2282.07 1457.2 Q2281.58 1457.64 2280.81 1461.79 L2279.55 1461.79 Z" fill="#000000" fill-rule="nonzero" fill-opacity="1" /><path clip-path="url(#clip660)" d="M2304.53 1477.43 Q2304.53 1475.92 2305.34 1475.35 Q2306.16 1474.76 2307.02 1474.76 Q2308.19 1474.76 2308.85 1475.5 Q2309.54 1476.22 2309.54 1477.23 Q2309.54 1478.24 2308.85 1478.98 Q2308.19 1479.7 2307.02 1479.7 Q2306.46 1479.7 2306.16 1479.6 Q2306.83 1481.92 2308.85 1483.6 Q2310.9 1485.28 2313.6 1485.28 Q2316.98 1485.28 2319.01 1482 Q2320.22 1479.87 2320.22 1475.06 Q2320.22 1470.81 2319.3 1468.68 Q2317.89 1465.45 2315 1465.45 Q2310.9 1465.45 2308.48 1468.98 Q2308.19 1469.42 2307.84 1469.45 Q2307.35 1469.45 2307.22 1469.18 Q2307.12 1468.88 2307.12 1468.11 L2307.12 1453.14 Q2307.12 1451.93 2307.62 1451.93 Q2307.81 1451.93 2308.23 1452.08 Q2311.42 1453.49 2314.95 1453.51 Q2318.59 1453.51 2321.85 1452.03 Q2322.09 1451.88 2322.24 1451.88 Q2322.74 1451.88 2322.76 1452.45 Q2322.76 1452.65 2322.34 1453.24 Q2321.95 1453.81 2321.08 1454.58 Q2320.22 1455.32 2319.1 1456.03 Q2317.99 1456.75 2316.36 1457.25 Q2314.76 1457.71 2312.98 1457.71 Q2310.85 1457.71 2308.68 1457.05 L2308.68 1466.9 Q2311.3 1464.33 2315.1 1464.33 Q2319.15 1464.33 2321.95 1467.6 Q2324.74 1470.86 2324.74 1475.4 Q2324.74 1480.17 2321.43 1483.43 Q2318.14 1486.69 2313.69 1486.69 Q2309.64 1486.69 2307.07 1483.8 Q2304.53 1480.91 2304.53 1477.43 Z" fill="#000000" fill-rule="nonzero" fill-opacity="1" /><path clip-path="url(#clip660)" d="M1247.08 1540.22 L1247.08 1538.7 Q1250.28 1538.56 1252.38 1536.32 Q1254.52 1534.04 1255.24 1531.26 Q1255.98 1528.47 1256.05 1525.25 L1257.78 1525.25 L1257.78 1538.05 L1267.74 1538.05 L1267.74 1540.22 L1257.78 1540.22 L1257.78 1559.55 Q1257.78 1567.06 1262.47 1567.06 Q1264.48 1567.06 1265.8 1565.02 Q1267.13 1562.95 1267.13 1559.28 L1267.13 1555.44 L1268.86 1555.44 L1268.86 1559.42 Q1268.86 1563.19 1267.13 1566.01 Q1265.39 1568.83 1261.96 1568.83 Q1260.71 1568.83 1259.45 1568.49 Q1258.23 1568.18 1256.6 1567.36 Q1255 1566.52 1253.98 1564.48 Q1252.99 1562.41 1252.99 1559.42 L1252.99 1540.22 L1247.08 1540.22 Z" fill="#000000" fill-rule="nonzero" fill-opacity="1" /><path clip-path="url(#clip660)" d="M1303.1 1585.44 L1303.1 1515.87 L1313.59 1515.87 L1313.59 1517.47 L1307.75 1517.47 L1307.75 1583.84 L1313.59 1583.84 L1313.59 1585.44 L1303.1 1585.44 Z" fill="#000000" fill-rule="nonzero" fill-opacity="1" /><path clip-path="url(#clip660)" d="M1317.5 1567.13 L1317.5 1557.96 Q1317.5 1557.17 1317.53 1556.9 Q1317.57 1556.63 1317.77 1556.43 Q1317.97 1556.22 1318.38 1556.22 Q1318.86 1556.22 1319.03 1556.43 Q1319.23 1556.63 1319.37 1557.41 Q1320.42 1562.2 1322.66 1564.75 Q1324.94 1567.26 1329.05 1567.26 Q1332.95 1567.26 1334.92 1565.53 Q1336.89 1563.8 1336.89 1560.94 Q1336.89 1555.85 1329.66 1554.56 Q1325.48 1553.71 1323.75 1553.17 Q1322.02 1552.59 1320.49 1551.33 Q1317.5 1548.89 1317.5 1545.42 Q1317.5 1541.96 1320.11 1539.41 Q1322.76 1536.86 1328.61 1536.86 Q1332.51 1536.86 1335.16 1538.83 Q1335.94 1538.22 1336.35 1537.71 Q1337.27 1536.86 1337.74 1536.86 Q1338.29 1536.86 1338.39 1537.24 Q1338.49 1537.58 1338.49 1538.56 L1338.49 1545.56 Q1338.49 1546.34 1338.46 1546.61 Q1338.42 1546.88 1338.22 1547.09 Q1338.01 1547.26 1337.57 1547.26 Q1336.79 1547.26 1336.76 1546.61 Q1336.21 1538.19 1328.61 1538.19 Q1324.5 1538.19 1322.66 1539.78 Q1320.83 1541.35 1320.83 1543.49 Q1320.83 1544.67 1321.37 1545.59 Q1321.95 1546.47 1322.66 1547.02 Q1323.41 1547.53 1324.77 1548.04 Q1326.13 1548.51 1326.94 1548.68 Q1327.79 1548.85 1329.39 1549.19 Q1334.96 1550.25 1337.3 1552.52 Q1340.22 1555.44 1340.22 1559.14 Q1340.22 1563.25 1337.44 1566.04 Q1334.65 1568.83 1329.05 1568.83 Q1324.53 1568.83 1321.37 1565.8 Q1320.96 1566.21 1320.66 1566.58 Q1320.35 1566.92 1320.22 1567.06 Q1320.11 1567.19 1320.08 1567.3 Q1320.05 1567.36 1319.98 1567.43 Q1318.59 1568.83 1318.25 1568.83 Q1317.7 1568.83 1317.6 1568.45 Q1317.5 1568.11 1317.5 1567.13 Z" fill="#000000" fill-rule="nonzero" fill-opacity="1" /><path clip-path="url(#clip660)" d="M1344.03 1583.84 L1349.87 1583.84 L1349.87 1517.47 L1344.03 1517.47 L1344.03 1515.87 L1354.52 1515.87 L1354.52 1585.44 L1344.03 1585.44 L1344.03 1583.84 Z" fill="#000000" fill-rule="nonzero" fill-opacity="1" /><polyline clip-path="url(#clip662)" style="stroke:#000000; stroke-linecap:round; stroke-linejoin:round; stroke-width:2; stroke-opacity:0.1; fill:none" points="248.851,1241.81 2352.76,1241.81 "/>
<polyline clip-path="url(#clip662)" style="stroke:#000000; stroke-linecap:round; stroke-linejoin:round; stroke-width:2; stroke-opacity:0.1; fill:none" points="248.851,1029.83 2352.76,1029.83 "/>
<polyline clip-path="url(#clip662)" style="stroke:#000000; stroke-linecap:round; stroke-linejoin:round; stroke-width:2; stroke-opacity:0.1; fill:none" points="248.851,817.848 2352.76,817.848 "/>
<polyline clip-path="url(#clip662)" style="stroke:#000000; stroke-linecap:round; stroke-linejoin:round; stroke-width:2; stroke-opacity:0.1; fill:none" points="248.851,605.865 2352.76,605.865 "/>
<polyline clip-path="url(#clip662)" style="stroke:#000000; stroke-linecap:round; stroke-linejoin:round; stroke-width:2; stroke-opacity:0.1; fill:none" points="248.851,393.882 2352.76,393.882 "/>
<polyline clip-path="url(#clip662)" style="stroke:#000000; stroke-linecap:round; stroke-linejoin:round; stroke-width:2; stroke-opacity:0.1; fill:none" points="248.851,181.9 2352.76,181.9 "/>
<polyline clip-path="url(#clip660)" style="stroke:#000000; stroke-linecap:round; stroke-linejoin:round; stroke-width:4; stroke-opacity:1; fill:none" points="248.851,1423.18 248.851,108.933 "/>
<polyline clip-path="url(#clip660)" style="stroke:#000000; stroke-linecap:round; stroke-linejoin:round; stroke-width:4; stroke-opacity:1; fill:none" points="248.851,1241.81 267.749,1241.81 "/>
<polyline clip-path="url(#clip660)" style="stroke:#000000; stroke-linecap:round; stroke-linejoin:round; stroke-width:4; stroke-opacity:1; fill:none" points="248.851,1029.83 267.749,1029.83 "/>
<polyline clip-path="url(#clip660)" style="stroke:#000000; stroke-linecap:round; stroke-linejoin:round; stroke-width:4; stroke-opacity:1; fill:none" points="248.851,817.848 267.749,817.848 "/>
<polyline clip-path="url(#clip660)" style="stroke:#000000; stroke-linecap:round; stroke-linejoin:round; stroke-width:4; stroke-opacity:1; fill:none" points="248.851,605.865 267.749,605.865 "/>
<polyline clip-path="url(#clip660)" style="stroke:#000000; stroke-linecap:round; stroke-linejoin:round; stroke-width:4; stroke-opacity:1; fill:none" points="248.851,393.882 267.749,393.882 "/>
<polyline clip-path="url(#clip660)" style="stroke:#000000; stroke-linecap:round; stroke-linejoin:round; stroke-width:4; stroke-opacity:1; fill:none" points="248.851,181.9 267.749,181.9 "/>
<path clip-path="url(#clip660)" d="M147.659 1245.73 Q147.956 1246.02 147.956 1246.44 Q147.956 1246.86 147.659 1247.16 Q147.363 1247.46 146.943 1247.46 L115.273 1247.46 Q114.853 1247.46 114.557 1247.16 Q114.26 1246.86 114.26 1246.44 Q114.26 1246.02 114.557 1245.73 Q114.853 1245.43 115.273 1245.43 L146.943 1245.43 Q147.363 1245.43 147.659 1245.73 Z" fill="#000000" fill-rule="nonzero" fill-opacity="1" /><path clip-path="url(#clip660)" d="M152.748 1242.91 Q152.748 1235.48 154.625 1231.43 Q157.244 1225.4 163.42 1225.4 Q164.729 1225.4 166.088 1225.77 Q167.471 1226.11 169.2 1227.47 Q170.954 1228.83 172.017 1231.05 Q174.042 1235.35 174.042 1242.91 Q174.042 1250.3 172.165 1254.33 Q169.423 1260.2 163.37 1260.2 Q161.098 1260.2 158.776 1259.04 Q156.478 1257.88 155.021 1255.09 Q152.748 1250.92 152.748 1242.91 M156.948 1242.29 Q156.948 1249.93 157.491 1252.97 Q158.109 1256.25 159.788 1257.68 Q161.493 1259.09 163.37 1259.09 Q165.396 1259.09 167.076 1257.59 Q168.78 1256.05 169.299 1252.77 Q169.867 1249.53 169.843 1242.29 Q169.843 1235.25 169.349 1232.44 Q168.682 1229.15 166.903 1227.84 Q165.149 1226.51 163.37 1226.51 Q162.703 1226.51 161.987 1226.71 Q161.295 1226.9 160.283 1227.47 Q159.27 1228.04 158.479 1229.45 Q157.713 1230.86 157.343 1232.98 Q156.948 1235.72 156.948 1242.29 Z" fill="#000000" fill-rule="nonzero" fill-opacity="1" /><path clip-path="url(#clip660)" d="M181.132 1258.28 Q180.366 1257.46 180.366 1256.4 Q180.366 1255.34 181.132 1254.57 Q181.898 1253.78 183.059 1253.78 Q184.171 1253.78 184.912 1254.52 Q185.678 1255.24 185.678 1256.42 Q185.678 1257.59 184.862 1258.35 Q184.072 1259.09 183.059 1259.09 Q181.898 1259.09 181.132 1258.28 Z" fill="#000000" fill-rule="nonzero" fill-opacity="1" /><path clip-path="url(#clip660)" d="M192.644 1250.94 Q192.644 1249.43 193.459 1248.87 Q194.274 1248.27 195.139 1248.27 Q196.3 1248.27 196.967 1249.01 Q197.659 1249.73 197.659 1250.74 Q197.659 1251.76 196.967 1252.5 Q196.3 1253.21 195.139 1253.21 Q194.571 1253.21 194.274 1253.11 Q194.941 1255.44 196.967 1257.12 Q199.017 1258.8 201.71 1258.8 Q205.094 1258.8 207.12 1255.51 Q208.331 1253.39 208.331 1248.57 Q208.331 1244.32 207.417 1242.2 Q206.008 1238.96 203.118 1238.96 Q199.017 1238.96 196.596 1242.49 Q196.3 1242.94 195.954 1242.96 Q195.46 1242.96 195.337 1242.69 Q195.238 1242.39 195.238 1241.63 L195.238 1226.66 Q195.238 1225.45 195.732 1225.45 Q195.929 1225.45 196.349 1225.6 Q199.536 1227 203.069 1227.03 Q206.7 1227.03 209.961 1225.55 Q210.208 1225.4 210.356 1225.4 Q210.85 1225.4 210.875 1225.97 Q210.875 1226.16 210.455 1226.76 Q210.06 1227.32 209.195 1228.09 Q208.331 1228.83 207.219 1229.55 Q206.107 1230.26 204.477 1230.76 Q202.871 1231.23 201.092 1231.23 Q198.968 1231.23 196.794 1230.56 L196.794 1240.42 Q199.413 1237.85 203.217 1237.85 Q207.268 1237.85 210.06 1241.11 Q212.851 1244.37 212.851 1248.92 Q212.851 1253.68 209.541 1256.94 Q206.255 1260.2 201.809 1260.2 Q197.758 1260.2 195.188 1257.31 Q192.644 1254.42 192.644 1250.94 Z" fill="#000000" fill-rule="nonzero" fill-opacity="1" /><path clip-path="url(#clip660)" d="M152.205 1030.93 Q152.205 1023.49 154.082 1019.44 Q156.701 1013.41 162.876 1013.41 Q164.186 1013.41 165.544 1013.79 Q166.928 1014.13 168.657 1015.49 Q170.411 1016.85 171.473 1019.07 Q173.499 1023.37 173.499 1030.93 Q173.499 1038.32 171.621 1042.34 Q168.879 1048.22 162.827 1048.22 Q160.554 1048.22 158.232 1047.06 Q155.935 1045.9 154.477 1043.11 Q152.205 1038.93 152.205 1030.93 M156.404 1030.31 Q156.404 1037.95 156.948 1040.98 Q157.565 1044.27 159.245 1045.7 Q160.95 1047.11 162.827 1047.11 Q164.853 1047.11 166.532 1045.6 Q168.237 1044.07 168.756 1040.79 Q169.324 1037.55 169.299 1030.31 Q169.299 1023.27 168.805 1020.46 Q168.138 1017.17 166.36 1015.86 Q164.606 1014.53 162.827 1014.53 Q162.16 1014.53 161.444 1014.72 Q160.752 1014.92 159.739 1015.49 Q158.726 1016.06 157.936 1017.47 Q157.17 1018.87 156.799 1021 Q156.404 1023.74 156.404 1030.31 Z" fill="#000000" fill-rule="nonzero" fill-opacity="1" /><path clip-path="url(#clip660)" d="M180.589 1046.3 Q179.823 1045.48 179.823 1044.42 Q179.823 1043.36 180.589 1042.59 Q181.354 1041.8 182.516 1041.8 Q183.627 1041.8 184.368 1042.54 Q185.134 1043.26 185.134 1044.44 Q185.134 1045.6 184.319 1046.37 Q183.528 1047.11 182.516 1047.11 Q181.354 1047.11 180.589 1046.3 Z" fill="#000000" fill-rule="nonzero" fill-opacity="1" /><path clip-path="url(#clip660)" d="M191.557 1030.93 Q191.557 1023.49 193.434 1019.44 Q196.053 1013.41 202.229 1013.41 Q203.538 1013.41 204.897 1013.79 Q206.28 1014.13 208.009 1015.49 Q209.763 1016.85 210.826 1019.07 Q212.851 1023.37 212.851 1030.93 Q212.851 1038.32 210.974 1042.34 Q208.232 1048.22 202.179 1048.22 Q199.907 1048.22 197.585 1047.06 Q195.287 1045.9 193.83 1043.11 Q191.557 1038.93 191.557 1030.93 M195.757 1030.31 Q195.757 1037.95 196.3 1040.98 Q196.918 1044.27 198.597 1045.7 Q200.302 1047.11 202.179 1047.11 Q204.205 1047.11 205.885 1045.6 Q207.589 1044.07 208.108 1040.79 Q208.676 1037.55 208.652 1030.31 Q208.652 1023.27 208.158 1020.46 Q207.491 1017.17 205.712 1015.86 Q203.958 1014.53 202.179 1014.53 Q201.512 1014.53 200.796 1014.72 Q200.104 1014.92 199.091 1015.49 Q198.079 1016.06 197.288 1017.47 Q196.522 1018.87 196.152 1021 Q195.757 1023.74 195.757 1030.31 Z" fill="#000000" fill-rule="nonzero" fill-opacity="1" /><path clip-path="url(#clip660)" d="M152.748 818.947 Q152.748 811.511 154.625 807.46 Q157.244 801.432 163.42 801.432 Q164.729 801.432 166.088 801.803 Q167.471 802.149 169.2 803.507 Q170.954 804.866 172.017 807.089 Q174.042 811.388 174.042 818.947 Q174.042 826.333 172.165 830.36 Q169.423 836.239 163.37 836.239 Q161.098 836.239 158.776 835.078 Q156.478 833.917 155.021 831.126 Q152.748 826.951 152.748 818.947 M156.948 818.329 Q156.948 825.963 157.491 829.001 Q158.109 832.287 159.788 833.72 Q161.493 835.128 163.37 835.128 Q165.396 835.128 167.076 833.621 Q168.78 832.089 169.299 828.804 Q169.867 825.568 169.843 818.329 Q169.843 811.289 169.349 808.473 Q168.682 805.187 166.903 803.878 Q165.149 802.544 163.37 802.544 Q162.703 802.544 161.987 802.742 Q161.295 802.939 160.283 803.507 Q159.27 804.076 158.479 805.484 Q157.713 806.892 157.343 809.016 Q156.948 811.758 156.948 818.329 Z" fill="#000000" fill-rule="nonzero" fill-opacity="1" /><path clip-path="url(#clip660)" d="M181.132 834.313 Q180.366 833.497 180.366 832.435 Q180.366 831.373 181.132 830.607 Q181.898 829.816 183.059 829.816 Q184.171 829.816 184.912 830.558 Q185.678 831.274 185.678 832.46 Q185.678 833.621 184.862 834.387 Q184.072 835.128 183.059 835.128 Q181.898 835.128 181.132 834.313 Z" fill="#000000" fill-rule="nonzero" fill-opacity="1" /><path clip-path="url(#clip660)" d="M192.644 826.976 Q192.644 825.469 193.459 824.901 Q194.274 824.308 195.139 824.308 Q196.3 824.308 196.967 825.049 Q197.659 825.765 197.659 826.778 Q197.659 827.791 196.967 828.532 Q196.3 829.248 195.139 829.248 Q194.571 829.248 194.274 829.15 Q194.941 831.472 196.967 833.151 Q199.017 834.831 201.71 834.831 Q205.094 834.831 207.12 831.546 Q208.331 829.421 208.331 824.604 Q208.331 820.355 207.417 818.231 Q206.008 814.994 203.118 814.994 Q199.017 814.994 196.596 818.527 Q196.3 818.972 195.954 818.996 Q195.46 818.996 195.337 818.725 Q195.238 818.428 195.238 817.662 L195.238 802.692 Q195.238 801.482 195.732 801.482 Q195.929 801.482 196.349 801.63 Q199.536 803.038 203.069 803.063 Q206.7 803.063 209.961 801.581 Q210.208 801.432 210.356 801.432 Q210.85 801.432 210.875 802.001 Q210.875 802.198 210.455 802.791 Q210.06 803.359 209.195 804.125 Q208.331 804.866 207.219 805.582 Q206.107 806.299 204.477 806.793 Q202.871 807.262 201.092 807.262 Q198.968 807.262 196.794 806.595 L196.794 816.452 Q199.413 813.883 203.217 813.883 Q207.268 813.883 210.06 817.144 Q212.851 820.405 212.851 824.95 Q212.851 829.718 209.541 832.979 Q206.255 836.239 201.809 836.239 Q197.758 836.239 195.188 833.349 Q192.644 830.459 192.644 826.976 Z" fill="#000000" fill-rule="nonzero" fill-opacity="1" /><path clip-path="url(#clip660)" d="M154.724 594.267 L154.724 592.686 Q160.801 592.686 163.939 589.45 Q164.803 589.45 164.951 589.647 Q165.1 589.845 165.1 590.759 L165.1 619.143 Q165.1 620.65 165.841 621.119 Q166.582 621.589 169.818 621.589 L171.424 621.589 L171.424 623.145 Q169.645 622.997 163.222 622.997 Q156.799 622.997 155.045 623.145 L155.045 621.589 L156.651 621.589 Q159.838 621.589 160.604 621.144 Q161.369 620.675 161.369 619.143 L161.369 592.933 Q158.726 594.267 154.724 594.267 Z" fill="#000000" fill-rule="nonzero" fill-opacity="1" /><path clip-path="url(#clip660)" d="M180.589 622.33 Q179.823 621.515 179.823 620.452 Q179.823 619.39 180.589 618.624 Q181.354 617.834 182.516 617.834 Q183.627 617.834 184.368 618.575 Q185.134 619.291 185.134 620.477 Q185.134 621.638 184.319 622.404 Q183.528 623.145 182.516 623.145 Q181.354 623.145 180.589 622.33 Z" fill="#000000" fill-rule="nonzero" fill-opacity="1" /><path clip-path="url(#clip660)" d="M191.557 606.964 Q191.557 599.529 193.434 595.477 Q196.053 589.45 202.229 589.45 Q203.538 589.45 204.897 589.82 Q206.28 590.166 208.009 591.525 Q209.763 592.883 210.826 595.107 Q212.851 599.405 212.851 606.964 Q212.851 614.351 210.974 618.377 Q208.232 624.257 202.179 624.257 Q199.907 624.257 197.585 623.096 Q195.287 621.935 193.83 619.143 Q191.557 614.968 191.557 606.964 M195.757 606.347 Q195.757 613.98 196.3 617.019 Q196.918 620.304 198.597 621.737 Q200.302 623.145 202.179 623.145 Q204.205 623.145 205.885 621.638 Q207.589 620.107 208.108 616.821 Q208.676 613.585 208.652 606.347 Q208.652 599.306 208.158 596.49 Q207.491 593.205 205.712 591.895 Q203.958 590.561 202.179 590.561 Q201.512 590.561 200.796 590.759 Q200.104 590.957 199.091 591.525 Q198.079 592.093 197.288 593.501 Q196.522 594.909 196.152 597.034 Q195.757 599.776 195.757 606.347 Z" fill="#000000" fill-rule="nonzero" fill-opacity="1" /><path clip-path="url(#clip660)" d="M155.268 382.284 L155.268 380.703 Q161.345 380.703 164.482 377.467 Q165.347 377.467 165.495 377.665 Q165.643 377.862 165.643 378.776 L165.643 407.161 Q165.643 408.667 166.384 409.137 Q167.125 409.606 170.361 409.606 L171.967 409.606 L171.967 411.162 Q170.189 411.014 163.766 411.014 Q157.343 411.014 155.589 411.162 L155.589 409.606 L157.195 409.606 Q160.381 409.606 161.147 409.162 Q161.913 408.692 161.913 407.161 L161.913 380.95 Q159.27 382.284 155.268 382.284 Z" fill="#000000" fill-rule="nonzero" fill-opacity="1" /><path clip-path="url(#clip660)" d="M181.132 410.347 Q180.366 409.532 180.366 408.47 Q180.366 407.408 181.132 406.642 Q181.898 405.851 183.059 405.851 Q184.171 405.851 184.912 406.592 Q185.678 407.309 185.678 408.495 Q185.678 409.656 184.862 410.421 Q184.072 411.162 183.059 411.162 Q181.898 411.162 181.132 410.347 Z" fill="#000000" fill-rule="nonzero" fill-opacity="1" /><path clip-path="url(#clip660)" d="M192.644 403.01 Q192.644 401.503 193.459 400.935 Q194.274 400.342 195.139 400.342 Q196.3 400.342 196.967 401.084 Q197.659 401.8 197.659 402.813 Q197.659 403.826 196.967 404.567 Q196.3 405.283 195.139 405.283 Q194.571 405.283 194.274 405.184 Q194.941 407.506 196.967 409.186 Q199.017 410.866 201.71 410.866 Q205.094 410.866 207.12 407.58 Q208.331 405.456 208.331 400.639 Q208.331 396.39 207.417 394.265 Q206.008 391.029 203.118 391.029 Q199.017 391.029 196.596 394.562 Q196.3 395.006 195.954 395.031 Q195.46 395.031 195.337 394.759 Q195.238 394.463 195.238 393.697 L195.238 378.727 Q195.238 377.517 195.732 377.517 Q195.929 377.517 196.349 377.665 Q199.536 379.073 203.069 379.098 Q206.7 379.098 209.961 377.615 Q210.208 377.467 210.356 377.467 Q210.85 377.467 210.875 378.035 Q210.875 378.233 210.455 378.826 Q210.06 379.394 209.195 380.16 Q208.331 380.901 207.219 381.617 Q206.107 382.334 204.477 382.828 Q202.871 383.297 201.092 383.297 Q198.968 383.297 196.794 382.63 L196.794 392.487 Q199.413 389.918 203.217 389.918 Q207.268 389.918 210.06 393.178 Q212.851 396.439 212.851 400.985 Q212.851 405.752 209.541 409.013 Q206.255 412.274 201.809 412.274 Q197.758 412.274 195.188 409.384 Q192.644 406.494 192.644 403.01 Z" fill="#000000" fill-rule="nonzero" fill-opacity="1" /><path clip-path="url(#clip660)" d="M152.748 199.18 Q152.748 198.266 152.822 197.994 Q152.921 197.722 153.316 197.302 L163.025 186.482 Q168.336 180.504 168.336 175.292 Q168.336 171.907 166.557 169.486 Q164.803 167.065 161.567 167.065 Q159.344 167.065 157.466 168.424 Q155.589 169.783 154.724 172.204 Q154.872 172.154 155.391 172.154 Q156.651 172.154 157.343 172.945 Q158.059 173.735 158.059 174.798 Q158.059 176.156 157.17 176.823 Q156.305 177.466 155.441 177.466 Q155.095 177.466 154.625 177.391 Q154.181 177.317 153.464 176.626 Q152.748 175.909 152.748 174.649 Q152.748 171.117 155.416 168.301 Q158.109 165.484 162.209 165.484 Q166.854 165.484 169.892 168.251 Q172.955 170.993 172.955 175.292 Q172.955 176.799 172.486 178.182 Q172.041 179.541 171.424 180.603 Q170.831 181.665 169.2 183.37 Q167.57 185.074 166.261 186.285 Q164.951 187.495 162.012 190.064 L156.651 195.277 L165.767 195.277 Q170.213 195.277 170.559 194.881 Q171.053 194.165 171.671 190.385 L172.955 190.385 L171.523 199.18 L152.748 199.18 Z" fill="#000000" fill-rule="nonzero" fill-opacity="1" /><path clip-path="url(#clip660)" d="M180.589 198.365 Q179.823 197.549 179.823 196.487 Q179.823 195.425 180.589 194.659 Q181.354 193.869 182.516 193.869 Q183.627 193.869 184.368 194.61 Q185.134 195.326 185.134 196.512 Q185.134 197.673 184.319 198.439 Q183.528 199.18 182.516 199.18 Q181.354 199.18 180.589 198.365 Z" fill="#000000" fill-rule="nonzero" fill-opacity="1" /><path clip-path="url(#clip660)" d="M191.557 182.999 Q191.557 175.563 193.434 171.512 Q196.053 165.484 202.229 165.484 Q203.538 165.484 204.897 165.855 Q206.28 166.201 208.009 167.56 Q209.763 168.918 210.826 171.142 Q212.851 175.44 212.851 182.999 Q212.851 190.385 210.974 194.412 Q208.232 200.292 202.179 200.292 Q199.907 200.292 197.585 199.13 Q195.287 197.969 193.83 195.178 Q191.557 191.003 191.557 182.999 M195.757 182.382 Q195.757 190.015 196.3 193.053 Q196.918 196.339 198.597 197.772 Q200.302 199.18 202.179 199.18 Q204.205 199.18 205.885 197.673 Q207.589 196.141 208.108 192.856 Q208.676 189.62 208.652 182.382 Q208.652 175.341 208.158 172.525 Q207.491 169.239 205.712 167.93 Q203.958 166.596 202.179 166.596 Q201.512 166.596 200.796 166.794 Q200.104 166.991 199.091 167.56 Q198.079 168.128 197.288 169.536 Q196.522 170.944 196.152 173.068 Q195.757 175.81 195.757 182.382 Z" fill="#000000" fill-rule="nonzero" fill-opacity="1" /><path clip-path="url(#clip660)" d="M51.3344 896.66 Q42.3671 896.66 33.4677 887.217 Q32.6865 886.368 32.6865 885.892 L32.6865 885.824 Q32.6865 885.417 33.9433 884.432 Q35.2 883.447 35.6756 883.447 Q36.0153 883.447 37.4758 884.703 Q38.9025 885.96 40.6687 887.421 Q42.435 888.881 45.3222 890.138 Q48.2094 891.395 51.1986 891.395 Q55.5124 891.395 58.4675 888.779 Q61.4227 886.164 61.4227 882.699 Q61.4227 880.254 59.3167 878.555 Q57.1768 876.857 56.1578 876.857 Q56.0898 876.857 54.833 877.197 Q53.5763 877.536 51.8779 877.91 Q50.1456 878.25 48.9228 878.25 Q45.8657 878.25 45.8317 875.804 Q45.8317 873.426 48.9907 873.426 Q50.3833 873.426 52.0477 873.766 Q53.7121 874.072 54.867 874.411 Q55.9879 874.751 56.1578 874.751 Q57.2787 874.751 59.3507 873.019 Q61.4227 871.286 61.4227 868.705 Q61.4227 865.716 58.6034 862.964 Q55.7841 860.213 51.1306 860.213 Q42.3671 860.213 35.4718 866.633 Q34.3509 867.618 34.0112 867.516 Q33.5357 867.448 33.128 867.108 Q32.6865 866.769 32.6865 866.361 Q32.6865 865.92 34.1471 864.391 Q38.5968 859.941 42.6388 857.496 Q46.6809 855.016 51.4024 855.016 Q56.8371 855.016 60.8112 858.005 Q64.7854 860.994 64.7854 865.716 Q64.7854 871.49 57.958 875.804 Q61.1509 877.536 62.9851 880.22 Q64.7854 882.903 64.7854 885.892 Q64.7854 890.614 60.7773 893.637 Q56.7692 896.66 51.3344 896.66 Z" fill="#000000" fill-rule="nonzero" fill-opacity="1" /><path clip-path="url(#clip660)" d="M81.3953 822.204 L11.8307 822.204 L11.8307 811.708 L13.4271 811.708 L13.4271 817.55 L79.7989 817.55 L79.7989 811.708 L81.3953 811.708 L81.3953 822.204 Z" fill="#000000" fill-rule="nonzero" fill-opacity="1" /><path clip-path="url(#clip660)" d="M64.0042 808.175 L61.8642 808.175 Q61.8642 804.473 61.4227 803.624 Q60.9471 802.741 58.7053 802.741 L40.0573 802.741 Q37.4758 802.741 36.8305 803.658 Q36.1851 804.541 36.1851 808.175 L34.0112 808.175 L33.2639 798.495 L40.9065 798.495 Q37.9174 797.51 35.6076 795.438 Q33.2639 793.332 33.2639 789.935 Q33.2639 787.693 34.5207 786.267 Q35.7775 784.806 37.5098 784.806 Q39.0383 784.806 39.8196 785.757 Q40.5668 786.674 40.5668 787.795 Q40.5668 789.052 39.7856 789.935 Q38.9704 790.784 37.5777 790.784 Q36.7286 790.784 36.0832 790.411 Q35.4038 790.003 35.1661 789.697 Q34.9283 789.392 34.8604 789.188 Q34.7924 789.324 34.7924 789.935 Q34.7924 793.773 38.6307 795.981 Q42.435 798.155 47.8698 798.155 L58.5694 798.155 Q60.5735 798.155 61.2189 797.34 Q61.8642 796.491 61.8642 792.856 L61.8642 791.396 L64.0042 791.396 Q63.8004 794.181 63.8004 800.227 Q63.8004 801.076 63.8343 802.401 Q63.8683 803.726 63.9362 805.458 Q64.0042 807.19 64.0042 808.175 Z" fill="#000000" fill-rule="nonzero" fill-opacity="1" /><path clip-path="url(#clip660)" d="M57.3806 780.017 Q51.4703 780.017 48.3453 773.053 Q46.3413 768.875 45.8317 760.248 L43.2842 760.248 Q38.9704 760.248 36.6946 762.524 Q34.3848 764.765 34.3848 767.619 Q34.3848 772.714 37.5777 775.159 Q37.6457 773.087 38.6987 772.34 Q39.7177 771.593 40.7706 771.593 Q42.1633 771.593 43.0804 772.476 Q43.9636 773.325 43.9636 774.786 Q43.9636 776.178 43.1144 777.095 Q42.2312 778.013 40.7027 778.013 Q37.306 778.013 35.0642 774.956 Q32.8223 771.865 32.8223 767.483 Q32.8223 761.776 36.6606 757.972 Q37.8495 756.783 39.378 756.206 Q40.9065 755.594 41.9255 755.526 Q42.9106 755.458 44.8807 755.458 L58.7732 755.458 Q59.1808 755.458 59.8602 755.323 Q60.5395 755.187 61.4227 754.575 Q62.2718 753.93 62.2718 752.877 Q62.2718 750.363 57.8221 750.397 L53.9159 750.397 L53.9159 748.631 L57.8221 748.631 Q61.5246 748.631 62.9851 750.601 Q64.4118 752.537 64.4118 754.338 Q64.4118 756.647 62.7134 758.108 Q61.0151 759.568 58.7053 759.772 Q61.3547 760.825 63.087 763.237 Q64.7854 765.615 64.7854 768.875 Q64.7854 771.389 64.14 773.767 Q63.5286 776.11 61.7963 778.081 Q60.03 780.017 57.3806 780.017 M57.3126 774.65 Q59.8941 774.65 61.5585 772.816 Q63.2229 770.981 63.2229 768.4 Q63.2229 765.479 60.9811 762.863 Q58.7053 760.248 54.2556 760.248 L47.2923 760.248 Q47.5641 767.958 50.6551 771.321 Q53.7121 774.65 57.3126 774.65 Z" fill="#000000" fill-rule="nonzero" fill-opacity="1" /><path clip-path="url(#clip660)" d="M49.0586 745.778 Q42.435 745.778 37.8495 741.158 Q33.2639 736.539 33.2639 730.289 Q33.2639 724.99 37.5777 721.525 L22.5303 721.525 Q19.9488 721.525 19.3034 722.442 Q18.6581 723.326 18.6581 726.926 L16.4842 726.926 L15.7369 716.906 L57.958 716.906 Q60.5395 716.906 61.2189 716.023 Q61.8642 715.105 61.8642 711.505 L64.0042 711.505 L64.7854 721.729 L60.1659 721.729 Q64.7514 725.33 64.7854 731.036 Q64.7854 737.014 60.1998 741.396 Q55.6143 745.778 49.0586 745.778 M49.1266 740.003 Q55.5803 740.003 58.7732 737.999 Q63.2229 735.214 63.2229 730.696 Q63.2229 725.533 58.3656 722.476 Q57.1768 721.695 55.7841 721.729 L41.5179 721.729 Q40.1253 721.729 38.9704 722.476 Q34.7924 725.33 34.7924 729.983 Q34.7924 734.84 39.2421 737.863 Q42.5709 740.003 49.1266 740.003 Z" fill="#000000" fill-rule="nonzero" fill-opacity="1" /><path clip-path="url(#clip660)" d="M80.4103 705.595 Q80.0706 705.595 79.3233 705.323 L13.6989 680.765 Q13.6309 680.765 13.2573 680.595 Q12.8836 680.425 12.6459 680.323 Q12.3741 680.221 12.1703 680.017 Q11.9665 679.78 11.9665 679.508 Q11.9665 678.829 12.8157 678.829 Q12.8836 678.829 13.6989 679.032 L79.3913 703.659 Q80.5801 704.066 80.9198 704.338 Q81.2595 704.576 81.2595 704.983 Q81.2595 705.595 80.4103 705.595 Z" fill="#000000" fill-rule="nonzero" fill-opacity="1" /><path clip-path="url(#clip660)" d="M63.087 672.477 L53.9159 672.477 Q53.1347 672.477 52.8629 672.443 Q52.5912 672.409 52.3874 672.205 Q52.1836 672.001 52.1836 671.594 Q52.1836 671.118 52.3874 670.948 Q52.5912 670.744 53.3724 670.609 Q58.1618 669.556 60.7093 667.314 Q63.2229 665.038 63.2229 660.928 Q63.2229 657.022 61.4906 655.052 Q59.7583 653.082 56.905 653.082 Q51.81 653.082 50.5192 660.317 Q49.67 664.494 49.1266 666.227 Q48.5491 667.959 47.2923 669.488 Q44.8467 672.477 41.3821 672.477 Q37.9174 672.477 35.3699 669.861 Q32.8223 667.212 32.8223 661.37 Q32.8223 657.463 34.7924 654.814 Q34.181 654.033 33.6715 653.625 Q32.8223 652.708 32.8223 652.232 Q32.8223 651.689 33.196 651.587 Q33.5357 651.485 34.5207 651.485 L41.5179 651.485 Q42.2992 651.485 42.5709 651.519 Q42.8426 651.553 43.0464 651.757 Q43.2163 651.961 43.2163 652.402 Q43.2163 653.183 42.5709 653.217 Q34.1471 653.761 34.1471 661.37 Q34.1471 665.48 35.7435 667.314 Q37.306 669.148 39.4459 669.148 Q40.6348 669.148 41.5519 668.605 Q42.435 668.027 42.9785 667.314 Q43.488 666.566 43.9975 665.208 Q44.4731 663.849 44.6429 663.034 Q44.8127 662.185 45.1524 660.588 Q46.2054 655.018 48.4812 652.674 Q51.4024 649.753 55.1048 649.753 Q59.2148 649.753 62.0001 652.538 Q64.7854 655.323 64.7854 660.928 Q64.7854 665.446 61.7623 668.605 Q62.1699 669.012 62.5436 669.318 Q62.8832 669.624 63.0191 669.759 Q63.155 669.861 63.2569 669.895 Q63.3248 669.929 63.3927 669.997 Q64.7854 671.39 64.7854 671.729 Q64.7854 672.273 64.4118 672.375 Q64.0721 672.477 63.087 672.477 Z" fill="#000000" fill-rule="nonzero" fill-opacity="1" /><path clip-path="url(#clip660)" d="M79.7989 645.948 L79.7989 640.106 L13.4271 640.106 L13.4271 645.948 L11.8307 645.948 L11.8307 635.453 L81.3953 635.453 L81.3953 645.948 L79.7989 645.948 Z" fill="#000000" fill-rule="nonzero" fill-opacity="1" /><g clip-path="url(#clip660)">
<text style="fill:#000000; fill-opacity:1; font-family:Century Schoolbook,Georgia,serif; font-size:66px; font-weight:bold; text-anchor:middle;" transform="rotate(0, 1300.8, 57.6)" x="1300.8" y="57.6">Event instantaneous frequency</text>
</g>
<polyline clip-path="url(#clip662)" style="stroke:#ba3d3a; stroke-linecap:round; stroke-linejoin:round; stroke-width:8; stroke-opacity:1; fill:none" points="308.396,774.453 310.461,777.709 312.526,780.873 314.592,783.98 316.657,787.037 318.723,790.078 320.788,793.105 322.853,796.147 324.919,799.208 326.984,802.299 329.049,805.424 331.115,808.617 333.18,811.831 335.245,815.056 337.311,818.256 339.376,821.4 341.442,824.397 343.507,827.2 345.572,829.735 347.638,831.939 349.703,833.713 351.768,834.991 353.834,835.694 355.899,835.764 357.964,835.148 360.03,833.83 362.095,831.791 364.161,829.05 366.226,825.638 368.291,821.605 370.357,817.022 372.422,811.96 374.487,806.506 376.553,800.739 378.618,794.762 380.684,788.636 382.749,782.457 384.814,776.285 386.88,770.207 388.945,764.255 391.01,758.513 393.076,752.999 395.141,747.807 397.206,742.939 399.272,738.477 401.337,734.42 403.403,730.849 405.468,727.749 407.533,725.172 409.599,723.082 411.664,721.518 413.729,720.411 415.795,719.769 417.86,719.508 419.925,719.619 421.991,719.998 424.056,720.633 426.122,721.42 428.187,722.324 430.252,723.26 432.318,724.168 434.383,724.957 436.448,725.557 438.514,725.867 440.579,725.802 442.644,725.264 444.71,724.146 446.775,722.366 448.841,719.824 450.906,716.451 452.971,712.141 455.037,706.852 457.102,700.474 459.167,692.957 461.233,684.146 463.298,673.986 465.363,662.254 467.429,648.84 469.494,633.442 471.56,615.904 473.625,595.87 475.69,573.205 477.756,547.667 479.821,519.418 481.886,488.752 483.952,456.755 486.017,424.98 488.082,395.981 490.148,372.678 492.213,358.036 494.279,354.113 496.344,361.33 498.409,378.496 500.475,402.88 502.54,431.54 504.605,461.502 506.671,490.758 508.736,517.785 510.801,541.948 512.867,562.887 514.932,580.703 516.998,595.552 519.063,607.777 521.128,617.707 523.194,625.753 525.259,632.284 527.324,637.684 529.39,642.312 531.455,646.486 533.521,650.494 535.586,654.571 537.651,658.917 539.717,663.658 541.782,668.91 543.847,674.712 545.913,681.106 547.978,688.077 550.043,695.618 552.109,703.689 554.174,712.274 556.24,721.323 558.305,730.847 560.37,740.832 562.436,751.333 564.501,762.402 566.566,774.165 568.632,786.751 570.697,800.38 572.762,815.261 574.828,831.678 576.893,849.909 578.959,870.276 581.024,893.019 583.089,918.456 585.155,946.63 587.22,977.045 589.285,1008.67 591.351,1039.57 593.416,1066.82 595.481,1087 597.547,1096.77 599.612,1093.93 601.678,1078.39 603.743,1052.25 605.808,1019.05 607.874,982.637 609.939,946.274 612.004,912.213 614.07,881.725 616.135,855.315 618.2,832.988 620.266,814.468 622.331,799.341 624.397,787.154 626.462,777.448 628.527,769.812 630.593,763.872 632.658,759.303 634.723,755.823 636.789,753.199 638.854,751.235 640.919,749.772 642.985,748.682 645.05,747.857 647.116,747.219 649.181,746.695 651.246,746.236 653.312,745.804 655.377,745.393 657.442,744.999 659.508,744.627 661.573,744.238 663.639,743.766 665.704,743.114 667.769,742.258 669.835,741.312 671.9,740.569 673.965,740.326 676.031,740.613 678.096,740.91 680.161,740.309 682.227,738.129 684.292,734.834 686.358,732.339 688.423,733.124 690.488,738.211 692.554,745.399 694.619,749.569 696.684,745.946 698.75,734.445 700.815,721.708 702.88,718.197 704.946,731.194 707.011,757.828 709.077,783.547 711.142,788.892 713.207,761.206 715.273,703.058 717.338,630.735 719.403,563.75 721.469,514.79 723.534,487.838 725.599,481.639 727.665,492.695 729.73,516.5 731.796,548.214 733.861,583.196 735.926,617.484 737.992,648.163 740.057,673.625 742.122,693.597 744.188,708.875 746.253,720.707 748.318,730.198 750.384,738.051 752.449,744.702 754.515,750.445 756.58,755.497 758.645,759.975 760.711,763.947 762.776,767.465 764.841,770.589 766.907,773.368 768.972,775.843 771.037,778.041 773.103,779.99 775.168,781.715 777.234,783.237 779.299,784.573 781.364,785.738 783.43,786.744 785.495,787.604 787.56,788.328 789.626,788.926 791.691,789.404 793.756,789.769 795.822,790.026 797.887,790.177 799.953,790.225 802.018,790.168 804.083,790.01 806.149,789.748 808.214,789.38 810.279,788.893 812.345,788.269 814.41,787.477 816.476,786.485 818.541,785.262 820.606,783.797 822.672,782.077 824.737,780.089 826.802,777.773 828.868,775.025 830.933,771.699 832.998,767.664 835.064,762.832 837.129,757.15 839.195,750.501 841.26,742.591 843.325,732.898 845.391,720.831 847.456,706.04 849.521,688.791 851.587,670.171 853.652,652.008 855.717,636.477 857.783,625.599 859.848,620.791 861.914,622.615 863.979,630.704 866.044,643.876 868.11,660.367 870.175,678.183 872.24,695.48 874.306,710.917 876.371,723.86 878.436,734.332 880.502,742.76 882.567,749.672 884.633,755.522 886.698,760.633 888.763,765.217 890.829,769.376 892.894,773.157 894.959,776.583 897.025,779.689 899.09,782.506 901.155,785.061 903.221,787.371 905.286,789.462 907.352,791.353 909.417,793.066 911.482,794.607 913.548,795.993 915.613,797.232 917.678,798.341 919.744,799.327 921.809,800.2 923.874,800.968 925.94,801.641 928.005,802.224 930.071,802.726 932.136,803.148 934.201,803.497 936.267,803.775 938.332,803.982 940.397,804.119 942.463,804.187 944.528,804.182 946.593,804.104 948.659,803.948 950.724,803.711 952.79,803.387 954.855,802.972 956.92,802.46 958.986,801.843 961.051,801.115 963.116,800.266 965.182,799.29 967.247,798.174 969.313,796.911 971.378,795.486 973.443,793.893 975.509,792.113 977.574,790.14 979.639,787.955 981.705,785.542 983.77,782.892 985.835,779.993 987.901,776.816 989.966,773.349 992.032,769.576 994.097,765.507 996.162,761.163 998.228,756.599 1000.29,751.912 1002.36,747.251 1004.42,742.806 1006.49,738.811 1008.55,735.51 1010.62,733.155 1012.69,731.959 1014.75,732.092 1016.82,733.639 1018.88,736.601 1020.95,740.877 1023.01,746.285 1025.08,752.565 1027.14,759.414 1029.21,766.513 1031.27,773.567 1033.34,780.321 1035.4,786.591 1037.47,792.259 1039.53,797.269 1041.6,801.616 1043.67,805.328 1045.73,808.447 1047.8,811.022 1049.86,813.1 1051.93,814.726 1053.99,815.938 1056.06,816.77 1058.12,817.259 1060.19,817.435 1062.25,817.334 1064.32,816.983 1066.38,816.42 1068.45,815.671 1070.52,814.77 1072.58,813.74 1074.65,812.612 1076.71,811.405 1078.78,810.145 1080.84,808.847 1082.91,807.535 1084.97,806.22 1087.04,804.921 1089.1,803.647 1091.17,802.415 1093.23,801.228 1095.3,800.103 1097.37,799.039 1099.43,798.048 1101.5,797.126 1103.56,796.28 1105.63,795.505 1107.69,794.806 1109.76,794.173 1111.82,793.605 1113.89,793.093 1115.95,792.636 1118.02,792.222 1120.08,791.847 1122.15,791.5 1124.21,791.175 1126.28,790.861 1128.35,790.551 1130.41,790.236 1132.48,789.907 1134.54,789.555 1136.61,789.172 1138.67,788.75 1140.74,788.278 1142.8,787.751 1144.87,787.158 1146.93,786.497 1149,785.755 1151.06,784.932 1153.13,784.019 1155.2,783.016 1157.26,781.916 1159.33,780.723 1161.39,779.431 1163.46,778.044 1165.52,776.556 1167.59,774.976 1169.65,773.301 1171.72,771.542 1173.78,769.7 1175.85,767.798 1177.91,765.843 1179.98,763.865 1182.05,761.876 1184.11,759.903 1186.18,757.954 1188.24,756.042 1190.31,754.155 1192.37,752.286 1194.44,750.407 1196.5,748.5 1198.57,746.537 1200.63,744.513 1202.7,742.42 1204.76,740.285 1206.83,738.134 1208.89,736.016 1210.96,733.984 1213.03,732.096 1215.09,730.398 1217.16,728.933 1219.22,727.721 1221.29,726.77 1223.35,726.07 1225.42,725.593 1227.48,725.301 1229.55,725.143 1231.61,725.069 1233.68,725.019 1235.74,724.942 1237.81,724.783 1239.88,724.506 1241.94,724.062 1244.01,723.433 1246.07,722.584 1248.14,721.514 1250.2,720.202 1252.27,718.66 1254.33,716.878 1256.4,714.888 1258.46,712.683 1260.53,710.309 1262.59,707.768 1264.66,705.119 1266.73,702.376 1268.79,699.605 1270.86,696.828 1272.92,694.121 1274.99,691.516 1277.05,689.094 1279.12,686.887 1281.18,684.974 1283.25,683.391 1285.31,682.196 1287.38,681.41 1289.44,681.073 1291.51,681.193 1293.57,681.756 1295.64,682.759 1297.71,684.147 1299.77,685.88 1301.84,687.876 1303.9,690.085 1305.97,692.387 1308.03,694.721 1310.1,696.962 1312.16,699.061 1314.23,700.9 1316.29,702.445 1318.36,703.607 1320.42,704.4 1322.49,704.773 1324.56,704.782 1326.62,704.426 1328.69,703.811 1330.75,702.974 1332.82,702.055 1334.88,701.117 1336.95,700.306 1339.01,699.704 1341.08,699.44 1343.14,699.592 1345.21,700.267 1347.27,701.524 1349.34,703.451 1351.41,706.094 1353.47,709.514 1355.54,713.738 1357.6,718.83 1359.67,724.823 1361.73,731.755 1363.8,739.675 1365.86,748.622 1367.93,758.628 1369.99,769.701 1372.06,781.841 1374.12,794.962 1376.19,808.933 1378.25,823.455 1380.32,838.129 1382.39,852.311 1384.45,865.22 1386.52,875.875 1388.58,883.297 1390.65,886.536 1392.71,885.004 1394.78,878.437 1396.84,867.172 1398.91,851.895 1400.97,833.704 1403.04,813.727 1405.1,793.17 1407.17,772.943 1409.24,753.865 1411.3,736.408 1413.37,720.93 1415.43,707.547 1417.5,696.306 1419.56,687.108 1421.63,679.842 1423.69,674.312 1425.76,670.351 1427.82,667.746 1429.89,666.304 1431.95,665.853 1434.02,666.208 1436.08,667.231 1438.15,668.754 1440.22,670.688 1442.28,672.895 1444.35,675.309 1446.41,677.826 1448.48,680.409 1450.54,682.966 1452.61,685.493 1454.67,687.917 1456.74,690.245 1458.8,692.428 1460.87,694.486 1462.93,696.389 1465,698.177 1467.07,699.836 1469.13,701.42 1471.2,702.936 1473.26,704.445 1475.33,705.978 1477.39,707.602 1479.46,709.351 1481.52,711.295 1483.59,713.471 1485.65,715.94 1487.72,718.728 1489.78,721.879 1491.85,725.404 1493.92,729.322 1495.98,733.625 1498.05,738.306 1500.11,743.329 1502.18,748.662 1504.24,754.258 1506.31,760.055 1508.37,765.988 1510.44,771.985 1512.5,777.97 1514.57,783.855 1516.63,789.552 1518.7,794.961 1520.76,799.988 1522.83,804.52 1524.9,808.462 1526.96,811.702 1529.03,814.164 1531.09,815.762 1533.16,816.462 1535.22,816.232 1537.29,815.092 1539.35,813.075 1541.42,810.263 1543.48,806.736 1545.55,802.616 1547.61,797.997 1549.68,793.012 1551.75,787.75 1553.81,782.328 1555.88,776.806 1557.94,771.277 1560.01,765.783 1562.07,760.387 1564.14,755.108 1566.2,749.993 1568.27,745.049 1570.33,740.314 1572.4,735.784 1574.46,731.484 1576.53,727.414 1578.6,723.589 1580.66,720.002 1582.73,716.671 1584.79,713.587 1586.86,710.758 1588.92,708.182 1590.99,705.86 1593.05,703.794 1595.12,701.984 1597.18,700.437 1599.25,699.141 1601.31,698.116 1603.38,697.348 1605.44,696.86 1607.51,696.644 1609.58,696.725 1611.64,697.096 1613.71,697.787 1615.77,698.778 1617.84,700.101 1619.9,701.731 1621.97,703.687 1624.03,705.928 1626.1,708.461 1628.16,711.225 1630.23,714.21 1632.29,717.343 1634.36,720.602 1636.43,723.9 1638.49,727.205 1640.56,730.431 1642.62,733.536 1644.69,736.431 1646.75,739.08 1648.82,741.393 1650.88,743.33 1652.95,744.818 1655.01,745.816 1657.08,746.265 1659.14,746.138 1661.21,745.395 1663.28,744.019 1665.34,741.998 1667.41,739.318 1669.47,735.977 1671.54,731.956 1673.6,727.242 1675.67,721.791 1677.73,715.554 1679.8,708.411 1681.86,700.244 1683.93,690.831 1685.99,679.927 1688.06,667.117 1690.12,651.978 1692.19,633.8 1694.26,611.819 1696.32,584.876 1698.39,551.788 1700.45,510.896 1702.52,460.903 1704.58,400.888 1706.65,332.267 1708.71,260.086 1710.78,195.401 1712.84,153.181 1714.91,146.128 1716.97,176.645 1719.04,234.765 1721.11,305.467 1723.17,375.581 1725.24,438.155 1727.3,490.531 1729.37,533.11 1731.43,567.149 1733.5,594.352 1735.56,616.165 1737.63,633.909 1739.69,648.595 1741.76,661.061 1743.82,671.929 1745.89,681.668 1747.96,690.648 1750.02,699.149 1752.09,707.414 1754.15,715.663 1756.22,724.149 1758.28,733.09 1760.35,742.73 1762.41,753.215 1764.48,764.629 1766.54,776.896 1768.61,789.841 1770.67,803.123 1772.74,816.368 1774.8,829.158 1776.87,841.192 1778.94,852.258 1781,862.294 1783.07,871.264 1785.13,879.135 1787.2,885.698 1789.26,890.582 1791.33,893.204 1793.39,892.947 1795.46,889.264 1797.52,881.935 1799.59,871.104 1801.65,857.357 1803.72,841.543 1805.79,824.669 1807.85,807.68 1809.92,791.387 1811.98,776.349 1814.05,762.932 1816.11,751.276 1818.18,741.405 1820.24,733.204 1822.31,726.524 1824.37,721.163 1826.44,716.924 1828.5,713.6 1830.57,711.012 1832.64,708.993 1834.7,707.402 1836.77,706.121 1838.83,705.051 1840.9,704.113 1842.96,703.245 1845.03,702.401 1847.09,701.535 1849.16,700.623 1851.22,699.634 1853.29,698.55 1855.35,697.344 1857.42,696.005 1859.48,694.491 1861.55,692.773 1863.62,690.785 1865.68,688.467 1867.75,685.728 1869.81,682.499 1871.88,678.708 1873.94,674.344 1876.01,669.436 1878.07,664.107 1880.14,658.547 1882.2,653.042 1884.27,647.928 1886.33,643.596 1888.4,640.425 1890.47,638.777 1892.53,638.932 1894.6,641.089 1896.66,645.311 1898.73,651.537 1900.79,659.562 1902.86,669.061 1904.92,679.595 1906.99,690.663 1909.05,701.738 1911.12,712.331 1913.18,722.042 1915.25,730.602 1917.32,737.886 1919.38,743.89 1921.45,748.706 1923.51,752.47 1925.58,755.349 1927.64,757.505 1929.71,759.095 1931.77,760.237 1933.84,761.039 1935.9,761.575 1937.97,761.919 1940.03,762.124 1942.1,762.249 1944.16,762.325 1946.23,762.394 1948.3,762.472 1950.36,762.586 1952.43,762.735 1954.49,762.924 1956.56,763.132 1958.62,763.352 1960.69,763.561 1962.75,763.758 1964.82,763.93 1966.88,764.094 1968.95,764.254 1971.01,764.44 1973.08,764.673 1975.15,764.994 1977.21,765.434 1979.28,766.036 1981.34,766.829 1983.41,767.861 1985.47,769.177 1987.54,770.858 1989.6,773.025 1991.67,775.889 1993.73,779.767 1995.8,785.143 1997.86,792.698 1999.93,803.393 2001.99,818.52 2004.06,839.823 2006.13,869.593 2008.19,910.783 2010.26,966.846 2012.32,1041 2014.39,1133.72 2016.45,1237.82 2018.52,1332.46 2020.58,1385.98 2022.65,1374.9 2024.71,1304.45 2026.78,1203.61 2028.84,1101.62 2030.91,1014.3 2032.98,945.484 2035.04,893.358 2037.11,854.468 2039.17,825.601 2041.24,804.155 2043.3,788.241 2045.37,776.439 2047.43,767.7 2049.5,761.115 2051.56,755.921 2053.63,751.474 2055.69,747.438 2057.76,743.831 2059.83,741.019 2061.89,739.335 2063.96,738.676 2066.02,738.14 2068.09,736.275 2070.15,731.83 2072.22,724.784 2074.28,716.752 2076.35,710.368 2078.41,707.547 2080.48,707.605 2082.54,706.562 2084.61,698.648 2086.67,679.272 2088.74,647.683 2090.81,607.758 2092.87,566.476 2094.94,531.008 2097,506.405 2099.07,495.033 2101.13,497.088 2103.2,511.166 2105.26,534.677 2107.33,564.266 2109.39,596.259 2111.46,627.159 2113.52,654.23 2115.59,676.091 2117.66,692.901 2119.72,705.822 2121.79,716.093 2123.85,724.554 2125.92,731.751 2127.98,738.146 2130.05,744.011 2132.11,749.369 2134.18,754.158 2136.24,758.457 2138.31,762.413 2140.37,766.095 2142.44,769.473 2144.51,772.565 2146.57,775.45 2148.64,778.201 2150.7,780.808 2152.77,783.246 2154.83,785.52 2156.9,787.664 2158.96,789.677 2161.03,791.536 2163.09,793.214 2165.16,794.704 2167.22,796.003 2169.29,797.1 2171.35,797.98 2173.42,798.636 2175.49,799.071 2177.55,799.295 2179.62,799.319 2181.68,799.155 2183.75,798.824 2185.81,798.343 2187.88,797.735 2189.94,797.016 2192.01,796.203 2194.07,795.305 2196.14,794.334 2198.2,793.291 2200.27,792.181 2202.34,790.999 2204.4,789.749 2206.47,788.422 2208.53,787.02 2210.6,785.532 2212.66,783.952 2214.73,782.264 2216.79,780.466 2218.86,778.559 2220.92,776.571 2222.99,774.541 2225.05,772.53 2227.12,770.587 2229.19,768.745 2231.25,766.995 2233.32,765.308 2235.38,763.64 2237.45,761.98 2239.51,760.358 2241.58,758.856 2243.64,757.556 2245.71,756.497 2247.77,755.607 2249.84,754.685 2251.9,753.426 2253.97,751.497 2256.03,748.646 2258.1,744.794 2260.17,740.084 2262.23,734.859 2264.3,729.6 2266.36,724.818 2268.43,720.963 2270.49,718.355 2272.56,717.16 2274.62,717.389 2276.69,718.935 2278.75,721.599 2280.82,725.147 2282.88,729.327 2284.95,733.913 2287.02,738.705 2289.08,743.551 2291.15,748.334 2293.21,752.982 "/>
<polyline clip-path="url(#clip662)" style="stroke:#dfba53; stroke-linecap:round; stroke-linejoin:round; stroke-width:8; stroke-opacity:1; fill:none" stroke-dasharray="32, 20" points="861.914,1385.98 861.914,146.128 "/>
<polyline clip-path="url(#clip662)" style="stroke:#4a7945; stroke-linecap:round; stroke-linejoin:round; stroke-width:8; stroke-opacity:1; fill:none" stroke-dasharray="32, 20" points="473.625,1385.98 473.625,146.128 "/>
<polyline clip-path="url(#clip662)" style="stroke:#ba3d3a; stroke-linecap:round; stroke-linejoin:round; stroke-width:8; stroke-opacity:1; fill:none" stroke-dasharray="32, 20" points="2127.98,1385.98 2127.98,146.128 "/>
<path clip-path="url(#clip660)" d="M1970.56 411.941 L2282.63 411.941 L2282.63 152.741 L1970.56 152.741  Z" fill="#ffffff" fill-rule="evenodd" fill-opacity="1"/>
<polyline clip-path="url(#clip660)" style="stroke:#000000; stroke-linecap:round; stroke-linejoin:round; stroke-width:4; stroke-opacity:1; fill:none" points="1970.56,411.941 2282.63,411.941 2282.63,152.741 1970.56,152.741 1970.56,411.941 "/>
<polyline clip-path="url(#clip660)" style="stroke:#ba3d3a; stroke-linecap:round; stroke-linejoin:round; stroke-width:8; stroke-opacity:1; fill:none" points="1993.93,204.581 2134.19,204.581 "/>
<path clip-path="url(#clip660)" d="M2185.91 190.178 Q2185.91 192.356 2184.81 196.572 Q2184.37 198.399 2183.76 200.062 Q2183.17 201.702 2182.3 203.295 Q2181.44 204.887 2180.43 206.035 Q2179.42 207.159 2178.11 207.862 Q2176.8 208.565 2175.35 208.565 Q2173.05 208.565 2171.69 207.206 Q2170.36 205.824 2169.94 203.459 Q2166.8 208.565 2162.61 208.565 Q2160.01 208.565 2158.79 206.714 Q2157.57 204.841 2157.57 201.702 Q2157.57 199.055 2158.27 196.315 Q2159.61 191.115 2162.21 187.485 Q2162.56 187.063 2163.07 187.063 Q2163.38 187.063 2163.52 187.157 Q2163.94 187.414 2163.94 187.836 Q2163.94 188.14 2163.71 188.445 Q2162.07 190.717 2160.99 192.661 Q2159.91 194.605 2159.42 196.572 Q2159.05 198.259 2159.05 199.688 Q2159.05 202.1 2160.08 203.599 Q2161.13 205.098 2163.21 205.098 Q2165.14 205.098 2166.82 203.904 Q2168.51 202.686 2169.75 200.648 Q2169.82 198.423 2170.36 196.315 Q2170.85 194.066 2172 194.066 Q2172.91 194.066 2172.91 195.308 Q2172.91 195.729 2172.72 196.572 Q2172.21 198.798 2171.27 200.789 Q2171.6 202.733 2172.82 203.927 Q2174.04 205.098 2175.98 205.098 Q2177.78 205.098 2179.38 203.787 Q2180.99 202.475 2182.02 200.554 Q2183.08 198.61 2183.66 196.315 Q2183.85 195.542 2183.85 194.558 Q2183.85 191.935 2182.02 190.319 Q2181.51 189.803 2181.51 189.124 Q2181.51 188.328 2182.16 187.602 Q2182.94 186.829 2183.85 186.829 Q2184.53 186.829 2184.95 187.25 Q2185.91 188.094 2185.91 190.178 Z" fill="#000000" fill-rule="nonzero" fill-opacity="1" /><path clip-path="url(#clip660)" d="M2199.33 200.761 Q2199.33 201.483 2198.74 202.024 Q2198.16 202.549 2197.54 202.549 Q2196.97 202.549 2196.61 202.204 Q2196.26 201.844 2196.26 201.335 Q2196.26 200.663 2196.84 200.106 Q2197.41 199.548 2198.08 199.548 Q2198.64 199.548 2198.98 199.892 Q2199.33 200.237 2199.33 200.761 M2199.62 216.944 Q2199.62 217.075 2199.48 217.6 Q2199.33 218.108 2198.97 218.895 Q2198.62 219.666 2198.15 220.387 Q2197.67 221.109 2196.88 221.617 Q2196.11 222.125 2195.23 222.125 Q2194.03 222.125 2193.24 221.338 Q2192.47 220.551 2192.47 219.371 Q2192.47 218.731 2193.24 216.682 Q2195.47 210.714 2195.56 210.468 Q2195.93 209.533 2195.93 208.713 Q2195.93 208.336 2195.85 208.107 Q2195.77 207.861 2195.61 207.779 Q2195.44 207.68 2195.34 207.664 Q2195.26 207.648 2195.1 207.648 Q2194.13 207.648 2193.23 208.631 Q2192.33 209.615 2191.7 211.812 Q2191.57 212.222 2191.49 212.32 Q2191.41 212.419 2191.16 212.419 Q2190.75 212.402 2190.75 212.074 Q2190.75 211.976 2190.87 211.599 Q2190.98 211.206 2191.2 210.615 Q2191.41 210.009 2191.79 209.386 Q2192.16 208.746 2192.62 208.189 Q2193.1 207.631 2193.77 207.271 Q2194.44 206.91 2195.2 206.91 Q2196.43 206.91 2197.18 207.713 Q2197.95 208.5 2197.95 209.664 Q2197.95 210.304 2197.51 211.435 Q2196.97 212.911 2196.77 213.386 L2195.46 216.911 Q2194.98 218.19 2194.84 218.584 Q2194.7 218.961 2194.59 219.42 Q2194.49 219.862 2194.49 220.272 Q2194.49 220.846 2194.67 221.109 Q2194.87 221.371 2195.29 221.371 Q2196.47 221.371 2197.34 220.207 Q2198.21 219.026 2198.72 217.223 Q2198.74 217.174 2198.75 217.092 Q2198.88 216.682 2199.02 216.632 Q2199.08 216.616 2199.21 216.616 Q2199.62 216.616 2199.62 216.944 Z" fill="#000000" fill-rule="nonzero" fill-opacity="1" /><path clip-path="url(#clip660)" d="M2220.68 216.944 Q2220.68 217.075 2220.54 217.583 Q2220.39 218.092 2220.03 218.879 Q2219.68 219.666 2219.21 220.387 Q2218.73 221.092 2217.94 221.617 Q2217.17 222.125 2216.29 222.125 Q2215.11 222.125 2214.32 221.338 Q2213.53 220.551 2213.53 219.371 Q2213.53 218.715 2213.88 217.813 Q2216.06 211.992 2216.06 209.992 Q2216.06 207.648 2214.24 207.648 Q2213.34 207.648 2212.48 207.992 Q2211.65 208.32 2211.07 208.779 Q2210.5 209.238 2209.98 209.877 Q2209.47 210.5 2209.21 210.927 Q2208.96 211.337 2208.76 211.747 L2208.34 213.419 Q2208.24 213.878 2207.76 215.665 L2207.03 218.698 Q2206.5 220.961 2206.39 221.174 Q2206.22 221.633 2205.86 221.879 Q2205.5 222.125 2205.14 222.125 Q2204.73 222.125 2204.45 221.879 Q2204.17 221.633 2204.17 221.207 Q2204.17 221.141 2204.22 220.895 Q2204.27 220.649 2204.35 220.305 Q2204.43 219.961 2204.47 219.764 L2206.42 212.009 Q2206.78 210.599 2206.86 210.156 Q2206.96 209.697 2206.96 209.189 Q2206.96 207.648 2205.91 207.648 Q2205.06 207.648 2204.5 208.664 Q2203.94 209.681 2203.47 211.648 Q2203.32 212.189 2203.22 212.304 Q2203.14 212.419 2202.89 212.419 Q2202.48 212.402 2202.48 212.074 Q2202.48 211.992 2202.61 211.451 Q2202.75 210.91 2202.99 210.14 Q2203.25 209.353 2203.5 208.828 Q2203.71 208.435 2203.83 208.254 Q2203.96 208.058 2204.27 207.68 Q2204.6 207.287 2205.02 207.107 Q2205.47 206.91 2206.01 206.91 Q2207.22 206.91 2208.11 207.697 Q2208.99 208.467 2209.11 209.828 Q2211.29 206.91 2214.34 206.91 Q2216.14 206.91 2217.17 207.861 Q2218.21 208.812 2218.21 210.5 Q2218.21 210.894 2218.12 211.402 Q2218.06 211.894 2217.9 212.517 Q2217.75 213.14 2217.62 213.616 Q2217.49 214.091 2217.22 214.862 Q2216.96 215.616 2216.85 215.944 Q2216.73 216.272 2216.45 217.042 Q2216.19 217.797 2216.16 217.879 Q2215.55 219.403 2215.55 220.272 Q2215.55 220.846 2215.73 221.109 Q2215.93 221.371 2216.35 221.371 Q2217.5 221.371 2218.35 220.24 Q2219.22 219.092 2219.78 217.223 Q2219.91 216.813 2219.98 216.714 Q2220.06 216.616 2220.29 216.616 Q2220.68 216.616 2220.68 216.944 Z" fill="#000000" fill-rule="nonzero" fill-opacity="1" /><path clip-path="url(#clip660)" d="M2235.72 209.795 Q2235.72 210.714 2235.26 211.206 Q2234.81 211.681 2234.18 211.681 Q2233.67 211.681 2233.4 211.386 Q2233.13 211.091 2233.13 210.697 Q2233.13 210.123 2233.59 209.664 Q2234.07 209.205 2234.76 209.189 Q2234.53 208.582 2233.92 208.221 Q2233.31 207.844 2232.77 207.746 Q2232.25 207.648 2231.72 207.648 Q2230.69 207.648 2229.9 207.976 Q2229.12 208.303 2228.72 208.812 Q2228.33 209.304 2228.15 209.779 Q2227.97 210.255 2227.97 210.664 Q2227.97 211.025 2228.05 211.32 Q2228.15 211.599 2228.38 211.812 Q2228.61 212.009 2228.77 212.14 Q2228.95 212.271 2229.35 212.386 Q2229.74 212.501 2229.9 212.55 Q2230.07 212.583 2230.53 212.681 Q2231.48 212.878 2231.9 212.993 Q2232.33 213.091 2232.89 213.37 Q2233.46 213.648 2233.89 214.091 Q2234.92 215.124 2234.92 216.551 Q2234.92 217.075 2234.74 217.715 Q2234.58 218.354 2234.1 219.157 Q2233.62 219.961 2232.9 220.6 Q2232.18 221.24 2230.94 221.682 Q2229.71 222.125 2228.17 222.125 Q2226.02 222.125 2224.69 221.223 Q2223.36 220.305 2223.36 218.862 Q2223.36 217.813 2223.94 217.239 Q2224.51 216.649 2225.25 216.649 Q2225.8 216.649 2226.15 216.96 Q2226.49 217.256 2226.49 217.813 Q2226.49 218.567 2225.89 219.141 Q2225.28 219.715 2224.38 219.6 Q2225.15 221.371 2228.2 221.371 Q2229.35 221.371 2230.23 221.076 Q2231.13 220.764 2231.62 220.338 Q2232.13 219.895 2232.46 219.354 Q2232.79 218.813 2232.89 218.403 Q2233 217.993 2233 217.682 Q2233 217.141 2232.79 216.731 Q2232.58 216.321 2232.28 216.091 Q2232 215.845 2231.46 215.649 Q2230.94 215.436 2230.56 215.354 Q2230.18 215.272 2229.51 215.14 Q2229.2 215.075 2229 215.042 Q2228.8 214.993 2228.39 214.862 Q2228 214.714 2227.72 214.567 Q2227.46 214.419 2227.12 214.157 Q2226.77 213.894 2226.56 213.583 Q2226.35 213.271 2226.2 212.812 Q2226.05 212.353 2226.05 211.812 Q2226.05 211.32 2226.2 210.73 Q2226.36 210.14 2226.77 209.451 Q2227.2 208.763 2227.8 208.205 Q2228.41 207.648 2229.43 207.287 Q2230.46 206.91 2231.72 206.91 Q2233.56 206.91 2234.64 207.762 Q2235.72 208.599 2235.72 209.795 Z" fill="#000000" fill-rule="nonzero" fill-opacity="1" /><path clip-path="url(#clip660)" d="M2248.1 207.648 Q2248.1 208.107 2247.89 208.221 Q2247.68 208.32 2247.09 208.32 L2243.94 208.32 L2241.45 218.223 Q2241.25 219.092 2241.25 219.83 Q2241.25 220.649 2241.5 221.01 Q2241.76 221.371 2242.3 221.371 Q2243.37 221.371 2244.51 220.403 Q2245.68 219.436 2246.66 217.075 Q2246.79 216.764 2246.86 216.698 Q2246.94 216.616 2247.15 216.616 Q2247.56 216.616 2247.56 216.944 Q2247.56 217.059 2247.33 217.583 Q2247.12 218.108 2246.64 218.879 Q2246.19 219.649 2245.58 220.371 Q2244.99 221.092 2244.09 221.617 Q2243.19 222.125 2242.22 222.125 Q2240.86 222.125 2239.99 221.256 Q2239.14 220.387 2239.14 219.026 Q2239.14 218.584 2239.48 217.174 Q2239.82 215.747 2241.69 208.32 L2238.73 208.32 Q2238.32 208.32 2238.15 208.303 Q2238 208.287 2237.89 208.205 Q2237.79 208.107 2237.79 207.91 Q2237.79 207.598 2237.92 207.467 Q2238.05 207.32 2238.22 207.303 Q2238.4 207.271 2238.81 207.271 L2241.96 207.271 L2243.27 201.942 Q2243.4 201.417 2243.73 201.122 Q2244.07 200.811 2244.27 200.778 Q2244.46 200.729 2244.61 200.729 Q2245.05 200.729 2245.32 200.975 Q2245.58 201.204 2245.58 201.63 Q2245.58 201.86 2244.2 207.271 L2247.15 207.271 Q2247.53 207.271 2247.68 207.287 Q2247.84 207.303 2247.97 207.385 Q2248.1 207.467 2248.1 207.648 Z" fill="#000000" fill-rule="nonzero" fill-opacity="1" /><polyline clip-path="url(#clip660)" style="stroke:#dfba53; stroke-linecap:round; stroke-linejoin:round; stroke-width:8; stroke-opacity:1; fill:none" stroke-dasharray="32, 20" points="1993.93,256.421 2134.19,256.421 "/>
<path clip-path="url(#clip660)" d="M2157.57 281.952 Q2160.26 281.952 2160.88 281.606 Q2161.52 281.285 2161.52 279.679 L2161.52 255.988 Q2161.52 254.309 2160.88 253.889 Q2160.26 253.469 2157.57 253.469 L2157.57 251.888 L2164.86 251.344 L2164.86 254.679 Q2167.9 251.344 2171.95 251.344 Q2176.25 251.344 2179.38 254.679 Q2182.52 258.014 2182.52 262.782 Q2182.52 267.599 2179.19 270.934 Q2175.85 274.269 2171.23 274.269 Q2168.71 274.269 2167.01 272.984 Q2165.33 271.675 2165.01 270.712 L2165.01 271.181 L2165.01 279.679 Q2165.01 281.309 2165.65 281.631 Q2166.29 281.952 2168.96 281.952 L2168.96 283.508 Q2163.65 283.36 2163.25 283.36 Q2162.76 283.36 2157.57 283.508 L2157.57 281.952 M2165.01 267.945 Q2165.01 268.711 2165.1 268.982 Q2165.23 269.254 2165.72 270.069 Q2167.72 273.133 2170.98 273.133 Q2171.01 273.133 2171.03 273.133 Q2173.92 273.133 2176.12 270.193 Q2178.32 267.228 2178.32 262.782 Q2178.32 258.533 2176.32 255.568 Q2174.32 252.604 2171.55 252.604 Q2169.58 252.604 2167.85 253.666 Q2166.12 254.729 2165.01 256.655 L2165.01 267.945 Z" fill="#000000" fill-rule="nonzero" fill-opacity="1" /><path clip-path="url(#clip660)" d="M2187.04 262.56 Q2187.04 257.792 2190.1 254.407 Q2193.17 251.023 2197.56 251.023 Q2202.01 251.023 2204.31 253.913 Q2206.63 256.804 2206.63 260.954 Q2206.63 261.72 2206.43 261.868 Q2206.24 262.016 2205.37 262.016 L2191.24 262.016 Q2191.24 267.179 2192.77 269.6 Q2194.9 272.984 2198.48 272.984 Q2198.97 272.984 2199.57 272.886 Q2200.16 272.787 2201.37 272.367 Q2202.58 271.922 2203.64 270.761 Q2204.7 269.6 2205.32 267.772 Q2205.47 267.056 2205.96 267.08 Q2206.63 267.08 2206.63 267.673 Q2206.63 268.118 2206.14 269.131 Q2205.67 270.119 2204.75 271.305 Q2203.84 272.49 2202.06 273.38 Q2200.31 274.269 2198.18 274.269 Q2193.74 274.269 2190.38 270.909 Q2187.04 267.525 2187.04 262.56 M2191.29 260.954 L2203.3 260.954 Q2203.3 259.892 2203.1 258.706 Q2202.93 257.52 2202.38 255.89 Q2201.86 254.235 2200.63 253.197 Q2199.39 252.159 2197.56 252.159 Q2196.75 252.159 2195.86 252.505 Q2195 252.851 2193.93 253.691 Q2192.87 254.531 2192.13 256.433 Q2191.39 258.335 2191.29 260.954 Z" fill="#000000" fill-rule="nonzero" fill-opacity="1" /><path clip-path="url(#clip660)" d="M2210.21 268.884 Q2210.21 264.585 2215.28 262.313 Q2218.32 260.855 2224.59 260.484 L2224.59 258.632 Q2224.59 255.494 2222.94 253.839 Q2221.3 252.159 2219.23 252.159 Q2215.52 252.159 2213.75 254.482 Q2215.25 254.531 2215.8 255.297 Q2216.34 256.038 2216.34 256.804 Q2216.34 257.816 2215.7 258.483 Q2215.08 259.126 2214.02 259.126 Q2213 259.126 2212.34 258.508 Q2211.67 257.866 2211.67 256.754 Q2211.67 254.284 2213.89 252.653 Q2216.14 251.023 2219.33 251.023 Q2223.48 251.023 2226.25 253.815 Q2227.11 254.679 2227.53 255.791 Q2227.97 256.902 2228.02 257.644 Q2228.07 258.36 2228.07 259.793 L2228.07 269.896 Q2228.07 270.193 2228.17 270.687 Q2228.27 271.181 2228.72 271.823 Q2229.19 272.441 2229.95 272.441 Q2231.78 272.441 2231.75 269.205 L2231.75 266.364 L2233.04 266.364 L2233.04 269.205 Q2233.04 271.897 2231.61 272.96 Q2230.2 273.997 2228.89 273.997 Q2227.21 273.997 2226.15 272.762 Q2225.08 271.527 2224.94 269.847 Q2224.17 271.774 2222.42 273.034 Q2220.69 274.269 2218.32 274.269 Q2216.49 274.269 2214.76 273.8 Q2213.05 273.355 2211.62 272.095 Q2210.21 270.81 2210.21 268.884 M2214.12 268.834 Q2214.12 270.712 2215.45 271.922 Q2216.78 273.133 2218.66 273.133 Q2220.79 273.133 2222.69 271.502 Q2224.59 269.847 2224.59 266.611 L2224.59 261.547 Q2218.98 261.744 2216.54 263.992 Q2214.12 266.216 2214.12 268.834 Z" fill="#000000" fill-rule="nonzero" fill-opacity="1" /><path clip-path="url(#clip660)" d="M2234.79 273.701 L2234.79 272.144 Q2237.49 272.144 2238.1 271.823 Q2238.75 271.477 2238.75 269.847 L2238.75 243.538 Q2238.75 241.661 2238.08 241.191 Q2237.44 240.722 2234.79 240.722 L2234.79 239.141 L2242.08 238.597 L2242.08 262.881 L2249.22 256.705 Q2250.33 255.741 2250.33 254.729 Q2250.33 253.568 2248.87 253.469 L2248.87 251.888 Q2251 252.036 2254.53 252.036 Q2256.61 252.036 2258.06 251.888 L2258.06 253.469 Q2254.88 253.617 2251.69 256.186 Q2250.97 256.754 2249.27 258.236 Q2247.59 259.694 2247.59 259.842 Q2247.59 259.892 2247.64 260.015 Q2247.71 260.139 2247.81 260.237 Q2247.91 260.336 2247.91 260.386 L2254.33 269.452 Q2255.64 271.28 2256.61 271.724 Q2257.57 272.144 2259.25 272.144 L2259.25 273.701 Q2257.08 273.553 2254.83 273.553 Q2253.62 273.553 2249.37 273.701 L2249.37 272.144 Q2251.2 272.144 2251.2 270.959 Q2251.2 270.143 2247.09 264.486 Q2246.8 264.091 2246.13 263.227 Q2245.51 262.313 2245.17 261.868 L2241.93 264.635 L2241.93 269.847 Q2241.93 271.477 2242.55 271.823 Q2243.19 272.144 2245.88 272.144 L2245.88 273.701 Q2242.85 273.553 2240.33 273.553 Q2239.81 273.553 2234.79 273.701 Z" fill="#000000" fill-rule="nonzero" fill-opacity="1" /><polyline clip-path="url(#clip660)" style="stroke:#4a7945; stroke-linecap:round; stroke-linejoin:round; stroke-width:8; stroke-opacity:1; fill:none" stroke-dasharray="32, 20" points="1993.93,308.261 2134.19,308.261 "/>
<path clip-path="url(#clip660)" d="M2157.57 325.541 L2157.57 323.984 Q2160.26 323.984 2160.88 323.663 Q2161.5 323.317 2161.5 321.687 L2161.5 295.378 Q2161.5 293.501 2160.83 293.031 Q2160.19 292.562 2157.57 292.562 L2157.57 290.981 L2164.83 290.437 L2164.83 321.687 Q2164.83 323.317 2165.48 323.663 Q2166.12 323.984 2168.79 323.984 L2168.79 325.541 Q2168.17 325.541 2166.88 325.491 Q2165.6 325.442 2164.66 325.417 Q2163.72 325.393 2163.18 325.393 Q2162.58 325.393 2157.57 325.541 Z" fill="#000000" fill-rule="nonzero" fill-opacity="1" /><path clip-path="url(#clip660)" d="M2171.31 292.562 L2171.31 290.981 L2178.59 290.437 L2178.59 306.47 Q2181.53 303.184 2185.53 303.184 Q2189.88 303.184 2193.07 306.519 Q2196.26 309.854 2196.26 314.622 Q2196.26 319.439 2192.92 322.774 Q2189.59 326.109 2184.97 326.109 Q2180.77 326.109 2178.35 322.403 Q2176.57 325.491 2176.52 325.541 L2175.26 325.541 L2175.26 295.378 Q2175.26 293.501 2174.59 293.031 Q2173.92 292.562 2171.31 292.562 M2178.74 319.785 Q2178.74 320.847 2179.46 321.909 Q2181.46 324.973 2184.72 324.973 Q2184.74 324.973 2184.77 324.973 Q2188.3 324.973 2190.5 321.736 Q2192.06 319.316 2192.06 314.572 Q2192.06 309.879 2190.6 307.532 Q2188.57 304.296 2185.29 304.296 Q2181.58 304.296 2179.31 307.532 Q2178.74 308.347 2178.74 309.36 L2178.74 319.785 Z" fill="#000000" fill-rule="nonzero" fill-opacity="1" /><polyline clip-path="url(#clip660)" style="stroke:#ba3d3a; stroke-linecap:round; stroke-linejoin:round; stroke-width:8; stroke-opacity:1; fill:none" stroke-dasharray="32, 20" points="1993.93,360.101 2134.19,360.101 "/>
<path clip-path="url(#clip660)" d="M2157.57 357.149 L2157.57 355.568 L2165.01 355.024 L2165.01 371.823 Q2165.01 373.033 2165.1 373.749 Q2165.2 374.441 2165.6 375.256 Q2166.02 376.071 2166.96 376.442 Q2167.92 376.813 2169.45 376.813 Q2172.19 376.813 2173.87 374.565 Q2175.58 372.317 2175.58 368.982 L2175.58 359.965 Q2175.58 358.087 2174.91 357.618 Q2174.24 357.149 2171.63 357.149 L2171.63 355.568 L2179.06 355.024 L2179.06 372.984 Q2179.06 374.861 2179.7 375.355 Q2180.37 375.824 2183.01 375.824 L2183.01 377.381 L2175.73 377.949 L2175.73 373.379 Q2173.6 377.924 2169.21 377.949 Q2166.98 377.949 2165.45 377.381 Q2163.94 376.813 2163.18 376.121 Q2162.41 375.404 2161.99 374.046 Q2161.6 372.687 2161.55 371.847 Q2161.5 371.007 2161.5 369.377 L2161.5 361.793 Q2161.5 358.359 2161 357.766 Q2160.51 357.149 2157.57 357.149 Z" fill="#000000" fill-rule="nonzero" fill-opacity="1" /><path clip-path="url(#clip660)" d="M2185.41 344.402 L2185.41 342.821 L2192.7 342.277 L2192.7 358.31 Q2195.64 355.024 2199.64 355.024 Q2203.99 355.024 2207.17 358.359 Q2210.36 361.694 2210.36 366.462 Q2210.36 371.279 2207.03 374.614 Q2203.69 377.949 2199.07 377.949 Q2194.87 377.949 2192.45 374.243 Q2190.67 377.331 2190.62 377.381 L2189.36 377.381 L2189.36 347.218 Q2189.36 345.341 2188.7 344.871 Q2188.03 344.402 2185.41 344.402 M2192.85 371.625 Q2192.85 372.687 2193.56 373.749 Q2195.56 376.813 2198.82 376.813 Q2198.85 376.813 2198.87 376.813 Q2202.41 376.813 2204.61 373.576 Q2206.16 371.156 2206.16 366.412 Q2206.16 361.719 2204.7 359.372 Q2202.68 356.136 2199.39 356.136 Q2195.69 356.136 2193.41 359.372 Q2192.85 360.187 2192.85 361.2 L2192.85 371.625 Z" fill="#000000" fill-rule="nonzero" fill-opacity="1" /></svg>
