<?xml version="1.0" encoding="utf-8"?>
<svg xmlns="http://www.w3.org/2000/svg" xmlns:xlink="http://www.w3.org/1999/xlink" width="600" height="400" viewBox="0 0 2400 1600">
<defs>
  <clipPath id="clip900">
    <rect x="0" y="0" width="2400" height="1600"/>
  </clipPath>
</defs>
<path clip-path="url(#clip900)" d="M0 1600 L2400 1600 L2400 0 L0 0  Z" fill="#ffffff" fill-rule="evenodd" fill-opacity="1"/>
<defs>
  <clipPath id="clip901">
    <rect x="480" y="0" width="1681" height="1600"/>
  </clipPath>
</defs>
<path clip-path="url(#clip900)" d="M256.209 1423.18 L2352.76 1423.18 L2352.76 47.2441 L256.209 47.2441  Z" fill="#ffffff" fill-rule="evenodd" fill-opacity="1"/>
<defs>
  <clipPath id="clip902">
    <rect x="256" y="47" width="2098" height="1377"/>
  </clipPath>
</defs>
<polyline clip-path="url(#clip902)" style="stroke:#000000; stroke-linecap:round; stroke-linejoin:round; stroke-width:2; stroke-opacity:0.1; fill:none" points="361.036,1423.18 361.036,47.2441 "/>
<polyline clip-path="url(#clip902)" style="stroke:#000000; stroke-linecap:round; stroke-linejoin:round; stroke-width:2; stroke-opacity:0.1; fill:none" points="855.505,1423.18 855.505,47.2441 "/>
<polyline clip-path="url(#clip902)" style="stroke:#000000; stroke-linecap:round; stroke-linejoin:round; stroke-width:2; stroke-opacity:0.1; fill:none" points="1349.97,1423.18 1349.97,47.2441 "/>
<polyline clip-path="url(#clip902)" style="stroke:#000000; stroke-linecap:round; stroke-linejoin:round; stroke-width:2; stroke-opacity:0.1; fill:none" points="1844.44,1423.18 1844.44,47.2441 "/>
<polyline clip-path="url(#clip902)" style="stroke:#000000; stroke-linecap:round; stroke-linejoin:round; stroke-width:2; stroke-opacity:0.1; fill:none" points="2338.91,1423.18 2338.91,47.2441 "/>
<polyline clip-path="url(#clip900)" style="stroke:#000000; stroke-linecap:round; stroke-linejoin:round; stroke-width:4; stroke-opacity:1; fill:none" points="256.209,1423.18 2352.76,1423.18 "/>
<polyline clip-path="url(#clip900)" style="stroke:#000000; stroke-linecap:round; stroke-linejoin:round; stroke-width:4; stroke-opacity:1; fill:none" points="361.036,1423.18 361.036,1404.28 "/>
<polyline clip-path="url(#clip900)" style="stroke:#000000; stroke-linecap:round; stroke-linejoin:round; stroke-width:4; stroke-opacity:1; fill:none" points="855.505,1423.18 855.505,1404.28 "/>
<polyline clip-path="url(#clip900)" style="stroke:#000000; stroke-linecap:round; stroke-linejoin:round; stroke-width:4; stroke-opacity:1; fill:none" points="1349.97,1423.18 1349.97,1404.28 "/>
<polyline clip-path="url(#clip900)" style="stroke:#000000; stroke-linecap:round; stroke-linejoin:round; stroke-width:4; stroke-opacity:1; fill:none" points="1844.44,1423.18 1844.44,1404.28 "/>
<polyline clip-path="url(#clip900)" style="stroke:#000000; stroke-linecap:round; stroke-linejoin:round; stroke-width:4; stroke-opacity:1; fill:none" points="2338.91,1423.18 2338.91,1404.28 "/>
<path clip-path="url(#clip900)" d="M316.279 1466.44 Q313.131 1466.44 311.279 1468.59 Q309.451 1470.74 309.451 1474.49 Q309.451 1478.22 311.279 1480.39 Q313.131 1482.55 316.279 1482.55 Q319.427 1482.55 321.256 1480.39 Q323.108 1478.22 323.108 1474.49 Q323.108 1470.74 321.256 1468.59 Q319.427 1466.44 316.279 1466.44 M325.562 1451.78 L325.562 1456.04 Q323.802 1455.21 321.997 1454.77 Q320.214 1454.33 318.455 1454.33 Q313.826 1454.33 311.372 1457.45 Q308.941 1460.58 308.594 1466.9 Q309.96 1464.89 312.02 1463.82 Q314.08 1462.73 316.557 1462.73 Q321.765 1462.73 324.775 1465.9 Q327.807 1469.05 327.807 1474.49 Q327.807 1479.82 324.659 1483.03 Q321.511 1486.25 316.279 1486.25 Q310.284 1486.25 307.113 1481.67 Q303.941 1477.06 303.941 1468.33 Q303.941 1460.14 307.83 1455.28 Q311.719 1450.39 318.27 1450.39 Q320.029 1450.39 321.812 1450.74 Q323.617 1451.09 325.562 1451.78 Z" fill="#000000" fill-rule="nonzero" fill-opacity="1" /><path clip-path="url(#clip900)" d="M348.71 1455.09 L336.904 1473.54 L348.71 1473.54 L348.71 1455.09 M347.483 1451.02 L353.362 1451.02 L353.362 1473.54 L358.293 1473.54 L358.293 1477.43 L353.362 1477.43 L353.362 1485.58 L348.71 1485.58 L348.71 1477.43 L333.108 1477.43 L333.108 1472.92 L347.483 1451.02 Z" fill="#000000" fill-rule="nonzero" fill-opacity="1" /><path clip-path="url(#clip900)" d="M376.024 1454.1 Q372.413 1454.1 370.585 1457.66 Q368.779 1461.2 368.779 1468.33 Q368.779 1475.44 370.585 1479.01 Q372.413 1482.55 376.024 1482.55 Q379.659 1482.55 381.464 1479.01 Q383.293 1475.44 383.293 1468.33 Q383.293 1461.2 381.464 1457.66 Q379.659 1454.1 376.024 1454.1 M376.024 1450.39 Q381.835 1450.39 384.89 1455 Q387.969 1459.58 387.969 1468.33 Q387.969 1477.06 384.89 1481.67 Q381.835 1486.25 376.024 1486.25 Q370.214 1486.25 367.136 1481.67 Q364.08 1477.06 364.08 1468.33 Q364.08 1459.58 367.136 1455 Q370.214 1450.39 376.024 1450.39 Z" fill="#000000" fill-rule="nonzero" fill-opacity="1" /><path clip-path="url(#clip900)" d="M406.186 1454.1 Q402.575 1454.1 400.746 1457.66 Q398.941 1461.2 398.941 1468.33 Q398.941 1475.44 400.746 1479.01 Q402.575 1482.55 406.186 1482.55 Q409.82 1482.55 411.626 1479.01 Q413.455 1475.44 413.455 1468.33 Q413.455 1461.2 411.626 1457.66 Q409.82 1454.1 406.186 1454.1 M406.186 1450.39 Q411.996 1450.39 415.052 1455 Q418.131 1459.58 418.131 1468.33 Q418.131 1477.06 415.052 1481.67 Q411.996 1486.25 406.186 1486.25 Q400.376 1486.25 397.297 1481.67 Q394.242 1477.06 394.242 1468.33 Q394.242 1459.58 397.297 1455 Q400.376 1450.39 406.186 1450.39 Z" fill="#000000" fill-rule="nonzero" fill-opacity="1" /><path clip-path="url(#clip900)" d="M811.246 1466.44 Q808.098 1466.44 806.246 1468.59 Q804.417 1470.74 804.417 1474.49 Q804.417 1478.22 806.246 1480.39 Q808.098 1482.55 811.246 1482.55 Q814.394 1482.55 816.223 1480.39 Q818.074 1478.22 818.074 1474.49 Q818.074 1470.74 816.223 1468.59 Q814.394 1466.44 811.246 1466.44 M820.528 1451.78 L820.528 1456.04 Q818.769 1455.21 816.963 1454.77 Q815.181 1454.33 813.422 1454.33 Q808.792 1454.33 806.338 1457.45 Q803.908 1460.58 803.561 1466.9 Q804.926 1464.89 806.986 1463.82 Q809.047 1462.73 811.523 1462.73 Q816.732 1462.73 819.741 1465.9 Q822.773 1469.05 822.773 1474.49 Q822.773 1479.82 819.625 1483.03 Q816.477 1486.25 811.246 1486.25 Q805.25 1486.25 802.079 1481.67 Q798.908 1477.06 798.908 1468.33 Q798.908 1460.14 802.797 1455.28 Q806.686 1450.39 813.236 1450.39 Q814.996 1450.39 816.778 1450.74 Q818.584 1451.09 820.528 1451.78 Z" fill="#000000" fill-rule="nonzero" fill-opacity="1" /><path clip-path="url(#clip900)" d="M843.676 1455.09 L831.871 1473.54 L843.676 1473.54 L843.676 1455.09 M842.449 1451.02 L848.329 1451.02 L848.329 1473.54 L853.259 1473.54 L853.259 1477.43 L848.329 1477.43 L848.329 1485.58 L843.676 1485.58 L843.676 1477.43 L828.074 1477.43 L828.074 1472.92 L842.449 1451.02 Z" fill="#000000" fill-rule="nonzero" fill-opacity="1" /><path clip-path="url(#clip900)" d="M865.019 1481.64 L881.338 1481.64 L881.338 1485.58 L859.394 1485.58 L859.394 1481.64 Q862.056 1478.89 866.639 1474.26 Q871.245 1469.61 872.426 1468.27 Q874.671 1465.74 875.551 1464.01 Q876.454 1462.25 876.454 1460.56 Q876.454 1457.8 874.509 1456.07 Q872.588 1454.33 869.486 1454.33 Q867.287 1454.33 864.833 1455.09 Q862.403 1455.86 859.625 1457.41 L859.625 1452.69 Q862.449 1451.55 864.903 1450.97 Q867.357 1450.39 869.394 1450.39 Q874.764 1450.39 877.958 1453.08 Q881.153 1455.77 881.153 1460.26 Q881.153 1462.39 880.343 1464.31 Q879.556 1466.2 877.449 1468.8 Q876.87 1469.47 873.769 1472.69 Q870.667 1475.88 865.019 1481.64 Z" fill="#000000" fill-rule="nonzero" fill-opacity="1" /><path clip-path="url(#clip900)" d="M891.199 1451.02 L909.555 1451.02 L909.555 1454.96 L895.481 1454.96 L895.481 1463.43 Q896.5 1463.08 897.518 1462.92 Q898.537 1462.73 899.555 1462.73 Q905.342 1462.73 908.722 1465.9 Q912.102 1469.08 912.102 1474.49 Q912.102 1480.07 908.629 1483.17 Q905.157 1486.25 898.838 1486.25 Q896.662 1486.25 894.393 1485.88 Q892.148 1485.51 889.741 1484.77 L889.741 1480.07 Q891.824 1481.2 894.046 1481.76 Q896.268 1482.32 898.745 1482.32 Q902.75 1482.32 905.088 1480.21 Q907.426 1478.1 907.426 1474.49 Q907.426 1470.88 905.088 1468.77 Q902.75 1466.67 898.745 1466.67 Q896.87 1466.67 894.995 1467.08 Q893.143 1467.5 891.199 1468.38 L891.199 1451.02 Z" fill="#000000" fill-rule="nonzero" fill-opacity="1" /><path clip-path="url(#clip900)" d="M1305.22 1466.44 Q1302.07 1466.44 1300.22 1468.59 Q1298.39 1470.74 1298.39 1474.49 Q1298.39 1478.22 1300.22 1480.39 Q1302.07 1482.55 1305.22 1482.55 Q1308.36 1482.55 1310.19 1480.39 Q1312.05 1478.22 1312.05 1474.49 Q1312.05 1470.74 1310.19 1468.59 Q1308.36 1466.44 1305.22 1466.44 M1314.5 1451.78 L1314.5 1456.04 Q1312.74 1455.21 1310.93 1454.77 Q1309.15 1454.33 1307.39 1454.33 Q1302.76 1454.33 1300.31 1457.45 Q1297.88 1460.58 1297.53 1466.9 Q1298.9 1464.89 1300.96 1463.82 Q1303.02 1462.73 1305.49 1462.73 Q1310.7 1462.73 1313.71 1465.9 Q1316.74 1469.05 1316.74 1474.49 Q1316.74 1479.82 1313.6 1483.03 Q1310.45 1486.25 1305.22 1486.25 Q1299.22 1486.25 1296.05 1481.67 Q1292.88 1477.06 1292.88 1468.33 Q1292.88 1460.14 1296.77 1455.28 Q1300.66 1450.39 1307.21 1450.39 Q1308.97 1450.39 1310.75 1450.74 Q1312.55 1451.09 1314.5 1451.78 Z" fill="#000000" fill-rule="nonzero" fill-opacity="1" /><path clip-path="url(#clip900)" d="M1337.65 1455.09 L1325.84 1473.54 L1337.65 1473.54 L1337.65 1455.09 M1336.42 1451.02 L1342.3 1451.02 L1342.3 1473.54 L1347.23 1473.54 L1347.23 1477.43 L1342.3 1477.43 L1342.3 1485.58 L1337.65 1485.58 L1337.65 1477.43 L1322.05 1477.43 L1322.05 1472.92 L1336.42 1451.02 Z" fill="#000000" fill-rule="nonzero" fill-opacity="1" /><path clip-path="url(#clip900)" d="M1355.01 1451.02 L1373.36 1451.02 L1373.36 1454.96 L1359.29 1454.96 L1359.29 1463.43 Q1360.31 1463.08 1361.33 1462.92 Q1362.35 1462.73 1363.36 1462.73 Q1369.15 1462.73 1372.53 1465.9 Q1375.91 1469.08 1375.91 1474.49 Q1375.91 1480.07 1372.44 1483.17 Q1368.97 1486.25 1362.65 1486.25 Q1360.47 1486.25 1358.2 1485.88 Q1355.96 1485.51 1353.55 1484.77 L1353.55 1480.07 Q1355.63 1481.2 1357.86 1481.76 Q1360.08 1482.32 1362.55 1482.32 Q1366.56 1482.32 1368.9 1480.21 Q1371.23 1478.1 1371.23 1474.49 Q1371.23 1470.88 1368.9 1468.77 Q1366.56 1466.67 1362.55 1466.67 Q1360.68 1466.67 1358.8 1467.08 Q1356.95 1467.5 1355.01 1468.38 L1355.01 1451.02 Z" fill="#000000" fill-rule="nonzero" fill-opacity="1" /><path clip-path="url(#clip900)" d="M1395.12 1454.1 Q1391.51 1454.1 1389.68 1457.66 Q1387.88 1461.2 1387.88 1468.33 Q1387.88 1475.44 1389.68 1479.01 Q1391.51 1482.55 1395.12 1482.55 Q1398.76 1482.55 1400.56 1479.01 Q1402.39 1475.44 1402.39 1468.33 Q1402.39 1461.2 1400.56 1457.66 Q1398.76 1454.1 1395.12 1454.1 M1395.12 1450.39 Q1400.93 1450.39 1403.99 1455 Q1407.07 1459.58 1407.07 1468.33 Q1407.07 1477.06 1403.99 1481.67 Q1400.93 1486.25 1395.12 1486.25 Q1389.31 1486.25 1386.23 1481.67 Q1383.18 1477.06 1383.18 1468.33 Q1383.18 1459.58 1386.23 1455 Q1389.31 1450.39 1395.12 1450.39 Z" fill="#000000" fill-rule="nonzero" fill-opacity="1" /><path clip-path="url(#clip900)" d="M1800.18 1466.44 Q1797.03 1466.44 1795.18 1468.59 Q1793.35 1470.74 1793.35 1474.49 Q1793.35 1478.22 1795.18 1480.39 Q1797.03 1482.55 1800.18 1482.55 Q1803.33 1482.55 1805.16 1480.39 Q1807.01 1478.22 1807.01 1474.49 Q1807.01 1470.74 1805.16 1468.59 Q1803.33 1466.44 1800.18 1466.44 M1809.47 1451.78 L1809.47 1456.04 Q1807.71 1455.21 1805.9 1454.77 Q1804.12 1454.33 1802.36 1454.33 Q1797.73 1454.33 1795.28 1457.45 Q1792.85 1460.58 1792.5 1466.9 Q1793.86 1464.89 1795.92 1463.82 Q1797.98 1462.73 1800.46 1462.73 Q1805.67 1462.73 1808.68 1465.9 Q1811.71 1469.05 1811.71 1474.49 Q1811.71 1479.82 1808.56 1483.03 Q1805.41 1486.25 1800.18 1486.25 Q1794.19 1486.25 1791.02 1481.67 Q1787.85 1477.06 1787.85 1468.33 Q1787.85 1460.14 1791.73 1455.28 Q1795.62 1450.39 1802.17 1450.39 Q1803.93 1450.39 1805.72 1450.74 Q1807.52 1451.09 1809.47 1451.78 Z" fill="#000000" fill-rule="nonzero" fill-opacity="1" /><path clip-path="url(#clip900)" d="M1832.61 1455.09 L1820.81 1473.54 L1832.61 1473.54 L1832.61 1455.09 M1831.39 1451.02 L1837.27 1451.02 L1837.27 1473.54 L1842.2 1473.54 L1842.2 1477.43 L1837.27 1477.43 L1837.27 1485.58 L1832.61 1485.58 L1832.61 1477.43 L1817.01 1477.43 L1817.01 1472.92 L1831.39 1451.02 Z" fill="#000000" fill-rule="nonzero" fill-opacity="1" /><path clip-path="url(#clip900)" d="M1848.75 1451.02 L1870.97 1451.02 L1870.97 1453.01 L1858.42 1485.58 L1853.54 1485.58 L1865.34 1454.96 L1848.75 1454.96 L1848.75 1451.02 Z" fill="#000000" fill-rule="nonzero" fill-opacity="1" /><path clip-path="url(#clip900)" d="M1880.14 1451.02 L1898.49 1451.02 L1898.49 1454.96 L1884.42 1454.96 L1884.42 1463.43 Q1885.44 1463.08 1886.46 1462.92 Q1887.47 1462.73 1888.49 1462.73 Q1894.28 1462.73 1897.66 1465.9 Q1901.04 1469.08 1901.04 1474.49 Q1901.04 1480.07 1897.57 1483.17 Q1894.09 1486.25 1887.78 1486.25 Q1885.6 1486.25 1883.33 1485.88 Q1881.09 1485.51 1878.68 1484.77 L1878.68 1480.07 Q1880.76 1481.2 1882.98 1481.76 Q1885.21 1482.32 1887.68 1482.32 Q1891.69 1482.32 1894.03 1480.21 Q1896.36 1478.1 1896.36 1474.49 Q1896.36 1470.88 1894.03 1468.77 Q1891.69 1466.67 1887.68 1466.67 Q1885.81 1466.67 1883.93 1467.08 Q1882.08 1467.5 1880.14 1468.38 L1880.14 1451.02 Z" fill="#000000" fill-rule="nonzero" fill-opacity="1" /><path clip-path="url(#clip900)" d="M2294.15 1466.44 Q2291.01 1466.44 2289.15 1468.59 Q2287.33 1470.74 2287.33 1474.49 Q2287.33 1478.22 2289.15 1480.39 Q2291.01 1482.55 2294.15 1482.55 Q2297.3 1482.55 2299.13 1480.39 Q2300.98 1478.22 2300.98 1474.49 Q2300.98 1470.74 2299.13 1468.59 Q2297.3 1466.44 2294.15 1466.44 M2303.44 1451.78 L2303.44 1456.04 Q2301.68 1455.21 2299.87 1454.77 Q2298.09 1454.33 2296.33 1454.33 Q2291.7 1454.33 2289.25 1457.45 Q2286.82 1460.58 2286.47 1466.9 Q2287.83 1464.89 2289.89 1463.82 Q2291.96 1462.73 2294.43 1462.73 Q2299.64 1462.73 2302.65 1465.9 Q2305.68 1469.05 2305.68 1474.49 Q2305.68 1479.82 2302.53 1483.03 Q2299.39 1486.25 2294.15 1486.25 Q2288.16 1486.25 2284.99 1481.67 Q2281.82 1477.06 2281.82 1468.33 Q2281.82 1460.14 2285.71 1455.28 Q2289.59 1450.39 2296.14 1450.39 Q2297.9 1450.39 2299.69 1450.74 Q2301.49 1451.09 2303.44 1451.78 Z" fill="#000000" fill-rule="nonzero" fill-opacity="1" /><path clip-path="url(#clip900)" d="M2313.78 1451.02 L2332.14 1451.02 L2332.14 1454.96 L2318.07 1454.96 L2318.07 1463.43 Q2319.08 1463.08 2320.1 1462.92 Q2321.12 1462.73 2322.14 1462.73 Q2327.93 1462.73 2331.31 1465.9 Q2334.69 1469.08 2334.69 1474.49 Q2334.69 1480.07 2331.21 1483.17 Q2327.74 1486.25 2321.42 1486.25 Q2319.25 1486.25 2316.98 1485.88 Q2314.73 1485.51 2312.33 1484.77 L2312.33 1480.07 Q2314.41 1481.2 2316.63 1481.76 Q2318.85 1482.32 2321.33 1482.32 Q2325.33 1482.32 2327.67 1480.21 Q2330.01 1478.1 2330.01 1474.49 Q2330.01 1470.88 2327.67 1468.77 Q2325.33 1466.67 2321.33 1466.67 Q2319.45 1466.67 2317.58 1467.08 Q2315.73 1467.5 2313.78 1468.38 L2313.78 1451.02 Z" fill="#000000" fill-rule="nonzero" fill-opacity="1" /><path clip-path="url(#clip900)" d="M2353.9 1454.1 Q2350.29 1454.1 2348.46 1457.66 Q2346.65 1461.2 2346.65 1468.33 Q2346.65 1475.44 2348.46 1479.01 Q2350.29 1482.55 2353.9 1482.55 Q2357.53 1482.55 2359.34 1479.01 Q2361.17 1475.44 2361.17 1468.33 Q2361.17 1461.2 2359.34 1457.66 Q2357.53 1454.1 2353.9 1454.1 M2353.9 1450.39 Q2359.71 1450.39 2362.76 1455 Q2365.84 1459.58 2365.84 1468.33 Q2365.84 1477.06 2362.76 1481.67 Q2359.71 1486.25 2353.9 1486.25 Q2348.09 1486.25 2345.01 1481.67 Q2341.95 1477.06 2341.95 1468.33 Q2341.95 1459.58 2345.01 1455 Q2348.09 1450.39 2353.9 1450.39 Z" fill="#000000" fill-rule="nonzero" fill-opacity="1" /><path clip-path="url(#clip900)" d="M2384.06 1454.1 Q2380.45 1454.1 2378.62 1457.66 Q2376.82 1461.2 2376.82 1468.33 Q2376.82 1475.44 2378.62 1479.01 Q2380.45 1482.55 2384.06 1482.55 Q2387.7 1482.55 2389.5 1479.01 Q2391.33 1475.44 2391.33 1468.33 Q2391.33 1461.2 2389.5 1457.66 Q2387.7 1454.1 2384.06 1454.1 M2384.06 1450.39 Q2389.87 1450.39 2392.93 1455 Q2396.01 1459.58 2396.01 1468.33 Q2396.01 1477.06 2392.93 1481.67 Q2389.87 1486.25 2384.06 1486.25 Q2378.25 1486.25 2375.17 1481.67 Q2372.12 1477.06 2372.12 1468.33 Q2372.12 1459.58 2375.17 1455 Q2378.25 1450.39 2384.06 1450.39 Z" fill="#000000" fill-rule="nonzero" fill-opacity="1" /><path clip-path="url(#clip900)" d="M1136.68 1520.52 L1176.88 1520.52 L1176.88 1525.93 L1160.01 1525.93 L1160.01 1568.04 L1153.55 1568.04 L1153.55 1525.93 L1136.68 1525.93 L1136.68 1520.52 Z" fill="#000000" fill-rule="nonzero" fill-opacity="1" /><path clip-path="url(#clip900)" d="M1180.83 1532.4 L1186.68 1532.4 L1186.68 1568.04 L1180.83 1568.04 L1180.83 1532.4 M1180.83 1518.52 L1186.68 1518.52 L1186.68 1525.93 L1180.83 1525.93 L1180.83 1518.52 Z" fill="#000000" fill-rule="nonzero" fill-opacity="1" /><path clip-path="url(#clip900)" d="M1226.69 1539.24 Q1228.89 1535.29 1231.95 1533.41 Q1235 1531.54 1239.14 1531.54 Q1244.71 1531.54 1247.73 1535.45 Q1250.76 1539.33 1250.76 1546.53 L1250.76 1568.04 L1244.87 1568.04 L1244.87 1546.72 Q1244.87 1541.59 1243.05 1539.11 Q1241.24 1536.63 1237.52 1536.63 Q1232.96 1536.63 1230.32 1539.65 Q1227.68 1542.68 1227.68 1547.9 L1227.68 1568.04 L1221.79 1568.04 L1221.79 1546.72 Q1221.79 1541.56 1219.98 1539.11 Q1218.16 1536.63 1214.38 1536.63 Q1209.89 1536.63 1207.25 1539.68 Q1204.6 1542.71 1204.6 1547.9 L1204.6 1568.04 L1198.72 1568.04 L1198.72 1532.4 L1204.6 1532.4 L1204.6 1537.93 Q1206.61 1534.66 1209.41 1533.1 Q1212.21 1531.54 1216.06 1531.54 Q1219.95 1531.54 1222.65 1533.51 Q1225.39 1535.48 1226.69 1539.24 Z" fill="#000000" fill-rule="nonzero" fill-opacity="1" /><path clip-path="url(#clip900)" d="M1292.93 1548.76 L1292.93 1551.62 L1266 1551.62 Q1266.38 1557.67 1269.63 1560.85 Q1272.91 1564 1278.73 1564 Q1282.11 1564 1285.26 1563.17 Q1288.44 1562.35 1291.56 1560.69 L1291.56 1566.23 Q1288.41 1567.57 1285.1 1568.27 Q1281.79 1568.97 1278.38 1568.97 Q1269.85 1568.97 1264.86 1564 Q1259.89 1559.04 1259.89 1550.57 Q1259.89 1541.82 1264.6 1536.69 Q1269.34 1531.54 1277.36 1531.54 Q1284.56 1531.54 1288.73 1536.18 Q1292.93 1540.8 1292.93 1548.76 M1287.07 1547.04 Q1287.01 1542.23 1284.37 1539.37 Q1281.76 1536.5 1277.43 1536.5 Q1272.53 1536.5 1269.57 1539.27 Q1266.64 1542.04 1266.19 1547.07 L1287.07 1547.04 Z" fill="#000000" fill-rule="nonzero" fill-opacity="1" /><path clip-path="url(#clip900)" d="M1322.72 1518.52 L1336.22 1518.52 L1336.22 1523.07 L1328.58 1523.07 L1328.58 1572.09 L1336.22 1572.09 L1336.22 1576.64 L1322.72 1576.64 L1322.72 1518.52 Z" fill="#000000" fill-rule="nonzero" fill-opacity="1" /><path clip-path="url(#clip900)" d="M1371.42 1533.45 L1371.42 1538.98 Q1368.94 1537.71 1366.26 1537.07 Q1363.59 1536.44 1360.72 1536.44 Q1356.36 1536.44 1354.17 1537.77 Q1352 1539.11 1352 1541.79 Q1352 1543.82 1353.56 1545 Q1355.12 1546.15 1359.83 1547.2 L1361.84 1547.64 Q1368.08 1548.98 1370.69 1551.43 Q1373.33 1553.85 1373.33 1558.21 Q1373.33 1563.17 1369.38 1566.07 Q1365.47 1568.97 1358.59 1568.97 Q1355.73 1568.97 1352.61 1568.39 Q1349.52 1567.85 1346.08 1566.74 L1346.08 1560.69 Q1349.33 1562.38 1352.48 1563.24 Q1355.63 1564.07 1358.72 1564.07 Q1362.86 1564.07 1365.08 1562.66 Q1367.31 1561.23 1367.31 1558.65 Q1367.31 1556.27 1365.69 1554.99 Q1364.1 1553.72 1358.65 1552.54 L1356.62 1552.07 Q1351.17 1550.92 1348.76 1548.56 Q1346.34 1546.18 1346.34 1542.04 Q1346.34 1537.01 1349.9 1534.27 Q1353.47 1531.54 1360.02 1531.54 Q1363.27 1531.54 1366.13 1532.01 Q1369 1532.49 1371.42 1533.45 Z" fill="#000000" fill-rule="nonzero" fill-opacity="1" /><path clip-path="url(#clip900)" d="M1413.14 1548.76 L1413.14 1551.62 L1386.22 1551.62 Q1386.6 1557.67 1389.85 1560.85 Q1393.12 1564 1398.95 1564 Q1402.32 1564 1405.47 1563.17 Q1408.66 1562.35 1411.78 1560.69 L1411.78 1566.23 Q1408.63 1567.57 1405.32 1568.27 Q1402 1568.97 1398.6 1568.97 Q1390.07 1568.97 1385.07 1564 Q1380.11 1559.04 1380.11 1550.57 Q1380.11 1541.82 1384.82 1536.69 Q1389.56 1531.54 1397.58 1531.54 Q1404.77 1531.54 1408.94 1536.18 Q1413.14 1540.8 1413.14 1548.76 M1407.29 1547.04 Q1407.22 1542.23 1404.58 1539.37 Q1401.97 1536.5 1397.64 1536.5 Q1392.74 1536.5 1389.78 1539.27 Q1386.85 1542.04 1386.41 1547.07 L1407.29 1547.04 Z" fill="#000000" fill-rule="nonzero" fill-opacity="1" /><path clip-path="url(#clip900)" d="M1448.41 1533.76 L1448.41 1539.24 Q1445.93 1537.87 1443.41 1537.2 Q1440.93 1536.5 1438.38 1536.5 Q1432.69 1536.5 1429.54 1540.13 Q1426.39 1543.73 1426.39 1550.25 Q1426.39 1556.78 1429.54 1560.4 Q1432.69 1564 1438.38 1564 Q1440.93 1564 1443.41 1563.33 Q1445.93 1562.63 1448.41 1561.26 L1448.41 1566.68 Q1445.96 1567.82 1443.32 1568.39 Q1440.71 1568.97 1437.75 1568.97 Q1429.7 1568.97 1424.95 1563.91 Q1420.21 1558.85 1420.21 1550.25 Q1420.21 1541.53 1424.99 1536.53 Q1429.79 1531.54 1438.13 1531.54 Q1440.84 1531.54 1443.41 1532.11 Q1445.99 1532.65 1448.41 1533.76 Z" fill="#000000" fill-rule="nonzero" fill-opacity="1" /><path clip-path="url(#clip900)" d="M1472.28 1518.52 L1472.28 1576.64 L1458.79 1576.64 L1458.79 1572.09 L1466.39 1572.09 L1466.39 1523.07 L1458.79 1523.07 L1458.79 1518.52 L1472.28 1518.52 Z" fill="#000000" fill-rule="nonzero" fill-opacity="1" /><polyline clip-path="url(#clip902)" style="stroke:#000000; stroke-linecap:round; stroke-linejoin:round; stroke-width:2; stroke-opacity:0.1; fill:none" points="256.209,1227.14 2352.76,1227.14 "/>
<polyline clip-path="url(#clip902)" style="stroke:#000000; stroke-linecap:round; stroke-linejoin:round; stroke-width:2; stroke-opacity:0.1; fill:none" points="256.209,917.685 2352.76,917.685 "/>
<polyline clip-path="url(#clip902)" style="stroke:#000000; stroke-linecap:round; stroke-linejoin:round; stroke-width:2; stroke-opacity:0.1; fill:none" points="256.209,608.23 2352.76,608.23 "/>
<polyline clip-path="url(#clip902)" style="stroke:#000000; stroke-linecap:round; stroke-linejoin:round; stroke-width:2; stroke-opacity:0.1; fill:none" points="256.209,298.775 2352.76,298.775 "/>
<polyline clip-path="url(#clip900)" style="stroke:#000000; stroke-linecap:round; stroke-linejoin:round; stroke-width:4; stroke-opacity:1; fill:none" points="256.209,1423.18 256.209,47.2441 "/>
<polyline clip-path="url(#clip900)" style="stroke:#000000; stroke-linecap:round; stroke-linejoin:round; stroke-width:4; stroke-opacity:1; fill:none" points="256.209,1227.14 275.106,1227.14 "/>
<polyline clip-path="url(#clip900)" style="stroke:#000000; stroke-linecap:round; stroke-linejoin:round; stroke-width:4; stroke-opacity:1; fill:none" points="256.209,917.685 275.106,917.685 "/>
<polyline clip-path="url(#clip900)" style="stroke:#000000; stroke-linecap:round; stroke-linejoin:round; stroke-width:4; stroke-opacity:1; fill:none" points="256.209,608.23 275.106,608.23 "/>
<polyline clip-path="url(#clip900)" style="stroke:#000000; stroke-linecap:round; stroke-linejoin:round; stroke-width:4; stroke-opacity:1; fill:none" points="256.209,298.775 275.106,298.775 "/>
<path clip-path="url(#clip900)" d="M114.26 1227.59 L143.936 1227.59 L143.936 1231.53 L114.26 1231.53 L114.26 1227.59 Z" fill="#000000" fill-rule="nonzero" fill-opacity="1" /><path clip-path="url(#clip900)" d="M158.056 1240.49 L174.376 1240.49 L174.376 1244.42 L152.431 1244.42 L152.431 1240.49 Q155.093 1237.73 159.677 1233.1 Q164.283 1228.45 165.464 1227.11 Q167.709 1224.58 168.589 1222.85 Q169.491 1221.09 169.491 1219.4 Q169.491 1216.64 167.547 1214.91 Q165.626 1213.17 162.524 1213.17 Q160.325 1213.17 157.871 1213.93 Q155.44 1214.7 152.663 1216.25 L152.663 1211.53 Q155.487 1210.39 157.94 1209.81 Q160.394 1209.24 162.431 1209.24 Q167.802 1209.24 170.996 1211.92 Q174.19 1214.61 174.19 1219.1 Q174.19 1221.23 173.38 1223.15 Q172.593 1225.05 170.487 1227.64 Q169.908 1228.31 166.806 1231.53 Q163.704 1234.72 158.056 1240.49 Z" fill="#000000" fill-rule="nonzero" fill-opacity="1" /><path clip-path="url(#clip900)" d="M184.19 1238.54 L189.075 1238.54 L189.075 1244.42 L184.19 1244.42 L184.19 1238.54 Z" fill="#000000" fill-rule="nonzero" fill-opacity="1" /><path clip-path="url(#clip900)" d="M199.306 1209.86 L217.662 1209.86 L217.662 1213.8 L203.588 1213.8 L203.588 1222.27 Q204.607 1221.92 205.625 1221.76 Q206.644 1221.57 207.662 1221.57 Q213.449 1221.57 216.829 1224.74 Q220.209 1227.92 220.209 1233.33 Q220.209 1238.91 216.736 1242.01 Q213.264 1245.09 206.945 1245.09 Q204.769 1245.09 202.5 1244.72 Q200.255 1244.35 197.848 1243.61 L197.848 1238.91 Q199.931 1240.05 202.153 1240.6 Q204.375 1241.16 206.852 1241.16 Q210.857 1241.16 213.195 1239.05 Q215.533 1236.94 215.533 1233.33 Q215.533 1229.72 213.195 1227.61 Q210.857 1225.51 206.852 1225.51 Q204.977 1225.51 203.102 1225.93 Q201.25 1226.34 199.306 1227.22 L199.306 1209.86 Z" fill="#000000" fill-rule="nonzero" fill-opacity="1" /><path clip-path="url(#clip900)" d="M163.033 903.484 Q159.422 903.484 157.593 907.049 Q155.788 910.59 155.788 917.72 Q155.788 924.826 157.593 928.391 Q159.422 931.933 163.033 931.933 Q166.667 931.933 168.473 928.391 Q170.302 924.826 170.302 917.72 Q170.302 910.59 168.473 907.049 Q166.667 903.484 163.033 903.484 M163.033 899.78 Q168.843 899.78 171.899 904.387 Q174.977 908.97 174.977 917.72 Q174.977 926.447 171.899 931.053 Q168.843 935.636 163.033 935.636 Q157.223 935.636 154.144 931.053 Q151.089 926.447 151.089 917.72 Q151.089 908.97 154.144 904.387 Q157.223 899.78 163.033 899.78 Z" fill="#000000" fill-rule="nonzero" fill-opacity="1" /><path clip-path="url(#clip900)" d="M183.195 929.086 L188.079 929.086 L188.079 934.965 L183.195 934.965 L183.195 929.086 Z" fill="#000000" fill-rule="nonzero" fill-opacity="1" /><path clip-path="url(#clip900)" d="M208.264 903.484 Q204.653 903.484 202.824 907.049 Q201.019 910.59 201.019 917.72 Q201.019 924.826 202.824 928.391 Q204.653 931.933 208.264 931.933 Q211.899 931.933 213.704 928.391 Q215.533 924.826 215.533 917.72 Q215.533 910.59 213.704 907.049 Q211.899 903.484 208.264 903.484 M208.264 899.78 Q214.074 899.78 217.13 904.387 Q220.209 908.97 220.209 917.72 Q220.209 926.447 217.13 931.053 Q214.074 935.636 208.264 935.636 Q202.454 935.636 199.375 931.053 Q196.32 926.447 196.32 917.72 Q196.32 908.97 199.375 904.387 Q202.454 899.78 208.264 899.78 Z" fill="#000000" fill-rule="nonzero" fill-opacity="1" /><path clip-path="url(#clip900)" d="M158.056 621.575 L174.376 621.575 L174.376 625.51 L152.431 625.51 L152.431 621.575 Q155.093 618.82 159.677 614.191 Q164.283 609.538 165.464 608.195 Q167.709 605.672 168.589 603.936 Q169.491 602.177 169.491 600.487 Q169.491 597.732 167.547 595.996 Q165.626 594.26 162.524 594.26 Q160.325 594.26 157.871 595.024 Q155.44 595.788 152.663 597.339 L152.663 592.617 Q155.487 591.482 157.94 590.904 Q160.394 590.325 162.431 590.325 Q167.802 590.325 170.996 593.01 Q174.19 595.695 174.19 600.186 Q174.19 602.316 173.38 604.237 Q172.593 606.135 170.487 608.728 Q169.908 609.399 166.806 612.617 Q163.704 615.811 158.056 621.575 Z" fill="#000000" fill-rule="nonzero" fill-opacity="1" /><path clip-path="url(#clip900)" d="M184.19 619.63 L189.075 619.63 L189.075 625.51 L184.19 625.51 L184.19 619.63 Z" fill="#000000" fill-rule="nonzero" fill-opacity="1" /><path clip-path="url(#clip900)" d="M199.306 590.95 L217.662 590.95 L217.662 594.885 L203.588 594.885 L203.588 603.357 Q204.607 603.01 205.625 602.848 Q206.644 602.663 207.662 602.663 Q213.449 602.663 216.829 605.834 Q220.209 609.005 220.209 614.422 Q220.209 620.001 216.736 623.103 Q213.264 626.181 206.945 626.181 Q204.769 626.181 202.5 625.811 Q200.255 625.441 197.848 624.7 L197.848 620.001 Q199.931 621.135 202.153 621.691 Q204.375 622.246 206.852 622.246 Q210.857 622.246 213.195 620.14 Q215.533 618.033 215.533 614.422 Q215.533 610.811 213.195 608.705 Q210.857 606.598 206.852 606.598 Q204.977 606.598 203.102 607.015 Q201.25 607.431 199.306 608.311 L199.306 590.95 Z" fill="#000000" fill-rule="nonzero" fill-opacity="1" /><path clip-path="url(#clip900)" d="M153.079 281.495 L171.436 281.495 L171.436 285.43 L157.362 285.43 L157.362 293.902 Q158.38 293.555 159.399 293.393 Q160.417 293.208 161.436 293.208 Q167.223 293.208 170.602 296.379 Q173.982 299.55 173.982 304.967 Q173.982 310.546 170.51 313.647 Q167.038 316.726 160.718 316.726 Q158.542 316.726 156.274 316.356 Q154.028 315.985 151.621 315.245 L151.621 310.546 Q153.704 311.68 155.927 312.235 Q158.149 312.791 160.626 312.791 Q164.63 312.791 166.968 310.684 Q169.306 308.578 169.306 304.967 Q169.306 301.356 166.968 299.249 Q164.63 297.143 160.626 297.143 Q158.751 297.143 156.876 297.56 Q155.024 297.976 153.079 298.856 L153.079 281.495 Z" fill="#000000" fill-rule="nonzero" fill-opacity="1" /><path clip-path="url(#clip900)" d="M183.195 310.175 L188.079 310.175 L188.079 316.055 L183.195 316.055 L183.195 310.175 Z" fill="#000000" fill-rule="nonzero" fill-opacity="1" /><path clip-path="url(#clip900)" d="M208.264 284.574 Q204.653 284.574 202.824 288.138 Q201.019 291.68 201.019 298.81 Q201.019 305.916 202.824 309.481 Q204.653 313.022 208.264 313.022 Q211.899 313.022 213.704 309.481 Q215.533 305.916 215.533 298.81 Q215.533 291.68 213.704 288.138 Q211.899 284.574 208.264 284.574 M208.264 280.87 Q214.074 280.87 217.13 285.476 Q220.209 290.06 220.209 298.81 Q220.209 307.536 217.13 312.143 Q214.074 316.726 208.264 316.726 Q202.454 316.726 199.375 312.143 Q196.32 307.536 196.32 298.81 Q196.32 290.06 199.375 285.476 Q202.454 280.87 208.264 280.87 Z" fill="#000000" fill-rule="nonzero" fill-opacity="1" /><path clip-path="url(#clip900)" d="M16.4842 948.145 L16.4842 918.099 L21.895 918.099 L21.895 941.715 L35.9632 941.715 L35.9632 919.085 L41.3741 919.085 L41.3741 941.715 L58.5933 941.715 L58.5933 917.526 L64.0042 917.526 L64.0042 948.145 L16.4842 948.145 Z" fill="#000000" fill-rule="nonzero" fill-opacity="1" /><path clip-path="url(#clip900)" d="M14.479 907.213 L14.479 901.357 L64.0042 901.357 L64.0042 907.213 L14.479 907.213 Z" fill="#000000" fill-rule="nonzero" fill-opacity="1" /><path clip-path="url(#clip900)" d="M44.7161 858.611 L47.5806 858.611 L47.5806 885.538 Q53.6281 885.156 56.8109 881.91 Q59.9619 878.631 59.9619 872.807 Q59.9619 869.433 59.1344 866.282 Q58.3069 863.099 56.6518 859.98 L62.1899 859.98 Q63.5267 863.131 64.227 866.441 Q64.9272 869.751 64.9272 873.157 Q64.9272 881.687 59.9619 886.684 Q54.9967 891.649 46.5303 891.649 Q37.7774 891.649 32.6531 886.939 Q27.4968 882.196 27.4968 874.175 Q27.4968 866.982 32.1438 862.813 Q36.7589 858.611 44.7161 858.611 M42.9973 864.468 Q38.1912 864.531 35.3266 867.173 Q32.4621 869.783 32.4621 874.112 Q32.4621 879.013 35.2312 881.973 Q38.0002 884.902 43.0292 885.347 L42.9973 864.468 Z" fill="#000000" fill-rule="nonzero" fill-opacity="1" /><path clip-path="url(#clip900)" d="M28.3562 853.2 L28.3562 846.994 L58.275 835.854 L28.3562 824.714 L28.3562 818.507 L64.0042 831.875 L64.0042 839.832 L28.3562 853.2 Z" fill="#000000" fill-rule="nonzero" fill-opacity="1" /><path clip-path="url(#clip900)" d="M46.0847 794.222 Q46.0847 801.32 47.7079 804.057 Q49.3312 806.794 53.2461 806.794 Q56.3653 806.794 58.2114 804.757 Q60.0256 802.688 60.0256 799.155 Q60.0256 794.286 56.5881 791.358 Q53.1188 788.397 47.3897 788.397 L46.0847 788.397 L46.0847 794.222 M43.6657 782.541 L64.0042 782.541 L64.0042 788.397 L58.5933 788.397 Q61.8398 790.403 63.3994 793.395 Q64.9272 796.386 64.9272 800.715 Q64.9272 806.19 61.8716 809.436 Q58.7843 812.651 53.6281 812.651 Q47.6125 812.651 44.5569 808.64 Q41.5014 804.598 41.5014 796.609 L41.5014 788.397 L40.9285 788.397 Q36.8862 788.397 34.6901 791.071 Q32.4621 793.713 32.4621 798.519 Q32.4621 801.574 33.1941 804.471 Q33.9262 807.367 35.3903 810.041 L29.9795 810.041 Q28.7381 806.826 28.1334 803.802 Q27.4968 800.779 27.4968 797.914 Q27.4968 790.18 31.5072 786.36 Q35.5176 782.541 43.6657 782.541 Z" fill="#000000" fill-rule="nonzero" fill-opacity="1" /><path clip-path="url(#clip900)" d="M18.2347 764.685 L28.3562 764.685 L28.3562 752.622 L32.9077 752.622 L32.9077 764.685 L52.2594 764.685 Q56.6199 764.685 57.8613 763.508 Q59.1026 762.298 59.1026 758.638 L59.1026 752.622 L64.0042 752.622 L64.0042 758.638 Q64.0042 765.417 61.4897 767.995 Q58.9434 770.573 52.2594 770.573 L32.9077 770.573 L32.9077 774.87 L28.3562 774.87 L28.3562 770.573 L18.2347 770.573 L18.2347 764.685 Z" fill="#000000" fill-rule="nonzero" fill-opacity="1" /><path clip-path="url(#clip900)" d="M28.3562 744.92 L28.3562 739.063 L64.0042 739.063 L64.0042 744.92 L28.3562 744.92 M14.479 744.92 L14.479 739.063 L21.895 739.063 L21.895 744.92 L14.479 744.92 Z" fill="#000000" fill-rule="nonzero" fill-opacity="1" /><path clip-path="url(#clip900)" d="M32.4621 712.996 Q32.4621 717.706 36.1542 720.444 Q39.8145 723.181 46.212 723.181 Q52.6095 723.181 56.3017 720.475 Q59.9619 717.738 59.9619 712.996 Q59.9619 708.317 56.2698 705.58 Q52.5777 702.842 46.212 702.842 Q39.8781 702.842 36.186 705.58 Q32.4621 708.317 32.4621 712.996 M27.4968 712.996 Q27.4968 705.357 32.4621 700.996 Q37.4273 696.636 46.212 696.636 Q54.9649 696.636 59.9619 700.996 Q64.9272 705.357 64.9272 712.996 Q64.9272 720.666 59.9619 725.027 Q54.9649 729.356 46.212 729.356 Q37.4273 729.356 32.4621 725.027 Q27.4968 720.666 27.4968 712.996 Z" fill="#000000" fill-rule="nonzero" fill-opacity="1" /><path clip-path="url(#clip900)" d="M42.4881 657.296 L64.0042 657.296 L64.0042 663.152 L42.679 663.152 Q37.6183 663.152 35.1038 665.126 Q32.5894 667.099 32.5894 671.046 Q32.5894 675.788 35.6131 678.525 Q38.6368 681.263 43.8567 681.263 L64.0042 681.263 L64.0042 687.151 L28.3562 687.151 L28.3562 681.263 L33.8944 681.263 Q30.6797 679.162 29.0883 676.329 Q27.4968 673.465 27.4968 669.741 Q27.4968 663.598 31.3163 660.447 Q35.1038 657.296 42.4881 657.296 Z" fill="#000000" fill-rule="nonzero" fill-opacity="1" /><path clip-path="url(#clip900)" d="M14.479 625.435 L14.479 611.94 L19.0304 611.94 L19.0304 619.579 L68.0464 619.579 L68.0464 611.94 L72.5979 611.94 L72.5979 625.435 L14.479 625.435 Z" fill="#000000" fill-rule="nonzero" fill-opacity="1" /><path clip-path="url(#clip900)" d="M35.1993 571.709 Q31.2526 569.513 29.3747 566.457 Q27.4968 563.402 27.4968 559.264 Q27.4968 553.694 31.4117 550.67 Q35.2948 547.646 42.4881 547.646 L64.0042 547.646 L64.0042 553.535 L42.679 553.535 Q37.5546 553.535 35.072 555.349 Q32.5894 557.163 32.5894 560.887 Q32.5894 565.439 35.6131 568.08 Q38.6368 570.722 43.8567 570.722 L64.0042 570.722 L64.0042 576.61 L42.679 576.61 Q37.5228 576.61 35.072 578.425 Q32.5894 580.239 32.5894 584.026 Q32.5894 588.514 35.6449 591.156 Q38.6686 593.798 43.8567 593.798 L64.0042 593.798 L64.0042 599.686 L28.3562 599.686 L28.3562 593.798 L33.8944 593.798 Q30.616 591.793 29.0564 588.992 Q27.4968 586.191 27.4968 582.34 Q27.4968 578.456 29.4702 575.751 Q31.4436 573.014 35.1993 571.709 Z" fill="#000000" fill-rule="nonzero" fill-opacity="1" /><path clip-path="url(#clip900)" d="M14.479 522.279 L72.5979 522.279 L72.5979 535.774 L68.0464 535.774 L68.0464 528.167 L19.0304 528.167 L19.0304 535.774 L14.479 535.774 L14.479 522.279 Z" fill="#000000" fill-rule="nonzero" fill-opacity="1" /><polyline clip-path="url(#clip902)" style="stroke:#0000ff; stroke-linecap:round; stroke-linejoin:round; stroke-width:4; stroke-opacity:1; fill:none" points="315.545,1071.75 317.523,1082.3 319.501,1091.75 321.479,1100.06 323.456,1107.19 325.434,1113.08 327.412,1117.72 329.39,1121.08 331.368,1123.13 333.346,1123.88 335.324,1123.3 337.302,1121.4 339.279,1118.19 341.257,1113.68 343.235,1107.88 345.213,1100.82 347.191,1092.52 349.169,1083.04 351.147,1072.42 353.125,1060.73 355.102,1048.02 357.08,1034.39 359.058,1019.93 361.036,1004.77 363.014,989.023 364.992,972.845 366.97,956.405 368.948,939.892 370.925,923.516 372.903,907.504 374.881,892.095 376.859,877.533 378.837,864.057 380.815,851.882 382.793,841.193 384.771,832.129 386.748,824.773 388.726,819.147 390.704,815.212 392.682,812.873 394.66,811.987 396.638,812.375 398.616,813.832 400.594,816.141 402.571,819.088 404.549,822.463 406.527,826.073 408.505,829.743 410.483,833.321 412.461,836.675 414.439,839.695 416.417,842.291 418.394,844.393 420.372,845.951 422.35,846.934 424.328,847.329 426.306,847.14 428.284,846.388 430.262,845.11 432.24,843.361 434.217,841.212 436.195,838.756 438.173,836.103 440.151,833.383 442.129,830.746 444.107,828.359 446.085,826.403 448.063,825.065 450.04,824.539 452.018,825.009 453.996,826.645 455.974,829.593 457.952,833.963 459.93,839.825 461.908,847.202 463.886,856.068 465.863,866.352 467.841,877.941 469.819,890.688 471.797,904.416 473.775,918.936 475.753,934.045 477.731,949.539 479.709,965.22 481.686,980.896 483.664,996.387 485.642,1011.52 487.62,1026.15 489.598,1040.13 491.576,1053.33 493.554,1065.64 495.532,1076.95 497.509,1087.17 499.487,1096.21 501.465,1104 503.443,1110.48 505.421,1115.57 507.399,1119.24 509.377,1121.43 511.355,1122.09 513.332,1121.2 515.31,1118.72 517.288,1114.63 519.266,1108.9 521.244,1101.51 523.222,1092.44 525.2,1081.64 527.178,1069.13 529.155,1054.89 531.133,1038.97 533.111,1021.37 535.089,1002.07 537.067,981 539.045,958.079 541.023,933.277 543.001,906.697 544.978,878.568 546.956,849.135 548.934,818.48 550.912,786.403 552.89,752.496 554.868,716.448 556.846,678.516 558.824,639.964 560.801,603.237 562.779,571.675 564.757,548.805 566.735,537.46 568.713,539.066 570.691,553.351 572.669,578.534 574.646,611.892 576.624,650.441 578.602,691.507 580.58,733.059 582.558,773.772 584.536,812.924 586.514,850.188 588.492,885.454 590.469,918.694 592.447,949.911 594.425,979.111 596.403,1006.3 598.381,1031.48 600.359,1054.67 602.337,1075.86 604.315,1095.07 606.292,1112.31 608.27,1127.61 610.248,1140.96 612.226,1152.39 614.204,1161.92 616.182,1169.55 618.16,1175.3 620.138,1179.2 622.115,1181.25 624.093,1181.49 626.071,1179.93 628.049,1176.61 630.027,1171.54 632.005,1164.78 633.983,1156.35 635.961,1146.29 637.938,1134.67 639.916,1121.53 641.894,1106.93 643.872,1090.95 645.85,1073.65 647.828,1055.12 649.806,1035.45 651.784,1014.74 653.761,993.075 655.739,970.574 657.717,947.347 659.695,923.51 661.673,899.184 663.651,874.495 665.629,849.567 667.607,824.533 669.584,799.528 671.562,774.696 673.54,750.188 675.518,726.172 677.496,702.826 679.474,680.348 681.452,658.955 683.43,638.884 685.407,620.399 687.385,603.791 689.363,589.385 691.341,577.535 693.319,568.623 695.297,563.04 697.275,561.154 699.253,563.269 701.23,569.588 703.208,580.171 705.186,594.92 707.164,613.579 709.142,635.757 711.12,660.961 713.098,688.644 715.076,718.243 717.053,749.213 719.031,781.052 721.009,813.314 722.987,845.617 724.965,877.633 726.943,909.095 728.921,939.778 730.899,969.503 732.876,998.12 734.854,1025.51 736.832,1051.58 738.81,1076.24 740.788,1099.44 742.766,1121.12 744.744,1141.25 746.722,1159.78 748.699,1176.7 750.677,1191.99 752.655,1205.62 754.633,1217.59 756.611,1227.88 758.589,1236.5 760.567,1243.44 762.545,1248.7 764.522,1252.29 766.5,1254.2 768.478,1254.45 770.456,1253.04 772.434,1249.98 774.412,1245.3 776.39,1239 778.368,1231.13 780.345,1221.69 782.323,1210.71 784.301,1198.19 786.279,1184.16 788.257,1168.7 790.235,1151.89 792.213,1133.84 794.191,1114.5 796.168,1093.66 798.146,1071.26 800.124,1047.92 802.102,1023.33 804.08,997.578 806.058,970.843 808.036,943.096 810.014,914.411 811.991,884.912 813.969,854.623 815.947,823.411 817.925,790.954 819.903,756.981 821.881,721.657 823.859,685.76 825.837,650.182 827.814,614.83 829.792,577.831 831.77,535.961 833.748,486.349 835.726,428.802 837.704,367.735 839.682,312.004 841.66,272.068 843.637,256.101 845.615,267.095 847.593,302.194 849.571,354.411 851.549,415.533 853.527,478.639 855.505,539.346 857.483,595.809 859.46,647.937 861.438,696.394 863.416,741.873 865.394,784.849 867.372,825.621 869.35,864.372 871.328,901.197 873.306,936.144 875.283,969.256 877.261,1000.57 879.239,1030.12 881.217,1057.9 883.195,1083.92 885.173,1108.2 887.151,1130.72 889.129,1151.5 891.106,1170.53 893.084,1187.8 895.062,1203.33 897.04,1217.12 899.018,1229.17 900.996,1239.48 902.974,1248.08 904.952,1254.96 906.929,1260.14 908.907,1263.62 910.885,1265.43 912.863,1265.57 914.841,1264.05 916.819,1260.9 918.797,1256.14 920.775,1249.78 922.752,1241.85 924.73,1232.38 926.708,1221.38 928.686,1208.91 930.664,1194.98 932.642,1179.65 934.62,1162.95 936.598,1144.94 938.575,1125.67 940.553,1105.22 942.531,1083.66 944.509,1061.08 946.487,1037.58 948.465,1013.29 950.443,988.338 952.421,962.894 954.398,937.129 956.376,911.238 958.354,885.427 960.332,859.912 962.31,834.908 964.288,810.623 966.266,787.249 968.244,764.951 970.221,743.868 972.199,724.101 974.177,705.719 976.155,688.763 978.133,673.254 980.111,659.201 982.089,646.615 984.067,635.519 986.044,625.951 988.022,617.97 990,611.651 991.978,607.074 993.956,604.319 995.934,603.455 997.912,604.529 999.89,607.565 1001.87,612.562 1003.85,619.5 1005.82,628.342 1007.8,639.038 1009.78,651.532 1011.76,665.758 1013.73,681.64 1015.71,699.088 1017.69,717.993 1019.67,738.226 1021.65,759.633 1023.62,782.041 1025.6,805.257 1027.58,829.076 1029.56,853.285 1031.54,877.67 1033.51,902.024 1035.49,926.145 1037.47,949.847 1039.45,972.962 1041.42,995.334 1043.4,1016.83 1045.38,1037.33 1047.36,1056.72 1049.34,1074.93 1051.31,1091.87 1053.29,1107.47 1055.27,1121.69 1057.25,1134.48 1059.23,1145.8 1061.2,1155.63 1063.18,1163.92 1065.16,1170.68 1067.14,1175.88 1069.12,1179.52 1071.09,1181.58 1073.07,1182.07 1075.05,1180.98 1077.03,1178.33 1079,1174.13 1080.98,1168.38 1082.96,1161.1 1084.94,1152.33 1086.92,1142.07 1088.89,1130.38 1090.87,1117.28 1092.85,1102.83 1094.83,1087.07 1096.81,1070.07 1098.78,1051.89 1100.76,1032.63 1102.74,1012.36 1104.72,991.182 1106.69,969.211 1108.67,946.565 1110.65,923.372 1112.63,899.772 1114.61,875.91 1116.58,851.941 1118.56,828.025 1120.54,804.328 1122.52,781.023 1124.5,758.285 1126.47,736.297 1128.45,715.247 1130.43,695.326 1132.41,676.731 1134.39,659.658 1136.36,644.296 1138.34,630.828 1140.32,619.418 1142.3,610.208 1144.27,603.311 1146.25,598.812 1148.23,596.762 1150.21,597.181 1152.19,600.058 1154.16,605.355 1156.14,613.006 1158.12,622.922 1160.1,634.987 1162.08,649.066 1164.05,664.999 1166.03,682.611 1168.01,701.709 1169.99,722.09 1171.96,743.543 1173.94,765.856 1175.92,788.82 1177.9,812.234 1179.88,835.907 1181.85,859.661 1183.83,883.333 1185.81,906.777 1187.79,929.86 1189.77,952.467 1191.74,974.495 1193.72,995.854 1195.7,1016.47 1197.68,1036.26 1199.65,1055.19 1201.63,1073.19 1203.61,1090.22 1205.59,1106.24 1207.57,1121.21 1209.54,1135.11 1211.52,1147.91 1213.5,1159.58 1215.48,1170.1 1217.46,1179.45 1219.43,1187.6 1221.41,1194.55 1223.39,1200.28 1225.37,1204.77 1227.35,1208 1229.32,1209.97 1231.3,1210.67 1233.28,1210.07 1235.26,1208.17 1237.23,1204.97 1239.21,1200.44 1241.19,1194.59 1243.17,1187.4 1245.15,1178.86 1247.12,1168.96 1249.1,1157.7 1251.08,1145.07 1253.06,1131.05 1255.04,1115.64 1257.01,1098.82 1258.99,1080.57 1260.97,1060.89 1262.95,1039.76 1264.92,1017.15 1266.9,993.011 1268.88,967.295 1270.86,940.032 1272.84,911.235 1274.81,880.769 1276.79,848.374 1278.77,813.947 1280.75,777.71 1282.73,739.857 1284.7,699.943 1286.68,656.961 1288.66,610.411 1290.64,561.1 1292.62,509.979 1294.59,455.723 1296.57,394.279 1298.55,322.041 1300.53,241.228 1302.5,163.437 1304.48,106.584 1306.46,86.1857 1308.44,107.287 1310.42,162.69 1312.39,238.119 1314.37,319.573 1316.35,398.125 1318.33,470.71 1320.31,537.952 1322.28,601.305 1324.26,661.622 1326.24,719.265 1328.22,774.373 1330.19,826.885 1332.17,876.739 1334.15,924.015 1336.13,968.792 1338.11,1011.08 1340.08,1050.93 1342.06,1088.39 1344.04,1123.51 1346.02,1156.29 1348,1186.77 1349.97,1214.98 1351.95,1240.94 1353.93,1264.67 1355.91,1286.2 1357.88,1305.55 1359.86,1322.73 1361.84,1337.76 1363.82,1350.66 1365.8,1361.44 1367.77,1370.13 1369.75,1376.74 1371.73,1381.28 1373.71,1383.77 1375.69,1384.24 1377.66,1382.69 1379.64,1379.15 1381.62,1373.63 1383.6,1366.16 1385.58,1356.76 1387.55,1345.46 1389.53,1332.29 1391.51,1317.27 1393.49,1300.44 1395.46,1281.85 1397.44,1261.53 1399.42,1239.55 1401.4,1215.94 1403.38,1190.78 1405.35,1164.13 1407.33,1136.09 1409.31,1106.72 1411.29,1076.13 1413.27,1044.43 1415.24,1011.73 1417.22,978.157 1419.2,943.849 1421.18,908.953 1423.15,873.625 1425.13,838.034 1427.11,802.358 1429.09,766.789 1431.07,731.53 1433.04,696.8 1435.02,662.834 1437,629.883 1438.98,598.216 1440.96,568.121 1442.93,539.902 1444.91,513.876 1446.89,490.363 1448.87,469.673 1450.85,452.092 1452.82,437.868 1454.8,427.201 1456.78,420.246 1458.76,417.109 1460.73,417.851 1462.71,422.492 1464.69,431.003 1466.67,443.302 1468.65,459.241 1470.62,478.606 1472.6,501.112 1474.58,526.416 1476.56,554.129 1478.54,583.833 1480.51,615.105 1482.49,647.535 1484.47,680.736 1486.45,714.357 1488.42,748.088 1490.4,781.659 1492.38,814.844 1494.36,847.45 1496.34,879.317 1498.31,910.314 1500.29,940.334 1502.27,969.287 1504.25,997.102 1506.23,1023.72 1508.2,1049.09 1510.18,1073.18 1512.16,1095.94 1514.14,1117.36 1516.11,1137.41 1518.09,1156.07 1520.07,1173.32 1522.05,1189.15 1524.03,1203.55 1526,1216.51 1527.98,1228.01 1529.96,1238.06 1531.94,1246.64 1533.92,1253.76 1535.89,1259.4 1537.87,1263.58 1539.85,1266.28 1541.83,1267.52 1543.81,1267.3 1545.78,1265.63 1547.76,1262.52 1549.74,1257.98 1551.72,1252.02 1553.69,1244.66 1555.67,1235.92 1557.65,1225.83 1559.63,1214.41 1561.61,1201.68 1563.58,1187.67 1565.56,1172.43 1567.54,1155.97 1569.52,1138.34 1571.5,1119.57 1573.47,1099.71 1575.45,1078.81 1577.43,1056.89 1579.41,1034.02 1581.38,1010.23 1583.36,985.586 1585.34,960.153 1587.32,933.993 1589.3,907.171 1591.27,879.754 1593.25,851.816 1595.23,823.452 1597.21,794.779 1599.19,765.943 1601.16,737.107 1603.14,708.445 1605.12,680.141 1607.1,652.403 1609.07,625.482 1611.05,599.693 1613.03,575.408 1615.01,553.039 1616.99,533 1618.96,515.684 1620.94,501.455 1622.92,490.66 1624.9,483.647 1626.88,480.766 1628.85,482.347 1630.83,488.65 1632.81,499.804 1634.79,515.753 1636.77,536.235 1638.74,560.789 1640.72,588.802 1642.7,619.564 1644.68,652.335 1646.65,686.401 1648.63,721.112 1650.61,755.907 1652.59,790.32 1654.57,823.976 1656.54,856.583 1658.52,887.916 1660.5,917.81 1662.48,946.141 1664.46,972.824 1666.43,997.798 1668.41,1021.02 1670.39,1042.48 1672.37,1062.16 1674.34,1080.05 1676.32,1096.17 1678.3,1110.53 1680.28,1123.15 1682.26,1134.06 1684.23,1143.28 1686.21,1150.85 1688.19,1156.81 1690.17,1161.21 1692.15,1164.08 1694.12,1165.48 1696.1,1165.48 1698.08,1164.12 1700.06,1161.48 1702.04,1157.63 1704.01,1152.65 1705.99,1146.62 1707.97,1139.65 1709.95,1131.81 1711.92,1123.23 1713.9,1114 1715.88,1104.24 1717.86,1094.06 1719.84,1083.58 1721.81,1072.91 1723.79,1062.14 1725.77,1051.38 1727.75,1040.7 1729.73,1030.17 1731.7,1019.84 1733.68,1009.73 1735.66,999.859 1737.64,990.211 1739.61,980.764 1741.59,971.476 1743.57,962.297 1745.55,953.168 1747.53,944.027 1749.5,934.81 1751.48,925.46 1753.46,915.923 1755.44,906.155 1757.42,896.124 1759.39,885.808 1761.37,875.201 1763.35,864.311 1765.33,853.162 1767.3,841.798 1769.28,830.279 1771.26,818.688 1773.24,807.132 1775.22,795.74 1777.19,784.665 1779.17,774.082 1781.15,764.177 1783.13,755.144 1785.11,747.172 1787.08,740.431 1789.06,735.062 1791.04,731.168 1793.02,728.802 1795,727.971 1796.97,728.629 1798.95,730.688 1800.93,734.022 1802.91,738.481 1804.88,743.896 1806.86,750.094 1808.84,756.907 1810.82,764.177 1812.8,771.761 1814.77,779.538 1816.75,787.407 1818.73,795.288 1820.71,803.122 1822.69,810.872 1824.66,818.518 1826.64,826.057 1828.62,833.505 1830.6,840.888 1832.57,848.247 1834.55,855.632 1836.53,863.103 1838.51,870.725 1840.49,878.563 1842.46,886.686 1844.44,895.153 1846.42,904.017 1848.4,913.314 1850.38,923.064 1852.35,933.267 1854.33,943.899 1856.31,954.912 1858.29,966.241 1860.27,977.798 1862.24,989.482 1864.22,1001.18 1866.2,1012.77 1868.18,1024.14 1870.15,1035.17 1872.13,1045.73 1874.11,1055.73 1876.09,1065.06 1878.07,1073.65 1880.04,1081.39 1882.02,1088.24 1884,1094.12 1885.98,1098.98 1887.96,1102.76 1889.93,1105.43 1891.91,1106.95 1893.89,1107.27 1895.87,1106.36 1897.84,1104.19 1899.82,1100.71 1901.8,1095.91 1903.78,1089.75 1905.76,1082.21 1907.73,1073.28 1909.71,1062.94 1911.69,1051.19 1913.67,1038.04 1915.65,1023.49 1917.62,1007.59 1919.6,990.394 1921.58,971.977 1923.56,952.45 1925.53,931.951 1927.51,910.657 1929.49,888.783 1931.47,866.594 1933.45,844.412 1935.42,822.628 1937.4,801.698 1939.38,782.139 1941.36,764.497 1943.34,749.315 1945.31,737.075 1947.29,728.15 1949.27,722.763 1951.25,720.965 1953.23,722.632 1955.2,727.493 1957.18,735.159 1959.16,745.178 1961.14,757.068 1963.11,770.364 1965.09,784.635 1967.07,799.5 1969.05,814.638 1971.03,829.779 1973,844.705 1974.98,859.241 1976.96,873.247 1978.94,886.613 1980.92,899.255 1982.89,911.107 1984.87,922.121 1986.85,932.259 1988.83,941.493 1990.8,949.804 1992.78,957.178 1994.76,963.607 1996.74,969.088 1998.72,973.622 2000.69,977.216 2002.67,979.884 2004.65,981.646 2006.63,982.533 2008.61,982.583 2010.58,981.845 2012.56,980.381 2014.54,978.261 2016.52,975.569 2018.5,972.398 2020.47,968.849 2022.45,965.029 2024.43,961.047 2026.41,957.012 2028.38,953.027 2030.36,949.187 2032.34,945.573 2034.32,942.253 2036.3,939.277 2038.27,936.679 2040.25,934.472 2042.23,932.659 2044.21,931.223 2046.19,930.139 2048.16,929.374 2050.14,928.884 2052.12,928.627 2054.1,928.553 2056.07,928.615 2058.05,928.765 2060.03,928.954 2062.01,929.138 2063.99,929.27 2065.96,929.309 2067.94,929.214 2069.92,928.948 2071.9,928.475 2073.88,927.765 2075.85,926.793 2077.83,925.538 2079.81,923.989 2081.79,922.14 2083.76,919.992 2085.74,917.558 2087.72,914.857 2089.7,911.919 2091.68,908.779 2093.65,905.482 2095.63,902.08 2097.61,898.629 2099.59,895.188 2101.57,891.822 2103.54,888.591 2105.52,885.558 2107.5,882.78 2109.48,880.309 2111.46,878.191 2113.43,876.464 2115.41,875.156 2117.39,874.287 2119.37,873.867 2121.34,873.898 2123.32,874.372 2125.3,875.276 2127.28,876.59 2129.26,878.29 2131.23,880.347 2133.21,882.734 2135.19,885.419 2137.17,888.372 2139.15,891.566 2141.12,894.972 2143.1,898.565 2145.08,902.321 2147.06,906.219 2149.03,910.241 2151.01,914.37 2152.99,918.59 2154.97,922.889 2156.95,927.256 2158.92,931.68 2160.9,936.154 2162.88,940.67 2164.86,945.221 2166.84,949.803 2168.81,954.409 2170.79,959.033 2172.77,963.668 2174.75,968.303 2176.73,972.925 2178.7,977.515 2180.68,982.048 2182.66,986.494 2184.64,990.812 2186.61,994.956 2188.59,998.872 2190.57,1002.5 2192.55,1005.77 2194.53,1008.6 2196.5,1010.94 2198.48,1012.7 2200.46,1013.81 2202.44,1014.2 2204.42,1013.82 2206.39,1012.61 2208.37,1010.54 2210.35,1007.56 2212.33,1003.67 2214.3,998.854 2216.28,993.128 2218.26,986.514 2220.24,979.051 2222.22,970.792 2224.19,961.806 2226.17,952.174 2228.15,941.994 2230.13,931.374 2232.11,920.434 2234.08,909.306 2236.06,898.129 2238.04,887.049 2240.02,876.213 2241.99,865.77 2243.97,855.868 2245.95,846.644 2247.93,838.229 2249.91,830.74 2251.88,824.278 2253.86,818.928 2255.84,814.752 2257.82,811.796 2259.8,810.084 2261.77,809.619 2263.75,810.387 2265.73,812.354 2267.71,815.471 2269.69,819.673 2271.66,824.883 2273.64,831.011 2275.62,837.959 2277.6,845.619 2279.57,853.877 2281.55,862.615 2283.53,871.711 2285.51,881.044 2287.49,890.492 2289.46,899.938 2291.44,909.266 2293.42,918.37 "/>
<polyline clip-path="url(#clip902)" style="stroke:#ff0000; stroke-linecap:round; stroke-linejoin:round; stroke-width:4; stroke-opacity:1; fill:none" stroke-dasharray="16, 10" points="315.545,1071.75 317.523,1082.3 319.501,1091.75 321.479,1100.06 323.456,1107.19 325.434,1113.08 327.412,1117.72 329.39,1121.08 331.368,1123.13 333.346,1123.88 335.324,1123.3 337.302,1121.4 339.279,1118.19 341.257,1113.68 343.235,1107.88 345.213,1100.82 347.191,1092.52 349.169,1083.04 351.147,1072.42 353.125,1060.73 355.102,1048.02 357.08,1034.39 359.058,1019.93 361.036,1004.77 363.014,989.023 364.992,972.845 366.97,956.405 368.948,939.892 370.925,923.516 372.903,907.504 374.881,892.095 376.859,877.533 378.837,864.057 380.815,851.882 382.793,841.193 384.771,832.129 386.748,824.773 388.726,819.147 390.704,815.212 392.682,812.873 394.66,811.987 396.638,812.375 398.616,813.832 400.594,816.141 402.571,819.088 404.549,822.463 406.527,826.073 408.505,829.743 410.483,833.321 412.461,836.675 414.439,839.695 416.417,842.291 418.394,844.393 420.372,845.951 422.35,846.934 424.328,847.329 426.306,847.14 428.284,846.388 430.262,845.11 432.24,843.361 434.217,841.212 436.195,838.756 438.173,836.103 440.151,833.383 442.129,830.746 444.107,828.359 446.085,826.403 448.063,825.065 450.04,824.539 452.018,825.009 453.996,826.645 455.974,829.593 457.952,833.963 459.93,839.825 461.908,847.202 463.886,856.068 465.863,866.352 467.841,877.941 469.819,890.688 471.797,904.416 473.775,918.936 475.753,934.045 477.731,949.539 479.709,965.22 481.686,980.896 483.664,996.387 485.642,1011.52 487.62,1026.15 489.598,1040.13 491.576,1053.33 493.554,1065.64 495.532,1076.95 497.509,1087.17 499.487,1096.21 501.465,1104 503.443,1110.48 505.421,1115.57 507.399,1119.24 509.377,1121.43 511.355,1122.09 513.332,1121.2 515.31,1118.72 517.288,1114.63 519.266,1108.9 521.244,1101.51 523.222,1092.44 525.2,1081.64 527.178,1069.13 529.155,1054.89 531.133,1038.97 533.111,1021.37 535.089,1002.07 537.067,981 539.045,958.079 541.023,933.277 543.001,906.697 544.978,878.568 546.956,849.135 548.934,818.48 550.912,786.403 552.89,752.496 554.868,716.448 556.846,678.516 558.824,639.964 560.801,603.237 562.779,571.675 564.757,548.805 566.735,537.46 568.713,539.066 570.691,553.351 572.669,578.534 574.646,611.892 576.624,650.441 578.602,691.507 580.58,733.059 582.558,773.772 584.536,812.924 586.514,850.188 588.492,885.454 590.469,918.694 592.447,949.911 594.425,979.111 596.403,1006.3 598.381,1031.48 600.359,1054.67 602.337,1075.86 604.315,1095.07 606.292,1112.31 608.27,1127.61 610.248,1140.96 612.226,1152.39 614.204,1161.92 616.182,1169.55 618.16,1175.3 620.138,1179.2 622.115,1181.25 624.093,1181.49 626.071,1179.93 628.049,1176.61 630.027,1171.54 632.005,1164.78 633.983,1156.35 635.961,1146.29 637.938,1134.67 639.916,1121.53 641.894,1106.93 643.872,1090.95 645.85,1073.65 647.828,1055.12 649.806,1035.45 651.784,1014.74 653.761,993.075 655.739,970.574 657.717,947.347 659.695,923.51 661.673,899.184 663.651,874.495 665.629,849.567 667.607,824.533 669.584,799.528 671.562,774.696 673.54,750.188 675.518,726.172 677.496,702.826 679.474,680.348 681.452,658.955 683.43,638.884 685.407,620.399 687.385,603.791 689.363,589.385 691.341,577.535 693.319,568.623 695.297,563.04 697.275,561.154 699.253,563.269 701.23,569.588 703.208,580.171 705.186,594.92 707.164,613.579 709.142,635.757 711.12,660.961 713.098,688.644 715.076,718.243 717.053,749.213 719.031,781.052 721.009,813.314 722.987,845.617 724.965,877.633 726.943,909.095 728.921,939.778 730.899,969.503 732.876,998.12 734.854,1025.51 736.832,1051.58 738.81,1076.24 740.788,1099.44 742.766,1121.12 744.744,1141.25 746.722,1159.78 748.699,1176.7 750.677,1191.99 752.655,1205.62 754.633,1217.59 756.611,1227.88 758.589,1236.5 760.567,1243.44 762.545,1248.7 764.522,1252.29 766.5,1254.2 768.478,1254.45 770.456,1253.04 772.434,1249.98 774.412,1245.3 776.39,1239 778.368,1231.13 780.345,1221.69 782.323,1210.71 784.301,1198.19 786.279,1184.16 788.257,1168.7 790.235,1151.89 792.213,1133.84 794.191,1114.5 796.168,1093.66 798.146,1071.26 800.124,1047.92 802.102,1023.33 804.08,997.578 806.058,970.843 808.036,943.096 810.014,914.411 811.991,884.912 813.969,854.623 815.947,823.411 817.925,790.954 819.903,756.981 821.881,721.657 823.859,685.76 825.837,650.182 827.814,614.83 829.792,577.831 831.77,535.961 833.748,486.349 835.726,428.802 837.704,367.735 839.682,312.004 841.66,272.068 843.637,256.101 845.615,267.095 847.593,302.194 849.571,354.411 851.549,415.533 853.527,478.639 855.505,539.346 857.483,595.809 859.46,647.937 861.438,696.394 863.416,741.873 865.394,784.849 867.372,825.621 869.35,864.372 871.328,901.197 873.306,936.144 875.283,969.256 877.261,1000.57 879.239,1030.12 881.217,1057.9 883.195,1083.92 885.173,1108.2 887.151,1130.72 889.129,1151.5 891.106,1170.53 893.084,1187.8 895.062,1203.33 897.04,1217.12 899.018,1229.17 900.996,1239.48 902.974,1248.08 904.952,1254.96 906.929,1260.14 908.907,1263.62 910.885,1265.43 912.863,1265.57 914.841,1264.05 916.819,1260.9 918.797,1256.14 920.775,1249.78 922.752,1241.85 924.73,1232.38 926.708,1221.38 928.686,1208.91 930.664,1194.98 932.642,1179.65 934.62,1162.95 936.598,1144.94 938.575,1125.67 940.553,1105.22 942.531,1083.66 944.509,1061.08 946.487,1037.58 948.465,1013.29 950.443,988.338 952.421,962.894 954.398,937.129 956.376,911.238 958.354,885.427 960.332,859.912 962.31,834.908 964.288,810.623 966.266,787.249 968.244,764.951 970.221,743.868 972.199,724.101 974.177,705.719 976.155,688.763 978.133,673.254 980.111,659.201 982.089,646.615 984.067,635.519 986.044,625.951 988.022,617.97 990,611.651 991.978,607.074 993.956,604.319 995.934,603.455 997.912,604.529 999.89,607.565 1001.87,612.562 1003.85,619.5 1005.82,628.342 1007.8,639.038 1009.78,651.532 1011.76,665.758 1013.73,681.64 1015.71,699.088 1017.69,717.993 1019.67,738.226 1021.65,759.633 1023.62,782.041 1025.6,805.257 1027.58,829.076 1029.56,853.285 1031.54,877.67 1033.51,902.024 1035.49,926.145 1037.47,949.847 1039.45,972.962 1041.42,995.334 1043.4,1016.83 1045.38,1037.33 1047.36,1056.72 1049.34,1074.93 1051.31,1091.87 1053.29,1107.47 1055.27,1121.69 1057.25,1134.48 1059.23,1145.8 1061.2,1155.63 1063.18,1163.92 1065.16,1170.68 1067.14,1175.88 1069.12,1179.52 1071.09,1181.58 1073.07,1182.07 1075.05,1180.98 1077.03,1178.33 1079,1174.13 1080.98,1168.38 1082.96,1161.1 1084.94,1152.33 1086.92,1142.07 1088.89,1130.38 1090.87,1117.28 1092.85,1102.83 1094.83,1087.07 1096.81,1070.07 1098.78,1051.89 1100.76,1032.63 1102.74,1012.36 1104.72,991.182 1106.69,969.211 1108.67,946.565 1110.65,923.372 1112.63,899.772 1114.61,875.91 1116.58,851.941 1118.56,828.025 1120.54,804.328 1122.52,781.023 1124.5,758.285 1126.47,736.297 1128.45,715.247 1130.43,695.326 1132.41,676.731 1134.39,659.658 1136.36,644.296 1138.34,630.828 1140.32,619.418 1142.3,610.208 1144.27,603.311 1146.25,598.812 1148.23,596.762 1150.21,597.181 1152.19,600.058 1154.16,605.355 1156.14,613.006 1158.12,622.922 1160.1,634.987 1162.08,649.066 1164.05,664.999 1166.03,682.611 1168.01,701.709 1169.99,722.09 1171.96,743.543 1173.94,765.856 1175.92,788.82 1177.9,812.234 1179.88,835.907 1181.85,859.661 1183.83,883.333 1185.81,906.777 1187.79,929.86 1189.77,952.467 1191.74,974.495 1193.72,995.854 1195.7,1016.47 1197.68,1036.26 1199.65,1055.19 1201.63,1073.19 1203.61,1090.22 1205.59,1106.24 1207.57,1121.21 1209.54,1135.11 1211.52,1147.91 1213.5,1159.58 1215.48,1170.1 1217.46,1179.45 1219.43,1187.6 1221.41,1194.55 1223.39,1200.28 1225.37,1204.77 1227.35,1208 1229.32,1209.97 1231.3,1210.67 1233.28,1210.07 1235.26,1208.17 1237.23,1204.97 1239.21,1200.44 1241.19,1194.59 1243.17,1187.4 1245.15,1178.86 1247.12,1168.96 1249.1,1157.7 1251.08,1145.07 1253.06,1131.05 1255.04,1115.64 1257.01,1098.82 1258.99,1080.57 1260.97,1060.89 1262.95,1039.76 1264.92,1017.15 1266.9,993.011 1268.88,967.295 1270.86,940.032 1272.84,911.235 1274.81,880.769 1276.79,848.374 1278.77,813.947 1280.75,777.71 1282.73,739.857 1284.7,699.943 1286.68,656.961 1288.66,610.411 1290.64,561.1 1292.62,509.979 1294.59,455.723 1296.57,394.279 1298.55,322.041 1300.53,241.228 1302.5,163.437 1304.48,106.584 1306.46,86.1857 1308.44,107.287 1310.42,162.69 1312.39,238.119 1314.37,319.573 1316.35,398.125 1318.33,470.71 1320.31,537.952 1322.28,601.305 1324.26,661.622 1326.24,719.265 1328.22,774.373 1330.19,826.885 1332.17,876.739 1334.15,924.015 1336.13,968.792 1338.11,1011.08 1340.08,1050.93 1342.06,1088.39 1344.04,1123.51 1346.02,1156.29 1348,1186.77 1349.97,1214.98 1351.95,1240.94 1353.93,1264.67 1355.91,1286.2 1357.88,1305.55 1359.86,1322.73 1361.84,1337.76 1363.82,1350.66 1365.8,1361.44 1367.77,1370.13 1369.75,1376.74 1371.73,1381.28 1373.71,1383.77 1375.69,1384.24 1377.66,1382.69 1379.64,1379.15 1381.62,1373.63 1383.6,1366.16 1385.58,1356.76 1387.55,1345.46 1389.53,1332.29 1391.51,1317.27 1393.49,1300.44 1395.46,1281.85 1397.44,1261.53 1399.42,1239.55 1401.4,1215.94 1403.38,1190.78 1405.35,1164.13 1407.33,1136.09 1409.31,1106.72 1411.29,1076.13 1413.27,1044.43 1415.24,1011.73 1417.22,978.157 1419.2,943.849 1421.18,908.953 1423.15,873.625 1425.13,838.034 1427.11,802.358 1429.09,766.789 1431.07,731.53 1433.04,696.8 1435.02,662.834 1437,629.883 1438.98,598.216 1440.96,568.121 1442.93,539.902 1444.91,513.876 1446.89,490.363 1448.87,469.673 1450.85,452.092 1452.82,437.868 1454.8,427.201 1456.78,420.246 1458.76,417.109 1460.73,417.851 1462.71,422.492 1464.69,431.003 1466.67,443.302 1468.65,459.241 1470.62,478.606 1472.6,501.112 1474.58,526.416 1476.56,554.129 1478.54,583.833 1480.51,615.105 1482.49,647.535 1484.47,680.736 1486.45,714.357 1488.42,748.088 1490.4,781.659 1492.38,814.844 1494.36,847.45 1496.34,879.317 1498.31,910.314 1500.29,940.334 1502.27,969.287 1504.25,997.102 1506.23,1023.72 1508.2,1049.09 1510.18,1073.18 1512.16,1095.94 1514.14,1117.36 1516.11,1137.41 1518.09,1156.07 1520.07,1173.32 1522.05,1189.15 1524.03,1203.55 1526,1216.51 1527.98,1228.01 1529.96,1238.06 1531.94,1246.64 1533.92,1253.76 1535.89,1259.4 1537.87,1263.58 1539.85,1266.28 1541.83,1267.52 1543.81,1267.3 1545.78,1265.63 1547.76,1262.52 1549.74,1257.98 1551.72,1252.02 1553.69,1244.66 1555.67,1235.92 1557.65,1225.83 1559.63,1214.41 1561.61,1201.68 1563.58,1187.67 1565.56,1172.43 1567.54,1155.97 1569.52,1138.34 1571.5,1119.57 1573.47,1099.71 1575.45,1078.81 1577.43,1056.89 1579.41,1034.02 1581.38,1010.23 1583.36,985.586 1585.34,960.153 1587.32,933.993 1589.3,907.171 1591.27,879.754 1593.25,851.816 1595.23,823.452 1597.21,794.779 1599.19,765.943 1601.16,737.107 1603.14,708.445 1605.12,680.141 1607.1,652.403 1609.07,625.482 1611.05,599.693 1613.03,575.408 1615.01,553.039 1616.99,533 1618.96,515.684 1620.94,501.455 1622.92,490.66 1624.9,483.647 1626.88,480.766 1628.85,482.347 1630.83,488.65 1632.81,499.804 1634.79,515.753 1636.77,536.235 1638.74,560.789 1640.72,588.802 1642.7,619.564 1644.68,652.335 1646.65,686.401 1648.63,721.112 1650.61,755.907 1652.59,790.32 1654.57,823.976 1656.54,856.583 1658.52,887.916 1660.5,917.81 1662.48,946.141 1664.46,972.824 1666.43,997.798 1668.41,1021.02 1670.39,1042.48 1672.37,1062.16 1674.34,1080.05 1676.32,1096.17 1678.3,1110.53 1680.28,1123.15 1682.26,1134.06 1684.23,1143.28 1686.21,1150.85 1688.19,1156.81 1690.17,1161.21 1692.15,1164.08 1694.12,1165.48 1696.1,1165.48 1698.08,1164.12 1700.06,1161.48 1702.04,1157.63 1704.01,1152.65 1705.99,1146.62 1707.97,1139.65 1709.95,1131.81 1711.92,1123.23 1713.9,1114 1715.88,1104.24 1717.86,1094.06 1719.84,1083.58 1721.81,1072.91 1723.79,1062.14 1725.77,1051.38 1727.75,1040.7 1729.73,1030.17 1731.7,1019.84 1733.68,1009.73 1735.66,999.859 1737.64,990.211 1739.61,980.764 1741.59,971.476 1743.57,962.297 1745.55,953.168 1747.53,944.027 1749.5,934.81 1751.48,925.46 1753.46,915.923 1755.44,906.155 1757.42,896.124 1759.39,885.808 1761.37,875.201 1763.35,864.311 1765.33,853.162 1767.3,841.798 1769.28,830.279 1771.26,818.688 1773.24,807.132 1775.22,795.74 1777.19,784.665 1779.17,774.082 1781.15,764.177 1783.13,755.144 1785.11,747.172 1787.08,740.431 1789.06,735.062 1791.04,731.168 1793.02,728.802 1795,727.971 1796.97,728.629 1798.95,730.688 1800.93,734.022 1802.91,738.481 1804.88,743.896 1806.86,750.094 1808.84,756.907 1810.82,764.177 1812.8,771.761 1814.77,779.538 1816.75,787.407 1818.73,795.288 1820.71,803.122 1822.69,810.872 1824.66,818.518 1826.64,826.057 1828.62,833.505 1830.6,840.888 1832.57,848.247 1834.55,855.632 1836.53,863.103 1838.51,870.725 1840.49,878.563 1842.46,886.686 1844.44,895.153 1846.42,904.017 1848.4,913.314 1850.38,923.064 1852.35,933.267 1854.33,943.899 1856.31,954.912 1858.29,966.241 1860.27,977.798 1862.24,989.482 1864.22,1001.18 1866.2,1012.77 1868.18,1024.14 1870.15,1035.17 1872.13,1045.73 1874.11,1055.73 1876.09,1065.06 1878.07,1073.65 1880.04,1081.39 1882.02,1088.24 1884,1094.12 1885.98,1098.98 1887.96,1102.76 1889.93,1105.43 1891.91,1106.95 1893.89,1107.27 1895.87,1106.36 1897.84,1104.19 1899.82,1100.71 1901.8,1095.91 1903.78,1089.75 1905.76,1082.21 1907.73,1073.28 1909.71,1062.94 1911.69,1051.19 1913.67,1038.04 1915.65,1023.49 1917.62,1007.59 1919.6,990.394 1921.58,971.977 1923.56,952.45 1925.53,931.951 1927.51,910.657 1929.49,888.783 1931.47,866.594 1933.45,844.412 1935.42,822.628 1937.4,801.698 1939.38,782.139 1941.36,764.497 1943.34,749.315 1945.31,737.075 1947.29,728.15 1949.27,722.763 1951.25,720.965 1953.23,722.632 1955.2,727.493 1957.18,735.159 1959.16,745.178 1961.14,757.068 1963.11,770.364 1965.09,784.635 1967.07,799.5 1969.05,814.638 1971.03,829.779 1973,844.705 1974.98,859.241 1976.96,873.247 1978.94,886.613 1980.92,899.255 1982.89,911.107 1984.87,922.121 1986.85,932.259 1988.83,941.493 1990.8,949.804 1992.78,957.178 1994.76,963.607 1996.74,969.088 1998.72,973.622 2000.69,977.216 2002.67,979.884 2004.65,981.646 2006.63,982.533 2008.61,982.583 2010.58,981.845 2012.56,980.381 2014.54,978.261 2016.52,975.569 2018.5,972.398 2020.47,968.849 2022.45,965.029 2024.43,961.047 2026.41,957.012 2028.38,953.027 2030.36,949.187 2032.34,945.573 2034.32,942.253 2036.3,939.277 2038.27,936.679 2040.25,934.472 2042.23,932.659 2044.21,931.223 2046.19,930.139 2048.16,929.374 2050.14,928.884 2052.12,928.627 2054.1,928.553 2056.07,928.615 2058.05,928.765 2060.03,928.954 2062.01,929.138 2063.99,929.27 2065.96,929.309 2067.94,929.214 2069.92,928.948 2071.9,928.475 2073.88,927.765 2075.85,926.793 2077.83,925.538 2079.81,923.989 2081.79,922.14 2083.76,919.992 2085.74,917.558 2087.72,914.857 2089.7,911.919 2091.68,908.779 2093.65,905.482 2095.63,902.08 2097.61,898.629 2099.59,895.188 2101.57,891.822 2103.54,888.591 2105.52,885.558 2107.5,882.78 2109.48,880.309 2111.46,878.191 2113.43,876.464 2115.41,875.156 2117.39,874.287 2119.37,873.867 2121.34,873.898 2123.32,874.372 2125.3,875.276 2127.28,876.59 2129.26,878.29 2131.23,880.347 2133.21,882.734 2135.19,885.419 2137.17,888.372 2139.15,891.566 2141.12,894.972 2143.1,898.565 2145.08,902.321 2147.06,906.219 2149.03,910.241 2151.01,914.37 2152.99,918.59 2154.97,922.889 2156.95,927.256 2158.92,931.68 2160.9,936.154 2162.88,940.67 2164.86,945.221 2166.84,949.803 2168.81,954.409 2170.79,959.033 2172.77,963.668 2174.75,968.303 2176.73,972.925 2178.7,977.515 2180.68,982.048 2182.66,986.494 2184.64,990.812 2186.61,994.956 2188.59,998.872 2190.57,1002.5 2192.55,1005.77 2194.53,1008.6 2196.5,1010.94 2198.48,1012.7 2200.46,1013.81 2202.44,1014.2 2204.42,1013.82 2206.39,1012.61 2208.37,1010.54 2210.35,1007.56 2212.33,1003.67 2214.3,998.854 2216.28,993.128 2218.26,986.514 2220.24,979.051 2222.22,970.792 2224.19,961.806 2226.17,952.174 2228.15,941.994 2230.13,931.374 2232.11,920.434 2234.08,909.306 2236.06,898.129 2238.04,887.049 2240.02,876.213 2241.99,865.77 2243.97,855.868 2245.95,846.644 2247.93,838.229 2249.91,830.74 2251.88,824.278 2253.86,818.928 2255.84,814.752 2257.82,811.796 2259.8,810.084 2261.77,809.619 2263.75,810.387 2265.73,812.354 2267.71,815.471 2269.69,819.673 2271.66,824.883 2273.64,831.011 2275.62,837.959 2277.6,845.619 2279.57,853.877 2281.55,862.615 2283.53,871.711 2285.51,881.044 2287.49,890.492 2289.46,899.938 2291.44,909.266 2293.42,918.37 "/>
<path clip-path="url(#clip900)" d="M1894.81 248.629 L2282.87 248.629 L2282.87 93.1086 L1894.81 93.1086  Z" fill="#ffffff" fill-rule="evenodd" fill-opacity="1"/>
<polyline clip-path="url(#clip900)" style="stroke:#000000; stroke-linecap:round; stroke-linejoin:round; stroke-width:4; stroke-opacity:1; fill:none" points="1894.81,248.629 2282.87,248.629 2282.87,93.1086 1894.81,93.1086 1894.81,248.629 "/>
<polyline clip-path="url(#clip900)" style="stroke:#0000ff; stroke-linecap:round; stroke-linejoin:round; stroke-width:4; stroke-opacity:1; fill:none" points="1918.11,144.949 2057.88,144.949 "/>
<path clip-path="url(#clip900)" d="M2103.42 128.803 L2103.42 133.363 Q2100.76 132.09 2098.4 131.465 Q2096.04 130.84 2093.84 130.84 Q2090.02 130.84 2087.93 132.321 Q2085.87 133.803 2085.87 136.534 Q2085.87 138.826 2087.24 140.007 Q2088.63 141.164 2092.47 141.882 L2095.29 142.46 Q2100.53 143.456 2103 145.979 Q2105.5 148.479 2105.5 152.692 Q2105.5 157.715 2102.12 160.307 Q2098.77 162.9 2092.26 162.9 Q2089.81 162.9 2087.03 162.344 Q2084.28 161.789 2081.31 160.701 L2081.31 155.886 Q2084.16 157.483 2086.89 158.293 Q2089.62 159.104 2092.26 159.104 Q2096.27 159.104 2098.44 157.53 Q2100.62 155.956 2100.62 153.039 Q2100.62 150.493 2099.04 149.057 Q2097.49 147.622 2093.93 146.905 L2091.08 146.349 Q2085.85 145.307 2083.51 143.085 Q2081.17 140.863 2081.17 136.905 Q2081.17 132.321 2084.39 129.682 Q2087.63 127.044 2093.3 127.044 Q2095.73 127.044 2098.26 127.483 Q2100.78 127.923 2103.42 128.803 Z" fill="#000000" fill-rule="nonzero" fill-opacity="1" /><path clip-path="url(#clip900)" d="M2112.17 151.997 L2112.17 136.303 L2116.43 136.303 L2116.43 151.835 Q2116.43 155.516 2117.86 157.368 Q2119.3 159.196 2122.17 159.196 Q2125.62 159.196 2127.61 156.997 Q2129.62 154.798 2129.62 151.002 L2129.62 136.303 L2133.88 136.303 L2133.88 162.229 L2129.62 162.229 L2129.62 158.247 Q2128.07 160.608 2126.01 161.766 Q2123.97 162.9 2121.27 162.9 Q2116.8 162.9 2114.48 160.122 Q2112.17 157.344 2112.17 151.997 M2122.89 135.678 L2122.89 135.678 Z" fill="#000000" fill-rule="nonzero" fill-opacity="1" /><path clip-path="url(#clip900)" d="M2162.84 141.28 Q2164.44 138.409 2166.66 137.044 Q2168.88 135.678 2171.89 135.678 Q2175.94 135.678 2178.14 138.525 Q2180.34 141.349 2180.34 146.581 L2180.34 162.229 L2176.06 162.229 L2176.06 146.719 Q2176.06 142.993 2174.74 141.187 Q2173.42 139.382 2170.71 139.382 Q2167.4 139.382 2165.48 141.581 Q2163.56 143.78 2163.56 147.576 L2163.56 162.229 L2159.28 162.229 L2159.28 146.719 Q2159.28 142.969 2157.96 141.187 Q2156.64 139.382 2153.88 139.382 Q2150.62 139.382 2148.7 141.604 Q2146.78 143.803 2146.78 147.576 L2146.78 162.229 L2142.49 162.229 L2142.49 136.303 L2146.78 136.303 L2146.78 140.331 Q2148.23 137.946 2150.27 136.812 Q2152.31 135.678 2155.11 135.678 Q2157.93 135.678 2159.9 137.113 Q2161.89 138.548 2162.84 141.28 Z" fill="#000000" fill-rule="nonzero" fill-opacity="1" /><polyline clip-path="url(#clip900)" style="stroke:#ff0000; stroke-linecap:round; stroke-linejoin:round; stroke-width:4; stroke-opacity:1; fill:none" stroke-dasharray="16, 10" points="1918.11,196.789 2057.88,196.789 "/>
<path clip-path="url(#clip900)" d="M2097.19 182.68 Q2092.1 182.68 2089.09 186.476 Q2086.1 190.272 2086.1 196.823 Q2086.1 203.351 2089.09 207.147 Q2092.1 210.944 2097.19 210.944 Q2102.29 210.944 2105.25 207.147 Q2108.23 203.351 2108.23 196.823 Q2108.23 190.272 2105.25 186.476 Q2102.29 182.68 2097.19 182.68 M2097.19 178.884 Q2104.46 178.884 2108.81 183.768 Q2113.16 188.629 2113.16 196.823 Q2113.16 204.995 2108.81 209.879 Q2104.46 214.74 2097.19 214.74 Q2089.9 214.74 2085.53 209.879 Q2081.17 205.018 2081.17 196.823 Q2081.17 188.629 2085.53 183.768 Q2089.9 178.884 2097.19 178.884 Z" fill="#000000" fill-rule="nonzero" fill-opacity="1" /><path clip-path="url(#clip900)" d="M2135.32 192.124 Q2134.6 191.708 2133.74 191.522 Q2132.91 191.314 2131.89 191.314 Q2128.28 191.314 2126.34 193.675 Q2124.41 196.013 2124.41 200.411 L2124.41 214.069 L2120.13 214.069 L2120.13 188.143 L2124.41 188.143 L2124.41 192.171 Q2125.76 189.809 2127.91 188.675 Q2130.06 187.518 2133.14 187.518 Q2133.58 187.518 2134.11 187.587 Q2134.65 187.634 2135.29 187.749 L2135.32 192.124 Z" fill="#000000" fill-rule="nonzero" fill-opacity="1" /><path clip-path="url(#clip900)" d="M2139.79 188.143 L2144.04 188.143 L2144.04 214.069 L2139.79 214.069 L2139.79 188.143 M2139.79 178.05 L2144.04 178.05 L2144.04 183.444 L2139.79 183.444 L2139.79 178.05 Z" fill="#000000" fill-rule="nonzero" fill-opacity="1" /><path clip-path="url(#clip900)" d="M2170.02 200.805 Q2170.02 196.175 2168.1 193.629 Q2166.2 191.083 2162.75 191.083 Q2159.32 191.083 2157.4 193.629 Q2155.5 196.175 2155.5 200.805 Q2155.5 205.411 2157.4 207.958 Q2159.32 210.504 2162.75 210.504 Q2166.2 210.504 2168.1 207.958 Q2170.02 205.411 2170.02 200.805 M2174.28 210.851 Q2174.28 217.471 2171.34 220.689 Q2168.4 223.93 2162.33 223.93 Q2160.09 223.93 2158.1 223.582 Q2156.1 223.258 2154.23 222.564 L2154.23 218.42 Q2156.1 219.439 2157.93 219.925 Q2159.76 220.411 2161.66 220.411 Q2165.85 220.411 2167.93 218.212 Q2170.02 216.036 2170.02 211.615 L2170.02 209.508 Q2168.7 211.8 2166.64 212.934 Q2164.58 214.069 2161.71 214.069 Q2156.94 214.069 2154.02 210.434 Q2151.1 206.8 2151.1 200.805 Q2151.1 194.786 2154.02 191.152 Q2156.94 187.518 2161.71 187.518 Q2164.58 187.518 2166.64 188.652 Q2168.7 189.786 2170.02 192.078 L2170.02 188.143 L2174.28 188.143 L2174.28 210.851 Z" fill="#000000" fill-rule="nonzero" fill-opacity="1" /><path clip-path="url(#clip900)" d="M2183.05 188.143 L2187.31 188.143 L2187.31 214.069 L2183.05 214.069 L2183.05 188.143 M2183.05 178.05 L2187.31 178.05 L2187.31 183.444 L2183.05 183.444 L2183.05 178.05 Z" fill="#000000" fill-rule="nonzero" fill-opacity="1" /><path clip-path="url(#clip900)" d="M2217.77 198.421 L2217.77 214.069 L2213.51 214.069 L2213.51 198.559 Q2213.51 194.879 2212.08 193.05 Q2210.64 191.222 2207.77 191.222 Q2204.32 191.222 2202.33 193.421 Q2200.34 195.62 2200.34 199.416 L2200.34 214.069 L2196.06 214.069 L2196.06 188.143 L2200.34 188.143 L2200.34 192.171 Q2201.87 189.833 2203.93 188.675 Q2206.01 187.518 2208.72 187.518 Q2213.19 187.518 2215.48 190.296 Q2217.77 193.05 2217.77 198.421 Z" fill="#000000" fill-rule="nonzero" fill-opacity="1" /><path clip-path="url(#clip900)" d="M2238.05 201.036 Q2232.89 201.036 2230.9 202.217 Q2228.9 203.397 2228.9 206.245 Q2228.9 208.513 2230.39 209.856 Q2231.89 211.175 2234.46 211.175 Q2238 211.175 2240.13 208.675 Q2242.28 206.152 2242.28 201.985 L2242.28 201.036 L2238.05 201.036 M2246.54 199.277 L2246.54 214.069 L2242.28 214.069 L2242.28 210.133 Q2240.83 212.495 2238.65 213.629 Q2236.47 214.74 2233.33 214.74 Q2229.34 214.74 2226.98 212.518 Q2224.65 210.272 2224.65 206.522 Q2224.65 202.147 2227.56 199.925 Q2230.5 197.703 2236.31 197.703 L2242.28 197.703 L2242.28 197.286 Q2242.28 194.347 2240.34 192.749 Q2238.42 191.129 2234.92 191.129 Q2232.7 191.129 2230.59 191.661 Q2228.49 192.194 2226.54 193.259 L2226.54 189.323 Q2228.88 188.421 2231.08 187.981 Q2233.28 187.518 2235.36 187.518 Q2240.99 187.518 2243.77 190.434 Q2246.54 193.351 2246.54 199.277 Z" fill="#000000" fill-rule="nonzero" fill-opacity="1" /><path clip-path="url(#clip900)" d="M2255.32 178.05 L2259.58 178.05 L2259.58 214.069 L2255.32 214.069 L2255.32 178.05 Z" fill="#000000" fill-rule="nonzero" fill-opacity="1" /></svg>
